  0
SECTION
  2
HEADER
  9
$ANGBASE
  50
0.0
  9
$ANGDIR
  70
1
  9
$MEASUREMENT
  70
1
  0
ENDSEC
  0
SECTION
  2
TABLES
  0
TABLE
  2
LTYPE
  70
4
  0
LTYPE
  5
40F
  2
CONTINUOUS
  70
0
  3
Solid line
  72
65
  73
0
  40
0.0
  0
LTYPE
  5
410
  2
DASHDOT
 70
0
  3
Dash Dot ____ _ ____ _
 72
65
 73
4
 40
2.0
 49
1.25
 49
-0.25
 49
0.25
 49
-0.25
  0
LTYPE
  5
411
  2
DASHED
 70
0
  3
Dashed __ __ __ __ __
 72
65
 73
2
 40
0.75
 49
0.5
 49
-0.25
  0
LTYPE
  5
43B
  2
DOTTED
 70
0
  3
Dotted .  .  .  .
 72
65
 73
2
 40
0.2
 49
0.0
 49
-0.2
  0
ENDTAB
  0
TABLE
  2
STYLE
  70
4
  0
STYLE
  2
KICAD
  70
0
  40
0
  41
1
  42
1
  50
0
  71
0
  3
isocp.shx
  0
STYLE
  2
KICADB
  70
0
  40
0
  41
1
  42
1
  50
0
  71
0
  3
isocp.shx
  0
STYLE
  2
KICADI
  70
0
  40
0
  41
1
  42
1
  50
15
  71
0
  3
isocp.shx
  0
STYLE
  2
KICADBI
  70
0
  40
0
  41
1
  42
1
  50
15
  71
0
  3
isocp.shx
  0
ENDTAB
  0
TABLE
  2
LAYER
  70
1
  0
LAYER
  2
BLACK
  70
0
  62
7
  6
CONTINUOUS
  0
ENDTAB
  0
ENDSEC
  0
SECTION
  2
ENTITIES
0
LINE
8
BLACK
6
CONTINUOUS
10
146.064
20
-126.895
11
146.046
21
-126.853
0
LINE
8
BLACK
6
CONTINUOUS
10
146.046
20
-126.853
11
146.046
21
-114.153
0
LINE
8
BLACK
6
CONTINUOUS
10
146.046
20
-114.153
11
146.064
21
-114.11
0
LINE
8
BLACK
6
CONTINUOUS
10
146.064
20
-114.11
11
146.106
21
-114.093
0
LINE
8
BLACK
6
CONTINUOUS
10
146.106
20
-114.093
11
153.106
21
-114.093
0
LINE
8
BLACK
6
CONTINUOUS
10
153.106
20
-114.093
11
153.148
21
-114.11
0
LINE
8
BLACK
6
CONTINUOUS
10
153.148
20
-114.11
11
153.166
21
-114.153
0
LINE
8
BLACK
6
CONTINUOUS
10
153.166
20
-114.153
11
153.166
21
-126.853
0
LINE
8
BLACK
6
CONTINUOUS
10
153.166
20
-126.853
11
153.148
21
-126.895
0
LINE
8
BLACK
6
CONTINUOUS
10
153.148
20
-126.895
11
153.106
21
-126.913
0
LINE
8
BLACK
6
CONTINUOUS
10
153.106
20
-126.913
11
146.106
21
-126.913
0
LINE
8
BLACK
6
CONTINUOUS
10
146.106
20
-126.913
11
146.064
21
-126.895
0
LINE
8
BLACK
6
CONTINUOUS
10
146.166
20
-114.213
11
146.166
21
-126.793
0
LINE
8
BLACK
6
CONTINUOUS
10
146.166
20
-126.793
11
153.046
21
-126.793
0
LINE
8
BLACK
6
CONTINUOUS
10
153.046
20
-126.793
11
153.046
21
-114.213
0
LINE
8
BLACK
6
CONTINUOUS
10
153.046
20
-114.213
11
146.166
21
-114.213
0
LINE
8
BLACK
6
CONTINUOUS
10
150.727
20
-112.265
11
150.73
21
-112.268
0
LINE
8
BLACK
6
CONTINUOUS
10
150.73
20
-112.268
11
150.735
21
-112.268
0
LINE
8
BLACK
6
CONTINUOUS
10
150.735
20
-112.268
11
150.83
21
-112.316
0
LINE
8
BLACK
6
CONTINUOUS
10
150.83
20
-112.316
11
150.848
21
-112.329
0
LINE
8
BLACK
6
CONTINUOUS
10
150.848
20
-112.329
11
150.85
21
-112.33
0
LINE
8
BLACK
6
CONTINUOUS
10
150.85
20
-112.33
11
150.897
21
-112.377
0
LINE
8
BLACK
6
CONTINUOUS
10
150.897
20
-112.377
11
150.91
21
-112.396
0
LINE
8
BLACK
6
CONTINUOUS
10
150.91
20
-112.396
11
150.911
21
-112.397
0
LINE
8
BLACK
6
CONTINUOUS
10
150.911
20
-112.397
11
150.959
21
-112.492
0
LINE
8
BLACK
6
CONTINUOUS
10
150.959
20
-112.492
11
150.962
21
-112.505
0
LINE
8
BLACK
6
CONTINUOUS
10
150.962
20
-112.505
11
150.964
21
-112.507
0
LINE
8
BLACK
6
CONTINUOUS
10
150.964
20
-112.507
11
151.012
21
-112.698
0
LINE
8
BLACK
6
CONTINUOUS
10
151.012
20
-112.698
11
151.013
21
-112.713
0
LINE
8
BLACK
6
CONTINUOUS
10
151.013
20
-112.713
11
151.014
21
-112.716
0
LINE
8
BLACK
6
CONTINUOUS
10
151.014
20
-112.716
11
151.014
21
-112.954
0
LINE
8
BLACK
6
CONTINUOUS
10
151.014
20
-112.954
11
151.012
21
-112.969
0
LINE
8
BLACK
6
CONTINUOUS
10
151.012
20
-112.969
11
151.012
21
-112.972
0
LINE
8
BLACK
6
CONTINUOUS
10
151.012
20
-112.972
11
150.964
21
-113.163
0
LINE
8
BLACK
6
CONTINUOUS
10
150.964
20
-113.163
11
150.959
21
-113.175
0
LINE
8
BLACK
6
CONTINUOUS
10
150.959
20
-113.175
11
150.959
21
-113.178
0
LINE
8
BLACK
6
CONTINUOUS
10
150.959
20
-113.178
11
150.911
21
-113.273
0
LINE
8
BLACK
6
CONTINUOUS
10
150.911
20
-113.273
11
150.898
21
-113.291
0
LINE
8
BLACK
6
CONTINUOUS
10
150.898
20
-113.291
11
150.897
21
-113.293
0
LINE
8
BLACK
6
CONTINUOUS
10
150.897
20
-113.293
11
150.85
21
-113.341
0
LINE
8
BLACK
6
CONTINUOUS
10
150.85
20
-113.341
11
150.831
21
-113.353
0
LINE
8
BLACK
6
CONTINUOUS
10
150.831
20
-113.353
11
150.83
21
-113.355
0
LINE
8
BLACK
6
CONTINUOUS
10
150.83
20
-113.355
11
150.735
21
-113.402
0
LINE
8
BLACK
6
CONTINUOUS
10
150.735
20
-113.402
11
150.71
21
-113.41
0
LINE
8
BLACK
6
CONTINUOUS
10
150.71
20
-113.41
11
150.705
21
-113.409
0
LINE
8
BLACK
6
CONTINUOUS
10
150.705
20
-113.409
11
150.701
21
-113.41
0
LINE
8
BLACK
6
CONTINUOUS
10
150.701
20
-113.41
11
150.606
21
-113.41
0
LINE
8
BLACK
6
CONTINUOUS
10
150.606
20
-113.41
11
150.58
21
-113.406
0
LINE
8
BLACK
6
CONTINUOUS
10
150.58
20
-113.406
11
150.577
21
-113.403
0
LINE
8
BLACK
6
CONTINUOUS
10
150.577
20
-113.403
11
150.572
21
-113.402
0
LINE
8
BLACK
6
CONTINUOUS
10
150.572
20
-113.402
11
150.477
21
-113.355
0
LINE
8
BLACK
6
CONTINUOUS
10
150.477
20
-113.355
11
150.459
21
-113.341
0
LINE
8
BLACK
6
CONTINUOUS
10
150.459
20
-113.341
11
150.458
21
-113.341
0
LINE
8
BLACK
6
CONTINUOUS
10
150.458
20
-113.341
11
150.41
21
-113.293
0
LINE
8
BLACK
6
CONTINUOUS
10
150.41
20
-113.293
11
150.397
21
-113.275
0
LINE
8
BLACK
6
CONTINUOUS
10
150.397
20
-113.275
11
150.396
21
-113.273
0
LINE
8
BLACK
6
CONTINUOUS
10
150.396
20
-113.273
11
150.348
21
-113.178
0
LINE
8
BLACK
6
CONTINUOUS
10
150.348
20
-113.178
11
150.345
21
-113.166
0
LINE
8
BLACK
6
CONTINUOUS
10
150.345
20
-113.166
11
150.343
21
-113.163
0
LINE
8
BLACK
6
CONTINUOUS
10
150.343
20
-113.163
11
150.295
21
-112.972
0
LINE
8
BLACK
6
CONTINUOUS
10
150.295
20
-112.972
11
150.294
21
-112.957
0
LINE
8
BLACK
6
CONTINUOUS
10
150.294
20
-112.957
11
150.293
21
-112.954
0
LINE
8
BLACK
6
CONTINUOUS
10
150.293
20
-112.954
11
150.293
21
-112.716
0
LINE
8
BLACK
6
CONTINUOUS
10
150.293
20
-112.716
11
150.296
21
-112.701
0
LINE
8
BLACK
6
CONTINUOUS
10
150.296
20
-112.701
11
150.295
21
-112.698
0
LINE
8
BLACK
6
CONTINUOUS
10
150.295
20
-112.698
11
150.343
21
-112.507
0
LINE
8
BLACK
6
CONTINUOUS
10
150.343
20
-112.507
11
150.348
21
-112.496
0
LINE
8
BLACK
6
CONTINUOUS
10
150.348
20
-112.496
11
150.348
21
-112.492
0
LINE
8
BLACK
6
CONTINUOUS
10
150.348
20
-112.492
11
150.396
21
-112.397
0
LINE
8
BLACK
6
CONTINUOUS
10
150.396
20
-112.397
11
150.409
21
-112.379
0
LINE
8
BLACK
6
CONTINUOUS
10
150.409
20
-112.379
11
150.41
21
-112.377
0
LINE
8
BLACK
6
CONTINUOUS
10
150.41
20
-112.377
11
150.458
21
-112.33
0
LINE
8
BLACK
6
CONTINUOUS
10
150.458
20
-112.33
11
150.476
21
-112.317
0
LINE
8
BLACK
6
CONTINUOUS
10
150.476
20
-112.317
11
150.477
21
-112.316
0
LINE
8
BLACK
6
CONTINUOUS
10
150.477
20
-112.316
11
150.572
21
-112.268
0
LINE
8
BLACK
6
CONTINUOUS
10
150.572
20
-112.268
11
150.597
21
-112.261
0
LINE
8
BLACK
6
CONTINUOUS
10
150.597
20
-112.261
11
150.602
21
-112.262
0
LINE
8
BLACK
6
CONTINUOUS
10
150.602
20
-112.262
11
150.606
21
-112.26
0
LINE
8
BLACK
6
CONTINUOUS
10
150.606
20
-112.26
11
150.701
21
-112.26
0
LINE
8
BLACK
6
CONTINUOUS
10
150.701
20
-112.26
11
150.727
21
-112.265
0
LINE
8
BLACK
6
CONTINUOUS
10
150.624
20
-112.41
11
150.555
21
-112.444
0
LINE
8
BLACK
6
CONTINUOUS
10
150.555
20
-112.444
11
150.525
21
-112.475
0
LINE
8
BLACK
6
CONTINUOUS
10
150.525
20
-112.475
11
150.486
21
-112.552
0
LINE
8
BLACK
6
CONTINUOUS
10
150.486
20
-112.552
11
150.443
21
-112.725
0
LINE
8
BLACK
6
CONTINUOUS
10
150.443
20
-112.725
11
150.443
21
-112.945
0
LINE
8
BLACK
6
CONTINUOUS
10
150.443
20
-112.945
11
150.486
21
-113.119
0
LINE
8
BLACK
6
CONTINUOUS
10
150.486
20
-113.119
11
150.525
21
-113.196
0
LINE
8
BLACK
6
CONTINUOUS
10
150.525
20
-113.196
11
150.555
21
-113.226
0
LINE
8
BLACK
6
CONTINUOUS
10
150.555
20
-113.226
11
150.624
21
-113.26
0
LINE
8
BLACK
6
CONTINUOUS
10
150.624
20
-113.26
11
150.684
21
-113.26
0
LINE
8
BLACK
6
CONTINUOUS
10
150.684
20
-113.26
11
150.752
21
-113.226
0
LINE
8
BLACK
6
CONTINUOUS
10
150.752
20
-113.226
11
150.782
21
-113.196
0
LINE
8
BLACK
6
CONTINUOUS
10
150.782
20
-113.196
11
150.821
21
-113.119
0
LINE
8
BLACK
6
CONTINUOUS
10
150.821
20
-113.119
11
150.864
21
-112.945
0
LINE
8
BLACK
6
CONTINUOUS
10
150.864
20
-112.945
11
150.864
21
-112.725
0
LINE
8
BLACK
6
CONTINUOUS
10
150.864
20
-112.725
11
150.821
21
-112.552
0
LINE
8
BLACK
6
CONTINUOUS
10
150.821
20
-112.552
11
150.782
21
-112.475
0
LINE
8
BLACK
6
CONTINUOUS
10
150.782
20
-112.475
11
150.752
21
-112.444
0
LINE
8
BLACK
6
CONTINUOUS
10
150.752
20
-112.444
11
150.684
21
-112.41
0
LINE
8
BLACK
6
CONTINUOUS
10
150.684
20
-112.41
11
150.624
21
-112.41
0
LINE
8
BLACK
6
CONTINUOUS
10
149.71
20
-112.262
11
149.714
21
-112.261
0
LINE
8
BLACK
6
CONTINUOUS
10
149.714
20
-112.261
11
149.733
21
-112.272
0
LINE
8
BLACK
6
CONTINUOUS
10
149.733
20
-112.272
11
149.753
21
-112.281
0
LINE
8
BLACK
6
CONTINUOUS
10
149.753
20
-112.281
11
149.755
21
-112.285
0
LINE
8
BLACK
6
CONTINUOUS
10
149.755
20
-112.285
11
149.759
21
-112.287
0
LINE
8
BLACK
6
CONTINUOUS
10
149.759
20
-112.287
11
149.766
21
-112.307
0
LINE
8
BLACK
6
CONTINUOUS
10
149.766
20
-112.307
11
149.776
21
-112.327
0
LINE
8
BLACK
6
CONTINUOUS
10
149.776
20
-112.327
11
149.775
21
-112.331
0
LINE
8
BLACK
6
CONTINUOUS
10
149.775
20
-112.331
11
149.776
21
-112.335
0
LINE
8
BLACK
6
CONTINUOUS
10
149.776
20
-112.335
11
149.776
21
-113.26
0
LINE
8
BLACK
6
CONTINUOUS
10
149.776
20
-113.26
11
149.987
21
-113.26
0
LINE
8
BLACK
6
CONTINUOUS
10
149.987
20
-113.26
11
150.013
21
-113.265
0
LINE
8
BLACK
6
CONTINUOUS
10
150.013
20
-113.265
11
150.052
21
-113.298
0
LINE
8
BLACK
6
CONTINUOUS
10
150.052
20
-113.298
11
150.061
21
-113.348
0
LINE
8
BLACK
6
CONTINUOUS
10
150.061
20
-113.348
11
150.035
21
-113.393
0
LINE
8
BLACK
6
CONTINUOUS
10
150.035
20
-113.393
11
149.987
21
-113.41
0
LINE
8
BLACK
6
CONTINUOUS
10
149.987
20
-113.41
11
149.416
21
-113.41
0
LINE
8
BLACK
6
CONTINUOUS
10
149.416
20
-113.41
11
149.39
21
-113.406
0
LINE
8
BLACK
6
CONTINUOUS
10
149.39
20
-113.406
11
149.351
21
-113.373
0
LINE
8
BLACK
6
CONTINUOUS
10
149.351
20
-113.373
11
149.342
21
-113.322
0
LINE
8
BLACK
6
CONTINUOUS
10
149.342
20
-113.322
11
149.367
21
-113.278
0
LINE
8
BLACK
6
CONTINUOUS
10
149.367
20
-113.278
11
149.416
21
-113.26
0
LINE
8
BLACK
6
CONTINUOUS
10
149.416
20
-113.26
11
149.626
21
-113.26
0
LINE
8
BLACK
6
CONTINUOUS
10
149.626
20
-113.26
11
149.626
21
-112.564
0
LINE
8
BLACK
6
CONTINUOUS
10
149.626
20
-112.564
11
149.564
21
-112.626
0
LINE
8
BLACK
6
CONTINUOUS
10
149.564
20
-112.626
11
149.545
21
-112.639
0
LINE
8
BLACK
6
CONTINUOUS
10
149.545
20
-112.639
11
149.544
21
-112.64
0
LINE
8
BLACK
6
CONTINUOUS
10
149.544
20
-112.64
11
149.449
21
-112.688
0
LINE
8
BLACK
6
CONTINUOUS
10
149.449
20
-112.688
11
149.424
21
-112.695
0
LINE
8
BLACK
6
CONTINUOUS
10
149.424
20
-112.695
11
149.374
21
-112.683
0
LINE
8
BLACK
6
CONTINUOUS
10
149.374
20
-112.683
11
149.344
21
-112.642
0
LINE
8
BLACK
6
CONTINUOUS
10
149.344
20
-112.642
11
149.347
21
-112.591
0
LINE
8
BLACK
6
CONTINUOUS
10
149.347
20
-112.591
11
149.382
21
-112.554
0
LINE
8
BLACK
6
CONTINUOUS
10
149.382
20
-112.554
11
149.466
21
-112.512
0
LINE
8
BLACK
6
CONTINUOUS
10
149.466
20
-112.512
11
149.548
21
-112.43
0
LINE
8
BLACK
6
CONTINUOUS
10
149.548
20
-112.43
11
149.639
21
-112.294
0
LINE
8
BLACK
6
CONTINUOUS
10
149.639
20
-112.294
11
149.657
21
-112.275
0
LINE
8
BLACK
6
CONTINUOUS
10
149.657
20
-112.275
11
149.661
21
-112.274
0
LINE
8
BLACK
6
CONTINUOUS
10
149.661
20
-112.274
11
149.664
21
-112.27
0
LINE
8
BLACK
6
CONTINUOUS
10
149.664
20
-112.27
11
149.685
21
-112.266
0
LINE
8
BLACK
6
CONTINUOUS
10
149.685
20
-112.266
11
149.706
21
-112.26
0
LINE
8
BLACK
6
CONTINUOUS
10
149.706
20
-112.26
11
149.71
21
-112.262
0
LINE
8
BLACK
6
CONTINUOUS
10
151.615
20
-112.262
11
151.619
21
-112.261
0
LINE
8
BLACK
6
CONTINUOUS
10
151.619
20
-112.261
11
151.638
21
-112.272
0
LINE
8
BLACK
6
CONTINUOUS
10
151.638
20
-112.272
11
151.658
21
-112.281
0
LINE
8
BLACK
6
CONTINUOUS
10
151.658
20
-112.281
11
151.66
21
-112.285
0
LINE
8
BLACK
6
CONTINUOUS
10
151.66
20
-112.285
11
151.663
21
-112.287
0
LINE
8
BLACK
6
CONTINUOUS
10
151.663
20
-112.287
11
151.671
21
-112.307
0
LINE
8
BLACK
6
CONTINUOUS
10
151.671
20
-112.307
11
151.681
21
-112.327
0
LINE
8
BLACK
6
CONTINUOUS
10
151.681
20
-112.327
11
151.68
21
-112.331
0
LINE
8
BLACK
6
CONTINUOUS
10
151.68
20
-112.331
11
151.681
21
-112.335
0
LINE
8
BLACK
6
CONTINUOUS
10
151.681
20
-112.335
11
151.681
21
-113.26
0
LINE
8
BLACK
6
CONTINUOUS
10
151.681
20
-113.26
11
151.892
21
-113.26
0
LINE
8
BLACK
6
CONTINUOUS
10
151.892
20
-113.26
11
151.917
21
-113.265
0
LINE
8
BLACK
6
CONTINUOUS
10
151.917
20
-113.265
11
151.957
21
-113.298
0
LINE
8
BLACK
6
CONTINUOUS
10
151.957
20
-113.298
11
151.966
21
-113.348
0
LINE
8
BLACK
6
CONTINUOUS
10
151.966
20
-113.348
11
151.94
21
-113.393
0
LINE
8
BLACK
6
CONTINUOUS
10
151.94
20
-113.393
11
151.892
21
-113.41
0
LINE
8
BLACK
6
CONTINUOUS
10
151.892
20
-113.41
11
151.32
21
-113.41
0
LINE
8
BLACK
6
CONTINUOUS
10
151.32
20
-113.41
11
151.295
21
-113.406
0
LINE
8
BLACK
6
CONTINUOUS
10
151.295
20
-113.406
11
151.255
21
-113.373
0
LINE
8
BLACK
6
CONTINUOUS
10
151.255
20
-113.373
11
151.246
21
-113.322
0
LINE
8
BLACK
6
CONTINUOUS
10
151.246
20
-113.322
11
151.272
21
-113.278
0
LINE
8
BLACK
6
CONTINUOUS
10
151.272
20
-113.278
11
151.32
21
-113.26
0
LINE
8
BLACK
6
CONTINUOUS
10
151.32
20
-113.26
11
151.531
21
-113.26
0
LINE
8
BLACK
6
CONTINUOUS
10
151.531
20
-113.26
11
151.531
21
-112.564
0
LINE
8
BLACK
6
CONTINUOUS
10
151.531
20
-112.564
11
151.469
21
-112.626
0
LINE
8
BLACK
6
CONTINUOUS
10
151.469
20
-112.626
11
151.45
21
-112.639
0
LINE
8
BLACK
6
CONTINUOUS
10
151.45
20
-112.639
11
151.449
21
-112.64
0
LINE
8
BLACK
6
CONTINUOUS
10
151.449
20
-112.64
11
151.354
21
-112.688
0
LINE
8
BLACK
6
CONTINUOUS
10
151.354
20
-112.688
11
151.329
21
-112.695
0
LINE
8
BLACK
6
CONTINUOUS
10
151.329
20
-112.695
11
151.279
21
-112.683
0
LINE
8
BLACK
6
CONTINUOUS
10
151.279
20
-112.683
11
151.248
21
-112.642
0
LINE
8
BLACK
6
CONTINUOUS
10
151.248
20
-112.642
11
151.251
21
-112.591
0
LINE
8
BLACK
6
CONTINUOUS
10
151.251
20
-112.591
11
151.287
21
-112.554
0
LINE
8
BLACK
6
CONTINUOUS
10
151.287
20
-112.554
11
151.371
21
-112.512
0
LINE
8
BLACK
6
CONTINUOUS
10
151.371
20
-112.512
11
151.452
21
-112.43
0
LINE
8
BLACK
6
CONTINUOUS
10
151.452
20
-112.43
11
151.544
21
-112.294
0
LINE
8
BLACK
6
CONTINUOUS
10
151.544
20
-112.294
11
151.562
21
-112.275
0
LINE
8
BLACK
6
CONTINUOUS
10
151.562
20
-112.275
11
151.566
21
-112.274
0
LINE
8
BLACK
6
CONTINUOUS
10
151.566
20
-112.274
11
151.569
21
-112.27
0
LINE
8
BLACK
6
CONTINUOUS
10
151.569
20
-112.27
11
151.59
21
-112.266
0
LINE
8
BLACK
6
CONTINUOUS
10
151.59
20
-112.266
11
151.611
21
-112.26
0
LINE
8
BLACK
6
CONTINUOUS
10
151.611
20
-112.26
11
151.615
21
-112.262
0
LINE
8
BLACK
6
CONTINUOUS
10
147.771
20
-112.264
11
147.773
21
-112.264
0
LINE
8
BLACK
6
CONTINUOUS
10
147.773
20
-112.264
11
147.915
21
-112.312
0
LINE
8
BLACK
6
CONTINUOUS
10
147.915
20
-112.312
11
147.938
21
-112.324
0
LINE
8
BLACK
6
CONTINUOUS
10
147.938
20
-112.324
11
147.965
21
-112.368
0
LINE
8
BLACK
6
CONTINUOUS
10
147.965
20
-112.368
11
147.958
21
-112.419
0
LINE
8
BLACK
6
CONTINUOUS
10
147.958
20
-112.419
11
147.919
21
-112.453
0
LINE
8
BLACK
6
CONTINUOUS
10
147.919
20
-112.453
11
147.868
21
-112.454
0
LINE
8
BLACK
6
CONTINUOUS
10
147.868
20
-112.454
11
147.737
21
-112.41
0
LINE
8
BLACK
6
CONTINUOUS
10
147.737
20
-112.41
11
147.528
21
-112.41
0
LINE
8
BLACK
6
CONTINUOUS
10
147.528
20
-112.41
11
147.46
21
-112.444
0
LINE
8
BLACK
6
CONTINUOUS
10
147.46
20
-112.444
11
147.43
21
-112.475
0
LINE
8
BLACK
6
CONTINUOUS
10
147.43
20
-112.475
11
147.395
21
-112.543
0
LINE
8
BLACK
6
CONTINUOUS
10
147.395
20
-112.543
11
147.395
21
-112.603
0
LINE
8
BLACK
6
CONTINUOUS
10
147.395
20
-112.603
11
147.43
21
-112.672
0
LINE
8
BLACK
6
CONTINUOUS
10
147.43
20
-112.672
11
147.46
21
-112.702
0
LINE
8
BLACK
6
CONTINUOUS
10
147.46
20
-112.702
11
147.537
21
-112.741
0
LINE
8
BLACK
6
CONTINUOUS
10
147.537
20
-112.741
11
147.719
21
-112.786
0
LINE
8
BLACK
6
CONTINUOUS
10
147.719
20
-112.786
11
147.731
21
-112.792
0
LINE
8
BLACK
6
CONTINUOUS
10
147.731
20
-112.792
11
147.735
21
-112.792
0
LINE
8
BLACK
6
CONTINUOUS
10
147.735
20
-112.792
11
147.83
21
-112.84
0
LINE
8
BLACK
6
CONTINUOUS
10
147.83
20
-112.84
11
147.848
21
-112.853
0
LINE
8
BLACK
6
CONTINUOUS
10
147.848
20
-112.853
11
147.85
21
-112.854
0
LINE
8
BLACK
6
CONTINUOUS
10
147.85
20
-112.854
11
147.897
21
-112.901
0
LINE
8
BLACK
6
CONTINUOUS
10
147.897
20
-112.901
11
147.91
21
-112.92
0
LINE
8
BLACK
6
CONTINUOUS
10
147.91
20
-112.92
11
147.911
21
-112.921
0
LINE
8
BLACK
6
CONTINUOUS
10
147.911
20
-112.921
11
147.959
21
-113.016
0
LINE
8
BLACK
6
CONTINUOUS
10
147.959
20
-113.016
11
147.966
21
-113.041
0
LINE
8
BLACK
6
CONTINUOUS
10
147.966
20
-113.041
11
147.965
21
-113.045
0
LINE
8
BLACK
6
CONTINUOUS
10
147.965
20
-113.045
11
147.967
21
-113.049
0
LINE
8
BLACK
6
CONTINUOUS
10
147.967
20
-113.049
11
147.967
21
-113.145
0
LINE
8
BLACK
6
CONTINUOUS
10
147.967
20
-113.145
11
147.962
21
-113.17
0
LINE
8
BLACK
6
CONTINUOUS
10
147.962
20
-113.17
11
147.959
21
-113.174
0
LINE
8
BLACK
6
CONTINUOUS
10
147.959
20
-113.174
11
147.959
21
-113.178
0
LINE
8
BLACK
6
CONTINUOUS
10
147.959
20
-113.178
11
147.911
21
-113.273
0
LINE
8
BLACK
6
CONTINUOUS
10
147.911
20
-113.273
11
147.898
21
-113.291
0
LINE
8
BLACK
6
CONTINUOUS
10
147.898
20
-113.291
11
147.897
21
-113.293
0
LINE
8
BLACK
6
CONTINUOUS
10
147.897
20
-113.293
11
147.85
21
-113.341
0
LINE
8
BLACK
6
CONTINUOUS
10
147.85
20
-113.341
11
147.831
21
-113.353
0
LINE
8
BLACK
6
CONTINUOUS
10
147.831
20
-113.353
11
147.83
21
-113.355
0
LINE
8
BLACK
6
CONTINUOUS
10
147.83
20
-113.355
11
147.735
21
-113.402
0
LINE
8
BLACK
6
CONTINUOUS
10
147.735
20
-113.402
11
147.71
21
-113.41
0
LINE
8
BLACK
6
CONTINUOUS
10
147.71
20
-113.41
11
147.705
21
-113.409
0
LINE
8
BLACK
6
CONTINUOUS
10
147.705
20
-113.409
11
147.701
21
-113.41
0
LINE
8
BLACK
6
CONTINUOUS
10
147.701
20
-113.41
11
147.463
21
-113.41
0
LINE
8
BLACK
6
CONTINUOUS
10
147.463
20
-113.41
11
147.441
21
-113.406
0
LINE
8
BLACK
6
CONTINUOUS
10
147.441
20
-113.406
11
147.439
21
-113.406
0
LINE
8
BLACK
6
CONTINUOUS
10
147.439
20
-113.406
11
147.297
21
-113.359
0
LINE
8
BLACK
6
CONTINUOUS
10
147.297
20
-113.359
11
147.274
21
-113.346
0
LINE
8
BLACK
6
CONTINUOUS
10
147.274
20
-113.346
11
147.247
21
-113.303
0
LINE
8
BLACK
6
CONTINUOUS
10
147.247
20
-113.303
11
147.254
21
-113.252
0
LINE
8
BLACK
6
CONTINUOUS
10
147.254
20
-113.252
11
147.293
21
-113.218
0
LINE
8
BLACK
6
CONTINUOUS
10
147.293
20
-113.218
11
147.344
21
-113.216
0
LINE
8
BLACK
6
CONTINUOUS
10
147.344
20
-113.216
11
147.475
21
-113.26
0
LINE
8
BLACK
6
CONTINUOUS
10
147.475
20
-113.26
11
147.684
21
-113.26
0
LINE
8
BLACK
6
CONTINUOUS
10
147.684
20
-113.26
11
147.752
21
-113.226
0
LINE
8
BLACK
6
CONTINUOUS
10
147.752
20
-113.226
11
147.782
21
-113.196
0
LINE
8
BLACK
6
CONTINUOUS
10
147.782
20
-113.196
11
147.817
21
-113.127
0
LINE
8
BLACK
6
CONTINUOUS
10
147.817
20
-113.127
11
147.817
21
-113.067
0
LINE
8
BLACK
6
CONTINUOUS
10
147.817
20
-113.067
11
147.782
21
-112.999
0
LINE
8
BLACK
6
CONTINUOUS
10
147.782
20
-112.999
11
147.752
21
-112.968
0
LINE
8
BLACK
6
CONTINUOUS
10
147.752
20
-112.968
11
147.675
21
-112.93
0
LINE
8
BLACK
6
CONTINUOUS
10
147.675
20
-112.93
11
147.493
21
-112.884
0
LINE
8
BLACK
6
CONTINUOUS
10
147.493
20
-112.884
11
147.481
21
-112.879
0
LINE
8
BLACK
6
CONTINUOUS
10
147.481
20
-112.879
11
147.477
21
-112.878
0
LINE
8
BLACK
6
CONTINUOUS
10
147.477
20
-112.878
11
147.382
21
-112.831
0
LINE
8
BLACK
6
CONTINUOUS
10
147.382
20
-112.831
11
147.364
21
-112.817
0
LINE
8
BLACK
6
CONTINUOUS
10
147.364
20
-112.817
11
147.362
21
-112.817
0
LINE
8
BLACK
6
CONTINUOUS
10
147.362
20
-112.817
11
147.315
21
-112.769
0
LINE
8
BLACK
6
CONTINUOUS
10
147.315
20
-112.769
11
147.302
21
-112.751
0
LINE
8
BLACK
6
CONTINUOUS
10
147.302
20
-112.751
11
147.301
21
-112.75
0
LINE
8
BLACK
6
CONTINUOUS
10
147.301
20
-112.75
11
147.253
21
-112.654
0
LINE
8
BLACK
6
CONTINUOUS
10
147.253
20
-112.654
11
147.246
21
-112.629
0
LINE
8
BLACK
6
CONTINUOUS
10
147.246
20
-112.629
11
147.247
21
-112.625
0
LINE
8
BLACK
6
CONTINUOUS
10
147.247
20
-112.625
11
147.245
21
-112.621
0
LINE
8
BLACK
6
CONTINUOUS
10
147.245
20
-112.621
11
147.245
21
-112.526
0
LINE
8
BLACK
6
CONTINUOUS
10
147.245
20
-112.526
11
147.25
21
-112.5
0
LINE
8
BLACK
6
CONTINUOUS
10
147.25
20
-112.5
11
147.253
21
-112.497
0
LINE
8
BLACK
6
CONTINUOUS
10
147.253
20
-112.497
11
147.253
21
-112.492
0
LINE
8
BLACK
6
CONTINUOUS
10
147.253
20
-112.492
11
147.301
21
-112.397
0
LINE
8
BLACK
6
CONTINUOUS
10
147.301
20
-112.397
11
147.314
21
-112.379
0
LINE
8
BLACK
6
CONTINUOUS
10
147.314
20
-112.379
11
147.315
21
-112.377
0
LINE
8
BLACK
6
CONTINUOUS
10
147.315
20
-112.377
11
147.362
21
-112.33
0
LINE
8
BLACK
6
CONTINUOUS
10
147.362
20
-112.33
11
147.381
21
-112.317
0
LINE
8
BLACK
6
CONTINUOUS
10
147.381
20
-112.317
11
147.382
21
-112.316
0
LINE
8
BLACK
6
CONTINUOUS
10
147.382
20
-112.316
11
147.477
21
-112.268
0
LINE
8
BLACK
6
CONTINUOUS
10
147.477
20
-112.268
11
147.502
21
-112.261
0
LINE
8
BLACK
6
CONTINUOUS
10
147.502
20
-112.261
11
147.507
21
-112.262
0
LINE
8
BLACK
6
CONTINUOUS
10
147.507
20
-112.262
11
147.511
21
-112.26
0
LINE
8
BLACK
6
CONTINUOUS
10
147.511
20
-112.26
11
147.749
21
-112.26
0
LINE
8
BLACK
6
CONTINUOUS
10
147.749
20
-112.26
11
147.771
21
-112.264
0
LINE
8
BLACK
6
CONTINUOUS
10
148.27
20
-112.275
11
148.298
21
-112.318
0
LINE
8
BLACK
6
CONTINUOUS
10
148.298
20
-112.318
11
148.467
21
-113.029
0
LINE
8
BLACK
6
CONTINUOUS
10
148.467
20
-113.029
11
148.581
21
-112.602
0
LINE
8
BLACK
6
CONTINUOUS
10
148.581
20
-112.602
11
148.592
21
-112.578
0
LINE
8
BLACK
6
CONTINUOUS
10
148.592
20
-112.578
11
148.598
21
-112.574
0
LINE
8
BLACK
6
CONTINUOUS
10
148.598
20
-112.574
11
148.601
21
-112.568
0
LINE
8
BLACK
6
CONTINUOUS
10
148.601
20
-112.568
11
148.618
21
-112.56
0
LINE
8
BLACK
6
CONTINUOUS
10
148.618
20
-112.56
11
148.634
21
-112.548
0
LINE
8
BLACK
6
CONTINUOUS
10
148.634
20
-112.548
11
148.641
21
-112.549
0
LINE
8
BLACK
6
CONTINUOUS
10
148.641
20
-112.549
11
148.647
21
-112.546
0
LINE
8
BLACK
6
CONTINUOUS
10
148.647
20
-112.546
11
148.666
21
-112.551
0
LINE
8
BLACK
6
CONTINUOUS
10
148.666
20
-112.551
11
148.685
21
-112.553
0
LINE
8
BLACK
6
CONTINUOUS
10
148.685
20
-112.553
11
148.69
21
-112.558
0
LINE
8
BLACK
6
CONTINUOUS
10
148.69
20
-112.558
11
148.697
21
-112.56
0
LINE
8
BLACK
6
CONTINUOUS
10
148.697
20
-112.56
11
148.708
21
-112.575
0
LINE
8
BLACK
6
CONTINUOUS
10
148.708
20
-112.575
11
148.722
21
-112.589
0
LINE
8
BLACK
6
CONTINUOUS
10
148.722
20
-112.589
11
148.722
21
-112.596
0
LINE
8
BLACK
6
CONTINUOUS
10
148.722
20
-112.596
11
148.726
21
-112.602
0
LINE
8
BLACK
6
CONTINUOUS
10
148.726
20
-112.602
11
148.84
21
-113.029
0
LINE
8
BLACK
6
CONTINUOUS
10
148.84
20
-113.029
11
149.009
21
-112.318
0
LINE
8
BLACK
6
CONTINUOUS
10
149.009
20
-112.318
11
149.02
21
-112.294
0
LINE
8
BLACK
6
CONTINUOUS
10
149.02
20
-112.294
11
149.061
21
-112.263
0
LINE
8
BLACK
6
CONTINUOUS
10
149.061
20
-112.263
11
149.112
21
-112.266
0
LINE
8
BLACK
6
CONTINUOUS
10
149.112
20
-112.266
11
149.149
21
-112.302
0
LINE
8
BLACK
6
CONTINUOUS
10
149.149
20
-112.302
11
149.155
21
-112.353
0
LINE
8
BLACK
6
CONTINUOUS
10
149.155
20
-112.353
11
148.917
21
-113.353
0
LINE
8
BLACK
6
CONTINUOUS
10
148.917
20
-113.353
11
148.907
21
-113.376
0
LINE
8
BLACK
6
CONTINUOUS
10
148.907
20
-113.376
11
148.9
21
-113.381
0
LINE
8
BLACK
6
CONTINUOUS
10
148.9
20
-113.381
11
148.897
21
-113.388
0
LINE
8
BLACK
6
CONTINUOUS
10
148.897
20
-113.388
11
148.88
21
-113.396
0
LINE
8
BLACK
6
CONTINUOUS
10
148.88
20
-113.396
11
148.866
21
-113.407
0
LINE
8
BLACK
6
CONTINUOUS
10
148.866
20
-113.407
11
148.858
21
-113.407
0
LINE
8
BLACK
6
CONTINUOUS
10
148.858
20
-113.407
11
148.851
21
-113.41
0
LINE
8
BLACK
6
CONTINUOUS
10
148.851
20
-113.41
11
148.833
21
-113.405
0
LINE
8
BLACK
6
CONTINUOUS
10
148.833
20
-113.405
11
148.814
21
-113.404
0
LINE
8
BLACK
6
CONTINUOUS
10
148.814
20
-113.404
11
148.809
21
-113.399
0
LINE
8
BLACK
6
CONTINUOUS
10
148.809
20
-113.399
11
148.801
21
-113.397
0
LINE
8
BLACK
6
CONTINUOUS
10
148.801
20
-113.397
11
148.79
21
-113.381
0
LINE
8
BLACK
6
CONTINUOUS
10
148.79
20
-113.381
11
148.777
21
-113.369
0
LINE
8
BLACK
6
CONTINUOUS
10
148.777
20
-113.369
11
148.776
21
-113.361
0
LINE
8
BLACK
6
CONTINUOUS
10
148.776
20
-113.361
11
148.772
21
-113.355
0
LINE
8
BLACK
6
CONTINUOUS
10
148.772
20
-113.355
11
148.654
21
-112.912
0
LINE
8
BLACK
6
CONTINUOUS
10
148.654
20
-112.912
11
148.536
21
-113.355
0
LINE
8
BLACK
6
CONTINUOUS
10
148.536
20
-113.355
11
148.525
21
-113.378
0
LINE
8
BLACK
6
CONTINUOUS
10
148.525
20
-113.378
11
148.518
21
-113.383
0
LINE
8
BLACK
6
CONTINUOUS
10
148.518
20
-113.383
11
148.515
21
-113.39
0
LINE
8
BLACK
6
CONTINUOUS
10
148.515
20
-113.39
11
148.498
21
-113.397
0
LINE
8
BLACK
6
CONTINUOUS
10
148.498
20
-113.397
11
148.483
21
-113.408
0
LINE
8
BLACK
6
CONTINUOUS
10
148.483
20
-113.408
11
148.475
21
-113.407
0
LINE
8
BLACK
6
CONTINUOUS
10
148.475
20
-113.407
11
148.468
21
-113.41
0
LINE
8
BLACK
6
CONTINUOUS
10
148.468
20
-113.41
11
148.45
21
-113.405
0
LINE
8
BLACK
6
CONTINUOUS
10
148.45
20
-113.405
11
148.432
21
-113.403
0
LINE
8
BLACK
6
CONTINUOUS
10
148.432
20
-113.403
11
148.426
21
-113.398
0
LINE
8
BLACK
6
CONTINUOUS
10
148.426
20
-113.398
11
148.418
21
-113.395
0
LINE
8
BLACK
6
CONTINUOUS
10
148.418
20
-113.395
11
148.408
21
-113.38
0
LINE
8
BLACK
6
CONTINUOUS
10
148.408
20
-113.38
11
148.395
21
-113.367
0
LINE
8
BLACK
6
CONTINUOUS
10
148.395
20
-113.367
11
148.395
21
-113.359
0
LINE
8
BLACK
6
CONTINUOUS
10
148.395
20
-113.359
11
148.39
21
-113.353
0
LINE
8
BLACK
6
CONTINUOUS
10
148.39
20
-113.353
11
148.152
21
-112.353
0
LINE
8
BLACK
6
CONTINUOUS
10
148.152
20
-112.353
11
148.151
21
-112.327
0
LINE
8
BLACK
6
CONTINUOUS
10
148.151
20
-112.327
11
148.174
21
-112.281
0
LINE
8
BLACK
6
CONTINUOUS
10
148.174
20
-112.281
11
148.221
21
-112.26
0
LINE
8
BLACK
6
CONTINUOUS
10
148.221
20
-112.26
11
148.27
21
-112.275
0
LINE
8
BLACK
6
CONTINUOUS
10
194.298
20
-105.661
11
194.301
21
-105.664
0
LINE
8
BLACK
6
CONTINUOUS
10
194.301
20
-105.664
11
194.305
21
-105.664
0
LINE
8
BLACK
6
CONTINUOUS
10
194.305
20
-105.664
11
194.401
21
-105.712
0
LINE
8
BLACK
6
CONTINUOUS
10
194.401
20
-105.712
11
194.419
21
-105.725
0
LINE
8
BLACK
6
CONTINUOUS
10
194.419
20
-105.725
11
194.42
21
-105.726
0
LINE
8
BLACK
6
CONTINUOUS
10
194.42
20
-105.726
11
194.468
21
-105.773
0
LINE
8
BLACK
6
CONTINUOUS
10
194.468
20
-105.773
11
194.481
21
-105.792
0
LINE
8
BLACK
6
CONTINUOUS
10
194.481
20
-105.792
11
194.482
21
-105.793
0
LINE
8
BLACK
6
CONTINUOUS
10
194.482
20
-105.793
11
194.529
21
-105.888
0
LINE
8
BLACK
6
CONTINUOUS
10
194.529
20
-105.888
11
194.537
21
-105.913
0
LINE
8
BLACK
6
CONTINUOUS
10
194.537
20
-105.913
11
194.536
21
-105.917
0
LINE
8
BLACK
6
CONTINUOUS
10
194.536
20
-105.917
11
194.537
21
-105.922
0
LINE
8
BLACK
6
CONTINUOUS
10
194.537
20
-105.922
11
194.537
21
-106.017
0
LINE
8
BLACK
6
CONTINUOUS
10
194.537
20
-106.017
11
194.533
21
-106.039
0
LINE
8
BLACK
6
CONTINUOUS
10
194.533
20
-106.039
11
194.534
21
-106.041
0
LINE
8
BLACK
6
CONTINUOUS
10
194.534
20
-106.041
11
194.486
21
-106.183
0
LINE
8
BLACK
6
CONTINUOUS
10
194.486
20
-106.183
11
194.473
21
-106.206
0
LINE
8
BLACK
6
CONTINUOUS
10
194.473
20
-106.206
11
194.47
21
-106.209
0
LINE
8
BLACK
6
CONTINUOUS
10
194.47
20
-106.209
11
194.468
21
-106.213
0
LINE
8
BLACK
6
CONTINUOUS
10
194.468
20
-106.213
11
194.024
21
-106.656
0
LINE
8
BLACK
6
CONTINUOUS
10
194.024
20
-106.656
11
194.462
21
-106.656
0
LINE
8
BLACK
6
CONTINUOUS
10
194.462
20
-106.656
11
194.488
21
-106.661
0
LINE
8
BLACK
6
CONTINUOUS
10
194.488
20
-106.661
11
194.527
21
-106.694
0
LINE
8
BLACK
6
CONTINUOUS
10
194.527
20
-106.694
11
194.536
21
-106.744
0
LINE
8
BLACK
6
CONTINUOUS
10
194.536
20
-106.744
11
194.511
21
-106.789
0
LINE
8
BLACK
6
CONTINUOUS
10
194.511
20
-106.789
11
194.462
21
-106.806
0
LINE
8
BLACK
6
CONTINUOUS
10
194.462
20
-106.806
11
193.843
21
-106.806
0
LINE
8
BLACK
6
CONTINUOUS
10
193.843
20
-106.806
11
193.827
21
-106.803
0
LINE
8
BLACK
6
CONTINUOUS
10
193.827
20
-106.803
11
193.824
21
-106.804
0
LINE
8
BLACK
6
CONTINUOUS
10
193.824
20
-106.804
11
193.822
21
-106.802
0
LINE
8
BLACK
6
CONTINUOUS
10
193.822
20
-106.802
11
193.818
21
-106.802
0
LINE
8
BLACK
6
CONTINUOUS
10
193.818
20
-106.802
11
193.8
21
-106.787
0
LINE
8
BLACK
6
CONTINUOUS
10
193.8
20
-106.787
11
193.782
21
-106.774
0
LINE
8
BLACK
6
CONTINUOUS
10
193.782
20
-106.774
11
193.781
21
-106.771
0
LINE
8
BLACK
6
CONTINUOUS
10
193.781
20
-106.771
11
193.778
21
-106.769
0
LINE
8
BLACK
6
CONTINUOUS
10
193.778
20
-106.769
11
193.774
21
-106.746
0
LINE
8
BLACK
6
CONTINUOUS
10
193.774
20
-106.746
11
193.769
21
-106.725
0
LINE
8
BLACK
6
CONTINUOUS
10
193.769
20
-106.725
11
193.77
21
-106.722
0
LINE
8
BLACK
6
CONTINUOUS
10
193.77
20
-106.722
11
193.769
21
-106.718
0
LINE
8
BLACK
6
CONTINUOUS
10
193.769
20
-106.718
11
193.781
21
-106.699
0
LINE
8
BLACK
6
CONTINUOUS
10
193.781
20
-106.699
11
193.79
21
-106.678
0
LINE
8
BLACK
6
CONTINUOUS
10
193.79
20
-106.678
11
194.349
21
-106.119
0
LINE
8
BLACK
6
CONTINUOUS
10
194.349
20
-106.119
11
194.387
21
-106.005
0
LINE
8
BLACK
6
CONTINUOUS
10
194.387
20
-106.005
11
194.387
21
-105.939
0
LINE
8
BLACK
6
CONTINUOUS
10
194.387
20
-105.939
11
194.353
21
-105.871
0
LINE
8
BLACK
6
CONTINUOUS
10
194.353
20
-105.871
11
194.323
21
-105.84
0
LINE
8
BLACK
6
CONTINUOUS
10
194.323
20
-105.84
11
194.254
21
-105.806
0
LINE
8
BLACK
6
CONTINUOUS
10
194.254
20
-105.806
11
194.051
21
-105.806
0
LINE
8
BLACK
6
CONTINUOUS
10
194.051
20
-105.806
11
193.983
21
-105.84
0
LINE
8
BLACK
6
CONTINUOUS
10
193.983
20
-105.84
11
193.944
21
-105.879
0
LINE
8
BLACK
6
CONTINUOUS
10
193.944
20
-105.879
11
193.923
21
-105.894
0
LINE
8
BLACK
6
CONTINUOUS
10
193.923
20
-105.894
11
193.872
21
-105.899
0
LINE
8
BLACK
6
CONTINUOUS
10
193.872
20
-105.899
11
193.829
21
-105.869
0
LINE
8
BLACK
6
CONTINUOUS
10
193.829
20
-105.869
11
193.816
21
-105.82
0
LINE
8
BLACK
6
CONTINUOUS
10
193.816
20
-105.82
11
193.838
21
-105.773
0
LINE
8
BLACK
6
CONTINUOUS
10
193.838
20
-105.773
11
193.886
21
-105.726
0
LINE
8
BLACK
6
CONTINUOUS
10
193.886
20
-105.726
11
193.904
21
-105.713
0
LINE
8
BLACK
6
CONTINUOUS
10
193.904
20
-105.713
11
193.905
21
-105.712
0
LINE
8
BLACK
6
CONTINUOUS
10
193.905
20
-105.712
11
194
21
-105.664
0
LINE
8
BLACK
6
CONTINUOUS
10
194
20
-105.664
11
194.025
21
-105.657
0
LINE
8
BLACK
6
CONTINUOUS
10
194.025
20
-105.657
11
194.03
21
-105.658
0
LINE
8
BLACK
6
CONTINUOUS
10
194.03
20
-105.658
11
194.034
21
-105.656
0
LINE
8
BLACK
6
CONTINUOUS
10
194.034
20
-105.656
11
194.272
21
-105.656
0
LINE
8
BLACK
6
CONTINUOUS
10
194.272
20
-105.656
11
194.298
21
-105.661
0
LINE
8
BLACK
6
CONTINUOUS
10
196.09
20
-105.658
11
196.094
21
-105.657
0
LINE
8
BLACK
6
CONTINUOUS
10
196.094
20
-105.657
11
196.113
21
-105.668
0
LINE
8
BLACK
6
CONTINUOUS
10
196.113
20
-105.668
11
196.133
21
-105.677
0
LINE
8
BLACK
6
CONTINUOUS
10
196.133
20
-105.677
11
196.135
21
-105.681
0
LINE
8
BLACK
6
CONTINUOUS
10
196.135
20
-105.681
11
196.139
21
-105.683
0
LINE
8
BLACK
6
CONTINUOUS
10
196.139
20
-105.683
11
196.146
21
-105.703
0
LINE
8
BLACK
6
CONTINUOUS
10
196.146
20
-105.703
11
196.156
21
-105.723
0
LINE
8
BLACK
6
CONTINUOUS
10
196.156
20
-105.723
11
196.155
21
-105.727
0
LINE
8
BLACK
6
CONTINUOUS
10
196.155
20
-105.727
11
196.156
21
-105.731
0
LINE
8
BLACK
6
CONTINUOUS
10
196.156
20
-105.731
11
196.156
21
-106.656
0
LINE
8
BLACK
6
CONTINUOUS
10
196.156
20
-106.656
11
196.367
21
-106.656
0
LINE
8
BLACK
6
CONTINUOUS
10
196.367
20
-106.656
11
196.393
21
-106.661
0
LINE
8
BLACK
6
CONTINUOUS
10
196.393
20
-106.661
11
196.432
21
-106.694
0
LINE
8
BLACK
6
CONTINUOUS
10
196.432
20
-106.694
11
196.441
21
-106.744
0
LINE
8
BLACK
6
CONTINUOUS
10
196.441
20
-106.744
11
196.415
21
-106.789
0
LINE
8
BLACK
6
CONTINUOUS
10
196.415
20
-106.789
11
196.367
21
-106.806
0
LINE
8
BLACK
6
CONTINUOUS
10
196.367
20
-106.806
11
195.796
21
-106.806
0
LINE
8
BLACK
6
CONTINUOUS
10
195.796
20
-106.806
11
195.77
21
-106.802
0
LINE
8
BLACK
6
CONTINUOUS
10
195.77
20
-106.802
11
195.731
21
-106.769
0
LINE
8
BLACK
6
CONTINUOUS
10
195.731
20
-106.769
11
195.722
21
-106.718
0
LINE
8
BLACK
6
CONTINUOUS
10
195.722
20
-106.718
11
195.747
21
-106.674
0
LINE
8
BLACK
6
CONTINUOUS
10
195.747
20
-106.674
11
195.796
21
-106.656
0
LINE
8
BLACK
6
CONTINUOUS
10
195.796
20
-106.656
11
196.006
21
-106.656
0
LINE
8
BLACK
6
CONTINUOUS
10
196.006
20
-106.656
11
196.006
21
-105.96
0
LINE
8
BLACK
6
CONTINUOUS
10
196.006
20
-105.96
11
195.944
21
-106.022
0
LINE
8
BLACK
6
CONTINUOUS
10
195.944
20
-106.022
11
195.926
21
-106.035
0
LINE
8
BLACK
6
CONTINUOUS
10
195.926
20
-106.035
11
195.924
21
-106.036
0
LINE
8
BLACK
6
CONTINUOUS
10
195.924
20
-106.036
11
195.829
21
-106.084
0
LINE
8
BLACK
6
CONTINUOUS
10
195.829
20
-106.084
11
195.804
21
-106.091
0
LINE
8
BLACK
6
CONTINUOUS
10
195.804
20
-106.091
11
195.754
21
-106.079
0
LINE
8
BLACK
6
CONTINUOUS
10
195.754
20
-106.079
11
195.724
21
-106.038
0
LINE
8
BLACK
6
CONTINUOUS
10
195.724
20
-106.038
11
195.727
21
-105.987
0
LINE
8
BLACK
6
CONTINUOUS
10
195.727
20
-105.987
11
195.762
21
-105.95
0
LINE
8
BLACK
6
CONTINUOUS
10
195.762
20
-105.95
11
195.846
21
-105.908
0
LINE
8
BLACK
6
CONTINUOUS
10
195.846
20
-105.908
11
195.928
21
-105.826
0
LINE
8
BLACK
6
CONTINUOUS
10
195.928
20
-105.826
11
196.019
21
-105.69
0
LINE
8
BLACK
6
CONTINUOUS
10
196.019
20
-105.69
11
196.037
21
-105.671
0
LINE
8
BLACK
6
CONTINUOUS
10
196.037
20
-105.671
11
196.041
21
-105.67
0
LINE
8
BLACK
6
CONTINUOUS
10
196.041
20
-105.67
11
196.044
21
-105.666
0
LINE
8
BLACK
6
CONTINUOUS
10
196.044
20
-105.666
11
196.065
21
-105.662
0
LINE
8
BLACK
6
CONTINUOUS
10
196.065
20
-105.662
11
196.086
21
-105.656
0
LINE
8
BLACK
6
CONTINUOUS
10
196.086
20
-105.656
11
196.09
21
-105.658
0
LINE
8
BLACK
6
CONTINUOUS
10
195.202
20
-105.661
11
195.206
21
-105.664
0
LINE
8
BLACK
6
CONTINUOUS
10
195.206
20
-105.664
11
195.21
21
-105.664
0
LINE
8
BLACK
6
CONTINUOUS
10
195.21
20
-105.664
11
195.305
21
-105.712
0
LINE
8
BLACK
6
CONTINUOUS
10
195.305
20
-105.712
11
195.323
21
-105.725
0
LINE
8
BLACK
6
CONTINUOUS
10
195.323
20
-105.725
11
195.325
21
-105.726
0
LINE
8
BLACK
6
CONTINUOUS
10
195.325
20
-105.726
11
195.373
21
-105.773
0
LINE
8
BLACK
6
CONTINUOUS
10
195.373
20
-105.773
11
195.385
21
-105.792
0
LINE
8
BLACK
6
CONTINUOUS
10
195.385
20
-105.792
11
195.387
21
-105.793
0
LINE
8
BLACK
6
CONTINUOUS
10
195.387
20
-105.793
11
195.434
21
-105.888
0
LINE
8
BLACK
6
CONTINUOUS
10
195.434
20
-105.888
11
195.438
21
-105.901
0
LINE
8
BLACK
6
CONTINUOUS
10
195.438
20
-105.901
11
195.44
21
-105.903
0
LINE
8
BLACK
6
CONTINUOUS
10
195.44
20
-105.903
11
195.487
21
-106.094
0
LINE
8
BLACK
6
CONTINUOUS
10
195.487
20
-106.094
11
195.489
21
-106.109
0
LINE
8
BLACK
6
CONTINUOUS
10
195.489
20
-106.109
11
195.49
21
-106.112
0
LINE
8
BLACK
6
CONTINUOUS
10
195.49
20
-106.112
11
195.49
21
-106.35
0
LINE
8
BLACK
6
CONTINUOUS
10
195.49
20
-106.35
11
195.487
21
-106.365
0
LINE
8
BLACK
6
CONTINUOUS
10
195.487
20
-106.365
11
195.487
21
-106.368
0
LINE
8
BLACK
6
CONTINUOUS
10
195.487
20
-106.368
11
195.44
21
-106.559
0
LINE
8
BLACK
6
CONTINUOUS
10
195.44
20
-106.559
11
195.435
21
-106.571
0
LINE
8
BLACK
6
CONTINUOUS
10
195.435
20
-106.571
11
195.434
21
-106.574
0
LINE
8
BLACK
6
CONTINUOUS
10
195.434
20
-106.574
11
195.387
21
-106.669
0
LINE
8
BLACK
6
CONTINUOUS
10
195.387
20
-106.669
11
195.373
21
-106.687
0
LINE
8
BLACK
6
CONTINUOUS
10
195.373
20
-106.687
11
195.373
21
-106.689
0
LINE
8
BLACK
6
CONTINUOUS
10
195.373
20
-106.689
11
195.325
21
-106.737
0
LINE
8
BLACK
6
CONTINUOUS
10
195.325
20
-106.737
11
195.307
21
-106.749
0
LINE
8
BLACK
6
CONTINUOUS
10
195.307
20
-106.749
11
195.305
21
-106.751
0
LINE
8
BLACK
6
CONTINUOUS
10
195.305
20
-106.751
11
195.21
21
-106.798
0
LINE
8
BLACK
6
CONTINUOUS
10
195.21
20
-106.798
11
195.185
21
-106.806
0
LINE
8
BLACK
6
CONTINUOUS
10
195.185
20
-106.806
11
195.181
21
-106.805
0
LINE
8
BLACK
6
CONTINUOUS
10
195.181
20
-106.805
11
195.177
21
-106.806
0
LINE
8
BLACK
6
CONTINUOUS
10
195.177
20
-106.806
11
195.081
21
-106.806
0
LINE
8
BLACK
6
CONTINUOUS
10
195.081
20
-106.806
11
195.056
21
-106.802
0
LINE
8
BLACK
6
CONTINUOUS
10
195.056
20
-106.802
11
195.052
21
-106.799
0
LINE
8
BLACK
6
CONTINUOUS
10
195.052
20
-106.799
11
195.048
21
-106.798
0
LINE
8
BLACK
6
CONTINUOUS
10
195.048
20
-106.798
11
194.953
21
-106.751
0
LINE
8
BLACK
6
CONTINUOUS
10
194.953
20
-106.751
11
194.935
21
-106.737
0
LINE
8
BLACK
6
CONTINUOUS
10
194.935
20
-106.737
11
194.933
21
-106.737
0
LINE
8
BLACK
6
CONTINUOUS
10
194.933
20
-106.737
11
194.886
21
-106.689
0
LINE
8
BLACK
6
CONTINUOUS
10
194.886
20
-106.689
11
194.873
21
-106.671
0
LINE
8
BLACK
6
CONTINUOUS
10
194.873
20
-106.671
11
194.871
21
-106.669
0
LINE
8
BLACK
6
CONTINUOUS
10
194.871
20
-106.669
11
194.824
21
-106.574
0
LINE
8
BLACK
6
CONTINUOUS
10
194.824
20
-106.574
11
194.82
21
-106.562
0
LINE
8
BLACK
6
CONTINUOUS
10
194.82
20
-106.562
11
194.818
21
-106.559
0
LINE
8
BLACK
6
CONTINUOUS
10
194.818
20
-106.559
11
194.771
21
-106.368
0
LINE
8
BLACK
6
CONTINUOUS
10
194.771
20
-106.368
11
194.769
21
-106.353
0
LINE
8
BLACK
6
CONTINUOUS
10
194.769
20
-106.353
11
194.768
21
-106.35
0
LINE
8
BLACK
6
CONTINUOUS
10
194.768
20
-106.35
11
194.768
21
-106.112
0
LINE
8
BLACK
6
CONTINUOUS
10
194.768
20
-106.112
11
194.771
21
-106.097
0
LINE
8
BLACK
6
CONTINUOUS
10
194.771
20
-106.097
11
194.771
21
-106.094
0
LINE
8
BLACK
6
CONTINUOUS
10
194.771
20
-106.094
11
194.818
21
-105.903
0
LINE
8
BLACK
6
CONTINUOUS
10
194.818
20
-105.903
11
194.823
21
-105.892
0
LINE
8
BLACK
6
CONTINUOUS
10
194.823
20
-105.892
11
194.824
21
-105.888
0
LINE
8
BLACK
6
CONTINUOUS
10
194.824
20
-105.888
11
194.871
21
-105.793
0
LINE
8
BLACK
6
CONTINUOUS
10
194.871
20
-105.793
11
194.885
21
-105.775
0
LINE
8
BLACK
6
CONTINUOUS
10
194.885
20
-105.775
11
194.886
21
-105.773
0
LINE
8
BLACK
6
CONTINUOUS
10
194.886
20
-105.773
11
194.933
21
-105.726
0
LINE
8
BLACK
6
CONTINUOUS
10
194.933
20
-105.726
11
194.951
21
-105.713
0
LINE
8
BLACK
6
CONTINUOUS
10
194.951
20
-105.713
11
194.953
21
-105.712
0
LINE
8
BLACK
6
CONTINUOUS
10
194.953
20
-105.712
11
195.048
21
-105.664
0
LINE
8
BLACK
6
CONTINUOUS
10
195.048
20
-105.664
11
195.073
21
-105.657
0
LINE
8
BLACK
6
CONTINUOUS
10
195.073
20
-105.657
11
195.077
21
-105.658
0
LINE
8
BLACK
6
CONTINUOUS
10
195.077
20
-105.658
11
195.081
21
-105.656
0
LINE
8
BLACK
6
CONTINUOUS
10
195.081
20
-105.656
11
195.177
21
-105.656
0
LINE
8
BLACK
6
CONTINUOUS
10
195.177
20
-105.656
11
195.202
21
-105.661
0
LINE
8
BLACK
6
CONTINUOUS
10
195.099
20
-105.806
11
195.031
21
-105.84
0
LINE
8
BLACK
6
CONTINUOUS
10
195.031
20
-105.84
11
195
21
-105.871
0
LINE
8
BLACK
6
CONTINUOUS
10
195
20
-105.871
11
194.962
21
-105.948
0
LINE
8
BLACK
6
CONTINUOUS
10
194.962
20
-105.948
11
194.918
21
-106.121
0
LINE
8
BLACK
6
CONTINUOUS
10
194.918
20
-106.121
11
194.918
21
-106.341
0
LINE
8
BLACK
6
CONTINUOUS
10
194.918
20
-106.341
11
194.962
21
-106.515
0
LINE
8
BLACK
6
CONTINUOUS
10
194.962
20
-106.515
11
195
21
-106.592
0
LINE
8
BLACK
6
CONTINUOUS
10
195
20
-106.592
11
195.031
21
-106.622
0
LINE
8
BLACK
6
CONTINUOUS
10
195.031
20
-106.622
11
195.099
21
-106.656
0
LINE
8
BLACK
6
CONTINUOUS
10
195.099
20
-106.656
11
195.159
21
-106.656
0
LINE
8
BLACK
6
CONTINUOUS
10
195.159
20
-106.656
11
195.227
21
-106.622
0
LINE
8
BLACK
6
CONTINUOUS
10
195.227
20
-106.622
11
195.258
21
-106.592
0
LINE
8
BLACK
6
CONTINUOUS
10
195.258
20
-106.592
11
195.296
21
-106.515
0
LINE
8
BLACK
6
CONTINUOUS
10
195.296
20
-106.515
11
195.34
21
-106.341
0
LINE
8
BLACK
6
CONTINUOUS
10
195.34
20
-106.341
11
195.34
21
-106.121
0
LINE
8
BLACK
6
CONTINUOUS
10
195.34
20
-106.121
11
195.296
21
-105.948
0
LINE
8
BLACK
6
CONTINUOUS
10
195.296
20
-105.948
11
195.258
21
-105.871
0
LINE
8
BLACK
6
CONTINUOUS
10
195.258
20
-105.871
11
195.227
21
-105.84
0
LINE
8
BLACK
6
CONTINUOUS
10
195.227
20
-105.84
11
195.159
21
-105.806
0
LINE
8
BLACK
6
CONTINUOUS
10
195.159
20
-105.806
11
195.099
21
-105.806
0
LINE
8
BLACK
6
CONTINUOUS
10
192.246
20
-105.66
11
192.248
21
-105.66
0
LINE
8
BLACK
6
CONTINUOUS
10
192.248
20
-105.66
11
192.391
21
-105.708
0
LINE
8
BLACK
6
CONTINUOUS
10
192.391
20
-105.708
11
192.414
21
-105.72
0
LINE
8
BLACK
6
CONTINUOUS
10
192.414
20
-105.72
11
192.441
21
-105.764
0
LINE
8
BLACK
6
CONTINUOUS
10
192.441
20
-105.764
11
192.433
21
-105.815
0
LINE
8
BLACK
6
CONTINUOUS
10
192.433
20
-105.815
11
192.395
21
-105.849
0
LINE
8
BLACK
6
CONTINUOUS
10
192.395
20
-105.849
11
192.343
21
-105.85
0
LINE
8
BLACK
6
CONTINUOUS
10
192.343
20
-105.85
11
192.212
21
-105.806
0
LINE
8
BLACK
6
CONTINUOUS
10
192.212
20
-105.806
11
192.004
21
-105.806
0
LINE
8
BLACK
6
CONTINUOUS
10
192.004
20
-105.806
11
191.935
21
-105.84
0
LINE
8
BLACK
6
CONTINUOUS
10
191.935
20
-105.84
11
191.905
21
-105.871
0
LINE
8
BLACK
6
CONTINUOUS
10
191.905
20
-105.871
11
191.871
21
-105.939
0
LINE
8
BLACK
6
CONTINUOUS
10
191.871
20
-105.939
11
191.871
21
-105.999
0
LINE
8
BLACK
6
CONTINUOUS
10
191.871
20
-105.999
11
191.905
21
-106.068
0
LINE
8
BLACK
6
CONTINUOUS
10
191.905
20
-106.068
11
191.935
21
-106.098
0
LINE
8
BLACK
6
CONTINUOUS
10
191.935
20
-106.098
11
192.012
21
-106.137
0
LINE
8
BLACK
6
CONTINUOUS
10
192.012
20
-106.137
11
192.195
21
-106.182
0
LINE
8
BLACK
6
CONTINUOUS
10
192.195
20
-106.182
11
192.207
21
-106.188
0
LINE
8
BLACK
6
CONTINUOUS
10
192.207
20
-106.188
11
192.21
21
-106.188
0
LINE
8
BLACK
6
CONTINUOUS
10
192.21
20
-106.188
11
192.305
21
-106.236
0
LINE
8
BLACK
6
CONTINUOUS
10
192.305
20
-106.236
11
192.323
21
-106.249
0
LINE
8
BLACK
6
CONTINUOUS
10
192.323
20
-106.249
11
192.325
21
-106.25
0
LINE
8
BLACK
6
CONTINUOUS
10
192.325
20
-106.25
11
192.373
21
-106.297
0
LINE
8
BLACK
6
CONTINUOUS
10
192.373
20
-106.297
11
192.385
21
-106.316
0
LINE
8
BLACK
6
CONTINUOUS
10
192.385
20
-106.316
11
192.387
21
-106.317
0
LINE
8
BLACK
6
CONTINUOUS
10
192.387
20
-106.317
11
192.434
21
-106.412
0
LINE
8
BLACK
6
CONTINUOUS
10
192.434
20
-106.412
11
192.442
21
-106.437
0
LINE
8
BLACK
6
CONTINUOUS
10
192.442
20
-106.437
11
192.441
21
-106.441
0
LINE
8
BLACK
6
CONTINUOUS
10
192.441
20
-106.441
11
192.442
21
-106.445
0
LINE
8
BLACK
6
CONTINUOUS
10
192.442
20
-106.445
11
192.442
21
-106.541
0
LINE
8
BLACK
6
CONTINUOUS
10
192.442
20
-106.541
11
192.438
21
-106.566
0
LINE
8
BLACK
6
CONTINUOUS
10
192.438
20
-106.566
11
192.435
21
-106.57
0
LINE
8
BLACK
6
CONTINUOUS
10
192.435
20
-106.57
11
192.434
21
-106.574
0
LINE
8
BLACK
6
CONTINUOUS
10
192.434
20
-106.574
11
192.387
21
-106.669
0
LINE
8
BLACK
6
CONTINUOUS
10
192.387
20
-106.669
11
192.373
21
-106.687
0
LINE
8
BLACK
6
CONTINUOUS
10
192.373
20
-106.687
11
192.373
21
-106.689
0
LINE
8
BLACK
6
CONTINUOUS
10
192.373
20
-106.689
11
192.325
21
-106.737
0
LINE
8
BLACK
6
CONTINUOUS
10
192.325
20
-106.737
11
192.307
21
-106.749
0
LINE
8
BLACK
6
CONTINUOUS
10
192.307
20
-106.749
11
192.305
21
-106.751
0
LINE
8
BLACK
6
CONTINUOUS
10
192.305
20
-106.751
11
192.21
21
-106.798
0
LINE
8
BLACK
6
CONTINUOUS
10
192.21
20
-106.798
11
192.185
21
-106.806
0
LINE
8
BLACK
6
CONTINUOUS
10
192.185
20
-106.806
11
192.181
21
-106.805
0
LINE
8
BLACK
6
CONTINUOUS
10
192.181
20
-106.805
11
192.177
21
-106.806
0
LINE
8
BLACK
6
CONTINUOUS
10
192.177
20
-106.806
11
191.939
21
-106.806
0
LINE
8
BLACK
6
CONTINUOUS
10
191.939
20
-106.806
11
191.916
21
-106.802
0
LINE
8
BLACK
6
CONTINUOUS
10
191.916
20
-106.802
11
191.915
21
-106.802
0
LINE
8
BLACK
6
CONTINUOUS
10
191.915
20
-106.802
11
191.772
21
-106.755
0
LINE
8
BLACK
6
CONTINUOUS
10
191.772
20
-106.755
11
191.749
21
-106.742
0
LINE
8
BLACK
6
CONTINUOUS
10
191.749
20
-106.742
11
191.722
21
-106.699
0
LINE
8
BLACK
6
CONTINUOUS
10
191.722
20
-106.699
11
191.73
21
-106.648
0
LINE
8
BLACK
6
CONTINUOUS
10
191.73
20
-106.648
11
191.768
21
-106.614
0
LINE
8
BLACK
6
CONTINUOUS
10
191.768
20
-106.614
11
191.819
21
-106.612
0
LINE
8
BLACK
6
CONTINUOUS
10
191.819
20
-106.612
11
191.951
21
-106.656
0
LINE
8
BLACK
6
CONTINUOUS
10
191.951
20
-106.656
11
192.159
21
-106.656
0
LINE
8
BLACK
6
CONTINUOUS
10
192.159
20
-106.656
11
192.227
21
-106.622
0
LINE
8
BLACK
6
CONTINUOUS
10
192.227
20
-106.622
11
192.258
21
-106.592
0
LINE
8
BLACK
6
CONTINUOUS
10
192.258
20
-106.592
11
192.292
21
-106.523
0
LINE
8
BLACK
6
CONTINUOUS
10
192.292
20
-106.523
11
192.292
21
-106.463
0
LINE
8
BLACK
6
CONTINUOUS
10
192.292
20
-106.463
11
192.258
21
-106.395
0
LINE
8
BLACK
6
CONTINUOUS
10
192.258
20
-106.395
11
192.227
21
-106.364
0
LINE
8
BLACK
6
CONTINUOUS
10
192.227
20
-106.364
11
192.15
21
-106.326
0
LINE
8
BLACK
6
CONTINUOUS
10
192.15
20
-106.326
11
191.968
21
-106.28
0
LINE
8
BLACK
6
CONTINUOUS
10
191.968
20
-106.28
11
191.956
21
-106.275
0
LINE
8
BLACK
6
CONTINUOUS
10
191.956
20
-106.275
11
191.953
21
-106.274
0
LINE
8
BLACK
6
CONTINUOUS
10
191.953
20
-106.274
11
191.857
21
-106.227
0
LINE
8
BLACK
6
CONTINUOUS
10
191.857
20
-106.227
11
191.839
21
-106.213
0
LINE
8
BLACK
6
CONTINUOUS
10
191.839
20
-106.213
11
191.838
21
-106.213
0
LINE
8
BLACK
6
CONTINUOUS
10
191.838
20
-106.213
11
191.79
21
-106.165
0
LINE
8
BLACK
6
CONTINUOUS
10
191.79
20
-106.165
11
191.777
21
-106.147
0
LINE
8
BLACK
6
CONTINUOUS
10
191.777
20
-106.147
11
191.776
21
-106.146
0
LINE
8
BLACK
6
CONTINUOUS
10
191.776
20
-106.146
11
191.729
21
-106.05
0
LINE
8
BLACK
6
CONTINUOUS
10
191.729
20
-106.05
11
191.721
21
-106.025
0
LINE
8
BLACK
6
CONTINUOUS
10
191.721
20
-106.025
11
191.722
21
-106.021
0
LINE
8
BLACK
6
CONTINUOUS
10
191.722
20
-106.021
11
191.721
21
-106.017
0
LINE
8
BLACK
6
CONTINUOUS
10
191.721
20
-106.017
11
191.721
21
-105.922
0
LINE
8
BLACK
6
CONTINUOUS
10
191.721
20
-105.922
11
191.725
21
-105.896
0
LINE
8
BLACK
6
CONTINUOUS
10
191.725
20
-105.896
11
191.728
21
-105.893
0
LINE
8
BLACK
6
CONTINUOUS
10
191.728
20
-105.893
11
191.729
21
-105.888
0
LINE
8
BLACK
6
CONTINUOUS
10
191.729
20
-105.888
11
191.776
21
-105.793
0
LINE
8
BLACK
6
CONTINUOUS
10
191.776
20
-105.793
11
191.79
21
-105.775
0
LINE
8
BLACK
6
CONTINUOUS
10
191.79
20
-105.775
11
191.79
21
-105.773
0
LINE
8
BLACK
6
CONTINUOUS
10
191.79
20
-105.773
11
191.838
21
-105.726
0
LINE
8
BLACK
6
CONTINUOUS
10
191.838
20
-105.726
11
191.856
21
-105.713
0
LINE
8
BLACK
6
CONTINUOUS
10
191.856
20
-105.713
11
191.857
21
-105.712
0
LINE
8
BLACK
6
CONTINUOUS
10
191.857
20
-105.712
11
191.953
21
-105.664
0
LINE
8
BLACK
6
CONTINUOUS
10
191.953
20
-105.664
11
191.978
21
-105.657
0
LINE
8
BLACK
6
CONTINUOUS
10
191.978
20
-105.657
11
191.982
21
-105.658
0
LINE
8
BLACK
6
CONTINUOUS
10
191.982
20
-105.658
11
191.986
21
-105.656
0
LINE
8
BLACK
6
CONTINUOUS
10
191.986
20
-105.656
11
192.224
21
-105.656
0
LINE
8
BLACK
6
CONTINUOUS
10
192.224
20
-105.656
11
192.246
21
-105.66
0
LINE
8
BLACK
6
CONTINUOUS
10
192.745
20
-105.671
11
192.773
21
-105.714
0
LINE
8
BLACK
6
CONTINUOUS
10
192.773
20
-105.714
11
192.943
21
-106.425
0
LINE
8
BLACK
6
CONTINUOUS
10
192.943
20
-106.425
11
193.057
21
-105.998
0
LINE
8
BLACK
6
CONTINUOUS
10
193.057
20
-105.998
11
193.068
21
-105.974
0
LINE
8
BLACK
6
CONTINUOUS
10
193.068
20
-105.974
11
193.073
21
-105.97
0
LINE
8
BLACK
6
CONTINUOUS
10
193.073
20
-105.97
11
193.076
21
-105.964
0
LINE
8
BLACK
6
CONTINUOUS
10
193.076
20
-105.964
11
193.094
21
-105.956
0
LINE
8
BLACK
6
CONTINUOUS
10
193.094
20
-105.956
11
193.11
21
-105.944
0
LINE
8
BLACK
6
CONTINUOUS
10
193.11
20
-105.944
11
193.116
21
-105.945
0
LINE
8
BLACK
6
CONTINUOUS
10
193.116
20
-105.945
11
193.123
21
-105.942
0
LINE
8
BLACK
6
CONTINUOUS
10
193.123
20
-105.942
11
193.141
21
-105.947
0
LINE
8
BLACK
6
CONTINUOUS
10
193.141
20
-105.947
11
193.161
21
-105.949
0
LINE
8
BLACK
6
CONTINUOUS
10
193.161
20
-105.949
11
193.165
21
-105.954
0
LINE
8
BLACK
6
CONTINUOUS
10
193.165
20
-105.954
11
193.172
21
-105.956
0
LINE
8
BLACK
6
CONTINUOUS
10
193.172
20
-105.956
11
193.183
21
-105.971
0
LINE
8
BLACK
6
CONTINUOUS
10
193.183
20
-105.971
11
193.197
21
-105.985
0
LINE
8
BLACK
6
CONTINUOUS
10
193.197
20
-105.985
11
193.198
21
-105.992
0
LINE
8
BLACK
6
CONTINUOUS
10
193.198
20
-105.992
11
193.201
21
-105.998
0
LINE
8
BLACK
6
CONTINUOUS
10
193.201
20
-105.998
11
193.315
21
-106.425
0
LINE
8
BLACK
6
CONTINUOUS
10
193.315
20
-106.425
11
193.485
21
-105.714
0
LINE
8
BLACK
6
CONTINUOUS
10
193.485
20
-105.714
11
193.495
21
-105.69
0
LINE
8
BLACK
6
CONTINUOUS
10
193.495
20
-105.69
11
193.536
21
-105.659
0
LINE
8
BLACK
6
CONTINUOUS
10
193.536
20
-105.659
11
193.587
21
-105.662
0
LINE
8
BLACK
6
CONTINUOUS
10
193.587
20
-105.662
11
193.625
21
-105.698
0
LINE
8
BLACK
6
CONTINUOUS
10
193.625
20
-105.698
11
193.631
21
-105.749
0
LINE
8
BLACK
6
CONTINUOUS
10
193.631
20
-105.749
11
193.392
21
-106.749
0
LINE
8
BLACK
6
CONTINUOUS
10
193.392
20
-106.749
11
193.382
21
-106.772
0
LINE
8
BLACK
6
CONTINUOUS
10
193.382
20
-106.772
11
193.376
21
-106.777
0
LINE
8
BLACK
6
CONTINUOUS
10
193.376
20
-106.777
11
193.372
21
-106.784
0
LINE
8
BLACK
6
CONTINUOUS
10
193.372
20
-106.784
11
193.356
21
-106.792
0
LINE
8
BLACK
6
CONTINUOUS
10
193.356
20
-106.792
11
193.341
21
-106.803
0
LINE
8
BLACK
6
CONTINUOUS
10
193.341
20
-106.803
11
193.333
21
-106.803
0
LINE
8
BLACK
6
CONTINUOUS
10
193.333
20
-106.803
11
193.326
21
-106.806
0
LINE
8
BLACK
6
CONTINUOUS
10
193.326
20
-106.806
11
193.308
21
-106.801
0
LINE
8
BLACK
6
CONTINUOUS
10
193.308
20
-106.801
11
193.29
21
-106.8
0
LINE
8
BLACK
6
CONTINUOUS
10
193.29
20
-106.8
11
193.284
21
-106.795
0
LINE
8
BLACK
6
CONTINUOUS
10
193.284
20
-106.795
11
193.276
21
-106.793
0
LINE
8
BLACK
6
CONTINUOUS
10
193.276
20
-106.793
11
193.266
21
-106.777
0
LINE
8
BLACK
6
CONTINUOUS
10
193.266
20
-106.777
11
193.252
21
-106.765
0
LINE
8
BLACK
6
CONTINUOUS
10
193.252
20
-106.765
11
193.252
21
-106.757
0
LINE
8
BLACK
6
CONTINUOUS
10
193.252
20
-106.757
11
193.247
21
-106.751
0
LINE
8
BLACK
6
CONTINUOUS
10
193.247
20
-106.751
11
193.129
21
-106.308
0
LINE
8
BLACK
6
CONTINUOUS
10
193.129
20
-106.308
11
193.011
21
-106.751
0
LINE
8
BLACK
6
CONTINUOUS
10
193.011
20
-106.751
11
193
21
-106.774
0
LINE
8
BLACK
6
CONTINUOUS
10
193
20
-106.774
11
192.994
21
-106.779
0
LINE
8
BLACK
6
CONTINUOUS
10
192.994
20
-106.779
11
192.99
21
-106.786
0
LINE
8
BLACK
6
CONTINUOUS
10
192.99
20
-106.786
11
192.973
21
-106.793
0
LINE
8
BLACK
6
CONTINUOUS
10
192.973
20
-106.793
11
192.958
21
-106.804
0
LINE
8
BLACK
6
CONTINUOUS
10
192.958
20
-106.804
11
192.95
21
-106.803
0
LINE
8
BLACK
6
CONTINUOUS
10
192.95
20
-106.803
11
192.943
21
-106.806
0
LINE
8
BLACK
6
CONTINUOUS
10
192.943
20
-106.806
11
192.925
21
-106.801
0
LINE
8
BLACK
6
CONTINUOUS
10
192.925
20
-106.801
11
192.907
21
-106.799
0
LINE
8
BLACK
6
CONTINUOUS
10
192.907
20
-106.799
11
192.901
21
-106.794
0
LINE
8
BLACK
6
CONTINUOUS
10
192.901
20
-106.794
11
192.894
21
-106.791
0
LINE
8
BLACK
6
CONTINUOUS
10
192.894
20
-106.791
11
192.884
21
-106.776
0
LINE
8
BLACK
6
CONTINUOUS
10
192.884
20
-106.776
11
192.871
21
-106.763
0
LINE
8
BLACK
6
CONTINUOUS
10
192.871
20
-106.763
11
192.87
21
-106.755
0
LINE
8
BLACK
6
CONTINUOUS
10
192.87
20
-106.755
11
192.866
21
-106.749
0
LINE
8
BLACK
6
CONTINUOUS
10
192.866
20
-106.749
11
192.627
21
-105.749
0
LINE
8
BLACK
6
CONTINUOUS
10
192.627
20
-105.749
11
192.626
21
-105.723
0
LINE
8
BLACK
6
CONTINUOUS
10
192.626
20
-105.723
11
192.649
21
-105.677
0
LINE
8
BLACK
6
CONTINUOUS
10
192.649
20
-105.677
11
192.696
21
-105.656
0
LINE
8
BLACK
6
CONTINUOUS
10
192.696
20
-105.656
11
192.745
21
-105.671
0
LINE
8
BLACK
6
CONTINUOUS
10
98.7636
20
-104.67
11
98.746
21
-104.628
0
LINE
8
BLACK
6
CONTINUOUS
10
98.746
20
-104.628
11
98.746
21
-100.564
0
LINE
8
BLACK
6
CONTINUOUS
10
98.746
20
-100.564
11
98.7636
21
-100.521
0
LINE
8
BLACK
6
CONTINUOUS
10
98.7636
20
-100.521
11
98.806
21
-100.504
0
LINE
8
BLACK
6
CONTINUOUS
10
98.806
20
-100.504
11
98.8484
21
-100.521
0
LINE
8
BLACK
6
CONTINUOUS
10
98.8484
20
-100.521
11
98.866
21
-100.564
0
LINE
8
BLACK
6
CONTINUOUS
10
98.866
20
-100.564
11
98.866
21
-104.568
0
LINE
8
BLACK
6
CONTINUOUS
10
98.866
20
-104.568
11
111.446
21
-104.568
0
LINE
8
BLACK
6
CONTINUOUS
10
111.446
20
-104.568
11
111.446
21
-100.564
0
LINE
8
BLACK
6
CONTINUOUS
10
111.446
20
-100.564
11
111.464
21
-100.521
0
LINE
8
BLACK
6
CONTINUOUS
10
111.464
20
-100.521
11
111.506
21
-100.504
0
LINE
8
BLACK
6
CONTINUOUS
10
111.506
20
-100.504
11
111.548
21
-100.521
0
LINE
8
BLACK
6
CONTINUOUS
10
111.548
20
-100.521
11
111.566
21
-100.564
0
LINE
8
BLACK
6
CONTINUOUS
10
111.566
20
-100.564
11
111.566
21
-104.628
0
LINE
8
BLACK
6
CONTINUOUS
10
111.566
20
-104.628
11
111.548
21
-104.67
0
LINE
8
BLACK
6
CONTINUOUS
10
111.548
20
-104.67
11
111.506
21
-104.688
0
LINE
8
BLACK
6
CONTINUOUS
10
111.506
20
-104.688
11
98.806
21
-104.688
0
LINE
8
BLACK
6
CONTINUOUS
10
98.806
20
-104.688
11
98.7636
21
-104.67
0
LINE
8
BLACK
6
CONTINUOUS
10
111.548
20
-91.8854
11
111.566
21
-91.9278
0
LINE
8
BLACK
6
CONTINUOUS
10
111.566
20
-91.9278
11
111.566
21
-95.9918
0
LINE
8
BLACK
6
CONTINUOUS
10
111.566
20
-95.9918
11
111.548
21
-96.0342
0
LINE
8
BLACK
6
CONTINUOUS
10
111.548
20
-96.0342
11
111.506
21
-96.0518
0
LINE
8
BLACK
6
CONTINUOUS
10
111.506
20
-96.0518
11
111.464
21
-96.0342
0
LINE
8
BLACK
6
CONTINUOUS
10
111.464
20
-96.0342
11
111.446
21
-95.9918
0
LINE
8
BLACK
6
CONTINUOUS
10
111.446
20
-95.9918
11
111.446
21
-91.9878
0
LINE
8
BLACK
6
CONTINUOUS
10
111.446
20
-91.9878
11
98.866
21
-91.9878
0
LINE
8
BLACK
6
CONTINUOUS
10
98.866
20
-91.9878
11
98.866
21
-95.9918
0
LINE
8
BLACK
6
CONTINUOUS
10
98.866
20
-95.9918
11
98.8484
21
-96.0342
0
LINE
8
BLACK
6
CONTINUOUS
10
98.8484
20
-96.0342
11
98.806
21
-96.0518
0
LINE
8
BLACK
6
CONTINUOUS
10
98.806
20
-96.0518
11
98.7636
21
-96.0342
0
LINE
8
BLACK
6
CONTINUOUS
10
98.7636
20
-96.0342
11
98.746
21
-95.9918
0
LINE
8
BLACK
6
CONTINUOUS
10
98.746
20
-95.9918
11
98.746
21
-91.9278
0
LINE
8
BLACK
6
CONTINUOUS
10
98.746
20
-91.9278
11
98.7636
21
-91.8854
0
LINE
8
BLACK
6
CONTINUOUS
10
98.7636
20
-91.8854
11
98.806
21
-91.8678
0
LINE
8
BLACK
6
CONTINUOUS
10
98.806
20
-91.8678
11
111.506
21
-91.8678
0
LINE
8
BLACK
6
CONTINUOUS
10
111.506
20
-91.8678
11
111.548
21
-91.8854
0
LINE
8
BLACK
6
CONTINUOUS
10
108.951
20
-90.0371
11
108.955
21
-90.0363
0
LINE
8
BLACK
6
CONTINUOUS
10
108.955
20
-90.0363
11
108.974
21
-90.0472
0
LINE
8
BLACK
6
CONTINUOUS
10
108.974
20
-90.0472
11
108.994
21
-90.0559
0
LINE
8
BLACK
6
CONTINUOUS
10
108.994
20
-90.0559
11
108.996
21
-90.0598
0
LINE
8
BLACK
6
CONTINUOUS
10
108.996
20
-90.0598
11
109
21
-90.062
0
LINE
8
BLACK
6
CONTINUOUS
10
109
20
-90.062
11
109.007
21
-90.0824
0
LINE
8
BLACK
6
CONTINUOUS
10
109.007
20
-90.0824
11
109.017
21
-90.1019
0
LINE
8
BLACK
6
CONTINUOUS
10
109.017
20
-90.1019
11
109.016
21
-90.1061
0
LINE
8
BLACK
6
CONTINUOUS
10
109.016
20
-90.1061
11
109.017
21
-90.1102
0
LINE
8
BLACK
6
CONTINUOUS
10
109.017
20
-90.1102
11
109.017
21
-91.0352
0
LINE
8
BLACK
6
CONTINUOUS
10
109.017
20
-91.0352
11
109.228
21
-91.0352
0
LINE
8
BLACK
6
CONTINUOUS
10
109.228
20
-91.0352
11
109.254
21
-91.0397
0
LINE
8
BLACK
6
CONTINUOUS
10
109.254
20
-91.0397
11
109.293
21
-91.0727
0
LINE
8
BLACK
6
CONTINUOUS
10
109.293
20
-91.0727
11
109.302
21
-91.1232
0
LINE
8
BLACK
6
CONTINUOUS
10
109.302
20
-91.1232
11
109.276
21
-91.1676
0
LINE
8
BLACK
6
CONTINUOUS
10
109.276
20
-91.1676
11
109.228
21
-91.1852
0
LINE
8
BLACK
6
CONTINUOUS
10
109.228
20
-91.1852
11
108.656
21
-91.1852
0
LINE
8
BLACK
6
CONTINUOUS
10
108.656
20
-91.1852
11
108.631
21
-91.1807
0
LINE
8
BLACK
6
CONTINUOUS
10
108.631
20
-91.1807
11
108.592
21
-91.1477
0
LINE
8
BLACK
6
CONTINUOUS
10
108.592
20
-91.1477
11
108.583
21
-91.0972
0
LINE
8
BLACK
6
CONTINUOUS
10
108.583
20
-91.0972
11
108.608
21
-91.0527
0
LINE
8
BLACK
6
CONTINUOUS
10
108.608
20
-91.0527
11
108.656
21
-91.0352
0
LINE
8
BLACK
6
CONTINUOUS
10
108.656
20
-91.0352
11
108.867
21
-91.0352
0
LINE
8
BLACK
6
CONTINUOUS
10
108.867
20
-91.0352
11
108.867
21
-90.3389
0
LINE
8
BLACK
6
CONTINUOUS
10
108.867
20
-90.3389
11
108.805
21
-90.4013
0
LINE
8
BLACK
6
CONTINUOUS
10
108.805
20
-90.4013
11
108.786
21
-90.4142
0
LINE
8
BLACK
6
CONTINUOUS
10
108.786
20
-90.4142
11
108.785
21
-90.4154
0
LINE
8
BLACK
6
CONTINUOUS
10
108.785
20
-90.4154
11
108.69
21
-90.463
0
LINE
8
BLACK
6
CONTINUOUS
10
108.69
20
-90.463
11
108.665
21
-90.4704
0
LINE
8
BLACK
6
CONTINUOUS
10
108.665
20
-90.4704
11
108.615
21
-90.4585
0
LINE
8
BLACK
6
CONTINUOUS
10
108.615
20
-90.4585
11
108.585
21
-90.4173
0
LINE
8
BLACK
6
CONTINUOUS
10
108.585
20
-90.4173
11
108.588
21
-90.3661
0
LINE
8
BLACK
6
CONTINUOUS
10
108.588
20
-90.3661
11
108.623
21
-90.3288
0
LINE
8
BLACK
6
CONTINUOUS
10
108.623
20
-90.3288
11
108.707
21
-90.2866
0
LINE
8
BLACK
6
CONTINUOUS
10
108.707
20
-90.2866
11
108.789
21
-90.2053
0
LINE
8
BLACK
6
CONTINUOUS
10
108.789
20
-90.2053
11
108.88
21
-90.0686
0
LINE
8
BLACK
6
CONTINUOUS
10
108.88
20
-90.0686
11
108.898
21
-90.0497
0
LINE
8
BLACK
6
CONTINUOUS
10
108.898
20
-90.0497
11
108.902
21
-90.0485
0
LINE
8
BLACK
6
CONTINUOUS
10
108.902
20
-90.0485
11
108.905
21
-90.0452
0
LINE
8
BLACK
6
CONTINUOUS
10
108.905
20
-90.0452
11
108.926
21
-90.0414
0
LINE
8
BLACK
6
CONTINUOUS
10
108.926
20
-90.0414
11
108.947
21
-90.0353
0
LINE
8
BLACK
6
CONTINUOUS
10
108.947
20
-90.0353
11
108.951
21
-90.0371
0
LINE
8
BLACK
6
CONTINUOUS
10
110.856
20
-90.0371
11
110.86
21
-90.0363
0
LINE
8
BLACK
6
CONTINUOUS
10
110.86
20
-90.0363
11
110.879
21
-90.0472
0
LINE
8
BLACK
6
CONTINUOUS
10
110.879
20
-90.0472
11
110.899
21
-90.0559
0
LINE
8
BLACK
6
CONTINUOUS
10
110.899
20
-90.0559
11
110.901
21
-90.0598
0
LINE
8
BLACK
6
CONTINUOUS
10
110.901
20
-90.0598
11
110.904
21
-90.062
0
LINE
8
BLACK
6
CONTINUOUS
10
110.904
20
-90.062
11
110.912
21
-90.0824
0
LINE
8
BLACK
6
CONTINUOUS
10
110.912
20
-90.0824
11
110.921
21
-90.1019
0
LINE
8
BLACK
6
CONTINUOUS
10
110.921
20
-90.1019
11
110.92
21
-90.1061
0
LINE
8
BLACK
6
CONTINUOUS
10
110.92
20
-90.1061
11
110.922
21
-90.1102
0
LINE
8
BLACK
6
CONTINUOUS
10
110.922
20
-90.1102
11
110.922
21
-91.0352
0
LINE
8
BLACK
6
CONTINUOUS
10
110.922
20
-91.0352
11
111.133
21
-91.0352
0
LINE
8
BLACK
6
CONTINUOUS
10
111.133
20
-91.0352
11
111.158
21
-91.0397
0
LINE
8
BLACK
6
CONTINUOUS
10
111.158
20
-91.0397
11
111.198
21
-91.0727
0
LINE
8
BLACK
6
CONTINUOUS
10
111.198
20
-91.0727
11
111.207
21
-91.1232
0
LINE
8
BLACK
6
CONTINUOUS
10
111.207
20
-91.1232
11
111.181
21
-91.1676
0
LINE
8
BLACK
6
CONTINUOUS
10
111.181
20
-91.1676
11
111.133
21
-91.1852
0
LINE
8
BLACK
6
CONTINUOUS
10
111.133
20
-91.1852
11
110.561
21
-91.1852
0
LINE
8
BLACK
6
CONTINUOUS
10
110.561
20
-91.1852
11
110.536
21
-91.1807
0
LINE
8
BLACK
6
CONTINUOUS
10
110.536
20
-91.1807
11
110.496
21
-91.1477
0
LINE
8
BLACK
6
CONTINUOUS
10
110.496
20
-91.1477
11
110.487
21
-91.0972
0
LINE
8
BLACK
6
CONTINUOUS
10
110.487
20
-91.0972
11
110.513
21
-91.0527
0
LINE
8
BLACK
6
CONTINUOUS
10
110.513
20
-91.0527
11
110.561
21
-91.0352
0
LINE
8
BLACK
6
CONTINUOUS
10
110.561
20
-91.0352
11
110.772
21
-91.0352
0
LINE
8
BLACK
6
CONTINUOUS
10
110.772
20
-91.0352
11
110.772
21
-90.3389
0
LINE
8
BLACK
6
CONTINUOUS
10
110.772
20
-90.3389
11
110.71
21
-90.4013
0
LINE
8
BLACK
6
CONTINUOUS
10
110.71
20
-90.4013
11
110.691
21
-90.4142
0
LINE
8
BLACK
6
CONTINUOUS
10
110.691
20
-90.4142
11
110.69
21
-90.4154
0
LINE
8
BLACK
6
CONTINUOUS
10
110.69
20
-90.4154
11
110.595
21
-90.463
0
LINE
8
BLACK
6
CONTINUOUS
10
110.595
20
-90.463
11
110.57
21
-90.4704
0
LINE
8
BLACK
6
CONTINUOUS
10
110.57
20
-90.4704
11
110.52
21
-90.4585
0
LINE
8
BLACK
6
CONTINUOUS
10
110.52
20
-90.4585
11
110.489
21
-90.4173
0
LINE
8
BLACK
6
CONTINUOUS
10
110.489
20
-90.4173
11
110.492
21
-90.3661
0
LINE
8
BLACK
6
CONTINUOUS
10
110.492
20
-90.3661
11
110.528
21
-90.3288
0
LINE
8
BLACK
6
CONTINUOUS
10
110.528
20
-90.3288
11
110.612
21
-90.2866
0
LINE
8
BLACK
6
CONTINUOUS
10
110.612
20
-90.2866
11
110.693
21
-90.2053
0
LINE
8
BLACK
6
CONTINUOUS
10
110.693
20
-90.2053
11
110.785
21
-90.0686
0
LINE
8
BLACK
6
CONTINUOUS
10
110.785
20
-90.0686
11
110.803
21
-90.0497
0
LINE
8
BLACK
6
CONTINUOUS
10
110.803
20
-90.0497
11
110.807
21
-90.0485
0
LINE
8
BLACK
6
CONTINUOUS
10
110.807
20
-90.0485
11
110.809
21
-90.0452
0
LINE
8
BLACK
6
CONTINUOUS
10
110.809
20
-90.0452
11
110.831
21
-90.0414
0
LINE
8
BLACK
6
CONTINUOUS
10
110.831
20
-90.0414
11
110.852
21
-90.0353
0
LINE
8
BLACK
6
CONTINUOUS
10
110.852
20
-90.0353
11
110.856
21
-90.0371
0
LINE
8
BLACK
6
CONTINUOUS
10
109.968
20
-90.0397
11
109.971
21
-90.0426
0
LINE
8
BLACK
6
CONTINUOUS
10
109.971
20
-90.0426
11
109.976
21
-90.0431
0
LINE
8
BLACK
6
CONTINUOUS
10
109.976
20
-90.0431
11
110.071
21
-90.0907
0
LINE
8
BLACK
6
CONTINUOUS
10
110.071
20
-90.0907
11
110.089
21
-90.1041
0
LINE
8
BLACK
6
CONTINUOUS
10
110.089
20
-90.1041
11
110.09
21
-90.1048
0
LINE
8
BLACK
6
CONTINUOUS
10
110.09
20
-90.1048
11
110.138
21
-90.1524
0
LINE
8
BLACK
6
CONTINUOUS
10
110.138
20
-90.1524
11
110.151
21
-90.1708
0
LINE
8
BLACK
6
CONTINUOUS
10
110.151
20
-90.1708
11
110.152
21
-90.1719
0
LINE
8
BLACK
6
CONTINUOUS
10
110.152
20
-90.1719
11
110.2
21
-90.2671
0
LINE
8
BLACK
6
CONTINUOUS
10
110.2
20
-90.2671
11
110.203
21
-90.2795
0
LINE
8
BLACK
6
CONTINUOUS
10
110.203
20
-90.2795
11
110.205
21
-90.2825
0
LINE
8
BLACK
6
CONTINUOUS
10
110.205
20
-90.2825
11
110.253
21
-90.4729
0
LINE
8
BLACK
6
CONTINUOUS
10
110.253
20
-90.4729
11
110.254
21
-90.4879
0
LINE
8
BLACK
6
CONTINUOUS
10
110.254
20
-90.4879
11
110.255
21
-90.4911
0
LINE
8
BLACK
6
CONTINUOUS
10
110.255
20
-90.4911
11
110.255
21
-90.7292
0
LINE
8
BLACK
6
CONTINUOUS
10
110.255
20
-90.7292
11
110.253
21
-90.744
0
LINE
8
BLACK
6
CONTINUOUS
10
110.253
20
-90.744
11
110.253
21
-90.7474
0
LINE
8
BLACK
6
CONTINUOUS
10
110.253
20
-90.7474
11
110.205
21
-90.9379
0
LINE
8
BLACK
6
CONTINUOUS
10
110.205
20
-90.9379
11
110.2
21
-90.9497
0
LINE
8
BLACK
6
CONTINUOUS
10
110.2
20
-90.9497
11
110.2
21
-90.9532
0
LINE
8
BLACK
6
CONTINUOUS
10
110.2
20
-90.9532
11
110.152
21
-91.0485
0
LINE
8
BLACK
6
CONTINUOUS
10
110.152
20
-91.0485
11
110.139
21
-91.0665
0
LINE
8
BLACK
6
CONTINUOUS
10
110.139
20
-91.0665
11
110.138
21
-91.068
0
LINE
8
BLACK
6
CONTINUOUS
10
110.138
20
-91.068
11
110.09
21
-91.1156
0
LINE
8
BLACK
6
CONTINUOUS
10
110.09
20
-91.1156
11
110.072
21
-91.1285
0
LINE
8
BLACK
6
CONTINUOUS
10
110.072
20
-91.1285
11
110.071
21
-91.1296
0
LINE
8
BLACK
6
CONTINUOUS
10
110.071
20
-91.1296
11
109.976
21
-91.1773
0
LINE
8
BLACK
6
CONTINUOUS
10
109.976
20
-91.1773
11
109.951
21
-91.1847
0
LINE
8
BLACK
6
CONTINUOUS
10
109.951
20
-91.1847
11
109.946
21
-91.1836
0
LINE
8
BLACK
6
CONTINUOUS
10
109.946
20
-91.1836
11
109.942
21
-91.1852
0
LINE
8
BLACK
6
CONTINUOUS
10
109.942
20
-91.1852
11
109.847
21
-91.1852
0
LINE
8
BLACK
6
CONTINUOUS
10
109.847
20
-91.1852
11
109.821
21
-91.1807
0
LINE
8
BLACK
6
CONTINUOUS
10
109.821
20
-91.1807
11
109.818
21
-91.1778
0
LINE
8
BLACK
6
CONTINUOUS
10
109.818
20
-91.1778
11
109.813
21
-91.1773
0
LINE
8
BLACK
6
CONTINUOUS
10
109.813
20
-91.1773
11
109.718
21
-91.1296
0
LINE
8
BLACK
6
CONTINUOUS
10
109.718
20
-91.1296
11
109.7
21
-91.1163
0
LINE
8
BLACK
6
CONTINUOUS
10
109.7
20
-91.1163
11
109.699
21
-91.1156
0
LINE
8
BLACK
6
CONTINUOUS
10
109.699
20
-91.1156
11
109.651
21
-91.068
0
LINE
8
BLACK
6
CONTINUOUS
10
109.651
20
-91.068
11
109.638
21
-91.0496
0
LINE
8
BLACK
6
CONTINUOUS
10
109.638
20
-91.0496
11
109.637
21
-91.0485
0
LINE
8
BLACK
6
CONTINUOUS
10
109.637
20
-91.0485
11
109.589
21
-90.9532
0
LINE
8
BLACK
6
CONTINUOUS
10
109.589
20
-90.9532
11
109.586
21
-90.9408
0
LINE
8
BLACK
6
CONTINUOUS
10
109.586
20
-90.9408
11
109.584
21
-90.9379
0
LINE
8
BLACK
6
CONTINUOUS
10
109.584
20
-90.9379
11
109.536
21
-90.7474
0
LINE
8
BLACK
6
CONTINUOUS
10
109.536
20
-90.7474
11
109.535
21
-90.7325
0
LINE
8
BLACK
6
CONTINUOUS
10
109.535
20
-90.7325
11
109.534
21
-90.7292
0
LINE
8
BLACK
6
CONTINUOUS
10
109.534
20
-90.7292
11
109.534
21
-90.4911
0
LINE
8
BLACK
6
CONTINUOUS
10
109.534
20
-90.4911
11
109.536
21
-90.4764
0
LINE
8
BLACK
6
CONTINUOUS
10
109.536
20
-90.4764
11
109.536
21
-90.4729
0
LINE
8
BLACK
6
CONTINUOUS
10
109.536
20
-90.4729
11
109.584
21
-90.2825
0
LINE
8
BLACK
6
CONTINUOUS
10
109.584
20
-90.2825
11
109.589
21
-90.2706
0
LINE
8
BLACK
6
CONTINUOUS
10
109.589
20
-90.2706
11
109.589
21
-90.2671
0
LINE
8
BLACK
6
CONTINUOUS
10
109.589
20
-90.2671
11
109.637
21
-90.1719
0
LINE
8
BLACK
6
CONTINUOUS
10
109.637
20
-90.1719
11
109.65
21
-90.1539
0
LINE
8
BLACK
6
CONTINUOUS
10
109.65
20
-90.1539
11
109.651
21
-90.1524
0
LINE
8
BLACK
6
CONTINUOUS
10
109.651
20
-90.1524
11
109.699
21
-90.1048
0
LINE
8
BLACK
6
CONTINUOUS
10
109.699
20
-90.1048
11
109.717
21
-90.0919
0
LINE
8
BLACK
6
CONTINUOUS
10
109.717
20
-90.0919
11
109.718
21
-90.0907
0
LINE
8
BLACK
6
CONTINUOUS
10
109.718
20
-90.0907
11
109.813
21
-90.0431
0
LINE
8
BLACK
6
CONTINUOUS
10
109.813
20
-90.0431
11
109.838
21
-90.0357
0
LINE
8
BLACK
6
CONTINUOUS
10
109.838
20
-90.0357
11
109.843
21
-90.0367
0
LINE
8
BLACK
6
CONTINUOUS
10
109.843
20
-90.0367
11
109.847
21
-90.0352
0
LINE
8
BLACK
6
CONTINUOUS
10
109.847
20
-90.0352
11
109.942
21
-90.0352
0
LINE
8
BLACK
6
CONTINUOUS
10
109.942
20
-90.0352
11
109.968
21
-90.0397
0
LINE
8
BLACK
6
CONTINUOUS
10
109.865
20
-90.1852
11
109.796
21
-90.2194
0
LINE
8
BLACK
6
CONTINUOUS
10
109.796
20
-90.2194
11
109.766
21
-90.2498
0
LINE
8
BLACK
6
CONTINUOUS
10
109.766
20
-90.2498
11
109.727
21
-90.3268
0
LINE
8
BLACK
6
CONTINUOUS
10
109.727
20
-90.3268
11
109.684
21
-90.5004
0
LINE
8
BLACK
6
CONTINUOUS
10
109.684
20
-90.5004
11
109.684
21
-90.72
0
LINE
8
BLACK
6
CONTINUOUS
10
109.684
20
-90.72
11
109.727
21
-90.8935
0
LINE
8
BLACK
6
CONTINUOUS
10
109.727
20
-90.8935
11
109.766
21
-90.9705
0
LINE
8
BLACK
6
CONTINUOUS
10
109.766
20
-90.9705
11
109.796
21
-91.0009
0
LINE
8
BLACK
6
CONTINUOUS
10
109.796
20
-91.0009
11
109.865
21
-91.0352
0
LINE
8
BLACK
6
CONTINUOUS
10
109.865
20
-91.0352
11
109.924
21
-91.0352
0
LINE
8
BLACK
6
CONTINUOUS
10
109.924
20
-91.0352
11
109.993
21
-91.0009
0
LINE
8
BLACK
6
CONTINUOUS
10
109.993
20
-91.0009
11
110.023
21
-90.9705
0
LINE
8
BLACK
6
CONTINUOUS
10
110.023
20
-90.9705
11
110.062
21
-90.8935
0
LINE
8
BLACK
6
CONTINUOUS
10
110.062
20
-90.8935
11
110.105
21
-90.72
0
LINE
8
BLACK
6
CONTINUOUS
10
110.105
20
-90.72
11
110.105
21
-90.5004
0
LINE
8
BLACK
6
CONTINUOUS
10
110.105
20
-90.5004
11
110.062
21
-90.3268
0
LINE
8
BLACK
6
CONTINUOUS
10
110.062
20
-90.3268
11
110.023
21
-90.2498
0
LINE
8
BLACK
6
CONTINUOUS
10
110.023
20
-90.2498
11
109.993
21
-90.2194
0
LINE
8
BLACK
6
CONTINUOUS
10
109.993
20
-90.2194
11
109.924
21
-90.1852
0
LINE
8
BLACK
6
CONTINUOUS
10
109.924
20
-90.1852
11
109.865
21
-90.1852
0
LINE
8
BLACK
6
CONTINUOUS
10
107.743
20
-90.0463
11
107.775
21
-90.0865
0
LINE
8
BLACK
6
CONTINUOUS
10
107.775
20
-90.0865
11
108.037
21
-90.873
0
LINE
8
BLACK
6
CONTINUOUS
10
108.037
20
-90.873
11
108.3
21
-90.0865
0
LINE
8
BLACK
6
CONTINUOUS
10
108.3
20
-90.0865
11
108.312
21
-90.0636
0
LINE
8
BLACK
6
CONTINUOUS
10
108.312
20
-90.0636
11
108.356
21
-90.0367
0
LINE
8
BLACK
6
CONTINUOUS
10
108.356
20
-90.0367
11
108.406
21
-90.0442
0
LINE
8
BLACK
6
CONTINUOUS
10
108.406
20
-90.0442
11
108.441
21
-90.0826
0
LINE
8
BLACK
6
CONTINUOUS
10
108.441
20
-90.0826
11
108.442
21
-90.1339
0
LINE
8
BLACK
6
CONTINUOUS
10
108.442
20
-90.1339
11
108.109
21
-91.1339
0
LINE
8
BLACK
6
CONTINUOUS
10
108.109
20
-91.1339
11
108.096
21
-91.1568
0
LINE
8
BLACK
6
CONTINUOUS
10
108.096
20
-91.1568
11
108.094
21
-91.1579
0
LINE
8
BLACK
6
CONTINUOUS
10
108.094
20
-91.1579
11
108.094
21
-91.1599
0
LINE
8
BLACK
6
CONTINUOUS
10
108.094
20
-91.1599
11
108.073
21
-91.1712
0
LINE
8
BLACK
6
CONTINUOUS
10
108.073
20
-91.1712
11
108.052
21
-91.1837
0
LINE
8
BLACK
6
CONTINUOUS
10
108.052
20
-91.1837
11
108.05
21
-91.1833
0
LINE
8
BLACK
6
CONTINUOUS
10
108.05
20
-91.1833
11
108.048
21
-91.1844
0
LINE
8
BLACK
6
CONTINUOUS
10
108.048
20
-91.1844
11
108.025
21
-91.1796
0
LINE
8
BLACK
6
CONTINUOUS
10
108.025
20
-91.1796
11
108.002
21
-91.1761
0
LINE
8
BLACK
6
CONTINUOUS
10
108.002
20
-91.1761
11
108
21
-91.1745
0
LINE
8
BLACK
6
CONTINUOUS
10
108
20
-91.1745
11
107.998
21
-91.1741
0
LINE
8
BLACK
6
CONTINUOUS
10
107.998
20
-91.1741
11
107.983
21
-91.1555
0
LINE
8
BLACK
6
CONTINUOUS
10
107.983
20
-91.1555
11
107.968
21
-91.1377
0
LINE
8
BLACK
6
CONTINUOUS
10
107.968
20
-91.1377
11
107.968
21
-91.1356
0
LINE
8
BLACK
6
CONTINUOUS
10
107.968
20
-91.1356
11
107.966
21
-91.1339
0
LINE
8
BLACK
6
CONTINUOUS
10
107.966
20
-91.1339
11
107.633
21
-90.1339
0
LINE
8
BLACK
6
CONTINUOUS
10
107.633
20
-90.1339
11
107.629
21
-90.1081
0
LINE
8
BLACK
6
CONTINUOUS
10
107.629
20
-90.1081
11
107.648
21
-90.0604
0
LINE
8
BLACK
6
CONTINUOUS
10
107.648
20
-90.0604
11
107.693
21
-90.036
0
LINE
8
BLACK
6
CONTINUOUS
10
107.693
20
-90.036
11
107.743
21
-90.0463
0
LINE
8
BLACK
6
CONTINUOUS
10
107.254
20
-90.0397
11
107.257
21
-90.0426
0
LINE
8
BLACK
6
CONTINUOUS
10
107.257
20
-90.0426
11
107.261
21
-90.0431
0
LINE
8
BLACK
6
CONTINUOUS
10
107.261
20
-90.0431
11
107.357
21
-90.0907
0
LINE
8
BLACK
6
CONTINUOUS
10
107.357
20
-90.0907
11
107.375
21
-90.1041
0
LINE
8
BLACK
6
CONTINUOUS
10
107.375
20
-90.1041
11
107.376
21
-90.1048
0
LINE
8
BLACK
6
CONTINUOUS
10
107.376
20
-90.1048
11
107.424
21
-90.1524
0
LINE
8
BLACK
6
CONTINUOUS
10
107.424
20
-90.1524
11
107.437
21
-90.1708
0
LINE
8
BLACK
6
CONTINUOUS
10
107.437
20
-90.1708
11
107.438
21
-90.1719
0
LINE
8
BLACK
6
CONTINUOUS
10
107.438
20
-90.1719
11
107.485
21
-90.2671
0
LINE
8
BLACK
6
CONTINUOUS
10
107.485
20
-90.2671
11
107.493
21
-90.2921
0
LINE
8
BLACK
6
CONTINUOUS
10
107.493
20
-90.2921
11
107.492
21
-90.2964
0
LINE
8
BLACK
6
CONTINUOUS
10
107.492
20
-90.2964
11
107.493
21
-90.3007
0
LINE
8
BLACK
6
CONTINUOUS
10
107.493
20
-90.3007
11
107.493
21
-90.4435
0
LINE
8
BLACK
6
CONTINUOUS
10
107.493
20
-90.4435
11
107.489
21
-90.4692
0
LINE
8
BLACK
6
CONTINUOUS
10
107.489
20
-90.4692
11
107.486
21
-90.4726
0
LINE
8
BLACK
6
CONTINUOUS
10
107.486
20
-90.4726
11
107.485
21
-90.4771
0
LINE
8
BLACK
6
CONTINUOUS
10
107.485
20
-90.4771
11
107.438
21
-90.5723
0
LINE
8
BLACK
6
CONTINUOUS
10
107.438
20
-90.5723
11
107.424
21
-90.5903
0
LINE
8
BLACK
6
CONTINUOUS
10
107.424
20
-90.5903
11
107.424
21
-90.5918
0
LINE
8
BLACK
6
CONTINUOUS
10
107.424
20
-90.5918
11
107.376
21
-90.6394
0
LINE
8
BLACK
6
CONTINUOUS
10
107.376
20
-90.6394
11
107.358
21
-90.6523
0
LINE
8
BLACK
6
CONTINUOUS
10
107.358
20
-90.6523
11
107.357
21
-90.6535
0
LINE
8
BLACK
6
CONTINUOUS
10
107.357
20
-90.6535
11
107.261
21
-90.7011
0
LINE
8
BLACK
6
CONTINUOUS
10
107.261
20
-90.7011
11
107.236
21
-90.7085
0
LINE
8
BLACK
6
CONTINUOUS
10
107.236
20
-90.7085
11
107.232
21
-90.7075
0
LINE
8
BLACK
6
CONTINUOUS
10
107.232
20
-90.7075
11
107.229
21
-90.7086
0
LINE
8
BLACK
6
CONTINUOUS
10
107.229
20
-90.7086
11
107.48
21
-91.0672
0
LINE
8
BLACK
6
CONTINUOUS
10
107.48
20
-91.0672
11
107.491
21
-91.0908
0
LINE
8
BLACK
6
CONTINUOUS
10
107.491
20
-91.0908
11
107.486
21
-91.1419
0
LINE
8
BLACK
6
CONTINUOUS
10
107.486
20
-91.1419
11
107.45
21
-91.1782
0
LINE
8
BLACK
6
CONTINUOUS
10
107.45
20
-91.1782
11
107.399
21
-91.1826
0
LINE
8
BLACK
6
CONTINUOUS
10
107.399
20
-91.1826
11
107.357
21
-91.1532
0
LINE
8
BLACK
6
CONTINUOUS
10
107.357
20
-91.1532
11
107.046
21
-90.709
0
LINE
8
BLACK
6
CONTINUOUS
10
107.046
20
-90.709
11
106.922
21
-90.709
0
LINE
8
BLACK
6
CONTINUOUS
10
106.922
20
-90.709
11
106.922
21
-91.1102
0
LINE
8
BLACK
6
CONTINUOUS
10
106.922
20
-91.1102
11
106.917
21
-91.1358
0
LINE
8
BLACK
6
CONTINUOUS
10
106.917
20
-91.1358
11
106.884
21
-91.1751
0
LINE
8
BLACK
6
CONTINUOUS
10
106.884
20
-91.1751
11
106.834
21
-91.184
0
LINE
8
BLACK
6
CONTINUOUS
10
106.834
20
-91.184
11
106.789
21
-91.1584
0
LINE
8
BLACK
6
CONTINUOUS
10
106.789
20
-91.1584
11
106.772
21
-91.1102
0
LINE
8
BLACK
6
CONTINUOUS
10
106.772
20
-91.1102
11
106.772
21
-90.1102
0
LINE
8
BLACK
6
CONTINUOUS
10
106.772
20
-90.1102
11
106.774
21
-90.1004
0
LINE
8
BLACK
6
CONTINUOUS
10
106.774
20
-90.1004
11
106.773
21
-90.0972
0
LINE
8
BLACK
6
CONTINUOUS
10
106.773
20
-90.0972
11
106.775
21
-90.0943
0
LINE
8
BLACK
6
CONTINUOUS
10
106.775
20
-90.0943
11
106.776
21
-90.0845
0
LINE
8
BLACK
6
CONTINUOUS
10
106.776
20
-90.0845
11
106.789
21
-90.0696
0
LINE
8
BLACK
6
CONTINUOUS
10
106.789
20
-90.0696
11
106.799
21
-90.0527
0
LINE
8
BLACK
6
CONTINUOUS
10
106.799
20
-90.0527
11
106.805
21
-90.0504
0
LINE
8
BLACK
6
CONTINUOUS
10
106.805
20
-90.0504
11
106.809
21
-90.0452
0
LINE
8
BLACK
6
CONTINUOUS
10
106.809
20
-90.0452
11
106.829
21
-90.0418
0
LINE
8
BLACK
6
CONTINUOUS
10
106.829
20
-90.0418
11
106.847
21
-90.0352
0
LINE
8
BLACK
6
CONTINUOUS
10
106.847
20
-90.0352
11
107.228
21
-90.0352
0
LINE
8
BLACK
6
CONTINUOUS
10
107.228
20
-90.0352
11
107.254
21
-90.0397
0
LINE
8
BLACK
6
CONTINUOUS
10
106.922
20
-90.1852
11
106.922
21
-90.559
0
LINE
8
BLACK
6
CONTINUOUS
10
106.922
20
-90.559
11
107.21
21
-90.559
0
LINE
8
BLACK
6
CONTINUOUS
10
107.21
20
-90.559
11
107.279
21
-90.5247
0
LINE
8
BLACK
6
CONTINUOUS
10
107.279
20
-90.5247
11
107.309
21
-90.4943
0
LINE
8
BLACK
6
CONTINUOUS
10
107.309
20
-90.4943
11
107.343
21
-90.4258
0
LINE
8
BLACK
6
CONTINUOUS
10
107.343
20
-90.4258
11
107.343
21
-90.3184
0
LINE
8
BLACK
6
CONTINUOUS
10
107.343
20
-90.3184
11
107.309
21
-90.2498
0
LINE
8
BLACK
6
CONTINUOUS
10
107.309
20
-90.2498
11
107.279
21
-90.2194
0
LINE
8
BLACK
6
CONTINUOUS
10
107.279
20
-90.2194
11
107.21
21
-90.1852
0
LINE
8
BLACK
6
CONTINUOUS
10
107.21
20
-90.1852
11
106.922
21
-90.1852
0
LINE
8
BLACK
6
CONTINUOUS
10
187.664
20
-82.4452
11
187.646
21
-82.4028
0
LINE
8
BLACK
6
CONTINUOUS
10
187.646
20
-82.4028
11
187.646
21
-78.3388
0
LINE
8
BLACK
6
CONTINUOUS
10
187.646
20
-78.3388
11
187.664
21
-78.2964
0
LINE
8
BLACK
6
CONTINUOUS
10
187.664
20
-78.2964
11
187.706
21
-78.2788
0
LINE
8
BLACK
6
CONTINUOUS
10
187.706
20
-78.2788
11
187.748
21
-78.2964
0
LINE
8
BLACK
6
CONTINUOUS
10
187.748
20
-78.2964
11
187.766
21
-78.3388
0
LINE
8
BLACK
6
CONTINUOUS
10
187.766
20
-78.3388
11
187.766
21
-82.3428
0
LINE
8
BLACK
6
CONTINUOUS
10
187.766
20
-82.3428
11
200.346
21
-82.3428
0
LINE
8
BLACK
6
CONTINUOUS
10
200.346
20
-82.3428
11
200.346
21
-78.3388
0
LINE
8
BLACK
6
CONTINUOUS
10
200.346
20
-78.3388
11
200.364
21
-78.2964
0
LINE
8
BLACK
6
CONTINUOUS
10
200.364
20
-78.2964
11
200.406
21
-78.2788
0
LINE
8
BLACK
6
CONTINUOUS
10
200.406
20
-78.2788
11
200.448
21
-78.2964
0
LINE
8
BLACK
6
CONTINUOUS
10
200.448
20
-78.2964
11
200.466
21
-78.3388
0
LINE
8
BLACK
6
CONTINUOUS
10
200.466
20
-78.3388
11
200.466
21
-82.4028
0
LINE
8
BLACK
6
CONTINUOUS
10
200.466
20
-82.4028
11
200.448
21
-82.4452
0
LINE
8
BLACK
6
CONTINUOUS
10
200.448
20
-82.4452
11
200.406
21
-82.4628
0
LINE
8
BLACK
6
CONTINUOUS
10
200.406
20
-82.4628
11
187.706
21
-82.4628
0
LINE
8
BLACK
6
CONTINUOUS
10
187.706
20
-82.4628
11
187.664
21
-82.4452
0
LINE
8
BLACK
6
CONTINUOUS
10
151.166
20
-73.439
11
151.182
21
-73.4414
0
LINE
8
BLACK
6
CONTINUOUS
10
151.182
20
-73.4414
11
151.182
21
-73.4414
0
LINE
8
BLACK
6
CONTINUOUS
10
151.182
20
-73.4414
11
151.455
21
-73.627
0
LINE
8
BLACK
6
CONTINUOUS
10
151.455
20
-73.627
11
151.706
21
-73.841
0
LINE
8
BLACK
6
CONTINUOUS
10
151.706
20
-73.841
11
151.933
21
-74.081
0
LINE
8
BLACK
6
CONTINUOUS
10
151.933
20
-74.081
11
152.132
21
-74.344
0
LINE
8
BLACK
6
CONTINUOUS
10
152.132
20
-74.344
11
152.302
21
-74.627
0
LINE
8
BLACK
6
CONTINUOUS
10
152.302
20
-74.627
11
152.441
21
-74.9267
0
LINE
8
BLACK
6
CONTINUOUS
10
152.441
20
-74.9267
11
152.546
21
-75.2397
0
LINE
8
BLACK
6
CONTINUOUS
10
152.546
20
-75.2397
11
152.616
21
-75.5621
0
LINE
8
BLACK
6
CONTINUOUS
10
152.616
20
-75.5621
11
152.652
21
-75.8903
0
LINE
8
BLACK
6
CONTINUOUS
10
152.652
20
-75.8903
11
152.651
21
-76.2204
0
LINE
8
BLACK
6
CONTINUOUS
10
152.651
20
-76.2204
11
152.615
21
-76.5486
0
LINE
8
BLACK
6
CONTINUOUS
10
152.615
20
-76.5486
11
152.544
21
-76.8709
0
LINE
8
BLACK
6
CONTINUOUS
10
152.544
20
-76.8709
11
152.439
21
-77.1836
0
LINE
8
BLACK
6
CONTINUOUS
10
152.439
20
-77.1836
11
152.3
21
-77.4831
0
LINE
8
BLACK
6
CONTINUOUS
10
152.3
20
-77.4831
11
152.129
21
-77.7659
0
LINE
8
BLACK
6
CONTINUOUS
10
152.129
20
-77.7659
11
151.93
21
-78.0286
0
LINE
8
BLACK
6
CONTINUOUS
10
151.93
20
-78.0286
11
151.702
21
-78.2681
0
LINE
8
BLACK
6
CONTINUOUS
10
151.702
20
-78.2681
11
151.451
21
-78.4817
0
LINE
8
BLACK
6
CONTINUOUS
10
151.451
20
-78.4817
11
151.177
21
-78.6668
0
LINE
8
BLACK
6
CONTINUOUS
10
151.177
20
-78.6668
11
150.886
21
-78.8213
0
LINE
8
BLACK
6
CONTINUOUS
10
150.886
20
-78.8213
11
150.579
21
-78.9434
0
LINE
8
BLACK
6
CONTINUOUS
10
150.579
20
-78.9434
11
150.261
21
-79.0317
0
LINE
8
BLACK
6
CONTINUOUS
10
150.261
20
-79.0317
11
149.935
21
-79.085
0
LINE
8
BLACK
6
CONTINUOUS
10
149.935
20
-79.085
11
149.607
21
-79.1027
0
LINE
8
BLACK
6
CONTINUOUS
10
149.607
20
-79.1027
11
149.606
21
-79.1028
0
LINE
8
BLACK
6
CONTINUOUS
10
149.606
20
-79.1028
11
149.606
21
-79.1028
0
LINE
8
BLACK
6
CONTINUOUS
10
149.606
20
-79.1028
11
149.606
21
-79.1028
0
LINE
8
BLACK
6
CONTINUOUS
10
149.606
20
-79.1028
11
149.606
21
-79.1028
0
LINE
8
BLACK
6
CONTINUOUS
10
149.606
20
-79.1028
11
149.605
21
-79.1027
0
LINE
8
BLACK
6
CONTINUOUS
10
149.605
20
-79.1027
11
149.277
21
-79.085
0
LINE
8
BLACK
6
CONTINUOUS
10
149.277
20
-79.085
11
148.951
21
-79.0317
0
LINE
8
BLACK
6
CONTINUOUS
10
148.951
20
-79.0317
11
148.633
21
-78.9434
0
LINE
8
BLACK
6
CONTINUOUS
10
148.633
20
-78.9434
11
148.326
21
-78.8213
0
LINE
8
BLACK
6
CONTINUOUS
10
148.326
20
-78.8213
11
148.035
21
-78.6668
0
LINE
8
BLACK
6
CONTINUOUS
10
148.035
20
-78.6668
11
147.761
21
-78.4817
0
LINE
8
BLACK
6
CONTINUOUS
10
147.761
20
-78.4817
11
147.51
21
-78.2681
0
LINE
8
BLACK
6
CONTINUOUS
10
147.51
20
-78.2681
11
147.282
21
-78.0286
0
LINE
8
BLACK
6
CONTINUOUS
10
147.282
20
-78.0286
11
147.083
21
-77.7659
0
LINE
8
BLACK
6
CONTINUOUS
10
147.083
20
-77.7659
11
146.912
21
-77.4831
0
LINE
8
BLACK
6
CONTINUOUS
10
146.912
20
-77.4831
11
146.773
21
-77.1836
0
LINE
8
BLACK
6
CONTINUOUS
10
146.773
20
-77.1836
11
146.668
21
-76.8709
0
LINE
8
BLACK
6
CONTINUOUS
10
146.668
20
-76.8709
11
146.597
21
-76.5486
0
LINE
8
BLACK
6
CONTINUOUS
10
146.597
20
-76.5486
11
146.561
21
-76.2204
0
LINE
8
BLACK
6
CONTINUOUS
10
146.561
20
-76.2204
11
146.56
21
-75.8903
0
LINE
8
BLACK
6
CONTINUOUS
10
146.56
20
-75.8903
11
146.596
21
-75.5621
0
LINE
8
BLACK
6
CONTINUOUS
10
146.596
20
-75.5621
11
146.666
21
-75.2397
0
LINE
8
BLACK
6
CONTINUOUS
10
146.666
20
-75.2397
11
146.771
21
-74.9267
0
LINE
8
BLACK
6
CONTINUOUS
10
146.771
20
-74.9267
11
146.91
21
-74.627
0
LINE
8
BLACK
6
CONTINUOUS
10
146.91
20
-74.627
11
147.08
21
-74.344
0
LINE
8
BLACK
6
CONTINUOUS
10
147.08
20
-74.344
11
147.279
21
-74.081
0
LINE
8
BLACK
6
CONTINUOUS
10
147.279
20
-74.081
11
147.506
21
-73.841
0
LINE
8
BLACK
6
CONTINUOUS
10
147.506
20
-73.841
11
147.757
21
-73.627
0
LINE
8
BLACK
6
CONTINUOUS
10
147.757
20
-73.627
11
148.03
21
-73.4414
0
LINE
8
BLACK
6
CONTINUOUS
10
148.03
20
-73.4414
11
148.046
21
-73.439
0
LINE
8
BLACK
6
CONTINUOUS
10
148.046
20
-73.439
11
148.061
21
-73.4328
0
LINE
8
BLACK
6
CONTINUOUS
10
148.061
20
-73.4328
11
151.151
21
-73.4328
0
LINE
8
BLACK
6
CONTINUOUS
10
151.151
20
-73.4328
11
151.166
21
-73.439
0
LINE
8
BLACK
6
CONTINUOUS
10
147.238
20
-76.6608
11
147.333
21
-76.9528
0
LINE
8
BLACK
6
CONTINUOUS
10
147.333
20
-76.9528
11
147.464
21
-77.2306
0
LINE
8
BLACK
6
CONTINUOUS
10
147.464
20
-77.2306
11
147.628
21
-77.4898
0
LINE
8
BLACK
6
CONTINUOUS
10
147.628
20
-77.4898
11
147.824
21
-77.7264
0
LINE
8
BLACK
6
CONTINUOUS
10
147.824
20
-77.7264
11
148.048
21
-77.9366
0
LINE
8
BLACK
6
CONTINUOUS
10
148.048
20
-77.9366
11
148.296
21
-78.117
0
LINE
8
BLACK
6
CONTINUOUS
10
148.296
20
-78.117
11
148.565
21
-78.2649
0
LINE
8
BLACK
6
CONTINUOUS
10
148.565
20
-78.2649
11
148.851
21
-78.378
0
LINE
8
BLACK
6
CONTINUOUS
10
148.851
20
-78.378
11
149.148
21
-78.4543
0
LINE
8
BLACK
6
CONTINUOUS
10
149.148
20
-78.4543
11
149.452
21
-78.4928
0
LINE
8
BLACK
6
CONTINUOUS
10
149.452
20
-78.4928
11
149.76
21
-78.4928
0
LINE
8
BLACK
6
CONTINUOUS
10
149.76
20
-78.4928
11
150.064
21
-78.4543
0
LINE
8
BLACK
6
CONTINUOUS
10
150.064
20
-78.4543
11
150.361
21
-78.378
0
LINE
8
BLACK
6
CONTINUOUS
10
150.361
20
-78.378
11
150.647
21
-78.2649
0
LINE
8
BLACK
6
CONTINUOUS
10
150.647
20
-78.2649
11
150.916
21
-78.117
0
LINE
8
BLACK
6
CONTINUOUS
10
150.916
20
-78.117
11
151.164
21
-77.9366
0
LINE
8
BLACK
6
CONTINUOUS
10
151.164
20
-77.9366
11
151.388
21
-77.7264
0
LINE
8
BLACK
6
CONTINUOUS
10
151.388
20
-77.7264
11
151.584
21
-77.4898
0
LINE
8
BLACK
6
CONTINUOUS
10
151.584
20
-77.4898
11
151.748
21
-77.2306
0
LINE
8
BLACK
6
CONTINUOUS
10
151.748
20
-77.2306
11
151.879
21
-76.9528
0
LINE
8
BLACK
6
CONTINUOUS
10
151.879
20
-76.9528
11
151.974
21
-76.6608
0
LINE
8
BLACK
6
CONTINUOUS
10
151.974
20
-76.6608
11
152.032
21
-76.3592
0
LINE
8
BLACK
6
CONTINUOUS
10
152.032
20
-76.3592
11
152.051
21
-76.0528
0
LINE
8
BLACK
6
CONTINUOUS
10
152.051
20
-76.0528
11
152.032
21
-75.7464
0
LINE
8
BLACK
6
CONTINUOUS
10
152.032
20
-75.7464
11
151.974
21
-75.4448
0
LINE
8
BLACK
6
CONTINUOUS
10
151.974
20
-75.4448
11
151.879
21
-75.1528
0
LINE
8
BLACK
6
CONTINUOUS
10
151.879
20
-75.1528
11
151.748
21
-74.875
0
LINE
8
BLACK
6
CONTINUOUS
10
151.748
20
-74.875
11
151.584
21
-74.6158
0
LINE
8
BLACK
6
CONTINUOUS
10
151.584
20
-74.6158
11
151.388
21
-74.3792
0
LINE
8
BLACK
6
CONTINUOUS
10
151.388
20
-74.3792
11
151.164
21
-74.169
0
LINE
8
BLACK
6
CONTINUOUS
10
151.164
20
-74.169
11
150.916
21
-73.9886
0
LINE
8
BLACK
6
CONTINUOUS
10
150.916
20
-73.9886
11
150.647
21
-73.8407
0
LINE
8
BLACK
6
CONTINUOUS
10
150.647
20
-73.8407
11
150.361
21
-73.7276
0
LINE
8
BLACK
6
CONTINUOUS
10
150.361
20
-73.7276
11
150.064
21
-73.6513
0
LINE
8
BLACK
6
CONTINUOUS
10
150.064
20
-73.6513
11
149.76
21
-73.6128
0
LINE
8
BLACK
6
CONTINUOUS
10
149.76
20
-73.6128
11
149.452
21
-73.6128
0
LINE
8
BLACK
6
CONTINUOUS
10
149.452
20
-73.6128
11
149.148
21
-73.6513
0
LINE
8
BLACK
6
CONTINUOUS
10
149.148
20
-73.6513
11
148.851
21
-73.7276
0
LINE
8
BLACK
6
CONTINUOUS
10
148.851
20
-73.7276
11
148.565
21
-73.8407
0
LINE
8
BLACK
6
CONTINUOUS
10
148.565
20
-73.8407
11
148.296
21
-73.9886
0
LINE
8
BLACK
6
CONTINUOUS
10
148.296
20
-73.9886
11
148.048
21
-74.169
0
LINE
8
BLACK
6
CONTINUOUS
10
148.048
20
-74.169
11
147.824
21
-74.3792
0
LINE
8
BLACK
6
CONTINUOUS
10
147.824
20
-74.3792
11
147.628
21
-74.6158
0
LINE
8
BLACK
6
CONTINUOUS
10
147.628
20
-74.6158
11
147.464
21
-74.875
0
LINE
8
BLACK
6
CONTINUOUS
10
147.464
20
-74.875
11
147.333
21
-75.1528
0
LINE
8
BLACK
6
CONTINUOUS
10
147.333
20
-75.1528
11
147.238
21
-75.4448
0
LINE
8
BLACK
6
CONTINUOUS
10
147.238
20
-75.4448
11
147.18
21
-75.7464
0
LINE
8
BLACK
6
CONTINUOUS
10
147.18
20
-75.7464
11
147.161
21
-76.0528
0
LINE
8
BLACK
6
CONTINUOUS
10
147.161
20
-76.0528
11
147.18
21
-76.3592
0
LINE
8
BLACK
6
CONTINUOUS
10
147.18
20
-76.3592
11
147.238
21
-76.6608
0
LINE
8
BLACK
6
CONTINUOUS
10
147.126
20
-75.4162
11
147.226
21
-75.1104
0
LINE
8
BLACK
6
CONTINUOUS
10
147.226
20
-75.1104
11
147.363
21
-74.8195
0
LINE
8
BLACK
6
CONTINUOUS
10
147.363
20
-74.8195
11
147.535
21
-74.5481
0
LINE
8
BLACK
6
CONTINUOUS
10
147.535
20
-74.5481
11
147.74
21
-74.3004
0
LINE
8
BLACK
6
CONTINUOUS
10
147.74
20
-74.3004
11
147.974
21
-74.0803
0
LINE
8
BLACK
6
CONTINUOUS
10
147.974
20
-74.0803
11
148.234
21
-73.8913
0
LINE
8
BLACK
6
CONTINUOUS
10
148.234
20
-73.8913
11
148.516
21
-73.7364
0
LINE
8
BLACK
6
CONTINUOUS
10
148.516
20
-73.7364
11
148.815
21
-73.6181
0
LINE
8
BLACK
6
CONTINUOUS
10
148.815
20
-73.6181
11
149.069
21
-73.5528
0
LINE
8
BLACK
6
CONTINUOUS
10
149.069
20
-73.5528
11
148.071
21
-73.5528
0
LINE
8
BLACK
6
CONTINUOUS
10
148.071
20
-73.5528
11
147.816
21
-73.7272
0
LINE
8
BLACK
6
CONTINUOUS
10
147.816
20
-73.7272
11
147.565
21
-73.9438
0
LINE
8
BLACK
6
CONTINUOUS
10
147.565
20
-73.9438
11
147.341
21
-74.1874
0
LINE
8
BLACK
6
CONTINUOUS
10
147.341
20
-74.1874
11
147.145
21
-74.4547
0
LINE
8
BLACK
6
CONTINUOUS
10
147.145
20
-74.4547
11
146.98
21
-74.7424
0
LINE
8
BLACK
6
CONTINUOUS
10
146.98
20
-74.7424
11
146.849
21
-75.0468
0
LINE
8
BLACK
6
CONTINUOUS
10
146.849
20
-75.0468
11
146.753
21
-75.3641
0
LINE
8
BLACK
6
CONTINUOUS
10
146.753
20
-75.3641
11
146.694
21
-75.6901
0
LINE
8
BLACK
6
CONTINUOUS
10
146.694
20
-75.6901
11
146.672
21
-76.0207
0
LINE
8
BLACK
6
CONTINUOUS
10
146.672
20
-76.0207
11
146.687
21
-76.3518
0
LINE
8
BLACK
6
CONTINUOUS
10
146.687
20
-76.3518
11
146.739
21
-76.6791
0
LINE
8
BLACK
6
CONTINUOUS
10
146.739
20
-76.6791
11
146.828
21
-76.9983
0
LINE
8
BLACK
6
CONTINUOUS
10
146.828
20
-76.9983
11
146.952
21
-77.3055
0
LINE
8
BLACK
6
CONTINUOUS
10
146.952
20
-77.3055
11
147.11
21
-77.5968
0
LINE
8
BLACK
6
CONTINUOUS
10
147.11
20
-77.5968
11
147.3
21
-77.8683
0
LINE
8
BLACK
6
CONTINUOUS
10
147.3
20
-77.8683
11
147.52
21
-78.1167
0
LINE
8
BLACK
6
CONTINUOUS
10
147.52
20
-78.1167
11
147.766
21
-78.3387
0
LINE
8
BLACK
6
CONTINUOUS
10
147.766
20
-78.3387
11
148.035
21
-78.5317
0
LINE
8
BLACK
6
CONTINUOUS
10
148.035
20
-78.5317
11
148.325
21
-78.693
0
LINE
8
BLACK
6
CONTINUOUS
10
148.325
20
-78.693
11
148.631
21
-78.8206
0
LINE
8
BLACK
6
CONTINUOUS
10
148.631
20
-78.8206
11
148.949
21
-78.9129
0
LINE
8
BLACK
6
CONTINUOUS
10
148.949
20
-78.9129
11
149.276
21
-78.9688
0
LINE
8
BLACK
6
CONTINUOUS
10
149.276
20
-78.9688
11
149.596
21
-78.9868
0
LINE
8
BLACK
6
CONTINUOUS
10
149.596
20
-78.9868
11
149.606
21
-78.9828
0
LINE
8
BLACK
6
CONTINUOUS
10
149.606
20
-78.9828
11
149.606
21
-78.983
0
LINE
8
BLACK
6
CONTINUOUS
10
149.606
20
-78.983
11
149.606
21
-78.9828
0
LINE
8
BLACK
6
CONTINUOUS
10
149.606
20
-78.9828
11
149.616
21
-78.9868
0
LINE
8
BLACK
6
CONTINUOUS
10
149.616
20
-78.9868
11
149.936
21
-78.9688
0
LINE
8
BLACK
6
CONTINUOUS
10
149.936
20
-78.9688
11
150.263
21
-78.9129
0
LINE
8
BLACK
6
CONTINUOUS
10
150.263
20
-78.9129
11
150.581
21
-78.8206
0
LINE
8
BLACK
6
CONTINUOUS
10
150.581
20
-78.8206
11
150.887
21
-78.693
0
LINE
8
BLACK
6
CONTINUOUS
10
150.887
20
-78.693
11
151.177
21
-78.5317
0
LINE
8
BLACK
6
CONTINUOUS
10
151.177
20
-78.5317
11
151.446
21
-78.3387
0
LINE
8
BLACK
6
CONTINUOUS
10
151.446
20
-78.3387
11
151.692
21
-78.1167
0
LINE
8
BLACK
6
CONTINUOUS
10
151.692
20
-78.1167
11
151.912
21
-77.8683
0
LINE
8
BLACK
6
CONTINUOUS
10
151.912
20
-77.8683
11
152.102
21
-77.5968
0
LINE
8
BLACK
6
CONTINUOUS
10
152.102
20
-77.5968
11
152.26
21
-77.3055
0
LINE
8
BLACK
6
CONTINUOUS
10
152.26
20
-77.3055
11
152.384
21
-76.9983
0
LINE
8
BLACK
6
CONTINUOUS
10
152.384
20
-76.9983
11
152.473
21
-76.6791
0
LINE
8
BLACK
6
CONTINUOUS
10
152.473
20
-76.6791
11
152.525
21
-76.3518
0
LINE
8
BLACK
6
CONTINUOUS
10
152.525
20
-76.3518
11
152.54
21
-76.0207
0
LINE
8
BLACK
6
CONTINUOUS
10
152.54
20
-76.0207
11
152.518
21
-75.6901
0
LINE
8
BLACK
6
CONTINUOUS
10
152.518
20
-75.6901
11
152.459
21
-75.3641
0
LINE
8
BLACK
6
CONTINUOUS
10
152.459
20
-75.3641
11
152.363
21
-75.0468
0
LINE
8
BLACK
6
CONTINUOUS
10
152.363
20
-75.0468
11
152.232
21
-74.7424
0
LINE
8
BLACK
6
CONTINUOUS
10
152.232
20
-74.7424
11
152.067
21
-74.4547
0
LINE
8
BLACK
6
CONTINUOUS
10
152.067
20
-74.4547
11
151.871
21
-74.1874
0
LINE
8
BLACK
6
CONTINUOUS
10
151.871
20
-74.1874
11
151.647
21
-73.9438
0
LINE
8
BLACK
6
CONTINUOUS
10
151.647
20
-73.9438
11
151.396
21
-73.7272
0
LINE
8
BLACK
6
CONTINUOUS
10
151.396
20
-73.7272
11
151.141
21
-73.5528
0
LINE
8
BLACK
6
CONTINUOUS
10
151.141
20
-73.5528
11
150.143
21
-73.5528
0
LINE
8
BLACK
6
CONTINUOUS
10
150.143
20
-73.5528
11
150.397
21
-73.6181
0
LINE
8
BLACK
6
CONTINUOUS
10
150.397
20
-73.6181
11
150.696
21
-73.7364
0
LINE
8
BLACK
6
CONTINUOUS
10
150.696
20
-73.7364
11
150.978
21
-73.8913
0
LINE
8
BLACK
6
CONTINUOUS
10
150.978
20
-73.8913
11
151.238
21
-74.0803
0
LINE
8
BLACK
6
CONTINUOUS
10
151.238
20
-74.0803
11
151.472
21
-74.3004
0
LINE
8
BLACK
6
CONTINUOUS
10
151.472
20
-74.3004
11
151.677
21
-74.5481
0
LINE
8
BLACK
6
CONTINUOUS
10
151.677
20
-74.5481
11
151.849
21
-74.8195
0
LINE
8
BLACK
6
CONTINUOUS
10
151.849
20
-74.8195
11
151.986
21
-75.1104
0
LINE
8
BLACK
6
CONTINUOUS
10
151.986
20
-75.1104
11
152.086
21
-75.4162
0
LINE
8
BLACK
6
CONTINUOUS
10
152.086
20
-75.4162
11
152.146
21
-75.7319
0
LINE
8
BLACK
6
CONTINUOUS
10
152.146
20
-75.7319
11
152.166
21
-76.0528
0
LINE
8
BLACK
6
CONTINUOUS
10
152.166
20
-76.0528
11
152.146
21
-76.3737
0
LINE
8
BLACK
6
CONTINUOUS
10
152.146
20
-76.3737
11
152.086
21
-76.6894
0
LINE
8
BLACK
6
CONTINUOUS
10
152.086
20
-76.6894
11
151.986
21
-76.9952
0
LINE
8
BLACK
6
CONTINUOUS
10
151.986
20
-76.9952
11
151.849
21
-77.2861
0
LINE
8
BLACK
6
CONTINUOUS
10
151.849
20
-77.2861
11
151.677
21
-77.5575
0
LINE
8
BLACK
6
CONTINUOUS
10
151.677
20
-77.5575
11
151.472
21
-77.8052
0
LINE
8
BLACK
6
CONTINUOUS
10
151.472
20
-77.8052
11
151.238
21
-78.0253
0
LINE
8
BLACK
6
CONTINUOUS
10
151.238
20
-78.0253
11
150.978
21
-78.2143
0
LINE
8
BLACK
6
CONTINUOUS
10
150.978
20
-78.2143
11
150.696
21
-78.3692
0
LINE
8
BLACK
6
CONTINUOUS
10
150.696
20
-78.3692
11
150.397
21
-78.4875
0
LINE
8
BLACK
6
CONTINUOUS
10
150.397
20
-78.4875
11
150.086
21
-78.5675
0
LINE
8
BLACK
6
CONTINUOUS
10
150.086
20
-78.5675
11
149.767
21
-78.6077
0
LINE
8
BLACK
6
CONTINUOUS
10
149.767
20
-78.6077
11
149.445
21
-78.6077
0
LINE
8
BLACK
6
CONTINUOUS
10
149.445
20
-78.6077
11
149.126
21
-78.5675
0
LINE
8
BLACK
6
CONTINUOUS
10
149.126
20
-78.5675
11
148.815
21
-78.4875
0
LINE
8
BLACK
6
CONTINUOUS
10
148.815
20
-78.4875
11
148.516
21
-78.3692
0
LINE
8
BLACK
6
CONTINUOUS
10
148.516
20
-78.3692
11
148.234
21
-78.2143
0
LINE
8
BLACK
6
CONTINUOUS
10
148.234
20
-78.2143
11
147.974
21
-78.0253
0
LINE
8
BLACK
6
CONTINUOUS
10
147.974
20
-78.0253
11
147.74
21
-77.8052
0
LINE
8
BLACK
6
CONTINUOUS
10
147.74
20
-77.8052
11
147.535
21
-77.5575
0
LINE
8
BLACK
6
CONTINUOUS
10
147.535
20
-77.5575
11
147.363
21
-77.2861
0
LINE
8
BLACK
6
CONTINUOUS
10
147.363
20
-77.2861
11
147.226
21
-76.9952
0
LINE
8
BLACK
6
CONTINUOUS
10
147.226
20
-76.9952
11
147.126
21
-76.6894
0
LINE
8
BLACK
6
CONTINUOUS
10
147.126
20
-76.6894
11
147.066
21
-76.3737
0
LINE
8
BLACK
6
CONTINUOUS
10
147.066
20
-76.3737
11
147.046
21
-76.0528
0
LINE
8
BLACK
6
CONTINUOUS
10
147.046
20
-76.0528
11
147.066
21
-75.7319
0
LINE
8
BLACK
6
CONTINUOUS
10
147.066
20
-75.7319
11
147.126
21
-75.4162
0
LINE
8
BLACK
6
CONTINUOUS
10
200.448
20
-69.6604
11
200.466
21
-69.7028
0
LINE
8
BLACK
6
CONTINUOUS
10
200.466
20
-69.7028
11
200.466
21
-73.7668
0
LINE
8
BLACK
6
CONTINUOUS
10
200.466
20
-73.7668
11
200.448
21
-73.8092
0
LINE
8
BLACK
6
CONTINUOUS
10
200.448
20
-73.8092
11
200.406
21
-73.8268
0
LINE
8
BLACK
6
CONTINUOUS
10
200.406
20
-73.8268
11
200.364
21
-73.8092
0
LINE
8
BLACK
6
CONTINUOUS
10
200.364
20
-73.8092
11
200.346
21
-73.7668
0
LINE
8
BLACK
6
CONTINUOUS
10
200.346
20
-73.7668
11
200.346
21
-69.7628
0
LINE
8
BLACK
6
CONTINUOUS
10
200.346
20
-69.7628
11
187.766
21
-69.7628
0
LINE
8
BLACK
6
CONTINUOUS
10
187.766
20
-69.7628
11
187.766
21
-73.7668
0
LINE
8
BLACK
6
CONTINUOUS
10
187.766
20
-73.7668
11
187.748
21
-73.8092
0
LINE
8
BLACK
6
CONTINUOUS
10
187.748
20
-73.8092
11
187.706
21
-73.8268
0
LINE
8
BLACK
6
CONTINUOUS
10
187.706
20
-73.8268
11
187.664
21
-73.8092
0
LINE
8
BLACK
6
CONTINUOUS
10
187.664
20
-73.8092
11
187.646
21
-73.7668
0
LINE
8
BLACK
6
CONTINUOUS
10
187.646
20
-73.7668
11
187.646
21
-69.7028
0
LINE
8
BLACK
6
CONTINUOUS
10
187.646
20
-69.7028
11
187.664
21
-69.6604
0
LINE
8
BLACK
6
CONTINUOUS
10
187.664
20
-69.6604
11
187.706
21
-69.6428
0
LINE
8
BLACK
6
CONTINUOUS
10
187.706
20
-69.6428
11
200.406
21
-69.6428
0
LINE
8
BLACK
6
CONTINUOUS
10
200.406
20
-69.6428
11
200.448
21
-69.6604
0
LINE
8
BLACK
6
CONTINUOUS
10
150.179
20
-71.6247
11
150.183
21
-71.6276
0
LINE
8
BLACK
6
CONTINUOUS
10
150.183
20
-71.6276
11
150.187
21
-71.6281
0
LINE
8
BLACK
6
CONTINUOUS
10
150.187
20
-71.6281
11
150.282
21
-71.6757
0
LINE
8
BLACK
6
CONTINUOUS
10
150.282
20
-71.6757
11
150.3
21
-71.6891
0
LINE
8
BLACK
6
CONTINUOUS
10
150.3
20
-71.6891
11
150.302
21
-71.6898
0
LINE
8
BLACK
6
CONTINUOUS
10
150.302
20
-71.6898
11
150.35
21
-71.7374
0
LINE
8
BLACK
6
CONTINUOUS
10
150.35
20
-71.7374
11
150.362
21
-71.7558
0
LINE
8
BLACK
6
CONTINUOUS
10
150.362
20
-71.7558
11
150.364
21
-71.7569
0
LINE
8
BLACK
6
CONTINUOUS
10
150.364
20
-71.7569
11
150.411
21
-71.8521
0
LINE
8
BLACK
6
CONTINUOUS
10
150.411
20
-71.8521
11
150.415
21
-71.8645
0
LINE
8
BLACK
6
CONTINUOUS
10
150.415
20
-71.8645
11
150.417
21
-71.8675
0
LINE
8
BLACK
6
CONTINUOUS
10
150.417
20
-71.8675
11
150.464
21
-72.0579
0
LINE
8
BLACK
6
CONTINUOUS
10
150.464
20
-72.0579
11
150.466
21
-72.0729
0
LINE
8
BLACK
6
CONTINUOUS
10
150.466
20
-72.0729
11
150.467
21
-72.0761
0
LINE
8
BLACK
6
CONTINUOUS
10
150.467
20
-72.0761
11
150.467
21
-72.3142
0
LINE
8
BLACK
6
CONTINUOUS
10
150.467
20
-72.3142
11
150.464
21
-72.329
0
LINE
8
BLACK
6
CONTINUOUS
10
150.464
20
-72.329
11
150.464
21
-72.3324
0
LINE
8
BLACK
6
CONTINUOUS
10
150.464
20
-72.3324
11
150.417
21
-72.5229
0
LINE
8
BLACK
6
CONTINUOUS
10
150.417
20
-72.5229
11
150.412
21
-72.5347
0
LINE
8
BLACK
6
CONTINUOUS
10
150.412
20
-72.5347
11
150.411
21
-72.5382
0
LINE
8
BLACK
6
CONTINUOUS
10
150.411
20
-72.5382
11
150.364
21
-72.6335
0
LINE
8
BLACK
6
CONTINUOUS
10
150.364
20
-72.6335
11
150.35
21
-72.6515
0
LINE
8
BLACK
6
CONTINUOUS
10
150.35
20
-72.6515
11
150.35
21
-72.653
0
LINE
8
BLACK
6
CONTINUOUS
10
150.35
20
-72.653
11
150.302
21
-72.7006
0
LINE
8
BLACK
6
CONTINUOUS
10
150.302
20
-72.7006
11
150.284
21
-72.7135
0
LINE
8
BLACK
6
CONTINUOUS
10
150.284
20
-72.7135
11
150.282
21
-72.7146
0
LINE
8
BLACK
6
CONTINUOUS
10
150.282
20
-72.7146
11
150.187
21
-72.7623
0
LINE
8
BLACK
6
CONTINUOUS
10
150.187
20
-72.7623
11
150.162
21
-72.7697
0
LINE
8
BLACK
6
CONTINUOUS
10
150.162
20
-72.7697
11
150.158
21
-72.7686
0
LINE
8
BLACK
6
CONTINUOUS
10
150.158
20
-72.7686
11
150.154
21
-72.7702
0
LINE
8
BLACK
6
CONTINUOUS
10
150.154
20
-72.7702
11
150.058
21
-72.7702
0
LINE
8
BLACK
6
CONTINUOUS
10
150.058
20
-72.7702
11
150.033
21
-72.7657
0
LINE
8
BLACK
6
CONTINUOUS
10
150.033
20
-72.7657
11
150.029
21
-72.7628
0
LINE
8
BLACK
6
CONTINUOUS
10
150.029
20
-72.7628
11
150.025
21
-72.7623
0
LINE
8
BLACK
6
CONTINUOUS
10
150.025
20
-72.7623
11
149.93
21
-72.7146
0
LINE
8
BLACK
6
CONTINUOUS
10
149.93
20
-72.7146
11
149.912
21
-72.7013
0
LINE
8
BLACK
6
CONTINUOUS
10
149.912
20
-72.7013
11
149.91
21
-72.7006
0
LINE
8
BLACK
6
CONTINUOUS
10
149.91
20
-72.7006
11
149.862
21
-72.653
0
LINE
8
BLACK
6
CONTINUOUS
10
149.862
20
-72.653
11
149.85
21
-72.6346
0
LINE
8
BLACK
6
CONTINUOUS
10
149.85
20
-72.6346
11
149.848
21
-72.6335
0
LINE
8
BLACK
6
CONTINUOUS
10
149.848
20
-72.6335
11
149.801
21
-72.5382
0
LINE
8
BLACK
6
CONTINUOUS
10
149.801
20
-72.5382
11
149.797
21
-72.5258
0
LINE
8
BLACK
6
CONTINUOUS
10
149.797
20
-72.5258
11
149.795
21
-72.5229
0
LINE
8
BLACK
6
CONTINUOUS
10
149.795
20
-72.5229
11
149.748
21
-72.3324
0
LINE
8
BLACK
6
CONTINUOUS
10
149.748
20
-72.3324
11
149.746
21
-72.3175
0
LINE
8
BLACK
6
CONTINUOUS
10
149.746
20
-72.3175
11
149.745
21
-72.3142
0
LINE
8
BLACK
6
CONTINUOUS
10
149.745
20
-72.3142
11
149.745
21
-72.0761
0
LINE
8
BLACK
6
CONTINUOUS
10
149.745
20
-72.0761
11
149.748
21
-72.0614
0
LINE
8
BLACK
6
CONTINUOUS
10
149.748
20
-72.0614
11
149.748
21
-72.0579
0
LINE
8
BLACK
6
CONTINUOUS
10
149.748
20
-72.0579
11
149.795
21
-71.8675
0
LINE
8
BLACK
6
CONTINUOUS
10
149.795
20
-71.8675
11
149.8
21
-71.8556
0
LINE
8
BLACK
6
CONTINUOUS
10
149.8
20
-71.8556
11
149.801
21
-71.8521
0
LINE
8
BLACK
6
CONTINUOUS
10
149.801
20
-71.8521
11
149.848
21
-71.7569
0
LINE
8
BLACK
6
CONTINUOUS
10
149.848
20
-71.7569
11
149.862
21
-71.7389
0
LINE
8
BLACK
6
CONTINUOUS
10
149.862
20
-71.7389
11
149.862
21
-71.7374
0
LINE
8
BLACK
6
CONTINUOUS
10
149.862
20
-71.7374
11
149.91
21
-71.6898
0
LINE
8
BLACK
6
CONTINUOUS
10
149.91
20
-71.6898
11
149.928
21
-71.6769
0
LINE
8
BLACK
6
CONTINUOUS
10
149.928
20
-71.6769
11
149.93
21
-71.6757
0
LINE
8
BLACK
6
CONTINUOUS
10
149.93
20
-71.6757
11
150.025
21
-71.6281
0
LINE
8
BLACK
6
CONTINUOUS
10
150.025
20
-71.6281
11
150.05
21
-71.6207
0
LINE
8
BLACK
6
CONTINUOUS
10
150.05
20
-71.6207
11
150.054
21
-71.6217
0
LINE
8
BLACK
6
CONTINUOUS
10
150.054
20
-71.6217
11
150.058
21
-71.6202
0
LINE
8
BLACK
6
CONTINUOUS
10
150.058
20
-71.6202
11
150.154
21
-71.6202
0
LINE
8
BLACK
6
CONTINUOUS
10
150.154
20
-71.6202
11
150.179
21
-71.6247
0
LINE
8
BLACK
6
CONTINUOUS
10
150.076
20
-71.7702
11
150.008
21
-71.8044
0
LINE
8
BLACK
6
CONTINUOUS
10
150.008
20
-71.8044
11
149.977
21
-71.8348
0
LINE
8
BLACK
6
CONTINUOUS
10
149.977
20
-71.8348
11
149.939
21
-71.9118
0
LINE
8
BLACK
6
CONTINUOUS
10
149.939
20
-71.9118
11
149.895
21
-72.0854
0
LINE
8
BLACK
6
CONTINUOUS
10
149.895
20
-72.0854
11
149.895
21
-72.305
0
LINE
8
BLACK
6
CONTINUOUS
10
149.895
20
-72.305
11
149.939
21
-72.4785
0
LINE
8
BLACK
6
CONTINUOUS
10
149.939
20
-72.4785
11
149.977
21
-72.5555
0
LINE
8
BLACK
6
CONTINUOUS
10
149.977
20
-72.5555
11
150.008
21
-72.5859
0
LINE
8
BLACK
6
CONTINUOUS
10
150.008
20
-72.5859
11
150.076
21
-72.6202
0
LINE
8
BLACK
6
CONTINUOUS
10
150.076
20
-72.6202
11
150.136
21
-72.6202
0
LINE
8
BLACK
6
CONTINUOUS
10
150.136
20
-72.6202
11
150.204
21
-72.5859
0
LINE
8
BLACK
6
CONTINUOUS
10
150.204
20
-72.5859
11
150.235
21
-72.5555
0
LINE
8
BLACK
6
CONTINUOUS
10
150.235
20
-72.5555
11
150.273
21
-72.4785
0
LINE
8
BLACK
6
CONTINUOUS
10
150.273
20
-72.4785
11
150.317
21
-72.305
0
LINE
8
BLACK
6
CONTINUOUS
10
150.317
20
-72.305
11
150.317
21
-72.0854
0
LINE
8
BLACK
6
CONTINUOUS
10
150.317
20
-72.0854
11
150.273
21
-71.9118
0
LINE
8
BLACK
6
CONTINUOUS
10
150.273
20
-71.9118
11
150.235
21
-71.8348
0
LINE
8
BLACK
6
CONTINUOUS
10
150.235
20
-71.8348
11
150.204
21
-71.8044
0
LINE
8
BLACK
6
CONTINUOUS
10
150.204
20
-71.8044
11
150.136
21
-71.7702
0
LINE
8
BLACK
6
CONTINUOUS
10
150.136
20
-71.7702
11
150.076
21
-71.7702
0
LINE
8
BLACK
6
CONTINUOUS
10
151.067
20
-71.6221
11
151.071
21
-71.6213
0
LINE
8
BLACK
6
CONTINUOUS
10
151.071
20
-71.6213
11
151.09
21
-71.6322
0
LINE
8
BLACK
6
CONTINUOUS
10
151.09
20
-71.6322
11
151.11
21
-71.6409
0
LINE
8
BLACK
6
CONTINUOUS
10
151.11
20
-71.6409
11
151.112
21
-71.6448
0
LINE
8
BLACK
6
CONTINUOUS
10
151.112
20
-71.6448
11
151.116
21
-71.647
0
LINE
8
BLACK
6
CONTINUOUS
10
151.116
20
-71.647
11
151.123
21
-71.6674
0
LINE
8
BLACK
6
CONTINUOUS
10
151.123
20
-71.6674
11
151.133
21
-71.6869
0
LINE
8
BLACK
6
CONTINUOUS
10
151.133
20
-71.6869
11
151.132
21
-71.6911
0
LINE
8
BLACK
6
CONTINUOUS
10
151.132
20
-71.6911
11
151.133
21
-71.6952
0
LINE
8
BLACK
6
CONTINUOUS
10
151.133
20
-71.6952
11
151.133
21
-72.6202
0
LINE
8
BLACK
6
CONTINUOUS
10
151.133
20
-72.6202
11
151.344
21
-72.6202
0
LINE
8
BLACK
6
CONTINUOUS
10
151.344
20
-72.6202
11
151.37
21
-72.6247
0
LINE
8
BLACK
6
CONTINUOUS
10
151.37
20
-72.6247
11
151.409
21
-72.6577
0
LINE
8
BLACK
6
CONTINUOUS
10
151.409
20
-72.6577
11
151.418
21
-72.7082
0
LINE
8
BLACK
6
CONTINUOUS
10
151.418
20
-72.7082
11
151.392
21
-72.7526
0
LINE
8
BLACK
6
CONTINUOUS
10
151.392
20
-72.7526
11
151.344
21
-72.7702
0
LINE
8
BLACK
6
CONTINUOUS
10
151.344
20
-72.7702
11
150.773
21
-72.7702
0
LINE
8
BLACK
6
CONTINUOUS
10
150.773
20
-72.7702
11
150.747
21
-72.7657
0
LINE
8
BLACK
6
CONTINUOUS
10
150.747
20
-72.7657
11
150.708
21
-72.7327
0
LINE
8
BLACK
6
CONTINUOUS
10
150.708
20
-72.7327
11
150.699
21
-72.6822
0
LINE
8
BLACK
6
CONTINUOUS
10
150.699
20
-72.6822
11
150.724
21
-72.6377
0
LINE
8
BLACK
6
CONTINUOUS
10
150.724
20
-72.6377
11
150.773
21
-72.6202
0
LINE
8
BLACK
6
CONTINUOUS
10
150.773
20
-72.6202
11
150.983
21
-72.6202
0
LINE
8
BLACK
6
CONTINUOUS
10
150.983
20
-72.6202
11
150.983
21
-71.9239
0
LINE
8
BLACK
6
CONTINUOUS
10
150.983
20
-71.9239
11
150.921
21
-71.9863
0
LINE
8
BLACK
6
CONTINUOUS
10
150.921
20
-71.9863
11
150.903
21
-71.9992
0
LINE
8
BLACK
6
CONTINUOUS
10
150.903
20
-71.9992
11
150.901
21
-72.0004
0
LINE
8
BLACK
6
CONTINUOUS
10
150.901
20
-72.0004
11
150.806
21
-72.048
0
LINE
8
BLACK
6
CONTINUOUS
10
150.806
20
-72.048
11
150.781
21
-72.0554
0
LINE
8
BLACK
6
CONTINUOUS
10
150.781
20
-72.0554
11
150.731
21
-72.0435
0
LINE
8
BLACK
6
CONTINUOUS
10
150.731
20
-72.0435
11
150.701
21
-72.0023
0
LINE
8
BLACK
6
CONTINUOUS
10
150.701
20
-72.0023
11
150.704
21
-71.9511
0
LINE
8
BLACK
6
CONTINUOUS
10
150.704
20
-71.9511
11
150.739
21
-71.9138
0
LINE
8
BLACK
6
CONTINUOUS
10
150.739
20
-71.9138
11
150.823
21
-71.8716
0
LINE
8
BLACK
6
CONTINUOUS
10
150.823
20
-71.8716
11
150.905
21
-71.7903
0
LINE
8
BLACK
6
CONTINUOUS
10
150.905
20
-71.7903
11
150.996
21
-71.6536
0
LINE
8
BLACK
6
CONTINUOUS
10
150.996
20
-71.6536
11
151.014
21
-71.6347
0
LINE
8
BLACK
6
CONTINUOUS
10
151.014
20
-71.6347
11
151.018
21
-71.6335
0
LINE
8
BLACK
6
CONTINUOUS
10
151.018
20
-71.6335
11
151.021
21
-71.6302
0
LINE
8
BLACK
6
CONTINUOUS
10
151.021
20
-71.6302
11
151.042
21
-71.6264
0
LINE
8
BLACK
6
CONTINUOUS
10
151.042
20
-71.6264
11
151.063
21
-71.6203
0
LINE
8
BLACK
6
CONTINUOUS
10
151.063
20
-71.6203
11
151.067
21
-71.6221
0
LINE
8
BLACK
6
CONTINUOUS
10
148.176
20
-71.6241
11
148.177
21
-71.624
0
LINE
8
BLACK
6
CONTINUOUS
10
148.177
20
-71.624
11
148.32
21
-71.6716
0
LINE
8
BLACK
6
CONTINUOUS
10
148.32
20
-71.6716
11
148.343
21
-71.6841
0
LINE
8
BLACK
6
CONTINUOUS
10
148.343
20
-71.6841
11
148.345
21
-71.6879
0
LINE
8
BLACK
6
CONTINUOUS
10
148.345
20
-71.6879
11
148.35
21
-71.6898
0
LINE
8
BLACK
6
CONTINUOUS
10
148.35
20
-71.6898
11
148.445
21
-71.785
0
LINE
8
BLACK
6
CONTINUOUS
10
148.445
20
-71.785
11
148.458
21
-71.8034
0
LINE
8
BLACK
6
CONTINUOUS
10
148.458
20
-71.8034
11
148.459
21
-71.8045
0
LINE
8
BLACK
6
CONTINUOUS
10
148.459
20
-71.8045
11
148.506
21
-71.8997
0
LINE
8
BLACK
6
CONTINUOUS
10
148.506
20
-71.8997
11
148.51
21
-71.9121
0
LINE
8
BLACK
6
CONTINUOUS
10
148.51
20
-71.9121
11
148.512
21
-71.9151
0
LINE
8
BLACK
6
CONTINUOUS
10
148.512
20
-71.9151
11
148.56
21
-72.1056
0
LINE
8
BLACK
6
CONTINUOUS
10
148.56
20
-72.1056
11
148.561
21
-72.1205
0
LINE
8
BLACK
6
CONTINUOUS
10
148.561
20
-72.1205
11
148.562
21
-72.1238
0
LINE
8
BLACK
6
CONTINUOUS
10
148.562
20
-72.1238
11
148.562
21
-72.2666
0
LINE
8
BLACK
6
CONTINUOUS
10
148.562
20
-72.2666
11
148.559
21
-72.2814
0
LINE
8
BLACK
6
CONTINUOUS
10
148.559
20
-72.2814
11
148.56
21
-72.2848
0
LINE
8
BLACK
6
CONTINUOUS
10
148.56
20
-72.2848
11
148.512
21
-72.4753
0
LINE
8
BLACK
6
CONTINUOUS
10
148.512
20
-72.4753
11
148.507
21
-72.4871
0
LINE
8
BLACK
6
CONTINUOUS
10
148.507
20
-72.4871
11
148.506
21
-72.4906
0
LINE
8
BLACK
6
CONTINUOUS
10
148.506
20
-72.4906
11
148.459
21
-72.5859
0
LINE
8
BLACK
6
CONTINUOUS
10
148.459
20
-72.5859
11
148.445
21
-72.6039
0
LINE
8
BLACK
6
CONTINUOUS
10
148.445
20
-72.6039
11
148.445
21
-72.6054
0
LINE
8
BLACK
6
CONTINUOUS
10
148.445
20
-72.6054
11
148.35
21
-72.7006
0
LINE
8
BLACK
6
CONTINUOUS
10
148.35
20
-72.7006
11
148.328
21
-72.7155
0
LINE
8
BLACK
6
CONTINUOUS
10
148.328
20
-72.7155
11
148.324
21
-72.7159
0
LINE
8
BLACK
6
CONTINUOUS
10
148.324
20
-72.7159
11
148.32
21
-72.7187
0
LINE
8
BLACK
6
CONTINUOUS
10
148.32
20
-72.7187
11
148.177
21
-72.7663
0
LINE
8
BLACK
6
CONTINUOUS
10
148.177
20
-72.7663
11
148.155
21
-72.7696
0
LINE
8
BLACK
6
CONTINUOUS
10
148.155
20
-72.7696
11
148.154
21
-72.7702
0
LINE
8
BLACK
6
CONTINUOUS
10
148.154
20
-72.7702
11
147.916
21
-72.7702
0
LINE
8
BLACK
6
CONTINUOUS
10
147.916
20
-72.7702
11
147.906
21
-72.7685
0
LINE
8
BLACK
6
CONTINUOUS
10
147.906
20
-72.7685
11
147.902
21
-72.769
0
LINE
8
BLACK
6
CONTINUOUS
10
147.902
20
-72.769
11
147.9
21
-72.7674
0
LINE
8
BLACK
6
CONTINUOUS
10
147.9
20
-72.7674
11
147.89
21
-72.7657
0
LINE
8
BLACK
6
CONTINUOUS
10
147.89
20
-72.7657
11
147.875
21
-72.7531
0
LINE
8
BLACK
6
CONTINUOUS
10
147.875
20
-72.7531
11
147.858
21
-72.7434
0
LINE
8
BLACK
6
CONTINUOUS
10
147.858
20
-72.7434
11
147.856
21
-72.737
0
LINE
8
BLACK
6
CONTINUOUS
10
147.856
20
-72.737
11
147.851
21
-72.7327
0
LINE
8
BLACK
6
CONTINUOUS
10
147.851
20
-72.7327
11
147.847
21
-72.7135
0
LINE
8
BLACK
6
CONTINUOUS
10
147.847
20
-72.7135
11
147.841
21
-72.6952
0
LINE
8
BLACK
6
CONTINUOUS
10
147.841
20
-72.6952
11
147.841
21
-71.6952
0
LINE
8
BLACK
6
CONTINUOUS
10
147.841
20
-71.6952
11
147.842
21
-71.6854
0
LINE
8
BLACK
6
CONTINUOUS
10
147.842
20
-71.6854
11
147.842
21
-71.6822
0
LINE
8
BLACK
6
CONTINUOUS
10
147.842
20
-71.6822
11
147.843
21
-71.6793
0
LINE
8
BLACK
6
CONTINUOUS
10
147.843
20
-71.6793
11
147.845
21
-71.6695
0
LINE
8
BLACK
6
CONTINUOUS
10
147.845
20
-71.6695
11
147.858
21
-71.6546
0
LINE
8
BLACK
6
CONTINUOUS
10
147.858
20
-71.6546
11
147.867
21
-71.6377
0
LINE
8
BLACK
6
CONTINUOUS
10
147.867
20
-71.6377
11
147.874
21
-71.6354
0
LINE
8
BLACK
6
CONTINUOUS
10
147.874
20
-71.6354
11
147.878
21
-71.6302
0
LINE
8
BLACK
6
CONTINUOUS
10
147.878
20
-71.6302
11
147.897
21
-71.6268
0
LINE
8
BLACK
6
CONTINUOUS
10
147.897
20
-71.6268
11
147.916
21
-71.6202
0
LINE
8
BLACK
6
CONTINUOUS
10
147.916
20
-71.6202
11
148.154
21
-71.6202
0
LINE
8
BLACK
6
CONTINUOUS
10
148.154
20
-71.6202
11
148.176
21
-71.6241
0
LINE
8
BLACK
6
CONTINUOUS
10
147.991
20
-71.7702
11
147.991
21
-72.6202
0
LINE
8
BLACK
6
CONTINUOUS
10
147.991
20
-72.6202
11
148.141
21
-72.6202
0
LINE
8
BLACK
6
CONTINUOUS
10
148.141
20
-72.6202
11
148.256
21
-72.582
0
LINE
8
BLACK
6
CONTINUOUS
10
148.256
20
-72.582
11
148.33
21
-72.5079
0
LINE
8
BLACK
6
CONTINUOUS
10
148.33
20
-72.5079
11
148.369
21
-72.4309
0
LINE
8
BLACK
6
CONTINUOUS
10
148.369
20
-72.4309
11
148.412
21
-72.2574
0
LINE
8
BLACK
6
CONTINUOUS
10
148.412
20
-72.2574
11
148.412
21
-72.133
0
LINE
8
BLACK
6
CONTINUOUS
10
148.412
20
-72.133
11
148.369
21
-71.9595
0
LINE
8
BLACK
6
CONTINUOUS
10
148.369
20
-71.9595
11
148.33
21
-71.8825
0
LINE
8
BLACK
6
CONTINUOUS
10
148.33
20
-71.8825
11
148.256
21
-71.8084
0
LINE
8
BLACK
6
CONTINUOUS
10
148.256
20
-71.8084
11
148.141
21
-71.7702
0
LINE
8
BLACK
6
CONTINUOUS
10
148.141
20
-71.7702
11
147.991
21
-71.7702
0
LINE
8
BLACK
6
CONTINUOUS
10
149.142
20
-71.5816
11
149.176
21
-71.62
0
LINE
8
BLACK
6
CONTINUOUS
10
149.176
20
-71.62
11
149.177
21
-71.6713
0
LINE
8
BLACK
6
CONTINUOUS
10
149.177
20
-71.6713
11
148.972
21
-72.2868
0
LINE
8
BLACK
6
CONTINUOUS
10
148.972
20
-72.2868
11
149.269
21
-72.2868
0
LINE
8
BLACK
6
CONTINUOUS
10
149.269
20
-72.2868
11
149.269
21
-72.0285
0
LINE
8
BLACK
6
CONTINUOUS
10
149.269
20
-72.0285
11
149.274
21
-72.0029
0
LINE
8
BLACK
6
CONTINUOUS
10
149.274
20
-72.0029
11
149.307
21
-71.9636
0
LINE
8
BLACK
6
CONTINUOUS
10
149.307
20
-71.9636
11
149.357
21
-71.9547
0
LINE
8
BLACK
6
CONTINUOUS
10
149.357
20
-71.9547
11
149.402
21
-71.9803
0
LINE
8
BLACK
6
CONTINUOUS
10
149.402
20
-71.9803
11
149.419
21
-72.0285
0
LINE
8
BLACK
6
CONTINUOUS
10
149.419
20
-72.0285
11
149.419
21
-72.2868
0
LINE
8
BLACK
6
CONTINUOUS
10
149.419
20
-72.2868
11
149.487
21
-72.2868
0
LINE
8
BLACK
6
CONTINUOUS
10
149.487
20
-72.2868
11
149.513
21
-72.2914
0
LINE
8
BLACK
6
CONTINUOUS
10
149.513
20
-72.2914
11
149.552
21
-72.3243
0
LINE
8
BLACK
6
CONTINUOUS
10
149.552
20
-72.3243
11
149.561
21
-72.3749
0
LINE
8
BLACK
6
CONTINUOUS
10
149.561
20
-72.3749
11
149.535
21
-72.4193
0
LINE
8
BLACK
6
CONTINUOUS
10
149.535
20
-72.4193
11
149.487
21
-72.4368
0
LINE
8
BLACK
6
CONTINUOUS
10
149.487
20
-72.4368
11
149.419
21
-72.4368
0
LINE
8
BLACK
6
CONTINUOUS
10
149.419
20
-72.4368
11
149.419
21
-72.6952
0
LINE
8
BLACK
6
CONTINUOUS
10
149.419
20
-72.6952
11
149.415
21
-72.7208
0
LINE
8
BLACK
6
CONTINUOUS
10
149.415
20
-72.7208
11
149.382
21
-72.7601
0
LINE
8
BLACK
6
CONTINUOUS
10
149.382
20
-72.7601
11
149.331
21
-72.769
0
LINE
8
BLACK
6
CONTINUOUS
10
149.331
20
-72.769
11
149.287
21
-72.7434
0
LINE
8
BLACK
6
CONTINUOUS
10
149.287
20
-72.7434
11
149.269
21
-72.6952
0
LINE
8
BLACK
6
CONTINUOUS
10
149.269
20
-72.6952
11
149.269
21
-72.4368
0
LINE
8
BLACK
6
CONTINUOUS
10
149.269
20
-72.4368
11
148.868
21
-72.4368
0
LINE
8
BLACK
6
CONTINUOUS
10
148.868
20
-72.4368
11
148.842
21
-72.4323
0
LINE
8
BLACK
6
CONTINUOUS
10
148.842
20
-72.4323
11
148.838
21
-72.4286
0
LINE
8
BLACK
6
CONTINUOUS
10
148.838
20
-72.4286
11
148.832
21
-72.4278
0
LINE
8
BLACK
6
CONTINUOUS
10
148.832
20
-72.4278
11
148.819
21
-72.4125
0
LINE
8
BLACK
6
CONTINUOUS
10
148.819
20
-72.4125
11
148.803
21
-72.3993
0
LINE
8
BLACK
6
CONTINUOUS
10
148.803
20
-72.3993
11
148.802
21
-72.3937
0
LINE
8
BLACK
6
CONTINUOUS
10
148.802
20
-72.3937
11
148.798
21
-72.3894
0
LINE
8
BLACK
6
CONTINUOUS
10
148.798
20
-72.3894
11
148.798
21
-72.369
0
LINE
8
BLACK
6
CONTINUOUS
10
148.798
20
-72.369
11
148.794
21
-72.3488
0
LINE
8
BLACK
6
CONTINUOUS
10
148.794
20
-72.3488
11
148.797
21
-72.3439
0
LINE
8
BLACK
6
CONTINUOUS
10
148.797
20
-72.3439
11
148.797
21
-72.3381
0
LINE
8
BLACK
6
CONTINUOUS
10
148.797
20
-72.3381
11
149.035
21
-71.6238
0
LINE
8
BLACK
6
CONTINUOUS
10
149.035
20
-71.6238
11
149.047
21
-71.6009
0
LINE
8
BLACK
6
CONTINUOUS
10
149.047
20
-71.6009
11
149.091
21
-71.5741
0
LINE
8
BLACK
6
CONTINUOUS
10
149.091
20
-71.5741
11
149.142
21
-71.5816
0
LINE
8
BLACK
6
CONTINUOUS
10
199.868
20
-67.8147
11
199.871
21
-67.8176
0
LINE
8
BLACK
6
CONTINUOUS
10
199.871
20
-67.8176
11
199.876
21
-67.8181
0
LINE
8
BLACK
6
CONTINUOUS
10
199.876
20
-67.8181
11
199.971
21
-67.8657
0
LINE
8
BLACK
6
CONTINUOUS
10
199.971
20
-67.8657
11
199.989
21
-67.8791
0
LINE
8
BLACK
6
CONTINUOUS
10
199.989
20
-67.8791
11
199.99
21
-67.8798
0
LINE
8
BLACK
6
CONTINUOUS
10
199.99
20
-67.8798
11
200.038
21
-67.9274
0
LINE
8
BLACK
6
CONTINUOUS
10
200.038
20
-67.9274
11
200.051
21
-67.9458
0
LINE
8
BLACK
6
CONTINUOUS
10
200.051
20
-67.9458
11
200.052
21
-67.9469
0
LINE
8
BLACK
6
CONTINUOUS
10
200.052
20
-67.9469
11
200.1
21
-68.0421
0
LINE
8
BLACK
6
CONTINUOUS
10
200.1
20
-68.0421
11
200.107
21
-68.0671
0
LINE
8
BLACK
6
CONTINUOUS
10
200.107
20
-68.0671
11
200.106
21
-68.0714
0
LINE
8
BLACK
6
CONTINUOUS
10
200.106
20
-68.0714
11
200.108
21
-68.0757
0
LINE
8
BLACK
6
CONTINUOUS
10
200.108
20
-68.0757
11
200.108
21
-68.1709
0
LINE
8
BLACK
6
CONTINUOUS
10
200.108
20
-68.1709
11
200.104
21
-68.193
0
LINE
8
BLACK
6
CONTINUOUS
10
200.104
20
-68.193
11
200.104
21
-68.1946
0
LINE
8
BLACK
6
CONTINUOUS
10
200.104
20
-68.1946
11
200.056
21
-68.3375
0
LINE
8
BLACK
6
CONTINUOUS
10
200.056
20
-68.3375
11
200.044
21
-68.3604
0
LINE
8
BLACK
6
CONTINUOUS
10
200.044
20
-68.3604
11
200.04
21
-68.3627
0
LINE
8
BLACK
6
CONTINUOUS
10
200.04
20
-68.3627
11
200.038
21
-68.3668
0
LINE
8
BLACK
6
CONTINUOUS
10
200.038
20
-68.3668
11
199.595
21
-68.8102
0
LINE
8
BLACK
6
CONTINUOUS
10
199.595
20
-68.8102
11
200.033
21
-68.8102
0
LINE
8
BLACK
6
CONTINUOUS
10
200.033
20
-68.8102
11
200.058
21
-68.8147
0
LINE
8
BLACK
6
CONTINUOUS
10
200.058
20
-68.8147
11
200.098
21
-68.8477
0
LINE
8
BLACK
6
CONTINUOUS
10
200.098
20
-68.8477
11
200.107
21
-68.8982
0
LINE
8
BLACK
6
CONTINUOUS
10
200.107
20
-68.8982
11
200.081
21
-68.9426
0
LINE
8
BLACK
6
CONTINUOUS
10
200.081
20
-68.9426
11
200.033
21
-68.9602
0
LINE
8
BLACK
6
CONTINUOUS
10
200.033
20
-68.9602
11
199.414
21
-68.9602
0
LINE
8
BLACK
6
CONTINUOUS
10
199.414
20
-68.9602
11
199.397
21
-68.9573
0
LINE
8
BLACK
6
CONTINUOUS
10
199.397
20
-68.9573
11
199.394
21
-68.9576
0
LINE
8
BLACK
6
CONTINUOUS
10
199.394
20
-68.9576
11
199.393
21
-68.9565
0
LINE
8
BLACK
6
CONTINUOUS
10
199.393
20
-68.9565
11
199.388
21
-68.9557
0
LINE
8
BLACK
6
CONTINUOUS
10
199.388
20
-68.9557
11
199.371
21
-68.9411
0
LINE
8
BLACK
6
CONTINUOUS
10
199.371
20
-68.9411
11
199.352
21
-68.9282
0
LINE
8
BLACK
6
CONTINUOUS
10
199.352
20
-68.9282
11
199.351
21
-68.9249
0
LINE
8
BLACK
6
CONTINUOUS
10
199.351
20
-68.9249
11
199.349
21
-68.9227
0
LINE
8
BLACK
6
CONTINUOUS
10
199.349
20
-68.9227
11
199.345
21
-68.9004
0
LINE
8
BLACK
6
CONTINUOUS
10
199.345
20
-68.9004
11
199.339
21
-68.8786
0
LINE
8
BLACK
6
CONTINUOUS
10
199.339
20
-68.8786
11
199.34
21
-68.8755
0
LINE
8
BLACK
6
CONTINUOUS
10
199.34
20
-68.8755
11
199.34
21
-68.8722
0
LINE
8
BLACK
6
CONTINUOUS
10
199.34
20
-68.8722
11
199.351
21
-68.8526
0
LINE
8
BLACK
6
CONTINUOUS
10
199.351
20
-68.8526
11
199.361
21
-68.8321
0
LINE
8
BLACK
6
CONTINUOUS
10
199.361
20
-68.8321
11
199.919
21
-68.2732
0
LINE
8
BLACK
6
CONTINUOUS
10
199.919
20
-68.2732
11
199.958
21
-68.1587
0
LINE
8
BLACK
6
CONTINUOUS
10
199.958
20
-68.1587
11
199.958
21
-68.0934
0
LINE
8
BLACK
6
CONTINUOUS
10
199.958
20
-68.0934
11
199.923
21
-68.0248
0
LINE
8
BLACK
6
CONTINUOUS
10
199.923
20
-68.0248
11
199.893
21
-67.9944
0
LINE
8
BLACK
6
CONTINUOUS
10
199.893
20
-67.9944
11
199.824
21
-67.9602
0
LINE
8
BLACK
6
CONTINUOUS
10
199.824
20
-67.9602
11
199.622
21
-67.9602
0
LINE
8
BLACK
6
CONTINUOUS
10
199.622
20
-67.9602
11
199.553
21
-67.9944
0
LINE
8
BLACK
6
CONTINUOUS
10
199.553
20
-67.9944
11
199.514
21
-68.0335
0
LINE
8
BLACK
6
CONTINUOUS
10
199.514
20
-68.0335
11
199.493
21
-68.0484
0
LINE
8
BLACK
6
CONTINUOUS
10
199.493
20
-68.0484
11
199.442
21
-68.0529
0
LINE
8
BLACK
6
CONTINUOUS
10
199.442
20
-68.0529
11
199.4
21
-68.0234
0
LINE
8
BLACK
6
CONTINUOUS
10
199.4
20
-68.0234
11
199.387
21
-67.9739
0
LINE
8
BLACK
6
CONTINUOUS
10
199.387
20
-67.9739
11
199.408
21
-67.9274
0
LINE
8
BLACK
6
CONTINUOUS
10
199.408
20
-67.9274
11
199.456
21
-67.8798
0
LINE
8
BLACK
6
CONTINUOUS
10
199.456
20
-67.8798
11
199.474
21
-67.8669
0
LINE
8
BLACK
6
CONTINUOUS
10
199.474
20
-67.8669
11
199.475
21
-67.8657
0
LINE
8
BLACK
6
CONTINUOUS
10
199.475
20
-67.8657
11
199.571
21
-67.8181
0
LINE
8
BLACK
6
CONTINUOUS
10
199.571
20
-67.8181
11
199.596
21
-67.8107
0
LINE
8
BLACK
6
CONTINUOUS
10
199.596
20
-67.8107
11
199.6
21
-67.8117
0
LINE
8
BLACK
6
CONTINUOUS
10
199.6
20
-67.8117
11
199.604
21
-67.8102
0
LINE
8
BLACK
6
CONTINUOUS
10
199.604
20
-67.8102
11
199.842
21
-67.8102
0
LINE
8
BLACK
6
CONTINUOUS
10
199.842
20
-67.8102
11
199.868
21
-67.8147
0
LINE
8
BLACK
6
CONTINUOUS
10
197.851
20
-67.8121
11
197.855
21
-67.8113
0
LINE
8
BLACK
6
CONTINUOUS
10
197.855
20
-67.8113
11
197.874
21
-67.8222
0
LINE
8
BLACK
6
CONTINUOUS
10
197.874
20
-67.8222
11
197.894
21
-67.8309
0
LINE
8
BLACK
6
CONTINUOUS
10
197.894
20
-67.8309
11
197.896
21
-67.8348
0
LINE
8
BLACK
6
CONTINUOUS
10
197.896
20
-67.8348
11
197.9
21
-67.837
0
LINE
8
BLACK
6
CONTINUOUS
10
197.9
20
-67.837
11
197.907
21
-67.8574
0
LINE
8
BLACK
6
CONTINUOUS
10
197.907
20
-67.8574
11
197.917
21
-67.8769
0
LINE
8
BLACK
6
CONTINUOUS
10
197.917
20
-67.8769
11
197.916
21
-67.8811
0
LINE
8
BLACK
6
CONTINUOUS
10
197.916
20
-67.8811
11
197.917
21
-67.8852
0
LINE
8
BLACK
6
CONTINUOUS
10
197.917
20
-67.8852
11
197.917
21
-68.8102
0
LINE
8
BLACK
6
CONTINUOUS
10
197.917
20
-68.8102
11
198.128
21
-68.8102
0
LINE
8
BLACK
6
CONTINUOUS
10
198.128
20
-68.8102
11
198.154
21
-68.8147
0
LINE
8
BLACK
6
CONTINUOUS
10
198.154
20
-68.8147
11
198.193
21
-68.8477
0
LINE
8
BLACK
6
CONTINUOUS
10
198.193
20
-68.8477
11
198.202
21
-68.8982
0
LINE
8
BLACK
6
CONTINUOUS
10
198.202
20
-68.8982
11
198.176
21
-68.9426
0
LINE
8
BLACK
6
CONTINUOUS
10
198.176
20
-68.9426
11
198.128
21
-68.9602
0
LINE
8
BLACK
6
CONTINUOUS
10
198.128
20
-68.9602
11
197.556
21
-68.9602
0
LINE
8
BLACK
6
CONTINUOUS
10
197.556
20
-68.9602
11
197.531
21
-68.9557
0
LINE
8
BLACK
6
CONTINUOUS
10
197.531
20
-68.9557
11
197.492
21
-68.9227
0
LINE
8
BLACK
6
CONTINUOUS
10
197.492
20
-68.9227
11
197.483
21
-68.8722
0
LINE
8
BLACK
6
CONTINUOUS
10
197.483
20
-68.8722
11
197.508
21
-68.8277
0
LINE
8
BLACK
6
CONTINUOUS
10
197.508
20
-68.8277
11
197.556
21
-68.8102
0
LINE
8
BLACK
6
CONTINUOUS
10
197.556
20
-68.8102
11
197.767
21
-68.8102
0
LINE
8
BLACK
6
CONTINUOUS
10
197.767
20
-68.8102
11
197.767
21
-68.1139
0
LINE
8
BLACK
6
CONTINUOUS
10
197.767
20
-68.1139
11
197.705
21
-68.1763
0
LINE
8
BLACK
6
CONTINUOUS
10
197.705
20
-68.1763
11
197.686
21
-68.1892
0
LINE
8
BLACK
6
CONTINUOUS
10
197.686
20
-68.1892
11
197.685
21
-68.1904
0
LINE
8
BLACK
6
CONTINUOUS
10
197.685
20
-68.1904
11
197.59
21
-68.238
0
LINE
8
BLACK
6
CONTINUOUS
10
197.59
20
-68.238
11
197.565
21
-68.2454
0
LINE
8
BLACK
6
CONTINUOUS
10
197.565
20
-68.2454
11
197.515
21
-68.2335
0
LINE
8
BLACK
6
CONTINUOUS
10
197.515
20
-68.2335
11
197.485
21
-68.1923
0
LINE
8
BLACK
6
CONTINUOUS
10
197.485
20
-68.1923
11
197.488
21
-68.1411
0
LINE
8
BLACK
6
CONTINUOUS
10
197.488
20
-68.1411
11
197.523
21
-68.1038
0
LINE
8
BLACK
6
CONTINUOUS
10
197.523
20
-68.1038
11
197.607
21
-68.0616
0
LINE
8
BLACK
6
CONTINUOUS
10
197.607
20
-68.0616
11
197.689
21
-67.9803
0
LINE
8
BLACK
6
CONTINUOUS
10
197.689
20
-67.9803
11
197.78
21
-67.8436
0
LINE
8
BLACK
6
CONTINUOUS
10
197.78
20
-67.8436
11
197.798
21
-67.8247
0
LINE
8
BLACK
6
CONTINUOUS
10
197.798
20
-67.8247
11
197.802
21
-67.8235
0
LINE
8
BLACK
6
CONTINUOUS
10
197.802
20
-67.8235
11
197.805
21
-67.8202
0
LINE
8
BLACK
6
CONTINUOUS
10
197.805
20
-67.8202
11
197.826
21
-67.8164
0
LINE
8
BLACK
6
CONTINUOUS
10
197.826
20
-67.8164
11
197.847
21
-67.8103
0
LINE
8
BLACK
6
CONTINUOUS
10
197.847
20
-67.8103
11
197.851
21
-67.8121
0
LINE
8
BLACK
6
CONTINUOUS
10
198.868
20
-67.8147
11
198.871
21
-67.8176
0
LINE
8
BLACK
6
CONTINUOUS
10
198.871
20
-67.8176
11
198.876
21
-67.8181
0
LINE
8
BLACK
6
CONTINUOUS
10
198.876
20
-67.8181
11
198.971
21
-67.8657
0
LINE
8
BLACK
6
CONTINUOUS
10
198.971
20
-67.8657
11
198.989
21
-67.8791
0
LINE
8
BLACK
6
CONTINUOUS
10
198.989
20
-67.8791
11
198.99
21
-67.8798
0
LINE
8
BLACK
6
CONTINUOUS
10
198.99
20
-67.8798
11
199.038
21
-67.9274
0
LINE
8
BLACK
6
CONTINUOUS
10
199.038
20
-67.9274
11
199.051
21
-67.9458
0
LINE
8
BLACK
6
CONTINUOUS
10
199.051
20
-67.9458
11
199.052
21
-67.9469
0
LINE
8
BLACK
6
CONTINUOUS
10
199.052
20
-67.9469
11
199.1
21
-68.0421
0
LINE
8
BLACK
6
CONTINUOUS
10
199.1
20
-68.0421
11
199.103
21
-68.0545
0
LINE
8
BLACK
6
CONTINUOUS
10
199.103
20
-68.0545
11
199.105
21
-68.0575
0
LINE
8
BLACK
6
CONTINUOUS
10
199.105
20
-68.0575
11
199.153
21
-68.2479
0
LINE
8
BLACK
6
CONTINUOUS
10
199.153
20
-68.2479
11
199.154
21
-68.2629
0
LINE
8
BLACK
6
CONTINUOUS
10
199.154
20
-68.2629
11
199.155
21
-68.2661
0
LINE
8
BLACK
6
CONTINUOUS
10
199.155
20
-68.2661
11
199.155
21
-68.5042
0
LINE
8
BLACK
6
CONTINUOUS
10
199.155
20
-68.5042
11
199.153
21
-68.519
0
LINE
8
BLACK
6
CONTINUOUS
10
199.153
20
-68.519
11
199.153
21
-68.5224
0
LINE
8
BLACK
6
CONTINUOUS
10
199.153
20
-68.5224
11
199.105
21
-68.7129
0
LINE
8
BLACK
6
CONTINUOUS
10
199.105
20
-68.7129
11
199.1
21
-68.7247
0
LINE
8
BLACK
6
CONTINUOUS
10
199.1
20
-68.7247
11
199.1
21
-68.7282
0
LINE
8
BLACK
6
CONTINUOUS
10
199.1
20
-68.7282
11
199.052
21
-68.8235
0
LINE
8
BLACK
6
CONTINUOUS
10
199.052
20
-68.8235
11
199.039
21
-68.8415
0
LINE
8
BLACK
6
CONTINUOUS
10
199.039
20
-68.8415
11
199.038
21
-68.843
0
LINE
8
BLACK
6
CONTINUOUS
10
199.038
20
-68.843
11
198.99
21
-68.8906
0
LINE
8
BLACK
6
CONTINUOUS
10
198.99
20
-68.8906
11
198.972
21
-68.9035
0
LINE
8
BLACK
6
CONTINUOUS
10
198.972
20
-68.9035
11
198.971
21
-68.9046
0
LINE
8
BLACK
6
CONTINUOUS
10
198.971
20
-68.9046
11
198.876
21
-68.9523
0
LINE
8
BLACK
6
CONTINUOUS
10
198.876
20
-68.9523
11
198.851
21
-68.9597
0
LINE
8
BLACK
6
CONTINUOUS
10
198.851
20
-68.9597
11
198.846
21
-68.9586
0
LINE
8
BLACK
6
CONTINUOUS
10
198.846
20
-68.9586
11
198.842
21
-68.9602
0
LINE
8
BLACK
6
CONTINUOUS
10
198.842
20
-68.9602
11
198.747
21
-68.9602
0
LINE
8
BLACK
6
CONTINUOUS
10
198.747
20
-68.9602
11
198.721
21
-68.9557
0
LINE
8
BLACK
6
CONTINUOUS
10
198.721
20
-68.9557
11
198.718
21
-68.9528
0
LINE
8
BLACK
6
CONTINUOUS
10
198.718
20
-68.9528
11
198.713
21
-68.9523
0
LINE
8
BLACK
6
CONTINUOUS
10
198.713
20
-68.9523
11
198.618
21
-68.9046
0
LINE
8
BLACK
6
CONTINUOUS
10
198.618
20
-68.9046
11
198.6
21
-68.8913
0
LINE
8
BLACK
6
CONTINUOUS
10
198.6
20
-68.8913
11
198.599
21
-68.8906
0
LINE
8
BLACK
6
CONTINUOUS
10
198.599
20
-68.8906
11
198.551
21
-68.843
0
LINE
8
BLACK
6
CONTINUOUS
10
198.551
20
-68.843
11
198.538
21
-68.8246
0
LINE
8
BLACK
6
CONTINUOUS
10
198.538
20
-68.8246
11
198.537
21
-68.8235
0
LINE
8
BLACK
6
CONTINUOUS
10
198.537
20
-68.8235
11
198.489
21
-68.7282
0
LINE
8
BLACK
6
CONTINUOUS
10
198.489
20
-68.7282
11
198.486
21
-68.7158
0
LINE
8
BLACK
6
CONTINUOUS
10
198.486
20
-68.7158
11
198.484
21
-68.7129
0
LINE
8
BLACK
6
CONTINUOUS
10
198.484
20
-68.7129
11
198.436
21
-68.5224
0
LINE
8
BLACK
6
CONTINUOUS
10
198.436
20
-68.5224
11
198.435
21
-68.5075
0
LINE
8
BLACK
6
CONTINUOUS
10
198.435
20
-68.5075
11
198.434
21
-68.5042
0
LINE
8
BLACK
6
CONTINUOUS
10
198.434
20
-68.5042
11
198.434
21
-68.2661
0
LINE
8
BLACK
6
CONTINUOUS
10
198.434
20
-68.2661
11
198.436
21
-68.2514
0
LINE
8
BLACK
6
CONTINUOUS
10
198.436
20
-68.2514
11
198.436
21
-68.2479
0
LINE
8
BLACK
6
CONTINUOUS
10
198.436
20
-68.2479
11
198.484
21
-68.0575
0
LINE
8
BLACK
6
CONTINUOUS
10
198.484
20
-68.0575
11
198.489
21
-68.0456
0
LINE
8
BLACK
6
CONTINUOUS
10
198.489
20
-68.0456
11
198.489
21
-68.0421
0
LINE
8
BLACK
6
CONTINUOUS
10
198.489
20
-68.0421
11
198.537
21
-67.9469
0
LINE
8
BLACK
6
CONTINUOUS
10
198.537
20
-67.9469
11
198.55
21
-67.9289
0
LINE
8
BLACK
6
CONTINUOUS
10
198.55
20
-67.9289
11
198.551
21
-67.9274
0
LINE
8
BLACK
6
CONTINUOUS
10
198.551
20
-67.9274
11
198.599
21
-67.8798
0
LINE
8
BLACK
6
CONTINUOUS
10
198.599
20
-67.8798
11
198.617
21
-67.8669
0
LINE
8
BLACK
6
CONTINUOUS
10
198.617
20
-67.8669
11
198.618
21
-67.8657
0
LINE
8
BLACK
6
CONTINUOUS
10
198.618
20
-67.8657
11
198.713
21
-67.8181
0
LINE
8
BLACK
6
CONTINUOUS
10
198.713
20
-67.8181
11
198.738
21
-67.8107
0
LINE
8
BLACK
6
CONTINUOUS
10
198.738
20
-67.8107
11
198.743
21
-67.8117
0
LINE
8
BLACK
6
CONTINUOUS
10
198.743
20
-67.8117
11
198.747
21
-67.8102
0
LINE
8
BLACK
6
CONTINUOUS
10
198.747
20
-67.8102
11
198.842
21
-67.8102
0
LINE
8
BLACK
6
CONTINUOUS
10
198.842
20
-67.8102
11
198.868
21
-67.8147
0
LINE
8
BLACK
6
CONTINUOUS
10
198.765
20
-67.9602
11
198.696
21
-67.9944
0
LINE
8
BLACK
6
CONTINUOUS
10
198.696
20
-67.9944
11
198.666
21
-68.0248
0
LINE
8
BLACK
6
CONTINUOUS
10
198.666
20
-68.0248
11
198.627
21
-68.1018
0
LINE
8
BLACK
6
CONTINUOUS
10
198.627
20
-68.1018
11
198.584
21
-68.2754
0
LINE
8
BLACK
6
CONTINUOUS
10
198.584
20
-68.2754
11
198.584
21
-68.495
0
LINE
8
BLACK
6
CONTINUOUS
10
198.584
20
-68.495
11
198.627
21
-68.6685
0
LINE
8
BLACK
6
CONTINUOUS
10
198.627
20
-68.6685
11
198.666
21
-68.7455
0
LINE
8
BLACK
6
CONTINUOUS
10
198.666
20
-68.7455
11
198.696
21
-68.7759
0
LINE
8
BLACK
6
CONTINUOUS
10
198.696
20
-68.7759
11
198.765
21
-68.8102
0
LINE
8
BLACK
6
CONTINUOUS
10
198.765
20
-68.8102
11
198.824
21
-68.8102
0
LINE
8
BLACK
6
CONTINUOUS
10
198.824
20
-68.8102
11
198.893
21
-68.7759
0
LINE
8
BLACK
6
CONTINUOUS
10
198.893
20
-68.7759
11
198.923
21
-68.7455
0
LINE
8
BLACK
6
CONTINUOUS
10
198.923
20
-68.7455
11
198.962
21
-68.6685
0
LINE
8
BLACK
6
CONTINUOUS
10
198.962
20
-68.6685
11
199.005
21
-68.495
0
LINE
8
BLACK
6
CONTINUOUS
10
199.005
20
-68.495
11
199.005
21
-68.2754
0
LINE
8
BLACK
6
CONTINUOUS
10
199.005
20
-68.2754
11
198.962
21
-68.1018
0
LINE
8
BLACK
6
CONTINUOUS
10
198.962
20
-68.1018
11
198.923
21
-68.0248
0
LINE
8
BLACK
6
CONTINUOUS
10
198.923
20
-68.0248
11
198.893
21
-67.9944
0
LINE
8
BLACK
6
CONTINUOUS
10
198.893
20
-67.9944
11
198.824
21
-67.9602
0
LINE
8
BLACK
6
CONTINUOUS
10
198.824
20
-67.9602
11
198.765
21
-67.9602
0
LINE
8
BLACK
6
CONTINUOUS
10
196.643
20
-67.8213
11
196.675
21
-67.8615
0
LINE
8
BLACK
6
CONTINUOUS
10
196.675
20
-67.8615
11
196.937
21
-68.648
0
LINE
8
BLACK
6
CONTINUOUS
10
196.937
20
-68.648
11
197.2
21
-67.8615
0
LINE
8
BLACK
6
CONTINUOUS
10
197.2
20
-67.8615
11
197.212
21
-67.8386
0
LINE
8
BLACK
6
CONTINUOUS
10
197.212
20
-67.8386
11
197.256
21
-67.8117
0
LINE
8
BLACK
6
CONTINUOUS
10
197.256
20
-67.8117
11
197.306
21
-67.8192
0
LINE
8
BLACK
6
CONTINUOUS
10
197.306
20
-67.8192
11
197.341
21
-67.8576
0
LINE
8
BLACK
6
CONTINUOUS
10
197.341
20
-67.8576
11
197.342
21
-67.9089
0
LINE
8
BLACK
6
CONTINUOUS
10
197.342
20
-67.9089
11
197.009
21
-68.9089
0
LINE
8
BLACK
6
CONTINUOUS
10
197.009
20
-68.9089
11
196.996
21
-68.9318
0
LINE
8
BLACK
6
CONTINUOUS
10
196.996
20
-68.9318
11
196.994
21
-68.9329
0
LINE
8
BLACK
6
CONTINUOUS
10
196.994
20
-68.9329
11
196.994
21
-68.9349
0
LINE
8
BLACK
6
CONTINUOUS
10
196.994
20
-68.9349
11
196.973
21
-68.9462
0
LINE
8
BLACK
6
CONTINUOUS
10
196.973
20
-68.9462
11
196.952
21
-68.9587
0
LINE
8
BLACK
6
CONTINUOUS
10
196.952
20
-68.9587
11
196.95
21
-68.9583
0
LINE
8
BLACK
6
CONTINUOUS
10
196.95
20
-68.9583
11
196.948
21
-68.9594
0
LINE
8
BLACK
6
CONTINUOUS
10
196.948
20
-68.9594
11
196.925
21
-68.9546
0
LINE
8
BLACK
6
CONTINUOUS
10
196.925
20
-68.9546
11
196.902
21
-68.9511
0
LINE
8
BLACK
6
CONTINUOUS
10
196.902
20
-68.9511
11
196.9
21
-68.9495
0
LINE
8
BLACK
6
CONTINUOUS
10
196.9
20
-68.9495
11
196.898
21
-68.9491
0
LINE
8
BLACK
6
CONTINUOUS
10
196.898
20
-68.9491
11
196.883
21
-68.9305
0
LINE
8
BLACK
6
CONTINUOUS
10
196.883
20
-68.9305
11
196.868
21
-68.9127
0
LINE
8
BLACK
6
CONTINUOUS
10
196.868
20
-68.9127
11
196.868
21
-68.9106
0
LINE
8
BLACK
6
CONTINUOUS
10
196.868
20
-68.9106
11
196.866
21
-68.9089
0
LINE
8
BLACK
6
CONTINUOUS
10
196.866
20
-68.9089
11
196.533
21
-67.9089
0
LINE
8
BLACK
6
CONTINUOUS
10
196.533
20
-67.9089
11
196.529
21
-67.8831
0
LINE
8
BLACK
6
CONTINUOUS
10
196.529
20
-67.8831
11
196.548
21
-67.8354
0
LINE
8
BLACK
6
CONTINUOUS
10
196.548
20
-67.8354
11
196.593
21
-67.811
0
LINE
8
BLACK
6
CONTINUOUS
10
196.593
20
-67.811
11
196.643
21
-67.8213
0
LINE
8
BLACK
6
CONTINUOUS
10
196.154
20
-67.8147
11
196.157
21
-67.8176
0
LINE
8
BLACK
6
CONTINUOUS
10
196.157
20
-67.8176
11
196.161
21
-67.8181
0
LINE
8
BLACK
6
CONTINUOUS
10
196.161
20
-67.8181
11
196.257
21
-67.8657
0
LINE
8
BLACK
6
CONTINUOUS
10
196.257
20
-67.8657
11
196.275
21
-67.8791
0
LINE
8
BLACK
6
CONTINUOUS
10
196.275
20
-67.8791
11
196.276
21
-67.8798
0
LINE
8
BLACK
6
CONTINUOUS
10
196.276
20
-67.8798
11
196.324
21
-67.9274
0
LINE
8
BLACK
6
CONTINUOUS
10
196.324
20
-67.9274
11
196.337
21
-67.9458
0
LINE
8
BLACK
6
CONTINUOUS
10
196.337
20
-67.9458
11
196.338
21
-67.9469
0
LINE
8
BLACK
6
CONTINUOUS
10
196.338
20
-67.9469
11
196.385
21
-68.0421
0
LINE
8
BLACK
6
CONTINUOUS
10
196.385
20
-68.0421
11
196.393
21
-68.0671
0
LINE
8
BLACK
6
CONTINUOUS
10
196.393
20
-68.0671
11
196.392
21
-68.0714
0
LINE
8
BLACK
6
CONTINUOUS
10
196.392
20
-68.0714
11
196.393
21
-68.0757
0
LINE
8
BLACK
6
CONTINUOUS
10
196.393
20
-68.0757
11
196.393
21
-68.2185
0
LINE
8
BLACK
6
CONTINUOUS
10
196.393
20
-68.2185
11
196.389
21
-68.2442
0
LINE
8
BLACK
6
CONTINUOUS
10
196.389
20
-68.2442
11
196.386
21
-68.2476
0
LINE
8
BLACK
6
CONTINUOUS
10
196.386
20
-68.2476
11
196.385
21
-68.2521
0
LINE
8
BLACK
6
CONTINUOUS
10
196.385
20
-68.2521
11
196.338
21
-68.3473
0
LINE
8
BLACK
6
CONTINUOUS
10
196.338
20
-68.3473
11
196.324
21
-68.3653
0
LINE
8
BLACK
6
CONTINUOUS
10
196.324
20
-68.3653
11
196.324
21
-68.3668
0
LINE
8
BLACK
6
CONTINUOUS
10
196.324
20
-68.3668
11
196.276
21
-68.4144
0
LINE
8
BLACK
6
CONTINUOUS
10
196.276
20
-68.4144
11
196.258
21
-68.4273
0
LINE
8
BLACK
6
CONTINUOUS
10
196.258
20
-68.4273
11
196.257
21
-68.4285
0
LINE
8
BLACK
6
CONTINUOUS
10
196.257
20
-68.4285
11
196.161
21
-68.4761
0
LINE
8
BLACK
6
CONTINUOUS
10
196.161
20
-68.4761
11
196.136
21
-68.4835
0
LINE
8
BLACK
6
CONTINUOUS
10
196.136
20
-68.4835
11
196.132
21
-68.4825
0
LINE
8
BLACK
6
CONTINUOUS
10
196.132
20
-68.4825
11
196.129
21
-68.4836
0
LINE
8
BLACK
6
CONTINUOUS
10
196.129
20
-68.4836
11
196.38
21
-68.8422
0
LINE
8
BLACK
6
CONTINUOUS
10
196.38
20
-68.8422
11
196.391
21
-68.8658
0
LINE
8
BLACK
6
CONTINUOUS
10
196.391
20
-68.8658
11
196.386
21
-68.9169
0
LINE
8
BLACK
6
CONTINUOUS
10
196.386
20
-68.9169
11
196.35
21
-68.9532
0
LINE
8
BLACK
6
CONTINUOUS
10
196.35
20
-68.9532
11
196.299
21
-68.9576
0
LINE
8
BLACK
6
CONTINUOUS
10
196.299
20
-68.9576
11
196.257
21
-68.9282
0
LINE
8
BLACK
6
CONTINUOUS
10
196.257
20
-68.9282
11
195.946
21
-68.484
0
LINE
8
BLACK
6
CONTINUOUS
10
195.946
20
-68.484
11
195.822
21
-68.484
0
LINE
8
BLACK
6
CONTINUOUS
10
195.822
20
-68.484
11
195.822
21
-68.8852
0
LINE
8
BLACK
6
CONTINUOUS
10
195.822
20
-68.8852
11
195.817
21
-68.9108
0
LINE
8
BLACK
6
CONTINUOUS
10
195.817
20
-68.9108
11
195.784
21
-68.9501
0
LINE
8
BLACK
6
CONTINUOUS
10
195.784
20
-68.9501
11
195.734
21
-68.959
0
LINE
8
BLACK
6
CONTINUOUS
10
195.734
20
-68.959
11
195.689
21
-68.9334
0
LINE
8
BLACK
6
CONTINUOUS
10
195.689
20
-68.9334
11
195.672
21
-68.8852
0
LINE
8
BLACK
6
CONTINUOUS
10
195.672
20
-68.8852
11
195.672
21
-67.8852
0
LINE
8
BLACK
6
CONTINUOUS
10
195.672
20
-67.8852
11
195.674
21
-67.8754
0
LINE
8
BLACK
6
CONTINUOUS
10
195.674
20
-67.8754
11
195.673
21
-67.8722
0
LINE
8
BLACK
6
CONTINUOUS
10
195.673
20
-67.8722
11
195.675
21
-67.8693
0
LINE
8
BLACK
6
CONTINUOUS
10
195.675
20
-67.8693
11
195.676
21
-67.8595
0
LINE
8
BLACK
6
CONTINUOUS
10
195.676
20
-67.8595
11
195.689
21
-67.8446
0
LINE
8
BLACK
6
CONTINUOUS
10
195.689
20
-67.8446
11
195.699
21
-67.8277
0
LINE
8
BLACK
6
CONTINUOUS
10
195.699
20
-67.8277
11
195.705
21
-67.8254
0
LINE
8
BLACK
6
CONTINUOUS
10
195.705
20
-67.8254
11
195.709
21
-67.8202
0
LINE
8
BLACK
6
CONTINUOUS
10
195.709
20
-67.8202
11
195.729
21
-67.8168
0
LINE
8
BLACK
6
CONTINUOUS
10
195.729
20
-67.8168
11
195.747
21
-67.8102
0
LINE
8
BLACK
6
CONTINUOUS
10
195.747
20
-67.8102
11
196.128
21
-67.8102
0
LINE
8
BLACK
6
CONTINUOUS
10
196.128
20
-67.8102
11
196.154
21
-67.8147
0
LINE
8
BLACK
6
CONTINUOUS
10
195.822
20
-67.9602
11
195.822
21
-68.334
0
LINE
8
BLACK
6
CONTINUOUS
10
195.822
20
-68.334
11
196.11
21
-68.334
0
LINE
8
BLACK
6
CONTINUOUS
10
196.11
20
-68.334
11
196.179
21
-68.2997
0
LINE
8
BLACK
6
CONTINUOUS
10
196.179
20
-68.2997
11
196.209
21
-68.2693
0
LINE
8
BLACK
6
CONTINUOUS
10
196.209
20
-68.2693
11
196.243
21
-68.2008
0
LINE
8
BLACK
6
CONTINUOUS
10
196.243
20
-68.2008
11
196.243
21
-68.0934
0
LINE
8
BLACK
6
CONTINUOUS
10
196.243
20
-68.0934
11
196.209
21
-68.0248
0
LINE
8
BLACK
6
CONTINUOUS
10
196.209
20
-68.0248
11
196.179
21
-67.9944
0
LINE
8
BLACK
6
CONTINUOUS
10
196.179
20
-67.9944
11
196.11
21
-67.9602
0
LINE
8
BLACK
6
CONTINUOUS
10
196.11
20
-67.9602
11
195.822
21
-67.9602
0
LINE
8
BLACK
6
CONTINUOUS
10
180.898
20
-119.744
11
180.958
21
-119.034
0
LINE
8
BLACK
6
CONTINUOUS
10
180.958
20
-119.034
11
181.057
21
-118.327
0
LINE
8
BLACK
6
CONTINUOUS
10
181.057
20
-118.327
11
181.193
21
-117.628
0
LINE
8
BLACK
6
CONTINUOUS
10
181.193
20
-117.628
11
181.368
21
-116.936
0
LINE
8
BLACK
6
CONTINUOUS
10
181.368
20
-116.936
11
181.579
21
-116.255
0
LINE
8
BLACK
6
CONTINUOUS
10
181.579
20
-116.255
11
181.827
21
-115.587
0
LINE
8
BLACK
6
CONTINUOUS
10
181.827
20
-115.587
11
182.111
21
-114.933
0
LINE
8
BLACK
6
CONTINUOUS
10
182.111
20
-114.933
11
182.43
21
-114.295
0
LINE
8
BLACK
6
CONTINUOUS
10
182.43
20
-114.295
11
182.782
21
-113.675
0
LINE
8
BLACK
6
CONTINUOUS
10
182.782
20
-113.675
11
183.168
21
-113.076
0
LINE
8
BLACK
6
CONTINUOUS
10
183.168
20
-113.076
11
183.586
21
-112.498
0
LINE
8
BLACK
6
CONTINUOUS
10
183.586
20
-112.498
11
184.034
21
-111.943
0
LINE
8
BLACK
6
CONTINUOUS
10
184.034
20
-111.943
11
184.511
21
-111.414
0
LINE
8
BLACK
6
CONTINUOUS
10
184.511
20
-111.414
11
185.017
21
-110.911
0
LINE
8
BLACK
6
CONTINUOUS
10
185.017
20
-110.911
11
185.549
21
-110.436
0
LINE
8
BLACK
6
CONTINUOUS
10
185.549
20
-110.436
11
186.106
21
-109.991
0
LINE
8
BLACK
6
CONTINUOUS
10
186.106
20
-109.991
11
186.686
21
-109.576
0
LINE
8
BLACK
6
CONTINUOUS
10
186.686
20
-109.576
11
187.288
21
-109.194
0
LINE
8
BLACK
6
CONTINUOUS
10
187.288
20
-109.194
11
187.909
21
-108.844
0
LINE
8
BLACK
6
CONTINUOUS
10
187.909
20
-108.844
11
188.549
21
-108.529
0
LINE
8
BLACK
6
CONTINUOUS
10
188.549
20
-108.529
11
189.204
21
-108.248
0
LINE
8
BLACK
6
CONTINUOUS
10
189.204
20
-108.248
11
189.874
21
-108.004
0
LINE
8
BLACK
6
CONTINUOUS
10
189.874
20
-108.004
11
190.556
21
-107.796
0
LINE
8
BLACK
6
CONTINUOUS
10
190.556
20
-107.796
11
191.248
21
-107.625
0
LINE
8
BLACK
6
CONTINUOUS
10
191.248
20
-107.625
11
191.949
21
-107.492
0
LINE
8
BLACK
6
CONTINUOUS
10
191.949
20
-107.492
11
192.655
21
-107.397
0
LINE
8
BLACK
6
CONTINUOUS
10
192.655
20
-107.397
11
193.366
21
-107.341
0
LINE
8
BLACK
6
CONTINUOUS
10
193.366
20
-107.341
11
194.079
21
-107.323
0
LINE
8
BLACK
6
CONTINUOUS
10
194.079
20
-107.323
11
194.792
21
-107.343
0
LINE
8
BLACK
6
CONTINUOUS
10
194.792
20
-107.343
11
195.502
21
-107.402
0
LINE
8
BLACK
6
CONTINUOUS
10
195.502
20
-107.402
11
196.209
21
-107.5
0
LINE
8
BLACK
6
CONTINUOUS
10
196.209
20
-107.5
11
196.909
21
-107.635
0
LINE
8
BLACK
6
CONTINUOUS
10
196.909
20
-107.635
11
197.6
21
-107.808
0
LINE
8
BLACK
6
CONTINUOUS
10
197.6
20
-107.808
11
198.282
21
-108.019
0
LINE
8
BLACK
6
CONTINUOUS
10
198.282
20
-108.019
11
198.951
21
-108.265
0
LINE
8
BLACK
6
CONTINUOUS
10
198.951
20
-108.265
11
199.605
21
-108.548
0
LINE
8
BLACK
6
CONTINUOUS
10
199.605
20
-108.548
11
200.244
21
-108.866
0
LINE
8
BLACK
6
CONTINUOUS
10
200.244
20
-108.866
11
200.864
21
-109.217
0
LINE
8
BLACK
6
CONTINUOUS
10
200.864
20
-109.217
11
201.464
21
-109.602
0
LINE
8
BLACK
6
CONTINUOUS
10
201.464
20
-109.602
11
202.043
21
-110.018
0
LINE
8
BLACK
6
CONTINUOUS
10
202.043
20
-110.018
11
202.598
21
-110.466
0
LINE
8
BLACK
6
CONTINUOUS
10
202.598
20
-110.466
11
203.129
21
-110.942
0
LINE
8
BLACK
6
CONTINUOUS
10
203.129
20
-110.942
11
203.632
21
-111.447
0
LINE
8
BLACK
6
CONTINUOUS
10
203.632
20
-111.447
11
204.108
21
-111.978
0
LINE
8
BLACK
6
CONTINUOUS
10
204.108
20
-111.978
11
204.554
21
-112.534
0
LINE
8
BLACK
6
CONTINUOUS
10
204.554
20
-112.534
11
204.97
21
-113.114
0
LINE
8
BLACK
6
CONTINUOUS
10
204.97
20
-113.114
11
205.353
21
-113.715
0
LINE
8
BLACK
6
CONTINUOUS
10
205.353
20
-113.715
11
205.704
21
-114.335
0
LINE
8
BLACK
6
CONTINUOUS
10
205.704
20
-114.335
11
206.021
21
-114.974
0
LINE
8
BLACK
6
CONTINUOUS
10
206.021
20
-114.974
11
206.302
21
-115.63
0
LINE
8
BLACK
6
CONTINUOUS
10
206.302
20
-115.63
11
206.548
21
-116.299
0
LINE
8
BLACK
6
CONTINUOUS
10
206.548
20
-116.299
11
206.757
21
-116.981
0
LINE
8
BLACK
6
CONTINUOUS
10
206.757
20
-116.981
11
206.929
21
-117.673
0
LINE
8
BLACK
6
CONTINUOUS
10
206.929
20
-117.673
11
207.063
21
-118.373
0
LINE
8
BLACK
6
CONTINUOUS
10
207.063
20
-118.373
11
207.159
21
-119.079
0
LINE
8
BLACK
6
CONTINUOUS
10
207.159
20
-119.079
11
207.217
21
-119.79
0
LINE
8
BLACK
6
CONTINUOUS
10
207.217
20
-119.79
11
207.236
21
-120.503
0
LINE
8
BLACK
6
CONTINUOUS
10
207.236
20
-120.503
11
207.236
21
-120.595
0
LINE
8
BLACK
6
CONTINUOUS
10
207.236
20
-120.595
11
207.211
21
-121.307
0
LINE
8
BLACK
6
CONTINUOUS
10
207.211
20
-121.307
11
207.149
21
-122.018
0
LINE
8
BLACK
6
CONTINUOUS
10
207.149
20
-122.018
11
207.048
21
-122.723
0
LINE
8
BLACK
6
CONTINUOUS
10
207.048
20
-122.723
11
206.908
21
-123.423
0
LINE
8
BLACK
6
CONTINUOUS
10
206.908
20
-123.423
11
206.732
21
-124.114
0
LINE
8
BLACK
6
CONTINUOUS
10
206.732
20
-124.114
11
206.518
21
-124.794
0
LINE
8
BLACK
6
CONTINUOUS
10
206.518
20
-124.794
11
206.268
21
-125.461
0
LINE
8
BLACK
6
CONTINUOUS
10
206.268
20
-125.461
11
205.982
21
-126.115
0
LINE
8
BLACK
6
CONTINUOUS
10
205.982
20
-126.115
11
205.661
21
-126.751
0
LINE
8
BLACK
6
CONTINUOUS
10
205.661
20
-126.751
11
205.306
21
-127.37
0
LINE
8
BLACK
6
CONTINUOUS
10
205.306
20
-127.37
11
204.918
21
-127.968
0
LINE
8
BLACK
6
CONTINUOUS
10
204.918
20
-127.968
11
204.498
21
-128.545
0
LINE
8
BLACK
6
CONTINUOUS
10
204.498
20
-128.545
11
204.048
21
-129.097
0
LINE
8
BLACK
6
CONTINUOUS
10
204.048
20
-129.097
11
203.569
21
-129.625
0
LINE
8
BLACK
6
CONTINUOUS
10
203.569
20
-129.625
11
203.062
21
-130.126
0
LINE
8
BLACK
6
CONTINUOUS
10
203.062
20
-130.126
11
202.528
21
-130.599
0
LINE
8
BLACK
6
CONTINUOUS
10
202.528
20
-130.599
11
201.97
21
-131.043
0
LINE
8
BLACK
6
CONTINUOUS
10
201.97
20
-131.043
11
201.388
21
-131.455
0
LINE
8
BLACK
6
CONTINUOUS
10
201.388
20
-131.455
11
200.785
21
-131.836
0
LINE
8
BLACK
6
CONTINUOUS
10
200.785
20
-131.836
11
200.162
21
-132.183
0
LINE
8
BLACK
6
CONTINUOUS
10
200.162
20
-132.183
11
199.522
21
-132.496
0
LINE
8
BLACK
6
CONTINUOUS
10
199.522
20
-132.496
11
198.865
21
-132.774
0
LINE
8
BLACK
6
CONTINUOUS
10
198.865
20
-132.774
11
198.194
21
-133.016
0
LINE
8
BLACK
6
CONTINUOUS
10
198.194
20
-133.016
11
197.512
21
-133.222
0
LINE
8
BLACK
6
CONTINUOUS
10
197.512
20
-133.222
11
196.819
21
-133.39
0
LINE
8
BLACK
6
CONTINUOUS
10
196.819
20
-133.39
11
196.118
21
-133.521
0
LINE
8
BLACK
6
CONTINUOUS
10
196.118
20
-133.521
11
195.411
21
-133.613
0
LINE
8
BLACK
6
CONTINUOUS
10
195.411
20
-133.613
11
194.7
21
-133.667
0
LINE
8
BLACK
6
CONTINUOUS
10
194.7
20
-133.667
11
193.987
21
-133.683
0
LINE
8
BLACK
6
CONTINUOUS
10
193.987
20
-133.683
11
193.274
21
-133.66
0
LINE
8
BLACK
6
CONTINUOUS
10
193.274
20
-133.66
11
192.564
21
-133.598
0
LINE
8
BLACK
6
CONTINUOUS
10
192.564
20
-133.598
11
191.858
21
-133.498
0
LINE
8
BLACK
6
CONTINUOUS
10
191.858
20
-133.498
11
191.158
21
-133.36
0
LINE
8
BLACK
6
CONTINUOUS
10
191.158
20
-133.36
11
190.467
21
-133.185
0
LINE
8
BLACK
6
CONTINUOUS
10
190.467
20
-133.185
11
189.787
21
-132.972
0
LINE
8
BLACK
6
CONTINUOUS
10
189.787
20
-132.972
11
189.119
21
-132.723
0
LINE
8
BLACK
6
CONTINUOUS
10
189.119
20
-132.723
11
188.465
21
-132.438
0
LINE
8
BLACK
6
CONTINUOUS
10
188.465
20
-132.438
11
187.828
21
-132.118
0
LINE
8
BLACK
6
CONTINUOUS
10
187.828
20
-132.118
11
187.209
21
-131.765
0
LINE
8
BLACK
6
CONTINUOUS
10
187.209
20
-131.765
11
186.61
21
-131.378
0
LINE
8
BLACK
6
CONTINUOUS
10
186.61
20
-131.378
11
186.033
21
-130.959
0
LINE
8
BLACK
6
CONTINUOUS
10
186.033
20
-130.959
11
185.479
21
-130.51
0
LINE
8
BLACK
6
CONTINUOUS
10
185.479
20
-130.51
11
184.95
21
-130.032
0
LINE
8
BLACK
6
CONTINUOUS
10
184.95
20
-130.032
11
184.448
21
-129.525
0
LINE
8
BLACK
6
CONTINUOUS
10
184.448
20
-129.525
11
183.974
21
-128.992
0
LINE
8
BLACK
6
CONTINUOUS
10
183.974
20
-128.992
11
183.53
21
-128.435
0
LINE
8
BLACK
6
CONTINUOUS
10
183.53
20
-128.435
11
183.116
21
-127.854
0
LINE
8
BLACK
6
CONTINUOUS
10
183.116
20
-127.854
11
182.735
21
-127.252
0
LINE
8
BLACK
6
CONTINUOUS
10
182.735
20
-127.252
11
182.387
21
-126.629
0
LINE
8
BLACK
6
CONTINUOUS
10
182.387
20
-126.629
11
182.072
21
-125.989
0
LINE
8
BLACK
6
CONTINUOUS
10
182.072
20
-125.989
11
181.793
21
-125.333
0
LINE
8
BLACK
6
CONTINUOUS
10
181.793
20
-125.333
11
181.55
21
-124.663
0
LINE
8
BLACK
6
CONTINUOUS
10
181.55
20
-124.663
11
181.343
21
-123.981
0
LINE
8
BLACK
6
CONTINUOUS
10
181.343
20
-123.981
11
181.174
21
-123.288
0
LINE
8
BLACK
6
CONTINUOUS
10
181.174
20
-123.288
11
181.042
21
-122.587
0
LINE
8
BLACK
6
CONTINUOUS
10
181.042
20
-122.587
11
180.948
21
-121.88
0
LINE
8
BLACK
6
CONTINUOUS
10
180.948
20
-121.88
11
180.893
21
-121.17
0
LINE
8
BLACK
6
CONTINUOUS
10
180.893
20
-121.17
11
180.876
21
-120.457
0
LINE
8
BLACK
6
CONTINUOUS
10
180.876
20
-120.457
11
180.876
21
-120.457
0
LINE
8
BLACK
6
CONTINUOUS
10
180.876
20
-120.457
11
180.898
21
-119.744
0
LINE
8
BLACK
6
CONTINUOUS
10
181.063
20
-121.868
11
181.155
21
-122.569
0
LINE
8
BLACK
6
CONTINUOUS
10
181.155
20
-122.569
11
181.286
21
-123.264
0
LINE
8
BLACK
6
CONTINUOUS
10
181.286
20
-123.264
11
181.454
21
-123.95
0
LINE
8
BLACK
6
CONTINUOUS
10
181.454
20
-123.95
11
181.659
21
-124.627
0
LINE
8
BLACK
6
CONTINUOUS
10
181.659
20
-124.627
11
181.9
21
-125.291
0
LINE
8
BLACK
6
CONTINUOUS
10
181.9
20
-125.291
11
182.177
21
-125.941
0
LINE
8
BLACK
6
CONTINUOUS
10
182.177
20
-125.941
11
182.488
21
-126.576
0
LINE
8
BLACK
6
CONTINUOUS
10
182.488
20
-126.576
11
182.834
21
-127.193
0
LINE
8
BLACK
6
CONTINUOUS
10
182.834
20
-127.193
11
183.212
21
-127.79
0
LINE
8
BLACK
6
CONTINUOUS
10
183.212
20
-127.79
11
183.622
21
-128.365
0
LINE
8
BLACK
6
CONTINUOUS
10
183.622
20
-128.365
11
184.062
21
-128.918
0
LINE
8
BLACK
6
CONTINUOUS
10
184.062
20
-128.918
11
184.532
21
-129.446
0
LINE
8
BLACK
6
CONTINUOUS
10
184.532
20
-129.446
11
185.03
21
-129.948
0
LINE
8
BLACK
6
CONTINUOUS
10
185.03
20
-129.948
11
185.554
21
-130.423
0
LINE
8
BLACK
6
CONTINUOUS
10
185.554
20
-130.423
11
186.103
21
-130.868
0
LINE
8
BLACK
6
CONTINUOUS
10
186.103
20
-130.868
11
186.675
21
-131.283
0
LINE
8
BLACK
6
CONTINUOUS
10
186.675
20
-131.283
11
187.269
21
-131.666
0
LINE
8
BLACK
6
CONTINUOUS
10
187.269
20
-131.666
11
187.882
21
-132.017
0
LINE
8
BLACK
6
CONTINUOUS
10
187.882
20
-132.017
11
188.514
21
-132.334
0
LINE
8
BLACK
6
CONTINUOUS
10
188.514
20
-132.334
11
189.162
21
-132.616
0
LINE
8
BLACK
6
CONTINUOUS
10
189.162
20
-132.616
11
189.824
21
-132.863
0
LINE
8
BLACK
6
CONTINUOUS
10
189.824
20
-132.863
11
190.499
21
-133.074
0
LINE
8
BLACK
6
CONTINUOUS
10
190.499
20
-133.074
11
191.184
21
-133.248
0
LINE
8
BLACK
6
CONTINUOUS
10
191.184
20
-133.248
11
191.877
21
-133.385
0
LINE
8
BLACK
6
CONTINUOUS
10
191.877
20
-133.385
11
192.577
21
-133.484
0
LINE
8
BLACK
6
CONTINUOUS
10
192.577
20
-133.484
11
193.281
21
-133.545
0
LINE
8
BLACK
6
CONTINUOUS
10
193.281
20
-133.545
11
193.988
21
-133.568
0
LINE
8
BLACK
6
CONTINUOUS
10
193.988
20
-133.568
11
194.694
21
-133.552
0
LINE
8
BLACK
6
CONTINUOUS
10
194.694
20
-133.552
11
195.399
21
-133.499
0
LINE
8
BLACK
6
CONTINUOUS
10
195.399
20
-133.499
11
196.1
21
-133.407
0
LINE
8
BLACK
6
CONTINUOUS
10
196.1
20
-133.407
11
196.795
21
-133.278
0
LINE
8
BLACK
6
CONTINUOUS
10
196.795
20
-133.278
11
197.481
21
-133.111
0
LINE
8
BLACK
6
CONTINUOUS
10
197.481
20
-133.111
11
198.158
21
-132.907
0
LINE
8
BLACK
6
CONTINUOUS
10
198.158
20
-132.907
11
198.823
21
-132.667
0
LINE
8
BLACK
6
CONTINUOUS
10
198.823
20
-132.667
11
199.474
21
-132.391
0
LINE
8
BLACK
6
CONTINUOUS
10
199.474
20
-132.391
11
200.109
21
-132.081
0
LINE
8
BLACK
6
CONTINUOUS
10
200.109
20
-132.081
11
200.726
21
-131.737
0
LINE
8
BLACK
6
CONTINUOUS
10
200.726
20
-131.737
11
201.324
21
-131.36
0
LINE
8
BLACK
6
CONTINUOUS
10
201.324
20
-131.36
11
201.9
21
-130.951
0
LINE
8
BLACK
6
CONTINUOUS
10
201.9
20
-130.951
11
202.454
21
-130.511
0
LINE
8
BLACK
6
CONTINUOUS
10
202.454
20
-130.511
11
202.983
21
-130.042
0
LINE
8
BLACK
6
CONTINUOUS
10
202.983
20
-130.042
11
203.486
21
-129.546
0
LINE
8
BLACK
6
CONTINUOUS
10
203.486
20
-129.546
11
203.961
21
-129.022
0
LINE
8
BLACK
6
CONTINUOUS
10
203.961
20
-129.022
11
204.407
21
-128.474
0
LINE
8
BLACK
6
CONTINUOUS
10
204.407
20
-128.474
11
204.823
21
-127.903
0
LINE
8
BLACK
6
CONTINUOUS
10
204.823
20
-127.903
11
205.208
21
-127.31
0
LINE
8
BLACK
6
CONTINUOUS
10
205.208
20
-127.31
11
205.559
21
-126.697
0
LINE
8
BLACK
6
CONTINUOUS
10
205.559
20
-126.697
11
205.878
21
-126.066
0
LINE
8
BLACK
6
CONTINUOUS
10
205.878
20
-126.066
11
206.161
21
-125.418
0
LINE
8
BLACK
6
CONTINUOUS
10
206.161
20
-125.418
11
206.409
21
-124.756
0
LINE
8
BLACK
6
CONTINUOUS
10
206.409
20
-124.756
11
206.621
21
-124.082
0
LINE
8
BLACK
6
CONTINUOUS
10
206.621
20
-124.082
11
206.796
21
-123.397
0
LINE
8
BLACK
6
CONTINUOUS
10
206.796
20
-123.397
11
206.934
21
-122.704
0
LINE
8
BLACK
6
CONTINUOUS
10
206.934
20
-122.704
11
207.034
21
-122.004
0
LINE
8
BLACK
6
CONTINUOUS
10
207.034
20
-122.004
11
207.097
21
-121.3
0
LINE
8
BLACK
6
CONTINUOUS
10
207.097
20
-121.3
11
207.121
21
-120.594
0
LINE
8
BLACK
6
CONTINUOUS
10
207.121
20
-120.594
11
207.121
21
-120.503
0
LINE
8
BLACK
6
CONTINUOUS
10
207.121
20
-120.503
11
207.102
21
-119.796
0
LINE
8
BLACK
6
CONTINUOUS
10
207.102
20
-119.796
11
207.045
21
-119.092
0
LINE
8
BLACK
6
CONTINUOUS
10
207.045
20
-119.092
11
206.949
21
-118.391
0
LINE
8
BLACK
6
CONTINUOUS
10
206.949
20
-118.391
11
206.816
21
-117.697
0
LINE
8
BLACK
6
CONTINUOUS
10
206.816
20
-117.697
11
206.646
21
-117.011
0
LINE
8
BLACK
6
CONTINUOUS
10
206.646
20
-117.011
11
206.439
21
-116.336
0
LINE
8
BLACK
6
CONTINUOUS
10
206.439
20
-116.336
11
206.195
21
-115.672
0
LINE
8
BLACK
6
CONTINUOUS
10
206.195
20
-115.672
11
205.916
21
-115.023
0
LINE
8
BLACK
6
CONTINUOUS
10
205.916
20
-115.023
11
205.602
21
-114.389
0
LINE
8
BLACK
6
CONTINUOUS
10
205.602
20
-114.389
11
205.255
21
-113.774
0
LINE
8
BLACK
6
CONTINUOUS
10
205.255
20
-113.774
11
204.875
21
-113.178
0
LINE
8
BLACK
6
CONTINUOUS
10
204.875
20
-113.178
11
204.463
21
-112.604
0
LINE
8
BLACK
6
CONTINUOUS
10
204.463
20
-112.604
11
204.02
21
-112.053
0
LINE
8
BLACK
6
CONTINUOUS
10
204.02
20
-112.053
11
203.549
21
-111.526
0
LINE
8
BLACK
6
CONTINUOUS
10
203.549
20
-111.526
11
203.049
21
-111.026
0
LINE
8
BLACK
6
CONTINUOUS
10
203.049
20
-111.026
11
202.524
21
-110.553
0
LINE
8
BLACK
6
CONTINUOUS
10
202.524
20
-110.553
11
201.973
21
-110.11
0
LINE
8
BLACK
6
CONTINUOUS
10
201.973
20
-110.11
11
201.4
21
-109.697
0
LINE
8
BLACK
6
CONTINUOUS
10
201.4
20
-109.697
11
200.804
21
-109.316
0
LINE
8
BLACK
6
CONTINUOUS
10
200.804
20
-109.316
11
200.19
21
-108.967
0
LINE
8
BLACK
6
CONTINUOUS
10
200.19
20
-108.967
11
199.557
21
-108.652
0
LINE
8
BLACK
6
CONTINUOUS
10
199.557
20
-108.652
11
198.908
21
-108.372
0
LINE
8
BLACK
6
CONTINUOUS
10
198.908
20
-108.372
11
198.245
21
-108.128
0
LINE
8
BLACK
6
CONTINUOUS
10
198.245
20
-108.128
11
197.569
21
-107.919
0
LINE
8
BLACK
6
CONTINUOUS
10
197.569
20
-107.919
11
196.884
21
-107.748
0
LINE
8
BLACK
6
CONTINUOUS
10
196.884
20
-107.748
11
196.19
21
-107.613
0
LINE
8
BLACK
6
CONTINUOUS
10
196.19
20
-107.613
11
195.49
21
-107.517
0
LINE
8
BLACK
6
CONTINUOUS
10
195.49
20
-107.517
11
194.785
21
-107.458
0
LINE
8
BLACK
6
CONTINUOUS
10
194.785
20
-107.458
11
194.079
21
-107.438
0
LINE
8
BLACK
6
CONTINUOUS
10
194.079
20
-107.438
11
193.372
21
-107.456
0
LINE
8
BLACK
6
CONTINUOUS
10
193.372
20
-107.456
11
192.668
21
-107.512
0
LINE
8
BLACK
6
CONTINUOUS
10
192.668
20
-107.512
11
191.967
21
-107.606
0
LINE
8
BLACK
6
CONTINUOUS
10
191.967
20
-107.606
11
191.273
21
-107.738
0
LINE
8
BLACK
6
CONTINUOUS
10
191.273
20
-107.738
11
190.587
21
-107.907
0
LINE
8
BLACK
6
CONTINUOUS
10
190.587
20
-107.907
11
189.91
21
-108.113
0
LINE
8
BLACK
6
CONTINUOUS
10
189.91
20
-108.113
11
189.246
21
-108.355
0
LINE
8
BLACK
6
CONTINUOUS
10
189.246
20
-108.355
11
188.597
21
-108.633
0
LINE
8
BLACK
6
CONTINUOUS
10
188.597
20
-108.633
11
187.963
21
-108.946
0
LINE
8
BLACK
6
CONTINUOUS
10
187.963
20
-108.946
11
187.347
21
-109.292
0
LINE
8
BLACK
6
CONTINUOUS
10
187.347
20
-109.292
11
186.75
21
-109.671
0
LINE
8
BLACK
6
CONTINUOUS
10
186.75
20
-109.671
11
186.175
21
-110.082
0
LINE
8
BLACK
6
CONTINUOUS
10
186.175
20
-110.082
11
185.623
21
-110.524
0
LINE
8
BLACK
6
CONTINUOUS
10
185.623
20
-110.524
11
185.096
21
-110.994
0
LINE
8
BLACK
6
CONTINUOUS
10
185.096
20
-110.994
11
184.595
21
-111.493
0
LINE
8
BLACK
6
CONTINUOUS
10
184.595
20
-111.493
11
184.121
21
-112.018
0
LINE
8
BLACK
6
CONTINUOUS
10
184.121
20
-112.018
11
183.677
21
-112.567
0
LINE
8
BLACK
6
CONTINUOUS
10
183.677
20
-112.567
11
183.263
21
-113.14
0
LINE
8
BLACK
6
CONTINUOUS
10
183.263
20
-113.14
11
182.881
21
-113.735
0
LINE
8
BLACK
6
CONTINUOUS
10
182.881
20
-113.735
11
182.531
21
-114.349
0
LINE
8
BLACK
6
CONTINUOUS
10
182.531
20
-114.349
11
182.215
21
-114.981
0
LINE
8
BLACK
6
CONTINUOUS
10
182.215
20
-114.981
11
181.934
21
-115.63
0
LINE
8
BLACK
6
CONTINUOUS
10
181.934
20
-115.63
11
181.688
21
-116.292
0
LINE
8
BLACK
6
CONTINUOUS
10
181.688
20
-116.292
11
181.478
21
-116.967
0
LINE
8
BLACK
6
CONTINUOUS
10
181.478
20
-116.967
11
181.306
21
-117.653
0
LINE
8
BLACK
6
CONTINUOUS
10
181.306
20
-117.653
11
181.17
21
-118.346
0
LINE
8
BLACK
6
CONTINUOUS
10
181.17
20
-118.346
11
181.072
21
-119.046
0
LINE
8
BLACK
6
CONTINUOUS
10
181.072
20
-119.046
11
181.013
21
-119.751
0
LINE
8
BLACK
6
CONTINUOUS
10
181.013
20
-119.751
11
180.991
21
-120.457
0
LINE
8
BLACK
6
CONTINUOUS
10
180.991
20
-120.457
11
181.008
21
-121.164
0
LINE
8
BLACK
6
CONTINUOUS
10
181.008
20
-121.164
11
181.063
21
-121.868
0
CIRCLE
8
BLACK
10
149.606
20
-125.203
40
0.925
0
CIRCLE
8
BLACK
10
149.606
20
-120.503
40
0.925
0
CIRCLE
8
BLACK
10
149.606
20
-115.803
40
0.925
0
LINE
8
BLACK
6
CONTINUOUS
10
110.708
20
-97.4975
11
110.75
21
-97.3541
0
LINE
8
BLACK
6
CONTINUOUS
10
110.75
20
-97.3541
11
110.828
21
-97.2272
0
LINE
8
BLACK
6
CONTINUOUS
10
110.828
20
-97.2272
11
110.938
21
-97.1262
0
LINE
8
BLACK
6
CONTINUOUS
10
110.938
20
-97.1262
11
111.071
21
-97.0584
0
LINE
8
BLACK
6
CONTINUOUS
10
111.071
20
-97.0584
11
111.217
21
-97.0289
0
LINE
8
BLACK
6
CONTINUOUS
10
111.217
20
-97.0289
11
111.366
21
-97.0398
0
LINE
8
BLACK
6
CONTINUOUS
10
111.366
20
-97.0398
11
111.507
21
-97.0904
0
LINE
8
BLACK
6
CONTINUOUS
10
111.507
20
-97.0904
11
111.629
21
-97.1769
0
LINE
8
BLACK
6
CONTINUOUS
10
111.629
20
-97.1769
11
111.722
21
-97.2929
0
LINE
8
BLACK
6
CONTINUOUS
10
111.722
20
-97.2929
11
111.782
21
-97.4299
0
LINE
8
BLACK
6
CONTINUOUS
10
111.782
20
-97.4299
11
111.802
21
-97.5778
0
LINE
8
BLACK
6
CONTINUOUS
10
111.802
20
-97.5778
11
111.802
21
-98.9778
0
LINE
8
BLACK
6
CONTINUOUS
10
111.802
20
-98.9778
11
111.796
21
-99.0581
0
LINE
8
BLACK
6
CONTINUOUS
10
111.796
20
-99.0581
11
111.754
21
-99.2015
0
LINE
8
BLACK
6
CONTINUOUS
10
111.754
20
-99.2015
11
111.676
21
-99.3284
0
LINE
8
BLACK
6
CONTINUOUS
10
111.676
20
-99.3284
11
111.566
21
-99.4294
0
LINE
8
BLACK
6
CONTINUOUS
10
111.566
20
-99.4294
11
111.433
21
-99.4972
0
LINE
8
BLACK
6
CONTINUOUS
10
111.433
20
-99.4972
11
111.287
21
-99.5267
0
LINE
8
BLACK
6
CONTINUOUS
10
111.287
20
-99.5267
11
111.138
21
-99.5158
0
LINE
8
BLACK
6
CONTINUOUS
10
111.138
20
-99.5158
11
110.997
21
-99.4652
0
LINE
8
BLACK
6
CONTINUOUS
10
110.997
20
-99.4652
11
110.875
21
-99.3787
0
LINE
8
BLACK
6
CONTINUOUS
10
110.875
20
-99.3787
11
110.782
21
-99.2627
0
LINE
8
BLACK
6
CONTINUOUS
10
110.782
20
-99.2627
11
110.722
21
-99.1257
0
LINE
8
BLACK
6
CONTINUOUS
10
110.722
20
-99.1257
11
110.702
21
-98.9778
0
LINE
8
BLACK
6
CONTINUOUS
10
110.702
20
-98.9778
11
110.702
21
-97.5778
0
LINE
8
BLACK
6
CONTINUOUS
10
110.702
20
-97.5778
11
110.708
21
-97.4975
0
LINE
8
BLACK
6
CONTINUOUS
10
98.5159
20
-97.4975
11
98.5575
21
-97.3541
0
LINE
8
BLACK
6
CONTINUOUS
10
98.5575
20
-97.3541
11
98.6362
21
-97.2272
0
LINE
8
BLACK
6
CONTINUOUS
10
98.6362
20
-97.2272
11
98.7461
21
-97.1262
0
LINE
8
BLACK
6
CONTINUOUS
10
98.7461
20
-97.1262
11
98.8791
21
-97.0584
0
LINE
8
BLACK
6
CONTINUOUS
10
98.8791
20
-97.0584
11
99.0255
21
-97.0289
0
LINE
8
BLACK
6
CONTINUOUS
10
99.0255
20
-97.0289
11
99.1744
21
-97.0398
0
LINE
8
BLACK
6
CONTINUOUS
10
99.1744
20
-97.0398
11
99.3148
21
-97.0904
0
LINE
8
BLACK
6
CONTINUOUS
10
99.3148
20
-97.0904
11
99.4365
21
-97.1769
0
LINE
8
BLACK
6
CONTINUOUS
10
99.4365
20
-97.1769
11
99.5305
21
-97.2929
0
LINE
8
BLACK
6
CONTINUOUS
10
99.5305
20
-97.2929
11
99.5897
21
-97.4299
0
LINE
8
BLACK
6
CONTINUOUS
10
99.5897
20
-97.4299
11
99.61
21
-97.5778
0
LINE
8
BLACK
6
CONTINUOUS
10
99.61
20
-97.5778
11
99.61
21
-98.9778
0
LINE
8
BLACK
6
CONTINUOUS
10
99.61
20
-98.9778
11
99.6041
21
-99.0581
0
LINE
8
BLACK
6
CONTINUOUS
10
99.6041
20
-99.0581
11
99.5624
21
-99.2015
0
LINE
8
BLACK
6
CONTINUOUS
10
99.5624
20
-99.2015
11
99.4838
21
-99.3284
0
LINE
8
BLACK
6
CONTINUOUS
10
99.4838
20
-99.3284
11
99.3739
21
-99.4294
0
LINE
8
BLACK
6
CONTINUOUS
10
99.3739
20
-99.4294
11
99.2409
21
-99.4972
0
LINE
8
BLACK
6
CONTINUOUS
10
99.2409
20
-99.4972
11
99.0945
21
-99.5267
0
LINE
8
BLACK
6
CONTINUOUS
10
99.0945
20
-99.5267
11
98.9456
21
-99.5158
0
LINE
8
BLACK
6
CONTINUOUS
10
98.9456
20
-99.5158
11
98.8052
21
-99.4652
0
LINE
8
BLACK
6
CONTINUOUS
10
98.8052
20
-99.4652
11
98.6835
21
-99.3787
0
LINE
8
BLACK
6
CONTINUOUS
10
98.6835
20
-99.3787
11
98.5895
21
-99.2627
0
LINE
8
BLACK
6
CONTINUOUS
10
98.5895
20
-99.2627
11
98.5303
21
-99.1257
0
LINE
8
BLACK
6
CONTINUOUS
10
98.5303
20
-99.1257
11
98.51
21
-98.9778
0
LINE
8
BLACK
6
CONTINUOUS
10
98.51
20
-98.9778
11
98.51
21
-97.5778
0
LINE
8
BLACK
6
CONTINUOUS
10
98.51
20
-97.5778
11
98.5159
21
-97.4975
0
CIRCLE
8
BLACK
10
102.616
20
-105.898
40
0.5
0
CIRCLE
8
BLACK
10
105.116
20
-105.898
40
0.5
0
CIRCLE
8
BLACK
10
107.616
20
-105.898
40
0.5
0
CIRCLE
8
BLACK
10
184.53
20
-115.003
40
0.7
0
CIRCLE
8
BLACK
10
188.556
20
-110.977
40
0.7
0
CIRCLE
8
BLACK
10
194.056
20
-109.503
40
0.7
0
CIRCLE
8
BLACK
10
199.556
20
-110.977
40
0.7
0
CIRCLE
8
BLACK
10
203.582
20
-115.003
40
0.7
0
CIRCLE
8
BLACK
10
205.056
20
-120.503
40
0.7
0
CIRCLE
8
BLACK
10
203.582
20
-126.003
40
0.7
0
CIRCLE
8
BLACK
10
199.556
20
-130.029
40
0.7
0
CIRCLE
8
BLACK
10
194.056
20
-131.503
40
0.7
0
CIRCLE
8
BLACK
10
188.556
20
-130.029
40
0.7
0
CIRCLE
8
BLACK
10
184.53
20
-126.003
40
0.7
0
CIRCLE
8
BLACK
10
183.056
20
-120.503
40
0.7
0
CIRCLE
8
BLACK
10
192.056
20
-117.039
40
0.7
0
LINE
8
BLACK
6
CONTINUOUS
10
187.416
20
-75.2725
11
187.458
21
-75.1291
0
LINE
8
BLACK
6
CONTINUOUS
10
187.458
20
-75.1291
11
187.536
21
-75.0022
0
LINE
8
BLACK
6
CONTINUOUS
10
187.536
20
-75.0022
11
187.646
21
-74.9012
0
LINE
8
BLACK
6
CONTINUOUS
10
187.646
20
-74.9012
11
187.779
21
-74.8334
0
LINE
8
BLACK
6
CONTINUOUS
10
187.779
20
-74.8334
11
187.925
21
-74.8039
0
LINE
8
BLACK
6
CONTINUOUS
10
187.925
20
-74.8039
11
188.074
21
-74.8148
0
LINE
8
BLACK
6
CONTINUOUS
10
188.074
20
-74.8148
11
188.215
21
-74.8654
0
LINE
8
BLACK
6
CONTINUOUS
10
188.215
20
-74.8654
11
188.337
21
-74.9519
0
LINE
8
BLACK
6
CONTINUOUS
10
188.337
20
-74.9519
11
188.43
21
-75.0679
0
LINE
8
BLACK
6
CONTINUOUS
10
188.43
20
-75.0679
11
188.49
21
-75.2049
0
LINE
8
BLACK
6
CONTINUOUS
10
188.49
20
-75.2049
11
188.51
21
-75.3528
0
LINE
8
BLACK
6
CONTINUOUS
10
188.51
20
-75.3528
11
188.51
21
-76.7528
0
LINE
8
BLACK
6
CONTINUOUS
10
188.51
20
-76.7528
11
188.504
21
-76.8331
0
LINE
8
BLACK
6
CONTINUOUS
10
188.504
20
-76.8331
11
188.462
21
-76.9765
0
LINE
8
BLACK
6
CONTINUOUS
10
188.462
20
-76.9765
11
188.384
21
-77.1034
0
LINE
8
BLACK
6
CONTINUOUS
10
188.384
20
-77.1034
11
188.274
21
-77.2044
0
LINE
8
BLACK
6
CONTINUOUS
10
188.274
20
-77.2044
11
188.141
21
-77.2722
0
LINE
8
BLACK
6
CONTINUOUS
10
188.141
20
-77.2722
11
187.995
21
-77.3017
0
LINE
8
BLACK
6
CONTINUOUS
10
187.995
20
-77.3017
11
187.846
21
-77.2908
0
LINE
8
BLACK
6
CONTINUOUS
10
187.846
20
-77.2908
11
187.705
21
-77.2402
0
LINE
8
BLACK
6
CONTINUOUS
10
187.705
20
-77.2402
11
187.583
21
-77.1537
0
LINE
8
BLACK
6
CONTINUOUS
10
187.583
20
-77.1537
11
187.49
21
-77.0377
0
LINE
8
BLACK
6
CONTINUOUS
10
187.49
20
-77.0377
11
187.43
21
-76.9007
0
LINE
8
BLACK
6
CONTINUOUS
10
187.43
20
-76.9007
11
187.41
21
-76.7528
0
LINE
8
BLACK
6
CONTINUOUS
10
187.41
20
-76.7528
11
187.41
21
-75.3528
0
LINE
8
BLACK
6
CONTINUOUS
10
187.41
20
-75.3528
11
187.416
21
-75.2725
0
LINE
8
BLACK
6
CONTINUOUS
10
199.608
20
-75.2725
11
199.65
21
-75.1291
0
LINE
8
BLACK
6
CONTINUOUS
10
199.65
20
-75.1291
11
199.728
21
-75.0022
0
LINE
8
BLACK
6
CONTINUOUS
10
199.728
20
-75.0022
11
199.838
21
-74.9012
0
LINE
8
BLACK
6
CONTINUOUS
10
199.838
20
-74.9012
11
199.971
21
-74.8334
0
LINE
8
BLACK
6
CONTINUOUS
10
199.971
20
-74.8334
11
200.117
21
-74.8039
0
LINE
8
BLACK
6
CONTINUOUS
10
200.117
20
-74.8039
11
200.266
21
-74.8148
0
LINE
8
BLACK
6
CONTINUOUS
10
200.266
20
-74.8148
11
200.407
21
-74.8654
0
LINE
8
BLACK
6
CONTINUOUS
10
200.407
20
-74.8654
11
200.529
21
-74.9519
0
LINE
8
BLACK
6
CONTINUOUS
10
200.529
20
-74.9519
11
200.622
21
-75.0679
0
LINE
8
BLACK
6
CONTINUOUS
10
200.622
20
-75.0679
11
200.682
21
-75.2049
0
LINE
8
BLACK
6
CONTINUOUS
10
200.682
20
-75.2049
11
200.702
21
-75.3528
0
LINE
8
BLACK
6
CONTINUOUS
10
200.702
20
-75.3528
11
200.702
21
-76.7528
0
LINE
8
BLACK
6
CONTINUOUS
10
200.702
20
-76.7528
11
200.696
21
-76.8331
0
LINE
8
BLACK
6
CONTINUOUS
10
200.696
20
-76.8331
11
200.654
21
-76.9765
0
LINE
8
BLACK
6
CONTINUOUS
10
200.654
20
-76.9765
11
200.576
21
-77.1034
0
LINE
8
BLACK
6
CONTINUOUS
10
200.576
20
-77.1034
11
200.466
21
-77.2044
0
LINE
8
BLACK
6
CONTINUOUS
10
200.466
20
-77.2044
11
200.333
21
-77.2722
0
LINE
8
BLACK
6
CONTINUOUS
10
200.333
20
-77.2722
11
200.187
21
-77.3017
0
LINE
8
BLACK
6
CONTINUOUS
10
200.187
20
-77.3017
11
200.038
21
-77.2908
0
LINE
8
BLACK
6
CONTINUOUS
10
200.038
20
-77.2908
11
199.897
21
-77.2402
0
LINE
8
BLACK
6
CONTINUOUS
10
199.897
20
-77.2402
11
199.775
21
-77.1537
0
LINE
8
BLACK
6
CONTINUOUS
10
199.775
20
-77.1537
11
199.682
21
-77.0377
0
LINE
8
BLACK
6
CONTINUOUS
10
199.682
20
-77.0377
11
199.622
21
-76.9007
0
LINE
8
BLACK
6
CONTINUOUS
10
199.622
20
-76.9007
11
199.602
21
-76.7528
0
LINE
8
BLACK
6
CONTINUOUS
10
199.602
20
-76.7528
11
199.602
21
-75.3528
0
LINE
8
BLACK
6
CONTINUOUS
10
199.602
20
-75.3528
11
199.608
21
-75.2725
0
CIRCLE
8
BLACK
10
191.516
20
-83.6728
40
0.5
0
CIRCLE
8
BLACK
10
194.016
20
-83.6728
40
0.5
0
CIRCLE
8
BLACK
10
196.516
20
-83.6728
40
0.5
0
CIRCLE
8
BLACK
10
149.606
20
-74.7828
40
0.45
0
CIRCLE
8
BLACK
10
149.606
20
-77.3228
40
0.45
0
CIRCLE
8
BLACK
10
125.44
20
-113.848
40
0.4
0
CIRCLE
8
BLACK
10
122.94
20
-113.848
40
0.4
0
CIRCLE
8
BLACK
10
153
20
-110.698
40
0.4
0
CIRCLE
8
BLACK
10
155.54
20
-110.698
40
0.4
0
CIRCLE
8
BLACK
10
158.08
20
-110.698
40
0.4
0
CIRCLE
8
BLACK
10
149.606
20
-130.663
40
0.5
0
CIRCLE
8
BLACK
10
176.276
20
-67.1828
40
0.595
0
CIRCLE
8
BLACK
10
173.736
20
-67.1828
40
0.595
0
CIRCLE
8
BLACK
10
171.196
20
-67.1828
40
0.595
0
CIRCLE
8
BLACK
10
142.621
20
-130.663
40
0.5
0
CIRCLE
8
BLACK
10
163.17
20
-110.698
40
0.4
0
CIRCLE
8
BLACK
10
165.71
20
-110.698
40
0.4
0
CIRCLE
8
BLACK
10
168.25
20
-110.698
40
0.4
0
CIRCLE
8
BLACK
10
173.355
20
-110.698
40
0.4
0
CIRCLE
8
BLACK
10
175.895
20
-110.698
40
0.4
0
CIRCLE
8
BLACK
10
178.435
20
-110.698
40
0.4
0
CIRCLE
8
BLACK
10
93.726
20
-102.723
40
0.595
0
CIRCLE
8
BLACK
10
93.726
20
-105.263
40
0.595
0
CIRCLE
8
BLACK
10
102.616
20
-111.613
40
0.5
0
CIRCLE
8
BLACK
10
112.141
20
-80.4978
40
0.5
0
CIRCLE
8
BLACK
10
117.78
20
-113.848
40
0.4
0
CIRCLE
8
BLACK
10
115.28
20
-113.848
40
0.4
0
CIRCLE
8
BLACK
10
125.222
20
-105.263
40
0.65
0
CIRCLE
8
BLACK
10
132.842
20
-105.263
40
0.65
0
CIRCLE
8
BLACK
10
93.726
20
-84.9428
40
0.595
0
CIRCLE
8
BLACK
10
93.726
20
-87.4828
40
0.595
0
CIRCLE
8
BLACK
10
122.936
20
-67.1628
40
0.595
0
CIRCLE
8
BLACK
10
120.396
20
-67.1628
40
0.595
0
CIRCLE
8
BLACK
10
117.856
20
-67.1628
40
0.595
0
CIRCLE
8
BLACK
10
103.886
20
-67.1628
40
0.595
0
CIRCLE
8
BLACK
10
101.346
20
-67.1628
40
0.595
0
CIRCLE
8
BLACK
10
115.316
20
-102.215
40
0.5
0
CIRCLE
8
BLACK
10
141.351
20
-76.6878
40
0.5
0
CIRCLE
8
BLACK
10
115.316
20
-125.583
40
0.5
0
CIRCLE
8
BLACK
10
115.316
20
-128.123
40
0.5
0
CIRCLE
8
BLACK
10
117.856
20
-125.583
40
0.5
0
CIRCLE
8
BLACK
10
117.856
20
-128.123
40
0.5
0
CIRCLE
8
BLACK
10
120.396
20
-125.583
40
0.5
0
CIRCLE
8
BLACK
10
120.396
20
-128.123
40
0.5
0
CIRCLE
8
BLACK
10
122.936
20
-125.583
40
0.5
0
CIRCLE
8
BLACK
10
122.936
20
-128.123
40
0.5
0
CIRCLE
8
BLACK
10
125.476
20
-125.583
40
0.5
0
CIRCLE
8
BLACK
10
125.476
20
-128.123
40
0.5
0
CIRCLE
8
BLACK
10
132.842
20
-113.899
40
0.5
  0
ENDSEC
  0
EOF
