  0
SECTION
  2
HEADER
  9
$ANGBASE
  50
0.0
  9
$ANGDIR
  70
1
  9
$MEASUREMENT
  70
1
  0
ENDSEC
  0
SECTION
  2
TABLES
  0
TABLE
  2
LTYPE
  70
4
  0
LTYPE
  5
40F
  2
CONTINUOUS
  70
0
  3
Solid line
  72
65
  73
0
  40
0.0
  0
LTYPE
  5
410
  2
DASHDOT
 70
0
  3
Dash Dot ____ _ ____ _
 72
65
 73
4
 40
2.0
 49
1.25
 49
-0.25
 49
0.25
 49
-0.25
  0
LTYPE
  5
411
  2
DASHED
 70
0
  3
Dashed __ __ __ __ __
 72
65
 73
2
 40
0.75
 49
0.5
 49
-0.25
  0
LTYPE
  5
43B
  2
DOTTED
 70
0
  3
Dotted .  .  .  .
 72
65
 73
2
 40
0.2
 49
0.0
 49
-0.2
  0
ENDTAB
  0
TABLE
  2
STYLE
  70
4
  0
STYLE
  2
KICAD
  70
0
  40
0
  41
1
  42
1
  50
0
  71
0
  3
isocp.shx
  0
STYLE
  2
KICADB
  70
0
  40
0
  41
1
  42
1
  50
0
  71
0
  3
isocp.shx
  0
STYLE
  2
KICADI
  70
0
  40
0
  41
1
  42
1
  50
15
  71
0
  3
isocp.shx
  0
STYLE
  2
KICADBI
  70
0
  40
0
  41
1
  42
1
  50
15
  71
0
  3
isocp.shx
  0
ENDTAB
  0
TABLE
  2
LAYER
  70
1
  0
LAYER
  2
BLACK
  70
0
  62
7
  6
CONTINUOUS
  0
ENDTAB
  0
ENDSEC
  0
SECTION
  2
ENTITIES
0
LINE
8
BLACK
6
CONTINUOUS
10
194.188
20
-130.109
11
194.414
21
-130.149
0
LINE
8
BLACK
6
CONTINUOUS
10
194.414
20
-130.149
11
194.63
21
-130.226
0
LINE
8
BLACK
6
CONTINUOUS
10
194.63
20
-130.226
11
194.831
21
-130.337
0
LINE
8
BLACK
6
CONTINUOUS
10
194.831
20
-130.337
11
195.011
21
-130.479
0
LINE
8
BLACK
6
CONTINUOUS
10
195.011
20
-130.479
11
195.165
21
-130.649
0
LINE
8
BLACK
6
CONTINUOUS
10
195.165
20
-130.649
11
195.29
21
-130.841
0
LINE
8
BLACK
6
CONTINUOUS
10
195.29
20
-130.841
11
195.381
21
-131.052
0
LINE
8
BLACK
6
CONTINUOUS
10
195.381
20
-131.052
11
195.437
21
-131.274
0
LINE
8
BLACK
6
CONTINUOUS
10
195.437
20
-131.274
11
195.456
21
-131.503
0
LINE
8
BLACK
6
CONTINUOUS
10
195.456
20
-131.503
11
195.454
21
-131.571
0
LINE
8
BLACK
6
CONTINUOUS
10
195.454
20
-131.571
11
195.424
21
-131.799
0
LINE
8
BLACK
6
CONTINUOUS
10
195.424
20
-131.799
11
195.358
21
-132.018
0
LINE
8
BLACK
6
CONTINUOUS
10
195.358
20
-132.018
11
195.256
21
-132.224
0
LINE
8
BLACK
6
CONTINUOUS
10
195.256
20
-132.224
11
195.122
21
-132.41
0
LINE
8
BLACK
6
CONTINUOUS
10
195.122
20
-132.41
11
194.96
21
-132.572
0
LINE
8
BLACK
6
CONTINUOUS
10
194.96
20
-132.572
11
194.773
21
-132.705
0
LINE
8
BLACK
6
CONTINUOUS
10
194.773
20
-132.705
11
194.567
21
-132.806
0
LINE
8
BLACK
6
CONTINUOUS
10
194.567
20
-132.806
11
194.347
21
-132.872
0
LINE
8
BLACK
6
CONTINUOUS
10
194.347
20
-132.872
11
194.12
21
-132.901
0
LINE
8
BLACK
6
CONTINUOUS
10
194.12
20
-132.901
11
193.89
21
-132.893
0
LINE
8
BLACK
6
CONTINUOUS
10
193.89
20
-132.893
11
193.665
21
-132.847
0
LINE
8
BLACK
6
CONTINUOUS
10
193.665
20
-132.847
11
193.451
21
-132.765
0
LINE
8
BLACK
6
CONTINUOUS
10
193.451
20
-132.765
11
193.253
21
-132.65
0
LINE
8
BLACK
6
CONTINUOUS
10
193.253
20
-132.65
11
193.076
21
-132.503
0
LINE
8
BLACK
6
CONTINUOUS
10
193.076
20
-132.503
11
192.926
21
-132.33
0
LINE
8
BLACK
6
CONTINUOUS
10
192.926
20
-132.33
11
192.806
21
-132.134
0
LINE
8
BLACK
6
CONTINUOUS
10
192.806
20
-132.134
11
192.72
21
-131.921
0
LINE
8
BLACK
6
CONTINUOUS
10
192.72
20
-131.921
11
192.67
21
-131.698
0
LINE
8
BLACK
6
CONTINUOUS
10
192.67
20
-131.698
11
192.656
21
-131.469
0
LINE
8
BLACK
6
CONTINUOUS
10
192.656
20
-131.469
11
192.681
21
-131.24
0
LINE
8
BLACK
6
CONTINUOUS
10
192.681
20
-131.24
11
192.742
21
-131.019
0
LINE
8
BLACK
6
CONTINUOUS
10
192.742
20
-131.019
11
192.839
21
-130.811
0
LINE
8
BLACK
6
CONTINUOUS
10
192.839
20
-130.811
11
192.968
21
-130.622
0
LINE
8
BLACK
6
CONTINUOUS
10
192.968
20
-130.622
11
193.127
21
-130.456
0
LINE
8
BLACK
6
CONTINUOUS
10
193.127
20
-130.456
11
193.31
21
-130.318
0
LINE
8
BLACK
6
CONTINUOUS
10
193.31
20
-130.318
11
193.513
21
-130.212
0
LINE
8
BLACK
6
CONTINUOUS
10
193.513
20
-130.212
11
193.732
21
-130.141
0
LINE
8
BLACK
6
CONTINUOUS
10
193.732
20
-130.141
11
193.958
21
-130.106
0
LINE
8
BLACK
6
CONTINUOUS
10
193.958
20
-130.106
11
194.188
21
-130.109
0
LINE
8
BLACK
6
CONTINUOUS
10
149.807
20
-129.683
11
149.994
21
-129.741
0
LINE
8
BLACK
6
CONTINUOUS
10
149.994
20
-129.741
11
150.165
21
-129.834
0
LINE
8
BLACK
6
CONTINUOUS
10
150.165
20
-129.834
11
150.316
21
-129.958
0
LINE
8
BLACK
6
CONTINUOUS
10
150.316
20
-129.958
11
150.439
21
-130.109
0
LINE
8
BLACK
6
CONTINUOUS
10
150.439
20
-130.109
11
150.531
21
-130.282
0
LINE
8
BLACK
6
CONTINUOUS
10
150.531
20
-130.282
11
150.587
21
-130.469
0
LINE
8
BLACK
6
CONTINUOUS
10
150.587
20
-130.469
11
150.606
21
-130.663
0
LINE
8
BLACK
6
CONTINUOUS
10
150.606
20
-130.663
11
150.606
21
-130.691
0
LINE
8
BLACK
6
CONTINUOUS
10
150.606
20
-130.691
11
150.581
21
-130.884
0
LINE
8
BLACK
6
CONTINUOUS
10
150.581
20
-130.884
11
150.52
21
-131.07
0
LINE
8
BLACK
6
CONTINUOUS
10
150.52
20
-131.07
11
150.423
21
-131.239
0
LINE
8
BLACK
6
CONTINUOUS
10
150.423
20
-131.239
11
150.296
21
-131.387
0
LINE
8
BLACK
6
CONTINUOUS
10
150.296
20
-131.387
11
150.142
21
-131.507
0
LINE
8
BLACK
6
CONTINUOUS
10
150.142
20
-131.507
11
149.968
21
-131.595
0
LINE
8
BLACK
6
CONTINUOUS
10
149.968
20
-131.595
11
149.78
21
-131.648
0
LINE
8
BLACK
6
CONTINUOUS
10
149.78
20
-131.648
11
149.585
21
-131.663
0
LINE
8
BLACK
6
CONTINUOUS
10
149.585
20
-131.663
11
149.391
21
-131.639
0
LINE
8
BLACK
6
CONTINUOUS
10
149.391
20
-131.639
11
149.206
21
-131.579
0
LINE
8
BLACK
6
CONTINUOUS
10
149.206
20
-131.579
11
149.035
21
-131.484
0
LINE
8
BLACK
6
CONTINUOUS
10
149.035
20
-131.484
11
148.887
21
-131.357
0
LINE
8
BLACK
6
CONTINUOUS
10
148.887
20
-131.357
11
148.765
21
-131.205
0
LINE
8
BLACK
6
CONTINUOUS
10
148.765
20
-131.205
11
148.676
21
-131.031
0
LINE
8
BLACK
6
CONTINUOUS
10
148.676
20
-131.031
11
148.622
21
-130.843
0
LINE
8
BLACK
6
CONTINUOUS
10
148.622
20
-130.843
11
148.606
21
-130.649
0
LINE
8
BLACK
6
CONTINUOUS
10
148.606
20
-130.649
11
148.628
21
-130.455
0
LINE
8
BLACK
6
CONTINUOUS
10
148.628
20
-130.455
11
148.687
21
-130.269
0
LINE
8
BLACK
6
CONTINUOUS
10
148.687
20
-130.269
11
148.781
21
-130.098
0
LINE
8
BLACK
6
CONTINUOUS
10
148.781
20
-130.098
11
148.906
21
-129.948
0
LINE
8
BLACK
6
CONTINUOUS
10
148.906
20
-129.948
11
149.058
21
-129.826
0
LINE
8
BLACK
6
CONTINUOUS
10
149.058
20
-129.826
11
149.231
21
-129.736
0
LINE
8
BLACK
6
CONTINUOUS
10
149.231
20
-129.736
11
149.419
21
-129.681
0
LINE
8
BLACK
6
CONTINUOUS
10
149.419
20
-129.681
11
149.613
21
-129.663
0
LINE
8
BLACK
6
CONTINUOUS
10
149.613
20
-129.663
11
149.807
21
-129.683
0
LINE
8
BLACK
6
CONTINUOUS
10
142.822
20
-129.683
11
143.009
21
-129.741
0
LINE
8
BLACK
6
CONTINUOUS
10
143.009
20
-129.741
11
143.18
21
-129.834
0
LINE
8
BLACK
6
CONTINUOUS
10
143.18
20
-129.834
11
143.331
21
-129.958
0
LINE
8
BLACK
6
CONTINUOUS
10
143.331
20
-129.958
11
143.454
21
-130.109
0
LINE
8
BLACK
6
CONTINUOUS
10
143.454
20
-130.109
11
143.546
21
-130.282
0
LINE
8
BLACK
6
CONTINUOUS
10
143.546
20
-130.282
11
143.602
21
-130.469
0
LINE
8
BLACK
6
CONTINUOUS
10
143.602
20
-130.469
11
143.621
21
-130.663
0
LINE
8
BLACK
6
CONTINUOUS
10
143.621
20
-130.663
11
143.621
21
-130.691
0
LINE
8
BLACK
6
CONTINUOUS
10
143.621
20
-130.691
11
143.596
21
-130.884
0
LINE
8
BLACK
6
CONTINUOUS
10
143.596
20
-130.884
11
143.535
21
-131.07
0
LINE
8
BLACK
6
CONTINUOUS
10
143.535
20
-131.07
11
143.438
21
-131.239
0
LINE
8
BLACK
6
CONTINUOUS
10
143.438
20
-131.239
11
143.311
21
-131.387
0
LINE
8
BLACK
6
CONTINUOUS
10
143.311
20
-131.387
11
143.157
21
-131.507
0
LINE
8
BLACK
6
CONTINUOUS
10
143.157
20
-131.507
11
142.983
21
-131.595
0
LINE
8
BLACK
6
CONTINUOUS
10
142.983
20
-131.595
11
142.795
21
-131.648
0
LINE
8
BLACK
6
CONTINUOUS
10
142.795
20
-131.648
11
142.6
21
-131.663
0
LINE
8
BLACK
6
CONTINUOUS
10
142.6
20
-131.663
11
142.406
21
-131.639
0
LINE
8
BLACK
6
CONTINUOUS
10
142.406
20
-131.639
11
142.221
21
-131.579
0
LINE
8
BLACK
6
CONTINUOUS
10
142.221
20
-131.579
11
142.05
21
-131.484
0
LINE
8
BLACK
6
CONTINUOUS
10
142.05
20
-131.484
11
141.902
21
-131.357
0
LINE
8
BLACK
6
CONTINUOUS
10
141.902
20
-131.357
11
141.78
21
-131.205
0
LINE
8
BLACK
6
CONTINUOUS
10
141.78
20
-131.205
11
141.691
21
-131.031
0
LINE
8
BLACK
6
CONTINUOUS
10
141.691
20
-131.031
11
141.637
21
-130.843
0
LINE
8
BLACK
6
CONTINUOUS
10
141.637
20
-130.843
11
141.621
21
-130.649
0
LINE
8
BLACK
6
CONTINUOUS
10
141.621
20
-130.649
11
141.643
21
-130.455
0
LINE
8
BLACK
6
CONTINUOUS
10
141.643
20
-130.455
11
141.702
21
-130.269
0
LINE
8
BLACK
6
CONTINUOUS
10
141.702
20
-130.269
11
141.796
21
-130.098
0
LINE
8
BLACK
6
CONTINUOUS
10
141.796
20
-130.098
11
141.921
21
-129.948
0
LINE
8
BLACK
6
CONTINUOUS
10
141.921
20
-129.948
11
142.073
21
-129.826
0
LINE
8
BLACK
6
CONTINUOUS
10
142.073
20
-129.826
11
142.246
21
-129.736
0
LINE
8
BLACK
6
CONTINUOUS
10
142.246
20
-129.736
11
142.434
21
-129.681
0
LINE
8
BLACK
6
CONTINUOUS
10
142.434
20
-129.681
11
142.628
21
-129.663
0
LINE
8
BLACK
6
CONTINUOUS
10
142.628
20
-129.663
11
142.822
21
-129.683
0
LINE
8
BLACK
6
CONTINUOUS
10
188.688
20
-128.635
11
188.914
21
-128.676
0
LINE
8
BLACK
6
CONTINUOUS
10
188.914
20
-128.676
11
189.13
21
-128.752
0
LINE
8
BLACK
6
CONTINUOUS
10
189.13
20
-128.752
11
189.331
21
-128.863
0
LINE
8
BLACK
6
CONTINUOUS
10
189.331
20
-128.863
11
189.511
21
-129.005
0
LINE
8
BLACK
6
CONTINUOUS
10
189.511
20
-129.005
11
189.665
21
-129.175
0
LINE
8
BLACK
6
CONTINUOUS
10
189.665
20
-129.175
11
189.79
21
-129.368
0
LINE
8
BLACK
6
CONTINUOUS
10
189.79
20
-129.368
11
189.881
21
-129.578
0
LINE
8
BLACK
6
CONTINUOUS
10
189.881
20
-129.578
11
189.937
21
-129.8
0
LINE
8
BLACK
6
CONTINUOUS
10
189.937
20
-129.8
11
189.956
21
-130.029
0
LINE
8
BLACK
6
CONTINUOUS
10
189.956
20
-130.029
11
189.954
21
-130.097
0
LINE
8
BLACK
6
CONTINUOUS
10
189.954
20
-130.097
11
189.924
21
-130.325
0
LINE
8
BLACK
6
CONTINUOUS
10
189.924
20
-130.325
11
189.858
21
-130.544
0
LINE
8
BLACK
6
CONTINUOUS
10
189.858
20
-130.544
11
189.756
21
-130.75
0
LINE
8
BLACK
6
CONTINUOUS
10
189.756
20
-130.75
11
189.622
21
-130.936
0
LINE
8
BLACK
6
CONTINUOUS
10
189.622
20
-130.936
11
189.46
21
-131.098
0
LINE
8
BLACK
6
CONTINUOUS
10
189.46
20
-131.098
11
189.273
21
-131.232
0
LINE
8
BLACK
6
CONTINUOUS
10
189.273
20
-131.232
11
189.067
21
-131.333
0
LINE
8
BLACK
6
CONTINUOUS
10
189.067
20
-131.333
11
188.847
21
-131.398
0
LINE
8
BLACK
6
CONTINUOUS
10
188.847
20
-131.398
11
188.62
21
-131.428
0
LINE
8
BLACK
6
CONTINUOUS
10
188.62
20
-131.428
11
188.39
21
-131.419
0
LINE
8
BLACK
6
CONTINUOUS
10
188.39
20
-131.419
11
188.165
21
-131.373
0
LINE
8
BLACK
6
CONTINUOUS
10
188.165
20
-131.373
11
187.951
21
-131.292
0
LINE
8
BLACK
6
CONTINUOUS
10
187.951
20
-131.292
11
187.753
21
-131.176
0
LINE
8
BLACK
6
CONTINUOUS
10
187.753
20
-131.176
11
187.576
21
-131.029
0
LINE
8
BLACK
6
CONTINUOUS
10
187.576
20
-131.029
11
187.426
21
-130.856
0
LINE
8
BLACK
6
CONTINUOUS
10
187.426
20
-130.856
11
187.306
21
-130.66
0
LINE
8
BLACK
6
CONTINUOUS
10
187.306
20
-130.66
11
187.22
21
-130.448
0
LINE
8
BLACK
6
CONTINUOUS
10
187.22
20
-130.448
11
187.17
21
-130.224
0
LINE
8
BLACK
6
CONTINUOUS
10
187.17
20
-130.224
11
187.156
21
-129.995
0
LINE
8
BLACK
6
CONTINUOUS
10
187.156
20
-129.995
11
187.181
21
-129.767
0
LINE
8
BLACK
6
CONTINUOUS
10
187.181
20
-129.767
11
187.242
21
-129.546
0
LINE
8
BLACK
6
CONTINUOUS
10
187.242
20
-129.546
11
187.339
21
-129.338
0
LINE
8
BLACK
6
CONTINUOUS
10
187.339
20
-129.338
11
187.468
21
-129.148
0
LINE
8
BLACK
6
CONTINUOUS
10
187.468
20
-129.148
11
187.627
21
-128.982
0
LINE
8
BLACK
6
CONTINUOUS
10
187.627
20
-128.982
11
187.81
21
-128.844
0
LINE
8
BLACK
6
CONTINUOUS
10
187.81
20
-128.844
11
188.013
21
-128.738
0
LINE
8
BLACK
6
CONTINUOUS
10
188.013
20
-128.738
11
188.232
21
-128.667
0
LINE
8
BLACK
6
CONTINUOUS
10
188.232
20
-128.667
11
188.458
21
-128.632
0
LINE
8
BLACK
6
CONTINUOUS
10
188.458
20
-128.632
11
188.688
21
-128.635
0
LINE
8
BLACK
6
CONTINUOUS
10
199.688
20
-128.635
11
199.914
21
-128.676
0
LINE
8
BLACK
6
CONTINUOUS
10
199.914
20
-128.676
11
200.13
21
-128.752
0
LINE
8
BLACK
6
CONTINUOUS
10
200.13
20
-128.752
11
200.331
21
-128.863
0
LINE
8
BLACK
6
CONTINUOUS
10
200.331
20
-128.863
11
200.511
21
-129.005
0
LINE
8
BLACK
6
CONTINUOUS
10
200.511
20
-129.005
11
200.665
21
-129.175
0
LINE
8
BLACK
6
CONTINUOUS
10
200.665
20
-129.175
11
200.79
21
-129.368
0
LINE
8
BLACK
6
CONTINUOUS
10
200.79
20
-129.368
11
200.881
21
-129.578
0
LINE
8
BLACK
6
CONTINUOUS
10
200.881
20
-129.578
11
200.937
21
-129.8
0
LINE
8
BLACK
6
CONTINUOUS
10
200.937
20
-129.8
11
200.956
21
-130.029
0
LINE
8
BLACK
6
CONTINUOUS
10
200.956
20
-130.029
11
200.954
21
-130.097
0
LINE
8
BLACK
6
CONTINUOUS
10
200.954
20
-130.097
11
200.924
21
-130.325
0
LINE
8
BLACK
6
CONTINUOUS
10
200.924
20
-130.325
11
200.858
21
-130.544
0
LINE
8
BLACK
6
CONTINUOUS
10
200.858
20
-130.544
11
200.756
21
-130.75
0
LINE
8
BLACK
6
CONTINUOUS
10
200.756
20
-130.75
11
200.622
21
-130.936
0
LINE
8
BLACK
6
CONTINUOUS
10
200.622
20
-130.936
11
200.46
21
-131.098
0
LINE
8
BLACK
6
CONTINUOUS
10
200.46
20
-131.098
11
200.273
21
-131.232
0
LINE
8
BLACK
6
CONTINUOUS
10
200.273
20
-131.232
11
200.067
21
-131.333
0
LINE
8
BLACK
6
CONTINUOUS
10
200.067
20
-131.333
11
199.847
21
-131.398
0
LINE
8
BLACK
6
CONTINUOUS
10
199.847
20
-131.398
11
199.62
21
-131.428
0
LINE
8
BLACK
6
CONTINUOUS
10
199.62
20
-131.428
11
199.39
21
-131.419
0
LINE
8
BLACK
6
CONTINUOUS
10
199.39
20
-131.419
11
199.165
21
-131.373
0
LINE
8
BLACK
6
CONTINUOUS
10
199.165
20
-131.373
11
198.951
21
-131.292
0
LINE
8
BLACK
6
CONTINUOUS
10
198.951
20
-131.292
11
198.753
21
-131.176
0
LINE
8
BLACK
6
CONTINUOUS
10
198.753
20
-131.176
11
198.576
21
-131.029
0
LINE
8
BLACK
6
CONTINUOUS
10
198.576
20
-131.029
11
198.426
21
-130.856
0
LINE
8
BLACK
6
CONTINUOUS
10
198.426
20
-130.856
11
198.306
21
-130.66
0
LINE
8
BLACK
6
CONTINUOUS
10
198.306
20
-130.66
11
198.22
21
-130.448
0
LINE
8
BLACK
6
CONTINUOUS
10
198.22
20
-130.448
11
198.17
21
-130.224
0
LINE
8
BLACK
6
CONTINUOUS
10
198.17
20
-130.224
11
198.156
21
-129.995
0
LINE
8
BLACK
6
CONTINUOUS
10
198.156
20
-129.995
11
198.181
21
-129.767
0
LINE
8
BLACK
6
CONTINUOUS
10
198.181
20
-129.767
11
198.242
21
-129.546
0
LINE
8
BLACK
6
CONTINUOUS
10
198.242
20
-129.546
11
198.339
21
-129.338
0
LINE
8
BLACK
6
CONTINUOUS
10
198.339
20
-129.338
11
198.468
21
-129.148
0
LINE
8
BLACK
6
CONTINUOUS
10
198.468
20
-129.148
11
198.627
21
-128.982
0
LINE
8
BLACK
6
CONTINUOUS
10
198.627
20
-128.982
11
198.81
21
-128.844
0
LINE
8
BLACK
6
CONTINUOUS
10
198.81
20
-128.844
11
199.013
21
-128.738
0
LINE
8
BLACK
6
CONTINUOUS
10
199.013
20
-128.738
11
199.232
21
-128.667
0
LINE
8
BLACK
6
CONTINUOUS
10
199.232
20
-128.667
11
199.458
21
-128.632
0
LINE
8
BLACK
6
CONTINUOUS
10
199.458
20
-128.632
11
199.688
21
-128.635
0
LINE
8
BLACK
6
CONTINUOUS
10
120.659
20
-127.314
11
120.821
21
-127.387
0
LINE
8
BLACK
6
CONTINUOUS
10
120.821
20
-127.387
11
120.965
21
-127.491
0
LINE
8
BLACK
6
CONTINUOUS
10
120.965
20
-127.491
11
121.084
21
-127.623
0
LINE
8
BLACK
6
CONTINUOUS
10
121.084
20
-127.623
11
121.173
21
-127.777
0
LINE
8
BLACK
6
CONTINUOUS
10
121.173
20
-127.777
11
121.227
21
-127.946
0
LINE
8
BLACK
6
CONTINUOUS
10
121.227
20
-127.946
11
121.246
21
-128.123
0
LINE
8
BLACK
6
CONTINUOUS
10
121.246
20
-128.123
11
121.227
21
-128.3
0
LINE
8
BLACK
6
CONTINUOUS
10
121.227
20
-128.3
11
121.173
21
-128.469
0
LINE
8
BLACK
6
CONTINUOUS
10
121.173
20
-128.469
11
121.084
21
-128.622
0
LINE
8
BLACK
6
CONTINUOUS
10
121.084
20
-128.622
11
120.965
21
-128.754
0
LINE
8
BLACK
6
CONTINUOUS
10
120.965
20
-128.754
11
120.821
21
-128.859
0
LINE
8
BLACK
6
CONTINUOUS
10
120.821
20
-128.859
11
120.659
21
-128.931
0
LINE
8
BLACK
6
CONTINUOUS
10
120.659
20
-128.931
11
120.485
21
-128.968
0
LINE
8
BLACK
6
CONTINUOUS
10
120.485
20
-128.968
11
120.307
21
-128.968
0
LINE
8
BLACK
6
CONTINUOUS
10
120.307
20
-128.968
11
120.133
21
-128.931
0
LINE
8
BLACK
6
CONTINUOUS
10
120.133
20
-128.931
11
119.971
21
-128.859
0
LINE
8
BLACK
6
CONTINUOUS
10
119.971
20
-128.859
11
119.827
21
-128.754
0
LINE
8
BLACK
6
CONTINUOUS
10
119.827
20
-128.754
11
119.708
21
-128.622
0
LINE
8
BLACK
6
CONTINUOUS
10
119.708
20
-128.622
11
119.619
21
-128.469
0
LINE
8
BLACK
6
CONTINUOUS
10
119.619
20
-128.469
11
119.565
21
-128.3
0
LINE
8
BLACK
6
CONTINUOUS
10
119.565
20
-128.3
11
119.546
21
-128.123
0
LINE
8
BLACK
6
CONTINUOUS
10
119.546
20
-128.123
11
119.565
21
-127.946
0
LINE
8
BLACK
6
CONTINUOUS
10
119.565
20
-127.946
11
119.619
21
-127.777
0
LINE
8
BLACK
6
CONTINUOUS
10
119.619
20
-127.777
11
119.708
21
-127.623
0
LINE
8
BLACK
6
CONTINUOUS
10
119.708
20
-127.623
11
119.827
21
-127.491
0
LINE
8
BLACK
6
CONTINUOUS
10
119.827
20
-127.491
11
119.971
21
-127.387
0
LINE
8
BLACK
6
CONTINUOUS
10
119.971
20
-127.387
11
120.133
21
-127.314
0
LINE
8
BLACK
6
CONTINUOUS
10
120.133
20
-127.314
11
120.307
21
-127.277
0
LINE
8
BLACK
6
CONTINUOUS
10
120.307
20
-127.277
11
120.485
21
-127.277
0
LINE
8
BLACK
6
CONTINUOUS
10
120.485
20
-127.277
11
120.659
21
-127.314
0
LINE
8
BLACK
6
CONTINUOUS
10
115.579
20
-127.314
11
115.741
21
-127.387
0
LINE
8
BLACK
6
CONTINUOUS
10
115.741
20
-127.387
11
115.885
21
-127.491
0
LINE
8
BLACK
6
CONTINUOUS
10
115.885
20
-127.491
11
116.004
21
-127.623
0
LINE
8
BLACK
6
CONTINUOUS
10
116.004
20
-127.623
11
116.093
21
-127.777
0
LINE
8
BLACK
6
CONTINUOUS
10
116.093
20
-127.777
11
116.147
21
-127.946
0
LINE
8
BLACK
6
CONTINUOUS
10
116.147
20
-127.946
11
116.166
21
-128.123
0
LINE
8
BLACK
6
CONTINUOUS
10
116.166
20
-128.123
11
116.147
21
-128.3
0
LINE
8
BLACK
6
CONTINUOUS
10
116.147
20
-128.3
11
116.093
21
-128.469
0
LINE
8
BLACK
6
CONTINUOUS
10
116.093
20
-128.469
11
116.004
21
-128.622
0
LINE
8
BLACK
6
CONTINUOUS
10
116.004
20
-128.622
11
115.885
21
-128.754
0
LINE
8
BLACK
6
CONTINUOUS
10
115.885
20
-128.754
11
115.741
21
-128.859
0
LINE
8
BLACK
6
CONTINUOUS
10
115.741
20
-128.859
11
115.579
21
-128.931
0
LINE
8
BLACK
6
CONTINUOUS
10
115.579
20
-128.931
11
115.405
21
-128.968
0
LINE
8
BLACK
6
CONTINUOUS
10
115.405
20
-128.968
11
115.227
21
-128.968
0
LINE
8
BLACK
6
CONTINUOUS
10
115.227
20
-128.968
11
115.053
21
-128.931
0
LINE
8
BLACK
6
CONTINUOUS
10
115.053
20
-128.931
11
114.891
21
-128.859
0
LINE
8
BLACK
6
CONTINUOUS
10
114.891
20
-128.859
11
114.747
21
-128.754
0
LINE
8
BLACK
6
CONTINUOUS
10
114.747
20
-128.754
11
114.628
21
-128.622
0
LINE
8
BLACK
6
CONTINUOUS
10
114.628
20
-128.622
11
114.539
21
-128.469
0
LINE
8
BLACK
6
CONTINUOUS
10
114.539
20
-128.469
11
114.485
21
-128.3
0
LINE
8
BLACK
6
CONTINUOUS
10
114.485
20
-128.3
11
114.466
21
-128.123
0
LINE
8
BLACK
6
CONTINUOUS
10
114.466
20
-128.123
11
114.485
21
-127.946
0
LINE
8
BLACK
6
CONTINUOUS
10
114.485
20
-127.946
11
114.539
21
-127.777
0
LINE
8
BLACK
6
CONTINUOUS
10
114.539
20
-127.777
11
114.628
21
-127.623
0
LINE
8
BLACK
6
CONTINUOUS
10
114.628
20
-127.623
11
114.747
21
-127.491
0
LINE
8
BLACK
6
CONTINUOUS
10
114.747
20
-127.491
11
114.891
21
-127.387
0
LINE
8
BLACK
6
CONTINUOUS
10
114.891
20
-127.387
11
115.053
21
-127.314
0
LINE
8
BLACK
6
CONTINUOUS
10
115.053
20
-127.314
11
115.227
21
-127.277
0
LINE
8
BLACK
6
CONTINUOUS
10
115.227
20
-127.277
11
115.405
21
-127.277
0
LINE
8
BLACK
6
CONTINUOUS
10
115.405
20
-127.277
11
115.579
21
-127.314
0
LINE
8
BLACK
6
CONTINUOUS
10
118.119
20
-127.314
11
118.281
21
-127.387
0
LINE
8
BLACK
6
CONTINUOUS
10
118.281
20
-127.387
11
118.425
21
-127.491
0
LINE
8
BLACK
6
CONTINUOUS
10
118.425
20
-127.491
11
118.544
21
-127.623
0
LINE
8
BLACK
6
CONTINUOUS
10
118.544
20
-127.623
11
118.633
21
-127.777
0
LINE
8
BLACK
6
CONTINUOUS
10
118.633
20
-127.777
11
118.687
21
-127.946
0
LINE
8
BLACK
6
CONTINUOUS
10
118.687
20
-127.946
11
118.706
21
-128.123
0
LINE
8
BLACK
6
CONTINUOUS
10
118.706
20
-128.123
11
118.687
21
-128.3
0
LINE
8
BLACK
6
CONTINUOUS
10
118.687
20
-128.3
11
118.633
21
-128.469
0
LINE
8
BLACK
6
CONTINUOUS
10
118.633
20
-128.469
11
118.544
21
-128.622
0
LINE
8
BLACK
6
CONTINUOUS
10
118.544
20
-128.622
11
118.425
21
-128.754
0
LINE
8
BLACK
6
CONTINUOUS
10
118.425
20
-128.754
11
118.281
21
-128.859
0
LINE
8
BLACK
6
CONTINUOUS
10
118.281
20
-128.859
11
118.119
21
-128.931
0
LINE
8
BLACK
6
CONTINUOUS
10
118.119
20
-128.931
11
117.945
21
-128.968
0
LINE
8
BLACK
6
CONTINUOUS
10
117.945
20
-128.968
11
117.767
21
-128.968
0
LINE
8
BLACK
6
CONTINUOUS
10
117.767
20
-128.968
11
117.593
21
-128.931
0
LINE
8
BLACK
6
CONTINUOUS
10
117.593
20
-128.931
11
117.431
21
-128.859
0
LINE
8
BLACK
6
CONTINUOUS
10
117.431
20
-128.859
11
117.287
21
-128.754
0
LINE
8
BLACK
6
CONTINUOUS
10
117.287
20
-128.754
11
117.168
21
-128.622
0
LINE
8
BLACK
6
CONTINUOUS
10
117.168
20
-128.622
11
117.079
21
-128.469
0
LINE
8
BLACK
6
CONTINUOUS
10
117.079
20
-128.469
11
117.025
21
-128.3
0
LINE
8
BLACK
6
CONTINUOUS
10
117.025
20
-128.3
11
117.006
21
-128.123
0
LINE
8
BLACK
6
CONTINUOUS
10
117.006
20
-128.123
11
117.025
21
-127.946
0
LINE
8
BLACK
6
CONTINUOUS
10
117.025
20
-127.946
11
117.079
21
-127.777
0
LINE
8
BLACK
6
CONTINUOUS
10
117.079
20
-127.777
11
117.168
21
-127.623
0
LINE
8
BLACK
6
CONTINUOUS
10
117.168
20
-127.623
11
117.287
21
-127.491
0
LINE
8
BLACK
6
CONTINUOUS
10
117.287
20
-127.491
11
117.431
21
-127.387
0
LINE
8
BLACK
6
CONTINUOUS
10
117.431
20
-127.387
11
117.593
21
-127.314
0
LINE
8
BLACK
6
CONTINUOUS
10
117.593
20
-127.314
11
117.767
21
-127.277
0
LINE
8
BLACK
6
CONTINUOUS
10
117.767
20
-127.277
11
117.945
21
-127.277
0
LINE
8
BLACK
6
CONTINUOUS
10
117.945
20
-127.277
11
118.119
21
-127.314
0
LINE
8
BLACK
6
CONTINUOUS
10
123.199
20
-127.314
11
123.361
21
-127.387
0
LINE
8
BLACK
6
CONTINUOUS
10
123.361
20
-127.387
11
123.505
21
-127.491
0
LINE
8
BLACK
6
CONTINUOUS
10
123.505
20
-127.491
11
123.624
21
-127.623
0
LINE
8
BLACK
6
CONTINUOUS
10
123.624
20
-127.623
11
123.713
21
-127.777
0
LINE
8
BLACK
6
CONTINUOUS
10
123.713
20
-127.777
11
123.767
21
-127.946
0
LINE
8
BLACK
6
CONTINUOUS
10
123.767
20
-127.946
11
123.786
21
-128.123
0
LINE
8
BLACK
6
CONTINUOUS
10
123.786
20
-128.123
11
123.767
21
-128.3
0
LINE
8
BLACK
6
CONTINUOUS
10
123.767
20
-128.3
11
123.713
21
-128.469
0
LINE
8
BLACK
6
CONTINUOUS
10
123.713
20
-128.469
11
123.624
21
-128.622
0
LINE
8
BLACK
6
CONTINUOUS
10
123.624
20
-128.622
11
123.505
21
-128.754
0
LINE
8
BLACK
6
CONTINUOUS
10
123.505
20
-128.754
11
123.361
21
-128.859
0
LINE
8
BLACK
6
CONTINUOUS
10
123.361
20
-128.859
11
123.199
21
-128.931
0
LINE
8
BLACK
6
CONTINUOUS
10
123.199
20
-128.931
11
123.025
21
-128.968
0
LINE
8
BLACK
6
CONTINUOUS
10
123.025
20
-128.968
11
122.847
21
-128.968
0
LINE
8
BLACK
6
CONTINUOUS
10
122.847
20
-128.968
11
122.673
21
-128.931
0
LINE
8
BLACK
6
CONTINUOUS
10
122.673
20
-128.931
11
122.511
21
-128.859
0
LINE
8
BLACK
6
CONTINUOUS
10
122.511
20
-128.859
11
122.367
21
-128.754
0
LINE
8
BLACK
6
CONTINUOUS
10
122.367
20
-128.754
11
122.248
21
-128.622
0
LINE
8
BLACK
6
CONTINUOUS
10
122.248
20
-128.622
11
122.159
21
-128.469
0
LINE
8
BLACK
6
CONTINUOUS
10
122.159
20
-128.469
11
122.105
21
-128.3
0
LINE
8
BLACK
6
CONTINUOUS
10
122.105
20
-128.3
11
122.086
21
-128.123
0
LINE
8
BLACK
6
CONTINUOUS
10
122.086
20
-128.123
11
122.105
21
-127.946
0
LINE
8
BLACK
6
CONTINUOUS
10
122.105
20
-127.946
11
122.159
21
-127.777
0
LINE
8
BLACK
6
CONTINUOUS
10
122.159
20
-127.777
11
122.248
21
-127.623
0
LINE
8
BLACK
6
CONTINUOUS
10
122.248
20
-127.623
11
122.367
21
-127.491
0
LINE
8
BLACK
6
CONTINUOUS
10
122.367
20
-127.491
11
122.511
21
-127.387
0
LINE
8
BLACK
6
CONTINUOUS
10
122.511
20
-127.387
11
122.673
21
-127.314
0
LINE
8
BLACK
6
CONTINUOUS
10
122.673
20
-127.314
11
122.847
21
-127.277
0
LINE
8
BLACK
6
CONTINUOUS
10
122.847
20
-127.277
11
123.025
21
-127.277
0
LINE
8
BLACK
6
CONTINUOUS
10
123.025
20
-127.277
11
123.199
21
-127.314
0
LINE
8
BLACK
6
CONTINUOUS
10
125.739
20
-127.314
11
125.901
21
-127.387
0
LINE
8
BLACK
6
CONTINUOUS
10
125.901
20
-127.387
11
126.045
21
-127.491
0
LINE
8
BLACK
6
CONTINUOUS
10
126.045
20
-127.491
11
126.164
21
-127.623
0
LINE
8
BLACK
6
CONTINUOUS
10
126.164
20
-127.623
11
126.253
21
-127.777
0
LINE
8
BLACK
6
CONTINUOUS
10
126.253
20
-127.777
11
126.307
21
-127.946
0
LINE
8
BLACK
6
CONTINUOUS
10
126.307
20
-127.946
11
126.326
21
-128.123
0
LINE
8
BLACK
6
CONTINUOUS
10
126.326
20
-128.123
11
126.307
21
-128.3
0
LINE
8
BLACK
6
CONTINUOUS
10
126.307
20
-128.3
11
126.253
21
-128.469
0
LINE
8
BLACK
6
CONTINUOUS
10
126.253
20
-128.469
11
126.164
21
-128.622
0
LINE
8
BLACK
6
CONTINUOUS
10
126.164
20
-128.622
11
126.045
21
-128.754
0
LINE
8
BLACK
6
CONTINUOUS
10
126.045
20
-128.754
11
125.901
21
-128.859
0
LINE
8
BLACK
6
CONTINUOUS
10
125.901
20
-128.859
11
125.739
21
-128.931
0
LINE
8
BLACK
6
CONTINUOUS
10
125.739
20
-128.931
11
125.565
21
-128.968
0
LINE
8
BLACK
6
CONTINUOUS
10
125.565
20
-128.968
11
125.387
21
-128.968
0
LINE
8
BLACK
6
CONTINUOUS
10
125.387
20
-128.968
11
125.213
21
-128.931
0
LINE
8
BLACK
6
CONTINUOUS
10
125.213
20
-128.931
11
125.051
21
-128.859
0
LINE
8
BLACK
6
CONTINUOUS
10
125.051
20
-128.859
11
124.907
21
-128.754
0
LINE
8
BLACK
6
CONTINUOUS
10
124.907
20
-128.754
11
124.788
21
-128.622
0
LINE
8
BLACK
6
CONTINUOUS
10
124.788
20
-128.622
11
124.699
21
-128.469
0
LINE
8
BLACK
6
CONTINUOUS
10
124.699
20
-128.469
11
124.645
21
-128.3
0
LINE
8
BLACK
6
CONTINUOUS
10
124.645
20
-128.3
11
124.626
21
-128.123
0
LINE
8
BLACK
6
CONTINUOUS
10
124.626
20
-128.123
11
124.645
21
-127.946
0
LINE
8
BLACK
6
CONTINUOUS
10
124.645
20
-127.946
11
124.699
21
-127.777
0
LINE
8
BLACK
6
CONTINUOUS
10
124.699
20
-127.777
11
124.788
21
-127.623
0
LINE
8
BLACK
6
CONTINUOUS
10
124.788
20
-127.623
11
124.907
21
-127.491
0
LINE
8
BLACK
6
CONTINUOUS
10
124.907
20
-127.491
11
125.051
21
-127.387
0
LINE
8
BLACK
6
CONTINUOUS
10
125.051
20
-127.387
11
125.213
21
-127.314
0
LINE
8
BLACK
6
CONTINUOUS
10
125.213
20
-127.314
11
125.387
21
-127.277
0
LINE
8
BLACK
6
CONTINUOUS
10
125.387
20
-127.277
11
125.565
21
-127.277
0
LINE
8
BLACK
6
CONTINUOUS
10
125.565
20
-127.277
11
125.739
21
-127.314
0
LINE
8
BLACK
6
CONTINUOUS
10
203.714
20
-124.609
11
203.94
21
-124.649
0
LINE
8
BLACK
6
CONTINUOUS
10
203.94
20
-124.649
11
204.156
21
-124.726
0
LINE
8
BLACK
6
CONTINUOUS
10
204.156
20
-124.726
11
204.357
21
-124.837
0
LINE
8
BLACK
6
CONTINUOUS
10
204.357
20
-124.837
11
204.537
21
-124.979
0
LINE
8
BLACK
6
CONTINUOUS
10
204.537
20
-124.979
11
204.691
21
-125.149
0
LINE
8
BLACK
6
CONTINUOUS
10
204.691
20
-125.149
11
204.816
21
-125.341
0
LINE
8
BLACK
6
CONTINUOUS
10
204.816
20
-125.341
11
204.908
21
-125.552
0
LINE
8
BLACK
6
CONTINUOUS
10
204.908
20
-125.552
11
204.963
21
-125.774
0
LINE
8
BLACK
6
CONTINUOUS
10
204.963
20
-125.774
11
204.982
21
-126.003
0
LINE
8
BLACK
6
CONTINUOUS
10
204.982
20
-126.003
11
204.981
21
-126.071
0
LINE
8
BLACK
6
CONTINUOUS
10
204.981
20
-126.071
11
204.951
21
-126.299
0
LINE
8
BLACK
6
CONTINUOUS
10
204.951
20
-126.299
11
204.884
21
-126.518
0
LINE
8
BLACK
6
CONTINUOUS
10
204.884
20
-126.518
11
204.782
21
-126.724
0
LINE
8
BLACK
6
CONTINUOUS
10
204.782
20
-126.724
11
204.648
21
-126.91
0
LINE
8
BLACK
6
CONTINUOUS
10
204.648
20
-126.91
11
204.486
21
-127.072
0
LINE
8
BLACK
6
CONTINUOUS
10
204.486
20
-127.072
11
204.299
21
-127.205
0
LINE
8
BLACK
6
CONTINUOUS
10
204.299
20
-127.205
11
204.093
21
-127.306
0
LINE
8
BLACK
6
CONTINUOUS
10
204.093
20
-127.306
11
203.873
21
-127.372
0
LINE
8
BLACK
6
CONTINUOUS
10
203.873
20
-127.372
11
203.646
21
-127.401
0
LINE
8
BLACK
6
CONTINUOUS
10
203.646
20
-127.401
11
203.417
21
-127.393
0
LINE
8
BLACK
6
CONTINUOUS
10
203.417
20
-127.393
11
203.192
21
-127.347
0
LINE
8
BLACK
6
CONTINUOUS
10
203.192
20
-127.347
11
202.977
21
-127.265
0
LINE
8
BLACK
6
CONTINUOUS
10
202.977
20
-127.265
11
202.779
21
-127.15
0
LINE
8
BLACK
6
CONTINUOUS
10
202.779
20
-127.15
11
202.603
21
-127.003
0
LINE
8
BLACK
6
CONTINUOUS
10
202.603
20
-127.003
11
202.453
21
-126.83
0
LINE
8
BLACK
6
CONTINUOUS
10
202.453
20
-126.83
11
202.333
21
-126.634
0
LINE
8
BLACK
6
CONTINUOUS
10
202.333
20
-126.634
11
202.246
21
-126.421
0
LINE
8
BLACK
6
CONTINUOUS
10
202.246
20
-126.421
11
202.196
21
-126.198
0
LINE
8
BLACK
6
CONTINUOUS
10
202.196
20
-126.198
11
202.183
21
-125.969
0
LINE
8
BLACK
6
CONTINUOUS
10
202.183
20
-125.969
11
202.207
21
-125.74
0
LINE
8
BLACK
6
CONTINUOUS
10
202.207
20
-125.74
11
202.268
21
-125.519
0
LINE
8
BLACK
6
CONTINUOUS
10
202.268
20
-125.519
11
202.365
21
-125.311
0
LINE
8
BLACK
6
CONTINUOUS
10
202.365
20
-125.311
11
202.494
21
-125.122
0
LINE
8
BLACK
6
CONTINUOUS
10
202.494
20
-125.122
11
202.653
21
-124.956
0
LINE
8
BLACK
6
CONTINUOUS
10
202.653
20
-124.956
11
202.836
21
-124.818
0
LINE
8
BLACK
6
CONTINUOUS
10
202.836
20
-124.818
11
203.04
21
-124.712
0
LINE
8
BLACK
6
CONTINUOUS
10
203.04
20
-124.712
11
203.258
21
-124.641
0
LINE
8
BLACK
6
CONTINUOUS
10
203.258
20
-124.641
11
203.485
21
-124.606
0
LINE
8
BLACK
6
CONTINUOUS
10
203.485
20
-124.606
11
203.714
21
-124.609
0
LINE
8
BLACK
6
CONTINUOUS
10
184.661
20
-124.609
11
184.887
21
-124.649
0
LINE
8
BLACK
6
CONTINUOUS
10
184.887
20
-124.649
11
185.104
21
-124.726
0
LINE
8
BLACK
6
CONTINUOUS
10
185.104
20
-124.726
11
185.304
21
-124.837
0
LINE
8
BLACK
6
CONTINUOUS
10
185.304
20
-124.837
11
185.485
21
-124.979
0
LINE
8
BLACK
6
CONTINUOUS
10
185.485
20
-124.979
11
185.639
21
-125.149
0
LINE
8
BLACK
6
CONTINUOUS
10
185.639
20
-125.149
11
185.764
21
-125.341
0
LINE
8
BLACK
6
CONTINUOUS
10
185.764
20
-125.341
11
185.855
21
-125.552
0
LINE
8
BLACK
6
CONTINUOUS
10
185.855
20
-125.552
11
185.911
21
-125.774
0
LINE
8
BLACK
6
CONTINUOUS
10
185.911
20
-125.774
11
185.93
21
-126.003
0
LINE
8
BLACK
6
CONTINUOUS
10
185.93
20
-126.003
11
185.928
21
-126.071
0
LINE
8
BLACK
6
CONTINUOUS
10
185.928
20
-126.071
11
185.898
21
-126.299
0
LINE
8
BLACK
6
CONTINUOUS
10
185.898
20
-126.299
11
185.831
21
-126.518
0
LINE
8
BLACK
6
CONTINUOUS
10
185.831
20
-126.518
11
185.73
21
-126.724
0
LINE
8
BLACK
6
CONTINUOUS
10
185.73
20
-126.724
11
185.596
21
-126.91
0
LINE
8
BLACK
6
CONTINUOUS
10
185.596
20
-126.91
11
185.433
21
-127.072
0
LINE
8
BLACK
6
CONTINUOUS
10
185.433
20
-127.072
11
185.247
21
-127.205
0
LINE
8
BLACK
6
CONTINUOUS
10
185.247
20
-127.205
11
185.041
21
-127.306
0
LINE
8
BLACK
6
CONTINUOUS
10
185.041
20
-127.306
11
184.821
21
-127.372
0
LINE
8
BLACK
6
CONTINUOUS
10
184.821
20
-127.372
11
184.593
21
-127.401
0
LINE
8
BLACK
6
CONTINUOUS
10
184.593
20
-127.401
11
184.364
21
-127.393
0
LINE
8
BLACK
6
CONTINUOUS
10
184.364
20
-127.393
11
184.139
21
-127.347
0
LINE
8
BLACK
6
CONTINUOUS
10
184.139
20
-127.347
11
183.925
21
-127.265
0
LINE
8
BLACK
6
CONTINUOUS
10
183.925
20
-127.265
11
183.727
21
-127.15
0
LINE
8
BLACK
6
CONTINUOUS
10
183.727
20
-127.15
11
183.55
21
-127.003
0
LINE
8
BLACK
6
CONTINUOUS
10
183.55
20
-127.003
11
183.4
21
-126.83
0
LINE
8
BLACK
6
CONTINUOUS
10
183.4
20
-126.83
11
183.28
21
-126.634
0
LINE
8
BLACK
6
CONTINUOUS
10
183.28
20
-126.634
11
183.194
21
-126.421
0
LINE
8
BLACK
6
CONTINUOUS
10
183.194
20
-126.421
11
183.143
21
-126.198
0
LINE
8
BLACK
6
CONTINUOUS
10
183.143
20
-126.198
11
183.13
21
-125.969
0
LINE
8
BLACK
6
CONTINUOUS
10
183.13
20
-125.969
11
183.155
21
-125.74
0
LINE
8
BLACK
6
CONTINUOUS
10
183.155
20
-125.74
11
183.216
21
-125.519
0
LINE
8
BLACK
6
CONTINUOUS
10
183.216
20
-125.519
11
183.312
21
-125.311
0
LINE
8
BLACK
6
CONTINUOUS
10
183.312
20
-125.311
11
183.442
21
-125.122
0
LINE
8
BLACK
6
CONTINUOUS
10
183.442
20
-125.122
11
183.6
21
-124.956
0
LINE
8
BLACK
6
CONTINUOUS
10
183.6
20
-124.956
11
183.784
21
-124.818
0
LINE
8
BLACK
6
CONTINUOUS
10
183.784
20
-124.818
11
183.987
21
-124.712
0
LINE
8
BLACK
6
CONTINUOUS
10
183.987
20
-124.712
11
184.205
21
-124.641
0
LINE
8
BLACK
6
CONTINUOUS
10
184.205
20
-124.641
11
184.432
21
-124.606
0
LINE
8
BLACK
6
CONTINUOUS
10
184.432
20
-124.606
11
184.661
21
-124.609
0
LINE
8
BLACK
6
CONTINUOUS
10
149.823
20
-123.972
11
150.034
21
-124.028
0
LINE
8
BLACK
6
CONTINUOUS
10
150.034
20
-124.028
11
150.231
21
-124.12
0
LINE
8
BLACK
6
CONTINUOUS
10
150.231
20
-124.12
11
150.409
21
-124.245
0
LINE
8
BLACK
6
CONTINUOUS
10
150.409
20
-124.245
11
150.564
21
-124.399
0
LINE
8
BLACK
6
CONTINUOUS
10
150.564
20
-124.399
11
150.689
21
-124.578
0
LINE
8
BLACK
6
CONTINUOUS
10
150.689
20
-124.578
11
150.781
21
-124.775
0
LINE
8
BLACK
6
CONTINUOUS
10
150.781
20
-124.775
11
150.837
21
-124.986
0
LINE
8
BLACK
6
CONTINUOUS
10
150.837
20
-124.986
11
150.856
21
-125.203
0
LINE
8
BLACK
6
CONTINUOUS
10
150.856
20
-125.203
11
150.837
21
-125.42
0
LINE
8
BLACK
6
CONTINUOUS
10
150.837
20
-125.42
11
150.781
21
-125.63
0
LINE
8
BLACK
6
CONTINUOUS
10
150.781
20
-125.63
11
150.689
21
-125.828
0
LINE
8
BLACK
6
CONTINUOUS
10
150.689
20
-125.828
11
150.564
21
-126.006
0
LINE
8
BLACK
6
CONTINUOUS
10
150.564
20
-126.006
11
150.409
21
-126.16
0
LINE
8
BLACK
6
CONTINUOUS
10
150.409
20
-126.16
11
150.231
21
-126.285
0
LINE
8
BLACK
6
CONTINUOUS
10
150.231
20
-126.285
11
150.034
21
-126.377
0
LINE
8
BLACK
6
CONTINUOUS
10
150.034
20
-126.377
11
149.823
21
-126.434
0
LINE
8
BLACK
6
CONTINUOUS
10
149.823
20
-126.434
11
149.606
21
-126.453
0
LINE
8
BLACK
6
CONTINUOUS
10
149.606
20
-126.453
11
149.389
21
-126.434
0
LINE
8
BLACK
6
CONTINUOUS
10
149.389
20
-126.434
11
149.178
21
-126.377
0
LINE
8
BLACK
6
CONTINUOUS
10
149.178
20
-126.377
11
148.981
21
-126.285
0
LINE
8
BLACK
6
CONTINUOUS
10
148.981
20
-126.285
11
148.803
21
-126.16
0
LINE
8
BLACK
6
CONTINUOUS
10
148.803
20
-126.16
11
148.648
21
-126.006
0
LINE
8
BLACK
6
CONTINUOUS
10
148.648
20
-126.006
11
148.523
21
-125.828
0
LINE
8
BLACK
6
CONTINUOUS
10
148.523
20
-125.828
11
148.431
21
-125.63
0
LINE
8
BLACK
6
CONTINUOUS
10
148.431
20
-125.63
11
148.375
21
-125.42
0
LINE
8
BLACK
6
CONTINUOUS
10
148.375
20
-125.42
11
148.356
21
-125.203
0
LINE
8
BLACK
6
CONTINUOUS
10
148.356
20
-125.203
11
148.375
21
-124.986
0
LINE
8
BLACK
6
CONTINUOUS
10
148.375
20
-124.986
11
148.431
21
-124.775
0
LINE
8
BLACK
6
CONTINUOUS
10
148.431
20
-124.775
11
148.523
21
-124.578
0
LINE
8
BLACK
6
CONTINUOUS
10
148.523
20
-124.578
11
148.648
21
-124.399
0
LINE
8
BLACK
6
CONTINUOUS
10
148.648
20
-124.399
11
148.803
21
-124.245
0
LINE
8
BLACK
6
CONTINUOUS
10
148.803
20
-124.245
11
148.981
21
-124.12
0
LINE
8
BLACK
6
CONTINUOUS
10
148.981
20
-124.12
11
149.178
21
-124.028
0
LINE
8
BLACK
6
CONTINUOUS
10
149.178
20
-124.028
11
149.389
21
-123.972
0
LINE
8
BLACK
6
CONTINUOUS
10
149.389
20
-123.972
11
149.606
21
-123.953
0
LINE
8
BLACK
6
CONTINUOUS
10
149.606
20
-123.953
11
149.823
21
-123.972
0
LINE
8
BLACK
6
CONTINUOUS
10
116.012
20
-124.752
11
116.093
21
-124.806
0
LINE
8
BLACK
6
CONTINUOUS
10
116.093
20
-124.806
11
116.147
21
-124.887
0
LINE
8
BLACK
6
CONTINUOUS
10
116.147
20
-124.887
11
116.166
21
-124.983
0
LINE
8
BLACK
6
CONTINUOUS
10
116.166
20
-124.983
11
116.166
21
-126.183
0
LINE
8
BLACK
6
CONTINUOUS
10
116.166
20
-126.183
11
116.147
21
-126.278
0
LINE
8
BLACK
6
CONTINUOUS
10
116.147
20
-126.278
11
116.093
21
-126.36
0
LINE
8
BLACK
6
CONTINUOUS
10
116.093
20
-126.36
11
116.012
21
-126.414
0
LINE
8
BLACK
6
CONTINUOUS
10
116.012
20
-126.414
11
115.916
21
-126.433
0
LINE
8
BLACK
6
CONTINUOUS
10
115.916
20
-126.433
11
114.716
21
-126.433
0
LINE
8
BLACK
6
CONTINUOUS
10
114.716
20
-126.433
11
114.62
21
-126.414
0
LINE
8
BLACK
6
CONTINUOUS
10
114.62
20
-126.414
11
114.539
21
-126.36
0
LINE
8
BLACK
6
CONTINUOUS
10
114.539
20
-126.36
11
114.485
21
-126.278
0
LINE
8
BLACK
6
CONTINUOUS
10
114.485
20
-126.278
11
114.466
21
-126.183
0
LINE
8
BLACK
6
CONTINUOUS
10
114.466
20
-126.183
11
114.466
21
-124.983
0
LINE
8
BLACK
6
CONTINUOUS
10
114.466
20
-124.983
11
114.485
21
-124.887
0
LINE
8
BLACK
6
CONTINUOUS
10
114.485
20
-124.887
11
114.539
21
-124.806
0
LINE
8
BLACK
6
CONTINUOUS
10
114.539
20
-124.806
11
114.62
21
-124.752
0
LINE
8
BLACK
6
CONTINUOUS
10
114.62
20
-124.752
11
114.716
21
-124.733
0
LINE
8
BLACK
6
CONTINUOUS
10
114.716
20
-124.733
11
115.916
21
-124.733
0
LINE
8
BLACK
6
CONTINUOUS
10
115.916
20
-124.733
11
116.012
21
-124.752
0
LINE
8
BLACK
6
CONTINUOUS
10
120.659
20
-124.774
11
120.821
21
-124.847
0
LINE
8
BLACK
6
CONTINUOUS
10
120.821
20
-124.847
11
120.965
21
-124.951
0
LINE
8
BLACK
6
CONTINUOUS
10
120.965
20
-124.951
11
121.084
21
-125.083
0
LINE
8
BLACK
6
CONTINUOUS
10
121.084
20
-125.083
11
121.173
21
-125.237
0
LINE
8
BLACK
6
CONTINUOUS
10
121.173
20
-125.237
11
121.227
21
-125.406
0
LINE
8
BLACK
6
CONTINUOUS
10
121.227
20
-125.406
11
121.246
21
-125.583
0
LINE
8
BLACK
6
CONTINUOUS
10
121.246
20
-125.583
11
121.227
21
-125.76
0
LINE
8
BLACK
6
CONTINUOUS
10
121.227
20
-125.76
11
121.173
21
-125.929
0
LINE
8
BLACK
6
CONTINUOUS
10
121.173
20
-125.929
11
121.084
21
-126.082
0
LINE
8
BLACK
6
CONTINUOUS
10
121.084
20
-126.082
11
120.965
21
-126.214
0
LINE
8
BLACK
6
CONTINUOUS
10
120.965
20
-126.214
11
120.821
21
-126.319
0
LINE
8
BLACK
6
CONTINUOUS
10
120.821
20
-126.319
11
120.659
21
-126.391
0
LINE
8
BLACK
6
CONTINUOUS
10
120.659
20
-126.391
11
120.485
21
-126.428
0
LINE
8
BLACK
6
CONTINUOUS
10
120.485
20
-126.428
11
120.307
21
-126.428
0
LINE
8
BLACK
6
CONTINUOUS
10
120.307
20
-126.428
11
120.133
21
-126.391
0
LINE
8
BLACK
6
CONTINUOUS
10
120.133
20
-126.391
11
119.971
21
-126.319
0
LINE
8
BLACK
6
CONTINUOUS
10
119.971
20
-126.319
11
119.827
21
-126.214
0
LINE
8
BLACK
6
CONTINUOUS
10
119.827
20
-126.214
11
119.708
21
-126.082
0
LINE
8
BLACK
6
CONTINUOUS
10
119.708
20
-126.082
11
119.619
21
-125.929
0
LINE
8
BLACK
6
CONTINUOUS
10
119.619
20
-125.929
11
119.565
21
-125.76
0
LINE
8
BLACK
6
CONTINUOUS
10
119.565
20
-125.76
11
119.546
21
-125.583
0
LINE
8
BLACK
6
CONTINUOUS
10
119.546
20
-125.583
11
119.565
21
-125.406
0
LINE
8
BLACK
6
CONTINUOUS
10
119.565
20
-125.406
11
119.619
21
-125.237
0
LINE
8
BLACK
6
CONTINUOUS
10
119.619
20
-125.237
11
119.708
21
-125.083
0
LINE
8
BLACK
6
CONTINUOUS
10
119.708
20
-125.083
11
119.827
21
-124.951
0
LINE
8
BLACK
6
CONTINUOUS
10
119.827
20
-124.951
11
119.971
21
-124.847
0
LINE
8
BLACK
6
CONTINUOUS
10
119.971
20
-124.847
11
120.133
21
-124.774
0
LINE
8
BLACK
6
CONTINUOUS
10
120.133
20
-124.774
11
120.307
21
-124.737
0
LINE
8
BLACK
6
CONTINUOUS
10
120.307
20
-124.737
11
120.485
21
-124.737
0
LINE
8
BLACK
6
CONTINUOUS
10
120.485
20
-124.737
11
120.659
21
-124.774
0
LINE
8
BLACK
6
CONTINUOUS
10
123.199
20
-124.774
11
123.361
21
-124.847
0
LINE
8
BLACK
6
CONTINUOUS
10
123.361
20
-124.847
11
123.505
21
-124.951
0
LINE
8
BLACK
6
CONTINUOUS
10
123.505
20
-124.951
11
123.624
21
-125.083
0
LINE
8
BLACK
6
CONTINUOUS
10
123.624
20
-125.083
11
123.713
21
-125.237
0
LINE
8
BLACK
6
CONTINUOUS
10
123.713
20
-125.237
11
123.767
21
-125.406
0
LINE
8
BLACK
6
CONTINUOUS
10
123.767
20
-125.406
11
123.786
21
-125.583
0
LINE
8
BLACK
6
CONTINUOUS
10
123.786
20
-125.583
11
123.767
21
-125.76
0
LINE
8
BLACK
6
CONTINUOUS
10
123.767
20
-125.76
11
123.713
21
-125.929
0
LINE
8
BLACK
6
CONTINUOUS
10
123.713
20
-125.929
11
123.624
21
-126.082
0
LINE
8
BLACK
6
CONTINUOUS
10
123.624
20
-126.082
11
123.505
21
-126.214
0
LINE
8
BLACK
6
CONTINUOUS
10
123.505
20
-126.214
11
123.361
21
-126.319
0
LINE
8
BLACK
6
CONTINUOUS
10
123.361
20
-126.319
11
123.199
21
-126.391
0
LINE
8
BLACK
6
CONTINUOUS
10
123.199
20
-126.391
11
123.025
21
-126.428
0
LINE
8
BLACK
6
CONTINUOUS
10
123.025
20
-126.428
11
122.847
21
-126.428
0
LINE
8
BLACK
6
CONTINUOUS
10
122.847
20
-126.428
11
122.673
21
-126.391
0
LINE
8
BLACK
6
CONTINUOUS
10
122.673
20
-126.391
11
122.511
21
-126.319
0
LINE
8
BLACK
6
CONTINUOUS
10
122.511
20
-126.319
11
122.367
21
-126.214
0
LINE
8
BLACK
6
CONTINUOUS
10
122.367
20
-126.214
11
122.248
21
-126.082
0
LINE
8
BLACK
6
CONTINUOUS
10
122.248
20
-126.082
11
122.159
21
-125.929
0
LINE
8
BLACK
6
CONTINUOUS
10
122.159
20
-125.929
11
122.105
21
-125.76
0
LINE
8
BLACK
6
CONTINUOUS
10
122.105
20
-125.76
11
122.086
21
-125.583
0
LINE
8
BLACK
6
CONTINUOUS
10
122.086
20
-125.583
11
122.105
21
-125.406
0
LINE
8
BLACK
6
CONTINUOUS
10
122.105
20
-125.406
11
122.159
21
-125.237
0
LINE
8
BLACK
6
CONTINUOUS
10
122.159
20
-125.237
11
122.248
21
-125.083
0
LINE
8
BLACK
6
CONTINUOUS
10
122.248
20
-125.083
11
122.367
21
-124.951
0
LINE
8
BLACK
6
CONTINUOUS
10
122.367
20
-124.951
11
122.511
21
-124.847
0
LINE
8
BLACK
6
CONTINUOUS
10
122.511
20
-124.847
11
122.673
21
-124.774
0
LINE
8
BLACK
6
CONTINUOUS
10
122.673
20
-124.774
11
122.847
21
-124.737
0
LINE
8
BLACK
6
CONTINUOUS
10
122.847
20
-124.737
11
123.025
21
-124.737
0
LINE
8
BLACK
6
CONTINUOUS
10
123.025
20
-124.737
11
123.199
21
-124.774
0
LINE
8
BLACK
6
CONTINUOUS
10
118.119
20
-124.774
11
118.281
21
-124.847
0
LINE
8
BLACK
6
CONTINUOUS
10
118.281
20
-124.847
11
118.425
21
-124.951
0
LINE
8
BLACK
6
CONTINUOUS
10
118.425
20
-124.951
11
118.544
21
-125.083
0
LINE
8
BLACK
6
CONTINUOUS
10
118.544
20
-125.083
11
118.633
21
-125.237
0
LINE
8
BLACK
6
CONTINUOUS
10
118.633
20
-125.237
11
118.687
21
-125.406
0
LINE
8
BLACK
6
CONTINUOUS
10
118.687
20
-125.406
11
118.706
21
-125.583
0
LINE
8
BLACK
6
CONTINUOUS
10
118.706
20
-125.583
11
118.687
21
-125.76
0
LINE
8
BLACK
6
CONTINUOUS
10
118.687
20
-125.76
11
118.633
21
-125.929
0
LINE
8
BLACK
6
CONTINUOUS
10
118.633
20
-125.929
11
118.544
21
-126.082
0
LINE
8
BLACK
6
CONTINUOUS
10
118.544
20
-126.082
11
118.425
21
-126.214
0
LINE
8
BLACK
6
CONTINUOUS
10
118.425
20
-126.214
11
118.281
21
-126.319
0
LINE
8
BLACK
6
CONTINUOUS
10
118.281
20
-126.319
11
118.119
21
-126.391
0
LINE
8
BLACK
6
CONTINUOUS
10
118.119
20
-126.391
11
117.945
21
-126.428
0
LINE
8
BLACK
6
CONTINUOUS
10
117.945
20
-126.428
11
117.767
21
-126.428
0
LINE
8
BLACK
6
CONTINUOUS
10
117.767
20
-126.428
11
117.593
21
-126.391
0
LINE
8
BLACK
6
CONTINUOUS
10
117.593
20
-126.391
11
117.431
21
-126.319
0
LINE
8
BLACK
6
CONTINUOUS
10
117.431
20
-126.319
11
117.287
21
-126.214
0
LINE
8
BLACK
6
CONTINUOUS
10
117.287
20
-126.214
11
117.168
21
-126.082
0
LINE
8
BLACK
6
CONTINUOUS
10
117.168
20
-126.082
11
117.079
21
-125.929
0
LINE
8
BLACK
6
CONTINUOUS
10
117.079
20
-125.929
11
117.025
21
-125.76
0
LINE
8
BLACK
6
CONTINUOUS
10
117.025
20
-125.76
11
117.006
21
-125.583
0
LINE
8
BLACK
6
CONTINUOUS
10
117.006
20
-125.583
11
117.025
21
-125.406
0
LINE
8
BLACK
6
CONTINUOUS
10
117.025
20
-125.406
11
117.079
21
-125.237
0
LINE
8
BLACK
6
CONTINUOUS
10
117.079
20
-125.237
11
117.168
21
-125.083
0
LINE
8
BLACK
6
CONTINUOUS
10
117.168
20
-125.083
11
117.287
21
-124.951
0
LINE
8
BLACK
6
CONTINUOUS
10
117.287
20
-124.951
11
117.431
21
-124.847
0
LINE
8
BLACK
6
CONTINUOUS
10
117.431
20
-124.847
11
117.593
21
-124.774
0
LINE
8
BLACK
6
CONTINUOUS
10
117.593
20
-124.774
11
117.767
21
-124.737
0
LINE
8
BLACK
6
CONTINUOUS
10
117.767
20
-124.737
11
117.945
21
-124.737
0
LINE
8
BLACK
6
CONTINUOUS
10
117.945
20
-124.737
11
118.119
21
-124.774
0
LINE
8
BLACK
6
CONTINUOUS
10
125.739
20
-124.774
11
125.901
21
-124.847
0
LINE
8
BLACK
6
CONTINUOUS
10
125.901
20
-124.847
11
126.045
21
-124.951
0
LINE
8
BLACK
6
CONTINUOUS
10
126.045
20
-124.951
11
126.164
21
-125.083
0
LINE
8
BLACK
6
CONTINUOUS
10
126.164
20
-125.083
11
126.253
21
-125.237
0
LINE
8
BLACK
6
CONTINUOUS
10
126.253
20
-125.237
11
126.307
21
-125.406
0
LINE
8
BLACK
6
CONTINUOUS
10
126.307
20
-125.406
11
126.326
21
-125.583
0
LINE
8
BLACK
6
CONTINUOUS
10
126.326
20
-125.583
11
126.307
21
-125.76
0
LINE
8
BLACK
6
CONTINUOUS
10
126.307
20
-125.76
11
126.253
21
-125.929
0
LINE
8
BLACK
6
CONTINUOUS
10
126.253
20
-125.929
11
126.164
21
-126.082
0
LINE
8
BLACK
6
CONTINUOUS
10
126.164
20
-126.082
11
126.045
21
-126.214
0
LINE
8
BLACK
6
CONTINUOUS
10
126.045
20
-126.214
11
125.901
21
-126.319
0
LINE
8
BLACK
6
CONTINUOUS
10
125.901
20
-126.319
11
125.739
21
-126.391
0
LINE
8
BLACK
6
CONTINUOUS
10
125.739
20
-126.391
11
125.565
21
-126.428
0
LINE
8
BLACK
6
CONTINUOUS
10
125.565
20
-126.428
11
125.387
21
-126.428
0
LINE
8
BLACK
6
CONTINUOUS
10
125.387
20
-126.428
11
125.213
21
-126.391
0
LINE
8
BLACK
6
CONTINUOUS
10
125.213
20
-126.391
11
125.051
21
-126.319
0
LINE
8
BLACK
6
CONTINUOUS
10
125.051
20
-126.319
11
124.907
21
-126.214
0
LINE
8
BLACK
6
CONTINUOUS
10
124.907
20
-126.214
11
124.788
21
-126.082
0
LINE
8
BLACK
6
CONTINUOUS
10
124.788
20
-126.082
11
124.699
21
-125.929
0
LINE
8
BLACK
6
CONTINUOUS
10
124.699
20
-125.929
11
124.645
21
-125.76
0
LINE
8
BLACK
6
CONTINUOUS
10
124.645
20
-125.76
11
124.626
21
-125.583
0
LINE
8
BLACK
6
CONTINUOUS
10
124.626
20
-125.583
11
124.645
21
-125.406
0
LINE
8
BLACK
6
CONTINUOUS
10
124.645
20
-125.406
11
124.699
21
-125.237
0
LINE
8
BLACK
6
CONTINUOUS
10
124.699
20
-125.237
11
124.788
21
-125.083
0
LINE
8
BLACK
6
CONTINUOUS
10
124.788
20
-125.083
11
124.907
21
-124.951
0
LINE
8
BLACK
6
CONTINUOUS
10
124.907
20
-124.951
11
125.051
21
-124.847
0
LINE
8
BLACK
6
CONTINUOUS
10
125.051
20
-124.847
11
125.213
21
-124.774
0
LINE
8
BLACK
6
CONTINUOUS
10
125.213
20
-124.774
11
125.387
21
-124.737
0
LINE
8
BLACK
6
CONTINUOUS
10
125.387
20
-124.737
11
125.565
21
-124.737
0
LINE
8
BLACK
6
CONTINUOUS
10
125.565
20
-124.737
11
125.739
21
-124.774
0
LINE
8
BLACK
6
CONTINUOUS
10
205.188
20
-119.109
11
205.414
21
-119.149
0
LINE
8
BLACK
6
CONTINUOUS
10
205.414
20
-119.149
11
205.63
21
-119.226
0
LINE
8
BLACK
6
CONTINUOUS
10
205.63
20
-119.226
11
205.831
21
-119.337
0
LINE
8
BLACK
6
CONTINUOUS
10
205.831
20
-119.337
11
206.011
21
-119.479
0
LINE
8
BLACK
6
CONTINUOUS
10
206.011
20
-119.479
11
206.165
21
-119.649
0
LINE
8
BLACK
6
CONTINUOUS
10
206.165
20
-119.649
11
206.29
21
-119.841
0
LINE
8
BLACK
6
CONTINUOUS
10
206.29
20
-119.841
11
206.381
21
-120.052
0
LINE
8
BLACK
6
CONTINUOUS
10
206.381
20
-120.052
11
206.437
21
-120.274
0
LINE
8
BLACK
6
CONTINUOUS
10
206.437
20
-120.274
11
206.456
21
-120.503
0
LINE
8
BLACK
6
CONTINUOUS
10
206.456
20
-120.503
11
206.454
21
-120.571
0
LINE
8
BLACK
6
CONTINUOUS
10
206.454
20
-120.571
11
206.424
21
-120.799
0
LINE
8
BLACK
6
CONTINUOUS
10
206.424
20
-120.799
11
206.358
21
-121.018
0
LINE
8
BLACK
6
CONTINUOUS
10
206.358
20
-121.018
11
206.256
21
-121.224
0
LINE
8
BLACK
6
CONTINUOUS
10
206.256
20
-121.224
11
206.122
21
-121.41
0
LINE
8
BLACK
6
CONTINUOUS
10
206.122
20
-121.41
11
205.96
21
-121.572
0
LINE
8
BLACK
6
CONTINUOUS
10
205.96
20
-121.572
11
205.773
21
-121.705
0
LINE
8
BLACK
6
CONTINUOUS
10
205.773
20
-121.705
11
205.567
21
-121.806
0
LINE
8
BLACK
6
CONTINUOUS
10
205.567
20
-121.806
11
205.347
21
-121.872
0
LINE
8
BLACK
6
CONTINUOUS
10
205.347
20
-121.872
11
205.12
21
-121.901
0
LINE
8
BLACK
6
CONTINUOUS
10
205.12
20
-121.901
11
204.89
21
-121.893
0
LINE
8
BLACK
6
CONTINUOUS
10
204.89
20
-121.893
11
204.665
21
-121.847
0
LINE
8
BLACK
6
CONTINUOUS
10
204.665
20
-121.847
11
204.451
21
-121.765
0
LINE
8
BLACK
6
CONTINUOUS
10
204.451
20
-121.765
11
204.253
21
-121.65
0
LINE
8
BLACK
6
CONTINUOUS
10
204.253
20
-121.65
11
204.076
21
-121.503
0
LINE
8
BLACK
6
CONTINUOUS
10
204.076
20
-121.503
11
203.926
21
-121.33
0
LINE
8
BLACK
6
CONTINUOUS
10
203.926
20
-121.33
11
203.806
21
-121.134
0
LINE
8
BLACK
6
CONTINUOUS
10
203.806
20
-121.134
11
203.72
21
-120.921
0
LINE
8
BLACK
6
CONTINUOUS
10
203.72
20
-120.921
11
203.67
21
-120.698
0
LINE
8
BLACK
6
CONTINUOUS
10
203.67
20
-120.698
11
203.656
21
-120.469
0
LINE
8
BLACK
6
CONTINUOUS
10
203.656
20
-120.469
11
203.681
21
-120.24
0
LINE
8
BLACK
6
CONTINUOUS
10
203.681
20
-120.24
11
203.742
21
-120.019
0
LINE
8
BLACK
6
CONTINUOUS
10
203.742
20
-120.019
11
203.839
21
-119.811
0
LINE
8
BLACK
6
CONTINUOUS
10
203.839
20
-119.811
11
203.968
21
-119.622
0
LINE
8
BLACK
6
CONTINUOUS
10
203.968
20
-119.622
11
204.127
21
-119.456
0
LINE
8
BLACK
6
CONTINUOUS
10
204.127
20
-119.456
11
204.31
21
-119.318
0
LINE
8
BLACK
6
CONTINUOUS
10
204.31
20
-119.318
11
204.513
21
-119.212
0
LINE
8
BLACK
6
CONTINUOUS
10
204.513
20
-119.212
11
204.732
21
-119.141
0
LINE
8
BLACK
6
CONTINUOUS
10
204.732
20
-119.141
11
204.958
21
-119.106
0
LINE
8
BLACK
6
CONTINUOUS
10
204.958
20
-119.106
11
205.188
21
-119.109
0
LINE
8
BLACK
6
CONTINUOUS
10
183.188
20
-119.109
11
183.414
21
-119.149
0
LINE
8
BLACK
6
CONTINUOUS
10
183.414
20
-119.149
11
183.63
21
-119.226
0
LINE
8
BLACK
6
CONTINUOUS
10
183.63
20
-119.226
11
183.831
21
-119.337
0
LINE
8
BLACK
6
CONTINUOUS
10
183.831
20
-119.337
11
184.011
21
-119.479
0
LINE
8
BLACK
6
CONTINUOUS
10
184.011
20
-119.479
11
184.165
21
-119.649
0
LINE
8
BLACK
6
CONTINUOUS
10
184.165
20
-119.649
11
184.29
21
-119.841
0
LINE
8
BLACK
6
CONTINUOUS
10
184.29
20
-119.841
11
184.381
21
-120.052
0
LINE
8
BLACK
6
CONTINUOUS
10
184.381
20
-120.052
11
184.437
21
-120.274
0
LINE
8
BLACK
6
CONTINUOUS
10
184.437
20
-120.274
11
184.456
21
-120.503
0
LINE
8
BLACK
6
CONTINUOUS
10
184.456
20
-120.503
11
184.454
21
-120.571
0
LINE
8
BLACK
6
CONTINUOUS
10
184.454
20
-120.571
11
184.424
21
-120.799
0
LINE
8
BLACK
6
CONTINUOUS
10
184.424
20
-120.799
11
184.358
21
-121.018
0
LINE
8
BLACK
6
CONTINUOUS
10
184.358
20
-121.018
11
184.256
21
-121.224
0
LINE
8
BLACK
6
CONTINUOUS
10
184.256
20
-121.224
11
184.122
21
-121.41
0
LINE
8
BLACK
6
CONTINUOUS
10
184.122
20
-121.41
11
183.96
21
-121.572
0
LINE
8
BLACK
6
CONTINUOUS
10
183.96
20
-121.572
11
183.773
21
-121.705
0
LINE
8
BLACK
6
CONTINUOUS
10
183.773
20
-121.705
11
183.567
21
-121.806
0
LINE
8
BLACK
6
CONTINUOUS
10
183.567
20
-121.806
11
183.347
21
-121.872
0
LINE
8
BLACK
6
CONTINUOUS
10
183.347
20
-121.872
11
183.12
21
-121.901
0
LINE
8
BLACK
6
CONTINUOUS
10
183.12
20
-121.901
11
182.89
21
-121.893
0
LINE
8
BLACK
6
CONTINUOUS
10
182.89
20
-121.893
11
182.665
21
-121.847
0
LINE
8
BLACK
6
CONTINUOUS
10
182.665
20
-121.847
11
182.451
21
-121.765
0
LINE
8
BLACK
6
CONTINUOUS
10
182.451
20
-121.765
11
182.253
21
-121.65
0
LINE
8
BLACK
6
CONTINUOUS
10
182.253
20
-121.65
11
182.076
21
-121.503
0
LINE
8
BLACK
6
CONTINUOUS
10
182.076
20
-121.503
11
181.926
21
-121.33
0
LINE
8
BLACK
6
CONTINUOUS
10
181.926
20
-121.33
11
181.806
21
-121.134
0
LINE
8
BLACK
6
CONTINUOUS
10
181.806
20
-121.134
11
181.72
21
-120.921
0
LINE
8
BLACK
6
CONTINUOUS
10
181.72
20
-120.921
11
181.67
21
-120.698
0
LINE
8
BLACK
6
CONTINUOUS
10
181.67
20
-120.698
11
181.656
21
-120.469
0
LINE
8
BLACK
6
CONTINUOUS
10
181.656
20
-120.469
11
181.681
21
-120.24
0
LINE
8
BLACK
6
CONTINUOUS
10
181.681
20
-120.24
11
181.742
21
-120.019
0
LINE
8
BLACK
6
CONTINUOUS
10
181.742
20
-120.019
11
181.839
21
-119.811
0
LINE
8
BLACK
6
CONTINUOUS
10
181.839
20
-119.811
11
181.968
21
-119.622
0
LINE
8
BLACK
6
CONTINUOUS
10
181.968
20
-119.622
11
182.127
21
-119.456
0
LINE
8
BLACK
6
CONTINUOUS
10
182.127
20
-119.456
11
182.31
21
-119.318
0
LINE
8
BLACK
6
CONTINUOUS
10
182.31
20
-119.318
11
182.513
21
-119.212
0
LINE
8
BLACK
6
CONTINUOUS
10
182.513
20
-119.212
11
182.732
21
-119.141
0
LINE
8
BLACK
6
CONTINUOUS
10
182.732
20
-119.141
11
182.958
21
-119.106
0
LINE
8
BLACK
6
CONTINUOUS
10
182.958
20
-119.106
11
183.188
21
-119.109
0
LINE
8
BLACK
6
CONTINUOUS
10
149.823
20
-119.272
11
150.034
21
-119.328
0
LINE
8
BLACK
6
CONTINUOUS
10
150.034
20
-119.328
11
150.231
21
-119.42
0
LINE
8
BLACK
6
CONTINUOUS
10
150.231
20
-119.42
11
150.409
21
-119.545
0
LINE
8
BLACK
6
CONTINUOUS
10
150.409
20
-119.545
11
150.564
21
-119.699
0
LINE
8
BLACK
6
CONTINUOUS
10
150.564
20
-119.699
11
150.689
21
-119.878
0
LINE
8
BLACK
6
CONTINUOUS
10
150.689
20
-119.878
11
150.781
21
-120.075
0
LINE
8
BLACK
6
CONTINUOUS
10
150.781
20
-120.075
11
150.837
21
-120.286
0
LINE
8
BLACK
6
CONTINUOUS
10
150.837
20
-120.286
11
150.856
21
-120.503
0
LINE
8
BLACK
6
CONTINUOUS
10
150.856
20
-120.503
11
150.837
21
-120.72
0
LINE
8
BLACK
6
CONTINUOUS
10
150.837
20
-120.72
11
150.781
21
-120.93
0
LINE
8
BLACK
6
CONTINUOUS
10
150.781
20
-120.93
11
150.689
21
-121.128
0
LINE
8
BLACK
6
CONTINUOUS
10
150.689
20
-121.128
11
150.564
21
-121.306
0
LINE
8
BLACK
6
CONTINUOUS
10
150.564
20
-121.306
11
150.409
21
-121.46
0
LINE
8
BLACK
6
CONTINUOUS
10
150.409
20
-121.46
11
150.231
21
-121.585
0
LINE
8
BLACK
6
CONTINUOUS
10
150.231
20
-121.585
11
150.034
21
-121.677
0
LINE
8
BLACK
6
CONTINUOUS
10
150.034
20
-121.677
11
149.823
21
-121.734
0
LINE
8
BLACK
6
CONTINUOUS
10
149.823
20
-121.734
11
149.606
21
-121.753
0
LINE
8
BLACK
6
CONTINUOUS
10
149.606
20
-121.753
11
149.389
21
-121.734
0
LINE
8
BLACK
6
CONTINUOUS
10
149.389
20
-121.734
11
149.178
21
-121.677
0
LINE
8
BLACK
6
CONTINUOUS
10
149.178
20
-121.677
11
148.981
21
-121.585
0
LINE
8
BLACK
6
CONTINUOUS
10
148.981
20
-121.585
11
148.803
21
-121.46
0
LINE
8
BLACK
6
CONTINUOUS
10
148.803
20
-121.46
11
148.648
21
-121.306
0
LINE
8
BLACK
6
CONTINUOUS
10
148.648
20
-121.306
11
148.523
21
-121.128
0
LINE
8
BLACK
6
CONTINUOUS
10
148.523
20
-121.128
11
148.431
21
-120.93
0
LINE
8
BLACK
6
CONTINUOUS
10
148.431
20
-120.93
11
148.375
21
-120.72
0
LINE
8
BLACK
6
CONTINUOUS
10
148.375
20
-120.72
11
148.356
21
-120.503
0
LINE
8
BLACK
6
CONTINUOUS
10
148.356
20
-120.503
11
148.375
21
-120.286
0
LINE
8
BLACK
6
CONTINUOUS
10
148.375
20
-120.286
11
148.431
21
-120.075
0
LINE
8
BLACK
6
CONTINUOUS
10
148.431
20
-120.075
11
148.523
21
-119.878
0
LINE
8
BLACK
6
CONTINUOUS
10
148.523
20
-119.878
11
148.648
21
-119.699
0
LINE
8
BLACK
6
CONTINUOUS
10
148.648
20
-119.699
11
148.803
21
-119.545
0
LINE
8
BLACK
6
CONTINUOUS
10
148.803
20
-119.545
11
148.981
21
-119.42
0
LINE
8
BLACK
6
CONTINUOUS
10
148.981
20
-119.42
11
149.178
21
-119.328
0
LINE
8
BLACK
6
CONTINUOUS
10
149.178
20
-119.328
11
149.389
21
-119.272
0
LINE
8
BLACK
6
CONTINUOUS
10
149.389
20
-119.272
11
149.606
21
-119.253
0
LINE
8
BLACK
6
CONTINUOUS
10
149.606
20
-119.253
11
149.823
21
-119.272
0
LINE
8
BLACK
6
CONTINUOUS
10
192.188
20
-115.645
11
192.414
21
-115.685
0
LINE
8
BLACK
6
CONTINUOUS
10
192.414
20
-115.685
11
192.63
21
-115.762
0
LINE
8
BLACK
6
CONTINUOUS
10
192.63
20
-115.762
11
192.831
21
-115.873
0
LINE
8
BLACK
6
CONTINUOUS
10
192.831
20
-115.873
11
193.011
21
-116.015
0
LINE
8
BLACK
6
CONTINUOUS
10
193.011
20
-116.015
11
193.165
21
-116.184
0
LINE
8
BLACK
6
CONTINUOUS
10
193.165
20
-116.184
11
193.29
21
-116.377
0
LINE
8
BLACK
6
CONTINUOUS
10
193.29
20
-116.377
11
193.381
21
-116.588
0
LINE
8
BLACK
6
CONTINUOUS
10
193.381
20
-116.588
11
193.437
21
-116.81
0
LINE
8
BLACK
6
CONTINUOUS
10
193.437
20
-116.81
11
193.456
21
-117.039
0
LINE
8
BLACK
6
CONTINUOUS
10
193.456
20
-117.039
11
193.454
21
-117.107
0
LINE
8
BLACK
6
CONTINUOUS
10
193.454
20
-117.107
11
193.424
21
-117.335
0
LINE
8
BLACK
6
CONTINUOUS
10
193.424
20
-117.335
11
193.358
21
-117.554
0
LINE
8
BLACK
6
CONTINUOUS
10
193.358
20
-117.554
11
193.256
21
-117.76
0
LINE
8
BLACK
6
CONTINUOUS
10
193.256
20
-117.76
11
193.122
21
-117.946
0
LINE
8
BLACK
6
CONTINUOUS
10
193.122
20
-117.946
11
192.96
21
-118.108
0
LINE
8
BLACK
6
CONTINUOUS
10
192.96
20
-118.108
11
192.773
21
-118.241
0
LINE
8
BLACK
6
CONTINUOUS
10
192.773
20
-118.241
11
192.567
21
-118.342
0
LINE
8
BLACK
6
CONTINUOUS
10
192.567
20
-118.342
11
192.347
21
-118.408
0
LINE
8
BLACK
6
CONTINUOUS
10
192.347
20
-118.408
11
192.12
21
-118.437
0
LINE
8
BLACK
6
CONTINUOUS
10
192.12
20
-118.437
11
191.89
21
-118.429
0
LINE
8
BLACK
6
CONTINUOUS
10
191.89
20
-118.429
11
191.665
21
-118.383
0
LINE
8
BLACK
6
CONTINUOUS
10
191.665
20
-118.383
11
191.451
21
-118.301
0
LINE
8
BLACK
6
CONTINUOUS
10
191.451
20
-118.301
11
191.253
21
-118.186
0
LINE
8
BLACK
6
CONTINUOUS
10
191.253
20
-118.186
11
191.076
21
-118.039
0
LINE
8
BLACK
6
CONTINUOUS
10
191.076
20
-118.039
11
190.926
21
-117.866
0
LINE
8
BLACK
6
CONTINUOUS
10
190.926
20
-117.866
11
190.806
21
-117.67
0
LINE
8
BLACK
6
CONTINUOUS
10
190.806
20
-117.67
11
190.72
21
-117.457
0
LINE
8
BLACK
6
CONTINUOUS
10
190.72
20
-117.457
11
190.67
21
-117.234
0
LINE
8
BLACK
6
CONTINUOUS
10
190.67
20
-117.234
11
190.656
21
-117.004
0
LINE
8
BLACK
6
CONTINUOUS
10
190.656
20
-117.004
11
190.681
21
-116.776
0
LINE
8
BLACK
6
CONTINUOUS
10
190.681
20
-116.776
11
190.742
21
-116.555
0
LINE
8
BLACK
6
CONTINUOUS
10
190.742
20
-116.555
11
190.839
21
-116.347
0
LINE
8
BLACK
6
CONTINUOUS
10
190.839
20
-116.347
11
190.968
21
-116.158
0
LINE
8
BLACK
6
CONTINUOUS
10
190.968
20
-116.158
11
191.127
21
-115.992
0
LINE
8
BLACK
6
CONTINUOUS
10
191.127
20
-115.992
11
191.31
21
-115.854
0
LINE
8
BLACK
6
CONTINUOUS
10
191.31
20
-115.854
11
191.513
21
-115.748
0
LINE
8
BLACK
6
CONTINUOUS
10
191.513
20
-115.748
11
191.732
21
-115.677
0
LINE
8
BLACK
6
CONTINUOUS
10
191.732
20
-115.677
11
191.958
21
-115.642
0
LINE
8
BLACK
6
CONTINUOUS
10
191.958
20
-115.642
11
192.188
21
-115.645
0
LINE
8
BLACK
6
CONTINUOUS
10
149.823
20
-114.572
11
150.034
21
-114.628
0
LINE
8
BLACK
6
CONTINUOUS
10
150.034
20
-114.628
11
150.231
21
-114.72
0
LINE
8
BLACK
6
CONTINUOUS
10
150.231
20
-114.72
11
150.409
21
-114.845
0
LINE
8
BLACK
6
CONTINUOUS
10
150.409
20
-114.845
11
150.564
21
-114.999
0
LINE
8
BLACK
6
CONTINUOUS
10
150.564
20
-114.999
11
150.689
21
-115.178
0
LINE
8
BLACK
6
CONTINUOUS
10
150.689
20
-115.178
11
150.781
21
-115.375
0
LINE
8
BLACK
6
CONTINUOUS
10
150.781
20
-115.375
11
150.837
21
-115.586
0
LINE
8
BLACK
6
CONTINUOUS
10
150.837
20
-115.586
11
150.856
21
-115.803
0
LINE
8
BLACK
6
CONTINUOUS
10
150.856
20
-115.803
11
150.837
21
-116.02
0
LINE
8
BLACK
6
CONTINUOUS
10
150.837
20
-116.02
11
150.781
21
-116.23
0
LINE
8
BLACK
6
CONTINUOUS
10
150.781
20
-116.23
11
150.689
21
-116.428
0
LINE
8
BLACK
6
CONTINUOUS
10
150.689
20
-116.428
11
150.564
21
-116.606
0
LINE
8
BLACK
6
CONTINUOUS
10
150.564
20
-116.606
11
150.409
21
-116.76
0
LINE
8
BLACK
6
CONTINUOUS
10
150.409
20
-116.76
11
150.231
21
-116.885
0
LINE
8
BLACK
6
CONTINUOUS
10
150.231
20
-116.885
11
150.034
21
-116.977
0
LINE
8
BLACK
6
CONTINUOUS
10
150.034
20
-116.977
11
149.823
21
-117.034
0
LINE
8
BLACK
6
CONTINUOUS
10
149.823
20
-117.034
11
149.606
21
-117.053
0
LINE
8
BLACK
6
CONTINUOUS
10
149.606
20
-117.053
11
149.389
21
-117.034
0
LINE
8
BLACK
6
CONTINUOUS
10
149.389
20
-117.034
11
149.178
21
-116.977
0
LINE
8
BLACK
6
CONTINUOUS
10
149.178
20
-116.977
11
148.981
21
-116.885
0
LINE
8
BLACK
6
CONTINUOUS
10
148.981
20
-116.885
11
148.803
21
-116.76
0
LINE
8
BLACK
6
CONTINUOUS
10
148.803
20
-116.76
11
148.648
21
-116.606
0
LINE
8
BLACK
6
CONTINUOUS
10
148.648
20
-116.606
11
148.523
21
-116.428
0
LINE
8
BLACK
6
CONTINUOUS
10
148.523
20
-116.428
11
148.431
21
-116.23
0
LINE
8
BLACK
6
CONTINUOUS
10
148.431
20
-116.23
11
148.375
21
-116.02
0
LINE
8
BLACK
6
CONTINUOUS
10
148.375
20
-116.02
11
148.356
21
-115.803
0
LINE
8
BLACK
6
CONTINUOUS
10
148.356
20
-115.803
11
148.375
21
-115.586
0
LINE
8
BLACK
6
CONTINUOUS
10
148.375
20
-115.586
11
148.431
21
-115.375
0
LINE
8
BLACK
6
CONTINUOUS
10
148.431
20
-115.375
11
148.523
21
-115.178
0
LINE
8
BLACK
6
CONTINUOUS
10
148.523
20
-115.178
11
148.648
21
-114.999
0
LINE
8
BLACK
6
CONTINUOUS
10
148.648
20
-114.999
11
148.803
21
-114.845
0
LINE
8
BLACK
6
CONTINUOUS
10
148.803
20
-114.845
11
148.981
21
-114.72
0
LINE
8
BLACK
6
CONTINUOUS
10
148.981
20
-114.72
11
149.178
21
-114.628
0
LINE
8
BLACK
6
CONTINUOUS
10
149.178
20
-114.628
11
149.389
21
-114.572
0
LINE
8
BLACK
6
CONTINUOUS
10
149.389
20
-114.572
11
149.606
21
-114.553
0
LINE
8
BLACK
6
CONTINUOUS
10
149.606
20
-114.553
11
149.823
21
-114.572
0
LINE
8
BLACK
6
CONTINUOUS
10
203.714
20
-113.609
11
203.94
21
-113.649
0
LINE
8
BLACK
6
CONTINUOUS
10
203.94
20
-113.649
11
204.156
21
-113.726
0
LINE
8
BLACK
6
CONTINUOUS
10
204.156
20
-113.726
11
204.357
21
-113.837
0
LINE
8
BLACK
6
CONTINUOUS
10
204.357
20
-113.837
11
204.537
21
-113.979
0
LINE
8
BLACK
6
CONTINUOUS
10
204.537
20
-113.979
11
204.691
21
-114.149
0
LINE
8
BLACK
6
CONTINUOUS
10
204.691
20
-114.149
11
204.816
21
-114.341
0
LINE
8
BLACK
6
CONTINUOUS
10
204.816
20
-114.341
11
204.908
21
-114.552
0
LINE
8
BLACK
6
CONTINUOUS
10
204.908
20
-114.552
11
204.963
21
-114.774
0
LINE
8
BLACK
6
CONTINUOUS
10
204.963
20
-114.774
11
204.982
21
-115.003
0
LINE
8
BLACK
6
CONTINUOUS
10
204.982
20
-115.003
11
204.981
21
-115.071
0
LINE
8
BLACK
6
CONTINUOUS
10
204.981
20
-115.071
11
204.951
21
-115.299
0
LINE
8
BLACK
6
CONTINUOUS
10
204.951
20
-115.299
11
204.884
21
-115.518
0
LINE
8
BLACK
6
CONTINUOUS
10
204.884
20
-115.518
11
204.782
21
-115.724
0
LINE
8
BLACK
6
CONTINUOUS
10
204.782
20
-115.724
11
204.648
21
-115.91
0
LINE
8
BLACK
6
CONTINUOUS
10
204.648
20
-115.91
11
204.486
21
-116.072
0
LINE
8
BLACK
6
CONTINUOUS
10
204.486
20
-116.072
11
204.299
21
-116.205
0
LINE
8
BLACK
6
CONTINUOUS
10
204.299
20
-116.205
11
204.093
21
-116.306
0
LINE
8
BLACK
6
CONTINUOUS
10
204.093
20
-116.306
11
203.873
21
-116.372
0
LINE
8
BLACK
6
CONTINUOUS
10
203.873
20
-116.372
11
203.646
21
-116.401
0
LINE
8
BLACK
6
CONTINUOUS
10
203.646
20
-116.401
11
203.417
21
-116.393
0
LINE
8
BLACK
6
CONTINUOUS
10
203.417
20
-116.393
11
203.192
21
-116.347
0
LINE
8
BLACK
6
CONTINUOUS
10
203.192
20
-116.347
11
202.977
21
-116.265
0
LINE
8
BLACK
6
CONTINUOUS
10
202.977
20
-116.265
11
202.779
21
-116.15
0
LINE
8
BLACK
6
CONTINUOUS
10
202.779
20
-116.15
11
202.603
21
-116.003
0
LINE
8
BLACK
6
CONTINUOUS
10
202.603
20
-116.003
11
202.453
21
-115.83
0
LINE
8
BLACK
6
CONTINUOUS
10
202.453
20
-115.83
11
202.333
21
-115.634
0
LINE
8
BLACK
6
CONTINUOUS
10
202.333
20
-115.634
11
202.246
21
-115.421
0
LINE
8
BLACK
6
CONTINUOUS
10
202.246
20
-115.421
11
202.196
21
-115.198
0
LINE
8
BLACK
6
CONTINUOUS
10
202.196
20
-115.198
11
202.183
21
-114.969
0
LINE
8
BLACK
6
CONTINUOUS
10
202.183
20
-114.969
11
202.207
21
-114.74
0
LINE
8
BLACK
6
CONTINUOUS
10
202.207
20
-114.74
11
202.268
21
-114.519
0
LINE
8
BLACK
6
CONTINUOUS
10
202.268
20
-114.519
11
202.365
21
-114.311
0
LINE
8
BLACK
6
CONTINUOUS
10
202.365
20
-114.311
11
202.494
21
-114.122
0
LINE
8
BLACK
6
CONTINUOUS
10
202.494
20
-114.122
11
202.653
21
-113.956
0
LINE
8
BLACK
6
CONTINUOUS
10
202.653
20
-113.956
11
202.836
21
-113.818
0
LINE
8
BLACK
6
CONTINUOUS
10
202.836
20
-113.818
11
203.04
21
-113.712
0
LINE
8
BLACK
6
CONTINUOUS
10
203.04
20
-113.712
11
203.258
21
-113.641
0
LINE
8
BLACK
6
CONTINUOUS
10
203.258
20
-113.641
11
203.485
21
-113.606
0
LINE
8
BLACK
6
CONTINUOUS
10
203.485
20
-113.606
11
203.714
21
-113.609
0
LINE
8
BLACK
6
CONTINUOUS
10
184.661
20
-113.609
11
184.887
21
-113.649
0
LINE
8
BLACK
6
CONTINUOUS
10
184.887
20
-113.649
11
185.104
21
-113.726
0
LINE
8
BLACK
6
CONTINUOUS
10
185.104
20
-113.726
11
185.304
21
-113.837
0
LINE
8
BLACK
6
CONTINUOUS
10
185.304
20
-113.837
11
185.485
21
-113.979
0
LINE
8
BLACK
6
CONTINUOUS
10
185.485
20
-113.979
11
185.639
21
-114.149
0
LINE
8
BLACK
6
CONTINUOUS
10
185.639
20
-114.149
11
185.764
21
-114.341
0
LINE
8
BLACK
6
CONTINUOUS
10
185.764
20
-114.341
11
185.855
21
-114.552
0
LINE
8
BLACK
6
CONTINUOUS
10
185.855
20
-114.552
11
185.911
21
-114.774
0
LINE
8
BLACK
6
CONTINUOUS
10
185.911
20
-114.774
11
185.93
21
-115.003
0
LINE
8
BLACK
6
CONTINUOUS
10
185.93
20
-115.003
11
185.928
21
-115.071
0
LINE
8
BLACK
6
CONTINUOUS
10
185.928
20
-115.071
11
185.898
21
-115.299
0
LINE
8
BLACK
6
CONTINUOUS
10
185.898
20
-115.299
11
185.831
21
-115.518
0
LINE
8
BLACK
6
CONTINUOUS
10
185.831
20
-115.518
11
185.73
21
-115.724
0
LINE
8
BLACK
6
CONTINUOUS
10
185.73
20
-115.724
11
185.596
21
-115.91
0
LINE
8
BLACK
6
CONTINUOUS
10
185.596
20
-115.91
11
185.433
21
-116.072
0
LINE
8
BLACK
6
CONTINUOUS
10
185.433
20
-116.072
11
185.247
21
-116.205
0
LINE
8
BLACK
6
CONTINUOUS
10
185.247
20
-116.205
11
185.041
21
-116.306
0
LINE
8
BLACK
6
CONTINUOUS
10
185.041
20
-116.306
11
184.821
21
-116.372
0
LINE
8
BLACK
6
CONTINUOUS
10
184.821
20
-116.372
11
184.593
21
-116.401
0
LINE
8
BLACK
6
CONTINUOUS
10
184.593
20
-116.401
11
184.364
21
-116.393
0
LINE
8
BLACK
6
CONTINUOUS
10
184.364
20
-116.393
11
184.139
21
-116.347
0
LINE
8
BLACK
6
CONTINUOUS
10
184.139
20
-116.347
11
183.925
21
-116.265
0
LINE
8
BLACK
6
CONTINUOUS
10
183.925
20
-116.265
11
183.727
21
-116.15
0
LINE
8
BLACK
6
CONTINUOUS
10
183.727
20
-116.15
11
183.55
21
-116.003
0
LINE
8
BLACK
6
CONTINUOUS
10
183.55
20
-116.003
11
183.4
21
-115.83
0
LINE
8
BLACK
6
CONTINUOUS
10
183.4
20
-115.83
11
183.28
21
-115.634
0
LINE
8
BLACK
6
CONTINUOUS
10
183.28
20
-115.634
11
183.194
21
-115.421
0
LINE
8
BLACK
6
CONTINUOUS
10
183.194
20
-115.421
11
183.143
21
-115.198
0
LINE
8
BLACK
6
CONTINUOUS
10
183.143
20
-115.198
11
183.13
21
-114.969
0
LINE
8
BLACK
6
CONTINUOUS
10
183.13
20
-114.969
11
183.155
21
-114.74
0
LINE
8
BLACK
6
CONTINUOUS
10
183.155
20
-114.74
11
183.216
21
-114.519
0
LINE
8
BLACK
6
CONTINUOUS
10
183.216
20
-114.519
11
183.312
21
-114.311
0
LINE
8
BLACK
6
CONTINUOUS
10
183.312
20
-114.311
11
183.442
21
-114.122
0
LINE
8
BLACK
6
CONTINUOUS
10
183.442
20
-114.122
11
183.6
21
-113.956
0
LINE
8
BLACK
6
CONTINUOUS
10
183.6
20
-113.956
11
183.784
21
-113.818
0
LINE
8
BLACK
6
CONTINUOUS
10
183.784
20
-113.818
11
183.987
21
-113.712
0
LINE
8
BLACK
6
CONTINUOUS
10
183.987
20
-113.712
11
184.205
21
-113.641
0
LINE
8
BLACK
6
CONTINUOUS
10
184.205
20
-113.641
11
184.432
21
-113.606
0
LINE
8
BLACK
6
CONTINUOUS
10
184.432
20
-113.606
11
184.661
21
-113.609
0
LINE
8
BLACK
6
CONTINUOUS
10
133.043
20
-112.919
11
133.23
21
-112.977
0
LINE
8
BLACK
6
CONTINUOUS
10
133.23
20
-112.977
11
133.401
21
-113.07
0
LINE
8
BLACK
6
CONTINUOUS
10
133.401
20
-113.07
11
133.552
21
-113.194
0
LINE
8
BLACK
6
CONTINUOUS
10
133.552
20
-113.194
11
133.675
21
-113.345
0
LINE
8
BLACK
6
CONTINUOUS
10
133.675
20
-113.345
11
133.767
21
-113.518
0
LINE
8
BLACK
6
CONTINUOUS
10
133.767
20
-113.518
11
133.823
21
-113.705
0
LINE
8
BLACK
6
CONTINUOUS
10
133.823
20
-113.705
11
133.842
21
-113.899
0
LINE
8
BLACK
6
CONTINUOUS
10
133.842
20
-113.899
11
133.842
21
-113.927
0
LINE
8
BLACK
6
CONTINUOUS
10
133.842
20
-113.927
11
133.817
21
-114.12
0
LINE
8
BLACK
6
CONTINUOUS
10
133.817
20
-114.12
11
133.756
21
-114.306
0
LINE
8
BLACK
6
CONTINUOUS
10
133.756
20
-114.306
11
133.659
21
-114.475
0
LINE
8
BLACK
6
CONTINUOUS
10
133.659
20
-114.475
11
133.532
21
-114.623
0
LINE
8
BLACK
6
CONTINUOUS
10
133.532
20
-114.623
11
133.378
21
-114.743
0
LINE
8
BLACK
6
CONTINUOUS
10
133.378
20
-114.743
11
133.204
21
-114.831
0
LINE
8
BLACK
6
CONTINUOUS
10
133.204
20
-114.831
11
133.016
21
-114.884
0
LINE
8
BLACK
6
CONTINUOUS
10
133.016
20
-114.884
11
132.821
21
-114.899
0
LINE
8
BLACK
6
CONTINUOUS
10
132.821
20
-114.899
11
132.627
21
-114.875
0
LINE
8
BLACK
6
CONTINUOUS
10
132.627
20
-114.875
11
132.442
21
-114.815
0
LINE
8
BLACK
6
CONTINUOUS
10
132.442
20
-114.815
11
132.271
21
-114.72
0
LINE
8
BLACK
6
CONTINUOUS
10
132.271
20
-114.72
11
132.123
21
-114.593
0
LINE
8
BLACK
6
CONTINUOUS
10
132.123
20
-114.593
11
132.001
21
-114.441
0
LINE
8
BLACK
6
CONTINUOUS
10
132.001
20
-114.441
11
131.912
21
-114.267
0
LINE
8
BLACK
6
CONTINUOUS
10
131.912
20
-114.267
11
131.858
21
-114.079
0
LINE
8
BLACK
6
CONTINUOUS
10
131.858
20
-114.079
11
131.842
21
-113.885
0
LINE
8
BLACK
6
CONTINUOUS
10
131.842
20
-113.885
11
131.864
21
-113.691
0
LINE
8
BLACK
6
CONTINUOUS
10
131.864
20
-113.691
11
131.923
21
-113.505
0
LINE
8
BLACK
6
CONTINUOUS
10
131.923
20
-113.505
11
132.017
21
-113.334
0
LINE
8
BLACK
6
CONTINUOUS
10
132.017
20
-113.334
11
132.142
21
-113.184
0
LINE
8
BLACK
6
CONTINUOUS
10
132.142
20
-113.184
11
132.294
21
-113.062
0
LINE
8
BLACK
6
CONTINUOUS
10
132.294
20
-113.062
11
132.467
21
-112.972
0
LINE
8
BLACK
6
CONTINUOUS
10
132.467
20
-112.972
11
132.655
21
-112.917
0
LINE
8
BLACK
6
CONTINUOUS
10
132.655
20
-112.917
11
132.849
21
-112.899
0
LINE
8
BLACK
6
CONTINUOUS
10
132.849
20
-112.899
11
133.043
21
-112.919
0
LINE
8
BLACK
6
CONTINUOUS
10
126.24
20
-114.648
11
124.64
21
-114.648
0
LINE
8
BLACK
6
CONTINUOUS
10
124.64
20
-114.648
11
124.64
21
-113.048
0
LINE
8
BLACK
6
CONTINUOUS
10
124.64
20
-113.048
11
126.24
21
-113.048
0
LINE
8
BLACK
6
CONTINUOUS
10
126.24
20
-113.048
11
126.24
21
-114.648
0
LINE
8
BLACK
6
CONTINUOUS
10
118.58
20
-114.648
11
116.98
21
-114.648
0
LINE
8
BLACK
6
CONTINUOUS
10
116.98
20
-114.648
11
116.98
21
-113.048
0
LINE
8
BLACK
6
CONTINUOUS
10
116.98
20
-113.048
11
118.58
21
-113.048
0
LINE
8
BLACK
6
CONTINUOUS
10
118.58
20
-113.048
11
118.58
21
-114.648
0
LINE
8
BLACK
6
CONTINUOUS
10
115.462
20
-113.069
11
115.63
21
-113.129
0
LINE
8
BLACK
6
CONTINUOUS
10
115.63
20
-113.129
11
115.781
21
-113.225
0
LINE
8
BLACK
6
CONTINUOUS
10
115.781
20
-113.225
11
115.907
21
-113.351
0
LINE
8
BLACK
6
CONTINUOUS
10
115.907
20
-113.351
11
116.001
21
-113.502
0
LINE
8
BLACK
6
CONTINUOUS
10
116.001
20
-113.502
11
116.06
21
-113.671
0
LINE
8
BLACK
6
CONTINUOUS
10
116.06
20
-113.671
11
116.08
21
-113.848
0
LINE
8
BLACK
6
CONTINUOUS
10
116.08
20
-113.848
11
116.079
21
-113.87
0
LINE
8
BLACK
6
CONTINUOUS
10
116.079
20
-113.87
11
116.055
21
-114.047
0
LINE
8
BLACK
6
CONTINUOUS
10
116.055
20
-114.047
11
115.991
21
-114.214
0
LINE
8
BLACK
6
CONTINUOUS
10
115.991
20
-114.214
11
115.893
21
-114.362
0
LINE
8
BLACK
6
CONTINUOUS
10
115.893
20
-114.362
11
115.763
21
-114.485
0
LINE
8
BLACK
6
CONTINUOUS
10
115.763
20
-114.485
11
115.61
21
-114.577
0
LINE
8
BLACK
6
CONTINUOUS
10
115.61
20
-114.577
11
115.441
21
-114.632
0
LINE
8
BLACK
6
CONTINUOUS
10
115.441
20
-114.632
11
115.263
21
-114.648
0
LINE
8
BLACK
6
CONTINUOUS
10
115.263
20
-114.648
11
115.086
21
-114.624
0
LINE
8
BLACK
6
CONTINUOUS
10
115.086
20
-114.624
11
114.919
21
-114.562
0
LINE
8
BLACK
6
CONTINUOUS
10
114.919
20
-114.562
11
114.77
21
-114.464
0
LINE
8
BLACK
6
CONTINUOUS
10
114.77
20
-114.464
11
114.646
21
-114.336
0
LINE
8
BLACK
6
CONTINUOUS
10
114.646
20
-114.336
11
114.554
21
-114.184
0
LINE
8
BLACK
6
CONTINUOUS
10
114.554
20
-114.184
11
114.497
21
-114.014
0
LINE
8
BLACK
6
CONTINUOUS
10
114.497
20
-114.014
11
114.48
21
-113.837
0
LINE
8
BLACK
6
CONTINUOUS
10
114.48
20
-113.837
11
114.502
21
-113.66
0
LINE
8
BLACK
6
CONTINUOUS
10
114.502
20
-113.66
11
114.563
21
-113.492
0
LINE
8
BLACK
6
CONTINUOUS
10
114.563
20
-113.492
11
114.66
21
-113.342
0
LINE
8
BLACK
6
CONTINUOUS
10
114.66
20
-113.342
11
114.787
21
-113.218
0
LINE
8
BLACK
6
CONTINUOUS
10
114.787
20
-113.218
11
114.939
21
-113.124
0
LINE
8
BLACK
6
CONTINUOUS
10
114.939
20
-113.124
11
115.108
21
-113.067
0
LINE
8
BLACK
6
CONTINUOUS
10
115.108
20
-113.067
11
115.285
21
-113.048
0
LINE
8
BLACK
6
CONTINUOUS
10
115.285
20
-113.048
11
115.462
21
-113.069
0
LINE
8
BLACK
6
CONTINUOUS
10
123.122
20
-113.069
11
123.29
21
-113.129
0
LINE
8
BLACK
6
CONTINUOUS
10
123.29
20
-113.129
11
123.441
21
-113.225
0
LINE
8
BLACK
6
CONTINUOUS
10
123.441
20
-113.225
11
123.567
21
-113.351
0
LINE
8
BLACK
6
CONTINUOUS
10
123.567
20
-113.351
11
123.661
21
-113.502
0
LINE
8
BLACK
6
CONTINUOUS
10
123.661
20
-113.502
11
123.72
21
-113.671
0
LINE
8
BLACK
6
CONTINUOUS
10
123.72
20
-113.671
11
123.74
21
-113.848
0
LINE
8
BLACK
6
CONTINUOUS
10
123.74
20
-113.848
11
123.739
21
-113.87
0
LINE
8
BLACK
6
CONTINUOUS
10
123.739
20
-113.87
11
123.715
21
-114.047
0
LINE
8
BLACK
6
CONTINUOUS
10
123.715
20
-114.047
11
123.651
21
-114.214
0
LINE
8
BLACK
6
CONTINUOUS
10
123.651
20
-114.214
11
123.553
21
-114.362
0
LINE
8
BLACK
6
CONTINUOUS
10
123.553
20
-114.362
11
123.423
21
-114.485
0
LINE
8
BLACK
6
CONTINUOUS
10
123.423
20
-114.485
11
123.27
21
-114.577
0
LINE
8
BLACK
6
CONTINUOUS
10
123.27
20
-114.577
11
123.101
21
-114.632
0
LINE
8
BLACK
6
CONTINUOUS
10
123.101
20
-114.632
11
122.923
21
-114.648
0
LINE
8
BLACK
6
CONTINUOUS
10
122.923
20
-114.648
11
122.746
21
-114.624
0
LINE
8
BLACK
6
CONTINUOUS
10
122.746
20
-114.624
11
122.579
21
-114.562
0
LINE
8
BLACK
6
CONTINUOUS
10
122.579
20
-114.562
11
122.43
21
-114.464
0
LINE
8
BLACK
6
CONTINUOUS
10
122.43
20
-114.464
11
122.306
21
-114.336
0
LINE
8
BLACK
6
CONTINUOUS
10
122.306
20
-114.336
11
122.214
21
-114.184
0
LINE
8
BLACK
6
CONTINUOUS
10
122.214
20
-114.184
11
122.157
21
-114.014
0
LINE
8
BLACK
6
CONTINUOUS
10
122.157
20
-114.014
11
122.14
21
-113.837
0
LINE
8
BLACK
6
CONTINUOUS
10
122.14
20
-113.837
11
122.162
21
-113.66
0
LINE
8
BLACK
6
CONTINUOUS
10
122.162
20
-113.66
11
122.223
21
-113.492
0
LINE
8
BLACK
6
CONTINUOUS
10
122.223
20
-113.492
11
122.32
21
-113.342
0
LINE
8
BLACK
6
CONTINUOUS
10
122.32
20
-113.342
11
122.447
21
-113.218
0
LINE
8
BLACK
6
CONTINUOUS
10
122.447
20
-113.218
11
122.599
21
-113.124
0
LINE
8
BLACK
6
CONTINUOUS
10
122.599
20
-113.124
11
122.768
21
-113.067
0
LINE
8
BLACK
6
CONTINUOUS
10
122.768
20
-113.067
11
122.945
21
-113.048
0
LINE
8
BLACK
6
CONTINUOUS
10
122.945
20
-113.048
11
123.122
21
-113.069
0
LINE
8
BLACK
6
CONTINUOUS
10
102.817
20
-110.633
11
103.004
21
-110.691
0
LINE
8
BLACK
6
CONTINUOUS
10
103.004
20
-110.691
11
103.175
21
-110.784
0
LINE
8
BLACK
6
CONTINUOUS
10
103.175
20
-110.784
11
103.326
21
-110.908
0
LINE
8
BLACK
6
CONTINUOUS
10
103.326
20
-110.908
11
103.449
21
-111.059
0
LINE
8
BLACK
6
CONTINUOUS
10
103.449
20
-111.059
11
103.541
21
-111.232
0
LINE
8
BLACK
6
CONTINUOUS
10
103.541
20
-111.232
11
103.597
21
-111.419
0
LINE
8
BLACK
6
CONTINUOUS
10
103.597
20
-111.419
11
103.616
21
-111.613
0
LINE
8
BLACK
6
CONTINUOUS
10
103.616
20
-111.613
11
103.616
21
-111.641
0
LINE
8
BLACK
6
CONTINUOUS
10
103.616
20
-111.641
11
103.591
21
-111.834
0
LINE
8
BLACK
6
CONTINUOUS
10
103.591
20
-111.834
11
103.53
21
-112.02
0
LINE
8
BLACK
6
CONTINUOUS
10
103.53
20
-112.02
11
103.433
21
-112.189
0
LINE
8
BLACK
6
CONTINUOUS
10
103.433
20
-112.189
11
103.306
21
-112.337
0
LINE
8
BLACK
6
CONTINUOUS
10
103.306
20
-112.337
11
103.152
21
-112.457
0
LINE
8
BLACK
6
CONTINUOUS
10
103.152
20
-112.457
11
102.978
21
-112.545
0
LINE
8
BLACK
6
CONTINUOUS
10
102.978
20
-112.545
11
102.79
21
-112.598
0
LINE
8
BLACK
6
CONTINUOUS
10
102.79
20
-112.598
11
102.595
21
-112.613
0
LINE
8
BLACK
6
CONTINUOUS
10
102.595
20
-112.613
11
102.401
21
-112.589
0
LINE
8
BLACK
6
CONTINUOUS
10
102.401
20
-112.589
11
102.216
21
-112.529
0
LINE
8
BLACK
6
CONTINUOUS
10
102.216
20
-112.529
11
102.045
21
-112.434
0
LINE
8
BLACK
6
CONTINUOUS
10
102.045
20
-112.434
11
101.897
21
-112.307
0
LINE
8
BLACK
6
CONTINUOUS
10
101.897
20
-112.307
11
101.775
21
-112.155
0
LINE
8
BLACK
6
CONTINUOUS
10
101.775
20
-112.155
11
101.686
21
-111.981
0
LINE
8
BLACK
6
CONTINUOUS
10
101.686
20
-111.981
11
101.632
21
-111.793
0
LINE
8
BLACK
6
CONTINUOUS
10
101.632
20
-111.793
11
101.616
21
-111.599
0
LINE
8
BLACK
6
CONTINUOUS
10
101.616
20
-111.599
11
101.638
21
-111.405
0
LINE
8
BLACK
6
CONTINUOUS
10
101.638
20
-111.405
11
101.697
21
-111.219
0
LINE
8
BLACK
6
CONTINUOUS
10
101.697
20
-111.219
11
101.791
21
-111.048
0
LINE
8
BLACK
6
CONTINUOUS
10
101.791
20
-111.048
11
101.916
21
-110.898
0
LINE
8
BLACK
6
CONTINUOUS
10
101.916
20
-110.898
11
102.068
21
-110.776
0
LINE
8
BLACK
6
CONTINUOUS
10
102.068
20
-110.776
11
102.241
21
-110.686
0
LINE
8
BLACK
6
CONTINUOUS
10
102.241
20
-110.686
11
102.429
21
-110.631
0
LINE
8
BLACK
6
CONTINUOUS
10
102.429
20
-110.631
11
102.623
21
-110.613
0
LINE
8
BLACK
6
CONTINUOUS
10
102.623
20
-110.613
11
102.817
21
-110.633
0
LINE
8
BLACK
6
CONTINUOUS
10
188.688
20
-109.583
11
188.914
21
-109.623
0
LINE
8
BLACK
6
CONTINUOUS
10
188.914
20
-109.623
11
189.13
21
-109.7
0
LINE
8
BLACK
6
CONTINUOUS
10
189.13
20
-109.7
11
189.331
21
-109.81
0
LINE
8
BLACK
6
CONTINUOUS
10
189.331
20
-109.81
11
189.511
21
-109.953
0
LINE
8
BLACK
6
CONTINUOUS
10
189.511
20
-109.953
11
189.665
21
-110.122
0
LINE
8
BLACK
6
CONTINUOUS
10
189.665
20
-110.122
11
189.79
21
-110.315
0
LINE
8
BLACK
6
CONTINUOUS
10
189.79
20
-110.315
11
189.881
21
-110.525
0
LINE
8
BLACK
6
CONTINUOUS
10
189.881
20
-110.525
11
189.937
21
-110.748
0
LINE
8
BLACK
6
CONTINUOUS
10
189.937
20
-110.748
11
189.956
21
-110.977
0
LINE
8
BLACK
6
CONTINUOUS
10
189.956
20
-110.977
11
189.954
21
-111.045
0
LINE
8
BLACK
6
CONTINUOUS
10
189.954
20
-111.045
11
189.924
21
-111.272
0
LINE
8
BLACK
6
CONTINUOUS
10
189.924
20
-111.272
11
189.858
21
-111.492
0
LINE
8
BLACK
6
CONTINUOUS
10
189.858
20
-111.492
11
189.756
21
-111.698
0
LINE
8
BLACK
6
CONTINUOUS
10
189.756
20
-111.698
11
189.622
21
-111.884
0
LINE
8
BLACK
6
CONTINUOUS
10
189.622
20
-111.884
11
189.46
21
-112.046
0
LINE
8
BLACK
6
CONTINUOUS
10
189.46
20
-112.046
11
189.273
21
-112.179
0
LINE
8
BLACK
6
CONTINUOUS
10
189.273
20
-112.179
11
189.067
21
-112.28
0
LINE
8
BLACK
6
CONTINUOUS
10
189.067
20
-112.28
11
188.847
21
-112.346
0
LINE
8
BLACK
6
CONTINUOUS
10
188.847
20
-112.346
11
188.62
21
-112.375
0
LINE
8
BLACK
6
CONTINUOUS
10
188.62
20
-112.375
11
188.39
21
-112.367
0
LINE
8
BLACK
6
CONTINUOUS
10
188.39
20
-112.367
11
188.165
21
-112.321
0
LINE
8
BLACK
6
CONTINUOUS
10
188.165
20
-112.321
11
187.951
21
-112.239
0
LINE
8
BLACK
6
CONTINUOUS
10
187.951
20
-112.239
11
187.753
21
-112.123
0
LINE
8
BLACK
6
CONTINUOUS
10
187.753
20
-112.123
11
187.576
21
-111.977
0
LINE
8
BLACK
6
CONTINUOUS
10
187.576
20
-111.977
11
187.426
21
-111.803
0
LINE
8
BLACK
6
CONTINUOUS
10
187.426
20
-111.803
11
187.306
21
-111.608
0
LINE
8
BLACK
6
CONTINUOUS
10
187.306
20
-111.608
11
187.22
21
-111.395
0
LINE
8
BLACK
6
CONTINUOUS
10
187.22
20
-111.395
11
187.17
21
-111.171
0
LINE
8
BLACK
6
CONTINUOUS
10
187.17
20
-111.171
11
187.156
21
-110.942
0
LINE
8
BLACK
6
CONTINUOUS
10
187.156
20
-110.942
11
187.181
21
-110.714
0
LINE
8
BLACK
6
CONTINUOUS
10
187.181
20
-110.714
11
187.242
21
-110.493
0
LINE
8
BLACK
6
CONTINUOUS
10
187.242
20
-110.493
11
187.339
21
-110.285
0
LINE
8
BLACK
6
CONTINUOUS
10
187.339
20
-110.285
11
187.468
21
-110.095
0
LINE
8
BLACK
6
CONTINUOUS
10
187.468
20
-110.095
11
187.627
21
-109.93
0
LINE
8
BLACK
6
CONTINUOUS
10
187.627
20
-109.93
11
187.81
21
-109.792
0
LINE
8
BLACK
6
CONTINUOUS
10
187.81
20
-109.792
11
188.013
21
-109.686
0
LINE
8
BLACK
6
CONTINUOUS
10
188.013
20
-109.686
11
188.232
21
-109.615
0
LINE
8
BLACK
6
CONTINUOUS
10
188.232
20
-109.615
11
188.458
21
-109.58
0
LINE
8
BLACK
6
CONTINUOUS
10
188.458
20
-109.58
11
188.688
21
-109.583
0
LINE
8
BLACK
6
CONTINUOUS
10
199.688
20
-109.583
11
199.914
21
-109.623
0
LINE
8
BLACK
6
CONTINUOUS
10
199.914
20
-109.623
11
200.13
21
-109.7
0
LINE
8
BLACK
6
CONTINUOUS
10
200.13
20
-109.7
11
200.331
21
-109.81
0
LINE
8
BLACK
6
CONTINUOUS
10
200.331
20
-109.81
11
200.511
21
-109.953
0
LINE
8
BLACK
6
CONTINUOUS
10
200.511
20
-109.953
11
200.665
21
-110.122
0
LINE
8
BLACK
6
CONTINUOUS
10
200.665
20
-110.122
11
200.79
21
-110.315
0
LINE
8
BLACK
6
CONTINUOUS
10
200.79
20
-110.315
11
200.881
21
-110.525
0
LINE
8
BLACK
6
CONTINUOUS
10
200.881
20
-110.525
11
200.937
21
-110.748
0
LINE
8
BLACK
6
CONTINUOUS
10
200.937
20
-110.748
11
200.956
21
-110.977
0
LINE
8
BLACK
6
CONTINUOUS
10
200.956
20
-110.977
11
200.954
21
-111.045
0
LINE
8
BLACK
6
CONTINUOUS
10
200.954
20
-111.045
11
200.924
21
-111.272
0
LINE
8
BLACK
6
CONTINUOUS
10
200.924
20
-111.272
11
200.858
21
-111.492
0
LINE
8
BLACK
6
CONTINUOUS
10
200.858
20
-111.492
11
200.756
21
-111.698
0
LINE
8
BLACK
6
CONTINUOUS
10
200.756
20
-111.698
11
200.622
21
-111.884
0
LINE
8
BLACK
6
CONTINUOUS
10
200.622
20
-111.884
11
200.46
21
-112.046
0
LINE
8
BLACK
6
CONTINUOUS
10
200.46
20
-112.046
11
200.273
21
-112.179
0
LINE
8
BLACK
6
CONTINUOUS
10
200.273
20
-112.179
11
200.067
21
-112.28
0
LINE
8
BLACK
6
CONTINUOUS
10
200.067
20
-112.28
11
199.847
21
-112.346
0
LINE
8
BLACK
6
CONTINUOUS
10
199.847
20
-112.346
11
199.62
21
-112.375
0
LINE
8
BLACK
6
CONTINUOUS
10
199.62
20
-112.375
11
199.39
21
-112.367
0
LINE
8
BLACK
6
CONTINUOUS
10
199.39
20
-112.367
11
199.165
21
-112.321
0
LINE
8
BLACK
6
CONTINUOUS
10
199.165
20
-112.321
11
198.951
21
-112.239
0
LINE
8
BLACK
6
CONTINUOUS
10
198.951
20
-112.239
11
198.753
21
-112.123
0
LINE
8
BLACK
6
CONTINUOUS
10
198.753
20
-112.123
11
198.576
21
-111.977
0
LINE
8
BLACK
6
CONTINUOUS
10
198.576
20
-111.977
11
198.426
21
-111.803
0
LINE
8
BLACK
6
CONTINUOUS
10
198.426
20
-111.803
11
198.306
21
-111.608
0
LINE
8
BLACK
6
CONTINUOUS
10
198.306
20
-111.608
11
198.22
21
-111.395
0
LINE
8
BLACK
6
CONTINUOUS
10
198.22
20
-111.395
11
198.17
21
-111.171
0
LINE
8
BLACK
6
CONTINUOUS
10
198.17
20
-111.171
11
198.156
21
-110.942
0
LINE
8
BLACK
6
CONTINUOUS
10
198.156
20
-110.942
11
198.181
21
-110.714
0
LINE
8
BLACK
6
CONTINUOUS
10
198.181
20
-110.714
11
198.242
21
-110.493
0
LINE
8
BLACK
6
CONTINUOUS
10
198.242
20
-110.493
11
198.339
21
-110.285
0
LINE
8
BLACK
6
CONTINUOUS
10
198.339
20
-110.285
11
198.468
21
-110.095
0
LINE
8
BLACK
6
CONTINUOUS
10
198.468
20
-110.095
11
198.627
21
-109.93
0
LINE
8
BLACK
6
CONTINUOUS
10
198.627
20
-109.93
11
198.81
21
-109.792
0
LINE
8
BLACK
6
CONTINUOUS
10
198.81
20
-109.792
11
199.013
21
-109.686
0
LINE
8
BLACK
6
CONTINUOUS
10
199.013
20
-109.686
11
199.232
21
-109.615
0
LINE
8
BLACK
6
CONTINUOUS
10
199.232
20
-109.615
11
199.458
21
-109.58
0
LINE
8
BLACK
6
CONTINUOUS
10
199.458
20
-109.58
11
199.688
21
-109.583
0
LINE
8
BLACK
6
CONTINUOUS
10
155.704
20
-109.997
11
155.855
21
-110.051
0
LINE
8
BLACK
6
CONTINUOUS
10
155.855
20
-110.051
11
155.991
21
-110.137
0
LINE
8
BLACK
6
CONTINUOUS
10
155.991
20
-110.137
11
156.104
21
-110.251
0
LINE
8
BLACK
6
CONTINUOUS
10
156.104
20
-110.251
11
156.189
21
-110.387
0
LINE
8
BLACK
6
CONTINUOUS
10
156.189
20
-110.387
11
156.242
21
-110.539
0
LINE
8
BLACK
6
CONTINUOUS
10
156.242
20
-110.539
11
156.26
21
-110.698
0
LINE
8
BLACK
6
CONTINUOUS
10
156.26
20
-110.698
11
156.259
21
-110.719
0
LINE
8
BLACK
6
CONTINUOUS
10
156.259
20
-110.719
11
156.237
21
-110.877
0
LINE
8
BLACK
6
CONTINUOUS
10
156.237
20
-110.877
11
156.18
21
-111.028
0
LINE
8
BLACK
6
CONTINUOUS
10
156.18
20
-111.028
11
156.091
21
-111.161
0
LINE
8
BLACK
6
CONTINUOUS
10
156.091
20
-111.161
11
155.975
21
-111.272
0
LINE
8
BLACK
6
CONTINUOUS
10
155.975
20
-111.272
11
155.837
21
-111.354
0
LINE
8
BLACK
6
CONTINUOUS
10
155.837
20
-111.354
11
155.684
21
-111.404
0
LINE
8
BLACK
6
CONTINUOUS
10
155.684
20
-111.404
11
155.525
21
-111.418
0
LINE
8
BLACK
6
CONTINUOUS
10
155.525
20
-111.418
11
155.365
21
-111.397
0
LINE
8
BLACK
6
CONTINUOUS
10
155.365
20
-111.397
11
155.215
21
-111.341
0
LINE
8
BLACK
6
CONTINUOUS
10
155.215
20
-111.341
11
155.081
21
-111.253
0
LINE
8
BLACK
6
CONTINUOUS
10
155.081
20
-111.253
11
154.969
21
-111.138
0
LINE
8
BLACK
6
CONTINUOUS
10
154.969
20
-111.138
11
154.886
21
-111
0
LINE
8
BLACK
6
CONTINUOUS
10
154.886
20
-111
11
154.835
21
-110.848
0
LINE
8
BLACK
6
CONTINUOUS
10
154.835
20
-110.848
11
154.82
21
-110.688
0
LINE
8
BLACK
6
CONTINUOUS
10
154.82
20
-110.688
11
154.84
21
-110.529
0
LINE
8
BLACK
6
CONTINUOUS
10
154.84
20
-110.529
11
154.895
21
-110.378
0
LINE
8
BLACK
6
CONTINUOUS
10
154.895
20
-110.378
11
154.982
21
-110.243
0
LINE
8
BLACK
6
CONTINUOUS
10
154.982
20
-110.243
11
155.096
21
-110.131
0
LINE
8
BLACK
6
CONTINUOUS
10
155.096
20
-110.131
11
155.233
21
-110.047
0
LINE
8
BLACK
6
CONTINUOUS
10
155.233
20
-110.047
11
155.385
21
-109.995
0
LINE
8
BLACK
6
CONTINUOUS
10
155.385
20
-109.995
11
155.545
21
-109.978
0
LINE
8
BLACK
6
CONTINUOUS
10
155.545
20
-109.978
11
155.704
21
-109.997
0
LINE
8
BLACK
6
CONTINUOUS
10
158.244
20
-109.997
11
158.395
21
-110.051
0
LINE
8
BLACK
6
CONTINUOUS
10
158.395
20
-110.051
11
158.531
21
-110.137
0
LINE
8
BLACK
6
CONTINUOUS
10
158.531
20
-110.137
11
158.644
21
-110.251
0
LINE
8
BLACK
6
CONTINUOUS
10
158.644
20
-110.251
11
158.729
21
-110.387
0
LINE
8
BLACK
6
CONTINUOUS
10
158.729
20
-110.387
11
158.782
21
-110.539
0
LINE
8
BLACK
6
CONTINUOUS
10
158.782
20
-110.539
11
158.8
21
-110.698
0
LINE
8
BLACK
6
CONTINUOUS
10
158.8
20
-110.698
11
158.799
21
-110.719
0
LINE
8
BLACK
6
CONTINUOUS
10
158.799
20
-110.719
11
158.777
21
-110.877
0
LINE
8
BLACK
6
CONTINUOUS
10
158.777
20
-110.877
11
158.72
21
-111.028
0
LINE
8
BLACK
6
CONTINUOUS
10
158.72
20
-111.028
11
158.631
21
-111.161
0
LINE
8
BLACK
6
CONTINUOUS
10
158.631
20
-111.161
11
158.515
21
-111.272
0
LINE
8
BLACK
6
CONTINUOUS
10
158.515
20
-111.272
11
158.377
21
-111.354
0
LINE
8
BLACK
6
CONTINUOUS
10
158.377
20
-111.354
11
158.224
21
-111.404
0
LINE
8
BLACK
6
CONTINUOUS
10
158.224
20
-111.404
11
158.065
21
-111.418
0
LINE
8
BLACK
6
CONTINUOUS
10
158.065
20
-111.418
11
157.905
21
-111.397
0
LINE
8
BLACK
6
CONTINUOUS
10
157.905
20
-111.397
11
157.755
21
-111.341
0
LINE
8
BLACK
6
CONTINUOUS
10
157.755
20
-111.341
11
157.621
21
-111.253
0
LINE
8
BLACK
6
CONTINUOUS
10
157.621
20
-111.253
11
157.509
21
-111.138
0
LINE
8
BLACK
6
CONTINUOUS
10
157.509
20
-111.138
11
157.426
21
-111
0
LINE
8
BLACK
6
CONTINUOUS
10
157.426
20
-111
11
157.375
21
-110.848
0
LINE
8
BLACK
6
CONTINUOUS
10
157.375
20
-110.848
11
157.36
21
-110.688
0
LINE
8
BLACK
6
CONTINUOUS
10
157.36
20
-110.688
11
157.38
21
-110.529
0
LINE
8
BLACK
6
CONTINUOUS
10
157.38
20
-110.529
11
157.435
21
-110.378
0
LINE
8
BLACK
6
CONTINUOUS
10
157.435
20
-110.378
11
157.522
21
-110.243
0
LINE
8
BLACK
6
CONTINUOUS
10
157.522
20
-110.243
11
157.636
21
-110.131
0
LINE
8
BLACK
6
CONTINUOUS
10
157.636
20
-110.131
11
157.773
21
-110.047
0
LINE
8
BLACK
6
CONTINUOUS
10
157.773
20
-110.047
11
157.925
21
-109.995
0
LINE
8
BLACK
6
CONTINUOUS
10
157.925
20
-109.995
11
158.085
21
-109.978
0
LINE
8
BLACK
6
CONTINUOUS
10
158.085
20
-109.978
11
158.244
21
-109.997
0
LINE
8
BLACK
6
CONTINUOUS
10
163.334
20
-109.997
11
163.485
21
-110.051
0
LINE
8
BLACK
6
CONTINUOUS
10
163.485
20
-110.051
11
163.621
21
-110.137
0
LINE
8
BLACK
6
CONTINUOUS
10
163.621
20
-110.137
11
163.734
21
-110.251
0
LINE
8
BLACK
6
CONTINUOUS
10
163.734
20
-110.251
11
163.819
21
-110.387
0
LINE
8
BLACK
6
CONTINUOUS
10
163.819
20
-110.387
11
163.872
21
-110.539
0
LINE
8
BLACK
6
CONTINUOUS
10
163.872
20
-110.539
11
163.89
21
-110.698
0
LINE
8
BLACK
6
CONTINUOUS
10
163.89
20
-110.698
11
163.889
21
-110.719
0
LINE
8
BLACK
6
CONTINUOUS
10
163.889
20
-110.719
11
163.867
21
-110.877
0
LINE
8
BLACK
6
CONTINUOUS
10
163.867
20
-110.877
11
163.81
21
-111.028
0
LINE
8
BLACK
6
CONTINUOUS
10
163.81
20
-111.028
11
163.721
21
-111.161
0
LINE
8
BLACK
6
CONTINUOUS
10
163.721
20
-111.161
11
163.605
21
-111.272
0
LINE
8
BLACK
6
CONTINUOUS
10
163.605
20
-111.272
11
163.467
21
-111.354
0
LINE
8
BLACK
6
CONTINUOUS
10
163.467
20
-111.354
11
163.314
21
-111.404
0
LINE
8
BLACK
6
CONTINUOUS
10
163.314
20
-111.404
11
163.155
21
-111.418
0
LINE
8
BLACK
6
CONTINUOUS
10
163.155
20
-111.418
11
162.995
21
-111.397
0
LINE
8
BLACK
6
CONTINUOUS
10
162.995
20
-111.397
11
162.845
21
-111.341
0
LINE
8
BLACK
6
CONTINUOUS
10
162.845
20
-111.341
11
162.711
21
-111.253
0
LINE
8
BLACK
6
CONTINUOUS
10
162.711
20
-111.253
11
162.599
21
-111.138
0
LINE
8
BLACK
6
CONTINUOUS
10
162.599
20
-111.138
11
162.516
21
-111
0
LINE
8
BLACK
6
CONTINUOUS
10
162.516
20
-111
11
162.465
21
-110.848
0
LINE
8
BLACK
6
CONTINUOUS
10
162.465
20
-110.848
11
162.45
21
-110.688
0
LINE
8
BLACK
6
CONTINUOUS
10
162.45
20
-110.688
11
162.47
21
-110.529
0
LINE
8
BLACK
6
CONTINUOUS
10
162.47
20
-110.529
11
162.525
21
-110.378
0
LINE
8
BLACK
6
CONTINUOUS
10
162.525
20
-110.378
11
162.612
21
-110.243
0
LINE
8
BLACK
6
CONTINUOUS
10
162.612
20
-110.243
11
162.726
21
-110.131
0
LINE
8
BLACK
6
CONTINUOUS
10
162.726
20
-110.131
11
162.863
21
-110.047
0
LINE
8
BLACK
6
CONTINUOUS
10
162.863
20
-110.047
11
163.015
21
-109.995
0
LINE
8
BLACK
6
CONTINUOUS
10
163.015
20
-109.995
11
163.175
21
-109.978
0
LINE
8
BLACK
6
CONTINUOUS
10
163.175
20
-109.978
11
163.334
21
-109.997
0
LINE
8
BLACK
6
CONTINUOUS
10
165.874
20
-109.997
11
166.025
21
-110.051
0
LINE
8
BLACK
6
CONTINUOUS
10
166.025
20
-110.051
11
166.161
21
-110.137
0
LINE
8
BLACK
6
CONTINUOUS
10
166.161
20
-110.137
11
166.274
21
-110.251
0
LINE
8
BLACK
6
CONTINUOUS
10
166.274
20
-110.251
11
166.359
21
-110.387
0
LINE
8
BLACK
6
CONTINUOUS
10
166.359
20
-110.387
11
166.412
21
-110.539
0
LINE
8
BLACK
6
CONTINUOUS
10
166.412
20
-110.539
11
166.43
21
-110.698
0
LINE
8
BLACK
6
CONTINUOUS
10
166.43
20
-110.698
11
166.429
21
-110.719
0
LINE
8
BLACK
6
CONTINUOUS
10
166.429
20
-110.719
11
166.407
21
-110.877
0
LINE
8
BLACK
6
CONTINUOUS
10
166.407
20
-110.877
11
166.35
21
-111.028
0
LINE
8
BLACK
6
CONTINUOUS
10
166.35
20
-111.028
11
166.261
21
-111.161
0
LINE
8
BLACK
6
CONTINUOUS
10
166.261
20
-111.161
11
166.145
21
-111.272
0
LINE
8
BLACK
6
CONTINUOUS
10
166.145
20
-111.272
11
166.007
21
-111.354
0
LINE
8
BLACK
6
CONTINUOUS
10
166.007
20
-111.354
11
165.854
21
-111.404
0
LINE
8
BLACK
6
CONTINUOUS
10
165.854
20
-111.404
11
165.695
21
-111.418
0
LINE
8
BLACK
6
CONTINUOUS
10
165.695
20
-111.418
11
165.535
21
-111.397
0
LINE
8
BLACK
6
CONTINUOUS
10
165.535
20
-111.397
11
165.385
21
-111.341
0
LINE
8
BLACK
6
CONTINUOUS
10
165.385
20
-111.341
11
165.251
21
-111.253
0
LINE
8
BLACK
6
CONTINUOUS
10
165.251
20
-111.253
11
165.139
21
-111.138
0
LINE
8
BLACK
6
CONTINUOUS
10
165.139
20
-111.138
11
165.056
21
-111
0
LINE
8
BLACK
6
CONTINUOUS
10
165.056
20
-111
11
165.005
21
-110.848
0
LINE
8
BLACK
6
CONTINUOUS
10
165.005
20
-110.848
11
164.99
21
-110.688
0
LINE
8
BLACK
6
CONTINUOUS
10
164.99
20
-110.688
11
165.01
21
-110.529
0
LINE
8
BLACK
6
CONTINUOUS
10
165.01
20
-110.529
11
165.065
21
-110.378
0
LINE
8
BLACK
6
CONTINUOUS
10
165.065
20
-110.378
11
165.152
21
-110.243
0
LINE
8
BLACK
6
CONTINUOUS
10
165.152
20
-110.243
11
165.266
21
-110.131
0
LINE
8
BLACK
6
CONTINUOUS
10
165.266
20
-110.131
11
165.403
21
-110.047
0
LINE
8
BLACK
6
CONTINUOUS
10
165.403
20
-110.047
11
165.555
21
-109.995
0
LINE
8
BLACK
6
CONTINUOUS
10
165.555
20
-109.995
11
165.715
21
-109.978
0
LINE
8
BLACK
6
CONTINUOUS
10
165.715
20
-109.978
11
165.874
21
-109.997
0
LINE
8
BLACK
6
CONTINUOUS
10
168.414
20
-109.997
11
168.565
21
-110.051
0
LINE
8
BLACK
6
CONTINUOUS
10
168.565
20
-110.051
11
168.701
21
-110.137
0
LINE
8
BLACK
6
CONTINUOUS
10
168.701
20
-110.137
11
168.814
21
-110.251
0
LINE
8
BLACK
6
CONTINUOUS
10
168.814
20
-110.251
11
168.899
21
-110.387
0
LINE
8
BLACK
6
CONTINUOUS
10
168.899
20
-110.387
11
168.952
21
-110.539
0
LINE
8
BLACK
6
CONTINUOUS
10
168.952
20
-110.539
11
168.97
21
-110.698
0
LINE
8
BLACK
6
CONTINUOUS
10
168.97
20
-110.698
11
168.969
21
-110.719
0
LINE
8
BLACK
6
CONTINUOUS
10
168.969
20
-110.719
11
168.947
21
-110.877
0
LINE
8
BLACK
6
CONTINUOUS
10
168.947
20
-110.877
11
168.89
21
-111.028
0
LINE
8
BLACK
6
CONTINUOUS
10
168.89
20
-111.028
11
168.801
21
-111.161
0
LINE
8
BLACK
6
CONTINUOUS
10
168.801
20
-111.161
11
168.685
21
-111.272
0
LINE
8
BLACK
6
CONTINUOUS
10
168.685
20
-111.272
11
168.547
21
-111.354
0
LINE
8
BLACK
6
CONTINUOUS
10
168.547
20
-111.354
11
168.394
21
-111.404
0
LINE
8
BLACK
6
CONTINUOUS
10
168.394
20
-111.404
11
168.235
21
-111.418
0
LINE
8
BLACK
6
CONTINUOUS
10
168.235
20
-111.418
11
168.075
21
-111.397
0
LINE
8
BLACK
6
CONTINUOUS
10
168.075
20
-111.397
11
167.925
21
-111.341
0
LINE
8
BLACK
6
CONTINUOUS
10
167.925
20
-111.341
11
167.791
21
-111.253
0
LINE
8
BLACK
6
CONTINUOUS
10
167.791
20
-111.253
11
167.679
21
-111.138
0
LINE
8
BLACK
6
CONTINUOUS
10
167.679
20
-111.138
11
167.596
21
-111
0
LINE
8
BLACK
6
CONTINUOUS
10
167.596
20
-111
11
167.545
21
-110.848
0
LINE
8
BLACK
6
CONTINUOUS
10
167.545
20
-110.848
11
167.53
21
-110.688
0
LINE
8
BLACK
6
CONTINUOUS
10
167.53
20
-110.688
11
167.55
21
-110.529
0
LINE
8
BLACK
6
CONTINUOUS
10
167.55
20
-110.529
11
167.605
21
-110.378
0
LINE
8
BLACK
6
CONTINUOUS
10
167.605
20
-110.378
11
167.692
21
-110.243
0
LINE
8
BLACK
6
CONTINUOUS
10
167.692
20
-110.243
11
167.806
21
-110.131
0
LINE
8
BLACK
6
CONTINUOUS
10
167.806
20
-110.131
11
167.943
21
-110.047
0
LINE
8
BLACK
6
CONTINUOUS
10
167.943
20
-110.047
11
168.095
21
-109.995
0
LINE
8
BLACK
6
CONTINUOUS
10
168.095
20
-109.995
11
168.255
21
-109.978
0
LINE
8
BLACK
6
CONTINUOUS
10
168.255
20
-109.978
11
168.414
21
-109.997
0
LINE
8
BLACK
6
CONTINUOUS
10
173.519
20
-109.997
11
173.671
21
-110.051
0
LINE
8
BLACK
6
CONTINUOUS
10
173.671
20
-110.051
11
173.806
21
-110.137
0
LINE
8
BLACK
6
CONTINUOUS
10
173.806
20
-110.137
11
173.919
21
-110.251
0
LINE
8
BLACK
6
CONTINUOUS
10
173.919
20
-110.251
11
174.004
21
-110.387
0
LINE
8
BLACK
6
CONTINUOUS
10
174.004
20
-110.387
11
174.057
21
-110.539
0
LINE
8
BLACK
6
CONTINUOUS
10
174.057
20
-110.539
11
174.075
21
-110.698
0
LINE
8
BLACK
6
CONTINUOUS
10
174.075
20
-110.698
11
174.075
21
-110.719
0
LINE
8
BLACK
6
CONTINUOUS
10
174.075
20
-110.719
11
174.052
21
-110.877
0
LINE
8
BLACK
6
CONTINUOUS
10
174.052
20
-110.877
11
173.995
21
-111.028
0
LINE
8
BLACK
6
CONTINUOUS
10
173.995
20
-111.028
11
173.907
21
-111.161
0
LINE
8
BLACK
6
CONTINUOUS
10
173.907
20
-111.161
11
173.79
21
-111.272
0
LINE
8
BLACK
6
CONTINUOUS
10
173.79
20
-111.272
11
173.652
21
-111.354
0
LINE
8
BLACK
6
CONTINUOUS
10
173.652
20
-111.354
11
173.5
21
-111.404
0
LINE
8
BLACK
6
CONTINUOUS
10
173.5
20
-111.404
11
173.34
21
-111.418
0
LINE
8
BLACK
6
CONTINUOUS
10
173.34
20
-111.418
11
173.181
21
-111.397
0
LINE
8
BLACK
6
CONTINUOUS
10
173.181
20
-111.397
11
173.03
21
-111.341
0
LINE
8
BLACK
6
CONTINUOUS
10
173.03
20
-111.341
11
172.896
21
-111.253
0
LINE
8
BLACK
6
CONTINUOUS
10
172.896
20
-111.253
11
172.785
21
-111.138
0
LINE
8
BLACK
6
CONTINUOUS
10
172.785
20
-111.138
11
172.701
21
-111
0
LINE
8
BLACK
6
CONTINUOUS
10
172.701
20
-111
11
172.651
21
-110.848
0
LINE
8
BLACK
6
CONTINUOUS
10
172.651
20
-110.848
11
172.635
21
-110.688
0
LINE
8
BLACK
6
CONTINUOUS
10
172.635
20
-110.688
11
172.655
21
-110.529
0
LINE
8
BLACK
6
CONTINUOUS
10
172.655
20
-110.529
11
172.71
21
-110.378
0
LINE
8
BLACK
6
CONTINUOUS
10
172.71
20
-110.378
11
172.797
21
-110.243
0
LINE
8
BLACK
6
CONTINUOUS
10
172.797
20
-110.243
11
172.912
21
-110.131
0
LINE
8
BLACK
6
CONTINUOUS
10
172.912
20
-110.131
11
173.048
21
-110.047
0
LINE
8
BLACK
6
CONTINUOUS
10
173.048
20
-110.047
11
173.2
21
-109.995
0
LINE
8
BLACK
6
CONTINUOUS
10
173.2
20
-109.995
11
173.36
21
-109.978
0
LINE
8
BLACK
6
CONTINUOUS
10
173.36
20
-109.978
11
173.519
21
-109.997
0
LINE
8
BLACK
6
CONTINUOUS
10
176.059
20
-109.997
11
176.211
21
-110.051
0
LINE
8
BLACK
6
CONTINUOUS
10
176.211
20
-110.051
11
176.346
21
-110.137
0
LINE
8
BLACK
6
CONTINUOUS
10
176.346
20
-110.137
11
176.459
21
-110.251
0
LINE
8
BLACK
6
CONTINUOUS
10
176.459
20
-110.251
11
176.544
21
-110.387
0
LINE
8
BLACK
6
CONTINUOUS
10
176.544
20
-110.387
11
176.597
21
-110.539
0
LINE
8
BLACK
6
CONTINUOUS
10
176.597
20
-110.539
11
176.615
21
-110.698
0
LINE
8
BLACK
6
CONTINUOUS
10
176.615
20
-110.698
11
176.615
21
-110.719
0
LINE
8
BLACK
6
CONTINUOUS
10
176.615
20
-110.719
11
176.592
21
-110.877
0
LINE
8
BLACK
6
CONTINUOUS
10
176.592
20
-110.877
11
176.535
21
-111.028
0
LINE
8
BLACK
6
CONTINUOUS
10
176.535
20
-111.028
11
176.447
21
-111.161
0
LINE
8
BLACK
6
CONTINUOUS
10
176.447
20
-111.161
11
176.33
21
-111.272
0
LINE
8
BLACK
6
CONTINUOUS
10
176.33
20
-111.272
11
176.192
21
-111.354
0
LINE
8
BLACK
6
CONTINUOUS
10
176.192
20
-111.354
11
176.04
21
-111.404
0
LINE
8
BLACK
6
CONTINUOUS
10
176.04
20
-111.404
11
175.88
21
-111.418
0
LINE
8
BLACK
6
CONTINUOUS
10
175.88
20
-111.418
11
175.721
21
-111.397
0
LINE
8
BLACK
6
CONTINUOUS
10
175.721
20
-111.397
11
175.57
21
-111.341
0
LINE
8
BLACK
6
CONTINUOUS
10
175.57
20
-111.341
11
175.436
21
-111.253
0
LINE
8
BLACK
6
CONTINUOUS
10
175.436
20
-111.253
11
175.325
21
-111.138
0
LINE
8
BLACK
6
CONTINUOUS
10
175.325
20
-111.138
11
175.241
21
-111
0
LINE
8
BLACK
6
CONTINUOUS
10
175.241
20
-111
11
175.191
21
-110.848
0
LINE
8
BLACK
6
CONTINUOUS
10
175.191
20
-110.848
11
175.175
21
-110.688
0
LINE
8
BLACK
6
CONTINUOUS
10
175.175
20
-110.688
11
175.195
21
-110.529
0
LINE
8
BLACK
6
CONTINUOUS
10
175.195
20
-110.529
11
175.25
21
-110.378
0
LINE
8
BLACK
6
CONTINUOUS
10
175.25
20
-110.378
11
175.337
21
-110.243
0
LINE
8
BLACK
6
CONTINUOUS
10
175.337
20
-110.243
11
175.452
21
-110.131
0
LINE
8
BLACK
6
CONTINUOUS
10
175.452
20
-110.131
11
175.588
21
-110.047
0
LINE
8
BLACK
6
CONTINUOUS
10
175.588
20
-110.047
11
175.74
21
-109.995
0
LINE
8
BLACK
6
CONTINUOUS
10
175.74
20
-109.995
11
175.9
21
-109.978
0
LINE
8
BLACK
6
CONTINUOUS
10
175.9
20
-109.978
11
176.059
21
-109.997
0
LINE
8
BLACK
6
CONTINUOUS
10
178.599
20
-109.997
11
178.751
21
-110.051
0
LINE
8
BLACK
6
CONTINUOUS
10
178.751
20
-110.051
11
178.886
21
-110.137
0
LINE
8
BLACK
6
CONTINUOUS
10
178.886
20
-110.137
11
178.999
21
-110.251
0
LINE
8
BLACK
6
CONTINUOUS
10
178.999
20
-110.251
11
179.084
21
-110.387
0
LINE
8
BLACK
6
CONTINUOUS
10
179.084
20
-110.387
11
179.137
21
-110.539
0
LINE
8
BLACK
6
CONTINUOUS
10
179.137
20
-110.539
11
179.155
21
-110.698
0
LINE
8
BLACK
6
CONTINUOUS
10
179.155
20
-110.698
11
179.155
21
-110.719
0
LINE
8
BLACK
6
CONTINUOUS
10
179.155
20
-110.719
11
179.132
21
-110.877
0
LINE
8
BLACK
6
CONTINUOUS
10
179.132
20
-110.877
11
179.075
21
-111.028
0
LINE
8
BLACK
6
CONTINUOUS
10
179.075
20
-111.028
11
178.987
21
-111.161
0
LINE
8
BLACK
6
CONTINUOUS
10
178.987
20
-111.161
11
178.87
21
-111.272
0
LINE
8
BLACK
6
CONTINUOUS
10
178.87
20
-111.272
11
178.732
21
-111.354
0
LINE
8
BLACK
6
CONTINUOUS
10
178.732
20
-111.354
11
178.58
21
-111.404
0
LINE
8
BLACK
6
CONTINUOUS
10
178.58
20
-111.404
11
178.42
21
-111.418
0
LINE
8
BLACK
6
CONTINUOUS
10
178.42
20
-111.418
11
178.261
21
-111.397
0
LINE
8
BLACK
6
CONTINUOUS
10
178.261
20
-111.397
11
178.11
21
-111.341
0
LINE
8
BLACK
6
CONTINUOUS
10
178.11
20
-111.341
11
177.976
21
-111.253
0
LINE
8
BLACK
6
CONTINUOUS
10
177.976
20
-111.253
11
177.865
21
-111.138
0
LINE
8
BLACK
6
CONTINUOUS
10
177.865
20
-111.138
11
177.781
21
-111
0
LINE
8
BLACK
6
CONTINUOUS
10
177.781
20
-111
11
177.731
21
-110.848
0
LINE
8
BLACK
6
CONTINUOUS
10
177.731
20
-110.848
11
177.715
21
-110.688
0
LINE
8
BLACK
6
CONTINUOUS
10
177.715
20
-110.688
11
177.735
21
-110.529
0
LINE
8
BLACK
6
CONTINUOUS
10
177.735
20
-110.529
11
177.79
21
-110.378
0
LINE
8
BLACK
6
CONTINUOUS
10
177.79
20
-110.378
11
177.877
21
-110.243
0
LINE
8
BLACK
6
CONTINUOUS
10
177.877
20
-110.243
11
177.992
21
-110.131
0
LINE
8
BLACK
6
CONTINUOUS
10
177.992
20
-110.131
11
178.128
21
-110.047
0
LINE
8
BLACK
6
CONTINUOUS
10
178.128
20
-110.047
11
178.28
21
-109.995
0
LINE
8
BLACK
6
CONTINUOUS
10
178.28
20
-109.995
11
178.44
21
-109.978
0
LINE
8
BLACK
6
CONTINUOUS
10
178.44
20
-109.978
11
178.599
21
-109.997
0
LINE
8
BLACK
6
CONTINUOUS
10
153.164
20
-109.997
11
153.315
21
-110.051
0
LINE
8
BLACK
6
CONTINUOUS
10
153.315
20
-110.051
11
153.451
21
-110.137
0
LINE
8
BLACK
6
CONTINUOUS
10
153.451
20
-110.137
11
153.564
21
-110.251
0
LINE
8
BLACK
6
CONTINUOUS
10
153.564
20
-110.251
11
153.649
21
-110.387
0
LINE
8
BLACK
6
CONTINUOUS
10
153.649
20
-110.387
11
153.702
21
-110.539
0
LINE
8
BLACK
6
CONTINUOUS
10
153.702
20
-110.539
11
153.72
21
-110.698
0
LINE
8
BLACK
6
CONTINUOUS
10
153.72
20
-110.698
11
153.719
21
-110.719
0
LINE
8
BLACK
6
CONTINUOUS
10
153.719
20
-110.719
11
153.697
21
-110.877
0
LINE
8
BLACK
6
CONTINUOUS
10
153.697
20
-110.877
11
153.64
21
-111.028
0
LINE
8
BLACK
6
CONTINUOUS
10
153.64
20
-111.028
11
153.551
21
-111.161
0
LINE
8
BLACK
6
CONTINUOUS
10
153.551
20
-111.161
11
153.435
21
-111.272
0
LINE
8
BLACK
6
CONTINUOUS
10
153.435
20
-111.272
11
153.297
21
-111.354
0
LINE
8
BLACK
6
CONTINUOUS
10
153.297
20
-111.354
11
153.144
21
-111.404
0
LINE
8
BLACK
6
CONTINUOUS
10
153.144
20
-111.404
11
152.985
21
-111.418
0
LINE
8
BLACK
6
CONTINUOUS
10
152.985
20
-111.418
11
152.825
21
-111.397
0
LINE
8
BLACK
6
CONTINUOUS
10
152.825
20
-111.397
11
152.675
21
-111.341
0
LINE
8
BLACK
6
CONTINUOUS
10
152.675
20
-111.341
11
152.541
21
-111.253
0
LINE
8
BLACK
6
CONTINUOUS
10
152.541
20
-111.253
11
152.429
21
-111.138
0
LINE
8
BLACK
6
CONTINUOUS
10
152.429
20
-111.138
11
152.346
21
-111
0
LINE
8
BLACK
6
CONTINUOUS
10
152.346
20
-111
11
152.295
21
-110.848
0
LINE
8
BLACK
6
CONTINUOUS
10
152.295
20
-110.848
11
152.28
21
-110.688
0
LINE
8
BLACK
6
CONTINUOUS
10
152.28
20
-110.688
11
152.3
21
-110.529
0
LINE
8
BLACK
6
CONTINUOUS
10
152.3
20
-110.529
11
152.355
21
-110.378
0
LINE
8
BLACK
6
CONTINUOUS
10
152.355
20
-110.378
11
152.442
21
-110.243
0
LINE
8
BLACK
6
CONTINUOUS
10
152.442
20
-110.243
11
152.556
21
-110.131
0
LINE
8
BLACK
6
CONTINUOUS
10
152.556
20
-110.131
11
152.693
21
-110.047
0
LINE
8
BLACK
6
CONTINUOUS
10
152.693
20
-110.047
11
152.845
21
-109.995
0
LINE
8
BLACK
6
CONTINUOUS
10
152.845
20
-109.995
11
153.005
21
-109.978
0
LINE
8
BLACK
6
CONTINUOUS
10
153.005
20
-109.978
11
153.164
21
-109.997
0
LINE
8
BLACK
6
CONTINUOUS
10
194.188
20
-108.109
11
194.414
21
-108.149
0
LINE
8
BLACK
6
CONTINUOUS
10
194.414
20
-108.149
11
194.63
21
-108.226
0
LINE
8
BLACK
6
CONTINUOUS
10
194.63
20
-108.226
11
194.831
21
-108.337
0
LINE
8
BLACK
6
CONTINUOUS
10
194.831
20
-108.337
11
195.011
21
-108.479
0
LINE
8
BLACK
6
CONTINUOUS
10
195.011
20
-108.479
11
195.165
21
-108.649
0
LINE
8
BLACK
6
CONTINUOUS
10
195.165
20
-108.649
11
195.29
21
-108.841
0
LINE
8
BLACK
6
CONTINUOUS
10
195.29
20
-108.841
11
195.381
21
-109.052
0
LINE
8
BLACK
6
CONTINUOUS
10
195.381
20
-109.052
11
195.437
21
-109.274
0
LINE
8
BLACK
6
CONTINUOUS
10
195.437
20
-109.274
11
195.456
21
-109.503
0
LINE
8
BLACK
6
CONTINUOUS
10
195.456
20
-109.503
11
195.454
21
-109.571
0
LINE
8
BLACK
6
CONTINUOUS
10
195.454
20
-109.571
11
195.424
21
-109.799
0
LINE
8
BLACK
6
CONTINUOUS
10
195.424
20
-109.799
11
195.358
21
-110.018
0
LINE
8
BLACK
6
CONTINUOUS
10
195.358
20
-110.018
11
195.256
21
-110.224
0
LINE
8
BLACK
6
CONTINUOUS
10
195.256
20
-110.224
11
195.122
21
-110.41
0
LINE
8
BLACK
6
CONTINUOUS
10
195.122
20
-110.41
11
194.96
21
-110.572
0
LINE
8
BLACK
6
CONTINUOUS
10
194.96
20
-110.572
11
194.773
21
-110.705
0
LINE
8
BLACK
6
CONTINUOUS
10
194.773
20
-110.705
11
194.567
21
-110.806
0
LINE
8
BLACK
6
CONTINUOUS
10
194.567
20
-110.806
11
194.347
21
-110.872
0
LINE
8
BLACK
6
CONTINUOUS
10
194.347
20
-110.872
11
194.12
21
-110.901
0
LINE
8
BLACK
6
CONTINUOUS
10
194.12
20
-110.901
11
193.89
21
-110.893
0
LINE
8
BLACK
6
CONTINUOUS
10
193.89
20
-110.893
11
193.665
21
-110.847
0
LINE
8
BLACK
6
CONTINUOUS
10
193.665
20
-110.847
11
193.451
21
-110.765
0
LINE
8
BLACK
6
CONTINUOUS
10
193.451
20
-110.765
11
193.253
21
-110.65
0
LINE
8
BLACK
6
CONTINUOUS
10
193.253
20
-110.65
11
193.076
21
-110.503
0
LINE
8
BLACK
6
CONTINUOUS
10
193.076
20
-110.503
11
192.926
21
-110.33
0
LINE
8
BLACK
6
CONTINUOUS
10
192.926
20
-110.33
11
192.806
21
-110.134
0
LINE
8
BLACK
6
CONTINUOUS
10
192.806
20
-110.134
11
192.72
21
-109.921
0
LINE
8
BLACK
6
CONTINUOUS
10
192.72
20
-109.921
11
192.67
21
-109.698
0
LINE
8
BLACK
6
CONTINUOUS
10
192.67
20
-109.698
11
192.656
21
-109.469
0
LINE
8
BLACK
6
CONTINUOUS
10
192.656
20
-109.469
11
192.681
21
-109.24
0
LINE
8
BLACK
6
CONTINUOUS
10
192.681
20
-109.24
11
192.742
21
-109.019
0
LINE
8
BLACK
6
CONTINUOUS
10
192.742
20
-109.019
11
192.839
21
-108.811
0
LINE
8
BLACK
6
CONTINUOUS
10
192.839
20
-108.811
11
192.968
21
-108.622
0
LINE
8
BLACK
6
CONTINUOUS
10
192.968
20
-108.622
11
193.127
21
-108.456
0
LINE
8
BLACK
6
CONTINUOUS
10
193.127
20
-108.456
11
193.31
21
-108.318
0
LINE
8
BLACK
6
CONTINUOUS
10
193.31
20
-108.318
11
193.513
21
-108.212
0
LINE
8
BLACK
6
CONTINUOUS
10
193.513
20
-108.212
11
193.732
21
-108.141
0
LINE
8
BLACK
6
CONTINUOUS
10
193.732
20
-108.141
11
193.958
21
-108.106
0
LINE
8
BLACK
6
CONTINUOUS
10
193.958
20
-108.106
11
194.188
21
-108.109
0
LINE
8
BLACK
6
CONTINUOUS
10
103.516
20
-106.798
11
101.716
21
-106.798
0
LINE
8
BLACK
6
CONTINUOUS
10
101.716
20
-106.798
11
101.716
21
-104.998
0
LINE
8
BLACK
6
CONTINUOUS
10
101.716
20
-104.998
11
103.516
21
-104.998
0
LINE
8
BLACK
6
CONTINUOUS
10
103.516
20
-104.998
11
103.516
21
-106.798
0
LINE
8
BLACK
6
CONTINUOUS
10
105.394
20
-105.042
11
105.566
21
-105.118
0
LINE
8
BLACK
6
CONTINUOUS
10
105.566
20
-105.118
11
105.718
21
-105.229
0
LINE
8
BLACK
6
CONTINUOUS
10
105.718
20
-105.229
11
105.844
21
-105.369
0
LINE
8
BLACK
6
CONTINUOUS
10
105.844
20
-105.369
11
105.938
21
-105.532
0
LINE
8
BLACK
6
CONTINUOUS
10
105.938
20
-105.532
11
105.996
21
-105.711
0
LINE
8
BLACK
6
CONTINUOUS
10
105.996
20
-105.711
11
106.016
21
-105.898
0
LINE
8
BLACK
6
CONTINUOUS
10
106.016
20
-105.898
11
105.996
21
-106.085
0
LINE
8
BLACK
6
CONTINUOUS
10
105.996
20
-106.085
11
105.938
21
-106.264
0
LINE
8
BLACK
6
CONTINUOUS
10
105.938
20
-106.264
11
105.844
21
-106.427
0
LINE
8
BLACK
6
CONTINUOUS
10
105.844
20
-106.427
11
105.718
21
-106.567
0
LINE
8
BLACK
6
CONTINUOUS
10
105.718
20
-106.567
11
105.566
21
-106.677
0
LINE
8
BLACK
6
CONTINUOUS
10
105.566
20
-106.677
11
105.394
21
-106.754
0
LINE
8
BLACK
6
CONTINUOUS
10
105.394
20
-106.754
11
105.21
21
-106.793
0
LINE
8
BLACK
6
CONTINUOUS
10
105.21
20
-106.793
11
105.022
21
-106.793
0
LINE
8
BLACK
6
CONTINUOUS
10
105.022
20
-106.793
11
104.838
21
-106.754
0
LINE
8
BLACK
6
CONTINUOUS
10
104.838
20
-106.754
11
104.666
21
-106.677
0
LINE
8
BLACK
6
CONTINUOUS
10
104.666
20
-106.677
11
104.514
21
-106.567
0
LINE
8
BLACK
6
CONTINUOUS
10
104.514
20
-106.567
11
104.388
21
-106.427
0
LINE
8
BLACK
6
CONTINUOUS
10
104.388
20
-106.427
11
104.294
21
-106.264
0
LINE
8
BLACK
6
CONTINUOUS
10
104.294
20
-106.264
11
104.236
21
-106.085
0
LINE
8
BLACK
6
CONTINUOUS
10
104.236
20
-106.085
11
104.216
21
-105.898
0
LINE
8
BLACK
6
CONTINUOUS
10
104.216
20
-105.898
11
104.236
21
-105.711
0
LINE
8
BLACK
6
CONTINUOUS
10
104.236
20
-105.711
11
104.294
21
-105.532
0
LINE
8
BLACK
6
CONTINUOUS
10
104.294
20
-105.532
11
104.388
21
-105.369
0
LINE
8
BLACK
6
CONTINUOUS
10
104.388
20
-105.369
11
104.514
21
-105.229
0
LINE
8
BLACK
6
CONTINUOUS
10
104.514
20
-105.229
11
104.666
21
-105.118
0
LINE
8
BLACK
6
CONTINUOUS
10
104.666
20
-105.118
11
104.838
21
-105.042
0
LINE
8
BLACK
6
CONTINUOUS
10
104.838
20
-105.042
11
105.022
21
-105.003
0
LINE
8
BLACK
6
CONTINUOUS
10
105.022
20
-105.003
11
105.21
21
-105.003
0
LINE
8
BLACK
6
CONTINUOUS
10
105.21
20
-105.003
11
105.394
21
-105.042
0
LINE
8
BLACK
6
CONTINUOUS
10
107.894
20
-105.042
11
108.066
21
-105.118
0
LINE
8
BLACK
6
CONTINUOUS
10
108.066
20
-105.118
11
108.218
21
-105.229
0
LINE
8
BLACK
6
CONTINUOUS
10
108.218
20
-105.229
11
108.344
21
-105.369
0
LINE
8
BLACK
6
CONTINUOUS
10
108.344
20
-105.369
11
108.438
21
-105.532
0
LINE
8
BLACK
6
CONTINUOUS
10
108.438
20
-105.532
11
108.496
21
-105.711
0
LINE
8
BLACK
6
CONTINUOUS
10
108.496
20
-105.711
11
108.516
21
-105.898
0
LINE
8
BLACK
6
CONTINUOUS
10
108.516
20
-105.898
11
108.496
21
-106.085
0
LINE
8
BLACK
6
CONTINUOUS
10
108.496
20
-106.085
11
108.438
21
-106.264
0
LINE
8
BLACK
6
CONTINUOUS
10
108.438
20
-106.264
11
108.344
21
-106.427
0
LINE
8
BLACK
6
CONTINUOUS
10
108.344
20
-106.427
11
108.218
21
-106.567
0
LINE
8
BLACK
6
CONTINUOUS
10
108.218
20
-106.567
11
108.066
21
-106.677
0
LINE
8
BLACK
6
CONTINUOUS
10
108.066
20
-106.677
11
107.894
21
-106.754
0
LINE
8
BLACK
6
CONTINUOUS
10
107.894
20
-106.754
11
107.71
21
-106.793
0
LINE
8
BLACK
6
CONTINUOUS
10
107.71
20
-106.793
11
107.522
21
-106.793
0
LINE
8
BLACK
6
CONTINUOUS
10
107.522
20
-106.793
11
107.338
21
-106.754
0
LINE
8
BLACK
6
CONTINUOUS
10
107.338
20
-106.754
11
107.166
21
-106.677
0
LINE
8
BLACK
6
CONTINUOUS
10
107.166
20
-106.677
11
107.014
21
-106.567
0
LINE
8
BLACK
6
CONTINUOUS
10
107.014
20
-106.567
11
106.888
21
-106.427
0
LINE
8
BLACK
6
CONTINUOUS
10
106.888
20
-106.427
11
106.794
21
-106.264
0
LINE
8
BLACK
6
CONTINUOUS
10
106.794
20
-106.264
11
106.736
21
-106.085
0
LINE
8
BLACK
6
CONTINUOUS
10
106.736
20
-106.085
11
106.716
21
-105.898
0
LINE
8
BLACK
6
CONTINUOUS
10
106.716
20
-105.898
11
106.736
21
-105.711
0
LINE
8
BLACK
6
CONTINUOUS
10
106.736
20
-105.711
11
106.794
21
-105.532
0
LINE
8
BLACK
6
CONTINUOUS
10
106.794
20
-105.532
11
106.888
21
-105.369
0
LINE
8
BLACK
6
CONTINUOUS
10
106.888
20
-105.369
11
107.014
21
-105.229
0
LINE
8
BLACK
6
CONTINUOUS
10
107.014
20
-105.229
11
107.166
21
-105.118
0
LINE
8
BLACK
6
CONTINUOUS
10
107.166
20
-105.118
11
107.338
21
-105.042
0
LINE
8
BLACK
6
CONTINUOUS
10
107.338
20
-105.042
11
107.522
21
-105.003
0
LINE
8
BLACK
6
CONTINUOUS
10
107.522
20
-105.003
11
107.71
21
-105.003
0
LINE
8
BLACK
6
CONTINUOUS
10
107.71
20
-105.003
11
107.894
21
-105.042
0
LINE
8
BLACK
6
CONTINUOUS
10
125.448
20
-103.983
11
125.667
21
-104.041
0
LINE
8
BLACK
6
CONTINUOUS
10
125.667
20
-104.041
11
125.872
21
-104.137
0
LINE
8
BLACK
6
CONTINUOUS
10
125.872
20
-104.137
11
126.058
21
-104.267
0
LINE
8
BLACK
6
CONTINUOUS
10
126.058
20
-104.267
11
126.218
21
-104.427
0
LINE
8
BLACK
6
CONTINUOUS
10
126.218
20
-104.427
11
126.348
21
-104.613
0
LINE
8
BLACK
6
CONTINUOUS
10
126.348
20
-104.613
11
126.444
21
-104.818
0
LINE
8
BLACK
6
CONTINUOUS
10
126.444
20
-104.818
11
126.502
21
-105.037
0
LINE
8
BLACK
6
CONTINUOUS
10
126.502
20
-105.037
11
126.522
21
-105.263
0
LINE
8
BLACK
6
CONTINUOUS
10
126.522
20
-105.263
11
126.502
21
-105.489
0
LINE
8
BLACK
6
CONTINUOUS
10
126.502
20
-105.489
11
126.444
21
-105.707
0
LINE
8
BLACK
6
CONTINUOUS
10
126.444
20
-105.707
11
126.348
21
-105.913
0
LINE
8
BLACK
6
CONTINUOUS
10
126.348
20
-105.913
11
126.218
21
-106.098
0
LINE
8
BLACK
6
CONTINUOUS
10
126.218
20
-106.098
11
126.058
21
-106.259
0
LINE
8
BLACK
6
CONTINUOUS
10
126.058
20
-106.259
11
125.872
21
-106.389
0
LINE
8
BLACK
6
CONTINUOUS
10
125.872
20
-106.389
11
125.667
21
-106.484
0
LINE
8
BLACK
6
CONTINUOUS
10
125.667
20
-106.484
11
125.448
21
-106.543
0
LINE
8
BLACK
6
CONTINUOUS
10
125.448
20
-106.543
11
125.222
21
-106.563
0
LINE
8
BLACK
6
CONTINUOUS
10
125.222
20
-106.563
11
124.996
21
-106.543
0
LINE
8
BLACK
6
CONTINUOUS
10
124.996
20
-106.543
11
124.777
21
-106.484
0
LINE
8
BLACK
6
CONTINUOUS
10
124.777
20
-106.484
11
124.572
21
-106.389
0
LINE
8
BLACK
6
CONTINUOUS
10
124.572
20
-106.389
11
124.386
21
-106.259
0
LINE
8
BLACK
6
CONTINUOUS
10
124.386
20
-106.259
11
124.226
21
-106.098
0
LINE
8
BLACK
6
CONTINUOUS
10
124.226
20
-106.098
11
124.096
21
-105.913
0
LINE
8
BLACK
6
CONTINUOUS
10
124.096
20
-105.913
11
124
21
-105.707
0
LINE
8
BLACK
6
CONTINUOUS
10
124
20
-105.707
11
123.942
21
-105.489
0
LINE
8
BLACK
6
CONTINUOUS
10
123.942
20
-105.489
11
123.922
21
-105.263
0
LINE
8
BLACK
6
CONTINUOUS
10
123.922
20
-105.263
11
123.942
21
-105.037
0
LINE
8
BLACK
6
CONTINUOUS
10
123.942
20
-105.037
11
124
21
-104.818
0
LINE
8
BLACK
6
CONTINUOUS
10
124
20
-104.818
11
124.096
21
-104.613
0
LINE
8
BLACK
6
CONTINUOUS
10
124.096
20
-104.613
11
124.226
21
-104.427
0
LINE
8
BLACK
6
CONTINUOUS
10
124.226
20
-104.427
11
124.386
21
-104.267
0
LINE
8
BLACK
6
CONTINUOUS
10
124.386
20
-104.267
11
124.572
21
-104.137
0
LINE
8
BLACK
6
CONTINUOUS
10
124.572
20
-104.137
11
124.777
21
-104.041
0
LINE
8
BLACK
6
CONTINUOUS
10
124.777
20
-104.041
11
124.996
21
-103.983
0
LINE
8
BLACK
6
CONTINUOUS
10
124.996
20
-103.983
11
125.222
21
-103.963
0
LINE
8
BLACK
6
CONTINUOUS
10
125.222
20
-103.963
11
125.448
21
-103.983
0
LINE
8
BLACK
6
CONTINUOUS
10
133.068
20
-103.983
11
133.287
21
-104.041
0
LINE
8
BLACK
6
CONTINUOUS
10
133.287
20
-104.041
11
133.492
21
-104.137
0
LINE
8
BLACK
6
CONTINUOUS
10
133.492
20
-104.137
11
133.678
21
-104.267
0
LINE
8
BLACK
6
CONTINUOUS
10
133.678
20
-104.267
11
133.838
21
-104.427
0
LINE
8
BLACK
6
CONTINUOUS
10
133.838
20
-104.427
11
133.968
21
-104.613
0
LINE
8
BLACK
6
CONTINUOUS
10
133.968
20
-104.613
11
134.064
21
-104.818
0
LINE
8
BLACK
6
CONTINUOUS
10
134.064
20
-104.818
11
134.122
21
-105.037
0
LINE
8
BLACK
6
CONTINUOUS
10
134.122
20
-105.037
11
134.142
21
-105.263
0
LINE
8
BLACK
6
CONTINUOUS
10
134.142
20
-105.263
11
134.122
21
-105.489
0
LINE
8
BLACK
6
CONTINUOUS
10
134.122
20
-105.489
11
134.064
21
-105.707
0
LINE
8
BLACK
6
CONTINUOUS
10
134.064
20
-105.707
11
133.968
21
-105.913
0
LINE
8
BLACK
6
CONTINUOUS
10
133.968
20
-105.913
11
133.838
21
-106.098
0
LINE
8
BLACK
6
CONTINUOUS
10
133.838
20
-106.098
11
133.678
21
-106.259
0
LINE
8
BLACK
6
CONTINUOUS
10
133.678
20
-106.259
11
133.492
21
-106.389
0
LINE
8
BLACK
6
CONTINUOUS
10
133.492
20
-106.389
11
133.287
21
-106.484
0
LINE
8
BLACK
6
CONTINUOUS
10
133.287
20
-106.484
11
133.068
21
-106.543
0
LINE
8
BLACK
6
CONTINUOUS
10
133.068
20
-106.543
11
132.842
21
-106.563
0
LINE
8
BLACK
6
CONTINUOUS
10
132.842
20
-106.563
11
132.616
21
-106.543
0
LINE
8
BLACK
6
CONTINUOUS
10
132.616
20
-106.543
11
132.397
21
-106.484
0
LINE
8
BLACK
6
CONTINUOUS
10
132.397
20
-106.484
11
132.192
21
-106.389
0
LINE
8
BLACK
6
CONTINUOUS
10
132.192
20
-106.389
11
132.006
21
-106.259
0
LINE
8
BLACK
6
CONTINUOUS
10
132.006
20
-106.259
11
131.846
21
-106.098
0
LINE
8
BLACK
6
CONTINUOUS
10
131.846
20
-106.098
11
131.716
21
-105.913
0
LINE
8
BLACK
6
CONTINUOUS
10
131.716
20
-105.913
11
131.62
21
-105.707
0
LINE
8
BLACK
6
CONTINUOUS
10
131.62
20
-105.707
11
131.562
21
-105.489
0
LINE
8
BLACK
6
CONTINUOUS
10
131.562
20
-105.489
11
131.542
21
-105.263
0
LINE
8
BLACK
6
CONTINUOUS
10
131.542
20
-105.263
11
131.562
21
-105.037
0
LINE
8
BLACK
6
CONTINUOUS
10
131.562
20
-105.037
11
131.62
21
-104.818
0
LINE
8
BLACK
6
CONTINUOUS
10
131.62
20
-104.818
11
131.716
21
-104.613
0
LINE
8
BLACK
6
CONTINUOUS
10
131.716
20
-104.613
11
131.846
21
-104.427
0
LINE
8
BLACK
6
CONTINUOUS
10
131.846
20
-104.427
11
132.006
21
-104.267
0
LINE
8
BLACK
6
CONTINUOUS
10
132.006
20
-104.267
11
132.192
21
-104.137
0
LINE
8
BLACK
6
CONTINUOUS
10
132.192
20
-104.137
11
132.397
21
-104.041
0
LINE
8
BLACK
6
CONTINUOUS
10
132.397
20
-104.041
11
132.616
21
-103.983
0
LINE
8
BLACK
6
CONTINUOUS
10
132.616
20
-103.983
11
132.842
21
-103.963
0
LINE
8
BLACK
6
CONTINUOUS
10
132.842
20
-103.963
11
133.068
21
-103.983
0
LINE
8
BLACK
6
CONTINUOUS
10
94.048
20
-104.398
11
94.2314
21
-104.439
0
LINE
8
BLACK
6
CONTINUOUS
10
94.2314
20
-104.439
11
94.4017
21
-104.519
0
LINE
8
BLACK
6
CONTINUOUS
10
94.4017
20
-104.519
11
94.551
21
-104.633
0
LINE
8
BLACK
6
CONTINUOUS
10
94.551
20
-104.633
11
94.6723
21
-104.776
0
LINE
8
BLACK
6
CONTINUOUS
10
94.6723
20
-104.776
11
94.7599
21
-104.943
0
LINE
8
BLACK
6
CONTINUOUS
10
94.7599
20
-104.943
11
94.8098
21
-105.124
0
LINE
8
BLACK
6
CONTINUOUS
10
94.8098
20
-105.124
11
94.8196
21
-105.311
0
LINE
8
BLACK
6
CONTINUOUS
10
94.8196
20
-105.311
11
94.789
21
-105.497
0
LINE
8
BLACK
6
CONTINUOUS
10
94.789
20
-105.497
11
94.7192
21
-105.671
0
LINE
8
BLACK
6
CONTINUOUS
10
94.7192
20
-105.671
11
94.6135
21
-105.827
0
LINE
8
BLACK
6
CONTINUOUS
10
94.6135
20
-105.827
11
94.477
21
-105.956
0
LINE
8
BLACK
6
CONTINUOUS
10
94.477
20
-105.956
11
94.3159
21
-106.053
0
LINE
8
BLACK
6
CONTINUOUS
10
94.3159
20
-106.053
11
94.1378
21
-106.113
0
LINE
8
BLACK
6
CONTINUOUS
10
94.1378
20
-106.113
11
93.951
21
-106.133
0
LINE
8
BLACK
6
CONTINUOUS
10
93.951
20
-106.133
11
93.501
21
-106.133
0
LINE
8
BLACK
6
CONTINUOUS
10
93.501
20
-106.133
11
93.404
21
-106.127
0
LINE
8
BLACK
6
CONTINUOUS
10
93.404
20
-106.127
11
93.2206
21
-106.086
0
LINE
8
BLACK
6
CONTINUOUS
10
93.2206
20
-106.086
11
93.0503
21
-106.007
0
LINE
8
BLACK
6
CONTINUOUS
10
93.0503
20
-106.007
11
92.901
21
-105.893
0
LINE
8
BLACK
6
CONTINUOUS
10
92.901
20
-105.893
11
92.7797
21
-105.749
0
LINE
8
BLACK
6
CONTINUOUS
10
92.7797
20
-105.749
11
92.6921
21
-105.583
0
LINE
8
BLACK
6
CONTINUOUS
10
92.6921
20
-105.583
11
92.6422
21
-105.402
0
LINE
8
BLACK
6
CONTINUOUS
10
92.6422
20
-105.402
11
92.6324
21
-105.214
0
LINE
8
BLACK
6
CONTINUOUS
10
92.6324
20
-105.214
11
92.663
21
-105.029
0
LINE
8
BLACK
6
CONTINUOUS
10
92.663
20
-105.029
11
92.7328
21
-104.854
0
LINE
8
BLACK
6
CONTINUOUS
10
92.7328
20
-104.854
11
92.8385
21
-104.699
0
LINE
8
BLACK
6
CONTINUOUS
10
92.8385
20
-104.699
11
92.975
21
-104.57
0
LINE
8
BLACK
6
CONTINUOUS
10
92.975
20
-104.57
11
93.1361
21
-104.473
0
LINE
8
BLACK
6
CONTINUOUS
10
93.1361
20
-104.473
11
93.3142
21
-104.413
0
LINE
8
BLACK
6
CONTINUOUS
10
93.3142
20
-104.413
11
93.501
21
-104.393
0
LINE
8
BLACK
6
CONTINUOUS
10
93.501
20
-104.393
11
93.951
21
-104.393
0
LINE
8
BLACK
6
CONTINUOUS
10
93.951
20
-104.393
11
94.048
21
-104.398
0
LINE
8
BLACK
6
CONTINUOUS
10
94.6667
20
-101.872
11
94.7478
21
-101.926
0
LINE
8
BLACK
6
CONTINUOUS
10
94.7478
20
-101.926
11
94.802
21
-102.007
0
LINE
8
BLACK
6
CONTINUOUS
10
94.802
20
-102.007
11
94.821
21
-102.103
0
LINE
8
BLACK
6
CONTINUOUS
10
94.821
20
-102.103
11
94.821
21
-103.343
0
LINE
8
BLACK
6
CONTINUOUS
10
94.821
20
-103.343
11
94.802
21
-103.438
0
LINE
8
BLACK
6
CONTINUOUS
10
94.802
20
-103.438
11
94.7478
21
-103.52
0
LINE
8
BLACK
6
CONTINUOUS
10
94.7478
20
-103.52
11
94.6667
21
-103.574
0
LINE
8
BLACK
6
CONTINUOUS
10
94.6667
20
-103.574
11
94.571
21
-103.593
0
LINE
8
BLACK
6
CONTINUOUS
10
94.571
20
-103.593
11
92.881
21
-103.593
0
LINE
8
BLACK
6
CONTINUOUS
10
92.881
20
-103.593
11
92.7853
21
-103.574
0
LINE
8
BLACK
6
CONTINUOUS
10
92.7853
20
-103.574
11
92.7042
21
-103.52
0
LINE
8
BLACK
6
CONTINUOUS
10
92.7042
20
-103.52
11
92.65
21
-103.438
0
LINE
8
BLACK
6
CONTINUOUS
10
92.65
20
-103.438
11
92.631
21
-103.343
0
LINE
8
BLACK
6
CONTINUOUS
10
92.631
20
-103.343
11
92.631
21
-102.103
0
LINE
8
BLACK
6
CONTINUOUS
10
92.631
20
-102.103
11
92.65
21
-102.007
0
LINE
8
BLACK
6
CONTINUOUS
10
92.65
20
-102.007
11
92.7042
21
-101.926
0
LINE
8
BLACK
6
CONTINUOUS
10
92.7042
20
-101.926
11
92.7853
21
-101.872
0
LINE
8
BLACK
6
CONTINUOUS
10
92.7853
20
-101.872
11
92.881
21
-101.853
0
LINE
8
BLACK
6
CONTINUOUS
10
92.881
20
-101.853
11
94.571
21
-101.853
0
LINE
8
BLACK
6
CONTINUOUS
10
94.571
20
-101.853
11
94.6667
21
-101.872
0
LINE
8
BLACK
6
CONTINUOUS
10
115.517
20
-101.235
11
115.704
21
-101.293
0
LINE
8
BLACK
6
CONTINUOUS
10
115.704
20
-101.293
11
115.875
21
-101.386
0
LINE
8
BLACK
6
CONTINUOUS
10
115.875
20
-101.386
11
116.026
21
-101.51
0
LINE
8
BLACK
6
CONTINUOUS
10
116.026
20
-101.51
11
116.149
21
-101.661
0
LINE
8
BLACK
6
CONTINUOUS
10
116.149
20
-101.661
11
116.241
21
-101.834
0
LINE
8
BLACK
6
CONTINUOUS
10
116.241
20
-101.834
11
116.297
21
-102.021
0
LINE
8
BLACK
6
CONTINUOUS
10
116.297
20
-102.021
11
116.316
21
-102.215
0
LINE
8
BLACK
6
CONTINUOUS
10
116.316
20
-102.215
11
116.316
21
-102.243
0
LINE
8
BLACK
6
CONTINUOUS
10
116.316
20
-102.243
11
116.291
21
-102.436
0
LINE
8
BLACK
6
CONTINUOUS
10
116.291
20
-102.436
11
116.23
21
-102.622
0
LINE
8
BLACK
6
CONTINUOUS
10
116.23
20
-102.622
11
116.133
21
-102.791
0
LINE
8
BLACK
6
CONTINUOUS
10
116.133
20
-102.791
11
116.006
21
-102.939
0
LINE
8
BLACK
6
CONTINUOUS
10
116.006
20
-102.939
11
115.852
21
-103.059
0
LINE
8
BLACK
6
CONTINUOUS
10
115.852
20
-103.059
11
115.678
21
-103.147
0
LINE
8
BLACK
6
CONTINUOUS
10
115.678
20
-103.147
11
115.49
21
-103.2
0
LINE
8
BLACK
6
CONTINUOUS
10
115.49
20
-103.2
11
115.295
21
-103.215
0
LINE
8
BLACK
6
CONTINUOUS
10
115.295
20
-103.215
11
115.101
21
-103.191
0
LINE
8
BLACK
6
CONTINUOUS
10
115.101
20
-103.191
11
114.916
21
-103.131
0
LINE
8
BLACK
6
CONTINUOUS
10
114.916
20
-103.131
11
114.745
21
-103.036
0
LINE
8
BLACK
6
CONTINUOUS
10
114.745
20
-103.036
11
114.597
21
-102.909
0
LINE
8
BLACK
6
CONTINUOUS
10
114.597
20
-102.909
11
114.475
21
-102.757
0
LINE
8
BLACK
6
CONTINUOUS
10
114.475
20
-102.757
11
114.386
21
-102.583
0
LINE
8
BLACK
6
CONTINUOUS
10
114.386
20
-102.583
11
114.332
21
-102.395
0
LINE
8
BLACK
6
CONTINUOUS
10
114.332
20
-102.395
11
114.316
21
-102.201
0
LINE
8
BLACK
6
CONTINUOUS
10
114.316
20
-102.201
11
114.338
21
-102.007
0
LINE
8
BLACK
6
CONTINUOUS
10
114.338
20
-102.007
11
114.397
21
-101.821
0
LINE
8
BLACK
6
CONTINUOUS
10
114.397
20
-101.821
11
114.491
21
-101.65
0
LINE
8
BLACK
6
CONTINUOUS
10
114.491
20
-101.65
11
114.616
21
-101.5
0
LINE
8
BLACK
6
CONTINUOUS
10
114.616
20
-101.5
11
114.768
21
-101.378
0
LINE
8
BLACK
6
CONTINUOUS
10
114.768
20
-101.378
11
114.941
21
-101.288
0
LINE
8
BLACK
6
CONTINUOUS
10
114.941
20
-101.288
11
115.129
21
-101.233
0
LINE
8
BLACK
6
CONTINUOUS
10
115.129
20
-101.233
11
115.323
21
-101.215
0
LINE
8
BLACK
6
CONTINUOUS
10
115.323
20
-101.215
11
115.517
21
-101.235
0
LINE
8
BLACK
6
CONTINUOUS
10
99.352
20
-96.3095
11
99.5717
21
-96.3777
0
LINE
8
BLACK
6
CONTINUOUS
10
99.5717
20
-96.3777
11
99.7767
21
-96.4819
0
LINE
8
BLACK
6
CONTINUOUS
10
99.7767
20
-96.4819
11
99.9612
21
-96.6192
0
LINE
8
BLACK
6
CONTINUOUS
10
99.9612
20
-96.6192
11
100.12
21
-96.7856
0
LINE
8
BLACK
6
CONTINUOUS
10
100.12
20
-96.7856
11
100.248
21
-96.9764
0
LINE
8
BLACK
6
CONTINUOUS
10
100.248
20
-96.9764
11
100.343
21
-97.1861
0
LINE
8
BLACK
6
CONTINUOUS
10
100.343
20
-97.1861
11
100.401
21
-97.4087
0
LINE
8
BLACK
6
CONTINUOUS
10
100.401
20
-97.4087
11
100.42
21
-97.6378
0
LINE
8
BLACK
6
CONTINUOUS
10
100.42
20
-97.6378
11
100.42
21
-98.9178
0
LINE
8
BLACK
6
CONTINUOUS
10
100.42
20
-98.9178
11
100.414
21
-99.0458
0
LINE
8
BLACK
6
CONTINUOUS
10
100.414
20
-99.0458
11
100.373
21
-99.2721
0
LINE
8
BLACK
6
CONTINUOUS
10
100.373
20
-99.2721
11
100.295
21
-99.4883
0
LINE
8
BLACK
6
CONTINUOUS
10
100.295
20
-99.4883
11
100.181
21
-99.6881
0
LINE
8
BLACK
6
CONTINUOUS
10
100.181
20
-99.6881
11
100.035
21
-99.8659
0
LINE
8
BLACK
6
CONTINUOUS
10
100.035
20
-99.8659
11
99.8613
21
-100.017
0
LINE
8
BLACK
6
CONTINUOUS
10
99.8613
20
-100.017
11
99.6647
21
-100.136
0
LINE
8
BLACK
6
CONTINUOUS
10
99.6647
20
-100.136
11
99.4508
21
-100.22
0
LINE
8
BLACK
6
CONTINUOUS
10
99.4508
20
-100.22
11
99.2257
21
-100.268
0
LINE
8
BLACK
6
CONTINUOUS
10
99.2257
20
-100.268
11
98.9959
21
-100.276
0
LINE
8
BLACK
6
CONTINUOUS
10
98.9959
20
-100.276
11
98.768
21
-100.246
0
LINE
8
BLACK
6
CONTINUOUS
10
98.768
20
-100.246
11
98.5483
21
-100.178
0
LINE
8
BLACK
6
CONTINUOUS
10
98.5483
20
-100.178
11
98.3433
21
-100.074
0
LINE
8
BLACK
6
CONTINUOUS
10
98.3433
20
-100.074
11
98.1588
21
-99.9364
0
LINE
8
BLACK
6
CONTINUOUS
10
98.1588
20
-99.9364
11
98.0001
21
-99.77
0
LINE
8
BLACK
6
CONTINUOUS
10
98.0001
20
-99.77
11
97.8717
21
-99.5792
0
LINE
8
BLACK
6
CONTINUOUS
10
97.8717
20
-99.5792
11
97.7772
21
-99.3695
0
LINE
8
BLACK
6
CONTINUOUS
10
97.7772
20
-99.3695
11
97.7194
21
-99.1469
0
LINE
8
BLACK
6
CONTINUOUS
10
97.7194
20
-99.1469
11
97.7
21
-98.9178
0
LINE
8
BLACK
6
CONTINUOUS
10
97.7
20
-98.9178
11
97.7
21
-97.6378
0
LINE
8
BLACK
6
CONTINUOUS
10
97.7
20
-97.6378
11
97.706
21
-97.5098
0
LINE
8
BLACK
6
CONTINUOUS
10
97.706
20
-97.5098
11
97.747
21
-97.2835
0
LINE
8
BLACK
6
CONTINUOUS
10
97.747
20
-97.2835
11
97.8254
21
-97.0673
0
LINE
8
BLACK
6
CONTINUOUS
10
97.8254
20
-97.0673
11
97.9392
21
-96.8675
0
LINE
8
BLACK
6
CONTINUOUS
10
97.9392
20
-96.8675
11
98.085
21
-96.6897
0
LINE
8
BLACK
6
CONTINUOUS
10
98.085
20
-96.6897
11
98.2587
21
-96.5389
0
LINE
8
BLACK
6
CONTINUOUS
10
98.2587
20
-96.5389
11
98.4553
21
-96.4196
0
LINE
8
BLACK
6
CONTINUOUS
10
98.4553
20
-96.4196
11
98.6692
21
-96.3352
0
LINE
8
BLACK
6
CONTINUOUS
10
98.6692
20
-96.3352
11
98.8943
21
-96.2879
0
LINE
8
BLACK
6
CONTINUOUS
10
98.8943
20
-96.2879
11
99.1241
21
-96.2793
0
LINE
8
BLACK
6
CONTINUOUS
10
99.1241
20
-96.2793
11
99.352
21
-96.3095
0
LINE
8
BLACK
6
CONTINUOUS
10
111.544
20
-96.3095
11
111.764
21
-96.3777
0
LINE
8
BLACK
6
CONTINUOUS
10
111.764
20
-96.3777
11
111.969
21
-96.4819
0
LINE
8
BLACK
6
CONTINUOUS
10
111.969
20
-96.4819
11
112.153
21
-96.6192
0
LINE
8
BLACK
6
CONTINUOUS
10
112.153
20
-96.6192
11
112.312
21
-96.7856
0
LINE
8
BLACK
6
CONTINUOUS
10
112.312
20
-96.7856
11
112.44
21
-96.9764
0
LINE
8
BLACK
6
CONTINUOUS
10
112.44
20
-96.9764
11
112.535
21
-97.1861
0
LINE
8
BLACK
6
CONTINUOUS
10
112.535
20
-97.1861
11
112.593
21
-97.4087
0
LINE
8
BLACK
6
CONTINUOUS
10
112.593
20
-97.4087
11
112.612
21
-97.6378
0
LINE
8
BLACK
6
CONTINUOUS
10
112.612
20
-97.6378
11
112.612
21
-98.9178
0
LINE
8
BLACK
6
CONTINUOUS
10
112.612
20
-98.9178
11
112.606
21
-99.0458
0
LINE
8
BLACK
6
CONTINUOUS
10
112.606
20
-99.0458
11
112.565
21
-99.2721
0
LINE
8
BLACK
6
CONTINUOUS
10
112.565
20
-99.2721
11
112.487
21
-99.4883
0
LINE
8
BLACK
6
CONTINUOUS
10
112.487
20
-99.4883
11
112.373
21
-99.6881
0
LINE
8
BLACK
6
CONTINUOUS
10
112.373
20
-99.6881
11
112.227
21
-99.8659
0
LINE
8
BLACK
6
CONTINUOUS
10
112.227
20
-99.8659
11
112.053
21
-100.017
0
LINE
8
BLACK
6
CONTINUOUS
10
112.053
20
-100.017
11
111.857
21
-100.136
0
LINE
8
BLACK
6
CONTINUOUS
10
111.857
20
-100.136
11
111.643
21
-100.22
0
LINE
8
BLACK
6
CONTINUOUS
10
111.643
20
-100.22
11
111.418
21
-100.268
0
LINE
8
BLACK
6
CONTINUOUS
10
111.418
20
-100.268
11
111.188
21
-100.276
0
LINE
8
BLACK
6
CONTINUOUS
10
111.188
20
-100.276
11
110.96
21
-100.246
0
LINE
8
BLACK
6
CONTINUOUS
10
110.96
20
-100.246
11
110.74
21
-100.178
0
LINE
8
BLACK
6
CONTINUOUS
10
110.74
20
-100.178
11
110.535
21
-100.074
0
LINE
8
BLACK
6
CONTINUOUS
10
110.535
20
-100.074
11
110.351
21
-99.9364
0
LINE
8
BLACK
6
CONTINUOUS
10
110.351
20
-99.9364
11
110.192
21
-99.77
0
LINE
8
BLACK
6
CONTINUOUS
10
110.192
20
-99.77
11
110.064
21
-99.5792
0
LINE
8
BLACK
6
CONTINUOUS
10
110.064
20
-99.5792
11
109.969
21
-99.3695
0
LINE
8
BLACK
6
CONTINUOUS
10
109.969
20
-99.3695
11
109.911
21
-99.1469
0
LINE
8
BLACK
6
CONTINUOUS
10
109.911
20
-99.1469
11
109.892
21
-98.9178
0
LINE
8
BLACK
6
CONTINUOUS
10
109.892
20
-98.9178
11
109.892
21
-97.6378
0
LINE
8
BLACK
6
CONTINUOUS
10
109.892
20
-97.6378
11
109.898
21
-97.5098
0
LINE
8
BLACK
6
CONTINUOUS
10
109.898
20
-97.5098
11
109.939
21
-97.2835
0
LINE
8
BLACK
6
CONTINUOUS
10
109.939
20
-97.2835
11
110.017
21
-97.0673
0
LINE
8
BLACK
6
CONTINUOUS
10
110.017
20
-97.0673
11
110.131
21
-96.8675
0
LINE
8
BLACK
6
CONTINUOUS
10
110.131
20
-96.8675
11
110.277
21
-96.6897
0
LINE
8
BLACK
6
CONTINUOUS
10
110.277
20
-96.6897
11
110.451
21
-96.5389
0
LINE
8
BLACK
6
CONTINUOUS
10
110.451
20
-96.5389
11
110.647
21
-96.4196
0
LINE
8
BLACK
6
CONTINUOUS
10
110.647
20
-96.4196
11
110.861
21
-96.3352
0
LINE
8
BLACK
6
CONTINUOUS
10
110.861
20
-96.3352
11
111.086
21
-96.2879
0
LINE
8
BLACK
6
CONTINUOUS
10
111.086
20
-96.2879
11
111.316
21
-96.2793
0
LINE
8
BLACK
6
CONTINUOUS
10
111.316
20
-96.2793
11
111.544
21
-96.3095
0
LINE
8
BLACK
6
CONTINUOUS
10
94.048
20
-86.6182
11
94.2314
21
-86.6592
0
LINE
8
BLACK
6
CONTINUOUS
10
94.2314
20
-86.6592
11
94.4017
21
-86.7386
0
LINE
8
BLACK
6
CONTINUOUS
10
94.4017
20
-86.7386
11
94.551
21
-86.8528
0
LINE
8
BLACK
6
CONTINUOUS
10
94.551
20
-86.8528
11
94.6723
21
-86.9963
0
LINE
8
BLACK
6
CONTINUOUS
10
94.6723
20
-86.9963
11
94.7599
21
-87.1625
0
LINE
8
BLACK
6
CONTINUOUS
10
94.7599
20
-87.1625
11
94.8098
21
-87.3437
0
LINE
8
BLACK
6
CONTINUOUS
10
94.8098
20
-87.3437
11
94.8196
21
-87.5314
0
LINE
8
BLACK
6
CONTINUOUS
10
94.8196
20
-87.5314
11
94.789
21
-87.7168
0
LINE
8
BLACK
6
CONTINUOUS
10
94.789
20
-87.7168
11
94.7192
21
-87.8912
0
LINE
8
BLACK
6
CONTINUOUS
10
94.7192
20
-87.8912
11
94.6135
21
-88.0467
0
LINE
8
BLACK
6
CONTINUOUS
10
94.6135
20
-88.0467
11
94.477
21
-88.1758
0
LINE
8
BLACK
6
CONTINUOUS
10
94.477
20
-88.1758
11
94.3159
21
-88.2726
0
LINE
8
BLACK
6
CONTINUOUS
10
94.3159
20
-88.2726
11
94.1378
21
-88.3325
0
LINE
8
BLACK
6
CONTINUOUS
10
94.1378
20
-88.3325
11
93.951
21
-88.3528
0
LINE
8
BLACK
6
CONTINUOUS
10
93.951
20
-88.3528
11
93.501
21
-88.3528
0
LINE
8
BLACK
6
CONTINUOUS
10
93.501
20
-88.3528
11
93.404
21
-88.3474
0
LINE
8
BLACK
6
CONTINUOUS
10
93.404
20
-88.3474
11
93.2206
21
-88.3064
0
LINE
8
BLACK
6
CONTINUOUS
10
93.2206
20
-88.3064
11
93.0503
21
-88.227
0
LINE
8
BLACK
6
CONTINUOUS
10
93.0503
20
-88.227
11
92.901
21
-88.1128
0
LINE
8
BLACK
6
CONTINUOUS
10
92.901
20
-88.1128
11
92.7797
21
-87.9693
0
LINE
8
BLACK
6
CONTINUOUS
10
92.7797
20
-87.9693
11
92.6921
21
-87.8031
0
LINE
8
BLACK
6
CONTINUOUS
10
92.6921
20
-87.8031
11
92.6422
21
-87.6219
0
LINE
8
BLACK
6
CONTINUOUS
10
92.6422
20
-87.6219
11
92.6324
21
-87.4342
0
LINE
8
BLACK
6
CONTINUOUS
10
92.6324
20
-87.4342
11
92.663
21
-87.2488
0
LINE
8
BLACK
6
CONTINUOUS
10
92.663
20
-87.2488
11
92.7328
21
-87.0744
0
LINE
8
BLACK
6
CONTINUOUS
10
92.7328
20
-87.0744
11
92.8385
21
-86.9189
0
LINE
8
BLACK
6
CONTINUOUS
10
92.8385
20
-86.9189
11
92.975
21
-86.7898
0
LINE
8
BLACK
6
CONTINUOUS
10
92.975
20
-86.7898
11
93.1361
21
-86.693
0
LINE
8
BLACK
6
CONTINUOUS
10
93.1361
20
-86.693
11
93.3142
21
-86.6331
0
LINE
8
BLACK
6
CONTINUOUS
10
93.3142
20
-86.6331
11
93.501
21
-86.6128
0
LINE
8
BLACK
6
CONTINUOUS
10
93.501
20
-86.6128
11
93.951
21
-86.6128
0
LINE
8
BLACK
6
CONTINUOUS
10
93.951
20
-86.6128
11
94.048
21
-86.6182
0
LINE
8
BLACK
6
CONTINUOUS
10
94.6667
20
-84.0918
11
94.7478
21
-84.146
0
LINE
8
BLACK
6
CONTINUOUS
10
94.7478
20
-84.146
11
94.802
21
-84.2271
0
LINE
8
BLACK
6
CONTINUOUS
10
94.802
20
-84.2271
11
94.821
21
-84.3228
0
LINE
8
BLACK
6
CONTINUOUS
10
94.821
20
-84.3228
11
94.821
21
-85.5628
0
LINE
8
BLACK
6
CONTINUOUS
10
94.821
20
-85.5628
11
94.802
21
-85.6585
0
LINE
8
BLACK
6
CONTINUOUS
10
94.802
20
-85.6585
11
94.7478
21
-85.7396
0
LINE
8
BLACK
6
CONTINUOUS
10
94.7478
20
-85.7396
11
94.6667
21
-85.7938
0
LINE
8
BLACK
6
CONTINUOUS
10
94.6667
20
-85.7938
11
94.571
21
-85.8128
0
LINE
8
BLACK
6
CONTINUOUS
10
94.571
20
-85.8128
11
92.881
21
-85.8128
0
LINE
8
BLACK
6
CONTINUOUS
10
92.881
20
-85.8128
11
92.7853
21
-85.7938
0
LINE
8
BLACK
6
CONTINUOUS
10
92.7853
20
-85.7938
11
92.7042
21
-85.7396
0
LINE
8
BLACK
6
CONTINUOUS
10
92.7042
20
-85.7396
11
92.65
21
-85.6585
0
LINE
8
BLACK
6
CONTINUOUS
10
92.65
20
-85.6585
11
92.631
21
-85.5628
0
LINE
8
BLACK
6
CONTINUOUS
10
92.631
20
-85.5628
11
92.631
21
-84.3228
0
LINE
8
BLACK
6
CONTINUOUS
10
92.631
20
-84.3228
11
92.65
21
-84.2271
0
LINE
8
BLACK
6
CONTINUOUS
10
92.65
20
-84.2271
11
92.7042
21
-84.146
0
LINE
8
BLACK
6
CONTINUOUS
10
92.7042
20
-84.146
11
92.7853
21
-84.0918
0
LINE
8
BLACK
6
CONTINUOUS
10
92.7853
20
-84.0918
11
92.881
21
-84.0728
0
LINE
8
BLACK
6
CONTINUOUS
10
92.881
20
-84.0728
11
94.571
21
-84.0728
0
LINE
8
BLACK
6
CONTINUOUS
10
94.571
20
-84.0728
11
94.6667
21
-84.0918
0
LINE
8
BLACK
6
CONTINUOUS
10
192.416
20
-84.5728
11
190.616
21
-84.5728
0
LINE
8
BLACK
6
CONTINUOUS
10
190.616
20
-84.5728
11
190.616
21
-82.7728
0
LINE
8
BLACK
6
CONTINUOUS
10
190.616
20
-82.7728
11
192.416
21
-82.7728
0
LINE
8
BLACK
6
CONTINUOUS
10
192.416
20
-82.7728
11
192.416
21
-84.5728
0
LINE
8
BLACK
6
CONTINUOUS
10
196.794
20
-82.8168
11
196.966
21
-82.8934
0
LINE
8
BLACK
6
CONTINUOUS
10
196.966
20
-82.8934
11
197.118
21
-83.004
0
LINE
8
BLACK
6
CONTINUOUS
10
197.118
20
-83.004
11
197.244
21
-83.1438
0
LINE
8
BLACK
6
CONTINUOUS
10
197.244
20
-83.1438
11
197.338
21
-83.3067
0
LINE
8
BLACK
6
CONTINUOUS
10
197.338
20
-83.3067
11
197.396
21
-83.4857
0
LINE
8
BLACK
6
CONTINUOUS
10
197.396
20
-83.4857
11
197.416
21
-83.6728
0
LINE
8
BLACK
6
CONTINUOUS
10
197.416
20
-83.6728
11
197.396
21
-83.8599
0
LINE
8
BLACK
6
CONTINUOUS
10
197.396
20
-83.8599
11
197.338
21
-84.0389
0
LINE
8
BLACK
6
CONTINUOUS
10
197.338
20
-84.0389
11
197.244
21
-84.2018
0
LINE
8
BLACK
6
CONTINUOUS
10
197.244
20
-84.2018
11
197.118
21
-84.3416
0
LINE
8
BLACK
6
CONTINUOUS
10
197.118
20
-84.3416
11
196.966
21
-84.4522
0
LINE
8
BLACK
6
CONTINUOUS
10
196.966
20
-84.4522
11
196.794
21
-84.5288
0
LINE
8
BLACK
6
CONTINUOUS
10
196.794
20
-84.5288
11
196.61
21
-84.5679
0
LINE
8
BLACK
6
CONTINUOUS
10
196.61
20
-84.5679
11
196.422
21
-84.5679
0
LINE
8
BLACK
6
CONTINUOUS
10
196.422
20
-84.5679
11
196.238
21
-84.5288
0
LINE
8
BLACK
6
CONTINUOUS
10
196.238
20
-84.5288
11
196.066
21
-84.4522
0
LINE
8
BLACK
6
CONTINUOUS
10
196.066
20
-84.4522
11
195.914
21
-84.3416
0
LINE
8
BLACK
6
CONTINUOUS
10
195.914
20
-84.3416
11
195.788
21
-84.2018
0
LINE
8
BLACK
6
CONTINUOUS
10
195.788
20
-84.2018
11
195.694
21
-84.0389
0
LINE
8
BLACK
6
CONTINUOUS
10
195.694
20
-84.0389
11
195.636
21
-83.8599
0
LINE
8
BLACK
6
CONTINUOUS
10
195.636
20
-83.8599
11
195.616
21
-83.6728
0
LINE
8
BLACK
6
CONTINUOUS
10
195.616
20
-83.6728
11
195.636
21
-83.4857
0
LINE
8
BLACK
6
CONTINUOUS
10
195.636
20
-83.4857
11
195.694
21
-83.3067
0
LINE
8
BLACK
6
CONTINUOUS
10
195.694
20
-83.3067
11
195.788
21
-83.1438
0
LINE
8
BLACK
6
CONTINUOUS
10
195.788
20
-83.1438
11
195.914
21
-83.004
0
LINE
8
BLACK
6
CONTINUOUS
10
195.914
20
-83.004
11
196.066
21
-82.8934
0
LINE
8
BLACK
6
CONTINUOUS
10
196.066
20
-82.8934
11
196.238
21
-82.8168
0
LINE
8
BLACK
6
CONTINUOUS
10
196.238
20
-82.8168
11
196.422
21
-82.7777
0
LINE
8
BLACK
6
CONTINUOUS
10
196.422
20
-82.7777
11
196.61
21
-82.7777
0
LINE
8
BLACK
6
CONTINUOUS
10
196.61
20
-82.7777
11
196.794
21
-82.8168
0
LINE
8
BLACK
6
CONTINUOUS
10
194.294
20
-82.8168
11
194.466
21
-82.8934
0
LINE
8
BLACK
6
CONTINUOUS
10
194.466
20
-82.8934
11
194.618
21
-83.004
0
LINE
8
BLACK
6
CONTINUOUS
10
194.618
20
-83.004
11
194.744
21
-83.1438
0
LINE
8
BLACK
6
CONTINUOUS
10
194.744
20
-83.1438
11
194.838
21
-83.3067
0
LINE
8
BLACK
6
CONTINUOUS
10
194.838
20
-83.3067
11
194.896
21
-83.4857
0
LINE
8
BLACK
6
CONTINUOUS
10
194.896
20
-83.4857
11
194.916
21
-83.6728
0
LINE
8
BLACK
6
CONTINUOUS
10
194.916
20
-83.6728
11
194.896
21
-83.8599
0
LINE
8
BLACK
6
CONTINUOUS
10
194.896
20
-83.8599
11
194.838
21
-84.0389
0
LINE
8
BLACK
6
CONTINUOUS
10
194.838
20
-84.0389
11
194.744
21
-84.2018
0
LINE
8
BLACK
6
CONTINUOUS
10
194.744
20
-84.2018
11
194.618
21
-84.3416
0
LINE
8
BLACK
6
CONTINUOUS
10
194.618
20
-84.3416
11
194.466
21
-84.4522
0
LINE
8
BLACK
6
CONTINUOUS
10
194.466
20
-84.4522
11
194.294
21
-84.5288
0
LINE
8
BLACK
6
CONTINUOUS
10
194.294
20
-84.5288
11
194.11
21
-84.5679
0
LINE
8
BLACK
6
CONTINUOUS
10
194.11
20
-84.5679
11
193.922
21
-84.5679
0
LINE
8
BLACK
6
CONTINUOUS
10
193.922
20
-84.5679
11
193.738
21
-84.5288
0
LINE
8
BLACK
6
CONTINUOUS
10
193.738
20
-84.5288
11
193.566
21
-84.4522
0
LINE
8
BLACK
6
CONTINUOUS
10
193.566
20
-84.4522
11
193.414
21
-84.3416
0
LINE
8
BLACK
6
CONTINUOUS
10
193.414
20
-84.3416
11
193.288
21
-84.2018
0
LINE
8
BLACK
6
CONTINUOUS
10
193.288
20
-84.2018
11
193.194
21
-84.0389
0
LINE
8
BLACK
6
CONTINUOUS
10
193.194
20
-84.0389
11
193.136
21
-83.8599
0
LINE
8
BLACK
6
CONTINUOUS
10
193.136
20
-83.8599
11
193.116
21
-83.6728
0
LINE
8
BLACK
6
CONTINUOUS
10
193.116
20
-83.6728
11
193.136
21
-83.4857
0
LINE
8
BLACK
6
CONTINUOUS
10
193.136
20
-83.4857
11
193.194
21
-83.3067
0
LINE
8
BLACK
6
CONTINUOUS
10
193.194
20
-83.3067
11
193.288
21
-83.1438
0
LINE
8
BLACK
6
CONTINUOUS
10
193.288
20
-83.1438
11
193.414
21
-83.004
0
LINE
8
BLACK
6
CONTINUOUS
10
193.414
20
-83.004
11
193.566
21
-82.8934
0
LINE
8
BLACK
6
CONTINUOUS
10
193.566
20
-82.8934
11
193.738
21
-82.8168
0
LINE
8
BLACK
6
CONTINUOUS
10
193.738
20
-82.8168
11
193.922
21
-82.7777
0
LINE
8
BLACK
6
CONTINUOUS
10
193.922
20
-82.7777
11
194.11
21
-82.7777
0
LINE
8
BLACK
6
CONTINUOUS
10
194.11
20
-82.7777
11
194.294
21
-82.8168
0
LINE
8
BLACK
6
CONTINUOUS
10
112.342
20
-79.5182
11
112.529
21
-79.5759
0
LINE
8
BLACK
6
CONTINUOUS
10
112.529
20
-79.5759
11
112.7
21
-79.6688
0
LINE
8
BLACK
6
CONTINUOUS
10
112.7
20
-79.6688
11
112.851
21
-79.7932
0
LINE
8
BLACK
6
CONTINUOUS
10
112.851
20
-79.7932
11
112.974
21
-79.9444
0
LINE
8
BLACK
6
CONTINUOUS
10
112.974
20
-79.9444
11
113.066
21
-80.1167
0
LINE
8
BLACK
6
CONTINUOUS
10
113.066
20
-80.1167
11
113.122
21
-80.3036
0
LINE
8
BLACK
6
CONTINUOUS
10
113.122
20
-80.3036
11
113.141
21
-80.4978
0
LINE
8
BLACK
6
CONTINUOUS
10
113.141
20
-80.4978
11
113.141
21
-80.5257
0
LINE
8
BLACK
6
CONTINUOUS
10
113.141
20
-80.5257
11
113.116
21
-80.7193
0
LINE
8
BLACK
6
CONTINUOUS
10
113.116
20
-80.7193
11
113.055
21
-80.9045
0
LINE
8
BLACK
6
CONTINUOUS
10
113.055
20
-80.9045
11
112.958
21
-81.0742
0
LINE
8
BLACK
6
CONTINUOUS
10
112.958
20
-81.0742
11
112.831
21
-81.222
0
LINE
8
BLACK
6
CONTINUOUS
10
112.831
20
-81.222
11
112.677
21
-81.3421
0
LINE
8
BLACK
6
CONTINUOUS
10
112.677
20
-81.3421
11
112.503
21
-81.4301
0
LINE
8
BLACK
6
CONTINUOUS
10
112.503
20
-81.4301
11
112.315
21
-81.4826
0
LINE
8
BLACK
6
CONTINUOUS
10
112.315
20
-81.4826
11
112.12
21
-81.4976
0
LINE
8
BLACK
6
CONTINUOUS
10
112.12
20
-81.4976
11
111.926
21
-81.4745
0
LINE
8
BLACK
6
CONTINUOUS
10
111.926
20
-81.4745
11
111.741
21
-81.4142
0
LINE
8
BLACK
6
CONTINUOUS
10
111.741
20
-81.4142
11
111.57
21
-81.3189
0
LINE
8
BLACK
6
CONTINUOUS
10
111.57
20
-81.3189
11
111.422
21
-81.1925
0
LINE
8
BLACK
6
CONTINUOUS
10
111.422
20
-81.1925
11
111.3
21
-81.0395
0
LINE
8
BLACK
6
CONTINUOUS
10
111.3
20
-81.0395
11
111.211
21
-80.8659
0
LINE
8
BLACK
6
CONTINUOUS
10
111.211
20
-80.8659
11
111.157
21
-80.6783
0
LINE
8
BLACK
6
CONTINUOUS
10
111.157
20
-80.6783
11
111.141
21
-80.4838
0
LINE
8
BLACK
6
CONTINUOUS
10
111.141
20
-80.4838
11
111.163
21
-80.2899
0
LINE
8
BLACK
6
CONTINUOUS
10
111.163
20
-80.2899
11
111.222
21
-80.1039
0
LINE
8
BLACK
6
CONTINUOUS
10
111.222
20
-80.1039
11
111.316
21
-79.9328
0
LINE
8
BLACK
6
CONTINUOUS
10
111.316
20
-79.9328
11
111.441
21
-79.7833
0
LINE
8
BLACK
6
CONTINUOUS
10
111.441
20
-79.7833
11
111.593
21
-79.661
0
LINE
8
BLACK
6
CONTINUOUS
10
111.593
20
-79.661
11
111.766
21
-79.5706
0
LINE
8
BLACK
6
CONTINUOUS
10
111.766
20
-79.5706
11
111.954
21
-79.5155
0
LINE
8
BLACK
6
CONTINUOUS
10
111.954
20
-79.5155
11
112.148
21
-79.4978
0
LINE
8
BLACK
6
CONTINUOUS
10
112.148
20
-79.4978
11
112.342
21
-79.5182
0
LINE
8
BLACK
6
CONTINUOUS
10
149.884
20
-76.4668
11
150.056
21
-76.5434
0
LINE
8
BLACK
6
CONTINUOUS
10
150.056
20
-76.5434
11
150.208
21
-76.654
0
LINE
8
BLACK
6
CONTINUOUS
10
150.208
20
-76.654
11
150.334
21
-76.7938
0
LINE
8
BLACK
6
CONTINUOUS
10
150.334
20
-76.7938
11
150.428
21
-76.9567
0
LINE
8
BLACK
6
CONTINUOUS
10
150.428
20
-76.9567
11
150.486
21
-77.1357
0
LINE
8
BLACK
6
CONTINUOUS
10
150.486
20
-77.1357
11
150.506
21
-77.3228
0
LINE
8
BLACK
6
CONTINUOUS
10
150.506
20
-77.3228
11
150.486
21
-77.5099
0
LINE
8
BLACK
6
CONTINUOUS
10
150.486
20
-77.5099
11
150.428
21
-77.6889
0
LINE
8
BLACK
6
CONTINUOUS
10
150.428
20
-77.6889
11
150.334
21
-77.8518
0
LINE
8
BLACK
6
CONTINUOUS
10
150.334
20
-77.8518
11
150.208
21
-77.9916
0
LINE
8
BLACK
6
CONTINUOUS
10
150.208
20
-77.9916
11
150.056
21
-78.1022
0
LINE
8
BLACK
6
CONTINUOUS
10
150.056
20
-78.1022
11
149.884
21
-78.1788
0
LINE
8
BLACK
6
CONTINUOUS
10
149.884
20
-78.1788
11
149.7
21
-78.2179
0
LINE
8
BLACK
6
CONTINUOUS
10
149.7
20
-78.2179
11
149.512
21
-78.2179
0
LINE
8
BLACK
6
CONTINUOUS
10
149.512
20
-78.2179
11
149.328
21
-78.1788
0
LINE
8
BLACK
6
CONTINUOUS
10
149.328
20
-78.1788
11
149.156
21
-78.1022
0
LINE
8
BLACK
6
CONTINUOUS
10
149.156
20
-78.1022
11
149.004
21
-77.9916
0
LINE
8
BLACK
6
CONTINUOUS
10
149.004
20
-77.9916
11
148.878
21
-77.8518
0
LINE
8
BLACK
6
CONTINUOUS
10
148.878
20
-77.8518
11
148.784
21
-77.6889
0
LINE
8
BLACK
6
CONTINUOUS
10
148.784
20
-77.6889
11
148.726
21
-77.5099
0
LINE
8
BLACK
6
CONTINUOUS
10
148.726
20
-77.5099
11
148.706
21
-77.3228
0
LINE
8
BLACK
6
CONTINUOUS
10
148.706
20
-77.3228
11
148.726
21
-77.1357
0
LINE
8
BLACK
6
CONTINUOUS
10
148.726
20
-77.1357
11
148.784
21
-76.9567
0
LINE
8
BLACK
6
CONTINUOUS
10
148.784
20
-76.9567
11
148.878
21
-76.7938
0
LINE
8
BLACK
6
CONTINUOUS
10
148.878
20
-76.7938
11
149.004
21
-76.654
0
LINE
8
BLACK
6
CONTINUOUS
10
149.004
20
-76.654
11
149.156
21
-76.5434
0
LINE
8
BLACK
6
CONTINUOUS
10
149.156
20
-76.5434
11
149.328
21
-76.4668
0
LINE
8
BLACK
6
CONTINUOUS
10
149.328
20
-76.4668
11
149.512
21
-76.4277
0
LINE
8
BLACK
6
CONTINUOUS
10
149.512
20
-76.4277
11
149.7
21
-76.4277
0
LINE
8
BLACK
6
CONTINUOUS
10
149.7
20
-76.4277
11
149.884
21
-76.4668
0
LINE
8
BLACK
6
CONTINUOUS
10
200.444
20
-74.0845
11
200.664
21
-74.1527
0
LINE
8
BLACK
6
CONTINUOUS
10
200.664
20
-74.1527
11
200.869
21
-74.2569
0
LINE
8
BLACK
6
CONTINUOUS
10
200.869
20
-74.2569
11
201.053
21
-74.3942
0
LINE
8
BLACK
6
CONTINUOUS
10
201.053
20
-74.3942
11
201.212
21
-74.5606
0
LINE
8
BLACK
6
CONTINUOUS
10
201.212
20
-74.5606
11
201.34
21
-74.7514
0
LINE
8
BLACK
6
CONTINUOUS
10
201.34
20
-74.7514
11
201.435
21
-74.9611
0
LINE
8
BLACK
6
CONTINUOUS
10
201.435
20
-74.9611
11
201.493
21
-75.1837
0
LINE
8
BLACK
6
CONTINUOUS
10
201.493
20
-75.1837
11
201.512
21
-75.4128
0
LINE
8
BLACK
6
CONTINUOUS
10
201.512
20
-75.4128
11
201.512
21
-76.6928
0
LINE
8
BLACK
6
CONTINUOUS
10
201.512
20
-76.6928
11
201.506
21
-76.8208
0
LINE
8
BLACK
6
CONTINUOUS
10
201.506
20
-76.8208
11
201.465
21
-77.0471
0
LINE
8
BLACK
6
CONTINUOUS
10
201.465
20
-77.0471
11
201.387
21
-77.2633
0
LINE
8
BLACK
6
CONTINUOUS
10
201.387
20
-77.2633
11
201.273
21
-77.4631
0
LINE
8
BLACK
6
CONTINUOUS
10
201.273
20
-77.4631
11
201.127
21
-77.6409
0
LINE
8
BLACK
6
CONTINUOUS
10
201.127
20
-77.6409
11
200.953
21
-77.7917
0
LINE
8
BLACK
6
CONTINUOUS
10
200.953
20
-77.7917
11
200.757
21
-77.911
0
LINE
8
BLACK
6
CONTINUOUS
10
200.757
20
-77.911
11
200.543
21
-77.9954
0
LINE
8
BLACK
6
CONTINUOUS
10
200.543
20
-77.9954
11
200.318
21
-78.0427
0
LINE
8
BLACK
6
CONTINUOUS
10
200.318
20
-78.0427
11
200.088
21
-78.0513
0
LINE
8
BLACK
6
CONTINUOUS
10
200.088
20
-78.0513
11
199.86
21
-78.0211
0
LINE
8
BLACK
6
CONTINUOUS
10
199.86
20
-78.0211
11
199.64
21
-77.9529
0
LINE
8
BLACK
6
CONTINUOUS
10
199.64
20
-77.9529
11
199.435
21
-77.8487
0
LINE
8
BLACK
6
CONTINUOUS
10
199.435
20
-77.8487
11
199.251
21
-77.7114
0
LINE
8
BLACK
6
CONTINUOUS
10
199.251
20
-77.7114
11
199.092
21
-77.545
0
LINE
8
BLACK
6
CONTINUOUS
10
199.092
20
-77.545
11
198.964
21
-77.3542
0
LINE
8
BLACK
6
CONTINUOUS
10
198.964
20
-77.3542
11
198.869
21
-77.1445
0
LINE
8
BLACK
6
CONTINUOUS
10
198.869
20
-77.1445
11
198.811
21
-76.9219
0
LINE
8
BLACK
6
CONTINUOUS
10
198.811
20
-76.9219
11
198.792
21
-76.6928
0
LINE
8
BLACK
6
CONTINUOUS
10
198.792
20
-76.6928
11
198.792
21
-75.4128
0
LINE
8
BLACK
6
CONTINUOUS
10
198.792
20
-75.4128
11
198.798
21
-75.2848
0
LINE
8
BLACK
6
CONTINUOUS
10
198.798
20
-75.2848
11
198.839
21
-75.0585
0
LINE
8
BLACK
6
CONTINUOUS
10
198.839
20
-75.0585
11
198.917
21
-74.8423
0
LINE
8
BLACK
6
CONTINUOUS
10
198.917
20
-74.8423
11
199.031
21
-74.6425
0
LINE
8
BLACK
6
CONTINUOUS
10
199.031
20
-74.6425
11
199.177
21
-74.4647
0
LINE
8
BLACK
6
CONTINUOUS
10
199.177
20
-74.4647
11
199.351
21
-74.3139
0
LINE
8
BLACK
6
CONTINUOUS
10
199.351
20
-74.3139
11
199.547
21
-74.1946
0
LINE
8
BLACK
6
CONTINUOUS
10
199.547
20
-74.1946
11
199.761
21
-74.1102
0
LINE
8
BLACK
6
CONTINUOUS
10
199.761
20
-74.1102
11
199.986
21
-74.0629
0
LINE
8
BLACK
6
CONTINUOUS
10
199.986
20
-74.0629
11
200.216
21
-74.0543
0
LINE
8
BLACK
6
CONTINUOUS
10
200.216
20
-74.0543
11
200.444
21
-74.0845
0
LINE
8
BLACK
6
CONTINUOUS
10
188.252
20
-74.0845
11
188.472
21
-74.1527
0
LINE
8
BLACK
6
CONTINUOUS
10
188.472
20
-74.1527
11
188.677
21
-74.2569
0
LINE
8
BLACK
6
CONTINUOUS
10
188.677
20
-74.2569
11
188.861
21
-74.3942
0
LINE
8
BLACK
6
CONTINUOUS
10
188.861
20
-74.3942
11
189.02
21
-74.5606
0
LINE
8
BLACK
6
CONTINUOUS
10
189.02
20
-74.5606
11
189.148
21
-74.7514
0
LINE
8
BLACK
6
CONTINUOUS
10
189.148
20
-74.7514
11
189.243
21
-74.9611
0
LINE
8
BLACK
6
CONTINUOUS
10
189.243
20
-74.9611
11
189.301
21
-75.1837
0
LINE
8
BLACK
6
CONTINUOUS
10
189.301
20
-75.1837
11
189.32
21
-75.4128
0
LINE
8
BLACK
6
CONTINUOUS
10
189.32
20
-75.4128
11
189.32
21
-76.6928
0
LINE
8
BLACK
6
CONTINUOUS
10
189.32
20
-76.6928
11
189.314
21
-76.8208
0
LINE
8
BLACK
6
CONTINUOUS
10
189.314
20
-76.8208
11
189.273
21
-77.0471
0
LINE
8
BLACK
6
CONTINUOUS
10
189.273
20
-77.0471
11
189.195
21
-77.2633
0
LINE
8
BLACK
6
CONTINUOUS
10
189.195
20
-77.2633
11
189.081
21
-77.4631
0
LINE
8
BLACK
6
CONTINUOUS
10
189.081
20
-77.4631
11
188.935
21
-77.6409
0
LINE
8
BLACK
6
CONTINUOUS
10
188.935
20
-77.6409
11
188.761
21
-77.7917
0
LINE
8
BLACK
6
CONTINUOUS
10
188.761
20
-77.7917
11
188.565
21
-77.911
0
LINE
8
BLACK
6
CONTINUOUS
10
188.565
20
-77.911
11
188.351
21
-77.9954
0
LINE
8
BLACK
6
CONTINUOUS
10
188.351
20
-77.9954
11
188.126
21
-78.0427
0
LINE
8
BLACK
6
CONTINUOUS
10
188.126
20
-78.0427
11
187.896
21
-78.0513
0
LINE
8
BLACK
6
CONTINUOUS
10
187.896
20
-78.0513
11
187.668
21
-78.0211
0
LINE
8
BLACK
6
CONTINUOUS
10
187.668
20
-78.0211
11
187.448
21
-77.9529
0
LINE
8
BLACK
6
CONTINUOUS
10
187.448
20
-77.9529
11
187.243
21
-77.8487
0
LINE
8
BLACK
6
CONTINUOUS
10
187.243
20
-77.8487
11
187.059
21
-77.7114
0
LINE
8
BLACK
6
CONTINUOUS
10
187.059
20
-77.7114
11
186.9
21
-77.545
0
LINE
8
BLACK
6
CONTINUOUS
10
186.9
20
-77.545
11
186.772
21
-77.3542
0
LINE
8
BLACK
6
CONTINUOUS
10
186.772
20
-77.3542
11
186.677
21
-77.1445
0
LINE
8
BLACK
6
CONTINUOUS
10
186.677
20
-77.1445
11
186.619
21
-76.9219
0
LINE
8
BLACK
6
CONTINUOUS
10
186.619
20
-76.9219
11
186.6
21
-76.6928
0
LINE
8
BLACK
6
CONTINUOUS
10
186.6
20
-76.6928
11
186.6
21
-75.4128
0
LINE
8
BLACK
6
CONTINUOUS
10
186.6
20
-75.4128
11
186.606
21
-75.2848
0
LINE
8
BLACK
6
CONTINUOUS
10
186.606
20
-75.2848
11
186.647
21
-75.0585
0
LINE
8
BLACK
6
CONTINUOUS
10
186.647
20
-75.0585
11
186.725
21
-74.8423
0
LINE
8
BLACK
6
CONTINUOUS
10
186.725
20
-74.8423
11
186.839
21
-74.6425
0
LINE
8
BLACK
6
CONTINUOUS
10
186.839
20
-74.6425
11
186.985
21
-74.4647
0
LINE
8
BLACK
6
CONTINUOUS
10
186.985
20
-74.4647
11
187.159
21
-74.3139
0
LINE
8
BLACK
6
CONTINUOUS
10
187.159
20
-74.3139
11
187.355
21
-74.1946
0
LINE
8
BLACK
6
CONTINUOUS
10
187.355
20
-74.1946
11
187.569
21
-74.1102
0
LINE
8
BLACK
6
CONTINUOUS
10
187.569
20
-74.1102
11
187.794
21
-74.0629
0
LINE
8
BLACK
6
CONTINUOUS
10
187.794
20
-74.0629
11
188.024
21
-74.0543
0
LINE
8
BLACK
6
CONTINUOUS
10
188.024
20
-74.0543
11
188.252
21
-74.0845
0
LINE
8
BLACK
6
CONTINUOUS
10
141.552
20
-75.7082
11
141.739
21
-75.7659
0
LINE
8
BLACK
6
CONTINUOUS
10
141.739
20
-75.7659
11
141.91
21
-75.8588
0
LINE
8
BLACK
6
CONTINUOUS
10
141.91
20
-75.8588
11
142.061
21
-75.9832
0
LINE
8
BLACK
6
CONTINUOUS
10
142.061
20
-75.9832
11
142.184
21
-76.1344
0
LINE
8
BLACK
6
CONTINUOUS
10
142.184
20
-76.1344
11
142.276
21
-76.3067
0
LINE
8
BLACK
6
CONTINUOUS
10
142.276
20
-76.3067
11
142.332
21
-76.4936
0
LINE
8
BLACK
6
CONTINUOUS
10
142.332
20
-76.4936
11
142.351
21
-76.6878
0
LINE
8
BLACK
6
CONTINUOUS
10
142.351
20
-76.6878
11
142.351
21
-76.7157
0
LINE
8
BLACK
6
CONTINUOUS
10
142.351
20
-76.7157
11
142.326
21
-76.9093
0
LINE
8
BLACK
6
CONTINUOUS
10
142.326
20
-76.9093
11
142.265
21
-77.0945
0
LINE
8
BLACK
6
CONTINUOUS
10
142.265
20
-77.0945
11
142.168
21
-77.2642
0
LINE
8
BLACK
6
CONTINUOUS
10
142.168
20
-77.2642
11
142.041
21
-77.412
0
LINE
8
BLACK
6
CONTINUOUS
10
142.041
20
-77.412
11
141.887
21
-77.5321
0
LINE
8
BLACK
6
CONTINUOUS
10
141.887
20
-77.5321
11
141.713
21
-77.6201
0
LINE
8
BLACK
6
CONTINUOUS
10
141.713
20
-77.6201
11
141.525
21
-77.6726
0
LINE
8
BLACK
6
CONTINUOUS
10
141.525
20
-77.6726
11
141.33
21
-77.6876
0
LINE
8
BLACK
6
CONTINUOUS
10
141.33
20
-77.6876
11
141.136
21
-77.6645
0
LINE
8
BLACK
6
CONTINUOUS
10
141.136
20
-77.6645
11
140.951
21
-77.6042
0
LINE
8
BLACK
6
CONTINUOUS
10
140.951
20
-77.6042
11
140.78
21
-77.5089
0
LINE
8
BLACK
6
CONTINUOUS
10
140.78
20
-77.5089
11
140.632
21
-77.3825
0
LINE
8
BLACK
6
CONTINUOUS
10
140.632
20
-77.3825
11
140.51
21
-77.2295
0
LINE
8
BLACK
6
CONTINUOUS
10
140.51
20
-77.2295
11
140.421
21
-77.0559
0
LINE
8
BLACK
6
CONTINUOUS
10
140.421
20
-77.0559
11
140.367
21
-76.8683
0
LINE
8
BLACK
6
CONTINUOUS
10
140.367
20
-76.8683
11
140.351
21
-76.6738
0
LINE
8
BLACK
6
CONTINUOUS
10
140.351
20
-76.6738
11
140.373
21
-76.4799
0
LINE
8
BLACK
6
CONTINUOUS
10
140.373
20
-76.4799
11
140.432
21
-76.2939
0
LINE
8
BLACK
6
CONTINUOUS
10
140.432
20
-76.2939
11
140.526
21
-76.1228
0
LINE
8
BLACK
6
CONTINUOUS
10
140.526
20
-76.1228
11
140.651
21
-75.9733
0
LINE
8
BLACK
6
CONTINUOUS
10
140.651
20
-75.9733
11
140.803
21
-75.851
0
LINE
8
BLACK
6
CONTINUOUS
10
140.803
20
-75.851
11
140.976
21
-75.7606
0
LINE
8
BLACK
6
CONTINUOUS
10
140.976
20
-75.7606
11
141.164
21
-75.7055
0
LINE
8
BLACK
6
CONTINUOUS
10
141.164
20
-75.7055
11
141.358
21
-75.6878
0
LINE
8
BLACK
6
CONTINUOUS
10
141.358
20
-75.6878
11
141.552
21
-75.7082
0
LINE
8
BLACK
6
CONTINUOUS
10
150.506
20
-75.6828
11
148.706
21
-75.6828
0
LINE
8
BLACK
6
CONTINUOUS
10
148.706
20
-75.6828
11
148.706
21
-73.8828
0
LINE
8
BLACK
6
CONTINUOUS
10
148.706
20
-73.8828
11
150.506
21
-73.8828
0
LINE
8
BLACK
6
CONTINUOUS
10
150.506
20
-73.8828
11
150.506
21
-75.6828
0
LINE
8
BLACK
6
CONTINUOUS
10
176.992
20
-66.1068
11
177.073
21
-66.161
0
LINE
8
BLACK
6
CONTINUOUS
10
177.073
20
-66.161
11
177.127
21
-66.2421
0
LINE
8
BLACK
6
CONTINUOUS
10
177.127
20
-66.2421
11
177.146
21
-66.3378
0
LINE
8
BLACK
6
CONTINUOUS
10
177.146
20
-66.3378
11
177.146
21
-68.0278
0
LINE
8
BLACK
6
CONTINUOUS
10
177.146
20
-68.0278
11
177.127
21
-68.1235
0
LINE
8
BLACK
6
CONTINUOUS
10
177.127
20
-68.1235
11
177.073
21
-68.2046
0
LINE
8
BLACK
6
CONTINUOUS
10
177.073
20
-68.2046
11
176.992
21
-68.2588
0
LINE
8
BLACK
6
CONTINUOUS
10
176.992
20
-68.2588
11
176.896
21
-68.2778
0
LINE
8
BLACK
6
CONTINUOUS
10
176.896
20
-68.2778
11
175.656
21
-68.2778
0
LINE
8
BLACK
6
CONTINUOUS
10
175.656
20
-68.2778
11
175.56
21
-68.2588
0
LINE
8
BLACK
6
CONTINUOUS
10
175.56
20
-68.2588
11
175.479
21
-68.2046
0
LINE
8
BLACK
6
CONTINUOUS
10
175.479
20
-68.2046
11
175.425
21
-68.1235
0
LINE
8
BLACK
6
CONTINUOUS
10
175.425
20
-68.1235
11
175.406
21
-68.0278
0
LINE
8
BLACK
6
CONTINUOUS
10
175.406
20
-68.0278
11
175.406
21
-66.3378
0
LINE
8
BLACK
6
CONTINUOUS
10
175.406
20
-66.3378
11
175.425
21
-66.2421
0
LINE
8
BLACK
6
CONTINUOUS
10
175.425
20
-66.2421
11
175.479
21
-66.161
0
LINE
8
BLACK
6
CONTINUOUS
10
175.479
20
-66.161
11
175.56
21
-66.1068
0
LINE
8
BLACK
6
CONTINUOUS
10
175.56
20
-66.1068
11
175.656
21
-66.0878
0
LINE
8
BLACK
6
CONTINUOUS
10
175.656
20
-66.0878
11
176.896
21
-66.0878
0
LINE
8
BLACK
6
CONTINUOUS
10
176.896
20
-66.0878
11
176.992
21
-66.1068
0
LINE
8
BLACK
6
CONTINUOUS
10
171.43
20
-66.1198
11
171.604
21
-66.1896
0
LINE
8
BLACK
6
CONTINUOUS
10
171.604
20
-66.1896
11
171.76
21
-66.2953
0
LINE
8
BLACK
6
CONTINUOUS
10
171.76
20
-66.2953
11
171.889
21
-66.4318
0
LINE
8
BLACK
6
CONTINUOUS
10
171.889
20
-66.4318
11
171.986
21
-66.5929
0
LINE
8
BLACK
6
CONTINUOUS
10
171.986
20
-66.5929
11
172.046
21
-66.771
0
LINE
8
BLACK
6
CONTINUOUS
10
172.046
20
-66.771
11
172.066
21
-66.9578
0
LINE
8
BLACK
6
CONTINUOUS
10
172.066
20
-66.9578
11
172.066
21
-67.4078
0
LINE
8
BLACK
6
CONTINUOUS
10
172.066
20
-67.4078
11
172.061
21
-67.5048
0
LINE
8
BLACK
6
CONTINUOUS
10
172.061
20
-67.5048
11
172.02
21
-67.6882
0
LINE
8
BLACK
6
CONTINUOUS
10
172.02
20
-67.6882
11
171.94
21
-67.8585
0
LINE
8
BLACK
6
CONTINUOUS
10
171.94
20
-67.8585
11
171.826
21
-68.0078
0
LINE
8
BLACK
6
CONTINUOUS
10
171.826
20
-68.0078
11
171.682
21
-68.1291
0
LINE
8
BLACK
6
CONTINUOUS
10
171.682
20
-68.1291
11
171.516
21
-68.2167
0
LINE
8
BLACK
6
CONTINUOUS
10
171.516
20
-68.2167
11
171.335
21
-68.2666
0
LINE
8
BLACK
6
CONTINUOUS
10
171.335
20
-68.2666
11
171.147
21
-68.2764
0
LINE
8
BLACK
6
CONTINUOUS
10
171.147
20
-68.2764
11
170.962
21
-68.2458
0
LINE
8
BLACK
6
CONTINUOUS
10
170.962
20
-68.2458
11
170.788
21
-68.176
0
LINE
8
BLACK
6
CONTINUOUS
10
170.788
20
-68.176
11
170.632
21
-68.0703
0
LINE
8
BLACK
6
CONTINUOUS
10
170.632
20
-68.0703
11
170.503
21
-67.9338
0
LINE
8
BLACK
6
CONTINUOUS
10
170.503
20
-67.9338
11
170.406
21
-67.7727
0
LINE
8
BLACK
6
CONTINUOUS
10
170.406
20
-67.7727
11
170.346
21
-67.5946
0
LINE
8
BLACK
6
CONTINUOUS
10
170.346
20
-67.5946
11
170.326
21
-67.4078
0
LINE
8
BLACK
6
CONTINUOUS
10
170.326
20
-67.4078
11
170.326
21
-66.9578
0
LINE
8
BLACK
6
CONTINUOUS
10
170.326
20
-66.9578
11
170.331
21
-66.8608
0
LINE
8
BLACK
6
CONTINUOUS
10
170.331
20
-66.8608
11
170.372
21
-66.6774
0
LINE
8
BLACK
6
CONTINUOUS
10
170.372
20
-66.6774
11
170.452
21
-66.5071
0
LINE
8
BLACK
6
CONTINUOUS
10
170.452
20
-66.5071
11
170.566
21
-66.3578
0
LINE
8
BLACK
6
CONTINUOUS
10
170.566
20
-66.3578
11
170.71
21
-66.2365
0
LINE
8
BLACK
6
CONTINUOUS
10
170.71
20
-66.2365
11
170.876
21
-66.1489
0
LINE
8
BLACK
6
CONTINUOUS
10
170.876
20
-66.1489
11
171.057
21
-66.099
0
LINE
8
BLACK
6
CONTINUOUS
10
171.057
20
-66.099
11
171.245
21
-66.0892
0
LINE
8
BLACK
6
CONTINUOUS
10
171.245
20
-66.0892
11
171.43
21
-66.1198
0
LINE
8
BLACK
6
CONTINUOUS
10
173.97
20
-66.1198
11
174.144
21
-66.1896
0
LINE
8
BLACK
6
CONTINUOUS
10
174.144
20
-66.1896
11
174.3
21
-66.2953
0
LINE
8
BLACK
6
CONTINUOUS
10
174.3
20
-66.2953
11
174.429
21
-66.4318
0
LINE
8
BLACK
6
CONTINUOUS
10
174.429
20
-66.4318
11
174.526
21
-66.5929
0
LINE
8
BLACK
6
CONTINUOUS
10
174.526
20
-66.5929
11
174.586
21
-66.771
0
LINE
8
BLACK
6
CONTINUOUS
10
174.586
20
-66.771
11
174.606
21
-66.9578
0
LINE
8
BLACK
6
CONTINUOUS
10
174.606
20
-66.9578
11
174.606
21
-67.4078
0
LINE
8
BLACK
6
CONTINUOUS
10
174.606
20
-67.4078
11
174.601
21
-67.5048
0
LINE
8
BLACK
6
CONTINUOUS
10
174.601
20
-67.5048
11
174.56
21
-67.6882
0
LINE
8
BLACK
6
CONTINUOUS
10
174.56
20
-67.6882
11
174.48
21
-67.8585
0
LINE
8
BLACK
6
CONTINUOUS
10
174.48
20
-67.8585
11
174.366
21
-68.0078
0
LINE
8
BLACK
6
CONTINUOUS
10
174.366
20
-68.0078
11
174.222
21
-68.1291
0
LINE
8
BLACK
6
CONTINUOUS
10
174.222
20
-68.1291
11
174.056
21
-68.2167
0
LINE
8
BLACK
6
CONTINUOUS
10
174.056
20
-68.2167
11
173.875
21
-68.2666
0
LINE
8
BLACK
6
CONTINUOUS
10
173.875
20
-68.2666
11
173.687
21
-68.2764
0
LINE
8
BLACK
6
CONTINUOUS
10
173.687
20
-68.2764
11
173.502
21
-68.2458
0
LINE
8
BLACK
6
CONTINUOUS
10
173.502
20
-68.2458
11
173.328
21
-68.176
0
LINE
8
BLACK
6
CONTINUOUS
10
173.328
20
-68.176
11
173.172
21
-68.0703
0
LINE
8
BLACK
6
CONTINUOUS
10
173.172
20
-68.0703
11
173.043
21
-67.9338
0
LINE
8
BLACK
6
CONTINUOUS
10
173.043
20
-67.9338
11
172.946
21
-67.7727
0
LINE
8
BLACK
6
CONTINUOUS
10
172.946
20
-67.7727
11
172.886
21
-67.5946
0
LINE
8
BLACK
6
CONTINUOUS
10
172.886
20
-67.5946
11
172.866
21
-67.4078
0
LINE
8
BLACK
6
CONTINUOUS
10
172.866
20
-67.4078
11
172.866
21
-66.9578
0
LINE
8
BLACK
6
CONTINUOUS
10
172.866
20
-66.9578
11
172.871
21
-66.8608
0
LINE
8
BLACK
6
CONTINUOUS
10
172.871
20
-66.8608
11
172.912
21
-66.6774
0
LINE
8
BLACK
6
CONTINUOUS
10
172.912
20
-66.6774
11
172.992
21
-66.5071
0
LINE
8
BLACK
6
CONTINUOUS
10
172.992
20
-66.5071
11
173.106
21
-66.3578
0
LINE
8
BLACK
6
CONTINUOUS
10
173.106
20
-66.3578
11
173.25
21
-66.2365
0
LINE
8
BLACK
6
CONTINUOUS
10
173.25
20
-66.2365
11
173.416
21
-66.1489
0
LINE
8
BLACK
6
CONTINUOUS
10
173.416
20
-66.1489
11
173.597
21
-66.099
0
LINE
8
BLACK
6
CONTINUOUS
10
173.597
20
-66.099
11
173.785
21
-66.0892
0
LINE
8
BLACK
6
CONTINUOUS
10
173.785
20
-66.0892
11
173.97
21
-66.1198
0
LINE
8
BLACK
6
CONTINUOUS
10
104.602
20
-66.0868
11
104.683
21
-66.141
0
LINE
8
BLACK
6
CONTINUOUS
10
104.683
20
-66.141
11
104.737
21
-66.2221
0
LINE
8
BLACK
6
CONTINUOUS
10
104.737
20
-66.2221
11
104.756
21
-66.3178
0
LINE
8
BLACK
6
CONTINUOUS
10
104.756
20
-66.3178
11
104.756
21
-68.0078
0
LINE
8
BLACK
6
CONTINUOUS
10
104.756
20
-68.0078
11
104.737
21
-68.1035
0
LINE
8
BLACK
6
CONTINUOUS
10
104.737
20
-68.1035
11
104.683
21
-68.1846
0
LINE
8
BLACK
6
CONTINUOUS
10
104.683
20
-68.1846
11
104.602
21
-68.2388
0
LINE
8
BLACK
6
CONTINUOUS
10
104.602
20
-68.2388
11
104.506
21
-68.2578
0
LINE
8
BLACK
6
CONTINUOUS
10
104.506
20
-68.2578
11
103.266
21
-68.2578
0
LINE
8
BLACK
6
CONTINUOUS
10
103.266
20
-68.2578
11
103.17
21
-68.2388
0
LINE
8
BLACK
6
CONTINUOUS
10
103.17
20
-68.2388
11
103.089
21
-68.1846
0
LINE
8
BLACK
6
CONTINUOUS
10
103.089
20
-68.1846
11
103.035
21
-68.1035
0
LINE
8
BLACK
6
CONTINUOUS
10
103.035
20
-68.1035
11
103.016
21
-68.0078
0
LINE
8
BLACK
6
CONTINUOUS
10
103.016
20
-68.0078
11
103.016
21
-66.3178
0
LINE
8
BLACK
6
CONTINUOUS
10
103.016
20
-66.3178
11
103.035
21
-66.2221
0
LINE
8
BLACK
6
CONTINUOUS
10
103.035
20
-66.2221
11
103.089
21
-66.141
0
LINE
8
BLACK
6
CONTINUOUS
10
103.089
20
-66.141
11
103.17
21
-66.0868
0
LINE
8
BLACK
6
CONTINUOUS
10
103.17
20
-66.0868
11
103.266
21
-66.0678
0
LINE
8
BLACK
6
CONTINUOUS
10
103.266
20
-66.0678
11
104.506
21
-66.0678
0
LINE
8
BLACK
6
CONTINUOUS
10
104.506
20
-66.0678
11
104.602
21
-66.0868
0
LINE
8
BLACK
6
CONTINUOUS
10
123.652
20
-66.0868
11
123.733
21
-66.141
0
LINE
8
BLACK
6
CONTINUOUS
10
123.733
20
-66.141
11
123.787
21
-66.2221
0
LINE
8
BLACK
6
CONTINUOUS
10
123.787
20
-66.2221
11
123.806
21
-66.3178
0
LINE
8
BLACK
6
CONTINUOUS
10
123.806
20
-66.3178
11
123.806
21
-68.0078
0
LINE
8
BLACK
6
CONTINUOUS
10
123.806
20
-68.0078
11
123.787
21
-68.1035
0
LINE
8
BLACK
6
CONTINUOUS
10
123.787
20
-68.1035
11
123.733
21
-68.1846
0
LINE
8
BLACK
6
CONTINUOUS
10
123.733
20
-68.1846
11
123.652
21
-68.2388
0
LINE
8
BLACK
6
CONTINUOUS
10
123.652
20
-68.2388
11
123.556
21
-68.2578
0
LINE
8
BLACK
6
CONTINUOUS
10
123.556
20
-68.2578
11
122.316
21
-68.2578
0
LINE
8
BLACK
6
CONTINUOUS
10
122.316
20
-68.2578
11
122.22
21
-68.2388
0
LINE
8
BLACK
6
CONTINUOUS
10
122.22
20
-68.2388
11
122.139
21
-68.1846
0
LINE
8
BLACK
6
CONTINUOUS
10
122.139
20
-68.1846
11
122.085
21
-68.1035
0
LINE
8
BLACK
6
CONTINUOUS
10
122.085
20
-68.1035
11
122.066
21
-68.0078
0
LINE
8
BLACK
6
CONTINUOUS
10
122.066
20
-68.0078
11
122.066
21
-66.3178
0
LINE
8
BLACK
6
CONTINUOUS
10
122.066
20
-66.3178
11
122.085
21
-66.2221
0
LINE
8
BLACK
6
CONTINUOUS
10
122.085
20
-66.2221
11
122.139
21
-66.141
0
LINE
8
BLACK
6
CONTINUOUS
10
122.139
20
-66.141
11
122.22
21
-66.0868
0
LINE
8
BLACK
6
CONTINUOUS
10
122.22
20
-66.0868
11
122.316
21
-66.0678
0
LINE
8
BLACK
6
CONTINUOUS
10
122.316
20
-66.0678
11
123.556
21
-66.0678
0
LINE
8
BLACK
6
CONTINUOUS
10
123.556
20
-66.0678
11
123.652
21
-66.0868
0
LINE
8
BLACK
6
CONTINUOUS
10
101.58
20
-66.0998
11
101.754
21
-66.1696
0
LINE
8
BLACK
6
CONTINUOUS
10
101.754
20
-66.1696
11
101.91
21
-66.2753
0
LINE
8
BLACK
6
CONTINUOUS
10
101.91
20
-66.2753
11
102.039
21
-66.4118
0
LINE
8
BLACK
6
CONTINUOUS
10
102.039
20
-66.4118
11
102.136
21
-66.5729
0
LINE
8
BLACK
6
CONTINUOUS
10
102.136
20
-66.5729
11
102.196
21
-66.751
0
LINE
8
BLACK
6
CONTINUOUS
10
102.196
20
-66.751
11
102.216
21
-66.9378
0
LINE
8
BLACK
6
CONTINUOUS
10
102.216
20
-66.9378
11
102.216
21
-67.3878
0
LINE
8
BLACK
6
CONTINUOUS
10
102.216
20
-67.3878
11
102.211
21
-67.4848
0
LINE
8
BLACK
6
CONTINUOUS
10
102.211
20
-67.4848
11
102.17
21
-67.6682
0
LINE
8
BLACK
6
CONTINUOUS
10
102.17
20
-67.6682
11
102.09
21
-67.8385
0
LINE
8
BLACK
6
CONTINUOUS
10
102.09
20
-67.8385
11
101.976
21
-67.9878
0
LINE
8
BLACK
6
CONTINUOUS
10
101.976
20
-67.9878
11
101.832
21
-68.1091
0
LINE
8
BLACK
6
CONTINUOUS
10
101.832
20
-68.1091
11
101.666
21
-68.1967
0
LINE
8
BLACK
6
CONTINUOUS
10
101.666
20
-68.1967
11
101.485
21
-68.2466
0
LINE
8
BLACK
6
CONTINUOUS
10
101.485
20
-68.2466
11
101.297
21
-68.2564
0
LINE
8
BLACK
6
CONTINUOUS
10
101.297
20
-68.2564
11
101.112
21
-68.2258
0
LINE
8
BLACK
6
CONTINUOUS
10
101.112
20
-68.2258
11
100.938
21
-68.156
0
LINE
8
BLACK
6
CONTINUOUS
10
100.938
20
-68.156
11
100.782
21
-68.0503
0
LINE
8
BLACK
6
CONTINUOUS
10
100.782
20
-68.0503
11
100.653
21
-67.9138
0
LINE
8
BLACK
6
CONTINUOUS
10
100.653
20
-67.9138
11
100.556
21
-67.7527
0
LINE
8
BLACK
6
CONTINUOUS
10
100.556
20
-67.7527
11
100.496
21
-67.5746
0
LINE
8
BLACK
6
CONTINUOUS
10
100.496
20
-67.5746
11
100.476
21
-67.3878
0
LINE
8
BLACK
6
CONTINUOUS
10
100.476
20
-67.3878
11
100.476
21
-66.9378
0
LINE
8
BLACK
6
CONTINUOUS
10
100.476
20
-66.9378
11
100.481
21
-66.8408
0
LINE
8
BLACK
6
CONTINUOUS
10
100.481
20
-66.8408
11
100.522
21
-66.6574
0
LINE
8
BLACK
6
CONTINUOUS
10
100.522
20
-66.6574
11
100.602
21
-66.4871
0
LINE
8
BLACK
6
CONTINUOUS
10
100.602
20
-66.4871
11
100.716
21
-66.3378
0
LINE
8
BLACK
6
CONTINUOUS
10
100.716
20
-66.3378
11
100.86
21
-66.2165
0
LINE
8
BLACK
6
CONTINUOUS
10
100.86
20
-66.2165
11
101.026
21
-66.1289
0
LINE
8
BLACK
6
CONTINUOUS
10
101.026
20
-66.1289
11
101.207
21
-66.079
0
LINE
8
BLACK
6
CONTINUOUS
10
101.207
20
-66.079
11
101.395
21
-66.0692
0
LINE
8
BLACK
6
CONTINUOUS
10
101.395
20
-66.0692
11
101.58
21
-66.0998
0
LINE
8
BLACK
6
CONTINUOUS
10
118.09
20
-66.0998
11
118.264
21
-66.1696
0
LINE
8
BLACK
6
CONTINUOUS
10
118.264
20
-66.1696
11
118.42
21
-66.2753
0
LINE
8
BLACK
6
CONTINUOUS
10
118.42
20
-66.2753
11
118.549
21
-66.4118
0
LINE
8
BLACK
6
CONTINUOUS
10
118.549
20
-66.4118
11
118.646
21
-66.5729
0
LINE
8
BLACK
6
CONTINUOUS
10
118.646
20
-66.5729
11
118.706
21
-66.751
0
LINE
8
BLACK
6
CONTINUOUS
10
118.706
20
-66.751
11
118.726
21
-66.9378
0
LINE
8
BLACK
6
CONTINUOUS
10
118.726
20
-66.9378
11
118.726
21
-67.3878
0
LINE
8
BLACK
6
CONTINUOUS
10
118.726
20
-67.3878
11
118.721
21
-67.4848
0
LINE
8
BLACK
6
CONTINUOUS
10
118.721
20
-67.4848
11
118.68
21
-67.6682
0
LINE
8
BLACK
6
CONTINUOUS
10
118.68
20
-67.6682
11
118.6
21
-67.8385
0
LINE
8
BLACK
6
CONTINUOUS
10
118.6
20
-67.8385
11
118.486
21
-67.9878
0
LINE
8
BLACK
6
CONTINUOUS
10
118.486
20
-67.9878
11
118.342
21
-68.1091
0
LINE
8
BLACK
6
CONTINUOUS
10
118.342
20
-68.1091
11
118.176
21
-68.1967
0
LINE
8
BLACK
6
CONTINUOUS
10
118.176
20
-68.1967
11
117.995
21
-68.2466
0
LINE
8
BLACK
6
CONTINUOUS
10
117.995
20
-68.2466
11
117.807
21
-68.2564
0
LINE
8
BLACK
6
CONTINUOUS
10
117.807
20
-68.2564
11
117.622
21
-68.2258
0
LINE
8
BLACK
6
CONTINUOUS
10
117.622
20
-68.2258
11
117.448
21
-68.156
0
LINE
8
BLACK
6
CONTINUOUS
10
117.448
20
-68.156
11
117.292
21
-68.0503
0
LINE
8
BLACK
6
CONTINUOUS
10
117.292
20
-68.0503
11
117.163
21
-67.9138
0
LINE
8
BLACK
6
CONTINUOUS
10
117.163
20
-67.9138
11
117.066
21
-67.7527
0
LINE
8
BLACK
6
CONTINUOUS
10
117.066
20
-67.7527
11
117.006
21
-67.5746
0
LINE
8
BLACK
6
CONTINUOUS
10
117.006
20
-67.5746
11
116.986
21
-67.3878
0
LINE
8
BLACK
6
CONTINUOUS
10
116.986
20
-67.3878
11
116.986
21
-66.9378
0
LINE
8
BLACK
6
CONTINUOUS
10
116.986
20
-66.9378
11
116.991
21
-66.8408
0
LINE
8
BLACK
6
CONTINUOUS
10
116.991
20
-66.8408
11
117.032
21
-66.6574
0
LINE
8
BLACK
6
CONTINUOUS
10
117.032
20
-66.6574
11
117.112
21
-66.4871
0
LINE
8
BLACK
6
CONTINUOUS
10
117.112
20
-66.4871
11
117.226
21
-66.3378
0
LINE
8
BLACK
6
CONTINUOUS
10
117.226
20
-66.3378
11
117.37
21
-66.2165
0
LINE
8
BLACK
6
CONTINUOUS
10
117.37
20
-66.2165
11
117.536
21
-66.1289
0
LINE
8
BLACK
6
CONTINUOUS
10
117.536
20
-66.1289
11
117.717
21
-66.079
0
LINE
8
BLACK
6
CONTINUOUS
10
117.717
20
-66.079
11
117.905
21
-66.0692
0
LINE
8
BLACK
6
CONTINUOUS
10
117.905
20
-66.0692
11
118.09
21
-66.0998
0
LINE
8
BLACK
6
CONTINUOUS
10
120.63
20
-66.0998
11
120.804
21
-66.1696
0
LINE
8
BLACK
6
CONTINUOUS
10
120.804
20
-66.1696
11
120.96
21
-66.2753
0
LINE
8
BLACK
6
CONTINUOUS
10
120.96
20
-66.2753
11
121.089
21
-66.4118
0
LINE
8
BLACK
6
CONTINUOUS
10
121.089
20
-66.4118
11
121.186
21
-66.5729
0
LINE
8
BLACK
6
CONTINUOUS
10
121.186
20
-66.5729
11
121.246
21
-66.751
0
LINE
8
BLACK
6
CONTINUOUS
10
121.246
20
-66.751
11
121.266
21
-66.9378
0
LINE
8
BLACK
6
CONTINUOUS
10
121.266
20
-66.9378
11
121.266
21
-67.3878
0
LINE
8
BLACK
6
CONTINUOUS
10
121.266
20
-67.3878
11
121.261
21
-67.4848
0
LINE
8
BLACK
6
CONTINUOUS
10
121.261
20
-67.4848
11
121.22
21
-67.6682
0
LINE
8
BLACK
6
CONTINUOUS
10
121.22
20
-67.6682
11
121.14
21
-67.8385
0
LINE
8
BLACK
6
CONTINUOUS
10
121.14
20
-67.8385
11
121.026
21
-67.9878
0
LINE
8
BLACK
6
CONTINUOUS
10
121.026
20
-67.9878
11
120.882
21
-68.1091
0
LINE
8
BLACK
6
CONTINUOUS
10
120.882
20
-68.1091
11
120.716
21
-68.1967
0
LINE
8
BLACK
6
CONTINUOUS
10
120.716
20
-68.1967
11
120.535
21
-68.2466
0
LINE
8
BLACK
6
CONTINUOUS
10
120.535
20
-68.2466
11
120.347
21
-68.2564
0
LINE
8
BLACK
6
CONTINUOUS
10
120.347
20
-68.2564
11
120.162
21
-68.2258
0
LINE
8
BLACK
6
CONTINUOUS
10
120.162
20
-68.2258
11
119.988
21
-68.156
0
LINE
8
BLACK
6
CONTINUOUS
10
119.988
20
-68.156
11
119.832
21
-68.0503
0
LINE
8
BLACK
6
CONTINUOUS
10
119.832
20
-68.0503
11
119.703
21
-67.9138
0
LINE
8
BLACK
6
CONTINUOUS
10
119.703
20
-67.9138
11
119.606
21
-67.7527
0
LINE
8
BLACK
6
CONTINUOUS
10
119.606
20
-67.7527
11
119.546
21
-67.5746
0
LINE
8
BLACK
6
CONTINUOUS
10
119.546
20
-67.5746
11
119.526
21
-67.3878
0
LINE
8
BLACK
6
CONTINUOUS
10
119.526
20
-67.3878
11
119.526
21
-66.9378
0
LINE
8
BLACK
6
CONTINUOUS
10
119.526
20
-66.9378
11
119.531
21
-66.8408
0
LINE
8
BLACK
6
CONTINUOUS
10
119.531
20
-66.8408
11
119.572
21
-66.6574
0
LINE
8
BLACK
6
CONTINUOUS
10
119.572
20
-66.6574
11
119.652
21
-66.4871
0
LINE
8
BLACK
6
CONTINUOUS
10
119.652
20
-66.4871
11
119.766
21
-66.3378
0
LINE
8
BLACK
6
CONTINUOUS
10
119.766
20
-66.3378
11
119.91
21
-66.2165
0
LINE
8
BLACK
6
CONTINUOUS
10
119.91
20
-66.2165
11
120.076
21
-66.1289
0
LINE
8
BLACK
6
CONTINUOUS
10
120.076
20
-66.1289
11
120.257
21
-66.079
0
LINE
8
BLACK
6
CONTINUOUS
10
120.257
20
-66.079
11
120.445
21
-66.0692
0
LINE
8
BLACK
6
CONTINUOUS
10
120.445
20
-66.0692
11
120.63
21
-66.0998
  0
ENDSEC
  0
EOF
