  0
SECTION
  2
HEADER
  9
$ANGBASE
  50
0.0
  9
$ANGDIR
  70
1
  9
$MEASUREMENT
  70
0
  0
ENDSEC
  0
SECTION
  2
TABLES
  0
TABLE
  2
LTYPE
  70
4
  0
LTYPE
  5
40F
  2
CONTINUOUS
  70
0
  3
Solid line
  72
65
  73
0
  40
0.0
  0
LTYPE
  5
410
  2
DASHDOT
 70
0
  3
Dash Dot ____ _ ____ _
 72
65
 73
4
 40
2.0
 49
1.25
 49
-0.25
 49
0.25
 49
-0.25
  0
LTYPE
  5
411
  2
DASHED
 70
0
  3
Dashed __ __ __ __ __
 72
65
 73
2
 40
0.75
 49
0.5
 49
-0.25
  0
LTYPE
  5
43B
  2
DOTTED
 70
0
  3
Dotted .  .  .  .
 72
65
 73
2
 40
0.2
 49
0.0
 49
-0.2
  0
ENDTAB
  0
TABLE
  2
STYLE
  70
4
  0
STYLE
  2
KICAD
  70
0
  40
0
  41
1
  42
1
  50
0
  71
0
  3
isocp.shx
  0
STYLE
  2
KICADB
  70
0
  40
0
  41
1
  42
1
  50
0
  71
0
  3
isocp.shx
  0
STYLE
  2
KICADI
  70
0
  40
0
  41
1
  42
1
  50
15
  71
0
  3
isocp.shx
  0
STYLE
  2
KICADBI
  70
0
  40
0
  41
1
  42
1
  50
15
  71
0
  3
isocp.shx
  0
ENDTAB
  0
TABLE
  2
LAYER
  70
1
  0
LAYER
  2
BLACK
  70
0
  62
7
  6
CONTINUOUS
  0
ENDTAB
  0
ENDSEC
  0
SECTION
  2
ENTITIES
0
LINE
8
BLACK
6
CONTINUOUS
10
29.6504
20
-12.5471
11
29.6505
21
-12.5471
0
LINE
8
BLACK
6
CONTINUOUS
10
29.6505
20
-12.5471
11
29.6506
21
-12.5472
0
LINE
8
BLACK
6
CONTINUOUS
10
29.6506
20
-12.5472
11
29.651
21
-12.5472
0
LINE
8
BLACK
6
CONTINUOUS
10
29.651
20
-12.5472
11
29.6516
21
-12.5477
0
LINE
8
BLACK
6
CONTINUOUS
10
29.6516
20
-12.5477
11
29.6523
21
-12.5481
0
LINE
8
BLACK
6
CONTINUOUS
10
29.6523
20
-12.5481
11
29.6524
21
-12.5484
0
LINE
8
BLACK
6
CONTINUOUS
10
29.6524
20
-12.5484
11
29.6526
21
-12.5485
0
LINE
8
BLACK
6
CONTINUOUS
10
29.6526
20
-12.5485
11
29.6527
21
-12.5493
0
LINE
8
BLACK
6
CONTINUOUS
10
29.6527
20
-12.5493
11
29.653
21
-12.55
0
LINE
8
BLACK
6
CONTINUOUS
10
29.653
20
-12.55
11
29.653
21
-16.3
0
LINE
8
BLACK
6
CONTINUOUS
10
29.653
20
-16.3
11
29.6529
21
-16.3004
0
LINE
8
BLACK
6
CONTINUOUS
10
29.6529
20
-16.3004
11
29.6529
21
-16.3005
0
LINE
8
BLACK
6
CONTINUOUS
10
29.6529
20
-16.3005
11
29.6528
21
-16.3006
0
LINE
8
BLACK
6
CONTINUOUS
10
29.6528
20
-16.3006
11
29.6528
21
-16.301
0
LINE
8
BLACK
6
CONTINUOUS
10
29.6528
20
-16.301
11
29.6523
21
-16.3016
0
LINE
8
BLACK
6
CONTINUOUS
10
29.6523
20
-16.3016
11
29.6519
21
-16.3023
0
LINE
8
BLACK
6
CONTINUOUS
10
29.6519
20
-16.3023
11
29.6516
21
-16.3024
0
LINE
8
BLACK
6
CONTINUOUS
10
29.6516
20
-16.3024
11
29.6515
21
-16.3026
0
LINE
8
BLACK
6
CONTINUOUS
10
29.6515
20
-16.3026
11
29.6507
21
-16.3027
0
LINE
8
BLACK
6
CONTINUOUS
10
29.6507
20
-16.3027
11
29.65
21
-16.303
0
LINE
8
BLACK
6
CONTINUOUS
10
29.65
20
-16.303
11
24
21
-16.303
0
LINE
8
BLACK
6
CONTINUOUS
10
24
20
-16.303
11
23.9996
21
-16.3029
0
LINE
8
BLACK
6
CONTINUOUS
10
23.9996
20
-16.3029
11
23.9995
21
-16.3029
0
LINE
8
BLACK
6
CONTINUOUS
10
23.9995
20
-16.3029
11
23.9994
21
-16.3028
0
LINE
8
BLACK
6
CONTINUOUS
10
23.9994
20
-16.3028
11
23.999
21
-16.3028
0
LINE
8
BLACK
6
CONTINUOUS
10
23.999
20
-16.3028
11
23.9984
21
-16.3023
0
LINE
8
BLACK
6
CONTINUOUS
10
23.9984
20
-16.3023
11
23.9977
21
-16.3019
0
LINE
8
BLACK
6
CONTINUOUS
10
23.9977
20
-16.3019
11
23.9976
21
-16.3016
0
LINE
8
BLACK
6
CONTINUOUS
10
23.9976
20
-16.3016
11
23.9974
21
-16.3015
0
LINE
8
BLACK
6
CONTINUOUS
10
23.9974
20
-16.3015
11
23.9973
21
-16.3007
0
LINE
8
BLACK
6
CONTINUOUS
10
23.9973
20
-16.3007
11
23.997
21
-16.3
0
LINE
8
BLACK
6
CONTINUOUS
10
23.997
20
-16.3
11
23.997
21
-12.55
0
LINE
8
BLACK
6
CONTINUOUS
10
23.997
20
-12.55
11
23.9971
21
-12.5496
0
LINE
8
BLACK
6
CONTINUOUS
10
23.9971
20
-12.5496
11
23.9971
21
-12.5495
0
LINE
8
BLACK
6
CONTINUOUS
10
23.9971
20
-12.5495
11
23.9972
21
-12.5494
0
LINE
8
BLACK
6
CONTINUOUS
10
23.9972
20
-12.5494
11
23.9972
21
-12.549
0
LINE
8
BLACK
6
CONTINUOUS
10
23.9972
20
-12.549
11
23.9977
21
-12.5484
0
LINE
8
BLACK
6
CONTINUOUS
10
23.9977
20
-12.5484
11
23.9981
21
-12.5477
0
LINE
8
BLACK
6
CONTINUOUS
10
23.9981
20
-12.5477
11
23.9984
21
-12.5476
0
LINE
8
BLACK
6
CONTINUOUS
10
23.9984
20
-12.5476
11
23.9985
21
-12.5474
0
LINE
8
BLACK
6
CONTINUOUS
10
23.9985
20
-12.5474
11
23.9993
21
-12.5473
0
LINE
8
BLACK
6
CONTINUOUS
10
23.9993
20
-12.5473
11
24
21
-12.547
0
LINE
8
BLACK
6
CONTINUOUS
10
24
20
-12.547
11
29.65
21
-12.547
0
LINE
8
BLACK
6
CONTINUOUS
10
29.65
20
-12.547
11
29.6504
21
-12.5471
0
LINE
8
BLACK
6
CONTINUOUS
10
24.003
20
-12.553
11
24.003
21
-16.297
0
LINE
8
BLACK
6
CONTINUOUS
10
24.003
20
-16.297
11
29.647
21
-16.297
0
LINE
8
BLACK
6
CONTINUOUS
10
29.647
20
-16.297
11
29.647
21
-12.553
0
LINE
8
BLACK
6
CONTINUOUS
10
29.647
20
-12.553
11
24.003
21
-12.553
0
LINE
8
BLACK
6
CONTINUOUS
10
23.2754
20
-13.0471
11
23.2755
21
-13.0471
0
LINE
8
BLACK
6
CONTINUOUS
10
23.2755
20
-13.0471
11
23.2756
21
-13.0472
0
LINE
8
BLACK
6
CONTINUOUS
10
23.2756
20
-13.0472
11
23.276
21
-13.0472
0
LINE
8
BLACK
6
CONTINUOUS
10
23.276
20
-13.0472
11
23.2766
21
-13.0477
0
LINE
8
BLACK
6
CONTINUOUS
10
23.2766
20
-13.0477
11
23.2773
21
-13.0481
0
LINE
8
BLACK
6
CONTINUOUS
10
23.2773
20
-13.0481
11
23.2774
21
-13.0484
0
LINE
8
BLACK
6
CONTINUOUS
10
23.2774
20
-13.0484
11
23.2776
21
-13.0485
0
LINE
8
BLACK
6
CONTINUOUS
10
23.2776
20
-13.0485
11
23.2777
21
-13.0493
0
LINE
8
BLACK
6
CONTINUOUS
10
23.2777
20
-13.0493
11
23.278
21
-13.05
0
LINE
8
BLACK
6
CONTINUOUS
10
23.278
20
-13.05
11
23.278
21
-15.675
0
LINE
8
BLACK
6
CONTINUOUS
10
23.278
20
-15.675
11
23.2779
21
-15.6754
0
LINE
8
BLACK
6
CONTINUOUS
10
23.2779
20
-15.6754
11
23.2779
21
-15.6755
0
LINE
8
BLACK
6
CONTINUOUS
10
23.2779
20
-15.6755
11
23.2778
21
-15.6756
0
LINE
8
BLACK
6
CONTINUOUS
10
23.2778
20
-15.6756
11
23.2778
21
-15.676
0
LINE
8
BLACK
6
CONTINUOUS
10
23.2778
20
-15.676
11
23.2773
21
-15.6766
0
LINE
8
BLACK
6
CONTINUOUS
10
23.2773
20
-15.6766
11
23.2769
21
-15.6773
0
LINE
8
BLACK
6
CONTINUOUS
10
23.2769
20
-15.6773
11
23.2766
21
-15.6774
0
LINE
8
BLACK
6
CONTINUOUS
10
23.2766
20
-15.6774
11
23.2765
21
-15.6776
0
LINE
8
BLACK
6
CONTINUOUS
10
23.2765
20
-15.6776
11
23.2757
21
-15.6777
0
LINE
8
BLACK
6
CONTINUOUS
10
23.2757
20
-15.6777
11
23.275
21
-15.678
0
LINE
8
BLACK
6
CONTINUOUS
10
23.275
20
-15.678
11
5.525
21
-15.678
0
LINE
8
BLACK
6
CONTINUOUS
10
5.525
20
-15.678
11
5.52462
21
-15.6779
0
LINE
8
BLACK
6
CONTINUOUS
10
5.52462
20
-15.6779
11
5.52449
21
-15.6779
0
LINE
8
BLACK
6
CONTINUOUS
10
5.52449
20
-15.6779
11
5.52437
21
-15.6778
0
LINE
8
BLACK
6
CONTINUOUS
10
5.52437
20
-15.6778
11
5.52399
21
-15.6778
0
LINE
8
BLACK
6
CONTINUOUS
10
5.52399
20
-15.6778
11
5.5234
21
-15.6773
0
LINE
8
BLACK
6
CONTINUOUS
10
5.5234
20
-15.6773
11
5.52274
21
-15.6769
0
LINE
8
BLACK
6
CONTINUOUS
10
5.52274
20
-15.6769
11
5.52265
21
-15.6766
0
LINE
8
BLACK
6
CONTINUOUS
10
5.52265
20
-15.6766
11
5.52244
21
-15.6765
0
LINE
8
BLACK
6
CONTINUOUS
10
5.52244
20
-15.6765
11
5.52231
21
-15.6757
0
LINE
8
BLACK
6
CONTINUOUS
10
5.52231
20
-15.6757
11
5.52205
21
-15.675
0
LINE
8
BLACK
6
CONTINUOUS
10
5.52205
20
-15.675
11
5.52205
21
-13.05
0
LINE
8
BLACK
6
CONTINUOUS
10
5.52205
20
-13.05
11
5.52211
21
-13.0496
0
LINE
8
BLACK
6
CONTINUOUS
10
5.52211
20
-13.0496
11
5.52209
21
-13.0495
0
LINE
8
BLACK
6
CONTINUOUS
10
5.52209
20
-13.0495
11
5.52216
21
-13.0494
0
LINE
8
BLACK
6
CONTINUOUS
10
5.52216
20
-13.0494
11
5.52223
21
-13.049
0
LINE
8
BLACK
6
CONTINUOUS
10
5.52223
20
-13.049
11
5.52272
21
-13.0484
0
LINE
8
BLACK
6
CONTINUOUS
10
5.52272
20
-13.0484
11
5.5231
21
-13.0477
0
LINE
8
BLACK
6
CONTINUOUS
10
5.5231
20
-13.0477
11
5.52335
21
-13.0476
0
LINE
8
BLACK
6
CONTINUOUS
10
5.52335
20
-13.0476
11
5.52352
21
-13.0474
0
LINE
8
BLACK
6
CONTINUOUS
10
5.52352
20
-13.0474
11
5.52428
21
-13.0473
0
LINE
8
BLACK
6
CONTINUOUS
10
5.52428
20
-13.0473
11
5.525
21
-13.047
0
LINE
8
BLACK
6
CONTINUOUS
10
5.525
20
-13.047
11
23.275
21
-13.047
0
LINE
8
BLACK
6
CONTINUOUS
10
23.275
20
-13.047
11
23.2754
21
-13.0471
0
LINE
8
BLACK
6
CONTINUOUS
10
5.52795
20
-13.053
11
5.52795
21
-15.672
0
LINE
8
BLACK
6
CONTINUOUS
10
5.52795
20
-15.672
11
23.272
21
-15.672
0
LINE
8
BLACK
6
CONTINUOUS
10
23.272
20
-15.672
11
23.272
21
-13.053
0
LINE
8
BLACK
6
CONTINUOUS
10
23.272
20
-13.053
11
5.52795
21
-13.053
0
LINE
8
BLACK
6
CONTINUOUS
10
6.53064
20
-14.2022
11
6.51139
21
-14.2
0
LINE
8
BLACK
6
CONTINUOUS
10
6.51139
20
-14.2
11
6.49236
21
-14.1963
0
LINE
8
BLACK
6
CONTINUOUS
10
6.49236
20
-14.1963
11
6.47368
21
-14.1912
0
LINE
8
BLACK
6
CONTINUOUS
10
6.47368
20
-14.1912
11
6.45544
21
-14.1846
0
LINE
8
BLACK
6
CONTINUOUS
10
6.45544
20
-14.1846
11
6.43776
21
-14.1767
0
LINE
8
BLACK
6
CONTINUOUS
10
6.43776
20
-14.1767
11
6.42074
21
-14.1674
0
LINE
8
BLACK
6
CONTINUOUS
10
6.42074
20
-14.1674
11
6.40447
21
-14.1569
0
LINE
8
BLACK
6
CONTINUOUS
10
6.40447
20
-14.1569
11
6.38906
21
-14.1452
0
LINE
8
BLACK
6
CONTINUOUS
10
6.38906
20
-14.1452
11
6.37459
21
-14.1323
0
LINE
8
BLACK
6
CONTINUOUS
10
6.37459
20
-14.1323
11
6.36116
21
-14.1183
0
LINE
8
BLACK
6
CONTINUOUS
10
6.36116
20
-14.1183
11
6.34883
21
-14.1033
0
LINE
8
BLACK
6
CONTINUOUS
10
6.34883
20
-14.1033
11
6.33768
21
-14.0875
0
LINE
8
BLACK
6
CONTINUOUS
10
6.33768
20
-14.0875
11
6.32778
21
-14.0708
0
LINE
8
BLACK
6
CONTINUOUS
10
6.32778
20
-14.0708
11
6.31918
21
-14.0535
0
LINE
8
BLACK
6
CONTINUOUS
10
6.31918
20
-14.0535
11
6.31194
21
-14.0355
0
LINE
8
BLACK
6
CONTINUOUS
10
6.31194
20
-14.0355
11
6.30609
21
-14.017
0
LINE
8
BLACK
6
CONTINUOUS
10
6.30609
20
-14.017
11
6.30167
21
-13.9982
0
LINE
8
BLACK
6
CONTINUOUS
10
6.30167
20
-13.9982
11
6.29872
21
-13.979
0
LINE
8
BLACK
6
CONTINUOUS
10
6.29872
20
-13.979
11
6.29723
21
-13.9597
0
LINE
8
BLACK
6
CONTINUOUS
10
6.29723
20
-13.9597
11
6.29723
21
-13.9403
0
LINE
8
BLACK
6
CONTINUOUS
10
6.29723
20
-13.9403
11
6.29872
21
-13.921
0
LINE
8
BLACK
6
CONTINUOUS
10
6.29872
20
-13.921
11
6.30167
21
-13.9018
0
LINE
8
BLACK
6
CONTINUOUS
10
6.30167
20
-13.9018
11
6.30609
21
-13.883
0
LINE
8
BLACK
6
CONTINUOUS
10
6.30609
20
-13.883
11
6.31194
21
-13.8645
0
LINE
8
BLACK
6
CONTINUOUS
10
6.31194
20
-13.8645
11
6.31918
21
-13.8465
0
LINE
8
BLACK
6
CONTINUOUS
10
6.31918
20
-13.8465
11
6.32778
21
-13.8292
0
LINE
8
BLACK
6
CONTINUOUS
10
6.32778
20
-13.8292
11
6.33768
21
-13.8125
0
LINE
8
BLACK
6
CONTINUOUS
10
6.33768
20
-13.8125
11
6.34883
21
-13.7967
0
LINE
8
BLACK
6
CONTINUOUS
10
6.34883
20
-13.7967
11
6.36116
21
-13.7817
0
LINE
8
BLACK
6
CONTINUOUS
10
6.36116
20
-13.7817
11
6.37459
21
-13.7677
0
LINE
8
BLACK
6
CONTINUOUS
10
6.37459
20
-13.7677
11
6.38906
21
-13.7548
0
LINE
8
BLACK
6
CONTINUOUS
10
6.38906
20
-13.7548
11
6.40447
21
-13.7431
0
LINE
8
BLACK
6
CONTINUOUS
10
6.40447
20
-13.7431
11
6.42074
21
-13.7326
0
LINE
8
BLACK
6
CONTINUOUS
10
6.42074
20
-13.7326
11
6.43776
21
-13.7233
0
LINE
8
BLACK
6
CONTINUOUS
10
6.43776
20
-13.7233
11
6.45544
21
-13.7154
0
LINE
8
BLACK
6
CONTINUOUS
10
6.45544
20
-13.7154
11
6.47368
21
-13.7088
0
LINE
8
BLACK
6
CONTINUOUS
10
6.47368
20
-13.7088
11
6.49236
21
-13.7037
0
LINE
8
BLACK
6
CONTINUOUS
10
6.49236
20
-13.7037
11
6.51139
21
-13.7
0
LINE
8
BLACK
6
CONTINUOUS
10
6.51139
20
-13.7
11
6.53064
21
-13.6978
0
LINE
8
BLACK
6
CONTINUOUS
10
6.53064
20
-13.6978
11
6.55
21
-13.697
0
LINE
8
BLACK
6
CONTINUOUS
10
6.55
20
-13.697
11
22.25
21
-13.697
0
LINE
8
BLACK
6
CONTINUOUS
10
22.25
20
-13.697
11
22.2694
21
-13.6978
0
LINE
8
BLACK
6
CONTINUOUS
10
22.2694
20
-13.6978
11
22.2886
21
-13.7
0
LINE
8
BLACK
6
CONTINUOUS
10
22.2886
20
-13.7
11
22.3076
21
-13.7037
0
LINE
8
BLACK
6
CONTINUOUS
10
22.3076
20
-13.7037
11
22.3263
21
-13.7088
0
LINE
8
BLACK
6
CONTINUOUS
10
22.3263
20
-13.7088
11
22.3446
21
-13.7154
0
LINE
8
BLACK
6
CONTINUOUS
10
22.3446
20
-13.7154
11
22.3622
21
-13.7233
0
LINE
8
BLACK
6
CONTINUOUS
10
22.3622
20
-13.7233
11
22.3793
21
-13.7326
0
LINE
8
BLACK
6
CONTINUOUS
10
22.3793
20
-13.7326
11
22.3955
21
-13.7431
0
LINE
8
BLACK
6
CONTINUOUS
10
22.3955
20
-13.7431
11
22.4109
21
-13.7548
0
LINE
8
BLACK
6
CONTINUOUS
10
22.4109
20
-13.7548
11
22.4254
21
-13.7677
0
LINE
8
BLACK
6
CONTINUOUS
10
22.4254
20
-13.7677
11
22.4388
21
-13.7817
0
LINE
8
BLACK
6
CONTINUOUS
10
22.4388
20
-13.7817
11
22.4512
21
-13.7967
0
LINE
8
BLACK
6
CONTINUOUS
10
22.4512
20
-13.7967
11
22.4623
21
-13.8125
0
LINE
8
BLACK
6
CONTINUOUS
10
22.4623
20
-13.8125
11
22.4722
21
-13.8292
0
LINE
8
BLACK
6
CONTINUOUS
10
22.4722
20
-13.8292
11
22.4808
21
-13.8465
0
LINE
8
BLACK
6
CONTINUOUS
10
22.4808
20
-13.8465
11
22.4881
21
-13.8645
0
LINE
8
BLACK
6
CONTINUOUS
10
22.4881
20
-13.8645
11
22.4939
21
-13.883
0
LINE
8
BLACK
6
CONTINUOUS
10
22.4939
20
-13.883
11
22.4983
21
-13.9018
0
LINE
8
BLACK
6
CONTINUOUS
10
22.4983
20
-13.9018
11
22.5013
21
-13.921
0
LINE
8
BLACK
6
CONTINUOUS
10
22.5013
20
-13.921
11
22.5028
21
-13.9403
0
LINE
8
BLACK
6
CONTINUOUS
10
22.5028
20
-13.9403
11
22.5028
21
-13.9597
0
LINE
8
BLACK
6
CONTINUOUS
10
22.5028
20
-13.9597
11
22.5013
21
-13.979
0
LINE
8
BLACK
6
CONTINUOUS
10
22.5013
20
-13.979
11
22.4983
21
-13.9982
0
LINE
8
BLACK
6
CONTINUOUS
10
22.4983
20
-13.9982
11
22.4939
21
-14.017
0
LINE
8
BLACK
6
CONTINUOUS
10
22.4939
20
-14.017
11
22.4881
21
-14.0355
0
LINE
8
BLACK
6
CONTINUOUS
10
22.4881
20
-14.0355
11
22.4808
21
-14.0535
0
LINE
8
BLACK
6
CONTINUOUS
10
22.4808
20
-14.0535
11
22.4722
21
-14.0708
0
LINE
8
BLACK
6
CONTINUOUS
10
22.4722
20
-14.0708
11
22.4623
21
-14.0875
0
LINE
8
BLACK
6
CONTINUOUS
10
22.4623
20
-14.0875
11
22.4512
21
-14.1033
0
LINE
8
BLACK
6
CONTINUOUS
10
22.4512
20
-14.1033
11
22.4388
21
-14.1183
0
LINE
8
BLACK
6
CONTINUOUS
10
22.4388
20
-14.1183
11
22.4254
21
-14.1323
0
LINE
8
BLACK
6
CONTINUOUS
10
22.4254
20
-14.1323
11
22.4109
21
-14.1452
0
LINE
8
BLACK
6
CONTINUOUS
10
22.4109
20
-14.1452
11
22.3955
21
-14.1569
0
LINE
8
BLACK
6
CONTINUOUS
10
22.3955
20
-14.1569
11
22.3793
21
-14.1674
0
LINE
8
BLACK
6
CONTINUOUS
10
22.3793
20
-14.1674
11
22.3622
21
-14.1767
0
LINE
8
BLACK
6
CONTINUOUS
10
22.3622
20
-14.1767
11
22.3446
21
-14.1846
0
LINE
8
BLACK
6
CONTINUOUS
10
22.3446
20
-14.1846
11
22.3263
21
-14.1912
0
LINE
8
BLACK
6
CONTINUOUS
10
22.3263
20
-14.1912
11
22.3076
21
-14.1963
0
LINE
8
BLACK
6
CONTINUOUS
10
22.3076
20
-14.1963
11
22.2886
21
-14.2
0
LINE
8
BLACK
6
CONTINUOUS
10
22.2886
20
-14.2
11
22.2694
21
-14.2022
0
LINE
8
BLACK
6
CONTINUOUS
10
22.2694
20
-14.2022
11
22.25
21
-14.203
0
LINE
8
BLACK
6
CONTINUOUS
10
22.25
20
-14.203
11
6.55
21
-14.203
0
LINE
8
BLACK
6
CONTINUOUS
10
6.55
20
-14.203
11
6.53064
21
-14.2022
0
LINE
8
BLACK
6
CONTINUOUS
10
6.54912
20
-13.7028
11
6.5306
21
-13.7035
0
LINE
8
BLACK
6
CONTINUOUS
10
6.5306
20
-13.7035
11
6.51132
21
-13.7058
0
LINE
8
BLACK
6
CONTINUOUS
10
6.51132
20
-13.7058
11
6.49228
21
-13.7096
0
LINE
8
BLACK
6
CONTINUOUS
10
6.49228
20
-13.7096
11
6.4736
21
-13.7149
0
LINE
8
BLACK
6
CONTINUOUS
10
6.4736
20
-13.7149
11
6.45539
21
-13.7216
0
LINE
8
BLACK
6
CONTINUOUS
10
6.45539
20
-13.7216
11
6.43776
21
-13.7297
0
LINE
8
BLACK
6
CONTINUOUS
10
6.43776
20
-13.7297
11
6.42082
21
-13.7392
0
LINE
8
BLACK
6
CONTINUOUS
10
6.42082
20
-13.7392
11
6.40468
21
-13.75
0
LINE
8
BLACK
6
CONTINUOUS
10
6.40468
20
-13.75
11
6.38943
21
-13.762
0
LINE
8
BLACK
6
CONTINUOUS
10
6.38943
20
-13.762
11
6.37518
21
-13.7752
0
LINE
8
BLACK
6
CONTINUOUS
10
6.37518
20
-13.7752
11
6.362
21
-13.7894
0
LINE
8
BLACK
6
CONTINUOUS
10
6.362
20
-13.7894
11
6.34998
21
-13.8047
0
LINE
8
BLACK
6
CONTINUOUS
10
6.34998
20
-13.8047
11
6.3392
21
-13.8208
0
LINE
8
BLACK
6
CONTINUOUS
10
6.3392
20
-13.8208
11
6.32971
21
-13.8378
0
LINE
8
BLACK
6
CONTINUOUS
10
6.32971
20
-13.8378
11
6.32158
21
-13.8554
0
LINE
8
BLACK
6
CONTINUOUS
10
6.32158
20
-13.8554
11
6.31486
21
-13.8736
0
LINE
8
BLACK
6
CONTINUOUS
10
6.31486
20
-13.8736
11
6.30959
21
-13.8923
0
LINE
8
BLACK
6
CONTINUOUS
10
6.30959
20
-13.8923
11
6.30581
21
-13.9113
0
LINE
8
BLACK
6
CONTINUOUS
10
6.30581
20
-13.9113
11
6.30352
21
-13.9306
0
LINE
8
BLACK
6
CONTINUOUS
10
6.30352
20
-13.9306
11
6.30276
21
-13.95
0
LINE
8
BLACK
6
CONTINUOUS
10
6.30276
20
-13.95
11
6.30352
21
-13.9694
0
LINE
8
BLACK
6
CONTINUOUS
10
6.30352
20
-13.9694
11
6.30581
21
-13.9887
0
LINE
8
BLACK
6
CONTINUOUS
10
6.30581
20
-13.9887
11
6.30959
21
-14.0077
0
LINE
8
BLACK
6
CONTINUOUS
10
6.30959
20
-14.0077
11
6.31486
21
-14.0264
0
LINE
8
BLACK
6
CONTINUOUS
10
6.31486
20
-14.0264
11
6.32158
21
-14.0446
0
LINE
8
BLACK
6
CONTINUOUS
10
6.32158
20
-14.0446
11
6.32971
21
-14.0622
0
LINE
8
BLACK
6
CONTINUOUS
10
6.32971
20
-14.0622
11
6.3392
21
-14.0792
0
LINE
8
BLACK
6
CONTINUOUS
10
6.3392
20
-14.0792
11
6.34998
21
-14.0953
0
LINE
8
BLACK
6
CONTINUOUS
10
6.34998
20
-14.0953
11
6.362
21
-14.1106
0
LINE
8
BLACK
6
CONTINUOUS
10
6.362
20
-14.1106
11
6.37518
21
-14.1248
0
LINE
8
BLACK
6
CONTINUOUS
10
6.37518
20
-14.1248
11
6.38943
21
-14.138
0
LINE
8
BLACK
6
CONTINUOUS
10
6.38943
20
-14.138
11
6.40468
21
-14.15
0
LINE
8
BLACK
6
CONTINUOUS
10
6.40468
20
-14.15
11
6.42082
21
-14.1608
0
LINE
8
BLACK
6
CONTINUOUS
10
6.42082
20
-14.1608
11
6.43776
21
-14.1703
0
LINE
8
BLACK
6
CONTINUOUS
10
6.43776
20
-14.1703
11
6.45539
21
-14.1784
0
LINE
8
BLACK
6
CONTINUOUS
10
6.45539
20
-14.1784
11
6.4736
21
-14.1851
0
LINE
8
BLACK
6
CONTINUOUS
10
6.4736
20
-14.1851
11
6.49228
21
-14.1904
0
LINE
8
BLACK
6
CONTINUOUS
10
6.49228
20
-14.1904
11
6.51132
21
-14.1942
0
LINE
8
BLACK
6
CONTINUOUS
10
6.51132
20
-14.1942
11
6.5306
21
-14.1965
0
LINE
8
BLACK
6
CONTINUOUS
10
6.5306
20
-14.1965
11
6.54948
21
-14.1972
0
LINE
8
BLACK
6
CONTINUOUS
10
6.54948
20
-14.1972
11
6.55
21
-14.197
0
LINE
8
BLACK
6
CONTINUOUS
10
6.55
20
-14.197
11
22.25
21
-14.197
0
LINE
8
BLACK
6
CONTINUOUS
10
22.25
20
-14.197
11
22.2509
21
-14.1972
0
LINE
8
BLACK
6
CONTINUOUS
10
22.2509
20
-14.1972
11
22.2694
21
-14.1965
0
LINE
8
BLACK
6
CONTINUOUS
10
22.2694
20
-14.1965
11
22.2887
21
-14.1942
0
LINE
8
BLACK
6
CONTINUOUS
10
22.2887
20
-14.1942
11
22.3077
21
-14.1904
0
LINE
8
BLACK
6
CONTINUOUS
10
22.3077
20
-14.1904
11
22.3264
21
-14.1851
0
LINE
8
BLACK
6
CONTINUOUS
10
22.3264
20
-14.1851
11
22.3446
21
-14.1784
0
LINE
8
BLACK
6
CONTINUOUS
10
22.3446
20
-14.1784
11
22.3622
21
-14.1703
0
LINE
8
BLACK
6
CONTINUOUS
10
22.3622
20
-14.1703
11
22.3792
21
-14.1608
0
LINE
8
BLACK
6
CONTINUOUS
10
22.3792
20
-14.1608
11
22.3953
21
-14.15
0
LINE
8
BLACK
6
CONTINUOUS
10
22.3953
20
-14.15
11
22.4106
21
-14.138
0
LINE
8
BLACK
6
CONTINUOUS
10
22.4106
20
-14.138
11
22.4248
21
-14.1248
0
LINE
8
BLACK
6
CONTINUOUS
10
22.4248
20
-14.1248
11
22.438
21
-14.1106
0
LINE
8
BLACK
6
CONTINUOUS
10
22.438
20
-14.1106
11
22.45
21
-14.0953
0
LINE
8
BLACK
6
CONTINUOUS
10
22.45
20
-14.0953
11
22.4608
21
-14.0792
0
LINE
8
BLACK
6
CONTINUOUS
10
22.4608
20
-14.0792
11
22.4703
21
-14.0622
0
LINE
8
BLACK
6
CONTINUOUS
10
22.4703
20
-14.0622
11
22.4784
21
-14.0446
0
LINE
8
BLACK
6
CONTINUOUS
10
22.4784
20
-14.0446
11
22.4851
21
-14.0264
0
LINE
8
BLACK
6
CONTINUOUS
10
22.4851
20
-14.0264
11
22.4904
21
-14.0077
0
LINE
8
BLACK
6
CONTINUOUS
10
22.4904
20
-14.0077
11
22.4942
21
-13.9887
0
LINE
8
BLACK
6
CONTINUOUS
10
22.4942
20
-13.9887
11
22.4965
21
-13.9694
0
LINE
8
BLACK
6
CONTINUOUS
10
22.4965
20
-13.9694
11
22.4972
21
-13.95
0
LINE
8
BLACK
6
CONTINUOUS
10
22.4972
20
-13.95
11
22.4965
21
-13.9306
0
LINE
8
BLACK
6
CONTINUOUS
10
22.4965
20
-13.9306
11
22.4942
21
-13.9113
0
LINE
8
BLACK
6
CONTINUOUS
10
22.4942
20
-13.9113
11
22.4904
21
-13.8923
0
LINE
8
BLACK
6
CONTINUOUS
10
22.4904
20
-13.8923
11
22.4851
21
-13.8736
0
LINE
8
BLACK
6
CONTINUOUS
10
22.4851
20
-13.8736
11
22.4784
21
-13.8554
0
LINE
8
BLACK
6
CONTINUOUS
10
22.4784
20
-13.8554
11
22.4703
21
-13.8378
0
LINE
8
BLACK
6
CONTINUOUS
10
22.4703
20
-13.8378
11
22.4608
21
-13.8208
0
LINE
8
BLACK
6
CONTINUOUS
10
22.4608
20
-13.8208
11
22.45
21
-13.8047
0
LINE
8
BLACK
6
CONTINUOUS
10
22.45
20
-13.8047
11
22.438
21
-13.7894
0
LINE
8
BLACK
6
CONTINUOUS
10
22.438
20
-13.7894
11
22.4248
21
-13.7752
0
LINE
8
BLACK
6
CONTINUOUS
10
22.4248
20
-13.7752
11
22.4106
21
-13.762
0
LINE
8
BLACK
6
CONTINUOUS
10
22.4106
20
-13.762
11
22.3953
21
-13.75
0
LINE
8
BLACK
6
CONTINUOUS
10
22.3953
20
-13.75
11
22.3792
21
-13.7392
0
LINE
8
BLACK
6
CONTINUOUS
10
22.3792
20
-13.7392
11
22.3622
21
-13.7297
0
LINE
8
BLACK
6
CONTINUOUS
10
22.3622
20
-13.7297
11
22.3446
21
-13.7216
0
LINE
8
BLACK
6
CONTINUOUS
10
22.3446
20
-13.7216
11
22.3264
21
-13.7149
0
LINE
8
BLACK
6
CONTINUOUS
10
22.3264
20
-13.7149
11
22.3077
21
-13.7096
0
LINE
8
BLACK
6
CONTINUOUS
10
22.3077
20
-13.7096
11
22.2887
21
-13.7058
0
LINE
8
BLACK
6
CONTINUOUS
10
22.2887
20
-13.7058
11
22.2694
21
-13.7035
0
LINE
8
BLACK
6
CONTINUOUS
10
22.2694
20
-13.7035
11
22.2505
21
-13.7028
0
LINE
8
BLACK
6
CONTINUOUS
10
22.2505
20
-13.7028
11
22.25
21
-13.703
0
LINE
8
BLACK
6
CONTINUOUS
10
22.25
20
-13.703
11
6.55
21
-13.703
0
LINE
8
BLACK
6
CONTINUOUS
10
6.55
20
-13.703
11
6.54912
21
-13.7028
0
LINE
8
BLACK
6
CONTINUOUS
10
12.6504
20
-2.59711
11
12.6505
21
-2.59709
0
LINE
8
BLACK
6
CONTINUOUS
10
12.6505
20
-2.59709
11
12.6506
21
-2.59716
0
LINE
8
BLACK
6
CONTINUOUS
10
12.6506
20
-2.59716
11
12.651
21
-2.59723
0
LINE
8
BLACK
6
CONTINUOUS
10
12.651
20
-2.59723
11
12.6516
21
-2.59772
0
LINE
8
BLACK
6
CONTINUOUS
10
12.6516
20
-2.59772
11
12.6523
21
-2.5981
0
LINE
8
BLACK
6
CONTINUOUS
10
12.6523
20
-2.5981
11
12.6524
21
-2.59835
0
LINE
8
BLACK
6
CONTINUOUS
10
12.6524
20
-2.59835
11
12.6526
21
-2.59852
0
LINE
8
BLACK
6
CONTINUOUS
10
12.6526
20
-2.59852
11
12.6527
21
-2.59928
0
LINE
8
BLACK
6
CONTINUOUS
10
12.6527
20
-2.59928
11
12.653
21
-2.6
0
LINE
8
BLACK
6
CONTINUOUS
10
12.653
20
-2.6
11
12.653
21
-12.3
0
LINE
8
BLACK
6
CONTINUOUS
10
12.653
20
-12.3
11
12.6529
21
-12.3004
0
LINE
8
BLACK
6
CONTINUOUS
10
12.6529
20
-12.3004
11
12.6529
21
-12.3005
0
LINE
8
BLACK
6
CONTINUOUS
10
12.6529
20
-12.3005
11
12.6528
21
-12.3006
0
LINE
8
BLACK
6
CONTINUOUS
10
12.6528
20
-12.3006
11
12.6528
21
-12.301
0
LINE
8
BLACK
6
CONTINUOUS
10
12.6528
20
-12.301
11
12.6523
21
-12.3016
0
LINE
8
BLACK
6
CONTINUOUS
10
12.6523
20
-12.3016
11
12.6519
21
-12.3023
0
LINE
8
BLACK
6
CONTINUOUS
10
12.6519
20
-12.3023
11
12.6516
21
-12.3024
0
LINE
8
BLACK
6
CONTINUOUS
10
12.6516
20
-12.3024
11
12.6515
21
-12.3026
0
LINE
8
BLACK
6
CONTINUOUS
10
12.6515
20
-12.3026
11
12.6507
21
-12.3027
0
LINE
8
BLACK
6
CONTINUOUS
10
12.6507
20
-12.3027
11
12.65
21
-12.303
0
LINE
8
BLACK
6
CONTINUOUS
10
12.65
20
-12.303
11
5.15
21
-12.303
0
LINE
8
BLACK
6
CONTINUOUS
10
5.15
20
-12.303
11
5.14962
21
-12.3029
0
LINE
8
BLACK
6
CONTINUOUS
10
5.14962
20
-12.3029
11
5.14949
21
-12.3029
0
LINE
8
BLACK
6
CONTINUOUS
10
5.14949
20
-12.3029
11
5.14937
21
-12.3028
0
LINE
8
BLACK
6
CONTINUOUS
10
5.14937
20
-12.3028
11
5.14899
21
-12.3028
0
LINE
8
BLACK
6
CONTINUOUS
10
5.14899
20
-12.3028
11
5.1484
21
-12.3023
0
LINE
8
BLACK
6
CONTINUOUS
10
5.1484
20
-12.3023
11
5.14774
21
-12.3019
0
LINE
8
BLACK
6
CONTINUOUS
10
5.14774
20
-12.3019
11
5.14765
21
-12.3016
0
LINE
8
BLACK
6
CONTINUOUS
10
5.14765
20
-12.3016
11
5.14744
21
-12.3015
0
LINE
8
BLACK
6
CONTINUOUS
10
5.14744
20
-12.3015
11
5.14731
21
-12.3007
0
LINE
8
BLACK
6
CONTINUOUS
10
5.14731
20
-12.3007
11
5.14705
21
-12.3
0
LINE
8
BLACK
6
CONTINUOUS
10
5.14705
20
-12.3
11
5.14705
21
-2.6
0
LINE
8
BLACK
6
CONTINUOUS
10
5.14705
20
-2.6
11
5.14711
21
-2.59962
0
LINE
8
BLACK
6
CONTINUOUS
10
5.14711
20
-2.59962
11
5.14709
21
-2.59949
0
LINE
8
BLACK
6
CONTINUOUS
10
5.14709
20
-2.59949
11
5.14716
21
-2.59937
0
LINE
8
BLACK
6
CONTINUOUS
10
5.14716
20
-2.59937
11
5.14723
21
-2.59899
0
LINE
8
BLACK
6
CONTINUOUS
10
5.14723
20
-2.59899
11
5.14772
21
-2.5984
0
LINE
8
BLACK
6
CONTINUOUS
10
5.14772
20
-2.5984
11
5.1481
21
-2.59774
0
LINE
8
BLACK
6
CONTINUOUS
10
5.1481
20
-2.59774
11
5.14835
21
-2.59765
0
LINE
8
BLACK
6
CONTINUOUS
10
5.14835
20
-2.59765
11
5.14852
21
-2.59744
0
LINE
8
BLACK
6
CONTINUOUS
10
5.14852
20
-2.59744
11
5.14928
21
-2.59731
0
LINE
8
BLACK
6
CONTINUOUS
10
5.14928
20
-2.59731
11
5.15
21
-2.59705
0
LINE
8
BLACK
6
CONTINUOUS
10
5.15
20
-2.59705
11
12.65
21
-2.59705
0
LINE
8
BLACK
6
CONTINUOUS
10
12.65
20
-2.59705
11
12.6504
21
-2.59711
0
LINE
8
BLACK
6
CONTINUOUS
10
5.15295
20
-2.60295
11
5.15295
21
-12.297
0
LINE
8
BLACK
6
CONTINUOUS
10
5.15295
20
-12.297
11
12.647
21
-12.297
0
LINE
8
BLACK
6
CONTINUOUS
10
12.647
20
-12.297
11
12.647
21
-2.60295
0
LINE
8
BLACK
6
CONTINUOUS
10
12.647
20
-2.60295
11
5.15295
21
-2.60295
0
LINE
8
BLACK
6
CONTINUOUS
10
12.5004
20
-8.79711
11
12.5005
21
-8.79709
0
LINE
8
BLACK
6
CONTINUOUS
10
12.5005
20
-8.79709
11
12.5006
21
-8.79716
0
LINE
8
BLACK
6
CONTINUOUS
10
12.5006
20
-8.79716
11
12.501
21
-8.79723
0
LINE
8
BLACK
6
CONTINUOUS
10
12.501
20
-8.79723
11
12.5016
21
-8.79772
0
LINE
8
BLACK
6
CONTINUOUS
10
12.5016
20
-8.79772
11
12.5023
21
-8.7981
0
LINE
8
BLACK
6
CONTINUOUS
10
12.5023
20
-8.7981
11
12.5024
21
-8.79835
0
LINE
8
BLACK
6
CONTINUOUS
10
12.5024
20
-8.79835
11
12.5026
21
-8.79852
0
LINE
8
BLACK
6
CONTINUOUS
10
12.5026
20
-8.79852
11
12.5027
21
-8.79928
0
LINE
8
BLACK
6
CONTINUOUS
10
12.5027
20
-8.79928
11
12.503
21
-8.8
0
LINE
8
BLACK
6
CONTINUOUS
10
12.503
20
-8.8
11
12.503
21
-11.7
0
LINE
8
BLACK
6
CONTINUOUS
10
12.503
20
-11.7
11
12.5029
21
-11.7004
0
LINE
8
BLACK
6
CONTINUOUS
10
12.5029
20
-11.7004
11
12.5029
21
-11.7005
0
LINE
8
BLACK
6
CONTINUOUS
10
12.5029
20
-11.7005
11
12.5028
21
-11.7006
0
LINE
8
BLACK
6
CONTINUOUS
10
12.5028
20
-11.7006
11
12.5028
21
-11.701
0
LINE
8
BLACK
6
CONTINUOUS
10
12.5028
20
-11.701
11
12.5023
21
-11.7016
0
LINE
8
BLACK
6
CONTINUOUS
10
12.5023
20
-11.7016
11
12.5019
21
-11.7023
0
LINE
8
BLACK
6
CONTINUOUS
10
12.5019
20
-11.7023
11
12.5016
21
-11.7024
0
LINE
8
BLACK
6
CONTINUOUS
10
12.5016
20
-11.7024
11
12.5015
21
-11.7026
0
LINE
8
BLACK
6
CONTINUOUS
10
12.5015
20
-11.7026
11
12.5007
21
-11.7027
0
LINE
8
BLACK
6
CONTINUOUS
10
12.5007
20
-11.7027
11
12.5
21
-11.703
0
LINE
8
BLACK
6
CONTINUOUS
10
12.5
20
-11.703
11
9.3
21
-11.703
0
LINE
8
BLACK
6
CONTINUOUS
10
9.3
20
-11.703
11
9.29962
21
-11.7029
0
LINE
8
BLACK
6
CONTINUOUS
10
9.29962
20
-11.7029
11
9.29949
21
-11.7029
0
LINE
8
BLACK
6
CONTINUOUS
10
9.29949
20
-11.7029
11
9.29937
21
-11.7028
0
LINE
8
BLACK
6
CONTINUOUS
10
9.29937
20
-11.7028
11
9.29899
21
-11.7028
0
LINE
8
BLACK
6
CONTINUOUS
10
9.29899
20
-11.7028
11
9.2984
21
-11.7023
0
LINE
8
BLACK
6
CONTINUOUS
10
9.2984
20
-11.7023
11
9.29774
21
-11.7019
0
LINE
8
BLACK
6
CONTINUOUS
10
9.29774
20
-11.7019
11
9.29765
21
-11.7016
0
LINE
8
BLACK
6
CONTINUOUS
10
9.29765
20
-11.7016
11
9.29744
21
-11.7015
0
LINE
8
BLACK
6
CONTINUOUS
10
9.29744
20
-11.7015
11
9.29731
21
-11.7007
0
LINE
8
BLACK
6
CONTINUOUS
10
9.29731
20
-11.7007
11
9.29705
21
-11.7
0
LINE
8
BLACK
6
CONTINUOUS
10
9.29705
20
-11.7
11
9.29705
21
-8.8
0
LINE
8
BLACK
6
CONTINUOUS
10
9.29705
20
-8.8
11
9.29711
21
-8.79962
0
LINE
8
BLACK
6
CONTINUOUS
10
9.29711
20
-8.79962
11
9.29709
21
-8.79949
0
LINE
8
BLACK
6
CONTINUOUS
10
9.29709
20
-8.79949
11
9.29716
21
-8.79937
0
LINE
8
BLACK
6
CONTINUOUS
10
9.29716
20
-8.79937
11
9.29723
21
-8.79899
0
LINE
8
BLACK
6
CONTINUOUS
10
9.29723
20
-8.79899
11
9.29772
21
-8.7984
0
LINE
8
BLACK
6
CONTINUOUS
10
9.29772
20
-8.7984
11
9.2981
21
-8.79774
0
LINE
8
BLACK
6
CONTINUOUS
10
9.2981
20
-8.79774
11
9.29835
21
-8.79765
0
LINE
8
BLACK
6
CONTINUOUS
10
9.29835
20
-8.79765
11
9.29852
21
-8.79744
0
LINE
8
BLACK
6
CONTINUOUS
10
9.29852
20
-8.79744
11
9.29928
21
-8.79731
0
LINE
8
BLACK
6
CONTINUOUS
10
9.29928
20
-8.79731
11
9.3
21
-8.79705
0
LINE
8
BLACK
6
CONTINUOUS
10
9.3
20
-8.79705
11
12.5
21
-8.79705
0
LINE
8
BLACK
6
CONTINUOUS
10
12.5
20
-8.79705
11
12.5004
21
-8.79711
0
LINE
8
BLACK
6
CONTINUOUS
10
9.30295
20
-11.697
11
12.497
21
-11.697
0
LINE
8
BLACK
6
CONTINUOUS
10
12.497
20
-11.697
11
12.497
21
-8.80295
0
LINE
8
BLACK
6
CONTINUOUS
10
12.497
20
-8.80295
11
9.30295
21
-8.80295
0
LINE
8
BLACK
6
CONTINUOUS
10
9.30295
20
-8.80295
11
9.30295
21
-11.697
0
LINE
8
BLACK
6
CONTINUOUS
10
8.50038
20
-8.79711
11
8.50051
21
-8.79709
0
LINE
8
BLACK
6
CONTINUOUS
10
8.50051
20
-8.79709
11
8.50063
21
-8.79716
0
LINE
8
BLACK
6
CONTINUOUS
10
8.50063
20
-8.79716
11
8.50101
21
-8.79723
0
LINE
8
BLACK
6
CONTINUOUS
10
8.50101
20
-8.79723
11
8.5016
21
-8.79772
0
LINE
8
BLACK
6
CONTINUOUS
10
8.5016
20
-8.79772
11
8.50226
21
-8.7981
0
LINE
8
BLACK
6
CONTINUOUS
10
8.50226
20
-8.7981
11
8.50235
21
-8.79835
0
LINE
8
BLACK
6
CONTINUOUS
10
8.50235
20
-8.79835
11
8.50256
21
-8.79852
0
LINE
8
BLACK
6
CONTINUOUS
10
8.50256
20
-8.79852
11
8.50269
21
-8.79928
0
LINE
8
BLACK
6
CONTINUOUS
10
8.50269
20
-8.79928
11
8.50295
21
-8.8
0
LINE
8
BLACK
6
CONTINUOUS
10
8.50295
20
-8.8
11
8.50295
21
-11.7
0
LINE
8
BLACK
6
CONTINUOUS
10
8.50295
20
-11.7
11
8.50289
21
-11.7004
0
LINE
8
BLACK
6
CONTINUOUS
10
8.50289
20
-11.7004
11
8.50291
21
-11.7005
0
LINE
8
BLACK
6
CONTINUOUS
10
8.50291
20
-11.7005
11
8.50284
21
-11.7006
0
LINE
8
BLACK
6
CONTINUOUS
10
8.50284
20
-11.7006
11
8.50277
21
-11.701
0
LINE
8
BLACK
6
CONTINUOUS
10
8.50277
20
-11.701
11
8.50228
21
-11.7016
0
LINE
8
BLACK
6
CONTINUOUS
10
8.50228
20
-11.7016
11
8.5019
21
-11.7023
0
LINE
8
BLACK
6
CONTINUOUS
10
8.5019
20
-11.7023
11
8.50165
21
-11.7024
0
LINE
8
BLACK
6
CONTINUOUS
10
8.50165
20
-11.7024
11
8.50148
21
-11.7026
0
LINE
8
BLACK
6
CONTINUOUS
10
8.50148
20
-11.7026
11
8.50072
21
-11.7027
0
LINE
8
BLACK
6
CONTINUOUS
10
8.50072
20
-11.7027
11
8.5
21
-11.703
0
LINE
8
BLACK
6
CONTINUOUS
10
8.5
20
-11.703
11
5.3
21
-11.703
0
LINE
8
BLACK
6
CONTINUOUS
10
5.3
20
-11.703
11
5.29962
21
-11.7029
0
LINE
8
BLACK
6
CONTINUOUS
10
5.29962
20
-11.7029
11
5.29949
21
-11.7029
0
LINE
8
BLACK
6
CONTINUOUS
10
5.29949
20
-11.7029
11
5.29937
21
-11.7028
0
LINE
8
BLACK
6
CONTINUOUS
10
5.29937
20
-11.7028
11
5.29899
21
-11.7028
0
LINE
8
BLACK
6
CONTINUOUS
10
5.29899
20
-11.7028
11
5.2984
21
-11.7023
0
LINE
8
BLACK
6
CONTINUOUS
10
5.2984
20
-11.7023
11
5.29774
21
-11.7019
0
LINE
8
BLACK
6
CONTINUOUS
10
5.29774
20
-11.7019
11
5.29765
21
-11.7016
0
LINE
8
BLACK
6
CONTINUOUS
10
5.29765
20
-11.7016
11
5.29744
21
-11.7015
0
LINE
8
BLACK
6
CONTINUOUS
10
5.29744
20
-11.7015
11
5.29731
21
-11.7007
0
LINE
8
BLACK
6
CONTINUOUS
10
5.29731
20
-11.7007
11
5.29705
21
-11.7
0
LINE
8
BLACK
6
CONTINUOUS
10
5.29705
20
-11.7
11
5.29705
21
-8.8
0
LINE
8
BLACK
6
CONTINUOUS
10
5.29705
20
-8.8
11
5.29711
21
-8.79962
0
LINE
8
BLACK
6
CONTINUOUS
10
5.29711
20
-8.79962
11
5.29709
21
-8.79949
0
LINE
8
BLACK
6
CONTINUOUS
10
5.29709
20
-8.79949
11
5.29716
21
-8.79937
0
LINE
8
BLACK
6
CONTINUOUS
10
5.29716
20
-8.79937
11
5.29723
21
-8.79899
0
LINE
8
BLACK
6
CONTINUOUS
10
5.29723
20
-8.79899
11
5.29772
21
-8.7984
0
LINE
8
BLACK
6
CONTINUOUS
10
5.29772
20
-8.7984
11
5.2981
21
-8.79774
0
LINE
8
BLACK
6
CONTINUOUS
10
5.2981
20
-8.79774
11
5.29835
21
-8.79765
0
LINE
8
BLACK
6
CONTINUOUS
10
5.29835
20
-8.79765
11
5.29852
21
-8.79744
0
LINE
8
BLACK
6
CONTINUOUS
10
5.29852
20
-8.79744
11
5.29928
21
-8.79731
0
LINE
8
BLACK
6
CONTINUOUS
10
5.29928
20
-8.79731
11
5.3
21
-8.79705
0
LINE
8
BLACK
6
CONTINUOUS
10
5.3
20
-8.79705
11
8.5
21
-8.79705
0
LINE
8
BLACK
6
CONTINUOUS
10
8.5
20
-8.79705
11
8.50038
21
-8.79711
0
LINE
8
BLACK
6
CONTINUOUS
10
5.30295
20
-11.697
11
8.49705
21
-11.697
0
LINE
8
BLACK
6
CONTINUOUS
10
8.49705
20
-11.697
11
8.49705
21
-8.80295
0
LINE
8
BLACK
6
CONTINUOUS
10
8.49705
20
-8.80295
11
5.30295
21
-8.80295
0
LINE
8
BLACK
6
CONTINUOUS
10
5.30295
20
-8.80295
11
5.30295
21
-11.697
0
LINE
8
BLACK
6
CONTINUOUS
10
18.9004
20
-2.59711
11
18.9005
21
-2.59709
0
LINE
8
BLACK
6
CONTINUOUS
10
18.9005
20
-2.59709
11
18.9006
21
-2.59716
0
LINE
8
BLACK
6
CONTINUOUS
10
18.9006
20
-2.59716
11
18.901
21
-2.59723
0
LINE
8
BLACK
6
CONTINUOUS
10
18.901
20
-2.59723
11
18.9016
21
-2.59772
0
LINE
8
BLACK
6
CONTINUOUS
10
18.9016
20
-2.59772
11
18.9023
21
-2.5981
0
LINE
8
BLACK
6
CONTINUOUS
10
18.9023
20
-2.5981
11
18.9024
21
-2.59835
0
LINE
8
BLACK
6
CONTINUOUS
10
18.9024
20
-2.59835
11
18.9026
21
-2.59852
0
LINE
8
BLACK
6
CONTINUOUS
10
18.9026
20
-2.59852
11
18.9027
21
-2.59928
0
LINE
8
BLACK
6
CONTINUOUS
10
18.9027
20
-2.59928
11
18.903
21
-2.6
0
LINE
8
BLACK
6
CONTINUOUS
10
18.903
20
-2.6
11
18.903
21
-12.3
0
LINE
8
BLACK
6
CONTINUOUS
10
18.903
20
-12.3
11
18.9029
21
-12.3004
0
LINE
8
BLACK
6
CONTINUOUS
10
18.9029
20
-12.3004
11
18.9029
21
-12.3005
0
LINE
8
BLACK
6
CONTINUOUS
10
18.9029
20
-12.3005
11
18.9028
21
-12.3006
0
LINE
8
BLACK
6
CONTINUOUS
10
18.9028
20
-12.3006
11
18.9028
21
-12.301
0
LINE
8
BLACK
6
CONTINUOUS
10
18.9028
20
-12.301
11
18.9023
21
-12.3016
0
LINE
8
BLACK
6
CONTINUOUS
10
18.9023
20
-12.3016
11
18.9019
21
-12.3023
0
LINE
8
BLACK
6
CONTINUOUS
10
18.9019
20
-12.3023
11
18.9016
21
-12.3024
0
LINE
8
BLACK
6
CONTINUOUS
10
18.9016
20
-12.3024
11
18.9015
21
-12.3026
0
LINE
8
BLACK
6
CONTINUOUS
10
18.9015
20
-12.3026
11
18.9007
21
-12.3027
0
LINE
8
BLACK
6
CONTINUOUS
10
18.9007
20
-12.3027
11
18.9
21
-12.303
0
LINE
8
BLACK
6
CONTINUOUS
10
18.9
20
-12.303
11
12.9
21
-12.303
0
LINE
8
BLACK
6
CONTINUOUS
10
12.9
20
-12.303
11
12.8996
21
-12.3029
0
LINE
8
BLACK
6
CONTINUOUS
10
12.8996
20
-12.3029
11
12.8995
21
-12.3029
0
LINE
8
BLACK
6
CONTINUOUS
10
12.8995
20
-12.3029
11
12.8994
21
-12.3028
0
LINE
8
BLACK
6
CONTINUOUS
10
12.8994
20
-12.3028
11
12.899
21
-12.3028
0
LINE
8
BLACK
6
CONTINUOUS
10
12.899
20
-12.3028
11
12.8984
21
-12.3023
0
LINE
8
BLACK
6
CONTINUOUS
10
12.8984
20
-12.3023
11
12.8977
21
-12.3019
0
LINE
8
BLACK
6
CONTINUOUS
10
12.8977
20
-12.3019
11
12.8976
21
-12.3016
0
LINE
8
BLACK
6
CONTINUOUS
10
12.8976
20
-12.3016
11
12.8974
21
-12.3015
0
LINE
8
BLACK
6
CONTINUOUS
10
12.8974
20
-12.3015
11
12.8973
21
-12.3007
0
LINE
8
BLACK
6
CONTINUOUS
10
12.8973
20
-12.3007
11
12.897
21
-12.3
0
LINE
8
BLACK
6
CONTINUOUS
10
12.897
20
-12.3
11
12.897
21
-2.6
0
LINE
8
BLACK
6
CONTINUOUS
10
12.897
20
-2.6
11
12.8971
21
-2.59962
0
LINE
8
BLACK
6
CONTINUOUS
10
12.8971
20
-2.59962
11
12.8971
21
-2.59949
0
LINE
8
BLACK
6
CONTINUOUS
10
12.8971
20
-2.59949
11
12.8972
21
-2.59937
0
LINE
8
BLACK
6
CONTINUOUS
10
12.8972
20
-2.59937
11
12.8972
21
-2.59899
0
LINE
8
BLACK
6
CONTINUOUS
10
12.8972
20
-2.59899
11
12.8977
21
-2.5984
0
LINE
8
BLACK
6
CONTINUOUS
10
12.8977
20
-2.5984
11
12.8981
21
-2.59774
0
LINE
8
BLACK
6
CONTINUOUS
10
12.8981
20
-2.59774
11
12.8984
21
-2.59765
0
LINE
8
BLACK
6
CONTINUOUS
10
12.8984
20
-2.59765
11
12.8985
21
-2.59744
0
LINE
8
BLACK
6
CONTINUOUS
10
12.8985
20
-2.59744
11
12.8993
21
-2.59731
0
LINE
8
BLACK
6
CONTINUOUS
10
12.8993
20
-2.59731
11
12.9
21
-2.59705
0
LINE
8
BLACK
6
CONTINUOUS
10
12.9
20
-2.59705
11
18.9
21
-2.59705
0
LINE
8
BLACK
6
CONTINUOUS
10
18.9
20
-2.59705
11
18.9004
21
-2.59711
0
LINE
8
BLACK
6
CONTINUOUS
10
12.903
20
-2.60295
11
12.903
21
-12.297
0
LINE
8
BLACK
6
CONTINUOUS
10
12.903
20
-12.297
11
18.897
21
-12.297
0
LINE
8
BLACK
6
CONTINUOUS
10
18.897
20
-12.297
11
18.897
21
-2.60295
0
LINE
8
BLACK
6
CONTINUOUS
10
18.897
20
-2.60295
11
12.903
21
-2.60295
0
LINE
8
BLACK
6
CONTINUOUS
10
18.7504
20
-8.74711
11
18.7505
21
-8.74709
0
LINE
8
BLACK
6
CONTINUOUS
10
18.7505
20
-8.74709
11
18.7506
21
-8.74716
0
LINE
8
BLACK
6
CONTINUOUS
10
18.7506
20
-8.74716
11
18.751
21
-8.74723
0
LINE
8
BLACK
6
CONTINUOUS
10
18.751
20
-8.74723
11
18.7516
21
-8.74772
0
LINE
8
BLACK
6
CONTINUOUS
10
18.7516
20
-8.74772
11
18.7523
21
-8.7481
0
LINE
8
BLACK
6
CONTINUOUS
10
18.7523
20
-8.7481
11
18.7524
21
-8.74835
0
LINE
8
BLACK
6
CONTINUOUS
10
18.7524
20
-8.74835
11
18.7526
21
-8.74852
0
LINE
8
BLACK
6
CONTINUOUS
10
18.7526
20
-8.74852
11
18.7527
21
-8.74928
0
LINE
8
BLACK
6
CONTINUOUS
10
18.7527
20
-8.74928
11
18.753
21
-8.75
0
LINE
8
BLACK
6
CONTINUOUS
10
18.753
20
-8.75
11
18.753
21
-11.7
0
LINE
8
BLACK
6
CONTINUOUS
10
18.753
20
-11.7
11
18.7529
21
-11.7004
0
LINE
8
BLACK
6
CONTINUOUS
10
18.7529
20
-11.7004
11
18.7529
21
-11.7005
0
LINE
8
BLACK
6
CONTINUOUS
10
18.7529
20
-11.7005
11
18.7528
21
-11.7006
0
LINE
8
BLACK
6
CONTINUOUS
10
18.7528
20
-11.7006
11
18.7528
21
-11.701
0
LINE
8
BLACK
6
CONTINUOUS
10
18.7528
20
-11.701
11
18.7523
21
-11.7016
0
LINE
8
BLACK
6
CONTINUOUS
10
18.7523
20
-11.7016
11
18.7519
21
-11.7023
0
LINE
8
BLACK
6
CONTINUOUS
10
18.7519
20
-11.7023
11
18.7516
21
-11.7024
0
LINE
8
BLACK
6
CONTINUOUS
10
18.7516
20
-11.7024
11
18.7515
21
-11.7026
0
LINE
8
BLACK
6
CONTINUOUS
10
18.7515
20
-11.7026
11
18.7507
21
-11.7027
0
LINE
8
BLACK
6
CONTINUOUS
10
18.7507
20
-11.7027
11
18.75
21
-11.703
0
LINE
8
BLACK
6
CONTINUOUS
10
18.75
20
-11.703
11
13.05
21
-11.703
0
LINE
8
BLACK
6
CONTINUOUS
10
13.05
20
-11.703
11
13.0496
21
-11.7029
0
LINE
8
BLACK
6
CONTINUOUS
10
13.0496
20
-11.7029
11
13.0495
21
-11.7029
0
LINE
8
BLACK
6
CONTINUOUS
10
13.0495
20
-11.7029
11
13.0494
21
-11.7028
0
LINE
8
BLACK
6
CONTINUOUS
10
13.0494
20
-11.7028
11
13.049
21
-11.7028
0
LINE
8
BLACK
6
CONTINUOUS
10
13.049
20
-11.7028
11
13.0484
21
-11.7023
0
LINE
8
BLACK
6
CONTINUOUS
10
13.0484
20
-11.7023
11
13.0477
21
-11.7019
0
LINE
8
BLACK
6
CONTINUOUS
10
13.0477
20
-11.7019
11
13.0476
21
-11.7016
0
LINE
8
BLACK
6
CONTINUOUS
10
13.0476
20
-11.7016
11
13.0474
21
-11.7015
0
LINE
8
BLACK
6
CONTINUOUS
10
13.0474
20
-11.7015
11
13.0473
21
-11.7007
0
LINE
8
BLACK
6
CONTINUOUS
10
13.0473
20
-11.7007
11
13.047
21
-11.7
0
LINE
8
BLACK
6
CONTINUOUS
10
13.047
20
-11.7
11
13.047
21
-8.75
0
LINE
8
BLACK
6
CONTINUOUS
10
13.047
20
-8.75
11
13.0471
21
-8.74962
0
LINE
8
BLACK
6
CONTINUOUS
10
13.0471
20
-8.74962
11
13.0471
21
-8.74949
0
LINE
8
BLACK
6
CONTINUOUS
10
13.0471
20
-8.74949
11
13.0472
21
-8.74937
0
LINE
8
BLACK
6
CONTINUOUS
10
13.0472
20
-8.74937
11
13.0472
21
-8.74899
0
LINE
8
BLACK
6
CONTINUOUS
10
13.0472
20
-8.74899
11
13.0477
21
-8.7484
0
LINE
8
BLACK
6
CONTINUOUS
10
13.0477
20
-8.7484
11
13.0481
21
-8.74774
0
LINE
8
BLACK
6
CONTINUOUS
10
13.0481
20
-8.74774
11
13.0484
21
-8.74765
0
LINE
8
BLACK
6
CONTINUOUS
10
13.0484
20
-8.74765
11
13.0485
21
-8.74744
0
LINE
8
BLACK
6
CONTINUOUS
10
13.0485
20
-8.74744
11
13.0493
21
-8.74731
0
LINE
8
BLACK
6
CONTINUOUS
10
13.0493
20
-8.74731
11
13.05
21
-8.74705
0
LINE
8
BLACK
6
CONTINUOUS
10
13.05
20
-8.74705
11
18.75
21
-8.74705
0
LINE
8
BLACK
6
CONTINUOUS
10
18.75
20
-8.74705
11
18.7504
21
-8.74711
0
LINE
8
BLACK
6
CONTINUOUS
10
13.053
20
-11.697
11
18.747
21
-11.697
0
LINE
8
BLACK
6
CONTINUOUS
10
18.747
20
-11.697
11
18.747
21
-8.75295
0
LINE
8
BLACK
6
CONTINUOUS
10
18.747
20
-8.75295
11
13.053
21
-8.75295
0
LINE
8
BLACK
6
CONTINUOUS
10
13.053
20
-8.75295
11
13.053
21
-11.697
0
LINE
8
BLACK
6
CONTINUOUS
10
29.6504
20
-8.29711
11
29.6505
21
-8.29709
0
LINE
8
BLACK
6
CONTINUOUS
10
29.6505
20
-8.29709
11
29.6506
21
-8.29716
0
LINE
8
BLACK
6
CONTINUOUS
10
29.6506
20
-8.29716
11
29.651
21
-8.29723
0
LINE
8
BLACK
6
CONTINUOUS
10
29.651
20
-8.29723
11
29.6516
21
-8.29772
0
LINE
8
BLACK
6
CONTINUOUS
10
29.6516
20
-8.29772
11
29.6523
21
-8.2981
0
LINE
8
BLACK
6
CONTINUOUS
10
29.6523
20
-8.2981
11
29.6524
21
-8.29835
0
LINE
8
BLACK
6
CONTINUOUS
10
29.6524
20
-8.29835
11
29.6526
21
-8.29852
0
LINE
8
BLACK
6
CONTINUOUS
10
29.6526
20
-8.29852
11
29.6527
21
-8.29928
0
LINE
8
BLACK
6
CONTINUOUS
10
29.6527
20
-8.29928
11
29.653
21
-8.3
0
LINE
8
BLACK
6
CONTINUOUS
10
29.653
20
-8.3
11
29.653
21
-12.3
0
LINE
8
BLACK
6
CONTINUOUS
10
29.653
20
-12.3
11
29.6529
21
-12.3004
0
LINE
8
BLACK
6
CONTINUOUS
10
29.6529
20
-12.3004
11
29.6529
21
-12.3005
0
LINE
8
BLACK
6
CONTINUOUS
10
29.6529
20
-12.3005
11
29.6528
21
-12.3006
0
LINE
8
BLACK
6
CONTINUOUS
10
29.6528
20
-12.3006
11
29.6528
21
-12.301
0
LINE
8
BLACK
6
CONTINUOUS
10
29.6528
20
-12.301
11
29.6523
21
-12.3016
0
LINE
8
BLACK
6
CONTINUOUS
10
29.6523
20
-12.3016
11
29.6519
21
-12.3023
0
LINE
8
BLACK
6
CONTINUOUS
10
29.6519
20
-12.3023
11
29.6516
21
-12.3024
0
LINE
8
BLACK
6
CONTINUOUS
10
29.6516
20
-12.3024
11
29.6515
21
-12.3026
0
LINE
8
BLACK
6
CONTINUOUS
10
29.6515
20
-12.3026
11
29.6507
21
-12.3027
0
LINE
8
BLACK
6
CONTINUOUS
10
29.6507
20
-12.3027
11
29.65
21
-12.303
0
LINE
8
BLACK
6
CONTINUOUS
10
29.65
20
-12.303
11
21.4
21
-12.303
0
LINE
8
BLACK
6
CONTINUOUS
10
21.4
20
-12.303
11
21.3996
21
-12.3029
0
LINE
8
BLACK
6
CONTINUOUS
10
21.3996
20
-12.3029
11
21.3995
21
-12.3029
0
LINE
8
BLACK
6
CONTINUOUS
10
21.3995
20
-12.3029
11
21.3994
21
-12.3028
0
LINE
8
BLACK
6
CONTINUOUS
10
21.3994
20
-12.3028
11
21.399
21
-12.3028
0
LINE
8
BLACK
6
CONTINUOUS
10
21.399
20
-12.3028
11
21.3984
21
-12.3023
0
LINE
8
BLACK
6
CONTINUOUS
10
21.3984
20
-12.3023
11
21.3977
21
-12.3019
0
LINE
8
BLACK
6
CONTINUOUS
10
21.3977
20
-12.3019
11
21.3976
21
-12.3016
0
LINE
8
BLACK
6
CONTINUOUS
10
21.3976
20
-12.3016
11
21.3974
21
-12.3015
0
LINE
8
BLACK
6
CONTINUOUS
10
21.3974
20
-12.3015
11
21.3973
21
-12.3007
0
LINE
8
BLACK
6
CONTINUOUS
10
21.3973
20
-12.3007
11
21.397
21
-12.3
0
LINE
8
BLACK
6
CONTINUOUS
10
21.397
20
-12.3
11
21.397
21
-8.3
0
LINE
8
BLACK
6
CONTINUOUS
10
21.397
20
-8.3
11
21.3971
21
-8.29962
0
LINE
8
BLACK
6
CONTINUOUS
10
21.3971
20
-8.29962
11
21.3971
21
-8.29949
0
LINE
8
BLACK
6
CONTINUOUS
10
21.3971
20
-8.29949
11
21.3972
21
-8.29937
0
LINE
8
BLACK
6
CONTINUOUS
10
21.3972
20
-8.29937
11
21.3972
21
-8.29899
0
LINE
8
BLACK
6
CONTINUOUS
10
21.3972
20
-8.29899
11
21.3977
21
-8.2984
0
LINE
8
BLACK
6
CONTINUOUS
10
21.3977
20
-8.2984
11
21.3981
21
-8.29774
0
LINE
8
BLACK
6
CONTINUOUS
10
21.3981
20
-8.29774
11
21.3984
21
-8.29765
0
LINE
8
BLACK
6
CONTINUOUS
10
21.3984
20
-8.29765
11
21.3985
21
-8.29744
0
LINE
8
BLACK
6
CONTINUOUS
10
21.3985
20
-8.29744
11
21.3993
21
-8.29731
0
LINE
8
BLACK
6
CONTINUOUS
10
21.3993
20
-8.29731
11
21.4
21
-8.29705
0
LINE
8
BLACK
6
CONTINUOUS
10
21.4
20
-8.29705
11
29.65
21
-8.29705
0
LINE
8
BLACK
6
CONTINUOUS
10
29.65
20
-8.29705
11
29.6504
21
-8.29711
0
LINE
8
BLACK
6
CONTINUOUS
10
21.403
20
-8.30295
11
21.403
21
-12.297
0
LINE
8
BLACK
6
CONTINUOUS
10
21.403
20
-12.297
11
29.647
21
-12.297
0
LINE
8
BLACK
6
CONTINUOUS
10
29.647
20
-12.297
11
29.647
21
-8.30295
0
LINE
8
BLACK
6
CONTINUOUS
10
29.647
20
-8.30295
11
21.403
21
-8.30295
0
LINE
8
BLACK
6
CONTINUOUS
10
29.2004
20
-10.7971
11
29.2005
21
-10.7971
0
LINE
8
BLACK
6
CONTINUOUS
10
29.2005
20
-10.7971
11
29.2006
21
-10.7972
0
LINE
8
BLACK
6
CONTINUOUS
10
29.2006
20
-10.7972
11
29.201
21
-10.7972
0
LINE
8
BLACK
6
CONTINUOUS
10
29.201
20
-10.7972
11
29.2016
21
-10.7977
0
LINE
8
BLACK
6
CONTINUOUS
10
29.2016
20
-10.7977
11
29.2023
21
-10.7981
0
LINE
8
BLACK
6
CONTINUOUS
10
29.2023
20
-10.7981
11
29.2024
21
-10.7984
0
LINE
8
BLACK
6
CONTINUOUS
10
29.2024
20
-10.7984
11
29.2026
21
-10.7985
0
LINE
8
BLACK
6
CONTINUOUS
10
29.2026
20
-10.7985
11
29.2027
21
-10.7993
0
LINE
8
BLACK
6
CONTINUOUS
10
29.2027
20
-10.7993
11
29.203
21
-10.8
0
LINE
8
BLACK
6
CONTINUOUS
10
29.203
20
-10.8
11
29.203
21
-11.95
0
LINE
8
BLACK
6
CONTINUOUS
10
29.203
20
-11.95
11
29.2029
21
-11.9504
0
LINE
8
BLACK
6
CONTINUOUS
10
29.2029
20
-11.9504
11
29.2029
21
-11.9505
0
LINE
8
BLACK
6
CONTINUOUS
10
29.2029
20
-11.9505
11
29.2028
21
-11.9506
0
LINE
8
BLACK
6
CONTINUOUS
10
29.2028
20
-11.9506
11
29.2028
21
-11.951
0
LINE
8
BLACK
6
CONTINUOUS
10
29.2028
20
-11.951
11
29.2023
21
-11.9516
0
LINE
8
BLACK
6
CONTINUOUS
10
29.2023
20
-11.9516
11
29.2019
21
-11.9523
0
LINE
8
BLACK
6
CONTINUOUS
10
29.2019
20
-11.9523
11
29.2016
21
-11.9524
0
LINE
8
BLACK
6
CONTINUOUS
10
29.2016
20
-11.9524
11
29.2015
21
-11.9526
0
LINE
8
BLACK
6
CONTINUOUS
10
29.2015
20
-11.9526
11
29.2007
21
-11.9527
0
LINE
8
BLACK
6
CONTINUOUS
10
29.2007
20
-11.9527
11
29.2
21
-11.953
0
LINE
8
BLACK
6
CONTINUOUS
10
29.2
20
-11.953
11
27.15
21
-11.953
0
LINE
8
BLACK
6
CONTINUOUS
10
27.15
20
-11.953
11
27.1496
21
-11.9529
0
LINE
8
BLACK
6
CONTINUOUS
10
27.1496
20
-11.9529
11
27.1495
21
-11.9529
0
LINE
8
BLACK
6
CONTINUOUS
10
27.1495
20
-11.9529
11
27.1494
21
-11.9528
0
LINE
8
BLACK
6
CONTINUOUS
10
27.1494
20
-11.9528
11
27.149
21
-11.9528
0
LINE
8
BLACK
6
CONTINUOUS
10
27.149
20
-11.9528
11
27.1484
21
-11.9523
0
LINE
8
BLACK
6
CONTINUOUS
10
27.1484
20
-11.9523
11
27.1477
21
-11.9519
0
LINE
8
BLACK
6
CONTINUOUS
10
27.1477
20
-11.9519
11
27.1476
21
-11.9516
0
LINE
8
BLACK
6
CONTINUOUS
10
27.1476
20
-11.9516
11
27.1474
21
-11.9515
0
LINE
8
BLACK
6
CONTINUOUS
10
27.1474
20
-11.9515
11
27.1473
21
-11.9507
0
LINE
8
BLACK
6
CONTINUOUS
10
27.1473
20
-11.9507
11
27.147
21
-11.95
0
LINE
8
BLACK
6
CONTINUOUS
10
27.147
20
-11.95
11
27.147
21
-10.8
0
LINE
8
BLACK
6
CONTINUOUS
10
27.147
20
-10.8
11
27.1471
21
-10.7996
0
LINE
8
BLACK
6
CONTINUOUS
10
27.1471
20
-10.7996
11
27.1471
21
-10.7995
0
LINE
8
BLACK
6
CONTINUOUS
10
27.1471
20
-10.7995
11
27.1472
21
-10.7994
0
LINE
8
BLACK
6
CONTINUOUS
10
27.1472
20
-10.7994
11
27.1472
21
-10.799
0
LINE
8
BLACK
6
CONTINUOUS
10
27.1472
20
-10.799
11
27.1477
21
-10.7984
0
LINE
8
BLACK
6
CONTINUOUS
10
27.1477
20
-10.7984
11
27.1481
21
-10.7977
0
LINE
8
BLACK
6
CONTINUOUS
10
27.1481
20
-10.7977
11
27.1484
21
-10.7976
0
LINE
8
BLACK
6
CONTINUOUS
10
27.1484
20
-10.7976
11
27.1485
21
-10.7974
0
LINE
8
BLACK
6
CONTINUOUS
10
27.1485
20
-10.7974
11
27.1493
21
-10.7973
0
LINE
8
BLACK
6
CONTINUOUS
10
27.1493
20
-10.7973
11
27.15
21
-10.797
0
LINE
8
BLACK
6
CONTINUOUS
10
27.15
20
-10.797
11
29.2
21
-10.797
0
LINE
8
BLACK
6
CONTINUOUS
10
29.2
20
-10.797
11
29.2004
21
-10.7971
0
LINE
8
BLACK
6
CONTINUOUS
10
27.153
20
-10.803
11
27.153
21
-11.947
0
LINE
8
BLACK
6
CONTINUOUS
10
27.153
20
-11.947
11
29.197
21
-11.947
0
LINE
8
BLACK
6
CONTINUOUS
10
29.197
20
-11.947
11
29.197
21
-10.803
0
LINE
8
BLACK
6
CONTINUOUS
10
29.197
20
-10.803
11
27.153
21
-10.803
0
LINE
8
BLACK
6
CONTINUOUS
10
25.8004
20
-10.9971
11
25.8005
21
-10.9971
0
LINE
8
BLACK
6
CONTINUOUS
10
25.8005
20
-10.9971
11
25.8006
21
-10.9972
0
LINE
8
BLACK
6
CONTINUOUS
10
25.8006
20
-10.9972
11
25.801
21
-10.9972
0
LINE
8
BLACK
6
CONTINUOUS
10
25.801
20
-10.9972
11
25.8016
21
-10.9977
0
LINE
8
BLACK
6
CONTINUOUS
10
25.8016
20
-10.9977
11
25.8023
21
-10.9981
0
LINE
8
BLACK
6
CONTINUOUS
10
25.8023
20
-10.9981
11
25.8024
21
-10.9984
0
LINE
8
BLACK
6
CONTINUOUS
10
25.8024
20
-10.9984
11
25.8026
21
-10.9985
0
LINE
8
BLACK
6
CONTINUOUS
10
25.8026
20
-10.9985
11
25.8027
21
-10.9993
0
LINE
8
BLACK
6
CONTINUOUS
10
25.8027
20
-10.9993
11
25.803
21
-11
0
LINE
8
BLACK
6
CONTINUOUS
10
25.803
20
-11
11
25.803
21
-11.65
0
LINE
8
BLACK
6
CONTINUOUS
10
25.803
20
-11.65
11
25.8029
21
-11.6504
0
LINE
8
BLACK
6
CONTINUOUS
10
25.8029
20
-11.6504
11
25.8029
21
-11.6505
0
LINE
8
BLACK
6
CONTINUOUS
10
25.8029
20
-11.6505
11
25.8028
21
-11.6506
0
LINE
8
BLACK
6
CONTINUOUS
10
25.8028
20
-11.6506
11
25.8028
21
-11.651
0
LINE
8
BLACK
6
CONTINUOUS
10
25.8028
20
-11.651
11
25.8023
21
-11.6516
0
LINE
8
BLACK
6
CONTINUOUS
10
25.8023
20
-11.6516
11
25.8019
21
-11.6523
0
LINE
8
BLACK
6
CONTINUOUS
10
25.8019
20
-11.6523
11
25.8016
21
-11.6524
0
LINE
8
BLACK
6
CONTINUOUS
10
25.8016
20
-11.6524
11
25.8015
21
-11.6526
0
LINE
8
BLACK
6
CONTINUOUS
10
25.8015
20
-11.6526
11
25.8007
21
-11.6527
0
LINE
8
BLACK
6
CONTINUOUS
10
25.8007
20
-11.6527
11
25.8
21
-11.653
0
LINE
8
BLACK
6
CONTINUOUS
10
25.8
20
-11.653
11
21.7
21
-11.653
0
LINE
8
BLACK
6
CONTINUOUS
10
21.7
20
-11.653
11
21.6996
21
-11.6529
0
LINE
8
BLACK
6
CONTINUOUS
10
21.6996
20
-11.6529
11
21.6995
21
-11.6529
0
LINE
8
BLACK
6
CONTINUOUS
10
21.6995
20
-11.6529
11
21.6994
21
-11.6528
0
LINE
8
BLACK
6
CONTINUOUS
10
21.6994
20
-11.6528
11
21.699
21
-11.6528
0
LINE
8
BLACK
6
CONTINUOUS
10
21.699
20
-11.6528
11
21.6984
21
-11.6523
0
LINE
8
BLACK
6
CONTINUOUS
10
21.6984
20
-11.6523
11
21.6977
21
-11.6519
0
LINE
8
BLACK
6
CONTINUOUS
10
21.6977
20
-11.6519
11
21.6976
21
-11.6516
0
LINE
8
BLACK
6
CONTINUOUS
10
21.6976
20
-11.6516
11
21.6974
21
-11.6515
0
LINE
8
BLACK
6
CONTINUOUS
10
21.6974
20
-11.6515
11
21.6973
21
-11.6507
0
LINE
8
BLACK
6
CONTINUOUS
10
21.6973
20
-11.6507
11
21.697
21
-11.65
0
LINE
8
BLACK
6
CONTINUOUS
10
21.697
20
-11.65
11
21.697
21
-11
0
LINE
8
BLACK
6
CONTINUOUS
10
21.697
20
-11
11
21.6971
21
-10.9996
0
LINE
8
BLACK
6
CONTINUOUS
10
21.6971
20
-10.9996
11
21.6971
21
-10.9995
0
LINE
8
BLACK
6
CONTINUOUS
10
21.6971
20
-10.9995
11
21.6972
21
-10.9994
0
LINE
8
BLACK
6
CONTINUOUS
10
21.6972
20
-10.9994
11
21.6972
21
-10.999
0
LINE
8
BLACK
6
CONTINUOUS
10
21.6972
20
-10.999
11
21.6977
21
-10.9984
0
LINE
8
BLACK
6
CONTINUOUS
10
21.6977
20
-10.9984
11
21.6981
21
-10.9977
0
LINE
8
BLACK
6
CONTINUOUS
10
21.6981
20
-10.9977
11
21.6984
21
-10.9976
0
LINE
8
BLACK
6
CONTINUOUS
10
21.6984
20
-10.9976
11
21.6985
21
-10.9974
0
LINE
8
BLACK
6
CONTINUOUS
10
21.6985
20
-10.9974
11
21.6993
21
-10.9973
0
LINE
8
BLACK
6
CONTINUOUS
10
21.6993
20
-10.9973
11
21.7
21
-10.997
0
LINE
8
BLACK
6
CONTINUOUS
10
21.7
20
-10.997
11
25.8
21
-10.997
0
LINE
8
BLACK
6
CONTINUOUS
10
25.8
20
-10.997
11
25.8004
21
-10.9971
0
LINE
8
BLACK
6
CONTINUOUS
10
21.703
20
-11.647
11
25.797
21
-11.647
0
LINE
8
BLACK
6
CONTINUOUS
10
25.797
20
-11.647
11
25.797
21
-11.003
0
LINE
8
BLACK
6
CONTINUOUS
10
25.797
20
-11.003
11
21.703
21
-11.003
0
LINE
8
BLACK
6
CONTINUOUS
10
21.703
20
-11.003
11
21.703
21
-11.647
0
LINE
8
BLACK
6
CONTINUOUS
10
29.0004
20
-8.79711
11
29.0005
21
-8.79709
0
LINE
8
BLACK
6
CONTINUOUS
10
29.0005
20
-8.79709
11
29.0006
21
-8.79716
0
LINE
8
BLACK
6
CONTINUOUS
10
29.0006
20
-8.79716
11
29.001
21
-8.79723
0
LINE
8
BLACK
6
CONTINUOUS
10
29.001
20
-8.79723
11
29.0016
21
-8.79772
0
LINE
8
BLACK
6
CONTINUOUS
10
29.0016
20
-8.79772
11
29.0023
21
-8.7981
0
LINE
8
BLACK
6
CONTINUOUS
10
29.0023
20
-8.7981
11
29.0024
21
-8.79835
0
LINE
8
BLACK
6
CONTINUOUS
10
29.0024
20
-8.79835
11
29.0026
21
-8.79852
0
LINE
8
BLACK
6
CONTINUOUS
10
29.0026
20
-8.79852
11
29.0027
21
-8.79928
0
LINE
8
BLACK
6
CONTINUOUS
10
29.0027
20
-8.79928
11
29.003
21
-8.8
0
LINE
8
BLACK
6
CONTINUOUS
10
29.003
20
-8.8
11
29.003
21
-9.95
0
LINE
8
BLACK
6
CONTINUOUS
10
29.003
20
-9.95
11
29.0029
21
-9.95038
0
LINE
8
BLACK
6
CONTINUOUS
10
29.0029
20
-9.95038
11
29.0029
21
-9.95051
0
LINE
8
BLACK
6
CONTINUOUS
10
29.0029
20
-9.95051
11
29.0028
21
-9.95063
0
LINE
8
BLACK
6
CONTINUOUS
10
29.0028
20
-9.95063
11
29.0028
21
-9.95101
0
LINE
8
BLACK
6
CONTINUOUS
10
29.0028
20
-9.95101
11
29.0023
21
-9.9516
0
LINE
8
BLACK
6
CONTINUOUS
10
29.0023
20
-9.9516
11
29.0019
21
-9.95226
0
LINE
8
BLACK
6
CONTINUOUS
10
29.0019
20
-9.95226
11
29.0016
21
-9.95235
0
LINE
8
BLACK
6
CONTINUOUS
10
29.0016
20
-9.95235
11
29.0015
21
-9.95256
0
LINE
8
BLACK
6
CONTINUOUS
10
29.0015
20
-9.95256
11
29.0007
21
-9.95269
0
LINE
8
BLACK
6
CONTINUOUS
10
29.0007
20
-9.95269
11
29
21
-9.95295
0
LINE
8
BLACK
6
CONTINUOUS
10
29
20
-9.95295
11
21.8
21
-9.95295
0
LINE
8
BLACK
6
CONTINUOUS
10
21.8
20
-9.95295
11
21.7996
21
-9.95289
0
LINE
8
BLACK
6
CONTINUOUS
10
21.7996
20
-9.95289
11
21.7995
21
-9.95291
0
LINE
8
BLACK
6
CONTINUOUS
10
21.7995
20
-9.95291
11
21.7994
21
-9.95284
0
LINE
8
BLACK
6
CONTINUOUS
10
21.7994
20
-9.95284
11
21.799
21
-9.95277
0
LINE
8
BLACK
6
CONTINUOUS
10
21.799
20
-9.95277
11
21.7984
21
-9.95228
0
LINE
8
BLACK
6
CONTINUOUS
10
21.7984
20
-9.95228
11
21.7977
21
-9.9519
0
LINE
8
BLACK
6
CONTINUOUS
10
21.7977
20
-9.9519
11
21.7976
21
-9.95165
0
LINE
8
BLACK
6
CONTINUOUS
10
21.7976
20
-9.95165
11
21.7974
21
-9.95148
0
LINE
8
BLACK
6
CONTINUOUS
10
21.7974
20
-9.95148
11
21.7973
21
-9.95072
0
LINE
8
BLACK
6
CONTINUOUS
10
21.7973
20
-9.95072
11
21.797
21
-9.95
0
LINE
8
BLACK
6
CONTINUOUS
10
21.797
20
-9.95
11
21.797
21
-8.8
0
LINE
8
BLACK
6
CONTINUOUS
10
21.797
20
-8.8
11
21.7971
21
-8.79962
0
LINE
8
BLACK
6
CONTINUOUS
10
21.7971
20
-8.79962
11
21.7971
21
-8.79949
0
LINE
8
BLACK
6
CONTINUOUS
10
21.7971
20
-8.79949
11
21.7972
21
-8.79937
0
LINE
8
BLACK
6
CONTINUOUS
10
21.7972
20
-8.79937
11
21.7972
21
-8.79899
0
LINE
8
BLACK
6
CONTINUOUS
10
21.7972
20
-8.79899
11
21.7977
21
-8.7984
0
LINE
8
BLACK
6
CONTINUOUS
10
21.7977
20
-8.7984
11
21.7981
21
-8.79774
0
LINE
8
BLACK
6
CONTINUOUS
10
21.7981
20
-8.79774
11
21.7984
21
-8.79765
0
LINE
8
BLACK
6
CONTINUOUS
10
21.7984
20
-8.79765
11
21.7985
21
-8.79744
0
LINE
8
BLACK
6
CONTINUOUS
10
21.7985
20
-8.79744
11
21.7993
21
-8.79731
0
LINE
8
BLACK
6
CONTINUOUS
10
21.7993
20
-8.79731
11
21.8
21
-8.79705
0
LINE
8
BLACK
6
CONTINUOUS
10
21.8
20
-8.79705
11
29
21
-8.79705
0
LINE
8
BLACK
6
CONTINUOUS
10
29
20
-8.79705
11
29.0004
21
-8.79711
0
LINE
8
BLACK
6
CONTINUOUS
10
21.803
20
-8.80295
11
21.803
21
-9.94705
0
LINE
8
BLACK
6
CONTINUOUS
10
21.803
20
-9.94705
11
28.997
21
-9.94705
0
LINE
8
BLACK
6
CONTINUOUS
10
28.997
20
-9.94705
11
28.997
21
-8.80295
0
LINE
8
BLACK
6
CONTINUOUS
10
28.997
20
-8.80295
11
21.803
21
-8.80295
0
LINE
8
BLACK
6
CONTINUOUS
10
21.1504
20
-2.59711
11
21.1505
21
-2.59709
0
LINE
8
BLACK
6
CONTINUOUS
10
21.1505
20
-2.59709
11
21.1506
21
-2.59716
0
LINE
8
BLACK
6
CONTINUOUS
10
21.1506
20
-2.59716
11
21.151
21
-2.59723
0
LINE
8
BLACK
6
CONTINUOUS
10
21.151
20
-2.59723
11
21.1516
21
-2.59772
0
LINE
8
BLACK
6
CONTINUOUS
10
21.1516
20
-2.59772
11
21.1523
21
-2.5981
0
LINE
8
BLACK
6
CONTINUOUS
10
21.1523
20
-2.5981
11
21.1524
21
-2.59835
0
LINE
8
BLACK
6
CONTINUOUS
10
21.1524
20
-2.59835
11
21.1526
21
-2.59852
0
LINE
8
BLACK
6
CONTINUOUS
10
21.1526
20
-2.59852
11
21.1527
21
-2.59928
0
LINE
8
BLACK
6
CONTINUOUS
10
21.1527
20
-2.59928
11
21.153
21
-2.6
0
LINE
8
BLACK
6
CONTINUOUS
10
21.153
20
-2.6
11
21.153
21
-12.3
0
LINE
8
BLACK
6
CONTINUOUS
10
21.153
20
-12.3
11
21.1529
21
-12.3004
0
LINE
8
BLACK
6
CONTINUOUS
10
21.1529
20
-12.3004
11
21.1529
21
-12.3005
0
LINE
8
BLACK
6
CONTINUOUS
10
21.1529
20
-12.3005
11
21.1528
21
-12.3006
0
LINE
8
BLACK
6
CONTINUOUS
10
21.1528
20
-12.3006
11
21.1528
21
-12.301
0
LINE
8
BLACK
6
CONTINUOUS
10
21.1528
20
-12.301
11
21.1523
21
-12.3016
0
LINE
8
BLACK
6
CONTINUOUS
10
21.1523
20
-12.3016
11
21.1519
21
-12.3023
0
LINE
8
BLACK
6
CONTINUOUS
10
21.1519
20
-12.3023
11
21.1516
21
-12.3024
0
LINE
8
BLACK
6
CONTINUOUS
10
21.1516
20
-12.3024
11
21.1515
21
-12.3026
0
LINE
8
BLACK
6
CONTINUOUS
10
21.1515
20
-12.3026
11
21.1507
21
-12.3027
0
LINE
8
BLACK
6
CONTINUOUS
10
21.1507
20
-12.3027
11
21.15
21
-12.303
0
LINE
8
BLACK
6
CONTINUOUS
10
21.15
20
-12.303
11
19.15
21
-12.303
0
LINE
8
BLACK
6
CONTINUOUS
10
19.15
20
-12.303
11
19.1496
21
-12.3029
0
LINE
8
BLACK
6
CONTINUOUS
10
19.1496
20
-12.3029
11
19.1495
21
-12.3029
0
LINE
8
BLACK
6
CONTINUOUS
10
19.1495
20
-12.3029
11
19.1494
21
-12.3028
0
LINE
8
BLACK
6
CONTINUOUS
10
19.1494
20
-12.3028
11
19.149
21
-12.3028
0
LINE
8
BLACK
6
CONTINUOUS
10
19.149
20
-12.3028
11
19.1484
21
-12.3023
0
LINE
8
BLACK
6
CONTINUOUS
10
19.1484
20
-12.3023
11
19.1477
21
-12.3019
0
LINE
8
BLACK
6
CONTINUOUS
10
19.1477
20
-12.3019
11
19.1476
21
-12.3016
0
LINE
8
BLACK
6
CONTINUOUS
10
19.1476
20
-12.3016
11
19.1474
21
-12.3015
0
LINE
8
BLACK
6
CONTINUOUS
10
19.1474
20
-12.3015
11
19.1473
21
-12.3007
0
LINE
8
BLACK
6
CONTINUOUS
10
19.1473
20
-12.3007
11
19.147
21
-12.3
0
LINE
8
BLACK
6
CONTINUOUS
10
19.147
20
-12.3
11
19.147
21
-2.6
0
LINE
8
BLACK
6
CONTINUOUS
10
19.147
20
-2.6
11
19.1471
21
-2.59962
0
LINE
8
BLACK
6
CONTINUOUS
10
19.1471
20
-2.59962
11
19.1471
21
-2.59949
0
LINE
8
BLACK
6
CONTINUOUS
10
19.1471
20
-2.59949
11
19.1472
21
-2.59937
0
LINE
8
BLACK
6
CONTINUOUS
10
19.1472
20
-2.59937
11
19.1472
21
-2.59899
0
LINE
8
BLACK
6
CONTINUOUS
10
19.1472
20
-2.59899
11
19.1477
21
-2.5984
0
LINE
8
BLACK
6
CONTINUOUS
10
19.1477
20
-2.5984
11
19.1481
21
-2.59774
0
LINE
8
BLACK
6
CONTINUOUS
10
19.1481
20
-2.59774
11
19.1484
21
-2.59765
0
LINE
8
BLACK
6
CONTINUOUS
10
19.1484
20
-2.59765
11
19.1485
21
-2.59744
0
LINE
8
BLACK
6
CONTINUOUS
10
19.1485
20
-2.59744
11
19.1493
21
-2.59731
0
LINE
8
BLACK
6
CONTINUOUS
10
19.1493
20
-2.59731
11
19.15
21
-2.59705
0
LINE
8
BLACK
6
CONTINUOUS
10
19.15
20
-2.59705
11
21.15
21
-2.59705
0
LINE
8
BLACK
6
CONTINUOUS
10
21.15
20
-2.59705
11
21.1504
21
-2.59711
0
LINE
8
BLACK
6
CONTINUOUS
10
19.153
20
-2.60295
11
19.153
21
-12.297
0
LINE
8
BLACK
6
CONTINUOUS
10
19.153
20
-12.297
11
21.147
21
-12.297
0
LINE
8
BLACK
6
CONTINUOUS
10
21.147
20
-12.297
11
21.147
21
-2.60295
0
LINE
8
BLACK
6
CONTINUOUS
10
21.147
20
-2.60295
11
19.153
21
-2.60295
0
LINE
8
BLACK
6
CONTINUOUS
10
20.7504
20
-4.94711
11
20.7505
21
-4.94709
0
LINE
8
BLACK
6
CONTINUOUS
10
20.7505
20
-4.94709
11
20.7506
21
-4.94716
0
LINE
8
BLACK
6
CONTINUOUS
10
20.7506
20
-4.94716
11
20.751
21
-4.94723
0
LINE
8
BLACK
6
CONTINUOUS
10
20.751
20
-4.94723
11
20.7516
21
-4.94772
0
LINE
8
BLACK
6
CONTINUOUS
10
20.7516
20
-4.94772
11
20.7523
21
-4.9481
0
LINE
8
BLACK
6
CONTINUOUS
10
20.7523
20
-4.9481
11
20.7524
21
-4.94835
0
LINE
8
BLACK
6
CONTINUOUS
10
20.7524
20
-4.94835
11
20.7526
21
-4.94852
0
LINE
8
BLACK
6
CONTINUOUS
10
20.7526
20
-4.94852
11
20.7527
21
-4.94928
0
LINE
8
BLACK
6
CONTINUOUS
10
20.7527
20
-4.94928
11
20.753
21
-4.95
0
LINE
8
BLACK
6
CONTINUOUS
10
20.753
20
-4.95
11
20.753
21
-9.75
0
LINE
8
BLACK
6
CONTINUOUS
10
20.753
20
-9.75
11
20.7529
21
-9.75038
0
LINE
8
BLACK
6
CONTINUOUS
10
20.7529
20
-9.75038
11
20.7529
21
-9.75051
0
LINE
8
BLACK
6
CONTINUOUS
10
20.7529
20
-9.75051
11
20.7528
21
-9.75063
0
LINE
8
BLACK
6
CONTINUOUS
10
20.7528
20
-9.75063
11
20.7528
21
-9.75101
0
LINE
8
BLACK
6
CONTINUOUS
10
20.7528
20
-9.75101
11
20.7523
21
-9.7516
0
LINE
8
BLACK
6
CONTINUOUS
10
20.7523
20
-9.7516
11
20.7519
21
-9.75226
0
LINE
8
BLACK
6
CONTINUOUS
10
20.7519
20
-9.75226
11
20.7516
21
-9.75235
0
LINE
8
BLACK
6
CONTINUOUS
10
20.7516
20
-9.75235
11
20.7515
21
-9.75256
0
LINE
8
BLACK
6
CONTINUOUS
10
20.7515
20
-9.75256
11
20.7507
21
-9.75269
0
LINE
8
BLACK
6
CONTINUOUS
10
20.7507
20
-9.75269
11
20.75
21
-9.75295
0
LINE
8
BLACK
6
CONTINUOUS
10
20.75
20
-9.75295
11
19.55
21
-9.75295
0
LINE
8
BLACK
6
CONTINUOUS
10
19.55
20
-9.75295
11
19.5496
21
-9.75289
0
LINE
8
BLACK
6
CONTINUOUS
10
19.5496
20
-9.75289
11
19.5495
21
-9.75291
0
LINE
8
BLACK
6
CONTINUOUS
10
19.5495
20
-9.75291
11
19.5494
21
-9.75284
0
LINE
8
BLACK
6
CONTINUOUS
10
19.5494
20
-9.75284
11
19.549
21
-9.75277
0
LINE
8
BLACK
6
CONTINUOUS
10
19.549
20
-9.75277
11
19.5484
21
-9.75228
0
LINE
8
BLACK
6
CONTINUOUS
10
19.5484
20
-9.75228
11
19.5477
21
-9.7519
0
LINE
8
BLACK
6
CONTINUOUS
10
19.5477
20
-9.7519
11
19.5476
21
-9.75165
0
LINE
8
BLACK
6
CONTINUOUS
10
19.5476
20
-9.75165
11
19.5474
21
-9.75148
0
LINE
8
BLACK
6
CONTINUOUS
10
19.5474
20
-9.75148
11
19.5473
21
-9.75072
0
LINE
8
BLACK
6
CONTINUOUS
10
19.5473
20
-9.75072
11
19.547
21
-9.75
0
LINE
8
BLACK
6
CONTINUOUS
10
19.547
20
-9.75
11
19.547
21
-4.95
0
LINE
8
BLACK
6
CONTINUOUS
10
19.547
20
-4.95
11
19.5471
21
-4.94962
0
LINE
8
BLACK
6
CONTINUOUS
10
19.5471
20
-4.94962
11
19.5471
21
-4.94949
0
LINE
8
BLACK
6
CONTINUOUS
10
19.5471
20
-4.94949
11
19.5472
21
-4.94937
0
LINE
8
BLACK
6
CONTINUOUS
10
19.5472
20
-4.94937
11
19.5472
21
-4.94899
0
LINE
8
BLACK
6
CONTINUOUS
10
19.5472
20
-4.94899
11
19.5477
21
-4.9484
0
LINE
8
BLACK
6
CONTINUOUS
10
19.5477
20
-4.9484
11
19.5481
21
-4.94774
0
LINE
8
BLACK
6
CONTINUOUS
10
19.5481
20
-4.94774
11
19.5484
21
-4.94765
0
LINE
8
BLACK
6
CONTINUOUS
10
19.5484
20
-4.94765
11
19.5485
21
-4.94744
0
LINE
8
BLACK
6
CONTINUOUS
10
19.5485
20
-4.94744
11
19.5493
21
-4.94731
0
LINE
8
BLACK
6
CONTINUOUS
10
19.5493
20
-4.94731
11
19.55
21
-4.94705
0
LINE
8
BLACK
6
CONTINUOUS
10
19.55
20
-4.94705
11
20.75
21
-4.94705
0
LINE
8
BLACK
6
CONTINUOUS
10
20.75
20
-4.94705
11
20.7504
21
-4.94711
0
LINE
8
BLACK
6
CONTINUOUS
10
19.553
20
-9.74705
11
20.747
21
-9.74705
0
LINE
8
BLACK
6
CONTINUOUS
10
20.747
20
-9.74705
11
20.747
21
-4.95295
0
LINE
8
BLACK
6
CONTINUOUS
10
20.747
20
-4.95295
11
19.553
21
-4.95295
0
LINE
8
BLACK
6
CONTINUOUS
10
19.553
20
-4.95295
11
19.553
21
-9.74705
0
LINE
8
BLACK
6
CONTINUOUS
10
29.6504
20
-2.59711
11
29.6505
21
-2.59709
0
LINE
8
BLACK
6
CONTINUOUS
10
29.6505
20
-2.59709
11
29.6506
21
-2.59716
0
LINE
8
BLACK
6
CONTINUOUS
10
29.6506
20
-2.59716
11
29.651
21
-2.59723
0
LINE
8
BLACK
6
CONTINUOUS
10
29.651
20
-2.59723
11
29.6516
21
-2.59772
0
LINE
8
BLACK
6
CONTINUOUS
10
29.6516
20
-2.59772
11
29.6523
21
-2.5981
0
LINE
8
BLACK
6
CONTINUOUS
10
29.6523
20
-2.5981
11
29.6524
21
-2.59835
0
LINE
8
BLACK
6
CONTINUOUS
10
29.6524
20
-2.59835
11
29.6526
21
-2.59852
0
LINE
8
BLACK
6
CONTINUOUS
10
29.6526
20
-2.59852
11
29.6527
21
-2.59928
0
LINE
8
BLACK
6
CONTINUOUS
10
29.6527
20
-2.59928
11
29.653
21
-2.6
0
LINE
8
BLACK
6
CONTINUOUS
10
29.653
20
-2.6
11
29.653
21
-8.05
0
LINE
8
BLACK
6
CONTINUOUS
10
29.653
20
-8.05
11
29.6529
21
-8.05038
0
LINE
8
BLACK
6
CONTINUOUS
10
29.6529
20
-8.05038
11
29.6529
21
-8.05051
0
LINE
8
BLACK
6
CONTINUOUS
10
29.6529
20
-8.05051
11
29.6528
21
-8.05063
0
LINE
8
BLACK
6
CONTINUOUS
10
29.6528
20
-8.05063
11
29.6528
21
-8.05101
0
LINE
8
BLACK
6
CONTINUOUS
10
29.6528
20
-8.05101
11
29.6523
21
-8.0516
0
LINE
8
BLACK
6
CONTINUOUS
10
29.6523
20
-8.0516
11
29.6519
21
-8.05226
0
LINE
8
BLACK
6
CONTINUOUS
10
29.6519
20
-8.05226
11
29.6516
21
-8.05235
0
LINE
8
BLACK
6
CONTINUOUS
10
29.6516
20
-8.05235
11
29.6515
21
-8.05256
0
LINE
8
BLACK
6
CONTINUOUS
10
29.6515
20
-8.05256
11
29.6507
21
-8.05269
0
LINE
8
BLACK
6
CONTINUOUS
10
29.6507
20
-8.05269
11
29.65
21
-8.05295
0
LINE
8
BLACK
6
CONTINUOUS
10
29.65
20
-8.05295
11
21.4
21
-8.05295
0
LINE
8
BLACK
6
CONTINUOUS
10
21.4
20
-8.05295
11
21.3996
21
-8.05289
0
LINE
8
BLACK
6
CONTINUOUS
10
21.3996
20
-8.05289
11
21.3995
21
-8.05291
0
LINE
8
BLACK
6
CONTINUOUS
10
21.3995
20
-8.05291
11
21.3994
21
-8.05284
0
LINE
8
BLACK
6
CONTINUOUS
10
21.3994
20
-8.05284
11
21.399
21
-8.05277
0
LINE
8
BLACK
6
CONTINUOUS
10
21.399
20
-8.05277
11
21.3984
21
-8.05228
0
LINE
8
BLACK
6
CONTINUOUS
10
21.3984
20
-8.05228
11
21.3977
21
-8.0519
0
LINE
8
BLACK
6
CONTINUOUS
10
21.3977
20
-8.0519
11
21.3976
21
-8.05165
0
LINE
8
BLACK
6
CONTINUOUS
10
21.3976
20
-8.05165
11
21.3974
21
-8.05148
0
LINE
8
BLACK
6
CONTINUOUS
10
21.3974
20
-8.05148
11
21.3973
21
-8.05072
0
LINE
8
BLACK
6
CONTINUOUS
10
21.3973
20
-8.05072
11
21.397
21
-8.05
0
LINE
8
BLACK
6
CONTINUOUS
10
21.397
20
-8.05
11
21.397
21
-2.6
0
LINE
8
BLACK
6
CONTINUOUS
10
21.397
20
-2.6
11
21.3971
21
-2.59962
0
LINE
8
BLACK
6
CONTINUOUS
10
21.3971
20
-2.59962
11
21.3971
21
-2.59949
0
LINE
8
BLACK
6
CONTINUOUS
10
21.3971
20
-2.59949
11
21.3972
21
-2.59937
0
LINE
8
BLACK
6
CONTINUOUS
10
21.3972
20
-2.59937
11
21.3972
21
-2.59899
0
LINE
8
BLACK
6
CONTINUOUS
10
21.3972
20
-2.59899
11
21.3977
21
-2.5984
0
LINE
8
BLACK
6
CONTINUOUS
10
21.3977
20
-2.5984
11
21.3981
21
-2.59774
0
LINE
8
BLACK
6
CONTINUOUS
10
21.3981
20
-2.59774
11
21.3984
21
-2.59765
0
LINE
8
BLACK
6
CONTINUOUS
10
21.3984
20
-2.59765
11
21.3985
21
-2.59744
0
LINE
8
BLACK
6
CONTINUOUS
10
21.3985
20
-2.59744
11
21.3993
21
-2.59731
0
LINE
8
BLACK
6
CONTINUOUS
10
21.3993
20
-2.59731
11
21.4
21
-2.59705
0
LINE
8
BLACK
6
CONTINUOUS
10
21.4
20
-2.59705
11
29.65
21
-2.59705
0
LINE
8
BLACK
6
CONTINUOUS
10
29.65
20
-2.59705
11
29.6504
21
-2.59711
0
LINE
8
BLACK
6
CONTINUOUS
10
21.403
20
-2.60295
11
21.403
21
-8.04705
0
LINE
8
BLACK
6
CONTINUOUS
10
21.403
20
-8.04705
11
29.647
21
-8.04705
0
LINE
8
BLACK
6
CONTINUOUS
10
29.647
20
-8.04705
11
29.647
21
-2.60295
0
LINE
8
BLACK
6
CONTINUOUS
10
29.647
20
-2.60295
11
21.403
21
-2.60295
0
LINE
8
BLACK
6
CONTINUOUS
10
29.0004
20
-6.74711
11
29.0005
21
-6.74709
0
LINE
8
BLACK
6
CONTINUOUS
10
29.0005
20
-6.74709
11
29.0006
21
-6.74716
0
LINE
8
BLACK
6
CONTINUOUS
10
29.0006
20
-6.74716
11
29.001
21
-6.74723
0
LINE
8
BLACK
6
CONTINUOUS
10
29.001
20
-6.74723
11
29.0016
21
-6.74772
0
LINE
8
BLACK
6
CONTINUOUS
10
29.0016
20
-6.74772
11
29.0023
21
-6.7481
0
LINE
8
BLACK
6
CONTINUOUS
10
29.0023
20
-6.7481
11
29.0024
21
-6.74835
0
LINE
8
BLACK
6
CONTINUOUS
10
29.0024
20
-6.74835
11
29.0026
21
-6.74852
0
LINE
8
BLACK
6
CONTINUOUS
10
29.0026
20
-6.74852
11
29.0027
21
-6.74928
0
LINE
8
BLACK
6
CONTINUOUS
10
29.0027
20
-6.74928
11
29.003
21
-6.75
0
LINE
8
BLACK
6
CONTINUOUS
10
29.003
20
-6.75
11
29.003
21
-7.95
0
LINE
8
BLACK
6
CONTINUOUS
10
29.003
20
-7.95
11
29.0029
21
-7.95038
0
LINE
8
BLACK
6
CONTINUOUS
10
29.0029
20
-7.95038
11
29.0029
21
-7.95051
0
LINE
8
BLACK
6
CONTINUOUS
10
29.0029
20
-7.95051
11
29.0028
21
-7.95063
0
LINE
8
BLACK
6
CONTINUOUS
10
29.0028
20
-7.95063
11
29.0028
21
-7.95101
0
LINE
8
BLACK
6
CONTINUOUS
10
29.0028
20
-7.95101
11
29.0023
21
-7.9516
0
LINE
8
BLACK
6
CONTINUOUS
10
29.0023
20
-7.9516
11
29.0019
21
-7.95226
0
LINE
8
BLACK
6
CONTINUOUS
10
29.0019
20
-7.95226
11
29.0016
21
-7.95235
0
LINE
8
BLACK
6
CONTINUOUS
10
29.0016
20
-7.95235
11
29.0015
21
-7.95256
0
LINE
8
BLACK
6
CONTINUOUS
10
29.0015
20
-7.95256
11
29.0007
21
-7.95269
0
LINE
8
BLACK
6
CONTINUOUS
10
29.0007
20
-7.95269
11
29
21
-7.95295
0
LINE
8
BLACK
6
CONTINUOUS
10
29
20
-7.95295
11
21.8
21
-7.95295
0
LINE
8
BLACK
6
CONTINUOUS
10
21.8
20
-7.95295
11
21.7996
21
-7.95289
0
LINE
8
BLACK
6
CONTINUOUS
10
21.7996
20
-7.95289
11
21.7995
21
-7.95291
0
LINE
8
BLACK
6
CONTINUOUS
10
21.7995
20
-7.95291
11
21.7994
21
-7.95284
0
LINE
8
BLACK
6
CONTINUOUS
10
21.7994
20
-7.95284
11
21.799
21
-7.95277
0
LINE
8
BLACK
6
CONTINUOUS
10
21.799
20
-7.95277
11
21.7984
21
-7.95228
0
LINE
8
BLACK
6
CONTINUOUS
10
21.7984
20
-7.95228
11
21.7977
21
-7.9519
0
LINE
8
BLACK
6
CONTINUOUS
10
21.7977
20
-7.9519
11
21.7976
21
-7.95165
0
LINE
8
BLACK
6
CONTINUOUS
10
21.7976
20
-7.95165
11
21.7974
21
-7.95148
0
LINE
8
BLACK
6
CONTINUOUS
10
21.7974
20
-7.95148
11
21.7973
21
-7.95072
0
LINE
8
BLACK
6
CONTINUOUS
10
21.7973
20
-7.95072
11
21.797
21
-7.95
0
LINE
8
BLACK
6
CONTINUOUS
10
21.797
20
-7.95
11
21.797
21
-6.75
0
LINE
8
BLACK
6
CONTINUOUS
10
21.797
20
-6.75
11
21.7971
21
-6.74962
0
LINE
8
BLACK
6
CONTINUOUS
10
21.7971
20
-6.74962
11
21.7971
21
-6.74949
0
LINE
8
BLACK
6
CONTINUOUS
10
21.7971
20
-6.74949
11
21.7972
21
-6.74937
0
LINE
8
BLACK
6
CONTINUOUS
10
21.7972
20
-6.74937
11
21.7972
21
-6.74899
0
LINE
8
BLACK
6
CONTINUOUS
10
21.7972
20
-6.74899
11
21.7977
21
-6.7484
0
LINE
8
BLACK
6
CONTINUOUS
10
21.7977
20
-6.7484
11
21.7981
21
-6.74774
0
LINE
8
BLACK
6
CONTINUOUS
10
21.7981
20
-6.74774
11
21.7984
21
-6.74765
0
LINE
8
BLACK
6
CONTINUOUS
10
21.7984
20
-6.74765
11
21.7985
21
-6.74744
0
LINE
8
BLACK
6
CONTINUOUS
10
21.7985
20
-6.74744
11
21.7993
21
-6.74731
0
LINE
8
BLACK
6
CONTINUOUS
10
21.7993
20
-6.74731
11
21.8
21
-6.74705
0
LINE
8
BLACK
6
CONTINUOUS
10
21.8
20
-6.74705
11
29
21
-6.74705
0
LINE
8
BLACK
6
CONTINUOUS
10
29
20
-6.74705
11
29.0004
21
-6.74711
0
LINE
8
BLACK
6
CONTINUOUS
10
21.803
20
-6.75295
11
21.803
21
-7.94705
0
LINE
8
BLACK
6
CONTINUOUS
10
21.803
20
-7.94705
11
28.997
21
-7.94705
0
LINE
8
BLACK
6
CONTINUOUS
10
28.997
20
-7.94705
11
28.997
21
-6.75295
0
LINE
8
BLACK
6
CONTINUOUS
10
28.997
20
-6.75295
11
21.803
21
-6.75295
0
LINE
8
BLACK
6
CONTINUOUS
10
29.0004
20
-4.99711
11
29.0005
21
-4.99709
0
LINE
8
BLACK
6
CONTINUOUS
10
29.0005
20
-4.99709
11
29.0006
21
-4.99716
0
LINE
8
BLACK
6
CONTINUOUS
10
29.0006
20
-4.99716
11
29.001
21
-4.99723
0
LINE
8
BLACK
6
CONTINUOUS
10
29.001
20
-4.99723
11
29.0016
21
-4.99772
0
LINE
8
BLACK
6
CONTINUOUS
10
29.0016
20
-4.99772
11
29.0023
21
-4.9981
0
LINE
8
BLACK
6
CONTINUOUS
10
29.0023
20
-4.9981
11
29.0024
21
-4.99835
0
LINE
8
BLACK
6
CONTINUOUS
10
29.0024
20
-4.99835
11
29.0026
21
-4.99852
0
LINE
8
BLACK
6
CONTINUOUS
10
29.0026
20
-4.99852
11
29.0027
21
-4.99928
0
LINE
8
BLACK
6
CONTINUOUS
10
29.0027
20
-4.99928
11
29.003
21
-5
0
LINE
8
BLACK
6
CONTINUOUS
10
29.003
20
-5
11
29.003
21
-6.2
0
LINE
8
BLACK
6
CONTINUOUS
10
29.003
20
-6.2
11
29.0029
21
-6.20038
0
LINE
8
BLACK
6
CONTINUOUS
10
29.0029
20
-6.20038
11
29.0029
21
-6.20051
0
LINE
8
BLACK
6
CONTINUOUS
10
29.0029
20
-6.20051
11
29.0028
21
-6.20063
0
LINE
8
BLACK
6
CONTINUOUS
10
29.0028
20
-6.20063
11
29.0028
21
-6.20101
0
LINE
8
BLACK
6
CONTINUOUS
10
29.0028
20
-6.20101
11
29.0023
21
-6.2016
0
LINE
8
BLACK
6
CONTINUOUS
10
29.0023
20
-6.2016
11
29.0019
21
-6.20226
0
LINE
8
BLACK
6
CONTINUOUS
10
29.0019
20
-6.20226
11
29.0016
21
-6.20235
0
LINE
8
BLACK
6
CONTINUOUS
10
29.0016
20
-6.20235
11
29.0015
21
-6.20256
0
LINE
8
BLACK
6
CONTINUOUS
10
29.0015
20
-6.20256
11
29.0007
21
-6.20269
0
LINE
8
BLACK
6
CONTINUOUS
10
29.0007
20
-6.20269
11
29
21
-6.20295
0
LINE
8
BLACK
6
CONTINUOUS
10
29
20
-6.20295
11
21.8
21
-6.20295
0
LINE
8
BLACK
6
CONTINUOUS
10
21.8
20
-6.20295
11
21.7996
21
-6.20289
0
LINE
8
BLACK
6
CONTINUOUS
10
21.7996
20
-6.20289
11
21.7995
21
-6.20291
0
LINE
8
BLACK
6
CONTINUOUS
10
21.7995
20
-6.20291
11
21.7994
21
-6.20284
0
LINE
8
BLACK
6
CONTINUOUS
10
21.7994
20
-6.20284
11
21.799
21
-6.20277
0
LINE
8
BLACK
6
CONTINUOUS
10
21.799
20
-6.20277
11
21.7984
21
-6.20228
0
LINE
8
BLACK
6
CONTINUOUS
10
21.7984
20
-6.20228
11
21.7977
21
-6.2019
0
LINE
8
BLACK
6
CONTINUOUS
10
21.7977
20
-6.2019
11
21.7976
21
-6.20165
0
LINE
8
BLACK
6
CONTINUOUS
10
21.7976
20
-6.20165
11
21.7974
21
-6.20148
0
LINE
8
BLACK
6
CONTINUOUS
10
21.7974
20
-6.20148
11
21.7973
21
-6.20072
0
LINE
8
BLACK
6
CONTINUOUS
10
21.7973
20
-6.20072
11
21.797
21
-6.2
0
LINE
8
BLACK
6
CONTINUOUS
10
21.797
20
-6.2
11
21.797
21
-5
0
LINE
8
BLACK
6
CONTINUOUS
10
21.797
20
-5
11
21.7971
21
-4.99962
0
LINE
8
BLACK
6
CONTINUOUS
10
21.7971
20
-4.99962
11
21.7971
21
-4.99949
0
LINE
8
BLACK
6
CONTINUOUS
10
21.7971
20
-4.99949
11
21.7972
21
-4.99937
0
LINE
8
BLACK
6
CONTINUOUS
10
21.7972
20
-4.99937
11
21.7972
21
-4.99899
0
LINE
8
BLACK
6
CONTINUOUS
10
21.7972
20
-4.99899
11
21.7977
21
-4.9984
0
LINE
8
BLACK
6
CONTINUOUS
10
21.7977
20
-4.9984
11
21.7981
21
-4.99774
0
LINE
8
BLACK
6
CONTINUOUS
10
21.7981
20
-4.99774
11
21.7984
21
-4.99765
0
LINE
8
BLACK
6
CONTINUOUS
10
21.7984
20
-4.99765
11
21.7985
21
-4.99744
0
LINE
8
BLACK
6
CONTINUOUS
10
21.7985
20
-4.99744
11
21.7993
21
-4.99731
0
LINE
8
BLACK
6
CONTINUOUS
10
21.7993
20
-4.99731
11
21.8
21
-4.99705
0
LINE
8
BLACK
6
CONTINUOUS
10
21.8
20
-4.99705
11
29
21
-4.99705
0
LINE
8
BLACK
6
CONTINUOUS
10
29
20
-4.99705
11
29.0004
21
-4.99711
0
LINE
8
BLACK
6
CONTINUOUS
10
21.803
20
-5.00295
11
21.803
21
-6.19705
0
LINE
8
BLACK
6
CONTINUOUS
10
21.803
20
-6.19705
11
28.997
21
-6.19705
0
LINE
8
BLACK
6
CONTINUOUS
10
28.997
20
-6.19705
11
28.997
21
-5.00295
0
LINE
8
BLACK
6
CONTINUOUS
10
28.997
20
-5.00295
11
21.803
21
-5.00295
0
LINE
8
BLACK
6
CONTINUOUS
10
29.0004
20
-3.24711
11
29.0005
21
-3.24709
0
LINE
8
BLACK
6
CONTINUOUS
10
29.0005
20
-3.24709
11
29.0006
21
-3.24716
0
LINE
8
BLACK
6
CONTINUOUS
10
29.0006
20
-3.24716
11
29.001
21
-3.24723
0
LINE
8
BLACK
6
CONTINUOUS
10
29.001
20
-3.24723
11
29.0016
21
-3.24772
0
LINE
8
BLACK
6
CONTINUOUS
10
29.0016
20
-3.24772
11
29.0023
21
-3.2481
0
LINE
8
BLACK
6
CONTINUOUS
10
29.0023
20
-3.2481
11
29.0024
21
-3.24835
0
LINE
8
BLACK
6
CONTINUOUS
10
29.0024
20
-3.24835
11
29.0026
21
-3.24852
0
LINE
8
BLACK
6
CONTINUOUS
10
29.0026
20
-3.24852
11
29.0027
21
-3.24928
0
LINE
8
BLACK
6
CONTINUOUS
10
29.0027
20
-3.24928
11
29.003
21
-3.25
0
LINE
8
BLACK
6
CONTINUOUS
10
29.003
20
-3.25
11
29.003
21
-4.45
0
LINE
8
BLACK
6
CONTINUOUS
10
29.003
20
-4.45
11
29.0029
21
-4.45038
0
LINE
8
BLACK
6
CONTINUOUS
10
29.0029
20
-4.45038
11
29.0029
21
-4.45051
0
LINE
8
BLACK
6
CONTINUOUS
10
29.0029
20
-4.45051
11
29.0028
21
-4.45063
0
LINE
8
BLACK
6
CONTINUOUS
10
29.0028
20
-4.45063
11
29.0028
21
-4.45101
0
LINE
8
BLACK
6
CONTINUOUS
10
29.0028
20
-4.45101
11
29.0023
21
-4.4516
0
LINE
8
BLACK
6
CONTINUOUS
10
29.0023
20
-4.4516
11
29.0019
21
-4.45226
0
LINE
8
BLACK
6
CONTINUOUS
10
29.0019
20
-4.45226
11
29.0016
21
-4.45235
0
LINE
8
BLACK
6
CONTINUOUS
10
29.0016
20
-4.45235
11
29.0015
21
-4.45256
0
LINE
8
BLACK
6
CONTINUOUS
10
29.0015
20
-4.45256
11
29.0007
21
-4.45269
0
LINE
8
BLACK
6
CONTINUOUS
10
29.0007
20
-4.45269
11
29
21
-4.45295
0
LINE
8
BLACK
6
CONTINUOUS
10
29
20
-4.45295
11
21.8
21
-4.45295
0
LINE
8
BLACK
6
CONTINUOUS
10
21.8
20
-4.45295
11
21.7996
21
-4.45289
0
LINE
8
BLACK
6
CONTINUOUS
10
21.7996
20
-4.45289
11
21.7995
21
-4.45291
0
LINE
8
BLACK
6
CONTINUOUS
10
21.7995
20
-4.45291
11
21.7994
21
-4.45284
0
LINE
8
BLACK
6
CONTINUOUS
10
21.7994
20
-4.45284
11
21.799
21
-4.45277
0
LINE
8
BLACK
6
CONTINUOUS
10
21.799
20
-4.45277
11
21.7984
21
-4.45228
0
LINE
8
BLACK
6
CONTINUOUS
10
21.7984
20
-4.45228
11
21.7977
21
-4.4519
0
LINE
8
BLACK
6
CONTINUOUS
10
21.7977
20
-4.4519
11
21.7976
21
-4.45165
0
LINE
8
BLACK
6
CONTINUOUS
10
21.7976
20
-4.45165
11
21.7974
21
-4.45148
0
LINE
8
BLACK
6
CONTINUOUS
10
21.7974
20
-4.45148
11
21.7973
21
-4.45072
0
LINE
8
BLACK
6
CONTINUOUS
10
21.7973
20
-4.45072
11
21.797
21
-4.45
0
LINE
8
BLACK
6
CONTINUOUS
10
21.797
20
-4.45
11
21.797
21
-3.25
0
LINE
8
BLACK
6
CONTINUOUS
10
21.797
20
-3.25
11
21.7971
21
-3.24962
0
LINE
8
BLACK
6
CONTINUOUS
10
21.7971
20
-3.24962
11
21.7971
21
-3.24949
0
LINE
8
BLACK
6
CONTINUOUS
10
21.7971
20
-3.24949
11
21.7972
21
-3.24937
0
LINE
8
BLACK
6
CONTINUOUS
10
21.7972
20
-3.24937
11
21.7972
21
-3.24899
0
LINE
8
BLACK
6
CONTINUOUS
10
21.7972
20
-3.24899
11
21.7977
21
-3.2484
0
LINE
8
BLACK
6
CONTINUOUS
10
21.7977
20
-3.2484
11
21.7981
21
-3.24774
0
LINE
8
BLACK
6
CONTINUOUS
10
21.7981
20
-3.24774
11
21.7984
21
-3.24765
0
LINE
8
BLACK
6
CONTINUOUS
10
21.7984
20
-3.24765
11
21.7985
21
-3.24744
0
LINE
8
BLACK
6
CONTINUOUS
10
21.7985
20
-3.24744
11
21.7993
21
-3.24731
0
LINE
8
BLACK
6
CONTINUOUS
10
21.7993
20
-3.24731
11
21.8
21
-3.24705
0
LINE
8
BLACK
6
CONTINUOUS
10
21.8
20
-3.24705
11
29
21
-3.24705
0
LINE
8
BLACK
6
CONTINUOUS
10
29
20
-3.24705
11
29.0004
21
-3.24711
0
LINE
8
BLACK
6
CONTINUOUS
10
21.803
20
-4.44705
11
28.997
21
-4.44705
0
LINE
8
BLACK
6
CONTINUOUS
10
28.997
20
-4.44705
11
28.997
21
-3.25295
0
LINE
8
BLACK
6
CONTINUOUS
10
28.997
20
-3.25295
11
21.803
21
-3.25295
0
LINE
8
BLACK
6
CONTINUOUS
10
21.803
20
-3.25295
11
21.803
21
-4.44705
  0
ENDSEC
  0
EOF
