  0
SECTION
  2
HEADER
  9
$ANGBASE
  50
0.0
  9
$ANGDIR
  70
1
  9
$MEASUREMENT
  70
0
  0
ENDSEC
  0
SECTION
  2
TABLES
  0
TABLE
  2
LTYPE
  70
4
  0
LTYPE
  5
40F
  2
CONTINUOUS
  70
0
  3
Solid line
  72
65
  73
0
  40
0.0
  0
LTYPE
  5
410
  2
DASHDOT
 70
0
  3
Dash Dot ____ _ ____ _
 72
65
 73
4
 40
2.0
 49
1.25
 49
-0.25
 49
0.25
 49
-0.25
  0
LTYPE
  5
411
  2
DASHED
 70
0
  3
Dashed __ __ __ __ __
 72
65
 73
2
 40
0.75
 49
0.5
 49
-0.25
  0
LTYPE
  5
43B
  2
DOTTED
 70
0
  3
Dotted .  .  .  .
 72
65
 73
2
 40
0.2
 49
0.0
 49
-0.2
  0
ENDTAB
  0
TABLE
  2
STYLE
  70
4
  0
STYLE
  2
KICAD
  70
0
  40
0
  41
1
  42
1
  50
0
  71
0
  3
isocp.shx
  0
STYLE
  2
KICADB
  70
0
  40
0
  41
1
  42
1
  50
0
  71
0
  3
isocp.shx
  0
STYLE
  2
KICADI
  70
0
  40
0
  41
1
  42
1
  50
15
  71
0
  3
isocp.shx
  0
STYLE
  2
KICADBI
  70
0
  40
0
  41
1
  42
1
  50
15
  71
0
  3
isocp.shx
  0
ENDTAB
  0
TABLE
  2
LAYER
  70
1
  0
LAYER
  2
BLACK
  70
0
  62
7
  6
CONTINUOUS
  0
ENDTAB
  0
ENDSEC
  0
SECTION
  2
ENTITIES
0
LINE
8
BLACK
6
CONTINUOUS
10
29.9004
20
-2.54711
11
29.9005
21
-2.54709
0
LINE
8
BLACK
6
CONTINUOUS
10
29.9005
20
-2.54709
11
29.9006
21
-2.54716
0
LINE
8
BLACK
6
CONTINUOUS
10
29.9006
20
-2.54716
11
29.901
21
-2.54723
0
LINE
8
BLACK
6
CONTINUOUS
10
29.901
20
-2.54723
11
29.9016
21
-2.54772
0
LINE
8
BLACK
6
CONTINUOUS
10
29.9016
20
-2.54772
11
29.9023
21
-2.5481
0
LINE
8
BLACK
6
CONTINUOUS
10
29.9023
20
-2.5481
11
29.9024
21
-2.54835
0
LINE
8
BLACK
6
CONTINUOUS
10
29.9024
20
-2.54835
11
29.9026
21
-2.54852
0
LINE
8
BLACK
6
CONTINUOUS
10
29.9026
20
-2.54852
11
29.9027
21
-2.54928
0
LINE
8
BLACK
6
CONTINUOUS
10
29.9027
20
-2.54928
11
29.903
21
-2.55
0
LINE
8
BLACK
6
CONTINUOUS
10
29.903
20
-2.55
11
29.903
21
-16.55
0
LINE
8
BLACK
6
CONTINUOUS
10
29.903
20
-16.55
11
29.9029
21
-16.5504
0
LINE
8
BLACK
6
CONTINUOUS
10
29.9029
20
-16.5504
11
29.9029
21
-16.5505
0
LINE
8
BLACK
6
CONTINUOUS
10
29.9029
20
-16.5505
11
29.9028
21
-16.5506
0
LINE
8
BLACK
6
CONTINUOUS
10
29.9028
20
-16.5506
11
29.9028
21
-16.551
0
LINE
8
BLACK
6
CONTINUOUS
10
29.9028
20
-16.551
11
29.9023
21
-16.5516
0
LINE
8
BLACK
6
CONTINUOUS
10
29.9023
20
-16.5516
11
29.9019
21
-16.5523
0
LINE
8
BLACK
6
CONTINUOUS
10
29.9019
20
-16.5523
11
29.9016
21
-16.5524
0
LINE
8
BLACK
6
CONTINUOUS
10
29.9016
20
-16.5524
11
29.9015
21
-16.5526
0
LINE
8
BLACK
6
CONTINUOUS
10
29.9015
20
-16.5526
11
29.9007
21
-16.5527
0
LINE
8
BLACK
6
CONTINUOUS
10
29.9007
20
-16.5527
11
29.9
21
-16.553
0
LINE
8
BLACK
6
CONTINUOUS
10
29.9
20
-16.553
11
4.9
21
-16.553
0
LINE
8
BLACK
6
CONTINUOUS
10
4.9
20
-16.553
11
4.89962
21
-16.5529
0
LINE
8
BLACK
6
CONTINUOUS
10
4.89962
20
-16.5529
11
4.89949
21
-16.5529
0
LINE
8
BLACK
6
CONTINUOUS
10
4.89949
20
-16.5529
11
4.89937
21
-16.5528
0
LINE
8
BLACK
6
CONTINUOUS
10
4.89937
20
-16.5528
11
4.89899
21
-16.5528
0
LINE
8
BLACK
6
CONTINUOUS
10
4.89899
20
-16.5528
11
4.8984
21
-16.5523
0
LINE
8
BLACK
6
CONTINUOUS
10
4.8984
20
-16.5523
11
4.89774
21
-16.5519
0
LINE
8
BLACK
6
CONTINUOUS
10
4.89774
20
-16.5519
11
4.89765
21
-16.5516
0
LINE
8
BLACK
6
CONTINUOUS
10
4.89765
20
-16.5516
11
4.89744
21
-16.5515
0
LINE
8
BLACK
6
CONTINUOUS
10
4.89744
20
-16.5515
11
4.89731
21
-16.5507
0
LINE
8
BLACK
6
CONTINUOUS
10
4.89731
20
-16.5507
11
4.89705
21
-16.55
0
LINE
8
BLACK
6
CONTINUOUS
10
4.89705
20
-16.55
11
4.89705
21
-2.55
0
LINE
8
BLACK
6
CONTINUOUS
10
4.89705
20
-2.55
11
4.89711
21
-2.54962
0
LINE
8
BLACK
6
CONTINUOUS
10
4.89711
20
-2.54962
11
4.89709
21
-2.54949
0
LINE
8
BLACK
6
CONTINUOUS
10
4.89709
20
-2.54949
11
4.89716
21
-2.54937
0
LINE
8
BLACK
6
CONTINUOUS
10
4.89716
20
-2.54937
11
4.89723
21
-2.54899
0
LINE
8
BLACK
6
CONTINUOUS
10
4.89723
20
-2.54899
11
4.89772
21
-2.5484
0
LINE
8
BLACK
6
CONTINUOUS
10
4.89772
20
-2.5484
11
4.8981
21
-2.54774
0
LINE
8
BLACK
6
CONTINUOUS
10
4.8981
20
-2.54774
11
4.89835
21
-2.54765
0
LINE
8
BLACK
6
CONTINUOUS
10
4.89835
20
-2.54765
11
4.89852
21
-2.54744
0
LINE
8
BLACK
6
CONTINUOUS
10
4.89852
20
-2.54744
11
4.89928
21
-2.54731
0
LINE
8
BLACK
6
CONTINUOUS
10
4.89928
20
-2.54731
11
4.9
21
-2.54705
0
LINE
8
BLACK
6
CONTINUOUS
10
4.9
20
-2.54705
11
29.9
21
-2.54705
0
LINE
8
BLACK
6
CONTINUOUS
10
29.9
20
-2.54705
11
29.9004
21
-2.54711
0
LINE
8
BLACK
6
CONTINUOUS
10
4.90295
20
-2.55295
11
4.90295
21
-16.547
0
LINE
8
BLACK
6
CONTINUOUS
10
4.90295
20
-16.547
11
29.897
21
-16.547
0
LINE
8
BLACK
6
CONTINUOUS
10
29.897
20
-16.547
11
29.897
21
-2.55295
0
LINE
8
BLACK
6
CONTINUOUS
10
29.897
20
-2.55295
11
4.90295
21
-2.55295
  0
ENDSEC
  0
EOF
