G04 #@! TF.GenerationSoftware,KiCad,Pcbnew,6.0.5+dfsg-1~bpo11+1*
G04 #@! TF.CreationDate,2022-07-25T15:23:16+00:00*
G04 #@! TF.ProjectId,ribbon_board,72696262-6f6e-45f6-926f-6172642e6b69,0*
G04 #@! TF.SameCoordinates,Original*
G04 #@! TF.FileFunction,Soldermask,Bot*
G04 #@! TF.FilePolarity,Negative*
%FSLAX46Y46*%
G04 Gerber Fmt 4.6, Leading zero omitted, Abs format (unit mm)*
G04 Created by KiCad (PCBNEW 6.0.5+dfsg-1~bpo11+1) date 2022-07-25 15:23:16*
%MOMM*%
%LPD*%
G01*
G04 APERTURE LIST*
%ADD10C,2.500000*%
%ADD11O,2.720000X3.240000*%
%ADD12R,1.800000X1.800000*%
%ADD13C,1.800000*%
%ADD14O,1.740000X2.190000*%
%ADD15R,0.900000X1.200000*%
%ADD16C,2.000000*%
%ADD17O,2.190000X1.740000*%
%ADD18C,1.600000*%
%ADD19R,1.600000X1.600000*%
%ADD20C,2.600000*%
%ADD21C,1.440000*%
%ADD22C,1.700000*%
%ADD23R,1.300000X0.900000*%
G04 APERTURE END LIST*
D10*
X69850000Y-119000000D03*
X69850000Y-114300000D03*
X69850000Y-109600000D03*
D11*
X160300000Y-63620000D03*
X169900000Y-63620000D03*
D12*
X162600000Y-71120000D03*
D13*
X165100000Y-71120000D03*
X167600000Y-71120000D03*
D11*
X204750000Y-63620000D03*
X214350000Y-63620000D03*
D12*
X207050000Y-71120000D03*
D13*
X209550000Y-71120000D03*
X212050000Y-71120000D03*
D11*
X81000000Y-63620000D03*
X71400000Y-63620000D03*
D12*
X73700000Y-71120000D03*
D13*
X76200000Y-71120000D03*
X78700000Y-71120000D03*
D10*
X152400000Y-119000000D03*
X152400000Y-114300000D03*
X152400000Y-109600000D03*
X209550000Y-119000000D03*
X209550000Y-114300000D03*
X209550000Y-109600000D03*
X107950000Y-119000000D03*
X107950000Y-114300000D03*
X107950000Y-109600000D03*
D11*
X125450000Y-63620000D03*
X115850000Y-63620000D03*
D12*
X118150000Y-71120000D03*
D13*
X120650000Y-71120000D03*
X123150000Y-71120000D03*
D10*
X88900000Y-119000000D03*
X88900000Y-114300000D03*
X88900000Y-109600000D03*
X127000000Y-119000000D03*
X127000000Y-114300000D03*
X127000000Y-109600000D03*
X234950000Y-68200000D03*
X234950000Y-63500000D03*
X234950000Y-58800000D03*
D11*
X230150000Y-114430000D03*
X239750000Y-114430000D03*
D12*
X232450000Y-121930000D03*
D13*
X234950000Y-121930000D03*
X237450000Y-121930000D03*
G36*
G01*
X209349000Y-86012000D02*
X209349000Y-86962000D01*
G75*
G02*
X209099000Y-87212000I-250000J0D01*
G01*
X208599000Y-87212000D01*
G75*
G02*
X208349000Y-86962000I0J250000D01*
G01*
X208349000Y-86012000D01*
G75*
G02*
X208599000Y-85762000I250000J0D01*
G01*
X209099000Y-85762000D01*
G75*
G02*
X209349000Y-86012000I0J-250000D01*
G01*
G37*
G36*
G01*
X207449000Y-86012000D02*
X207449000Y-86962000D01*
G75*
G02*
X207199000Y-87212000I-250000J0D01*
G01*
X206699000Y-87212000D01*
G75*
G02*
X206449000Y-86962000I0J250000D01*
G01*
X206449000Y-86012000D01*
G75*
G02*
X206699000Y-85762000I250000J0D01*
G01*
X207199000Y-85762000D01*
G75*
G02*
X207449000Y-86012000I0J-250000D01*
G01*
G37*
G36*
G01*
X142005000Y-128841000D02*
X142005000Y-127151000D01*
G75*
G02*
X142255000Y-126901000I250000J0D01*
G01*
X143495000Y-126901000D01*
G75*
G02*
X143745000Y-127151000I0J-250000D01*
G01*
X143745000Y-128841000D01*
G75*
G02*
X143495000Y-129091000I-250000J0D01*
G01*
X142255000Y-129091000D01*
G75*
G02*
X142005000Y-128841000I0J250000D01*
G01*
G37*
D14*
X145415000Y-127996000D03*
X147955000Y-127996000D03*
D15*
X94995000Y-108585000D03*
X91695000Y-108585000D03*
G36*
G01*
X199824000Y-82837000D02*
X199824000Y-83787000D01*
G75*
G02*
X199574000Y-84037000I-250000J0D01*
G01*
X199074000Y-84037000D01*
G75*
G02*
X198824000Y-83787000I0J250000D01*
G01*
X198824000Y-82837000D01*
G75*
G02*
X199074000Y-82587000I250000J0D01*
G01*
X199574000Y-82587000D01*
G75*
G02*
X199824000Y-82837000I0J-250000D01*
G01*
G37*
G36*
G01*
X197924000Y-82837000D02*
X197924000Y-83787000D01*
G75*
G02*
X197674000Y-84037000I-250000J0D01*
G01*
X197174000Y-84037000D01*
G75*
G02*
X196924000Y-83787000I0J250000D01*
G01*
X196924000Y-82837000D01*
G75*
G02*
X197174000Y-82587000I250000J0D01*
G01*
X197674000Y-82587000D01*
G75*
G02*
X197924000Y-82837000I0J-250000D01*
G01*
G37*
G36*
G01*
X139323500Y-124518000D02*
X139323500Y-125418000D01*
G75*
G02*
X139073500Y-125668000I-250000J0D01*
G01*
X138548500Y-125668000D01*
G75*
G02*
X138298500Y-125418000I0J250000D01*
G01*
X138298500Y-124518000D01*
G75*
G02*
X138548500Y-124268000I250000J0D01*
G01*
X139073500Y-124268000D01*
G75*
G02*
X139323500Y-124518000I0J-250000D01*
G01*
G37*
G36*
G01*
X137498500Y-124518000D02*
X137498500Y-125418000D01*
G75*
G02*
X137248500Y-125668000I-250000J0D01*
G01*
X136723500Y-125668000D01*
G75*
G02*
X136473500Y-125418000I0J250000D01*
G01*
X136473500Y-124518000D01*
G75*
G02*
X136723500Y-124268000I250000J0D01*
G01*
X137248500Y-124268000D01*
G75*
G02*
X137498500Y-124518000I0J-250000D01*
G01*
G37*
X214151000Y-88900000D03*
X217451000Y-88900000D03*
X230661000Y-88900000D03*
X233961000Y-88900000D03*
G36*
G01*
X216591000Y-97340000D02*
X216591000Y-98240000D01*
G75*
G02*
X216341000Y-98490000I-250000J0D01*
G01*
X215816000Y-98490000D01*
G75*
G02*
X215566000Y-98240000I0J250000D01*
G01*
X215566000Y-97340000D01*
G75*
G02*
X215816000Y-97090000I250000J0D01*
G01*
X216341000Y-97090000D01*
G75*
G02*
X216591000Y-97340000I0J-250000D01*
G01*
G37*
G36*
G01*
X214766000Y-97340000D02*
X214766000Y-98240000D01*
G75*
G02*
X214516000Y-98490000I-250000J0D01*
G01*
X213991000Y-98490000D01*
G75*
G02*
X213741000Y-98240000I0J250000D01*
G01*
X213741000Y-97340000D01*
G75*
G02*
X213991000Y-97090000I250000J0D01*
G01*
X214516000Y-97090000D01*
G75*
G02*
X214766000Y-97340000I0J-250000D01*
G01*
G37*
X133095000Y-116205000D03*
X129795000Y-116205000D03*
G36*
G01*
X189029000Y-66200000D02*
X189029000Y-67150000D01*
G75*
G02*
X188779000Y-67400000I-250000J0D01*
G01*
X188279000Y-67400000D01*
G75*
G02*
X188029000Y-67150000I0J250000D01*
G01*
X188029000Y-66200000D01*
G75*
G02*
X188279000Y-65950000I250000J0D01*
G01*
X188779000Y-65950000D01*
G75*
G02*
X189029000Y-66200000I0J-250000D01*
G01*
G37*
G36*
G01*
X187129000Y-66200000D02*
X187129000Y-67150000D01*
G75*
G02*
X186879000Y-67400000I-250000J0D01*
G01*
X186379000Y-67400000D01*
G75*
G02*
X186129000Y-67150000I0J250000D01*
G01*
X186129000Y-66200000D01*
G75*
G02*
X186379000Y-65950000I250000J0D01*
G01*
X186879000Y-65950000D01*
G75*
G02*
X187129000Y-66200000I0J-250000D01*
G01*
G37*
D16*
X61214000Y-122682000D03*
X240030000Y-58420000D03*
D15*
X94995000Y-120015000D03*
X91695000Y-120015000D03*
G36*
G01*
X216591000Y-93530000D02*
X216591000Y-94430000D01*
G75*
G02*
X216341000Y-94680000I-250000J0D01*
G01*
X215816000Y-94680000D01*
G75*
G02*
X215566000Y-94430000I0J250000D01*
G01*
X215566000Y-93530000D01*
G75*
G02*
X215816000Y-93280000I250000J0D01*
G01*
X216341000Y-93280000D01*
G75*
G02*
X216591000Y-93530000I0J-250000D01*
G01*
G37*
G36*
G01*
X214766000Y-93530000D02*
X214766000Y-94430000D01*
G75*
G02*
X214516000Y-94680000I-250000J0D01*
G01*
X213991000Y-94680000D01*
G75*
G02*
X213741000Y-94430000I0J250000D01*
G01*
X213741000Y-93530000D01*
G75*
G02*
X213991000Y-93280000I250000J0D01*
G01*
X214516000Y-93280000D01*
G75*
G02*
X214766000Y-93530000I0J-250000D01*
G01*
G37*
G36*
G01*
X57575000Y-99206000D02*
X59265000Y-99206000D01*
G75*
G02*
X59515000Y-99456000I0J-250000D01*
G01*
X59515000Y-100696000D01*
G75*
G02*
X59265000Y-100946000I-250000J0D01*
G01*
X57575000Y-100946000D01*
G75*
G02*
X57325000Y-100696000I0J250000D01*
G01*
X57325000Y-99456000D01*
G75*
G02*
X57575000Y-99206000I250000J0D01*
G01*
G37*
D17*
X58420000Y-102616000D03*
X58420000Y-105156000D03*
X58420000Y-107696000D03*
G36*
G01*
X163985000Y-124010000D02*
X163985000Y-124910000D01*
G75*
G02*
X163735000Y-125160000I-250000J0D01*
G01*
X163210000Y-125160000D01*
G75*
G02*
X162960000Y-124910000I0J250000D01*
G01*
X162960000Y-124010000D01*
G75*
G02*
X163210000Y-123760000I250000J0D01*
G01*
X163735000Y-123760000D01*
G75*
G02*
X163985000Y-124010000I0J-250000D01*
G01*
G37*
G36*
G01*
X162160000Y-124010000D02*
X162160000Y-124910000D01*
G75*
G02*
X161910000Y-125160000I-250000J0D01*
G01*
X161385000Y-125160000D01*
G75*
G02*
X161135000Y-124910000I0J250000D01*
G01*
X161135000Y-124010000D01*
G75*
G02*
X161385000Y-123760000I250000J0D01*
G01*
X161910000Y-123760000D01*
G75*
G02*
X162160000Y-124010000I0J-250000D01*
G01*
G37*
G36*
G01*
X161724000Y-82837000D02*
X161724000Y-83787000D01*
G75*
G02*
X161474000Y-84037000I-250000J0D01*
G01*
X160974000Y-84037000D01*
G75*
G02*
X160724000Y-83787000I0J250000D01*
G01*
X160724000Y-82837000D01*
G75*
G02*
X160974000Y-82587000I250000J0D01*
G01*
X161474000Y-82587000D01*
G75*
G02*
X161724000Y-82837000I0J-250000D01*
G01*
G37*
G36*
G01*
X159824000Y-82837000D02*
X159824000Y-83787000D01*
G75*
G02*
X159574000Y-84037000I-250000J0D01*
G01*
X159074000Y-84037000D01*
G75*
G02*
X158824000Y-83787000I0J250000D01*
G01*
X158824000Y-82837000D01*
G75*
G02*
X159074000Y-82587000I250000J0D01*
G01*
X159574000Y-82587000D01*
G75*
G02*
X159824000Y-82837000I0J-250000D01*
G01*
G37*
G36*
G01*
X230143000Y-76932000D02*
X230143000Y-76032000D01*
G75*
G02*
X230393000Y-75782000I250000J0D01*
G01*
X230918000Y-75782000D01*
G75*
G02*
X231168000Y-76032000I0J-250000D01*
G01*
X231168000Y-76932000D01*
G75*
G02*
X230918000Y-77182000I-250000J0D01*
G01*
X230393000Y-77182000D01*
G75*
G02*
X230143000Y-76932000I0J250000D01*
G01*
G37*
G36*
G01*
X231968000Y-76932000D02*
X231968000Y-76032000D01*
G75*
G02*
X232218000Y-75782000I250000J0D01*
G01*
X232743000Y-75782000D01*
G75*
G02*
X232993000Y-76032000I0J-250000D01*
G01*
X232993000Y-76932000D01*
G75*
G02*
X232743000Y-77182000I-250000J0D01*
G01*
X232218000Y-77182000D01*
G75*
G02*
X231968000Y-76932000I0J250000D01*
G01*
G37*
D15*
X94995000Y-116205000D03*
X91695000Y-116205000D03*
G36*
G01*
X196949000Y-76142000D02*
X196949000Y-75242000D01*
G75*
G02*
X197199000Y-74992000I250000J0D01*
G01*
X197724000Y-74992000D01*
G75*
G02*
X197974000Y-75242000I0J-250000D01*
G01*
X197974000Y-76142000D01*
G75*
G02*
X197724000Y-76392000I-250000J0D01*
G01*
X197199000Y-76392000D01*
G75*
G02*
X196949000Y-76142000I0J250000D01*
G01*
G37*
G36*
G01*
X198774000Y-76142000D02*
X198774000Y-75242000D01*
G75*
G02*
X199024000Y-74992000I250000J0D01*
G01*
X199549000Y-74992000D01*
G75*
G02*
X199799000Y-75242000I0J-250000D01*
G01*
X199799000Y-76142000D01*
G75*
G02*
X199549000Y-76392000I-250000J0D01*
G01*
X199024000Y-76392000D01*
G75*
G02*
X198774000Y-76142000I0J250000D01*
G01*
G37*
G36*
G01*
X178915000Y-124910000D02*
X178915000Y-124010000D01*
G75*
G02*
X179165000Y-123760000I250000J0D01*
G01*
X179690000Y-123760000D01*
G75*
G02*
X179940000Y-124010000I0J-250000D01*
G01*
X179940000Y-124910000D01*
G75*
G02*
X179690000Y-125160000I-250000J0D01*
G01*
X179165000Y-125160000D01*
G75*
G02*
X178915000Y-124910000I0J250000D01*
G01*
G37*
G36*
G01*
X180740000Y-124910000D02*
X180740000Y-124010000D01*
G75*
G02*
X180990000Y-123760000I250000J0D01*
G01*
X181515000Y-123760000D01*
G75*
G02*
X181765000Y-124010000I0J-250000D01*
G01*
X181765000Y-124910000D01*
G75*
G02*
X181515000Y-125160000I-250000J0D01*
G01*
X180990000Y-125160000D01*
G75*
G02*
X180740000Y-124910000I0J250000D01*
G01*
G37*
G36*
G01*
X167439000Y-86012000D02*
X167439000Y-86962000D01*
G75*
G02*
X167189000Y-87212000I-250000J0D01*
G01*
X166689000Y-87212000D01*
G75*
G02*
X166439000Y-86962000I0J250000D01*
G01*
X166439000Y-86012000D01*
G75*
G02*
X166689000Y-85762000I250000J0D01*
G01*
X167189000Y-85762000D01*
G75*
G02*
X167439000Y-86012000I0J-250000D01*
G01*
G37*
G36*
G01*
X165539000Y-86012000D02*
X165539000Y-86962000D01*
G75*
G02*
X165289000Y-87212000I-250000J0D01*
G01*
X164789000Y-87212000D01*
G75*
G02*
X164539000Y-86962000I0J250000D01*
G01*
X164539000Y-86012000D01*
G75*
G02*
X164789000Y-85762000I250000J0D01*
G01*
X165289000Y-85762000D01*
G75*
G02*
X165539000Y-86012000I0J-250000D01*
G01*
G37*
G36*
G01*
X216591000Y-112580000D02*
X216591000Y-113480000D01*
G75*
G02*
X216341000Y-113730000I-250000J0D01*
G01*
X215816000Y-113730000D01*
G75*
G02*
X215566000Y-113480000I0J250000D01*
G01*
X215566000Y-112580000D01*
G75*
G02*
X215816000Y-112330000I250000J0D01*
G01*
X216341000Y-112330000D01*
G75*
G02*
X216591000Y-112580000I0J-250000D01*
G01*
G37*
G36*
G01*
X214766000Y-112580000D02*
X214766000Y-113480000D01*
G75*
G02*
X214516000Y-113730000I-250000J0D01*
G01*
X213991000Y-113730000D01*
G75*
G02*
X213741000Y-113480000I0J250000D01*
G01*
X213741000Y-112580000D01*
G75*
G02*
X213991000Y-112330000I250000J0D01*
G01*
X214516000Y-112330000D01*
G75*
G02*
X214766000Y-112580000I0J-250000D01*
G01*
G37*
D18*
X160234000Y-97917000D03*
X155234000Y-97917000D03*
G36*
G01*
X227303000Y-82992000D02*
X227303000Y-83942000D01*
G75*
G02*
X227053000Y-84192000I-250000J0D01*
G01*
X226553000Y-84192000D01*
G75*
G02*
X226303000Y-83942000I0J250000D01*
G01*
X226303000Y-82992000D01*
G75*
G02*
X226553000Y-82742000I250000J0D01*
G01*
X227053000Y-82742000D01*
G75*
G02*
X227303000Y-82992000I0J-250000D01*
G01*
G37*
G36*
G01*
X225403000Y-82992000D02*
X225403000Y-83942000D01*
G75*
G02*
X225153000Y-84192000I-250000J0D01*
G01*
X224653000Y-84192000D01*
G75*
G02*
X224403000Y-83942000I0J250000D01*
G01*
X224403000Y-82992000D01*
G75*
G02*
X224653000Y-82742000I250000J0D01*
G01*
X225153000Y-82742000D01*
G75*
G02*
X225403000Y-82992000I0J-250000D01*
G01*
G37*
G36*
G01*
X213741000Y-105860000D02*
X213741000Y-104960000D01*
G75*
G02*
X213991000Y-104710000I250000J0D01*
G01*
X214516000Y-104710000D01*
G75*
G02*
X214766000Y-104960000I0J-250000D01*
G01*
X214766000Y-105860000D01*
G75*
G02*
X214516000Y-106110000I-250000J0D01*
G01*
X213991000Y-106110000D01*
G75*
G02*
X213741000Y-105860000I0J250000D01*
G01*
G37*
G36*
G01*
X215566000Y-105860000D02*
X215566000Y-104960000D01*
G75*
G02*
X215816000Y-104710000I250000J0D01*
G01*
X216341000Y-104710000D01*
G75*
G02*
X216591000Y-104960000I0J-250000D01*
G01*
X216591000Y-105860000D01*
G75*
G02*
X216341000Y-106110000I-250000J0D01*
G01*
X215816000Y-106110000D01*
G75*
G02*
X215566000Y-105860000I0J250000D01*
G01*
G37*
G36*
G01*
X117320000Y-112845000D02*
X117320000Y-111945000D01*
G75*
G02*
X117570000Y-111695000I250000J0D01*
G01*
X118095000Y-111695000D01*
G75*
G02*
X118345000Y-111945000I0J-250000D01*
G01*
X118345000Y-112845000D01*
G75*
G02*
X118095000Y-113095000I-250000J0D01*
G01*
X117570000Y-113095000D01*
G75*
G02*
X117320000Y-112845000I0J250000D01*
G01*
G37*
G36*
G01*
X119145000Y-112845000D02*
X119145000Y-111945000D01*
G75*
G02*
X119395000Y-111695000I250000J0D01*
G01*
X119920000Y-111695000D01*
G75*
G02*
X120170000Y-111945000I0J-250000D01*
G01*
X120170000Y-112845000D01*
G75*
G02*
X119920000Y-113095000I-250000J0D01*
G01*
X119395000Y-113095000D01*
G75*
G02*
X119145000Y-112845000I0J250000D01*
G01*
G37*
G36*
G01*
X178915000Y-113480000D02*
X178915000Y-112580000D01*
G75*
G02*
X179165000Y-112330000I250000J0D01*
G01*
X179690000Y-112330000D01*
G75*
G02*
X179940000Y-112580000I0J-250000D01*
G01*
X179940000Y-113480000D01*
G75*
G02*
X179690000Y-113730000I-250000J0D01*
G01*
X179165000Y-113730000D01*
G75*
G02*
X178915000Y-113480000I0J250000D01*
G01*
G37*
G36*
G01*
X180740000Y-113480000D02*
X180740000Y-112580000D01*
G75*
G02*
X180990000Y-112330000I250000J0D01*
G01*
X181515000Y-112330000D01*
G75*
G02*
X181765000Y-112580000I0J-250000D01*
G01*
X181765000Y-113480000D01*
G75*
G02*
X181515000Y-113730000I-250000J0D01*
G01*
X180990000Y-113730000D01*
G75*
G02*
X180740000Y-113480000I0J250000D01*
G01*
G37*
G36*
G01*
X227411000Y-113190000D02*
X227411000Y-114140000D01*
G75*
G02*
X227161000Y-114390000I-250000J0D01*
G01*
X226661000Y-114390000D01*
G75*
G02*
X226411000Y-114140000I0J250000D01*
G01*
X226411000Y-113190000D01*
G75*
G02*
X226661000Y-112940000I250000J0D01*
G01*
X227161000Y-112940000D01*
G75*
G02*
X227411000Y-113190000I0J-250000D01*
G01*
G37*
G36*
G01*
X225511000Y-113190000D02*
X225511000Y-114140000D01*
G75*
G02*
X225261000Y-114390000I-250000J0D01*
G01*
X224761000Y-114390000D01*
G75*
G02*
X224511000Y-114140000I0J250000D01*
G01*
X224511000Y-113190000D01*
G75*
G02*
X224761000Y-112940000I250000J0D01*
G01*
X225261000Y-112940000D01*
G75*
G02*
X225511000Y-113190000I0J-250000D01*
G01*
G37*
D15*
X75945000Y-120015000D03*
X72645000Y-120015000D03*
G36*
G01*
X181765000Y-120200000D02*
X181765000Y-121100000D01*
G75*
G02*
X181515000Y-121350000I-250000J0D01*
G01*
X180990000Y-121350000D01*
G75*
G02*
X180740000Y-121100000I0J250000D01*
G01*
X180740000Y-120200000D01*
G75*
G02*
X180990000Y-119950000I250000J0D01*
G01*
X181515000Y-119950000D01*
G75*
G02*
X181765000Y-120200000I0J-250000D01*
G01*
G37*
G36*
G01*
X179940000Y-120200000D02*
X179940000Y-121100000D01*
G75*
G02*
X179690000Y-121350000I-250000J0D01*
G01*
X179165000Y-121350000D01*
G75*
G02*
X178915000Y-121100000I0J250000D01*
G01*
X178915000Y-120200000D01*
G75*
G02*
X179165000Y-119950000I250000J0D01*
G01*
X179690000Y-119950000D01*
G75*
G02*
X179940000Y-120200000I0J-250000D01*
G01*
G37*
G36*
G01*
X105558000Y-79225000D02*
X105558000Y-79525000D01*
G75*
G02*
X105408000Y-79675000I-150000J0D01*
G01*
X103758000Y-79675000D01*
G75*
G02*
X103608000Y-79525000I0J150000D01*
G01*
X103608000Y-79225000D01*
G75*
G02*
X103758000Y-79075000I150000J0D01*
G01*
X105408000Y-79075000D01*
G75*
G02*
X105558000Y-79225000I0J-150000D01*
G01*
G37*
G36*
G01*
X105558000Y-80495000D02*
X105558000Y-80795000D01*
G75*
G02*
X105408000Y-80945000I-150000J0D01*
G01*
X103758000Y-80945000D01*
G75*
G02*
X103608000Y-80795000I0J150000D01*
G01*
X103608000Y-80495000D01*
G75*
G02*
X103758000Y-80345000I150000J0D01*
G01*
X105408000Y-80345000D01*
G75*
G02*
X105558000Y-80495000I0J-150000D01*
G01*
G37*
G36*
G01*
X105558000Y-81765000D02*
X105558000Y-82065000D01*
G75*
G02*
X105408000Y-82215000I-150000J0D01*
G01*
X103758000Y-82215000D01*
G75*
G02*
X103608000Y-82065000I0J150000D01*
G01*
X103608000Y-81765000D01*
G75*
G02*
X103758000Y-81615000I150000J0D01*
G01*
X105408000Y-81615000D01*
G75*
G02*
X105558000Y-81765000I0J-150000D01*
G01*
G37*
G36*
G01*
X105558000Y-83035000D02*
X105558000Y-83335000D01*
G75*
G02*
X105408000Y-83485000I-150000J0D01*
G01*
X103758000Y-83485000D01*
G75*
G02*
X103608000Y-83335000I0J150000D01*
G01*
X103608000Y-83035000D01*
G75*
G02*
X103758000Y-82885000I150000J0D01*
G01*
X105408000Y-82885000D01*
G75*
G02*
X105558000Y-83035000I0J-150000D01*
G01*
G37*
G36*
G01*
X105558000Y-84305000D02*
X105558000Y-84605000D01*
G75*
G02*
X105408000Y-84755000I-150000J0D01*
G01*
X103758000Y-84755000D01*
G75*
G02*
X103608000Y-84605000I0J150000D01*
G01*
X103608000Y-84305000D01*
G75*
G02*
X103758000Y-84155000I150000J0D01*
G01*
X105408000Y-84155000D01*
G75*
G02*
X105558000Y-84305000I0J-150000D01*
G01*
G37*
G36*
G01*
X105558000Y-85575000D02*
X105558000Y-85875000D01*
G75*
G02*
X105408000Y-86025000I-150000J0D01*
G01*
X103758000Y-86025000D01*
G75*
G02*
X103608000Y-85875000I0J150000D01*
G01*
X103608000Y-85575000D01*
G75*
G02*
X103758000Y-85425000I150000J0D01*
G01*
X105408000Y-85425000D01*
G75*
G02*
X105558000Y-85575000I0J-150000D01*
G01*
G37*
G36*
G01*
X105558000Y-86845000D02*
X105558000Y-87145000D01*
G75*
G02*
X105408000Y-87295000I-150000J0D01*
G01*
X103758000Y-87295000D01*
G75*
G02*
X103608000Y-87145000I0J150000D01*
G01*
X103608000Y-86845000D01*
G75*
G02*
X103758000Y-86695000I150000J0D01*
G01*
X105408000Y-86695000D01*
G75*
G02*
X105558000Y-86845000I0J-150000D01*
G01*
G37*
G36*
G01*
X100608000Y-86845000D02*
X100608000Y-87145000D01*
G75*
G02*
X100458000Y-87295000I-150000J0D01*
G01*
X98808000Y-87295000D01*
G75*
G02*
X98658000Y-87145000I0J150000D01*
G01*
X98658000Y-86845000D01*
G75*
G02*
X98808000Y-86695000I150000J0D01*
G01*
X100458000Y-86695000D01*
G75*
G02*
X100608000Y-86845000I0J-150000D01*
G01*
G37*
G36*
G01*
X100608000Y-85575000D02*
X100608000Y-85875000D01*
G75*
G02*
X100458000Y-86025000I-150000J0D01*
G01*
X98808000Y-86025000D01*
G75*
G02*
X98658000Y-85875000I0J150000D01*
G01*
X98658000Y-85575000D01*
G75*
G02*
X98808000Y-85425000I150000J0D01*
G01*
X100458000Y-85425000D01*
G75*
G02*
X100608000Y-85575000I0J-150000D01*
G01*
G37*
G36*
G01*
X100608000Y-84305000D02*
X100608000Y-84605000D01*
G75*
G02*
X100458000Y-84755000I-150000J0D01*
G01*
X98808000Y-84755000D01*
G75*
G02*
X98658000Y-84605000I0J150000D01*
G01*
X98658000Y-84305000D01*
G75*
G02*
X98808000Y-84155000I150000J0D01*
G01*
X100458000Y-84155000D01*
G75*
G02*
X100608000Y-84305000I0J-150000D01*
G01*
G37*
G36*
G01*
X100608000Y-83035000D02*
X100608000Y-83335000D01*
G75*
G02*
X100458000Y-83485000I-150000J0D01*
G01*
X98808000Y-83485000D01*
G75*
G02*
X98658000Y-83335000I0J150000D01*
G01*
X98658000Y-83035000D01*
G75*
G02*
X98808000Y-82885000I150000J0D01*
G01*
X100458000Y-82885000D01*
G75*
G02*
X100608000Y-83035000I0J-150000D01*
G01*
G37*
G36*
G01*
X100608000Y-81765000D02*
X100608000Y-82065000D01*
G75*
G02*
X100458000Y-82215000I-150000J0D01*
G01*
X98808000Y-82215000D01*
G75*
G02*
X98658000Y-82065000I0J150000D01*
G01*
X98658000Y-81765000D01*
G75*
G02*
X98808000Y-81615000I150000J0D01*
G01*
X100458000Y-81615000D01*
G75*
G02*
X100608000Y-81765000I0J-150000D01*
G01*
G37*
G36*
G01*
X100608000Y-80495000D02*
X100608000Y-80795000D01*
G75*
G02*
X100458000Y-80945000I-150000J0D01*
G01*
X98808000Y-80945000D01*
G75*
G02*
X98658000Y-80795000I0J150000D01*
G01*
X98658000Y-80495000D01*
G75*
G02*
X98808000Y-80345000I150000J0D01*
G01*
X100458000Y-80345000D01*
G75*
G02*
X100608000Y-80495000I0J-150000D01*
G01*
G37*
G36*
G01*
X100608000Y-79225000D02*
X100608000Y-79525000D01*
G75*
G02*
X100458000Y-79675000I-150000J0D01*
G01*
X98808000Y-79675000D01*
G75*
G02*
X98658000Y-79525000I0J150000D01*
G01*
X98658000Y-79225000D01*
G75*
G02*
X98808000Y-79075000I150000J0D01*
G01*
X100458000Y-79075000D01*
G75*
G02*
X100608000Y-79225000I0J-150000D01*
G01*
G37*
G36*
G01*
X211967500Y-122740000D02*
X211967500Y-123640000D01*
G75*
G02*
X211717500Y-123890000I-250000J0D01*
G01*
X211192500Y-123890000D01*
G75*
G02*
X210942500Y-123640000I0J250000D01*
G01*
X210942500Y-122740000D01*
G75*
G02*
X211192500Y-122490000I250000J0D01*
G01*
X211717500Y-122490000D01*
G75*
G02*
X211967500Y-122740000I0J-250000D01*
G01*
G37*
G36*
G01*
X210142500Y-122740000D02*
X210142500Y-123640000D01*
G75*
G02*
X209892500Y-123890000I-250000J0D01*
G01*
X209367500Y-123890000D01*
G75*
G02*
X209117500Y-123640000I0J250000D01*
G01*
X209117500Y-122740000D01*
G75*
G02*
X209367500Y-122490000I250000J0D01*
G01*
X209892500Y-122490000D01*
G75*
G02*
X210142500Y-122740000I0J-250000D01*
G01*
G37*
X133095000Y-112395000D03*
X129795000Y-112395000D03*
D19*
X198120000Y-115062000D03*
D18*
X195620000Y-115062000D03*
D15*
X75945000Y-116205000D03*
X72645000Y-116205000D03*
G36*
G01*
X138758000Y-86200000D02*
X138758000Y-85250000D01*
G75*
G02*
X139008000Y-85000000I250000J0D01*
G01*
X139508000Y-85000000D01*
G75*
G02*
X139758000Y-85250000I0J-250000D01*
G01*
X139758000Y-86200000D01*
G75*
G02*
X139508000Y-86450000I-250000J0D01*
G01*
X139008000Y-86450000D01*
G75*
G02*
X138758000Y-86200000I0J250000D01*
G01*
G37*
G36*
G01*
X140658000Y-86200000D02*
X140658000Y-85250000D01*
G75*
G02*
X140908000Y-85000000I250000J0D01*
G01*
X141408000Y-85000000D01*
G75*
G02*
X141658000Y-85250000I0J-250000D01*
G01*
X141658000Y-86200000D01*
G75*
G02*
X141408000Y-86450000I-250000J0D01*
G01*
X140908000Y-86450000D01*
G75*
G02*
X140658000Y-86200000I0J250000D01*
G01*
G37*
G36*
G01*
X153769000Y-83889000D02*
X153769000Y-82989000D01*
G75*
G02*
X154019000Y-82739000I250000J0D01*
G01*
X154544000Y-82739000D01*
G75*
G02*
X154794000Y-82989000I0J-250000D01*
G01*
X154794000Y-83889000D01*
G75*
G02*
X154544000Y-84139000I-250000J0D01*
G01*
X154019000Y-84139000D01*
G75*
G02*
X153769000Y-83889000I0J250000D01*
G01*
G37*
G36*
G01*
X155594000Y-83889000D02*
X155594000Y-82989000D01*
G75*
G02*
X155844000Y-82739000I250000J0D01*
G01*
X156369000Y-82739000D01*
G75*
G02*
X156619000Y-82989000I0J-250000D01*
G01*
X156619000Y-83889000D01*
G75*
G02*
X156369000Y-84139000I-250000J0D01*
G01*
X155844000Y-84139000D01*
G75*
G02*
X155594000Y-83889000I0J250000D01*
G01*
G37*
G36*
G01*
X227478000Y-76177000D02*
X227478000Y-76477000D01*
G75*
G02*
X227328000Y-76627000I-150000J0D01*
G01*
X225678000Y-76627000D01*
G75*
G02*
X225528000Y-76477000I0J150000D01*
G01*
X225528000Y-76177000D01*
G75*
G02*
X225678000Y-76027000I150000J0D01*
G01*
X227328000Y-76027000D01*
G75*
G02*
X227478000Y-76177000I0J-150000D01*
G01*
G37*
G36*
G01*
X227478000Y-77447000D02*
X227478000Y-77747000D01*
G75*
G02*
X227328000Y-77897000I-150000J0D01*
G01*
X225678000Y-77897000D01*
G75*
G02*
X225528000Y-77747000I0J150000D01*
G01*
X225528000Y-77447000D01*
G75*
G02*
X225678000Y-77297000I150000J0D01*
G01*
X227328000Y-77297000D01*
G75*
G02*
X227478000Y-77447000I0J-150000D01*
G01*
G37*
G36*
G01*
X227478000Y-78717000D02*
X227478000Y-79017000D01*
G75*
G02*
X227328000Y-79167000I-150000J0D01*
G01*
X225678000Y-79167000D01*
G75*
G02*
X225528000Y-79017000I0J150000D01*
G01*
X225528000Y-78717000D01*
G75*
G02*
X225678000Y-78567000I150000J0D01*
G01*
X227328000Y-78567000D01*
G75*
G02*
X227478000Y-78717000I0J-150000D01*
G01*
G37*
G36*
G01*
X227478000Y-79987000D02*
X227478000Y-80287000D01*
G75*
G02*
X227328000Y-80437000I-150000J0D01*
G01*
X225678000Y-80437000D01*
G75*
G02*
X225528000Y-80287000I0J150000D01*
G01*
X225528000Y-79987000D01*
G75*
G02*
X225678000Y-79837000I150000J0D01*
G01*
X227328000Y-79837000D01*
G75*
G02*
X227478000Y-79987000I0J-150000D01*
G01*
G37*
G36*
G01*
X222528000Y-79987000D02*
X222528000Y-80287000D01*
G75*
G02*
X222378000Y-80437000I-150000J0D01*
G01*
X220728000Y-80437000D01*
G75*
G02*
X220578000Y-80287000I0J150000D01*
G01*
X220578000Y-79987000D01*
G75*
G02*
X220728000Y-79837000I150000J0D01*
G01*
X222378000Y-79837000D01*
G75*
G02*
X222528000Y-79987000I0J-150000D01*
G01*
G37*
G36*
G01*
X222528000Y-78717000D02*
X222528000Y-79017000D01*
G75*
G02*
X222378000Y-79167000I-150000J0D01*
G01*
X220728000Y-79167000D01*
G75*
G02*
X220578000Y-79017000I0J150000D01*
G01*
X220578000Y-78717000D01*
G75*
G02*
X220728000Y-78567000I150000J0D01*
G01*
X222378000Y-78567000D01*
G75*
G02*
X222528000Y-78717000I0J-150000D01*
G01*
G37*
G36*
G01*
X222528000Y-77447000D02*
X222528000Y-77747000D01*
G75*
G02*
X222378000Y-77897000I-150000J0D01*
G01*
X220728000Y-77897000D01*
G75*
G02*
X220578000Y-77747000I0J150000D01*
G01*
X220578000Y-77447000D01*
G75*
G02*
X220728000Y-77297000I150000J0D01*
G01*
X222378000Y-77297000D01*
G75*
G02*
X222528000Y-77447000I0J-150000D01*
G01*
G37*
G36*
G01*
X222528000Y-76177000D02*
X222528000Y-76477000D01*
G75*
G02*
X222378000Y-76627000I-150000J0D01*
G01*
X220728000Y-76627000D01*
G75*
G02*
X220578000Y-76477000I0J150000D01*
G01*
X220578000Y-76177000D01*
G75*
G02*
X220728000Y-76027000I150000J0D01*
G01*
X222378000Y-76027000D01*
G75*
G02*
X222528000Y-76177000I0J-150000D01*
G01*
G37*
G36*
G01*
X227411000Y-99855000D02*
X227411000Y-100805000D01*
G75*
G02*
X227161000Y-101055000I-250000J0D01*
G01*
X226661000Y-101055000D01*
G75*
G02*
X226411000Y-100805000I0J250000D01*
G01*
X226411000Y-99855000D01*
G75*
G02*
X226661000Y-99605000I250000J0D01*
G01*
X227161000Y-99605000D01*
G75*
G02*
X227411000Y-99855000I0J-250000D01*
G01*
G37*
G36*
G01*
X225511000Y-99855000D02*
X225511000Y-100805000D01*
G75*
G02*
X225261000Y-101055000I-250000J0D01*
G01*
X224761000Y-101055000D01*
G75*
G02*
X224511000Y-100805000I0J250000D01*
G01*
X224511000Y-99855000D01*
G75*
G02*
X224761000Y-99605000I250000J0D01*
G01*
X225261000Y-99605000D01*
G75*
G02*
X225511000Y-99855000I0J-250000D01*
G01*
G37*
G36*
G01*
X141633000Y-81465000D02*
X141633000Y-82365000D01*
G75*
G02*
X141383000Y-82615000I-250000J0D01*
G01*
X140858000Y-82615000D01*
G75*
G02*
X140608000Y-82365000I0J250000D01*
G01*
X140608000Y-81465000D01*
G75*
G02*
X140858000Y-81215000I250000J0D01*
G01*
X141383000Y-81215000D01*
G75*
G02*
X141633000Y-81465000I0J-250000D01*
G01*
G37*
G36*
G01*
X139808000Y-81465000D02*
X139808000Y-82365000D01*
G75*
G02*
X139558000Y-82615000I-250000J0D01*
G01*
X139033000Y-82615000D01*
G75*
G02*
X138783000Y-82365000I0J250000D01*
G01*
X138783000Y-81465000D01*
G75*
G02*
X139033000Y-81215000I250000J0D01*
G01*
X139558000Y-81215000D01*
G75*
G02*
X139808000Y-81465000I0J-250000D01*
G01*
G37*
G36*
G01*
X126393000Y-84640000D02*
X126393000Y-85540000D01*
G75*
G02*
X126143000Y-85790000I-250000J0D01*
G01*
X125618000Y-85790000D01*
G75*
G02*
X125368000Y-85540000I0J250000D01*
G01*
X125368000Y-84640000D01*
G75*
G02*
X125618000Y-84390000I250000J0D01*
G01*
X126143000Y-84390000D01*
G75*
G02*
X126393000Y-84640000I0J-250000D01*
G01*
G37*
G36*
G01*
X124568000Y-84640000D02*
X124568000Y-85540000D01*
G75*
G02*
X124318000Y-85790000I-250000J0D01*
G01*
X123793000Y-85790000D01*
G75*
G02*
X123543000Y-85540000I0J250000D01*
G01*
X123543000Y-84640000D01*
G75*
G02*
X123793000Y-84390000I250000J0D01*
G01*
X124318000Y-84390000D01*
G75*
G02*
X124568000Y-84640000I0J-250000D01*
G01*
G37*
G36*
G01*
X161699000Y-91117000D02*
X161699000Y-92017000D01*
G75*
G02*
X161449000Y-92267000I-250000J0D01*
G01*
X160924000Y-92267000D01*
G75*
G02*
X160674000Y-92017000I0J250000D01*
G01*
X160674000Y-91117000D01*
G75*
G02*
X160924000Y-90867000I250000J0D01*
G01*
X161449000Y-90867000D01*
G75*
G02*
X161699000Y-91117000I0J-250000D01*
G01*
G37*
G36*
G01*
X159874000Y-91117000D02*
X159874000Y-92017000D01*
G75*
G02*
X159624000Y-92267000I-250000J0D01*
G01*
X159099000Y-92267000D01*
G75*
G02*
X158849000Y-92017000I0J250000D01*
G01*
X158849000Y-91117000D01*
G75*
G02*
X159099000Y-90867000I250000J0D01*
G01*
X159624000Y-90867000D01*
G75*
G02*
X159874000Y-91117000I0J-250000D01*
G01*
G37*
G36*
G01*
X209444000Y-75542000D02*
X209444000Y-75842000D01*
G75*
G02*
X209294000Y-75992000I-150000J0D01*
G01*
X207644000Y-75992000D01*
G75*
G02*
X207494000Y-75842000I0J150000D01*
G01*
X207494000Y-75542000D01*
G75*
G02*
X207644000Y-75392000I150000J0D01*
G01*
X209294000Y-75392000D01*
G75*
G02*
X209444000Y-75542000I0J-150000D01*
G01*
G37*
G36*
G01*
X209444000Y-76812000D02*
X209444000Y-77112000D01*
G75*
G02*
X209294000Y-77262000I-150000J0D01*
G01*
X207644000Y-77262000D01*
G75*
G02*
X207494000Y-77112000I0J150000D01*
G01*
X207494000Y-76812000D01*
G75*
G02*
X207644000Y-76662000I150000J0D01*
G01*
X209294000Y-76662000D01*
G75*
G02*
X209444000Y-76812000I0J-150000D01*
G01*
G37*
G36*
G01*
X209444000Y-78082000D02*
X209444000Y-78382000D01*
G75*
G02*
X209294000Y-78532000I-150000J0D01*
G01*
X207644000Y-78532000D01*
G75*
G02*
X207494000Y-78382000I0J150000D01*
G01*
X207494000Y-78082000D01*
G75*
G02*
X207644000Y-77932000I150000J0D01*
G01*
X209294000Y-77932000D01*
G75*
G02*
X209444000Y-78082000I0J-150000D01*
G01*
G37*
G36*
G01*
X209444000Y-79352000D02*
X209444000Y-79652000D01*
G75*
G02*
X209294000Y-79802000I-150000J0D01*
G01*
X207644000Y-79802000D01*
G75*
G02*
X207494000Y-79652000I0J150000D01*
G01*
X207494000Y-79352000D01*
G75*
G02*
X207644000Y-79202000I150000J0D01*
G01*
X209294000Y-79202000D01*
G75*
G02*
X209444000Y-79352000I0J-150000D01*
G01*
G37*
G36*
G01*
X209444000Y-80622000D02*
X209444000Y-80922000D01*
G75*
G02*
X209294000Y-81072000I-150000J0D01*
G01*
X207644000Y-81072000D01*
G75*
G02*
X207494000Y-80922000I0J150000D01*
G01*
X207494000Y-80622000D01*
G75*
G02*
X207644000Y-80472000I150000J0D01*
G01*
X209294000Y-80472000D01*
G75*
G02*
X209444000Y-80622000I0J-150000D01*
G01*
G37*
G36*
G01*
X209444000Y-81892000D02*
X209444000Y-82192000D01*
G75*
G02*
X209294000Y-82342000I-150000J0D01*
G01*
X207644000Y-82342000D01*
G75*
G02*
X207494000Y-82192000I0J150000D01*
G01*
X207494000Y-81892000D01*
G75*
G02*
X207644000Y-81742000I150000J0D01*
G01*
X209294000Y-81742000D01*
G75*
G02*
X209444000Y-81892000I0J-150000D01*
G01*
G37*
G36*
G01*
X209444000Y-83162000D02*
X209444000Y-83462000D01*
G75*
G02*
X209294000Y-83612000I-150000J0D01*
G01*
X207644000Y-83612000D01*
G75*
G02*
X207494000Y-83462000I0J150000D01*
G01*
X207494000Y-83162000D01*
G75*
G02*
X207644000Y-83012000I150000J0D01*
G01*
X209294000Y-83012000D01*
G75*
G02*
X209444000Y-83162000I0J-150000D01*
G01*
G37*
G36*
G01*
X204494000Y-83162000D02*
X204494000Y-83462000D01*
G75*
G02*
X204344000Y-83612000I-150000J0D01*
G01*
X202694000Y-83612000D01*
G75*
G02*
X202544000Y-83462000I0J150000D01*
G01*
X202544000Y-83162000D01*
G75*
G02*
X202694000Y-83012000I150000J0D01*
G01*
X204344000Y-83012000D01*
G75*
G02*
X204494000Y-83162000I0J-150000D01*
G01*
G37*
G36*
G01*
X204494000Y-81892000D02*
X204494000Y-82192000D01*
G75*
G02*
X204344000Y-82342000I-150000J0D01*
G01*
X202694000Y-82342000D01*
G75*
G02*
X202544000Y-82192000I0J150000D01*
G01*
X202544000Y-81892000D01*
G75*
G02*
X202694000Y-81742000I150000J0D01*
G01*
X204344000Y-81742000D01*
G75*
G02*
X204494000Y-81892000I0J-150000D01*
G01*
G37*
G36*
G01*
X204494000Y-80622000D02*
X204494000Y-80922000D01*
G75*
G02*
X204344000Y-81072000I-150000J0D01*
G01*
X202694000Y-81072000D01*
G75*
G02*
X202544000Y-80922000I0J150000D01*
G01*
X202544000Y-80622000D01*
G75*
G02*
X202694000Y-80472000I150000J0D01*
G01*
X204344000Y-80472000D01*
G75*
G02*
X204494000Y-80622000I0J-150000D01*
G01*
G37*
G36*
G01*
X204494000Y-79352000D02*
X204494000Y-79652000D01*
G75*
G02*
X204344000Y-79802000I-150000J0D01*
G01*
X202694000Y-79802000D01*
G75*
G02*
X202544000Y-79652000I0J150000D01*
G01*
X202544000Y-79352000D01*
G75*
G02*
X202694000Y-79202000I150000J0D01*
G01*
X204344000Y-79202000D01*
G75*
G02*
X204494000Y-79352000I0J-150000D01*
G01*
G37*
G36*
G01*
X204494000Y-78082000D02*
X204494000Y-78382000D01*
G75*
G02*
X204344000Y-78532000I-150000J0D01*
G01*
X202694000Y-78532000D01*
G75*
G02*
X202544000Y-78382000I0J150000D01*
G01*
X202544000Y-78082000D01*
G75*
G02*
X202694000Y-77932000I150000J0D01*
G01*
X204344000Y-77932000D01*
G75*
G02*
X204494000Y-78082000I0J-150000D01*
G01*
G37*
G36*
G01*
X204494000Y-76812000D02*
X204494000Y-77112000D01*
G75*
G02*
X204344000Y-77262000I-150000J0D01*
G01*
X202694000Y-77262000D01*
G75*
G02*
X202544000Y-77112000I0J150000D01*
G01*
X202544000Y-76812000D01*
G75*
G02*
X202694000Y-76662000I150000J0D01*
G01*
X204344000Y-76662000D01*
G75*
G02*
X204494000Y-76812000I0J-150000D01*
G01*
G37*
G36*
G01*
X204494000Y-75542000D02*
X204494000Y-75842000D01*
G75*
G02*
X204344000Y-75992000I-150000J0D01*
G01*
X202694000Y-75992000D01*
G75*
G02*
X202544000Y-75842000I0J150000D01*
G01*
X202544000Y-75542000D01*
G75*
G02*
X202694000Y-75392000I150000J0D01*
G01*
X204344000Y-75392000D01*
G75*
G02*
X204494000Y-75542000I0J-150000D01*
G01*
G37*
D16*
X175260000Y-77216000D03*
X237490000Y-101854000D03*
G36*
G01*
X156619000Y-87307000D02*
X156619000Y-88207000D01*
G75*
G02*
X156369000Y-88457000I-250000J0D01*
G01*
X155844000Y-88457000D01*
G75*
G02*
X155594000Y-88207000I0J250000D01*
G01*
X155594000Y-87307000D01*
G75*
G02*
X155844000Y-87057000I250000J0D01*
G01*
X156369000Y-87057000D01*
G75*
G02*
X156619000Y-87307000I0J-250000D01*
G01*
G37*
G36*
G01*
X154794000Y-87307000D02*
X154794000Y-88207000D01*
G75*
G02*
X154544000Y-88457000I-250000J0D01*
G01*
X154019000Y-88457000D01*
G75*
G02*
X153769000Y-88207000I0J250000D01*
G01*
X153769000Y-87307000D01*
G75*
G02*
X154019000Y-87057000I250000J0D01*
G01*
X154544000Y-87057000D01*
G75*
G02*
X154794000Y-87307000I0J-250000D01*
G01*
G37*
X236728000Y-126492000D03*
G36*
G01*
X223601000Y-99855000D02*
X223601000Y-100805000D01*
G75*
G02*
X223351000Y-101055000I-250000J0D01*
G01*
X222851000Y-101055000D01*
G75*
G02*
X222601000Y-100805000I0J250000D01*
G01*
X222601000Y-99855000D01*
G75*
G02*
X222851000Y-99605000I250000J0D01*
G01*
X223351000Y-99605000D01*
G75*
G02*
X223601000Y-99855000I0J-250000D01*
G01*
G37*
G36*
G01*
X221701000Y-99855000D02*
X221701000Y-100805000D01*
G75*
G02*
X221451000Y-101055000I-250000J0D01*
G01*
X220951000Y-101055000D01*
G75*
G02*
X220701000Y-100805000I0J250000D01*
G01*
X220701000Y-99855000D01*
G75*
G02*
X220951000Y-99605000I250000J0D01*
G01*
X221451000Y-99605000D01*
G75*
G02*
X221701000Y-99855000I0J-250000D01*
G01*
G37*
G36*
G01*
X223573000Y-126144000D02*
X223573000Y-127094000D01*
G75*
G02*
X223323000Y-127344000I-250000J0D01*
G01*
X222823000Y-127344000D01*
G75*
G02*
X222573000Y-127094000I0J250000D01*
G01*
X222573000Y-126144000D01*
G75*
G02*
X222823000Y-125894000I250000J0D01*
G01*
X223323000Y-125894000D01*
G75*
G02*
X223573000Y-126144000I0J-250000D01*
G01*
G37*
G36*
G01*
X221673000Y-126144000D02*
X221673000Y-127094000D01*
G75*
G02*
X221423000Y-127344000I-250000J0D01*
G01*
X220923000Y-127344000D01*
G75*
G02*
X220673000Y-127094000I0J250000D01*
G01*
X220673000Y-126144000D01*
G75*
G02*
X220923000Y-125894000I250000J0D01*
G01*
X221423000Y-125894000D01*
G75*
G02*
X221673000Y-126144000I0J-250000D01*
G01*
G37*
G36*
G01*
X161135000Y-121100000D02*
X161135000Y-120200000D01*
G75*
G02*
X161385000Y-119950000I250000J0D01*
G01*
X161910000Y-119950000D01*
G75*
G02*
X162160000Y-120200000I0J-250000D01*
G01*
X162160000Y-121100000D01*
G75*
G02*
X161910000Y-121350000I-250000J0D01*
G01*
X161385000Y-121350000D01*
G75*
G02*
X161135000Y-121100000I0J250000D01*
G01*
G37*
G36*
G01*
X162960000Y-121100000D02*
X162960000Y-120200000D01*
G75*
G02*
X163210000Y-119950000I250000J0D01*
G01*
X163735000Y-119950000D01*
G75*
G02*
X163985000Y-120200000I0J-250000D01*
G01*
X163985000Y-121100000D01*
G75*
G02*
X163735000Y-121350000I-250000J0D01*
G01*
X163210000Y-121350000D01*
G75*
G02*
X162960000Y-121100000I0J250000D01*
G01*
G37*
G36*
G01*
X228200000Y-60115000D02*
X228200000Y-61805000D01*
G75*
G02*
X227950000Y-62055000I-250000J0D01*
G01*
X226710000Y-62055000D01*
G75*
G02*
X226460000Y-61805000I0J250000D01*
G01*
X226460000Y-60115000D01*
G75*
G02*
X226710000Y-59865000I250000J0D01*
G01*
X227950000Y-59865000D01*
G75*
G02*
X228200000Y-60115000I0J-250000D01*
G01*
G37*
D14*
X224790000Y-60960000D03*
X222250000Y-60960000D03*
X219710000Y-60960000D03*
G36*
G01*
X126418000Y-88425000D02*
X126418000Y-89375000D01*
G75*
G02*
X126168000Y-89625000I-250000J0D01*
G01*
X125668000Y-89625000D01*
G75*
G02*
X125418000Y-89375000I0J250000D01*
G01*
X125418000Y-88425000D01*
G75*
G02*
X125668000Y-88175000I250000J0D01*
G01*
X126168000Y-88175000D01*
G75*
G02*
X126418000Y-88425000I0J-250000D01*
G01*
G37*
G36*
G01*
X124518000Y-88425000D02*
X124518000Y-89375000D01*
G75*
G02*
X124268000Y-89625000I-250000J0D01*
G01*
X123768000Y-89625000D01*
G75*
G02*
X123518000Y-89375000I0J250000D01*
G01*
X123518000Y-88425000D01*
G75*
G02*
X123768000Y-88175000I250000J0D01*
G01*
X124268000Y-88175000D01*
G75*
G02*
X124518000Y-88425000I0J-250000D01*
G01*
G37*
D18*
X181229000Y-97917000D03*
X176229000Y-97917000D03*
D15*
X94995000Y-112395000D03*
X91695000Y-112395000D03*
X75945000Y-108585000D03*
X72645000Y-108585000D03*
G36*
G01*
X147140000Y-119982000D02*
X147140000Y-119032000D01*
G75*
G02*
X147390000Y-118782000I250000J0D01*
G01*
X147890000Y-118782000D01*
G75*
G02*
X148140000Y-119032000I0J-250000D01*
G01*
X148140000Y-119982000D01*
G75*
G02*
X147890000Y-120232000I-250000J0D01*
G01*
X147390000Y-120232000D01*
G75*
G02*
X147140000Y-119982000I0J250000D01*
G01*
G37*
G36*
G01*
X149040000Y-119982000D02*
X149040000Y-119032000D01*
G75*
G02*
X149290000Y-118782000I250000J0D01*
G01*
X149790000Y-118782000D01*
G75*
G02*
X150040000Y-119032000I0J-250000D01*
G01*
X150040000Y-119982000D01*
G75*
G02*
X149790000Y-120232000I-250000J0D01*
G01*
X149290000Y-120232000D01*
G75*
G02*
X149040000Y-119982000I0J250000D01*
G01*
G37*
G36*
G01*
X217071000Y-71432000D02*
X217071000Y-72332000D01*
G75*
G02*
X216821000Y-72582000I-250000J0D01*
G01*
X216296000Y-72582000D01*
G75*
G02*
X216046000Y-72332000I0J250000D01*
G01*
X216046000Y-71432000D01*
G75*
G02*
X216296000Y-71182000I250000J0D01*
G01*
X216821000Y-71182000D01*
G75*
G02*
X217071000Y-71432000I0J-250000D01*
G01*
G37*
G36*
G01*
X215246000Y-71432000D02*
X215246000Y-72332000D01*
G75*
G02*
X214996000Y-72582000I-250000J0D01*
G01*
X214471000Y-72582000D01*
G75*
G02*
X214221000Y-72332000I0J250000D01*
G01*
X214221000Y-71432000D01*
G75*
G02*
X214471000Y-71182000I250000J0D01*
G01*
X214996000Y-71182000D01*
G75*
G02*
X215246000Y-71432000I0J-250000D01*
G01*
G37*
G36*
G01*
X213741000Y-109670000D02*
X213741000Y-108770000D01*
G75*
G02*
X213991000Y-108520000I250000J0D01*
G01*
X214516000Y-108520000D01*
G75*
G02*
X214766000Y-108770000I0J-250000D01*
G01*
X214766000Y-109670000D01*
G75*
G02*
X214516000Y-109920000I-250000J0D01*
G01*
X213991000Y-109920000D01*
G75*
G02*
X213741000Y-109670000I0J250000D01*
G01*
G37*
G36*
G01*
X215566000Y-109670000D02*
X215566000Y-108770000D01*
G75*
G02*
X215816000Y-108520000I250000J0D01*
G01*
X216341000Y-108520000D01*
G75*
G02*
X216591000Y-108770000I0J-250000D01*
G01*
X216591000Y-109670000D01*
G75*
G02*
X216341000Y-109920000I-250000J0D01*
G01*
X215816000Y-109920000D01*
G75*
G02*
X215566000Y-109670000I0J250000D01*
G01*
G37*
G36*
G01*
X192839000Y-100617000D02*
X192839000Y-101567000D01*
G75*
G02*
X192589000Y-101817000I-250000J0D01*
G01*
X192089000Y-101817000D01*
G75*
G02*
X191839000Y-101567000I0J250000D01*
G01*
X191839000Y-100617000D01*
G75*
G02*
X192089000Y-100367000I250000J0D01*
G01*
X192589000Y-100367000D01*
G75*
G02*
X192839000Y-100617000I0J-250000D01*
G01*
G37*
G36*
G01*
X190939000Y-100617000D02*
X190939000Y-101567000D01*
G75*
G02*
X190689000Y-101817000I-250000J0D01*
G01*
X190189000Y-101817000D01*
G75*
G02*
X189939000Y-101567000I0J250000D01*
G01*
X189939000Y-100617000D01*
G75*
G02*
X190189000Y-100367000I250000J0D01*
G01*
X190689000Y-100367000D01*
G75*
G02*
X190939000Y-100617000I0J-250000D01*
G01*
G37*
D19*
X205144380Y-115062000D03*
D18*
X202644380Y-115062000D03*
G36*
G01*
X126393000Y-77020000D02*
X126393000Y-77920000D01*
G75*
G02*
X126143000Y-78170000I-250000J0D01*
G01*
X125618000Y-78170000D01*
G75*
G02*
X125368000Y-77920000I0J250000D01*
G01*
X125368000Y-77020000D01*
G75*
G02*
X125618000Y-76770000I250000J0D01*
G01*
X126143000Y-76770000D01*
G75*
G02*
X126393000Y-77020000I0J-250000D01*
G01*
G37*
G36*
G01*
X124568000Y-77020000D02*
X124568000Y-77920000D01*
G75*
G02*
X124318000Y-78170000I-250000J0D01*
G01*
X123793000Y-78170000D01*
G75*
G02*
X123543000Y-77920000I0J250000D01*
G01*
X123543000Y-77020000D01*
G75*
G02*
X123793000Y-76770000I250000J0D01*
G01*
X124318000Y-76770000D01*
G75*
G02*
X124568000Y-77020000I0J-250000D01*
G01*
G37*
G36*
G01*
X234371000Y-97340000D02*
X234371000Y-98240000D01*
G75*
G02*
X234121000Y-98490000I-250000J0D01*
G01*
X233596000Y-98490000D01*
G75*
G02*
X233346000Y-98240000I0J250000D01*
G01*
X233346000Y-97340000D01*
G75*
G02*
X233596000Y-97090000I250000J0D01*
G01*
X234121000Y-97090000D01*
G75*
G02*
X234371000Y-97340000I0J-250000D01*
G01*
G37*
G36*
G01*
X232546000Y-97340000D02*
X232546000Y-98240000D01*
G75*
G02*
X232296000Y-98490000I-250000J0D01*
G01*
X231771000Y-98490000D01*
G75*
G02*
X231521000Y-98240000I0J250000D01*
G01*
X231521000Y-97340000D01*
G75*
G02*
X231771000Y-97090000I250000J0D01*
G01*
X232296000Y-97090000D01*
G75*
G02*
X232546000Y-97340000I0J-250000D01*
G01*
G37*
D16*
X131826000Y-58928000D03*
G36*
G01*
X181983000Y-108237000D02*
X181983000Y-109187000D01*
G75*
G02*
X181733000Y-109437000I-250000J0D01*
G01*
X181233000Y-109437000D01*
G75*
G02*
X180983000Y-109187000I0J250000D01*
G01*
X180983000Y-108237000D01*
G75*
G02*
X181233000Y-107987000I250000J0D01*
G01*
X181733000Y-107987000D01*
G75*
G02*
X181983000Y-108237000I0J-250000D01*
G01*
G37*
G36*
G01*
X180083000Y-108237000D02*
X180083000Y-109187000D01*
G75*
G02*
X179833000Y-109437000I-250000J0D01*
G01*
X179333000Y-109437000D01*
G75*
G02*
X179083000Y-109187000I0J250000D01*
G01*
X179083000Y-108237000D01*
G75*
G02*
X179333000Y-107987000I250000J0D01*
G01*
X179833000Y-107987000D01*
G75*
G02*
X180083000Y-108237000I0J-250000D01*
G01*
G37*
D20*
X208026000Y-93980000D03*
X200406000Y-93980000D03*
D15*
X109348000Y-97790000D03*
X112648000Y-97790000D03*
G36*
G01*
X118510000Y-128861000D02*
X118510000Y-127171000D01*
G75*
G02*
X118760000Y-126921000I250000J0D01*
G01*
X120000000Y-126921000D01*
G75*
G02*
X120250000Y-127171000I0J-250000D01*
G01*
X120250000Y-128861000D01*
G75*
G02*
X120000000Y-129111000I-250000J0D01*
G01*
X118760000Y-129111000D01*
G75*
G02*
X118510000Y-128861000I0J250000D01*
G01*
G37*
D14*
X121920000Y-128016000D03*
X124460000Y-128016000D03*
G36*
G01*
X182019000Y-78417000D02*
X182019000Y-79317000D01*
G75*
G02*
X181769000Y-79567000I-250000J0D01*
G01*
X181244000Y-79567000D01*
G75*
G02*
X180994000Y-79317000I0J250000D01*
G01*
X180994000Y-78417000D01*
G75*
G02*
X181244000Y-78167000I250000J0D01*
G01*
X181769000Y-78167000D01*
G75*
G02*
X182019000Y-78417000I0J-250000D01*
G01*
G37*
G36*
G01*
X180194000Y-78417000D02*
X180194000Y-79317000D01*
G75*
G02*
X179944000Y-79567000I-250000J0D01*
G01*
X179419000Y-79567000D01*
G75*
G02*
X179169000Y-79317000I0J250000D01*
G01*
X179169000Y-78417000D01*
G75*
G02*
X179419000Y-78167000I250000J0D01*
G01*
X179944000Y-78167000D01*
G75*
G02*
X180194000Y-78417000I0J-250000D01*
G01*
G37*
G36*
G01*
X161089000Y-108237000D02*
X161089000Y-109187000D01*
G75*
G02*
X160839000Y-109437000I-250000J0D01*
G01*
X160339000Y-109437000D01*
G75*
G02*
X160089000Y-109187000I0J250000D01*
G01*
X160089000Y-108237000D01*
G75*
G02*
X160339000Y-107987000I250000J0D01*
G01*
X160839000Y-107987000D01*
G75*
G02*
X161089000Y-108237000I0J-250000D01*
G01*
G37*
G36*
G01*
X159189000Y-108237000D02*
X159189000Y-109187000D01*
G75*
G02*
X158939000Y-109437000I-250000J0D01*
G01*
X158439000Y-109437000D01*
G75*
G02*
X158189000Y-109187000I0J250000D01*
G01*
X158189000Y-108237000D01*
G75*
G02*
X158439000Y-107987000I250000J0D01*
G01*
X158939000Y-107987000D01*
G75*
G02*
X159189000Y-108237000I0J-250000D01*
G01*
G37*
G36*
G01*
X100658000Y-76675000D02*
X100658000Y-75725000D01*
G75*
G02*
X100908000Y-75475000I250000J0D01*
G01*
X101408000Y-75475000D01*
G75*
G02*
X101658000Y-75725000I0J-250000D01*
G01*
X101658000Y-76675000D01*
G75*
G02*
X101408000Y-76925000I-250000J0D01*
G01*
X100908000Y-76925000D01*
G75*
G02*
X100658000Y-76675000I0J250000D01*
G01*
G37*
G36*
G01*
X102558000Y-76675000D02*
X102558000Y-75725000D01*
G75*
G02*
X102808000Y-75475000I250000J0D01*
G01*
X103308000Y-75475000D01*
G75*
G02*
X103558000Y-75725000I0J-250000D01*
G01*
X103558000Y-76675000D01*
G75*
G02*
X103308000Y-76925000I-250000J0D01*
G01*
X102808000Y-76925000D01*
G75*
G02*
X102558000Y-76675000I0J250000D01*
G01*
G37*
G36*
G01*
X98270000Y-116655000D02*
X98270000Y-115755000D01*
G75*
G02*
X98520000Y-115505000I250000J0D01*
G01*
X99045000Y-115505000D01*
G75*
G02*
X99295000Y-115755000I0J-250000D01*
G01*
X99295000Y-116655000D01*
G75*
G02*
X99045000Y-116905000I-250000J0D01*
G01*
X98520000Y-116905000D01*
G75*
G02*
X98270000Y-116655000I0J250000D01*
G01*
G37*
G36*
G01*
X100095000Y-116655000D02*
X100095000Y-115755000D01*
G75*
G02*
X100345000Y-115505000I250000J0D01*
G01*
X100870000Y-115505000D01*
G75*
G02*
X101120000Y-115755000I0J-250000D01*
G01*
X101120000Y-116655000D01*
G75*
G02*
X100870000Y-116905000I-250000J0D01*
G01*
X100345000Y-116905000D01*
G75*
G02*
X100095000Y-116655000I0J250000D01*
G01*
G37*
G36*
G01*
X105558000Y-64620000D02*
X105558000Y-64920000D01*
G75*
G02*
X105408000Y-65070000I-150000J0D01*
G01*
X103758000Y-65070000D01*
G75*
G02*
X103608000Y-64920000I0J150000D01*
G01*
X103608000Y-64620000D01*
G75*
G02*
X103758000Y-64470000I150000J0D01*
G01*
X105408000Y-64470000D01*
G75*
G02*
X105558000Y-64620000I0J-150000D01*
G01*
G37*
G36*
G01*
X105558000Y-65890000D02*
X105558000Y-66190000D01*
G75*
G02*
X105408000Y-66340000I-150000J0D01*
G01*
X103758000Y-66340000D01*
G75*
G02*
X103608000Y-66190000I0J150000D01*
G01*
X103608000Y-65890000D01*
G75*
G02*
X103758000Y-65740000I150000J0D01*
G01*
X105408000Y-65740000D01*
G75*
G02*
X105558000Y-65890000I0J-150000D01*
G01*
G37*
G36*
G01*
X105558000Y-67160000D02*
X105558000Y-67460000D01*
G75*
G02*
X105408000Y-67610000I-150000J0D01*
G01*
X103758000Y-67610000D01*
G75*
G02*
X103608000Y-67460000I0J150000D01*
G01*
X103608000Y-67160000D01*
G75*
G02*
X103758000Y-67010000I150000J0D01*
G01*
X105408000Y-67010000D01*
G75*
G02*
X105558000Y-67160000I0J-150000D01*
G01*
G37*
G36*
G01*
X105558000Y-68430000D02*
X105558000Y-68730000D01*
G75*
G02*
X105408000Y-68880000I-150000J0D01*
G01*
X103758000Y-68880000D01*
G75*
G02*
X103608000Y-68730000I0J150000D01*
G01*
X103608000Y-68430000D01*
G75*
G02*
X103758000Y-68280000I150000J0D01*
G01*
X105408000Y-68280000D01*
G75*
G02*
X105558000Y-68430000I0J-150000D01*
G01*
G37*
G36*
G01*
X105558000Y-69700000D02*
X105558000Y-70000000D01*
G75*
G02*
X105408000Y-70150000I-150000J0D01*
G01*
X103758000Y-70150000D01*
G75*
G02*
X103608000Y-70000000I0J150000D01*
G01*
X103608000Y-69700000D01*
G75*
G02*
X103758000Y-69550000I150000J0D01*
G01*
X105408000Y-69550000D01*
G75*
G02*
X105558000Y-69700000I0J-150000D01*
G01*
G37*
G36*
G01*
X105558000Y-70970000D02*
X105558000Y-71270000D01*
G75*
G02*
X105408000Y-71420000I-150000J0D01*
G01*
X103758000Y-71420000D01*
G75*
G02*
X103608000Y-71270000I0J150000D01*
G01*
X103608000Y-70970000D01*
G75*
G02*
X103758000Y-70820000I150000J0D01*
G01*
X105408000Y-70820000D01*
G75*
G02*
X105558000Y-70970000I0J-150000D01*
G01*
G37*
G36*
G01*
X105558000Y-72240000D02*
X105558000Y-72540000D01*
G75*
G02*
X105408000Y-72690000I-150000J0D01*
G01*
X103758000Y-72690000D01*
G75*
G02*
X103608000Y-72540000I0J150000D01*
G01*
X103608000Y-72240000D01*
G75*
G02*
X103758000Y-72090000I150000J0D01*
G01*
X105408000Y-72090000D01*
G75*
G02*
X105558000Y-72240000I0J-150000D01*
G01*
G37*
G36*
G01*
X100608000Y-72240000D02*
X100608000Y-72540000D01*
G75*
G02*
X100458000Y-72690000I-150000J0D01*
G01*
X98808000Y-72690000D01*
G75*
G02*
X98658000Y-72540000I0J150000D01*
G01*
X98658000Y-72240000D01*
G75*
G02*
X98808000Y-72090000I150000J0D01*
G01*
X100458000Y-72090000D01*
G75*
G02*
X100608000Y-72240000I0J-150000D01*
G01*
G37*
G36*
G01*
X100608000Y-70970000D02*
X100608000Y-71270000D01*
G75*
G02*
X100458000Y-71420000I-150000J0D01*
G01*
X98808000Y-71420000D01*
G75*
G02*
X98658000Y-71270000I0J150000D01*
G01*
X98658000Y-70970000D01*
G75*
G02*
X98808000Y-70820000I150000J0D01*
G01*
X100458000Y-70820000D01*
G75*
G02*
X100608000Y-70970000I0J-150000D01*
G01*
G37*
G36*
G01*
X100608000Y-69700000D02*
X100608000Y-70000000D01*
G75*
G02*
X100458000Y-70150000I-150000J0D01*
G01*
X98808000Y-70150000D01*
G75*
G02*
X98658000Y-70000000I0J150000D01*
G01*
X98658000Y-69700000D01*
G75*
G02*
X98808000Y-69550000I150000J0D01*
G01*
X100458000Y-69550000D01*
G75*
G02*
X100608000Y-69700000I0J-150000D01*
G01*
G37*
G36*
G01*
X100608000Y-68430000D02*
X100608000Y-68730000D01*
G75*
G02*
X100458000Y-68880000I-150000J0D01*
G01*
X98808000Y-68880000D01*
G75*
G02*
X98658000Y-68730000I0J150000D01*
G01*
X98658000Y-68430000D01*
G75*
G02*
X98808000Y-68280000I150000J0D01*
G01*
X100458000Y-68280000D01*
G75*
G02*
X100608000Y-68430000I0J-150000D01*
G01*
G37*
G36*
G01*
X100608000Y-67160000D02*
X100608000Y-67460000D01*
G75*
G02*
X100458000Y-67610000I-150000J0D01*
G01*
X98808000Y-67610000D01*
G75*
G02*
X98658000Y-67460000I0J150000D01*
G01*
X98658000Y-67160000D01*
G75*
G02*
X98808000Y-67010000I150000J0D01*
G01*
X100458000Y-67010000D01*
G75*
G02*
X100608000Y-67160000I0J-150000D01*
G01*
G37*
G36*
G01*
X100608000Y-65890000D02*
X100608000Y-66190000D01*
G75*
G02*
X100458000Y-66340000I-150000J0D01*
G01*
X98808000Y-66340000D01*
G75*
G02*
X98658000Y-66190000I0J150000D01*
G01*
X98658000Y-65890000D01*
G75*
G02*
X98808000Y-65740000I150000J0D01*
G01*
X100458000Y-65740000D01*
G75*
G02*
X100608000Y-65890000I0J-150000D01*
G01*
G37*
G36*
G01*
X100608000Y-64620000D02*
X100608000Y-64920000D01*
G75*
G02*
X100458000Y-65070000I-150000J0D01*
G01*
X98808000Y-65070000D01*
G75*
G02*
X98658000Y-64920000I0J150000D01*
G01*
X98658000Y-64620000D01*
G75*
G02*
X98808000Y-64470000I150000J0D01*
G01*
X100458000Y-64470000D01*
G75*
G02*
X100608000Y-64620000I0J-150000D01*
G01*
G37*
G36*
G01*
X232993000Y-79842000D02*
X232993000Y-80742000D01*
G75*
G02*
X232743000Y-80992000I-250000J0D01*
G01*
X232218000Y-80992000D01*
G75*
G02*
X231968000Y-80742000I0J250000D01*
G01*
X231968000Y-79842000D01*
G75*
G02*
X232218000Y-79592000I250000J0D01*
G01*
X232743000Y-79592000D01*
G75*
G02*
X232993000Y-79842000I0J-250000D01*
G01*
G37*
G36*
G01*
X231168000Y-79842000D02*
X231168000Y-80742000D01*
G75*
G02*
X230918000Y-80992000I-250000J0D01*
G01*
X230393000Y-80992000D01*
G75*
G02*
X230143000Y-80742000I0J250000D01*
G01*
X230143000Y-79842000D01*
G75*
G02*
X230393000Y-79592000I250000J0D01*
G01*
X230918000Y-79592000D01*
G75*
G02*
X231168000Y-79842000I0J-250000D01*
G01*
G37*
G36*
G01*
X175900000Y-114785000D02*
X175900000Y-115085000D01*
G75*
G02*
X175750000Y-115235000I-150000J0D01*
G01*
X174150000Y-115235000D01*
G75*
G02*
X174000000Y-115085000I0J150000D01*
G01*
X174000000Y-114785000D01*
G75*
G02*
X174150000Y-114635000I150000J0D01*
G01*
X175750000Y-114635000D01*
G75*
G02*
X175900000Y-114785000I0J-150000D01*
G01*
G37*
G36*
G01*
X175900000Y-116055000D02*
X175900000Y-116355000D01*
G75*
G02*
X175750000Y-116505000I-150000J0D01*
G01*
X174150000Y-116505000D01*
G75*
G02*
X174000000Y-116355000I0J150000D01*
G01*
X174000000Y-116055000D01*
G75*
G02*
X174150000Y-115905000I150000J0D01*
G01*
X175750000Y-115905000D01*
G75*
G02*
X175900000Y-116055000I0J-150000D01*
G01*
G37*
G36*
G01*
X175900000Y-117325000D02*
X175900000Y-117625000D01*
G75*
G02*
X175750000Y-117775000I-150000J0D01*
G01*
X174150000Y-117775000D01*
G75*
G02*
X174000000Y-117625000I0J150000D01*
G01*
X174000000Y-117325000D01*
G75*
G02*
X174150000Y-117175000I150000J0D01*
G01*
X175750000Y-117175000D01*
G75*
G02*
X175900000Y-117325000I0J-150000D01*
G01*
G37*
G36*
G01*
X175900000Y-118595000D02*
X175900000Y-118895000D01*
G75*
G02*
X175750000Y-119045000I-150000J0D01*
G01*
X174150000Y-119045000D01*
G75*
G02*
X174000000Y-118895000I0J150000D01*
G01*
X174000000Y-118595000D01*
G75*
G02*
X174150000Y-118445000I150000J0D01*
G01*
X175750000Y-118445000D01*
G75*
G02*
X175900000Y-118595000I0J-150000D01*
G01*
G37*
G36*
G01*
X168900000Y-118595000D02*
X168900000Y-118895000D01*
G75*
G02*
X168750000Y-119045000I-150000J0D01*
G01*
X167150000Y-119045000D01*
G75*
G02*
X167000000Y-118895000I0J150000D01*
G01*
X167000000Y-118595000D01*
G75*
G02*
X167150000Y-118445000I150000J0D01*
G01*
X168750000Y-118445000D01*
G75*
G02*
X168900000Y-118595000I0J-150000D01*
G01*
G37*
G36*
G01*
X168900000Y-117325000D02*
X168900000Y-117625000D01*
G75*
G02*
X168750000Y-117775000I-150000J0D01*
G01*
X167150000Y-117775000D01*
G75*
G02*
X167000000Y-117625000I0J150000D01*
G01*
X167000000Y-117325000D01*
G75*
G02*
X167150000Y-117175000I150000J0D01*
G01*
X168750000Y-117175000D01*
G75*
G02*
X168900000Y-117325000I0J-150000D01*
G01*
G37*
G36*
G01*
X168900000Y-116055000D02*
X168900000Y-116355000D01*
G75*
G02*
X168750000Y-116505000I-150000J0D01*
G01*
X167150000Y-116505000D01*
G75*
G02*
X167000000Y-116355000I0J150000D01*
G01*
X167000000Y-116055000D01*
G75*
G02*
X167150000Y-115905000I150000J0D01*
G01*
X168750000Y-115905000D01*
G75*
G02*
X168900000Y-116055000I0J-150000D01*
G01*
G37*
G36*
G01*
X168900000Y-114785000D02*
X168900000Y-115085000D01*
G75*
G02*
X168750000Y-115235000I-150000J0D01*
G01*
X167150000Y-115235000D01*
G75*
G02*
X167000000Y-115085000I0J150000D01*
G01*
X167000000Y-114785000D01*
G75*
G02*
X167150000Y-114635000I150000J0D01*
G01*
X168750000Y-114635000D01*
G75*
G02*
X168900000Y-114785000I0J-150000D01*
G01*
G37*
G36*
G01*
X57575000Y-67202000D02*
X59265000Y-67202000D01*
G75*
G02*
X59515000Y-67452000I0J-250000D01*
G01*
X59515000Y-68692000D01*
G75*
G02*
X59265000Y-68942000I-250000J0D01*
G01*
X57575000Y-68942000D01*
G75*
G02*
X57325000Y-68692000I0J250000D01*
G01*
X57325000Y-67452000D01*
G75*
G02*
X57575000Y-67202000I250000J0D01*
G01*
G37*
D17*
X58420000Y-70612000D03*
D21*
X237998000Y-76200000D03*
X237998000Y-78740000D03*
X237998000Y-81280000D03*
G36*
G01*
X199799000Y-68892000D02*
X199799000Y-69792000D01*
G75*
G02*
X199549000Y-70042000I-250000J0D01*
G01*
X199024000Y-70042000D01*
G75*
G02*
X198774000Y-69792000I0J250000D01*
G01*
X198774000Y-68892000D01*
G75*
G02*
X199024000Y-68642000I250000J0D01*
G01*
X199549000Y-68642000D01*
G75*
G02*
X199799000Y-68892000I0J-250000D01*
G01*
G37*
G36*
G01*
X197974000Y-68892000D02*
X197974000Y-69792000D01*
G75*
G02*
X197724000Y-70042000I-250000J0D01*
G01*
X197199000Y-70042000D01*
G75*
G02*
X196949000Y-69792000I0J250000D01*
G01*
X196949000Y-68892000D01*
G75*
G02*
X197199000Y-68642000I250000J0D01*
G01*
X197724000Y-68642000D01*
G75*
G02*
X197974000Y-68892000I0J-250000D01*
G01*
G37*
G36*
G01*
X217071000Y-67876000D02*
X217071000Y-68776000D01*
G75*
G02*
X216821000Y-69026000I-250000J0D01*
G01*
X216296000Y-69026000D01*
G75*
G02*
X216046000Y-68776000I0J250000D01*
G01*
X216046000Y-67876000D01*
G75*
G02*
X216296000Y-67626000I250000J0D01*
G01*
X216821000Y-67626000D01*
G75*
G02*
X217071000Y-67876000I0J-250000D01*
G01*
G37*
G36*
G01*
X215246000Y-67876000D02*
X215246000Y-68776000D01*
G75*
G02*
X214996000Y-69026000I-250000J0D01*
G01*
X214471000Y-69026000D01*
G75*
G02*
X214221000Y-68776000I0J250000D01*
G01*
X214221000Y-67876000D01*
G75*
G02*
X214471000Y-67626000I250000J0D01*
G01*
X214996000Y-67626000D01*
G75*
G02*
X215246000Y-67876000I0J-250000D01*
G01*
G37*
G36*
G01*
X171249000Y-86012000D02*
X171249000Y-86962000D01*
G75*
G02*
X170999000Y-87212000I-250000J0D01*
G01*
X170499000Y-87212000D01*
G75*
G02*
X170249000Y-86962000I0J250000D01*
G01*
X170249000Y-86012000D01*
G75*
G02*
X170499000Y-85762000I250000J0D01*
G01*
X170999000Y-85762000D01*
G75*
G02*
X171249000Y-86012000I0J-250000D01*
G01*
G37*
G36*
G01*
X169349000Y-86012000D02*
X169349000Y-86962000D01*
G75*
G02*
X169099000Y-87212000I-250000J0D01*
G01*
X168599000Y-87212000D01*
G75*
G02*
X168349000Y-86962000I0J250000D01*
G01*
X168349000Y-86012000D01*
G75*
G02*
X168599000Y-85762000I250000J0D01*
G01*
X169099000Y-85762000D01*
G75*
G02*
X169349000Y-86012000I0J-250000D01*
G01*
G37*
D15*
X114045000Y-120015000D03*
X110745000Y-120015000D03*
G36*
G01*
X231521000Y-109670000D02*
X231521000Y-108770000D01*
G75*
G02*
X231771000Y-108520000I250000J0D01*
G01*
X232296000Y-108520000D01*
G75*
G02*
X232546000Y-108770000I0J-250000D01*
G01*
X232546000Y-109670000D01*
G75*
G02*
X232296000Y-109920000I-250000J0D01*
G01*
X231771000Y-109920000D01*
G75*
G02*
X231521000Y-109670000I0J250000D01*
G01*
G37*
G36*
G01*
X233346000Y-109670000D02*
X233346000Y-108770000D01*
G75*
G02*
X233596000Y-108520000I250000J0D01*
G01*
X234121000Y-108520000D01*
G75*
G02*
X234371000Y-108770000I0J-250000D01*
G01*
X234371000Y-109670000D01*
G75*
G02*
X234121000Y-109920000I-250000J0D01*
G01*
X233596000Y-109920000D01*
G75*
G02*
X233346000Y-109670000I0J250000D01*
G01*
G37*
D16*
X240030000Y-67945000D03*
G36*
G01*
X179169000Y-75507000D02*
X179169000Y-74607000D01*
G75*
G02*
X179419000Y-74357000I250000J0D01*
G01*
X179944000Y-74357000D01*
G75*
G02*
X180194000Y-74607000I0J-250000D01*
G01*
X180194000Y-75507000D01*
G75*
G02*
X179944000Y-75757000I-250000J0D01*
G01*
X179419000Y-75757000D01*
G75*
G02*
X179169000Y-75507000I0J250000D01*
G01*
G37*
G36*
G01*
X180994000Y-75507000D02*
X180994000Y-74607000D01*
G75*
G02*
X181244000Y-74357000I250000J0D01*
G01*
X181769000Y-74357000D01*
G75*
G02*
X182019000Y-74607000I0J-250000D01*
G01*
X182019000Y-75507000D01*
G75*
G02*
X181769000Y-75757000I-250000J0D01*
G01*
X181244000Y-75757000D01*
G75*
G02*
X180994000Y-75507000I0J250000D01*
G01*
G37*
G36*
G01*
X79220000Y-116655000D02*
X79220000Y-115755000D01*
G75*
G02*
X79470000Y-115505000I250000J0D01*
G01*
X79995000Y-115505000D01*
G75*
G02*
X80245000Y-115755000I0J-250000D01*
G01*
X80245000Y-116655000D01*
G75*
G02*
X79995000Y-116905000I-250000J0D01*
G01*
X79470000Y-116905000D01*
G75*
G02*
X79220000Y-116655000I0J250000D01*
G01*
G37*
G36*
G01*
X81045000Y-116655000D02*
X81045000Y-115755000D01*
G75*
G02*
X81295000Y-115505000I250000J0D01*
G01*
X81820000Y-115505000D01*
G75*
G02*
X82070000Y-115755000I0J-250000D01*
G01*
X82070000Y-116655000D01*
G75*
G02*
X81820000Y-116905000I-250000J0D01*
G01*
X81295000Y-116905000D01*
G75*
G02*
X81045000Y-116655000I0J250000D01*
G01*
G37*
D15*
X114045000Y-112395000D03*
X110745000Y-112395000D03*
G36*
G01*
X189029000Y-100617000D02*
X189029000Y-101567000D01*
G75*
G02*
X188779000Y-101817000I-250000J0D01*
G01*
X188279000Y-101817000D01*
G75*
G02*
X188029000Y-101567000I0J250000D01*
G01*
X188029000Y-100617000D01*
G75*
G02*
X188279000Y-100367000I250000J0D01*
G01*
X188779000Y-100367000D01*
G75*
G02*
X189029000Y-100617000I0J-250000D01*
G01*
G37*
G36*
G01*
X187129000Y-100617000D02*
X187129000Y-101567000D01*
G75*
G02*
X186879000Y-101817000I-250000J0D01*
G01*
X186379000Y-101817000D01*
G75*
G02*
X186129000Y-101567000I0J250000D01*
G01*
X186129000Y-100617000D01*
G75*
G02*
X186379000Y-100367000I250000J0D01*
G01*
X186879000Y-100367000D01*
G75*
G02*
X187129000Y-100617000I0J-250000D01*
G01*
G37*
G36*
G01*
X199799000Y-79052000D02*
X199799000Y-79952000D01*
G75*
G02*
X199549000Y-80202000I-250000J0D01*
G01*
X199024000Y-80202000D01*
G75*
G02*
X198774000Y-79952000I0J250000D01*
G01*
X198774000Y-79052000D01*
G75*
G02*
X199024000Y-78802000I250000J0D01*
G01*
X199549000Y-78802000D01*
G75*
G02*
X199799000Y-79052000I0J-250000D01*
G01*
G37*
G36*
G01*
X197974000Y-79052000D02*
X197974000Y-79952000D01*
G75*
G02*
X197724000Y-80202000I-250000J0D01*
G01*
X197199000Y-80202000D01*
G75*
G02*
X196949000Y-79952000I0J250000D01*
G01*
X196949000Y-79052000D01*
G75*
G02*
X197199000Y-78802000I250000J0D01*
G01*
X197724000Y-78802000D01*
G75*
G02*
X197974000Y-79052000I0J-250000D01*
G01*
G37*
D16*
X89916000Y-66040000D03*
G36*
G01*
X216591000Y-101150000D02*
X216591000Y-102050000D01*
G75*
G02*
X216341000Y-102300000I-250000J0D01*
G01*
X215816000Y-102300000D01*
G75*
G02*
X215566000Y-102050000I0J250000D01*
G01*
X215566000Y-101150000D01*
G75*
G02*
X215816000Y-100900000I250000J0D01*
G01*
X216341000Y-100900000D01*
G75*
G02*
X216591000Y-101150000I0J-250000D01*
G01*
G37*
G36*
G01*
X214766000Y-101150000D02*
X214766000Y-102050000D01*
G75*
G02*
X214516000Y-102300000I-250000J0D01*
G01*
X213991000Y-102300000D01*
G75*
G02*
X213741000Y-102050000I0J250000D01*
G01*
X213741000Y-101150000D01*
G75*
G02*
X213991000Y-100900000I250000J0D01*
G01*
X214516000Y-100900000D01*
G75*
G02*
X214766000Y-101150000I0J-250000D01*
G01*
G37*
G36*
G01*
X126418000Y-80805000D02*
X126418000Y-81755000D01*
G75*
G02*
X126168000Y-82005000I-250000J0D01*
G01*
X125668000Y-82005000D01*
G75*
G02*
X125418000Y-81755000I0J250000D01*
G01*
X125418000Y-80805000D01*
G75*
G02*
X125668000Y-80555000I250000J0D01*
G01*
X126168000Y-80555000D01*
G75*
G02*
X126418000Y-80805000I0J-250000D01*
G01*
G37*
G36*
G01*
X124518000Y-80805000D02*
X124518000Y-81755000D01*
G75*
G02*
X124268000Y-82005000I-250000J0D01*
G01*
X123768000Y-82005000D01*
G75*
G02*
X123518000Y-81755000I0J250000D01*
G01*
X123518000Y-80805000D01*
G75*
G02*
X123768000Y-80555000I250000J0D01*
G01*
X124268000Y-80555000D01*
G75*
G02*
X124518000Y-80805000I0J-250000D01*
G01*
G37*
G36*
G01*
X167439000Y-100617000D02*
X167439000Y-101567000D01*
G75*
G02*
X167189000Y-101817000I-250000J0D01*
G01*
X166689000Y-101817000D01*
G75*
G02*
X166439000Y-101567000I0J250000D01*
G01*
X166439000Y-100617000D01*
G75*
G02*
X166689000Y-100367000I250000J0D01*
G01*
X167189000Y-100367000D01*
G75*
G02*
X167439000Y-100617000I0J-250000D01*
G01*
G37*
G36*
G01*
X165539000Y-100617000D02*
X165539000Y-101567000D01*
G75*
G02*
X165289000Y-101817000I-250000J0D01*
G01*
X164789000Y-101817000D01*
G75*
G02*
X164539000Y-101567000I0J250000D01*
G01*
X164539000Y-100617000D01*
G75*
G02*
X164789000Y-100367000I250000J0D01*
G01*
X165289000Y-100367000D01*
G75*
G02*
X165539000Y-100617000I0J-250000D01*
G01*
G37*
G36*
G01*
X105558000Y-93830000D02*
X105558000Y-94130000D01*
G75*
G02*
X105408000Y-94280000I-150000J0D01*
G01*
X103758000Y-94280000D01*
G75*
G02*
X103608000Y-94130000I0J150000D01*
G01*
X103608000Y-93830000D01*
G75*
G02*
X103758000Y-93680000I150000J0D01*
G01*
X105408000Y-93680000D01*
G75*
G02*
X105558000Y-93830000I0J-150000D01*
G01*
G37*
G36*
G01*
X105558000Y-95100000D02*
X105558000Y-95400000D01*
G75*
G02*
X105408000Y-95550000I-150000J0D01*
G01*
X103758000Y-95550000D01*
G75*
G02*
X103608000Y-95400000I0J150000D01*
G01*
X103608000Y-95100000D01*
G75*
G02*
X103758000Y-94950000I150000J0D01*
G01*
X105408000Y-94950000D01*
G75*
G02*
X105558000Y-95100000I0J-150000D01*
G01*
G37*
G36*
G01*
X105558000Y-96370000D02*
X105558000Y-96670000D01*
G75*
G02*
X105408000Y-96820000I-150000J0D01*
G01*
X103758000Y-96820000D01*
G75*
G02*
X103608000Y-96670000I0J150000D01*
G01*
X103608000Y-96370000D01*
G75*
G02*
X103758000Y-96220000I150000J0D01*
G01*
X105408000Y-96220000D01*
G75*
G02*
X105558000Y-96370000I0J-150000D01*
G01*
G37*
G36*
G01*
X105558000Y-97640000D02*
X105558000Y-97940000D01*
G75*
G02*
X105408000Y-98090000I-150000J0D01*
G01*
X103758000Y-98090000D01*
G75*
G02*
X103608000Y-97940000I0J150000D01*
G01*
X103608000Y-97640000D01*
G75*
G02*
X103758000Y-97490000I150000J0D01*
G01*
X105408000Y-97490000D01*
G75*
G02*
X105558000Y-97640000I0J-150000D01*
G01*
G37*
G36*
G01*
X105558000Y-98910000D02*
X105558000Y-99210000D01*
G75*
G02*
X105408000Y-99360000I-150000J0D01*
G01*
X103758000Y-99360000D01*
G75*
G02*
X103608000Y-99210000I0J150000D01*
G01*
X103608000Y-98910000D01*
G75*
G02*
X103758000Y-98760000I150000J0D01*
G01*
X105408000Y-98760000D01*
G75*
G02*
X105558000Y-98910000I0J-150000D01*
G01*
G37*
G36*
G01*
X105558000Y-100180000D02*
X105558000Y-100480000D01*
G75*
G02*
X105408000Y-100630000I-150000J0D01*
G01*
X103758000Y-100630000D01*
G75*
G02*
X103608000Y-100480000I0J150000D01*
G01*
X103608000Y-100180000D01*
G75*
G02*
X103758000Y-100030000I150000J0D01*
G01*
X105408000Y-100030000D01*
G75*
G02*
X105558000Y-100180000I0J-150000D01*
G01*
G37*
G36*
G01*
X105558000Y-101450000D02*
X105558000Y-101750000D01*
G75*
G02*
X105408000Y-101900000I-150000J0D01*
G01*
X103758000Y-101900000D01*
G75*
G02*
X103608000Y-101750000I0J150000D01*
G01*
X103608000Y-101450000D01*
G75*
G02*
X103758000Y-101300000I150000J0D01*
G01*
X105408000Y-101300000D01*
G75*
G02*
X105558000Y-101450000I0J-150000D01*
G01*
G37*
G36*
G01*
X100608000Y-101450000D02*
X100608000Y-101750000D01*
G75*
G02*
X100458000Y-101900000I-150000J0D01*
G01*
X98808000Y-101900000D01*
G75*
G02*
X98658000Y-101750000I0J150000D01*
G01*
X98658000Y-101450000D01*
G75*
G02*
X98808000Y-101300000I150000J0D01*
G01*
X100458000Y-101300000D01*
G75*
G02*
X100608000Y-101450000I0J-150000D01*
G01*
G37*
G36*
G01*
X100608000Y-100180000D02*
X100608000Y-100480000D01*
G75*
G02*
X100458000Y-100630000I-150000J0D01*
G01*
X98808000Y-100630000D01*
G75*
G02*
X98658000Y-100480000I0J150000D01*
G01*
X98658000Y-100180000D01*
G75*
G02*
X98808000Y-100030000I150000J0D01*
G01*
X100458000Y-100030000D01*
G75*
G02*
X100608000Y-100180000I0J-150000D01*
G01*
G37*
G36*
G01*
X100608000Y-98910000D02*
X100608000Y-99210000D01*
G75*
G02*
X100458000Y-99360000I-150000J0D01*
G01*
X98808000Y-99360000D01*
G75*
G02*
X98658000Y-99210000I0J150000D01*
G01*
X98658000Y-98910000D01*
G75*
G02*
X98808000Y-98760000I150000J0D01*
G01*
X100458000Y-98760000D01*
G75*
G02*
X100608000Y-98910000I0J-150000D01*
G01*
G37*
G36*
G01*
X100608000Y-97640000D02*
X100608000Y-97940000D01*
G75*
G02*
X100458000Y-98090000I-150000J0D01*
G01*
X98808000Y-98090000D01*
G75*
G02*
X98658000Y-97940000I0J150000D01*
G01*
X98658000Y-97640000D01*
G75*
G02*
X98808000Y-97490000I150000J0D01*
G01*
X100458000Y-97490000D01*
G75*
G02*
X100608000Y-97640000I0J-150000D01*
G01*
G37*
G36*
G01*
X100608000Y-96370000D02*
X100608000Y-96670000D01*
G75*
G02*
X100458000Y-96820000I-150000J0D01*
G01*
X98808000Y-96820000D01*
G75*
G02*
X98658000Y-96670000I0J150000D01*
G01*
X98658000Y-96370000D01*
G75*
G02*
X98808000Y-96220000I150000J0D01*
G01*
X100458000Y-96220000D01*
G75*
G02*
X100608000Y-96370000I0J-150000D01*
G01*
G37*
G36*
G01*
X100608000Y-95100000D02*
X100608000Y-95400000D01*
G75*
G02*
X100458000Y-95550000I-150000J0D01*
G01*
X98808000Y-95550000D01*
G75*
G02*
X98658000Y-95400000I0J150000D01*
G01*
X98658000Y-95100000D01*
G75*
G02*
X98808000Y-94950000I150000J0D01*
G01*
X100458000Y-94950000D01*
G75*
G02*
X100608000Y-95100000I0J-150000D01*
G01*
G37*
G36*
G01*
X100608000Y-93830000D02*
X100608000Y-94130000D01*
G75*
G02*
X100458000Y-94280000I-150000J0D01*
G01*
X98808000Y-94280000D01*
G75*
G02*
X98658000Y-94130000I0J150000D01*
G01*
X98658000Y-93830000D01*
G75*
G02*
X98808000Y-93680000I150000J0D01*
G01*
X100458000Y-93680000D01*
G75*
G02*
X100608000Y-93830000I0J-150000D01*
G01*
G37*
G36*
G01*
X192934000Y-90147000D02*
X192934000Y-90447000D01*
G75*
G02*
X192784000Y-90597000I-150000J0D01*
G01*
X191134000Y-90597000D01*
G75*
G02*
X190984000Y-90447000I0J150000D01*
G01*
X190984000Y-90147000D01*
G75*
G02*
X191134000Y-89997000I150000J0D01*
G01*
X192784000Y-89997000D01*
G75*
G02*
X192934000Y-90147000I0J-150000D01*
G01*
G37*
G36*
G01*
X192934000Y-91417000D02*
X192934000Y-91717000D01*
G75*
G02*
X192784000Y-91867000I-150000J0D01*
G01*
X191134000Y-91867000D01*
G75*
G02*
X190984000Y-91717000I0J150000D01*
G01*
X190984000Y-91417000D01*
G75*
G02*
X191134000Y-91267000I150000J0D01*
G01*
X192784000Y-91267000D01*
G75*
G02*
X192934000Y-91417000I0J-150000D01*
G01*
G37*
G36*
G01*
X192934000Y-92687000D02*
X192934000Y-92987000D01*
G75*
G02*
X192784000Y-93137000I-150000J0D01*
G01*
X191134000Y-93137000D01*
G75*
G02*
X190984000Y-92987000I0J150000D01*
G01*
X190984000Y-92687000D01*
G75*
G02*
X191134000Y-92537000I150000J0D01*
G01*
X192784000Y-92537000D01*
G75*
G02*
X192934000Y-92687000I0J-150000D01*
G01*
G37*
G36*
G01*
X192934000Y-93957000D02*
X192934000Y-94257000D01*
G75*
G02*
X192784000Y-94407000I-150000J0D01*
G01*
X191134000Y-94407000D01*
G75*
G02*
X190984000Y-94257000I0J150000D01*
G01*
X190984000Y-93957000D01*
G75*
G02*
X191134000Y-93807000I150000J0D01*
G01*
X192784000Y-93807000D01*
G75*
G02*
X192934000Y-93957000I0J-150000D01*
G01*
G37*
G36*
G01*
X192934000Y-95227000D02*
X192934000Y-95527000D01*
G75*
G02*
X192784000Y-95677000I-150000J0D01*
G01*
X191134000Y-95677000D01*
G75*
G02*
X190984000Y-95527000I0J150000D01*
G01*
X190984000Y-95227000D01*
G75*
G02*
X191134000Y-95077000I150000J0D01*
G01*
X192784000Y-95077000D01*
G75*
G02*
X192934000Y-95227000I0J-150000D01*
G01*
G37*
G36*
G01*
X192934000Y-96497000D02*
X192934000Y-96797000D01*
G75*
G02*
X192784000Y-96947000I-150000J0D01*
G01*
X191134000Y-96947000D01*
G75*
G02*
X190984000Y-96797000I0J150000D01*
G01*
X190984000Y-96497000D01*
G75*
G02*
X191134000Y-96347000I150000J0D01*
G01*
X192784000Y-96347000D01*
G75*
G02*
X192934000Y-96497000I0J-150000D01*
G01*
G37*
G36*
G01*
X192934000Y-97767000D02*
X192934000Y-98067000D01*
G75*
G02*
X192784000Y-98217000I-150000J0D01*
G01*
X191134000Y-98217000D01*
G75*
G02*
X190984000Y-98067000I0J150000D01*
G01*
X190984000Y-97767000D01*
G75*
G02*
X191134000Y-97617000I150000J0D01*
G01*
X192784000Y-97617000D01*
G75*
G02*
X192934000Y-97767000I0J-150000D01*
G01*
G37*
G36*
G01*
X187984000Y-97767000D02*
X187984000Y-98067000D01*
G75*
G02*
X187834000Y-98217000I-150000J0D01*
G01*
X186184000Y-98217000D01*
G75*
G02*
X186034000Y-98067000I0J150000D01*
G01*
X186034000Y-97767000D01*
G75*
G02*
X186184000Y-97617000I150000J0D01*
G01*
X187834000Y-97617000D01*
G75*
G02*
X187984000Y-97767000I0J-150000D01*
G01*
G37*
G36*
G01*
X187984000Y-96497000D02*
X187984000Y-96797000D01*
G75*
G02*
X187834000Y-96947000I-150000J0D01*
G01*
X186184000Y-96947000D01*
G75*
G02*
X186034000Y-96797000I0J150000D01*
G01*
X186034000Y-96497000D01*
G75*
G02*
X186184000Y-96347000I150000J0D01*
G01*
X187834000Y-96347000D01*
G75*
G02*
X187984000Y-96497000I0J-150000D01*
G01*
G37*
G36*
G01*
X187984000Y-95227000D02*
X187984000Y-95527000D01*
G75*
G02*
X187834000Y-95677000I-150000J0D01*
G01*
X186184000Y-95677000D01*
G75*
G02*
X186034000Y-95527000I0J150000D01*
G01*
X186034000Y-95227000D01*
G75*
G02*
X186184000Y-95077000I150000J0D01*
G01*
X187834000Y-95077000D01*
G75*
G02*
X187984000Y-95227000I0J-150000D01*
G01*
G37*
G36*
G01*
X187984000Y-93957000D02*
X187984000Y-94257000D01*
G75*
G02*
X187834000Y-94407000I-150000J0D01*
G01*
X186184000Y-94407000D01*
G75*
G02*
X186034000Y-94257000I0J150000D01*
G01*
X186034000Y-93957000D01*
G75*
G02*
X186184000Y-93807000I150000J0D01*
G01*
X187834000Y-93807000D01*
G75*
G02*
X187984000Y-93957000I0J-150000D01*
G01*
G37*
G36*
G01*
X187984000Y-92687000D02*
X187984000Y-92987000D01*
G75*
G02*
X187834000Y-93137000I-150000J0D01*
G01*
X186184000Y-93137000D01*
G75*
G02*
X186034000Y-92987000I0J150000D01*
G01*
X186034000Y-92687000D01*
G75*
G02*
X186184000Y-92537000I150000J0D01*
G01*
X187834000Y-92537000D01*
G75*
G02*
X187984000Y-92687000I0J-150000D01*
G01*
G37*
G36*
G01*
X187984000Y-91417000D02*
X187984000Y-91717000D01*
G75*
G02*
X187834000Y-91867000I-150000J0D01*
G01*
X186184000Y-91867000D01*
G75*
G02*
X186034000Y-91717000I0J150000D01*
G01*
X186034000Y-91417000D01*
G75*
G02*
X186184000Y-91267000I150000J0D01*
G01*
X187834000Y-91267000D01*
G75*
G02*
X187984000Y-91417000I0J-150000D01*
G01*
G37*
G36*
G01*
X187984000Y-90147000D02*
X187984000Y-90447000D01*
G75*
G02*
X187834000Y-90597000I-150000J0D01*
G01*
X186184000Y-90597000D01*
G75*
G02*
X186034000Y-90447000I0J150000D01*
G01*
X186034000Y-90147000D01*
G75*
G02*
X186184000Y-89997000I150000J0D01*
G01*
X187834000Y-89997000D01*
G75*
G02*
X187984000Y-90147000I0J-150000D01*
G01*
G37*
G36*
G01*
X214903000Y-84143000D02*
X214903000Y-83243000D01*
G75*
G02*
X215153000Y-82993000I250000J0D01*
G01*
X215678000Y-82993000D01*
G75*
G02*
X215928000Y-83243000I0J-250000D01*
G01*
X215928000Y-84143000D01*
G75*
G02*
X215678000Y-84393000I-250000J0D01*
G01*
X215153000Y-84393000D01*
G75*
G02*
X214903000Y-84143000I0J250000D01*
G01*
G37*
G36*
G01*
X216728000Y-84143000D02*
X216728000Y-83243000D01*
G75*
G02*
X216978000Y-82993000I250000J0D01*
G01*
X217503000Y-82993000D01*
G75*
G02*
X217753000Y-83243000I0J-250000D01*
G01*
X217753000Y-84143000D01*
G75*
G02*
X217503000Y-84393000I-250000J0D01*
G01*
X216978000Y-84393000D01*
G75*
G02*
X216728000Y-84143000I0J250000D01*
G01*
G37*
G36*
G01*
X158849000Y-88207000D02*
X158849000Y-87307000D01*
G75*
G02*
X159099000Y-87057000I250000J0D01*
G01*
X159624000Y-87057000D01*
G75*
G02*
X159874000Y-87307000I0J-250000D01*
G01*
X159874000Y-88207000D01*
G75*
G02*
X159624000Y-88457000I-250000J0D01*
G01*
X159099000Y-88457000D01*
G75*
G02*
X158849000Y-88207000I0J250000D01*
G01*
G37*
G36*
G01*
X160674000Y-88207000D02*
X160674000Y-87307000D01*
G75*
G02*
X160924000Y-87057000I250000J0D01*
G01*
X161449000Y-87057000D01*
G75*
G02*
X161699000Y-87307000I0J-250000D01*
G01*
X161699000Y-88207000D01*
G75*
G02*
X161449000Y-88457000I-250000J0D01*
G01*
X160924000Y-88457000D01*
G75*
G02*
X160674000Y-88207000I0J250000D01*
G01*
G37*
G36*
G01*
X170995000Y-122080000D02*
X170995000Y-123030000D01*
G75*
G02*
X170745000Y-123280000I-250000J0D01*
G01*
X170245000Y-123280000D01*
G75*
G02*
X169995000Y-123030000I0J250000D01*
G01*
X169995000Y-122080000D01*
G75*
G02*
X170245000Y-121830000I250000J0D01*
G01*
X170745000Y-121830000D01*
G75*
G02*
X170995000Y-122080000I0J-250000D01*
G01*
G37*
G36*
G01*
X169095000Y-122080000D02*
X169095000Y-123030000D01*
G75*
G02*
X168845000Y-123280000I-250000J0D01*
G01*
X168345000Y-123280000D01*
G75*
G02*
X168095000Y-123030000I0J250000D01*
G01*
X168095000Y-122080000D01*
G75*
G02*
X168345000Y-121830000I250000J0D01*
G01*
X168845000Y-121830000D01*
G75*
G02*
X169095000Y-122080000I0J-250000D01*
G01*
G37*
G36*
G01*
X199799000Y-65082000D02*
X199799000Y-65982000D01*
G75*
G02*
X199549000Y-66232000I-250000J0D01*
G01*
X199024000Y-66232000D01*
G75*
G02*
X198774000Y-65982000I0J250000D01*
G01*
X198774000Y-65082000D01*
G75*
G02*
X199024000Y-64832000I250000J0D01*
G01*
X199549000Y-64832000D01*
G75*
G02*
X199799000Y-65082000I0J-250000D01*
G01*
G37*
G36*
G01*
X197974000Y-65082000D02*
X197974000Y-65982000D01*
G75*
G02*
X197724000Y-66232000I-250000J0D01*
G01*
X197199000Y-66232000D01*
G75*
G02*
X196949000Y-65982000I0J250000D01*
G01*
X196949000Y-65082000D01*
G75*
G02*
X197199000Y-64832000I250000J0D01*
G01*
X197724000Y-64832000D01*
G75*
G02*
X197974000Y-65082000I0J-250000D01*
G01*
G37*
D15*
X114045000Y-116205000D03*
X110745000Y-116205000D03*
G36*
G01*
X182019000Y-90482000D02*
X182019000Y-91382000D01*
G75*
G02*
X181769000Y-91632000I-250000J0D01*
G01*
X181244000Y-91632000D01*
G75*
G02*
X180994000Y-91382000I0J250000D01*
G01*
X180994000Y-90482000D01*
G75*
G02*
X181244000Y-90232000I250000J0D01*
G01*
X181769000Y-90232000D01*
G75*
G02*
X182019000Y-90482000I0J-250000D01*
G01*
G37*
G36*
G01*
X180194000Y-90482000D02*
X180194000Y-91382000D01*
G75*
G02*
X179944000Y-91632000I-250000J0D01*
G01*
X179419000Y-91632000D01*
G75*
G02*
X179169000Y-91382000I0J250000D01*
G01*
X179169000Y-90482000D01*
G75*
G02*
X179419000Y-90232000I250000J0D01*
G01*
X179944000Y-90232000D01*
G75*
G02*
X180194000Y-90482000I0J-250000D01*
G01*
G37*
G36*
G01*
X181765000Y-116390000D02*
X181765000Y-117290000D01*
G75*
G02*
X181515000Y-117540000I-250000J0D01*
G01*
X180990000Y-117540000D01*
G75*
G02*
X180740000Y-117290000I0J250000D01*
G01*
X180740000Y-116390000D01*
G75*
G02*
X180990000Y-116140000I250000J0D01*
G01*
X181515000Y-116140000D01*
G75*
G02*
X181765000Y-116390000I0J-250000D01*
G01*
G37*
G36*
G01*
X179940000Y-116390000D02*
X179940000Y-117290000D01*
G75*
G02*
X179690000Y-117540000I-250000J0D01*
G01*
X179165000Y-117540000D01*
G75*
G02*
X178915000Y-117290000I0J250000D01*
G01*
X178915000Y-116390000D01*
G75*
G02*
X179165000Y-116140000I250000J0D01*
G01*
X179690000Y-116140000D01*
G75*
G02*
X179940000Y-116390000I0J-250000D01*
G01*
G37*
G36*
G01*
X228478000Y-118849000D02*
X228478000Y-119149000D01*
G75*
G02*
X228328000Y-119299000I-150000J0D01*
G01*
X226728000Y-119299000D01*
G75*
G02*
X226578000Y-119149000I0J150000D01*
G01*
X226578000Y-118849000D01*
G75*
G02*
X226728000Y-118699000I150000J0D01*
G01*
X228328000Y-118699000D01*
G75*
G02*
X228478000Y-118849000I0J-150000D01*
G01*
G37*
G36*
G01*
X228478000Y-120119000D02*
X228478000Y-120419000D01*
G75*
G02*
X228328000Y-120569000I-150000J0D01*
G01*
X226728000Y-120569000D01*
G75*
G02*
X226578000Y-120419000I0J150000D01*
G01*
X226578000Y-120119000D01*
G75*
G02*
X226728000Y-119969000I150000J0D01*
G01*
X228328000Y-119969000D01*
G75*
G02*
X228478000Y-120119000I0J-150000D01*
G01*
G37*
G36*
G01*
X228478000Y-121389000D02*
X228478000Y-121689000D01*
G75*
G02*
X228328000Y-121839000I-150000J0D01*
G01*
X226728000Y-121839000D01*
G75*
G02*
X226578000Y-121689000I0J150000D01*
G01*
X226578000Y-121389000D01*
G75*
G02*
X226728000Y-121239000I150000J0D01*
G01*
X228328000Y-121239000D01*
G75*
G02*
X228478000Y-121389000I0J-150000D01*
G01*
G37*
G36*
G01*
X228478000Y-122659000D02*
X228478000Y-122959000D01*
G75*
G02*
X228328000Y-123109000I-150000J0D01*
G01*
X226728000Y-123109000D01*
G75*
G02*
X226578000Y-122959000I0J150000D01*
G01*
X226578000Y-122659000D01*
G75*
G02*
X226728000Y-122509000I150000J0D01*
G01*
X228328000Y-122509000D01*
G75*
G02*
X228478000Y-122659000I0J-150000D01*
G01*
G37*
G36*
G01*
X221478000Y-122659000D02*
X221478000Y-122959000D01*
G75*
G02*
X221328000Y-123109000I-150000J0D01*
G01*
X219728000Y-123109000D01*
G75*
G02*
X219578000Y-122959000I0J150000D01*
G01*
X219578000Y-122659000D01*
G75*
G02*
X219728000Y-122509000I150000J0D01*
G01*
X221328000Y-122509000D01*
G75*
G02*
X221478000Y-122659000I0J-150000D01*
G01*
G37*
G36*
G01*
X221478000Y-121389000D02*
X221478000Y-121689000D01*
G75*
G02*
X221328000Y-121839000I-150000J0D01*
G01*
X219728000Y-121839000D01*
G75*
G02*
X219578000Y-121689000I0J150000D01*
G01*
X219578000Y-121389000D01*
G75*
G02*
X219728000Y-121239000I150000J0D01*
G01*
X221328000Y-121239000D01*
G75*
G02*
X221478000Y-121389000I0J-150000D01*
G01*
G37*
G36*
G01*
X221478000Y-120119000D02*
X221478000Y-120419000D01*
G75*
G02*
X221328000Y-120569000I-150000J0D01*
G01*
X219728000Y-120569000D01*
G75*
G02*
X219578000Y-120419000I0J150000D01*
G01*
X219578000Y-120119000D01*
G75*
G02*
X219728000Y-119969000I150000J0D01*
G01*
X221328000Y-119969000D01*
G75*
G02*
X221478000Y-120119000I0J-150000D01*
G01*
G37*
G36*
G01*
X221478000Y-118849000D02*
X221478000Y-119149000D01*
G75*
G02*
X221328000Y-119299000I-150000J0D01*
G01*
X219728000Y-119299000D01*
G75*
G02*
X219578000Y-119149000I0J150000D01*
G01*
X219578000Y-118849000D01*
G75*
G02*
X219728000Y-118699000I150000J0D01*
G01*
X221328000Y-118699000D01*
G75*
G02*
X221478000Y-118849000I0J-150000D01*
G01*
G37*
G36*
G01*
X136038000Y-93195000D02*
X136038000Y-93495000D01*
G75*
G02*
X135888000Y-93645000I-150000J0D01*
G01*
X134238000Y-93645000D01*
G75*
G02*
X134088000Y-93495000I0J150000D01*
G01*
X134088000Y-93195000D01*
G75*
G02*
X134238000Y-93045000I150000J0D01*
G01*
X135888000Y-93045000D01*
G75*
G02*
X136038000Y-93195000I0J-150000D01*
G01*
G37*
G36*
G01*
X136038000Y-94465000D02*
X136038000Y-94765000D01*
G75*
G02*
X135888000Y-94915000I-150000J0D01*
G01*
X134238000Y-94915000D01*
G75*
G02*
X134088000Y-94765000I0J150000D01*
G01*
X134088000Y-94465000D01*
G75*
G02*
X134238000Y-94315000I150000J0D01*
G01*
X135888000Y-94315000D01*
G75*
G02*
X136038000Y-94465000I0J-150000D01*
G01*
G37*
G36*
G01*
X136038000Y-95735000D02*
X136038000Y-96035000D01*
G75*
G02*
X135888000Y-96185000I-150000J0D01*
G01*
X134238000Y-96185000D01*
G75*
G02*
X134088000Y-96035000I0J150000D01*
G01*
X134088000Y-95735000D01*
G75*
G02*
X134238000Y-95585000I150000J0D01*
G01*
X135888000Y-95585000D01*
G75*
G02*
X136038000Y-95735000I0J-150000D01*
G01*
G37*
G36*
G01*
X136038000Y-97005000D02*
X136038000Y-97305000D01*
G75*
G02*
X135888000Y-97455000I-150000J0D01*
G01*
X134238000Y-97455000D01*
G75*
G02*
X134088000Y-97305000I0J150000D01*
G01*
X134088000Y-97005000D01*
G75*
G02*
X134238000Y-96855000I150000J0D01*
G01*
X135888000Y-96855000D01*
G75*
G02*
X136038000Y-97005000I0J-150000D01*
G01*
G37*
G36*
G01*
X136038000Y-98275000D02*
X136038000Y-98575000D01*
G75*
G02*
X135888000Y-98725000I-150000J0D01*
G01*
X134238000Y-98725000D01*
G75*
G02*
X134088000Y-98575000I0J150000D01*
G01*
X134088000Y-98275000D01*
G75*
G02*
X134238000Y-98125000I150000J0D01*
G01*
X135888000Y-98125000D01*
G75*
G02*
X136038000Y-98275000I0J-150000D01*
G01*
G37*
G36*
G01*
X136038000Y-99545000D02*
X136038000Y-99845000D01*
G75*
G02*
X135888000Y-99995000I-150000J0D01*
G01*
X134238000Y-99995000D01*
G75*
G02*
X134088000Y-99845000I0J150000D01*
G01*
X134088000Y-99545000D01*
G75*
G02*
X134238000Y-99395000I150000J0D01*
G01*
X135888000Y-99395000D01*
G75*
G02*
X136038000Y-99545000I0J-150000D01*
G01*
G37*
G36*
G01*
X136038000Y-100815000D02*
X136038000Y-101115000D01*
G75*
G02*
X135888000Y-101265000I-150000J0D01*
G01*
X134238000Y-101265000D01*
G75*
G02*
X134088000Y-101115000I0J150000D01*
G01*
X134088000Y-100815000D01*
G75*
G02*
X134238000Y-100665000I150000J0D01*
G01*
X135888000Y-100665000D01*
G75*
G02*
X136038000Y-100815000I0J-150000D01*
G01*
G37*
G36*
G01*
X136038000Y-102085000D02*
X136038000Y-102385000D01*
G75*
G02*
X135888000Y-102535000I-150000J0D01*
G01*
X134238000Y-102535000D01*
G75*
G02*
X134088000Y-102385000I0J150000D01*
G01*
X134088000Y-102085000D01*
G75*
G02*
X134238000Y-101935000I150000J0D01*
G01*
X135888000Y-101935000D01*
G75*
G02*
X136038000Y-102085000I0J-150000D01*
G01*
G37*
G36*
G01*
X131088000Y-102085000D02*
X131088000Y-102385000D01*
G75*
G02*
X130938000Y-102535000I-150000J0D01*
G01*
X129288000Y-102535000D01*
G75*
G02*
X129138000Y-102385000I0J150000D01*
G01*
X129138000Y-102085000D01*
G75*
G02*
X129288000Y-101935000I150000J0D01*
G01*
X130938000Y-101935000D01*
G75*
G02*
X131088000Y-102085000I0J-150000D01*
G01*
G37*
G36*
G01*
X131088000Y-100815000D02*
X131088000Y-101115000D01*
G75*
G02*
X130938000Y-101265000I-150000J0D01*
G01*
X129288000Y-101265000D01*
G75*
G02*
X129138000Y-101115000I0J150000D01*
G01*
X129138000Y-100815000D01*
G75*
G02*
X129288000Y-100665000I150000J0D01*
G01*
X130938000Y-100665000D01*
G75*
G02*
X131088000Y-100815000I0J-150000D01*
G01*
G37*
G36*
G01*
X131088000Y-99545000D02*
X131088000Y-99845000D01*
G75*
G02*
X130938000Y-99995000I-150000J0D01*
G01*
X129288000Y-99995000D01*
G75*
G02*
X129138000Y-99845000I0J150000D01*
G01*
X129138000Y-99545000D01*
G75*
G02*
X129288000Y-99395000I150000J0D01*
G01*
X130938000Y-99395000D01*
G75*
G02*
X131088000Y-99545000I0J-150000D01*
G01*
G37*
G36*
G01*
X131088000Y-98275000D02*
X131088000Y-98575000D01*
G75*
G02*
X130938000Y-98725000I-150000J0D01*
G01*
X129288000Y-98725000D01*
G75*
G02*
X129138000Y-98575000I0J150000D01*
G01*
X129138000Y-98275000D01*
G75*
G02*
X129288000Y-98125000I150000J0D01*
G01*
X130938000Y-98125000D01*
G75*
G02*
X131088000Y-98275000I0J-150000D01*
G01*
G37*
G36*
G01*
X131088000Y-97005000D02*
X131088000Y-97305000D01*
G75*
G02*
X130938000Y-97455000I-150000J0D01*
G01*
X129288000Y-97455000D01*
G75*
G02*
X129138000Y-97305000I0J150000D01*
G01*
X129138000Y-97005000D01*
G75*
G02*
X129288000Y-96855000I150000J0D01*
G01*
X130938000Y-96855000D01*
G75*
G02*
X131088000Y-97005000I0J-150000D01*
G01*
G37*
G36*
G01*
X131088000Y-95735000D02*
X131088000Y-96035000D01*
G75*
G02*
X130938000Y-96185000I-150000J0D01*
G01*
X129288000Y-96185000D01*
G75*
G02*
X129138000Y-96035000I0J150000D01*
G01*
X129138000Y-95735000D01*
G75*
G02*
X129288000Y-95585000I150000J0D01*
G01*
X130938000Y-95585000D01*
G75*
G02*
X131088000Y-95735000I0J-150000D01*
G01*
G37*
G36*
G01*
X131088000Y-94465000D02*
X131088000Y-94765000D01*
G75*
G02*
X130938000Y-94915000I-150000J0D01*
G01*
X129288000Y-94915000D01*
G75*
G02*
X129138000Y-94765000I0J150000D01*
G01*
X129138000Y-94465000D01*
G75*
G02*
X129288000Y-94315000I150000J0D01*
G01*
X130938000Y-94315000D01*
G75*
G02*
X131088000Y-94465000I0J-150000D01*
G01*
G37*
G36*
G01*
X131088000Y-93195000D02*
X131088000Y-93495000D01*
G75*
G02*
X130938000Y-93645000I-150000J0D01*
G01*
X129288000Y-93645000D01*
G75*
G02*
X129138000Y-93495000I0J150000D01*
G01*
X129138000Y-93195000D01*
G75*
G02*
X129288000Y-93045000I150000J0D01*
G01*
X130938000Y-93045000D01*
G75*
G02*
X131088000Y-93195000I0J-150000D01*
G01*
G37*
G36*
G01*
X182019000Y-57855000D02*
X182019000Y-58755000D01*
G75*
G02*
X181769000Y-59005000I-250000J0D01*
G01*
X181244000Y-59005000D01*
G75*
G02*
X180994000Y-58755000I0J250000D01*
G01*
X180994000Y-57855000D01*
G75*
G02*
X181244000Y-57605000I250000J0D01*
G01*
X181769000Y-57605000D01*
G75*
G02*
X182019000Y-57855000I0J-250000D01*
G01*
G37*
G36*
G01*
X180194000Y-57855000D02*
X180194000Y-58755000D01*
G75*
G02*
X179944000Y-59005000I-250000J0D01*
G01*
X179419000Y-59005000D01*
G75*
G02*
X179169000Y-58755000I0J250000D01*
G01*
X179169000Y-57855000D01*
G75*
G02*
X179419000Y-57605000I250000J0D01*
G01*
X179944000Y-57605000D01*
G75*
G02*
X180194000Y-57855000I0J-250000D01*
G01*
G37*
G36*
G01*
X131138000Y-76040000D02*
X131138000Y-75090000D01*
G75*
G02*
X131388000Y-74840000I250000J0D01*
G01*
X131888000Y-74840000D01*
G75*
G02*
X132138000Y-75090000I0J-250000D01*
G01*
X132138000Y-76040000D01*
G75*
G02*
X131888000Y-76290000I-250000J0D01*
G01*
X131388000Y-76290000D01*
G75*
G02*
X131138000Y-76040000I0J250000D01*
G01*
G37*
G36*
G01*
X133038000Y-76040000D02*
X133038000Y-75090000D01*
G75*
G02*
X133288000Y-74840000I250000J0D01*
G01*
X133788000Y-74840000D01*
G75*
G02*
X134038000Y-75090000I0J-250000D01*
G01*
X134038000Y-76040000D01*
G75*
G02*
X133788000Y-76290000I-250000J0D01*
G01*
X133288000Y-76290000D01*
G75*
G02*
X133038000Y-76040000I0J250000D01*
G01*
G37*
G36*
G01*
X196949000Y-58235000D02*
X196949000Y-57335000D01*
G75*
G02*
X197199000Y-57085000I250000J0D01*
G01*
X197724000Y-57085000D01*
G75*
G02*
X197974000Y-57335000I0J-250000D01*
G01*
X197974000Y-58235000D01*
G75*
G02*
X197724000Y-58485000I-250000J0D01*
G01*
X197199000Y-58485000D01*
G75*
G02*
X196949000Y-58235000I0J250000D01*
G01*
G37*
G36*
G01*
X198774000Y-58235000D02*
X198774000Y-57335000D01*
G75*
G02*
X199024000Y-57085000I250000J0D01*
G01*
X199549000Y-57085000D01*
G75*
G02*
X199799000Y-57335000I0J-250000D01*
G01*
X199799000Y-58235000D01*
G75*
G02*
X199549000Y-58485000I-250000J0D01*
G01*
X199024000Y-58485000D01*
G75*
G02*
X198774000Y-58235000I0J250000D01*
G01*
G37*
G36*
G01*
X57595000Y-84220000D02*
X59285000Y-84220000D01*
G75*
G02*
X59535000Y-84470000I0J-250000D01*
G01*
X59535000Y-85710000D01*
G75*
G02*
X59285000Y-85960000I-250000J0D01*
G01*
X57595000Y-85960000D01*
G75*
G02*
X57345000Y-85710000I0J250000D01*
G01*
X57345000Y-84470000D01*
G75*
G02*
X57595000Y-84220000I250000J0D01*
G01*
G37*
D17*
X58440000Y-87630000D03*
X58440000Y-90170000D03*
G36*
G01*
X181958000Y-104452000D02*
X181958000Y-105352000D01*
G75*
G02*
X181708000Y-105602000I-250000J0D01*
G01*
X181183000Y-105602000D01*
G75*
G02*
X180933000Y-105352000I0J250000D01*
G01*
X180933000Y-104452000D01*
G75*
G02*
X181183000Y-104202000I250000J0D01*
G01*
X181708000Y-104202000D01*
G75*
G02*
X181958000Y-104452000I0J-250000D01*
G01*
G37*
G36*
G01*
X180133000Y-104452000D02*
X180133000Y-105352000D01*
G75*
G02*
X179883000Y-105602000I-250000J0D01*
G01*
X179358000Y-105602000D01*
G75*
G02*
X179108000Y-105352000I0J250000D01*
G01*
X179108000Y-104452000D01*
G75*
G02*
X179358000Y-104202000I250000J0D01*
G01*
X179883000Y-104202000D01*
G75*
G02*
X180133000Y-104452000I0J-250000D01*
G01*
G37*
D15*
X75945000Y-112395000D03*
X72645000Y-112395000D03*
G36*
G01*
X98270000Y-112845000D02*
X98270000Y-111945000D01*
G75*
G02*
X98520000Y-111695000I250000J0D01*
G01*
X99045000Y-111695000D01*
G75*
G02*
X99295000Y-111945000I0J-250000D01*
G01*
X99295000Y-112845000D01*
G75*
G02*
X99045000Y-113095000I-250000J0D01*
G01*
X98520000Y-113095000D01*
G75*
G02*
X98270000Y-112845000I0J250000D01*
G01*
G37*
G36*
G01*
X100095000Y-112845000D02*
X100095000Y-111945000D01*
G75*
G02*
X100345000Y-111695000I250000J0D01*
G01*
X100870000Y-111695000D01*
G75*
G02*
X101120000Y-111945000I0J-250000D01*
G01*
X101120000Y-112845000D01*
G75*
G02*
X100870000Y-113095000I-250000J0D01*
G01*
X100345000Y-113095000D01*
G75*
G02*
X100095000Y-112845000I0J250000D01*
G01*
G37*
G36*
G01*
X171249000Y-100617000D02*
X171249000Y-101567000D01*
G75*
G02*
X170999000Y-101817000I-250000J0D01*
G01*
X170499000Y-101817000D01*
G75*
G02*
X170249000Y-101567000I0J250000D01*
G01*
X170249000Y-100617000D01*
G75*
G02*
X170499000Y-100367000I250000J0D01*
G01*
X170999000Y-100367000D01*
G75*
G02*
X171249000Y-100617000I0J-250000D01*
G01*
G37*
G36*
G01*
X169349000Y-100617000D02*
X169349000Y-101567000D01*
G75*
G02*
X169099000Y-101817000I-250000J0D01*
G01*
X168599000Y-101817000D01*
G75*
G02*
X168349000Y-101567000I0J250000D01*
G01*
X168349000Y-100617000D01*
G75*
G02*
X168599000Y-100367000I250000J0D01*
G01*
X169099000Y-100367000D01*
G75*
G02*
X169349000Y-100617000I0J-250000D01*
G01*
G37*
G36*
G01*
X81428000Y-80876000D02*
X81428000Y-81176000D01*
G75*
G02*
X81278000Y-81326000I-150000J0D01*
G01*
X79628000Y-81326000D01*
G75*
G02*
X79478000Y-81176000I0J150000D01*
G01*
X79478000Y-80876000D01*
G75*
G02*
X79628000Y-80726000I150000J0D01*
G01*
X81278000Y-80726000D01*
G75*
G02*
X81428000Y-80876000I0J-150000D01*
G01*
G37*
G36*
G01*
X81428000Y-82146000D02*
X81428000Y-82446000D01*
G75*
G02*
X81278000Y-82596000I-150000J0D01*
G01*
X79628000Y-82596000D01*
G75*
G02*
X79478000Y-82446000I0J150000D01*
G01*
X79478000Y-82146000D01*
G75*
G02*
X79628000Y-81996000I150000J0D01*
G01*
X81278000Y-81996000D01*
G75*
G02*
X81428000Y-82146000I0J-150000D01*
G01*
G37*
G36*
G01*
X81428000Y-83416000D02*
X81428000Y-83716000D01*
G75*
G02*
X81278000Y-83866000I-150000J0D01*
G01*
X79628000Y-83866000D01*
G75*
G02*
X79478000Y-83716000I0J150000D01*
G01*
X79478000Y-83416000D01*
G75*
G02*
X79628000Y-83266000I150000J0D01*
G01*
X81278000Y-83266000D01*
G75*
G02*
X81428000Y-83416000I0J-150000D01*
G01*
G37*
G36*
G01*
X81428000Y-84686000D02*
X81428000Y-84986000D01*
G75*
G02*
X81278000Y-85136000I-150000J0D01*
G01*
X79628000Y-85136000D01*
G75*
G02*
X79478000Y-84986000I0J150000D01*
G01*
X79478000Y-84686000D01*
G75*
G02*
X79628000Y-84536000I150000J0D01*
G01*
X81278000Y-84536000D01*
G75*
G02*
X81428000Y-84686000I0J-150000D01*
G01*
G37*
G36*
G01*
X81428000Y-85956000D02*
X81428000Y-86256000D01*
G75*
G02*
X81278000Y-86406000I-150000J0D01*
G01*
X79628000Y-86406000D01*
G75*
G02*
X79478000Y-86256000I0J150000D01*
G01*
X79478000Y-85956000D01*
G75*
G02*
X79628000Y-85806000I150000J0D01*
G01*
X81278000Y-85806000D01*
G75*
G02*
X81428000Y-85956000I0J-150000D01*
G01*
G37*
G36*
G01*
X81428000Y-87226000D02*
X81428000Y-87526000D01*
G75*
G02*
X81278000Y-87676000I-150000J0D01*
G01*
X79628000Y-87676000D01*
G75*
G02*
X79478000Y-87526000I0J150000D01*
G01*
X79478000Y-87226000D01*
G75*
G02*
X79628000Y-87076000I150000J0D01*
G01*
X81278000Y-87076000D01*
G75*
G02*
X81428000Y-87226000I0J-150000D01*
G01*
G37*
G36*
G01*
X81428000Y-88496000D02*
X81428000Y-88796000D01*
G75*
G02*
X81278000Y-88946000I-150000J0D01*
G01*
X79628000Y-88946000D01*
G75*
G02*
X79478000Y-88796000I0J150000D01*
G01*
X79478000Y-88496000D01*
G75*
G02*
X79628000Y-88346000I150000J0D01*
G01*
X81278000Y-88346000D01*
G75*
G02*
X81428000Y-88496000I0J-150000D01*
G01*
G37*
G36*
G01*
X76478000Y-88496000D02*
X76478000Y-88796000D01*
G75*
G02*
X76328000Y-88946000I-150000J0D01*
G01*
X74678000Y-88946000D01*
G75*
G02*
X74528000Y-88796000I0J150000D01*
G01*
X74528000Y-88496000D01*
G75*
G02*
X74678000Y-88346000I150000J0D01*
G01*
X76328000Y-88346000D01*
G75*
G02*
X76478000Y-88496000I0J-150000D01*
G01*
G37*
G36*
G01*
X76478000Y-87226000D02*
X76478000Y-87526000D01*
G75*
G02*
X76328000Y-87676000I-150000J0D01*
G01*
X74678000Y-87676000D01*
G75*
G02*
X74528000Y-87526000I0J150000D01*
G01*
X74528000Y-87226000D01*
G75*
G02*
X74678000Y-87076000I150000J0D01*
G01*
X76328000Y-87076000D01*
G75*
G02*
X76478000Y-87226000I0J-150000D01*
G01*
G37*
G36*
G01*
X76478000Y-85956000D02*
X76478000Y-86256000D01*
G75*
G02*
X76328000Y-86406000I-150000J0D01*
G01*
X74678000Y-86406000D01*
G75*
G02*
X74528000Y-86256000I0J150000D01*
G01*
X74528000Y-85956000D01*
G75*
G02*
X74678000Y-85806000I150000J0D01*
G01*
X76328000Y-85806000D01*
G75*
G02*
X76478000Y-85956000I0J-150000D01*
G01*
G37*
G36*
G01*
X76478000Y-84686000D02*
X76478000Y-84986000D01*
G75*
G02*
X76328000Y-85136000I-150000J0D01*
G01*
X74678000Y-85136000D01*
G75*
G02*
X74528000Y-84986000I0J150000D01*
G01*
X74528000Y-84686000D01*
G75*
G02*
X74678000Y-84536000I150000J0D01*
G01*
X76328000Y-84536000D01*
G75*
G02*
X76478000Y-84686000I0J-150000D01*
G01*
G37*
G36*
G01*
X76478000Y-83416000D02*
X76478000Y-83716000D01*
G75*
G02*
X76328000Y-83866000I-150000J0D01*
G01*
X74678000Y-83866000D01*
G75*
G02*
X74528000Y-83716000I0J150000D01*
G01*
X74528000Y-83416000D01*
G75*
G02*
X74678000Y-83266000I150000J0D01*
G01*
X76328000Y-83266000D01*
G75*
G02*
X76478000Y-83416000I0J-150000D01*
G01*
G37*
G36*
G01*
X76478000Y-82146000D02*
X76478000Y-82446000D01*
G75*
G02*
X76328000Y-82596000I-150000J0D01*
G01*
X74678000Y-82596000D01*
G75*
G02*
X74528000Y-82446000I0J150000D01*
G01*
X74528000Y-82146000D01*
G75*
G02*
X74678000Y-81996000I150000J0D01*
G01*
X76328000Y-81996000D01*
G75*
G02*
X76478000Y-82146000I0J-150000D01*
G01*
G37*
G36*
G01*
X76478000Y-80876000D02*
X76478000Y-81176000D01*
G75*
G02*
X76328000Y-81326000I-150000J0D01*
G01*
X74678000Y-81326000D01*
G75*
G02*
X74528000Y-81176000I0J150000D01*
G01*
X74528000Y-80876000D01*
G75*
G02*
X74678000Y-80726000I150000J0D01*
G01*
X76328000Y-80726000D01*
G75*
G02*
X76478000Y-80876000I0J-150000D01*
G01*
G37*
G36*
G01*
X150975000Y-128466000D02*
X150975000Y-127566000D01*
G75*
G02*
X151225000Y-127316000I250000J0D01*
G01*
X151750000Y-127316000D01*
G75*
G02*
X152000000Y-127566000I0J-250000D01*
G01*
X152000000Y-128466000D01*
G75*
G02*
X151750000Y-128716000I-250000J0D01*
G01*
X151225000Y-128716000D01*
G75*
G02*
X150975000Y-128466000I0J250000D01*
G01*
G37*
G36*
G01*
X152800000Y-128466000D02*
X152800000Y-127566000D01*
G75*
G02*
X153050000Y-127316000I250000J0D01*
G01*
X153575000Y-127316000D01*
G75*
G02*
X153825000Y-127566000I0J-250000D01*
G01*
X153825000Y-128466000D01*
G75*
G02*
X153575000Y-128716000I-250000J0D01*
G01*
X153050000Y-128716000D01*
G75*
G02*
X152800000Y-128466000I0J250000D01*
G01*
G37*
G36*
G01*
X171344000Y-104752000D02*
X171344000Y-105052000D01*
G75*
G02*
X171194000Y-105202000I-150000J0D01*
G01*
X169544000Y-105202000D01*
G75*
G02*
X169394000Y-105052000I0J150000D01*
G01*
X169394000Y-104752000D01*
G75*
G02*
X169544000Y-104602000I150000J0D01*
G01*
X171194000Y-104602000D01*
G75*
G02*
X171344000Y-104752000I0J-150000D01*
G01*
G37*
G36*
G01*
X171344000Y-106022000D02*
X171344000Y-106322000D01*
G75*
G02*
X171194000Y-106472000I-150000J0D01*
G01*
X169544000Y-106472000D01*
G75*
G02*
X169394000Y-106322000I0J150000D01*
G01*
X169394000Y-106022000D01*
G75*
G02*
X169544000Y-105872000I150000J0D01*
G01*
X171194000Y-105872000D01*
G75*
G02*
X171344000Y-106022000I0J-150000D01*
G01*
G37*
G36*
G01*
X171344000Y-107292000D02*
X171344000Y-107592000D01*
G75*
G02*
X171194000Y-107742000I-150000J0D01*
G01*
X169544000Y-107742000D01*
G75*
G02*
X169394000Y-107592000I0J150000D01*
G01*
X169394000Y-107292000D01*
G75*
G02*
X169544000Y-107142000I150000J0D01*
G01*
X171194000Y-107142000D01*
G75*
G02*
X171344000Y-107292000I0J-150000D01*
G01*
G37*
G36*
G01*
X171344000Y-108562000D02*
X171344000Y-108862000D01*
G75*
G02*
X171194000Y-109012000I-150000J0D01*
G01*
X169544000Y-109012000D01*
G75*
G02*
X169394000Y-108862000I0J150000D01*
G01*
X169394000Y-108562000D01*
G75*
G02*
X169544000Y-108412000I150000J0D01*
G01*
X171194000Y-108412000D01*
G75*
G02*
X171344000Y-108562000I0J-150000D01*
G01*
G37*
G36*
G01*
X166394000Y-108562000D02*
X166394000Y-108862000D01*
G75*
G02*
X166244000Y-109012000I-150000J0D01*
G01*
X164594000Y-109012000D01*
G75*
G02*
X164444000Y-108862000I0J150000D01*
G01*
X164444000Y-108562000D01*
G75*
G02*
X164594000Y-108412000I150000J0D01*
G01*
X166244000Y-108412000D01*
G75*
G02*
X166394000Y-108562000I0J-150000D01*
G01*
G37*
G36*
G01*
X166394000Y-107292000D02*
X166394000Y-107592000D01*
G75*
G02*
X166244000Y-107742000I-150000J0D01*
G01*
X164594000Y-107742000D01*
G75*
G02*
X164444000Y-107592000I0J150000D01*
G01*
X164444000Y-107292000D01*
G75*
G02*
X164594000Y-107142000I150000J0D01*
G01*
X166244000Y-107142000D01*
G75*
G02*
X166394000Y-107292000I0J-150000D01*
G01*
G37*
G36*
G01*
X166394000Y-106022000D02*
X166394000Y-106322000D01*
G75*
G02*
X166244000Y-106472000I-150000J0D01*
G01*
X164594000Y-106472000D01*
G75*
G02*
X164444000Y-106322000I0J150000D01*
G01*
X164444000Y-106022000D01*
G75*
G02*
X164594000Y-105872000I150000J0D01*
G01*
X166244000Y-105872000D01*
G75*
G02*
X166394000Y-106022000I0J-150000D01*
G01*
G37*
G36*
G01*
X166394000Y-104752000D02*
X166394000Y-105052000D01*
G75*
G02*
X166244000Y-105202000I-150000J0D01*
G01*
X164594000Y-105202000D01*
G75*
G02*
X164444000Y-105052000I0J150000D01*
G01*
X164444000Y-104752000D01*
G75*
G02*
X164594000Y-104602000I150000J0D01*
G01*
X166244000Y-104602000D01*
G75*
G02*
X166394000Y-104752000I0J-150000D01*
G01*
G37*
D16*
X89662000Y-87122000D03*
G36*
G01*
X192839000Y-86012000D02*
X192839000Y-86962000D01*
G75*
G02*
X192589000Y-87212000I-250000J0D01*
G01*
X192089000Y-87212000D01*
G75*
G02*
X191839000Y-86962000I0J250000D01*
G01*
X191839000Y-86012000D01*
G75*
G02*
X192089000Y-85762000I250000J0D01*
G01*
X192589000Y-85762000D01*
G75*
G02*
X192839000Y-86012000I0J-250000D01*
G01*
G37*
G36*
G01*
X190939000Y-86012000D02*
X190939000Y-86962000D01*
G75*
G02*
X190689000Y-87212000I-250000J0D01*
G01*
X190189000Y-87212000D01*
G75*
G02*
X189939000Y-86962000I0J250000D01*
G01*
X189939000Y-86012000D01*
G75*
G02*
X190189000Y-85762000I250000J0D01*
G01*
X190689000Y-85762000D01*
G75*
G02*
X190939000Y-86012000I0J-250000D01*
G01*
G37*
X89662000Y-98298000D03*
G36*
G01*
X179169000Y-87572000D02*
X179169000Y-86672000D01*
G75*
G02*
X179419000Y-86422000I250000J0D01*
G01*
X179944000Y-86422000D01*
G75*
G02*
X180194000Y-86672000I0J-250000D01*
G01*
X180194000Y-87572000D01*
G75*
G02*
X179944000Y-87822000I-250000J0D01*
G01*
X179419000Y-87822000D01*
G75*
G02*
X179169000Y-87572000I0J250000D01*
G01*
G37*
G36*
G01*
X180994000Y-87572000D02*
X180994000Y-86672000D01*
G75*
G02*
X181244000Y-86422000I250000J0D01*
G01*
X181769000Y-86422000D01*
G75*
G02*
X182019000Y-86672000I0J-250000D01*
G01*
X182019000Y-87572000D01*
G75*
G02*
X181769000Y-87822000I-250000J0D01*
G01*
X181244000Y-87822000D01*
G75*
G02*
X180994000Y-87572000I0J250000D01*
G01*
G37*
G36*
G01*
X171344000Y-75542000D02*
X171344000Y-75842000D01*
G75*
G02*
X171194000Y-75992000I-150000J0D01*
G01*
X169544000Y-75992000D01*
G75*
G02*
X169394000Y-75842000I0J150000D01*
G01*
X169394000Y-75542000D01*
G75*
G02*
X169544000Y-75392000I150000J0D01*
G01*
X171194000Y-75392000D01*
G75*
G02*
X171344000Y-75542000I0J-150000D01*
G01*
G37*
G36*
G01*
X171344000Y-76812000D02*
X171344000Y-77112000D01*
G75*
G02*
X171194000Y-77262000I-150000J0D01*
G01*
X169544000Y-77262000D01*
G75*
G02*
X169394000Y-77112000I0J150000D01*
G01*
X169394000Y-76812000D01*
G75*
G02*
X169544000Y-76662000I150000J0D01*
G01*
X171194000Y-76662000D01*
G75*
G02*
X171344000Y-76812000I0J-150000D01*
G01*
G37*
G36*
G01*
X171344000Y-78082000D02*
X171344000Y-78382000D01*
G75*
G02*
X171194000Y-78532000I-150000J0D01*
G01*
X169544000Y-78532000D01*
G75*
G02*
X169394000Y-78382000I0J150000D01*
G01*
X169394000Y-78082000D01*
G75*
G02*
X169544000Y-77932000I150000J0D01*
G01*
X171194000Y-77932000D01*
G75*
G02*
X171344000Y-78082000I0J-150000D01*
G01*
G37*
G36*
G01*
X171344000Y-79352000D02*
X171344000Y-79652000D01*
G75*
G02*
X171194000Y-79802000I-150000J0D01*
G01*
X169544000Y-79802000D01*
G75*
G02*
X169394000Y-79652000I0J150000D01*
G01*
X169394000Y-79352000D01*
G75*
G02*
X169544000Y-79202000I150000J0D01*
G01*
X171194000Y-79202000D01*
G75*
G02*
X171344000Y-79352000I0J-150000D01*
G01*
G37*
G36*
G01*
X171344000Y-80622000D02*
X171344000Y-80922000D01*
G75*
G02*
X171194000Y-81072000I-150000J0D01*
G01*
X169544000Y-81072000D01*
G75*
G02*
X169394000Y-80922000I0J150000D01*
G01*
X169394000Y-80622000D01*
G75*
G02*
X169544000Y-80472000I150000J0D01*
G01*
X171194000Y-80472000D01*
G75*
G02*
X171344000Y-80622000I0J-150000D01*
G01*
G37*
G36*
G01*
X171344000Y-81892000D02*
X171344000Y-82192000D01*
G75*
G02*
X171194000Y-82342000I-150000J0D01*
G01*
X169544000Y-82342000D01*
G75*
G02*
X169394000Y-82192000I0J150000D01*
G01*
X169394000Y-81892000D01*
G75*
G02*
X169544000Y-81742000I150000J0D01*
G01*
X171194000Y-81742000D01*
G75*
G02*
X171344000Y-81892000I0J-150000D01*
G01*
G37*
G36*
G01*
X171344000Y-83162000D02*
X171344000Y-83462000D01*
G75*
G02*
X171194000Y-83612000I-150000J0D01*
G01*
X169544000Y-83612000D01*
G75*
G02*
X169394000Y-83462000I0J150000D01*
G01*
X169394000Y-83162000D01*
G75*
G02*
X169544000Y-83012000I150000J0D01*
G01*
X171194000Y-83012000D01*
G75*
G02*
X171344000Y-83162000I0J-150000D01*
G01*
G37*
G36*
G01*
X166394000Y-83162000D02*
X166394000Y-83462000D01*
G75*
G02*
X166244000Y-83612000I-150000J0D01*
G01*
X164594000Y-83612000D01*
G75*
G02*
X164444000Y-83462000I0J150000D01*
G01*
X164444000Y-83162000D01*
G75*
G02*
X164594000Y-83012000I150000J0D01*
G01*
X166244000Y-83012000D01*
G75*
G02*
X166394000Y-83162000I0J-150000D01*
G01*
G37*
G36*
G01*
X166394000Y-81892000D02*
X166394000Y-82192000D01*
G75*
G02*
X166244000Y-82342000I-150000J0D01*
G01*
X164594000Y-82342000D01*
G75*
G02*
X164444000Y-82192000I0J150000D01*
G01*
X164444000Y-81892000D01*
G75*
G02*
X164594000Y-81742000I150000J0D01*
G01*
X166244000Y-81742000D01*
G75*
G02*
X166394000Y-81892000I0J-150000D01*
G01*
G37*
G36*
G01*
X166394000Y-80622000D02*
X166394000Y-80922000D01*
G75*
G02*
X166244000Y-81072000I-150000J0D01*
G01*
X164594000Y-81072000D01*
G75*
G02*
X164444000Y-80922000I0J150000D01*
G01*
X164444000Y-80622000D01*
G75*
G02*
X164594000Y-80472000I150000J0D01*
G01*
X166244000Y-80472000D01*
G75*
G02*
X166394000Y-80622000I0J-150000D01*
G01*
G37*
G36*
G01*
X166394000Y-79352000D02*
X166394000Y-79652000D01*
G75*
G02*
X166244000Y-79802000I-150000J0D01*
G01*
X164594000Y-79802000D01*
G75*
G02*
X164444000Y-79652000I0J150000D01*
G01*
X164444000Y-79352000D01*
G75*
G02*
X164594000Y-79202000I150000J0D01*
G01*
X166244000Y-79202000D01*
G75*
G02*
X166394000Y-79352000I0J-150000D01*
G01*
G37*
G36*
G01*
X166394000Y-78082000D02*
X166394000Y-78382000D01*
G75*
G02*
X166244000Y-78532000I-150000J0D01*
G01*
X164594000Y-78532000D01*
G75*
G02*
X164444000Y-78382000I0J150000D01*
G01*
X164444000Y-78082000D01*
G75*
G02*
X164594000Y-77932000I150000J0D01*
G01*
X166244000Y-77932000D01*
G75*
G02*
X166394000Y-78082000I0J-150000D01*
G01*
G37*
G36*
G01*
X166394000Y-76812000D02*
X166394000Y-77112000D01*
G75*
G02*
X166244000Y-77262000I-150000J0D01*
G01*
X164594000Y-77262000D01*
G75*
G02*
X164444000Y-77112000I0J150000D01*
G01*
X164444000Y-76812000D01*
G75*
G02*
X164594000Y-76662000I150000J0D01*
G01*
X166244000Y-76662000D01*
G75*
G02*
X166394000Y-76812000I0J-150000D01*
G01*
G37*
G36*
G01*
X166394000Y-75542000D02*
X166394000Y-75842000D01*
G75*
G02*
X166244000Y-75992000I-150000J0D01*
G01*
X164594000Y-75992000D01*
G75*
G02*
X164444000Y-75842000I0J150000D01*
G01*
X164444000Y-75542000D01*
G75*
G02*
X164594000Y-75392000I150000J0D01*
G01*
X166244000Y-75392000D01*
G75*
G02*
X166394000Y-75542000I0J-150000D01*
G01*
G37*
G36*
G01*
X111788000Y-93530000D02*
X111788000Y-94430000D01*
G75*
G02*
X111538000Y-94680000I-250000J0D01*
G01*
X111013000Y-94680000D01*
G75*
G02*
X110763000Y-94430000I0J250000D01*
G01*
X110763000Y-93530000D01*
G75*
G02*
X111013000Y-93280000I250000J0D01*
G01*
X111538000Y-93280000D01*
G75*
G02*
X111788000Y-93530000I0J-250000D01*
G01*
G37*
G36*
G01*
X109963000Y-93530000D02*
X109963000Y-94430000D01*
G75*
G02*
X109713000Y-94680000I-250000J0D01*
G01*
X109188000Y-94680000D01*
G75*
G02*
X108938000Y-94430000I0J250000D01*
G01*
X108938000Y-93530000D01*
G75*
G02*
X109188000Y-93280000I250000J0D01*
G01*
X109713000Y-93280000D01*
G75*
G02*
X109963000Y-93530000I0J-250000D01*
G01*
G37*
G36*
G01*
X100658000Y-62070000D02*
X100658000Y-61120000D01*
G75*
G02*
X100908000Y-60870000I250000J0D01*
G01*
X101408000Y-60870000D01*
G75*
G02*
X101658000Y-61120000I0J-250000D01*
G01*
X101658000Y-62070000D01*
G75*
G02*
X101408000Y-62320000I-250000J0D01*
G01*
X100908000Y-62320000D01*
G75*
G02*
X100658000Y-62070000I0J250000D01*
G01*
G37*
G36*
G01*
X102558000Y-62070000D02*
X102558000Y-61120000D01*
G75*
G02*
X102808000Y-60870000I250000J0D01*
G01*
X103308000Y-60870000D01*
G75*
G02*
X103558000Y-61120000I0J-250000D01*
G01*
X103558000Y-62070000D01*
G75*
G02*
X103308000Y-62320000I-250000J0D01*
G01*
X102808000Y-62320000D01*
G75*
G02*
X102558000Y-62070000I0J250000D01*
G01*
G37*
G36*
G01*
X234371000Y-93530000D02*
X234371000Y-94430000D01*
G75*
G02*
X234121000Y-94680000I-250000J0D01*
G01*
X233596000Y-94680000D01*
G75*
G02*
X233346000Y-94430000I0J250000D01*
G01*
X233346000Y-93530000D01*
G75*
G02*
X233596000Y-93280000I250000J0D01*
G01*
X234121000Y-93280000D01*
G75*
G02*
X234371000Y-93530000I0J-250000D01*
G01*
G37*
G36*
G01*
X232546000Y-93530000D02*
X232546000Y-94430000D01*
G75*
G02*
X232296000Y-94680000I-250000J0D01*
G01*
X231771000Y-94680000D01*
G75*
G02*
X231521000Y-94430000I0J250000D01*
G01*
X231521000Y-93530000D01*
G75*
G02*
X231771000Y-93280000I250000J0D01*
G01*
X232296000Y-93280000D01*
G75*
G02*
X232546000Y-93530000I0J-250000D01*
G01*
G37*
G36*
G01*
X179169000Y-62565000D02*
X179169000Y-61665000D01*
G75*
G02*
X179419000Y-61415000I250000J0D01*
G01*
X179944000Y-61415000D01*
G75*
G02*
X180194000Y-61665000I0J-250000D01*
G01*
X180194000Y-62565000D01*
G75*
G02*
X179944000Y-62815000I-250000J0D01*
G01*
X179419000Y-62815000D01*
G75*
G02*
X179169000Y-62565000I0J250000D01*
G01*
G37*
G36*
G01*
X180994000Y-62565000D02*
X180994000Y-61665000D01*
G75*
G02*
X181244000Y-61415000I250000J0D01*
G01*
X181769000Y-61415000D01*
G75*
G02*
X182019000Y-61665000I0J-250000D01*
G01*
X182019000Y-62565000D01*
G75*
G02*
X181769000Y-62815000I-250000J0D01*
G01*
X181244000Y-62815000D01*
G75*
G02*
X180994000Y-62565000I0J250000D01*
G01*
G37*
X139192000Y-71374000D03*
G36*
G01*
X191170000Y-124880000D02*
X192370000Y-124880000D01*
G75*
G02*
X192620000Y-125130000I0J-250000D01*
G01*
X192620000Y-126330000D01*
G75*
G02*
X192370000Y-126580000I-250000J0D01*
G01*
X191170000Y-126580000D01*
G75*
G02*
X190920000Y-126330000I0J250000D01*
G01*
X190920000Y-125130000D01*
G75*
G02*
X191170000Y-124880000I250000J0D01*
G01*
G37*
D22*
X191770000Y-128270000D03*
X194310000Y-125730000D03*
X194310000Y-128270000D03*
X196850000Y-125730000D03*
X196850000Y-128270000D03*
X199390000Y-125730000D03*
X199390000Y-128270000D03*
X201930000Y-125730000D03*
X201930000Y-128270000D03*
G36*
G01*
X233073000Y-83878000D02*
X233073000Y-84778000D01*
G75*
G02*
X232823000Y-85028000I-250000J0D01*
G01*
X232298000Y-85028000D01*
G75*
G02*
X232048000Y-84778000I0J250000D01*
G01*
X232048000Y-83878000D01*
G75*
G02*
X232298000Y-83628000I250000J0D01*
G01*
X232823000Y-83628000D01*
G75*
G02*
X233073000Y-83878000I0J-250000D01*
G01*
G37*
G36*
G01*
X231248000Y-83878000D02*
X231248000Y-84778000D01*
G75*
G02*
X230998000Y-85028000I-250000J0D01*
G01*
X230473000Y-85028000D01*
G75*
G02*
X230223000Y-84778000I0J250000D01*
G01*
X230223000Y-83878000D01*
G75*
G02*
X230473000Y-83628000I250000J0D01*
G01*
X230998000Y-83628000D01*
G75*
G02*
X231248000Y-83878000I0J-250000D01*
G01*
G37*
G36*
G01*
X182019000Y-65475000D02*
X182019000Y-66375000D01*
G75*
G02*
X181769000Y-66625000I-250000J0D01*
G01*
X181244000Y-66625000D01*
G75*
G02*
X180994000Y-66375000I0J250000D01*
G01*
X180994000Y-65475000D01*
G75*
G02*
X181244000Y-65225000I250000J0D01*
G01*
X181769000Y-65225000D01*
G75*
G02*
X182019000Y-65475000I0J-250000D01*
G01*
G37*
G36*
G01*
X180194000Y-65475000D02*
X180194000Y-66375000D01*
G75*
G02*
X179944000Y-66625000I-250000J0D01*
G01*
X179419000Y-66625000D01*
G75*
G02*
X179169000Y-66375000I0J250000D01*
G01*
X179169000Y-65475000D01*
G75*
G02*
X179419000Y-65225000I250000J0D01*
G01*
X179944000Y-65225000D01*
G75*
G02*
X180194000Y-65475000I0J-250000D01*
G01*
G37*
D16*
X200406000Y-106934000D03*
X206756000Y-101346000D03*
G36*
G01*
X192934000Y-75542000D02*
X192934000Y-75842000D01*
G75*
G02*
X192784000Y-75992000I-150000J0D01*
G01*
X191134000Y-75992000D01*
G75*
G02*
X190984000Y-75842000I0J150000D01*
G01*
X190984000Y-75542000D01*
G75*
G02*
X191134000Y-75392000I150000J0D01*
G01*
X192784000Y-75392000D01*
G75*
G02*
X192934000Y-75542000I0J-150000D01*
G01*
G37*
G36*
G01*
X192934000Y-76812000D02*
X192934000Y-77112000D01*
G75*
G02*
X192784000Y-77262000I-150000J0D01*
G01*
X191134000Y-77262000D01*
G75*
G02*
X190984000Y-77112000I0J150000D01*
G01*
X190984000Y-76812000D01*
G75*
G02*
X191134000Y-76662000I150000J0D01*
G01*
X192784000Y-76662000D01*
G75*
G02*
X192934000Y-76812000I0J-150000D01*
G01*
G37*
G36*
G01*
X192934000Y-78082000D02*
X192934000Y-78382000D01*
G75*
G02*
X192784000Y-78532000I-150000J0D01*
G01*
X191134000Y-78532000D01*
G75*
G02*
X190984000Y-78382000I0J150000D01*
G01*
X190984000Y-78082000D01*
G75*
G02*
X191134000Y-77932000I150000J0D01*
G01*
X192784000Y-77932000D01*
G75*
G02*
X192934000Y-78082000I0J-150000D01*
G01*
G37*
G36*
G01*
X192934000Y-79352000D02*
X192934000Y-79652000D01*
G75*
G02*
X192784000Y-79802000I-150000J0D01*
G01*
X191134000Y-79802000D01*
G75*
G02*
X190984000Y-79652000I0J150000D01*
G01*
X190984000Y-79352000D01*
G75*
G02*
X191134000Y-79202000I150000J0D01*
G01*
X192784000Y-79202000D01*
G75*
G02*
X192934000Y-79352000I0J-150000D01*
G01*
G37*
G36*
G01*
X192934000Y-80622000D02*
X192934000Y-80922000D01*
G75*
G02*
X192784000Y-81072000I-150000J0D01*
G01*
X191134000Y-81072000D01*
G75*
G02*
X190984000Y-80922000I0J150000D01*
G01*
X190984000Y-80622000D01*
G75*
G02*
X191134000Y-80472000I150000J0D01*
G01*
X192784000Y-80472000D01*
G75*
G02*
X192934000Y-80622000I0J-150000D01*
G01*
G37*
G36*
G01*
X192934000Y-81892000D02*
X192934000Y-82192000D01*
G75*
G02*
X192784000Y-82342000I-150000J0D01*
G01*
X191134000Y-82342000D01*
G75*
G02*
X190984000Y-82192000I0J150000D01*
G01*
X190984000Y-81892000D01*
G75*
G02*
X191134000Y-81742000I150000J0D01*
G01*
X192784000Y-81742000D01*
G75*
G02*
X192934000Y-81892000I0J-150000D01*
G01*
G37*
G36*
G01*
X192934000Y-83162000D02*
X192934000Y-83462000D01*
G75*
G02*
X192784000Y-83612000I-150000J0D01*
G01*
X191134000Y-83612000D01*
G75*
G02*
X190984000Y-83462000I0J150000D01*
G01*
X190984000Y-83162000D01*
G75*
G02*
X191134000Y-83012000I150000J0D01*
G01*
X192784000Y-83012000D01*
G75*
G02*
X192934000Y-83162000I0J-150000D01*
G01*
G37*
G36*
G01*
X187984000Y-83162000D02*
X187984000Y-83462000D01*
G75*
G02*
X187834000Y-83612000I-150000J0D01*
G01*
X186184000Y-83612000D01*
G75*
G02*
X186034000Y-83462000I0J150000D01*
G01*
X186034000Y-83162000D01*
G75*
G02*
X186184000Y-83012000I150000J0D01*
G01*
X187834000Y-83012000D01*
G75*
G02*
X187984000Y-83162000I0J-150000D01*
G01*
G37*
G36*
G01*
X187984000Y-81892000D02*
X187984000Y-82192000D01*
G75*
G02*
X187834000Y-82342000I-150000J0D01*
G01*
X186184000Y-82342000D01*
G75*
G02*
X186034000Y-82192000I0J150000D01*
G01*
X186034000Y-81892000D01*
G75*
G02*
X186184000Y-81742000I150000J0D01*
G01*
X187834000Y-81742000D01*
G75*
G02*
X187984000Y-81892000I0J-150000D01*
G01*
G37*
G36*
G01*
X187984000Y-80622000D02*
X187984000Y-80922000D01*
G75*
G02*
X187834000Y-81072000I-150000J0D01*
G01*
X186184000Y-81072000D01*
G75*
G02*
X186034000Y-80922000I0J150000D01*
G01*
X186034000Y-80622000D01*
G75*
G02*
X186184000Y-80472000I150000J0D01*
G01*
X187834000Y-80472000D01*
G75*
G02*
X187984000Y-80622000I0J-150000D01*
G01*
G37*
G36*
G01*
X187984000Y-79352000D02*
X187984000Y-79652000D01*
G75*
G02*
X187834000Y-79802000I-150000J0D01*
G01*
X186184000Y-79802000D01*
G75*
G02*
X186034000Y-79652000I0J150000D01*
G01*
X186034000Y-79352000D01*
G75*
G02*
X186184000Y-79202000I150000J0D01*
G01*
X187834000Y-79202000D01*
G75*
G02*
X187984000Y-79352000I0J-150000D01*
G01*
G37*
G36*
G01*
X187984000Y-78082000D02*
X187984000Y-78382000D01*
G75*
G02*
X187834000Y-78532000I-150000J0D01*
G01*
X186184000Y-78532000D01*
G75*
G02*
X186034000Y-78382000I0J150000D01*
G01*
X186034000Y-78082000D01*
G75*
G02*
X186184000Y-77932000I150000J0D01*
G01*
X187834000Y-77932000D01*
G75*
G02*
X187984000Y-78082000I0J-150000D01*
G01*
G37*
G36*
G01*
X187984000Y-76812000D02*
X187984000Y-77112000D01*
G75*
G02*
X187834000Y-77262000I-150000J0D01*
G01*
X186184000Y-77262000D01*
G75*
G02*
X186034000Y-77112000I0J150000D01*
G01*
X186034000Y-76812000D01*
G75*
G02*
X186184000Y-76662000I150000J0D01*
G01*
X187834000Y-76662000D01*
G75*
G02*
X187984000Y-76812000I0J-150000D01*
G01*
G37*
G36*
G01*
X187984000Y-75542000D02*
X187984000Y-75842000D01*
G75*
G02*
X187834000Y-75992000I-150000J0D01*
G01*
X186184000Y-75992000D01*
G75*
G02*
X186034000Y-75842000I0J150000D01*
G01*
X186034000Y-75542000D01*
G75*
G02*
X186184000Y-75392000I150000J0D01*
G01*
X187834000Y-75392000D01*
G75*
G02*
X187984000Y-75542000I0J-150000D01*
G01*
G37*
G36*
G01*
X227383000Y-126144000D02*
X227383000Y-127094000D01*
G75*
G02*
X227133000Y-127344000I-250000J0D01*
G01*
X226633000Y-127344000D01*
G75*
G02*
X226383000Y-127094000I0J250000D01*
G01*
X226383000Y-126144000D01*
G75*
G02*
X226633000Y-125894000I250000J0D01*
G01*
X227133000Y-125894000D01*
G75*
G02*
X227383000Y-126144000I0J-250000D01*
G01*
G37*
G36*
G01*
X225483000Y-126144000D02*
X225483000Y-127094000D01*
G75*
G02*
X225233000Y-127344000I-250000J0D01*
G01*
X224733000Y-127344000D01*
G75*
G02*
X224483000Y-127094000I0J250000D01*
G01*
X224483000Y-126144000D01*
G75*
G02*
X224733000Y-125894000I250000J0D01*
G01*
X225233000Y-125894000D01*
G75*
G02*
X225483000Y-126144000I0J-250000D01*
G01*
G37*
D21*
X174752000Y-60950000D03*
X174752000Y-63490000D03*
X174752000Y-66030000D03*
G36*
G01*
X228506000Y-105895000D02*
X228506000Y-106195000D01*
G75*
G02*
X228356000Y-106345000I-150000J0D01*
G01*
X226756000Y-106345000D01*
G75*
G02*
X226606000Y-106195000I0J150000D01*
G01*
X226606000Y-105895000D01*
G75*
G02*
X226756000Y-105745000I150000J0D01*
G01*
X228356000Y-105745000D01*
G75*
G02*
X228506000Y-105895000I0J-150000D01*
G01*
G37*
G36*
G01*
X228506000Y-107165000D02*
X228506000Y-107465000D01*
G75*
G02*
X228356000Y-107615000I-150000J0D01*
G01*
X226756000Y-107615000D01*
G75*
G02*
X226606000Y-107465000I0J150000D01*
G01*
X226606000Y-107165000D01*
G75*
G02*
X226756000Y-107015000I150000J0D01*
G01*
X228356000Y-107015000D01*
G75*
G02*
X228506000Y-107165000I0J-150000D01*
G01*
G37*
G36*
G01*
X228506000Y-108435000D02*
X228506000Y-108735000D01*
G75*
G02*
X228356000Y-108885000I-150000J0D01*
G01*
X226756000Y-108885000D01*
G75*
G02*
X226606000Y-108735000I0J150000D01*
G01*
X226606000Y-108435000D01*
G75*
G02*
X226756000Y-108285000I150000J0D01*
G01*
X228356000Y-108285000D01*
G75*
G02*
X228506000Y-108435000I0J-150000D01*
G01*
G37*
G36*
G01*
X228506000Y-109705000D02*
X228506000Y-110005000D01*
G75*
G02*
X228356000Y-110155000I-150000J0D01*
G01*
X226756000Y-110155000D01*
G75*
G02*
X226606000Y-110005000I0J150000D01*
G01*
X226606000Y-109705000D01*
G75*
G02*
X226756000Y-109555000I150000J0D01*
G01*
X228356000Y-109555000D01*
G75*
G02*
X228506000Y-109705000I0J-150000D01*
G01*
G37*
G36*
G01*
X221506000Y-109705000D02*
X221506000Y-110005000D01*
G75*
G02*
X221356000Y-110155000I-150000J0D01*
G01*
X219756000Y-110155000D01*
G75*
G02*
X219606000Y-110005000I0J150000D01*
G01*
X219606000Y-109705000D01*
G75*
G02*
X219756000Y-109555000I150000J0D01*
G01*
X221356000Y-109555000D01*
G75*
G02*
X221506000Y-109705000I0J-150000D01*
G01*
G37*
G36*
G01*
X221506000Y-108435000D02*
X221506000Y-108735000D01*
G75*
G02*
X221356000Y-108885000I-150000J0D01*
G01*
X219756000Y-108885000D01*
G75*
G02*
X219606000Y-108735000I0J150000D01*
G01*
X219606000Y-108435000D01*
G75*
G02*
X219756000Y-108285000I150000J0D01*
G01*
X221356000Y-108285000D01*
G75*
G02*
X221506000Y-108435000I0J-150000D01*
G01*
G37*
G36*
G01*
X221506000Y-107165000D02*
X221506000Y-107465000D01*
G75*
G02*
X221356000Y-107615000I-150000J0D01*
G01*
X219756000Y-107615000D01*
G75*
G02*
X219606000Y-107465000I0J150000D01*
G01*
X219606000Y-107165000D01*
G75*
G02*
X219756000Y-107015000I150000J0D01*
G01*
X221356000Y-107015000D01*
G75*
G02*
X221506000Y-107165000I0J-150000D01*
G01*
G37*
G36*
G01*
X221506000Y-105895000D02*
X221506000Y-106195000D01*
G75*
G02*
X221356000Y-106345000I-150000J0D01*
G01*
X219756000Y-106345000D01*
G75*
G02*
X219606000Y-106195000I0J150000D01*
G01*
X219606000Y-105895000D01*
G75*
G02*
X219756000Y-105745000I150000J0D01*
G01*
X221356000Y-105745000D01*
G75*
G02*
X221506000Y-105895000I0J-150000D01*
G01*
G37*
G36*
G01*
X108913000Y-90645000D02*
X108913000Y-89695000D01*
G75*
G02*
X109163000Y-89445000I250000J0D01*
G01*
X109663000Y-89445000D01*
G75*
G02*
X109913000Y-89695000I0J-250000D01*
G01*
X109913000Y-90645000D01*
G75*
G02*
X109663000Y-90895000I-250000J0D01*
G01*
X109163000Y-90895000D01*
G75*
G02*
X108913000Y-90645000I0J250000D01*
G01*
G37*
G36*
G01*
X110813000Y-90645000D02*
X110813000Y-89695000D01*
G75*
G02*
X111063000Y-89445000I250000J0D01*
G01*
X111563000Y-89445000D01*
G75*
G02*
X111813000Y-89695000I0J-250000D01*
G01*
X111813000Y-90645000D01*
G75*
G02*
X111563000Y-90895000I-250000J0D01*
G01*
X111063000Y-90895000D01*
G75*
G02*
X110813000Y-90645000I0J250000D01*
G01*
G37*
G36*
G01*
X214903000Y-80742000D02*
X214903000Y-79842000D01*
G75*
G02*
X215153000Y-79592000I250000J0D01*
G01*
X215678000Y-79592000D01*
G75*
G02*
X215928000Y-79842000I0J-250000D01*
G01*
X215928000Y-80742000D01*
G75*
G02*
X215678000Y-80992000I-250000J0D01*
G01*
X215153000Y-80992000D01*
G75*
G02*
X214903000Y-80742000I0J250000D01*
G01*
G37*
G36*
G01*
X216728000Y-80742000D02*
X216728000Y-79842000D01*
G75*
G02*
X216978000Y-79592000I250000J0D01*
G01*
X217503000Y-79592000D01*
G75*
G02*
X217753000Y-79842000I0J-250000D01*
G01*
X217753000Y-80742000D01*
G75*
G02*
X217503000Y-80992000I-250000J0D01*
G01*
X216978000Y-80992000D01*
G75*
G02*
X216728000Y-80742000I0J250000D01*
G01*
G37*
G36*
G01*
X228506000Y-92560000D02*
X228506000Y-92860000D01*
G75*
G02*
X228356000Y-93010000I-150000J0D01*
G01*
X226756000Y-93010000D01*
G75*
G02*
X226606000Y-92860000I0J150000D01*
G01*
X226606000Y-92560000D01*
G75*
G02*
X226756000Y-92410000I150000J0D01*
G01*
X228356000Y-92410000D01*
G75*
G02*
X228506000Y-92560000I0J-150000D01*
G01*
G37*
G36*
G01*
X228506000Y-93830000D02*
X228506000Y-94130000D01*
G75*
G02*
X228356000Y-94280000I-150000J0D01*
G01*
X226756000Y-94280000D01*
G75*
G02*
X226606000Y-94130000I0J150000D01*
G01*
X226606000Y-93830000D01*
G75*
G02*
X226756000Y-93680000I150000J0D01*
G01*
X228356000Y-93680000D01*
G75*
G02*
X228506000Y-93830000I0J-150000D01*
G01*
G37*
G36*
G01*
X228506000Y-95100000D02*
X228506000Y-95400000D01*
G75*
G02*
X228356000Y-95550000I-150000J0D01*
G01*
X226756000Y-95550000D01*
G75*
G02*
X226606000Y-95400000I0J150000D01*
G01*
X226606000Y-95100000D01*
G75*
G02*
X226756000Y-94950000I150000J0D01*
G01*
X228356000Y-94950000D01*
G75*
G02*
X228506000Y-95100000I0J-150000D01*
G01*
G37*
G36*
G01*
X228506000Y-96370000D02*
X228506000Y-96670000D01*
G75*
G02*
X228356000Y-96820000I-150000J0D01*
G01*
X226756000Y-96820000D01*
G75*
G02*
X226606000Y-96670000I0J150000D01*
G01*
X226606000Y-96370000D01*
G75*
G02*
X226756000Y-96220000I150000J0D01*
G01*
X228356000Y-96220000D01*
G75*
G02*
X228506000Y-96370000I0J-150000D01*
G01*
G37*
G36*
G01*
X221506000Y-96370000D02*
X221506000Y-96670000D01*
G75*
G02*
X221356000Y-96820000I-150000J0D01*
G01*
X219756000Y-96820000D01*
G75*
G02*
X219606000Y-96670000I0J150000D01*
G01*
X219606000Y-96370000D01*
G75*
G02*
X219756000Y-96220000I150000J0D01*
G01*
X221356000Y-96220000D01*
G75*
G02*
X221506000Y-96370000I0J-150000D01*
G01*
G37*
G36*
G01*
X221506000Y-95100000D02*
X221506000Y-95400000D01*
G75*
G02*
X221356000Y-95550000I-150000J0D01*
G01*
X219756000Y-95550000D01*
G75*
G02*
X219606000Y-95400000I0J150000D01*
G01*
X219606000Y-95100000D01*
G75*
G02*
X219756000Y-94950000I150000J0D01*
G01*
X221356000Y-94950000D01*
G75*
G02*
X221506000Y-95100000I0J-150000D01*
G01*
G37*
G36*
G01*
X221506000Y-93830000D02*
X221506000Y-94130000D01*
G75*
G02*
X221356000Y-94280000I-150000J0D01*
G01*
X219756000Y-94280000D01*
G75*
G02*
X219606000Y-94130000I0J150000D01*
G01*
X219606000Y-93830000D01*
G75*
G02*
X219756000Y-93680000I150000J0D01*
G01*
X221356000Y-93680000D01*
G75*
G02*
X221506000Y-93830000I0J-150000D01*
G01*
G37*
G36*
G01*
X221506000Y-92560000D02*
X221506000Y-92860000D01*
G75*
G02*
X221356000Y-93010000I-150000J0D01*
G01*
X219756000Y-93010000D01*
G75*
G02*
X219606000Y-92860000I0J150000D01*
G01*
X219606000Y-92560000D01*
G75*
G02*
X219756000Y-92410000I150000J0D01*
G01*
X221356000Y-92410000D01*
G75*
G02*
X221506000Y-92560000I0J-150000D01*
G01*
G37*
G36*
G01*
X182044000Y-82202000D02*
X182044000Y-83152000D01*
G75*
G02*
X181794000Y-83402000I-250000J0D01*
G01*
X181294000Y-83402000D01*
G75*
G02*
X181044000Y-83152000I0J250000D01*
G01*
X181044000Y-82202000D01*
G75*
G02*
X181294000Y-81952000I250000J0D01*
G01*
X181794000Y-81952000D01*
G75*
G02*
X182044000Y-82202000I0J-250000D01*
G01*
G37*
G36*
G01*
X180144000Y-82202000D02*
X180144000Y-83152000D01*
G75*
G02*
X179894000Y-83402000I-250000J0D01*
G01*
X179394000Y-83402000D01*
G75*
G02*
X179144000Y-83152000I0J250000D01*
G01*
X179144000Y-82202000D01*
G75*
G02*
X179394000Y-81952000I250000J0D01*
G01*
X179894000Y-81952000D01*
G75*
G02*
X180144000Y-82202000I0J-250000D01*
G01*
G37*
D23*
X144525000Y-119912000D03*
G36*
X140575000Y-120545500D02*
G01*
X143700000Y-120545500D01*
X143700000Y-120962000D01*
X145175000Y-120962000D01*
X145175000Y-121862000D01*
X143700000Y-121862000D01*
X143700000Y-122278500D01*
X140575000Y-122278500D01*
X140575000Y-120545500D01*
G37*
X144525000Y-122912000D03*
G36*
G01*
X161135000Y-117290000D02*
X161135000Y-116390000D01*
G75*
G02*
X161385000Y-116140000I250000J0D01*
G01*
X161910000Y-116140000D01*
G75*
G02*
X162160000Y-116390000I0J-250000D01*
G01*
X162160000Y-117290000D01*
G75*
G02*
X161910000Y-117540000I-250000J0D01*
G01*
X161385000Y-117540000D01*
G75*
G02*
X161135000Y-117290000I0J250000D01*
G01*
G37*
G36*
G01*
X162960000Y-117290000D02*
X162960000Y-116390000D01*
G75*
G02*
X163210000Y-116140000I250000J0D01*
G01*
X163735000Y-116140000D01*
G75*
G02*
X163985000Y-116390000I0J-250000D01*
G01*
X163985000Y-117290000D01*
G75*
G02*
X163735000Y-117540000I-250000J0D01*
G01*
X163210000Y-117540000D01*
G75*
G02*
X162960000Y-117290000I0J250000D01*
G01*
G37*
G36*
G01*
X189029000Y-86012000D02*
X189029000Y-86962000D01*
G75*
G02*
X188779000Y-87212000I-250000J0D01*
G01*
X188279000Y-87212000D01*
G75*
G02*
X188029000Y-86962000I0J250000D01*
G01*
X188029000Y-86012000D01*
G75*
G02*
X188279000Y-85762000I250000J0D01*
G01*
X188779000Y-85762000D01*
G75*
G02*
X189029000Y-86012000I0J-250000D01*
G01*
G37*
G36*
G01*
X187129000Y-86012000D02*
X187129000Y-86962000D01*
G75*
G02*
X186879000Y-87212000I-250000J0D01*
G01*
X186379000Y-87212000D01*
G75*
G02*
X186129000Y-86962000I0J250000D01*
G01*
X186129000Y-86012000D01*
G75*
G02*
X186379000Y-85762000I250000J0D01*
G01*
X186879000Y-85762000D01*
G75*
G02*
X187129000Y-86012000I0J-250000D01*
G01*
G37*
G36*
G01*
X192873000Y-104752000D02*
X192873000Y-105052000D01*
G75*
G02*
X192723000Y-105202000I-150000J0D01*
G01*
X191073000Y-105202000D01*
G75*
G02*
X190923000Y-105052000I0J150000D01*
G01*
X190923000Y-104752000D01*
G75*
G02*
X191073000Y-104602000I150000J0D01*
G01*
X192723000Y-104602000D01*
G75*
G02*
X192873000Y-104752000I0J-150000D01*
G01*
G37*
G36*
G01*
X192873000Y-106022000D02*
X192873000Y-106322000D01*
G75*
G02*
X192723000Y-106472000I-150000J0D01*
G01*
X191073000Y-106472000D01*
G75*
G02*
X190923000Y-106322000I0J150000D01*
G01*
X190923000Y-106022000D01*
G75*
G02*
X191073000Y-105872000I150000J0D01*
G01*
X192723000Y-105872000D01*
G75*
G02*
X192873000Y-106022000I0J-150000D01*
G01*
G37*
G36*
G01*
X192873000Y-107292000D02*
X192873000Y-107592000D01*
G75*
G02*
X192723000Y-107742000I-150000J0D01*
G01*
X191073000Y-107742000D01*
G75*
G02*
X190923000Y-107592000I0J150000D01*
G01*
X190923000Y-107292000D01*
G75*
G02*
X191073000Y-107142000I150000J0D01*
G01*
X192723000Y-107142000D01*
G75*
G02*
X192873000Y-107292000I0J-150000D01*
G01*
G37*
G36*
G01*
X192873000Y-108562000D02*
X192873000Y-108862000D01*
G75*
G02*
X192723000Y-109012000I-150000J0D01*
G01*
X191073000Y-109012000D01*
G75*
G02*
X190923000Y-108862000I0J150000D01*
G01*
X190923000Y-108562000D01*
G75*
G02*
X191073000Y-108412000I150000J0D01*
G01*
X192723000Y-108412000D01*
G75*
G02*
X192873000Y-108562000I0J-150000D01*
G01*
G37*
G36*
G01*
X187923000Y-108562000D02*
X187923000Y-108862000D01*
G75*
G02*
X187773000Y-109012000I-150000J0D01*
G01*
X186123000Y-109012000D01*
G75*
G02*
X185973000Y-108862000I0J150000D01*
G01*
X185973000Y-108562000D01*
G75*
G02*
X186123000Y-108412000I150000J0D01*
G01*
X187773000Y-108412000D01*
G75*
G02*
X187923000Y-108562000I0J-150000D01*
G01*
G37*
G36*
G01*
X187923000Y-107292000D02*
X187923000Y-107592000D01*
G75*
G02*
X187773000Y-107742000I-150000J0D01*
G01*
X186123000Y-107742000D01*
G75*
G02*
X185973000Y-107592000I0J150000D01*
G01*
X185973000Y-107292000D01*
G75*
G02*
X186123000Y-107142000I150000J0D01*
G01*
X187773000Y-107142000D01*
G75*
G02*
X187923000Y-107292000I0J-150000D01*
G01*
G37*
G36*
G01*
X187923000Y-106022000D02*
X187923000Y-106322000D01*
G75*
G02*
X187773000Y-106472000I-150000J0D01*
G01*
X186123000Y-106472000D01*
G75*
G02*
X185973000Y-106322000I0J150000D01*
G01*
X185973000Y-106022000D01*
G75*
G02*
X186123000Y-105872000I150000J0D01*
G01*
X187773000Y-105872000D01*
G75*
G02*
X187923000Y-106022000I0J-150000D01*
G01*
G37*
G36*
G01*
X187923000Y-104752000D02*
X187923000Y-105052000D01*
G75*
G02*
X187773000Y-105202000I-150000J0D01*
G01*
X186123000Y-105202000D01*
G75*
G02*
X185973000Y-105052000I0J150000D01*
G01*
X185973000Y-104752000D01*
G75*
G02*
X186123000Y-104602000I150000J0D01*
G01*
X187773000Y-104602000D01*
G75*
G02*
X187923000Y-104752000I0J-150000D01*
G01*
G37*
D15*
X133095000Y-108585000D03*
X129795000Y-108585000D03*
G36*
G01*
X137005000Y-112845000D02*
X137005000Y-111945000D01*
G75*
G02*
X137255000Y-111695000I250000J0D01*
G01*
X137780000Y-111695000D01*
G75*
G02*
X138030000Y-111945000I0J-250000D01*
G01*
X138030000Y-112845000D01*
G75*
G02*
X137780000Y-113095000I-250000J0D01*
G01*
X137255000Y-113095000D01*
G75*
G02*
X137005000Y-112845000I0J250000D01*
G01*
G37*
G36*
G01*
X138830000Y-112845000D02*
X138830000Y-111945000D01*
G75*
G02*
X139080000Y-111695000I250000J0D01*
G01*
X139605000Y-111695000D01*
G75*
G02*
X139855000Y-111945000I0J-250000D01*
G01*
X139855000Y-112845000D01*
G75*
G02*
X139605000Y-113095000I-250000J0D01*
G01*
X139080000Y-113095000D01*
G75*
G02*
X138830000Y-112845000I0J250000D01*
G01*
G37*
X133095000Y-120015000D03*
X129795000Y-120015000D03*
G36*
G01*
X174805000Y-122080000D02*
X174805000Y-123030000D01*
G75*
G02*
X174555000Y-123280000I-250000J0D01*
G01*
X174055000Y-123280000D01*
G75*
G02*
X173805000Y-123030000I0J250000D01*
G01*
X173805000Y-122080000D01*
G75*
G02*
X174055000Y-121830000I250000J0D01*
G01*
X174555000Y-121830000D01*
G75*
G02*
X174805000Y-122080000I0J-250000D01*
G01*
G37*
G36*
G01*
X172905000Y-122080000D02*
X172905000Y-123030000D01*
G75*
G02*
X172655000Y-123280000I-250000J0D01*
G01*
X172155000Y-123280000D01*
G75*
G02*
X171905000Y-123030000I0J250000D01*
G01*
X171905000Y-122080000D01*
G75*
G02*
X172155000Y-121830000I250000J0D01*
G01*
X172655000Y-121830000D01*
G75*
G02*
X172905000Y-122080000I0J-250000D01*
G01*
G37*
G36*
G01*
X79220000Y-112845000D02*
X79220000Y-111945000D01*
G75*
G02*
X79470000Y-111695000I250000J0D01*
G01*
X79995000Y-111695000D01*
G75*
G02*
X80245000Y-111945000I0J-250000D01*
G01*
X80245000Y-112845000D01*
G75*
G02*
X79995000Y-113095000I-250000J0D01*
G01*
X79470000Y-113095000D01*
G75*
G02*
X79220000Y-112845000I0J250000D01*
G01*
G37*
G36*
G01*
X81045000Y-112845000D02*
X81045000Y-111945000D01*
G75*
G02*
X81295000Y-111695000I250000J0D01*
G01*
X81820000Y-111695000D01*
G75*
G02*
X82070000Y-111945000I0J-250000D01*
G01*
X82070000Y-112845000D01*
G75*
G02*
X81820000Y-113095000I-250000J0D01*
G01*
X81295000Y-113095000D01*
G75*
G02*
X81045000Y-112845000I0J250000D01*
G01*
G37*
G36*
G01*
X223601000Y-113190000D02*
X223601000Y-114140000D01*
G75*
G02*
X223351000Y-114390000I-250000J0D01*
G01*
X222851000Y-114390000D01*
G75*
G02*
X222601000Y-114140000I0J250000D01*
G01*
X222601000Y-113190000D01*
G75*
G02*
X222851000Y-112940000I250000J0D01*
G01*
X223351000Y-112940000D01*
G75*
G02*
X223601000Y-113190000I0J-250000D01*
G01*
G37*
G36*
G01*
X221701000Y-113190000D02*
X221701000Y-114140000D01*
G75*
G02*
X221451000Y-114390000I-250000J0D01*
G01*
X220951000Y-114390000D01*
G75*
G02*
X220701000Y-114140000I0J250000D01*
G01*
X220701000Y-113190000D01*
G75*
G02*
X220951000Y-112940000I250000J0D01*
G01*
X221451000Y-112940000D01*
G75*
G02*
X221701000Y-113190000I0J-250000D01*
G01*
G37*
G36*
G01*
X117320000Y-116655000D02*
X117320000Y-115755000D01*
G75*
G02*
X117570000Y-115505000I250000J0D01*
G01*
X118095000Y-115505000D01*
G75*
G02*
X118345000Y-115755000I0J-250000D01*
G01*
X118345000Y-116655000D01*
G75*
G02*
X118095000Y-116905000I-250000J0D01*
G01*
X117570000Y-116905000D01*
G75*
G02*
X117320000Y-116655000I0J250000D01*
G01*
G37*
G36*
G01*
X119145000Y-116655000D02*
X119145000Y-115755000D01*
G75*
G02*
X119395000Y-115505000I250000J0D01*
G01*
X119920000Y-115505000D01*
G75*
G02*
X120170000Y-115755000I0J-250000D01*
G01*
X120170000Y-116655000D01*
G75*
G02*
X119920000Y-116905000I-250000J0D01*
G01*
X119395000Y-116905000D01*
G75*
G02*
X119145000Y-116655000I0J250000D01*
G01*
G37*
G36*
G01*
X205539000Y-86012000D02*
X205539000Y-86962000D01*
G75*
G02*
X205289000Y-87212000I-250000J0D01*
G01*
X204789000Y-87212000D01*
G75*
G02*
X204539000Y-86962000I0J250000D01*
G01*
X204539000Y-86012000D01*
G75*
G02*
X204789000Y-85762000I250000J0D01*
G01*
X205289000Y-85762000D01*
G75*
G02*
X205539000Y-86012000I0J-250000D01*
G01*
G37*
G36*
G01*
X203639000Y-86012000D02*
X203639000Y-86962000D01*
G75*
G02*
X203389000Y-87212000I-250000J0D01*
G01*
X202889000Y-87212000D01*
G75*
G02*
X202639000Y-86962000I0J250000D01*
G01*
X202639000Y-86012000D01*
G75*
G02*
X202889000Y-85762000I250000J0D01*
G01*
X203389000Y-85762000D01*
G75*
G02*
X203639000Y-86012000I0J-250000D01*
G01*
G37*
G36*
G01*
X76528000Y-91407000D02*
X76528000Y-90457000D01*
G75*
G02*
X76778000Y-90207000I250000J0D01*
G01*
X77278000Y-90207000D01*
G75*
G02*
X77528000Y-90457000I0J-250000D01*
G01*
X77528000Y-91407000D01*
G75*
G02*
X77278000Y-91657000I-250000J0D01*
G01*
X76778000Y-91657000D01*
G75*
G02*
X76528000Y-91407000I0J250000D01*
G01*
G37*
G36*
G01*
X78428000Y-91407000D02*
X78428000Y-90457000D01*
G75*
G02*
X78678000Y-90207000I250000J0D01*
G01*
X79178000Y-90207000D01*
G75*
G02*
X79428000Y-90457000I0J-250000D01*
G01*
X79428000Y-91407000D01*
G75*
G02*
X79178000Y-91657000I-250000J0D01*
G01*
X78678000Y-91657000D01*
G75*
G02*
X78428000Y-91407000I0J250000D01*
G01*
G37*
D16*
X61214000Y-112776000D03*
G36*
G01*
X155810000Y-60135000D02*
X155810000Y-61825000D01*
G75*
G02*
X155560000Y-62075000I-250000J0D01*
G01*
X154320000Y-62075000D01*
G75*
G02*
X154070000Y-61825000I0J250000D01*
G01*
X154070000Y-60135000D01*
G75*
G02*
X154320000Y-59885000I250000J0D01*
G01*
X155560000Y-59885000D01*
G75*
G02*
X155810000Y-60135000I0J-250000D01*
G01*
G37*
D14*
X152400000Y-60980000D03*
X149860000Y-60980000D03*
X147320000Y-60980000D03*
X144780000Y-60980000D03*
D15*
X114045000Y-108585000D03*
X110745000Y-108585000D03*
G36*
G01*
X137005000Y-116655000D02*
X137005000Y-115755000D01*
G75*
G02*
X137255000Y-115505000I250000J0D01*
G01*
X137780000Y-115505000D01*
G75*
G02*
X138030000Y-115755000I0J-250000D01*
G01*
X138030000Y-116655000D01*
G75*
G02*
X137780000Y-116905000I-250000J0D01*
G01*
X137255000Y-116905000D01*
G75*
G02*
X137005000Y-116655000I0J250000D01*
G01*
G37*
G36*
G01*
X138830000Y-116655000D02*
X138830000Y-115755000D01*
G75*
G02*
X139080000Y-115505000I250000J0D01*
G01*
X139605000Y-115505000D01*
G75*
G02*
X139855000Y-115755000I0J-250000D01*
G01*
X139855000Y-116655000D01*
G75*
G02*
X139605000Y-116905000I-250000J0D01*
G01*
X139080000Y-116905000D01*
G75*
G02*
X138830000Y-116655000I0J250000D01*
G01*
G37*
G36*
G01*
X199799000Y-61145000D02*
X199799000Y-62045000D01*
G75*
G02*
X199549000Y-62295000I-250000J0D01*
G01*
X199024000Y-62295000D01*
G75*
G02*
X198774000Y-62045000I0J250000D01*
G01*
X198774000Y-61145000D01*
G75*
G02*
X199024000Y-60895000I250000J0D01*
G01*
X199549000Y-60895000D01*
G75*
G02*
X199799000Y-61145000I0J-250000D01*
G01*
G37*
G36*
G01*
X197974000Y-61145000D02*
X197974000Y-62045000D01*
G75*
G02*
X197724000Y-62295000I-250000J0D01*
G01*
X197199000Y-62295000D01*
G75*
G02*
X196949000Y-62045000I0J250000D01*
G01*
X196949000Y-61145000D01*
G75*
G02*
X197199000Y-60895000I250000J0D01*
G01*
X197724000Y-60895000D01*
G75*
G02*
X197974000Y-61145000I0J-250000D01*
G01*
G37*
G36*
G01*
X163985000Y-112580000D02*
X163985000Y-113480000D01*
G75*
G02*
X163735000Y-113730000I-250000J0D01*
G01*
X163210000Y-113730000D01*
G75*
G02*
X162960000Y-113480000I0J250000D01*
G01*
X162960000Y-112580000D01*
G75*
G02*
X163210000Y-112330000I250000J0D01*
G01*
X163735000Y-112330000D01*
G75*
G02*
X163985000Y-112580000I0J-250000D01*
G01*
G37*
G36*
G01*
X162160000Y-112580000D02*
X162160000Y-113480000D01*
G75*
G02*
X161910000Y-113730000I-250000J0D01*
G01*
X161385000Y-113730000D01*
G75*
G02*
X161135000Y-113480000I0J250000D01*
G01*
X161135000Y-112580000D01*
G75*
G02*
X161385000Y-112330000I250000J0D01*
G01*
X161910000Y-112330000D01*
G75*
G02*
X162160000Y-112580000I0J-250000D01*
G01*
G37*
G36*
G01*
X100658000Y-91280000D02*
X100658000Y-90330000D01*
G75*
G02*
X100908000Y-90080000I250000J0D01*
G01*
X101408000Y-90080000D01*
G75*
G02*
X101658000Y-90330000I0J-250000D01*
G01*
X101658000Y-91280000D01*
G75*
G02*
X101408000Y-91530000I-250000J0D01*
G01*
X100908000Y-91530000D01*
G75*
G02*
X100658000Y-91280000I0J250000D01*
G01*
G37*
G36*
G01*
X102558000Y-91280000D02*
X102558000Y-90330000D01*
G75*
G02*
X102808000Y-90080000I250000J0D01*
G01*
X103308000Y-90080000D01*
G75*
G02*
X103558000Y-90330000I0J-250000D01*
G01*
X103558000Y-91280000D01*
G75*
G02*
X103308000Y-91530000I-250000J0D01*
G01*
X102808000Y-91530000D01*
G75*
G02*
X102558000Y-91280000I0J250000D01*
G01*
G37*
G36*
G01*
X147140000Y-123792000D02*
X147140000Y-122842000D01*
G75*
G02*
X147390000Y-122592000I250000J0D01*
G01*
X147890000Y-122592000D01*
G75*
G02*
X148140000Y-122842000I0J-250000D01*
G01*
X148140000Y-123792000D01*
G75*
G02*
X147890000Y-124042000I-250000J0D01*
G01*
X147390000Y-124042000D01*
G75*
G02*
X147140000Y-123792000I0J250000D01*
G01*
G37*
G36*
G01*
X149040000Y-123792000D02*
X149040000Y-122842000D01*
G75*
G02*
X149290000Y-122592000I250000J0D01*
G01*
X149790000Y-122592000D01*
G75*
G02*
X150040000Y-122842000I0J-250000D01*
G01*
X150040000Y-123792000D01*
G75*
G02*
X149790000Y-124042000I-250000J0D01*
G01*
X149290000Y-124042000D01*
G75*
G02*
X149040000Y-123792000I0J250000D01*
G01*
G37*
G36*
G01*
X192839000Y-66200000D02*
X192839000Y-67150000D01*
G75*
G02*
X192589000Y-67400000I-250000J0D01*
G01*
X192089000Y-67400000D01*
G75*
G02*
X191839000Y-67150000I0J250000D01*
G01*
X191839000Y-66200000D01*
G75*
G02*
X192089000Y-65950000I250000J0D01*
G01*
X192589000Y-65950000D01*
G75*
G02*
X192839000Y-66200000I0J-250000D01*
G01*
G37*
G36*
G01*
X190939000Y-66200000D02*
X190939000Y-67150000D01*
G75*
G02*
X190689000Y-67400000I-250000J0D01*
G01*
X190189000Y-67400000D01*
G75*
G02*
X189939000Y-67150000I0J250000D01*
G01*
X189939000Y-66200000D01*
G75*
G02*
X190189000Y-65950000I250000J0D01*
G01*
X190689000Y-65950000D01*
G75*
G02*
X190939000Y-66200000I0J-250000D01*
G01*
G37*
D16*
X209550000Y-56642000D03*
G36*
G01*
X223493000Y-82992000D02*
X223493000Y-83942000D01*
G75*
G02*
X223243000Y-84192000I-250000J0D01*
G01*
X222743000Y-84192000D01*
G75*
G02*
X222493000Y-83942000I0J250000D01*
G01*
X222493000Y-82992000D01*
G75*
G02*
X222743000Y-82742000I250000J0D01*
G01*
X223243000Y-82742000D01*
G75*
G02*
X223493000Y-82992000I0J-250000D01*
G01*
G37*
G36*
G01*
X221593000Y-82992000D02*
X221593000Y-83942000D01*
G75*
G02*
X221343000Y-84192000I-250000J0D01*
G01*
X220843000Y-84192000D01*
G75*
G02*
X220593000Y-83942000I0J250000D01*
G01*
X220593000Y-82992000D01*
G75*
G02*
X220843000Y-82742000I250000J0D01*
G01*
X221343000Y-82742000D01*
G75*
G02*
X221593000Y-82992000I0J-250000D01*
G01*
G37*
G36*
G01*
X136038000Y-78590000D02*
X136038000Y-78890000D01*
G75*
G02*
X135888000Y-79040000I-150000J0D01*
G01*
X134238000Y-79040000D01*
G75*
G02*
X134088000Y-78890000I0J150000D01*
G01*
X134088000Y-78590000D01*
G75*
G02*
X134238000Y-78440000I150000J0D01*
G01*
X135888000Y-78440000D01*
G75*
G02*
X136038000Y-78590000I0J-150000D01*
G01*
G37*
G36*
G01*
X136038000Y-79860000D02*
X136038000Y-80160000D01*
G75*
G02*
X135888000Y-80310000I-150000J0D01*
G01*
X134238000Y-80310000D01*
G75*
G02*
X134088000Y-80160000I0J150000D01*
G01*
X134088000Y-79860000D01*
G75*
G02*
X134238000Y-79710000I150000J0D01*
G01*
X135888000Y-79710000D01*
G75*
G02*
X136038000Y-79860000I0J-150000D01*
G01*
G37*
G36*
G01*
X136038000Y-81130000D02*
X136038000Y-81430000D01*
G75*
G02*
X135888000Y-81580000I-150000J0D01*
G01*
X134238000Y-81580000D01*
G75*
G02*
X134088000Y-81430000I0J150000D01*
G01*
X134088000Y-81130000D01*
G75*
G02*
X134238000Y-80980000I150000J0D01*
G01*
X135888000Y-80980000D01*
G75*
G02*
X136038000Y-81130000I0J-150000D01*
G01*
G37*
G36*
G01*
X136038000Y-82400000D02*
X136038000Y-82700000D01*
G75*
G02*
X135888000Y-82850000I-150000J0D01*
G01*
X134238000Y-82850000D01*
G75*
G02*
X134088000Y-82700000I0J150000D01*
G01*
X134088000Y-82400000D01*
G75*
G02*
X134238000Y-82250000I150000J0D01*
G01*
X135888000Y-82250000D01*
G75*
G02*
X136038000Y-82400000I0J-150000D01*
G01*
G37*
G36*
G01*
X136038000Y-83670000D02*
X136038000Y-83970000D01*
G75*
G02*
X135888000Y-84120000I-150000J0D01*
G01*
X134238000Y-84120000D01*
G75*
G02*
X134088000Y-83970000I0J150000D01*
G01*
X134088000Y-83670000D01*
G75*
G02*
X134238000Y-83520000I150000J0D01*
G01*
X135888000Y-83520000D01*
G75*
G02*
X136038000Y-83670000I0J-150000D01*
G01*
G37*
G36*
G01*
X136038000Y-84940000D02*
X136038000Y-85240000D01*
G75*
G02*
X135888000Y-85390000I-150000J0D01*
G01*
X134238000Y-85390000D01*
G75*
G02*
X134088000Y-85240000I0J150000D01*
G01*
X134088000Y-84940000D01*
G75*
G02*
X134238000Y-84790000I150000J0D01*
G01*
X135888000Y-84790000D01*
G75*
G02*
X136038000Y-84940000I0J-150000D01*
G01*
G37*
G36*
G01*
X136038000Y-86210000D02*
X136038000Y-86510000D01*
G75*
G02*
X135888000Y-86660000I-150000J0D01*
G01*
X134238000Y-86660000D01*
G75*
G02*
X134088000Y-86510000I0J150000D01*
G01*
X134088000Y-86210000D01*
G75*
G02*
X134238000Y-86060000I150000J0D01*
G01*
X135888000Y-86060000D01*
G75*
G02*
X136038000Y-86210000I0J-150000D01*
G01*
G37*
G36*
G01*
X131088000Y-86210000D02*
X131088000Y-86510000D01*
G75*
G02*
X130938000Y-86660000I-150000J0D01*
G01*
X129288000Y-86660000D01*
G75*
G02*
X129138000Y-86510000I0J150000D01*
G01*
X129138000Y-86210000D01*
G75*
G02*
X129288000Y-86060000I150000J0D01*
G01*
X130938000Y-86060000D01*
G75*
G02*
X131088000Y-86210000I0J-150000D01*
G01*
G37*
G36*
G01*
X131088000Y-84940000D02*
X131088000Y-85240000D01*
G75*
G02*
X130938000Y-85390000I-150000J0D01*
G01*
X129288000Y-85390000D01*
G75*
G02*
X129138000Y-85240000I0J150000D01*
G01*
X129138000Y-84940000D01*
G75*
G02*
X129288000Y-84790000I150000J0D01*
G01*
X130938000Y-84790000D01*
G75*
G02*
X131088000Y-84940000I0J-150000D01*
G01*
G37*
G36*
G01*
X131088000Y-83670000D02*
X131088000Y-83970000D01*
G75*
G02*
X130938000Y-84120000I-150000J0D01*
G01*
X129288000Y-84120000D01*
G75*
G02*
X129138000Y-83970000I0J150000D01*
G01*
X129138000Y-83670000D01*
G75*
G02*
X129288000Y-83520000I150000J0D01*
G01*
X130938000Y-83520000D01*
G75*
G02*
X131088000Y-83670000I0J-150000D01*
G01*
G37*
G36*
G01*
X131088000Y-82400000D02*
X131088000Y-82700000D01*
G75*
G02*
X130938000Y-82850000I-150000J0D01*
G01*
X129288000Y-82850000D01*
G75*
G02*
X129138000Y-82700000I0J150000D01*
G01*
X129138000Y-82400000D01*
G75*
G02*
X129288000Y-82250000I150000J0D01*
G01*
X130938000Y-82250000D01*
G75*
G02*
X131088000Y-82400000I0J-150000D01*
G01*
G37*
G36*
G01*
X131088000Y-81130000D02*
X131088000Y-81430000D01*
G75*
G02*
X130938000Y-81580000I-150000J0D01*
G01*
X129288000Y-81580000D01*
G75*
G02*
X129138000Y-81430000I0J150000D01*
G01*
X129138000Y-81130000D01*
G75*
G02*
X129288000Y-80980000I150000J0D01*
G01*
X130938000Y-80980000D01*
G75*
G02*
X131088000Y-81130000I0J-150000D01*
G01*
G37*
G36*
G01*
X131088000Y-79860000D02*
X131088000Y-80160000D01*
G75*
G02*
X130938000Y-80310000I-150000J0D01*
G01*
X129288000Y-80310000D01*
G75*
G02*
X129138000Y-80160000I0J150000D01*
G01*
X129138000Y-79860000D01*
G75*
G02*
X129288000Y-79710000I150000J0D01*
G01*
X130938000Y-79710000D01*
G75*
G02*
X131088000Y-79860000I0J-150000D01*
G01*
G37*
G36*
G01*
X131088000Y-78590000D02*
X131088000Y-78890000D01*
G75*
G02*
X130938000Y-79040000I-150000J0D01*
G01*
X129288000Y-79040000D01*
G75*
G02*
X129138000Y-78890000I0J150000D01*
G01*
X129138000Y-78590000D01*
G75*
G02*
X129288000Y-78440000I150000J0D01*
G01*
X130938000Y-78440000D01*
G75*
G02*
X131088000Y-78590000I0J-150000D01*
G01*
G37*
G36*
G01*
X216563000Y-118422000D02*
X216563000Y-119322000D01*
G75*
G02*
X216313000Y-119572000I-250000J0D01*
G01*
X215788000Y-119572000D01*
G75*
G02*
X215538000Y-119322000I0J250000D01*
G01*
X215538000Y-118422000D01*
G75*
G02*
X215788000Y-118172000I250000J0D01*
G01*
X216313000Y-118172000D01*
G75*
G02*
X216563000Y-118422000I0J-250000D01*
G01*
G37*
G36*
G01*
X214738000Y-118422000D02*
X214738000Y-119322000D01*
G75*
G02*
X214488000Y-119572000I-250000J0D01*
G01*
X213963000Y-119572000D01*
G75*
G02*
X213713000Y-119322000I0J250000D01*
G01*
X213713000Y-118422000D01*
G75*
G02*
X213963000Y-118172000I250000J0D01*
G01*
X214488000Y-118172000D01*
G75*
G02*
X214738000Y-118422000I0J-250000D01*
G01*
G37*
G36*
G01*
X131138000Y-90645000D02*
X131138000Y-89695000D01*
G75*
G02*
X131388000Y-89445000I250000J0D01*
G01*
X131888000Y-89445000D01*
G75*
G02*
X132138000Y-89695000I0J-250000D01*
G01*
X132138000Y-90645000D01*
G75*
G02*
X131888000Y-90895000I-250000J0D01*
G01*
X131388000Y-90895000D01*
G75*
G02*
X131138000Y-90645000I0J250000D01*
G01*
G37*
G36*
G01*
X133038000Y-90645000D02*
X133038000Y-89695000D01*
G75*
G02*
X133288000Y-89445000I250000J0D01*
G01*
X133788000Y-89445000D01*
G75*
G02*
X134038000Y-89695000I0J-250000D01*
G01*
X134038000Y-90645000D01*
G75*
G02*
X133788000Y-90895000I-250000J0D01*
G01*
X133288000Y-90895000D01*
G75*
G02*
X133038000Y-90645000I0J250000D01*
G01*
G37*
G36*
G01*
X171344000Y-90147000D02*
X171344000Y-90447000D01*
G75*
G02*
X171194000Y-90597000I-150000J0D01*
G01*
X169544000Y-90597000D01*
G75*
G02*
X169394000Y-90447000I0J150000D01*
G01*
X169394000Y-90147000D01*
G75*
G02*
X169544000Y-89997000I150000J0D01*
G01*
X171194000Y-89997000D01*
G75*
G02*
X171344000Y-90147000I0J-150000D01*
G01*
G37*
G36*
G01*
X171344000Y-91417000D02*
X171344000Y-91717000D01*
G75*
G02*
X171194000Y-91867000I-150000J0D01*
G01*
X169544000Y-91867000D01*
G75*
G02*
X169394000Y-91717000I0J150000D01*
G01*
X169394000Y-91417000D01*
G75*
G02*
X169544000Y-91267000I150000J0D01*
G01*
X171194000Y-91267000D01*
G75*
G02*
X171344000Y-91417000I0J-150000D01*
G01*
G37*
G36*
G01*
X171344000Y-92687000D02*
X171344000Y-92987000D01*
G75*
G02*
X171194000Y-93137000I-150000J0D01*
G01*
X169544000Y-93137000D01*
G75*
G02*
X169394000Y-92987000I0J150000D01*
G01*
X169394000Y-92687000D01*
G75*
G02*
X169544000Y-92537000I150000J0D01*
G01*
X171194000Y-92537000D01*
G75*
G02*
X171344000Y-92687000I0J-150000D01*
G01*
G37*
G36*
G01*
X171344000Y-93957000D02*
X171344000Y-94257000D01*
G75*
G02*
X171194000Y-94407000I-150000J0D01*
G01*
X169544000Y-94407000D01*
G75*
G02*
X169394000Y-94257000I0J150000D01*
G01*
X169394000Y-93957000D01*
G75*
G02*
X169544000Y-93807000I150000J0D01*
G01*
X171194000Y-93807000D01*
G75*
G02*
X171344000Y-93957000I0J-150000D01*
G01*
G37*
G36*
G01*
X171344000Y-95227000D02*
X171344000Y-95527000D01*
G75*
G02*
X171194000Y-95677000I-150000J0D01*
G01*
X169544000Y-95677000D01*
G75*
G02*
X169394000Y-95527000I0J150000D01*
G01*
X169394000Y-95227000D01*
G75*
G02*
X169544000Y-95077000I150000J0D01*
G01*
X171194000Y-95077000D01*
G75*
G02*
X171344000Y-95227000I0J-150000D01*
G01*
G37*
G36*
G01*
X171344000Y-96497000D02*
X171344000Y-96797000D01*
G75*
G02*
X171194000Y-96947000I-150000J0D01*
G01*
X169544000Y-96947000D01*
G75*
G02*
X169394000Y-96797000I0J150000D01*
G01*
X169394000Y-96497000D01*
G75*
G02*
X169544000Y-96347000I150000J0D01*
G01*
X171194000Y-96347000D01*
G75*
G02*
X171344000Y-96497000I0J-150000D01*
G01*
G37*
G36*
G01*
X171344000Y-97767000D02*
X171344000Y-98067000D01*
G75*
G02*
X171194000Y-98217000I-150000J0D01*
G01*
X169544000Y-98217000D01*
G75*
G02*
X169394000Y-98067000I0J150000D01*
G01*
X169394000Y-97767000D01*
G75*
G02*
X169544000Y-97617000I150000J0D01*
G01*
X171194000Y-97617000D01*
G75*
G02*
X171344000Y-97767000I0J-150000D01*
G01*
G37*
G36*
G01*
X166394000Y-97767000D02*
X166394000Y-98067000D01*
G75*
G02*
X166244000Y-98217000I-150000J0D01*
G01*
X164594000Y-98217000D01*
G75*
G02*
X164444000Y-98067000I0J150000D01*
G01*
X164444000Y-97767000D01*
G75*
G02*
X164594000Y-97617000I150000J0D01*
G01*
X166244000Y-97617000D01*
G75*
G02*
X166394000Y-97767000I0J-150000D01*
G01*
G37*
G36*
G01*
X166394000Y-96497000D02*
X166394000Y-96797000D01*
G75*
G02*
X166244000Y-96947000I-150000J0D01*
G01*
X164594000Y-96947000D01*
G75*
G02*
X164444000Y-96797000I0J150000D01*
G01*
X164444000Y-96497000D01*
G75*
G02*
X164594000Y-96347000I150000J0D01*
G01*
X166244000Y-96347000D01*
G75*
G02*
X166394000Y-96497000I0J-150000D01*
G01*
G37*
G36*
G01*
X166394000Y-95227000D02*
X166394000Y-95527000D01*
G75*
G02*
X166244000Y-95677000I-150000J0D01*
G01*
X164594000Y-95677000D01*
G75*
G02*
X164444000Y-95527000I0J150000D01*
G01*
X164444000Y-95227000D01*
G75*
G02*
X164594000Y-95077000I150000J0D01*
G01*
X166244000Y-95077000D01*
G75*
G02*
X166394000Y-95227000I0J-150000D01*
G01*
G37*
G36*
G01*
X166394000Y-93957000D02*
X166394000Y-94257000D01*
G75*
G02*
X166244000Y-94407000I-150000J0D01*
G01*
X164594000Y-94407000D01*
G75*
G02*
X164444000Y-94257000I0J150000D01*
G01*
X164444000Y-93957000D01*
G75*
G02*
X164594000Y-93807000I150000J0D01*
G01*
X166244000Y-93807000D01*
G75*
G02*
X166394000Y-93957000I0J-150000D01*
G01*
G37*
G36*
G01*
X166394000Y-92687000D02*
X166394000Y-92987000D01*
G75*
G02*
X166244000Y-93137000I-150000J0D01*
G01*
X164594000Y-93137000D01*
G75*
G02*
X164444000Y-92987000I0J150000D01*
G01*
X164444000Y-92687000D01*
G75*
G02*
X164594000Y-92537000I150000J0D01*
G01*
X166244000Y-92537000D01*
G75*
G02*
X166394000Y-92687000I0J-150000D01*
G01*
G37*
G36*
G01*
X166394000Y-91417000D02*
X166394000Y-91717000D01*
G75*
G02*
X166244000Y-91867000I-150000J0D01*
G01*
X164594000Y-91867000D01*
G75*
G02*
X164444000Y-91717000I0J150000D01*
G01*
X164444000Y-91417000D01*
G75*
G02*
X164594000Y-91267000I150000J0D01*
G01*
X166244000Y-91267000D01*
G75*
G02*
X166394000Y-91417000I0J-150000D01*
G01*
G37*
G36*
G01*
X166394000Y-90147000D02*
X166394000Y-90447000D01*
G75*
G02*
X166244000Y-90597000I-150000J0D01*
G01*
X164594000Y-90597000D01*
G75*
G02*
X164444000Y-90447000I0J150000D01*
G01*
X164444000Y-90147000D01*
G75*
G02*
X164594000Y-89997000I150000J0D01*
G01*
X166244000Y-89997000D01*
G75*
G02*
X166394000Y-90147000I0J-150000D01*
G01*
G37*
G36*
G01*
X193934000Y-58905000D02*
X193934000Y-59205000D01*
G75*
G02*
X193784000Y-59355000I-150000J0D01*
G01*
X192184000Y-59355000D01*
G75*
G02*
X192034000Y-59205000I0J150000D01*
G01*
X192034000Y-58905000D01*
G75*
G02*
X192184000Y-58755000I150000J0D01*
G01*
X193784000Y-58755000D01*
G75*
G02*
X193934000Y-58905000I0J-150000D01*
G01*
G37*
G36*
G01*
X193934000Y-60175000D02*
X193934000Y-60475000D01*
G75*
G02*
X193784000Y-60625000I-150000J0D01*
G01*
X192184000Y-60625000D01*
G75*
G02*
X192034000Y-60475000I0J150000D01*
G01*
X192034000Y-60175000D01*
G75*
G02*
X192184000Y-60025000I150000J0D01*
G01*
X193784000Y-60025000D01*
G75*
G02*
X193934000Y-60175000I0J-150000D01*
G01*
G37*
G36*
G01*
X193934000Y-61445000D02*
X193934000Y-61745000D01*
G75*
G02*
X193784000Y-61895000I-150000J0D01*
G01*
X192184000Y-61895000D01*
G75*
G02*
X192034000Y-61745000I0J150000D01*
G01*
X192034000Y-61445000D01*
G75*
G02*
X192184000Y-61295000I150000J0D01*
G01*
X193784000Y-61295000D01*
G75*
G02*
X193934000Y-61445000I0J-150000D01*
G01*
G37*
G36*
G01*
X193934000Y-62715000D02*
X193934000Y-63015000D01*
G75*
G02*
X193784000Y-63165000I-150000J0D01*
G01*
X192184000Y-63165000D01*
G75*
G02*
X192034000Y-63015000I0J150000D01*
G01*
X192034000Y-62715000D01*
G75*
G02*
X192184000Y-62565000I150000J0D01*
G01*
X193784000Y-62565000D01*
G75*
G02*
X193934000Y-62715000I0J-150000D01*
G01*
G37*
G36*
G01*
X186934000Y-62715000D02*
X186934000Y-63015000D01*
G75*
G02*
X186784000Y-63165000I-150000J0D01*
G01*
X185184000Y-63165000D01*
G75*
G02*
X185034000Y-63015000I0J150000D01*
G01*
X185034000Y-62715000D01*
G75*
G02*
X185184000Y-62565000I150000J0D01*
G01*
X186784000Y-62565000D01*
G75*
G02*
X186934000Y-62715000I0J-150000D01*
G01*
G37*
G36*
G01*
X186934000Y-61445000D02*
X186934000Y-61745000D01*
G75*
G02*
X186784000Y-61895000I-150000J0D01*
G01*
X185184000Y-61895000D01*
G75*
G02*
X185034000Y-61745000I0J150000D01*
G01*
X185034000Y-61445000D01*
G75*
G02*
X185184000Y-61295000I150000J0D01*
G01*
X186784000Y-61295000D01*
G75*
G02*
X186934000Y-61445000I0J-150000D01*
G01*
G37*
G36*
G01*
X186934000Y-60175000D02*
X186934000Y-60475000D01*
G75*
G02*
X186784000Y-60625000I-150000J0D01*
G01*
X185184000Y-60625000D01*
G75*
G02*
X185034000Y-60475000I0J150000D01*
G01*
X185034000Y-60175000D01*
G75*
G02*
X185184000Y-60025000I150000J0D01*
G01*
X186784000Y-60025000D01*
G75*
G02*
X186934000Y-60175000I0J-150000D01*
G01*
G37*
G36*
G01*
X186934000Y-58905000D02*
X186934000Y-59205000D01*
G75*
G02*
X186784000Y-59355000I-150000J0D01*
G01*
X185184000Y-59355000D01*
G75*
G02*
X185034000Y-59205000I0J150000D01*
G01*
X185034000Y-58905000D01*
G75*
G02*
X185184000Y-58755000I150000J0D01*
G01*
X186784000Y-58755000D01*
G75*
G02*
X186934000Y-58905000I0J-150000D01*
G01*
G37*
G36*
G01*
X161064000Y-104452000D02*
X161064000Y-105352000D01*
G75*
G02*
X160814000Y-105602000I-250000J0D01*
G01*
X160289000Y-105602000D01*
G75*
G02*
X160039000Y-105352000I0J250000D01*
G01*
X160039000Y-104452000D01*
G75*
G02*
X160289000Y-104202000I250000J0D01*
G01*
X160814000Y-104202000D01*
G75*
G02*
X161064000Y-104452000I0J-250000D01*
G01*
G37*
G36*
G01*
X159239000Y-104452000D02*
X159239000Y-105352000D01*
G75*
G02*
X158989000Y-105602000I-250000J0D01*
G01*
X158464000Y-105602000D01*
G75*
G02*
X158214000Y-105352000I0J250000D01*
G01*
X158214000Y-104452000D01*
G75*
G02*
X158464000Y-104202000I250000J0D01*
G01*
X158989000Y-104202000D01*
G75*
G02*
X159239000Y-104452000I0J-250000D01*
G01*
G37*
M02*
