G04 #@! TF.GenerationSoftware,KiCad,Pcbnew,6.0.5+dfsg-1~bpo11+1*
G04 #@! TF.CreationDate,2022-07-25T15:23:16+00:00*
G04 #@! TF.ProjectId,ribbon_board,72696262-6f6e-45f6-926f-6172642e6b69,0*
G04 #@! TF.SameCoordinates,Original*
G04 #@! TF.FileFunction,Legend,Top*
G04 #@! TF.FilePolarity,Positive*
%FSLAX46Y46*%
G04 Gerber Fmt 4.6, Leading zero omitted, Abs format (unit mm)*
G04 Created by KiCad (PCBNEW 6.0.5+dfsg-1~bpo11+1) date 2022-07-25 15:23:16*
%MOMM*%
%LPD*%
G01*
G04 APERTURE LIST*
%ADD10C,0.150000*%
%ADD11C,0.120000*%
%ADD12C,2.500000*%
%ADD13O,2.720000X3.240000*%
%ADD14R,1.800000X1.800000*%
%ADD15C,1.800000*%
%ADD16O,1.740000X2.190000*%
%ADD17C,2.000000*%
%ADD18O,2.190000X1.740000*%
%ADD19C,1.600000*%
%ADD20R,1.600000X1.600000*%
%ADD21C,2.600000*%
%ADD22C,1.440000*%
%ADD23C,1.700000*%
G04 APERTURE END LIST*
D10*
X67088095Y-122324761D02*
X67230952Y-122372380D01*
X67469047Y-122372380D01*
X67564285Y-122324761D01*
X67611904Y-122277142D01*
X67659523Y-122181904D01*
X67659523Y-122086666D01*
X67611904Y-121991428D01*
X67564285Y-121943809D01*
X67469047Y-121896190D01*
X67278571Y-121848571D01*
X67183333Y-121800952D01*
X67135714Y-121753333D01*
X67088095Y-121658095D01*
X67088095Y-121562857D01*
X67135714Y-121467619D01*
X67183333Y-121420000D01*
X67278571Y-121372380D01*
X67516666Y-121372380D01*
X67659523Y-121420000D01*
X67992857Y-121372380D02*
X68230952Y-122372380D01*
X68421428Y-121658095D01*
X68611904Y-122372380D01*
X68850000Y-121372380D01*
X69754761Y-122372380D02*
X69183333Y-122372380D01*
X69469047Y-122372380D02*
X69469047Y-121372380D01*
X69373809Y-121515238D01*
X69278571Y-121610476D01*
X69183333Y-121658095D01*
X70088095Y-121372380D02*
X70707142Y-121372380D01*
X70373809Y-121753333D01*
X70516666Y-121753333D01*
X70611904Y-121800952D01*
X70659523Y-121848571D01*
X70707142Y-121943809D01*
X70707142Y-122181904D01*
X70659523Y-122277142D01*
X70611904Y-122324761D01*
X70516666Y-122372380D01*
X70230952Y-122372380D01*
X70135714Y-122324761D01*
X70088095Y-122277142D01*
X71326190Y-121372380D02*
X71421428Y-121372380D01*
X71516666Y-121420000D01*
X71564285Y-121467619D01*
X71611904Y-121562857D01*
X71659523Y-121753333D01*
X71659523Y-121991428D01*
X71611904Y-122181904D01*
X71564285Y-122277142D01*
X71516666Y-122324761D01*
X71421428Y-122372380D01*
X71326190Y-122372380D01*
X71230952Y-122324761D01*
X71183333Y-122277142D01*
X71135714Y-122181904D01*
X71088095Y-121991428D01*
X71088095Y-121753333D01*
X71135714Y-121562857D01*
X71183333Y-121467619D01*
X71230952Y-121420000D01*
X71326190Y-121372380D01*
X72611904Y-122372380D02*
X72040476Y-122372380D01*
X72326190Y-122372380D02*
X72326190Y-121372380D01*
X72230952Y-121515238D01*
X72135714Y-121610476D01*
X72040476Y-121658095D01*
X163552380Y-73604380D02*
X163219047Y-73128190D01*
X162980952Y-73604380D02*
X162980952Y-72604380D01*
X163361904Y-72604380D01*
X163457142Y-72652000D01*
X163504761Y-72699619D01*
X163552380Y-72794857D01*
X163552380Y-72937714D01*
X163504761Y-73032952D01*
X163457142Y-73080571D01*
X163361904Y-73128190D01*
X162980952Y-73128190D01*
X163838095Y-72604380D02*
X164171428Y-73604380D01*
X164504761Y-72604380D01*
X165361904Y-73604380D02*
X164790476Y-73604380D01*
X165076190Y-73604380D02*
X165076190Y-72604380D01*
X164980952Y-72747238D01*
X164885714Y-72842476D01*
X164790476Y-72890095D01*
X165980952Y-72604380D02*
X166076190Y-72604380D01*
X166171428Y-72652000D01*
X166219047Y-72699619D01*
X166266666Y-72794857D01*
X166314285Y-72985333D01*
X166314285Y-73223428D01*
X166266666Y-73413904D01*
X166219047Y-73509142D01*
X166171428Y-73556761D01*
X166076190Y-73604380D01*
X165980952Y-73604380D01*
X165885714Y-73556761D01*
X165838095Y-73509142D01*
X165790476Y-73413904D01*
X165742857Y-73223428D01*
X165742857Y-72985333D01*
X165790476Y-72794857D01*
X165838095Y-72699619D01*
X165885714Y-72652000D01*
X165980952Y-72604380D01*
X166647619Y-72604380D02*
X167266666Y-72604380D01*
X166933333Y-72985333D01*
X167076190Y-72985333D01*
X167171428Y-73032952D01*
X167219047Y-73080571D01*
X167266666Y-73175809D01*
X167266666Y-73413904D01*
X167219047Y-73509142D01*
X167171428Y-73556761D01*
X167076190Y-73604380D01*
X166790476Y-73604380D01*
X166695238Y-73556761D01*
X166647619Y-73509142D01*
X208002380Y-73604380D02*
X207669047Y-73128190D01*
X207430952Y-73604380D02*
X207430952Y-72604380D01*
X207811904Y-72604380D01*
X207907142Y-72652000D01*
X207954761Y-72699619D01*
X208002380Y-72794857D01*
X208002380Y-72937714D01*
X207954761Y-73032952D01*
X207907142Y-73080571D01*
X207811904Y-73128190D01*
X207430952Y-73128190D01*
X208288095Y-72604380D02*
X208621428Y-73604380D01*
X208954761Y-72604380D01*
X209811904Y-73604380D02*
X209240476Y-73604380D01*
X209526190Y-73604380D02*
X209526190Y-72604380D01*
X209430952Y-72747238D01*
X209335714Y-72842476D01*
X209240476Y-72890095D01*
X210430952Y-72604380D02*
X210526190Y-72604380D01*
X210621428Y-72652000D01*
X210669047Y-72699619D01*
X210716666Y-72794857D01*
X210764285Y-72985333D01*
X210764285Y-73223428D01*
X210716666Y-73413904D01*
X210669047Y-73509142D01*
X210621428Y-73556761D01*
X210526190Y-73604380D01*
X210430952Y-73604380D01*
X210335714Y-73556761D01*
X210288095Y-73509142D01*
X210240476Y-73413904D01*
X210192857Y-73223428D01*
X210192857Y-72985333D01*
X210240476Y-72794857D01*
X210288095Y-72699619D01*
X210335714Y-72652000D01*
X210430952Y-72604380D01*
X211621428Y-72937714D02*
X211621428Y-73604380D01*
X211383333Y-72556761D02*
X211145238Y-73271047D01*
X211764285Y-73271047D01*
X74652380Y-73731380D02*
X74319047Y-73255190D01*
X74080952Y-73731380D02*
X74080952Y-72731380D01*
X74461904Y-72731380D01*
X74557142Y-72779000D01*
X74604761Y-72826619D01*
X74652380Y-72921857D01*
X74652380Y-73064714D01*
X74604761Y-73159952D01*
X74557142Y-73207571D01*
X74461904Y-73255190D01*
X74080952Y-73255190D01*
X74938095Y-72731380D02*
X75271428Y-73731380D01*
X75604761Y-72731380D01*
X76461904Y-73731380D02*
X75890476Y-73731380D01*
X76176190Y-73731380D02*
X76176190Y-72731380D01*
X76080952Y-72874238D01*
X75985714Y-72969476D01*
X75890476Y-73017095D01*
X77080952Y-72731380D02*
X77176190Y-72731380D01*
X77271428Y-72779000D01*
X77319047Y-72826619D01*
X77366666Y-72921857D01*
X77414285Y-73112333D01*
X77414285Y-73350428D01*
X77366666Y-73540904D01*
X77319047Y-73636142D01*
X77271428Y-73683761D01*
X77176190Y-73731380D01*
X77080952Y-73731380D01*
X76985714Y-73683761D01*
X76938095Y-73636142D01*
X76890476Y-73540904D01*
X76842857Y-73350428D01*
X76842857Y-73112333D01*
X76890476Y-72921857D01*
X76938095Y-72826619D01*
X76985714Y-72779000D01*
X77080952Y-72731380D01*
X78366666Y-73731380D02*
X77795238Y-73731380D01*
X78080952Y-73731380D02*
X78080952Y-72731380D01*
X77985714Y-72874238D01*
X77890476Y-72969476D01*
X77795238Y-73017095D01*
X149638095Y-122324761D02*
X149780952Y-122372380D01*
X150019047Y-122372380D01*
X150114285Y-122324761D01*
X150161904Y-122277142D01*
X150209523Y-122181904D01*
X150209523Y-122086666D01*
X150161904Y-121991428D01*
X150114285Y-121943809D01*
X150019047Y-121896190D01*
X149828571Y-121848571D01*
X149733333Y-121800952D01*
X149685714Y-121753333D01*
X149638095Y-121658095D01*
X149638095Y-121562857D01*
X149685714Y-121467619D01*
X149733333Y-121420000D01*
X149828571Y-121372380D01*
X150066666Y-121372380D01*
X150209523Y-121420000D01*
X150542857Y-121372380D02*
X150780952Y-122372380D01*
X150971428Y-121658095D01*
X151161904Y-122372380D01*
X151400000Y-121372380D01*
X152304761Y-122372380D02*
X151733333Y-122372380D01*
X152019047Y-122372380D02*
X152019047Y-121372380D01*
X151923809Y-121515238D01*
X151828571Y-121610476D01*
X151733333Y-121658095D01*
X152685714Y-121467619D02*
X152733333Y-121420000D01*
X152828571Y-121372380D01*
X153066666Y-121372380D01*
X153161904Y-121420000D01*
X153209523Y-121467619D01*
X153257142Y-121562857D01*
X153257142Y-121658095D01*
X153209523Y-121800952D01*
X152638095Y-122372380D01*
X153257142Y-122372380D01*
X153876190Y-121372380D02*
X153971428Y-121372380D01*
X154066666Y-121420000D01*
X154114285Y-121467619D01*
X154161904Y-121562857D01*
X154209523Y-121753333D01*
X154209523Y-121991428D01*
X154161904Y-122181904D01*
X154114285Y-122277142D01*
X154066666Y-122324761D01*
X153971428Y-122372380D01*
X153876190Y-122372380D01*
X153780952Y-122324761D01*
X153733333Y-122277142D01*
X153685714Y-122181904D01*
X153638095Y-121991428D01*
X153638095Y-121753333D01*
X153685714Y-121562857D01*
X153733333Y-121467619D01*
X153780952Y-121420000D01*
X153876190Y-121372380D01*
X155161904Y-122372380D02*
X154590476Y-122372380D01*
X154876190Y-122372380D02*
X154876190Y-121372380D01*
X154780952Y-121515238D01*
X154685714Y-121610476D01*
X154590476Y-121658095D01*
X206788095Y-122324761D02*
X206930952Y-122372380D01*
X207169047Y-122372380D01*
X207264285Y-122324761D01*
X207311904Y-122277142D01*
X207359523Y-122181904D01*
X207359523Y-122086666D01*
X207311904Y-121991428D01*
X207264285Y-121943809D01*
X207169047Y-121896190D01*
X206978571Y-121848571D01*
X206883333Y-121800952D01*
X206835714Y-121753333D01*
X206788095Y-121658095D01*
X206788095Y-121562857D01*
X206835714Y-121467619D01*
X206883333Y-121420000D01*
X206978571Y-121372380D01*
X207216666Y-121372380D01*
X207359523Y-121420000D01*
X207692857Y-121372380D02*
X207930952Y-122372380D01*
X208121428Y-121658095D01*
X208311904Y-122372380D01*
X208550000Y-121372380D01*
X209454761Y-122372380D02*
X208883333Y-122372380D01*
X209169047Y-122372380D02*
X209169047Y-121372380D01*
X209073809Y-121515238D01*
X208978571Y-121610476D01*
X208883333Y-121658095D01*
X209788095Y-121372380D02*
X210454761Y-121372380D01*
X210026190Y-122372380D01*
X211026190Y-121372380D02*
X211121428Y-121372380D01*
X211216666Y-121420000D01*
X211264285Y-121467619D01*
X211311904Y-121562857D01*
X211359523Y-121753333D01*
X211359523Y-121991428D01*
X211311904Y-122181904D01*
X211264285Y-122277142D01*
X211216666Y-122324761D01*
X211121428Y-122372380D01*
X211026190Y-122372380D01*
X210930952Y-122324761D01*
X210883333Y-122277142D01*
X210835714Y-122181904D01*
X210788095Y-121991428D01*
X210788095Y-121753333D01*
X210835714Y-121562857D01*
X210883333Y-121467619D01*
X210930952Y-121420000D01*
X211026190Y-121372380D01*
X212311904Y-122372380D02*
X211740476Y-122372380D01*
X212026190Y-122372380D02*
X212026190Y-121372380D01*
X211930952Y-121515238D01*
X211835714Y-121610476D01*
X211740476Y-121658095D01*
X105188095Y-122324761D02*
X105330952Y-122372380D01*
X105569047Y-122372380D01*
X105664285Y-122324761D01*
X105711904Y-122277142D01*
X105759523Y-122181904D01*
X105759523Y-122086666D01*
X105711904Y-121991428D01*
X105664285Y-121943809D01*
X105569047Y-121896190D01*
X105378571Y-121848571D01*
X105283333Y-121800952D01*
X105235714Y-121753333D01*
X105188095Y-121658095D01*
X105188095Y-121562857D01*
X105235714Y-121467619D01*
X105283333Y-121420000D01*
X105378571Y-121372380D01*
X105616666Y-121372380D01*
X105759523Y-121420000D01*
X106092857Y-121372380D02*
X106330952Y-122372380D01*
X106521428Y-121658095D01*
X106711904Y-122372380D01*
X106950000Y-121372380D01*
X107854761Y-122372380D02*
X107283333Y-122372380D01*
X107569047Y-122372380D02*
X107569047Y-121372380D01*
X107473809Y-121515238D01*
X107378571Y-121610476D01*
X107283333Y-121658095D01*
X108759523Y-121372380D02*
X108283333Y-121372380D01*
X108235714Y-121848571D01*
X108283333Y-121800952D01*
X108378571Y-121753333D01*
X108616666Y-121753333D01*
X108711904Y-121800952D01*
X108759523Y-121848571D01*
X108807142Y-121943809D01*
X108807142Y-122181904D01*
X108759523Y-122277142D01*
X108711904Y-122324761D01*
X108616666Y-122372380D01*
X108378571Y-122372380D01*
X108283333Y-122324761D01*
X108235714Y-122277142D01*
X109426190Y-121372380D02*
X109521428Y-121372380D01*
X109616666Y-121420000D01*
X109664285Y-121467619D01*
X109711904Y-121562857D01*
X109759523Y-121753333D01*
X109759523Y-121991428D01*
X109711904Y-122181904D01*
X109664285Y-122277142D01*
X109616666Y-122324761D01*
X109521428Y-122372380D01*
X109426190Y-122372380D01*
X109330952Y-122324761D01*
X109283333Y-122277142D01*
X109235714Y-122181904D01*
X109188095Y-121991428D01*
X109188095Y-121753333D01*
X109235714Y-121562857D01*
X109283333Y-121467619D01*
X109330952Y-121420000D01*
X109426190Y-121372380D01*
X110711904Y-122372380D02*
X110140476Y-122372380D01*
X110426190Y-122372380D02*
X110426190Y-121372380D01*
X110330952Y-121515238D01*
X110235714Y-121610476D01*
X110140476Y-121658095D01*
X119102380Y-73731380D02*
X118769047Y-73255190D01*
X118530952Y-73731380D02*
X118530952Y-72731380D01*
X118911904Y-72731380D01*
X119007142Y-72779000D01*
X119054761Y-72826619D01*
X119102380Y-72921857D01*
X119102380Y-73064714D01*
X119054761Y-73159952D01*
X119007142Y-73207571D01*
X118911904Y-73255190D01*
X118530952Y-73255190D01*
X119388095Y-72731380D02*
X119721428Y-73731380D01*
X120054761Y-72731380D01*
X120911904Y-73731380D02*
X120340476Y-73731380D01*
X120626190Y-73731380D02*
X120626190Y-72731380D01*
X120530952Y-72874238D01*
X120435714Y-72969476D01*
X120340476Y-73017095D01*
X121530952Y-72731380D02*
X121626190Y-72731380D01*
X121721428Y-72779000D01*
X121769047Y-72826619D01*
X121816666Y-72921857D01*
X121864285Y-73112333D01*
X121864285Y-73350428D01*
X121816666Y-73540904D01*
X121769047Y-73636142D01*
X121721428Y-73683761D01*
X121626190Y-73731380D01*
X121530952Y-73731380D01*
X121435714Y-73683761D01*
X121388095Y-73636142D01*
X121340476Y-73540904D01*
X121292857Y-73350428D01*
X121292857Y-73112333D01*
X121340476Y-72921857D01*
X121388095Y-72826619D01*
X121435714Y-72779000D01*
X121530952Y-72731380D01*
X122245238Y-72826619D02*
X122292857Y-72779000D01*
X122388095Y-72731380D01*
X122626190Y-72731380D01*
X122721428Y-72779000D01*
X122769047Y-72826619D01*
X122816666Y-72921857D01*
X122816666Y-73017095D01*
X122769047Y-73159952D01*
X122197619Y-73731380D01*
X122816666Y-73731380D01*
X86138095Y-122324761D02*
X86280952Y-122372380D01*
X86519047Y-122372380D01*
X86614285Y-122324761D01*
X86661904Y-122277142D01*
X86709523Y-122181904D01*
X86709523Y-122086666D01*
X86661904Y-121991428D01*
X86614285Y-121943809D01*
X86519047Y-121896190D01*
X86328571Y-121848571D01*
X86233333Y-121800952D01*
X86185714Y-121753333D01*
X86138095Y-121658095D01*
X86138095Y-121562857D01*
X86185714Y-121467619D01*
X86233333Y-121420000D01*
X86328571Y-121372380D01*
X86566666Y-121372380D01*
X86709523Y-121420000D01*
X87042857Y-121372380D02*
X87280952Y-122372380D01*
X87471428Y-121658095D01*
X87661904Y-122372380D01*
X87900000Y-121372380D01*
X88804761Y-122372380D02*
X88233333Y-122372380D01*
X88519047Y-122372380D02*
X88519047Y-121372380D01*
X88423809Y-121515238D01*
X88328571Y-121610476D01*
X88233333Y-121658095D01*
X89661904Y-121705714D02*
X89661904Y-122372380D01*
X89423809Y-121324761D02*
X89185714Y-122039047D01*
X89804761Y-122039047D01*
X90376190Y-121372380D02*
X90471428Y-121372380D01*
X90566666Y-121420000D01*
X90614285Y-121467619D01*
X90661904Y-121562857D01*
X90709523Y-121753333D01*
X90709523Y-121991428D01*
X90661904Y-122181904D01*
X90614285Y-122277142D01*
X90566666Y-122324761D01*
X90471428Y-122372380D01*
X90376190Y-122372380D01*
X90280952Y-122324761D01*
X90233333Y-122277142D01*
X90185714Y-122181904D01*
X90138095Y-121991428D01*
X90138095Y-121753333D01*
X90185714Y-121562857D01*
X90233333Y-121467619D01*
X90280952Y-121420000D01*
X90376190Y-121372380D01*
X91661904Y-122372380D02*
X91090476Y-122372380D01*
X91376190Y-122372380D02*
X91376190Y-121372380D01*
X91280952Y-121515238D01*
X91185714Y-121610476D01*
X91090476Y-121658095D01*
X124238095Y-122324761D02*
X124380952Y-122372380D01*
X124619047Y-122372380D01*
X124714285Y-122324761D01*
X124761904Y-122277142D01*
X124809523Y-122181904D01*
X124809523Y-122086666D01*
X124761904Y-121991428D01*
X124714285Y-121943809D01*
X124619047Y-121896190D01*
X124428571Y-121848571D01*
X124333333Y-121800952D01*
X124285714Y-121753333D01*
X124238095Y-121658095D01*
X124238095Y-121562857D01*
X124285714Y-121467619D01*
X124333333Y-121420000D01*
X124428571Y-121372380D01*
X124666666Y-121372380D01*
X124809523Y-121420000D01*
X125142857Y-121372380D02*
X125380952Y-122372380D01*
X125571428Y-121658095D01*
X125761904Y-122372380D01*
X126000000Y-121372380D01*
X126904761Y-122372380D02*
X126333333Y-122372380D01*
X126619047Y-122372380D02*
X126619047Y-121372380D01*
X126523809Y-121515238D01*
X126428571Y-121610476D01*
X126333333Y-121658095D01*
X127761904Y-121372380D02*
X127571428Y-121372380D01*
X127476190Y-121420000D01*
X127428571Y-121467619D01*
X127333333Y-121610476D01*
X127285714Y-121800952D01*
X127285714Y-122181904D01*
X127333333Y-122277142D01*
X127380952Y-122324761D01*
X127476190Y-122372380D01*
X127666666Y-122372380D01*
X127761904Y-122324761D01*
X127809523Y-122277142D01*
X127857142Y-122181904D01*
X127857142Y-121943809D01*
X127809523Y-121848571D01*
X127761904Y-121800952D01*
X127666666Y-121753333D01*
X127476190Y-121753333D01*
X127380952Y-121800952D01*
X127333333Y-121848571D01*
X127285714Y-121943809D01*
X128476190Y-121372380D02*
X128571428Y-121372380D01*
X128666666Y-121420000D01*
X128714285Y-121467619D01*
X128761904Y-121562857D01*
X128809523Y-121753333D01*
X128809523Y-121991428D01*
X128761904Y-122181904D01*
X128714285Y-122277142D01*
X128666666Y-122324761D01*
X128571428Y-122372380D01*
X128476190Y-122372380D01*
X128380952Y-122324761D01*
X128333333Y-122277142D01*
X128285714Y-122181904D01*
X128238095Y-121991428D01*
X128238095Y-121753333D01*
X128285714Y-121562857D01*
X128333333Y-121467619D01*
X128380952Y-121420000D01*
X128476190Y-121372380D01*
X129761904Y-122372380D02*
X129190476Y-122372380D01*
X129476190Y-122372380D02*
X129476190Y-121372380D01*
X129380952Y-121515238D01*
X129285714Y-121610476D01*
X129190476Y-121658095D01*
X232664285Y-71524761D02*
X232807142Y-71572380D01*
X233045238Y-71572380D01*
X233140476Y-71524761D01*
X233188095Y-71477142D01*
X233235714Y-71381904D01*
X233235714Y-71286666D01*
X233188095Y-71191428D01*
X233140476Y-71143809D01*
X233045238Y-71096190D01*
X232854761Y-71048571D01*
X232759523Y-71000952D01*
X232711904Y-70953333D01*
X232664285Y-70858095D01*
X232664285Y-70762857D01*
X232711904Y-70667619D01*
X232759523Y-70620000D01*
X232854761Y-70572380D01*
X233092857Y-70572380D01*
X233235714Y-70620000D01*
X233569047Y-70572380D02*
X233807142Y-71572380D01*
X233997619Y-70858095D01*
X234188095Y-71572380D01*
X234426190Y-70572380D01*
X234759523Y-70667619D02*
X234807142Y-70620000D01*
X234902380Y-70572380D01*
X235140476Y-70572380D01*
X235235714Y-70620000D01*
X235283333Y-70667619D01*
X235330952Y-70762857D01*
X235330952Y-70858095D01*
X235283333Y-71000952D01*
X234711904Y-71572380D01*
X235330952Y-71572380D01*
X235950000Y-70572380D02*
X236045238Y-70572380D01*
X236140476Y-70620000D01*
X236188095Y-70667619D01*
X236235714Y-70762857D01*
X236283333Y-70953333D01*
X236283333Y-71191428D01*
X236235714Y-71381904D01*
X236188095Y-71477142D01*
X236140476Y-71524761D01*
X236045238Y-71572380D01*
X235950000Y-71572380D01*
X235854761Y-71524761D01*
X235807142Y-71477142D01*
X235759523Y-71381904D01*
X235711904Y-71191428D01*
X235711904Y-70953333D01*
X235759523Y-70762857D01*
X235807142Y-70667619D01*
X235854761Y-70620000D01*
X235950000Y-70572380D01*
X237235714Y-71572380D02*
X236664285Y-71572380D01*
X236950000Y-71572380D02*
X236950000Y-70572380D01*
X236854761Y-70715238D01*
X236759523Y-70810476D01*
X236664285Y-70858095D01*
X233053190Y-124404380D02*
X232719857Y-123928190D01*
X232481761Y-124404380D02*
X232481761Y-123404380D01*
X232862714Y-123404380D01*
X232957952Y-123452000D01*
X233005571Y-123499619D01*
X233053190Y-123594857D01*
X233053190Y-123737714D01*
X233005571Y-123832952D01*
X232957952Y-123880571D01*
X232862714Y-123928190D01*
X232481761Y-123928190D01*
X233338904Y-123404380D02*
X233672238Y-124404380D01*
X234005571Y-123404380D01*
X234862714Y-124404380D02*
X234291285Y-124404380D01*
X234577000Y-124404380D02*
X234577000Y-123404380D01*
X234481761Y-123547238D01*
X234386523Y-123642476D01*
X234291285Y-123690095D01*
X235196047Y-123404380D02*
X235862714Y-123404380D01*
X235434142Y-124404380D01*
X236434142Y-123404380D02*
X236529380Y-123404380D01*
X236624619Y-123452000D01*
X236672238Y-123499619D01*
X236719857Y-123594857D01*
X236767476Y-123785333D01*
X236767476Y-124023428D01*
X236719857Y-124213904D01*
X236672238Y-124309142D01*
X236624619Y-124356761D01*
X236529380Y-124404380D01*
X236434142Y-124404380D01*
X236338904Y-124356761D01*
X236291285Y-124309142D01*
X236243666Y-124213904D01*
X236196047Y-124023428D01*
X236196047Y-123785333D01*
X236243666Y-123594857D01*
X236291285Y-123499619D01*
X236338904Y-123452000D01*
X236434142Y-123404380D01*
X237719857Y-124404380D02*
X237148428Y-124404380D01*
X237434142Y-124404380D02*
X237434142Y-123404380D01*
X237338904Y-123547238D01*
X237243666Y-123642476D01*
X237148428Y-123690095D01*
D11*
X73350000Y-120650000D02*
X66350000Y-120650000D01*
X66350000Y-107950000D02*
X73350000Y-107950000D01*
X73350000Y-107950000D02*
X73350000Y-120650000D01*
X66350000Y-120650000D02*
X66350000Y-107950000D01*
X169970000Y-58650000D02*
X160230000Y-58650000D01*
X169970000Y-70240000D02*
X169970000Y-65520000D01*
X166760000Y-70240000D02*
X165930000Y-70240000D01*
X164310000Y-70240000D02*
X163780000Y-70240000D01*
X160230000Y-61710000D02*
X160230000Y-58650000D01*
X160220000Y-70240000D02*
X160220000Y-65520000D01*
X169970000Y-61710000D02*
X169970000Y-58650000D01*
X161410000Y-70240000D02*
X160230000Y-70240000D01*
X169970000Y-70240000D02*
X168480000Y-70240000D01*
X211210000Y-70240000D02*
X210380000Y-70240000D01*
X214420000Y-61710000D02*
X214420000Y-58650000D01*
X208760000Y-70240000D02*
X208230000Y-70240000D01*
X204680000Y-61710000D02*
X204680000Y-58650000D01*
X205860000Y-70240000D02*
X204680000Y-70240000D01*
X204670000Y-70240000D02*
X204670000Y-65520000D01*
X214420000Y-70240000D02*
X214420000Y-65520000D01*
X214420000Y-70240000D02*
X212930000Y-70240000D01*
X214420000Y-58650000D02*
X204680000Y-58650000D01*
X81070000Y-70240000D02*
X81070000Y-65520000D01*
X81070000Y-61710000D02*
X81070000Y-58650000D01*
X71320000Y-70240000D02*
X71320000Y-65520000D01*
X81070000Y-58650000D02*
X71330000Y-58650000D01*
X71330000Y-61710000D02*
X71330000Y-58650000D01*
X75410000Y-70240000D02*
X74880000Y-70240000D01*
X81070000Y-70240000D02*
X79580000Y-70240000D01*
X72510000Y-70240000D02*
X71330000Y-70240000D01*
X77860000Y-70240000D02*
X77030000Y-70240000D01*
X155900000Y-107950000D02*
X155900000Y-120650000D01*
X148900000Y-120650000D02*
X148900000Y-107950000D01*
X148900000Y-107950000D02*
X155900000Y-107950000D01*
X155900000Y-120650000D02*
X148900000Y-120650000D01*
X206050000Y-120650000D02*
X206050000Y-107950000D01*
X206050000Y-107950000D02*
X213050000Y-107950000D01*
X213050000Y-107950000D02*
X213050000Y-120650000D01*
X213050000Y-120650000D02*
X206050000Y-120650000D01*
X111450000Y-107950000D02*
X111450000Y-120650000D01*
X111450000Y-120650000D02*
X104450000Y-120650000D01*
X104450000Y-107950000D02*
X111450000Y-107950000D01*
X104450000Y-120650000D02*
X104450000Y-107950000D01*
X125520000Y-58650000D02*
X115780000Y-58650000D01*
X122310000Y-70240000D02*
X121480000Y-70240000D01*
X125520000Y-61710000D02*
X125520000Y-58650000D01*
X125520000Y-70240000D02*
X125520000Y-65520000D01*
X119860000Y-70240000D02*
X119330000Y-70240000D01*
X116960000Y-70240000D02*
X115780000Y-70240000D01*
X125520000Y-70240000D02*
X124030000Y-70240000D01*
X115770000Y-70240000D02*
X115770000Y-65520000D01*
X115780000Y-61710000D02*
X115780000Y-58650000D01*
X85400000Y-107950000D02*
X92400000Y-107950000D01*
X92400000Y-107950000D02*
X92400000Y-120650000D01*
X85400000Y-120650000D02*
X85400000Y-107950000D01*
X92400000Y-120650000D02*
X85400000Y-120650000D01*
X130500000Y-107950000D02*
X130500000Y-120650000D01*
X123500000Y-120650000D02*
X123500000Y-107950000D01*
X123500000Y-107950000D02*
X130500000Y-107950000D01*
X130500000Y-120650000D02*
X123500000Y-120650000D01*
X238450000Y-69850000D02*
X231450000Y-69850000D01*
X238450000Y-57150000D02*
X238450000Y-69850000D01*
X231450000Y-69850000D02*
X231450000Y-57150000D01*
X231450000Y-57150000D02*
X238450000Y-57150000D01*
X239820000Y-121050000D02*
X238330000Y-121050000D01*
X239820000Y-109460000D02*
X230080000Y-109460000D01*
X239820000Y-121050000D02*
X239820000Y-116330000D01*
X230070000Y-121050000D02*
X230070000Y-116330000D01*
X236610000Y-121050000D02*
X235780000Y-121050000D01*
X231260000Y-121050000D02*
X230080000Y-121050000D01*
X239820000Y-112520000D02*
X239820000Y-109460000D01*
X230080000Y-112520000D02*
X230080000Y-109460000D01*
X234160000Y-121050000D02*
X233630000Y-121050000D01*
%LPC*%
D12*
X69850000Y-119000000D03*
X69850000Y-114300000D03*
X69850000Y-109600000D03*
D13*
X160300000Y-63620000D03*
X169900000Y-63620000D03*
D14*
X162600000Y-71120000D03*
D15*
X165100000Y-71120000D03*
X167600000Y-71120000D03*
D13*
X204750000Y-63620000D03*
X214350000Y-63620000D03*
D14*
X207050000Y-71120000D03*
D15*
X209550000Y-71120000D03*
X212050000Y-71120000D03*
D13*
X81000000Y-63620000D03*
X71400000Y-63620000D03*
D14*
X73700000Y-71120000D03*
D15*
X76200000Y-71120000D03*
X78700000Y-71120000D03*
D12*
X152400000Y-119000000D03*
X152400000Y-114300000D03*
X152400000Y-109600000D03*
X209550000Y-119000000D03*
X209550000Y-114300000D03*
X209550000Y-109600000D03*
X107950000Y-119000000D03*
X107950000Y-114300000D03*
X107950000Y-109600000D03*
D13*
X125450000Y-63620000D03*
X115850000Y-63620000D03*
D14*
X118150000Y-71120000D03*
D15*
X120650000Y-71120000D03*
X123150000Y-71120000D03*
D12*
X88900000Y-119000000D03*
X88900000Y-114300000D03*
X88900000Y-109600000D03*
X127000000Y-119000000D03*
X127000000Y-114300000D03*
X127000000Y-109600000D03*
X234950000Y-68200000D03*
X234950000Y-63500000D03*
X234950000Y-58800000D03*
D13*
X230150000Y-114430000D03*
X239750000Y-114430000D03*
D14*
X232450000Y-121930000D03*
D15*
X234950000Y-121930000D03*
X237450000Y-121930000D03*
G36*
G01*
X142005000Y-128841000D02*
X142005000Y-127151000D01*
G75*
G02*
X142255000Y-126901000I250000J0D01*
G01*
X143495000Y-126901000D01*
G75*
G02*
X143745000Y-127151000I0J-250000D01*
G01*
X143745000Y-128841000D01*
G75*
G02*
X143495000Y-129091000I-250000J0D01*
G01*
X142255000Y-129091000D01*
G75*
G02*
X142005000Y-128841000I0J250000D01*
G01*
G37*
D16*
X145415000Y-127996000D03*
X147955000Y-127996000D03*
D17*
X61214000Y-122682000D03*
X240030000Y-58420000D03*
G36*
G01*
X57575000Y-99206000D02*
X59265000Y-99206000D01*
G75*
G02*
X59515000Y-99456000I0J-250000D01*
G01*
X59515000Y-100696000D01*
G75*
G02*
X59265000Y-100946000I-250000J0D01*
G01*
X57575000Y-100946000D01*
G75*
G02*
X57325000Y-100696000I0J250000D01*
G01*
X57325000Y-99456000D01*
G75*
G02*
X57575000Y-99206000I250000J0D01*
G01*
G37*
D18*
X58420000Y-102616000D03*
X58420000Y-105156000D03*
X58420000Y-107696000D03*
D19*
X160234000Y-97917000D03*
X155234000Y-97917000D03*
D20*
X198120000Y-115062000D03*
D19*
X195620000Y-115062000D03*
D17*
X175260000Y-77216000D03*
X237490000Y-101854000D03*
X236728000Y-126492000D03*
G36*
G01*
X228200000Y-60115000D02*
X228200000Y-61805000D01*
G75*
G02*
X227950000Y-62055000I-250000J0D01*
G01*
X226710000Y-62055000D01*
G75*
G02*
X226460000Y-61805000I0J250000D01*
G01*
X226460000Y-60115000D01*
G75*
G02*
X226710000Y-59865000I250000J0D01*
G01*
X227950000Y-59865000D01*
G75*
G02*
X228200000Y-60115000I0J-250000D01*
G01*
G37*
D16*
X224790000Y-60960000D03*
X222250000Y-60960000D03*
X219710000Y-60960000D03*
D19*
X181229000Y-97917000D03*
X176229000Y-97917000D03*
D20*
X205144380Y-115062000D03*
D19*
X202644380Y-115062000D03*
D17*
X131826000Y-58928000D03*
D21*
X208026000Y-93980000D03*
X200406000Y-93980000D03*
G36*
G01*
X118510000Y-128861000D02*
X118510000Y-127171000D01*
G75*
G02*
X118760000Y-126921000I250000J0D01*
G01*
X120000000Y-126921000D01*
G75*
G02*
X120250000Y-127171000I0J-250000D01*
G01*
X120250000Y-128861000D01*
G75*
G02*
X120000000Y-129111000I-250000J0D01*
G01*
X118760000Y-129111000D01*
G75*
G02*
X118510000Y-128861000I0J250000D01*
G01*
G37*
D16*
X121920000Y-128016000D03*
X124460000Y-128016000D03*
G36*
G01*
X57575000Y-67202000D02*
X59265000Y-67202000D01*
G75*
G02*
X59515000Y-67452000I0J-250000D01*
G01*
X59515000Y-68692000D01*
G75*
G02*
X59265000Y-68942000I-250000J0D01*
G01*
X57575000Y-68942000D01*
G75*
G02*
X57325000Y-68692000I0J250000D01*
G01*
X57325000Y-67452000D01*
G75*
G02*
X57575000Y-67202000I250000J0D01*
G01*
G37*
D18*
X58420000Y-70612000D03*
D22*
X237998000Y-76200000D03*
X237998000Y-78740000D03*
X237998000Y-81280000D03*
D17*
X240030000Y-67945000D03*
X89916000Y-66040000D03*
G36*
G01*
X57595000Y-84220000D02*
X59285000Y-84220000D01*
G75*
G02*
X59535000Y-84470000I0J-250000D01*
G01*
X59535000Y-85710000D01*
G75*
G02*
X59285000Y-85960000I-250000J0D01*
G01*
X57595000Y-85960000D01*
G75*
G02*
X57345000Y-85710000I0J250000D01*
G01*
X57345000Y-84470000D01*
G75*
G02*
X57595000Y-84220000I250000J0D01*
G01*
G37*
D18*
X58440000Y-87630000D03*
X58440000Y-90170000D03*
D17*
X89662000Y-87122000D03*
X89662000Y-98298000D03*
X139192000Y-71374000D03*
G36*
G01*
X191170000Y-124880000D02*
X192370000Y-124880000D01*
G75*
G02*
X192620000Y-125130000I0J-250000D01*
G01*
X192620000Y-126330000D01*
G75*
G02*
X192370000Y-126580000I-250000J0D01*
G01*
X191170000Y-126580000D01*
G75*
G02*
X190920000Y-126330000I0J250000D01*
G01*
X190920000Y-125130000D01*
G75*
G02*
X191170000Y-124880000I250000J0D01*
G01*
G37*
D23*
X191770000Y-128270000D03*
X194310000Y-125730000D03*
X194310000Y-128270000D03*
X196850000Y-125730000D03*
X196850000Y-128270000D03*
X199390000Y-125730000D03*
X199390000Y-128270000D03*
X201930000Y-125730000D03*
X201930000Y-128270000D03*
D17*
X200406000Y-106934000D03*
X206756000Y-101346000D03*
D22*
X174752000Y-60950000D03*
X174752000Y-63490000D03*
X174752000Y-66030000D03*
D17*
X61214000Y-112776000D03*
G36*
G01*
X155810000Y-60135000D02*
X155810000Y-61825000D01*
G75*
G02*
X155560000Y-62075000I-250000J0D01*
G01*
X154320000Y-62075000D01*
G75*
G02*
X154070000Y-61825000I0J250000D01*
G01*
X154070000Y-60135000D01*
G75*
G02*
X154320000Y-59885000I250000J0D01*
G01*
X155560000Y-59885000D01*
G75*
G02*
X155810000Y-60135000I0J-250000D01*
G01*
G37*
D16*
X152400000Y-60980000D03*
X149860000Y-60980000D03*
X147320000Y-60980000D03*
X144780000Y-60980000D03*
D17*
X209550000Y-56642000D03*
M02*
