M48
; DRILL file {KiCad 6.0.5+dfsg-1~bpo11+1} date Fri Jul 22 17:40:23 2022
; FORMAT={-:-/ absolute / metric / decimal}
; #@! TF.CreationDate,2022-07-22T17:40:23+00:00
; #@! TF.GenerationSoftware,Kicad,Pcbnew,6.0.5+dfsg-1~bpo11+1
; #@! TF.FileFunction,Plated,1,2,PTH
FMAT,2
METRIC
; #@! TA.AperFunction,Plated,PTH,ViaDrill
T1C0.400
; #@! TA.AperFunction,Plated,PTH,ViaDrill
T2C0.500
; #@! TA.AperFunction,Plated,PTH,ComponentDrill
T3C0.800
; #@! TA.AperFunction,Plated,PTH,ComponentDrill
T4C1.000
; #@! TA.AperFunction,Plated,PTH,ComponentDrill
T5C1.100
; #@! TA.AperFunction,Plated,PTH,ComponentDrill
T6C1.190
; #@! TA.AperFunction,Plated,PTH,ComponentDrill
T7C1.300
; #@! TA.AperFunction,Plated,PTH,ComponentDrill
T8C1.850
%
G90
G05
T1
X58.42Y-73.152
X66.675Y-76.2
X67.056Y-56.896
X68.58Y-95.25
X68.834Y-55.88
X70.612Y-83.312
X71.882Y-82.804
X73.406Y-56.896
X73.406Y-86.36
X73.66Y-76.2
X73.66Y-84.836
X75.184Y-90.932
X78.74Y-74.168
X78.74Y-93.345
X84.455Y-67.945
X84.455Y-75.565
X85.725Y-85.725
X85.725Y-95.25
X93.218Y-97.028
X93.726Y-72.39
X93.98Y-84.836
X94.996Y-68.58
X97.028Y-75.438
X97.282Y-68.58
X97.536Y-70.612
X97.536Y-84.836
X97.536Y-93.726
X97.536Y-101.6
X97.663Y-83.185
X97.79Y-72.39
X97.79Y-86.868
X97.79Y-96.52
X98.044Y-67.31
X99.568Y-90.932
X101.6Y-103.378
X105.156Y-90.932
X105.41Y-61.722
X105.41Y-76.835
X106.264Y-83.139
X106.404Y-94.501
X106.426Y-97.79
X106.68Y-69.342
X106.934Y-80.01
X107.442Y-87.63
X107.807Y-82.127
X109.664Y-81.28
X111.252Y-79.248
X112.395Y-65.405
X112.395Y-70.485
X113.284Y-90.17
X117.475Y-77.47
X117.475Y-85.725
X117.475Y-99.695
X121.92Y-88.9
X122.555Y-104.775
X122.936Y-82.296
X127.254Y-91.694
X127.508Y-97.028
X128.27Y-81.28
X129.794Y-91.694
X131.572Y-103.378
X132.037Y-81.831
X134.62Y-65.405
X134.62Y-70.485
X134.62Y-114.046
X135.128Y-74.168
X135.636Y-90.17
X137.414Y-77.216
X138.684Y-99.568
X138.684Y-105.918
X139.446Y-121.539
X141.478Y-112.268
X141.478Y-116.332
X142.748Y-81.788
X143.51Y-78.486
X146.177Y-121.412
X147.32Y-74.168
X147.955Y-77.47
X147.955Y-81.915
X147.955Y-85.725
X147.955Y-92.71
X147.955Y-99.695
X147.955Y-106.045
X151.13Y-123.825
X151.384Y-87.122
X153.162Y-83.312
X155.575Y-128.27
X157.861Y-115.189
X157.988Y-87.63
X159.131Y-58.293
X159.512Y-116.586
X159.766Y-112.776
X160.02Y-120.65
X161.29Y-93.726
X162.814Y-99.822
X163.322Y-81.28
X163.322Y-85.598
X164.846Y-103.378
X167.64Y-110.744
X168.148Y-125.222
X170.434Y-102.616
X170.942Y-110.236
X171.757Y-75.917
X172.212Y-99.568
X172.72Y-96.266
X173.228Y-85.344
X173.482Y-87.63
X173.482Y-95.25
X175.895Y-107.95
X176.276Y-122.428
X177.8Y-90.932
X177.906Y-75.574
X178.054Y-60.706
X178.308Y-87.122
X182.245Y-71.12
X182.88Y-120.65
X183.642Y-94.996
X183.642Y-115.062
X184.15Y-100.33
X184.404Y-81.534
X184.404Y-85.598
X184.658Y-66.802
X186.675Y-103.465
X189.865Y-111.76
X191.516Y-102.616
X193.548Y-84.582
X193.675Y-70.485
X193.802Y-75.692
X194.056Y-96.266
X194.31Y-66.548
X194.31Y-99.568
X195.326Y-101.6
X196.088Y-75.692
X196.088Y-87.122
X197.612Y-85.598
X200.66Y-69.342
X201.168Y-65.532
X209.296Y-104.648
X209.55Y-74.168
X210.566Y-76.962
X212.344Y-105.41
X212.598Y-77.978
X212.598Y-93.98
X212.598Y-104.394
X213.36Y-80.518
X216.916Y-115.57
X217.219Y-65.273
X218.44Y-96.52
X218.694Y-126.746
X218.948Y-100.33
X219.428Y-81.506
X219.71Y-77.724
X220.345Y-85.725
X223.099Y-102.736
X225.011Y-101.887
X227.33Y-115.443
X228.854Y-84.074
X229.362Y-100.33
X229.362Y-126.492
X229.489Y-106.045
X229.616Y-93.98
X236.22Y-93.98
X236.474Y-108.458
X239.395Y-132.334
T2
X77.47Y-108.712
X77.724Y-106.68
X78.359Y-116.205
X78.769Y-105.823
X83.82Y-112.268
X83.82Y-116.332
X96.44Y-108.721
X96.52Y-107.021
X96.901Y-116.205
X97.521Y-105.735
X103.124Y-112.268
X103.124Y-116.332
X115.494Y-108.958
X115.57Y-107.259
X116.205Y-116.205
X116.84Y-106.759
X119.634Y-118.11
X122.428Y-112.268
X212.499Y-88.773
X229.263Y-88.773
T3
X155.234Y-97.917
X160.234Y-97.917
X174.752Y-60.95
X174.752Y-63.49
X174.752Y-66.03
X176.229Y-97.917
X181.229Y-97.917
X195.62Y-115.062
X198.12Y-115.062
X202.644Y-115.062
X205.144Y-115.062
X237.998Y-76.2
X237.998Y-78.74
X237.998Y-81.28
T4
X61.214Y-112.776
X61.214Y-122.682
X73.7Y-71.12
X76.2Y-71.12
X78.7Y-71.12
X89.662Y-87.122
X89.662Y-98.298
X89.916Y-66.04
X118.15Y-71.12
X120.65Y-71.12
X123.15Y-71.12
X131.826Y-58.928
X139.192Y-71.374
X162.6Y-71.12
X165.1Y-71.12
X167.6Y-71.12
X175.26Y-77.216
X191.77Y-125.73
X191.77Y-128.27
X194.31Y-125.73
X194.31Y-128.27
X196.85Y-125.73
X196.85Y-128.27
X199.39Y-125.73
X199.39Y-128.27
X200.406Y-106.934
X201.93Y-125.73
X201.93Y-128.27
X206.756Y-101.346
X207.05Y-71.12
X209.55Y-56.642
X209.55Y-71.12
X212.05Y-71.12
X232.45Y-121.93
X234.95Y-121.93
X236.728Y-126.492
X237.45Y-121.93
X237.49Y-101.854
X240.03Y-58.42
X240.03Y-67.945
T6
X58.42Y-68.072
X58.42Y-70.612
X58.42Y-100.076
X58.42Y-102.616
X58.42Y-105.156
X58.42Y-107.696
X58.44Y-85.09
X58.44Y-87.63
X58.44Y-90.17
X119.38Y-128.016
X121.92Y-128.016
X124.46Y-128.016
X142.875Y-127.996
X144.78Y-60.98
X145.415Y-127.996
X147.32Y-60.98
X147.955Y-127.996
X149.86Y-60.98
X152.4Y-60.98
X154.94Y-60.98
X219.71Y-60.96
X222.25Y-60.96
X224.79Y-60.96
X227.33Y-60.96
T7
X200.406Y-93.98
X208.026Y-93.98
T8
X69.85Y-109.6
X69.85Y-114.3
X69.85Y-119.0
X88.9Y-109.6
X88.9Y-114.3
X88.9Y-119.0
X107.95Y-109.6
X107.95Y-114.3
X107.95Y-119.0
X127.0Y-109.6
X127.0Y-114.3
X127.0Y-119.0
X152.4Y-109.6
X152.4Y-114.3
X152.4Y-119.0
X209.55Y-109.6
X209.55Y-114.3
X209.55Y-119.0
X234.95Y-58.8
X234.95Y-63.5
X234.95Y-68.2
T5
X71.4Y-63.97G85X71.4Y-63.27
G05
X81.0Y-63.97G85X81.0Y-63.27
G05
X115.85Y-63.97G85X115.85Y-63.27
G05
X125.45Y-63.97G85X125.45Y-63.27
G05
X160.3Y-63.97G85X160.3Y-63.27
G05
X169.9Y-63.97G85X169.9Y-63.27
G05
X204.75Y-63.97G85X204.75Y-63.27
G05
X214.35Y-63.97G85X214.35Y-63.27
G05
X230.15Y-114.78G85X230.15Y-114.08
G05
X239.75Y-114.78G85X239.75Y-114.08
G05
T0
M30
