G04 #@! TF.GenerationSoftware,KiCad,Pcbnew,6.0.5+dfsg-1~bpo11+1*
G04 #@! TF.CreationDate,2022-08-10T11:57:28+00:00*
G04 #@! TF.ProjectId,s_and_h_pcb_panel,735f616e-645f-4685-9f70-63625f70616e,0*
G04 #@! TF.SameCoordinates,Original*
G04 #@! TF.FileFunction,Legend,Top*
G04 #@! TF.FilePolarity,Positive*
%FSLAX46Y46*%
G04 Gerber Fmt 4.6, Leading zero omitted, Abs format (unit mm)*
G04 Created by KiCad (PCBNEW 6.0.5+dfsg-1~bpo11+1) date 2022-08-10 11:57:28*
%MOMM*%
%LPD*%
G01*
G04 APERTURE LIST*
%ADD10C,0.500000*%
%ADD11C,1.270000*%
%ADD12C,0.400000*%
%ADD13C,0.350000*%
%ADD14C,0.150000*%
%ADD15C,2.000000*%
G04 APERTURE END LIST*
D10*
X60325000Y-44450000D02*
X60325000Y-30480000D01*
X60325000Y-44450000D02*
X67310000Y-32351625D01*
X60325000Y-133350000D02*
X72423375Y-140335000D01*
X60325000Y-133350000D02*
X46355000Y-133350000D01*
X60325000Y-133350000D02*
X72423375Y-126365000D01*
X60325000Y-177800000D02*
X72423375Y-170815000D01*
X60325000Y-177800000D02*
X72423375Y-184785000D01*
X60325000Y-88900000D02*
X48226625Y-81915000D01*
X60325000Y-88900000D02*
X72423375Y-81915000D01*
X60325000Y-177800000D02*
X60325000Y-163830000D01*
D11*
X40005000Y-20955000D02*
X80645000Y-20955000D01*
D10*
X60325000Y-44450000D02*
X74295000Y-44450000D01*
X60325000Y-88900000D02*
X60325000Y-74930000D01*
X60325000Y-133350000D02*
X74295000Y-133350000D01*
X38735000Y-78740000D02*
X38734998Y-205105002D01*
X60325000Y-44450000D02*
X53340000Y-56548375D01*
X60325000Y-88900000D02*
X53340000Y-100998375D01*
X60325000Y-177800000D02*
X46355000Y-177800000D01*
X60325000Y-88900000D02*
X48226625Y-95885000D01*
X60325000Y-177800000D02*
X67310000Y-165701625D01*
X60325000Y-88900000D02*
X53340000Y-76801625D01*
D11*
X80645002Y-259715002D02*
G75*
G03*
X85090002Y-255269998I-2J4445002D01*
G01*
D10*
X60325000Y-177800000D02*
X53340000Y-165701625D01*
X60325000Y-133350000D02*
X67310000Y-121251625D01*
X43814998Y-210185002D02*
X76835000Y-210185000D01*
X60325000Y-44450000D02*
X67310000Y-56548375D01*
X60325000Y-177800000D02*
X67310000Y-189898375D01*
X60325000Y-177800000D02*
X53340000Y-189898375D01*
X60325000Y-44450000D02*
X48226625Y-37465000D01*
X60325000Y-133350000D02*
X48226625Y-126365000D01*
X60325000Y-88900000D02*
X67310000Y-100998375D01*
X76835000Y-210185000D02*
G75*
G03*
X81915000Y-205105000I0J5080000D01*
G01*
X60325000Y-177800000D02*
X74295000Y-177800000D01*
D11*
X35560000Y-255270000D02*
X35560000Y-25400000D01*
X40005000Y-259715000D02*
X80645000Y-259715000D01*
D10*
X60325000Y-44450000D02*
X53340000Y-32351625D01*
X60325000Y-44450000D02*
X72423375Y-37465000D01*
X60325000Y-44450000D02*
X46355000Y-44450000D01*
X81915000Y-205105000D02*
X81915002Y-78739998D01*
X43815000Y-73660000D02*
G75*
G03*
X38735000Y-78740000I0J-5080000D01*
G01*
D11*
X85090000Y-25400000D02*
G75*
G03*
X80645000Y-20955000I-4445000J0D01*
G01*
D10*
X60325000Y-88900000D02*
X67310000Y-76801625D01*
X60325000Y-133350000D02*
X48226625Y-140335000D01*
X60325000Y-133350000D02*
X67310000Y-145448375D01*
X60325000Y-133350000D02*
X53340000Y-145448375D01*
X60325000Y-88900000D02*
X74295000Y-88900000D01*
X60325000Y-88900000D02*
X46355000Y-88900000D01*
X60325000Y-133350000D02*
X60325000Y-119380000D01*
X43815000Y-73660000D02*
X76835002Y-73659998D01*
X38734998Y-205105002D02*
G75*
G03*
X43814998Y-210185002I5080002J2D01*
G01*
D11*
X40005000Y-20955000D02*
G75*
G03*
X35560000Y-25400000I0J-4445000D01*
G01*
D10*
X60325000Y-44450000D02*
X72423375Y-51435000D01*
X60325000Y-88900000D02*
X72423375Y-95885000D01*
X60325000Y-133350000D02*
X53340000Y-121251625D01*
X60325000Y-177800000D02*
X48226625Y-170815000D01*
X60325000Y-177800000D02*
X48226625Y-184785000D01*
D11*
X85090000Y-255270000D02*
X85090000Y-25400000D01*
D10*
X81915002Y-78739998D02*
G75*
G03*
X76835002Y-73659998I-5080002J-2D01*
G01*
X60325000Y-44450000D02*
X48226625Y-51435000D01*
D11*
X35560000Y-255270000D02*
G75*
G03*
X40005000Y-259715000I4445000J0D01*
G01*
D12*
X56932142Y-102770952D02*
X57765476Y-105270952D01*
X58598809Y-102770952D01*
X60860714Y-105032857D02*
X60741666Y-105151904D01*
X60384523Y-105270952D01*
X60146428Y-105270952D01*
X59789285Y-105151904D01*
X59551190Y-104913809D01*
X59432142Y-104675714D01*
X59313095Y-104199523D01*
X59313095Y-103842380D01*
X59432142Y-103366190D01*
X59551190Y-103128095D01*
X59789285Y-102890000D01*
X60146428Y-102770952D01*
X60384523Y-102770952D01*
X60741666Y-102890000D01*
X60860714Y-103009047D01*
X62408333Y-102770952D02*
X62884523Y-102770952D01*
X63122619Y-102890000D01*
X63360714Y-103128095D01*
X63479761Y-103604285D01*
X63479761Y-104437619D01*
X63360714Y-104913809D01*
X63122619Y-105151904D01*
X62884523Y-105270952D01*
X62408333Y-105270952D01*
X62170238Y-105151904D01*
X61932142Y-104913809D01*
X61813095Y-104437619D01*
X61813095Y-103604285D01*
X61932142Y-103128095D01*
X62170238Y-102890000D01*
X62408333Y-102770952D01*
X56991666Y-58440000D02*
X56753571Y-58320952D01*
X56396428Y-58320952D01*
X56039285Y-58440000D01*
X55801190Y-58678095D01*
X55682142Y-58916190D01*
X55563095Y-59392380D01*
X55563095Y-59749523D01*
X55682142Y-60225714D01*
X55801190Y-60463809D01*
X56039285Y-60701904D01*
X56396428Y-60820952D01*
X56634523Y-60820952D01*
X56991666Y-60701904D01*
X57110714Y-60582857D01*
X57110714Y-59749523D01*
X56634523Y-59749523D01*
X59372619Y-60820952D02*
X58182142Y-60820952D01*
X58182142Y-58320952D01*
X60205952Y-60820952D02*
X60205952Y-58320952D01*
X61396428Y-60820952D02*
X61396428Y-58320952D01*
X61991666Y-58320952D01*
X62348809Y-58440000D01*
X62586904Y-58678095D01*
X62705952Y-58916190D01*
X62825000Y-59392380D01*
X62825000Y-59749523D01*
X62705952Y-60225714D01*
X62586904Y-60463809D01*
X62348809Y-60701904D01*
X61991666Y-60820952D01*
X61396428Y-60820952D01*
X63896428Y-59511428D02*
X64729761Y-59511428D01*
X65086904Y-60820952D02*
X63896428Y-60820952D01*
X63896428Y-58320952D01*
X65086904Y-58320952D01*
D13*
X47467500Y-227006666D02*
X47884166Y-228756666D01*
X48217500Y-227506666D01*
X48550833Y-228756666D01*
X48967500Y-227006666D01*
X49634166Y-228756666D02*
X49634166Y-227006666D01*
X49634166Y-227840000D02*
X50634166Y-227840000D01*
X50634166Y-228756666D02*
X50634166Y-227006666D01*
X51467500Y-228756666D02*
X51467500Y-227006666D01*
X52050833Y-227006666D02*
X53050833Y-227006666D01*
X52550833Y-228756666D02*
X52550833Y-227006666D01*
X53634166Y-227840000D02*
X54217500Y-227840000D01*
X54467500Y-228756666D02*
X53634166Y-228756666D01*
X53634166Y-227006666D01*
X54467500Y-227006666D01*
D12*
X55384523Y-194170952D02*
X55384523Y-191670952D01*
X56813095Y-194170952D01*
X56813095Y-191670952D01*
X58479761Y-191670952D02*
X58955952Y-191670952D01*
X59194047Y-191790000D01*
X59432142Y-192028095D01*
X59551190Y-192504285D01*
X59551190Y-193337619D01*
X59432142Y-193813809D01*
X59194047Y-194051904D01*
X58955952Y-194170952D01*
X58479761Y-194170952D01*
X58241666Y-194051904D01*
X58003571Y-193813809D01*
X57884523Y-193337619D01*
X57884523Y-192504285D01*
X58003571Y-192028095D01*
X58241666Y-191790000D01*
X58479761Y-191670952D01*
X60622619Y-194170952D02*
X60622619Y-191670952D01*
X61694047Y-194051904D02*
X62051190Y-194170952D01*
X62646428Y-194170952D01*
X62884523Y-194051904D01*
X63003571Y-193932857D01*
X63122619Y-193694761D01*
X63122619Y-193456666D01*
X63003571Y-193218571D01*
X62884523Y-193099523D01*
X62646428Y-192980476D01*
X62170238Y-192861428D01*
X61932142Y-192742380D01*
X61813095Y-192623333D01*
X61694047Y-192385238D01*
X61694047Y-192147142D01*
X61813095Y-191909047D01*
X61932142Y-191790000D01*
X62170238Y-191670952D01*
X62765476Y-191670952D01*
X63122619Y-191790000D01*
X64194047Y-192861428D02*
X65027380Y-192861428D01*
X65384523Y-194170952D02*
X64194047Y-194170952D01*
X64194047Y-191670952D01*
X65384523Y-191670952D01*
X49658333Y-239029761D02*
X49658333Y-237029761D01*
X50801190Y-239029761D01*
X50801190Y-237029761D01*
X52134523Y-237029761D02*
X52515476Y-237029761D01*
X52705952Y-237125000D01*
X52896428Y-237315476D01*
X52991666Y-237696428D01*
X52991666Y-238363095D01*
X52896428Y-238744047D01*
X52705952Y-238934523D01*
X52515476Y-239029761D01*
X52134523Y-239029761D01*
X51944047Y-238934523D01*
X51753571Y-238744047D01*
X51658333Y-238363095D01*
X51658333Y-237696428D01*
X51753571Y-237315476D01*
X51944047Y-237125000D01*
X52134523Y-237029761D01*
X53848809Y-239029761D02*
X53848809Y-237029761D01*
X54705952Y-238934523D02*
X54991666Y-239029761D01*
X55467857Y-239029761D01*
X55658333Y-238934523D01*
X55753571Y-238839285D01*
X55848809Y-238648809D01*
X55848809Y-238458333D01*
X55753571Y-238267857D01*
X55658333Y-238172619D01*
X55467857Y-238077380D01*
X55086904Y-237982142D01*
X54896428Y-237886904D01*
X54801190Y-237791666D01*
X54705952Y-237601190D01*
X54705952Y-237410714D01*
X54801190Y-237220238D01*
X54896428Y-237125000D01*
X55086904Y-237029761D01*
X55563095Y-237029761D01*
X55848809Y-237125000D01*
X56705952Y-237982142D02*
X57372619Y-237982142D01*
X57658333Y-239029761D02*
X56705952Y-239029761D01*
X56705952Y-237029761D01*
X57658333Y-237029761D01*
X59944047Y-238934523D02*
X60229761Y-239029761D01*
X60705952Y-239029761D01*
X60896428Y-238934523D01*
X60991666Y-238839285D01*
X61086904Y-238648809D01*
X61086904Y-238458333D01*
X60991666Y-238267857D01*
X60896428Y-238172619D01*
X60705952Y-238077380D01*
X60325000Y-237982142D01*
X60134523Y-237886904D01*
X60039285Y-237791666D01*
X59944047Y-237601190D01*
X59944047Y-237410714D01*
X60039285Y-237220238D01*
X60134523Y-237125000D01*
X60325000Y-237029761D01*
X60801190Y-237029761D01*
X61086904Y-237125000D01*
X62325000Y-237029761D02*
X62705952Y-237029761D01*
X62896428Y-237125000D01*
X63086904Y-237315476D01*
X63182142Y-237696428D01*
X63182142Y-238363095D01*
X63086904Y-238744047D01*
X62896428Y-238934523D01*
X62705952Y-239029761D01*
X62325000Y-239029761D01*
X62134523Y-238934523D01*
X61944047Y-238744047D01*
X61848809Y-238363095D01*
X61848809Y-237696428D01*
X61944047Y-237315476D01*
X62134523Y-237125000D01*
X62325000Y-237029761D01*
X64039285Y-237029761D02*
X64039285Y-238648809D01*
X64134523Y-238839285D01*
X64229761Y-238934523D01*
X64420238Y-239029761D01*
X64801190Y-239029761D01*
X64991666Y-238934523D01*
X65086904Y-238839285D01*
X65182142Y-238648809D01*
X65182142Y-237029761D01*
X67277380Y-239029761D02*
X66610714Y-238077380D01*
X66134523Y-239029761D02*
X66134523Y-237029761D01*
X66896428Y-237029761D01*
X67086904Y-237125000D01*
X67182142Y-237220238D01*
X67277380Y-237410714D01*
X67277380Y-237696428D01*
X67182142Y-237886904D01*
X67086904Y-237982142D01*
X66896428Y-238077380D01*
X66134523Y-238077380D01*
X69277380Y-238839285D02*
X69182142Y-238934523D01*
X68896428Y-239029761D01*
X68705952Y-239029761D01*
X68420238Y-238934523D01*
X68229761Y-238744047D01*
X68134523Y-238553571D01*
X68039285Y-238172619D01*
X68039285Y-237886904D01*
X68134523Y-237505952D01*
X68229761Y-237315476D01*
X68420238Y-237125000D01*
X68705952Y-237029761D01*
X68896428Y-237029761D01*
X69182142Y-237125000D01*
X69277380Y-237220238D01*
X70134523Y-237982142D02*
X70801190Y-237982142D01*
X71086904Y-239029761D02*
X70134523Y-239029761D01*
X70134523Y-237029761D01*
X71086904Y-237029761D01*
D13*
X47634166Y-232566666D02*
X47634166Y-230816666D01*
X48300833Y-230816666D01*
X48467500Y-230900000D01*
X48550833Y-230983333D01*
X48634166Y-231150000D01*
X48634166Y-231400000D01*
X48550833Y-231566666D01*
X48467500Y-231650000D01*
X48300833Y-231733333D01*
X47634166Y-231733333D01*
X49384166Y-232566666D02*
X49384166Y-230816666D01*
X50217500Y-232566666D02*
X50217500Y-230816666D01*
X51217500Y-232566666D01*
X51217500Y-230816666D01*
X52050833Y-232566666D02*
X52050833Y-230816666D01*
X53050833Y-232566666D02*
X52300833Y-231566666D01*
X53050833Y-230816666D02*
X52050833Y-231816666D01*
D12*
X52467857Y-149720952D02*
X52467857Y-147220952D01*
X53420238Y-147220952D01*
X53658333Y-147340000D01*
X53777380Y-147459047D01*
X53896428Y-147697142D01*
X53896428Y-148054285D01*
X53777380Y-148292380D01*
X53658333Y-148411428D01*
X53420238Y-148530476D01*
X52467857Y-148530476D01*
X54729761Y-147220952D02*
X55325000Y-149720952D01*
X55801190Y-147935238D01*
X56277380Y-149720952D01*
X56872619Y-147220952D01*
X57825000Y-149720952D02*
X57825000Y-147220952D01*
X58658333Y-149006666D01*
X59491666Y-147220952D01*
X59491666Y-149720952D01*
X63777380Y-149720952D02*
X62586904Y-149720952D01*
X62586904Y-147220952D01*
X65444047Y-148411428D02*
X64610714Y-148411428D01*
X64610714Y-149720952D02*
X64610714Y-147220952D01*
X65801190Y-147220952D01*
X67229761Y-147220952D02*
X67705952Y-147220952D01*
X67944047Y-147340000D01*
X68182142Y-147578095D01*
X68301190Y-148054285D01*
X68301190Y-148887619D01*
X68182142Y-149363809D01*
X67944047Y-149601904D01*
X67705952Y-149720952D01*
X67229761Y-149720952D01*
X66991666Y-149601904D01*
X66753571Y-149363809D01*
X66634523Y-148887619D01*
X66634523Y-148054285D01*
X66753571Y-147578095D01*
X66991666Y-147340000D01*
X67229761Y-147220952D01*
D14*
X61725000Y-51435000D02*
G75*
G03*
X61725000Y-51435000I-1400000J0D01*
G01*
G36*
X54715192Y-22766216D02*
G01*
X55340406Y-22955872D01*
X55916607Y-23263859D01*
X56421652Y-23678338D01*
X56836131Y-24183383D01*
X57144117Y-24759584D01*
X57333774Y-25384798D01*
X57397813Y-26035000D01*
X57333774Y-26685202D01*
X57144117Y-27310416D01*
X56836131Y-27886617D01*
X56421652Y-28391662D01*
X55916607Y-28806141D01*
X55340406Y-29114128D01*
X54715192Y-29303784D01*
X54064990Y-29367824D01*
X40685011Y-29367824D01*
X40034809Y-29303785D01*
X39409594Y-29114128D01*
X38833393Y-28806142D01*
X38393128Y-28444825D01*
X41197641Y-28444825D01*
X41800097Y-28711128D01*
X42269402Y-28819177D01*
X42874041Y-28855194D01*
X43486684Y-28809112D01*
X43985820Y-28670867D01*
X44371451Y-28440459D01*
X44741437Y-27939504D01*
X44855171Y-27318494D01*
X45397372Y-27318494D01*
X45493416Y-27886025D01*
X45785913Y-28361878D01*
X46274863Y-28689300D01*
X46960266Y-28811538D01*
X47580185Y-28676203D01*
X47890144Y-28509218D01*
X48191372Y-28278931D01*
X48400922Y-28741688D01*
X49422479Y-28741688D01*
X49972547Y-28741688D01*
X51046491Y-28741688D01*
X51046491Y-26358056D01*
X52478416Y-26358056D01*
X52478416Y-28741688D01*
X53552360Y-28741688D01*
X53552360Y-23337044D01*
X52478416Y-23337044D01*
X52478416Y-25467469D01*
X51046491Y-25467469D01*
X51046491Y-23337044D01*
X49972547Y-23337044D01*
X49972547Y-28741688D01*
X49422479Y-28741688D01*
X49169272Y-28130500D01*
X48793829Y-27536775D01*
X48960814Y-27176611D01*
X49095057Y-26777156D01*
X49185644Y-26340594D01*
X49221660Y-25869106D01*
X48331072Y-25755600D01*
X48293965Y-26325314D01*
X48200104Y-26812081D01*
X47807197Y-26366788D01*
X47440485Y-25938956D01*
X47909790Y-25630088D01*
X48235029Y-25262284D01*
X48424933Y-24859555D01*
X48488235Y-24445912D01*
X48374729Y-23908941D01*
X48077866Y-23524766D01*
X47658766Y-23293387D01*
X47178547Y-23214806D01*
X46667769Y-23302119D01*
X46218110Y-23564056D01*
X45895054Y-24004984D01*
X45772816Y-24620537D01*
X45908151Y-25275381D01*
X46253035Y-25877837D01*
X45878683Y-26169243D01*
X45611288Y-26519584D01*
X45450851Y-26909216D01*
X45397372Y-27318494D01*
X44855171Y-27318494D01*
X44864766Y-27266106D01*
X44827658Y-26859012D01*
X44716335Y-26528316D01*
X44336526Y-26039366D01*
X43830113Y-25725041D01*
X43301872Y-25511125D01*
X42965719Y-25380156D01*
X42660126Y-25218628D01*
X42437479Y-25009078D01*
X42350166Y-24734044D01*
X42445240Y-24389644D01*
X42730461Y-24183005D01*
X43205829Y-24114125D01*
X43821382Y-24201437D01*
X44305966Y-24410987D01*
X44620291Y-23581519D01*
X43996007Y-23328312D01*
X43593278Y-23243183D01*
X43127247Y-23214806D01*
X42592216Y-23262343D01*
X42139646Y-23404953D01*
X41769538Y-23642637D01*
X41399551Y-24153416D01*
X41276222Y-24830087D01*
X41415922Y-25471834D01*
X41769538Y-25904031D01*
X42245391Y-26192163D01*
X42751804Y-26392981D01*
X43118516Y-26545778D01*
X43450304Y-26729134D01*
X43694779Y-26960513D01*
X43790822Y-27257375D01*
X43751532Y-27514947D01*
X43607466Y-27741959D01*
X43323701Y-27899122D01*
X42874041Y-27955875D01*
X42438570Y-27925316D01*
X42075132Y-27833638D01*
X41511966Y-27571700D01*
X41197641Y-28444825D01*
X38393128Y-28444825D01*
X38328349Y-28391662D01*
X37913869Y-27886618D01*
X37605883Y-27310417D01*
X37416226Y-26685202D01*
X37352187Y-26035000D01*
X37416226Y-25384798D01*
X37605883Y-24759583D01*
X37913869Y-24183382D01*
X38328349Y-23678338D01*
X38833393Y-23263858D01*
X39409594Y-22955872D01*
X40034809Y-22766215D01*
X40685011Y-22702176D01*
X54064990Y-22702176D01*
X54715192Y-22766216D01*
G37*
G36*
X46997374Y-26770608D02*
G01*
X47257129Y-27056556D01*
X47514701Y-27349053D01*
X47763541Y-27650281D01*
X47388097Y-27920950D01*
X46986460Y-27999531D01*
X46466951Y-27781250D01*
X46314154Y-27266106D01*
X46432026Y-26807716D01*
X46741985Y-26489025D01*
X46997374Y-26770608D01*
G37*
G36*
X47462313Y-24109759D02*
G01*
X47571454Y-24454644D01*
X47423022Y-24947959D01*
X46995191Y-25362694D01*
X46776910Y-24956691D01*
X46698329Y-24568150D01*
X46829297Y-24140319D01*
X47178547Y-23991887D01*
X47462313Y-24109759D01*
G37*
G36*
X49903996Y-207764025D02*
G01*
X49672955Y-207331777D01*
X49530680Y-206862761D01*
X49482640Y-206375000D01*
X49530680Y-205887239D01*
X49672955Y-205418223D01*
X49903996Y-204985975D01*
X50214926Y-204607106D01*
X50593794Y-204296176D01*
X51026042Y-204065135D01*
X51495059Y-203922860D01*
X51982819Y-203874820D01*
X68667180Y-203874820D01*
X69154941Y-203922860D01*
X69623957Y-204065135D01*
X70056206Y-204296176D01*
X70435074Y-204607106D01*
X70746004Y-204985974D01*
X70977045Y-205418222D01*
X71119320Y-205887239D01*
X71167360Y-206375000D01*
X71119320Y-206862761D01*
X70977045Y-207331778D01*
X70746004Y-207764026D01*
X70435074Y-208142894D01*
X70056206Y-208453824D01*
X69623957Y-208684865D01*
X69154941Y-208827140D01*
X68667180Y-208875180D01*
X51982819Y-208875180D01*
X51495059Y-208827140D01*
X51026042Y-208684865D01*
X50593794Y-208453824D01*
X50482577Y-208362550D01*
X52495450Y-208362550D01*
X53213000Y-208362550D01*
X53181250Y-205308200D01*
X53644800Y-206971900D01*
X54216300Y-206971900D01*
X54698900Y-205308200D01*
X54660800Y-208362550D01*
X55378350Y-208362550D01*
X55867300Y-208362550D01*
X58362850Y-208362550D01*
X58769250Y-208362550D01*
X59613800Y-208362550D01*
X59759850Y-208018856D01*
X59931300Y-207635475D01*
X60115450Y-207239394D01*
X60299600Y-206857600D01*
X60486131Y-207251300D01*
X60664725Y-207645000D01*
X60825856Y-208021238D01*
X60960000Y-208362550D01*
X61804550Y-208362550D01*
X62274450Y-208362550D01*
X64795400Y-208362550D01*
X65392300Y-208362550D01*
X66173350Y-208362550D01*
X66173350Y-206914750D01*
X66579750Y-206914750D01*
X66794856Y-207274319D01*
X66995675Y-207629125D01*
X67177443Y-207988694D01*
X67335400Y-208362550D01*
X68154550Y-208362550D01*
X67973575Y-207946625D01*
X67754500Y-207508475D01*
X67519550Y-207089375D01*
X67290950Y-206724250D01*
X67568762Y-206544863D01*
X67754500Y-206298800D01*
X67859275Y-206003525D01*
X67894200Y-205676500D01*
X67868006Y-205367731D01*
X67789425Y-205101825D01*
X67487800Y-204698600D01*
X67271900Y-204560487D01*
X67017900Y-204463650D01*
X66728975Y-204406500D01*
X66408300Y-204387450D01*
X66186050Y-204393800D01*
X65919350Y-204409675D01*
X65643125Y-204441425D01*
X65392300Y-204489050D01*
X65392300Y-208362550D01*
X64795400Y-208362550D01*
X64795400Y-207714850D01*
X63055500Y-207714850D01*
X63055500Y-206609950D01*
X64446150Y-206609950D01*
X64446150Y-205962250D01*
X63055500Y-205962250D01*
X63055500Y-205079600D01*
X64655700Y-205079600D01*
X64655700Y-204431900D01*
X62274450Y-204431900D01*
X62274450Y-208362550D01*
X61804550Y-208362550D01*
X61633100Y-207946625D01*
X61516418Y-207692625D01*
X61382275Y-207419575D01*
X61233843Y-207133031D01*
X61074300Y-206838550D01*
X60907612Y-206546450D01*
X60737750Y-206267050D01*
X61741050Y-204431900D01*
X60953650Y-204431900D01*
X60299600Y-205689200D01*
X59677300Y-204431900D01*
X58832750Y-204431900D01*
X59861450Y-206286100D01*
X59705875Y-206564706D01*
X59543950Y-206854425D01*
X59382818Y-207145731D01*
X59229625Y-207429100D01*
X59086750Y-207698975D01*
X58956575Y-207949800D01*
X58769250Y-208362550D01*
X58362850Y-208362550D01*
X58362850Y-207714850D01*
X57511950Y-207714850D01*
X57511950Y-205079600D01*
X58362850Y-205079600D01*
X58362850Y-204431900D01*
X55867300Y-204431900D01*
X55867300Y-205079600D01*
X56724550Y-205079600D01*
X56724550Y-207714850D01*
X55867300Y-207714850D01*
X55867300Y-208362550D01*
X55378350Y-208362550D01*
X55364062Y-207860106D01*
X55346600Y-207368775D01*
X55325168Y-206884588D01*
X55298975Y-206403575D01*
X55267225Y-205921769D01*
X55229125Y-205435200D01*
X55187056Y-204939900D01*
X55143400Y-204431900D01*
X54495700Y-204431900D01*
X54381400Y-204768450D01*
X54241700Y-205203425D01*
X54082950Y-205686025D01*
X53924200Y-206171800D01*
X53778150Y-205714600D01*
X53625750Y-205225650D01*
X53482875Y-204774800D01*
X53371750Y-204431900D01*
X52724050Y-204431900D01*
X52681981Y-204862112D01*
X52644675Y-205327250D01*
X52612131Y-205817787D01*
X52584350Y-206324200D01*
X52559743Y-206840138D01*
X52536725Y-207359250D01*
X52515293Y-207870425D01*
X52495450Y-208362550D01*
X50482577Y-208362550D01*
X50214926Y-208142894D01*
X49903996Y-207764025D01*
G37*
G36*
X66689287Y-205103412D02*
G01*
X66909950Y-205212950D01*
X67052825Y-205400275D01*
X67100450Y-205670150D01*
X66922650Y-206111475D01*
X66689287Y-206228156D01*
X66344800Y-206267050D01*
X66173350Y-206267050D01*
X66173350Y-205085950D01*
X66300350Y-205070075D01*
X66408300Y-205066900D01*
X66689287Y-205103412D01*
G37*
%LPC*%
D15*
X60325000Y-51435000D03*
M02*
