M48
; DRILL file {KiCad 6.0.5+dfsg-1~bpo11+1} date Sat Jul 23 14:57:50 2022
; FORMAT={-:-/ absolute / metric / decimal}
; #@! TF.CreationDate,2022-07-23T14:57:50+00:00
; #@! TF.GenerationSoftware,Kicad,Pcbnew,6.0.5+dfsg-1~bpo11+1
; #@! TF.FileFunction,Plated,1,2,PTH
FMAT,2
METRIC
; #@! TA.AperFunction,Plated,PTH,ViaDrill
T1C0.500
; #@! TA.AperFunction,Plated,PTH,ComponentDrill
T2C0.800
; #@! TA.AperFunction,Plated,PTH,ComponentDrill
T3C0.900
; #@! TA.AperFunction,Plated,PTH,ComponentDrill
T4C1.000
; #@! TA.AperFunction,Plated,PTH,ComponentDrill
T5C1.100
; #@! TA.AperFunction,Plated,PTH,ComponentDrill
T6C1.190
; #@! TA.AperFunction,Plated,PTH,ComponentDrill
T7C1.300
; #@! TA.AperFunction,Plated,PTH,ComponentDrill
T8C1.524
; #@! TA.AperFunction,Plated,PTH,ComponentDrill
T9C1.850
; #@! TA.AperFunction,Plated,PTH,ComponentDrill
T10C2.000
%
G90
G05
T1
X125.222Y-36.322
X125.857Y-38.227
X127.508Y-224.79
X127.762Y-84.074
X128.016Y-112.776
X128.016Y-138.938
X128.016Y-156.464
X128.143Y-178.689
X128.143Y-202.184
X128.778Y-67.564
X128.778Y-80.264
X128.778Y-86.614
X131.318Y-109.474
X131.318Y-115.824
X131.318Y-136.144
X131.318Y-142.494
X131.318Y-152.654
X131.318Y-159.004
X131.572Y-195.326
X132.461Y-197.612
X135.32Y-91.643
X136.754Y-170.434
X136.881Y-83.236
X138.176Y-117.983
X139.446Y-244.856
X140.843Y-44.577
X142.748Y-136.144
X142.748Y-142.494
X142.748Y-152.654
X142.875Y-112.649
X142.875Y-117.094
X143.637Y-158.877
X144.018Y-67.564
X144.729Y-146.964
X145.288Y-178.689
X145.288Y-195.834
X145.288Y-202.184
X145.288Y-221.234
X145.288Y-227.584
X145.542Y-82.931
X145.644Y-91.618
X145.796Y-144.45
X147.066Y-123.698
X147.523Y-134.061
X147.574Y-113.411
X147.777Y-152.933
X147.853Y-160.452
X148.121Y-106.362
X148.234Y-143.383
X148.234Y-148.336
X148.285Y-172.314
X148.336Y-149.606
X148.539Y-142.088
X148.59Y-140.716
X148.615Y-127.533
X148.717Y-147.066
X149.708Y-112.319
X150.495Y-156.362
X150.622Y-138.938
X150.876Y-59.487
X151.181Y-61.925
X151.257Y-70.866
X151.892Y-111.76
X152.019Y-154.711
X152.908Y-94.234
X154.432Y-111.455
X154.61Y-154.813
X155.684Y-63.224
X155.804Y-60.401
X155.829Y-73.787
X155.956Y-68.072
X156.007Y-113.284
X156.058Y-76.454
X156.464Y-64.135
X156.464Y-72.136
X157.099Y-143.307
X157.124Y-128.905
X157.271Y-148.119
X157.351Y-149.818
X157.48Y-68.834
X157.48Y-140.716
X157.504Y-119.253
X157.632Y-170.383
X157.912Y-161.671
X157.964Y-159.131
X157.988Y-117.856
X157.988Y-181.864
X158.115Y-122.936
X158.242Y-134.01
X158.572Y-145.821
X158.699Y-152.883
X158.94Y-68.504
X159.258Y-47.244
X159.766Y-121.285
X159.8Y-93.311
X160.782Y-59.182
X160.782Y-67.31
X160.869Y-69.81
X161.671Y-91.186
X161.747Y-121.031
X162.509Y-118.974
X162.56Y-87.249
X162.738Y-148.565
X162.814Y-108.966
X162.814Y-129.032
X162.966Y-111.176
X163.017Y-41.961
X163.282Y-59.309
X163.551Y-156.591
X163.703Y-104.648
X163.83Y-179.476
X163.862Y-64.639
X164.044Y-77.597
X164.592Y-65.659
X164.998Y-142.037
X165.1Y-144.526
X165.308Y-67.137
X165.354Y-77.724
X165.481Y-76.2
X165.608Y-47.244
X165.633Y-79.502
X165.989Y-74.93
X166.965Y-68.794
X167.03Y-143.205
X167.03Y-154.28
X167.437Y-81.813
X168.17Y-71.723
X168.377Y-161.188
X168.402Y-109.728
X168.707Y-157.963
X168.808Y-80.924
X169.291Y-183.134
X169.621Y-179.121
X169.672Y-175.997
X169.81Y-127.555
X170.282Y-167.767
X170.688Y-92.964
X170.942Y-80.01
X171.196Y-63.246
X171.577Y-76.073
X171.958Y-194.564
X172.974Y-98.552
X174.117Y-132.029
X174.244Y-101.6
X175.717Y-183.109
X175.768Y-108.204
X176.149Y-224.153
X176.403Y-62.103
X176.403Y-72.771
X177.038Y-118.364
X177.038Y-129.794
X177.038Y-137.414
X179.324Y-60.071
X179.324Y-142.494
X180.721Y-189.23
X180.975Y-135.509
X181.254Y-70.764
X181.356Y-67.031
X182.32Y-197.524
X184.019Y-178.663
X184.313Y-86.65
X185.232Y-224.964
X186.607Y-86.796
X187.198Y-65.024
X187.198Y-231.902
X188.468Y-118.364
X188.468Y-129.794
X188.468Y-137.414
X188.849Y-84.328
X189.738Y-185.674
X189.738Y-197.104
X189.738Y-200.914
X190.119Y-160.604
X191.008Y-108.204
X191.198Y-175.909
X191.763Y-220.284
X192.024Y-110.49
X192.405Y-188.214
X193.548Y-84.836
X193.81Y-36.33
X194.564Y-57.404
X194.818Y-116.84
X194.818Y-124.714
X195.326Y-193.04
X198.374Y-230.378
X198.628Y-98.044
X198.628Y-103.124
X198.628Y-145.034
X198.628Y-153.924
X198.806Y-174.574
X199.517Y-222.758
X199.644Y-116.764
X199.72Y-120.675
X199.771Y-128.397
X199.771Y-137.16
X199.898Y-48.514
X199.898Y-135.636
X199.974Y-112.7
X200.059Y-197.143
X200.101Y-132.055
X200.406Y-176.428
X200.533Y-189.357
X200.609Y-206.959
X202.032Y-169.901
X202.438Y-80.264
X204.343Y-75.946
X204.597Y-68.301
X204.978Y-172.974
X204.978Y-217.805
X204.978Y-235.458
X205.232Y-224.536
X205.41Y-117.45
X205.486Y-121.666
X205.486Y-165.608
X205.613Y-131.572
X205.613Y-193.04
X205.74Y-133.731
X205.867Y-207.391
X205.892Y-186.055
X205.967Y-178.141
X206.019Y-211.328
X206.502Y-91.694
X207.01Y-202.819
X208.534Y-76.581
X209.296Y-186.182
X209.55Y-85.09
X209.753Y-73.406
X209.931Y-70.231
X210.083Y-83.16
X211.328Y-137.16
X212.344Y-110.109
X212.598Y-57.404
X212.979Y-182.372
X213.36Y-102.108
X213.868Y-62.484
X214.122Y-202.819
X215.011Y-206.375
X215.138Y-177.927
X215.214Y-162.154
X215.367Y-110.515
X215.392Y-209.042
X215.519Y-192.913
X215.773Y-131.699
X216.408Y-172.974
X216.433Y-218.973
X216.662Y-109.22
X218.313Y-99.949
X218.948Y-48.514
X218.948Y-145.034
X218.948Y-151.384
X219.202Y-104.648
X219.456Y-66.269
X219.532Y-81.661
X219.71Y-107.95
X220.345Y-76.581
X220.802Y-212.319
X220.878Y-161.454
X221.488Y-115.824
X221.488Y-135.255
X222.25Y-101.854
X222.631Y-216.789
X224.688Y-84.176
X225.196Y-64.719
X225.298Y-91.694
X225.512Y-148.73
X225.755Y-160.706
X225.781Y-110.515
X225.781Y-146.558
X226.035Y-165.71
X226.187Y-200.787
X226.314Y-196.723
X226.568Y-135.382
X226.822Y-207.721
X227.37Y-89.891
X227.838Y-82.804
X227.99Y-206.273
X230.124Y-70.358
X230.378Y-115.824
X231.516Y-84.267
X231.527Y-78.592
X231.648Y-62.484
X231.8Y-68.275
X232.045Y-85.344
X233.172Y-112.268
X234.188Y-172.974
X234.188Y-179.324
X234.188Y-193.294
X234.188Y-203.454
X236.601Y-74.549
X236.728Y-68.326
X238.252Y-181.356
X239.84Y-73.431
X239.903Y-51.181
X240.284Y-49.657
X240.538Y-219.964
X240.792Y-133.223
X241.63Y-180.035
X242.189Y-98.933
X243.078Y-48.514
X244.348Y-70.104
X244.348Y-76.112
X244.348Y-81.534
X245.212Y-57.633
X245.618Y-159.004
X245.618Y-162.814
X246.151Y-233.959
X246.888Y-108.204
X246.888Y-113.284
X246.888Y-133.604
X246.888Y-137.414
X247.65Y-100.076
X248.158Y-66.802
X248.158Y-172.974
X248.158Y-183.642
X248.158Y-193.294
X248.158Y-200.914
X248.158Y-219.964
X248.285Y-91.44
X248.844Y-88.138
X248.854Y-60.005
X249.555Y-129.794
X250.698Y-48.641
X251.206Y-110.677
X251.968Y-133.604
X251.968Y-137.414
X252.095Y-54.61
X252.374Y-111.506
X252.603Y-180.086
X253.746Y-108.966
X255.016Y-55.118
X255.118Y-219.964
X255.617Y-135.453
X256.794Y-102.362
X257.048Y-54.102
X257.708Y-88.138
X257.81Y-232.664
X258.064Y-180.34
X258.445Y-77.343
X259.74Y-179.222
X260.35Y-54.864
X260.883Y-225.425
X262.128Y-109.474
X262.128Y-113.284
X262.306Y-224.409
X263.144Y-81.407
X263.169Y-92.507
X263.906Y-178.054
X265.176Y-232.664
X265.557Y-48.514
X265.557Y-52.197
X265.963Y-178.816
X266.116Y-218.491
X266.37Y-223.139
X268.199Y-193.573
X268.224Y-78.105
X268.605Y-85.344
X268.605Y-97.155
X268.656Y-101.041
X269.367Y-90.424
X270.383Y-52.553
X271.145Y-40.259
X271.272Y-222.555
X272.117Y-86.948
X272.136Y-159.893
X272.248Y-92.507
X273.315Y-137.922
X277.266Y-52.629
X283.337Y-233.782
X286.258Y-71.374
X286.258Y-82.804
X286.258Y-87.884
X287.782Y-104.648
X287.782Y-110.236
X287.782Y-166.624
X287.782Y-168.402
X287.782Y-185.42
X291.109Y-85.649
X291.198Y-116.522
X291.328Y-221.244
X291.338Y-68.859
T2
X140.248Y-93.853
X145.248Y-93.853
X150.953Y-84.796
X153.493Y-84.796
X156.033Y-84.796
X161.113Y-84.796
X163.653Y-84.796
X166.193Y-84.796
X166.243Y-119.253
X168.783Y-119.253
X171.283Y-84.796
X171.323Y-119.253
X173.218Y-173.99
X173.823Y-84.796
X175.758Y-173.99
X176.363Y-84.796
X178.298Y-173.99
X187.198Y-166.243
X187.198Y-173.99
X189.738Y-166.243
X189.738Y-173.99
X191.314Y-68.326
X191.324Y-75.946
X192.278Y-166.243
X192.278Y-173.99
X193.854Y-68.326
X193.864Y-75.946
X194.554Y-211.074
X196.394Y-68.326
X196.404Y-75.946
X196.89Y-43.688
X197.094Y-211.074
X199.634Y-211.074
X201.89Y-43.688
X208.661Y-111.76
X208.671Y-119.38
X211.201Y-111.76
X211.211Y-119.38
X213.741Y-111.76
X213.751Y-119.38
X213.868Y-222.386
X216.368Y-222.386
X219.476Y-174.752
X221.528Y-222.386
X221.976Y-174.752
X223.729Y-78.486
X224.028Y-222.386
X226.229Y-78.486
X229.681Y-92.202
X229.997Y-136.779
X230.007Y-128.524
X230.443Y-142.824
X232.537Y-136.779
X232.547Y-128.524
X234.681Y-92.202
X235.077Y-136.779
X235.087Y-128.524
X235.443Y-142.824
X261.453Y-58.674
X261.453Y-65.858
X263.993Y-58.674
X263.993Y-65.858
X266.533Y-58.674
X266.533Y-65.858
X268.453Y-226.949
X273.453Y-226.949
T3
X172.112Y-45.58
X172.112Y-96.38
X172.112Y-147.18
X173.88Y-43.812
X173.88Y-94.612
X173.88Y-145.412
X175.648Y-42.044
X175.648Y-92.844
X175.648Y-143.644
X177.416Y-40.276
X177.416Y-91.076
X177.416Y-141.876
X179.184Y-38.508
X179.184Y-89.308
X179.184Y-140.108
X185.052Y-58.52
X185.052Y-109.32
X185.052Y-160.12
X186.82Y-56.752
X186.82Y-107.552
X186.82Y-158.352
X188.588Y-54.984
X188.588Y-105.784
X188.588Y-156.584
X190.356Y-53.216
X190.356Y-104.016
X190.356Y-154.816
X192.124Y-51.448
X192.124Y-102.248
X192.124Y-153.048
T4
X128.818Y-221.244
X131.318Y-221.244
X133.818Y-221.244
X135.168Y-81.534
X135.168Y-132.344
X137.668Y-81.534
X137.668Y-132.344
X140.168Y-81.534
X140.168Y-132.344
X150.368Y-220.599
X154.218Y-195.844
X154.686Y-50.8
X156.083Y-220.599
X156.718Y-195.844
X159.218Y-195.844
X167.64Y-236.728
X174.244Y-236.728
X179.618Y-221.244
X182.118Y-221.244
X184.618Y-221.244
X213.868Y-235.087
X213.868Y-237.626
X216.408Y-235.087
X216.408Y-237.626
X218.948Y-235.087
X218.948Y-237.626
X221.488Y-235.087
X221.488Y-237.626
X222.123Y-92.329
X224.028Y-235.087
X224.028Y-237.626
X225.298Y-181.229
X230.418Y-56.144
X230.418Y-106.944
X230.418Y-157.744
X230.418Y-221.244
X230.632Y-37.592
X232.918Y-56.144
X232.918Y-106.944
X232.918Y-157.744
X232.918Y-221.244
X235.418Y-56.144
X235.418Y-106.944
X235.418Y-157.744
X235.418Y-221.244
X237.998Y-61.849
X237.998Y-112.268
X237.998Y-162.814
X240.284Y-37.592
X242.443Y-200.914
X244.323Y-226.944
X244.323Y-229.484
X255.524Y-37.592
X255.818Y-195.844
X258.318Y-195.844
X260.818Y-195.844
X268.732Y-183.642
X271.272Y-183.642
X273.812Y-183.642
X274.868Y-81.544
X274.868Y-132.344
X277.368Y-81.544
X277.368Y-132.344
X279.868Y-81.544
X279.868Y-132.344
X281.218Y-221.244
X282.448Y-87.884
X283.718Y-221.244
X286.218Y-221.244
T6
X133.35Y-42.184
X135.89Y-42.184
X138.43Y-42.184
X283.698Y-176.022
X283.698Y-178.562
X283.718Y-44.704
X283.718Y-47.244
X283.718Y-49.784
X283.718Y-60.579
X283.718Y-63.119
X283.718Y-65.659
X283.718Y-105.918
X283.718Y-108.458
X283.718Y-110.998
X283.718Y-113.538
X283.718Y-116.078
X283.718Y-118.618
X283.718Y-191.262
X283.718Y-193.802
X283.718Y-196.342
T7
X166.878Y-219.964
X166.878Y-227.584
T8
X258.013Y-123.698
X258.013Y-134.366
X258.013Y-148.463
X258.013Y-159.131
X262.763Y-123.698
X262.763Y-134.366
X262.763Y-148.463
X262.763Y-159.131
X267.513Y-123.698
X267.513Y-134.366
X267.513Y-148.463
X267.513Y-159.131
T9
X131.318Y-234.314
X131.318Y-239.014
X131.318Y-243.714
X156.718Y-234.314
X156.718Y-239.014
X156.718Y-243.714
X182.118Y-234.314
X182.118Y-239.014
X182.118Y-243.714
X205.103Y-94.614
X205.103Y-99.314
X205.103Y-104.014
X205.103Y-145.414
X205.103Y-150.114
X205.103Y-154.814
X207.518Y-43.814
X207.518Y-48.514
X207.518Y-53.214
X209.933Y-94.614
X209.933Y-99.314
X209.933Y-104.014
X209.933Y-145.414
X209.933Y-150.114
X209.933Y-154.814
X249.553Y-69.214
X249.553Y-73.914
X249.553Y-78.614
X251.968Y-120.014
X251.968Y-124.714
X251.968Y-129.414
X254.383Y-69.214
X254.383Y-73.914
X254.383Y-78.614
T10
X177.239Y-54.949
X177.239Y-105.749
X177.239Y-156.549
X188.553Y-43.635
X188.553Y-94.435
X188.553Y-145.235
T5
X126.518Y-214.094G85X126.518Y-213.394
G05
X132.868Y-74.384G85X132.868Y-73.684
G05
X132.868Y-125.194G85X132.868Y-124.494
G05
X136.118Y-214.094G85X136.118Y-213.394
G05
X142.468Y-74.384G85X142.468Y-73.684
G05
X142.468Y-125.194G85X142.468Y-124.494
G05
X151.918Y-188.694G85X151.918Y-187.994
G05
X161.518Y-188.694G85X161.518Y-187.994
G05
X177.318Y-214.094G85X177.318Y-213.394
G05
X186.918Y-214.094G85X186.918Y-213.394
G05
X228.118Y-48.994G85X228.118Y-48.294
G05
X228.118Y-99.794G85X228.118Y-99.094
G05
X228.118Y-150.594G85X228.118Y-149.894
G05
X228.118Y-214.094G85X228.118Y-213.394
G05
X237.718Y-48.994G85X237.718Y-48.294
G05
X237.718Y-99.794G85X237.718Y-99.094
G05
X237.718Y-150.594G85X237.718Y-149.894
G05
X237.718Y-214.094G85X237.718Y-213.394
G05
X253.518Y-188.694G85X253.518Y-187.994
G05
X263.118Y-188.694G85X263.118Y-187.994
G05
X272.568Y-74.394G85X272.568Y-73.694
G05
X272.568Y-125.194G85X272.568Y-124.494
G05
X278.918Y-214.094G85X278.918Y-213.394
G05
X282.168Y-74.394G85X282.168Y-73.694
G05
X282.168Y-125.194G85X282.168Y-124.494
G05
X288.518Y-214.094G85X288.518Y-213.394
G05
T0
M30
