G04 #@! TF.GenerationSoftware,KiCad,Pcbnew,6.0.5+dfsg-1~bpo11+1*
G04 #@! TF.CreationDate,2022-07-16T13:16:07+00:00*
G04 #@! TF.ProjectId,main_VCO_board,6d61696e-5f56-4434-9f5f-626f6172642e,0.1*
G04 #@! TF.SameCoordinates,Original*
G04 #@! TF.FileFunction,Soldermask,Top*
G04 #@! TF.FilePolarity,Negative*
%FSLAX46Y46*%
G04 Gerber Fmt 4.6, Leading zero omitted, Abs format (unit mm)*
G04 Created by KiCad (PCBNEW 6.0.5+dfsg-1~bpo11+1) date 2022-07-16 13:16:07*
%MOMM*%
%LPD*%
G01*
G04 APERTURE LIST*
%ADD10O,2.720000X3.240000*%
%ADD11R,1.800000X1.800000*%
%ADD12C,1.800000*%
%ADD13C,2.500000*%
%ADD14C,3.000000*%
%ADD15C,1.451600*%
%ADD16C,2.000000*%
%ADD17C,1.440000*%
%ADD18C,1.600000*%
%ADD19C,2.600000*%
%ADD20O,2.190000X1.740000*%
%ADD21R,1.600000X1.600000*%
%ADD22O,1.740000X2.190000*%
%ADD23R,1.700000X1.700000*%
%ADD24O,1.700000X1.700000*%
%ADD25C,2.540000*%
%ADD26C,1.700000*%
G04 APERTURE END LIST*
D10*
X132868000Y-74034000D03*
X142468000Y-74034000D03*
D11*
X135168000Y-81534000D03*
D12*
X137668000Y-81534000D03*
X140168000Y-81534000D03*
D13*
X251968000Y-129414000D03*
X251968000Y-124714000D03*
X251968000Y-120014000D03*
D10*
X288518000Y-213744000D03*
X278918000Y-213744000D03*
D11*
X281218000Y-221244000D03*
D12*
X283718000Y-221244000D03*
X286218000Y-221244000D03*
D10*
X263118000Y-188344000D03*
X253518000Y-188344000D03*
D11*
X255818000Y-195844000D03*
D12*
X258318000Y-195844000D03*
X260818000Y-195844000D03*
D13*
X205103000Y-154814000D03*
X205103000Y-150114000D03*
X205103000Y-145414000D03*
X209933000Y-154814000D03*
X209933000Y-150114000D03*
X209933000Y-145414000D03*
D10*
X151918000Y-188344000D03*
X161518000Y-188344000D03*
D11*
X154218000Y-195844000D03*
D12*
X156718000Y-195844000D03*
X159218000Y-195844000D03*
D10*
X228118000Y-150244000D03*
X237718000Y-150244000D03*
D11*
X230418000Y-157744000D03*
D12*
X232918000Y-157744000D03*
X235418000Y-157744000D03*
D10*
X228118000Y-48644000D03*
X237718000Y-48644000D03*
D11*
X230418000Y-56144000D03*
D12*
X232918000Y-56144000D03*
X235418000Y-56144000D03*
D14*
X188552672Y-43634963D03*
X177238963Y-54948672D03*
D15*
X172112439Y-45579507D03*
X173880206Y-43811740D03*
X175647973Y-42043973D03*
X177415740Y-40276206D03*
X179183507Y-38508439D03*
X192123561Y-51448493D03*
X190355794Y-53216260D03*
X188588027Y-54984027D03*
X186820260Y-56751794D03*
X185052493Y-58519561D03*
D13*
X205103000Y-104014000D03*
X205103000Y-99314000D03*
X205103000Y-94614000D03*
X209933000Y-104014000D03*
X209933000Y-99314000D03*
X209933000Y-94614000D03*
D10*
X272568000Y-74044000D03*
X282168000Y-74044000D03*
D11*
X274868000Y-81544000D03*
D12*
X277368000Y-81544000D03*
X279868000Y-81544000D03*
D14*
X188552672Y-145234963D03*
X177238963Y-156548672D03*
D15*
X172112439Y-147179507D03*
X173880206Y-145411740D03*
X175647973Y-143643973D03*
X177415740Y-141876206D03*
X179183507Y-140108439D03*
X192123561Y-153048493D03*
X190355794Y-154816260D03*
X188588027Y-156584027D03*
X186820260Y-158351794D03*
X185052493Y-160119561D03*
D13*
X156718000Y-243714000D03*
X156718000Y-239014000D03*
X156718000Y-234314000D03*
D14*
X177238963Y-105748672D03*
X188552672Y-94434963D03*
D15*
X172112439Y-96379507D03*
X173880206Y-94611740D03*
X175647973Y-92843973D03*
X177415740Y-91076206D03*
X179183507Y-89308439D03*
X192123561Y-102248493D03*
X190355794Y-104016260D03*
X188588027Y-105784027D03*
X186820260Y-107551794D03*
X185052493Y-109319561D03*
D10*
X228118000Y-213744000D03*
X237718000Y-213744000D03*
D11*
X230418000Y-221244000D03*
D12*
X232918000Y-221244000D03*
X235418000Y-221244000D03*
D13*
X207518000Y-53214000D03*
X207518000Y-48514000D03*
X207518000Y-43814000D03*
X249553000Y-78614000D03*
X249553000Y-73914000D03*
X249553000Y-69214000D03*
X254383000Y-78614000D03*
X254383000Y-73914000D03*
X254383000Y-69214000D03*
D10*
X126518000Y-213744000D03*
X136118000Y-213744000D03*
D11*
X128818000Y-221244000D03*
D12*
X131318000Y-221244000D03*
X133818000Y-221244000D03*
D13*
X131318000Y-243714000D03*
X131318000Y-239014000D03*
X131318000Y-234314000D03*
X182118000Y-243714000D03*
X182118000Y-239014000D03*
X182118000Y-234314000D03*
D10*
X132868000Y-124844000D03*
X142468000Y-124844000D03*
D11*
X135168000Y-132344000D03*
D12*
X137668000Y-132344000D03*
X140168000Y-132344000D03*
D10*
X272568000Y-124844000D03*
X282168000Y-124844000D03*
D11*
X274868000Y-132344000D03*
D12*
X277368000Y-132344000D03*
X279868000Y-132344000D03*
D10*
X237718000Y-99444000D03*
X228118000Y-99444000D03*
D11*
X230418000Y-106944000D03*
D12*
X232918000Y-106944000D03*
X235418000Y-106944000D03*
D10*
X186918000Y-213744000D03*
X177318000Y-213744000D03*
D11*
X179618000Y-221244000D03*
D12*
X182118000Y-221244000D03*
X184618000Y-221244000D03*
D16*
X167640000Y-236728000D03*
D17*
X173218000Y-173990000D03*
X175758000Y-173990000D03*
X178298000Y-173990000D03*
D16*
X156083000Y-220599000D03*
D18*
X230443400Y-142824200D03*
X235443400Y-142824200D03*
D17*
X229997000Y-136779000D03*
X232537000Y-136779000D03*
X235077000Y-136779000D03*
X194554000Y-211074000D03*
X197094000Y-211074000D03*
X199634000Y-211074000D03*
D16*
X222123000Y-92329000D03*
D19*
X166878000Y-219964000D03*
X166878000Y-227584000D03*
D18*
X268453000Y-226949000D03*
X273453000Y-226949000D03*
G36*
G01*
X284563000Y-197212000D02*
X282873000Y-197212000D01*
G75*
G02*
X282623000Y-196962000I0J250000D01*
G01*
X282623000Y-195722000D01*
G75*
G02*
X282873000Y-195472000I250000J0D01*
G01*
X284563000Y-195472000D01*
G75*
G02*
X284813000Y-195722000I0J-250000D01*
G01*
X284813000Y-196962000D01*
G75*
G02*
X284563000Y-197212000I-250000J0D01*
G01*
G37*
D20*
X283718000Y-193802000D03*
X283718000Y-191262000D03*
D21*
X216368000Y-222386500D03*
D18*
X213868000Y-222386500D03*
G36*
G01*
X284563000Y-119488000D02*
X282873000Y-119488000D01*
G75*
G02*
X282623000Y-119238000I0J250000D01*
G01*
X282623000Y-117998000D01*
G75*
G02*
X282873000Y-117748000I250000J0D01*
G01*
X284563000Y-117748000D01*
G75*
G02*
X284813000Y-117998000I0J-250000D01*
G01*
X284813000Y-119238000D01*
G75*
G02*
X284563000Y-119488000I-250000J0D01*
G01*
G37*
D20*
X283718000Y-116078000D03*
X283718000Y-113538000D03*
X283718000Y-110998000D03*
X283718000Y-108458000D03*
X283718000Y-105918000D03*
G36*
G01*
X139300000Y-41339000D02*
X139300000Y-43029000D01*
G75*
G02*
X139050000Y-43279000I-250000J0D01*
G01*
X137810000Y-43279000D01*
G75*
G02*
X137560000Y-43029000I0J250000D01*
G01*
X137560000Y-41339000D01*
G75*
G02*
X137810000Y-41089000I250000J0D01*
G01*
X139050000Y-41089000D01*
G75*
G02*
X139300000Y-41339000I0J-250000D01*
G01*
G37*
D22*
X135890000Y-42184000D03*
X133350000Y-42184000D03*
D16*
X230632000Y-37592000D03*
D17*
X171283000Y-84796000D03*
X173823000Y-84796000D03*
X176363000Y-84796000D03*
D16*
X255524000Y-37592000D03*
D17*
X261453000Y-65858000D03*
X263993000Y-65858000D03*
X266533000Y-65858000D03*
D16*
X150368000Y-220599000D03*
D17*
X208671000Y-119380000D03*
X211211000Y-119380000D03*
X213751000Y-119380000D03*
D23*
X244323000Y-226944000D03*
D24*
X244323000Y-229484000D03*
D16*
X225298000Y-181229000D03*
X237998000Y-61849000D03*
X174244000Y-236728000D03*
D17*
X166243000Y-119253000D03*
X168783000Y-119253000D03*
X171323000Y-119253000D03*
D16*
X154686000Y-50800000D03*
D18*
X145248000Y-93853000D03*
X140248000Y-93853000D03*
D17*
X161113000Y-84796000D03*
X163653000Y-84796000D03*
X166193000Y-84796000D03*
D18*
X196890000Y-43688000D03*
X201890000Y-43688000D03*
X226229000Y-78486000D03*
X223729000Y-78486000D03*
D16*
X282448000Y-87884000D03*
G36*
G01*
X284543000Y-179432000D02*
X282853000Y-179432000D01*
G75*
G02*
X282603000Y-179182000I0J250000D01*
G01*
X282603000Y-177942000D01*
G75*
G02*
X282853000Y-177692000I250000J0D01*
G01*
X284543000Y-177692000D01*
G75*
G02*
X284793000Y-177942000I0J-250000D01*
G01*
X284793000Y-179182000D01*
G75*
G02*
X284543000Y-179432000I-250000J0D01*
G01*
G37*
D20*
X283698000Y-176022000D03*
G36*
G01*
X284563000Y-66529000D02*
X282873000Y-66529000D01*
G75*
G02*
X282623000Y-66279000I0J250000D01*
G01*
X282623000Y-65039000D01*
G75*
G02*
X282873000Y-64789000I250000J0D01*
G01*
X284563000Y-64789000D01*
G75*
G02*
X284813000Y-65039000I0J-250000D01*
G01*
X284813000Y-66279000D01*
G75*
G02*
X284563000Y-66529000I-250000J0D01*
G01*
G37*
X283718000Y-63119000D03*
X283718000Y-60579000D03*
D23*
X268732000Y-183642000D03*
D24*
X271272000Y-183642000D03*
X273812000Y-183642000D03*
D16*
X240284000Y-37592000D03*
D18*
X221976000Y-174752000D03*
X219476000Y-174752000D03*
D17*
X261453000Y-58674000D03*
X263993000Y-58674000D03*
X266533000Y-58674000D03*
G36*
G01*
X284563000Y-50654000D02*
X282873000Y-50654000D01*
G75*
G02*
X282623000Y-50404000I0J250000D01*
G01*
X282623000Y-49164000D01*
G75*
G02*
X282873000Y-48914000I250000J0D01*
G01*
X284563000Y-48914000D01*
G75*
G02*
X284813000Y-49164000I0J-250000D01*
G01*
X284813000Y-50404000D01*
G75*
G02*
X284563000Y-50654000I-250000J0D01*
G01*
G37*
D20*
X283718000Y-47244000D03*
X283718000Y-44704000D03*
D17*
X187198000Y-173990000D03*
X189738000Y-173990000D03*
X192278000Y-173990000D03*
X150953000Y-84796000D03*
X153493000Y-84796000D03*
X156033000Y-84796000D03*
X187198000Y-166243000D03*
X189738000Y-166243000D03*
X192278000Y-166243000D03*
D25*
X267512800Y-159131000D03*
X262763000Y-159131000D03*
X258013200Y-159131000D03*
X258013200Y-148463000D03*
X262763000Y-148463000D03*
X267512800Y-148463000D03*
D17*
X208661000Y-111760000D03*
X211201000Y-111760000D03*
X213741000Y-111760000D03*
D16*
X237998000Y-162814000D03*
D25*
X267512800Y-134366000D03*
X262763000Y-134366000D03*
X258013200Y-134366000D03*
X258013200Y-123698000D03*
X262763000Y-123698000D03*
X267512800Y-123698000D03*
D16*
X237998000Y-112268000D03*
D17*
X191324000Y-75946000D03*
X193864000Y-75946000D03*
X196404000Y-75946000D03*
D21*
X224028000Y-222386500D03*
D18*
X221528000Y-222386500D03*
G36*
G01*
X213268000Y-234236500D02*
X214468000Y-234236500D01*
G75*
G02*
X214718000Y-234486500I0J-250000D01*
G01*
X214718000Y-235686500D01*
G75*
G02*
X214468000Y-235936500I-250000J0D01*
G01*
X213268000Y-235936500D01*
G75*
G02*
X213018000Y-235686500I0J250000D01*
G01*
X213018000Y-234486500D01*
G75*
G02*
X213268000Y-234236500I250000J0D01*
G01*
G37*
D26*
X213868000Y-237626500D03*
X216408000Y-235086500D03*
X216408000Y-237626500D03*
X218948000Y-235086500D03*
X218948000Y-237626500D03*
X221488000Y-235086500D03*
X221488000Y-237626500D03*
X224028000Y-235086500D03*
X224028000Y-237626500D03*
D18*
X229681400Y-92202000D03*
X234681400Y-92202000D03*
D16*
X242443000Y-200914000D03*
D17*
X230007000Y-128524000D03*
X232547000Y-128524000D03*
X235087000Y-128524000D03*
X191314000Y-68326000D03*
X193854000Y-68326000D03*
X196394000Y-68326000D03*
M02*
