G04 #@! TF.GenerationSoftware,KiCad,Pcbnew,6.0.5+dfsg-1~bpo11+1*
G04 #@! TF.CreationDate,2022-07-21T18:59:06+00:00*
G04 #@! TF.ProjectId,sample_and_hold_board,73616d70-6c65-45f6-916e-645f686f6c64,0*
G04 #@! TF.SameCoordinates,Original*
G04 #@! TF.FileFunction,Copper,L1,Top*
G04 #@! TF.FilePolarity,Positive*
%FSLAX46Y46*%
G04 Gerber Fmt 4.6, Leading zero omitted, Abs format (unit mm)*
G04 Created by KiCad (PCBNEW 6.0.5+dfsg-1~bpo11+1) date 2022-07-21 18:59:06*
%MOMM*%
%LPD*%
G01*
G04 APERTURE LIST*
G04 #@! TA.AperFunction,ComponentPad*
%ADD10O,2.720000X3.240000*%
G04 #@! TD*
G04 #@! TA.AperFunction,ComponentPad*
%ADD11R,1.800000X1.800000*%
G04 #@! TD*
G04 #@! TA.AperFunction,ComponentPad*
%ADD12C,1.800000*%
G04 #@! TD*
G04 #@! TA.AperFunction,ComponentPad*
%ADD13C,2.500000*%
G04 #@! TD*
G04 #@! TA.AperFunction,ComponentPad*
%ADD14R,1.600000X1.600000*%
G04 #@! TD*
G04 #@! TA.AperFunction,ComponentPad*
%ADD15C,1.600000*%
G04 #@! TD*
G04 #@! TA.AperFunction,ComponentPad*
%ADD16C,2.000000*%
G04 #@! TD*
G04 #@! TA.AperFunction,ComponentPad*
%ADD17O,2.190000X1.740000*%
G04 #@! TD*
G04 #@! TA.AperFunction,ComponentPad*
%ADD18C,2.600000*%
G04 #@! TD*
G04 #@! TA.AperFunction,ComponentPad*
%ADD19C,1.700000*%
G04 #@! TD*
G04 #@! TA.AperFunction,ComponentPad*
%ADD20R,1.500000X1.500000*%
G04 #@! TD*
G04 #@! TA.AperFunction,ComponentPad*
%ADD21C,1.500000*%
G04 #@! TD*
G04 #@! TA.AperFunction,ViaPad*
%ADD22C,1.000000*%
G04 #@! TD*
G04 #@! TA.AperFunction,Conductor*
%ADD23C,0.300000*%
G04 #@! TD*
G04 #@! TA.AperFunction,Conductor*
%ADD24C,0.500000*%
G04 #@! TD*
G04 #@! TA.AperFunction,Conductor*
%ADD25C,0.400000*%
G04 #@! TD*
G04 APERTURE END LIST*
D10*
X108940000Y-172215000D03*
X99340000Y-172215000D03*
D11*
X101640000Y-179715000D03*
D12*
X104140000Y-179715000D03*
X106640000Y-179715000D03*
D13*
X104140000Y-228865000D03*
X104140000Y-224165000D03*
X104140000Y-219465000D03*
D10*
X108940000Y-83315000D03*
X99340000Y-83315000D03*
D11*
X101640000Y-90815000D03*
D12*
X104140000Y-90815000D03*
X106640000Y-90815000D03*
D10*
X99340000Y-127765000D03*
X108940000Y-127765000D03*
D11*
X101640000Y-135265000D03*
D12*
X104140000Y-135265000D03*
X106640000Y-135265000D03*
D10*
X108940000Y-38865000D03*
X99340000Y-38865000D03*
D11*
X101640000Y-46365000D03*
D12*
X104140000Y-46365000D03*
X106640000Y-46365000D03*
D14*
X113665000Y-193050000D03*
D15*
X116165000Y-193050000D03*
X101640000Y-63383000D03*
X106640000Y-63383000D03*
D14*
X103359621Y-146314000D03*
D15*
X105859621Y-146314000D03*
D14*
X99100000Y-197495000D03*
D15*
X101600000Y-197495000D03*
D16*
X117475000Y-209560000D03*
D14*
X109154000Y-153299000D03*
D15*
X111654000Y-153299000D03*
G04 #@! TA.AperFunction,ComponentPad*
G36*
G01*
X117050000Y-167885000D02*
X115360000Y-167885000D01*
G75*
G02*
X115110000Y-167635000I0J250000D01*
G01*
X115110000Y-166395000D01*
G75*
G02*
X115360000Y-166145000I250000J0D01*
G01*
X117050000Y-166145000D01*
G75*
G02*
X117300000Y-166395000I0J-250000D01*
G01*
X117300000Y-167635000D01*
G75*
G02*
X117050000Y-167885000I-250000J0D01*
G01*
G37*
G04 #@! TD.AperFunction*
D17*
X116205000Y-164475000D03*
D18*
X90805000Y-228610000D03*
X98425000Y-228610000D03*
G04 #@! TA.AperFunction,ComponentPad*
G36*
G01*
X91230000Y-111535000D02*
X92920000Y-111535000D01*
G75*
G02*
X93170000Y-111785000I0J-250000D01*
G01*
X93170000Y-113025000D01*
G75*
G02*
X92920000Y-113275000I-250000J0D01*
G01*
X91230000Y-113275000D01*
G75*
G02*
X90980000Y-113025000I0J250000D01*
G01*
X90980000Y-111785000D01*
G75*
G02*
X91230000Y-111535000I250000J0D01*
G01*
G37*
G04 #@! TD.AperFunction*
D17*
X92075000Y-114945000D03*
X92075000Y-117485000D03*
X92075000Y-120025000D03*
X92075000Y-122565000D03*
X92075000Y-125105000D03*
G04 #@! TA.AperFunction,ComponentPad*
G36*
G01*
X91250000Y-92485000D02*
X92940000Y-92485000D01*
G75*
G02*
X93190000Y-92735000I0J-250000D01*
G01*
X93190000Y-93975000D01*
G75*
G02*
X92940000Y-94225000I-250000J0D01*
G01*
X91250000Y-94225000D01*
G75*
G02*
X91000000Y-93975000I0J250000D01*
G01*
X91000000Y-92735000D01*
G75*
G02*
X91250000Y-92485000I250000J0D01*
G01*
G37*
G04 #@! TD.AperFunction*
X92095000Y-95895000D03*
X92095000Y-98435000D03*
D16*
X112776000Y-92339000D03*
D14*
X106680000Y-197495000D03*
D15*
X109180000Y-197495000D03*
D16*
X90170000Y-80655000D03*
X111760000Y-219085000D03*
X90805000Y-209560000D03*
D14*
X92115000Y-193050000D03*
D15*
X94615000Y-193050000D03*
D16*
X111760000Y-228610000D03*
G04 #@! TA.AperFunction,ComponentPad*
G36*
G01*
X98460000Y-208710000D02*
X99660000Y-208710000D01*
G75*
G02*
X99910000Y-208960000I0J-250000D01*
G01*
X99910000Y-210160000D01*
G75*
G02*
X99660000Y-210410000I-250000J0D01*
G01*
X98460000Y-210410000D01*
G75*
G02*
X98210000Y-210160000I0J250000D01*
G01*
X98210000Y-208960000D01*
G75*
G02*
X98460000Y-208710000I250000J0D01*
G01*
G37*
G04 #@! TD.AperFunction*
D19*
X99060000Y-212100000D03*
X101600000Y-209560000D03*
X101600000Y-212100000D03*
X104140000Y-209560000D03*
X104140000Y-212100000D03*
X106680000Y-209560000D03*
X106680000Y-212100000D03*
X109220000Y-209560000D03*
X109220000Y-212100000D03*
D15*
X112776000Y-63891000D03*
X117776000Y-63891000D03*
D20*
X104140000Y-153299000D03*
D21*
X104140000Y-155839000D03*
X104140000Y-158379000D03*
D16*
X113030000Y-71130000D03*
D22*
X109728000Y-101737000D03*
X97790000Y-103515000D03*
X114554000Y-144409000D03*
X109728000Y-192415000D03*
X92710000Y-88021000D03*
X98552000Y-79893000D03*
X114046000Y-151013000D03*
X109474000Y-67447000D03*
X99060000Y-67447000D03*
X99060000Y-110373000D03*
X98806000Y-192415000D03*
X98552000Y-56779000D03*
X90170000Y-159395000D03*
X109220000Y-110373000D03*
X109982000Y-79893000D03*
X117602000Y-190129000D03*
X117348000Y-160411000D03*
X99568000Y-160665000D03*
X93472000Y-219593000D03*
X101099520Y-143146520D03*
X103378000Y-194193000D03*
X109982000Y-143139000D03*
X88646000Y-71257000D03*
X86614000Y-181239000D03*
X86614000Y-224165000D03*
X114808000Y-120025000D03*
X90932000Y-137043000D03*
X118872000Y-92339000D03*
X96266000Y-91450000D03*
D23*
X97790000Y-103515000D02*
X107950000Y-103515000D01*
X107950000Y-103515000D02*
X109728000Y-101737000D01*
D24*
X104140000Y-228865000D02*
X111505000Y-228865000D01*
X111505000Y-228865000D02*
X111760000Y-228610000D01*
D23*
X105264621Y-144409000D02*
X114554000Y-144409000D01*
X103359621Y-146314000D02*
X105264621Y-144409000D01*
X117602000Y-190129000D02*
X116586000Y-190129000D01*
X117348000Y-160411000D02*
X99822000Y-160411000D01*
X116586000Y-190129000D02*
X113665000Y-193050000D01*
X99822000Y-160411000D02*
X99568000Y-160665000D01*
X104140000Y-153299000D02*
X109154000Y-153299000D01*
X93472000Y-219593000D02*
X93600000Y-219465000D01*
D24*
X111380000Y-219465000D02*
X111760000Y-219085000D01*
D23*
X93600000Y-219465000D02*
X104140000Y-219465000D01*
D24*
X104140000Y-219465000D02*
X111380000Y-219465000D01*
D23*
X101107040Y-143139000D02*
X101099520Y-143146520D01*
D24*
X106680000Y-197495000D02*
X103378000Y-194193000D01*
D23*
X109982000Y-143139000D02*
X101107040Y-143139000D01*
D24*
X117475000Y-209560000D02*
X109220000Y-209560000D01*
X90805000Y-209560000D02*
X99060000Y-209560000D01*
D25*
X113030000Y-71130000D02*
X88773000Y-71130000D01*
X88773000Y-71130000D02*
X88646000Y-71257000D01*
D23*
X87122000Y-181747000D02*
X104608000Y-181747000D01*
X86614000Y-181239000D02*
X87122000Y-181747000D01*
X104140000Y-224165000D02*
X86614000Y-224165000D01*
X104608000Y-181747000D02*
X106640000Y-179715000D01*
X92075000Y-120025000D02*
X114808000Y-120025000D01*
X90932000Y-137043000D02*
X104862000Y-137043000D01*
X104862000Y-137043000D02*
X106640000Y-135265000D01*
X118999000Y-92339000D02*
X112776000Y-92339000D01*
X97155000Y-92339000D02*
X96266000Y-91450000D01*
X112776000Y-92339000D02*
X97155000Y-92339000D01*
G04 #@! TA.AperFunction,Conductor*
G36*
X123893621Y-32923502D02*
G01*
X123940114Y-32977158D01*
X123951500Y-33029500D01*
X123951500Y-234960500D01*
X123931498Y-235028621D01*
X123877842Y-235075114D01*
X123825500Y-235086500D01*
X84454500Y-235086500D01*
X84386379Y-235066498D01*
X84339886Y-235012842D01*
X84328500Y-234960500D01*
X84328500Y-230054906D01*
X89724839Y-230054906D01*
X89733553Y-230066427D01*
X89840452Y-230144809D01*
X89848351Y-230149745D01*
X90077905Y-230270519D01*
X90086454Y-230274236D01*
X90331327Y-230359749D01*
X90340336Y-230362163D01*
X90595166Y-230410544D01*
X90604423Y-230411598D01*
X90863607Y-230421783D01*
X90872921Y-230421457D01*
X91130753Y-230393220D01*
X91139930Y-230391519D01*
X91390758Y-230325481D01*
X91399574Y-230322445D01*
X91637880Y-230220062D01*
X91646167Y-230215748D01*
X91866718Y-230079266D01*
X91874268Y-230073780D01*
X91879559Y-230069301D01*
X91887997Y-230056497D01*
X91887065Y-230054906D01*
X97344839Y-230054906D01*
X97353553Y-230066427D01*
X97460452Y-230144809D01*
X97468351Y-230149745D01*
X97697905Y-230270519D01*
X97706454Y-230274236D01*
X97951327Y-230359749D01*
X97960336Y-230362163D01*
X98215166Y-230410544D01*
X98224423Y-230411598D01*
X98483607Y-230421783D01*
X98492921Y-230421457D01*
X98750753Y-230393220D01*
X98759930Y-230391519D01*
X99010758Y-230325481D01*
X99019574Y-230322445D01*
X99257880Y-230220062D01*
X99266167Y-230215748D01*
X99486718Y-230079266D01*
X99494268Y-230073780D01*
X99499559Y-230069301D01*
X99507997Y-230056497D01*
X99501935Y-230046145D01*
X98437812Y-228982022D01*
X98423868Y-228974408D01*
X98422035Y-228974539D01*
X98415420Y-228978790D01*
X97351497Y-230042713D01*
X97344839Y-230054906D01*
X91887065Y-230054906D01*
X91881935Y-230046145D01*
X90817812Y-228982022D01*
X90803868Y-228974408D01*
X90802035Y-228974539D01*
X90795420Y-228978790D01*
X89731497Y-230042713D01*
X89724839Y-230054906D01*
X84328500Y-230054906D01*
X84328500Y-228567211D01*
X88992775Y-228567211D01*
X89005220Y-228826288D01*
X89006356Y-228835543D01*
X89056961Y-229089945D01*
X89059449Y-229098917D01*
X89147095Y-229343033D01*
X89150895Y-229351568D01*
X89273658Y-229580042D01*
X89278666Y-229587904D01*
X89348720Y-229681716D01*
X89359979Y-229690165D01*
X89372397Y-229683393D01*
X90432978Y-228622812D01*
X90439356Y-228611132D01*
X91169408Y-228611132D01*
X91169539Y-228612965D01*
X91173790Y-228619580D01*
X92241094Y-229686884D01*
X92253474Y-229693644D01*
X92261815Y-229687400D01*
X92395832Y-229479048D01*
X92400275Y-229470864D01*
X92506807Y-229234370D01*
X92509997Y-229225605D01*
X92580402Y-228975972D01*
X92582262Y-228966830D01*
X92615187Y-228708019D01*
X92615668Y-228701733D01*
X92617987Y-228613160D01*
X92617836Y-228606851D01*
X92614890Y-228567211D01*
X96612775Y-228567211D01*
X96625220Y-228826288D01*
X96626356Y-228835543D01*
X96676961Y-229089945D01*
X96679449Y-229098917D01*
X96767095Y-229343033D01*
X96770895Y-229351568D01*
X96893658Y-229580042D01*
X96898666Y-229587904D01*
X96968720Y-229681716D01*
X96979979Y-229690165D01*
X96992397Y-229683393D01*
X98052978Y-228622812D01*
X98059356Y-228611132D01*
X98789408Y-228611132D01*
X98789539Y-228612965D01*
X98793790Y-228619580D01*
X99861094Y-229686884D01*
X99873474Y-229693644D01*
X99881815Y-229687400D01*
X100015832Y-229479048D01*
X100020275Y-229470864D01*
X100126807Y-229234370D01*
X100129997Y-229225605D01*
X100200402Y-228975972D01*
X100202262Y-228966830D01*
X100221089Y-228818839D01*
X102377173Y-228818839D01*
X102377397Y-228823505D01*
X102377397Y-228823511D01*
X102378743Y-228851524D01*
X102389713Y-229079908D01*
X102440704Y-229336256D01*
X102529026Y-229582252D01*
X102531242Y-229586376D01*
X102595753Y-229706437D01*
X102652737Y-229812491D01*
X102655532Y-229816234D01*
X102655534Y-229816237D01*
X102806330Y-230018177D01*
X102806335Y-230018183D01*
X102809122Y-230021915D01*
X102812431Y-230025195D01*
X102812436Y-230025201D01*
X102991426Y-230202635D01*
X102994743Y-230205923D01*
X102998505Y-230208681D01*
X102998508Y-230208684D01*
X103201750Y-230357707D01*
X103205524Y-230360474D01*
X103209667Y-230362654D01*
X103209669Y-230362655D01*
X103432684Y-230479989D01*
X103432689Y-230479991D01*
X103436834Y-230482172D01*
X103683590Y-230568344D01*
X103688183Y-230569216D01*
X103935785Y-230616224D01*
X103935788Y-230616224D01*
X103940374Y-230617095D01*
X104070959Y-230622226D01*
X104196875Y-230627174D01*
X104196881Y-230627174D01*
X104201543Y-230627357D01*
X104280978Y-230618657D01*
X104456707Y-230599412D01*
X104456712Y-230599411D01*
X104461360Y-230598902D01*
X104574116Y-230569216D01*
X104709594Y-230533548D01*
X104709596Y-230533547D01*
X104714117Y-230532357D01*
X104954262Y-230429182D01*
X105176519Y-230291646D01*
X105180082Y-230288629D01*
X105180087Y-230288626D01*
X105372439Y-230125787D01*
X105372440Y-230125786D01*
X105376005Y-230122768D01*
X105434123Y-230056497D01*
X105545257Y-229929774D01*
X105545261Y-229929769D01*
X105548339Y-229926259D01*
X105609634Y-229830965D01*
X105687208Y-229710363D01*
X105687210Y-229710360D01*
X105689733Y-229706437D01*
X105693646Y-229697751D01*
X105739859Y-229643856D01*
X105808528Y-229623500D01*
X110583716Y-229623500D01*
X110651837Y-229643502D01*
X110679526Y-229667669D01*
X110690031Y-229679969D01*
X110693793Y-229683182D01*
X110693795Y-229683184D01*
X110701969Y-229690165D01*
X110870584Y-229834176D01*
X110874792Y-229836755D01*
X110874798Y-229836759D01*
X111014431Y-229922326D01*
X111073037Y-229958240D01*
X111077607Y-229960133D01*
X111077611Y-229960135D01*
X111287833Y-230047211D01*
X111292406Y-230049105D01*
X111372609Y-230068360D01*
X111518476Y-230103380D01*
X111518482Y-230103381D01*
X111523289Y-230104535D01*
X111760000Y-230123165D01*
X111996711Y-230104535D01*
X112001518Y-230103381D01*
X112001524Y-230103380D01*
X112147391Y-230068360D01*
X112227594Y-230049105D01*
X112232167Y-230047211D01*
X112442389Y-229960135D01*
X112442393Y-229960133D01*
X112446963Y-229958240D01*
X112505569Y-229922326D01*
X112645202Y-229836759D01*
X112645208Y-229836755D01*
X112649416Y-229834176D01*
X112829969Y-229679969D01*
X112833186Y-229676203D01*
X112915315Y-229580042D01*
X112984176Y-229499416D01*
X112986755Y-229495208D01*
X112986759Y-229495202D01*
X113105654Y-229301183D01*
X113108240Y-229296963D01*
X113137798Y-229225605D01*
X113197211Y-229082167D01*
X113197212Y-229082165D01*
X113199105Y-229077594D01*
X113254535Y-228846711D01*
X113273165Y-228610000D01*
X113254535Y-228373289D01*
X113199105Y-228142406D01*
X113197211Y-228137833D01*
X113110135Y-227927611D01*
X113110133Y-227927607D01*
X113108240Y-227923037D01*
X113022358Y-227782891D01*
X112986759Y-227724798D01*
X112986755Y-227724792D01*
X112984176Y-227720584D01*
X112829969Y-227540031D01*
X112824867Y-227535673D01*
X112805382Y-227519032D01*
X112649416Y-227385824D01*
X112645208Y-227383245D01*
X112645202Y-227383241D01*
X112451183Y-227264346D01*
X112446963Y-227261760D01*
X112442393Y-227259867D01*
X112442389Y-227259865D01*
X112232167Y-227172789D01*
X112232165Y-227172788D01*
X112227594Y-227170895D01*
X112138644Y-227149540D01*
X112001524Y-227116620D01*
X112001518Y-227116619D01*
X111996711Y-227115465D01*
X111760000Y-227096835D01*
X111523289Y-227115465D01*
X111518482Y-227116619D01*
X111518476Y-227116620D01*
X111381356Y-227149540D01*
X111292406Y-227170895D01*
X111287835Y-227172788D01*
X111287833Y-227172789D01*
X111077611Y-227259865D01*
X111077607Y-227259867D01*
X111073037Y-227261760D01*
X111068817Y-227264346D01*
X110874798Y-227383241D01*
X110874792Y-227383245D01*
X110870584Y-227385824D01*
X110714618Y-227519032D01*
X110695134Y-227535673D01*
X110690031Y-227540031D01*
X110535824Y-227720584D01*
X110533245Y-227724792D01*
X110533241Y-227724798D01*
X110497642Y-227782891D01*
X110411760Y-227923037D01*
X110409867Y-227927607D01*
X110409865Y-227927611D01*
X110367986Y-228028718D01*
X110323438Y-228083999D01*
X110251577Y-228106500D01*
X105805147Y-228106500D01*
X105737026Y-228086498D01*
X105695754Y-228043023D01*
X105604270Y-227882960D01*
X105601951Y-227878902D01*
X105440138Y-227673643D01*
X105249763Y-227494557D01*
X105035009Y-227345576D01*
X105030816Y-227343508D01*
X104804781Y-227232040D01*
X104804778Y-227232039D01*
X104800593Y-227229975D01*
X104754449Y-227215204D01*
X104556123Y-227151720D01*
X104551665Y-227150293D01*
X104293693Y-227108279D01*
X104179942Y-227106790D01*
X104037022Y-227104919D01*
X104037019Y-227104919D01*
X104032345Y-227104858D01*
X103773362Y-227140104D01*
X103522433Y-227213243D01*
X103518180Y-227215203D01*
X103518179Y-227215204D01*
X103481659Y-227232040D01*
X103285072Y-227322668D01*
X103246067Y-227348241D01*
X103070404Y-227463410D01*
X103070399Y-227463414D01*
X103066491Y-227465976D01*
X102871494Y-227640018D01*
X102704363Y-227840970D01*
X102701934Y-227844973D01*
X102584051Y-228039239D01*
X102568771Y-228064419D01*
X102467697Y-228305455D01*
X102403359Y-228558783D01*
X102402891Y-228563434D01*
X102402890Y-228563438D01*
X102397705Y-228614930D01*
X102377173Y-228818839D01*
X100221089Y-228818839D01*
X100235187Y-228708019D01*
X100235668Y-228701733D01*
X100237987Y-228613160D01*
X100237836Y-228606851D01*
X100218501Y-228346663D01*
X100217125Y-228337457D01*
X100159878Y-228084467D01*
X100157154Y-228075556D01*
X100063143Y-227833806D01*
X100059132Y-227825397D01*
X99930422Y-227600202D01*
X99925211Y-227592476D01*
X99881996Y-227537658D01*
X99870071Y-227529187D01*
X99858537Y-227535673D01*
X98797022Y-228597188D01*
X98789408Y-228611132D01*
X98059356Y-228611132D01*
X98060592Y-228608868D01*
X98060461Y-228607035D01*
X98056210Y-228600420D01*
X96990816Y-227535026D01*
X96977507Y-227527758D01*
X96967472Y-227534878D01*
X96951937Y-227553556D01*
X96946531Y-227561135D01*
X96811965Y-227782891D01*
X96807736Y-227791192D01*
X96707432Y-228030389D01*
X96704471Y-228039239D01*
X96640628Y-228290625D01*
X96639006Y-228299822D01*
X96613020Y-228557885D01*
X96612775Y-228567211D01*
X92614890Y-228567211D01*
X92598501Y-228346663D01*
X92597125Y-228337457D01*
X92539878Y-228084467D01*
X92537154Y-228075556D01*
X92443143Y-227833806D01*
X92439132Y-227825397D01*
X92310422Y-227600202D01*
X92305211Y-227592476D01*
X92261996Y-227537658D01*
X92250071Y-227529187D01*
X92238537Y-227535673D01*
X91177022Y-228597188D01*
X91169408Y-228611132D01*
X90439356Y-228611132D01*
X90440592Y-228608868D01*
X90440461Y-228607035D01*
X90436210Y-228600420D01*
X89370816Y-227535026D01*
X89357507Y-227527758D01*
X89347472Y-227534878D01*
X89331937Y-227553556D01*
X89326531Y-227561135D01*
X89191965Y-227782891D01*
X89187736Y-227791192D01*
X89087432Y-228030389D01*
X89084471Y-228039239D01*
X89020628Y-228290625D01*
X89019006Y-228299822D01*
X88993020Y-228557885D01*
X88992775Y-228567211D01*
X84328500Y-228567211D01*
X84328500Y-227162689D01*
X89722102Y-227162689D01*
X89726675Y-227172465D01*
X90792188Y-228237978D01*
X90806132Y-228245592D01*
X90807965Y-228245461D01*
X90814580Y-228241210D01*
X91879349Y-227176441D01*
X91885733Y-227164751D01*
X91884130Y-227162689D01*
X97342102Y-227162689D01*
X97346675Y-227172465D01*
X98412188Y-228237978D01*
X98426132Y-228245592D01*
X98427965Y-228245461D01*
X98434580Y-228241210D01*
X99499349Y-227176441D01*
X99505733Y-227164751D01*
X99496321Y-227152641D01*
X99349045Y-227050471D01*
X99341010Y-227045738D01*
X99108376Y-226931016D01*
X99099743Y-226927528D01*
X98852703Y-226848450D01*
X98843643Y-226846274D01*
X98587630Y-226804580D01*
X98578343Y-226803768D01*
X98318992Y-226800373D01*
X98309681Y-226800943D01*
X98052682Y-226835919D01*
X98043546Y-226837860D01*
X97794543Y-226910439D01*
X97785800Y-226913707D01*
X97550252Y-227022296D01*
X97542097Y-227026816D01*
X97351240Y-227151947D01*
X97342102Y-227162689D01*
X91884130Y-227162689D01*
X91876321Y-227152641D01*
X91729045Y-227050471D01*
X91721010Y-227045738D01*
X91488376Y-226931016D01*
X91479743Y-226927528D01*
X91232703Y-226848450D01*
X91223643Y-226846274D01*
X90967630Y-226804580D01*
X90958343Y-226803768D01*
X90698992Y-226800373D01*
X90689681Y-226800943D01*
X90432682Y-226835919D01*
X90423546Y-226837860D01*
X90174543Y-226910439D01*
X90165800Y-226913707D01*
X89930252Y-227022296D01*
X89922097Y-227026816D01*
X89731240Y-227151947D01*
X89722102Y-227162689D01*
X84328500Y-227162689D01*
X84328500Y-224150851D01*
X85600719Y-224150851D01*
X85601235Y-224156995D01*
X85609920Y-224260421D01*
X85617268Y-224347934D01*
X85618967Y-224353858D01*
X85666916Y-224521076D01*
X85671783Y-224538050D01*
X85762187Y-224713956D01*
X85885035Y-224868953D01*
X86035650Y-224997136D01*
X86208294Y-225093624D01*
X86396392Y-225154740D01*
X86592777Y-225178158D01*
X86598912Y-225177686D01*
X86598914Y-225177686D01*
X86783830Y-225163457D01*
X86783834Y-225163456D01*
X86789972Y-225162984D01*
X86980463Y-225109798D01*
X86985967Y-225107018D01*
X86985969Y-225107017D01*
X87151495Y-225023404D01*
X87151497Y-225023403D01*
X87156996Y-225020625D01*
X87312847Y-224898861D01*
X87340203Y-224867169D01*
X87399856Y-224828672D01*
X87435584Y-224823500D01*
X102422123Y-224823500D01*
X102490244Y-224843502D01*
X102533115Y-224889862D01*
X102649796Y-225107017D01*
X102652737Y-225112491D01*
X102655532Y-225116234D01*
X102655534Y-225116237D01*
X102806330Y-225318177D01*
X102806335Y-225318183D01*
X102809122Y-225321915D01*
X102812431Y-225325195D01*
X102812436Y-225325201D01*
X102991426Y-225502635D01*
X102994743Y-225505923D01*
X102998505Y-225508681D01*
X102998508Y-225508684D01*
X103201750Y-225657707D01*
X103205524Y-225660474D01*
X103209667Y-225662654D01*
X103209669Y-225662655D01*
X103432684Y-225779989D01*
X103432689Y-225779991D01*
X103436834Y-225782172D01*
X103683590Y-225868344D01*
X103688183Y-225869216D01*
X103935785Y-225916224D01*
X103935788Y-225916224D01*
X103940374Y-225917095D01*
X104070958Y-225922226D01*
X104196875Y-225927174D01*
X104196881Y-225927174D01*
X104201543Y-225927357D01*
X104280977Y-225918657D01*
X104456707Y-225899412D01*
X104456712Y-225899411D01*
X104461360Y-225898902D01*
X104574116Y-225869216D01*
X104709594Y-225833548D01*
X104709596Y-225833547D01*
X104714117Y-225832357D01*
X104954262Y-225729182D01*
X105176519Y-225591646D01*
X105180082Y-225588629D01*
X105180087Y-225588626D01*
X105372439Y-225425787D01*
X105372440Y-225425786D01*
X105376005Y-225422768D01*
X105467729Y-225318177D01*
X105545257Y-225229774D01*
X105545261Y-225229769D01*
X105548339Y-225226259D01*
X105579748Y-225177429D01*
X105687205Y-225010367D01*
X105689733Y-225006437D01*
X105797083Y-224768129D01*
X105811000Y-224718783D01*
X105866760Y-224521076D01*
X105866761Y-224521073D01*
X105868030Y-224516572D01*
X105901014Y-224257291D01*
X105903431Y-224165000D01*
X105901924Y-224144726D01*
X105884407Y-223909000D01*
X105884406Y-223908996D01*
X105884061Y-223904348D01*
X105826377Y-223649423D01*
X105745314Y-223440968D01*
X105733340Y-223410176D01*
X105733339Y-223410173D01*
X105731647Y-223405823D01*
X105601951Y-223178902D01*
X105440138Y-222973643D01*
X105249763Y-222794557D01*
X105035009Y-222645576D01*
X105030816Y-222643508D01*
X104804781Y-222532040D01*
X104804778Y-222532039D01*
X104800593Y-222529975D01*
X104754449Y-222515204D01*
X104556123Y-222451720D01*
X104551665Y-222450293D01*
X104293693Y-222408279D01*
X104179942Y-222406790D01*
X104037022Y-222404919D01*
X104037019Y-222404919D01*
X104032345Y-222404858D01*
X103773362Y-222440104D01*
X103522433Y-222513243D01*
X103518180Y-222515203D01*
X103518179Y-222515204D01*
X103481659Y-222532040D01*
X103285072Y-222622668D01*
X103246067Y-222648241D01*
X103070404Y-222763410D01*
X103070399Y-222763414D01*
X103066491Y-222765976D01*
X102871494Y-222940018D01*
X102704363Y-223140970D01*
X102687347Y-223169011D01*
X102590386Y-223328799D01*
X102568771Y-223364419D01*
X102541595Y-223429228D01*
X102496808Y-223484311D01*
X102425399Y-223506500D01*
X87438209Y-223506500D01*
X87370088Y-223486498D01*
X87340567Y-223460136D01*
X87336960Y-223455713D01*
X87336956Y-223455709D01*
X87333065Y-223450938D01*
X87223650Y-223360422D01*
X87185425Y-223328799D01*
X87185421Y-223328797D01*
X87180675Y-223324870D01*
X87006701Y-223230802D01*
X86817768Y-223172318D01*
X86811643Y-223171674D01*
X86811642Y-223171674D01*
X86627204Y-223152289D01*
X86627202Y-223152289D01*
X86621075Y-223151645D01*
X86538576Y-223159153D01*
X86430251Y-223169011D01*
X86430248Y-223169012D01*
X86424112Y-223169570D01*
X86418206Y-223171308D01*
X86418202Y-223171309D01*
X86313076Y-223202249D01*
X86234381Y-223225410D01*
X86228923Y-223228263D01*
X86228919Y-223228265D01*
X86138147Y-223275720D01*
X86059110Y-223317040D01*
X85904975Y-223440968D01*
X85777846Y-223592474D01*
X85774879Y-223597872D01*
X85774875Y-223597877D01*
X85746538Y-223649423D01*
X85682567Y-223765787D01*
X85622765Y-223954306D01*
X85600719Y-224150851D01*
X84328500Y-224150851D01*
X84328500Y-219578851D01*
X92458719Y-219578851D01*
X92475268Y-219775934D01*
X92529783Y-219966050D01*
X92559730Y-220024319D01*
X92615449Y-220132736D01*
X92620187Y-220141956D01*
X92743035Y-220296953D01*
X92747728Y-220300947D01*
X92747729Y-220300948D01*
X92883194Y-220416237D01*
X92893650Y-220425136D01*
X93066294Y-220521624D01*
X93254392Y-220582740D01*
X93450777Y-220606158D01*
X93456912Y-220605686D01*
X93456914Y-220605686D01*
X93641830Y-220591457D01*
X93641834Y-220591456D01*
X93647972Y-220590984D01*
X93838463Y-220537798D01*
X93843967Y-220535018D01*
X93843969Y-220535017D01*
X94009495Y-220451404D01*
X94009497Y-220451403D01*
X94014996Y-220448625D01*
X94170847Y-220326861D01*
X94300078Y-220177145D01*
X94300807Y-220175862D01*
X94355145Y-220132736D01*
X94402496Y-220123500D01*
X102422123Y-220123500D01*
X102490244Y-220143502D01*
X102533115Y-220189862D01*
X102604221Y-220322197D01*
X102652737Y-220412491D01*
X102655532Y-220416234D01*
X102655534Y-220416237D01*
X102806330Y-220618177D01*
X102806335Y-220618183D01*
X102809122Y-220621915D01*
X102812431Y-220625195D01*
X102812436Y-220625201D01*
X102991426Y-220802635D01*
X102994743Y-220805923D01*
X102998505Y-220808681D01*
X102998508Y-220808684D01*
X103201750Y-220957707D01*
X103205524Y-220960474D01*
X103209667Y-220962654D01*
X103209669Y-220962655D01*
X103432684Y-221079989D01*
X103432689Y-221079991D01*
X103436834Y-221082172D01*
X103683590Y-221168344D01*
X103688183Y-221169216D01*
X103935785Y-221216224D01*
X103935788Y-221216224D01*
X103940374Y-221217095D01*
X104070958Y-221222226D01*
X104196875Y-221227174D01*
X104196881Y-221227174D01*
X104201543Y-221227357D01*
X104280977Y-221218657D01*
X104456707Y-221199412D01*
X104456712Y-221199411D01*
X104461360Y-221198902D01*
X104574116Y-221169216D01*
X104709594Y-221133548D01*
X104709596Y-221133547D01*
X104714117Y-221132357D01*
X104954262Y-221029182D01*
X105176519Y-220891646D01*
X105180082Y-220888629D01*
X105180087Y-220888626D01*
X105372439Y-220725787D01*
X105372440Y-220725786D01*
X105376005Y-220722768D01*
X105467729Y-220618177D01*
X105545257Y-220529774D01*
X105545261Y-220529769D01*
X105548339Y-220526259D01*
X105550943Y-220522211D01*
X105687208Y-220310363D01*
X105687210Y-220310360D01*
X105689733Y-220306437D01*
X105693646Y-220297751D01*
X105739859Y-220243856D01*
X105808528Y-220223500D01*
X110723787Y-220223500D01*
X110791908Y-220243502D01*
X110805617Y-220253689D01*
X110866819Y-220305961D01*
X110866824Y-220305964D01*
X110870584Y-220309176D01*
X111073037Y-220433240D01*
X111077607Y-220435133D01*
X111077611Y-220435135D01*
X111279159Y-220518618D01*
X111292406Y-220524105D01*
X111337858Y-220535017D01*
X111518476Y-220578380D01*
X111518482Y-220578381D01*
X111523289Y-220579535D01*
X111760000Y-220598165D01*
X111996711Y-220579535D01*
X112001518Y-220578381D01*
X112001524Y-220578380D01*
X112182142Y-220535017D01*
X112227594Y-220524105D01*
X112240841Y-220518618D01*
X112442389Y-220435135D01*
X112442393Y-220435133D01*
X112446963Y-220433240D01*
X112455284Y-220428141D01*
X112645202Y-220311759D01*
X112645208Y-220311755D01*
X112649416Y-220309176D01*
X112829969Y-220154969D01*
X112984176Y-219974416D01*
X112986755Y-219970208D01*
X112986759Y-219970202D01*
X113105654Y-219776183D01*
X113108240Y-219771963D01*
X113199105Y-219552594D01*
X113218360Y-219472391D01*
X113253380Y-219326524D01*
X113253381Y-219326518D01*
X113254535Y-219321711D01*
X113273165Y-219085000D01*
X113254535Y-218848289D01*
X113244503Y-218806500D01*
X113200260Y-218622218D01*
X113199105Y-218617406D01*
X113140216Y-218475234D01*
X113110135Y-218402611D01*
X113110133Y-218402607D01*
X113108240Y-218398037D01*
X113030050Y-218270443D01*
X112986759Y-218199798D01*
X112986755Y-218199792D01*
X112984176Y-218195584D01*
X112829969Y-218015031D01*
X112649416Y-217860824D01*
X112645208Y-217858245D01*
X112645202Y-217858241D01*
X112451183Y-217739346D01*
X112446963Y-217736760D01*
X112442393Y-217734867D01*
X112442389Y-217734865D01*
X112232167Y-217647789D01*
X112232165Y-217647788D01*
X112227594Y-217645895D01*
X112147391Y-217626640D01*
X112001524Y-217591620D01*
X112001518Y-217591619D01*
X111996711Y-217590465D01*
X111760000Y-217571835D01*
X111523289Y-217590465D01*
X111518482Y-217591619D01*
X111518476Y-217591620D01*
X111372609Y-217626640D01*
X111292406Y-217645895D01*
X111287835Y-217647788D01*
X111287833Y-217647789D01*
X111077611Y-217734865D01*
X111077607Y-217734867D01*
X111073037Y-217736760D01*
X111068817Y-217739346D01*
X110874798Y-217858241D01*
X110874792Y-217858245D01*
X110870584Y-217860824D01*
X110690031Y-218015031D01*
X110535824Y-218195584D01*
X110533245Y-218199792D01*
X110533241Y-218199798D01*
X110489950Y-218270443D01*
X110411760Y-218398037D01*
X110409867Y-218402607D01*
X110409865Y-218402611D01*
X110379784Y-218475234D01*
X110320895Y-218617406D01*
X110320280Y-218619966D01*
X110280574Y-218678039D01*
X110215179Y-218705678D01*
X110200811Y-218706500D01*
X105805147Y-218706500D01*
X105737026Y-218686498D01*
X105695754Y-218643023D01*
X105604270Y-218482960D01*
X105601951Y-218478902D01*
X105440138Y-218273643D01*
X105249763Y-218094557D01*
X105035009Y-217945576D01*
X105030816Y-217943508D01*
X104804781Y-217832040D01*
X104804778Y-217832039D01*
X104800593Y-217829975D01*
X104754449Y-217815204D01*
X104556123Y-217751720D01*
X104551665Y-217750293D01*
X104293693Y-217708279D01*
X104179942Y-217706790D01*
X104037022Y-217704919D01*
X104037019Y-217704919D01*
X104032345Y-217704858D01*
X103773362Y-217740104D01*
X103522433Y-217813243D01*
X103518180Y-217815203D01*
X103518179Y-217815204D01*
X103481659Y-217832040D01*
X103285072Y-217922668D01*
X103246067Y-217948241D01*
X103070404Y-218063410D01*
X103070399Y-218063414D01*
X103066491Y-218065976D01*
X102871494Y-218240018D01*
X102704363Y-218440970D01*
X102701934Y-218444973D01*
X102600077Y-218612829D01*
X102568771Y-218664419D01*
X102541595Y-218729228D01*
X102496808Y-218784311D01*
X102425399Y-218806500D01*
X94148866Y-218806500D01*
X94080745Y-218786498D01*
X94068552Y-218777586D01*
X94043424Y-218756799D01*
X94038675Y-218752870D01*
X93864701Y-218658802D01*
X93675768Y-218600318D01*
X93669643Y-218599674D01*
X93669642Y-218599674D01*
X93485204Y-218580289D01*
X93485202Y-218580289D01*
X93479075Y-218579645D01*
X93396576Y-218587153D01*
X93288251Y-218597011D01*
X93288248Y-218597012D01*
X93282112Y-218597570D01*
X93276206Y-218599308D01*
X93276202Y-218599309D01*
X93198364Y-218622218D01*
X93092381Y-218653410D01*
X93086923Y-218656263D01*
X93086919Y-218656265D01*
X93045270Y-218678039D01*
X92917110Y-218745040D01*
X92762975Y-218868968D01*
X92635846Y-219020474D01*
X92632879Y-219025872D01*
X92632875Y-219025877D01*
X92597662Y-219089930D01*
X92540567Y-219193787D01*
X92480765Y-219382306D01*
X92458719Y-219578851D01*
X84328500Y-219578851D01*
X84328500Y-209560000D01*
X89291835Y-209560000D01*
X89310465Y-209796711D01*
X89365895Y-210027594D01*
X89367788Y-210032165D01*
X89367789Y-210032167D01*
X89451677Y-210234691D01*
X89456760Y-210246963D01*
X89459346Y-210251183D01*
X89578241Y-210445202D01*
X89578245Y-210445208D01*
X89580824Y-210449416D01*
X89735031Y-210629969D01*
X89915584Y-210784176D01*
X89919792Y-210786755D01*
X89919798Y-210786759D01*
X90090498Y-210891364D01*
X90118037Y-210908240D01*
X90122607Y-210910133D01*
X90122611Y-210910135D01*
X90332833Y-210997211D01*
X90337406Y-210999105D01*
X90417609Y-211018360D01*
X90563476Y-211053380D01*
X90563482Y-211053381D01*
X90568289Y-211054535D01*
X90805000Y-211073165D01*
X91041711Y-211054535D01*
X91046518Y-211053381D01*
X91046524Y-211053380D01*
X91192391Y-211018360D01*
X91272594Y-210999105D01*
X91277167Y-210997211D01*
X91487389Y-210910135D01*
X91487393Y-210910133D01*
X91491963Y-210908240D01*
X91519502Y-210891364D01*
X91690202Y-210786759D01*
X91690208Y-210786755D01*
X91694416Y-210784176D01*
X91874969Y-210629969D01*
X92029176Y-210449416D01*
X92072533Y-210378664D01*
X92125181Y-210331033D01*
X92179965Y-210318500D01*
X97622462Y-210318500D01*
X97690583Y-210338502D01*
X97737076Y-210392158D01*
X97741986Y-210404624D01*
X97755523Y-210445199D01*
X97768450Y-210483946D01*
X97861522Y-210634348D01*
X97986697Y-210759305D01*
X97992927Y-210763145D01*
X97992928Y-210763146D01*
X98119104Y-210840922D01*
X98137262Y-210852115D01*
X98144209Y-210854419D01*
X98146276Y-210855383D01*
X98199561Y-210902299D01*
X98219023Y-210970576D01*
X98198482Y-211038536D01*
X98168681Y-211070337D01*
X98154965Y-211080635D01*
X98000629Y-211242138D01*
X97874743Y-211426680D01*
X97780688Y-211629305D01*
X97720989Y-211844570D01*
X97697251Y-212066695D01*
X97697548Y-212071848D01*
X97697548Y-212071851D01*
X97703011Y-212166590D01*
X97710110Y-212289715D01*
X97711247Y-212294761D01*
X97711248Y-212294767D01*
X97731119Y-212382939D01*
X97759222Y-212507639D01*
X97843266Y-212714616D01*
X97880072Y-212774678D01*
X97957288Y-212900683D01*
X97959987Y-212905088D01*
X98106250Y-213073938D01*
X98278126Y-213216632D01*
X98471000Y-213329338D01*
X98679692Y-213409030D01*
X98684760Y-213410061D01*
X98684763Y-213410062D01*
X98789604Y-213431392D01*
X98898597Y-213453567D01*
X98903772Y-213453757D01*
X98903774Y-213453757D01*
X99116673Y-213461564D01*
X99116677Y-213461564D01*
X99121837Y-213461753D01*
X99126957Y-213461097D01*
X99126959Y-213461097D01*
X99338288Y-213434025D01*
X99338289Y-213434025D01*
X99343416Y-213433368D01*
X99348366Y-213431883D01*
X99552429Y-213370661D01*
X99552434Y-213370659D01*
X99557384Y-213369174D01*
X99757994Y-213270896D01*
X99822544Y-213224853D01*
X100839977Y-213224853D01*
X100845258Y-213231907D01*
X101006756Y-213326279D01*
X101016042Y-213330729D01*
X101215001Y-213406703D01*
X101224899Y-213409579D01*
X101433595Y-213452038D01*
X101443823Y-213453257D01*
X101656650Y-213461062D01*
X101666936Y-213460595D01*
X101878185Y-213433534D01*
X101888262Y-213431392D01*
X102092255Y-213370191D01*
X102101842Y-213366433D01*
X102293098Y-213272738D01*
X102301944Y-213267465D01*
X102349247Y-213233723D01*
X102356211Y-213224853D01*
X103379977Y-213224853D01*
X103385258Y-213231907D01*
X103546756Y-213326279D01*
X103556042Y-213330729D01*
X103755001Y-213406703D01*
X103764899Y-213409579D01*
X103973595Y-213452038D01*
X103983823Y-213453257D01*
X104196650Y-213461062D01*
X104206936Y-213460595D01*
X104418185Y-213433534D01*
X104428262Y-213431392D01*
X104632255Y-213370191D01*
X104641842Y-213366433D01*
X104833098Y-213272738D01*
X104841944Y-213267465D01*
X104889247Y-213233723D01*
X104896211Y-213224853D01*
X105919977Y-213224853D01*
X105925258Y-213231907D01*
X106086756Y-213326279D01*
X106096042Y-213330729D01*
X106295001Y-213406703D01*
X106304899Y-213409579D01*
X106513595Y-213452038D01*
X106523823Y-213453257D01*
X106736650Y-213461062D01*
X106746936Y-213460595D01*
X106958185Y-213433534D01*
X106968262Y-213431392D01*
X107172255Y-213370191D01*
X107181842Y-213366433D01*
X107373098Y-213272738D01*
X107381944Y-213267465D01*
X107429247Y-213233723D01*
X107437648Y-213223023D01*
X107430660Y-213209870D01*
X106692812Y-212472022D01*
X106678868Y-212464408D01*
X106677035Y-212464539D01*
X106670420Y-212468790D01*
X105926737Y-213212473D01*
X105919977Y-213224853D01*
X104896211Y-213224853D01*
X104897648Y-213223023D01*
X104890660Y-213209870D01*
X104152812Y-212472022D01*
X104138868Y-212464408D01*
X104137035Y-212464539D01*
X104130420Y-212468790D01*
X103386737Y-213212473D01*
X103379977Y-213224853D01*
X102356211Y-213224853D01*
X102357648Y-213223023D01*
X102350660Y-213209870D01*
X101612812Y-212472022D01*
X101598868Y-212464408D01*
X101597035Y-212464539D01*
X101590420Y-212468790D01*
X100846737Y-213212473D01*
X100839977Y-213224853D01*
X99822544Y-213224853D01*
X99939860Y-213141173D01*
X100098096Y-212983489D01*
X100157594Y-212900689D01*
X100228453Y-212802077D01*
X100229640Y-212802930D01*
X100276960Y-212759362D01*
X100346897Y-212747145D01*
X100412338Y-212774678D01*
X100440166Y-212806512D01*
X100466459Y-212849419D01*
X100476916Y-212858880D01*
X100485694Y-212855096D01*
X101227978Y-212112812D01*
X101234356Y-212101132D01*
X101964408Y-212101132D01*
X101964539Y-212102965D01*
X101968790Y-212109580D01*
X102710474Y-212851264D01*
X102722484Y-212857823D01*
X102734223Y-212848855D01*
X102768022Y-212801819D01*
X102769149Y-212802629D01*
X102816659Y-212758881D01*
X102886596Y-212746661D01*
X102952038Y-212774191D01*
X102979870Y-212806029D01*
X103006459Y-212849419D01*
X103016916Y-212858880D01*
X103025694Y-212855096D01*
X103767978Y-212112812D01*
X103774356Y-212101132D01*
X104504408Y-212101132D01*
X104504539Y-212102965D01*
X104508790Y-212109580D01*
X105250474Y-212851264D01*
X105262484Y-212857823D01*
X105274223Y-212848855D01*
X105308022Y-212801819D01*
X105309149Y-212802629D01*
X105356659Y-212758881D01*
X105426596Y-212746661D01*
X105492038Y-212774191D01*
X105519870Y-212806029D01*
X105546459Y-212849419D01*
X105556916Y-212858880D01*
X105565694Y-212855096D01*
X106307978Y-212112812D01*
X106314356Y-212101132D01*
X107044408Y-212101132D01*
X107044539Y-212102965D01*
X107048790Y-212109580D01*
X107790474Y-212851264D01*
X107802484Y-212857823D01*
X107814223Y-212848855D01*
X107848022Y-212801819D01*
X107849277Y-212802721D01*
X107896391Y-212759355D01*
X107966330Y-212747148D01*
X108031767Y-212774691D01*
X108059580Y-212806513D01*
X108117287Y-212900683D01*
X108117291Y-212900688D01*
X108119987Y-212905088D01*
X108266250Y-213073938D01*
X108438126Y-213216632D01*
X108631000Y-213329338D01*
X108839692Y-213409030D01*
X108844760Y-213410061D01*
X108844763Y-213410062D01*
X108949604Y-213431392D01*
X109058597Y-213453567D01*
X109063772Y-213453757D01*
X109063774Y-213453757D01*
X109276673Y-213461564D01*
X109276677Y-213461564D01*
X109281837Y-213461753D01*
X109286957Y-213461097D01*
X109286959Y-213461097D01*
X109498288Y-213434025D01*
X109498289Y-213434025D01*
X109503416Y-213433368D01*
X109508366Y-213431883D01*
X109712429Y-213370661D01*
X109712434Y-213370659D01*
X109717384Y-213369174D01*
X109917994Y-213270896D01*
X110099860Y-213141173D01*
X110258096Y-212983489D01*
X110317594Y-212900689D01*
X110385435Y-212806277D01*
X110388453Y-212802077D01*
X110401995Y-212774678D01*
X110485136Y-212606453D01*
X110485137Y-212606451D01*
X110487430Y-212601811D01*
X110552370Y-212388069D01*
X110581529Y-212166590D01*
X110583156Y-212100000D01*
X110564852Y-211877361D01*
X110510431Y-211660702D01*
X110421354Y-211455840D01*
X110300014Y-211268277D01*
X110149670Y-211103051D01*
X110145616Y-211099849D01*
X110145615Y-211099848D01*
X109978414Y-210967800D01*
X109978410Y-210967798D01*
X109974359Y-210964598D01*
X109933053Y-210941796D01*
X109883084Y-210891364D01*
X109868312Y-210821921D01*
X109893428Y-210755516D01*
X109920780Y-210728909D01*
X109985110Y-210683023D01*
X110099860Y-210601173D01*
X110258096Y-210443489D01*
X110283615Y-210407976D01*
X110310203Y-210370974D01*
X110366198Y-210327326D01*
X110412526Y-210318500D01*
X116100035Y-210318500D01*
X116168156Y-210338502D01*
X116207466Y-210378663D01*
X116250824Y-210449416D01*
X116405031Y-210629969D01*
X116585584Y-210784176D01*
X116589792Y-210786755D01*
X116589798Y-210786759D01*
X116760498Y-210891364D01*
X116788037Y-210908240D01*
X116792607Y-210910133D01*
X116792611Y-210910135D01*
X117002833Y-210997211D01*
X117007406Y-210999105D01*
X117087609Y-211018360D01*
X117233476Y-211053380D01*
X117233482Y-211053381D01*
X117238289Y-211054535D01*
X117475000Y-211073165D01*
X117711711Y-211054535D01*
X117716518Y-211053381D01*
X117716524Y-211053380D01*
X117862391Y-211018360D01*
X117942594Y-210999105D01*
X117947167Y-210997211D01*
X118157389Y-210910135D01*
X118157393Y-210910133D01*
X118161963Y-210908240D01*
X118189502Y-210891364D01*
X118360202Y-210786759D01*
X118360208Y-210786755D01*
X118364416Y-210784176D01*
X118544969Y-210629969D01*
X118699176Y-210449416D01*
X118701755Y-210445208D01*
X118701759Y-210445202D01*
X118820654Y-210251183D01*
X118823240Y-210246963D01*
X118828324Y-210234691D01*
X118912211Y-210032167D01*
X118912212Y-210032165D01*
X118914105Y-210027594D01*
X118969535Y-209796711D01*
X118988165Y-209560000D01*
X118969535Y-209323289D01*
X118914105Y-209092406D01*
X118823240Y-208873037D01*
X118813998Y-208857955D01*
X118701759Y-208674798D01*
X118701755Y-208674792D01*
X118699176Y-208670584D01*
X118544969Y-208490031D01*
X118364416Y-208335824D01*
X118360208Y-208333245D01*
X118360202Y-208333241D01*
X118166183Y-208214346D01*
X118161963Y-208211760D01*
X118157393Y-208209867D01*
X118157389Y-208209865D01*
X117947167Y-208122789D01*
X117947165Y-208122788D01*
X117942594Y-208120895D01*
X117862391Y-208101640D01*
X117716524Y-208066620D01*
X117716518Y-208066619D01*
X117711711Y-208065465D01*
X117475000Y-208046835D01*
X117238289Y-208065465D01*
X117233482Y-208066619D01*
X117233476Y-208066620D01*
X117087609Y-208101640D01*
X117007406Y-208120895D01*
X117002835Y-208122788D01*
X117002833Y-208122789D01*
X116792611Y-208209865D01*
X116792607Y-208209867D01*
X116788037Y-208211760D01*
X116783817Y-208214346D01*
X116589798Y-208333241D01*
X116589792Y-208333245D01*
X116585584Y-208335824D01*
X116405031Y-208490031D01*
X116401823Y-208493787D01*
X116254037Y-208666822D01*
X116250824Y-208670584D01*
X116212813Y-208732612D01*
X116207467Y-208741336D01*
X116154819Y-208788967D01*
X116100035Y-208801500D01*
X110415939Y-208801500D01*
X110347818Y-208781498D01*
X110310147Y-208743941D01*
X110302818Y-208732612D01*
X110300014Y-208728277D01*
X110149670Y-208563051D01*
X110145619Y-208559852D01*
X110145615Y-208559848D01*
X109978414Y-208427800D01*
X109978410Y-208427798D01*
X109974359Y-208424598D01*
X109778789Y-208316638D01*
X109773920Y-208314914D01*
X109773916Y-208314912D01*
X109573087Y-208243795D01*
X109573083Y-208243794D01*
X109568212Y-208242069D01*
X109563119Y-208241162D01*
X109563116Y-208241161D01*
X109353373Y-208203800D01*
X109353367Y-208203799D01*
X109348284Y-208202894D01*
X109274452Y-208201992D01*
X109130081Y-208200228D01*
X109130079Y-208200228D01*
X109124911Y-208200165D01*
X108904091Y-208233955D01*
X108691756Y-208303357D01*
X108634349Y-208333241D01*
X108571678Y-208365866D01*
X108493607Y-208406507D01*
X108489474Y-208409610D01*
X108489471Y-208409612D01*
X108319100Y-208537530D01*
X108314965Y-208540635D01*
X108311393Y-208544373D01*
X108228580Y-208631032D01*
X108160629Y-208702138D01*
X108087693Y-208809059D01*
X108052898Y-208860066D01*
X107997987Y-208905069D01*
X107927462Y-208913240D01*
X107863715Y-208881986D01*
X107843017Y-208857501D01*
X107813062Y-208811197D01*
X107802377Y-208801995D01*
X107792812Y-208806398D01*
X107052022Y-209547188D01*
X107044408Y-209561132D01*
X107044539Y-209562965D01*
X107048790Y-209569580D01*
X107790474Y-210311264D01*
X107802484Y-210317823D01*
X107814223Y-210308855D01*
X107848022Y-210261819D01*
X107849277Y-210262721D01*
X107896391Y-210219355D01*
X107966330Y-210207148D01*
X108031767Y-210234691D01*
X108059580Y-210266513D01*
X108117287Y-210360683D01*
X108117291Y-210360688D01*
X108119987Y-210365088D01*
X108266250Y-210533938D01*
X108438126Y-210676632D01*
X108449063Y-210683023D01*
X108511445Y-210719476D01*
X108560169Y-210771114D01*
X108573240Y-210840897D01*
X108546509Y-210906669D01*
X108506055Y-210940027D01*
X108493607Y-210946507D01*
X108489474Y-210949610D01*
X108489471Y-210949612D01*
X108324914Y-211073165D01*
X108314965Y-211080635D01*
X108160629Y-211242138D01*
X108087693Y-211349059D01*
X108052898Y-211400066D01*
X107997987Y-211445069D01*
X107927462Y-211453240D01*
X107863715Y-211421986D01*
X107843017Y-211397501D01*
X107813062Y-211351197D01*
X107802377Y-211341995D01*
X107792812Y-211346398D01*
X107052022Y-212087188D01*
X107044408Y-212101132D01*
X106314356Y-212101132D01*
X106315592Y-212098868D01*
X106315461Y-212097035D01*
X106311210Y-212090420D01*
X105569849Y-211349059D01*
X105558313Y-211342759D01*
X105546028Y-211352384D01*
X105513192Y-211400520D01*
X105458281Y-211445523D01*
X105387756Y-211453694D01*
X105324009Y-211422440D01*
X105303311Y-211397955D01*
X105273062Y-211351197D01*
X105262377Y-211341995D01*
X105252812Y-211346398D01*
X104512022Y-212087188D01*
X104504408Y-212101132D01*
X103774356Y-212101132D01*
X103775592Y-212098868D01*
X103775461Y-212097035D01*
X103771210Y-212090420D01*
X103029849Y-211349059D01*
X103018313Y-211342759D01*
X103006028Y-211352384D01*
X102973192Y-211400520D01*
X102918281Y-211445523D01*
X102847756Y-211453694D01*
X102784009Y-211422440D01*
X102763311Y-211397955D01*
X102733062Y-211351197D01*
X102722377Y-211341995D01*
X102712812Y-211346398D01*
X101972022Y-212087188D01*
X101964408Y-212101132D01*
X101234356Y-212101132D01*
X101235592Y-212098868D01*
X101235461Y-212097035D01*
X101231210Y-212090420D01*
X100489849Y-211349059D01*
X100478313Y-211342759D01*
X100466031Y-211352382D01*
X100433499Y-211400072D01*
X100378587Y-211445075D01*
X100308063Y-211453246D01*
X100244316Y-211421992D01*
X100223618Y-211397508D01*
X100142822Y-211272617D01*
X100142820Y-211272614D01*
X100140014Y-211268277D01*
X99989670Y-211103051D01*
X99947006Y-211069357D01*
X99905944Y-211011441D01*
X99902712Y-210940518D01*
X99938337Y-210879107D01*
X99971647Y-210856376D01*
X99977007Y-210853865D01*
X99983946Y-210851550D01*
X100134348Y-210758478D01*
X100207845Y-210684853D01*
X100839977Y-210684853D01*
X100845258Y-210691907D01*
X100892479Y-210719501D01*
X100941203Y-210771139D01*
X100954274Y-210840922D01*
X100927543Y-210906694D01*
X100887087Y-210940053D01*
X100878466Y-210944541D01*
X100869734Y-210950039D01*
X100849677Y-210965099D01*
X100841223Y-210976427D01*
X100847968Y-210988758D01*
X101587188Y-211727978D01*
X101601132Y-211735592D01*
X101602965Y-211735461D01*
X101609580Y-211731210D01*
X102353389Y-210987401D01*
X102360410Y-210974544D01*
X102353611Y-210965213D01*
X102349559Y-210962521D01*
X102312116Y-210941852D01*
X102262145Y-210891420D01*
X102247373Y-210821977D01*
X102272489Y-210755572D01*
X102299840Y-210728965D01*
X102349247Y-210693723D01*
X102356211Y-210684853D01*
X103379977Y-210684853D01*
X103385258Y-210691907D01*
X103432479Y-210719501D01*
X103481203Y-210771139D01*
X103494274Y-210840922D01*
X103467543Y-210906694D01*
X103427087Y-210940053D01*
X103418466Y-210944541D01*
X103409734Y-210950039D01*
X103389677Y-210965099D01*
X103381223Y-210976427D01*
X103387968Y-210988758D01*
X104127188Y-211727978D01*
X104141132Y-211735592D01*
X104142965Y-211735461D01*
X104149580Y-211731210D01*
X104893389Y-210987401D01*
X104900410Y-210974544D01*
X104893611Y-210965213D01*
X104889559Y-210962521D01*
X104852116Y-210941852D01*
X104802145Y-210891420D01*
X104787373Y-210821977D01*
X104812489Y-210755572D01*
X104839840Y-210728965D01*
X104889247Y-210693723D01*
X104896211Y-210684853D01*
X105919977Y-210684853D01*
X105925258Y-210691907D01*
X105972479Y-210719501D01*
X106021203Y-210771139D01*
X106034274Y-210840922D01*
X106007543Y-210906694D01*
X105967087Y-210940053D01*
X105958466Y-210944541D01*
X105949734Y-210950039D01*
X105929677Y-210965099D01*
X105921223Y-210976427D01*
X105927968Y-210988758D01*
X106667188Y-211727978D01*
X106681132Y-211735592D01*
X106682965Y-211735461D01*
X106689580Y-211731210D01*
X107433389Y-210987401D01*
X107440410Y-210974544D01*
X107433611Y-210965213D01*
X107429559Y-210962521D01*
X107392116Y-210941852D01*
X107342145Y-210891420D01*
X107327373Y-210821977D01*
X107352489Y-210755572D01*
X107379840Y-210728965D01*
X107429247Y-210693723D01*
X107437648Y-210683023D01*
X107430660Y-210669870D01*
X106692812Y-209932022D01*
X106678868Y-209924408D01*
X106677035Y-209924539D01*
X106670420Y-209928790D01*
X105926737Y-210672473D01*
X105919977Y-210684853D01*
X104896211Y-210684853D01*
X104897648Y-210683023D01*
X104890660Y-210669870D01*
X104152812Y-209932022D01*
X104138868Y-209924408D01*
X104137035Y-209924539D01*
X104130420Y-209928790D01*
X103386737Y-210672473D01*
X103379977Y-210684853D01*
X102356211Y-210684853D01*
X102357648Y-210683023D01*
X102350660Y-210669870D01*
X101612812Y-209932022D01*
X101598868Y-209924408D01*
X101597035Y-209924539D01*
X101590420Y-209928790D01*
X100846737Y-210672473D01*
X100839977Y-210684853D01*
X100207845Y-210684853D01*
X100259305Y-210633303D01*
X100281357Y-210597529D01*
X100348275Y-210488968D01*
X100348276Y-210488966D01*
X100352115Y-210482738D01*
X100376913Y-210407975D01*
X100417342Y-210349616D01*
X100446630Y-210331934D01*
X100485694Y-210315096D01*
X101227978Y-209572812D01*
X101234356Y-209561132D01*
X101964408Y-209561132D01*
X101964539Y-209562965D01*
X101968790Y-209569580D01*
X102710474Y-210311264D01*
X102722484Y-210317823D01*
X102734223Y-210308855D01*
X102768022Y-210261819D01*
X102769149Y-210262629D01*
X102816659Y-210218881D01*
X102886596Y-210206661D01*
X102952038Y-210234191D01*
X102979870Y-210266029D01*
X103006459Y-210309419D01*
X103016916Y-210318880D01*
X103025694Y-210315096D01*
X103767978Y-209572812D01*
X103774356Y-209561132D01*
X104504408Y-209561132D01*
X104504539Y-209562965D01*
X104508790Y-209569580D01*
X105250474Y-210311264D01*
X105262484Y-210317823D01*
X105274223Y-210308855D01*
X105308022Y-210261819D01*
X105309149Y-210262629D01*
X105356659Y-210218881D01*
X105426596Y-210206661D01*
X105492038Y-210234191D01*
X105519870Y-210266029D01*
X105546459Y-210309419D01*
X105556916Y-210318880D01*
X105565694Y-210315096D01*
X106307978Y-209572812D01*
X106315592Y-209558868D01*
X106315461Y-209557035D01*
X106311210Y-209550420D01*
X105569849Y-208809059D01*
X105558313Y-208802759D01*
X105546028Y-208812384D01*
X105513192Y-208860520D01*
X105458281Y-208905523D01*
X105387756Y-208913694D01*
X105324009Y-208882440D01*
X105303311Y-208857955D01*
X105273062Y-208811197D01*
X105262377Y-208801995D01*
X105252812Y-208806398D01*
X104512022Y-209547188D01*
X104504408Y-209561132D01*
X103774356Y-209561132D01*
X103775592Y-209558868D01*
X103775461Y-209557035D01*
X103771210Y-209550420D01*
X103029849Y-208809059D01*
X103018313Y-208802759D01*
X103006028Y-208812384D01*
X102973192Y-208860520D01*
X102918281Y-208905523D01*
X102847756Y-208913694D01*
X102784009Y-208882440D01*
X102763311Y-208857955D01*
X102733062Y-208811197D01*
X102722377Y-208801995D01*
X102712812Y-208806398D01*
X101972022Y-209547188D01*
X101964408Y-209561132D01*
X101234356Y-209561132D01*
X101235592Y-209558868D01*
X101235461Y-209557035D01*
X101231210Y-209550420D01*
X100489849Y-208809059D01*
X100449510Y-208787031D01*
X100436523Y-208784206D01*
X100386322Y-208734003D01*
X100377388Y-208713497D01*
X100353870Y-208643007D01*
X100353869Y-208643005D01*
X100351550Y-208636054D01*
X100258478Y-208485652D01*
X100209167Y-208436427D01*
X100841223Y-208436427D01*
X100847968Y-208448758D01*
X101587188Y-209187978D01*
X101601132Y-209195592D01*
X101602965Y-209195461D01*
X101609580Y-209191210D01*
X102353389Y-208447401D01*
X102359382Y-208436427D01*
X103381223Y-208436427D01*
X103387968Y-208448758D01*
X104127188Y-209187978D01*
X104141132Y-209195592D01*
X104142965Y-209195461D01*
X104149580Y-209191210D01*
X104893389Y-208447401D01*
X104899382Y-208436427D01*
X105921223Y-208436427D01*
X105927968Y-208448758D01*
X106667188Y-209187978D01*
X106681132Y-209195592D01*
X106682965Y-209195461D01*
X106689580Y-209191210D01*
X107433389Y-208447401D01*
X107440410Y-208434544D01*
X107433611Y-208425213D01*
X107429554Y-208422518D01*
X107243117Y-208319599D01*
X107233705Y-208315369D01*
X107032959Y-208244280D01*
X107022989Y-208241646D01*
X106813327Y-208204301D01*
X106803073Y-208203331D01*
X106590116Y-208200728D01*
X106579832Y-208201448D01*
X106369321Y-208233661D01*
X106359293Y-208236050D01*
X106156868Y-208302212D01*
X106147359Y-208306209D01*
X105958466Y-208404540D01*
X105949734Y-208410039D01*
X105929677Y-208425099D01*
X105921223Y-208436427D01*
X104899382Y-208436427D01*
X104900410Y-208434544D01*
X104893611Y-208425213D01*
X104889554Y-208422518D01*
X104703117Y-208319599D01*
X104693705Y-208315369D01*
X104492959Y-208244280D01*
X104482989Y-208241646D01*
X104273327Y-208204301D01*
X104263073Y-208203331D01*
X104050116Y-208200728D01*
X104039832Y-208201448D01*
X103829321Y-208233661D01*
X103819293Y-208236050D01*
X103616868Y-208302212D01*
X103607359Y-208306209D01*
X103418466Y-208404540D01*
X103409734Y-208410039D01*
X103389677Y-208425099D01*
X103381223Y-208436427D01*
X102359382Y-208436427D01*
X102360410Y-208434544D01*
X102353611Y-208425213D01*
X102349554Y-208422518D01*
X102163117Y-208319599D01*
X102153705Y-208315369D01*
X101952959Y-208244280D01*
X101942989Y-208241646D01*
X101733327Y-208204301D01*
X101723073Y-208203331D01*
X101510116Y-208200728D01*
X101499832Y-208201448D01*
X101289321Y-208233661D01*
X101279293Y-208236050D01*
X101076868Y-208302212D01*
X101067359Y-208306209D01*
X100878466Y-208404540D01*
X100869734Y-208410039D01*
X100849677Y-208425099D01*
X100841223Y-208436427D01*
X100209167Y-208436427D01*
X100133303Y-208360695D01*
X100088765Y-208333241D01*
X99988968Y-208271725D01*
X99988966Y-208271724D01*
X99982738Y-208267885D01*
X99822254Y-208214655D01*
X99821389Y-208214368D01*
X99821387Y-208214368D01*
X99814861Y-208212203D01*
X99808025Y-208211503D01*
X99808022Y-208211502D01*
X99764969Y-208207091D01*
X99710400Y-208201500D01*
X98409600Y-208201500D01*
X98406354Y-208201837D01*
X98406350Y-208201837D01*
X98310692Y-208211762D01*
X98310688Y-208211763D01*
X98303834Y-208212474D01*
X98297298Y-208214655D01*
X98297296Y-208214655D01*
X98234631Y-208235562D01*
X98136054Y-208268450D01*
X97985652Y-208361522D01*
X97980479Y-208366704D01*
X97924762Y-208422518D01*
X97860695Y-208486697D01*
X97856855Y-208492927D01*
X97856854Y-208492928D01*
X97813630Y-208563051D01*
X97767885Y-208637262D01*
X97756833Y-208670584D01*
X97742045Y-208715167D01*
X97701614Y-208773527D01*
X97636050Y-208800764D01*
X97622452Y-208801500D01*
X92179965Y-208801500D01*
X92111844Y-208781498D01*
X92072533Y-208741336D01*
X92067187Y-208732612D01*
X92029176Y-208670584D01*
X92025963Y-208666822D01*
X91878177Y-208493787D01*
X91874969Y-208490031D01*
X91694416Y-208335824D01*
X91690208Y-208333245D01*
X91690202Y-208333241D01*
X91496183Y-208214346D01*
X91491963Y-208211760D01*
X91487393Y-208209867D01*
X91487389Y-208209865D01*
X91277167Y-208122789D01*
X91277165Y-208122788D01*
X91272594Y-208120895D01*
X91192391Y-208101640D01*
X91046524Y-208066620D01*
X91046518Y-208066619D01*
X91041711Y-208065465D01*
X90805000Y-208046835D01*
X90568289Y-208065465D01*
X90563482Y-208066619D01*
X90563476Y-208066620D01*
X90417609Y-208101640D01*
X90337406Y-208120895D01*
X90332835Y-208122788D01*
X90332833Y-208122789D01*
X90122611Y-208209865D01*
X90122607Y-208209867D01*
X90118037Y-208211760D01*
X90113817Y-208214346D01*
X89919798Y-208333241D01*
X89919792Y-208333245D01*
X89915584Y-208335824D01*
X89735031Y-208490031D01*
X89580824Y-208670584D01*
X89578245Y-208674792D01*
X89578241Y-208674798D01*
X89466002Y-208857955D01*
X89456760Y-208873037D01*
X89365895Y-209092406D01*
X89310465Y-209323289D01*
X89291835Y-209560000D01*
X84328500Y-209560000D01*
X84328500Y-198339669D01*
X97792001Y-198339669D01*
X97792371Y-198346490D01*
X97797895Y-198397352D01*
X97801521Y-198412604D01*
X97846676Y-198533054D01*
X97855214Y-198548649D01*
X97931715Y-198650724D01*
X97944276Y-198663285D01*
X98046351Y-198739786D01*
X98061946Y-198748324D01*
X98182394Y-198793478D01*
X98197649Y-198797105D01*
X98248514Y-198802631D01*
X98255328Y-198803000D01*
X98827885Y-198803000D01*
X98843124Y-198798525D01*
X98844329Y-198797135D01*
X98846000Y-198789452D01*
X98846000Y-198784884D01*
X99354000Y-198784884D01*
X99358475Y-198800123D01*
X99359865Y-198801328D01*
X99367548Y-198802999D01*
X99944669Y-198802999D01*
X99951490Y-198802629D01*
X100002352Y-198797105D01*
X100017604Y-198793479D01*
X100138054Y-198748324D01*
X100153649Y-198739786D01*
X100255724Y-198663285D01*
X100268285Y-198650724D01*
X100344786Y-198548649D01*
X100353324Y-198533054D01*
X100401252Y-198405207D01*
X100403112Y-198405904D01*
X100433131Y-198353372D01*
X100496090Y-198320558D01*
X100566794Y-198326992D01*
X100609581Y-198355079D01*
X100755700Y-198501198D01*
X100760208Y-198504355D01*
X100760211Y-198504357D01*
X100801195Y-198533054D01*
X100943251Y-198632523D01*
X100948233Y-198634846D01*
X100948238Y-198634849D01*
X101144765Y-198726490D01*
X101150757Y-198729284D01*
X101156065Y-198730706D01*
X101156067Y-198730707D01*
X101366598Y-198787119D01*
X101366600Y-198787119D01*
X101371913Y-198788543D01*
X101600000Y-198808498D01*
X101828087Y-198788543D01*
X101833400Y-198787119D01*
X101833402Y-198787119D01*
X102043933Y-198730707D01*
X102043935Y-198730706D01*
X102049243Y-198729284D01*
X102055235Y-198726490D01*
X102251762Y-198634849D01*
X102251767Y-198634846D01*
X102256749Y-198632523D01*
X102398805Y-198533054D01*
X102439789Y-198504357D01*
X102439792Y-198504355D01*
X102444300Y-198501198D01*
X102606198Y-198339300D01*
X102619322Y-198320558D01*
X102734366Y-198156257D01*
X102737523Y-198151749D01*
X102739846Y-198146767D01*
X102739849Y-198146762D01*
X102831961Y-197949225D01*
X102831961Y-197949224D01*
X102834284Y-197944243D01*
X102854976Y-197867022D01*
X102892119Y-197728402D01*
X102892119Y-197728400D01*
X102893543Y-197723087D01*
X102913498Y-197495000D01*
X102893543Y-197266913D01*
X102885028Y-197235135D01*
X102835707Y-197051067D01*
X102835706Y-197051065D01*
X102834284Y-197045757D01*
X102739966Y-196843489D01*
X102739849Y-196843238D01*
X102739846Y-196843233D01*
X102737523Y-196838251D01*
X102644042Y-196704747D01*
X102609357Y-196655211D01*
X102609355Y-196655208D01*
X102606198Y-196650700D01*
X102444300Y-196488802D01*
X102439792Y-196485645D01*
X102439789Y-196485643D01*
X102313920Y-196397509D01*
X102256749Y-196357477D01*
X102251767Y-196355154D01*
X102251762Y-196355151D01*
X102054225Y-196263039D01*
X102054224Y-196263039D01*
X102049243Y-196260716D01*
X102043935Y-196259294D01*
X102043933Y-196259293D01*
X101833402Y-196202881D01*
X101833400Y-196202881D01*
X101828087Y-196201457D01*
X101600000Y-196181502D01*
X101371913Y-196201457D01*
X101366600Y-196202881D01*
X101366598Y-196202881D01*
X101156067Y-196259293D01*
X101156065Y-196259294D01*
X101150757Y-196260716D01*
X101145776Y-196263039D01*
X101145775Y-196263039D01*
X100948238Y-196355151D01*
X100948233Y-196355154D01*
X100943251Y-196357477D01*
X100886080Y-196397509D01*
X100760211Y-196485643D01*
X100760208Y-196485645D01*
X100755700Y-196488802D01*
X100609580Y-196634922D01*
X100547268Y-196668948D01*
X100476453Y-196663883D01*
X100419617Y-196621336D01*
X100402317Y-196584394D01*
X100401252Y-196584793D01*
X100353324Y-196456946D01*
X100344786Y-196441351D01*
X100268285Y-196339276D01*
X100255724Y-196326715D01*
X100153649Y-196250214D01*
X100138054Y-196241676D01*
X100017606Y-196196522D01*
X100002351Y-196192895D01*
X99951486Y-196187369D01*
X99944672Y-196187000D01*
X99372115Y-196187000D01*
X99356876Y-196191475D01*
X99355671Y-196192865D01*
X99354000Y-196200548D01*
X99354000Y-198784884D01*
X98846000Y-198784884D01*
X98846000Y-197767115D01*
X98841525Y-197751876D01*
X98840135Y-197750671D01*
X98832452Y-197749000D01*
X97810116Y-197749000D01*
X97794877Y-197753475D01*
X97793672Y-197754865D01*
X97792001Y-197762548D01*
X97792001Y-198339669D01*
X84328500Y-198339669D01*
X84328500Y-197222885D01*
X97792000Y-197222885D01*
X97796475Y-197238124D01*
X97797865Y-197239329D01*
X97805548Y-197241000D01*
X98827885Y-197241000D01*
X98843124Y-197236525D01*
X98844329Y-197235135D01*
X98846000Y-197227452D01*
X98846000Y-196205116D01*
X98841525Y-196189877D01*
X98840135Y-196188672D01*
X98832452Y-196187001D01*
X98255331Y-196187001D01*
X98248510Y-196187371D01*
X98197648Y-196192895D01*
X98182396Y-196196521D01*
X98061946Y-196241676D01*
X98046351Y-196250214D01*
X97944276Y-196326715D01*
X97931715Y-196339276D01*
X97855214Y-196441351D01*
X97846676Y-196456946D01*
X97801522Y-196577394D01*
X97797895Y-196592649D01*
X97792369Y-196643514D01*
X97792000Y-196650328D01*
X97792000Y-197222885D01*
X84328500Y-197222885D01*
X84328500Y-193898134D01*
X90806500Y-193898134D01*
X90813255Y-193960316D01*
X90864385Y-194096705D01*
X90951739Y-194213261D01*
X91068295Y-194300615D01*
X91204684Y-194351745D01*
X91266866Y-194358500D01*
X92963134Y-194358500D01*
X93025316Y-194351745D01*
X93161705Y-194300615D01*
X93278261Y-194213261D01*
X93365615Y-194096705D01*
X93416745Y-193960316D01*
X93418691Y-193961046D01*
X93448545Y-193908795D01*
X93511503Y-193875979D01*
X93582207Y-193882409D01*
X93625000Y-193910498D01*
X93770700Y-194056198D01*
X93775208Y-194059355D01*
X93775211Y-194059357D01*
X93808056Y-194082355D01*
X93958251Y-194187523D01*
X93963233Y-194189846D01*
X93963238Y-194189849D01*
X94160775Y-194281961D01*
X94165757Y-194284284D01*
X94171065Y-194285706D01*
X94171067Y-194285707D01*
X94381598Y-194342119D01*
X94381600Y-194342119D01*
X94386913Y-194343543D01*
X94615000Y-194363498D01*
X94843087Y-194343543D01*
X94848400Y-194342119D01*
X94848402Y-194342119D01*
X95058933Y-194285707D01*
X95058935Y-194285706D01*
X95064243Y-194284284D01*
X95069225Y-194281961D01*
X95266762Y-194189849D01*
X95266767Y-194189846D01*
X95271749Y-194187523D01*
X95284134Y-194178851D01*
X102364719Y-194178851D01*
X102367608Y-194213261D01*
X102380224Y-194363498D01*
X102381268Y-194375934D01*
X102435783Y-194566050D01*
X102526187Y-194741956D01*
X102649035Y-194896953D01*
X102799650Y-195025136D01*
X102972294Y-195121624D01*
X102978154Y-195123528D01*
X103154531Y-195180836D01*
X103154534Y-195180837D01*
X103160392Y-195182740D01*
X103254463Y-195193958D01*
X103269970Y-195195807D01*
X103335243Y-195223735D01*
X103344145Y-195231826D01*
X105334595Y-197222276D01*
X105368621Y-197284588D01*
X105371500Y-197311371D01*
X105371500Y-198343134D01*
X105378255Y-198405316D01*
X105429385Y-198541705D01*
X105516739Y-198658261D01*
X105633295Y-198745615D01*
X105769684Y-198796745D01*
X105831866Y-198803500D01*
X107528134Y-198803500D01*
X107590316Y-198796745D01*
X107726705Y-198745615D01*
X107843261Y-198658261D01*
X107901119Y-198581062D01*
X108458493Y-198581062D01*
X108467789Y-198593077D01*
X108518994Y-198628931D01*
X108528489Y-198634414D01*
X108725947Y-198726490D01*
X108736239Y-198730236D01*
X108946688Y-198786625D01*
X108957481Y-198788528D01*
X109174525Y-198807517D01*
X109185475Y-198807517D01*
X109402519Y-198788528D01*
X109413312Y-198786625D01*
X109623761Y-198730236D01*
X109634053Y-198726490D01*
X109831511Y-198634414D01*
X109841006Y-198628931D01*
X109893048Y-198592491D01*
X109901424Y-198582012D01*
X109894356Y-198568566D01*
X109192812Y-197867022D01*
X109178868Y-197859408D01*
X109177035Y-197859539D01*
X109170420Y-197863790D01*
X108464923Y-198569287D01*
X108458493Y-198581062D01*
X107901119Y-198581062D01*
X107930615Y-198541705D01*
X107981745Y-198405316D01*
X107988500Y-198343134D01*
X107988500Y-198339815D01*
X108012153Y-198272890D01*
X108058156Y-198237196D01*
X108057141Y-198235266D01*
X108068000Y-198229558D01*
X108068245Y-198229368D01*
X108068403Y-198229347D01*
X108106434Y-198209356D01*
X108807978Y-197507812D01*
X108814356Y-197496132D01*
X109544408Y-197496132D01*
X109544539Y-197497965D01*
X109548790Y-197504580D01*
X110254287Y-198210077D01*
X110266062Y-198216507D01*
X110278077Y-198207211D01*
X110313931Y-198156006D01*
X110319414Y-198146511D01*
X110411490Y-197949053D01*
X110415236Y-197938761D01*
X110471625Y-197728312D01*
X110473528Y-197717519D01*
X110492517Y-197500475D01*
X110492517Y-197489525D01*
X110473528Y-197272481D01*
X110471625Y-197261688D01*
X110415236Y-197051239D01*
X110411490Y-197040947D01*
X110319414Y-196843489D01*
X110313931Y-196833994D01*
X110277491Y-196781952D01*
X110267012Y-196773576D01*
X110253566Y-196780644D01*
X109552022Y-197482188D01*
X109544408Y-197496132D01*
X108814356Y-197496132D01*
X108815592Y-197493868D01*
X108815461Y-197492035D01*
X108811210Y-197485420D01*
X108105713Y-196779923D01*
X108063971Y-196757129D01*
X108053971Y-196754953D01*
X108003773Y-196704747D01*
X107988549Y-196651186D01*
X107988500Y-196650281D01*
X107988500Y-196646866D01*
X107987203Y-196634922D01*
X107982598Y-196592540D01*
X107981745Y-196584684D01*
X107930615Y-196448295D01*
X107900407Y-196407988D01*
X108458576Y-196407988D01*
X108465644Y-196421434D01*
X109167188Y-197122978D01*
X109181132Y-197130592D01*
X109182965Y-197130461D01*
X109189580Y-197126210D01*
X109895077Y-196420713D01*
X109901507Y-196408938D01*
X109892211Y-196396923D01*
X109841006Y-196361069D01*
X109831511Y-196355586D01*
X109634053Y-196263510D01*
X109623761Y-196259764D01*
X109413312Y-196203375D01*
X109402519Y-196201472D01*
X109185475Y-196182483D01*
X109174525Y-196182483D01*
X108957481Y-196201472D01*
X108946688Y-196203375D01*
X108736239Y-196259764D01*
X108725947Y-196263510D01*
X108528489Y-196355586D01*
X108518994Y-196361069D01*
X108466952Y-196397509D01*
X108458576Y-196407988D01*
X107900407Y-196407988D01*
X107843261Y-196331739D01*
X107726705Y-196244385D01*
X107590316Y-196193255D01*
X107528134Y-196186500D01*
X106496371Y-196186500D01*
X106428250Y-196166498D01*
X106407276Y-196149595D01*
X104416835Y-194159154D01*
X104382809Y-194096842D01*
X104380531Y-194082355D01*
X104372681Y-194002299D01*
X104372080Y-193996167D01*
X104342482Y-193898134D01*
X112356500Y-193898134D01*
X112363255Y-193960316D01*
X112414385Y-194096705D01*
X112501739Y-194213261D01*
X112618295Y-194300615D01*
X112754684Y-194351745D01*
X112816866Y-194358500D01*
X114513134Y-194358500D01*
X114575316Y-194351745D01*
X114711705Y-194300615D01*
X114828261Y-194213261D01*
X114915615Y-194096705D01*
X114966745Y-193960316D01*
X114968691Y-193961046D01*
X114998545Y-193908795D01*
X115061503Y-193875979D01*
X115132207Y-193882409D01*
X115175000Y-193910498D01*
X115320700Y-194056198D01*
X115325208Y-194059355D01*
X115325211Y-194059357D01*
X115358056Y-194082355D01*
X115508251Y-194187523D01*
X115513233Y-194189846D01*
X115513238Y-194189849D01*
X115710775Y-194281961D01*
X115715757Y-194284284D01*
X115721065Y-194285706D01*
X115721067Y-194285707D01*
X115931598Y-194342119D01*
X115931600Y-194342119D01*
X115936913Y-194343543D01*
X116165000Y-194363498D01*
X116393087Y-194343543D01*
X116398400Y-194342119D01*
X116398402Y-194342119D01*
X116608933Y-194285707D01*
X116608935Y-194285706D01*
X116614243Y-194284284D01*
X116619225Y-194281961D01*
X116816762Y-194189849D01*
X116816767Y-194189846D01*
X116821749Y-194187523D01*
X116971944Y-194082355D01*
X117004789Y-194059357D01*
X117004792Y-194059355D01*
X117009300Y-194056198D01*
X117171198Y-193894300D01*
X117179525Y-193882409D01*
X117299366Y-193711257D01*
X117302523Y-193706749D01*
X117304846Y-193701767D01*
X117304849Y-193701762D01*
X117396961Y-193504225D01*
X117396961Y-193504224D01*
X117399284Y-193499243D01*
X117406131Y-193473692D01*
X117457119Y-193283402D01*
X117457119Y-193283400D01*
X117458543Y-193278087D01*
X117478498Y-193050000D01*
X117458543Y-192821913D01*
X117399284Y-192600757D01*
X117356500Y-192509006D01*
X117304849Y-192398238D01*
X117304846Y-192398233D01*
X117302523Y-192393251D01*
X117229098Y-192288389D01*
X117174357Y-192210211D01*
X117174355Y-192210208D01*
X117171198Y-192205700D01*
X117009300Y-192043802D01*
X117004792Y-192040645D01*
X117004789Y-192040643D01*
X116926611Y-191985902D01*
X116821749Y-191912477D01*
X116816767Y-191910154D01*
X116816762Y-191910151D01*
X116619225Y-191818039D01*
X116619224Y-191818039D01*
X116614243Y-191815716D01*
X116608935Y-191814294D01*
X116608933Y-191814293D01*
X116398402Y-191757881D01*
X116398400Y-191757881D01*
X116393087Y-191756457D01*
X116387611Y-191755978D01*
X116387606Y-191755977D01*
X116222127Y-191741500D01*
X116199472Y-191739518D01*
X116133353Y-191713655D01*
X116091714Y-191656151D01*
X116087773Y-191585264D01*
X116121358Y-191524902D01*
X116758553Y-190887707D01*
X116820865Y-190853681D01*
X116891680Y-190858746D01*
X116929311Y-190880848D01*
X117018958Y-190957143D01*
X117023650Y-190961136D01*
X117196294Y-191057624D01*
X117384392Y-191118740D01*
X117580777Y-191142158D01*
X117586912Y-191141686D01*
X117586914Y-191141686D01*
X117771830Y-191127457D01*
X117771834Y-191127456D01*
X117777972Y-191126984D01*
X117968463Y-191073798D01*
X117973967Y-191071018D01*
X117973969Y-191071017D01*
X118139495Y-190987404D01*
X118139497Y-190987403D01*
X118144996Y-190984625D01*
X118300847Y-190862861D01*
X118430078Y-190713145D01*
X118527769Y-190541179D01*
X118590197Y-190353513D01*
X118614985Y-190157295D01*
X118615380Y-190129000D01*
X118596080Y-189932167D01*
X118538916Y-189742831D01*
X118446066Y-189568204D01*
X118368777Y-189473438D01*
X118324960Y-189419713D01*
X118324957Y-189419710D01*
X118321065Y-189414938D01*
X118316316Y-189411009D01*
X118173425Y-189292799D01*
X118173421Y-189292797D01*
X118168675Y-189288870D01*
X117994701Y-189194802D01*
X117805768Y-189136318D01*
X117799643Y-189135674D01*
X117799642Y-189135674D01*
X117615204Y-189116289D01*
X117615202Y-189116289D01*
X117609075Y-189115645D01*
X117526576Y-189123153D01*
X117418251Y-189133011D01*
X117418248Y-189133012D01*
X117412112Y-189133570D01*
X117406206Y-189135308D01*
X117406202Y-189135309D01*
X117301076Y-189166249D01*
X117222381Y-189189410D01*
X117216923Y-189192263D01*
X117216919Y-189192265D01*
X117126147Y-189239720D01*
X117047110Y-189281040D01*
X116892975Y-189404968D01*
X116889013Y-189409690D01*
X116875753Y-189425492D01*
X116816643Y-189464818D01*
X116779232Y-189470500D01*
X116668059Y-189470500D01*
X116656203Y-189469941D01*
X116648463Y-189468211D01*
X116640537Y-189468460D01*
X116640536Y-189468460D01*
X116577611Y-189470438D01*
X116573653Y-189470500D01*
X116544568Y-189470500D01*
X116540637Y-189470997D01*
X116540630Y-189470997D01*
X116540179Y-189471054D01*
X116528343Y-189471986D01*
X116482169Y-189473438D01*
X116461579Y-189479420D01*
X116442218Y-189483430D01*
X116435230Y-189484312D01*
X116428796Y-189485125D01*
X116428795Y-189485125D01*
X116420936Y-189486118D01*
X116413571Y-189489034D01*
X116413567Y-189489035D01*
X116377979Y-189503126D01*
X116366769Y-189506965D01*
X116322400Y-189519855D01*
X116303935Y-189530775D01*
X116286195Y-189539466D01*
X116266244Y-189547365D01*
X116230073Y-189573645D01*
X116228874Y-189574516D01*
X116218952Y-189581033D01*
X116186023Y-189600507D01*
X116186019Y-189600510D01*
X116179193Y-189604547D01*
X116164029Y-189619711D01*
X116148996Y-189632551D01*
X116131643Y-189645159D01*
X116102198Y-189680752D01*
X116094208Y-189689532D01*
X114079145Y-191704595D01*
X114016833Y-191738621D01*
X113990050Y-191741500D01*
X112816866Y-191741500D01*
X112754684Y-191748255D01*
X112618295Y-191799385D01*
X112501739Y-191886739D01*
X112414385Y-192003295D01*
X112363255Y-192139684D01*
X112356500Y-192201866D01*
X112356500Y-193898134D01*
X104342482Y-193898134D01*
X104314916Y-193806831D01*
X104222066Y-193632204D01*
X104117689Y-193504225D01*
X104100960Y-193483713D01*
X104100957Y-193483710D01*
X104097065Y-193478938D01*
X104090724Y-193473692D01*
X103949425Y-193356799D01*
X103949421Y-193356797D01*
X103944675Y-193352870D01*
X103770701Y-193258802D01*
X103581768Y-193200318D01*
X103575643Y-193199674D01*
X103575642Y-193199674D01*
X103391204Y-193180289D01*
X103391202Y-193180289D01*
X103385075Y-193179645D01*
X103302576Y-193187153D01*
X103194251Y-193197011D01*
X103194248Y-193197012D01*
X103188112Y-193197570D01*
X103182206Y-193199308D01*
X103182202Y-193199309D01*
X103077076Y-193230249D01*
X102998381Y-193253410D01*
X102992923Y-193256263D01*
X102992919Y-193256265D01*
X102941012Y-193283402D01*
X102823110Y-193345040D01*
X102668975Y-193468968D01*
X102541846Y-193620474D01*
X102538879Y-193625872D01*
X102538875Y-193625877D01*
X102535397Y-193632204D01*
X102446567Y-193793787D01*
X102444706Y-193799654D01*
X102444705Y-193799656D01*
X102388627Y-193976436D01*
X102386765Y-193982306D01*
X102364719Y-194178851D01*
X95284134Y-194178851D01*
X95421944Y-194082355D01*
X95454789Y-194059357D01*
X95454792Y-194059355D01*
X95459300Y-194056198D01*
X95621198Y-193894300D01*
X95629525Y-193882409D01*
X95749366Y-193711257D01*
X95752523Y-193706749D01*
X95754846Y-193701767D01*
X95754849Y-193701762D01*
X95846961Y-193504225D01*
X95846961Y-193504224D01*
X95849284Y-193499243D01*
X95856131Y-193473692D01*
X95907119Y-193283402D01*
X95907119Y-193283400D01*
X95908543Y-193278087D01*
X95928498Y-193050000D01*
X95908543Y-192821913D01*
X95849284Y-192600757D01*
X95806500Y-192509006D01*
X95754849Y-192398238D01*
X95754846Y-192398233D01*
X95752523Y-192393251D01*
X95679098Y-192288389D01*
X95624357Y-192210211D01*
X95624355Y-192210208D01*
X95621198Y-192205700D01*
X95459300Y-192043802D01*
X95454792Y-192040645D01*
X95454789Y-192040643D01*
X95376611Y-191985902D01*
X95271749Y-191912477D01*
X95266767Y-191910154D01*
X95266762Y-191910151D01*
X95069225Y-191818039D01*
X95069224Y-191818039D01*
X95064243Y-191815716D01*
X95058935Y-191814294D01*
X95058933Y-191814293D01*
X94848402Y-191757881D01*
X94848400Y-191757881D01*
X94843087Y-191756457D01*
X94615000Y-191736502D01*
X94386913Y-191756457D01*
X94381600Y-191757881D01*
X94381598Y-191757881D01*
X94171067Y-191814293D01*
X94171065Y-191814294D01*
X94165757Y-191815716D01*
X94160776Y-191818039D01*
X94160775Y-191818039D01*
X93963238Y-191910151D01*
X93963233Y-191910154D01*
X93958251Y-191912477D01*
X93853389Y-191985902D01*
X93775211Y-192040643D01*
X93775208Y-192040645D01*
X93770700Y-192043802D01*
X93625000Y-192189502D01*
X93562688Y-192223528D01*
X93491873Y-192218463D01*
X93435037Y-192175916D01*
X93417868Y-192139263D01*
X93416745Y-192139684D01*
X93368767Y-192011703D01*
X93365615Y-192003295D01*
X93278261Y-191886739D01*
X93161705Y-191799385D01*
X93025316Y-191748255D01*
X92963134Y-191741500D01*
X91266866Y-191741500D01*
X91204684Y-191748255D01*
X91068295Y-191799385D01*
X90951739Y-191886739D01*
X90864385Y-192003295D01*
X90813255Y-192139684D01*
X90806500Y-192201866D01*
X90806500Y-193898134D01*
X84328500Y-193898134D01*
X84328500Y-181224851D01*
X85600719Y-181224851D01*
X85617268Y-181421934D01*
X85671783Y-181612050D01*
X85762187Y-181787956D01*
X85885035Y-181942953D01*
X86035650Y-182071136D01*
X86208294Y-182167624D01*
X86396392Y-182228740D01*
X86592777Y-182252158D01*
X86598912Y-182251686D01*
X86598914Y-182251686D01*
X86634612Y-182248939D01*
X86704067Y-182263656D01*
X86719190Y-182274551D01*
X86719674Y-182273885D01*
X86726086Y-182278544D01*
X86731867Y-182283972D01*
X86738818Y-182287793D01*
X86738819Y-182287794D01*
X86750655Y-182294301D01*
X86767184Y-182305158D01*
X86777869Y-182313447D01*
X86777871Y-182313448D01*
X86784131Y-182318304D01*
X86826544Y-182336657D01*
X86837181Y-182341868D01*
X86877663Y-182364124D01*
X86885342Y-182366096D01*
X86885343Y-182366096D01*
X86898434Y-182369457D01*
X86917136Y-182375859D01*
X86936823Y-182384379D01*
X86944652Y-182385619D01*
X86982448Y-182391605D01*
X86994074Y-182394013D01*
X87031135Y-182403529D01*
X87031136Y-182403529D01*
X87038812Y-182405500D01*
X87060258Y-182405500D01*
X87079968Y-182407051D01*
X87101151Y-182410406D01*
X87147135Y-182406059D01*
X87158994Y-182405500D01*
X104525944Y-182405500D01*
X104537800Y-182406059D01*
X104537803Y-182406059D01*
X104545537Y-182407788D01*
X104616369Y-182405562D01*
X104620327Y-182405500D01*
X104649432Y-182405500D01*
X104653832Y-182404944D01*
X104665664Y-182404012D01*
X104711831Y-182402562D01*
X104732421Y-182396580D01*
X104751782Y-182392570D01*
X104759424Y-182391605D01*
X104765204Y-182390875D01*
X104765205Y-182390875D01*
X104773064Y-182389882D01*
X104780429Y-182386966D01*
X104780433Y-182386965D01*
X104816021Y-182372874D01*
X104827231Y-182369035D01*
X104871600Y-182356145D01*
X104890065Y-182345225D01*
X104907805Y-182336534D01*
X104927756Y-182328635D01*
X104965129Y-182301482D01*
X104975048Y-182294967D01*
X105007977Y-182275493D01*
X105007981Y-182275490D01*
X105014807Y-182271453D01*
X105029971Y-182256289D01*
X105045005Y-182243448D01*
X105055943Y-182235501D01*
X105062357Y-182230841D01*
X105091803Y-182195247D01*
X105099792Y-182186468D01*
X106171527Y-181114733D01*
X106233839Y-181080707D01*
X106285742Y-181080357D01*
X106317465Y-181086811D01*
X106472656Y-181118385D01*
X106603324Y-181123176D01*
X106698949Y-181126683D01*
X106698953Y-181126683D01*
X106704113Y-181126872D01*
X106709233Y-181126216D01*
X106709235Y-181126216D01*
X106798871Y-181114733D01*
X106933847Y-181097442D01*
X106938795Y-181095957D01*
X106938802Y-181095956D01*
X107150747Y-181032369D01*
X107155690Y-181030886D01*
X107160324Y-181028616D01*
X107359049Y-180931262D01*
X107359052Y-180931260D01*
X107363684Y-180928991D01*
X107552243Y-180794494D01*
X107716303Y-180631005D01*
X107851458Y-180442917D01*
X107871286Y-180402799D01*
X107951784Y-180239922D01*
X107951785Y-180239920D01*
X107954078Y-180235280D01*
X108021408Y-180013671D01*
X108051640Y-179784041D01*
X108053327Y-179715000D01*
X108047032Y-179638434D01*
X108034773Y-179489318D01*
X108034772Y-179489312D01*
X108034349Y-179484167D01*
X107977925Y-179259533D01*
X107885570Y-179047131D01*
X107759764Y-178852665D01*
X107603887Y-178681358D01*
X107599836Y-178678159D01*
X107599832Y-178678155D01*
X107426177Y-178541011D01*
X107426172Y-178541008D01*
X107422123Y-178537810D01*
X107417607Y-178535317D01*
X107417604Y-178535315D01*
X107223879Y-178428373D01*
X107223875Y-178428371D01*
X107219355Y-178425876D01*
X107214486Y-178424152D01*
X107214482Y-178424150D01*
X107005903Y-178350288D01*
X107005899Y-178350287D01*
X107001028Y-178348562D01*
X106995935Y-178347655D01*
X106995932Y-178347654D01*
X106778095Y-178308851D01*
X106778089Y-178308850D01*
X106773006Y-178307945D01*
X106695644Y-178307000D01*
X106546581Y-178305179D01*
X106546579Y-178305179D01*
X106541411Y-178305116D01*
X106312464Y-178340150D01*
X106092314Y-178412106D01*
X106087726Y-178414494D01*
X106087722Y-178414496D01*
X105891461Y-178516663D01*
X105886872Y-178519052D01*
X105882739Y-178522155D01*
X105882736Y-178522157D01*
X105705790Y-178655012D01*
X105701655Y-178658117D01*
X105541639Y-178825564D01*
X105494836Y-178894174D01*
X105439927Y-178939175D01*
X105369402Y-178947346D01*
X105305655Y-178916092D01*
X105284959Y-178891609D01*
X105262577Y-178857013D01*
X105262574Y-178857009D01*
X105259764Y-178852665D01*
X105103887Y-178681358D01*
X105099836Y-178678159D01*
X105099832Y-178678155D01*
X104926177Y-178541011D01*
X104926172Y-178541008D01*
X104922123Y-178537810D01*
X104917607Y-178535317D01*
X104917604Y-178535315D01*
X104723879Y-178428373D01*
X104723875Y-178428371D01*
X104719355Y-178425876D01*
X104714486Y-178424152D01*
X104714482Y-178424150D01*
X104505903Y-178350288D01*
X104505899Y-178350287D01*
X104501028Y-178348562D01*
X104495935Y-178347655D01*
X104495932Y-178347654D01*
X104278095Y-178308851D01*
X104278089Y-178308850D01*
X104273006Y-178307945D01*
X104195644Y-178307000D01*
X104046581Y-178305179D01*
X104046579Y-178305179D01*
X104041411Y-178305116D01*
X103812464Y-178340150D01*
X103592314Y-178412106D01*
X103587726Y-178414494D01*
X103587722Y-178414496D01*
X103391461Y-178516663D01*
X103386872Y-178519052D01*
X103382739Y-178522155D01*
X103382736Y-178522157D01*
X103205790Y-178655012D01*
X103201655Y-178658117D01*
X103201066Y-178657333D01*
X103141346Y-178685484D01*
X103070955Y-178676231D01*
X103016741Y-178630391D01*
X103003925Y-178605224D01*
X102993323Y-178576944D01*
X102984786Y-178561351D01*
X102908285Y-178459276D01*
X102895724Y-178446715D01*
X102793649Y-178370214D01*
X102778054Y-178361676D01*
X102657606Y-178316522D01*
X102642351Y-178312895D01*
X102591486Y-178307369D01*
X102584672Y-178307000D01*
X101912115Y-178307000D01*
X101896876Y-178311475D01*
X101895671Y-178312865D01*
X101894000Y-178320548D01*
X101894000Y-179843000D01*
X101873998Y-179911121D01*
X101820342Y-179957614D01*
X101768000Y-179969000D01*
X100250116Y-179969000D01*
X100234877Y-179973475D01*
X100233672Y-179974865D01*
X100232001Y-179982548D01*
X100232001Y-180659669D01*
X100232371Y-180666490D01*
X100237895Y-180717352D01*
X100241521Y-180732604D01*
X100286676Y-180853054D01*
X100295214Y-180868648D01*
X100308919Y-180886935D01*
X100333767Y-180953441D01*
X100318714Y-181022824D01*
X100268540Y-181073054D01*
X100208093Y-181088500D01*
X87715644Y-181088500D01*
X87647523Y-181068498D01*
X87601030Y-181014842D01*
X87595022Y-180998918D01*
X87574596Y-180931262D01*
X87550916Y-180852831D01*
X87458066Y-180678204D01*
X87353276Y-180549719D01*
X87336960Y-180529713D01*
X87336957Y-180529710D01*
X87333065Y-180524938D01*
X87326724Y-180519692D01*
X87185425Y-180402799D01*
X87185421Y-180402797D01*
X87180675Y-180398870D01*
X87006701Y-180304802D01*
X86817768Y-180246318D01*
X86811643Y-180245674D01*
X86811642Y-180245674D01*
X86627204Y-180226289D01*
X86627202Y-180226289D01*
X86621075Y-180225645D01*
X86538576Y-180233153D01*
X86430251Y-180243011D01*
X86430248Y-180243012D01*
X86424112Y-180243570D01*
X86418206Y-180245308D01*
X86418202Y-180245309D01*
X86313076Y-180276249D01*
X86234381Y-180299410D01*
X86228923Y-180302263D01*
X86228919Y-180302265D01*
X86138147Y-180349720D01*
X86059110Y-180391040D01*
X85904975Y-180514968D01*
X85777846Y-180666474D01*
X85774879Y-180671872D01*
X85774875Y-180671877D01*
X85724010Y-180764402D01*
X85682567Y-180839787D01*
X85680706Y-180845654D01*
X85680705Y-180845656D01*
X85655221Y-180925993D01*
X85622765Y-181028306D01*
X85600719Y-181224851D01*
X84328500Y-181224851D01*
X84328500Y-179442885D01*
X100232000Y-179442885D01*
X100236475Y-179458124D01*
X100237865Y-179459329D01*
X100245548Y-179461000D01*
X101367885Y-179461000D01*
X101383124Y-179456525D01*
X101384329Y-179455135D01*
X101386000Y-179447452D01*
X101386000Y-178325116D01*
X101381525Y-178309877D01*
X101380135Y-178308672D01*
X101372452Y-178307001D01*
X100695331Y-178307001D01*
X100688510Y-178307371D01*
X100637648Y-178312895D01*
X100622396Y-178316521D01*
X100501946Y-178361676D01*
X100486351Y-178370214D01*
X100384276Y-178446715D01*
X100371715Y-178459276D01*
X100295214Y-178561351D01*
X100286676Y-178576946D01*
X100241522Y-178697394D01*
X100237895Y-178712649D01*
X100232369Y-178763514D01*
X100232000Y-178770328D01*
X100232000Y-179442885D01*
X84328500Y-179442885D01*
X84328500Y-172543884D01*
X97471500Y-172543884D01*
X97471665Y-172546152D01*
X97471665Y-172546164D01*
X97479725Y-172657238D01*
X97486125Y-172745451D01*
X97487109Y-172749906D01*
X97487109Y-172749909D01*
X97526482Y-172928240D01*
X97544585Y-173010237D01*
X97640655Y-173263810D01*
X97772324Y-173500859D01*
X97936833Y-173716417D01*
X98130736Y-173905970D01*
X98349972Y-174065547D01*
X98589947Y-174191804D01*
X98594248Y-174193323D01*
X98594253Y-174193325D01*
X98727087Y-174240233D01*
X98845634Y-174282096D01*
X98943653Y-174301415D01*
X99107206Y-174333652D01*
X99107212Y-174333653D01*
X99111678Y-174334533D01*
X99116232Y-174334760D01*
X99116234Y-174334760D01*
X99377936Y-174347789D01*
X99377942Y-174347789D01*
X99382505Y-174348016D01*
X99652441Y-174322262D01*
X99656870Y-174321178D01*
X99656877Y-174321177D01*
X99816584Y-174282096D01*
X99915832Y-174257810D01*
X100075039Y-174193325D01*
X100162931Y-174157725D01*
X100162932Y-174157725D01*
X100167160Y-174156012D01*
X100401161Y-174018999D01*
X100612932Y-173849641D01*
X100734399Y-173719612D01*
X100794921Y-173654824D01*
X100794923Y-173654821D01*
X100798037Y-173651488D01*
X100952598Y-173428688D01*
X101034624Y-173263810D01*
X101071346Y-173189997D01*
X101071347Y-173189994D01*
X101073379Y-173185910D01*
X101157847Y-172928240D01*
X101204235Y-172661075D01*
X101208500Y-172575400D01*
X101208500Y-172543884D01*
X107071500Y-172543884D01*
X107071665Y-172546152D01*
X107071665Y-172546164D01*
X107079725Y-172657238D01*
X107086125Y-172745451D01*
X107087109Y-172749906D01*
X107087109Y-172749909D01*
X107126482Y-172928240D01*
X107144585Y-173010237D01*
X107240655Y-173263810D01*
X107372324Y-173500859D01*
X107536833Y-173716417D01*
X107730736Y-173905970D01*
X107949972Y-174065547D01*
X108189947Y-174191804D01*
X108194248Y-174193323D01*
X108194253Y-174193325D01*
X108327087Y-174240233D01*
X108445634Y-174282096D01*
X108543653Y-174301415D01*
X108707206Y-174333652D01*
X108707212Y-174333653D01*
X108711678Y-174334533D01*
X108716232Y-174334760D01*
X108716234Y-174334760D01*
X108977936Y-174347789D01*
X108977942Y-174347789D01*
X108982505Y-174348016D01*
X109252441Y-174322262D01*
X109256870Y-174321178D01*
X109256877Y-174321177D01*
X109416584Y-174282096D01*
X109515832Y-174257810D01*
X109675039Y-174193325D01*
X109762931Y-174157725D01*
X109762932Y-174157725D01*
X109767160Y-174156012D01*
X110001161Y-174018999D01*
X110212932Y-173849641D01*
X110334399Y-173719612D01*
X110394921Y-173654824D01*
X110394923Y-173654821D01*
X110398037Y-173651488D01*
X110552598Y-173428688D01*
X110634624Y-173263810D01*
X110671346Y-173189997D01*
X110671347Y-173189994D01*
X110673379Y-173185910D01*
X110757847Y-172928240D01*
X110804235Y-172661075D01*
X110808500Y-172575400D01*
X110808500Y-171886116D01*
X110806328Y-171856170D01*
X110794205Y-171689100D01*
X110793875Y-171684549D01*
X110792891Y-171680091D01*
X110736400Y-171424223D01*
X110736399Y-171424219D01*
X110735415Y-171419763D01*
X110639345Y-171166190D01*
X110507676Y-170929141D01*
X110343167Y-170713583D01*
X110149264Y-170524030D01*
X109930028Y-170364453D01*
X109690053Y-170238196D01*
X109685752Y-170236677D01*
X109685747Y-170236675D01*
X109507998Y-170173906D01*
X109434366Y-170147904D01*
X109336347Y-170128585D01*
X109172794Y-170096348D01*
X109172788Y-170096347D01*
X109168322Y-170095467D01*
X109163768Y-170095240D01*
X109163766Y-170095240D01*
X108902064Y-170082211D01*
X108902058Y-170082211D01*
X108897495Y-170081984D01*
X108627559Y-170107738D01*
X108623130Y-170108822D01*
X108623123Y-170108823D01*
X108493069Y-170140648D01*
X108364168Y-170172190D01*
X108359933Y-170173905D01*
X108359931Y-170173906D01*
X108117069Y-170272275D01*
X108112840Y-170273988D01*
X107878839Y-170411001D01*
X107667068Y-170580359D01*
X107663947Y-170583700D01*
X107539224Y-170717215D01*
X107481963Y-170778512D01*
X107327402Y-171001312D01*
X107325374Y-171005388D01*
X107325373Y-171005390D01*
X107243252Y-171170460D01*
X107206621Y-171244090D01*
X107122153Y-171501760D01*
X107075765Y-171768925D01*
X107071500Y-171854600D01*
X107071500Y-172543884D01*
X101208500Y-172543884D01*
X101208500Y-171886116D01*
X101206328Y-171856170D01*
X101194205Y-171689100D01*
X101193875Y-171684549D01*
X101192891Y-171680091D01*
X101136400Y-171424223D01*
X101136399Y-171424219D01*
X101135415Y-171419763D01*
X101039345Y-171166190D01*
X100907676Y-170929141D01*
X100743167Y-170713583D01*
X100549264Y-170524030D01*
X100330028Y-170364453D01*
X100090053Y-170238196D01*
X100085752Y-170236677D01*
X100085747Y-170236675D01*
X99907998Y-170173906D01*
X99834366Y-170147904D01*
X99736347Y-170128585D01*
X99572794Y-170096348D01*
X99572788Y-170096347D01*
X99568322Y-170095467D01*
X99563768Y-170095240D01*
X99563766Y-170095240D01*
X99302064Y-170082211D01*
X99302058Y-170082211D01*
X99297495Y-170081984D01*
X99027559Y-170107738D01*
X99023130Y-170108822D01*
X99023123Y-170108823D01*
X98893069Y-170140648D01*
X98764168Y-170172190D01*
X98759933Y-170173905D01*
X98759931Y-170173906D01*
X98517069Y-170272275D01*
X98512840Y-170273988D01*
X98278839Y-170411001D01*
X98067068Y-170580359D01*
X98063947Y-170583700D01*
X97939224Y-170717215D01*
X97881963Y-170778512D01*
X97727402Y-171001312D01*
X97725374Y-171005388D01*
X97725373Y-171005390D01*
X97643252Y-171170460D01*
X97606621Y-171244090D01*
X97522153Y-171501760D01*
X97475765Y-171768925D01*
X97471500Y-171854600D01*
X97471500Y-172543884D01*
X84328500Y-172543884D01*
X84328500Y-167682095D01*
X114602001Y-167682095D01*
X114602338Y-167688614D01*
X114612257Y-167784206D01*
X114615149Y-167797600D01*
X114666588Y-167951784D01*
X114672761Y-167964962D01*
X114758063Y-168102807D01*
X114767099Y-168114208D01*
X114881829Y-168228739D01*
X114893240Y-168237751D01*
X115031243Y-168322816D01*
X115044424Y-168328963D01*
X115198710Y-168380138D01*
X115212086Y-168383005D01*
X115306438Y-168392672D01*
X115312854Y-168393000D01*
X115932885Y-168393000D01*
X115948124Y-168388525D01*
X115949329Y-168387135D01*
X115951000Y-168379452D01*
X115951000Y-168374884D01*
X116459000Y-168374884D01*
X116463475Y-168390123D01*
X116464865Y-168391328D01*
X116472548Y-168392999D01*
X117097095Y-168392999D01*
X117103614Y-168392662D01*
X117199206Y-168382743D01*
X117212600Y-168379851D01*
X117366784Y-168328412D01*
X117379962Y-168322239D01*
X117517807Y-168236937D01*
X117529208Y-168227901D01*
X117643739Y-168113171D01*
X117652751Y-168101760D01*
X117737816Y-167963757D01*
X117743963Y-167950576D01*
X117795138Y-167796290D01*
X117798005Y-167782914D01*
X117807672Y-167688562D01*
X117808000Y-167682146D01*
X117808000Y-167287115D01*
X117803525Y-167271876D01*
X117802135Y-167270671D01*
X117794452Y-167269000D01*
X116477115Y-167269000D01*
X116461876Y-167273475D01*
X116460671Y-167274865D01*
X116459000Y-167282548D01*
X116459000Y-168374884D01*
X115951000Y-168374884D01*
X115951000Y-167287115D01*
X115946525Y-167271876D01*
X115945135Y-167270671D01*
X115937452Y-167269000D01*
X114620116Y-167269000D01*
X114604877Y-167273475D01*
X114603672Y-167274865D01*
X114602001Y-167282548D01*
X114602001Y-167682095D01*
X84328500Y-167682095D01*
X84328500Y-164409829D01*
X114598052Y-164409829D01*
X114606828Y-164643604D01*
X114654868Y-164872559D01*
X114740797Y-165090146D01*
X114862159Y-165290144D01*
X115015483Y-165466834D01*
X115019615Y-165470222D01*
X115053201Y-165497761D01*
X115093196Y-165556421D01*
X115095127Y-165627391D01*
X115058383Y-165688139D01*
X115035843Y-165703220D01*
X115036268Y-165703906D01*
X114892193Y-165793063D01*
X114880792Y-165802099D01*
X114766261Y-165916829D01*
X114757249Y-165928240D01*
X114672184Y-166066243D01*
X114666037Y-166079424D01*
X114614862Y-166233710D01*
X114611995Y-166247086D01*
X114602328Y-166341438D01*
X114602000Y-166347855D01*
X114602000Y-166742885D01*
X114606475Y-166758124D01*
X114607865Y-166759329D01*
X114615548Y-166761000D01*
X117789884Y-166761000D01*
X117805123Y-166756525D01*
X117806328Y-166755135D01*
X117807999Y-166747452D01*
X117807999Y-166347905D01*
X117807662Y-166341386D01*
X117797743Y-166245794D01*
X117794851Y-166232400D01*
X117743412Y-166078216D01*
X117737239Y-166065038D01*
X117651937Y-165927193D01*
X117642901Y-165915792D01*
X117528171Y-165801261D01*
X117516760Y-165792249D01*
X117372525Y-165703342D01*
X117373817Y-165701245D01*
X117329308Y-165662044D01*
X117309856Y-165593764D01*
X117330407Y-165525807D01*
X117348878Y-165503614D01*
X117466168Y-165391724D01*
X117605813Y-165204035D01*
X117661398Y-165094709D01*
X117709420Y-165000256D01*
X117709420Y-165000255D01*
X117711838Y-164995500D01*
X117781210Y-164772083D01*
X117798239Y-164643604D01*
X117811248Y-164545455D01*
X117811248Y-164545451D01*
X117811948Y-164540171D01*
X117803172Y-164306396D01*
X117755132Y-164077441D01*
X117669203Y-163859854D01*
X117547841Y-163659856D01*
X117394517Y-163483166D01*
X117213614Y-163334835D01*
X117010305Y-163219104D01*
X116790404Y-163139284D01*
X116785155Y-163138335D01*
X116785152Y-163138334D01*
X116703960Y-163123652D01*
X116560197Y-163097656D01*
X116556058Y-163097461D01*
X116556051Y-163097460D01*
X116537172Y-163096570D01*
X116537165Y-163096570D01*
X116535684Y-163096500D01*
X115921262Y-163096500D01*
X115853359Y-163102262D01*
X115752209Y-163110844D01*
X115752205Y-163110845D01*
X115746898Y-163111295D01*
X115741741Y-163112633D01*
X115741738Y-163112634D01*
X115525629Y-163168725D01*
X115525625Y-163168726D01*
X115520460Y-163170067D01*
X115515594Y-163172259D01*
X115515591Y-163172260D01*
X115405739Y-163221745D01*
X115307163Y-163266150D01*
X115113104Y-163396798D01*
X114943832Y-163558276D01*
X114804187Y-163745965D01*
X114801771Y-163750716D01*
X114801769Y-163750720D01*
X114743756Y-163864823D01*
X114698162Y-163954500D01*
X114628790Y-164177917D01*
X114628089Y-164183204D01*
X114628089Y-164183205D01*
X114611055Y-164311727D01*
X114598052Y-164409829D01*
X84328500Y-164409829D01*
X84328500Y-160650851D01*
X98554719Y-160650851D01*
X98555235Y-160656995D01*
X98569640Y-160828542D01*
X98571268Y-160847934D01*
X98572967Y-160853858D01*
X98614819Y-160999813D01*
X98625783Y-161038050D01*
X98716187Y-161213956D01*
X98839035Y-161368953D01*
X98843728Y-161372947D01*
X98843729Y-161372948D01*
X98874148Y-161398836D01*
X98989650Y-161497136D01*
X99162294Y-161593624D01*
X99350392Y-161654740D01*
X99546777Y-161678158D01*
X99552912Y-161677686D01*
X99552914Y-161677686D01*
X99737830Y-161663457D01*
X99737834Y-161663456D01*
X99743972Y-161662984D01*
X99934463Y-161609798D01*
X99939967Y-161607018D01*
X99939969Y-161607017D01*
X100105495Y-161523404D01*
X100105497Y-161523403D01*
X100110996Y-161520625D01*
X100266847Y-161398861D01*
X100380990Y-161266625D01*
X100392049Y-161253813D01*
X100392050Y-161253811D01*
X100396078Y-161249145D01*
X100461909Y-161133263D01*
X100512949Y-161083912D01*
X100571465Y-161069500D01*
X116522494Y-161069500D01*
X116590615Y-161089502D01*
X116613132Y-161107974D01*
X116615204Y-161110120D01*
X116619035Y-161114953D01*
X116769650Y-161243136D01*
X116942294Y-161339624D01*
X117130392Y-161400740D01*
X117326777Y-161424158D01*
X117332912Y-161423686D01*
X117332914Y-161423686D01*
X117517830Y-161409457D01*
X117517834Y-161409456D01*
X117523972Y-161408984D01*
X117714463Y-161355798D01*
X117719967Y-161353018D01*
X117719969Y-161353017D01*
X117885495Y-161269404D01*
X117885497Y-161269403D01*
X117890996Y-161266625D01*
X118046847Y-161144861D01*
X118176078Y-160995145D01*
X118273769Y-160823179D01*
X118336197Y-160635513D01*
X118360985Y-160439295D01*
X118361380Y-160411000D01*
X118342080Y-160214167D01*
X118284916Y-160024831D01*
X118192066Y-159850204D01*
X118107746Y-159746818D01*
X118070960Y-159701713D01*
X118070957Y-159701710D01*
X118067065Y-159696938D01*
X118062316Y-159693009D01*
X117919425Y-159574799D01*
X117919421Y-159574797D01*
X117914675Y-159570870D01*
X117740701Y-159476802D01*
X117551768Y-159418318D01*
X117545643Y-159417674D01*
X117545642Y-159417674D01*
X117361204Y-159398289D01*
X117361202Y-159398289D01*
X117355075Y-159397645D01*
X117272576Y-159405153D01*
X117164251Y-159415011D01*
X117164248Y-159415012D01*
X117158112Y-159415570D01*
X117152206Y-159417308D01*
X117152202Y-159417309D01*
X117047076Y-159448249D01*
X116968381Y-159471410D01*
X116962923Y-159474263D01*
X116962919Y-159474265D01*
X116872147Y-159521720D01*
X116793110Y-159563040D01*
X116638975Y-159686968D01*
X116635013Y-159691690D01*
X116621753Y-159707492D01*
X116562643Y-159746818D01*
X116525232Y-159752500D01*
X104740734Y-159752500D01*
X104672613Y-159732498D01*
X104626120Y-159678842D01*
X104616016Y-159608568D01*
X104645510Y-159543988D01*
X104687484Y-159512305D01*
X104766667Y-159475382D01*
X104766672Y-159475379D01*
X104771654Y-159473056D01*
X104952038Y-159346749D01*
X105107749Y-159191038D01*
X105234056Y-159010653D01*
X105236379Y-159005671D01*
X105236382Y-159005666D01*
X105324795Y-158816061D01*
X105327120Y-158811076D01*
X105384115Y-158598371D01*
X105403307Y-158379000D01*
X105384115Y-158159629D01*
X105327120Y-157946924D01*
X105283585Y-157853562D01*
X105236382Y-157752334D01*
X105236379Y-157752329D01*
X105234056Y-157747347D01*
X105107749Y-157566962D01*
X104952038Y-157411251D01*
X104771654Y-157284944D01*
X104766672Y-157282621D01*
X104766667Y-157282618D01*
X104638641Y-157222919D01*
X104585356Y-157176002D01*
X104565895Y-157107724D01*
X104586437Y-157039764D01*
X104638641Y-156994529D01*
X104766416Y-156934947D01*
X104775912Y-156929464D01*
X104817148Y-156900590D01*
X104825523Y-156890112D01*
X104818457Y-156876668D01*
X104152811Y-156211021D01*
X104138868Y-156203408D01*
X104137034Y-156203539D01*
X104130420Y-156207790D01*
X103460820Y-156877391D01*
X103454393Y-156889161D01*
X103463687Y-156901175D01*
X103504088Y-156929464D01*
X103513584Y-156934947D01*
X103641359Y-156994529D01*
X103694644Y-157041446D01*
X103714105Y-157109724D01*
X103693563Y-157177684D01*
X103641359Y-157222919D01*
X103513334Y-157282618D01*
X103513329Y-157282621D01*
X103508347Y-157284944D01*
X103503840Y-157288100D01*
X103503838Y-157288101D01*
X103332473Y-157408092D01*
X103332470Y-157408094D01*
X103327962Y-157411251D01*
X103172251Y-157566962D01*
X103045944Y-157747347D01*
X103043621Y-157752329D01*
X103043618Y-157752334D01*
X102996415Y-157853562D01*
X102952880Y-157946924D01*
X102895885Y-158159629D01*
X102876693Y-158379000D01*
X102895885Y-158598371D01*
X102952880Y-158811076D01*
X102955205Y-158816061D01*
X103043618Y-159005666D01*
X103043621Y-159005671D01*
X103045944Y-159010653D01*
X103172251Y-159191038D01*
X103327962Y-159346749D01*
X103508346Y-159473056D01*
X103513328Y-159475379D01*
X103513333Y-159475382D01*
X103592516Y-159512305D01*
X103645801Y-159559222D01*
X103665262Y-159627499D01*
X103644720Y-159695459D01*
X103590698Y-159741525D01*
X103539266Y-159752500D01*
X100032712Y-159752500D01*
X99972785Y-159737336D01*
X99960701Y-159730802D01*
X99771768Y-159672318D01*
X99765643Y-159671674D01*
X99765642Y-159671674D01*
X99581204Y-159652289D01*
X99581202Y-159652289D01*
X99575075Y-159651645D01*
X99492576Y-159659153D01*
X99384251Y-159669011D01*
X99384248Y-159669012D01*
X99378112Y-159669570D01*
X99372206Y-159671308D01*
X99372202Y-159671309D01*
X99290147Y-159695459D01*
X99188381Y-159725410D01*
X99182923Y-159728263D01*
X99182919Y-159728265D01*
X99092147Y-159775720D01*
X99013110Y-159817040D01*
X98858975Y-159940968D01*
X98731846Y-160092474D01*
X98728879Y-160097872D01*
X98728875Y-160097877D01*
X98668190Y-160208264D01*
X98636567Y-160265787D01*
X98634706Y-160271654D01*
X98634705Y-160271656D01*
X98589385Y-160414523D01*
X98576765Y-160454306D01*
X98554719Y-160650851D01*
X84328500Y-160650851D01*
X84328500Y-155844475D01*
X102877674Y-155844475D01*
X102895901Y-156052804D01*
X102897804Y-156063599D01*
X102951928Y-156265595D01*
X102955674Y-156275887D01*
X103044054Y-156465417D01*
X103049534Y-156474907D01*
X103078411Y-156516149D01*
X103088887Y-156524523D01*
X103102334Y-156517455D01*
X103767979Y-155851811D01*
X103774356Y-155840132D01*
X104504408Y-155840132D01*
X104504539Y-155841966D01*
X104508790Y-155848580D01*
X105178391Y-156518180D01*
X105190161Y-156524607D01*
X105202176Y-156515311D01*
X105230466Y-156474907D01*
X105235946Y-156465417D01*
X105324326Y-156275887D01*
X105328072Y-156265595D01*
X105382196Y-156063599D01*
X105384099Y-156052804D01*
X105402326Y-155844475D01*
X105402326Y-155833525D01*
X105384099Y-155625196D01*
X105382196Y-155614401D01*
X105328072Y-155412405D01*
X105324326Y-155402113D01*
X105235946Y-155212583D01*
X105230466Y-155203093D01*
X105201589Y-155161851D01*
X105191113Y-155153477D01*
X105177666Y-155160545D01*
X104512021Y-155826189D01*
X104504408Y-155840132D01*
X103774356Y-155840132D01*
X103775592Y-155837868D01*
X103775461Y-155836034D01*
X103771210Y-155829420D01*
X103101609Y-155159820D01*
X103089839Y-155153393D01*
X103077824Y-155162689D01*
X103049534Y-155203093D01*
X103044054Y-155212583D01*
X102955674Y-155402113D01*
X102951928Y-155412405D01*
X102897804Y-155614401D01*
X102895901Y-155625196D01*
X102877674Y-155833525D01*
X102877674Y-155844475D01*
X84328500Y-155844475D01*
X84328500Y-154097134D01*
X102881500Y-154097134D01*
X102888255Y-154159316D01*
X102939385Y-154295705D01*
X103026739Y-154412261D01*
X103143295Y-154499615D01*
X103279684Y-154550745D01*
X103341866Y-154557500D01*
X103377294Y-154557500D01*
X103445415Y-154577502D01*
X103491908Y-154631158D01*
X103502012Y-154701432D01*
X103473879Y-154763032D01*
X103474163Y-154763259D01*
X103473259Y-154764390D01*
X103472518Y-154766012D01*
X103470527Y-154767808D01*
X103454477Y-154787887D01*
X103461545Y-154801334D01*
X104127189Y-155466979D01*
X104141132Y-155474592D01*
X104142966Y-155474461D01*
X104149580Y-155470210D01*
X104819180Y-154800609D01*
X104825607Y-154788839D01*
X104804602Y-154761688D01*
X104808204Y-154758902D01*
X104786108Y-154731262D01*
X104778795Y-154660643D01*
X104810823Y-154597281D01*
X104872022Y-154561293D01*
X104902705Y-154557500D01*
X104938134Y-154557500D01*
X105000316Y-154550745D01*
X105136705Y-154499615D01*
X105253261Y-154412261D01*
X105340615Y-154295705D01*
X105391745Y-154159316D01*
X105398500Y-154097134D01*
X105398500Y-154083500D01*
X105418502Y-154015379D01*
X105472158Y-153968886D01*
X105524500Y-153957500D01*
X107719500Y-153957500D01*
X107787621Y-153977502D01*
X107834114Y-154031158D01*
X107845500Y-154083500D01*
X107845500Y-154147134D01*
X107852255Y-154209316D01*
X107903385Y-154345705D01*
X107990739Y-154462261D01*
X108107295Y-154549615D01*
X108243684Y-154600745D01*
X108305866Y-154607500D01*
X110002134Y-154607500D01*
X110064316Y-154600745D01*
X110200705Y-154549615D01*
X110317261Y-154462261D01*
X110404615Y-154345705D01*
X110455745Y-154209316D01*
X110457691Y-154210046D01*
X110487545Y-154157795D01*
X110550503Y-154124979D01*
X110621207Y-154131409D01*
X110664000Y-154159498D01*
X110809700Y-154305198D01*
X110814208Y-154308355D01*
X110814211Y-154308357D01*
X110855542Y-154337297D01*
X110997251Y-154436523D01*
X111002233Y-154438846D01*
X111002238Y-154438849D01*
X111199775Y-154530961D01*
X111204757Y-154533284D01*
X111210065Y-154534706D01*
X111210067Y-154534707D01*
X111420598Y-154591119D01*
X111420600Y-154591119D01*
X111425913Y-154592543D01*
X111654000Y-154612498D01*
X111882087Y-154592543D01*
X111887400Y-154591119D01*
X111887402Y-154591119D01*
X112097933Y-154534707D01*
X112097935Y-154534706D01*
X112103243Y-154533284D01*
X112108225Y-154530961D01*
X112305762Y-154438849D01*
X112305767Y-154438846D01*
X112310749Y-154436523D01*
X112452458Y-154337297D01*
X112493789Y-154308357D01*
X112493792Y-154308355D01*
X112498300Y-154305198D01*
X112660198Y-154143300D01*
X112668525Y-154131409D01*
X112738721Y-154031158D01*
X112791523Y-153955749D01*
X112793846Y-153950767D01*
X112793849Y-153950762D01*
X112885961Y-153753225D01*
X112885961Y-153753224D01*
X112888284Y-153748243D01*
X112947543Y-153527087D01*
X112967498Y-153299000D01*
X112947543Y-153070913D01*
X112888284Y-152849757D01*
X112845500Y-152758006D01*
X112793849Y-152647238D01*
X112793846Y-152647233D01*
X112791523Y-152642251D01*
X112702071Y-152514500D01*
X112663357Y-152459211D01*
X112663355Y-152459208D01*
X112660198Y-152454700D01*
X112498300Y-152292802D01*
X112493792Y-152289645D01*
X112493789Y-152289643D01*
X112415611Y-152234902D01*
X112310749Y-152161477D01*
X112305767Y-152159154D01*
X112305762Y-152159151D01*
X112108225Y-152067039D01*
X112108224Y-152067039D01*
X112103243Y-152064716D01*
X112097935Y-152063294D01*
X112097933Y-152063293D01*
X111887402Y-152006881D01*
X111887400Y-152006881D01*
X111882087Y-152005457D01*
X111654000Y-151985502D01*
X111425913Y-152005457D01*
X111420600Y-152006881D01*
X111420598Y-152006881D01*
X111210067Y-152063293D01*
X111210065Y-152063294D01*
X111204757Y-152064716D01*
X111199776Y-152067039D01*
X111199775Y-152067039D01*
X111002238Y-152159151D01*
X111002233Y-152159154D01*
X110997251Y-152161477D01*
X110892389Y-152234902D01*
X110814211Y-152289643D01*
X110814208Y-152289645D01*
X110809700Y-152292802D01*
X110664000Y-152438502D01*
X110601688Y-152472528D01*
X110530873Y-152467463D01*
X110474037Y-152424916D01*
X110456868Y-152388263D01*
X110455745Y-152388684D01*
X110407767Y-152260703D01*
X110404615Y-152252295D01*
X110317261Y-152135739D01*
X110200705Y-152048385D01*
X110064316Y-151997255D01*
X110002134Y-151990500D01*
X108305866Y-151990500D01*
X108243684Y-151997255D01*
X108107295Y-152048385D01*
X107990739Y-152135739D01*
X107903385Y-152252295D01*
X107852255Y-152388684D01*
X107845500Y-152450866D01*
X107845500Y-152514500D01*
X107825498Y-152582621D01*
X107771842Y-152629114D01*
X107719500Y-152640500D01*
X105524500Y-152640500D01*
X105456379Y-152620498D01*
X105409886Y-152566842D01*
X105398500Y-152514500D01*
X105398500Y-152500866D01*
X105391745Y-152438684D01*
X105340615Y-152302295D01*
X105253261Y-152185739D01*
X105136705Y-152098385D01*
X105000316Y-152047255D01*
X104938134Y-152040500D01*
X103341866Y-152040500D01*
X103279684Y-152047255D01*
X103143295Y-152098385D01*
X103026739Y-152185739D01*
X102939385Y-152302295D01*
X102888255Y-152438684D01*
X102881500Y-152500866D01*
X102881500Y-154097134D01*
X84328500Y-154097134D01*
X84328500Y-143132371D01*
X100086239Y-143132371D01*
X100102788Y-143329454D01*
X100112554Y-143363513D01*
X100143944Y-143472980D01*
X100157303Y-143519570D01*
X100160122Y-143525055D01*
X100242307Y-143684968D01*
X100247707Y-143695476D01*
X100370555Y-143850473D01*
X100521170Y-143978656D01*
X100693814Y-144075144D01*
X100881912Y-144136260D01*
X101078297Y-144159678D01*
X101084432Y-144159206D01*
X101084434Y-144159206D01*
X101269350Y-144144977D01*
X101269354Y-144144976D01*
X101275492Y-144144504D01*
X101465983Y-144091318D01*
X101471487Y-144088538D01*
X101471489Y-144088537D01*
X101637015Y-144004924D01*
X101637017Y-144004923D01*
X101642516Y-144002145D01*
X101798367Y-143880381D01*
X101826142Y-143848204D01*
X101832214Y-143841169D01*
X101891867Y-143802672D01*
X101927595Y-143797500D01*
X104640671Y-143797500D01*
X104708792Y-143817502D01*
X104755285Y-143871158D01*
X104765389Y-143941432D01*
X104735895Y-144006012D01*
X104729766Y-144012595D01*
X103773766Y-144968595D01*
X103711454Y-145002621D01*
X103684671Y-145005500D01*
X102511487Y-145005500D01*
X102449305Y-145012255D01*
X102312916Y-145063385D01*
X102196360Y-145150739D01*
X102109006Y-145267295D01*
X102057876Y-145403684D01*
X102051121Y-145465866D01*
X102051121Y-147162134D01*
X102057876Y-147224316D01*
X102109006Y-147360705D01*
X102196360Y-147477261D01*
X102312916Y-147564615D01*
X102449305Y-147615745D01*
X102511487Y-147622500D01*
X104207755Y-147622500D01*
X104269937Y-147615745D01*
X104406326Y-147564615D01*
X104522882Y-147477261D01*
X104580740Y-147400062D01*
X105138114Y-147400062D01*
X105147410Y-147412077D01*
X105198615Y-147447931D01*
X105208110Y-147453414D01*
X105405568Y-147545490D01*
X105415860Y-147549236D01*
X105626309Y-147605625D01*
X105637102Y-147607528D01*
X105854146Y-147626517D01*
X105865096Y-147626517D01*
X106082140Y-147607528D01*
X106092933Y-147605625D01*
X106303382Y-147549236D01*
X106313674Y-147545490D01*
X106511132Y-147453414D01*
X106520627Y-147447931D01*
X106572669Y-147411491D01*
X106581045Y-147401012D01*
X106573977Y-147387566D01*
X105872433Y-146686022D01*
X105858489Y-146678408D01*
X105856656Y-146678539D01*
X105850041Y-146682790D01*
X105144544Y-147388287D01*
X105138114Y-147400062D01*
X104580740Y-147400062D01*
X104610236Y-147360705D01*
X104661366Y-147224316D01*
X104668121Y-147162134D01*
X104668121Y-147158815D01*
X104691774Y-147091890D01*
X104737777Y-147056196D01*
X104736762Y-147054266D01*
X104747621Y-147048558D01*
X104747866Y-147048368D01*
X104748024Y-147048347D01*
X104786055Y-147028356D01*
X105499279Y-146315132D01*
X106224029Y-146315132D01*
X106224160Y-146316965D01*
X106228411Y-146323580D01*
X106933908Y-147029077D01*
X106945683Y-147035507D01*
X106957698Y-147026211D01*
X106993552Y-146975006D01*
X106999035Y-146965511D01*
X107091111Y-146768053D01*
X107094857Y-146757761D01*
X107151246Y-146547312D01*
X107153149Y-146536519D01*
X107172138Y-146319475D01*
X107172138Y-146308525D01*
X107153149Y-146091481D01*
X107151246Y-146080688D01*
X107094857Y-145870239D01*
X107091111Y-145859947D01*
X106999035Y-145662489D01*
X106993552Y-145652994D01*
X106957112Y-145600952D01*
X106946633Y-145592576D01*
X106933187Y-145599644D01*
X106231643Y-146301188D01*
X106224029Y-146315132D01*
X105499279Y-146315132D01*
X106574698Y-145239713D01*
X106582312Y-145225769D01*
X106580647Y-145202490D01*
X106595738Y-145133116D01*
X106645940Y-145082913D01*
X106706326Y-145067500D01*
X113728494Y-145067500D01*
X113796615Y-145087502D01*
X113819132Y-145105974D01*
X113821204Y-145108120D01*
X113825035Y-145112953D01*
X113975650Y-145241136D01*
X114148294Y-145337624D01*
X114336392Y-145398740D01*
X114532777Y-145422158D01*
X114538912Y-145421686D01*
X114538914Y-145421686D01*
X114723830Y-145407457D01*
X114723834Y-145407456D01*
X114729972Y-145406984D01*
X114920463Y-145353798D01*
X114925967Y-145351018D01*
X114925969Y-145351017D01*
X115091495Y-145267404D01*
X115091497Y-145267403D01*
X115096996Y-145264625D01*
X115252847Y-145142861D01*
X115371095Y-145005869D01*
X115378049Y-144997813D01*
X115378050Y-144997811D01*
X115382078Y-144993145D01*
X115479769Y-144821179D01*
X115542197Y-144633513D01*
X115566985Y-144437295D01*
X115567380Y-144409000D01*
X115548080Y-144212167D01*
X115490916Y-144022831D01*
X115398066Y-143848204D01*
X115277441Y-143700303D01*
X115276960Y-143699713D01*
X115276957Y-143699710D01*
X115273065Y-143694938D01*
X115268316Y-143691009D01*
X115125425Y-143572799D01*
X115125421Y-143572797D01*
X115120675Y-143568870D01*
X114946701Y-143474802D01*
X114757768Y-143416318D01*
X114751643Y-143415674D01*
X114751642Y-143415674D01*
X114567204Y-143396289D01*
X114567202Y-143396289D01*
X114561075Y-143395645D01*
X114478576Y-143403153D01*
X114370251Y-143413011D01*
X114370248Y-143413012D01*
X114364112Y-143413570D01*
X114358206Y-143415308D01*
X114358202Y-143415309D01*
X114253076Y-143446249D01*
X114174381Y-143469410D01*
X114168923Y-143472263D01*
X114168919Y-143472265D01*
X114078434Y-143519570D01*
X113999110Y-143561040D01*
X113844975Y-143684968D01*
X113841013Y-143689690D01*
X113827753Y-143705492D01*
X113768643Y-143744818D01*
X113731232Y-143750500D01*
X111011028Y-143750500D01*
X110942907Y-143730498D01*
X110896414Y-143676842D01*
X110886310Y-143606568D01*
X110901471Y-143562265D01*
X110907769Y-143551179D01*
X110970197Y-143363513D01*
X110994985Y-143167295D01*
X110995380Y-143139000D01*
X110976080Y-142942167D01*
X110918916Y-142752831D01*
X110826066Y-142578204D01*
X110714660Y-142441607D01*
X110704960Y-142429713D01*
X110704957Y-142429710D01*
X110701065Y-142424938D01*
X110696316Y-142421009D01*
X110553425Y-142302799D01*
X110553421Y-142302797D01*
X110548675Y-142298870D01*
X110374701Y-142204802D01*
X110185768Y-142146318D01*
X110179643Y-142145674D01*
X110179642Y-142145674D01*
X109995204Y-142126289D01*
X109995202Y-142126289D01*
X109989075Y-142125645D01*
X109906576Y-142133153D01*
X109798251Y-142143011D01*
X109798248Y-142143012D01*
X109792112Y-142143570D01*
X109786206Y-142145308D01*
X109786202Y-142145309D01*
X109681076Y-142176249D01*
X109602381Y-142199410D01*
X109596923Y-142202263D01*
X109596919Y-142202265D01*
X109572078Y-142215252D01*
X109427110Y-142291040D01*
X109272975Y-142414968D01*
X109269013Y-142419690D01*
X109255753Y-142435492D01*
X109196643Y-142474818D01*
X109159232Y-142480500D01*
X101917597Y-142480500D01*
X101849476Y-142460498D01*
X101827530Y-142440905D01*
X101826823Y-142441607D01*
X101822479Y-142437233D01*
X101818585Y-142432458D01*
X101809495Y-142424938D01*
X101670945Y-142310319D01*
X101670941Y-142310317D01*
X101666195Y-142306390D01*
X101492221Y-142212322D01*
X101303288Y-142153838D01*
X101297163Y-142153194D01*
X101297162Y-142153194D01*
X101112724Y-142133809D01*
X101112722Y-142133809D01*
X101106595Y-142133165D01*
X101024096Y-142140673D01*
X100915771Y-142150531D01*
X100915768Y-142150532D01*
X100909632Y-142151090D01*
X100903726Y-142152828D01*
X100903722Y-142152829D01*
X100798596Y-142183769D01*
X100719901Y-142206930D01*
X100714443Y-142209783D01*
X100714439Y-142209785D01*
X100623667Y-142257240D01*
X100544630Y-142298560D01*
X100390495Y-142422488D01*
X100263366Y-142573994D01*
X100260399Y-142579392D01*
X100260395Y-142579397D01*
X100258060Y-142583645D01*
X100168087Y-142747307D01*
X100108285Y-142935826D01*
X100086239Y-143132371D01*
X84328500Y-143132371D01*
X84328500Y-137028851D01*
X89918719Y-137028851D01*
X89935268Y-137225934D01*
X89989783Y-137416050D01*
X90080187Y-137591956D01*
X90203035Y-137746953D01*
X90353650Y-137875136D01*
X90526294Y-137971624D01*
X90714392Y-138032740D01*
X90910777Y-138056158D01*
X90916912Y-138055686D01*
X90916914Y-138055686D01*
X91101830Y-138041457D01*
X91101834Y-138041456D01*
X91107972Y-138040984D01*
X91298463Y-137987798D01*
X91303967Y-137985018D01*
X91303969Y-137985017D01*
X91469495Y-137901404D01*
X91469497Y-137901403D01*
X91474996Y-137898625D01*
X91630847Y-137776861D01*
X91658203Y-137745169D01*
X91717856Y-137706672D01*
X91753584Y-137701500D01*
X104779944Y-137701500D01*
X104791800Y-137702059D01*
X104791803Y-137702059D01*
X104799537Y-137703788D01*
X104870369Y-137701562D01*
X104874327Y-137701500D01*
X104903432Y-137701500D01*
X104907832Y-137700944D01*
X104919664Y-137700012D01*
X104965831Y-137698562D01*
X104986421Y-137692580D01*
X105005782Y-137688570D01*
X105012770Y-137687688D01*
X105019204Y-137686875D01*
X105019205Y-137686875D01*
X105027064Y-137685882D01*
X105034429Y-137682966D01*
X105034433Y-137682965D01*
X105070021Y-137668874D01*
X105081231Y-137665035D01*
X105125600Y-137652145D01*
X105144065Y-137641225D01*
X105161805Y-137632534D01*
X105181756Y-137624635D01*
X105219129Y-137597482D01*
X105229048Y-137590967D01*
X105261977Y-137571493D01*
X105261981Y-137571490D01*
X105268807Y-137567453D01*
X105283971Y-137552289D01*
X105299005Y-137539448D01*
X105309943Y-137531501D01*
X105316357Y-137526841D01*
X105345803Y-137491247D01*
X105353792Y-137482468D01*
X106171527Y-136664733D01*
X106233839Y-136630707D01*
X106285742Y-136630357D01*
X106325236Y-136638392D01*
X106472656Y-136668385D01*
X106603324Y-136673176D01*
X106698949Y-136676683D01*
X106698953Y-136676683D01*
X106704113Y-136676872D01*
X106709233Y-136676216D01*
X106709235Y-136676216D01*
X106798871Y-136664733D01*
X106933847Y-136647442D01*
X106938795Y-136645957D01*
X106938802Y-136645956D01*
X107150747Y-136582369D01*
X107155690Y-136580886D01*
X107160324Y-136578616D01*
X107359049Y-136481262D01*
X107359052Y-136481260D01*
X107363684Y-136478991D01*
X107552243Y-136344494D01*
X107716303Y-136181005D01*
X107851458Y-135992917D01*
X107954078Y-135785280D01*
X108021408Y-135563671D01*
X108051640Y-135334041D01*
X108053327Y-135265000D01*
X108047032Y-135188434D01*
X108034773Y-135039318D01*
X108034772Y-135039312D01*
X108034349Y-135034167D01*
X107977925Y-134809533D01*
X107885570Y-134597131D01*
X107759764Y-134402665D01*
X107603887Y-134231358D01*
X107599836Y-134228159D01*
X107599832Y-134228155D01*
X107426177Y-134091011D01*
X107426172Y-134091008D01*
X107422123Y-134087810D01*
X107417607Y-134085317D01*
X107417604Y-134085315D01*
X107223879Y-133978373D01*
X107223875Y-133978371D01*
X107219355Y-133975876D01*
X107214486Y-133974152D01*
X107214482Y-133974150D01*
X107005903Y-133900288D01*
X107005899Y-133900287D01*
X107001028Y-133898562D01*
X106995935Y-133897655D01*
X106995932Y-133897654D01*
X106778095Y-133858851D01*
X106778089Y-133858850D01*
X106773006Y-133857945D01*
X106695644Y-133857000D01*
X106546581Y-133855179D01*
X106546579Y-133855179D01*
X106541411Y-133855116D01*
X106312464Y-133890150D01*
X106092314Y-133962106D01*
X106087726Y-133964494D01*
X106087722Y-133964496D01*
X105891461Y-134066663D01*
X105886872Y-134069052D01*
X105882739Y-134072155D01*
X105882736Y-134072157D01*
X105705790Y-134205012D01*
X105701655Y-134208117D01*
X105541639Y-134375564D01*
X105494836Y-134444174D01*
X105439927Y-134489175D01*
X105369402Y-134497346D01*
X105305655Y-134466092D01*
X105284959Y-134441609D01*
X105262577Y-134407013D01*
X105262574Y-134407009D01*
X105259764Y-134402665D01*
X105103887Y-134231358D01*
X105099836Y-134228159D01*
X105099832Y-134228155D01*
X104926177Y-134091011D01*
X104926172Y-134091008D01*
X104922123Y-134087810D01*
X104917607Y-134085317D01*
X104917604Y-134085315D01*
X104723879Y-133978373D01*
X104723875Y-133978371D01*
X104719355Y-133975876D01*
X104714486Y-133974152D01*
X104714482Y-133974150D01*
X104505903Y-133900288D01*
X104505899Y-133900287D01*
X104501028Y-133898562D01*
X104495935Y-133897655D01*
X104495932Y-133897654D01*
X104278095Y-133858851D01*
X104278089Y-133858850D01*
X104273006Y-133857945D01*
X104195644Y-133857000D01*
X104046581Y-133855179D01*
X104046579Y-133855179D01*
X104041411Y-133855116D01*
X103812464Y-133890150D01*
X103592314Y-133962106D01*
X103587726Y-133964494D01*
X103587722Y-133964496D01*
X103391461Y-134066663D01*
X103386872Y-134069052D01*
X103382739Y-134072155D01*
X103382736Y-134072157D01*
X103205790Y-134205012D01*
X103201655Y-134208117D01*
X103201066Y-134207333D01*
X103141346Y-134235484D01*
X103070955Y-134226231D01*
X103016741Y-134180391D01*
X103003925Y-134155224D01*
X102993323Y-134126944D01*
X102984786Y-134111351D01*
X102908285Y-134009276D01*
X102895724Y-133996715D01*
X102793649Y-133920214D01*
X102778054Y-133911676D01*
X102657606Y-133866522D01*
X102642351Y-133862895D01*
X102591486Y-133857369D01*
X102584672Y-133857000D01*
X101912115Y-133857000D01*
X101896876Y-133861475D01*
X101895671Y-133862865D01*
X101894000Y-133870548D01*
X101894000Y-135393000D01*
X101873998Y-135461121D01*
X101820342Y-135507614D01*
X101768000Y-135519000D01*
X100250116Y-135519000D01*
X100234877Y-135523475D01*
X100233672Y-135524865D01*
X100232001Y-135532548D01*
X100232001Y-136209669D01*
X100232370Y-136216486D01*
X100235456Y-136244893D01*
X100222927Y-136314776D01*
X100174606Y-136366791D01*
X100110193Y-136384500D01*
X91756209Y-136384500D01*
X91688088Y-136364498D01*
X91658567Y-136338136D01*
X91654960Y-136333713D01*
X91654956Y-136333709D01*
X91651065Y-136328938D01*
X91506894Y-136209669D01*
X91503425Y-136206799D01*
X91503421Y-136206797D01*
X91498675Y-136202870D01*
X91324701Y-136108802D01*
X91135768Y-136050318D01*
X91129643Y-136049674D01*
X91129642Y-136049674D01*
X90945204Y-136030289D01*
X90945202Y-136030289D01*
X90939075Y-136029645D01*
X90856576Y-136037153D01*
X90748251Y-136047011D01*
X90748248Y-136047012D01*
X90742112Y-136047570D01*
X90736206Y-136049308D01*
X90736202Y-136049309D01*
X90631076Y-136080249D01*
X90552381Y-136103410D01*
X90546923Y-136106263D01*
X90546919Y-136106265D01*
X90456147Y-136153720D01*
X90377110Y-136195040D01*
X90222975Y-136318968D01*
X90095846Y-136470474D01*
X90092879Y-136475872D01*
X90092875Y-136475877D01*
X90017237Y-136613465D01*
X90000567Y-136643787D01*
X89998706Y-136649654D01*
X89998705Y-136649656D01*
X89993091Y-136667355D01*
X89940765Y-136832306D01*
X89918719Y-137028851D01*
X84328500Y-137028851D01*
X84328500Y-134992885D01*
X100232000Y-134992885D01*
X100236475Y-135008124D01*
X100237865Y-135009329D01*
X100245548Y-135011000D01*
X101367885Y-135011000D01*
X101383124Y-135006525D01*
X101384329Y-135005135D01*
X101386000Y-134997452D01*
X101386000Y-133875116D01*
X101381525Y-133859877D01*
X101380135Y-133858672D01*
X101372452Y-133857001D01*
X100695331Y-133857001D01*
X100688510Y-133857371D01*
X100637648Y-133862895D01*
X100622396Y-133866521D01*
X100501946Y-133911676D01*
X100486351Y-133920214D01*
X100384276Y-133996715D01*
X100371715Y-134009276D01*
X100295214Y-134111351D01*
X100286676Y-134126946D01*
X100241522Y-134247394D01*
X100237895Y-134262649D01*
X100232369Y-134313514D01*
X100232000Y-134320328D01*
X100232000Y-134992885D01*
X84328500Y-134992885D01*
X84328500Y-128093884D01*
X97471500Y-128093884D01*
X97471665Y-128096152D01*
X97471665Y-128096164D01*
X97479725Y-128207238D01*
X97486125Y-128295451D01*
X97487109Y-128299906D01*
X97487109Y-128299909D01*
X97526482Y-128478240D01*
X97544585Y-128560237D01*
X97640655Y-128813810D01*
X97772324Y-129050859D01*
X97936833Y-129266417D01*
X98130736Y-129455970D01*
X98349972Y-129615547D01*
X98589947Y-129741804D01*
X98594248Y-129743323D01*
X98594253Y-129743325D01*
X98727087Y-129790233D01*
X98845634Y-129832096D01*
X98943653Y-129851415D01*
X99107206Y-129883652D01*
X99107212Y-129883653D01*
X99111678Y-129884533D01*
X99116232Y-129884760D01*
X99116234Y-129884760D01*
X99377936Y-129897789D01*
X99377942Y-129897789D01*
X99382505Y-129898016D01*
X99652441Y-129872262D01*
X99656870Y-129871178D01*
X99656877Y-129871177D01*
X99816584Y-129832096D01*
X99915832Y-129807810D01*
X100075039Y-129743325D01*
X100162931Y-129707725D01*
X100162932Y-129707725D01*
X100167160Y-129706012D01*
X100401161Y-129568999D01*
X100612932Y-129399641D01*
X100734399Y-129269612D01*
X100794921Y-129204824D01*
X100794923Y-129204821D01*
X100798037Y-129201488D01*
X100952598Y-128978688D01*
X101034624Y-128813810D01*
X101071346Y-128739997D01*
X101071347Y-128739994D01*
X101073379Y-128735910D01*
X101157847Y-128478240D01*
X101204235Y-128211075D01*
X101208500Y-128125400D01*
X101208500Y-128093884D01*
X107071500Y-128093884D01*
X107071665Y-128096152D01*
X107071665Y-128096164D01*
X107079725Y-128207238D01*
X107086125Y-128295451D01*
X107087109Y-128299906D01*
X107087109Y-128299909D01*
X107126482Y-128478240D01*
X107144585Y-128560237D01*
X107240655Y-128813810D01*
X107372324Y-129050859D01*
X107536833Y-129266417D01*
X107730736Y-129455970D01*
X107949972Y-129615547D01*
X108189947Y-129741804D01*
X108194248Y-129743323D01*
X108194253Y-129743325D01*
X108327087Y-129790233D01*
X108445634Y-129832096D01*
X108543653Y-129851415D01*
X108707206Y-129883652D01*
X108707212Y-129883653D01*
X108711678Y-129884533D01*
X108716232Y-129884760D01*
X108716234Y-129884760D01*
X108977936Y-129897789D01*
X108977942Y-129897789D01*
X108982505Y-129898016D01*
X109252441Y-129872262D01*
X109256870Y-129871178D01*
X109256877Y-129871177D01*
X109416584Y-129832096D01*
X109515832Y-129807810D01*
X109675039Y-129743325D01*
X109762931Y-129707725D01*
X109762932Y-129707725D01*
X109767160Y-129706012D01*
X110001161Y-129568999D01*
X110212932Y-129399641D01*
X110334399Y-129269612D01*
X110394921Y-129204824D01*
X110394923Y-129204821D01*
X110398037Y-129201488D01*
X110552598Y-128978688D01*
X110634624Y-128813810D01*
X110671346Y-128739997D01*
X110671347Y-128739994D01*
X110673379Y-128735910D01*
X110757847Y-128478240D01*
X110804235Y-128211075D01*
X110808500Y-128125400D01*
X110808500Y-127436116D01*
X110806328Y-127406170D01*
X110794205Y-127239100D01*
X110793875Y-127234549D01*
X110792891Y-127230091D01*
X110736400Y-126974223D01*
X110736399Y-126974219D01*
X110735415Y-126969763D01*
X110639345Y-126716190D01*
X110507676Y-126479141D01*
X110343167Y-126263583D01*
X110326606Y-126247393D01*
X110175688Y-126099861D01*
X110149264Y-126074030D01*
X110071062Y-126017108D01*
X109933721Y-125917141D01*
X109930028Y-125914453D01*
X109690053Y-125788196D01*
X109685752Y-125786677D01*
X109685747Y-125786675D01*
X109552913Y-125739767D01*
X109434366Y-125697904D01*
X109336347Y-125678585D01*
X109172794Y-125646348D01*
X109172788Y-125646347D01*
X109168322Y-125645467D01*
X109163768Y-125645240D01*
X109163766Y-125645240D01*
X108902064Y-125632211D01*
X108902058Y-125632211D01*
X108897495Y-125631984D01*
X108627559Y-125657738D01*
X108623130Y-125658822D01*
X108623123Y-125658823D01*
X108493069Y-125690648D01*
X108364168Y-125722190D01*
X108359933Y-125723905D01*
X108359931Y-125723906D01*
X108117069Y-125822275D01*
X108112840Y-125823988D01*
X107878839Y-125961001D01*
X107667068Y-126130359D01*
X107663947Y-126133700D01*
X107539224Y-126267215D01*
X107481963Y-126328512D01*
X107327402Y-126551312D01*
X107325374Y-126555388D01*
X107325373Y-126555390D01*
X107243252Y-126720460D01*
X107206621Y-126794090D01*
X107122153Y-127051760D01*
X107075765Y-127318925D01*
X107071500Y-127404600D01*
X107071500Y-128093884D01*
X101208500Y-128093884D01*
X101208500Y-127436116D01*
X101206328Y-127406170D01*
X101194205Y-127239100D01*
X101193875Y-127234549D01*
X101192891Y-127230091D01*
X101136400Y-126974223D01*
X101136399Y-126974219D01*
X101135415Y-126969763D01*
X101039345Y-126716190D01*
X100907676Y-126479141D01*
X100743167Y-126263583D01*
X100726606Y-126247393D01*
X100575688Y-126099861D01*
X100549264Y-126074030D01*
X100471062Y-126017108D01*
X100333721Y-125917141D01*
X100330028Y-125914453D01*
X100090053Y-125788196D01*
X100085752Y-125786677D01*
X100085747Y-125786675D01*
X99952913Y-125739767D01*
X99834366Y-125697904D01*
X99736347Y-125678585D01*
X99572794Y-125646348D01*
X99572788Y-125646347D01*
X99568322Y-125645467D01*
X99563768Y-125645240D01*
X99563766Y-125645240D01*
X99302064Y-125632211D01*
X99302058Y-125632211D01*
X99297495Y-125631984D01*
X99027559Y-125657738D01*
X99023130Y-125658822D01*
X99023123Y-125658823D01*
X98893069Y-125690648D01*
X98764168Y-125722190D01*
X98759933Y-125723905D01*
X98759931Y-125723906D01*
X98517069Y-125822275D01*
X98512840Y-125823988D01*
X98278839Y-125961001D01*
X98067068Y-126130359D01*
X98063947Y-126133700D01*
X97939224Y-126267215D01*
X97881963Y-126328512D01*
X97727402Y-126551312D01*
X97725374Y-126555388D01*
X97725373Y-126555390D01*
X97643252Y-126720460D01*
X97606621Y-126794090D01*
X97522153Y-127051760D01*
X97475765Y-127318925D01*
X97471500Y-127404600D01*
X97471500Y-128093884D01*
X84328500Y-128093884D01*
X84328500Y-125373580D01*
X90498317Y-125373580D01*
X90524252Y-125497188D01*
X90527312Y-125507384D01*
X90609284Y-125714952D01*
X90614018Y-125724489D01*
X90729796Y-125915285D01*
X90736062Y-125923878D01*
X90882333Y-126092441D01*
X90889964Y-126099861D01*
X91062542Y-126241368D01*
X91071309Y-126247393D01*
X91265262Y-126357797D01*
X91274926Y-126362262D01*
X91484711Y-126438410D01*
X91494979Y-126441181D01*
X91715766Y-126481106D01*
X91723995Y-126482039D01*
X91742874Y-126482930D01*
X91745849Y-126483000D01*
X91802885Y-126483000D01*
X91818124Y-126478525D01*
X91819329Y-126477135D01*
X91821000Y-126469452D01*
X91821000Y-126464885D01*
X92329000Y-126464885D01*
X92333475Y-126480124D01*
X92334865Y-126481329D01*
X92342548Y-126483000D01*
X92356054Y-126483000D01*
X92361363Y-126482775D01*
X92527707Y-126468661D01*
X92538179Y-126466871D01*
X92754202Y-126410802D01*
X92764242Y-126407266D01*
X92967732Y-126315601D01*
X92977018Y-126310432D01*
X93162155Y-126185790D01*
X93170441Y-126179129D01*
X93331930Y-126025076D01*
X93338979Y-126017108D01*
X93472203Y-125838048D01*
X93477802Y-125829018D01*
X93578953Y-125630069D01*
X93582956Y-125620208D01*
X93649138Y-125407071D01*
X93651420Y-125396691D01*
X93654036Y-125376957D01*
X93651840Y-125362793D01*
X93638655Y-125359000D01*
X92347115Y-125359000D01*
X92331876Y-125363475D01*
X92330671Y-125364865D01*
X92329000Y-125372548D01*
X92329000Y-126464885D01*
X91821000Y-126464885D01*
X91821000Y-125377115D01*
X91816525Y-125361876D01*
X91815135Y-125360671D01*
X91807452Y-125359000D01*
X90513373Y-125359000D01*
X90499842Y-125362973D01*
X90498317Y-125373580D01*
X84328500Y-125373580D01*
X84328500Y-122499829D01*
X90468052Y-122499829D01*
X90476828Y-122733604D01*
X90524868Y-122962559D01*
X90610797Y-123180146D01*
X90732159Y-123380144D01*
X90885483Y-123556834D01*
X91066386Y-123705165D01*
X91071022Y-123707804D01*
X91071025Y-123707806D01*
X91104001Y-123726577D01*
X91153307Y-123777659D01*
X91167169Y-123847289D01*
X91141186Y-123913360D01*
X91112036Y-123940599D01*
X90987845Y-124024210D01*
X90979559Y-124030871D01*
X90818070Y-124184924D01*
X90811021Y-124192892D01*
X90677797Y-124371952D01*
X90672198Y-124380982D01*
X90571047Y-124579931D01*
X90567044Y-124589792D01*
X90500862Y-124802929D01*
X90498580Y-124813309D01*
X90495964Y-124833043D01*
X90498160Y-124847207D01*
X90511345Y-124851000D01*
X93636627Y-124851000D01*
X93650158Y-124847027D01*
X93651683Y-124836420D01*
X93625748Y-124712812D01*
X93622688Y-124702616D01*
X93540716Y-124495048D01*
X93535982Y-124485511D01*
X93420204Y-124294715D01*
X93413938Y-124286122D01*
X93267667Y-124117559D01*
X93260036Y-124110139D01*
X93087458Y-123968632D01*
X93078691Y-123962607D01*
X93046022Y-123944011D01*
X92996715Y-123892929D01*
X92982854Y-123823298D01*
X93008837Y-123757227D01*
X93037987Y-123729989D01*
X93104601Y-123685142D01*
X93166896Y-123643202D01*
X93336168Y-123481724D01*
X93475813Y-123294035D01*
X93531398Y-123184709D01*
X93579420Y-123090256D01*
X93579420Y-123090255D01*
X93581838Y-123085500D01*
X93651210Y-122862083D01*
X93668239Y-122733604D01*
X93681248Y-122635455D01*
X93681248Y-122635451D01*
X93681948Y-122630171D01*
X93673172Y-122396396D01*
X93625132Y-122167441D01*
X93539203Y-121949854D01*
X93417841Y-121749856D01*
X93264517Y-121573166D01*
X93083614Y-121424835D01*
X93078984Y-121422199D01*
X93078979Y-121422196D01*
X93046484Y-121403699D01*
X92997178Y-121352616D01*
X92983317Y-121282985D01*
X93009301Y-121216915D01*
X93038450Y-121189677D01*
X93079885Y-121161781D01*
X93166896Y-121103202D01*
X93336168Y-120941724D01*
X93475813Y-120754035D01*
X93478231Y-120749280D01*
X93481045Y-120744741D01*
X93482821Y-120745843D01*
X93525360Y-120700732D01*
X93588964Y-120683500D01*
X113982494Y-120683500D01*
X114050615Y-120703502D01*
X114073132Y-120721974D01*
X114075204Y-120724120D01*
X114079035Y-120728953D01*
X114229650Y-120857136D01*
X114402294Y-120953624D01*
X114590392Y-121014740D01*
X114786777Y-121038158D01*
X114792912Y-121037686D01*
X114792914Y-121037686D01*
X114977830Y-121023457D01*
X114977834Y-121023456D01*
X114983972Y-121022984D01*
X115174463Y-120969798D01*
X115179967Y-120967018D01*
X115179969Y-120967017D01*
X115345495Y-120883404D01*
X115345497Y-120883403D01*
X115350996Y-120880625D01*
X115506847Y-120758861D01*
X115636078Y-120609145D01*
X115733769Y-120437179D01*
X115796197Y-120249513D01*
X115820985Y-120053295D01*
X115821380Y-120025000D01*
X115802080Y-119828167D01*
X115744916Y-119638831D01*
X115652066Y-119464204D01*
X115535673Y-119321492D01*
X115530960Y-119315713D01*
X115530957Y-119315710D01*
X115527065Y-119310938D01*
X115520934Y-119305866D01*
X115379425Y-119188799D01*
X115379421Y-119188797D01*
X115374675Y-119184870D01*
X115200701Y-119090802D01*
X115011768Y-119032318D01*
X115005643Y-119031674D01*
X115005642Y-119031674D01*
X114821204Y-119012289D01*
X114821202Y-119012289D01*
X114815075Y-119011645D01*
X114732576Y-119019153D01*
X114624251Y-119029011D01*
X114624248Y-119029012D01*
X114618112Y-119029570D01*
X114612206Y-119031308D01*
X114612202Y-119031309D01*
X114507076Y-119062249D01*
X114428381Y-119085410D01*
X114422923Y-119088263D01*
X114422919Y-119088265D01*
X114332147Y-119135720D01*
X114253110Y-119177040D01*
X114098975Y-119300968D01*
X114095013Y-119305690D01*
X114081753Y-119321492D01*
X114022643Y-119360818D01*
X113985232Y-119366500D01*
X93583820Y-119366500D01*
X93515699Y-119346498D01*
X93476101Y-119305866D01*
X93417841Y-119209856D01*
X93264517Y-119033166D01*
X93083614Y-118884835D01*
X93078984Y-118882199D01*
X93078979Y-118882196D01*
X93046484Y-118863699D01*
X92997178Y-118812616D01*
X92983317Y-118742985D01*
X93009301Y-118676915D01*
X93038450Y-118649677D01*
X93079885Y-118621781D01*
X93166896Y-118563202D01*
X93336168Y-118401724D01*
X93475813Y-118214035D01*
X93531398Y-118104709D01*
X93579420Y-118010256D01*
X93579420Y-118010255D01*
X93581838Y-118005500D01*
X93651210Y-117782083D01*
X93668239Y-117653604D01*
X93681248Y-117555455D01*
X93681248Y-117555451D01*
X93681948Y-117550171D01*
X93673172Y-117316396D01*
X93625132Y-117087441D01*
X93539203Y-116869854D01*
X93417841Y-116669856D01*
X93264517Y-116493166D01*
X93083614Y-116344835D01*
X93078984Y-116342199D01*
X93078979Y-116342196D01*
X93046484Y-116323699D01*
X92997178Y-116272616D01*
X92983317Y-116202985D01*
X93009301Y-116136915D01*
X93038450Y-116109677D01*
X93079885Y-116081781D01*
X93166896Y-116023202D01*
X93336168Y-115861724D01*
X93475813Y-115674035D01*
X93531398Y-115564709D01*
X93579420Y-115470256D01*
X93579420Y-115470255D01*
X93581838Y-115465500D01*
X93651210Y-115242083D01*
X93668239Y-115113604D01*
X93681248Y-115015455D01*
X93681248Y-115015451D01*
X93681948Y-115010171D01*
X93673172Y-114776396D01*
X93625132Y-114547441D01*
X93539203Y-114329854D01*
X93417841Y-114129856D01*
X93264517Y-113953166D01*
X93227229Y-113922592D01*
X93187236Y-113863933D01*
X93185305Y-113792962D01*
X93222050Y-113732214D01*
X93244390Y-113717267D01*
X93243946Y-113716550D01*
X93388120Y-113627332D01*
X93394348Y-113623478D01*
X93519305Y-113498303D01*
X93612115Y-113347738D01*
X93667797Y-113179861D01*
X93678500Y-113075400D01*
X93678500Y-111734600D01*
X93667526Y-111628834D01*
X93611550Y-111461054D01*
X93518478Y-111310652D01*
X93393303Y-111185695D01*
X93387072Y-111181854D01*
X93248968Y-111096725D01*
X93248966Y-111096724D01*
X93242738Y-111092885D01*
X93082254Y-111039655D01*
X93081389Y-111039368D01*
X93081387Y-111039368D01*
X93074861Y-111037203D01*
X93068025Y-111036503D01*
X93068022Y-111036502D01*
X93024969Y-111032091D01*
X92970400Y-111026500D01*
X91179600Y-111026500D01*
X91176354Y-111026837D01*
X91176350Y-111026837D01*
X91080692Y-111036762D01*
X91080688Y-111036763D01*
X91073834Y-111037474D01*
X91067298Y-111039655D01*
X91067296Y-111039655D01*
X90935194Y-111083728D01*
X90906054Y-111093450D01*
X90755652Y-111186522D01*
X90630695Y-111311697D01*
X90537885Y-111462262D01*
X90482203Y-111630139D01*
X90471500Y-111734600D01*
X90471500Y-113075400D01*
X90482474Y-113181166D01*
X90538450Y-113348946D01*
X90631522Y-113499348D01*
X90756697Y-113624305D01*
X90762927Y-113628145D01*
X90762928Y-113628146D01*
X90907262Y-113717115D01*
X90905938Y-113719262D01*
X90950290Y-113758312D01*
X90969752Y-113826589D01*
X90949212Y-113894549D01*
X90930728Y-113916761D01*
X90817694Y-114024590D01*
X90817684Y-114024602D01*
X90813832Y-114028276D01*
X90674187Y-114215965D01*
X90671771Y-114220716D01*
X90671769Y-114220720D01*
X90613756Y-114334823D01*
X90568162Y-114424500D01*
X90498790Y-114647917D01*
X90498089Y-114653204D01*
X90498089Y-114653205D01*
X90481055Y-114781727D01*
X90468052Y-114879829D01*
X90476828Y-115113604D01*
X90524868Y-115342559D01*
X90610797Y-115560146D01*
X90732159Y-115760144D01*
X90885483Y-115936834D01*
X91066386Y-116085165D01*
X91071016Y-116087801D01*
X91071021Y-116087804D01*
X91103516Y-116106301D01*
X91152822Y-116157384D01*
X91166683Y-116227015D01*
X91140699Y-116293085D01*
X91111550Y-116320323D01*
X91079061Y-116342196D01*
X90983104Y-116406798D01*
X90813832Y-116568276D01*
X90674187Y-116755965D01*
X90671771Y-116760716D01*
X90671769Y-116760720D01*
X90613756Y-116874823D01*
X90568162Y-116964500D01*
X90498790Y-117187917D01*
X90498089Y-117193204D01*
X90498089Y-117193205D01*
X90481055Y-117321727D01*
X90468052Y-117419829D01*
X90476828Y-117653604D01*
X90524868Y-117882559D01*
X90610797Y-118100146D01*
X90732159Y-118300144D01*
X90885483Y-118476834D01*
X91066386Y-118625165D01*
X91071016Y-118627801D01*
X91071021Y-118627804D01*
X91103516Y-118646301D01*
X91152822Y-118697384D01*
X91166683Y-118767015D01*
X91140699Y-118833085D01*
X91111550Y-118860323D01*
X91079061Y-118882196D01*
X90983104Y-118946798D01*
X90813832Y-119108276D01*
X90674187Y-119295965D01*
X90671771Y-119300716D01*
X90671769Y-119300720D01*
X90585883Y-119469645D01*
X90568162Y-119504500D01*
X90498790Y-119727917D01*
X90498089Y-119733204D01*
X90498089Y-119733205D01*
X90484690Y-119834301D01*
X90468052Y-119959829D01*
X90468252Y-119965158D01*
X90468252Y-119965160D01*
X90470631Y-120028523D01*
X90476828Y-120193604D01*
X90524868Y-120422559D01*
X90610797Y-120640146D01*
X90613566Y-120644709D01*
X90664687Y-120728953D01*
X90732159Y-120840144D01*
X90885483Y-121016834D01*
X91066386Y-121165165D01*
X91071016Y-121167801D01*
X91071021Y-121167804D01*
X91103516Y-121186301D01*
X91152822Y-121237384D01*
X91166683Y-121307015D01*
X91140699Y-121373085D01*
X91111550Y-121400323D01*
X91079061Y-121422196D01*
X90983104Y-121486798D01*
X90813832Y-121648276D01*
X90674187Y-121835965D01*
X90671771Y-121840716D01*
X90671769Y-121840720D01*
X90613756Y-121954823D01*
X90568162Y-122044500D01*
X90498790Y-122267917D01*
X90498089Y-122273204D01*
X90498089Y-122273205D01*
X90481055Y-122401727D01*
X90468052Y-122499829D01*
X84328500Y-122499829D01*
X84328500Y-103500851D01*
X96776719Y-103500851D01*
X96793268Y-103697934D01*
X96847783Y-103888050D01*
X96938187Y-104063956D01*
X97061035Y-104218953D01*
X97211650Y-104347136D01*
X97384294Y-104443624D01*
X97572392Y-104504740D01*
X97768777Y-104528158D01*
X97774912Y-104527686D01*
X97774914Y-104527686D01*
X97959830Y-104513457D01*
X97959834Y-104513456D01*
X97965972Y-104512984D01*
X98156463Y-104459798D01*
X98161967Y-104457018D01*
X98161969Y-104457017D01*
X98327495Y-104373404D01*
X98327497Y-104373403D01*
X98332996Y-104370625D01*
X98488847Y-104248861D01*
X98516203Y-104217169D01*
X98575856Y-104178672D01*
X98611584Y-104173500D01*
X107867944Y-104173500D01*
X107879800Y-104174059D01*
X107879803Y-104174059D01*
X107887537Y-104175788D01*
X107958369Y-104173562D01*
X107962327Y-104173500D01*
X107991432Y-104173500D01*
X107995832Y-104172944D01*
X108007664Y-104172012D01*
X108053831Y-104170562D01*
X108074421Y-104164580D01*
X108093782Y-104160570D01*
X108100770Y-104159688D01*
X108107204Y-104158875D01*
X108107205Y-104158875D01*
X108115064Y-104157882D01*
X108122429Y-104154966D01*
X108122433Y-104154965D01*
X108158021Y-104140874D01*
X108169231Y-104137035D01*
X108213600Y-104124145D01*
X108232065Y-104113225D01*
X108249805Y-104104534D01*
X108269756Y-104096635D01*
X108307129Y-104069482D01*
X108317048Y-104062967D01*
X108349977Y-104043493D01*
X108349981Y-104043490D01*
X108356807Y-104039453D01*
X108371971Y-104024289D01*
X108387005Y-104011448D01*
X108397943Y-104003501D01*
X108404357Y-103998841D01*
X108433803Y-103963247D01*
X108441792Y-103954468D01*
X109609933Y-102786327D01*
X109672245Y-102752301D01*
X109701211Y-102749494D01*
X109706777Y-102750158D01*
X109712912Y-102749686D01*
X109712915Y-102749686D01*
X109897830Y-102735457D01*
X109897834Y-102735456D01*
X109903972Y-102734984D01*
X110094463Y-102681798D01*
X110099967Y-102679018D01*
X110099969Y-102679017D01*
X110265495Y-102595404D01*
X110265497Y-102595403D01*
X110270996Y-102592625D01*
X110426847Y-102470861D01*
X110556078Y-102321145D01*
X110653769Y-102149179D01*
X110716197Y-101961513D01*
X110740985Y-101765295D01*
X110741380Y-101737000D01*
X110722080Y-101540167D01*
X110664916Y-101350831D01*
X110572066Y-101176204D01*
X110501709Y-101089938D01*
X110450960Y-101027713D01*
X110450957Y-101027710D01*
X110447065Y-101022938D01*
X110440724Y-101017692D01*
X110299425Y-100900799D01*
X110299421Y-100900797D01*
X110294675Y-100896870D01*
X110120701Y-100802802D01*
X109931768Y-100744318D01*
X109925643Y-100743674D01*
X109925642Y-100743674D01*
X109741204Y-100724289D01*
X109741202Y-100724289D01*
X109735075Y-100723645D01*
X109652576Y-100731153D01*
X109544251Y-100741011D01*
X109544248Y-100741012D01*
X109538112Y-100741570D01*
X109532206Y-100743308D01*
X109532202Y-100743309D01*
X109427076Y-100774249D01*
X109348381Y-100797410D01*
X109342923Y-100800263D01*
X109342919Y-100800265D01*
X109252147Y-100847720D01*
X109173110Y-100889040D01*
X109018975Y-101012968D01*
X108891846Y-101164474D01*
X108888879Y-101169872D01*
X108888875Y-101169877D01*
X108885397Y-101176204D01*
X108796567Y-101337787D01*
X108794706Y-101343654D01*
X108794705Y-101343656D01*
X108738627Y-101520436D01*
X108736765Y-101526306D01*
X108714719Y-101722851D01*
X108715235Y-101728995D01*
X108717275Y-101753290D01*
X108703043Y-101822845D01*
X108680812Y-101852928D01*
X107714145Y-102819595D01*
X107651833Y-102853621D01*
X107625050Y-102856500D01*
X98614209Y-102856500D01*
X98546088Y-102836498D01*
X98516567Y-102810136D01*
X98512960Y-102805713D01*
X98512956Y-102805709D01*
X98509065Y-102800938D01*
X98427336Y-102733326D01*
X98361425Y-102678799D01*
X98361421Y-102678797D01*
X98356675Y-102674870D01*
X98182701Y-102580802D01*
X97993768Y-102522318D01*
X97987643Y-102521674D01*
X97987642Y-102521674D01*
X97803204Y-102502289D01*
X97803202Y-102502289D01*
X97797075Y-102501645D01*
X97714576Y-102509153D01*
X97606251Y-102519011D01*
X97606248Y-102519012D01*
X97600112Y-102519570D01*
X97594206Y-102521308D01*
X97594202Y-102521309D01*
X97489076Y-102552249D01*
X97410381Y-102575410D01*
X97404923Y-102578263D01*
X97404919Y-102578265D01*
X97372136Y-102595404D01*
X97235110Y-102667040D01*
X97080975Y-102790968D01*
X96953846Y-102942474D01*
X96950879Y-102947872D01*
X96950875Y-102947877D01*
X96872095Y-103091180D01*
X96858567Y-103115787D01*
X96798765Y-103304306D01*
X96776719Y-103500851D01*
X84328500Y-103500851D01*
X84328500Y-98703580D01*
X90518317Y-98703580D01*
X90544252Y-98827188D01*
X90547312Y-98837384D01*
X90629284Y-99044952D01*
X90634018Y-99054489D01*
X90749796Y-99245285D01*
X90756062Y-99253878D01*
X90902333Y-99422441D01*
X90909964Y-99429861D01*
X91082542Y-99571368D01*
X91091309Y-99577393D01*
X91285262Y-99687797D01*
X91294926Y-99692262D01*
X91504711Y-99768410D01*
X91514979Y-99771181D01*
X91735766Y-99811106D01*
X91743995Y-99812039D01*
X91762874Y-99812930D01*
X91765849Y-99813000D01*
X91822885Y-99813000D01*
X91838124Y-99808525D01*
X91839329Y-99807135D01*
X91841000Y-99799452D01*
X91841000Y-99794885D01*
X92349000Y-99794885D01*
X92353475Y-99810124D01*
X92354865Y-99811329D01*
X92362548Y-99813000D01*
X92376054Y-99813000D01*
X92381363Y-99812775D01*
X92547707Y-99798661D01*
X92558179Y-99796871D01*
X92774202Y-99740802D01*
X92784242Y-99737266D01*
X92987732Y-99645601D01*
X92997018Y-99640432D01*
X93182155Y-99515790D01*
X93190441Y-99509129D01*
X93351930Y-99355076D01*
X93358979Y-99347108D01*
X93492203Y-99168048D01*
X93497802Y-99159018D01*
X93598953Y-98960069D01*
X93602956Y-98950208D01*
X93669138Y-98737071D01*
X93671420Y-98726691D01*
X93674036Y-98706957D01*
X93671840Y-98692793D01*
X93658655Y-98689000D01*
X92367115Y-98689000D01*
X92351876Y-98693475D01*
X92350671Y-98694865D01*
X92349000Y-98702548D01*
X92349000Y-99794885D01*
X91841000Y-99794885D01*
X91841000Y-98707115D01*
X91836525Y-98691876D01*
X91835135Y-98690671D01*
X91827452Y-98689000D01*
X90533373Y-98689000D01*
X90519842Y-98692973D01*
X90518317Y-98703580D01*
X84328500Y-98703580D01*
X84328500Y-95829829D01*
X90488052Y-95829829D01*
X90496828Y-96063604D01*
X90544868Y-96292559D01*
X90630797Y-96510146D01*
X90752159Y-96710144D01*
X90905483Y-96886834D01*
X91086386Y-97035165D01*
X91091022Y-97037804D01*
X91091025Y-97037806D01*
X91124001Y-97056577D01*
X91173307Y-97107659D01*
X91187169Y-97177289D01*
X91161186Y-97243360D01*
X91132036Y-97270599D01*
X91007845Y-97354210D01*
X90999559Y-97360871D01*
X90838070Y-97514924D01*
X90831021Y-97522892D01*
X90697797Y-97701952D01*
X90692198Y-97710982D01*
X90591047Y-97909931D01*
X90587044Y-97919792D01*
X90520862Y-98132929D01*
X90518580Y-98143309D01*
X90515964Y-98163043D01*
X90518160Y-98177207D01*
X90531345Y-98181000D01*
X93656627Y-98181000D01*
X93670158Y-98177027D01*
X93671683Y-98166420D01*
X93645748Y-98042812D01*
X93642688Y-98032616D01*
X93560716Y-97825048D01*
X93555982Y-97815511D01*
X93440204Y-97624715D01*
X93433938Y-97616122D01*
X93287667Y-97447559D01*
X93280036Y-97440139D01*
X93107458Y-97298632D01*
X93098691Y-97292607D01*
X93066022Y-97274011D01*
X93016715Y-97222929D01*
X93002854Y-97153298D01*
X93028837Y-97087227D01*
X93057987Y-97059989D01*
X93124601Y-97015142D01*
X93186896Y-96973202D01*
X93356168Y-96811724D01*
X93495813Y-96624035D01*
X93551398Y-96514709D01*
X93599420Y-96420256D01*
X93599420Y-96420255D01*
X93601838Y-96415500D01*
X93671210Y-96192083D01*
X93688239Y-96063604D01*
X93701248Y-95965455D01*
X93701248Y-95965451D01*
X93701948Y-95960171D01*
X93693172Y-95726396D01*
X93645132Y-95497441D01*
X93559203Y-95279854D01*
X93437841Y-95079856D01*
X93284517Y-94903166D01*
X93247229Y-94872592D01*
X93207236Y-94813933D01*
X93205305Y-94742962D01*
X93242050Y-94682214D01*
X93264390Y-94667267D01*
X93263946Y-94666550D01*
X93408120Y-94577332D01*
X93414348Y-94573478D01*
X93539305Y-94448303D01*
X93632115Y-94297738D01*
X93687797Y-94129861D01*
X93698500Y-94025400D01*
X93698500Y-92684600D01*
X93687526Y-92578834D01*
X93682415Y-92563513D01*
X93633868Y-92418002D01*
X93631550Y-92411054D01*
X93538478Y-92260652D01*
X93413303Y-92135695D01*
X93407072Y-92131854D01*
X93268968Y-92046725D01*
X93268966Y-92046724D01*
X93262738Y-92042885D01*
X93182995Y-92016436D01*
X93101389Y-91989368D01*
X93101387Y-91989368D01*
X93094861Y-91987203D01*
X93088025Y-91986503D01*
X93088022Y-91986502D01*
X93044969Y-91982091D01*
X92990400Y-91976500D01*
X91199600Y-91976500D01*
X91196354Y-91976837D01*
X91196350Y-91976837D01*
X91100692Y-91986762D01*
X91100688Y-91986763D01*
X91093834Y-91987474D01*
X91087298Y-91989655D01*
X91087296Y-91989655D01*
X91059418Y-91998956D01*
X90926054Y-92043450D01*
X90775652Y-92136522D01*
X90770479Y-92141704D01*
X90763073Y-92149123D01*
X90650695Y-92261697D01*
X90646855Y-92267927D01*
X90646854Y-92267928D01*
X90603045Y-92339000D01*
X90557885Y-92412262D01*
X90541160Y-92462686D01*
X90505777Y-92569365D01*
X90502203Y-92580139D01*
X90491500Y-92684600D01*
X90491500Y-94025400D01*
X90502474Y-94131166D01*
X90558450Y-94298946D01*
X90651522Y-94449348D01*
X90776697Y-94574305D01*
X90782927Y-94578145D01*
X90782928Y-94578146D01*
X90927262Y-94667115D01*
X90925938Y-94669262D01*
X90970290Y-94708312D01*
X90989752Y-94776589D01*
X90969212Y-94844549D01*
X90950728Y-94866761D01*
X90837694Y-94974590D01*
X90837684Y-94974602D01*
X90833832Y-94978276D01*
X90694187Y-95165965D01*
X90691771Y-95170716D01*
X90691769Y-95170720D01*
X90633756Y-95284823D01*
X90588162Y-95374500D01*
X90518790Y-95597917D01*
X90518089Y-95603204D01*
X90518089Y-95603205D01*
X90501055Y-95731727D01*
X90488052Y-95829829D01*
X84328500Y-95829829D01*
X84328500Y-91435851D01*
X95252719Y-91435851D01*
X95253235Y-91441995D01*
X95268597Y-91624938D01*
X95269268Y-91632934D01*
X95281278Y-91674818D01*
X95312484Y-91783645D01*
X95323783Y-91823050D01*
X95326602Y-91828535D01*
X95387687Y-91947392D01*
X95414187Y-91998956D01*
X95537035Y-92153953D01*
X95541728Y-92157947D01*
X95541729Y-92157948D01*
X95670956Y-92267928D01*
X95687650Y-92282136D01*
X95860294Y-92378624D01*
X96048392Y-92439740D01*
X96244777Y-92463158D01*
X96250911Y-92462686D01*
X96250913Y-92462686D01*
X96262020Y-92461831D01*
X96282748Y-92460236D01*
X96352202Y-92474953D01*
X96381510Y-92496770D01*
X96631345Y-92746605D01*
X96639335Y-92755385D01*
X96643584Y-92762080D01*
X96649362Y-92767506D01*
X96649363Y-92767507D01*
X96695257Y-92810604D01*
X96698099Y-92813359D01*
X96718667Y-92833927D01*
X96722170Y-92836644D01*
X96731195Y-92844352D01*
X96764867Y-92875972D01*
X96771818Y-92879793D01*
X96771819Y-92879794D01*
X96783658Y-92886303D01*
X96800182Y-92897157D01*
X96810271Y-92904982D01*
X96817132Y-92910304D01*
X96824404Y-92913451D01*
X96824406Y-92913452D01*
X96859535Y-92928654D01*
X96870196Y-92933876D01*
X96910663Y-92956124D01*
X96931441Y-92961459D01*
X96950131Y-92967858D01*
X96969824Y-92976380D01*
X97013596Y-92983313D01*
X97015448Y-92983606D01*
X97027071Y-92986013D01*
X97055072Y-92993202D01*
X97071812Y-92997500D01*
X97093259Y-92997500D01*
X97112969Y-92999051D01*
X97134152Y-93002406D01*
X97180141Y-92998059D01*
X97191996Y-92997500D01*
X111339754Y-92997500D01*
X111407875Y-93017502D01*
X111447186Y-93057665D01*
X111549235Y-93224193D01*
X111549242Y-93224203D01*
X111551824Y-93228416D01*
X111706031Y-93408969D01*
X111886584Y-93563176D01*
X111890792Y-93565755D01*
X111890798Y-93565759D01*
X112084817Y-93684654D01*
X112089037Y-93687240D01*
X112093607Y-93689133D01*
X112093611Y-93689135D01*
X112303833Y-93776211D01*
X112308406Y-93778105D01*
X112388609Y-93797360D01*
X112534476Y-93832380D01*
X112534482Y-93832381D01*
X112539289Y-93833535D01*
X112776000Y-93852165D01*
X113012711Y-93833535D01*
X113017518Y-93832381D01*
X113017524Y-93832380D01*
X113163391Y-93797360D01*
X113243594Y-93778105D01*
X113248167Y-93776211D01*
X113458389Y-93689135D01*
X113458393Y-93689133D01*
X113462963Y-93687240D01*
X113467183Y-93684654D01*
X113661202Y-93565759D01*
X113661208Y-93565755D01*
X113665416Y-93563176D01*
X113845969Y-93408969D01*
X114000176Y-93228416D01*
X114002758Y-93224203D01*
X114002765Y-93224193D01*
X114104814Y-93057665D01*
X114157461Y-93010034D01*
X114212246Y-92997500D01*
X118046494Y-92997500D01*
X118114615Y-93017502D01*
X118137132Y-93035974D01*
X118139204Y-93038120D01*
X118143035Y-93042953D01*
X118293650Y-93171136D01*
X118466294Y-93267624D01*
X118654392Y-93328740D01*
X118850777Y-93352158D01*
X118856912Y-93351686D01*
X118856914Y-93351686D01*
X119041830Y-93337457D01*
X119041834Y-93337456D01*
X119047972Y-93336984D01*
X119238463Y-93283798D01*
X119243967Y-93281018D01*
X119243969Y-93281017D01*
X119409495Y-93197404D01*
X119409497Y-93197403D01*
X119414996Y-93194625D01*
X119570847Y-93072861D01*
X119674908Y-92952305D01*
X119696049Y-92927813D01*
X119696050Y-92927811D01*
X119700078Y-92923145D01*
X119797769Y-92751179D01*
X119860197Y-92563513D01*
X119884985Y-92367295D01*
X119885380Y-92339000D01*
X119866080Y-92142167D01*
X119862967Y-92131854D01*
X119837264Y-92046725D01*
X119808916Y-91952831D01*
X119716066Y-91778204D01*
X119620067Y-91660498D01*
X119594960Y-91629713D01*
X119594957Y-91629710D01*
X119591065Y-91624938D01*
X119585501Y-91620335D01*
X119443425Y-91502799D01*
X119443421Y-91502797D01*
X119438675Y-91498870D01*
X119264701Y-91404802D01*
X119075768Y-91346318D01*
X119069643Y-91345674D01*
X119069642Y-91345674D01*
X118885204Y-91326289D01*
X118885202Y-91326289D01*
X118879075Y-91325645D01*
X118796576Y-91333153D01*
X118688251Y-91343011D01*
X118688248Y-91343012D01*
X118682112Y-91343570D01*
X118676206Y-91345308D01*
X118676202Y-91345309D01*
X118571076Y-91376249D01*
X118492381Y-91399410D01*
X118486923Y-91402263D01*
X118486919Y-91402265D01*
X118434392Y-91429726D01*
X118317110Y-91491040D01*
X118162975Y-91614968D01*
X118159013Y-91619690D01*
X118145753Y-91635492D01*
X118086643Y-91674818D01*
X118049232Y-91680500D01*
X114212246Y-91680500D01*
X114144125Y-91660498D01*
X114104814Y-91620335D01*
X114002765Y-91453807D01*
X114002758Y-91453797D01*
X114000176Y-91449584D01*
X113845969Y-91269031D01*
X113665416Y-91114824D01*
X113661208Y-91112245D01*
X113661202Y-91112241D01*
X113467183Y-90993346D01*
X113462963Y-90990760D01*
X113458393Y-90988867D01*
X113458389Y-90988865D01*
X113248167Y-90901789D01*
X113248165Y-90901788D01*
X113243594Y-90899895D01*
X113150204Y-90877474D01*
X113017524Y-90845620D01*
X113017518Y-90845619D01*
X113012711Y-90844465D01*
X112776000Y-90825835D01*
X112539289Y-90844465D01*
X112534482Y-90845619D01*
X112534476Y-90845620D01*
X112401796Y-90877474D01*
X112308406Y-90899895D01*
X112303835Y-90901788D01*
X112303833Y-90901789D01*
X112093611Y-90988865D01*
X112093607Y-90988867D01*
X112089037Y-90990760D01*
X112084817Y-90993346D01*
X111890798Y-91112241D01*
X111890792Y-91112245D01*
X111886584Y-91114824D01*
X111706031Y-91269031D01*
X111551824Y-91449584D01*
X111549242Y-91453797D01*
X111549235Y-91453807D01*
X111447186Y-91620335D01*
X111394539Y-91667966D01*
X111339754Y-91680500D01*
X107986282Y-91680500D01*
X107918161Y-91660498D01*
X107871668Y-91606842D01*
X107861564Y-91536568D01*
X107873324Y-91498674D01*
X107888332Y-91468308D01*
X107954078Y-91335280D01*
X108021408Y-91113671D01*
X108051640Y-90884041D01*
X108051722Y-90880691D01*
X108053245Y-90818365D01*
X108053245Y-90818361D01*
X108053327Y-90815000D01*
X108045690Y-90722104D01*
X108034773Y-90589318D01*
X108034772Y-90589312D01*
X108034349Y-90584167D01*
X108006137Y-90471850D01*
X107979184Y-90364544D01*
X107979183Y-90364540D01*
X107977925Y-90359533D01*
X107885570Y-90147131D01*
X107759764Y-89952665D01*
X107603887Y-89781358D01*
X107599836Y-89778159D01*
X107599832Y-89778155D01*
X107426177Y-89641011D01*
X107426172Y-89641008D01*
X107422123Y-89637810D01*
X107417607Y-89635317D01*
X107417604Y-89635315D01*
X107223879Y-89528373D01*
X107223875Y-89528371D01*
X107219355Y-89525876D01*
X107214486Y-89524152D01*
X107214482Y-89524150D01*
X107005903Y-89450288D01*
X107005899Y-89450287D01*
X107001028Y-89448562D01*
X106995935Y-89447655D01*
X106995932Y-89447654D01*
X106778095Y-89408851D01*
X106778089Y-89408850D01*
X106773006Y-89407945D01*
X106695644Y-89407000D01*
X106546581Y-89405179D01*
X106546579Y-89405179D01*
X106541411Y-89405116D01*
X106312464Y-89440150D01*
X106092314Y-89512106D01*
X106087726Y-89514494D01*
X106087722Y-89514496D01*
X105891461Y-89616663D01*
X105886872Y-89619052D01*
X105882739Y-89622155D01*
X105882736Y-89622157D01*
X105705790Y-89755012D01*
X105701655Y-89758117D01*
X105541639Y-89925564D01*
X105494836Y-89994174D01*
X105439927Y-90039175D01*
X105369402Y-90047346D01*
X105305655Y-90016092D01*
X105284959Y-89991609D01*
X105262577Y-89957013D01*
X105262574Y-89957009D01*
X105259764Y-89952665D01*
X105103887Y-89781358D01*
X105099836Y-89778159D01*
X105099832Y-89778155D01*
X104926177Y-89641011D01*
X104926172Y-89641008D01*
X104922123Y-89637810D01*
X104917607Y-89635317D01*
X104917604Y-89635315D01*
X104723879Y-89528373D01*
X104723875Y-89528371D01*
X104719355Y-89525876D01*
X104714486Y-89524152D01*
X104714482Y-89524150D01*
X104505903Y-89450288D01*
X104505899Y-89450287D01*
X104501028Y-89448562D01*
X104495935Y-89447655D01*
X104495932Y-89447654D01*
X104278095Y-89408851D01*
X104278089Y-89408850D01*
X104273006Y-89407945D01*
X104195644Y-89407000D01*
X104046581Y-89405179D01*
X104046579Y-89405179D01*
X104041411Y-89405116D01*
X103812464Y-89440150D01*
X103592314Y-89512106D01*
X103587726Y-89514494D01*
X103587722Y-89514496D01*
X103391461Y-89616663D01*
X103386872Y-89619052D01*
X103382739Y-89622155D01*
X103382736Y-89622157D01*
X103205790Y-89755012D01*
X103201655Y-89758117D01*
X103201066Y-89757333D01*
X103141346Y-89785484D01*
X103070955Y-89776231D01*
X103016741Y-89730391D01*
X103003925Y-89705224D01*
X102993323Y-89676944D01*
X102984786Y-89661351D01*
X102908285Y-89559276D01*
X102895724Y-89546715D01*
X102793649Y-89470214D01*
X102778054Y-89461676D01*
X102657606Y-89416522D01*
X102642351Y-89412895D01*
X102591486Y-89407369D01*
X102584672Y-89407000D01*
X101912115Y-89407000D01*
X101896876Y-89411475D01*
X101895671Y-89412865D01*
X101894000Y-89420548D01*
X101894000Y-90943000D01*
X101873998Y-91011121D01*
X101820342Y-91057614D01*
X101768000Y-91069000D01*
X100250116Y-91069000D01*
X100234877Y-91073475D01*
X100233672Y-91074865D01*
X100232001Y-91082548D01*
X100232001Y-91554500D01*
X100211999Y-91622621D01*
X100158343Y-91669114D01*
X100106001Y-91680500D01*
X97479950Y-91680500D01*
X97411829Y-91660498D01*
X97390855Y-91643595D01*
X97315885Y-91568625D01*
X97281859Y-91506313D01*
X97278992Y-91477770D01*
X97279331Y-91453522D01*
X97279331Y-91453519D01*
X97279380Y-91450000D01*
X97260080Y-91253167D01*
X97202916Y-91063831D01*
X97110066Y-90889204D01*
X97021384Y-90780469D01*
X96988960Y-90740713D01*
X96988957Y-90740710D01*
X96985065Y-90735938D01*
X96978724Y-90730692D01*
X96837425Y-90613799D01*
X96837421Y-90613797D01*
X96832675Y-90609870D01*
X96708790Y-90542885D01*
X100232000Y-90542885D01*
X100236475Y-90558124D01*
X100237865Y-90559329D01*
X100245548Y-90561000D01*
X101367885Y-90561000D01*
X101383124Y-90556525D01*
X101384329Y-90555135D01*
X101386000Y-90547452D01*
X101386000Y-89425116D01*
X101381525Y-89409877D01*
X101380135Y-89408672D01*
X101372452Y-89407001D01*
X100695331Y-89407001D01*
X100688510Y-89407371D01*
X100637648Y-89412895D01*
X100622396Y-89416521D01*
X100501946Y-89461676D01*
X100486351Y-89470214D01*
X100384276Y-89546715D01*
X100371715Y-89559276D01*
X100295214Y-89661351D01*
X100286676Y-89676946D01*
X100241522Y-89797394D01*
X100237895Y-89812649D01*
X100232369Y-89863514D01*
X100232000Y-89870328D01*
X100232000Y-90542885D01*
X96708790Y-90542885D01*
X96658701Y-90515802D01*
X96469768Y-90457318D01*
X96463643Y-90456674D01*
X96463642Y-90456674D01*
X96279204Y-90437289D01*
X96279202Y-90437289D01*
X96273075Y-90436645D01*
X96190576Y-90444153D01*
X96082251Y-90454011D01*
X96082248Y-90454012D01*
X96076112Y-90454570D01*
X96070206Y-90456308D01*
X96070202Y-90456309D01*
X95965076Y-90487249D01*
X95886381Y-90510410D01*
X95880923Y-90513263D01*
X95880919Y-90513265D01*
X95810329Y-90550169D01*
X95711110Y-90602040D01*
X95556975Y-90725968D01*
X95429846Y-90877474D01*
X95426879Y-90882872D01*
X95426875Y-90882877D01*
X95393823Y-90943000D01*
X95334567Y-91050787D01*
X95332706Y-91056654D01*
X95332705Y-91056656D01*
X95313050Y-91118617D01*
X95274765Y-91239306D01*
X95252719Y-91435851D01*
X84328500Y-91435851D01*
X84328500Y-83643884D01*
X97471500Y-83643884D01*
X97471665Y-83646152D01*
X97471665Y-83646164D01*
X97479725Y-83757238D01*
X97486125Y-83845451D01*
X97487109Y-83849906D01*
X97487109Y-83849909D01*
X97526482Y-84028240D01*
X97544585Y-84110237D01*
X97640655Y-84363810D01*
X97772324Y-84600859D01*
X97936833Y-84816417D01*
X98130736Y-85005970D01*
X98349972Y-85165547D01*
X98589947Y-85291804D01*
X98594248Y-85293323D01*
X98594253Y-85293325D01*
X98727087Y-85340233D01*
X98845634Y-85382096D01*
X98943653Y-85401415D01*
X99107206Y-85433652D01*
X99107212Y-85433653D01*
X99111678Y-85434533D01*
X99116232Y-85434760D01*
X99116234Y-85434760D01*
X99377936Y-85447789D01*
X99377942Y-85447789D01*
X99382505Y-85448016D01*
X99652441Y-85422262D01*
X99656870Y-85421178D01*
X99656877Y-85421177D01*
X99816584Y-85382096D01*
X99915832Y-85357810D01*
X100075039Y-85293325D01*
X100162931Y-85257725D01*
X100162932Y-85257725D01*
X100167160Y-85256012D01*
X100401161Y-85118999D01*
X100612932Y-84949641D01*
X100734399Y-84819612D01*
X100794921Y-84754824D01*
X100794923Y-84754821D01*
X100798037Y-84751488D01*
X100952598Y-84528688D01*
X101034624Y-84363810D01*
X101071346Y-84289997D01*
X101071347Y-84289994D01*
X101073379Y-84285910D01*
X101157847Y-84028240D01*
X101204235Y-83761075D01*
X101208500Y-83675400D01*
X101208500Y-83643884D01*
X107071500Y-83643884D01*
X107071665Y-83646152D01*
X107071665Y-83646164D01*
X107079725Y-83757238D01*
X107086125Y-83845451D01*
X107087109Y-83849906D01*
X107087109Y-83849909D01*
X107126482Y-84028240D01*
X107144585Y-84110237D01*
X107240655Y-84363810D01*
X107372324Y-84600859D01*
X107536833Y-84816417D01*
X107730736Y-85005970D01*
X107949972Y-85165547D01*
X108189947Y-85291804D01*
X108194248Y-85293323D01*
X108194253Y-85293325D01*
X108327087Y-85340233D01*
X108445634Y-85382096D01*
X108543653Y-85401415D01*
X108707206Y-85433652D01*
X108707212Y-85433653D01*
X108711678Y-85434533D01*
X108716232Y-85434760D01*
X108716234Y-85434760D01*
X108977936Y-85447789D01*
X108977942Y-85447789D01*
X108982505Y-85448016D01*
X109252441Y-85422262D01*
X109256870Y-85421178D01*
X109256877Y-85421177D01*
X109416584Y-85382096D01*
X109515832Y-85357810D01*
X109675039Y-85293325D01*
X109762931Y-85257725D01*
X109762932Y-85257725D01*
X109767160Y-85256012D01*
X110001161Y-85118999D01*
X110212932Y-84949641D01*
X110334399Y-84819612D01*
X110394921Y-84754824D01*
X110394923Y-84754821D01*
X110398037Y-84751488D01*
X110552598Y-84528688D01*
X110634624Y-84363810D01*
X110671346Y-84289997D01*
X110671347Y-84289994D01*
X110673379Y-84285910D01*
X110757847Y-84028240D01*
X110804235Y-83761075D01*
X110808500Y-83675400D01*
X110808500Y-82986116D01*
X110806328Y-82956170D01*
X110794205Y-82789100D01*
X110793875Y-82784549D01*
X110792891Y-82780091D01*
X110736400Y-82524223D01*
X110736399Y-82524219D01*
X110735415Y-82519763D01*
X110639345Y-82266190D01*
X110507676Y-82029141D01*
X110343167Y-81813583D01*
X110149264Y-81624030D01*
X109930028Y-81464453D01*
X109690053Y-81338196D01*
X109685752Y-81336677D01*
X109685747Y-81336675D01*
X109507998Y-81273906D01*
X109434366Y-81247904D01*
X109336347Y-81228585D01*
X109172794Y-81196348D01*
X109172788Y-81196347D01*
X109168322Y-81195467D01*
X109163768Y-81195240D01*
X109163766Y-81195240D01*
X108902064Y-81182211D01*
X108902058Y-81182211D01*
X108897495Y-81181984D01*
X108627559Y-81207738D01*
X108623130Y-81208822D01*
X108623123Y-81208823D01*
X108493069Y-81240648D01*
X108364168Y-81272190D01*
X108359933Y-81273905D01*
X108359931Y-81273906D01*
X108191906Y-81341963D01*
X108112840Y-81373988D01*
X107878839Y-81511001D01*
X107667068Y-81680359D01*
X107663947Y-81683700D01*
X107539224Y-81817215D01*
X107481963Y-81878512D01*
X107327402Y-82101312D01*
X107325374Y-82105388D01*
X107325373Y-82105390D01*
X107243252Y-82270460D01*
X107206621Y-82344090D01*
X107122153Y-82601760D01*
X107075765Y-82868925D01*
X107071500Y-82954600D01*
X107071500Y-83643884D01*
X101208500Y-83643884D01*
X101208500Y-82986116D01*
X101206328Y-82956170D01*
X101194205Y-82789100D01*
X101193875Y-82784549D01*
X101192891Y-82780091D01*
X101136400Y-82524223D01*
X101136399Y-82524219D01*
X101135415Y-82519763D01*
X101039345Y-82266190D01*
X100907676Y-82029141D01*
X100743167Y-81813583D01*
X100549264Y-81624030D01*
X100330028Y-81464453D01*
X100090053Y-81338196D01*
X100085752Y-81336677D01*
X100085747Y-81336675D01*
X99907998Y-81273906D01*
X99834366Y-81247904D01*
X99736347Y-81228585D01*
X99572794Y-81196348D01*
X99572788Y-81196347D01*
X99568322Y-81195467D01*
X99563768Y-81195240D01*
X99563766Y-81195240D01*
X99302064Y-81182211D01*
X99302058Y-81182211D01*
X99297495Y-81181984D01*
X99027559Y-81207738D01*
X99023130Y-81208822D01*
X99023123Y-81208823D01*
X98893069Y-81240648D01*
X98764168Y-81272190D01*
X98759933Y-81273905D01*
X98759931Y-81273906D01*
X98591906Y-81341963D01*
X98512840Y-81373988D01*
X98278839Y-81511001D01*
X98067068Y-81680359D01*
X98063947Y-81683700D01*
X97939224Y-81817215D01*
X97881963Y-81878512D01*
X97727402Y-82101312D01*
X97725374Y-82105388D01*
X97725373Y-82105390D01*
X97643252Y-82270460D01*
X97606621Y-82344090D01*
X97522153Y-82601760D01*
X97475765Y-82868925D01*
X97471500Y-82954600D01*
X97471500Y-83643884D01*
X84328500Y-83643884D01*
X84328500Y-80655000D01*
X88656835Y-80655000D01*
X88675465Y-80891711D01*
X88730895Y-81122594D01*
X88732788Y-81127165D01*
X88732789Y-81127167D01*
X88819570Y-81336675D01*
X88821760Y-81341963D01*
X88824346Y-81346183D01*
X88943241Y-81540202D01*
X88943245Y-81540208D01*
X88945824Y-81544416D01*
X89100031Y-81724969D01*
X89280584Y-81879176D01*
X89284792Y-81881755D01*
X89284798Y-81881759D01*
X89478817Y-82000654D01*
X89483037Y-82003240D01*
X89487607Y-82005133D01*
X89487611Y-82005135D01*
X89697833Y-82092211D01*
X89702406Y-82094105D01*
X89782609Y-82113360D01*
X89928476Y-82148380D01*
X89928482Y-82148381D01*
X89933289Y-82149535D01*
X90170000Y-82168165D01*
X90406711Y-82149535D01*
X90411518Y-82148381D01*
X90411524Y-82148380D01*
X90557391Y-82113360D01*
X90637594Y-82094105D01*
X90642167Y-82092211D01*
X90852389Y-82005135D01*
X90852393Y-82005133D01*
X90856963Y-82003240D01*
X90861183Y-82000654D01*
X91055202Y-81881759D01*
X91055208Y-81881755D01*
X91059416Y-81879176D01*
X91239969Y-81724969D01*
X91394176Y-81544416D01*
X91396755Y-81540208D01*
X91396759Y-81540202D01*
X91515654Y-81346183D01*
X91518240Y-81341963D01*
X91520431Y-81336675D01*
X91607211Y-81127167D01*
X91607212Y-81127165D01*
X91609105Y-81122594D01*
X91664535Y-80891711D01*
X91683165Y-80655000D01*
X91664535Y-80418289D01*
X91609105Y-80187406D01*
X91518240Y-79968037D01*
X91515654Y-79963817D01*
X91396759Y-79769798D01*
X91396755Y-79769792D01*
X91394176Y-79765584D01*
X91239969Y-79585031D01*
X91059416Y-79430824D01*
X91055208Y-79428245D01*
X91055202Y-79428241D01*
X90861183Y-79309346D01*
X90856963Y-79306760D01*
X90852393Y-79304867D01*
X90852389Y-79304865D01*
X90642167Y-79217789D01*
X90642165Y-79217788D01*
X90637594Y-79215895D01*
X90557391Y-79196640D01*
X90411524Y-79161620D01*
X90411518Y-79161619D01*
X90406711Y-79160465D01*
X90170000Y-79141835D01*
X89933289Y-79160465D01*
X89928482Y-79161619D01*
X89928476Y-79161620D01*
X89782609Y-79196640D01*
X89702406Y-79215895D01*
X89697835Y-79217788D01*
X89697833Y-79217789D01*
X89487611Y-79304865D01*
X89487607Y-79304867D01*
X89483037Y-79306760D01*
X89478817Y-79309346D01*
X89284798Y-79428241D01*
X89284792Y-79428245D01*
X89280584Y-79430824D01*
X89100031Y-79585031D01*
X88945824Y-79765584D01*
X88943245Y-79769792D01*
X88943241Y-79769798D01*
X88824346Y-79963817D01*
X88821760Y-79968037D01*
X88730895Y-80187406D01*
X88675465Y-80418289D01*
X88656835Y-80655000D01*
X84328500Y-80655000D01*
X84328500Y-71242851D01*
X87632719Y-71242851D01*
X87633235Y-71248995D01*
X87643524Y-71371524D01*
X87649268Y-71439934D01*
X87650967Y-71445858D01*
X87695788Y-71602167D01*
X87703783Y-71630050D01*
X87794187Y-71805956D01*
X87917035Y-71960953D01*
X87921728Y-71964947D01*
X87921729Y-71964948D01*
X87980778Y-72015202D01*
X88067650Y-72089136D01*
X88240294Y-72185624D01*
X88428392Y-72246740D01*
X88624777Y-72270158D01*
X88630912Y-72269686D01*
X88630914Y-72269686D01*
X88815830Y-72255457D01*
X88815834Y-72255456D01*
X88821972Y-72254984D01*
X89012463Y-72201798D01*
X89017967Y-72199018D01*
X89017969Y-72199017D01*
X89183495Y-72115404D01*
X89183497Y-72115403D01*
X89188996Y-72112625D01*
X89344847Y-71990861D01*
X89438669Y-71882167D01*
X89498319Y-71843672D01*
X89534048Y-71838500D01*
X111624394Y-71838500D01*
X111692515Y-71858502D01*
X111731826Y-71898665D01*
X111803235Y-72015193D01*
X111803242Y-72015202D01*
X111805824Y-72019416D01*
X111960031Y-72199969D01*
X112140584Y-72354176D01*
X112144792Y-72356755D01*
X112144798Y-72356759D01*
X112338817Y-72475654D01*
X112343037Y-72478240D01*
X112347607Y-72480133D01*
X112347611Y-72480135D01*
X112557833Y-72567211D01*
X112562406Y-72569105D01*
X112642609Y-72588360D01*
X112788476Y-72623380D01*
X112788482Y-72623381D01*
X112793289Y-72624535D01*
X113030000Y-72643165D01*
X113266711Y-72624535D01*
X113271518Y-72623381D01*
X113271524Y-72623380D01*
X113417391Y-72588360D01*
X113497594Y-72569105D01*
X113502167Y-72567211D01*
X113712389Y-72480135D01*
X113712393Y-72480133D01*
X113716963Y-72478240D01*
X113721183Y-72475654D01*
X113915202Y-72356759D01*
X113915208Y-72356755D01*
X113919416Y-72354176D01*
X114099969Y-72199969D01*
X114254176Y-72019416D01*
X114256755Y-72015208D01*
X114256759Y-72015202D01*
X114375654Y-71821183D01*
X114378240Y-71816963D01*
X114382800Y-71805956D01*
X114467211Y-71602167D01*
X114467212Y-71602165D01*
X114469105Y-71597594D01*
X114524535Y-71366711D01*
X114543165Y-71130000D01*
X114524535Y-70893289D01*
X114469105Y-70662406D01*
X114417447Y-70537692D01*
X114380135Y-70447611D01*
X114380133Y-70447607D01*
X114378240Y-70443037D01*
X114357361Y-70408966D01*
X114256759Y-70244798D01*
X114256755Y-70244792D01*
X114254176Y-70240584D01*
X114099969Y-70060031D01*
X113919416Y-69905824D01*
X113915208Y-69903245D01*
X113915202Y-69903241D01*
X113721183Y-69784346D01*
X113716963Y-69781760D01*
X113712393Y-69779867D01*
X113712389Y-69779865D01*
X113502167Y-69692789D01*
X113502165Y-69692788D01*
X113497594Y-69690895D01*
X113417391Y-69671640D01*
X113271524Y-69636620D01*
X113271518Y-69636619D01*
X113266711Y-69635465D01*
X113030000Y-69616835D01*
X112793289Y-69635465D01*
X112788482Y-69636619D01*
X112788476Y-69636620D01*
X112642609Y-69671640D01*
X112562406Y-69690895D01*
X112557835Y-69692788D01*
X112557833Y-69692789D01*
X112347611Y-69779865D01*
X112347607Y-69779867D01*
X112343037Y-69781760D01*
X112338817Y-69784346D01*
X112144798Y-69903241D01*
X112144792Y-69903245D01*
X112140584Y-69905824D01*
X111960031Y-70060031D01*
X111805824Y-70240584D01*
X111803242Y-70244797D01*
X111803235Y-70244807D01*
X111731826Y-70361335D01*
X111679179Y-70408966D01*
X111624394Y-70421500D01*
X89253122Y-70421500D01*
X89193193Y-70406336D01*
X89178179Y-70398218D01*
X89038701Y-70322802D01*
X88849768Y-70264318D01*
X88843643Y-70263674D01*
X88843642Y-70263674D01*
X88659204Y-70244289D01*
X88659202Y-70244289D01*
X88653075Y-70243645D01*
X88570576Y-70251153D01*
X88462251Y-70261011D01*
X88462248Y-70261012D01*
X88456112Y-70261570D01*
X88450206Y-70263308D01*
X88450202Y-70263309D01*
X88345076Y-70294249D01*
X88266381Y-70317410D01*
X88260923Y-70320263D01*
X88260919Y-70320265D01*
X88182361Y-70361335D01*
X88091110Y-70409040D01*
X87936975Y-70532968D01*
X87809846Y-70684474D01*
X87806879Y-70689872D01*
X87806875Y-70689877D01*
X87728095Y-70833180D01*
X87714567Y-70857787D01*
X87654765Y-71046306D01*
X87632719Y-71242851D01*
X84328500Y-71242851D01*
X84328500Y-63383000D01*
X100326502Y-63383000D01*
X100346457Y-63611087D01*
X100347881Y-63616400D01*
X100347881Y-63616402D01*
X100385025Y-63755022D01*
X100405716Y-63832243D01*
X100408039Y-63837224D01*
X100408039Y-63837225D01*
X100500151Y-64034762D01*
X100500154Y-64034767D01*
X100502477Y-64039749D01*
X100633802Y-64227300D01*
X100795700Y-64389198D01*
X100800208Y-64392355D01*
X100800211Y-64392357D01*
X100878389Y-64447098D01*
X100983251Y-64520523D01*
X100988233Y-64522846D01*
X100988238Y-64522849D01*
X101184765Y-64614490D01*
X101190757Y-64617284D01*
X101196065Y-64618706D01*
X101196067Y-64618707D01*
X101406598Y-64675119D01*
X101406600Y-64675119D01*
X101411913Y-64676543D01*
X101640000Y-64696498D01*
X101868087Y-64676543D01*
X101873400Y-64675119D01*
X101873402Y-64675119D01*
X102083933Y-64618707D01*
X102083935Y-64618706D01*
X102089243Y-64617284D01*
X102095235Y-64614490D01*
X102291762Y-64522849D01*
X102291767Y-64522846D01*
X102296749Y-64520523D01*
X102370243Y-64469062D01*
X105918493Y-64469062D01*
X105927789Y-64481077D01*
X105978994Y-64516931D01*
X105988489Y-64522414D01*
X106185947Y-64614490D01*
X106196239Y-64618236D01*
X106406688Y-64674625D01*
X106417481Y-64676528D01*
X106634525Y-64695517D01*
X106645475Y-64695517D01*
X106862519Y-64676528D01*
X106873312Y-64674625D01*
X107083761Y-64618236D01*
X107094053Y-64614490D01*
X107291511Y-64522414D01*
X107301006Y-64516931D01*
X107353048Y-64480491D01*
X107361424Y-64470012D01*
X107354356Y-64456566D01*
X106652812Y-63755022D01*
X106638868Y-63747408D01*
X106637035Y-63747539D01*
X106630420Y-63751790D01*
X105924923Y-64457287D01*
X105918493Y-64469062D01*
X102370243Y-64469062D01*
X102401611Y-64447098D01*
X102479789Y-64392357D01*
X102479792Y-64392355D01*
X102484300Y-64389198D01*
X102646198Y-64227300D01*
X102777523Y-64039749D01*
X102779846Y-64034767D01*
X102779849Y-64034762D01*
X102871961Y-63837225D01*
X102871961Y-63837224D01*
X102874284Y-63832243D01*
X102894976Y-63755022D01*
X102932119Y-63616402D01*
X102932119Y-63616400D01*
X102933543Y-63611087D01*
X102953019Y-63388475D01*
X105327483Y-63388475D01*
X105346472Y-63605519D01*
X105348375Y-63616312D01*
X105404764Y-63826761D01*
X105408510Y-63837053D01*
X105500586Y-64034511D01*
X105506069Y-64044006D01*
X105542509Y-64096048D01*
X105552988Y-64104424D01*
X105566434Y-64097356D01*
X106267978Y-63395812D01*
X106274356Y-63384132D01*
X107004408Y-63384132D01*
X107004539Y-63385965D01*
X107008790Y-63392580D01*
X107714287Y-64098077D01*
X107726062Y-64104507D01*
X107738077Y-64095211D01*
X107773931Y-64044006D01*
X107779414Y-64034511D01*
X107846334Y-63891000D01*
X111462502Y-63891000D01*
X111482457Y-64119087D01*
X111483881Y-64124400D01*
X111483881Y-64124402D01*
X111521025Y-64263022D01*
X111541716Y-64340243D01*
X111544039Y-64345224D01*
X111544039Y-64345225D01*
X111636151Y-64542762D01*
X111636154Y-64542767D01*
X111638477Y-64547749D01*
X111711902Y-64652611D01*
X111741946Y-64695517D01*
X111769802Y-64735300D01*
X111931700Y-64897198D01*
X111936208Y-64900355D01*
X111936211Y-64900357D01*
X112014389Y-64955098D01*
X112119251Y-65028523D01*
X112124233Y-65030846D01*
X112124238Y-65030849D01*
X112320765Y-65122490D01*
X112326757Y-65125284D01*
X112332065Y-65126706D01*
X112332067Y-65126707D01*
X112542598Y-65183119D01*
X112542600Y-65183119D01*
X112547913Y-65184543D01*
X112776000Y-65204498D01*
X113004087Y-65184543D01*
X113009400Y-65183119D01*
X113009402Y-65183119D01*
X113219933Y-65126707D01*
X113219935Y-65126706D01*
X113225243Y-65125284D01*
X113231235Y-65122490D01*
X113427762Y-65030849D01*
X113427767Y-65030846D01*
X113432749Y-65028523D01*
X113506243Y-64977062D01*
X117054493Y-64977062D01*
X117063789Y-64989077D01*
X117114994Y-65024931D01*
X117124489Y-65030414D01*
X117321947Y-65122490D01*
X117332239Y-65126236D01*
X117542688Y-65182625D01*
X117553481Y-65184528D01*
X117770525Y-65203517D01*
X117781475Y-65203517D01*
X117998519Y-65184528D01*
X118009312Y-65182625D01*
X118219761Y-65126236D01*
X118230053Y-65122490D01*
X118427511Y-65030414D01*
X118437006Y-65024931D01*
X118489048Y-64988491D01*
X118497424Y-64978012D01*
X118490356Y-64964566D01*
X117788812Y-64263022D01*
X117774868Y-64255408D01*
X117773035Y-64255539D01*
X117766420Y-64259790D01*
X117060923Y-64965287D01*
X117054493Y-64977062D01*
X113506243Y-64977062D01*
X113537611Y-64955098D01*
X113615789Y-64900357D01*
X113615792Y-64900355D01*
X113620300Y-64897198D01*
X113782198Y-64735300D01*
X113810055Y-64695517D01*
X113840098Y-64652611D01*
X113913523Y-64547749D01*
X113915846Y-64542767D01*
X113915849Y-64542762D01*
X114007961Y-64345225D01*
X114007961Y-64345224D01*
X114010284Y-64340243D01*
X114030976Y-64263022D01*
X114068119Y-64124402D01*
X114068119Y-64124400D01*
X114069543Y-64119087D01*
X114089019Y-63896475D01*
X116463483Y-63896475D01*
X116482472Y-64113519D01*
X116484375Y-64124312D01*
X116540764Y-64334761D01*
X116544510Y-64345053D01*
X116636586Y-64542511D01*
X116642069Y-64552006D01*
X116678509Y-64604048D01*
X116688988Y-64612424D01*
X116702434Y-64605356D01*
X117403978Y-63903812D01*
X117410356Y-63892132D01*
X118140408Y-63892132D01*
X118140539Y-63893965D01*
X118144790Y-63900580D01*
X118850287Y-64606077D01*
X118862062Y-64612507D01*
X118874077Y-64603211D01*
X118909931Y-64552006D01*
X118915414Y-64542511D01*
X119007490Y-64345053D01*
X119011236Y-64334761D01*
X119067625Y-64124312D01*
X119069528Y-64113519D01*
X119088517Y-63896475D01*
X119088517Y-63885525D01*
X119069528Y-63668481D01*
X119067625Y-63657688D01*
X119011236Y-63447239D01*
X119007490Y-63436947D01*
X118915414Y-63239489D01*
X118909931Y-63229994D01*
X118873491Y-63177952D01*
X118863012Y-63169576D01*
X118849566Y-63176644D01*
X118148022Y-63878188D01*
X118140408Y-63892132D01*
X117410356Y-63892132D01*
X117411592Y-63889868D01*
X117411461Y-63888035D01*
X117407210Y-63881420D01*
X116701713Y-63175923D01*
X116689938Y-63169493D01*
X116677923Y-63178789D01*
X116642069Y-63229994D01*
X116636586Y-63239489D01*
X116544510Y-63436947D01*
X116540764Y-63447239D01*
X116484375Y-63657688D01*
X116482472Y-63668481D01*
X116463483Y-63885525D01*
X116463483Y-63896475D01*
X114089019Y-63896475D01*
X114089498Y-63891000D01*
X114069543Y-63662913D01*
X114032981Y-63526461D01*
X114011707Y-63447067D01*
X114011706Y-63447065D01*
X114010284Y-63441757D01*
X113987353Y-63392580D01*
X113915849Y-63239238D01*
X113915846Y-63239233D01*
X113913523Y-63234251D01*
X113782198Y-63046700D01*
X113620300Y-62884802D01*
X113615792Y-62881645D01*
X113615789Y-62881643D01*
X113504886Y-62803988D01*
X117054576Y-62803988D01*
X117061644Y-62817434D01*
X117763188Y-63518978D01*
X117777132Y-63526592D01*
X117778965Y-63526461D01*
X117785580Y-63522210D01*
X118491077Y-62816713D01*
X118497507Y-62804938D01*
X118488211Y-62792923D01*
X118437006Y-62757069D01*
X118427511Y-62751586D01*
X118230053Y-62659510D01*
X118219761Y-62655764D01*
X118009312Y-62599375D01*
X117998519Y-62597472D01*
X117781475Y-62578483D01*
X117770525Y-62578483D01*
X117553481Y-62597472D01*
X117542688Y-62599375D01*
X117332239Y-62655764D01*
X117321947Y-62659510D01*
X117124489Y-62751586D01*
X117114994Y-62757069D01*
X117062952Y-62793509D01*
X117054576Y-62803988D01*
X113504886Y-62803988D01*
X113489920Y-62793509D01*
X113432749Y-62753477D01*
X113427767Y-62751154D01*
X113427762Y-62751151D01*
X113230225Y-62659039D01*
X113230224Y-62659039D01*
X113225243Y-62656716D01*
X113219935Y-62655294D01*
X113219933Y-62655293D01*
X113009402Y-62598881D01*
X113009400Y-62598881D01*
X113004087Y-62597457D01*
X112776000Y-62577502D01*
X112547913Y-62597457D01*
X112542600Y-62598881D01*
X112542598Y-62598881D01*
X112332067Y-62655293D01*
X112332065Y-62655294D01*
X112326757Y-62656716D01*
X112321776Y-62659039D01*
X112321775Y-62659039D01*
X112124238Y-62751151D01*
X112124233Y-62751154D01*
X112119251Y-62753477D01*
X112062080Y-62793509D01*
X111936211Y-62881643D01*
X111936208Y-62881645D01*
X111931700Y-62884802D01*
X111769802Y-63046700D01*
X111638477Y-63234251D01*
X111636154Y-63239233D01*
X111636151Y-63239238D01*
X111564647Y-63392580D01*
X111541716Y-63441757D01*
X111540294Y-63447065D01*
X111540293Y-63447067D01*
X111519019Y-63526461D01*
X111482457Y-63662913D01*
X111462502Y-63891000D01*
X107846334Y-63891000D01*
X107871490Y-63837053D01*
X107875236Y-63826761D01*
X107931625Y-63616312D01*
X107933528Y-63605519D01*
X107952517Y-63388475D01*
X107952517Y-63377525D01*
X107933528Y-63160481D01*
X107931625Y-63149688D01*
X107875236Y-62939239D01*
X107871490Y-62928947D01*
X107779414Y-62731489D01*
X107773931Y-62721994D01*
X107737491Y-62669952D01*
X107727012Y-62661576D01*
X107713566Y-62668644D01*
X107012022Y-63370188D01*
X107004408Y-63384132D01*
X106274356Y-63384132D01*
X106275592Y-63381868D01*
X106275461Y-63380035D01*
X106271210Y-63373420D01*
X105565713Y-62667923D01*
X105553938Y-62661493D01*
X105541923Y-62670789D01*
X105506069Y-62721994D01*
X105500586Y-62731489D01*
X105408510Y-62928947D01*
X105404764Y-62939239D01*
X105348375Y-63149688D01*
X105346472Y-63160481D01*
X105327483Y-63377525D01*
X105327483Y-63388475D01*
X102953019Y-63388475D01*
X102953498Y-63383000D01*
X102933543Y-63154913D01*
X102896981Y-63018461D01*
X102875707Y-62939067D01*
X102875706Y-62939065D01*
X102874284Y-62933757D01*
X102814215Y-62804938D01*
X102779849Y-62731238D01*
X102779846Y-62731233D01*
X102777523Y-62726251D01*
X102687005Y-62596978D01*
X102649357Y-62543211D01*
X102649355Y-62543208D01*
X102646198Y-62538700D01*
X102484300Y-62376802D01*
X102479792Y-62373645D01*
X102479789Y-62373643D01*
X102368886Y-62295988D01*
X105918576Y-62295988D01*
X105925644Y-62309434D01*
X106627188Y-63010978D01*
X106641132Y-63018592D01*
X106642965Y-63018461D01*
X106649580Y-63014210D01*
X107355077Y-62308713D01*
X107361507Y-62296938D01*
X107352211Y-62284923D01*
X107301006Y-62249069D01*
X107291511Y-62243586D01*
X107094053Y-62151510D01*
X107083761Y-62147764D01*
X106873312Y-62091375D01*
X106862519Y-62089472D01*
X106645475Y-62070483D01*
X106634525Y-62070483D01*
X106417481Y-62089472D01*
X106406688Y-62091375D01*
X106196239Y-62147764D01*
X106185947Y-62151510D01*
X105988489Y-62243586D01*
X105978994Y-62249069D01*
X105926952Y-62285509D01*
X105918576Y-62295988D01*
X102368886Y-62295988D01*
X102353920Y-62285509D01*
X102296749Y-62245477D01*
X102291767Y-62243154D01*
X102291762Y-62243151D01*
X102094225Y-62151039D01*
X102094224Y-62151039D01*
X102089243Y-62148716D01*
X102083935Y-62147294D01*
X102083933Y-62147293D01*
X101873402Y-62090881D01*
X101873400Y-62090881D01*
X101868087Y-62089457D01*
X101640000Y-62069502D01*
X101411913Y-62089457D01*
X101406600Y-62090881D01*
X101406598Y-62090881D01*
X101196067Y-62147293D01*
X101196065Y-62147294D01*
X101190757Y-62148716D01*
X101185776Y-62151039D01*
X101185775Y-62151039D01*
X100988238Y-62243151D01*
X100988233Y-62243154D01*
X100983251Y-62245477D01*
X100926080Y-62285509D01*
X100800211Y-62373643D01*
X100800208Y-62373645D01*
X100795700Y-62376802D01*
X100633802Y-62538700D01*
X100630645Y-62543208D01*
X100630643Y-62543211D01*
X100592995Y-62596978D01*
X100502477Y-62726251D01*
X100500154Y-62731233D01*
X100500151Y-62731238D01*
X100465785Y-62804938D01*
X100405716Y-62933757D01*
X100404294Y-62939065D01*
X100404293Y-62939067D01*
X100383019Y-63018461D01*
X100346457Y-63154913D01*
X100326502Y-63383000D01*
X84328500Y-63383000D01*
X84328500Y-47313134D01*
X100231500Y-47313134D01*
X100238255Y-47375316D01*
X100289385Y-47511705D01*
X100376739Y-47628261D01*
X100493295Y-47715615D01*
X100629684Y-47766745D01*
X100691866Y-47773500D01*
X102588134Y-47773500D01*
X102650316Y-47766745D01*
X102786705Y-47715615D01*
X102903261Y-47628261D01*
X102990615Y-47511705D01*
X103005686Y-47471504D01*
X103048328Y-47414739D01*
X103114890Y-47390040D01*
X103184239Y-47405248D01*
X103204150Y-47418788D01*
X103329349Y-47522730D01*
X103529322Y-47639584D01*
X103745694Y-47722209D01*
X103750760Y-47723240D01*
X103750761Y-47723240D01*
X103803846Y-47734040D01*
X103972656Y-47768385D01*
X104102089Y-47773131D01*
X104198949Y-47776683D01*
X104198953Y-47776683D01*
X104204113Y-47776872D01*
X104209233Y-47776216D01*
X104209235Y-47776216D01*
X104283166Y-47766745D01*
X104433847Y-47747442D01*
X104438795Y-47745957D01*
X104438802Y-47745956D01*
X104650747Y-47682369D01*
X104655690Y-47680886D01*
X104736236Y-47641427D01*
X104859049Y-47581262D01*
X104859052Y-47581260D01*
X104863684Y-47578991D01*
X105052243Y-47444494D01*
X105216303Y-47281005D01*
X105285370Y-47184888D01*
X105341365Y-47141240D01*
X105412068Y-47134794D01*
X105475033Y-47167597D01*
X105495128Y-47192584D01*
X105496799Y-47195311D01*
X105496804Y-47195317D01*
X105499501Y-47199719D01*
X105651147Y-47374784D01*
X105829349Y-47522730D01*
X106029322Y-47639584D01*
X106245694Y-47722209D01*
X106250760Y-47723240D01*
X106250761Y-47723240D01*
X106303846Y-47734040D01*
X106472656Y-47768385D01*
X106602089Y-47773131D01*
X106698949Y-47776683D01*
X106698953Y-47776683D01*
X106704113Y-47776872D01*
X106709233Y-47776216D01*
X106709235Y-47776216D01*
X106783166Y-47766745D01*
X106933847Y-47747442D01*
X106938795Y-47745957D01*
X106938802Y-47745956D01*
X107150747Y-47682369D01*
X107155690Y-47680886D01*
X107236236Y-47641427D01*
X107359049Y-47581262D01*
X107359052Y-47581260D01*
X107363684Y-47578991D01*
X107552243Y-47444494D01*
X107716303Y-47281005D01*
X107851458Y-47092917D01*
X107954078Y-46885280D01*
X108021408Y-46663671D01*
X108051640Y-46434041D01*
X108053327Y-46365000D01*
X108047032Y-46288434D01*
X108034773Y-46139318D01*
X108034772Y-46139312D01*
X108034349Y-46134167D01*
X107977925Y-45909533D01*
X107885570Y-45697131D01*
X107759764Y-45502665D01*
X107603887Y-45331358D01*
X107599836Y-45328159D01*
X107599832Y-45328155D01*
X107426177Y-45191011D01*
X107426172Y-45191008D01*
X107422123Y-45187810D01*
X107417607Y-45185317D01*
X107417604Y-45185315D01*
X107223879Y-45078373D01*
X107223875Y-45078371D01*
X107219355Y-45075876D01*
X107214486Y-45074152D01*
X107214482Y-45074150D01*
X107005903Y-45000288D01*
X107005899Y-45000287D01*
X107001028Y-44998562D01*
X106995935Y-44997655D01*
X106995932Y-44997654D01*
X106778095Y-44958851D01*
X106778089Y-44958850D01*
X106773006Y-44957945D01*
X106700096Y-44957054D01*
X106546581Y-44955179D01*
X106546579Y-44955179D01*
X106541411Y-44955116D01*
X106312464Y-44990150D01*
X106092314Y-45062106D01*
X106087726Y-45064494D01*
X106087722Y-45064496D01*
X105891461Y-45166663D01*
X105886872Y-45169052D01*
X105882739Y-45172155D01*
X105882736Y-45172157D01*
X105739074Y-45280022D01*
X105701655Y-45308117D01*
X105541639Y-45475564D01*
X105494836Y-45544174D01*
X105439927Y-45589175D01*
X105369402Y-45597346D01*
X105305655Y-45566092D01*
X105284959Y-45541609D01*
X105262577Y-45507013D01*
X105262574Y-45507009D01*
X105259764Y-45502665D01*
X105103887Y-45331358D01*
X105099836Y-45328159D01*
X105099832Y-45328155D01*
X104926177Y-45191011D01*
X104926172Y-45191008D01*
X104922123Y-45187810D01*
X104917607Y-45185317D01*
X104917604Y-45185315D01*
X104723879Y-45078373D01*
X104723875Y-45078371D01*
X104719355Y-45075876D01*
X104714486Y-45074152D01*
X104714482Y-45074150D01*
X104505903Y-45000288D01*
X104505899Y-45000287D01*
X104501028Y-44998562D01*
X104495935Y-44997655D01*
X104495932Y-44997654D01*
X104278095Y-44958851D01*
X104278089Y-44958850D01*
X104273006Y-44957945D01*
X104200096Y-44957054D01*
X104046581Y-44955179D01*
X104046579Y-44955179D01*
X104041411Y-44955116D01*
X103812464Y-44990150D01*
X103592314Y-45062106D01*
X103587726Y-45064494D01*
X103587722Y-45064496D01*
X103391461Y-45166663D01*
X103386872Y-45169052D01*
X103382739Y-45172155D01*
X103382736Y-45172157D01*
X103201655Y-45308117D01*
X103200976Y-45307213D01*
X103141730Y-45335131D01*
X103071341Y-45325869D01*
X103017132Y-45280022D01*
X103004325Y-45254866D01*
X102993768Y-45226705D01*
X102993767Y-45226703D01*
X102990615Y-45218295D01*
X102903261Y-45101739D01*
X102786705Y-45014385D01*
X102650316Y-44963255D01*
X102588134Y-44956500D01*
X100691866Y-44956500D01*
X100629684Y-44963255D01*
X100493295Y-45014385D01*
X100376739Y-45101739D01*
X100289385Y-45218295D01*
X100238255Y-45354684D01*
X100231500Y-45416866D01*
X100231500Y-47313134D01*
X84328500Y-47313134D01*
X84328500Y-39193884D01*
X97471500Y-39193884D01*
X97471665Y-39196152D01*
X97471665Y-39196164D01*
X97479725Y-39307238D01*
X97486125Y-39395451D01*
X97487109Y-39399906D01*
X97487109Y-39399909D01*
X97526482Y-39578240D01*
X97544585Y-39660237D01*
X97640655Y-39913810D01*
X97772324Y-40150859D01*
X97936833Y-40366417D01*
X98130736Y-40555970D01*
X98349972Y-40715547D01*
X98589947Y-40841804D01*
X98594248Y-40843323D01*
X98594253Y-40843325D01*
X98727087Y-40890233D01*
X98845634Y-40932096D01*
X98943653Y-40951415D01*
X99107206Y-40983652D01*
X99107212Y-40983653D01*
X99111678Y-40984533D01*
X99116232Y-40984760D01*
X99116234Y-40984760D01*
X99377936Y-40997789D01*
X99377942Y-40997789D01*
X99382505Y-40998016D01*
X99652441Y-40972262D01*
X99656870Y-40971178D01*
X99656877Y-40971177D01*
X99816584Y-40932096D01*
X99915832Y-40907810D01*
X100075039Y-40843325D01*
X100162931Y-40807725D01*
X100162932Y-40807725D01*
X100167160Y-40806012D01*
X100401161Y-40668999D01*
X100612932Y-40499641D01*
X100734399Y-40369612D01*
X100794921Y-40304824D01*
X100794923Y-40304821D01*
X100798037Y-40301488D01*
X100952598Y-40078688D01*
X101034624Y-39913810D01*
X101071346Y-39839997D01*
X101071347Y-39839994D01*
X101073379Y-39835910D01*
X101157847Y-39578240D01*
X101204235Y-39311075D01*
X101208500Y-39225400D01*
X101208500Y-39193884D01*
X107071500Y-39193884D01*
X107071665Y-39196152D01*
X107071665Y-39196164D01*
X107079725Y-39307238D01*
X107086125Y-39395451D01*
X107087109Y-39399906D01*
X107087109Y-39399909D01*
X107126482Y-39578240D01*
X107144585Y-39660237D01*
X107240655Y-39913810D01*
X107372324Y-40150859D01*
X107536833Y-40366417D01*
X107730736Y-40555970D01*
X107949972Y-40715547D01*
X108189947Y-40841804D01*
X108194248Y-40843323D01*
X108194253Y-40843325D01*
X108327087Y-40890233D01*
X108445634Y-40932096D01*
X108543653Y-40951415D01*
X108707206Y-40983652D01*
X108707212Y-40983653D01*
X108711678Y-40984533D01*
X108716232Y-40984760D01*
X108716234Y-40984760D01*
X108977936Y-40997789D01*
X108977942Y-40997789D01*
X108982505Y-40998016D01*
X109252441Y-40972262D01*
X109256870Y-40971178D01*
X109256877Y-40971177D01*
X109416584Y-40932096D01*
X109515832Y-40907810D01*
X109675039Y-40843325D01*
X109762931Y-40807725D01*
X109762932Y-40807725D01*
X109767160Y-40806012D01*
X110001161Y-40668999D01*
X110212932Y-40499641D01*
X110334399Y-40369612D01*
X110394921Y-40304824D01*
X110394923Y-40304821D01*
X110398037Y-40301488D01*
X110552598Y-40078688D01*
X110634624Y-39913810D01*
X110671346Y-39839997D01*
X110671347Y-39839994D01*
X110673379Y-39835910D01*
X110757847Y-39578240D01*
X110804235Y-39311075D01*
X110808500Y-39225400D01*
X110808500Y-38536116D01*
X110806328Y-38506170D01*
X110794205Y-38339100D01*
X110793875Y-38334549D01*
X110792891Y-38330091D01*
X110736400Y-38074223D01*
X110736399Y-38074219D01*
X110735415Y-38069763D01*
X110639345Y-37816190D01*
X110507676Y-37579141D01*
X110343167Y-37363583D01*
X110149264Y-37174030D01*
X109930028Y-37014453D01*
X109690053Y-36888196D01*
X109685752Y-36886677D01*
X109685747Y-36886675D01*
X109507998Y-36823906D01*
X109434366Y-36797904D01*
X109336347Y-36778585D01*
X109172794Y-36746348D01*
X109172788Y-36746347D01*
X109168322Y-36745467D01*
X109163768Y-36745240D01*
X109163766Y-36745240D01*
X108902064Y-36732211D01*
X108902058Y-36732211D01*
X108897495Y-36731984D01*
X108627559Y-36757738D01*
X108623130Y-36758822D01*
X108623123Y-36758823D01*
X108493069Y-36790648D01*
X108364168Y-36822190D01*
X108359933Y-36823905D01*
X108359931Y-36823906D01*
X108117069Y-36922275D01*
X108112840Y-36923988D01*
X107878839Y-37061001D01*
X107667068Y-37230359D01*
X107663947Y-37233700D01*
X107539224Y-37367215D01*
X107481963Y-37428512D01*
X107327402Y-37651312D01*
X107325374Y-37655388D01*
X107325373Y-37655390D01*
X107243252Y-37820460D01*
X107206621Y-37894090D01*
X107122153Y-38151760D01*
X107075765Y-38418925D01*
X107071500Y-38504600D01*
X107071500Y-39193884D01*
X101208500Y-39193884D01*
X101208500Y-38536116D01*
X101206328Y-38506170D01*
X101194205Y-38339100D01*
X101193875Y-38334549D01*
X101192891Y-38330091D01*
X101136400Y-38074223D01*
X101136399Y-38074219D01*
X101135415Y-38069763D01*
X101039345Y-37816190D01*
X100907676Y-37579141D01*
X100743167Y-37363583D01*
X100549264Y-37174030D01*
X100330028Y-37014453D01*
X100090053Y-36888196D01*
X100085752Y-36886677D01*
X100085747Y-36886675D01*
X99907998Y-36823906D01*
X99834366Y-36797904D01*
X99736347Y-36778585D01*
X99572794Y-36746348D01*
X99572788Y-36746347D01*
X99568322Y-36745467D01*
X99563768Y-36745240D01*
X99563766Y-36745240D01*
X99302064Y-36732211D01*
X99302058Y-36732211D01*
X99297495Y-36731984D01*
X99027559Y-36757738D01*
X99023130Y-36758822D01*
X99023123Y-36758823D01*
X98893069Y-36790648D01*
X98764168Y-36822190D01*
X98759933Y-36823905D01*
X98759931Y-36823906D01*
X98517069Y-36922275D01*
X98512840Y-36923988D01*
X98278839Y-37061001D01*
X98067068Y-37230359D01*
X98063947Y-37233700D01*
X97939224Y-37367215D01*
X97881963Y-37428512D01*
X97727402Y-37651312D01*
X97725374Y-37655388D01*
X97725373Y-37655390D01*
X97643252Y-37820460D01*
X97606621Y-37894090D01*
X97522153Y-38151760D01*
X97475765Y-38418925D01*
X97471500Y-38504600D01*
X97471500Y-39193884D01*
X84328500Y-39193884D01*
X84328500Y-33029500D01*
X84348502Y-32961379D01*
X84402158Y-32914886D01*
X84454500Y-32903500D01*
X123825500Y-32903500D01*
X123893621Y-32923502D01*
G37*
G04 #@! TD.AperFunction*
M02*
