%FSLAX45Y45*%
G04 Gerber Fmt 4.5, Leading zero omitted, Abs format (unit mm)*
G04 Created by KiCad (PCBNEW 6.0.5+dfsg-1~bpo11+1) date 2022-07-21 18:59:06*
%MOMM*%
%LPD*%
G01*
G04 APERTURE LIST*
%TA.AperFunction,Profile*%
%ADD10C,0.100000*%
%TD*%
%ADD11C,0.200000*%
%ADD12C,0.050000*%
%ADD13C,0.080000*%
%ADD14C,0.100000*%
%ADD15C,0.110000*%
%ADD16C,0.119000*%
%ADD17C,0.130000*%
%ADD18C,0.185000*%
G04 APERTURE END LIST*
D10*
X8382000Y-23559500D02*
X12446000Y-23559500D01*
X12446000Y-3239500D02*
X8382000Y-3239500D01*
X12446000Y-23559500D02*
X12446000Y-3239500D01*
X8382000Y-3239500D02*
X8382000Y-23559500D01*
D11*
D12*
X8636400Y-18098900D02*
X8686400Y-18148900D01*
X8686400Y-18098900D02*
X8636400Y-18148900D01*
X8636400Y-22391500D02*
X8686400Y-22441500D01*
X8686400Y-22391500D02*
X8636400Y-22441500D01*
X8839600Y-7100700D02*
X8889600Y-7150700D01*
X8889600Y-7100700D02*
X8839600Y-7150700D01*
X8992000Y-15914500D02*
X9042000Y-15964500D01*
X9042000Y-15914500D02*
X8992000Y-15964500D01*
X9068200Y-13679300D02*
X9118200Y-13729300D01*
X9118200Y-13679300D02*
X9068200Y-13729300D01*
X9246000Y-8777100D02*
X9296000Y-8827100D01*
X9296000Y-8777100D02*
X9246000Y-8827100D01*
X9322200Y-21934300D02*
X9372200Y-21984300D01*
X9372200Y-21934300D02*
X9322200Y-21984300D01*
X9601600Y-9120000D02*
X9651600Y-9170000D01*
X9651600Y-9120000D02*
X9601600Y-9170000D01*
X9754000Y-10326500D02*
X9804000Y-10376500D01*
X9804000Y-10326500D02*
X9754000Y-10376500D01*
X9830200Y-5652900D02*
X9880200Y-5702900D01*
X9880200Y-5652900D02*
X9830200Y-5702900D01*
X9830200Y-7964300D02*
X9880200Y-8014300D01*
X9880200Y-7964300D02*
X9830200Y-8014300D01*
X9855600Y-19216500D02*
X9905600Y-19266500D01*
X9905600Y-19216500D02*
X9855600Y-19266500D01*
X9881000Y-6719700D02*
X9931000Y-6769700D01*
X9931000Y-6719700D02*
X9881000Y-6769700D01*
X9881000Y-11012300D02*
X9931000Y-11062300D01*
X9931000Y-11012300D02*
X9881000Y-11062300D01*
X9931800Y-16041500D02*
X9981800Y-16091500D01*
X9981800Y-16041500D02*
X9931800Y-16091500D01*
X10084952Y-14289652D02*
X10134952Y-14339652D01*
X10134952Y-14289652D02*
X10084952Y-14339652D01*
X10312800Y-19394300D02*
X10362800Y-19444300D01*
X10362800Y-19394300D02*
X10312800Y-19444300D01*
X10897000Y-11012300D02*
X10947000Y-11062300D01*
X10947000Y-11012300D02*
X10897000Y-11062300D01*
X10922400Y-6719700D02*
X10972400Y-6769700D01*
X10972400Y-6719700D02*
X10922400Y-6769700D01*
X10947800Y-10148700D02*
X10997800Y-10198700D01*
X10997800Y-10148700D02*
X10947800Y-10198700D01*
X10947800Y-19216500D02*
X10997800Y-19266500D01*
X10997800Y-19216500D02*
X10947800Y-19266500D01*
X10973200Y-7964300D02*
X11023200Y-8014300D01*
X11023200Y-7964300D02*
X10973200Y-8014300D01*
X10973200Y-14288900D02*
X11023200Y-14338900D01*
X11023200Y-14288900D02*
X10973200Y-14338900D01*
X11379600Y-15076300D02*
X11429600Y-15126300D01*
X11429600Y-15076300D02*
X11379600Y-15126300D01*
X11430400Y-14415900D02*
X11480400Y-14465900D01*
X11480400Y-14415900D02*
X11430400Y-14465900D01*
X11455800Y-11977500D02*
X11505800Y-12027500D01*
X11505800Y-11977500D02*
X11455800Y-12027500D01*
X11709800Y-16016100D02*
X11759800Y-16066100D01*
X11759800Y-16016100D02*
X11709800Y-16066100D01*
X11735200Y-18987900D02*
X11785200Y-19037900D01*
X11785200Y-18987900D02*
X11735200Y-19037900D01*
X11862200Y-9208900D02*
X11912200Y-9258900D01*
X11912200Y-9208900D02*
X11862200Y-9258900D01*
D13*
X9251500Y-19305000D02*
G75*
G03*
X9251500Y-19305000I-40000J0D01*
G01*
X9501500Y-19305000D02*
G75*
G03*
X9501500Y-19305000I-40000J0D01*
G01*
X9950000Y-19749500D02*
G75*
G03*
X9950000Y-19749500I-40000J0D01*
G01*
X10200000Y-19749500D02*
G75*
G03*
X10200000Y-19749500I-40000J0D01*
G01*
X10204000Y-6338300D02*
G75*
G03*
X10204000Y-6338300I-40000J0D01*
G01*
X10375962Y-14631400D02*
G75*
G03*
X10375962Y-14631400I-40000J0D01*
G01*
X10454000Y-15329900D02*
G75*
G03*
X10454000Y-15329900I-40000J0D01*
G01*
X10454000Y-15583900D02*
G75*
G03*
X10454000Y-15583900I-40000J0D01*
G01*
X10454000Y-15837900D02*
G75*
G03*
X10454000Y-15837900I-40000J0D01*
G01*
X10625962Y-14631400D02*
G75*
G03*
X10625962Y-14631400I-40000J0D01*
G01*
X10704000Y-6338300D02*
G75*
G03*
X10704000Y-6338300I-40000J0D01*
G01*
X10708000Y-19749500D02*
G75*
G03*
X10708000Y-19749500I-40000J0D01*
G01*
X10955400Y-15329900D02*
G75*
G03*
X10955400Y-15329900I-40000J0D01*
G01*
X10958000Y-19749500D02*
G75*
G03*
X10958000Y-19749500I-40000J0D01*
G01*
X11205400Y-15329900D02*
G75*
G03*
X11205400Y-15329900I-40000J0D01*
G01*
X11317600Y-6389100D02*
G75*
G03*
X11317600Y-6389100I-40000J0D01*
G01*
X11406500Y-19305000D02*
G75*
G03*
X11406500Y-19305000I-40000J0D01*
G01*
X11656500Y-19305000D02*
G75*
G03*
X11656500Y-19305000I-40000J0D01*
G01*
X11817600Y-6389100D02*
G75*
G03*
X11817600Y-6389100I-40000J0D01*
G01*
D14*
X9017000Y-8015500D02*
X9017000Y-8115500D01*
X8967000Y-8065500D02*
X9067000Y-8065500D01*
X9080500Y-20906000D02*
X9080500Y-21006000D01*
X9030500Y-20956000D02*
X9130500Y-20956000D01*
X9906000Y-20906000D02*
X9906000Y-21006000D01*
X9856000Y-20956000D02*
X9956000Y-20956000D01*
X9906000Y-21160000D02*
X9906000Y-21260000D01*
X9856000Y-21210000D02*
X9956000Y-21210000D01*
X10160000Y-20906000D02*
X10160000Y-21006000D01*
X10110000Y-20956000D02*
X10210000Y-20956000D01*
X10160000Y-21160000D02*
X10160000Y-21260000D01*
X10110000Y-21210000D02*
X10210000Y-21210000D01*
X10164000Y-4586500D02*
X10164000Y-4686500D01*
X10114000Y-4636500D02*
X10214000Y-4636500D01*
X10164000Y-9031500D02*
X10164000Y-9131500D01*
X10114000Y-9081500D02*
X10214000Y-9081500D01*
X10164000Y-13476500D02*
X10164000Y-13576500D01*
X10114000Y-13526500D02*
X10214000Y-13526500D01*
X10164000Y-17921500D02*
X10164000Y-18021500D01*
X10114000Y-17971500D02*
X10214000Y-17971500D01*
X10414000Y-4586500D02*
X10414000Y-4686500D01*
X10364000Y-4636500D02*
X10464000Y-4636500D01*
X10414000Y-9031500D02*
X10414000Y-9131500D01*
X10364000Y-9081500D02*
X10464000Y-9081500D01*
X10414000Y-13476500D02*
X10414000Y-13576500D01*
X10364000Y-13526500D02*
X10464000Y-13526500D01*
X10414000Y-17921500D02*
X10414000Y-18021500D01*
X10364000Y-17971500D02*
X10464000Y-17971500D01*
X10414000Y-20906000D02*
X10414000Y-21006000D01*
X10364000Y-20956000D02*
X10464000Y-20956000D01*
X10414000Y-21160000D02*
X10414000Y-21260000D01*
X10364000Y-21210000D02*
X10464000Y-21210000D01*
X10664000Y-4586500D02*
X10664000Y-4686500D01*
X10614000Y-4636500D02*
X10714000Y-4636500D01*
X10664000Y-9031500D02*
X10664000Y-9131500D01*
X10614000Y-9081500D02*
X10714000Y-9081500D01*
X10664000Y-13476500D02*
X10664000Y-13576500D01*
X10614000Y-13526500D02*
X10714000Y-13526500D01*
X10664000Y-17921500D02*
X10664000Y-18021500D01*
X10614000Y-17971500D02*
X10714000Y-17971500D01*
X10668000Y-20906000D02*
X10668000Y-21006000D01*
X10618000Y-20956000D02*
X10718000Y-20956000D01*
X10668000Y-21160000D02*
X10668000Y-21260000D01*
X10618000Y-21210000D02*
X10718000Y-21210000D01*
X10922000Y-20906000D02*
X10922000Y-21006000D01*
X10872000Y-20956000D02*
X10972000Y-20956000D01*
X10922000Y-21160000D02*
X10922000Y-21260000D01*
X10872000Y-21210000D02*
X10972000Y-21210000D01*
X11176000Y-21858500D02*
X11176000Y-21958500D01*
X11126000Y-21908500D02*
X11226000Y-21908500D01*
X11176000Y-22811000D02*
X11176000Y-22911000D01*
X11126000Y-22861000D02*
X11226000Y-22861000D01*
X11277600Y-9183900D02*
X11277600Y-9283900D01*
X11227600Y-9233900D02*
X11327600Y-9233900D01*
X11303000Y-7063000D02*
X11303000Y-7163000D01*
X11253000Y-7113000D02*
X11353000Y-7113000D01*
X11747500Y-20906000D02*
X11747500Y-21006000D01*
X11697500Y-20956000D02*
X11797500Y-20956000D01*
D15*
X9972891Y-3925391D02*
X9972891Y-3847609D01*
X9895109Y-3847609D01*
X9895109Y-3925391D01*
X9972891Y-3925391D01*
D11*
X9979000Y-3921500D02*
X9979000Y-3851500D01*
X9889000Y-3921500D02*
X9889000Y-3851500D01*
X9979000Y-3851500D02*
G75*
G03*
X9889000Y-3851500I-45000J0D01*
G01*
X9889000Y-3921500D02*
G75*
G03*
X9979000Y-3921500I45000J0D01*
G01*
D15*
X9972891Y-8370391D02*
X9972891Y-8292609D01*
X9895109Y-8292609D01*
X9895109Y-8370391D01*
X9972891Y-8370391D01*
D11*
X9979000Y-8366500D02*
X9979000Y-8296500D01*
X9889000Y-8366500D02*
X9889000Y-8296500D01*
X9979000Y-8296500D02*
G75*
G03*
X9889000Y-8296500I-45000J0D01*
G01*
X9889000Y-8366500D02*
G75*
G03*
X9979000Y-8366500I45000J0D01*
G01*
D15*
X9972891Y-12815391D02*
X9972891Y-12737609D01*
X9895109Y-12737609D01*
X9895109Y-12815391D01*
X9972891Y-12815391D01*
D11*
X9979000Y-12811500D02*
X9979000Y-12741500D01*
X9889000Y-12811500D02*
X9889000Y-12741500D01*
X9979000Y-12741500D02*
G75*
G03*
X9889000Y-12741500I-45000J0D01*
G01*
X9889000Y-12811500D02*
G75*
G03*
X9979000Y-12811500I45000J0D01*
G01*
D15*
X9972891Y-17260391D02*
X9972891Y-17182609D01*
X9895109Y-17182609D01*
X9895109Y-17260391D01*
X9972891Y-17260391D01*
D11*
X9979000Y-17256500D02*
X9979000Y-17186500D01*
X9889000Y-17256500D02*
X9889000Y-17186500D01*
X9979000Y-17186500D02*
G75*
G03*
X9889000Y-17186500I-45000J0D01*
G01*
X9889000Y-17256500D02*
G75*
G03*
X9979000Y-17256500I45000J0D01*
G01*
D15*
X10932891Y-3925391D02*
X10932891Y-3847609D01*
X10855109Y-3847609D01*
X10855109Y-3925391D01*
X10932891Y-3925391D01*
D11*
X10939000Y-3921500D02*
X10939000Y-3851500D01*
X10849000Y-3921500D02*
X10849000Y-3851500D01*
X10939000Y-3851500D02*
G75*
G03*
X10849000Y-3851500I-45000J0D01*
G01*
X10849000Y-3921500D02*
G75*
G03*
X10939000Y-3921500I45000J0D01*
G01*
D15*
X10932891Y-8370391D02*
X10932891Y-8292609D01*
X10855109Y-8292609D01*
X10855109Y-8370391D01*
X10932891Y-8370391D01*
D11*
X10939000Y-8366500D02*
X10939000Y-8296500D01*
X10849000Y-8366500D02*
X10849000Y-8296500D01*
X10939000Y-8296500D02*
G75*
G03*
X10849000Y-8296500I-45000J0D01*
G01*
X10849000Y-8366500D02*
G75*
G03*
X10939000Y-8366500I45000J0D01*
G01*
D15*
X10932891Y-12815391D02*
X10932891Y-12737609D01*
X10855109Y-12737609D01*
X10855109Y-12815391D01*
X10932891Y-12815391D01*
D11*
X10939000Y-12811500D02*
X10939000Y-12741500D01*
X10849000Y-12811500D02*
X10849000Y-12741500D01*
X10939000Y-12741500D02*
G75*
G03*
X10849000Y-12741500I-45000J0D01*
G01*
X10849000Y-12811500D02*
G75*
G03*
X10939000Y-12811500I45000J0D01*
G01*
D15*
X10932891Y-17260391D02*
X10932891Y-17182609D01*
X10855109Y-17182609D01*
X10855109Y-17260391D01*
X10932891Y-17260391D01*
D11*
X10939000Y-17256500D02*
X10939000Y-17186500D01*
X10849000Y-17256500D02*
X10849000Y-17186500D01*
X10939000Y-17186500D02*
G75*
G03*
X10849000Y-17186500I-45000J0D01*
G01*
X10849000Y-17256500D02*
G75*
G03*
X10939000Y-17256500I45000J0D01*
G01*
D16*
X9207500Y-11300000D02*
X9267000Y-11240500D01*
X9207500Y-11181000D01*
X9148000Y-11240500D01*
X9207500Y-11300000D01*
X9207500Y-11554000D02*
X9267000Y-11494500D01*
X9207500Y-11435000D01*
X9148000Y-11494500D01*
X9207500Y-11554000D01*
X9207500Y-11808000D02*
X9267000Y-11748500D01*
X9207500Y-11689000D01*
X9148000Y-11748500D01*
X9207500Y-11808000D01*
X9207500Y-12062000D02*
X9267000Y-12002500D01*
X9207500Y-11943000D01*
X9148000Y-12002500D01*
X9207500Y-12062000D01*
X9207500Y-12316000D02*
X9267000Y-12256500D01*
X9207500Y-12197000D01*
X9148000Y-12256500D01*
X9207500Y-12316000D01*
X9207500Y-12570000D02*
X9267000Y-12510500D01*
X9207500Y-12451000D01*
X9148000Y-12510500D01*
X9207500Y-12570000D01*
X9209500Y-9395000D02*
X9269000Y-9335500D01*
X9209500Y-9276000D01*
X9150000Y-9335500D01*
X9209500Y-9395000D01*
X9209500Y-9649000D02*
X9269000Y-9589500D01*
X9209500Y-9530000D01*
X9150000Y-9589500D01*
X9209500Y-9649000D01*
X9209500Y-9903000D02*
X9269000Y-9843500D01*
X9209500Y-9784000D01*
X9150000Y-9843500D01*
X9209500Y-9903000D01*
X11620500Y-16507000D02*
X11680000Y-16447500D01*
X11620500Y-16388000D01*
X11561000Y-16447500D01*
X11620500Y-16507000D01*
X11620500Y-16761000D02*
X11680000Y-16701500D01*
X11620500Y-16642000D01*
X11561000Y-16701500D01*
X11620500Y-16761000D01*
D17*
X9015500Y-22796000D02*
X9145500Y-22926000D01*
X9145500Y-22796000D02*
X9015500Y-22926000D01*
X9145500Y-22861000D02*
G75*
G03*
X9145500Y-22861000I-65000J0D01*
G01*
X9777500Y-22796000D02*
X9907500Y-22926000D01*
X9907500Y-22796000D02*
X9777500Y-22926000D01*
X9907500Y-22861000D02*
G75*
G03*
X9907500Y-22861000I-65000J0D01*
G01*
D18*
X10321500Y-21854000D02*
X10506500Y-22039000D01*
X10506500Y-21854000D02*
X10321500Y-22039000D01*
X10414000Y-21854000D02*
X10414000Y-22039000D01*
X10321500Y-21946500D02*
X10506500Y-21946500D01*
X10321500Y-22324000D02*
X10506500Y-22509000D01*
X10506500Y-22324000D02*
X10321500Y-22509000D01*
X10414000Y-22324000D02*
X10414000Y-22509000D01*
X10321500Y-22416500D02*
X10506500Y-22416500D01*
X10321500Y-22794000D02*
X10506500Y-22979000D01*
X10506500Y-22794000D02*
X10321500Y-22979000D01*
X10414000Y-22794000D02*
X10414000Y-22979000D01*
X10321500Y-22886500D02*
X10506500Y-22886500D01*
D11*
X8634619Y-23874976D02*
X8634619Y-23674976D01*
X8682238Y-23674976D01*
X8710810Y-23684500D01*
X8729857Y-23703548D01*
X8739381Y-23722595D01*
X8748905Y-23760690D01*
X8748905Y-23789262D01*
X8739381Y-23827357D01*
X8729857Y-23846405D01*
X8710810Y-23865452D01*
X8682238Y-23874976D01*
X8634619Y-23874976D01*
X8834619Y-23874976D02*
X8834619Y-23741643D01*
X8834619Y-23779738D02*
X8844143Y-23760690D01*
X8853667Y-23751167D01*
X8872714Y-23741643D01*
X8891762Y-23741643D01*
X8958429Y-23874976D02*
X8958429Y-23741643D01*
X8958429Y-23674976D02*
X8948905Y-23684500D01*
X8958429Y-23694024D01*
X8967952Y-23684500D01*
X8958429Y-23674976D01*
X8958429Y-23694024D01*
X9082238Y-23874976D02*
X9063190Y-23865452D01*
X9053667Y-23846405D01*
X9053667Y-23674976D01*
X9187000Y-23874976D02*
X9167952Y-23865452D01*
X9158429Y-23846405D01*
X9158429Y-23674976D01*
X9415571Y-23874976D02*
X9415571Y-23674976D01*
X9482238Y-23817833D01*
X9548905Y-23674976D01*
X9548905Y-23874976D01*
X9729857Y-23874976D02*
X9729857Y-23770214D01*
X9720333Y-23751167D01*
X9701286Y-23741643D01*
X9663190Y-23741643D01*
X9644143Y-23751167D01*
X9729857Y-23865452D02*
X9710810Y-23874976D01*
X9663190Y-23874976D01*
X9644143Y-23865452D01*
X9634619Y-23846405D01*
X9634619Y-23827357D01*
X9644143Y-23808309D01*
X9663190Y-23798786D01*
X9710810Y-23798786D01*
X9729857Y-23789262D01*
X9825095Y-23741643D02*
X9825095Y-23941643D01*
X9825095Y-23751167D02*
X9844143Y-23741643D01*
X9882238Y-23741643D01*
X9901286Y-23751167D01*
X9910810Y-23760690D01*
X9920333Y-23779738D01*
X9920333Y-23836881D01*
X9910810Y-23855928D01*
X9901286Y-23865452D01*
X9882238Y-23874976D01*
X9844143Y-23874976D01*
X9825095Y-23865452D01*
X10006048Y-23855928D02*
X10015571Y-23865452D01*
X10006048Y-23874976D01*
X9996524Y-23865452D01*
X10006048Y-23855928D01*
X10006048Y-23874976D01*
X10006048Y-23751167D02*
X10015571Y-23760690D01*
X10006048Y-23770214D01*
X9996524Y-23760690D01*
X10006048Y-23751167D01*
X10006048Y-23770214D01*
D12*
X8327000Y-24179500D02*
X8377000Y-24229500D01*
X8377000Y-24179500D02*
X8327000Y-24229500D01*
D11*
X8672714Y-24094976D02*
X8691762Y-24094976D01*
X8710810Y-24104500D01*
X8720333Y-24114024D01*
X8729857Y-24133071D01*
X8739381Y-24171167D01*
X8739381Y-24218786D01*
X8729857Y-24256881D01*
X8720333Y-24275928D01*
X8710810Y-24285452D01*
X8691762Y-24294976D01*
X8672714Y-24294976D01*
X8653667Y-24285452D01*
X8644143Y-24275928D01*
X8634619Y-24256881D01*
X8625095Y-24218786D01*
X8625095Y-24171167D01*
X8634619Y-24133071D01*
X8644143Y-24114024D01*
X8653667Y-24104500D01*
X8672714Y-24094976D01*
X8825095Y-24275928D02*
X8834619Y-24285452D01*
X8825095Y-24294976D01*
X8815571Y-24285452D01*
X8825095Y-24275928D01*
X8825095Y-24294976D01*
X9015571Y-24094976D02*
X8920333Y-24094976D01*
X8910810Y-24190214D01*
X8920333Y-24180690D01*
X8939381Y-24171167D01*
X8987000Y-24171167D01*
X9006048Y-24180690D01*
X9015571Y-24190214D01*
X9025095Y-24209262D01*
X9025095Y-24256881D01*
X9015571Y-24275928D01*
X9006048Y-24285452D01*
X8987000Y-24294976D01*
X8939381Y-24294976D01*
X8920333Y-24285452D01*
X8910810Y-24275928D01*
X9148905Y-24094976D02*
X9167952Y-24094976D01*
X9187000Y-24104500D01*
X9196524Y-24114024D01*
X9206048Y-24133071D01*
X9215571Y-24171167D01*
X9215571Y-24218786D01*
X9206048Y-24256881D01*
X9196524Y-24275928D01*
X9187000Y-24285452D01*
X9167952Y-24294976D01*
X9148905Y-24294976D01*
X9129857Y-24285452D01*
X9120333Y-24275928D01*
X9110810Y-24256881D01*
X9101286Y-24218786D01*
X9101286Y-24171167D01*
X9110810Y-24133071D01*
X9120333Y-24114024D01*
X9129857Y-24104500D01*
X9148905Y-24094976D01*
X9339381Y-24094976D02*
X9358429Y-24094976D01*
X9377476Y-24104500D01*
X9387000Y-24114024D01*
X9396524Y-24133071D01*
X9406048Y-24171167D01*
X9406048Y-24218786D01*
X9396524Y-24256881D01*
X9387000Y-24275928D01*
X9377476Y-24285452D01*
X9358429Y-24294976D01*
X9339381Y-24294976D01*
X9320333Y-24285452D01*
X9310810Y-24275928D01*
X9301286Y-24256881D01*
X9291762Y-24218786D01*
X9291762Y-24171167D01*
X9301286Y-24133071D01*
X9310810Y-24114024D01*
X9320333Y-24104500D01*
X9339381Y-24094976D01*
X9491762Y-24294976D02*
X9491762Y-24161643D01*
X9491762Y-24180690D02*
X9501286Y-24171167D01*
X9520333Y-24161643D01*
X9548905Y-24161643D01*
X9567952Y-24171167D01*
X9577476Y-24190214D01*
X9577476Y-24294976D01*
X9577476Y-24190214D02*
X9587000Y-24171167D01*
X9606048Y-24161643D01*
X9634619Y-24161643D01*
X9653667Y-24171167D01*
X9663190Y-24190214D01*
X9663190Y-24294976D01*
X9758429Y-24294976D02*
X9758429Y-24161643D01*
X9758429Y-24180690D02*
X9767952Y-24171167D01*
X9787000Y-24161643D01*
X9815571Y-24161643D01*
X9834619Y-24171167D01*
X9844143Y-24190214D01*
X9844143Y-24294976D01*
X9844143Y-24190214D02*
X9853667Y-24171167D01*
X9872714Y-24161643D01*
X9901286Y-24161643D01*
X9920333Y-24171167D01*
X9929857Y-24190214D01*
X9929857Y-24294976D01*
X10320333Y-24085452D02*
X10148905Y-24342595D01*
X10577476Y-24094976D02*
X10596524Y-24094976D01*
X10615571Y-24104500D01*
X10625095Y-24114024D01*
X10634619Y-24133071D01*
X10644143Y-24171167D01*
X10644143Y-24218786D01*
X10634619Y-24256881D01*
X10625095Y-24275928D01*
X10615571Y-24285452D01*
X10596524Y-24294976D01*
X10577476Y-24294976D01*
X10558429Y-24285452D01*
X10548905Y-24275928D01*
X10539381Y-24256881D01*
X10529857Y-24218786D01*
X10529857Y-24171167D01*
X10539381Y-24133071D01*
X10548905Y-24114024D01*
X10558429Y-24104500D01*
X10577476Y-24094976D01*
X10729857Y-24275928D02*
X10739381Y-24285452D01*
X10729857Y-24294976D01*
X10720333Y-24285452D01*
X10729857Y-24275928D01*
X10729857Y-24294976D01*
X10863190Y-24094976D02*
X10882238Y-24094976D01*
X10901286Y-24104500D01*
X10910810Y-24114024D01*
X10920333Y-24133071D01*
X10929857Y-24171167D01*
X10929857Y-24218786D01*
X10920333Y-24256881D01*
X10910810Y-24275928D01*
X10901286Y-24285452D01*
X10882238Y-24294976D01*
X10863190Y-24294976D01*
X10844143Y-24285452D01*
X10834619Y-24275928D01*
X10825095Y-24256881D01*
X10815571Y-24218786D01*
X10815571Y-24171167D01*
X10825095Y-24133071D01*
X10834619Y-24114024D01*
X10844143Y-24104500D01*
X10863190Y-24094976D01*
X11120333Y-24294976D02*
X11006048Y-24294976D01*
X11063190Y-24294976D02*
X11063190Y-24094976D01*
X11044143Y-24123548D01*
X11025095Y-24142595D01*
X11006048Y-24152119D01*
X11215571Y-24294976D02*
X11253667Y-24294976D01*
X11272714Y-24285452D01*
X11282238Y-24275928D01*
X11301286Y-24247357D01*
X11310809Y-24209262D01*
X11310809Y-24133071D01*
X11301286Y-24114024D01*
X11291762Y-24104500D01*
X11272714Y-24094976D01*
X11234619Y-24094976D01*
X11215571Y-24104500D01*
X11206048Y-24114024D01*
X11196524Y-24133071D01*
X11196524Y-24180690D01*
X11206048Y-24199738D01*
X11215571Y-24209262D01*
X11234619Y-24218786D01*
X11272714Y-24218786D01*
X11291762Y-24209262D01*
X11301286Y-24199738D01*
X11310809Y-24180690D01*
X11377476Y-24094976D02*
X11510809Y-24094976D01*
X11425095Y-24294976D01*
X11577476Y-24094976D02*
X11577476Y-24133071D01*
X11653667Y-24094976D02*
X11653667Y-24133071D01*
X11948905Y-24371167D02*
X11939381Y-24361643D01*
X11920333Y-24333071D01*
X11910809Y-24314024D01*
X11901286Y-24285452D01*
X11891762Y-24237833D01*
X11891762Y-24199738D01*
X11901286Y-24152119D01*
X11910809Y-24123548D01*
X11920333Y-24104500D01*
X11939381Y-24075928D01*
X11948905Y-24066405D01*
X12015571Y-24114024D02*
X12025095Y-24104500D01*
X12044143Y-24094976D01*
X12091762Y-24094976D01*
X12110809Y-24104500D01*
X12120333Y-24114024D01*
X12129857Y-24133071D01*
X12129857Y-24152119D01*
X12120333Y-24180690D01*
X12006048Y-24294976D01*
X12129857Y-24294976D01*
X12225095Y-24294976D02*
X12263190Y-24294976D01*
X12282238Y-24285452D01*
X12291762Y-24275928D01*
X12310809Y-24247357D01*
X12320333Y-24209262D01*
X12320333Y-24133071D01*
X12310809Y-24114024D01*
X12301286Y-24104500D01*
X12282238Y-24094976D01*
X12244143Y-24094976D01*
X12225095Y-24104500D01*
X12215571Y-24114024D01*
X12206048Y-24133071D01*
X12206048Y-24180690D01*
X12215571Y-24199738D01*
X12225095Y-24209262D01*
X12244143Y-24218786D01*
X12282238Y-24218786D01*
X12301286Y-24209262D01*
X12310809Y-24199738D01*
X12320333Y-24180690D01*
X12558428Y-24294976D02*
X12558428Y-24094976D01*
X12644143Y-24294976D02*
X12644143Y-24190214D01*
X12634619Y-24171167D01*
X12615571Y-24161643D01*
X12587000Y-24161643D01*
X12567952Y-24171167D01*
X12558428Y-24180690D01*
X12767952Y-24294976D02*
X12748905Y-24285452D01*
X12739381Y-24275928D01*
X12729857Y-24256881D01*
X12729857Y-24199738D01*
X12739381Y-24180690D01*
X12748905Y-24171167D01*
X12767952Y-24161643D01*
X12796524Y-24161643D01*
X12815571Y-24171167D01*
X12825095Y-24180690D01*
X12834619Y-24199738D01*
X12834619Y-24256881D01*
X12825095Y-24275928D01*
X12815571Y-24285452D01*
X12796524Y-24294976D01*
X12767952Y-24294976D01*
X12948905Y-24294976D02*
X12929857Y-24285452D01*
X12920333Y-24266405D01*
X12920333Y-24094976D01*
X13101286Y-24285452D02*
X13082238Y-24294976D01*
X13044143Y-24294976D01*
X13025095Y-24285452D01*
X13015571Y-24266405D01*
X13015571Y-24190214D01*
X13025095Y-24171167D01*
X13044143Y-24161643D01*
X13082238Y-24161643D01*
X13101286Y-24171167D01*
X13110809Y-24190214D01*
X13110809Y-24209262D01*
X13015571Y-24228309D01*
X13187000Y-24285452D02*
X13206048Y-24294976D01*
X13244143Y-24294976D01*
X13263190Y-24285452D01*
X13272714Y-24266405D01*
X13272714Y-24256881D01*
X13263190Y-24237833D01*
X13244143Y-24228309D01*
X13215571Y-24228309D01*
X13196524Y-24218786D01*
X13187000Y-24199738D01*
X13187000Y-24190214D01*
X13196524Y-24171167D01*
X13215571Y-24161643D01*
X13244143Y-24161643D01*
X13263190Y-24171167D01*
X13339381Y-24371167D02*
X13348905Y-24361643D01*
X13367952Y-24333071D01*
X13377476Y-24314024D01*
X13387000Y-24285452D01*
X13396524Y-24237833D01*
X13396524Y-24199738D01*
X13387000Y-24152119D01*
X13377476Y-24123548D01*
X13367952Y-24104500D01*
X13348905Y-24075928D01*
X13339381Y-24066405D01*
D13*
X8377000Y-24468500D02*
G75*
G03*
X8377000Y-24468500I-40000J0D01*
G01*
D11*
X8672714Y-24358976D02*
X8691762Y-24358976D01*
X8710810Y-24368500D01*
X8720333Y-24378024D01*
X8729857Y-24397071D01*
X8739381Y-24435167D01*
X8739381Y-24482786D01*
X8729857Y-24520881D01*
X8720333Y-24539928D01*
X8710810Y-24549452D01*
X8691762Y-24558976D01*
X8672714Y-24558976D01*
X8653667Y-24549452D01*
X8644143Y-24539928D01*
X8634619Y-24520881D01*
X8625095Y-24482786D01*
X8625095Y-24435167D01*
X8634619Y-24397071D01*
X8644143Y-24378024D01*
X8653667Y-24368500D01*
X8672714Y-24358976D01*
X8825095Y-24539928D02*
X8834619Y-24549452D01*
X8825095Y-24558976D01*
X8815571Y-24549452D01*
X8825095Y-24539928D01*
X8825095Y-24558976D01*
X8948905Y-24444690D02*
X8929857Y-24435167D01*
X8920333Y-24425643D01*
X8910810Y-24406595D01*
X8910810Y-24397071D01*
X8920333Y-24378024D01*
X8929857Y-24368500D01*
X8948905Y-24358976D01*
X8987000Y-24358976D01*
X9006048Y-24368500D01*
X9015571Y-24378024D01*
X9025095Y-24397071D01*
X9025095Y-24406595D01*
X9015571Y-24425643D01*
X9006048Y-24435167D01*
X8987000Y-24444690D01*
X8948905Y-24444690D01*
X8929857Y-24454214D01*
X8920333Y-24463738D01*
X8910810Y-24482786D01*
X8910810Y-24520881D01*
X8920333Y-24539928D01*
X8929857Y-24549452D01*
X8948905Y-24558976D01*
X8987000Y-24558976D01*
X9006048Y-24549452D01*
X9015571Y-24539928D01*
X9025095Y-24520881D01*
X9025095Y-24482786D01*
X9015571Y-24463738D01*
X9006048Y-24454214D01*
X8987000Y-24444690D01*
X9148905Y-24358976D02*
X9167952Y-24358976D01*
X9187000Y-24368500D01*
X9196524Y-24378024D01*
X9206048Y-24397071D01*
X9215571Y-24435167D01*
X9215571Y-24482786D01*
X9206048Y-24520881D01*
X9196524Y-24539928D01*
X9187000Y-24549452D01*
X9167952Y-24558976D01*
X9148905Y-24558976D01*
X9129857Y-24549452D01*
X9120333Y-24539928D01*
X9110810Y-24520881D01*
X9101286Y-24482786D01*
X9101286Y-24435167D01*
X9110810Y-24397071D01*
X9120333Y-24378024D01*
X9129857Y-24368500D01*
X9148905Y-24358976D01*
X9339381Y-24358976D02*
X9358429Y-24358976D01*
X9377476Y-24368500D01*
X9387000Y-24378024D01*
X9396524Y-24397071D01*
X9406048Y-24435167D01*
X9406048Y-24482786D01*
X9396524Y-24520881D01*
X9387000Y-24539928D01*
X9377476Y-24549452D01*
X9358429Y-24558976D01*
X9339381Y-24558976D01*
X9320333Y-24549452D01*
X9310810Y-24539928D01*
X9301286Y-24520881D01*
X9291762Y-24482786D01*
X9291762Y-24435167D01*
X9301286Y-24397071D01*
X9310810Y-24378024D01*
X9320333Y-24368500D01*
X9339381Y-24358976D01*
X9491762Y-24558976D02*
X9491762Y-24425643D01*
X9491762Y-24444690D02*
X9501286Y-24435167D01*
X9520333Y-24425643D01*
X9548905Y-24425643D01*
X9567952Y-24435167D01*
X9577476Y-24454214D01*
X9577476Y-24558976D01*
X9577476Y-24454214D02*
X9587000Y-24435167D01*
X9606048Y-24425643D01*
X9634619Y-24425643D01*
X9653667Y-24435167D01*
X9663190Y-24454214D01*
X9663190Y-24558976D01*
X9758429Y-24558976D02*
X9758429Y-24425643D01*
X9758429Y-24444690D02*
X9767952Y-24435167D01*
X9787000Y-24425643D01*
X9815571Y-24425643D01*
X9834619Y-24435167D01*
X9844143Y-24454214D01*
X9844143Y-24558976D01*
X9844143Y-24454214D02*
X9853667Y-24435167D01*
X9872714Y-24425643D01*
X9901286Y-24425643D01*
X9920333Y-24435167D01*
X9929857Y-24454214D01*
X9929857Y-24558976D01*
X10320333Y-24349452D02*
X10148905Y-24606595D01*
X10577476Y-24358976D02*
X10596524Y-24358976D01*
X10615571Y-24368500D01*
X10625095Y-24378024D01*
X10634619Y-24397071D01*
X10644143Y-24435167D01*
X10644143Y-24482786D01*
X10634619Y-24520881D01*
X10625095Y-24539928D01*
X10615571Y-24549452D01*
X10596524Y-24558976D01*
X10577476Y-24558976D01*
X10558429Y-24549452D01*
X10548905Y-24539928D01*
X10539381Y-24520881D01*
X10529857Y-24482786D01*
X10529857Y-24435167D01*
X10539381Y-24397071D01*
X10548905Y-24378024D01*
X10558429Y-24368500D01*
X10577476Y-24358976D01*
X10729857Y-24539928D02*
X10739381Y-24549452D01*
X10729857Y-24558976D01*
X10720333Y-24549452D01*
X10729857Y-24539928D01*
X10729857Y-24558976D01*
X10863190Y-24358976D02*
X10882238Y-24358976D01*
X10901286Y-24368500D01*
X10910810Y-24378024D01*
X10920333Y-24397071D01*
X10929857Y-24435167D01*
X10929857Y-24482786D01*
X10920333Y-24520881D01*
X10910810Y-24539928D01*
X10901286Y-24549452D01*
X10882238Y-24558976D01*
X10863190Y-24558976D01*
X10844143Y-24549452D01*
X10834619Y-24539928D01*
X10825095Y-24520881D01*
X10815571Y-24482786D01*
X10815571Y-24435167D01*
X10825095Y-24397071D01*
X10834619Y-24378024D01*
X10844143Y-24368500D01*
X10863190Y-24358976D01*
X10996524Y-24358976D02*
X11120333Y-24358976D01*
X11053667Y-24435167D01*
X11082238Y-24435167D01*
X11101286Y-24444690D01*
X11110810Y-24454214D01*
X11120333Y-24473262D01*
X11120333Y-24520881D01*
X11110810Y-24539928D01*
X11101286Y-24549452D01*
X11082238Y-24558976D01*
X11025095Y-24558976D01*
X11006048Y-24549452D01*
X10996524Y-24539928D01*
X11310809Y-24558976D02*
X11196524Y-24558976D01*
X11253667Y-24558976D02*
X11253667Y-24358976D01*
X11234619Y-24387548D01*
X11215571Y-24406595D01*
X11196524Y-24416119D01*
X11491762Y-24358976D02*
X11396524Y-24358976D01*
X11387000Y-24454214D01*
X11396524Y-24444690D01*
X11415571Y-24435167D01*
X11463190Y-24435167D01*
X11482238Y-24444690D01*
X11491762Y-24454214D01*
X11501286Y-24473262D01*
X11501286Y-24520881D01*
X11491762Y-24539928D01*
X11482238Y-24549452D01*
X11463190Y-24558976D01*
X11415571Y-24558976D01*
X11396524Y-24549452D01*
X11387000Y-24539928D01*
X11577476Y-24358976D02*
X11577476Y-24397071D01*
X11653667Y-24358976D02*
X11653667Y-24397071D01*
X11948905Y-24635167D02*
X11939381Y-24625643D01*
X11920333Y-24597071D01*
X11910809Y-24578024D01*
X11901286Y-24549452D01*
X11891762Y-24501833D01*
X11891762Y-24463738D01*
X11901286Y-24416119D01*
X11910809Y-24387548D01*
X11920333Y-24368500D01*
X11939381Y-24339928D01*
X11948905Y-24330405D01*
X12129857Y-24558976D02*
X12015571Y-24558976D01*
X12072714Y-24558976D02*
X12072714Y-24358976D01*
X12053667Y-24387548D01*
X12034619Y-24406595D01*
X12015571Y-24416119D01*
X12225095Y-24558976D02*
X12263190Y-24558976D01*
X12282238Y-24549452D01*
X12291762Y-24539928D01*
X12310809Y-24511357D01*
X12320333Y-24473262D01*
X12320333Y-24397071D01*
X12310809Y-24378024D01*
X12301286Y-24368500D01*
X12282238Y-24358976D01*
X12244143Y-24358976D01*
X12225095Y-24368500D01*
X12215571Y-24378024D01*
X12206048Y-24397071D01*
X12206048Y-24444690D01*
X12215571Y-24463738D01*
X12225095Y-24473262D01*
X12244143Y-24482786D01*
X12282238Y-24482786D01*
X12301286Y-24473262D01*
X12310809Y-24463738D01*
X12320333Y-24444690D01*
X12558428Y-24558976D02*
X12558428Y-24358976D01*
X12644143Y-24558976D02*
X12644143Y-24454214D01*
X12634619Y-24435167D01*
X12615571Y-24425643D01*
X12587000Y-24425643D01*
X12567952Y-24435167D01*
X12558428Y-24444690D01*
X12767952Y-24558976D02*
X12748905Y-24549452D01*
X12739381Y-24539928D01*
X12729857Y-24520881D01*
X12729857Y-24463738D01*
X12739381Y-24444690D01*
X12748905Y-24435167D01*
X12767952Y-24425643D01*
X12796524Y-24425643D01*
X12815571Y-24435167D01*
X12825095Y-24444690D01*
X12834619Y-24463738D01*
X12834619Y-24520881D01*
X12825095Y-24539928D01*
X12815571Y-24549452D01*
X12796524Y-24558976D01*
X12767952Y-24558976D01*
X12948905Y-24558976D02*
X12929857Y-24549452D01*
X12920333Y-24530405D01*
X12920333Y-24358976D01*
X13101286Y-24549452D02*
X13082238Y-24558976D01*
X13044143Y-24558976D01*
X13025095Y-24549452D01*
X13015571Y-24530405D01*
X13015571Y-24454214D01*
X13025095Y-24435167D01*
X13044143Y-24425643D01*
X13082238Y-24425643D01*
X13101286Y-24435167D01*
X13110809Y-24454214D01*
X13110809Y-24473262D01*
X13015571Y-24492309D01*
X13187000Y-24549452D02*
X13206048Y-24558976D01*
X13244143Y-24558976D01*
X13263190Y-24549452D01*
X13272714Y-24530405D01*
X13272714Y-24520881D01*
X13263190Y-24501833D01*
X13244143Y-24492309D01*
X13215571Y-24492309D01*
X13196524Y-24482786D01*
X13187000Y-24463738D01*
X13187000Y-24454214D01*
X13196524Y-24435167D01*
X13215571Y-24425643D01*
X13244143Y-24425643D01*
X13263190Y-24435167D01*
X13339381Y-24635167D02*
X13348905Y-24625643D01*
X13367952Y-24597071D01*
X13377476Y-24578024D01*
X13387000Y-24549452D01*
X13396524Y-24501833D01*
X13396524Y-24463738D01*
X13387000Y-24416119D01*
X13377476Y-24387548D01*
X13367952Y-24368500D01*
X13348905Y-24339928D01*
X13339381Y-24330405D01*
D14*
X8327000Y-24682500D02*
X8327000Y-24782500D01*
X8277000Y-24732500D02*
X8377000Y-24732500D01*
D11*
X8739381Y-24822976D02*
X8625095Y-24822976D01*
X8682238Y-24822976D02*
X8682238Y-24622976D01*
X8663190Y-24651548D01*
X8644143Y-24670595D01*
X8625095Y-24680119D01*
X8825095Y-24803928D02*
X8834619Y-24813452D01*
X8825095Y-24822976D01*
X8815571Y-24813452D01*
X8825095Y-24803928D01*
X8825095Y-24822976D01*
X8958429Y-24622976D02*
X8977476Y-24622976D01*
X8996524Y-24632500D01*
X9006048Y-24642024D01*
X9015571Y-24661071D01*
X9025095Y-24699167D01*
X9025095Y-24746786D01*
X9015571Y-24784881D01*
X9006048Y-24803928D01*
X8996524Y-24813452D01*
X8977476Y-24822976D01*
X8958429Y-24822976D01*
X8939381Y-24813452D01*
X8929857Y-24803928D01*
X8920333Y-24784881D01*
X8910810Y-24746786D01*
X8910810Y-24699167D01*
X8920333Y-24661071D01*
X8929857Y-24642024D01*
X8939381Y-24632500D01*
X8958429Y-24622976D01*
X9148905Y-24622976D02*
X9167952Y-24622976D01*
X9187000Y-24632500D01*
X9196524Y-24642024D01*
X9206048Y-24661071D01*
X9215571Y-24699167D01*
X9215571Y-24746786D01*
X9206048Y-24784881D01*
X9196524Y-24803928D01*
X9187000Y-24813452D01*
X9167952Y-24822976D01*
X9148905Y-24822976D01*
X9129857Y-24813452D01*
X9120333Y-24803928D01*
X9110810Y-24784881D01*
X9101286Y-24746786D01*
X9101286Y-24699167D01*
X9110810Y-24661071D01*
X9120333Y-24642024D01*
X9129857Y-24632500D01*
X9148905Y-24622976D01*
X9339381Y-24622976D02*
X9358429Y-24622976D01*
X9377476Y-24632500D01*
X9387000Y-24642024D01*
X9396524Y-24661071D01*
X9406048Y-24699167D01*
X9406048Y-24746786D01*
X9396524Y-24784881D01*
X9387000Y-24803928D01*
X9377476Y-24813452D01*
X9358429Y-24822976D01*
X9339381Y-24822976D01*
X9320333Y-24813452D01*
X9310810Y-24803928D01*
X9301286Y-24784881D01*
X9291762Y-24746786D01*
X9291762Y-24699167D01*
X9301286Y-24661071D01*
X9310810Y-24642024D01*
X9320333Y-24632500D01*
X9339381Y-24622976D01*
X9491762Y-24822976D02*
X9491762Y-24689643D01*
X9491762Y-24708690D02*
X9501286Y-24699167D01*
X9520333Y-24689643D01*
X9548905Y-24689643D01*
X9567952Y-24699167D01*
X9577476Y-24718214D01*
X9577476Y-24822976D01*
X9577476Y-24718214D02*
X9587000Y-24699167D01*
X9606048Y-24689643D01*
X9634619Y-24689643D01*
X9653667Y-24699167D01*
X9663190Y-24718214D01*
X9663190Y-24822976D01*
X9758429Y-24822976D02*
X9758429Y-24689643D01*
X9758429Y-24708690D02*
X9767952Y-24699167D01*
X9787000Y-24689643D01*
X9815571Y-24689643D01*
X9834619Y-24699167D01*
X9844143Y-24718214D01*
X9844143Y-24822976D01*
X9844143Y-24718214D02*
X9853667Y-24699167D01*
X9872714Y-24689643D01*
X9901286Y-24689643D01*
X9920333Y-24699167D01*
X9929857Y-24718214D01*
X9929857Y-24822976D01*
X10320333Y-24613452D02*
X10148905Y-24870595D01*
X10577476Y-24622976D02*
X10596524Y-24622976D01*
X10615571Y-24632500D01*
X10625095Y-24642024D01*
X10634619Y-24661071D01*
X10644143Y-24699167D01*
X10644143Y-24746786D01*
X10634619Y-24784881D01*
X10625095Y-24803928D01*
X10615571Y-24813452D01*
X10596524Y-24822976D01*
X10577476Y-24822976D01*
X10558429Y-24813452D01*
X10548905Y-24803928D01*
X10539381Y-24784881D01*
X10529857Y-24746786D01*
X10529857Y-24699167D01*
X10539381Y-24661071D01*
X10548905Y-24642024D01*
X10558429Y-24632500D01*
X10577476Y-24622976D01*
X10729857Y-24803928D02*
X10739381Y-24813452D01*
X10729857Y-24822976D01*
X10720333Y-24813452D01*
X10729857Y-24803928D01*
X10729857Y-24822976D01*
X10863190Y-24622976D02*
X10882238Y-24622976D01*
X10901286Y-24632500D01*
X10910810Y-24642024D01*
X10920333Y-24661071D01*
X10929857Y-24699167D01*
X10929857Y-24746786D01*
X10920333Y-24784881D01*
X10910810Y-24803928D01*
X10901286Y-24813452D01*
X10882238Y-24822976D01*
X10863190Y-24822976D01*
X10844143Y-24813452D01*
X10834619Y-24803928D01*
X10825095Y-24784881D01*
X10815571Y-24746786D01*
X10815571Y-24699167D01*
X10825095Y-24661071D01*
X10834619Y-24642024D01*
X10844143Y-24632500D01*
X10863190Y-24622976D01*
X10996524Y-24622976D02*
X11120333Y-24622976D01*
X11053667Y-24699167D01*
X11082238Y-24699167D01*
X11101286Y-24708690D01*
X11110810Y-24718214D01*
X11120333Y-24737262D01*
X11120333Y-24784881D01*
X11110810Y-24803928D01*
X11101286Y-24813452D01*
X11082238Y-24822976D01*
X11025095Y-24822976D01*
X11006048Y-24813452D01*
X10996524Y-24803928D01*
X11215571Y-24822976D02*
X11253667Y-24822976D01*
X11272714Y-24813452D01*
X11282238Y-24803928D01*
X11301286Y-24775357D01*
X11310809Y-24737262D01*
X11310809Y-24661071D01*
X11301286Y-24642024D01*
X11291762Y-24632500D01*
X11272714Y-24622976D01*
X11234619Y-24622976D01*
X11215571Y-24632500D01*
X11206048Y-24642024D01*
X11196524Y-24661071D01*
X11196524Y-24708690D01*
X11206048Y-24727738D01*
X11215571Y-24737262D01*
X11234619Y-24746786D01*
X11272714Y-24746786D01*
X11291762Y-24737262D01*
X11301286Y-24727738D01*
X11310809Y-24708690D01*
X11482238Y-24689643D02*
X11482238Y-24822976D01*
X11434619Y-24613452D02*
X11387000Y-24756309D01*
X11510809Y-24756309D01*
X11577476Y-24622976D02*
X11577476Y-24661071D01*
X11653667Y-24622976D02*
X11653667Y-24661071D01*
X11948905Y-24899167D02*
X11939381Y-24889643D01*
X11920333Y-24861071D01*
X11910809Y-24842024D01*
X11901286Y-24813452D01*
X11891762Y-24765833D01*
X11891762Y-24727738D01*
X11901286Y-24680119D01*
X11910809Y-24651548D01*
X11920333Y-24632500D01*
X11939381Y-24603928D01*
X11948905Y-24594405D01*
X12015571Y-24642024D02*
X12025095Y-24632500D01*
X12044143Y-24622976D01*
X12091762Y-24622976D01*
X12110809Y-24632500D01*
X12120333Y-24642024D01*
X12129857Y-24661071D01*
X12129857Y-24680119D01*
X12120333Y-24708690D01*
X12006048Y-24822976D01*
X12129857Y-24822976D01*
X12225095Y-24822976D02*
X12263190Y-24822976D01*
X12282238Y-24813452D01*
X12291762Y-24803928D01*
X12310809Y-24775357D01*
X12320333Y-24737262D01*
X12320333Y-24661071D01*
X12310809Y-24642024D01*
X12301286Y-24632500D01*
X12282238Y-24622976D01*
X12244143Y-24622976D01*
X12225095Y-24632500D01*
X12215571Y-24642024D01*
X12206048Y-24661071D01*
X12206048Y-24708690D01*
X12215571Y-24727738D01*
X12225095Y-24737262D01*
X12244143Y-24746786D01*
X12282238Y-24746786D01*
X12301286Y-24737262D01*
X12310809Y-24727738D01*
X12320333Y-24708690D01*
X12558428Y-24822976D02*
X12558428Y-24622976D01*
X12644143Y-24822976D02*
X12644143Y-24718214D01*
X12634619Y-24699167D01*
X12615571Y-24689643D01*
X12587000Y-24689643D01*
X12567952Y-24699167D01*
X12558428Y-24708690D01*
X12767952Y-24822976D02*
X12748905Y-24813452D01*
X12739381Y-24803928D01*
X12729857Y-24784881D01*
X12729857Y-24727738D01*
X12739381Y-24708690D01*
X12748905Y-24699167D01*
X12767952Y-24689643D01*
X12796524Y-24689643D01*
X12815571Y-24699167D01*
X12825095Y-24708690D01*
X12834619Y-24727738D01*
X12834619Y-24784881D01*
X12825095Y-24803928D01*
X12815571Y-24813452D01*
X12796524Y-24822976D01*
X12767952Y-24822976D01*
X12948905Y-24822976D02*
X12929857Y-24813452D01*
X12920333Y-24794405D01*
X12920333Y-24622976D01*
X13101286Y-24813452D02*
X13082238Y-24822976D01*
X13044143Y-24822976D01*
X13025095Y-24813452D01*
X13015571Y-24794405D01*
X13015571Y-24718214D01*
X13025095Y-24699167D01*
X13044143Y-24689643D01*
X13082238Y-24689643D01*
X13101286Y-24699167D01*
X13110809Y-24718214D01*
X13110809Y-24737262D01*
X13015571Y-24756309D01*
X13187000Y-24813452D02*
X13206048Y-24822976D01*
X13244143Y-24822976D01*
X13263190Y-24813452D01*
X13272714Y-24794405D01*
X13272714Y-24784881D01*
X13263190Y-24765833D01*
X13244143Y-24756309D01*
X13215571Y-24756309D01*
X13196524Y-24746786D01*
X13187000Y-24727738D01*
X13187000Y-24718214D01*
X13196524Y-24699167D01*
X13215571Y-24689643D01*
X13244143Y-24689643D01*
X13263190Y-24699167D01*
X13339381Y-24899167D02*
X13348905Y-24889643D01*
X13367952Y-24861071D01*
X13377476Y-24842024D01*
X13387000Y-24813452D01*
X13396524Y-24765833D01*
X13396524Y-24727738D01*
X13387000Y-24680119D01*
X13377476Y-24651548D01*
X13367952Y-24632500D01*
X13348905Y-24603928D01*
X13339381Y-24594405D01*
D15*
X8360891Y-25035391D02*
X8360891Y-24957609D01*
X8283109Y-24957609D01*
X8283109Y-25035391D01*
X8360891Y-25035391D01*
D11*
X8739381Y-25086976D02*
X8625095Y-25086976D01*
X8682238Y-25086976D02*
X8682238Y-24886976D01*
X8663190Y-24915548D01*
X8644143Y-24934595D01*
X8625095Y-24944119D01*
X8825095Y-25067928D02*
X8834619Y-25077452D01*
X8825095Y-25086976D01*
X8815571Y-25077452D01*
X8825095Y-25067928D01*
X8825095Y-25086976D01*
X9025095Y-25086976D02*
X8910810Y-25086976D01*
X8967952Y-25086976D02*
X8967952Y-24886976D01*
X8948905Y-24915548D01*
X8929857Y-24934595D01*
X8910810Y-24944119D01*
X9148905Y-24886976D02*
X9167952Y-24886976D01*
X9187000Y-24896500D01*
X9196524Y-24906024D01*
X9206048Y-24925071D01*
X9215571Y-24963167D01*
X9215571Y-25010786D01*
X9206048Y-25048881D01*
X9196524Y-25067928D01*
X9187000Y-25077452D01*
X9167952Y-25086976D01*
X9148905Y-25086976D01*
X9129857Y-25077452D01*
X9120333Y-25067928D01*
X9110810Y-25048881D01*
X9101286Y-25010786D01*
X9101286Y-24963167D01*
X9110810Y-24925071D01*
X9120333Y-24906024D01*
X9129857Y-24896500D01*
X9148905Y-24886976D01*
X9339381Y-24886976D02*
X9358429Y-24886976D01*
X9377476Y-24896500D01*
X9387000Y-24906024D01*
X9396524Y-24925071D01*
X9406048Y-24963167D01*
X9406048Y-25010786D01*
X9396524Y-25048881D01*
X9387000Y-25067928D01*
X9377476Y-25077452D01*
X9358429Y-25086976D01*
X9339381Y-25086976D01*
X9320333Y-25077452D01*
X9310810Y-25067928D01*
X9301286Y-25048881D01*
X9291762Y-25010786D01*
X9291762Y-24963167D01*
X9301286Y-24925071D01*
X9310810Y-24906024D01*
X9320333Y-24896500D01*
X9339381Y-24886976D01*
X9491762Y-25086976D02*
X9491762Y-24953643D01*
X9491762Y-24972690D02*
X9501286Y-24963167D01*
X9520333Y-24953643D01*
X9548905Y-24953643D01*
X9567952Y-24963167D01*
X9577476Y-24982214D01*
X9577476Y-25086976D01*
X9577476Y-24982214D02*
X9587000Y-24963167D01*
X9606048Y-24953643D01*
X9634619Y-24953643D01*
X9653667Y-24963167D01*
X9663190Y-24982214D01*
X9663190Y-25086976D01*
X9758429Y-25086976D02*
X9758429Y-24953643D01*
X9758429Y-24972690D02*
X9767952Y-24963167D01*
X9787000Y-24953643D01*
X9815571Y-24953643D01*
X9834619Y-24963167D01*
X9844143Y-24982214D01*
X9844143Y-25086976D01*
X9844143Y-24982214D02*
X9853667Y-24963167D01*
X9872714Y-24953643D01*
X9901286Y-24953643D01*
X9920333Y-24963167D01*
X9929857Y-24982214D01*
X9929857Y-25086976D01*
X10320333Y-24877452D02*
X10148905Y-25134595D01*
X10577476Y-24886976D02*
X10596524Y-24886976D01*
X10615571Y-24896500D01*
X10625095Y-24906024D01*
X10634619Y-24925071D01*
X10644143Y-24963167D01*
X10644143Y-25010786D01*
X10634619Y-25048881D01*
X10625095Y-25067928D01*
X10615571Y-25077452D01*
X10596524Y-25086976D01*
X10577476Y-25086976D01*
X10558429Y-25077452D01*
X10548905Y-25067928D01*
X10539381Y-25048881D01*
X10529857Y-25010786D01*
X10529857Y-24963167D01*
X10539381Y-24925071D01*
X10548905Y-24906024D01*
X10558429Y-24896500D01*
X10577476Y-24886976D01*
X10729857Y-25067928D02*
X10739381Y-25077452D01*
X10729857Y-25086976D01*
X10720333Y-25077452D01*
X10729857Y-25067928D01*
X10729857Y-25086976D01*
X10863190Y-24886976D02*
X10882238Y-24886976D01*
X10901286Y-24896500D01*
X10910810Y-24906024D01*
X10920333Y-24925071D01*
X10929857Y-24963167D01*
X10929857Y-25010786D01*
X10920333Y-25048881D01*
X10910810Y-25067928D01*
X10901286Y-25077452D01*
X10882238Y-25086976D01*
X10863190Y-25086976D01*
X10844143Y-25077452D01*
X10834619Y-25067928D01*
X10825095Y-25048881D01*
X10815571Y-25010786D01*
X10815571Y-24963167D01*
X10825095Y-24925071D01*
X10834619Y-24906024D01*
X10844143Y-24896500D01*
X10863190Y-24886976D01*
X11101286Y-24953643D02*
X11101286Y-25086976D01*
X11053667Y-24877452D02*
X11006048Y-25020309D01*
X11129857Y-25020309D01*
X11187000Y-24886976D02*
X11310809Y-24886976D01*
X11244143Y-24963167D01*
X11272714Y-24963167D01*
X11291762Y-24972690D01*
X11301286Y-24982214D01*
X11310809Y-25001262D01*
X11310809Y-25048881D01*
X11301286Y-25067928D01*
X11291762Y-25077452D01*
X11272714Y-25086976D01*
X11215571Y-25086976D01*
X11196524Y-25077452D01*
X11187000Y-25067928D01*
X11377476Y-24886976D02*
X11501286Y-24886976D01*
X11434619Y-24963167D01*
X11463190Y-24963167D01*
X11482238Y-24972690D01*
X11491762Y-24982214D01*
X11501286Y-25001262D01*
X11501286Y-25048881D01*
X11491762Y-25067928D01*
X11482238Y-25077452D01*
X11463190Y-25086976D01*
X11406048Y-25086976D01*
X11387000Y-25077452D01*
X11377476Y-25067928D01*
X11577476Y-24886976D02*
X11577476Y-24925071D01*
X11653667Y-24886976D02*
X11653667Y-24925071D01*
X11948905Y-25163167D02*
X11939381Y-25153643D01*
X11920333Y-25125071D01*
X11910809Y-25106024D01*
X11901286Y-25077452D01*
X11891762Y-25029833D01*
X11891762Y-24991738D01*
X11901286Y-24944119D01*
X11910809Y-24915548D01*
X11920333Y-24896500D01*
X11939381Y-24867928D01*
X11948905Y-24858405D01*
X12063190Y-24886976D02*
X12082238Y-24886976D01*
X12101286Y-24896500D01*
X12110809Y-24906024D01*
X12120333Y-24925071D01*
X12129857Y-24963167D01*
X12129857Y-25010786D01*
X12120333Y-25048881D01*
X12110809Y-25067928D01*
X12101286Y-25077452D01*
X12082238Y-25086976D01*
X12063190Y-25086976D01*
X12044143Y-25077452D01*
X12034619Y-25067928D01*
X12025095Y-25048881D01*
X12015571Y-25010786D01*
X12015571Y-24963167D01*
X12025095Y-24925071D01*
X12034619Y-24906024D01*
X12044143Y-24896500D01*
X12063190Y-24886976D01*
X12367952Y-25086976D02*
X12367952Y-24886976D01*
X12453667Y-25086976D02*
X12453667Y-24982214D01*
X12444143Y-24963167D01*
X12425095Y-24953643D01*
X12396524Y-24953643D01*
X12377476Y-24963167D01*
X12367952Y-24972690D01*
X12577476Y-25086976D02*
X12558428Y-25077452D01*
X12548905Y-25067928D01*
X12539381Y-25048881D01*
X12539381Y-24991738D01*
X12548905Y-24972690D01*
X12558428Y-24963167D01*
X12577476Y-24953643D01*
X12606048Y-24953643D01*
X12625095Y-24963167D01*
X12634619Y-24972690D01*
X12644143Y-24991738D01*
X12644143Y-25048881D01*
X12634619Y-25067928D01*
X12625095Y-25077452D01*
X12606048Y-25086976D01*
X12577476Y-25086976D01*
X12758428Y-25086976D02*
X12739381Y-25077452D01*
X12729857Y-25058405D01*
X12729857Y-24886976D01*
X12910809Y-25077452D02*
X12891762Y-25086976D01*
X12853667Y-25086976D01*
X12834619Y-25077452D01*
X12825095Y-25058405D01*
X12825095Y-24982214D01*
X12834619Y-24963167D01*
X12853667Y-24953643D01*
X12891762Y-24953643D01*
X12910809Y-24963167D01*
X12920333Y-24982214D01*
X12920333Y-25001262D01*
X12825095Y-25020309D01*
X12996524Y-25077452D02*
X13015571Y-25086976D01*
X13053667Y-25086976D01*
X13072714Y-25077452D01*
X13082238Y-25058405D01*
X13082238Y-25048881D01*
X13072714Y-25029833D01*
X13053667Y-25020309D01*
X13025095Y-25020309D01*
X13006048Y-25010786D01*
X12996524Y-24991738D01*
X12996524Y-24982214D01*
X13006048Y-24963167D01*
X13025095Y-24953643D01*
X13053667Y-24953643D01*
X13072714Y-24963167D01*
X13320333Y-25010786D02*
X13472714Y-25010786D01*
X13396524Y-25086976D02*
X13396524Y-24934595D01*
X13748905Y-24972690D02*
X13729857Y-24963167D01*
X13720333Y-24953643D01*
X13710809Y-24934595D01*
X13710809Y-24925071D01*
X13720333Y-24906024D01*
X13729857Y-24896500D01*
X13748905Y-24886976D01*
X13787000Y-24886976D01*
X13806048Y-24896500D01*
X13815571Y-24906024D01*
X13825095Y-24925071D01*
X13825095Y-24934595D01*
X13815571Y-24953643D01*
X13806048Y-24963167D01*
X13787000Y-24972690D01*
X13748905Y-24972690D01*
X13729857Y-24982214D01*
X13720333Y-24991738D01*
X13710809Y-25010786D01*
X13710809Y-25048881D01*
X13720333Y-25067928D01*
X13729857Y-25077452D01*
X13748905Y-25086976D01*
X13787000Y-25086976D01*
X13806048Y-25077452D01*
X13815571Y-25067928D01*
X13825095Y-25048881D01*
X13825095Y-25010786D01*
X13815571Y-24991738D01*
X13806048Y-24982214D01*
X13787000Y-24972690D01*
X14053667Y-25077452D02*
X14072714Y-25086976D01*
X14110809Y-25086976D01*
X14129857Y-25077452D01*
X14139381Y-25058405D01*
X14139381Y-25048881D01*
X14129857Y-25029833D01*
X14110809Y-25020309D01*
X14082238Y-25020309D01*
X14063190Y-25010786D01*
X14053667Y-24991738D01*
X14053667Y-24982214D01*
X14063190Y-24963167D01*
X14082238Y-24953643D01*
X14110809Y-24953643D01*
X14129857Y-24963167D01*
X14253667Y-25086976D02*
X14234619Y-25077452D01*
X14225095Y-25058405D01*
X14225095Y-24886976D01*
X14358428Y-25086976D02*
X14339381Y-25077452D01*
X14329857Y-25067928D01*
X14320333Y-25048881D01*
X14320333Y-24991738D01*
X14329857Y-24972690D01*
X14339381Y-24963167D01*
X14358428Y-24953643D01*
X14387000Y-24953643D01*
X14406048Y-24963167D01*
X14415571Y-24972690D01*
X14425095Y-24991738D01*
X14425095Y-25048881D01*
X14415571Y-25067928D01*
X14406048Y-25077452D01*
X14387000Y-25086976D01*
X14358428Y-25086976D01*
X14482238Y-24953643D02*
X14558428Y-24953643D01*
X14510809Y-24886976D02*
X14510809Y-25058405D01*
X14520333Y-25077452D01*
X14539381Y-25086976D01*
X14558428Y-25086976D01*
X14615571Y-25077452D02*
X14634619Y-25086976D01*
X14672714Y-25086976D01*
X14691762Y-25077452D01*
X14701286Y-25058405D01*
X14701286Y-25048881D01*
X14691762Y-25029833D01*
X14672714Y-25020309D01*
X14644143Y-25020309D01*
X14625095Y-25010786D01*
X14615571Y-24991738D01*
X14615571Y-24982214D01*
X14625095Y-24963167D01*
X14644143Y-24953643D01*
X14672714Y-24953643D01*
X14691762Y-24963167D01*
X14767952Y-25163167D02*
X14777476Y-25153643D01*
X14796524Y-25125071D01*
X14806048Y-25106024D01*
X14815571Y-25077452D01*
X14825095Y-25029833D01*
X14825095Y-24991738D01*
X14815571Y-24944119D01*
X14806048Y-24915548D01*
X14796524Y-24896500D01*
X14777476Y-24867928D01*
X14767952Y-24858405D01*
D16*
X8317500Y-25320000D02*
X8377000Y-25260500D01*
X8317500Y-25201000D01*
X8258000Y-25260500D01*
X8317500Y-25320000D01*
D11*
X8739381Y-25350976D02*
X8625095Y-25350976D01*
X8682238Y-25350976D02*
X8682238Y-25150976D01*
X8663190Y-25179548D01*
X8644143Y-25198595D01*
X8625095Y-25208119D01*
X8825095Y-25331928D02*
X8834619Y-25341452D01*
X8825095Y-25350976D01*
X8815571Y-25341452D01*
X8825095Y-25331928D01*
X8825095Y-25350976D01*
X9025095Y-25350976D02*
X8910810Y-25350976D01*
X8967952Y-25350976D02*
X8967952Y-25150976D01*
X8948905Y-25179548D01*
X8929857Y-25198595D01*
X8910810Y-25208119D01*
X9120333Y-25350976D02*
X9158429Y-25350976D01*
X9177476Y-25341452D01*
X9187000Y-25331928D01*
X9206048Y-25303357D01*
X9215571Y-25265262D01*
X9215571Y-25189071D01*
X9206048Y-25170024D01*
X9196524Y-25160500D01*
X9177476Y-25150976D01*
X9139381Y-25150976D01*
X9120333Y-25160500D01*
X9110810Y-25170024D01*
X9101286Y-25189071D01*
X9101286Y-25236690D01*
X9110810Y-25255738D01*
X9120333Y-25265262D01*
X9139381Y-25274786D01*
X9177476Y-25274786D01*
X9196524Y-25265262D01*
X9206048Y-25255738D01*
X9215571Y-25236690D01*
X9339381Y-25150976D02*
X9358429Y-25150976D01*
X9377476Y-25160500D01*
X9387000Y-25170024D01*
X9396524Y-25189071D01*
X9406048Y-25227167D01*
X9406048Y-25274786D01*
X9396524Y-25312881D01*
X9387000Y-25331928D01*
X9377476Y-25341452D01*
X9358429Y-25350976D01*
X9339381Y-25350976D01*
X9320333Y-25341452D01*
X9310810Y-25331928D01*
X9301286Y-25312881D01*
X9291762Y-25274786D01*
X9291762Y-25227167D01*
X9301286Y-25189071D01*
X9310810Y-25170024D01*
X9320333Y-25160500D01*
X9339381Y-25150976D01*
X9491762Y-25350976D02*
X9491762Y-25217643D01*
X9491762Y-25236690D02*
X9501286Y-25227167D01*
X9520333Y-25217643D01*
X9548905Y-25217643D01*
X9567952Y-25227167D01*
X9577476Y-25246214D01*
X9577476Y-25350976D01*
X9577476Y-25246214D02*
X9587000Y-25227167D01*
X9606048Y-25217643D01*
X9634619Y-25217643D01*
X9653667Y-25227167D01*
X9663190Y-25246214D01*
X9663190Y-25350976D01*
X9758429Y-25350976D02*
X9758429Y-25217643D01*
X9758429Y-25236690D02*
X9767952Y-25227167D01*
X9787000Y-25217643D01*
X9815571Y-25217643D01*
X9834619Y-25227167D01*
X9844143Y-25246214D01*
X9844143Y-25350976D01*
X9844143Y-25246214D02*
X9853667Y-25227167D01*
X9872714Y-25217643D01*
X9901286Y-25217643D01*
X9920333Y-25227167D01*
X9929857Y-25246214D01*
X9929857Y-25350976D01*
X10320333Y-25141452D02*
X10148905Y-25398595D01*
X10577476Y-25150976D02*
X10596524Y-25150976D01*
X10615571Y-25160500D01*
X10625095Y-25170024D01*
X10634619Y-25189071D01*
X10644143Y-25227167D01*
X10644143Y-25274786D01*
X10634619Y-25312881D01*
X10625095Y-25331928D01*
X10615571Y-25341452D01*
X10596524Y-25350976D01*
X10577476Y-25350976D01*
X10558429Y-25341452D01*
X10548905Y-25331928D01*
X10539381Y-25312881D01*
X10529857Y-25274786D01*
X10529857Y-25227167D01*
X10539381Y-25189071D01*
X10548905Y-25170024D01*
X10558429Y-25160500D01*
X10577476Y-25150976D01*
X10729857Y-25331928D02*
X10739381Y-25341452D01*
X10729857Y-25350976D01*
X10720333Y-25341452D01*
X10729857Y-25331928D01*
X10729857Y-25350976D01*
X10863190Y-25150976D02*
X10882238Y-25150976D01*
X10901286Y-25160500D01*
X10910810Y-25170024D01*
X10920333Y-25189071D01*
X10929857Y-25227167D01*
X10929857Y-25274786D01*
X10920333Y-25312881D01*
X10910810Y-25331928D01*
X10901286Y-25341452D01*
X10882238Y-25350976D01*
X10863190Y-25350976D01*
X10844143Y-25341452D01*
X10834619Y-25331928D01*
X10825095Y-25312881D01*
X10815571Y-25274786D01*
X10815571Y-25227167D01*
X10825095Y-25189071D01*
X10834619Y-25170024D01*
X10844143Y-25160500D01*
X10863190Y-25150976D01*
X11101286Y-25217643D02*
X11101286Y-25350976D01*
X11053667Y-25141452D02*
X11006048Y-25284309D01*
X11129857Y-25284309D01*
X11291762Y-25150976D02*
X11253667Y-25150976D01*
X11234619Y-25160500D01*
X11225095Y-25170024D01*
X11206048Y-25198595D01*
X11196524Y-25236690D01*
X11196524Y-25312881D01*
X11206048Y-25331928D01*
X11215571Y-25341452D01*
X11234619Y-25350976D01*
X11272714Y-25350976D01*
X11291762Y-25341452D01*
X11301286Y-25331928D01*
X11310809Y-25312881D01*
X11310809Y-25265262D01*
X11301286Y-25246214D01*
X11291762Y-25236690D01*
X11272714Y-25227167D01*
X11234619Y-25227167D01*
X11215571Y-25236690D01*
X11206048Y-25246214D01*
X11196524Y-25265262D01*
X11406048Y-25350976D02*
X11444143Y-25350976D01*
X11463190Y-25341452D01*
X11472714Y-25331928D01*
X11491762Y-25303357D01*
X11501286Y-25265262D01*
X11501286Y-25189071D01*
X11491762Y-25170024D01*
X11482238Y-25160500D01*
X11463190Y-25150976D01*
X11425095Y-25150976D01*
X11406048Y-25160500D01*
X11396524Y-25170024D01*
X11387000Y-25189071D01*
X11387000Y-25236690D01*
X11396524Y-25255738D01*
X11406048Y-25265262D01*
X11425095Y-25274786D01*
X11463190Y-25274786D01*
X11482238Y-25265262D01*
X11491762Y-25255738D01*
X11501286Y-25236690D01*
X11577476Y-25150976D02*
X11577476Y-25189071D01*
X11653667Y-25150976D02*
X11653667Y-25189071D01*
X11948905Y-25427167D02*
X11939381Y-25417643D01*
X11920333Y-25389071D01*
X11910809Y-25370024D01*
X11901286Y-25341452D01*
X11891762Y-25293833D01*
X11891762Y-25255738D01*
X11901286Y-25208119D01*
X11910809Y-25179548D01*
X11920333Y-25160500D01*
X11939381Y-25131928D01*
X11948905Y-25122405D01*
X12129857Y-25350976D02*
X12015571Y-25350976D01*
X12072714Y-25350976D02*
X12072714Y-25150976D01*
X12053667Y-25179548D01*
X12034619Y-25198595D01*
X12015571Y-25208119D01*
X12320333Y-25350976D02*
X12206048Y-25350976D01*
X12263190Y-25350976D02*
X12263190Y-25150976D01*
X12244143Y-25179548D01*
X12225095Y-25198595D01*
X12206048Y-25208119D01*
X12558428Y-25350976D02*
X12558428Y-25150976D01*
X12644143Y-25350976D02*
X12644143Y-25246214D01*
X12634619Y-25227167D01*
X12615571Y-25217643D01*
X12587000Y-25217643D01*
X12567952Y-25227167D01*
X12558428Y-25236690D01*
X12767952Y-25350976D02*
X12748905Y-25341452D01*
X12739381Y-25331928D01*
X12729857Y-25312881D01*
X12729857Y-25255738D01*
X12739381Y-25236690D01*
X12748905Y-25227167D01*
X12767952Y-25217643D01*
X12796524Y-25217643D01*
X12815571Y-25227167D01*
X12825095Y-25236690D01*
X12834619Y-25255738D01*
X12834619Y-25312881D01*
X12825095Y-25331928D01*
X12815571Y-25341452D01*
X12796524Y-25350976D01*
X12767952Y-25350976D01*
X12948905Y-25350976D02*
X12929857Y-25341452D01*
X12920333Y-25322405D01*
X12920333Y-25150976D01*
X13101286Y-25341452D02*
X13082238Y-25350976D01*
X13044143Y-25350976D01*
X13025095Y-25341452D01*
X13015571Y-25322405D01*
X13015571Y-25246214D01*
X13025095Y-25227167D01*
X13044143Y-25217643D01*
X13082238Y-25217643D01*
X13101286Y-25227167D01*
X13110809Y-25246214D01*
X13110809Y-25265262D01*
X13015571Y-25284309D01*
X13187000Y-25341452D02*
X13206048Y-25350976D01*
X13244143Y-25350976D01*
X13263190Y-25341452D01*
X13272714Y-25322405D01*
X13272714Y-25312881D01*
X13263190Y-25293833D01*
X13244143Y-25284309D01*
X13215571Y-25284309D01*
X13196524Y-25274786D01*
X13187000Y-25255738D01*
X13187000Y-25246214D01*
X13196524Y-25227167D01*
X13215571Y-25217643D01*
X13244143Y-25217643D01*
X13263190Y-25227167D01*
X13339381Y-25427167D02*
X13348905Y-25417643D01*
X13367952Y-25389071D01*
X13377476Y-25370024D01*
X13387000Y-25341452D01*
X13396524Y-25293833D01*
X13396524Y-25255738D01*
X13387000Y-25208119D01*
X13377476Y-25179548D01*
X13367952Y-25160500D01*
X13348905Y-25131928D01*
X13339381Y-25122405D01*
D17*
X8247000Y-25459500D02*
X8377000Y-25589500D01*
X8377000Y-25459500D02*
X8247000Y-25589500D01*
X8377000Y-25524500D02*
G75*
G03*
X8377000Y-25524500I-65000J0D01*
G01*
D11*
X8739381Y-25614976D02*
X8625095Y-25614976D01*
X8682238Y-25614976D02*
X8682238Y-25414976D01*
X8663190Y-25443548D01*
X8644143Y-25462595D01*
X8625095Y-25472119D01*
X8825095Y-25595928D02*
X8834619Y-25605452D01*
X8825095Y-25614976D01*
X8815571Y-25605452D01*
X8825095Y-25595928D01*
X8825095Y-25614976D01*
X8901286Y-25414976D02*
X9025095Y-25414976D01*
X8958429Y-25491167D01*
X8987000Y-25491167D01*
X9006048Y-25500690D01*
X9015571Y-25510214D01*
X9025095Y-25529262D01*
X9025095Y-25576881D01*
X9015571Y-25595928D01*
X9006048Y-25605452D01*
X8987000Y-25614976D01*
X8929857Y-25614976D01*
X8910810Y-25605452D01*
X8901286Y-25595928D01*
X9148905Y-25414976D02*
X9167952Y-25414976D01*
X9187000Y-25424500D01*
X9196524Y-25434024D01*
X9206048Y-25453071D01*
X9215571Y-25491167D01*
X9215571Y-25538786D01*
X9206048Y-25576881D01*
X9196524Y-25595928D01*
X9187000Y-25605452D01*
X9167952Y-25614976D01*
X9148905Y-25614976D01*
X9129857Y-25605452D01*
X9120333Y-25595928D01*
X9110810Y-25576881D01*
X9101286Y-25538786D01*
X9101286Y-25491167D01*
X9110810Y-25453071D01*
X9120333Y-25434024D01*
X9129857Y-25424500D01*
X9148905Y-25414976D01*
X9339381Y-25414976D02*
X9358429Y-25414976D01*
X9377476Y-25424500D01*
X9387000Y-25434024D01*
X9396524Y-25453071D01*
X9406048Y-25491167D01*
X9406048Y-25538786D01*
X9396524Y-25576881D01*
X9387000Y-25595928D01*
X9377476Y-25605452D01*
X9358429Y-25614976D01*
X9339381Y-25614976D01*
X9320333Y-25605452D01*
X9310810Y-25595928D01*
X9301286Y-25576881D01*
X9291762Y-25538786D01*
X9291762Y-25491167D01*
X9301286Y-25453071D01*
X9310810Y-25434024D01*
X9320333Y-25424500D01*
X9339381Y-25414976D01*
X9491762Y-25614976D02*
X9491762Y-25481643D01*
X9491762Y-25500690D02*
X9501286Y-25491167D01*
X9520333Y-25481643D01*
X9548905Y-25481643D01*
X9567952Y-25491167D01*
X9577476Y-25510214D01*
X9577476Y-25614976D01*
X9577476Y-25510214D02*
X9587000Y-25491167D01*
X9606048Y-25481643D01*
X9634619Y-25481643D01*
X9653667Y-25491167D01*
X9663190Y-25510214D01*
X9663190Y-25614976D01*
X9758429Y-25614976D02*
X9758429Y-25481643D01*
X9758429Y-25500690D02*
X9767952Y-25491167D01*
X9787000Y-25481643D01*
X9815571Y-25481643D01*
X9834619Y-25491167D01*
X9844143Y-25510214D01*
X9844143Y-25614976D01*
X9844143Y-25510214D02*
X9853667Y-25491167D01*
X9872714Y-25481643D01*
X9901286Y-25481643D01*
X9920333Y-25491167D01*
X9929857Y-25510214D01*
X9929857Y-25614976D01*
X10320333Y-25405452D02*
X10148905Y-25662595D01*
X10577476Y-25414976D02*
X10596524Y-25414976D01*
X10615571Y-25424500D01*
X10625095Y-25434024D01*
X10634619Y-25453071D01*
X10644143Y-25491167D01*
X10644143Y-25538786D01*
X10634619Y-25576881D01*
X10625095Y-25595928D01*
X10615571Y-25605452D01*
X10596524Y-25614976D01*
X10577476Y-25614976D01*
X10558429Y-25605452D01*
X10548905Y-25595928D01*
X10539381Y-25576881D01*
X10529857Y-25538786D01*
X10529857Y-25491167D01*
X10539381Y-25453071D01*
X10548905Y-25434024D01*
X10558429Y-25424500D01*
X10577476Y-25414976D01*
X10729857Y-25595928D02*
X10739381Y-25605452D01*
X10729857Y-25614976D01*
X10720333Y-25605452D01*
X10729857Y-25595928D01*
X10729857Y-25614976D01*
X10863190Y-25414976D02*
X10882238Y-25414976D01*
X10901286Y-25424500D01*
X10910810Y-25434024D01*
X10920333Y-25453071D01*
X10929857Y-25491167D01*
X10929857Y-25538786D01*
X10920333Y-25576881D01*
X10910810Y-25595928D01*
X10901286Y-25605452D01*
X10882238Y-25614976D01*
X10863190Y-25614976D01*
X10844143Y-25605452D01*
X10834619Y-25595928D01*
X10825095Y-25576881D01*
X10815571Y-25538786D01*
X10815571Y-25491167D01*
X10825095Y-25453071D01*
X10834619Y-25434024D01*
X10844143Y-25424500D01*
X10863190Y-25414976D01*
X11110810Y-25414976D02*
X11015571Y-25414976D01*
X11006048Y-25510214D01*
X11015571Y-25500690D01*
X11034619Y-25491167D01*
X11082238Y-25491167D01*
X11101286Y-25500690D01*
X11110810Y-25510214D01*
X11120333Y-25529262D01*
X11120333Y-25576881D01*
X11110810Y-25595928D01*
X11101286Y-25605452D01*
X11082238Y-25614976D01*
X11034619Y-25614976D01*
X11015571Y-25605452D01*
X11006048Y-25595928D01*
X11310809Y-25614976D02*
X11196524Y-25614976D01*
X11253667Y-25614976D02*
X11253667Y-25414976D01*
X11234619Y-25443548D01*
X11215571Y-25462595D01*
X11196524Y-25472119D01*
X11387000Y-25434024D02*
X11396524Y-25424500D01*
X11415571Y-25414976D01*
X11463190Y-25414976D01*
X11482238Y-25424500D01*
X11491762Y-25434024D01*
X11501286Y-25453071D01*
X11501286Y-25472119D01*
X11491762Y-25500690D01*
X11377476Y-25614976D01*
X11501286Y-25614976D01*
X11577476Y-25414976D02*
X11577476Y-25453071D01*
X11653667Y-25414976D02*
X11653667Y-25453071D01*
X11948905Y-25691167D02*
X11939381Y-25681643D01*
X11920333Y-25653071D01*
X11910809Y-25634024D01*
X11901286Y-25605452D01*
X11891762Y-25557833D01*
X11891762Y-25519738D01*
X11901286Y-25472119D01*
X11910809Y-25443548D01*
X11920333Y-25424500D01*
X11939381Y-25395928D01*
X11948905Y-25386405D01*
X12015571Y-25434024D02*
X12025095Y-25424500D01*
X12044143Y-25414976D01*
X12091762Y-25414976D01*
X12110809Y-25424500D01*
X12120333Y-25434024D01*
X12129857Y-25453071D01*
X12129857Y-25472119D01*
X12120333Y-25500690D01*
X12006048Y-25614976D01*
X12129857Y-25614976D01*
X12367952Y-25614976D02*
X12367952Y-25414976D01*
X12453667Y-25614976D02*
X12453667Y-25510214D01*
X12444143Y-25491167D01*
X12425095Y-25481643D01*
X12396524Y-25481643D01*
X12377476Y-25491167D01*
X12367952Y-25500690D01*
X12577476Y-25614976D02*
X12558428Y-25605452D01*
X12548905Y-25595928D01*
X12539381Y-25576881D01*
X12539381Y-25519738D01*
X12548905Y-25500690D01*
X12558428Y-25491167D01*
X12577476Y-25481643D01*
X12606048Y-25481643D01*
X12625095Y-25491167D01*
X12634619Y-25500690D01*
X12644143Y-25519738D01*
X12644143Y-25576881D01*
X12634619Y-25595928D01*
X12625095Y-25605452D01*
X12606048Y-25614976D01*
X12577476Y-25614976D01*
X12758428Y-25614976D02*
X12739381Y-25605452D01*
X12729857Y-25586405D01*
X12729857Y-25414976D01*
X12910809Y-25605452D02*
X12891762Y-25614976D01*
X12853667Y-25614976D01*
X12834619Y-25605452D01*
X12825095Y-25586405D01*
X12825095Y-25510214D01*
X12834619Y-25491167D01*
X12853667Y-25481643D01*
X12891762Y-25481643D01*
X12910809Y-25491167D01*
X12920333Y-25510214D01*
X12920333Y-25529262D01*
X12825095Y-25548309D01*
X12996524Y-25605452D02*
X13015571Y-25614976D01*
X13053667Y-25614976D01*
X13072714Y-25605452D01*
X13082238Y-25586405D01*
X13082238Y-25576881D01*
X13072714Y-25557833D01*
X13053667Y-25548309D01*
X13025095Y-25548309D01*
X13006048Y-25538786D01*
X12996524Y-25519738D01*
X12996524Y-25510214D01*
X13006048Y-25491167D01*
X13025095Y-25481643D01*
X13053667Y-25481643D01*
X13072714Y-25491167D01*
X13148905Y-25691167D02*
X13158428Y-25681643D01*
X13177476Y-25653071D01*
X13187000Y-25634024D01*
X13196524Y-25605452D01*
X13206048Y-25557833D01*
X13206048Y-25519738D01*
X13196524Y-25472119D01*
X13187000Y-25443548D01*
X13177476Y-25424500D01*
X13158428Y-25395928D01*
X13148905Y-25386405D01*
D18*
X8192000Y-25696000D02*
X8377000Y-25881000D01*
X8377000Y-25696000D02*
X8192000Y-25881000D01*
X8284500Y-25696000D02*
X8284500Y-25881000D01*
X8192000Y-25788500D02*
X8377000Y-25788500D01*
D11*
X8739381Y-25878976D02*
X8625095Y-25878976D01*
X8682238Y-25878976D02*
X8682238Y-25678976D01*
X8663190Y-25707548D01*
X8644143Y-25726595D01*
X8625095Y-25736119D01*
X8825095Y-25859928D02*
X8834619Y-25869452D01*
X8825095Y-25878976D01*
X8815571Y-25869452D01*
X8825095Y-25859928D01*
X8825095Y-25878976D01*
X8948905Y-25764690D02*
X8929857Y-25755167D01*
X8920333Y-25745643D01*
X8910810Y-25726595D01*
X8910810Y-25717071D01*
X8920333Y-25698024D01*
X8929857Y-25688500D01*
X8948905Y-25678976D01*
X8987000Y-25678976D01*
X9006048Y-25688500D01*
X9015571Y-25698024D01*
X9025095Y-25717071D01*
X9025095Y-25726595D01*
X9015571Y-25745643D01*
X9006048Y-25755167D01*
X8987000Y-25764690D01*
X8948905Y-25764690D01*
X8929857Y-25774214D01*
X8920333Y-25783738D01*
X8910810Y-25802786D01*
X8910810Y-25840881D01*
X8920333Y-25859928D01*
X8929857Y-25869452D01*
X8948905Y-25878976D01*
X8987000Y-25878976D01*
X9006048Y-25869452D01*
X9015571Y-25859928D01*
X9025095Y-25840881D01*
X9025095Y-25802786D01*
X9015571Y-25783738D01*
X9006048Y-25774214D01*
X8987000Y-25764690D01*
X9206048Y-25678976D02*
X9110810Y-25678976D01*
X9101286Y-25774214D01*
X9110810Y-25764690D01*
X9129857Y-25755167D01*
X9177476Y-25755167D01*
X9196524Y-25764690D01*
X9206048Y-25774214D01*
X9215571Y-25793262D01*
X9215571Y-25840881D01*
X9206048Y-25859928D01*
X9196524Y-25869452D01*
X9177476Y-25878976D01*
X9129857Y-25878976D01*
X9110810Y-25869452D01*
X9101286Y-25859928D01*
X9339381Y-25678976D02*
X9358429Y-25678976D01*
X9377476Y-25688500D01*
X9387000Y-25698024D01*
X9396524Y-25717071D01*
X9406048Y-25755167D01*
X9406048Y-25802786D01*
X9396524Y-25840881D01*
X9387000Y-25859928D01*
X9377476Y-25869452D01*
X9358429Y-25878976D01*
X9339381Y-25878976D01*
X9320333Y-25869452D01*
X9310810Y-25859928D01*
X9301286Y-25840881D01*
X9291762Y-25802786D01*
X9291762Y-25755167D01*
X9301286Y-25717071D01*
X9310810Y-25698024D01*
X9320333Y-25688500D01*
X9339381Y-25678976D01*
X9491762Y-25878976D02*
X9491762Y-25745643D01*
X9491762Y-25764690D02*
X9501286Y-25755167D01*
X9520333Y-25745643D01*
X9548905Y-25745643D01*
X9567952Y-25755167D01*
X9577476Y-25774214D01*
X9577476Y-25878976D01*
X9577476Y-25774214D02*
X9587000Y-25755167D01*
X9606048Y-25745643D01*
X9634619Y-25745643D01*
X9653667Y-25755167D01*
X9663190Y-25774214D01*
X9663190Y-25878976D01*
X9758429Y-25878976D02*
X9758429Y-25745643D01*
X9758429Y-25764690D02*
X9767952Y-25755167D01*
X9787000Y-25745643D01*
X9815571Y-25745643D01*
X9834619Y-25755167D01*
X9844143Y-25774214D01*
X9844143Y-25878976D01*
X9844143Y-25774214D02*
X9853667Y-25755167D01*
X9872714Y-25745643D01*
X9901286Y-25745643D01*
X9920333Y-25755167D01*
X9929857Y-25774214D01*
X9929857Y-25878976D01*
X10320333Y-25669452D02*
X10148905Y-25926595D01*
X10577476Y-25678976D02*
X10596524Y-25678976D01*
X10615571Y-25688500D01*
X10625095Y-25698024D01*
X10634619Y-25717071D01*
X10644143Y-25755167D01*
X10644143Y-25802786D01*
X10634619Y-25840881D01*
X10625095Y-25859928D01*
X10615571Y-25869452D01*
X10596524Y-25878976D01*
X10577476Y-25878976D01*
X10558429Y-25869452D01*
X10548905Y-25859928D01*
X10539381Y-25840881D01*
X10529857Y-25802786D01*
X10529857Y-25755167D01*
X10539381Y-25717071D01*
X10548905Y-25698024D01*
X10558429Y-25688500D01*
X10577476Y-25678976D01*
X10729857Y-25859928D02*
X10739381Y-25869452D01*
X10729857Y-25878976D01*
X10720333Y-25869452D01*
X10729857Y-25859928D01*
X10729857Y-25878976D01*
X10863190Y-25678976D02*
X10882238Y-25678976D01*
X10901286Y-25688500D01*
X10910810Y-25698024D01*
X10920333Y-25717071D01*
X10929857Y-25755167D01*
X10929857Y-25802786D01*
X10920333Y-25840881D01*
X10910810Y-25859928D01*
X10901286Y-25869452D01*
X10882238Y-25878976D01*
X10863190Y-25878976D01*
X10844143Y-25869452D01*
X10834619Y-25859928D01*
X10825095Y-25840881D01*
X10815571Y-25802786D01*
X10815571Y-25755167D01*
X10825095Y-25717071D01*
X10834619Y-25698024D01*
X10844143Y-25688500D01*
X10863190Y-25678976D01*
X10996524Y-25678976D02*
X11129857Y-25678976D01*
X11044143Y-25878976D01*
X11196524Y-25698024D02*
X11206048Y-25688500D01*
X11225095Y-25678976D01*
X11272714Y-25678976D01*
X11291762Y-25688500D01*
X11301286Y-25698024D01*
X11310809Y-25717071D01*
X11310809Y-25736119D01*
X11301286Y-25764690D01*
X11187000Y-25878976D01*
X11310809Y-25878976D01*
X11425095Y-25764690D02*
X11406048Y-25755167D01*
X11396524Y-25745643D01*
X11387000Y-25726595D01*
X11387000Y-25717071D01*
X11396524Y-25698024D01*
X11406048Y-25688500D01*
X11425095Y-25678976D01*
X11463190Y-25678976D01*
X11482238Y-25688500D01*
X11491762Y-25698024D01*
X11501286Y-25717071D01*
X11501286Y-25726595D01*
X11491762Y-25745643D01*
X11482238Y-25755167D01*
X11463190Y-25764690D01*
X11425095Y-25764690D01*
X11406048Y-25774214D01*
X11396524Y-25783738D01*
X11387000Y-25802786D01*
X11387000Y-25840881D01*
X11396524Y-25859928D01*
X11406048Y-25869452D01*
X11425095Y-25878976D01*
X11463190Y-25878976D01*
X11482238Y-25869452D01*
X11491762Y-25859928D01*
X11501286Y-25840881D01*
X11501286Y-25802786D01*
X11491762Y-25783738D01*
X11482238Y-25774214D01*
X11463190Y-25764690D01*
X11577476Y-25678976D02*
X11577476Y-25717071D01*
X11653667Y-25678976D02*
X11653667Y-25717071D01*
X11948905Y-25955167D02*
X11939381Y-25945643D01*
X11920333Y-25917071D01*
X11910809Y-25898024D01*
X11901286Y-25869452D01*
X11891762Y-25821833D01*
X11891762Y-25783738D01*
X11901286Y-25736119D01*
X11910809Y-25707548D01*
X11920333Y-25688500D01*
X11939381Y-25659928D01*
X11948905Y-25650405D01*
X12006048Y-25678976D02*
X12129857Y-25678976D01*
X12063190Y-25755167D01*
X12091762Y-25755167D01*
X12110809Y-25764690D01*
X12120333Y-25774214D01*
X12129857Y-25793262D01*
X12129857Y-25840881D01*
X12120333Y-25859928D01*
X12110809Y-25869452D01*
X12091762Y-25878976D01*
X12034619Y-25878976D01*
X12015571Y-25869452D01*
X12006048Y-25859928D01*
X12367952Y-25878976D02*
X12367952Y-25678976D01*
X12453667Y-25878976D02*
X12453667Y-25774214D01*
X12444143Y-25755167D01*
X12425095Y-25745643D01*
X12396524Y-25745643D01*
X12377476Y-25755167D01*
X12367952Y-25764690D01*
X12577476Y-25878976D02*
X12558428Y-25869452D01*
X12548905Y-25859928D01*
X12539381Y-25840881D01*
X12539381Y-25783738D01*
X12548905Y-25764690D01*
X12558428Y-25755167D01*
X12577476Y-25745643D01*
X12606048Y-25745643D01*
X12625095Y-25755167D01*
X12634619Y-25764690D01*
X12644143Y-25783738D01*
X12644143Y-25840881D01*
X12634619Y-25859928D01*
X12625095Y-25869452D01*
X12606048Y-25878976D01*
X12577476Y-25878976D01*
X12758428Y-25878976D02*
X12739381Y-25869452D01*
X12729857Y-25850405D01*
X12729857Y-25678976D01*
X12910809Y-25869452D02*
X12891762Y-25878976D01*
X12853667Y-25878976D01*
X12834619Y-25869452D01*
X12825095Y-25850405D01*
X12825095Y-25774214D01*
X12834619Y-25755167D01*
X12853667Y-25745643D01*
X12891762Y-25745643D01*
X12910809Y-25755167D01*
X12920333Y-25774214D01*
X12920333Y-25793262D01*
X12825095Y-25812309D01*
X12996524Y-25869452D02*
X13015571Y-25878976D01*
X13053667Y-25878976D01*
X13072714Y-25869452D01*
X13082238Y-25850405D01*
X13082238Y-25840881D01*
X13072714Y-25821833D01*
X13053667Y-25812309D01*
X13025095Y-25812309D01*
X13006048Y-25802786D01*
X12996524Y-25783738D01*
X12996524Y-25774214D01*
X13006048Y-25755167D01*
X13025095Y-25745643D01*
X13053667Y-25745643D01*
X13072714Y-25755167D01*
X13148905Y-25955167D02*
X13158428Y-25945643D01*
X13177476Y-25917071D01*
X13187000Y-25898024D01*
X13196524Y-25869452D01*
X13206048Y-25821833D01*
X13206048Y-25783738D01*
X13196524Y-25736119D01*
X13187000Y-25707548D01*
X13177476Y-25688500D01*
X13158428Y-25659928D01*
X13148905Y-25650405D01*
M02*
