M48
; DRILL file {KiCad 6.0.5+dfsg-1~bpo11+1} date Thu Jul 21 18:59:06 2022
; FORMAT={-:-/ absolute / metric / decimal}
; #@! TF.CreationDate,2022-07-21T18:59:06+00:00
; #@! TF.GenerationSoftware,Kicad,Pcbnew,6.0.5+dfsg-1~bpo11+1
; #@! TF.FileFunction,Plated,1,2,PTH
FMAT,2
METRIC
; #@! TA.AperFunction,Plated,PTH,ViaDrill
T1C0.500
; #@! TA.AperFunction,Plated,PTH,ComponentDrill
T2C0.800
; #@! TA.AperFunction,Plated,PTH,ComponentDrill
T3C1.000
; #@! TA.AperFunction,Plated,PTH,ComponentDrill
T4C1.100
; #@! TA.AperFunction,Plated,PTH,ComponentDrill
T5C1.190
; #@! TA.AperFunction,Plated,PTH,ComponentDrill
T6C1.300
; #@! TA.AperFunction,Plated,PTH,ComponentDrill
T7C1.850
%
G90
G05
T1
X86.614Y-181.239
X86.614Y-224.165
X88.646Y-71.257
X90.17Y-159.395
X90.932Y-137.043
X92.71Y-88.021
X93.472Y-219.593
X96.266Y-91.45
X97.79Y-103.515
X98.552Y-56.779
X98.552Y-79.893
X98.806Y-192.415
X99.06Y-67.447
X99.06Y-110.373
X99.568Y-160.665
X101.1Y-143.147
X103.378Y-194.193
X109.22Y-110.373
X109.474Y-67.447
X109.728Y-101.737
X109.728Y-192.415
X109.982Y-79.893
X109.982Y-143.139
X114.046Y-151.013
X114.554Y-144.409
X114.808Y-120.025
X117.348Y-160.411
X117.602Y-190.129
X118.872Y-92.339
T2
X92.115Y-193.05
X94.615Y-193.05
X99.1Y-197.495
X101.6Y-197.495
X101.64Y-63.383
X103.36Y-146.314
X104.14Y-153.299
X104.14Y-155.839
X104.14Y-158.379
X105.86Y-146.314
X106.64Y-63.383
X106.68Y-197.495
X109.154Y-153.299
X109.18Y-197.495
X111.654Y-153.299
X112.776Y-63.891
X113.665Y-193.05
X116.165Y-193.05
X117.776Y-63.891
T3
X90.17Y-80.655
X90.805Y-209.56
X99.06Y-209.56
X99.06Y-212.1
X101.6Y-209.56
X101.6Y-212.1
X101.64Y-46.365
X101.64Y-90.815
X101.64Y-135.265
X101.64Y-179.715
X104.14Y-46.365
X104.14Y-90.815
X104.14Y-135.265
X104.14Y-179.715
X104.14Y-209.56
X104.14Y-212.1
X106.64Y-46.365
X106.64Y-90.815
X106.64Y-135.265
X106.64Y-179.715
X106.68Y-209.56
X106.68Y-212.1
X109.22Y-209.56
X109.22Y-212.1
X111.76Y-219.085
X111.76Y-228.61
X112.776Y-92.339
X113.03Y-71.13
X117.475Y-209.56
T5
X92.075Y-112.405
X92.075Y-114.945
X92.075Y-117.485
X92.075Y-120.025
X92.075Y-122.565
X92.075Y-125.105
X92.095Y-93.355
X92.095Y-95.895
X92.095Y-98.435
X116.205Y-164.475
X116.205Y-167.015
T6
X90.805Y-228.61
X98.425Y-228.61
T7
X104.14Y-219.465
X104.14Y-224.165
X104.14Y-228.865
T4
X99.34Y-39.215G85X99.34Y-38.515
G05
X99.34Y-83.665G85X99.34Y-82.965
G05
X99.34Y-128.115G85X99.34Y-127.415
G05
X99.34Y-172.565G85X99.34Y-171.865
G05
X108.94Y-39.215G85X108.94Y-38.515
G05
X108.94Y-83.665G85X108.94Y-82.965
G05
X108.94Y-128.115G85X108.94Y-127.415
G05
X108.94Y-172.565G85X108.94Y-171.865
G05
T0
M30
