G04 #@! TF.GenerationSoftware,KiCad,Pcbnew,6.0.5+dfsg-1~bpo11+1*
G04 #@! TF.CreationDate,2022-07-21T18:59:06+00:00*
G04 #@! TF.ProjectId,sample_and_hold_board,73616d70-6c65-45f6-916e-645f686f6c64,0*
G04 #@! TF.SameCoordinates,Original*
G04 #@! TF.FileFunction,Paste,Bot*
G04 #@! TF.FilePolarity,Positive*
%FSLAX46Y46*%
G04 Gerber Fmt 4.6, Leading zero omitted, Abs format (unit mm)*
G04 Created by KiCad (PCBNEW 6.0.5+dfsg-1~bpo11+1) date 2022-07-21 18:59:06*
%MOMM*%
%LPD*%
G01*
G04 APERTURE LIST*
%ADD10R,0.900000X1.200000*%
G04 APERTURE END LIST*
G36*
G01*
X114201000Y-107764000D02*
X114201000Y-108664000D01*
G75*
G02*
X113951000Y-108914000I-250000J0D01*
G01*
X113426000Y-108914000D01*
G75*
G02*
X113176000Y-108664000I0J250000D01*
G01*
X113176000Y-107764000D01*
G75*
G02*
X113426000Y-107514000I250000J0D01*
G01*
X113951000Y-107514000D01*
G75*
G02*
X114201000Y-107764000I0J-250000D01*
G01*
G37*
G36*
G01*
X112376000Y-107764000D02*
X112376000Y-108664000D01*
G75*
G02*
X112126000Y-108914000I-250000J0D01*
G01*
X111601000Y-108914000D01*
G75*
G02*
X111351000Y-108664000I0J250000D01*
G01*
X111351000Y-107764000D01*
G75*
G02*
X111601000Y-107514000I250000J0D01*
G01*
X112126000Y-107514000D01*
G75*
G02*
X112376000Y-107764000I0J-250000D01*
G01*
G37*
G36*
G01*
X110589000Y-144859000D02*
X110589000Y-143959000D01*
G75*
G02*
X110839000Y-143709000I250000J0D01*
G01*
X111364000Y-143709000D01*
G75*
G02*
X111614000Y-143959000I0J-250000D01*
G01*
X111614000Y-144859000D01*
G75*
G02*
X111364000Y-145109000I-250000J0D01*
G01*
X110839000Y-145109000D01*
G75*
G02*
X110589000Y-144859000I0J250000D01*
G01*
G37*
G36*
G01*
X112414000Y-144859000D02*
X112414000Y-143959000D01*
G75*
G02*
X112664000Y-143709000I250000J0D01*
G01*
X113189000Y-143709000D01*
G75*
G02*
X113439000Y-143959000I0J-250000D01*
G01*
X113439000Y-144859000D01*
G75*
G02*
X113189000Y-145109000I-250000J0D01*
G01*
X112664000Y-145109000D01*
G75*
G02*
X112414000Y-144859000I0J250000D01*
G01*
G37*
G36*
G01*
X108590000Y-184010000D02*
X108590000Y-184310000D01*
G75*
G02*
X108440000Y-184460000I-150000J0D01*
G01*
X106840000Y-184460000D01*
G75*
G02*
X106690000Y-184310000I0J150000D01*
G01*
X106690000Y-184010000D01*
G75*
G02*
X106840000Y-183860000I150000J0D01*
G01*
X108440000Y-183860000D01*
G75*
G02*
X108590000Y-184010000I0J-150000D01*
G01*
G37*
G36*
G01*
X108590000Y-185280000D02*
X108590000Y-185580000D01*
G75*
G02*
X108440000Y-185730000I-150000J0D01*
G01*
X106840000Y-185730000D01*
G75*
G02*
X106690000Y-185580000I0J150000D01*
G01*
X106690000Y-185280000D01*
G75*
G02*
X106840000Y-185130000I150000J0D01*
G01*
X108440000Y-185130000D01*
G75*
G02*
X108590000Y-185280000I0J-150000D01*
G01*
G37*
G36*
G01*
X108590000Y-186550000D02*
X108590000Y-186850000D01*
G75*
G02*
X108440000Y-187000000I-150000J0D01*
G01*
X106840000Y-187000000D01*
G75*
G02*
X106690000Y-186850000I0J150000D01*
G01*
X106690000Y-186550000D01*
G75*
G02*
X106840000Y-186400000I150000J0D01*
G01*
X108440000Y-186400000D01*
G75*
G02*
X108590000Y-186550000I0J-150000D01*
G01*
G37*
G36*
G01*
X108590000Y-187820000D02*
X108590000Y-188120000D01*
G75*
G02*
X108440000Y-188270000I-150000J0D01*
G01*
X106840000Y-188270000D01*
G75*
G02*
X106690000Y-188120000I0J150000D01*
G01*
X106690000Y-187820000D01*
G75*
G02*
X106840000Y-187670000I150000J0D01*
G01*
X108440000Y-187670000D01*
G75*
G02*
X108590000Y-187820000I0J-150000D01*
G01*
G37*
G36*
G01*
X101590000Y-187820000D02*
X101590000Y-188120000D01*
G75*
G02*
X101440000Y-188270000I-150000J0D01*
G01*
X99840000Y-188270000D01*
G75*
G02*
X99690000Y-188120000I0J150000D01*
G01*
X99690000Y-187820000D01*
G75*
G02*
X99840000Y-187670000I150000J0D01*
G01*
X101440000Y-187670000D01*
G75*
G02*
X101590000Y-187820000I0J-150000D01*
G01*
G37*
G36*
G01*
X101590000Y-186550000D02*
X101590000Y-186850000D01*
G75*
G02*
X101440000Y-187000000I-150000J0D01*
G01*
X99840000Y-187000000D01*
G75*
G02*
X99690000Y-186850000I0J150000D01*
G01*
X99690000Y-186550000D01*
G75*
G02*
X99840000Y-186400000I150000J0D01*
G01*
X101440000Y-186400000D01*
G75*
G02*
X101590000Y-186550000I0J-150000D01*
G01*
G37*
G36*
G01*
X101590000Y-185280000D02*
X101590000Y-185580000D01*
G75*
G02*
X101440000Y-185730000I-150000J0D01*
G01*
X99840000Y-185730000D01*
G75*
G02*
X99690000Y-185580000I0J150000D01*
G01*
X99690000Y-185280000D01*
G75*
G02*
X99840000Y-185130000I150000J0D01*
G01*
X101440000Y-185130000D01*
G75*
G02*
X101590000Y-185280000I0J-150000D01*
G01*
G37*
G36*
G01*
X101590000Y-184010000D02*
X101590000Y-184310000D01*
G75*
G02*
X101440000Y-184460000I-150000J0D01*
G01*
X99840000Y-184460000D01*
G75*
G02*
X99690000Y-184310000I0J150000D01*
G01*
X99690000Y-184010000D01*
G75*
G02*
X99840000Y-183860000I150000J0D01*
G01*
X101440000Y-183860000D01*
G75*
G02*
X101590000Y-184010000I0J-150000D01*
G01*
G37*
G36*
G01*
X111351000Y-105108000D02*
X111351000Y-104208000D01*
G75*
G02*
X111601000Y-103958000I250000J0D01*
G01*
X112126000Y-103958000D01*
G75*
G02*
X112376000Y-104208000I0J-250000D01*
G01*
X112376000Y-105108000D01*
G75*
G02*
X112126000Y-105358000I-250000J0D01*
G01*
X111601000Y-105358000D01*
G75*
G02*
X111351000Y-105108000I0J250000D01*
G01*
G37*
G36*
G01*
X113176000Y-105108000D02*
X113176000Y-104208000D01*
G75*
G02*
X113426000Y-103958000I250000J0D01*
G01*
X113951000Y-103958000D01*
G75*
G02*
X114201000Y-104208000I0J-250000D01*
G01*
X114201000Y-105108000D01*
G75*
G02*
X113951000Y-105358000I-250000J0D01*
G01*
X113426000Y-105358000D01*
G75*
G02*
X113176000Y-105108000I0J250000D01*
G01*
G37*
G36*
G01*
X115059000Y-153129000D02*
X115059000Y-152829000D01*
G75*
G02*
X115209000Y-152679000I150000J0D01*
G01*
X116384000Y-152679000D01*
G75*
G02*
X116534000Y-152829000I0J-150000D01*
G01*
X116534000Y-153129000D01*
G75*
G02*
X116384000Y-153279000I-150000J0D01*
G01*
X115209000Y-153279000D01*
G75*
G02*
X115059000Y-153129000I0J150000D01*
G01*
G37*
G36*
G01*
X115059000Y-151229000D02*
X115059000Y-150929000D01*
G75*
G02*
X115209000Y-150779000I150000J0D01*
G01*
X116384000Y-150779000D01*
G75*
G02*
X116534000Y-150929000I0J-150000D01*
G01*
X116534000Y-151229000D01*
G75*
G02*
X116384000Y-151379000I-150000J0D01*
G01*
X115209000Y-151379000D01*
G75*
G02*
X115059000Y-151229000I0J150000D01*
G01*
G37*
G36*
G01*
X116934000Y-152179000D02*
X116934000Y-151879000D01*
G75*
G02*
X117084000Y-151729000I150000J0D01*
G01*
X118259000Y-151729000D01*
G75*
G02*
X118409000Y-151879000I0J-150000D01*
G01*
X118409000Y-152179000D01*
G75*
G02*
X118259000Y-152329000I-150000J0D01*
G01*
X117084000Y-152329000D01*
G75*
G02*
X116934000Y-152179000I0J150000D01*
G01*
G37*
G36*
G01*
X91285000Y-148415000D02*
X91285000Y-147515000D01*
G75*
G02*
X91535000Y-147265000I250000J0D01*
G01*
X92060000Y-147265000D01*
G75*
G02*
X92310000Y-147515000I0J-250000D01*
G01*
X92310000Y-148415000D01*
G75*
G02*
X92060000Y-148665000I-250000J0D01*
G01*
X91535000Y-148665000D01*
G75*
G02*
X91285000Y-148415000I0J250000D01*
G01*
G37*
G36*
G01*
X93110000Y-148415000D02*
X93110000Y-147515000D01*
G75*
G02*
X93360000Y-147265000I250000J0D01*
G01*
X93885000Y-147265000D01*
G75*
G02*
X94135000Y-147515000I0J-250000D01*
G01*
X94135000Y-148415000D01*
G75*
G02*
X93885000Y-148665000I-250000J0D01*
G01*
X93360000Y-148665000D01*
G75*
G02*
X93110000Y-148415000I0J250000D01*
G01*
G37*
G36*
G01*
X111326000Y-101577000D02*
X111326000Y-100627000D01*
G75*
G02*
X111576000Y-100377000I250000J0D01*
G01*
X112076000Y-100377000D01*
G75*
G02*
X112326000Y-100627000I0J-250000D01*
G01*
X112326000Y-101577000D01*
G75*
G02*
X112076000Y-101827000I-250000J0D01*
G01*
X111576000Y-101827000D01*
G75*
G02*
X111326000Y-101577000I0J250000D01*
G01*
G37*
G36*
G01*
X113226000Y-101577000D02*
X113226000Y-100627000D01*
G75*
G02*
X113476000Y-100377000I250000J0D01*
G01*
X113976000Y-100377000D01*
G75*
G02*
X114226000Y-100627000I0J-250000D01*
G01*
X114226000Y-101577000D01*
G75*
G02*
X113976000Y-101827000I-250000J0D01*
G01*
X113476000Y-101827000D01*
G75*
G02*
X113226000Y-101577000I0J250000D01*
G01*
G37*
G36*
G01*
X96675000Y-74363000D02*
X96675000Y-75263000D01*
G75*
G02*
X96425000Y-75513000I-250000J0D01*
G01*
X95900000Y-75513000D01*
G75*
G02*
X95650000Y-75263000I0J250000D01*
G01*
X95650000Y-74363000D01*
G75*
G02*
X95900000Y-74113000I250000J0D01*
G01*
X96425000Y-74113000D01*
G75*
G02*
X96675000Y-74363000I0J-250000D01*
G01*
G37*
G36*
G01*
X94850000Y-74363000D02*
X94850000Y-75263000D01*
G75*
G02*
X94600000Y-75513000I-250000J0D01*
G01*
X94075000Y-75513000D01*
G75*
G02*
X93825000Y-75263000I0J250000D01*
G01*
X93825000Y-74363000D01*
G75*
G02*
X94075000Y-74113000I250000J0D01*
G01*
X94600000Y-74113000D01*
G75*
G02*
X94850000Y-74363000I0J-250000D01*
G01*
G37*
G36*
G01*
X98707000Y-159961000D02*
X98707000Y-160861000D01*
G75*
G02*
X98457000Y-161111000I-250000J0D01*
G01*
X97932000Y-161111000D01*
G75*
G02*
X97682000Y-160861000I0J250000D01*
G01*
X97682000Y-159961000D01*
G75*
G02*
X97932000Y-159711000I250000J0D01*
G01*
X98457000Y-159711000D01*
G75*
G02*
X98707000Y-159961000I0J-250000D01*
G01*
G37*
G36*
G01*
X96882000Y-159961000D02*
X96882000Y-160861000D01*
G75*
G02*
X96632000Y-161111000I-250000J0D01*
G01*
X96107000Y-161111000D01*
G75*
G02*
X95857000Y-160861000I0J250000D01*
G01*
X95857000Y-159961000D01*
G75*
G02*
X96107000Y-159711000I250000J0D01*
G01*
X96632000Y-159711000D01*
G75*
G02*
X96882000Y-159961000I0J-250000D01*
G01*
G37*
G36*
G01*
X96700000Y-102151000D02*
X96700000Y-103101000D01*
G75*
G02*
X96450000Y-103351000I-250000J0D01*
G01*
X95950000Y-103351000D01*
G75*
G02*
X95700000Y-103101000I0J250000D01*
G01*
X95700000Y-102151000D01*
G75*
G02*
X95950000Y-101901000I250000J0D01*
G01*
X96450000Y-101901000D01*
G75*
G02*
X96700000Y-102151000I0J-250000D01*
G01*
G37*
G36*
G01*
X94800000Y-102151000D02*
X94800000Y-103101000D01*
G75*
G02*
X94550000Y-103351000I-250000J0D01*
G01*
X94050000Y-103351000D01*
G75*
G02*
X93800000Y-103101000I0J250000D01*
G01*
X93800000Y-102151000D01*
G75*
G02*
X94050000Y-101901000I250000J0D01*
G01*
X94550000Y-101901000D01*
G75*
G02*
X94800000Y-102151000I0J-250000D01*
G01*
G37*
G36*
G01*
X96675000Y-66489000D02*
X96675000Y-67389000D01*
G75*
G02*
X96425000Y-67639000I-250000J0D01*
G01*
X95900000Y-67639000D01*
G75*
G02*
X95650000Y-67389000I0J250000D01*
G01*
X95650000Y-66489000D01*
G75*
G02*
X95900000Y-66239000I250000J0D01*
G01*
X96425000Y-66239000D01*
G75*
G02*
X96675000Y-66489000I0J-250000D01*
G01*
G37*
G36*
G01*
X94850000Y-66489000D02*
X94850000Y-67389000D01*
G75*
G02*
X94600000Y-67639000I-250000J0D01*
G01*
X94075000Y-67639000D01*
G75*
G02*
X93825000Y-67389000I0J250000D01*
G01*
X93825000Y-66489000D01*
G75*
G02*
X94075000Y-66239000I250000J0D01*
G01*
X94600000Y-66239000D01*
G75*
G02*
X94850000Y-66489000I0J-250000D01*
G01*
G37*
G36*
G01*
X108590000Y-71742000D02*
X108590000Y-72042000D01*
G75*
G02*
X108440000Y-72192000I-150000J0D01*
G01*
X106840000Y-72192000D01*
G75*
G02*
X106690000Y-72042000I0J150000D01*
G01*
X106690000Y-71742000D01*
G75*
G02*
X106840000Y-71592000I150000J0D01*
G01*
X108440000Y-71592000D01*
G75*
G02*
X108590000Y-71742000I0J-150000D01*
G01*
G37*
G36*
G01*
X108590000Y-73012000D02*
X108590000Y-73312000D01*
G75*
G02*
X108440000Y-73462000I-150000J0D01*
G01*
X106840000Y-73462000D01*
G75*
G02*
X106690000Y-73312000I0J150000D01*
G01*
X106690000Y-73012000D01*
G75*
G02*
X106840000Y-72862000I150000J0D01*
G01*
X108440000Y-72862000D01*
G75*
G02*
X108590000Y-73012000I0J-150000D01*
G01*
G37*
G36*
G01*
X108590000Y-74282000D02*
X108590000Y-74582000D01*
G75*
G02*
X108440000Y-74732000I-150000J0D01*
G01*
X106840000Y-74732000D01*
G75*
G02*
X106690000Y-74582000I0J150000D01*
G01*
X106690000Y-74282000D01*
G75*
G02*
X106840000Y-74132000I150000J0D01*
G01*
X108440000Y-74132000D01*
G75*
G02*
X108590000Y-74282000I0J-150000D01*
G01*
G37*
G36*
G01*
X108590000Y-75552000D02*
X108590000Y-75852000D01*
G75*
G02*
X108440000Y-76002000I-150000J0D01*
G01*
X106840000Y-76002000D01*
G75*
G02*
X106690000Y-75852000I0J150000D01*
G01*
X106690000Y-75552000D01*
G75*
G02*
X106840000Y-75402000I150000J0D01*
G01*
X108440000Y-75402000D01*
G75*
G02*
X108590000Y-75552000I0J-150000D01*
G01*
G37*
G36*
G01*
X101590000Y-75552000D02*
X101590000Y-75852000D01*
G75*
G02*
X101440000Y-76002000I-150000J0D01*
G01*
X99840000Y-76002000D01*
G75*
G02*
X99690000Y-75852000I0J150000D01*
G01*
X99690000Y-75552000D01*
G75*
G02*
X99840000Y-75402000I150000J0D01*
G01*
X101440000Y-75402000D01*
G75*
G02*
X101590000Y-75552000I0J-150000D01*
G01*
G37*
G36*
G01*
X101590000Y-74282000D02*
X101590000Y-74582000D01*
G75*
G02*
X101440000Y-74732000I-150000J0D01*
G01*
X99840000Y-74732000D01*
G75*
G02*
X99690000Y-74582000I0J150000D01*
G01*
X99690000Y-74282000D01*
G75*
G02*
X99840000Y-74132000I150000J0D01*
G01*
X101440000Y-74132000D01*
G75*
G02*
X101590000Y-74282000I0J-150000D01*
G01*
G37*
G36*
G01*
X101590000Y-73012000D02*
X101590000Y-73312000D01*
G75*
G02*
X101440000Y-73462000I-150000J0D01*
G01*
X99840000Y-73462000D01*
G75*
G02*
X99690000Y-73312000I0J150000D01*
G01*
X99690000Y-73012000D01*
G75*
G02*
X99840000Y-72862000I150000J0D01*
G01*
X101440000Y-72862000D01*
G75*
G02*
X101590000Y-73012000I0J-150000D01*
G01*
G37*
G36*
G01*
X101590000Y-71742000D02*
X101590000Y-72042000D01*
G75*
G02*
X101440000Y-72192000I-150000J0D01*
G01*
X99840000Y-72192000D01*
G75*
G02*
X99690000Y-72042000I0J150000D01*
G01*
X99690000Y-71742000D01*
G75*
G02*
X99840000Y-71592000I150000J0D01*
G01*
X101440000Y-71592000D01*
G75*
G02*
X101590000Y-71742000I0J-150000D01*
G01*
G37*
G36*
G01*
X108590000Y-102095000D02*
X108590000Y-102395000D01*
G75*
G02*
X108440000Y-102545000I-150000J0D01*
G01*
X106840000Y-102545000D01*
G75*
G02*
X106690000Y-102395000I0J150000D01*
G01*
X106690000Y-102095000D01*
G75*
G02*
X106840000Y-101945000I150000J0D01*
G01*
X108440000Y-101945000D01*
G75*
G02*
X108590000Y-102095000I0J-150000D01*
G01*
G37*
G36*
G01*
X108590000Y-103365000D02*
X108590000Y-103665000D01*
G75*
G02*
X108440000Y-103815000I-150000J0D01*
G01*
X106840000Y-103815000D01*
G75*
G02*
X106690000Y-103665000I0J150000D01*
G01*
X106690000Y-103365000D01*
G75*
G02*
X106840000Y-103215000I150000J0D01*
G01*
X108440000Y-103215000D01*
G75*
G02*
X108590000Y-103365000I0J-150000D01*
G01*
G37*
G36*
G01*
X108590000Y-104635000D02*
X108590000Y-104935000D01*
G75*
G02*
X108440000Y-105085000I-150000J0D01*
G01*
X106840000Y-105085000D01*
G75*
G02*
X106690000Y-104935000I0J150000D01*
G01*
X106690000Y-104635000D01*
G75*
G02*
X106840000Y-104485000I150000J0D01*
G01*
X108440000Y-104485000D01*
G75*
G02*
X108590000Y-104635000I0J-150000D01*
G01*
G37*
G36*
G01*
X108590000Y-105905000D02*
X108590000Y-106205000D01*
G75*
G02*
X108440000Y-106355000I-150000J0D01*
G01*
X106840000Y-106355000D01*
G75*
G02*
X106690000Y-106205000I0J150000D01*
G01*
X106690000Y-105905000D01*
G75*
G02*
X106840000Y-105755000I150000J0D01*
G01*
X108440000Y-105755000D01*
G75*
G02*
X108590000Y-105905000I0J-150000D01*
G01*
G37*
G36*
G01*
X101590000Y-105905000D02*
X101590000Y-106205000D01*
G75*
G02*
X101440000Y-106355000I-150000J0D01*
G01*
X99840000Y-106355000D01*
G75*
G02*
X99690000Y-106205000I0J150000D01*
G01*
X99690000Y-105905000D01*
G75*
G02*
X99840000Y-105755000I150000J0D01*
G01*
X101440000Y-105755000D01*
G75*
G02*
X101590000Y-105905000I0J-150000D01*
G01*
G37*
G36*
G01*
X101590000Y-104635000D02*
X101590000Y-104935000D01*
G75*
G02*
X101440000Y-105085000I-150000J0D01*
G01*
X99840000Y-105085000D01*
G75*
G02*
X99690000Y-104935000I0J150000D01*
G01*
X99690000Y-104635000D01*
G75*
G02*
X99840000Y-104485000I150000J0D01*
G01*
X101440000Y-104485000D01*
G75*
G02*
X101590000Y-104635000I0J-150000D01*
G01*
G37*
G36*
G01*
X101590000Y-103365000D02*
X101590000Y-103665000D01*
G75*
G02*
X101440000Y-103815000I-150000J0D01*
G01*
X99840000Y-103815000D01*
G75*
G02*
X99690000Y-103665000I0J150000D01*
G01*
X99690000Y-103365000D01*
G75*
G02*
X99840000Y-103215000I150000J0D01*
G01*
X101440000Y-103215000D01*
G75*
G02*
X101590000Y-103365000I0J-150000D01*
G01*
G37*
G36*
G01*
X101590000Y-102095000D02*
X101590000Y-102395000D01*
G75*
G02*
X101440000Y-102545000I-150000J0D01*
G01*
X99840000Y-102545000D01*
G75*
G02*
X99690000Y-102395000I0J150000D01*
G01*
X99690000Y-102095000D01*
G75*
G02*
X99840000Y-101945000I150000J0D01*
G01*
X101440000Y-101945000D01*
G75*
G02*
X101590000Y-102095000I0J-150000D01*
G01*
G37*
G36*
G01*
X114201000Y-114876000D02*
X114201000Y-115776000D01*
G75*
G02*
X113951000Y-116026000I-250000J0D01*
G01*
X113426000Y-116026000D01*
G75*
G02*
X113176000Y-115776000I0J250000D01*
G01*
X113176000Y-114876000D01*
G75*
G02*
X113426000Y-114626000I250000J0D01*
G01*
X113951000Y-114626000D01*
G75*
G02*
X114201000Y-114876000I0J-250000D01*
G01*
G37*
G36*
G01*
X112376000Y-114876000D02*
X112376000Y-115776000D01*
G75*
G02*
X112126000Y-116026000I-250000J0D01*
G01*
X111601000Y-116026000D01*
G75*
G02*
X111351000Y-115776000I0J250000D01*
G01*
X111351000Y-114876000D01*
G75*
G02*
X111601000Y-114626000I250000J0D01*
G01*
X112126000Y-114626000D01*
G75*
G02*
X112376000Y-114876000I0J-250000D01*
G01*
G37*
G36*
G01*
X113439000Y-147515000D02*
X113439000Y-148415000D01*
G75*
G02*
X113189000Y-148665000I-250000J0D01*
G01*
X112664000Y-148665000D01*
G75*
G02*
X112414000Y-148415000I0J250000D01*
G01*
X112414000Y-147515000D01*
G75*
G02*
X112664000Y-147265000I250000J0D01*
G01*
X113189000Y-147265000D01*
G75*
G02*
X113439000Y-147515000I0J-250000D01*
G01*
G37*
G36*
G01*
X111614000Y-147515000D02*
X111614000Y-148415000D01*
G75*
G02*
X111364000Y-148665000I-250000J0D01*
G01*
X110839000Y-148665000D01*
G75*
G02*
X110589000Y-148415000I0J250000D01*
G01*
X110589000Y-147515000D01*
G75*
G02*
X110839000Y-147265000I250000J0D01*
G01*
X111364000Y-147265000D01*
G75*
G02*
X111614000Y-147515000I0J-250000D01*
G01*
G37*
G36*
G01*
X95832000Y-148440000D02*
X95832000Y-147490000D01*
G75*
G02*
X96082000Y-147240000I250000J0D01*
G01*
X96582000Y-147240000D01*
G75*
G02*
X96832000Y-147490000I0J-250000D01*
G01*
X96832000Y-148440000D01*
G75*
G02*
X96582000Y-148690000I-250000J0D01*
G01*
X96082000Y-148690000D01*
G75*
G02*
X95832000Y-148440000I0J250000D01*
G01*
G37*
G36*
G01*
X97732000Y-148440000D02*
X97732000Y-147490000D01*
G75*
G02*
X97982000Y-147240000I250000J0D01*
G01*
X98482000Y-147240000D01*
G75*
G02*
X98732000Y-147490000I0J-250000D01*
G01*
X98732000Y-148440000D01*
G75*
G02*
X98482000Y-148690000I-250000J0D01*
G01*
X97982000Y-148690000D01*
G75*
G02*
X97732000Y-148440000I0J250000D01*
G01*
G37*
G36*
G01*
X111326000Y-181460000D02*
X111326000Y-180510000D01*
G75*
G02*
X111576000Y-180260000I250000J0D01*
G01*
X112076000Y-180260000D01*
G75*
G02*
X112326000Y-180510000I0J-250000D01*
G01*
X112326000Y-181460000D01*
G75*
G02*
X112076000Y-181710000I-250000J0D01*
G01*
X111576000Y-181710000D01*
G75*
G02*
X111326000Y-181460000I0J250000D01*
G01*
G37*
G36*
G01*
X113226000Y-181460000D02*
X113226000Y-180510000D01*
G75*
G02*
X113476000Y-180260000I250000J0D01*
G01*
X113976000Y-180260000D01*
G75*
G02*
X114226000Y-180510000I0J-250000D01*
G01*
X114226000Y-181460000D01*
G75*
G02*
X113976000Y-181710000I-250000J0D01*
G01*
X113476000Y-181710000D01*
G75*
G02*
X113226000Y-181460000I0J250000D01*
G01*
G37*
G36*
G01*
X107495000Y-109898000D02*
X107495000Y-110848000D01*
G75*
G02*
X107245000Y-111098000I-250000J0D01*
G01*
X106745000Y-111098000D01*
G75*
G02*
X106495000Y-110848000I0J250000D01*
G01*
X106495000Y-109898000D01*
G75*
G02*
X106745000Y-109648000I250000J0D01*
G01*
X107245000Y-109648000D01*
G75*
G02*
X107495000Y-109898000I0J-250000D01*
G01*
G37*
G36*
G01*
X105595000Y-109898000D02*
X105595000Y-110848000D01*
G75*
G02*
X105345000Y-111098000I-250000J0D01*
G01*
X104845000Y-111098000D01*
G75*
G02*
X104595000Y-110848000I0J250000D01*
G01*
X104595000Y-109898000D01*
G75*
G02*
X104845000Y-109648000I250000J0D01*
G01*
X105345000Y-109648000D01*
G75*
G02*
X105595000Y-109898000I0J-250000D01*
G01*
G37*
G36*
G01*
X93825000Y-79073000D02*
X93825000Y-78173000D01*
G75*
G02*
X94075000Y-77923000I250000J0D01*
G01*
X94600000Y-77923000D01*
G75*
G02*
X94850000Y-78173000I0J-250000D01*
G01*
X94850000Y-79073000D01*
G75*
G02*
X94600000Y-79323000I-250000J0D01*
G01*
X94075000Y-79323000D01*
G75*
G02*
X93825000Y-79073000I0J250000D01*
G01*
G37*
G36*
G01*
X95650000Y-79073000D02*
X95650000Y-78173000D01*
G75*
G02*
X95900000Y-77923000I250000J0D01*
G01*
X96425000Y-77923000D01*
G75*
G02*
X96675000Y-78173000I0J-250000D01*
G01*
X96675000Y-79073000D01*
G75*
G02*
X96425000Y-79323000I-250000J0D01*
G01*
X95900000Y-79323000D01*
G75*
G02*
X95650000Y-79073000I0J250000D01*
G01*
G37*
G36*
G01*
X91285000Y-152479000D02*
X91285000Y-151579000D01*
G75*
G02*
X91535000Y-151329000I250000J0D01*
G01*
X92060000Y-151329000D01*
G75*
G02*
X92310000Y-151579000I0J-250000D01*
G01*
X92310000Y-152479000D01*
G75*
G02*
X92060000Y-152729000I-250000J0D01*
G01*
X91535000Y-152729000D01*
G75*
G02*
X91285000Y-152479000I0J250000D01*
G01*
G37*
G36*
G01*
X93110000Y-152479000D02*
X93110000Y-151579000D01*
G75*
G02*
X93360000Y-151329000I250000J0D01*
G01*
X93885000Y-151329000D01*
G75*
G02*
X94135000Y-151579000I0J-250000D01*
G01*
X94135000Y-152479000D01*
G75*
G02*
X93885000Y-152729000I-250000J0D01*
G01*
X93360000Y-152729000D01*
G75*
G02*
X93110000Y-152479000I0J250000D01*
G01*
G37*
G36*
G01*
X103685000Y-109898000D02*
X103685000Y-110848000D01*
G75*
G02*
X103435000Y-111098000I-250000J0D01*
G01*
X102935000Y-111098000D01*
G75*
G02*
X102685000Y-110848000I0J250000D01*
G01*
X102685000Y-109898000D01*
G75*
G02*
X102935000Y-109648000I250000J0D01*
G01*
X103435000Y-109648000D01*
G75*
G02*
X103685000Y-109898000I0J-250000D01*
G01*
G37*
G36*
G01*
X101785000Y-109898000D02*
X101785000Y-110848000D01*
G75*
G02*
X101535000Y-111098000I-250000J0D01*
G01*
X101035000Y-111098000D01*
G75*
G02*
X100785000Y-110848000I0J250000D01*
G01*
X100785000Y-109898000D01*
G75*
G02*
X101035000Y-109648000I250000J0D01*
G01*
X101535000Y-109648000D01*
G75*
G02*
X101785000Y-109898000I0J-250000D01*
G01*
G37*
G36*
G01*
X95832000Y-144630000D02*
X95832000Y-143680000D01*
G75*
G02*
X96082000Y-143430000I250000J0D01*
G01*
X96582000Y-143430000D01*
G75*
G02*
X96832000Y-143680000I0J-250000D01*
G01*
X96832000Y-144630000D01*
G75*
G02*
X96582000Y-144880000I-250000J0D01*
G01*
X96082000Y-144880000D01*
G75*
G02*
X95832000Y-144630000I0J250000D01*
G01*
G37*
G36*
G01*
X97732000Y-144630000D02*
X97732000Y-143680000D01*
G75*
G02*
X97982000Y-143430000I250000J0D01*
G01*
X98482000Y-143430000D01*
G75*
G02*
X98732000Y-143680000I0J-250000D01*
G01*
X98732000Y-144630000D01*
G75*
G02*
X98482000Y-144880000I-250000J0D01*
G01*
X97982000Y-144880000D01*
G75*
G02*
X97732000Y-144630000I0J250000D01*
G01*
G37*
G36*
G01*
X96675000Y-105351000D02*
X96675000Y-106251000D01*
G75*
G02*
X96425000Y-106501000I-250000J0D01*
G01*
X95900000Y-106501000D01*
G75*
G02*
X95650000Y-106251000I0J250000D01*
G01*
X95650000Y-105351000D01*
G75*
G02*
X95900000Y-105101000I250000J0D01*
G01*
X96425000Y-105101000D01*
G75*
G02*
X96675000Y-105351000I0J-250000D01*
G01*
G37*
G36*
G01*
X94850000Y-105351000D02*
X94850000Y-106251000D01*
G75*
G02*
X94600000Y-106501000I-250000J0D01*
G01*
X94075000Y-106501000D01*
G75*
G02*
X93825000Y-106251000I0J250000D01*
G01*
X93825000Y-105351000D01*
G75*
G02*
X94075000Y-105101000I250000J0D01*
G01*
X94600000Y-105101000D01*
G75*
G02*
X94850000Y-105351000I0J-250000D01*
G01*
G37*
G36*
G01*
X107495000Y-191940000D02*
X107495000Y-192890000D01*
G75*
G02*
X107245000Y-193140000I-250000J0D01*
G01*
X106745000Y-193140000D01*
G75*
G02*
X106495000Y-192890000I0J250000D01*
G01*
X106495000Y-191940000D01*
G75*
G02*
X106745000Y-191690000I250000J0D01*
G01*
X107245000Y-191690000D01*
G75*
G02*
X107495000Y-191940000I0J-250000D01*
G01*
G37*
G36*
G01*
X105595000Y-191940000D02*
X105595000Y-192890000D01*
G75*
G02*
X105345000Y-193140000I-250000J0D01*
G01*
X104845000Y-193140000D01*
G75*
G02*
X104595000Y-192890000I0J250000D01*
G01*
X104595000Y-191940000D01*
G75*
G02*
X104845000Y-191690000I250000J0D01*
G01*
X105345000Y-191690000D01*
G75*
G02*
X105595000Y-191940000I0J-250000D01*
G01*
G37*
G36*
G01*
X91285000Y-156035000D02*
X91285000Y-155135000D01*
G75*
G02*
X91535000Y-154885000I250000J0D01*
G01*
X92060000Y-154885000D01*
G75*
G02*
X92310000Y-155135000I0J-250000D01*
G01*
X92310000Y-156035000D01*
G75*
G02*
X92060000Y-156285000I-250000J0D01*
G01*
X91535000Y-156285000D01*
G75*
G02*
X91285000Y-156035000I0J250000D01*
G01*
G37*
G36*
G01*
X93110000Y-156035000D02*
X93110000Y-155135000D01*
G75*
G02*
X93360000Y-154885000I250000J0D01*
G01*
X93885000Y-154885000D01*
G75*
G02*
X94135000Y-155135000I0J-250000D01*
G01*
X94135000Y-156035000D01*
G75*
G02*
X93885000Y-156285000I-250000J0D01*
G01*
X93360000Y-156285000D01*
G75*
G02*
X93110000Y-156035000I0J250000D01*
G01*
G37*
G36*
G01*
X115669000Y-144859000D02*
X115669000Y-143959000D01*
G75*
G02*
X115919000Y-143709000I250000J0D01*
G01*
X116444000Y-143709000D01*
G75*
G02*
X116694000Y-143959000I0J-250000D01*
G01*
X116694000Y-144859000D01*
G75*
G02*
X116444000Y-145109000I-250000J0D01*
G01*
X115919000Y-145109000D01*
G75*
G02*
X115669000Y-144859000I0J250000D01*
G01*
G37*
G36*
G01*
X117494000Y-144859000D02*
X117494000Y-143959000D01*
G75*
G02*
X117744000Y-143709000I250000J0D01*
G01*
X118269000Y-143709000D01*
G75*
G02*
X118519000Y-143959000I0J-250000D01*
G01*
X118519000Y-144859000D01*
G75*
G02*
X118269000Y-145109000I-250000J0D01*
G01*
X117744000Y-145109000D01*
G75*
G02*
X117494000Y-144859000I0J250000D01*
G01*
G37*
G36*
G01*
X98707000Y-155135000D02*
X98707000Y-156035000D01*
G75*
G02*
X98457000Y-156285000I-250000J0D01*
G01*
X97932000Y-156285000D01*
G75*
G02*
X97682000Y-156035000I0J250000D01*
G01*
X97682000Y-155135000D01*
G75*
G02*
X97932000Y-154885000I250000J0D01*
G01*
X98457000Y-154885000D01*
G75*
G02*
X98707000Y-155135000I0J-250000D01*
G01*
G37*
G36*
G01*
X96882000Y-155135000D02*
X96882000Y-156035000D01*
G75*
G02*
X96632000Y-156285000I-250000J0D01*
G01*
X96107000Y-156285000D01*
G75*
G02*
X95857000Y-156035000I0J250000D01*
G01*
X95857000Y-155135000D01*
G75*
G02*
X96107000Y-154885000I250000J0D01*
G01*
X96632000Y-154885000D01*
G75*
G02*
X96882000Y-155135000I0J-250000D01*
G01*
G37*
G36*
G01*
X91285000Y-144605000D02*
X91285000Y-143705000D01*
G75*
G02*
X91535000Y-143455000I250000J0D01*
G01*
X92060000Y-143455000D01*
G75*
G02*
X92310000Y-143705000I0J-250000D01*
G01*
X92310000Y-144605000D01*
G75*
G02*
X92060000Y-144855000I-250000J0D01*
G01*
X91535000Y-144855000D01*
G75*
G02*
X91285000Y-144605000I0J250000D01*
G01*
G37*
G36*
G01*
X93110000Y-144605000D02*
X93110000Y-143705000D01*
G75*
G02*
X93360000Y-143455000I250000J0D01*
G01*
X93885000Y-143455000D01*
G75*
G02*
X94135000Y-143705000I0J-250000D01*
G01*
X94135000Y-144605000D01*
G75*
G02*
X93885000Y-144855000I-250000J0D01*
G01*
X93360000Y-144855000D01*
G75*
G02*
X93110000Y-144605000I0J250000D01*
G01*
G37*
G36*
G01*
X93825000Y-188801000D02*
X93825000Y-187901000D01*
G75*
G02*
X94075000Y-187651000I250000J0D01*
G01*
X94600000Y-187651000D01*
G75*
G02*
X94850000Y-187901000I0J-250000D01*
G01*
X94850000Y-188801000D01*
G75*
G02*
X94600000Y-189051000I-250000J0D01*
G01*
X94075000Y-189051000D01*
G75*
G02*
X93825000Y-188801000I0J250000D01*
G01*
G37*
G36*
G01*
X95650000Y-188801000D02*
X95650000Y-187901000D01*
G75*
G02*
X95900000Y-187651000I250000J0D01*
G01*
X96425000Y-187651000D01*
G75*
G02*
X96675000Y-187901000I0J-250000D01*
G01*
X96675000Y-188801000D01*
G75*
G02*
X96425000Y-189051000I-250000J0D01*
G01*
X95900000Y-189051000D01*
G75*
G02*
X95650000Y-188801000I0J250000D01*
G01*
G37*
G36*
G01*
X96675000Y-184345000D02*
X96675000Y-185245000D01*
G75*
G02*
X96425000Y-185495000I-250000J0D01*
G01*
X95900000Y-185495000D01*
G75*
G02*
X95650000Y-185245000I0J250000D01*
G01*
X95650000Y-184345000D01*
G75*
G02*
X95900000Y-184095000I250000J0D01*
G01*
X96425000Y-184095000D01*
G75*
G02*
X96675000Y-184345000I0J-250000D01*
G01*
G37*
G36*
G01*
X94850000Y-184345000D02*
X94850000Y-185245000D01*
G75*
G02*
X94600000Y-185495000I-250000J0D01*
G01*
X94075000Y-185495000D01*
G75*
G02*
X93825000Y-185245000I0J250000D01*
G01*
X93825000Y-184345000D01*
G75*
G02*
X94075000Y-184095000I250000J0D01*
G01*
X94600000Y-184095000D01*
G75*
G02*
X94850000Y-184345000I0J-250000D01*
G01*
G37*
G36*
G01*
X103685000Y-191940000D02*
X103685000Y-192890000D01*
G75*
G02*
X103435000Y-193140000I-250000J0D01*
G01*
X102935000Y-193140000D01*
G75*
G02*
X102685000Y-192890000I0J250000D01*
G01*
X102685000Y-191940000D01*
G75*
G02*
X102935000Y-191690000I250000J0D01*
G01*
X103435000Y-191690000D01*
G75*
G02*
X103685000Y-191940000I0J-250000D01*
G01*
G37*
G36*
G01*
X101785000Y-191940000D02*
X101785000Y-192890000D01*
G75*
G02*
X101535000Y-193140000I-250000J0D01*
G01*
X101035000Y-193140000D01*
G75*
G02*
X100785000Y-192890000I0J250000D01*
G01*
X100785000Y-191940000D01*
G75*
G02*
X101035000Y-191690000I250000J0D01*
G01*
X101535000Y-191690000D01*
G75*
G02*
X101785000Y-191940000I0J-250000D01*
G01*
G37*
G36*
G01*
X103685000Y-66845000D02*
X103685000Y-67795000D01*
G75*
G02*
X103435000Y-68045000I-250000J0D01*
G01*
X102935000Y-68045000D01*
G75*
G02*
X102685000Y-67795000I0J250000D01*
G01*
X102685000Y-66845000D01*
G75*
G02*
X102935000Y-66595000I250000J0D01*
G01*
X103435000Y-66595000D01*
G75*
G02*
X103685000Y-66845000I0J-250000D01*
G01*
G37*
G36*
G01*
X101785000Y-66845000D02*
X101785000Y-67795000D01*
G75*
G02*
X101535000Y-68045000I-250000J0D01*
G01*
X101035000Y-68045000D01*
G75*
G02*
X100785000Y-67795000I0J250000D01*
G01*
X100785000Y-66845000D01*
G75*
G02*
X101035000Y-66595000I250000J0D01*
G01*
X101535000Y-66595000D01*
G75*
G02*
X101785000Y-66845000I0J-250000D01*
G01*
G37*
G36*
G01*
X91289000Y-161511000D02*
X91289000Y-161211000D01*
G75*
G02*
X91439000Y-161061000I150000J0D01*
G01*
X92614000Y-161061000D01*
G75*
G02*
X92764000Y-161211000I0J-150000D01*
G01*
X92764000Y-161511000D01*
G75*
G02*
X92614000Y-161661000I-150000J0D01*
G01*
X91439000Y-161661000D01*
G75*
G02*
X91289000Y-161511000I0J150000D01*
G01*
G37*
G36*
G01*
X91289000Y-159611000D02*
X91289000Y-159311000D01*
G75*
G02*
X91439000Y-159161000I150000J0D01*
G01*
X92614000Y-159161000D01*
G75*
G02*
X92764000Y-159311000I0J-150000D01*
G01*
X92764000Y-159611000D01*
G75*
G02*
X92614000Y-159761000I-150000J0D01*
G01*
X91439000Y-159761000D01*
G75*
G02*
X91289000Y-159611000I0J150000D01*
G01*
G37*
G36*
G01*
X93164000Y-160561000D02*
X93164000Y-160261000D01*
G75*
G02*
X93314000Y-160111000I150000J0D01*
G01*
X94489000Y-160111000D01*
G75*
G02*
X94639000Y-160261000I0J-150000D01*
G01*
X94639000Y-160561000D01*
G75*
G02*
X94489000Y-160711000I-150000J0D01*
G01*
X93314000Y-160711000D01*
G75*
G02*
X93164000Y-160561000I0J150000D01*
G01*
G37*
G36*
G01*
X111351000Y-57483000D02*
X111351000Y-56583000D01*
G75*
G02*
X111601000Y-56333000I250000J0D01*
G01*
X112126000Y-56333000D01*
G75*
G02*
X112376000Y-56583000I0J-250000D01*
G01*
X112376000Y-57483000D01*
G75*
G02*
X112126000Y-57733000I-250000J0D01*
G01*
X111601000Y-57733000D01*
G75*
G02*
X111351000Y-57483000I0J250000D01*
G01*
G37*
G36*
G01*
X113176000Y-57483000D02*
X113176000Y-56583000D01*
G75*
G02*
X113426000Y-56333000I250000J0D01*
G01*
X113951000Y-56333000D01*
G75*
G02*
X114201000Y-56583000I0J-250000D01*
G01*
X114201000Y-57483000D01*
G75*
G02*
X113951000Y-57733000I-250000J0D01*
G01*
X113426000Y-57733000D01*
G75*
G02*
X113176000Y-57483000I0J250000D01*
G01*
G37*
G36*
G01*
X118519000Y-147515000D02*
X118519000Y-148415000D01*
G75*
G02*
X118269000Y-148665000I-250000J0D01*
G01*
X117744000Y-148665000D01*
G75*
G02*
X117494000Y-148415000I0J250000D01*
G01*
X117494000Y-147515000D01*
G75*
G02*
X117744000Y-147265000I250000J0D01*
G01*
X118269000Y-147265000D01*
G75*
G02*
X118519000Y-147515000I0J-250000D01*
G01*
G37*
G36*
G01*
X116694000Y-147515000D02*
X116694000Y-148415000D01*
G75*
G02*
X116444000Y-148665000I-250000J0D01*
G01*
X115919000Y-148665000D01*
G75*
G02*
X115669000Y-148415000I0J250000D01*
G01*
X115669000Y-147515000D01*
G75*
G02*
X115919000Y-147265000I250000J0D01*
G01*
X116444000Y-147265000D01*
G75*
G02*
X116694000Y-147515000I0J-250000D01*
G01*
G37*
G36*
G01*
X96675000Y-81983000D02*
X96675000Y-82883000D01*
G75*
G02*
X96425000Y-83133000I-250000J0D01*
G01*
X95900000Y-83133000D01*
G75*
G02*
X95650000Y-82883000I0J250000D01*
G01*
X95650000Y-81983000D01*
G75*
G02*
X95900000Y-81733000I250000J0D01*
G01*
X96425000Y-81733000D01*
G75*
G02*
X96675000Y-81983000I0J-250000D01*
G01*
G37*
G36*
G01*
X94850000Y-81983000D02*
X94850000Y-82883000D01*
G75*
G02*
X94600000Y-83133000I-250000J0D01*
G01*
X94075000Y-83133000D01*
G75*
G02*
X93825000Y-82883000I0J250000D01*
G01*
X93825000Y-81983000D01*
G75*
G02*
X94075000Y-81733000I250000J0D01*
G01*
X94600000Y-81733000D01*
G75*
G02*
X94850000Y-81983000I0J-250000D01*
G01*
G37*
G36*
G01*
X96700000Y-62654000D02*
X96700000Y-63604000D01*
G75*
G02*
X96450000Y-63854000I-250000J0D01*
G01*
X95950000Y-63854000D01*
G75*
G02*
X95700000Y-63604000I0J250000D01*
G01*
X95700000Y-62654000D01*
G75*
G02*
X95950000Y-62404000I250000J0D01*
G01*
X96450000Y-62404000D01*
G75*
G02*
X96700000Y-62654000I0J-250000D01*
G01*
G37*
G36*
G01*
X94800000Y-62654000D02*
X94800000Y-63604000D01*
G75*
G02*
X94550000Y-63854000I-250000J0D01*
G01*
X94050000Y-63854000D01*
G75*
G02*
X93800000Y-63604000I0J250000D01*
G01*
X93800000Y-62654000D01*
G75*
G02*
X94050000Y-62404000I250000J0D01*
G01*
X94550000Y-62404000D01*
G75*
G02*
X94800000Y-62654000I0J-250000D01*
G01*
G37*
G36*
G01*
X96675000Y-85793000D02*
X96675000Y-86693000D01*
G75*
G02*
X96425000Y-86943000I-250000J0D01*
G01*
X95900000Y-86943000D01*
G75*
G02*
X95650000Y-86693000I0J250000D01*
G01*
X95650000Y-85793000D01*
G75*
G02*
X95900000Y-85543000I250000J0D01*
G01*
X96425000Y-85543000D01*
G75*
G02*
X96675000Y-85793000I0J-250000D01*
G01*
G37*
G36*
G01*
X94850000Y-85793000D02*
X94850000Y-86693000D01*
G75*
G02*
X94600000Y-86943000I-250000J0D01*
G01*
X94075000Y-86943000D01*
G75*
G02*
X93825000Y-86693000I0J250000D01*
G01*
X93825000Y-85793000D01*
G75*
G02*
X94075000Y-85543000I250000J0D01*
G01*
X94600000Y-85543000D01*
G75*
G02*
X94850000Y-85793000I0J-250000D01*
G01*
G37*
G36*
G01*
X93825000Y-109426000D02*
X93825000Y-108526000D01*
G75*
G02*
X94075000Y-108276000I250000J0D01*
G01*
X94600000Y-108276000D01*
G75*
G02*
X94850000Y-108526000I0J-250000D01*
G01*
X94850000Y-109426000D01*
G75*
G02*
X94600000Y-109676000I-250000J0D01*
G01*
X94075000Y-109676000D01*
G75*
G02*
X93825000Y-109426000I0J250000D01*
G01*
G37*
G36*
G01*
X95650000Y-109426000D02*
X95650000Y-108526000D01*
G75*
G02*
X95900000Y-108276000I250000J0D01*
G01*
X96425000Y-108276000D01*
G75*
G02*
X96675000Y-108526000I0J-250000D01*
G01*
X96675000Y-109426000D01*
G75*
G02*
X96425000Y-109676000I-250000J0D01*
G01*
X95900000Y-109676000D01*
G75*
G02*
X95650000Y-109426000I0J250000D01*
G01*
G37*
G36*
G01*
X103685000Y-79545000D02*
X103685000Y-80495000D01*
G75*
G02*
X103435000Y-80745000I-250000J0D01*
G01*
X102935000Y-80745000D01*
G75*
G02*
X102685000Y-80495000I0J250000D01*
G01*
X102685000Y-79545000D01*
G75*
G02*
X102935000Y-79295000I250000J0D01*
G01*
X103435000Y-79295000D01*
G75*
G02*
X103685000Y-79545000I0J-250000D01*
G01*
G37*
G36*
G01*
X101785000Y-79545000D02*
X101785000Y-80495000D01*
G75*
G02*
X101535000Y-80745000I-250000J0D01*
G01*
X101035000Y-80745000D01*
G75*
G02*
X100785000Y-80495000I0J250000D01*
G01*
X100785000Y-79545000D01*
G75*
G02*
X101035000Y-79295000I250000J0D01*
G01*
X101535000Y-79295000D01*
G75*
G02*
X101785000Y-79545000I0J-250000D01*
G01*
G37*
G36*
G01*
X107495000Y-79545000D02*
X107495000Y-80495000D01*
G75*
G02*
X107245000Y-80745000I-250000J0D01*
G01*
X106745000Y-80745000D01*
G75*
G02*
X106495000Y-80495000I0J250000D01*
G01*
X106495000Y-79545000D01*
G75*
G02*
X106745000Y-79295000I250000J0D01*
G01*
X107245000Y-79295000D01*
G75*
G02*
X107495000Y-79545000I0J-250000D01*
G01*
G37*
G36*
G01*
X105595000Y-79545000D02*
X105595000Y-80495000D01*
G75*
G02*
X105345000Y-80745000I-250000J0D01*
G01*
X104845000Y-80745000D01*
G75*
G02*
X104595000Y-80495000I0J250000D01*
G01*
X104595000Y-79545000D01*
G75*
G02*
X104845000Y-79295000I250000J0D01*
G01*
X105345000Y-79295000D01*
G75*
G02*
X105595000Y-79545000I0J-250000D01*
G01*
G37*
G36*
G01*
X93825000Y-59769000D02*
X93825000Y-58869000D01*
G75*
G02*
X94075000Y-58619000I250000J0D01*
G01*
X94600000Y-58619000D01*
G75*
G02*
X94850000Y-58869000I0J-250000D01*
G01*
X94850000Y-59769000D01*
G75*
G02*
X94600000Y-60019000I-250000J0D01*
G01*
X94075000Y-60019000D01*
G75*
G02*
X93825000Y-59769000I0J250000D01*
G01*
G37*
G36*
G01*
X95650000Y-59769000D02*
X95650000Y-58869000D01*
G75*
G02*
X95900000Y-58619000I250000J0D01*
G01*
X96425000Y-58619000D01*
G75*
G02*
X96675000Y-58869000I0J-250000D01*
G01*
X96675000Y-59769000D01*
G75*
G02*
X96425000Y-60019000I-250000J0D01*
G01*
X95900000Y-60019000D01*
G75*
G02*
X95650000Y-59769000I0J250000D01*
G01*
G37*
G36*
G01*
X95832000Y-152504000D02*
X95832000Y-151554000D01*
G75*
G02*
X96082000Y-151304000I250000J0D01*
G01*
X96582000Y-151304000D01*
G75*
G02*
X96832000Y-151554000I0J-250000D01*
G01*
X96832000Y-152504000D01*
G75*
G02*
X96582000Y-152754000I-250000J0D01*
G01*
X96082000Y-152754000D01*
G75*
G02*
X95832000Y-152504000I0J250000D01*
G01*
G37*
G36*
G01*
X97732000Y-152504000D02*
X97732000Y-151554000D01*
G75*
G02*
X97982000Y-151304000I250000J0D01*
G01*
X98482000Y-151304000D01*
G75*
G02*
X98732000Y-151554000I0J-250000D01*
G01*
X98732000Y-152504000D01*
G75*
G02*
X98482000Y-152754000I-250000J0D01*
G01*
X97982000Y-152754000D01*
G75*
G02*
X97732000Y-152504000I0J250000D01*
G01*
G37*
G36*
G01*
X107495000Y-66845000D02*
X107495000Y-67795000D01*
G75*
G02*
X107245000Y-68045000I-250000J0D01*
G01*
X106745000Y-68045000D01*
G75*
G02*
X106495000Y-67795000I0J250000D01*
G01*
X106495000Y-66845000D01*
G75*
G02*
X106745000Y-66595000I250000J0D01*
G01*
X107245000Y-66595000D01*
G75*
G02*
X107495000Y-66845000I0J-250000D01*
G01*
G37*
G36*
G01*
X105595000Y-66845000D02*
X105595000Y-67795000D01*
G75*
G02*
X105345000Y-68045000I-250000J0D01*
G01*
X104845000Y-68045000D01*
G75*
G02*
X104595000Y-67795000I0J250000D01*
G01*
X104595000Y-66845000D01*
G75*
G02*
X104845000Y-66595000I250000J0D01*
G01*
X105345000Y-66595000D01*
G75*
G02*
X105595000Y-66845000I0J-250000D01*
G01*
G37*
G36*
G01*
X114201000Y-187901000D02*
X114201000Y-188801000D01*
G75*
G02*
X113951000Y-189051000I-250000J0D01*
G01*
X113426000Y-189051000D01*
G75*
G02*
X113176000Y-188801000I0J250000D01*
G01*
X113176000Y-187901000D01*
G75*
G02*
X113426000Y-187651000I250000J0D01*
G01*
X113951000Y-187651000D01*
G75*
G02*
X114201000Y-187901000I0J-250000D01*
G01*
G37*
G36*
G01*
X112376000Y-187901000D02*
X112376000Y-188801000D01*
G75*
G02*
X112126000Y-189051000I-250000J0D01*
G01*
X111601000Y-189051000D01*
G75*
G02*
X111351000Y-188801000I0J250000D01*
G01*
X111351000Y-187901000D01*
G75*
G02*
X111601000Y-187651000I250000J0D01*
G01*
X112126000Y-187651000D01*
G75*
G02*
X112376000Y-187901000I0J-250000D01*
G01*
G37*
G36*
G01*
X96700000Y-180510000D02*
X96700000Y-181460000D01*
G75*
G02*
X96450000Y-181710000I-250000J0D01*
G01*
X95950000Y-181710000D01*
G75*
G02*
X95700000Y-181460000I0J250000D01*
G01*
X95700000Y-180510000D01*
G75*
G02*
X95950000Y-180260000I250000J0D01*
G01*
X96450000Y-180260000D01*
G75*
G02*
X96700000Y-180510000I0J-250000D01*
G01*
G37*
G36*
G01*
X94800000Y-180510000D02*
X94800000Y-181460000D01*
G75*
G02*
X94550000Y-181710000I-250000J0D01*
G01*
X94050000Y-181710000D01*
G75*
G02*
X93800000Y-181460000I0J250000D01*
G01*
X93800000Y-180510000D01*
G75*
G02*
X94050000Y-180260000I250000J0D01*
G01*
X94550000Y-180260000D01*
G75*
G02*
X94800000Y-180510000I0J-250000D01*
G01*
G37*
G36*
G01*
X111351000Y-185245000D02*
X111351000Y-184345000D01*
G75*
G02*
X111601000Y-184095000I250000J0D01*
G01*
X112126000Y-184095000D01*
G75*
G02*
X112376000Y-184345000I0J-250000D01*
G01*
X112376000Y-185245000D01*
G75*
G02*
X112126000Y-185495000I-250000J0D01*
G01*
X111601000Y-185495000D01*
G75*
G02*
X111351000Y-185245000I0J250000D01*
G01*
G37*
G36*
G01*
X113176000Y-185245000D02*
X113176000Y-184345000D01*
G75*
G02*
X113426000Y-184095000I250000J0D01*
G01*
X113951000Y-184095000D01*
G75*
G02*
X114201000Y-184345000I0J-250000D01*
G01*
X114201000Y-185245000D01*
G75*
G02*
X113951000Y-185495000I-250000J0D01*
G01*
X113426000Y-185495000D01*
G75*
G02*
X113176000Y-185245000I0J250000D01*
G01*
G37*
G36*
G01*
X107590000Y-51549000D02*
X107590000Y-51849000D01*
G75*
G02*
X107440000Y-51999000I-150000J0D01*
G01*
X105790000Y-51999000D01*
G75*
G02*
X105640000Y-51849000I0J150000D01*
G01*
X105640000Y-51549000D01*
G75*
G02*
X105790000Y-51399000I150000J0D01*
G01*
X107440000Y-51399000D01*
G75*
G02*
X107590000Y-51549000I0J-150000D01*
G01*
G37*
G36*
G01*
X107590000Y-52819000D02*
X107590000Y-53119000D01*
G75*
G02*
X107440000Y-53269000I-150000J0D01*
G01*
X105790000Y-53269000D01*
G75*
G02*
X105640000Y-53119000I0J150000D01*
G01*
X105640000Y-52819000D01*
G75*
G02*
X105790000Y-52669000I150000J0D01*
G01*
X107440000Y-52669000D01*
G75*
G02*
X107590000Y-52819000I0J-150000D01*
G01*
G37*
G36*
G01*
X107590000Y-54089000D02*
X107590000Y-54389000D01*
G75*
G02*
X107440000Y-54539000I-150000J0D01*
G01*
X105790000Y-54539000D01*
G75*
G02*
X105640000Y-54389000I0J150000D01*
G01*
X105640000Y-54089000D01*
G75*
G02*
X105790000Y-53939000I150000J0D01*
G01*
X107440000Y-53939000D01*
G75*
G02*
X107590000Y-54089000I0J-150000D01*
G01*
G37*
G36*
G01*
X107590000Y-55359000D02*
X107590000Y-55659000D01*
G75*
G02*
X107440000Y-55809000I-150000J0D01*
G01*
X105790000Y-55809000D01*
G75*
G02*
X105640000Y-55659000I0J150000D01*
G01*
X105640000Y-55359000D01*
G75*
G02*
X105790000Y-55209000I150000J0D01*
G01*
X107440000Y-55209000D01*
G75*
G02*
X107590000Y-55359000I0J-150000D01*
G01*
G37*
G36*
G01*
X107590000Y-56629000D02*
X107590000Y-56929000D01*
G75*
G02*
X107440000Y-57079000I-150000J0D01*
G01*
X105790000Y-57079000D01*
G75*
G02*
X105640000Y-56929000I0J150000D01*
G01*
X105640000Y-56629000D01*
G75*
G02*
X105790000Y-56479000I150000J0D01*
G01*
X107440000Y-56479000D01*
G75*
G02*
X107590000Y-56629000I0J-150000D01*
G01*
G37*
G36*
G01*
X107590000Y-57899000D02*
X107590000Y-58199000D01*
G75*
G02*
X107440000Y-58349000I-150000J0D01*
G01*
X105790000Y-58349000D01*
G75*
G02*
X105640000Y-58199000I0J150000D01*
G01*
X105640000Y-57899000D01*
G75*
G02*
X105790000Y-57749000I150000J0D01*
G01*
X107440000Y-57749000D01*
G75*
G02*
X107590000Y-57899000I0J-150000D01*
G01*
G37*
G36*
G01*
X107590000Y-59169000D02*
X107590000Y-59469000D01*
G75*
G02*
X107440000Y-59619000I-150000J0D01*
G01*
X105790000Y-59619000D01*
G75*
G02*
X105640000Y-59469000I0J150000D01*
G01*
X105640000Y-59169000D01*
G75*
G02*
X105790000Y-59019000I150000J0D01*
G01*
X107440000Y-59019000D01*
G75*
G02*
X107590000Y-59169000I0J-150000D01*
G01*
G37*
G36*
G01*
X102640000Y-59169000D02*
X102640000Y-59469000D01*
G75*
G02*
X102490000Y-59619000I-150000J0D01*
G01*
X100840000Y-59619000D01*
G75*
G02*
X100690000Y-59469000I0J150000D01*
G01*
X100690000Y-59169000D01*
G75*
G02*
X100840000Y-59019000I150000J0D01*
G01*
X102490000Y-59019000D01*
G75*
G02*
X102640000Y-59169000I0J-150000D01*
G01*
G37*
G36*
G01*
X102640000Y-57899000D02*
X102640000Y-58199000D01*
G75*
G02*
X102490000Y-58349000I-150000J0D01*
G01*
X100840000Y-58349000D01*
G75*
G02*
X100690000Y-58199000I0J150000D01*
G01*
X100690000Y-57899000D01*
G75*
G02*
X100840000Y-57749000I150000J0D01*
G01*
X102490000Y-57749000D01*
G75*
G02*
X102640000Y-57899000I0J-150000D01*
G01*
G37*
G36*
G01*
X102640000Y-56629000D02*
X102640000Y-56929000D01*
G75*
G02*
X102490000Y-57079000I-150000J0D01*
G01*
X100840000Y-57079000D01*
G75*
G02*
X100690000Y-56929000I0J150000D01*
G01*
X100690000Y-56629000D01*
G75*
G02*
X100840000Y-56479000I150000J0D01*
G01*
X102490000Y-56479000D01*
G75*
G02*
X102640000Y-56629000I0J-150000D01*
G01*
G37*
G36*
G01*
X102640000Y-55359000D02*
X102640000Y-55659000D01*
G75*
G02*
X102490000Y-55809000I-150000J0D01*
G01*
X100840000Y-55809000D01*
G75*
G02*
X100690000Y-55659000I0J150000D01*
G01*
X100690000Y-55359000D01*
G75*
G02*
X100840000Y-55209000I150000J0D01*
G01*
X102490000Y-55209000D01*
G75*
G02*
X102640000Y-55359000I0J-150000D01*
G01*
G37*
G36*
G01*
X102640000Y-54089000D02*
X102640000Y-54389000D01*
G75*
G02*
X102490000Y-54539000I-150000J0D01*
G01*
X100840000Y-54539000D01*
G75*
G02*
X100690000Y-54389000I0J150000D01*
G01*
X100690000Y-54089000D01*
G75*
G02*
X100840000Y-53939000I150000J0D01*
G01*
X102490000Y-53939000D01*
G75*
G02*
X102640000Y-54089000I0J-150000D01*
G01*
G37*
G36*
G01*
X102640000Y-52819000D02*
X102640000Y-53119000D01*
G75*
G02*
X102490000Y-53269000I-150000J0D01*
G01*
X100840000Y-53269000D01*
G75*
G02*
X100690000Y-53119000I0J150000D01*
G01*
X100690000Y-52819000D01*
G75*
G02*
X100840000Y-52669000I150000J0D01*
G01*
X102490000Y-52669000D01*
G75*
G02*
X102640000Y-52819000I0J-150000D01*
G01*
G37*
G36*
G01*
X102640000Y-51549000D02*
X102640000Y-51849000D01*
G75*
G02*
X102490000Y-51999000I-150000J0D01*
G01*
X100840000Y-51999000D01*
G75*
G02*
X100690000Y-51849000I0J150000D01*
G01*
X100690000Y-51549000D01*
G75*
G02*
X100840000Y-51399000I150000J0D01*
G01*
X102490000Y-51399000D01*
G75*
G02*
X102640000Y-51549000I0J-150000D01*
G01*
G37*
G36*
G01*
X96675000Y-55059000D02*
X96675000Y-55959000D01*
G75*
G02*
X96425000Y-56209000I-250000J0D01*
G01*
X95900000Y-56209000D01*
G75*
G02*
X95650000Y-55959000I0J250000D01*
G01*
X95650000Y-55059000D01*
G75*
G02*
X95900000Y-54809000I250000J0D01*
G01*
X96425000Y-54809000D01*
G75*
G02*
X96675000Y-55059000I0J-250000D01*
G01*
G37*
G36*
G01*
X94850000Y-55059000D02*
X94850000Y-55959000D01*
G75*
G02*
X94600000Y-56209000I-250000J0D01*
G01*
X94075000Y-56209000D01*
G75*
G02*
X93825000Y-55959000I0J250000D01*
G01*
X93825000Y-55059000D01*
G75*
G02*
X94075000Y-54809000I250000J0D01*
G01*
X94600000Y-54809000D01*
G75*
G02*
X94850000Y-55059000I0J-250000D01*
G01*
G37*
D10*
X93854000Y-71003000D03*
X97154000Y-71003000D03*
G36*
G01*
X114201000Y-111320000D02*
X114201000Y-112220000D01*
G75*
G02*
X113951000Y-112470000I-250000J0D01*
G01*
X113426000Y-112470000D01*
G75*
G02*
X113176000Y-112220000I0J250000D01*
G01*
X113176000Y-111320000D01*
G75*
G02*
X113426000Y-111070000I250000J0D01*
G01*
X113951000Y-111070000D01*
G75*
G02*
X114201000Y-111320000I0J-250000D01*
G01*
G37*
G36*
G01*
X112376000Y-111320000D02*
X112376000Y-112220000D01*
G75*
G02*
X112126000Y-112470000I-250000J0D01*
G01*
X111601000Y-112470000D01*
G75*
G02*
X111351000Y-112220000I0J250000D01*
G01*
X111351000Y-111320000D01*
G75*
G02*
X111601000Y-111070000I250000J0D01*
G01*
X112126000Y-111070000D01*
G75*
G02*
X112376000Y-111320000I0J-250000D01*
G01*
G37*
M02*
