G04 #@! TF.GenerationSoftware,KiCad,Pcbnew,6.0.5+dfsg-1~bpo11+1*
G04 #@! TF.CreationDate,2022-07-21T18:59:06+00:00*
G04 #@! TF.ProjectId,sample_and_hold_board,73616d70-6c65-45f6-916e-645f686f6c64,0*
G04 #@! TF.SameCoordinates,Original*
G04 #@! TF.FileFunction,Soldermask,Top*
G04 #@! TF.FilePolarity,Negative*
%FSLAX46Y46*%
G04 Gerber Fmt 4.6, Leading zero omitted, Abs format (unit mm)*
G04 Created by KiCad (PCBNEW 6.0.5+dfsg-1~bpo11+1) date 2022-07-21 18:59:06*
%MOMM*%
%LPD*%
G01*
G04 APERTURE LIST*
%ADD10O,2.720000X3.240000*%
%ADD11R,1.800000X1.800000*%
%ADD12C,1.800000*%
%ADD13C,2.500000*%
%ADD14R,1.600000X1.600000*%
%ADD15C,1.600000*%
%ADD16C,2.000000*%
%ADD17O,2.190000X1.740000*%
%ADD18C,2.600000*%
%ADD19C,1.700000*%
%ADD20R,1.500000X1.500000*%
%ADD21C,1.500000*%
G04 APERTURE END LIST*
D10*
X108940000Y-172215000D03*
X99340000Y-172215000D03*
D11*
X101640000Y-179715000D03*
D12*
X104140000Y-179715000D03*
X106640000Y-179715000D03*
D13*
X104140000Y-228865000D03*
X104140000Y-224165000D03*
X104140000Y-219465000D03*
D10*
X108940000Y-83315000D03*
X99340000Y-83315000D03*
D11*
X101640000Y-90815000D03*
D12*
X104140000Y-90815000D03*
X106640000Y-90815000D03*
D10*
X99340000Y-127765000D03*
X108940000Y-127765000D03*
D11*
X101640000Y-135265000D03*
D12*
X104140000Y-135265000D03*
X106640000Y-135265000D03*
D10*
X108940000Y-38865000D03*
X99340000Y-38865000D03*
D11*
X101640000Y-46365000D03*
D12*
X104140000Y-46365000D03*
X106640000Y-46365000D03*
D14*
X113665000Y-193050000D03*
D15*
X116165000Y-193050000D03*
X101640000Y-63383000D03*
X106640000Y-63383000D03*
D14*
X103359621Y-146314000D03*
D15*
X105859621Y-146314000D03*
D14*
X99100000Y-197495000D03*
D15*
X101600000Y-197495000D03*
D16*
X117475000Y-209560000D03*
D14*
X109154000Y-153299000D03*
D15*
X111654000Y-153299000D03*
G36*
G01*
X117050000Y-167885000D02*
X115360000Y-167885000D01*
G75*
G02*
X115110000Y-167635000I0J250000D01*
G01*
X115110000Y-166395000D01*
G75*
G02*
X115360000Y-166145000I250000J0D01*
G01*
X117050000Y-166145000D01*
G75*
G02*
X117300000Y-166395000I0J-250000D01*
G01*
X117300000Y-167635000D01*
G75*
G02*
X117050000Y-167885000I-250000J0D01*
G01*
G37*
D17*
X116205000Y-164475000D03*
D18*
X90805000Y-228610000D03*
X98425000Y-228610000D03*
G36*
G01*
X91230000Y-111535000D02*
X92920000Y-111535000D01*
G75*
G02*
X93170000Y-111785000I0J-250000D01*
G01*
X93170000Y-113025000D01*
G75*
G02*
X92920000Y-113275000I-250000J0D01*
G01*
X91230000Y-113275000D01*
G75*
G02*
X90980000Y-113025000I0J250000D01*
G01*
X90980000Y-111785000D01*
G75*
G02*
X91230000Y-111535000I250000J0D01*
G01*
G37*
D17*
X92075000Y-114945000D03*
X92075000Y-117485000D03*
X92075000Y-120025000D03*
X92075000Y-122565000D03*
X92075000Y-125105000D03*
G36*
G01*
X91250000Y-92485000D02*
X92940000Y-92485000D01*
G75*
G02*
X93190000Y-92735000I0J-250000D01*
G01*
X93190000Y-93975000D01*
G75*
G02*
X92940000Y-94225000I-250000J0D01*
G01*
X91250000Y-94225000D01*
G75*
G02*
X91000000Y-93975000I0J250000D01*
G01*
X91000000Y-92735000D01*
G75*
G02*
X91250000Y-92485000I250000J0D01*
G01*
G37*
X92095000Y-95895000D03*
X92095000Y-98435000D03*
D16*
X112776000Y-92339000D03*
D14*
X106680000Y-197495000D03*
D15*
X109180000Y-197495000D03*
D16*
X90170000Y-80655000D03*
X111760000Y-219085000D03*
X90805000Y-209560000D03*
D14*
X92115000Y-193050000D03*
D15*
X94615000Y-193050000D03*
D16*
X111760000Y-228610000D03*
G36*
G01*
X98460000Y-208710000D02*
X99660000Y-208710000D01*
G75*
G02*
X99910000Y-208960000I0J-250000D01*
G01*
X99910000Y-210160000D01*
G75*
G02*
X99660000Y-210410000I-250000J0D01*
G01*
X98460000Y-210410000D01*
G75*
G02*
X98210000Y-210160000I0J250000D01*
G01*
X98210000Y-208960000D01*
G75*
G02*
X98460000Y-208710000I250000J0D01*
G01*
G37*
D19*
X99060000Y-212100000D03*
X101600000Y-209560000D03*
X101600000Y-212100000D03*
X104140000Y-209560000D03*
X104140000Y-212100000D03*
X106680000Y-209560000D03*
X106680000Y-212100000D03*
X109220000Y-209560000D03*
X109220000Y-212100000D03*
D15*
X112776000Y-63891000D03*
X117776000Y-63891000D03*
D20*
X104140000Y-153299000D03*
D21*
X104140000Y-155839000D03*
X104140000Y-158379000D03*
D16*
X113030000Y-71130000D03*
M02*
