G04 #@! TF.GenerationSoftware,KiCad,Pcbnew,6.0.5+dfsg-1~bpo11+1*
G04 #@! TF.CreationDate,2022-08-14T17:08:05+00:00*
G04 #@! TF.ProjectId,VCF_VCA_board,5643465f-5643-4415-9f62-6f6172642e6b,0*
G04 #@! TF.SameCoordinates,Original*
G04 #@! TF.FileFunction,Legend,Top*
G04 #@! TF.FilePolarity,Positive*
%FSLAX46Y46*%
G04 Gerber Fmt 4.6, Leading zero omitted, Abs format (unit mm)*
G04 Created by KiCad (PCBNEW 6.0.5+dfsg-1~bpo11+1) date 2022-08-14 17:08:05*
%MOMM*%
%LPD*%
G01*
G04 APERTURE LIST*
%ADD10C,0.150000*%
%ADD11C,0.120000*%
%ADD12C,0.127000*%
%ADD13C,0.080000*%
%ADD14O,2.720000X3.240000*%
%ADD15R,1.800000X1.800000*%
%ADD16C,1.800000*%
%ADD17C,2.500000*%
%ADD18C,3.000000*%
%ADD19C,1.451600*%
%ADD20C,1.440000*%
%ADD21O,2.190000X1.740000*%
%ADD22C,2.600000*%
%ADD23C,1.600000*%
%ADD24C,2.000000*%
%ADD25R,1.600000X1.600000*%
%ADD26C,1.700000*%
G04 APERTURE END LIST*
D10*
X98147380Y-108402380D02*
X97814047Y-107926190D01*
X97575952Y-108402380D02*
X97575952Y-107402380D01*
X97956904Y-107402380D01*
X98052142Y-107450000D01*
X98099761Y-107497619D01*
X98147380Y-107592857D01*
X98147380Y-107735714D01*
X98099761Y-107830952D01*
X98052142Y-107878571D01*
X97956904Y-107926190D01*
X97575952Y-107926190D01*
X98433095Y-107402380D02*
X98766428Y-108402380D01*
X99099761Y-107402380D01*
X99909285Y-107402380D02*
X99433095Y-107402380D01*
X99385476Y-107878571D01*
X99433095Y-107830952D01*
X99528333Y-107783333D01*
X99766428Y-107783333D01*
X99861666Y-107830952D01*
X99909285Y-107878571D01*
X99956904Y-107973809D01*
X99956904Y-108211904D01*
X99909285Y-108307142D01*
X99861666Y-108354761D01*
X99766428Y-108402380D01*
X99528333Y-108402380D01*
X99433095Y-108354761D01*
X99385476Y-108307142D01*
X100575952Y-107402380D02*
X100671190Y-107402380D01*
X100766428Y-107450000D01*
X100814047Y-107497619D01*
X100861666Y-107592857D01*
X100909285Y-107783333D01*
X100909285Y-108021428D01*
X100861666Y-108211904D01*
X100814047Y-108307142D01*
X100766428Y-108354761D01*
X100671190Y-108402380D01*
X100575952Y-108402380D01*
X100480714Y-108354761D01*
X100433095Y-108307142D01*
X100385476Y-108211904D01*
X100337857Y-108021428D01*
X100337857Y-107783333D01*
X100385476Y-107592857D01*
X100433095Y-107497619D01*
X100480714Y-107450000D01*
X100575952Y-107402380D01*
X101385476Y-108402380D02*
X101575952Y-108402380D01*
X101671190Y-108354761D01*
X101718809Y-108307142D01*
X101814047Y-108164285D01*
X101861666Y-107973809D01*
X101861666Y-107592857D01*
X101814047Y-107497619D01*
X101766428Y-107450000D01*
X101671190Y-107402380D01*
X101480714Y-107402380D01*
X101385476Y-107450000D01*
X101337857Y-107497619D01*
X101290238Y-107592857D01*
X101290238Y-107830952D01*
X101337857Y-107926190D01*
X101385476Y-107973809D01*
X101480714Y-108021428D01*
X101671190Y-108021428D01*
X101766428Y-107973809D01*
X101814047Y-107926190D01*
X101861666Y-107830952D01*
X98147380Y-57602380D02*
X97814047Y-57126190D01*
X97575952Y-57602380D02*
X97575952Y-56602380D01*
X97956904Y-56602380D01*
X98052142Y-56650000D01*
X98099761Y-56697619D01*
X98147380Y-56792857D01*
X98147380Y-56935714D01*
X98099761Y-57030952D01*
X98052142Y-57078571D01*
X97956904Y-57126190D01*
X97575952Y-57126190D01*
X98433095Y-56602380D02*
X98766428Y-57602380D01*
X99099761Y-56602380D01*
X99909285Y-56602380D02*
X99433095Y-56602380D01*
X99385476Y-57078571D01*
X99433095Y-57030952D01*
X99528333Y-56983333D01*
X99766428Y-56983333D01*
X99861666Y-57030952D01*
X99909285Y-57078571D01*
X99956904Y-57173809D01*
X99956904Y-57411904D01*
X99909285Y-57507142D01*
X99861666Y-57554761D01*
X99766428Y-57602380D01*
X99528333Y-57602380D01*
X99433095Y-57554761D01*
X99385476Y-57507142D01*
X100575952Y-56602380D02*
X100671190Y-56602380D01*
X100766428Y-56650000D01*
X100814047Y-56697619D01*
X100861666Y-56792857D01*
X100909285Y-56983333D01*
X100909285Y-57221428D01*
X100861666Y-57411904D01*
X100814047Y-57507142D01*
X100766428Y-57554761D01*
X100671190Y-57602380D01*
X100575952Y-57602380D01*
X100480714Y-57554761D01*
X100433095Y-57507142D01*
X100385476Y-57411904D01*
X100337857Y-57221428D01*
X100337857Y-56983333D01*
X100385476Y-56792857D01*
X100433095Y-56697619D01*
X100480714Y-56650000D01*
X100575952Y-56602380D01*
X101480714Y-57030952D02*
X101385476Y-56983333D01*
X101337857Y-56935714D01*
X101290238Y-56840476D01*
X101290238Y-56792857D01*
X101337857Y-56697619D01*
X101385476Y-56650000D01*
X101480714Y-56602380D01*
X101671190Y-56602380D01*
X101766428Y-56650000D01*
X101814047Y-56697619D01*
X101861666Y-56792857D01*
X101861666Y-56840476D01*
X101814047Y-56935714D01*
X101766428Y-56983333D01*
X101671190Y-57030952D01*
X101480714Y-57030952D01*
X101385476Y-57078571D01*
X101337857Y-57126190D01*
X101290238Y-57221428D01*
X101290238Y-57411904D01*
X101337857Y-57507142D01*
X101385476Y-57554761D01*
X101480714Y-57602380D01*
X101671190Y-57602380D01*
X101766428Y-57554761D01*
X101814047Y-57507142D01*
X101861666Y-57411904D01*
X101861666Y-57221428D01*
X101814047Y-57126190D01*
X101766428Y-57078571D01*
X101671190Y-57030952D01*
X130111666Y-133754761D02*
X130254523Y-133802380D01*
X130492619Y-133802380D01*
X130587857Y-133754761D01*
X130635476Y-133707142D01*
X130683095Y-133611904D01*
X130683095Y-133516666D01*
X130635476Y-133421428D01*
X130587857Y-133373809D01*
X130492619Y-133326190D01*
X130302142Y-133278571D01*
X130206904Y-133230952D01*
X130159285Y-133183333D01*
X130111666Y-133088095D01*
X130111666Y-132992857D01*
X130159285Y-132897619D01*
X130206904Y-132850000D01*
X130302142Y-132802380D01*
X130540238Y-132802380D01*
X130683095Y-132850000D01*
X131016428Y-132802380D02*
X131254523Y-133802380D01*
X131445000Y-133088095D01*
X131635476Y-133802380D01*
X131873571Y-132802380D01*
X132159285Y-132802380D02*
X132778333Y-132802380D01*
X132445000Y-133183333D01*
X132587857Y-133183333D01*
X132683095Y-133230952D01*
X132730714Y-133278571D01*
X132778333Y-133373809D01*
X132778333Y-133611904D01*
X132730714Y-133707142D01*
X132683095Y-133754761D01*
X132587857Y-133802380D01*
X132302142Y-133802380D01*
X132206904Y-133754761D01*
X132159285Y-133707142D01*
X47347380Y-133802380D02*
X47014047Y-133326190D01*
X46775952Y-133802380D02*
X46775952Y-132802380D01*
X47156904Y-132802380D01*
X47252142Y-132850000D01*
X47299761Y-132897619D01*
X47347380Y-132992857D01*
X47347380Y-133135714D01*
X47299761Y-133230952D01*
X47252142Y-133278571D01*
X47156904Y-133326190D01*
X46775952Y-133326190D01*
X47633095Y-132802380D02*
X47966428Y-133802380D01*
X48299761Y-132802380D01*
X48585476Y-132897619D02*
X48633095Y-132850000D01*
X48728333Y-132802380D01*
X48966428Y-132802380D01*
X49061666Y-132850000D01*
X49109285Y-132897619D01*
X49156904Y-132992857D01*
X49156904Y-133088095D01*
X49109285Y-133230952D01*
X48537857Y-133802380D01*
X49156904Y-133802380D01*
X49775952Y-132802380D02*
X49871190Y-132802380D01*
X49966428Y-132850000D01*
X50014047Y-132897619D01*
X50061666Y-132992857D01*
X50109285Y-133183333D01*
X50109285Y-133421428D01*
X50061666Y-133611904D01*
X50014047Y-133707142D01*
X49966428Y-133754761D01*
X49871190Y-133802380D01*
X49775952Y-133802380D01*
X49680714Y-133754761D01*
X49633095Y-133707142D01*
X49585476Y-133611904D01*
X49537857Y-133421428D01*
X49537857Y-133183333D01*
X49585476Y-132992857D01*
X49633095Y-132897619D01*
X49680714Y-132850000D01*
X49775952Y-132802380D01*
X51061666Y-133802380D02*
X50490238Y-133802380D01*
X50775952Y-133802380D02*
X50775952Y-132802380D01*
X50680714Y-132945238D01*
X50585476Y-133040476D01*
X50490238Y-133088095D01*
X98147380Y-222702380D02*
X97814047Y-222226190D01*
X97575952Y-222702380D02*
X97575952Y-221702380D01*
X97956904Y-221702380D01*
X98052142Y-221750000D01*
X98099761Y-221797619D01*
X98147380Y-221892857D01*
X98147380Y-222035714D01*
X98099761Y-222130952D01*
X98052142Y-222178571D01*
X97956904Y-222226190D01*
X97575952Y-222226190D01*
X98433095Y-221702380D02*
X98766428Y-222702380D01*
X99099761Y-221702380D01*
X99909285Y-221702380D02*
X99433095Y-221702380D01*
X99385476Y-222178571D01*
X99433095Y-222130952D01*
X99528333Y-222083333D01*
X99766428Y-222083333D01*
X99861666Y-222130952D01*
X99909285Y-222178571D01*
X99956904Y-222273809D01*
X99956904Y-222511904D01*
X99909285Y-222607142D01*
X99861666Y-222654761D01*
X99766428Y-222702380D01*
X99528333Y-222702380D01*
X99433095Y-222654761D01*
X99385476Y-222607142D01*
X100575952Y-221702380D02*
X100671190Y-221702380D01*
X100766428Y-221750000D01*
X100814047Y-221797619D01*
X100861666Y-221892857D01*
X100909285Y-222083333D01*
X100909285Y-222321428D01*
X100861666Y-222511904D01*
X100814047Y-222607142D01*
X100766428Y-222654761D01*
X100671190Y-222702380D01*
X100575952Y-222702380D01*
X100480714Y-222654761D01*
X100433095Y-222607142D01*
X100385476Y-222511904D01*
X100337857Y-222321428D01*
X100337857Y-222083333D01*
X100385476Y-221892857D01*
X100433095Y-221797619D01*
X100480714Y-221750000D01*
X100575952Y-221702380D01*
X101814047Y-221702380D02*
X101337857Y-221702380D01*
X101290238Y-222178571D01*
X101337857Y-222130952D01*
X101433095Y-222083333D01*
X101671190Y-222083333D01*
X101766428Y-222130952D01*
X101814047Y-222178571D01*
X101861666Y-222273809D01*
X101861666Y-222511904D01*
X101814047Y-222607142D01*
X101766428Y-222654761D01*
X101671190Y-222702380D01*
X101433095Y-222702380D01*
X101337857Y-222654761D01*
X101290238Y-222607142D01*
X148947380Y-133802380D02*
X148614047Y-133326190D01*
X148375952Y-133802380D02*
X148375952Y-132802380D01*
X148756904Y-132802380D01*
X148852142Y-132850000D01*
X148899761Y-132897619D01*
X148947380Y-132992857D01*
X148947380Y-133135714D01*
X148899761Y-133230952D01*
X148852142Y-133278571D01*
X148756904Y-133326190D01*
X148375952Y-133326190D01*
X149233095Y-132802380D02*
X149566428Y-133802380D01*
X149899761Y-132802380D01*
X150137857Y-132802380D02*
X150756904Y-132802380D01*
X150423571Y-133183333D01*
X150566428Y-133183333D01*
X150661666Y-133230952D01*
X150709285Y-133278571D01*
X150756904Y-133373809D01*
X150756904Y-133611904D01*
X150709285Y-133707142D01*
X150661666Y-133754761D01*
X150566428Y-133802380D01*
X150280714Y-133802380D01*
X150185476Y-133754761D01*
X150137857Y-133707142D01*
X151375952Y-132802380D02*
X151471190Y-132802380D01*
X151566428Y-132850000D01*
X151614047Y-132897619D01*
X151661666Y-132992857D01*
X151709285Y-133183333D01*
X151709285Y-133421428D01*
X151661666Y-133611904D01*
X151614047Y-133707142D01*
X151566428Y-133754761D01*
X151471190Y-133802380D01*
X151375952Y-133802380D01*
X151280714Y-133754761D01*
X151233095Y-133707142D01*
X151185476Y-133611904D01*
X151137857Y-133421428D01*
X151137857Y-133183333D01*
X151185476Y-132992857D01*
X151233095Y-132897619D01*
X151280714Y-132850000D01*
X151375952Y-132802380D01*
X152661666Y-133802380D02*
X152090238Y-133802380D01*
X152375952Y-133802380D02*
X152375952Y-132802380D01*
X152280714Y-132945238D01*
X152185476Y-133040476D01*
X152090238Y-133088095D01*
X69572380Y-197302380D02*
X69239047Y-196826190D01*
X69000952Y-197302380D02*
X69000952Y-196302380D01*
X69381904Y-196302380D01*
X69477142Y-196350000D01*
X69524761Y-196397619D01*
X69572380Y-196492857D01*
X69572380Y-196635714D01*
X69524761Y-196730952D01*
X69477142Y-196778571D01*
X69381904Y-196826190D01*
X69000952Y-196826190D01*
X69858095Y-196302380D02*
X70191428Y-197302380D01*
X70524761Y-196302380D01*
X71334285Y-196302380D02*
X70858095Y-196302380D01*
X70810476Y-196778571D01*
X70858095Y-196730952D01*
X70953333Y-196683333D01*
X71191428Y-196683333D01*
X71286666Y-196730952D01*
X71334285Y-196778571D01*
X71381904Y-196873809D01*
X71381904Y-197111904D01*
X71334285Y-197207142D01*
X71286666Y-197254761D01*
X71191428Y-197302380D01*
X70953333Y-197302380D01*
X70858095Y-197254761D01*
X70810476Y-197207142D01*
X72000952Y-196302380D02*
X72096190Y-196302380D01*
X72191428Y-196350000D01*
X72239047Y-196397619D01*
X72286666Y-196492857D01*
X72334285Y-196683333D01*
X72334285Y-196921428D01*
X72286666Y-197111904D01*
X72239047Y-197207142D01*
X72191428Y-197254761D01*
X72096190Y-197302380D01*
X72000952Y-197302380D01*
X71905714Y-197254761D01*
X71858095Y-197207142D01*
X71810476Y-197111904D01*
X71762857Y-196921428D01*
X71762857Y-196683333D01*
X71810476Y-196492857D01*
X71858095Y-196397619D01*
X71905714Y-196350000D01*
X72000952Y-196302380D01*
X72715238Y-196397619D02*
X72762857Y-196350000D01*
X72858095Y-196302380D01*
X73096190Y-196302380D01*
X73191428Y-196350000D01*
X73239047Y-196397619D01*
X73286666Y-196492857D01*
X73286666Y-196588095D01*
X73239047Y-196730952D01*
X72667619Y-197302380D01*
X73286666Y-197302380D01*
X155297380Y-222702380D02*
X154964047Y-222226190D01*
X154725952Y-222702380D02*
X154725952Y-221702380D01*
X155106904Y-221702380D01*
X155202142Y-221750000D01*
X155249761Y-221797619D01*
X155297380Y-221892857D01*
X155297380Y-222035714D01*
X155249761Y-222130952D01*
X155202142Y-222178571D01*
X155106904Y-222226190D01*
X154725952Y-222226190D01*
X155583095Y-221702380D02*
X155916428Y-222702380D01*
X156249761Y-221702380D01*
X157059285Y-221702380D02*
X156583095Y-221702380D01*
X156535476Y-222178571D01*
X156583095Y-222130952D01*
X156678333Y-222083333D01*
X156916428Y-222083333D01*
X157011666Y-222130952D01*
X157059285Y-222178571D01*
X157106904Y-222273809D01*
X157106904Y-222511904D01*
X157059285Y-222607142D01*
X157011666Y-222654761D01*
X156916428Y-222702380D01*
X156678333Y-222702380D01*
X156583095Y-222654761D01*
X156535476Y-222607142D01*
X157725952Y-221702380D02*
X157821190Y-221702380D01*
X157916428Y-221750000D01*
X157964047Y-221797619D01*
X158011666Y-221892857D01*
X158059285Y-222083333D01*
X158059285Y-222321428D01*
X158011666Y-222511904D01*
X157964047Y-222607142D01*
X157916428Y-222654761D01*
X157821190Y-222702380D01*
X157725952Y-222702380D01*
X157630714Y-222654761D01*
X157583095Y-222607142D01*
X157535476Y-222511904D01*
X157487857Y-222321428D01*
X157487857Y-222083333D01*
X157535476Y-221892857D01*
X157583095Y-221797619D01*
X157630714Y-221750000D01*
X157725952Y-221702380D01*
X158392619Y-221702380D02*
X159059285Y-221702380D01*
X158630714Y-222702380D01*
X78359285Y-133754761D02*
X78502142Y-133802380D01*
X78740238Y-133802380D01*
X78835476Y-133754761D01*
X78883095Y-133707142D01*
X78930714Y-133611904D01*
X78930714Y-133516666D01*
X78883095Y-133421428D01*
X78835476Y-133373809D01*
X78740238Y-133326190D01*
X78549761Y-133278571D01*
X78454523Y-133230952D01*
X78406904Y-133183333D01*
X78359285Y-133088095D01*
X78359285Y-132992857D01*
X78406904Y-132897619D01*
X78454523Y-132850000D01*
X78549761Y-132802380D01*
X78787857Y-132802380D01*
X78930714Y-132850000D01*
X79264047Y-132802380D02*
X79502142Y-133802380D01*
X79692619Y-133088095D01*
X79883095Y-133802380D01*
X80121190Y-132802380D01*
X80978333Y-132802380D02*
X80502142Y-132802380D01*
X80454523Y-133278571D01*
X80502142Y-133230952D01*
X80597380Y-133183333D01*
X80835476Y-133183333D01*
X80930714Y-133230952D01*
X80978333Y-133278571D01*
X81025952Y-133373809D01*
X81025952Y-133611904D01*
X80978333Y-133707142D01*
X80930714Y-133754761D01*
X80835476Y-133802380D01*
X80597380Y-133802380D01*
X80502142Y-133754761D01*
X80454523Y-133707142D01*
X81645000Y-132802380D02*
X81740238Y-132802380D01*
X81835476Y-132850000D01*
X81883095Y-132897619D01*
X81930714Y-132992857D01*
X81978333Y-133183333D01*
X81978333Y-133421428D01*
X81930714Y-133611904D01*
X81883095Y-133707142D01*
X81835476Y-133754761D01*
X81740238Y-133802380D01*
X81645000Y-133802380D01*
X81549761Y-133754761D01*
X81502142Y-133707142D01*
X81454523Y-133611904D01*
X81406904Y-133421428D01*
X81406904Y-133183333D01*
X81454523Y-132992857D01*
X81502142Y-132897619D01*
X81549761Y-132850000D01*
X81645000Y-132802380D01*
X82930714Y-133802380D02*
X82359285Y-133802380D01*
X82645000Y-133802380D02*
X82645000Y-132802380D01*
X82549761Y-132945238D01*
X82454523Y-133040476D01*
X82359285Y-133088095D01*
D11*
X46621327Y-68993333D02*
X46813256Y-68897368D01*
X47053167Y-68657457D01*
X47101150Y-68513510D01*
X47101150Y-68417546D01*
X47053167Y-68273599D01*
X46957203Y-68177635D01*
X46813256Y-68129652D01*
X46717292Y-68129652D01*
X46573345Y-68177635D01*
X46333434Y-68321581D01*
X46189487Y-68369564D01*
X46093522Y-68369564D01*
X45949576Y-68321581D01*
X45853611Y-68225617D01*
X45805629Y-68081670D01*
X45805629Y-67985706D01*
X45853611Y-67841759D01*
X46093522Y-67601848D01*
X46285451Y-67505883D01*
X46573345Y-67122025D02*
X47820883Y-67889741D01*
X47293079Y-66978079D01*
X48204741Y-67505883D01*
X47437025Y-66258345D01*
X49356315Y-66354309D02*
X48780528Y-66930096D01*
X49068422Y-66642203D02*
X48060795Y-65634576D01*
X48108777Y-65874487D01*
X48108777Y-66066416D01*
X48060795Y-66210363D01*
D10*
X40997380Y-222702380D02*
X40664047Y-222226190D01*
X40425952Y-222702380D02*
X40425952Y-221702380D01*
X40806904Y-221702380D01*
X40902142Y-221750000D01*
X40949761Y-221797619D01*
X40997380Y-221892857D01*
X40997380Y-222035714D01*
X40949761Y-222130952D01*
X40902142Y-222178571D01*
X40806904Y-222226190D01*
X40425952Y-222226190D01*
X41283095Y-221702380D02*
X41616428Y-222702380D01*
X41949761Y-221702380D01*
X42759285Y-221702380D02*
X42283095Y-221702380D01*
X42235476Y-222178571D01*
X42283095Y-222130952D01*
X42378333Y-222083333D01*
X42616428Y-222083333D01*
X42711666Y-222130952D01*
X42759285Y-222178571D01*
X42806904Y-222273809D01*
X42806904Y-222511904D01*
X42759285Y-222607142D01*
X42711666Y-222654761D01*
X42616428Y-222702380D01*
X42378333Y-222702380D01*
X42283095Y-222654761D01*
X42235476Y-222607142D01*
X43425952Y-221702380D02*
X43521190Y-221702380D01*
X43616428Y-221750000D01*
X43664047Y-221797619D01*
X43711666Y-221892857D01*
X43759285Y-222083333D01*
X43759285Y-222321428D01*
X43711666Y-222511904D01*
X43664047Y-222607142D01*
X43616428Y-222654761D01*
X43521190Y-222702380D01*
X43425952Y-222702380D01*
X43330714Y-222654761D01*
X43283095Y-222607142D01*
X43235476Y-222511904D01*
X43187857Y-222321428D01*
X43187857Y-222083333D01*
X43235476Y-221892857D01*
X43283095Y-221797619D01*
X43330714Y-221750000D01*
X43425952Y-221702380D01*
X44711666Y-222702380D02*
X44140238Y-222702380D01*
X44425952Y-222702380D02*
X44425952Y-221702380D01*
X44330714Y-221845238D01*
X44235476Y-221940476D01*
X44140238Y-221988095D01*
X126722380Y-197302380D02*
X126389047Y-196826190D01*
X126150952Y-197302380D02*
X126150952Y-196302380D01*
X126531904Y-196302380D01*
X126627142Y-196350000D01*
X126674761Y-196397619D01*
X126722380Y-196492857D01*
X126722380Y-196635714D01*
X126674761Y-196730952D01*
X126627142Y-196778571D01*
X126531904Y-196826190D01*
X126150952Y-196826190D01*
X127008095Y-196302380D02*
X127341428Y-197302380D01*
X127674761Y-196302380D01*
X128484285Y-196302380D02*
X128008095Y-196302380D01*
X127960476Y-196778571D01*
X128008095Y-196730952D01*
X128103333Y-196683333D01*
X128341428Y-196683333D01*
X128436666Y-196730952D01*
X128484285Y-196778571D01*
X128531904Y-196873809D01*
X128531904Y-197111904D01*
X128484285Y-197207142D01*
X128436666Y-197254761D01*
X128341428Y-197302380D01*
X128103333Y-197302380D01*
X128008095Y-197254761D01*
X127960476Y-197207142D01*
X129150952Y-196302380D02*
X129246190Y-196302380D01*
X129341428Y-196350000D01*
X129389047Y-196397619D01*
X129436666Y-196492857D01*
X129484285Y-196683333D01*
X129484285Y-196921428D01*
X129436666Y-197111904D01*
X129389047Y-197207142D01*
X129341428Y-197254761D01*
X129246190Y-197302380D01*
X129150952Y-197302380D01*
X129055714Y-197254761D01*
X129008095Y-197207142D01*
X128960476Y-197111904D01*
X128912857Y-196921428D01*
X128912857Y-196683333D01*
X128960476Y-196492857D01*
X129008095Y-196397619D01*
X129055714Y-196350000D01*
X129150952Y-196302380D01*
X130341428Y-196302380D02*
X130150952Y-196302380D01*
X130055714Y-196350000D01*
X130008095Y-196397619D01*
X129912857Y-196540476D01*
X129865238Y-196730952D01*
X129865238Y-197111904D01*
X129912857Y-197207142D01*
X129960476Y-197254761D01*
X130055714Y-197302380D01*
X130246190Y-197302380D01*
X130341428Y-197254761D01*
X130389047Y-197207142D01*
X130436666Y-197111904D01*
X130436666Y-196873809D01*
X130389047Y-196778571D01*
X130341428Y-196730952D01*
X130246190Y-196683333D01*
X130055714Y-196683333D01*
X129960476Y-196730952D01*
X129912857Y-196778571D01*
X129865238Y-196873809D01*
D11*
X147785532Y-68557538D02*
X147977461Y-68461573D01*
X148217372Y-68221662D01*
X148265355Y-68077715D01*
X148265355Y-67981751D01*
X148217372Y-67837804D01*
X148121408Y-67741840D01*
X147977461Y-67693857D01*
X147881497Y-67693857D01*
X147737550Y-67741840D01*
X147497639Y-67885786D01*
X147353692Y-67933769D01*
X147257727Y-67933769D01*
X147113781Y-67885786D01*
X147017816Y-67789822D01*
X146969834Y-67645875D01*
X146969834Y-67549911D01*
X147017816Y-67405964D01*
X147257727Y-67166053D01*
X147449656Y-67070088D01*
X147737550Y-66686230D02*
X148985088Y-67453946D01*
X148457284Y-66542284D01*
X149368946Y-67070088D01*
X148601230Y-65822550D01*
X149033071Y-65582639D02*
X149033071Y-65486674D01*
X149081053Y-65342727D01*
X149320964Y-65102816D01*
X149464911Y-65054834D01*
X149560875Y-65054834D01*
X149704822Y-65102816D01*
X149800786Y-65198781D01*
X149896751Y-65390710D01*
X149896751Y-66542284D01*
X150520520Y-65918514D01*
X101125000Y-107070000D02*
X101125000Y-102350000D01*
X110875000Y-98540000D02*
X110875000Y-95480000D01*
X105215000Y-107070000D02*
X104685000Y-107070000D01*
X107665000Y-107070000D02*
X106835000Y-107070000D01*
X101135000Y-98540000D02*
X101135000Y-95480000D01*
X102315000Y-107070000D02*
X101135000Y-107070000D01*
X110875000Y-95480000D02*
X101135000Y-95480000D01*
X110875000Y-107070000D02*
X110875000Y-102350000D01*
X110875000Y-107070000D02*
X109385000Y-107070000D01*
X101135000Y-47740000D02*
X101135000Y-44680000D01*
X107665000Y-56270000D02*
X106835000Y-56270000D01*
X110875000Y-47740000D02*
X110875000Y-44680000D01*
X105215000Y-56270000D02*
X104685000Y-56270000D01*
X101125000Y-56270000D02*
X101125000Y-51550000D01*
X110875000Y-56270000D02*
X110875000Y-51550000D01*
X110875000Y-56270000D02*
X109385000Y-56270000D01*
X110875000Y-44680000D02*
X101135000Y-44680000D01*
X102315000Y-56270000D02*
X101135000Y-56270000D01*
X137160000Y-132080000D02*
X125730000Y-132080000D01*
X125730000Y-119380000D02*
X137160000Y-119380000D01*
X125730000Y-132080000D02*
X125730000Y-119380000D01*
X137160000Y-119380000D02*
X137160000Y-132080000D01*
X60075000Y-132470000D02*
X58585000Y-132470000D01*
X60075000Y-132470000D02*
X60075000Y-127750000D01*
X56865000Y-132470000D02*
X56035000Y-132470000D01*
X54415000Y-132470000D02*
X53885000Y-132470000D01*
X50325000Y-132470000D02*
X50325000Y-127750000D01*
X60075000Y-120880000D02*
X50335000Y-120880000D01*
X60075000Y-123940000D02*
X60075000Y-120880000D01*
X50335000Y-123940000D02*
X50335000Y-120880000D01*
X51515000Y-132470000D02*
X50335000Y-132470000D01*
X110875000Y-212840000D02*
X110875000Y-209780000D01*
X101135000Y-212840000D02*
X101135000Y-209780000D01*
X110875000Y-221370000D02*
X109385000Y-221370000D01*
X105215000Y-221370000D02*
X104685000Y-221370000D01*
X110875000Y-221370000D02*
X110875000Y-216650000D01*
X107665000Y-221370000D02*
X106835000Y-221370000D01*
X102315000Y-221370000D02*
X101135000Y-221370000D01*
X101125000Y-221370000D02*
X101125000Y-216650000D01*
X110875000Y-209780000D02*
X101135000Y-209780000D01*
X161675000Y-120880000D02*
X151935000Y-120880000D01*
X161675000Y-132470000D02*
X160185000Y-132470000D01*
X161675000Y-132470000D02*
X161675000Y-127750000D01*
X156015000Y-132470000D02*
X155485000Y-132470000D01*
X161675000Y-123940000D02*
X161675000Y-120880000D01*
X151935000Y-123940000D02*
X151935000Y-120880000D01*
X158465000Y-132470000D02*
X157635000Y-132470000D01*
X151925000Y-132470000D02*
X151925000Y-127750000D01*
X153115000Y-132470000D02*
X151935000Y-132470000D01*
X72550000Y-195970000D02*
X72550000Y-191250000D01*
X76640000Y-195970000D02*
X76110000Y-195970000D01*
X72560000Y-187440000D02*
X72560000Y-184380000D01*
X82300000Y-195970000D02*
X82300000Y-191250000D01*
X82300000Y-195970000D02*
X80810000Y-195970000D01*
X82300000Y-187440000D02*
X82300000Y-184380000D01*
X73740000Y-195970000D02*
X72560000Y-195970000D01*
X79090000Y-195970000D02*
X78260000Y-195970000D01*
X82300000Y-184380000D02*
X72560000Y-184380000D01*
X162365000Y-221370000D02*
X161835000Y-221370000D01*
X168025000Y-221370000D02*
X166535000Y-221370000D01*
X158275000Y-221370000D02*
X158275000Y-216650000D01*
X168025000Y-212840000D02*
X168025000Y-209780000D01*
X164815000Y-221370000D02*
X163985000Y-221370000D01*
X158285000Y-212840000D02*
X158285000Y-209780000D01*
X168025000Y-209780000D02*
X158285000Y-209780000D01*
X168025000Y-221370000D02*
X168025000Y-216650000D01*
X159465000Y-221370000D02*
X158285000Y-221370000D01*
X77145000Y-119380000D02*
X84145000Y-119380000D01*
X84145000Y-119380000D02*
X84145000Y-132080000D01*
X77145000Y-132080000D02*
X77145000Y-119380000D01*
X84145000Y-132080000D02*
X77145000Y-132080000D01*
X55174289Y-86314419D02*
X51493091Y-82633221D01*
D12*
X54537893Y-74222893D02*
X55952107Y-75637107D01*
X55315711Y-63545581D02*
X43860581Y-75000711D01*
X43860581Y-75000711D02*
X49068422Y-80208552D01*
D11*
X66629419Y-74859289D02*
X62948221Y-71178091D01*
D12*
X60523552Y-68753422D02*
X55315711Y-63545581D01*
X55174289Y-86314419D02*
X55598553Y-85890155D01*
X55952107Y-74222893D02*
X54537893Y-75637107D01*
X66205155Y-75283553D02*
X66629419Y-74859289D01*
X55598553Y-85890155D02*
X66205155Y-75283553D01*
D13*
X59245000Y-74930000D02*
G75*
G03*
X59245000Y-74930000I-4000000J0D01*
G01*
D11*
X48065000Y-221370000D02*
X47535000Y-221370000D01*
X53725000Y-221370000D02*
X53725000Y-216650000D01*
X53725000Y-209780000D02*
X43985000Y-209780000D01*
X50515000Y-221370000D02*
X49685000Y-221370000D01*
X45165000Y-221370000D02*
X43985000Y-221370000D01*
X53725000Y-212840000D02*
X53725000Y-209780000D01*
X43975000Y-221370000D02*
X43975000Y-216650000D01*
X53725000Y-221370000D02*
X52235000Y-221370000D01*
X43985000Y-212840000D02*
X43985000Y-209780000D01*
X139450000Y-195970000D02*
X137960000Y-195970000D01*
X139450000Y-184380000D02*
X129710000Y-184380000D01*
X136240000Y-195970000D02*
X135410000Y-195970000D01*
X139450000Y-195970000D02*
X139450000Y-191250000D01*
X129700000Y-195970000D02*
X129700000Y-191250000D01*
X139450000Y-187440000D02*
X139450000Y-184380000D01*
X129710000Y-187440000D02*
X129710000Y-184380000D01*
X133790000Y-195970000D02*
X133260000Y-195970000D01*
X130890000Y-195970000D02*
X129710000Y-195970000D01*
D12*
X157198553Y-85890155D02*
X167805155Y-75283553D01*
X156915711Y-63545581D02*
X145460581Y-75000711D01*
X156774289Y-86314419D02*
X157198553Y-85890155D01*
D11*
X156774289Y-86314419D02*
X153093091Y-82633221D01*
X168229419Y-74859289D02*
X164548221Y-71178091D01*
D12*
X167805155Y-75283553D02*
X168229419Y-74859289D01*
X145460581Y-75000711D02*
X150668422Y-80208552D01*
X157552107Y-74222893D02*
X156137893Y-75637107D01*
X162123552Y-68753422D02*
X156915711Y-63545581D01*
X156137893Y-74222893D02*
X157552107Y-75637107D01*
D13*
X160845000Y-74930000D02*
G75*
G03*
X160845000Y-74930000I-4000000J0D01*
G01*
%LPC*%
D14*
X110805000Y-100450000D03*
X101205000Y-100450000D03*
D15*
X103505000Y-107950000D03*
D16*
X106005000Y-107950000D03*
X108505000Y-107950000D03*
D14*
X101205000Y-49650000D03*
X110805000Y-49650000D03*
D15*
X103505000Y-57150000D03*
D16*
X106005000Y-57150000D03*
X108505000Y-57150000D03*
D17*
X129030000Y-130430000D03*
X129030000Y-125730000D03*
X129030000Y-121030000D03*
X133860000Y-130430000D03*
X133860000Y-125730000D03*
X133860000Y-121030000D03*
D14*
X50405000Y-125850000D03*
X60005000Y-125850000D03*
D15*
X52705000Y-133350000D03*
D16*
X55205000Y-133350000D03*
X57705000Y-133350000D03*
D14*
X110805000Y-214750000D03*
X101205000Y-214750000D03*
D15*
X103505000Y-222250000D03*
D16*
X106005000Y-222250000D03*
X108505000Y-222250000D03*
D14*
X161605000Y-125850000D03*
X152005000Y-125850000D03*
D15*
X154305000Y-133350000D03*
D16*
X156805000Y-133350000D03*
X159305000Y-133350000D03*
D14*
X82230000Y-189350000D03*
X72630000Y-189350000D03*
D15*
X74930000Y-196850000D03*
D16*
X77430000Y-196850000D03*
X79930000Y-196850000D03*
D14*
X158355000Y-214750000D03*
X167955000Y-214750000D03*
D15*
X160655000Y-222250000D03*
D16*
X163155000Y-222250000D03*
X165655000Y-222250000D03*
D17*
X80645000Y-130430000D03*
X80645000Y-125730000D03*
X80645000Y-121030000D03*
D18*
X61679672Y-70050963D03*
X50365963Y-81364672D03*
D19*
X45239439Y-71995507D03*
X47007206Y-70227740D03*
X48774973Y-68459973D03*
X50542740Y-66692206D03*
X52310507Y-64924439D03*
X65250561Y-77864493D03*
X63482794Y-79632260D03*
X61715027Y-81400027D03*
X59947260Y-83167794D03*
X58179493Y-84935561D03*
D14*
X44055000Y-214750000D03*
X53655000Y-214750000D03*
D15*
X46355000Y-222250000D03*
D16*
X48855000Y-222250000D03*
X51355000Y-222250000D03*
D14*
X129780000Y-189350000D03*
X139380000Y-189350000D03*
D15*
X132080000Y-196850000D03*
D16*
X134580000Y-196850000D03*
X137080000Y-196850000D03*
D18*
X163279672Y-70050963D03*
X151965963Y-81364672D03*
D19*
X146839439Y-71995507D03*
X148607206Y-70227740D03*
X150374973Y-68459973D03*
X152142740Y-66692206D03*
X153910507Y-64924439D03*
X166850561Y-77864493D03*
X165082794Y-79632260D03*
X163315027Y-81400027D03*
X161547260Y-83167794D03*
X159779493Y-84935561D03*
D20*
X127000000Y-171440000D03*
X127000000Y-173980000D03*
X127000000Y-176520000D03*
G36*
G01*
X165330000Y-206720000D02*
X163640000Y-206720000D01*
G75*
G02*
X163390000Y-206470000I0J250000D01*
G01*
X163390000Y-205230000D01*
G75*
G02*
X163640000Y-204980000I250000J0D01*
G01*
X165330000Y-204980000D01*
G75*
G02*
X165580000Y-205230000I0J-250000D01*
G01*
X165580000Y-206470000D01*
G75*
G02*
X165330000Y-206720000I-250000J0D01*
G01*
G37*
D21*
X164485000Y-203310000D03*
D22*
X62865000Y-196850000D03*
X55245000Y-196850000D03*
D20*
X119507000Y-138176000D03*
X119507000Y-140716000D03*
X119507000Y-143256000D03*
D23*
X138303000Y-81581000D03*
X138303000Y-76581000D03*
D24*
X144145000Y-52705000D03*
D25*
X74295000Y-204470000D03*
D23*
X71795000Y-204470000D03*
D24*
X144780000Y-108585000D03*
G36*
G01*
X165350000Y-110090000D02*
X163660000Y-110090000D01*
G75*
G02*
X163410000Y-109840000I0J250000D01*
G01*
X163410000Y-108600000D01*
G75*
G02*
X163660000Y-108350000I250000J0D01*
G01*
X165350000Y-108350000D01*
G75*
G02*
X165600000Y-108600000I0J-250000D01*
G01*
X165600000Y-109840000D01*
G75*
G02*
X165350000Y-110090000I-250000J0D01*
G01*
G37*
D21*
X164505000Y-106680000D03*
X164505000Y-104140000D03*
D24*
X67945000Y-151130000D03*
X161925000Y-89535000D03*
D23*
X138430000Y-93646000D03*
X138430000Y-88646000D03*
G36*
G01*
X165330000Y-187560000D02*
X163640000Y-187560000D01*
G75*
G02*
X163390000Y-187310000I0J250000D01*
G01*
X163390000Y-186070000D01*
G75*
G02*
X163640000Y-185820000I250000J0D01*
G01*
X165330000Y-185820000D01*
G75*
G02*
X165580000Y-186070000I0J-250000D01*
G01*
X165580000Y-187310000D01*
G75*
G02*
X165330000Y-187560000I-250000J0D01*
G01*
G37*
D21*
X164485000Y-184150000D03*
X164485000Y-181610000D03*
X164485000Y-179070000D03*
D25*
X82275000Y-204470000D03*
D23*
X79775000Y-204470000D03*
D24*
X60325000Y-89535000D03*
X107315000Y-193040000D03*
D20*
X85090000Y-171450000D03*
X85090000Y-173990000D03*
X85090000Y-176530000D03*
D23*
X88392000Y-81621000D03*
X88392000Y-76621000D03*
G36*
G01*
X46800000Y-53740000D02*
X48490000Y-53740000D01*
G75*
G02*
X48740000Y-53990000I0J-250000D01*
G01*
X48740000Y-55230000D01*
G75*
G02*
X48490000Y-55480000I-250000J0D01*
G01*
X46800000Y-55480000D01*
G75*
G02*
X46550000Y-55230000I0J250000D01*
G01*
X46550000Y-53990000D01*
G75*
G02*
X46800000Y-53740000I250000J0D01*
G01*
G37*
D21*
X47645000Y-57150000D03*
X47645000Y-59690000D03*
G36*
G01*
X165310000Y-146920000D02*
X163620000Y-146920000D01*
G75*
G02*
X163370000Y-146670000I0J250000D01*
G01*
X163370000Y-145430000D01*
G75*
G02*
X163620000Y-145180000I250000J0D01*
G01*
X165310000Y-145180000D01*
G75*
G02*
X165560000Y-145430000I0J-250000D01*
G01*
X165560000Y-146670000D01*
G75*
G02*
X165310000Y-146920000I-250000J0D01*
G01*
G37*
X164465000Y-143510000D03*
D24*
X67945000Y-140970000D03*
D20*
X92583000Y-138166000D03*
X92583000Y-140706000D03*
X92583000Y-143246000D03*
D24*
X93980000Y-108585000D03*
X69215000Y-62230000D03*
D23*
X149549800Y-61264800D03*
X152049800Y-61264800D03*
G36*
G01*
X71155000Y-216320000D02*
X72355000Y-216320000D01*
G75*
G02*
X72605000Y-216570000I0J-250000D01*
G01*
X72605000Y-217770000D01*
G75*
G02*
X72355000Y-218020000I-250000J0D01*
G01*
X71155000Y-218020000D01*
G75*
G02*
X70905000Y-217770000I0J250000D01*
G01*
X70905000Y-216570000D01*
G75*
G02*
X71155000Y-216320000I250000J0D01*
G01*
G37*
D26*
X71755000Y-219710000D03*
X74295000Y-217170000D03*
X74295000Y-219710000D03*
X76835000Y-217170000D03*
X76835000Y-219710000D03*
X79375000Y-217170000D03*
X79375000Y-219710000D03*
X81915000Y-217170000D03*
X81915000Y-219710000D03*
G36*
G01*
X165310000Y-63100000D02*
X163620000Y-63100000D01*
G75*
G02*
X163370000Y-62850000I0J250000D01*
G01*
X163370000Y-61610000D01*
G75*
G02*
X163620000Y-61360000I250000J0D01*
G01*
X165310000Y-61360000D01*
G75*
G02*
X165560000Y-61610000I0J-250000D01*
G01*
X165560000Y-62850000D01*
G75*
G02*
X165310000Y-63100000I-250000J0D01*
G01*
G37*
D21*
X164465000Y-59690000D03*
X164465000Y-57150000D03*
X164465000Y-54610000D03*
D24*
X100965000Y-193040000D03*
D23*
X88392000Y-93773000D03*
X88392000Y-88773000D03*
M02*
