M48
; DRILL file {KiCad 6.0.5+dfsg-1~bpo11+1} date Thu Jul 21 18:26:45 2022
; FORMAT={-:-/ absolute / metric / decimal}
; #@! TF.CreationDate,2022-07-21T18:26:45+00:00
; #@! TF.GenerationSoftware,Kicad,Pcbnew,6.0.5+dfsg-1~bpo11+1
; #@! TF.FileFunction,Plated,1,2,PTH
FMAT,2
METRIC
; #@! TA.AperFunction,Plated,PTH,ViaDrill
T1C0.400
; #@! TA.AperFunction,Plated,PTH,ViaDrill
T2C0.500
; #@! TA.AperFunction,Plated,PTH,ComponentDrill
T3C0.800
; #@! TA.AperFunction,Plated,PTH,ComponentDrill
T4C0.900
; #@! TA.AperFunction,Plated,PTH,ComponentDrill
T5C1.000
; #@! TA.AperFunction,Plated,PTH,ComponentDrill
T6C1.100
; #@! TA.AperFunction,Plated,PTH,ComponentDrill
T7C1.190
; #@! TA.AperFunction,Plated,PTH,ComponentDrill
T8C1.300
; #@! TA.AperFunction,Plated,PTH,ComponentDrill
T9C1.850
; #@! TA.AperFunction,Plated,PTH,ComponentDrill
T10C2.000
%
G90
G05
T1
X89.281Y-78.486
X117.729Y-69.85
T2
X55.245Y-105.156
X59.69Y-52.776
X62.357Y-135.382
X65.151Y-128.27
X67.222Y-97.252
X67.301Y-127.981
X67.31Y-108.331
X67.425Y-124.091
X67.945Y-79.756
X67.945Y-118.999
X68.072Y-111.887
X68.199Y-122.809
X68.228Y-88.744
X68.326Y-77.724
X71.501Y-173.99
X72.898Y-54.991
X73.025Y-122.301
X73.482Y-146.355
X73.787Y-68.58
X73.787Y-85.09
X73.787Y-94.742
X73.85Y-62.674
X74.041Y-115.062
X74.295Y-99.06
X74.803Y-105.029
X75.311Y-111.506
X75.438Y-137.033
X76.784Y-146.406
X77.851Y-118.872
X79.883Y-111.506
X80.899Y-117.856
X82.296Y-183.642
X83.002Y-52.705
X83.947Y-108.966
X84.455Y-99.314
X84.709Y-68.58
X84.709Y-85.09
X84.709Y-115.062
X84.709Y-134.112
X84.709Y-166.624
X85.217Y-93.98
X86.106Y-97.663
X86.741Y-135.89
X86.868Y-169.926
X87.935Y-126.797
X88.646Y-184.023
X89.027Y-130.556
X89.027Y-178.816
X90.17Y-173.99
X90.297Y-125.222
X90.297Y-163.068
X90.297Y-166.624
X90.551Y-169.926
X91.059Y-101.346
X94.615Y-133.096
X94.869Y-185.42
X95.111Y-122.555
X95.111Y-124.333
X95.885Y-193.04
X96.139Y-177.546
X99.441Y-126.365
X100.965Y-130.81
X100.965Y-140.97
X100.965Y-157.48
X100.965Y-170.18
X100.965Y-187.96
X104.44Y-119.213
X105.537Y-60.706
X106.299Y-137.033
X106.553Y-121.666
X107.635Y-118.364
X111.125Y-130.81
X111.125Y-140.97
X111.125Y-157.48
X111.125Y-170.18
X111.125Y-187.96
X112.014Y-122.428
X113.665Y-109.093
X116.332Y-86.741
X116.332Y-135.89
X117.602Y-124.46
X117.856Y-107.442
X117.983Y-97.536
X117.983Y-109.728
X118.11Y-88.265
X118.237Y-77.724
X118.237Y-86.741
X118.489Y-111.654
X120.152Y-225.285
X121.793Y-163.068
X121.793Y-166.624
X121.793Y-223.266
X121.92Y-173.99
X122.047Y-195.326
X122.047Y-196.85
X122.301Y-185.42
X122.809Y-181.102
X123.698Y-122.555
X123.825Y-94.488
X123.952Y-177.419
X124.079Y-68.58
X124.079Y-115.062
X124.333Y-85.09
X124.333Y-99.06
X124.587Y-107.442
X124.841Y-105.029
X124.968Y-108.839
X125.349Y-111.506
X127.127Y-119.38
X129.667Y-111.506
X130.746Y-108.521
X131.191Y-118.11
X134.747Y-99.314
X135.001Y-68.58
X135.001Y-85.09
X135.001Y-115.062
X135.255Y-92.964
X136.144Y-97.536
X141.351Y-101.346
X147.701Y-107.442
X155.575Y-105.156
X161.925Y-111.252
X162.179Y-135.509
X169.545Y-195.072
X170.813Y-161.214
T3
X71.795Y-204.47
X74.295Y-204.47
X79.775Y-204.47
X82.275Y-204.47
X85.09Y-171.45
X85.09Y-173.99
X85.09Y-176.53
X88.392Y-76.621
X88.392Y-81.621
X88.392Y-88.773
X88.392Y-93.773
X92.583Y-138.166
X92.583Y-140.706
X92.583Y-143.246
X119.507Y-138.176
X119.507Y-140.716
X119.507Y-143.256
X127.0Y-171.44
X127.0Y-173.98
X127.0Y-176.52
X138.303Y-76.581
X138.303Y-81.581
X138.43Y-88.646
X138.43Y-93.646
X149.55Y-61.265
X152.05Y-61.265
T4
X45.239Y-71.996
X47.007Y-70.228
X48.775Y-68.46
X50.543Y-66.692
X52.311Y-64.924
X58.179Y-84.936
X59.947Y-83.168
X61.715Y-81.4
X63.483Y-79.632
X65.251Y-77.864
X146.839Y-71.996
X148.607Y-70.228
X150.375Y-68.46
X152.143Y-66.692
X153.911Y-64.924
X159.779Y-84.936
X161.547Y-83.168
X163.315Y-81.4
X165.083Y-79.632
X166.851Y-77.864
T5
X46.355Y-222.25
X48.855Y-222.25
X51.355Y-222.25
X52.705Y-133.35
X55.205Y-133.35
X57.705Y-133.35
X60.325Y-89.535
X67.945Y-140.97
X67.945Y-151.13
X69.215Y-62.23
X71.755Y-217.17
X71.755Y-219.71
X74.295Y-217.17
X74.295Y-219.71
X74.93Y-196.85
X76.835Y-217.17
X76.835Y-219.71
X77.43Y-196.85
X79.375Y-217.17
X79.375Y-219.71
X79.93Y-196.85
X81.915Y-217.17
X81.915Y-219.71
X93.98Y-108.585
X100.965Y-193.04
X103.505Y-57.15
X103.505Y-107.95
X103.505Y-222.25
X106.005Y-57.15
X106.005Y-107.95
X106.005Y-222.25
X107.315Y-193.04
X108.505Y-57.15
X108.505Y-107.95
X108.505Y-222.25
X132.08Y-196.85
X134.58Y-196.85
X137.08Y-196.85
X144.145Y-52.705
X144.78Y-108.585
X154.305Y-133.35
X156.805Y-133.35
X159.305Y-133.35
X160.655Y-222.25
X161.925Y-89.535
X163.155Y-222.25
X165.655Y-222.25
T7
X47.645Y-54.61
X47.645Y-57.15
X47.645Y-59.69
X164.465Y-54.61
X164.465Y-57.15
X164.465Y-59.69
X164.465Y-62.23
X164.465Y-143.51
X164.465Y-146.05
X164.485Y-179.07
X164.485Y-181.61
X164.485Y-184.15
X164.485Y-186.69
X164.485Y-203.31
X164.485Y-205.85
X164.505Y-104.14
X164.505Y-106.68
X164.505Y-109.22
T8
X55.245Y-196.85
X62.865Y-196.85
T9
X80.645Y-121.03
X80.645Y-125.73
X80.645Y-130.43
X129.03Y-121.03
X129.03Y-125.73
X129.03Y-130.43
X133.86Y-121.03
X133.86Y-125.73
X133.86Y-130.43
T10
X50.366Y-81.365
X61.68Y-70.051
X151.966Y-81.365
X163.28Y-70.051
T6
X44.055Y-215.1G85X44.055Y-214.4
G05
X50.405Y-126.2G85X50.405Y-125.5
G05
X53.655Y-215.1G85X53.655Y-214.4
G05
X60.005Y-126.2G85X60.005Y-125.5
G05
X72.63Y-189.7G85X72.63Y-189.0
G05
X82.23Y-189.7G85X82.23Y-189.0
G05
X101.205Y-50.0G85X101.205Y-49.3
G05
X101.205Y-100.8G85X101.205Y-100.1
G05
X101.205Y-215.1G85X101.205Y-214.4
G05
X110.805Y-50.0G85X110.805Y-49.3
G05
X110.805Y-100.8G85X110.805Y-100.1
G05
X110.805Y-215.1G85X110.805Y-214.4
G05
X129.78Y-189.7G85X129.78Y-189.0
G05
X139.38Y-189.7G85X139.38Y-189.0
G05
X152.005Y-126.2G85X152.005Y-125.5
G05
X158.355Y-215.1G85X158.355Y-214.4
G05
X161.605Y-126.2G85X161.605Y-125.5
G05
X167.955Y-215.1G85X167.955Y-214.4
G05
T0
M30
