%FSLAX45Y45*%
G04 Gerber Fmt 4.5, Leading zero omitted, Abs format (unit mm)*
G04 Created by KiCad (PCBNEW 6.0.5+dfsg-1~bpo11+1) date 2022-08-14 17:08:05*
%MOMM*%
%LPD*%
G01*
G04 APERTURE LIST*
%TA.AperFunction,Profile*%
%ADD10C,0.050000*%
%TD*%
%ADD11C,0.200000*%
G04 APERTURE END LIST*
D10*
X17208500Y-4191000D02*
X4000500Y-4191000D01*
X17208500Y-22733000D02*
X17208500Y-4191000D01*
X4000500Y-4191000D02*
X4000500Y-22733000D01*
X4000500Y-22733000D02*
X17208500Y-22733000D01*
D11*
X4255619Y-23045976D02*
X4255619Y-22845976D01*
X4303238Y-22845976D01*
X4331810Y-22855500D01*
X4350857Y-22874548D01*
X4360381Y-22893595D01*
X4369905Y-22931690D01*
X4369905Y-22960262D01*
X4360381Y-22998357D01*
X4350857Y-23017405D01*
X4331810Y-23036452D01*
X4303238Y-23045976D01*
X4255619Y-23045976D01*
X4455619Y-23045976D02*
X4455619Y-22912643D01*
X4455619Y-22950738D02*
X4465143Y-22931690D01*
X4474667Y-22922167D01*
X4493714Y-22912643D01*
X4512762Y-22912643D01*
X4579429Y-23045976D02*
X4579429Y-22912643D01*
X4579429Y-22845976D02*
X4569905Y-22855500D01*
X4579429Y-22865024D01*
X4588952Y-22855500D01*
X4579429Y-22845976D01*
X4579429Y-22865024D01*
X4703238Y-23045976D02*
X4684190Y-23036452D01*
X4674667Y-23017405D01*
X4674667Y-22845976D01*
X4808000Y-23045976D02*
X4788952Y-23036452D01*
X4779429Y-23017405D01*
X4779429Y-22845976D01*
X5036571Y-23045976D02*
X5036571Y-22845976D01*
X5103238Y-22988833D01*
X5169905Y-22845976D01*
X5169905Y-23045976D01*
X5350857Y-23045976D02*
X5350857Y-22941214D01*
X5341333Y-22922167D01*
X5322286Y-22912643D01*
X5284190Y-22912643D01*
X5265143Y-22922167D01*
X5350857Y-23036452D02*
X5331810Y-23045976D01*
X5284190Y-23045976D01*
X5265143Y-23036452D01*
X5255619Y-23017405D01*
X5255619Y-22998357D01*
X5265143Y-22979309D01*
X5284190Y-22969786D01*
X5331810Y-22969786D01*
X5350857Y-22960262D01*
X5446095Y-22912643D02*
X5446095Y-23112643D01*
X5446095Y-22922167D02*
X5465143Y-22912643D01*
X5503238Y-22912643D01*
X5522286Y-22922167D01*
X5531810Y-22931690D01*
X5541333Y-22950738D01*
X5541333Y-23007881D01*
X5531810Y-23026928D01*
X5522286Y-23036452D01*
X5503238Y-23045976D01*
X5465143Y-23045976D01*
X5446095Y-23036452D01*
X5627048Y-23026928D02*
X5636571Y-23036452D01*
X5627048Y-23045976D01*
X5617524Y-23036452D01*
X5627048Y-23026928D01*
X5627048Y-23045976D01*
X5627048Y-22922167D02*
X5636571Y-22931690D01*
X5627048Y-22941214D01*
X5617524Y-22931690D01*
X5627048Y-22922167D01*
X5627048Y-22941214D01*
M02*
