G04 #@! TF.GenerationSoftware,KiCad,Pcbnew,6.0.5+dfsg-1~bpo11+1*
G04 #@! TF.CreationDate,2022-07-21T18:26:45+00:00*
G04 #@! TF.ProjectId,VCF_VCA_board,5643465f-5643-4415-9f62-6f6172642e6b,0*
G04 #@! TF.SameCoordinates,Original*
G04 #@! TF.FileFunction,Soldermask,Top*
G04 #@! TF.FilePolarity,Negative*
%FSLAX46Y46*%
G04 Gerber Fmt 4.6, Leading zero omitted, Abs format (unit mm)*
G04 Created by KiCad (PCBNEW 6.0.5+dfsg-1~bpo11+1) date 2022-07-21 18:26:45*
%MOMM*%
%LPD*%
G01*
G04 APERTURE LIST*
%ADD10O,2.720000X3.240000*%
%ADD11R,1.800000X1.800000*%
%ADD12C,1.800000*%
%ADD13C,2.500000*%
%ADD14C,3.000000*%
%ADD15C,1.451600*%
%ADD16C,1.440000*%
%ADD17O,2.190000X1.740000*%
%ADD18C,2.600000*%
%ADD19C,1.600000*%
%ADD20C,2.000000*%
%ADD21R,1.600000X1.600000*%
%ADD22C,1.700000*%
G04 APERTURE END LIST*
D10*
X110805000Y-100450000D03*
X101205000Y-100450000D03*
D11*
X103505000Y-107950000D03*
D12*
X106005000Y-107950000D03*
X108505000Y-107950000D03*
D10*
X101205000Y-49650000D03*
X110805000Y-49650000D03*
D11*
X103505000Y-57150000D03*
D12*
X106005000Y-57150000D03*
X108505000Y-57150000D03*
D13*
X129030000Y-130430000D03*
X129030000Y-125730000D03*
X129030000Y-121030000D03*
X133860000Y-130430000D03*
X133860000Y-125730000D03*
X133860000Y-121030000D03*
D10*
X50405000Y-125850000D03*
X60005000Y-125850000D03*
D11*
X52705000Y-133350000D03*
D12*
X55205000Y-133350000D03*
X57705000Y-133350000D03*
D10*
X110805000Y-214750000D03*
X101205000Y-214750000D03*
D11*
X103505000Y-222250000D03*
D12*
X106005000Y-222250000D03*
X108505000Y-222250000D03*
D10*
X161605000Y-125850000D03*
X152005000Y-125850000D03*
D11*
X154305000Y-133350000D03*
D12*
X156805000Y-133350000D03*
X159305000Y-133350000D03*
D10*
X82230000Y-189350000D03*
X72630000Y-189350000D03*
D11*
X74930000Y-196850000D03*
D12*
X77430000Y-196850000D03*
X79930000Y-196850000D03*
D10*
X158355000Y-214750000D03*
X167955000Y-214750000D03*
D11*
X160655000Y-222250000D03*
D12*
X163155000Y-222250000D03*
X165655000Y-222250000D03*
D13*
X80645000Y-130430000D03*
X80645000Y-125730000D03*
X80645000Y-121030000D03*
D14*
X61679672Y-70050963D03*
X50365963Y-81364672D03*
D15*
X45239439Y-71995507D03*
X47007206Y-70227740D03*
X48774973Y-68459973D03*
X50542740Y-66692206D03*
X52310507Y-64924439D03*
X65250561Y-77864493D03*
X63482794Y-79632260D03*
X61715027Y-81400027D03*
X59947260Y-83167794D03*
X58179493Y-84935561D03*
D10*
X44055000Y-214750000D03*
X53655000Y-214750000D03*
D11*
X46355000Y-222250000D03*
D12*
X48855000Y-222250000D03*
X51355000Y-222250000D03*
D10*
X129780000Y-189350000D03*
X139380000Y-189350000D03*
D11*
X132080000Y-196850000D03*
D12*
X134580000Y-196850000D03*
X137080000Y-196850000D03*
D14*
X163279672Y-70050963D03*
X151965963Y-81364672D03*
D15*
X146839439Y-71995507D03*
X148607206Y-70227740D03*
X150374973Y-68459973D03*
X152142740Y-66692206D03*
X153910507Y-64924439D03*
X166850561Y-77864493D03*
X165082794Y-79632260D03*
X163315027Y-81400027D03*
X161547260Y-83167794D03*
X159779493Y-84935561D03*
D16*
X127000000Y-171440000D03*
X127000000Y-173980000D03*
X127000000Y-176520000D03*
G36*
G01*
X165330000Y-206720000D02*
X163640000Y-206720000D01*
G75*
G02*
X163390000Y-206470000I0J250000D01*
G01*
X163390000Y-205230000D01*
G75*
G02*
X163640000Y-204980000I250000J0D01*
G01*
X165330000Y-204980000D01*
G75*
G02*
X165580000Y-205230000I0J-250000D01*
G01*
X165580000Y-206470000D01*
G75*
G02*
X165330000Y-206720000I-250000J0D01*
G01*
G37*
D17*
X164485000Y-203310000D03*
D18*
X62865000Y-196850000D03*
X55245000Y-196850000D03*
D16*
X119507000Y-138176000D03*
X119507000Y-140716000D03*
X119507000Y-143256000D03*
D19*
X138303000Y-81581000D03*
X138303000Y-76581000D03*
D20*
X144145000Y-52705000D03*
D21*
X74295000Y-204470000D03*
D19*
X71795000Y-204470000D03*
D20*
X144780000Y-108585000D03*
G36*
G01*
X165350000Y-110090000D02*
X163660000Y-110090000D01*
G75*
G02*
X163410000Y-109840000I0J250000D01*
G01*
X163410000Y-108600000D01*
G75*
G02*
X163660000Y-108350000I250000J0D01*
G01*
X165350000Y-108350000D01*
G75*
G02*
X165600000Y-108600000I0J-250000D01*
G01*
X165600000Y-109840000D01*
G75*
G02*
X165350000Y-110090000I-250000J0D01*
G01*
G37*
D17*
X164505000Y-106680000D03*
X164505000Y-104140000D03*
D20*
X67945000Y-151130000D03*
X161925000Y-89535000D03*
D19*
X138430000Y-93646000D03*
X138430000Y-88646000D03*
G36*
G01*
X165330000Y-187560000D02*
X163640000Y-187560000D01*
G75*
G02*
X163390000Y-187310000I0J250000D01*
G01*
X163390000Y-186070000D01*
G75*
G02*
X163640000Y-185820000I250000J0D01*
G01*
X165330000Y-185820000D01*
G75*
G02*
X165580000Y-186070000I0J-250000D01*
G01*
X165580000Y-187310000D01*
G75*
G02*
X165330000Y-187560000I-250000J0D01*
G01*
G37*
D17*
X164485000Y-184150000D03*
X164485000Y-181610000D03*
X164485000Y-179070000D03*
D21*
X82275000Y-204470000D03*
D19*
X79775000Y-204470000D03*
D20*
X60325000Y-89535000D03*
X107315000Y-193040000D03*
D16*
X85090000Y-171450000D03*
X85090000Y-173990000D03*
X85090000Y-176530000D03*
D19*
X88392000Y-81621000D03*
X88392000Y-76621000D03*
G36*
G01*
X46800000Y-53740000D02*
X48490000Y-53740000D01*
G75*
G02*
X48740000Y-53990000I0J-250000D01*
G01*
X48740000Y-55230000D01*
G75*
G02*
X48490000Y-55480000I-250000J0D01*
G01*
X46800000Y-55480000D01*
G75*
G02*
X46550000Y-55230000I0J250000D01*
G01*
X46550000Y-53990000D01*
G75*
G02*
X46800000Y-53740000I250000J0D01*
G01*
G37*
D17*
X47645000Y-57150000D03*
X47645000Y-59690000D03*
G36*
G01*
X165310000Y-146920000D02*
X163620000Y-146920000D01*
G75*
G02*
X163370000Y-146670000I0J250000D01*
G01*
X163370000Y-145430000D01*
G75*
G02*
X163620000Y-145180000I250000J0D01*
G01*
X165310000Y-145180000D01*
G75*
G02*
X165560000Y-145430000I0J-250000D01*
G01*
X165560000Y-146670000D01*
G75*
G02*
X165310000Y-146920000I-250000J0D01*
G01*
G37*
X164465000Y-143510000D03*
D20*
X67945000Y-140970000D03*
D16*
X92583000Y-138166000D03*
X92583000Y-140706000D03*
X92583000Y-143246000D03*
D20*
X93980000Y-108585000D03*
X69215000Y-62230000D03*
D19*
X149549800Y-61264800D03*
X152049800Y-61264800D03*
G36*
G01*
X71155000Y-216320000D02*
X72355000Y-216320000D01*
G75*
G02*
X72605000Y-216570000I0J-250000D01*
G01*
X72605000Y-217770000D01*
G75*
G02*
X72355000Y-218020000I-250000J0D01*
G01*
X71155000Y-218020000D01*
G75*
G02*
X70905000Y-217770000I0J250000D01*
G01*
X70905000Y-216570000D01*
G75*
G02*
X71155000Y-216320000I250000J0D01*
G01*
G37*
D22*
X71755000Y-219710000D03*
X74295000Y-217170000D03*
X74295000Y-219710000D03*
X76835000Y-217170000D03*
X76835000Y-219710000D03*
X79375000Y-217170000D03*
X79375000Y-219710000D03*
X81915000Y-217170000D03*
X81915000Y-219710000D03*
G36*
G01*
X165310000Y-63100000D02*
X163620000Y-63100000D01*
G75*
G02*
X163370000Y-62850000I0J250000D01*
G01*
X163370000Y-61610000D01*
G75*
G02*
X163620000Y-61360000I250000J0D01*
G01*
X165310000Y-61360000D01*
G75*
G02*
X165560000Y-61610000I0J-250000D01*
G01*
X165560000Y-62850000D01*
G75*
G02*
X165310000Y-63100000I-250000J0D01*
G01*
G37*
D17*
X164465000Y-59690000D03*
X164465000Y-57150000D03*
X164465000Y-54610000D03*
D20*
X100965000Y-193040000D03*
D19*
X88392000Y-93773000D03*
X88392000Y-88773000D03*
M02*
