G04 #@! TF.GenerationSoftware,KiCad,Pcbnew,6.0.5+dfsg-1~bpo11+1*
G04 #@! TF.CreationDate,2022-07-21T18:26:45+00:00*
G04 #@! TF.ProjectId,VCF_VCA_board,5643465f-5643-4415-9f62-6f6172642e6b,0*
G04 #@! TF.SameCoordinates,Original*
G04 #@! TF.FileFunction,Soldermask,Bot*
G04 #@! TF.FilePolarity,Negative*
%FSLAX46Y46*%
G04 Gerber Fmt 4.6, Leading zero omitted, Abs format (unit mm)*
G04 Created by KiCad (PCBNEW 6.0.5+dfsg-1~bpo11+1) date 2022-07-21 18:26:45*
%MOMM*%
%LPD*%
G01*
G04 APERTURE LIST*
%ADD10O,2.720000X3.240000*%
%ADD11R,1.800000X1.800000*%
%ADD12C,1.800000*%
%ADD13C,2.500000*%
%ADD14C,3.000000*%
%ADD15C,1.451600*%
%ADD16C,1.440000*%
%ADD17O,2.190000X1.740000*%
%ADD18R,1.200000X0.900000*%
%ADD19C,2.600000*%
%ADD20C,1.600000*%
%ADD21C,2.000000*%
%ADD22R,1.600000X1.600000*%
%ADD23C,1.700000*%
G04 APERTURE END LIST*
D10*
X110805000Y-100450000D03*
X101205000Y-100450000D03*
D11*
X103505000Y-107950000D03*
D12*
X106005000Y-107950000D03*
X108505000Y-107950000D03*
D10*
X101205000Y-49650000D03*
X110805000Y-49650000D03*
D11*
X103505000Y-57150000D03*
D12*
X106005000Y-57150000D03*
X108505000Y-57150000D03*
D13*
X129030000Y-130430000D03*
X129030000Y-125730000D03*
X129030000Y-121030000D03*
X133860000Y-130430000D03*
X133860000Y-125730000D03*
X133860000Y-121030000D03*
D10*
X50405000Y-125850000D03*
X60005000Y-125850000D03*
D11*
X52705000Y-133350000D03*
D12*
X55205000Y-133350000D03*
X57705000Y-133350000D03*
D10*
X110805000Y-214750000D03*
X101205000Y-214750000D03*
D11*
X103505000Y-222250000D03*
D12*
X106005000Y-222250000D03*
X108505000Y-222250000D03*
D10*
X161605000Y-125850000D03*
X152005000Y-125850000D03*
D11*
X154305000Y-133350000D03*
D12*
X156805000Y-133350000D03*
X159305000Y-133350000D03*
D10*
X82230000Y-189350000D03*
X72630000Y-189350000D03*
D11*
X74930000Y-196850000D03*
D12*
X77430000Y-196850000D03*
X79930000Y-196850000D03*
D10*
X158355000Y-214750000D03*
X167955000Y-214750000D03*
D11*
X160655000Y-222250000D03*
D12*
X163155000Y-222250000D03*
X165655000Y-222250000D03*
D13*
X80645000Y-130430000D03*
X80645000Y-125730000D03*
X80645000Y-121030000D03*
D14*
X61679672Y-70050963D03*
X50365963Y-81364672D03*
D15*
X45239439Y-71995507D03*
X47007206Y-70227740D03*
X48774973Y-68459973D03*
X50542740Y-66692206D03*
X52310507Y-64924439D03*
X65250561Y-77864493D03*
X63482794Y-79632260D03*
X61715027Y-81400027D03*
X59947260Y-83167794D03*
X58179493Y-84935561D03*
D10*
X44055000Y-214750000D03*
X53655000Y-214750000D03*
D11*
X46355000Y-222250000D03*
D12*
X48855000Y-222250000D03*
X51355000Y-222250000D03*
D10*
X129780000Y-189350000D03*
X139380000Y-189350000D03*
D11*
X132080000Y-196850000D03*
D12*
X134580000Y-196850000D03*
X137080000Y-196850000D03*
D14*
X163279672Y-70050963D03*
X151965963Y-81364672D03*
D15*
X146839439Y-71995507D03*
X148607206Y-70227740D03*
X150374973Y-68459973D03*
X152142740Y-66692206D03*
X153910507Y-64924439D03*
X166850561Y-77864493D03*
X165082794Y-79632260D03*
X163315027Y-81400027D03*
X161547260Y-83167794D03*
X159779493Y-84935561D03*
G36*
G01*
X128450000Y-97315000D02*
X128450000Y-98265000D01*
G75*
G02*
X128200000Y-98515000I-250000J0D01*
G01*
X127700000Y-98515000D01*
G75*
G02*
X127450000Y-98265000I0J250000D01*
G01*
X127450000Y-97315000D01*
G75*
G02*
X127700000Y-97065000I250000J0D01*
G01*
X128200000Y-97065000D01*
G75*
G02*
X128450000Y-97315000I0J-250000D01*
G01*
G37*
G36*
G01*
X126550000Y-97315000D02*
X126550000Y-98265000D01*
G75*
G02*
X126300000Y-98515000I-250000J0D01*
G01*
X125800000Y-98515000D01*
G75*
G02*
X125550000Y-98265000I0J250000D01*
G01*
X125550000Y-97315000D01*
G75*
G02*
X125800000Y-97065000I250000J0D01*
G01*
X126300000Y-97065000D01*
G75*
G02*
X126550000Y-97315000I0J-250000D01*
G01*
G37*
D16*
X127000000Y-171440000D03*
X127000000Y-173980000D03*
X127000000Y-176520000D03*
G36*
G01*
X165330000Y-206720000D02*
X163640000Y-206720000D01*
G75*
G02*
X163390000Y-206470000I0J250000D01*
G01*
X163390000Y-205230000D01*
G75*
G02*
X163640000Y-204980000I250000J0D01*
G01*
X165330000Y-204980000D01*
G75*
G02*
X165580000Y-205230000I0J-250000D01*
G01*
X165580000Y-206470000D01*
G75*
G02*
X165330000Y-206720000I-250000J0D01*
G01*
G37*
D17*
X164485000Y-203310000D03*
D18*
X144653000Y-74040000D03*
X144653000Y-70740000D03*
D19*
X62865000Y-196850000D03*
X55245000Y-196850000D03*
G36*
G01*
X72037000Y-104325000D02*
X72037000Y-105225000D01*
G75*
G02*
X71787000Y-105475000I-250000J0D01*
G01*
X71262000Y-105475000D01*
G75*
G02*
X71012000Y-105225000I0J250000D01*
G01*
X71012000Y-104325000D01*
G75*
G02*
X71262000Y-104075000I250000J0D01*
G01*
X71787000Y-104075000D01*
G75*
G02*
X72037000Y-104325000I0J-250000D01*
G01*
G37*
G36*
G01*
X70212000Y-104325000D02*
X70212000Y-105225000D01*
G75*
G02*
X69962000Y-105475000I-250000J0D01*
G01*
X69437000Y-105475000D01*
G75*
G02*
X69187000Y-105225000I0J250000D01*
G01*
X69187000Y-104325000D01*
G75*
G02*
X69437000Y-104075000I250000J0D01*
G01*
X69962000Y-104075000D01*
G75*
G02*
X70212000Y-104325000I0J-250000D01*
G01*
G37*
G36*
G01*
X118057000Y-149055000D02*
X118057000Y-148105000D01*
G75*
G02*
X118307000Y-147855000I250000J0D01*
G01*
X118807000Y-147855000D01*
G75*
G02*
X119057000Y-148105000I0J-250000D01*
G01*
X119057000Y-149055000D01*
G75*
G02*
X118807000Y-149305000I-250000J0D01*
G01*
X118307000Y-149305000D01*
G75*
G02*
X118057000Y-149055000I0J250000D01*
G01*
G37*
G36*
G01*
X119957000Y-149055000D02*
X119957000Y-148105000D01*
G75*
G02*
X120207000Y-147855000I250000J0D01*
G01*
X120707000Y-147855000D01*
G75*
G02*
X120957000Y-148105000I0J-250000D01*
G01*
X120957000Y-149055000D01*
G75*
G02*
X120707000Y-149305000I-250000J0D01*
G01*
X120207000Y-149305000D01*
G75*
G02*
X119957000Y-149055000I0J250000D01*
G01*
G37*
G36*
G01*
X133990000Y-76431000D02*
X133990000Y-76731000D01*
G75*
G02*
X133840000Y-76881000I-150000J0D01*
G01*
X132240000Y-76881000D01*
G75*
G02*
X132090000Y-76731000I0J150000D01*
G01*
X132090000Y-76431000D01*
G75*
G02*
X132240000Y-76281000I150000J0D01*
G01*
X133840000Y-76281000D01*
G75*
G02*
X133990000Y-76431000I0J-150000D01*
G01*
G37*
G36*
G01*
X133990000Y-77701000D02*
X133990000Y-78001000D01*
G75*
G02*
X133840000Y-78151000I-150000J0D01*
G01*
X132240000Y-78151000D01*
G75*
G02*
X132090000Y-78001000I0J150000D01*
G01*
X132090000Y-77701000D01*
G75*
G02*
X132240000Y-77551000I150000J0D01*
G01*
X133840000Y-77551000D01*
G75*
G02*
X133990000Y-77701000I0J-150000D01*
G01*
G37*
G36*
G01*
X133990000Y-78971000D02*
X133990000Y-79271000D01*
G75*
G02*
X133840000Y-79421000I-150000J0D01*
G01*
X132240000Y-79421000D01*
G75*
G02*
X132090000Y-79271000I0J150000D01*
G01*
X132090000Y-78971000D01*
G75*
G02*
X132240000Y-78821000I150000J0D01*
G01*
X133840000Y-78821000D01*
G75*
G02*
X133990000Y-78971000I0J-150000D01*
G01*
G37*
G36*
G01*
X133990000Y-80241000D02*
X133990000Y-80541000D01*
G75*
G02*
X133840000Y-80691000I-150000J0D01*
G01*
X132240000Y-80691000D01*
G75*
G02*
X132090000Y-80541000I0J150000D01*
G01*
X132090000Y-80241000D01*
G75*
G02*
X132240000Y-80091000I150000J0D01*
G01*
X133840000Y-80091000D01*
G75*
G02*
X133990000Y-80241000I0J-150000D01*
G01*
G37*
G36*
G01*
X126990000Y-80241000D02*
X126990000Y-80541000D01*
G75*
G02*
X126840000Y-80691000I-150000J0D01*
G01*
X125240000Y-80691000D01*
G75*
G02*
X125090000Y-80541000I0J150000D01*
G01*
X125090000Y-80241000D01*
G75*
G02*
X125240000Y-80091000I150000J0D01*
G01*
X126840000Y-80091000D01*
G75*
G02*
X126990000Y-80241000I0J-150000D01*
G01*
G37*
G36*
G01*
X126990000Y-78971000D02*
X126990000Y-79271000D01*
G75*
G02*
X126840000Y-79421000I-150000J0D01*
G01*
X125240000Y-79421000D01*
G75*
G02*
X125090000Y-79271000I0J150000D01*
G01*
X125090000Y-78971000D01*
G75*
G02*
X125240000Y-78821000I150000J0D01*
G01*
X126840000Y-78821000D01*
G75*
G02*
X126990000Y-78971000I0J-150000D01*
G01*
G37*
G36*
G01*
X126990000Y-77701000D02*
X126990000Y-78001000D01*
G75*
G02*
X126840000Y-78151000I-150000J0D01*
G01*
X125240000Y-78151000D01*
G75*
G02*
X125090000Y-78001000I0J150000D01*
G01*
X125090000Y-77701000D01*
G75*
G02*
X125240000Y-77551000I150000J0D01*
G01*
X126840000Y-77551000D01*
G75*
G02*
X126990000Y-77701000I0J-150000D01*
G01*
G37*
G36*
G01*
X126990000Y-76431000D02*
X126990000Y-76731000D01*
G75*
G02*
X126840000Y-76881000I-150000J0D01*
G01*
X125240000Y-76881000D01*
G75*
G02*
X125090000Y-76731000I0J150000D01*
G01*
X125090000Y-76431000D01*
G75*
G02*
X125240000Y-76281000I150000J0D01*
G01*
X126840000Y-76281000D01*
G75*
G02*
X126990000Y-76431000I0J-150000D01*
G01*
G37*
G36*
G01*
X122075000Y-97086000D02*
X122075000Y-97986000D01*
G75*
G02*
X121825000Y-98236000I-250000J0D01*
G01*
X121300000Y-98236000D01*
G75*
G02*
X121050000Y-97986000I0J250000D01*
G01*
X121050000Y-97086000D01*
G75*
G02*
X121300000Y-96836000I250000J0D01*
G01*
X121825000Y-96836000D01*
G75*
G02*
X122075000Y-97086000I0J-250000D01*
G01*
G37*
G36*
G01*
X120250000Y-97086000D02*
X120250000Y-97986000D01*
G75*
G02*
X120000000Y-98236000I-250000J0D01*
G01*
X119475000Y-98236000D01*
G75*
G02*
X119225000Y-97986000I0J250000D01*
G01*
X119225000Y-97086000D01*
G75*
G02*
X119475000Y-96836000I250000J0D01*
G01*
X120000000Y-96836000D01*
G75*
G02*
X120250000Y-97086000I0J-250000D01*
G01*
G37*
G36*
G01*
X118590000Y-70300000D02*
X118590000Y-69400000D01*
G75*
G02*
X118840000Y-69150000I250000J0D01*
G01*
X119365000Y-69150000D01*
G75*
G02*
X119615000Y-69400000I0J-250000D01*
G01*
X119615000Y-70300000D01*
G75*
G02*
X119365000Y-70550000I-250000J0D01*
G01*
X118840000Y-70550000D01*
G75*
G02*
X118590000Y-70300000I0J250000D01*
G01*
G37*
G36*
G01*
X120415000Y-70300000D02*
X120415000Y-69400000D01*
G75*
G02*
X120665000Y-69150000I250000J0D01*
G01*
X121190000Y-69150000D01*
G75*
G02*
X121440000Y-69400000I0J-250000D01*
G01*
X121440000Y-70300000D01*
G75*
G02*
X121190000Y-70550000I-250000J0D01*
G01*
X120665000Y-70550000D01*
G75*
G02*
X120415000Y-70300000I0J250000D01*
G01*
G37*
D18*
X114935000Y-148718000D03*
X114935000Y-152018000D03*
G36*
G01*
X150045000Y-54074000D02*
X150945000Y-54074000D01*
G75*
G02*
X151195000Y-54324000I0J-250000D01*
G01*
X151195000Y-54849000D01*
G75*
G02*
X150945000Y-55099000I-250000J0D01*
G01*
X150045000Y-55099000D01*
G75*
G02*
X149795000Y-54849000I0J250000D01*
G01*
X149795000Y-54324000D01*
G75*
G02*
X150045000Y-54074000I250000J0D01*
G01*
G37*
G36*
G01*
X150045000Y-55899000D02*
X150945000Y-55899000D01*
G75*
G02*
X151195000Y-56149000I0J-250000D01*
G01*
X151195000Y-56674000D01*
G75*
G02*
X150945000Y-56924000I-250000J0D01*
G01*
X150045000Y-56924000D01*
G75*
G02*
X149795000Y-56674000I0J250000D01*
G01*
X149795000Y-56149000D01*
G75*
G02*
X150045000Y-55899000I250000J0D01*
G01*
G37*
G36*
G01*
X94008000Y-184970000D02*
X94008000Y-185870000D01*
G75*
G02*
X93758000Y-186120000I-250000J0D01*
G01*
X93233000Y-186120000D01*
G75*
G02*
X92983000Y-185870000I0J250000D01*
G01*
X92983000Y-184970000D01*
G75*
G02*
X93233000Y-184720000I250000J0D01*
G01*
X93758000Y-184720000D01*
G75*
G02*
X94008000Y-184970000I0J-250000D01*
G01*
G37*
G36*
G01*
X92183000Y-184970000D02*
X92183000Y-185870000D01*
G75*
G02*
X91933000Y-186120000I-250000J0D01*
G01*
X91408000Y-186120000D01*
G75*
G02*
X91158000Y-185870000I0J250000D01*
G01*
X91158000Y-184970000D01*
G75*
G02*
X91408000Y-184720000I250000J0D01*
G01*
X91933000Y-184720000D01*
G75*
G02*
X92183000Y-184970000I0J-250000D01*
G01*
G37*
G36*
G01*
X139855000Y-107754000D02*
X139855000Y-108654000D01*
G75*
G02*
X139605000Y-108904000I-250000J0D01*
G01*
X139080000Y-108904000D01*
G75*
G02*
X138830000Y-108654000I0J250000D01*
G01*
X138830000Y-107754000D01*
G75*
G02*
X139080000Y-107504000I250000J0D01*
G01*
X139605000Y-107504000D01*
G75*
G02*
X139855000Y-107754000I0J-250000D01*
G01*
G37*
G36*
G01*
X138030000Y-107754000D02*
X138030000Y-108654000D01*
G75*
G02*
X137780000Y-108904000I-250000J0D01*
G01*
X137255000Y-108904000D01*
G75*
G02*
X137005000Y-108654000I0J250000D01*
G01*
X137005000Y-107754000D01*
G75*
G02*
X137255000Y-107504000I250000J0D01*
G01*
X137780000Y-107504000D01*
G75*
G02*
X138030000Y-107754000I0J-250000D01*
G01*
G37*
G36*
G01*
X110495000Y-122278000D02*
X110495000Y-122578000D01*
G75*
G02*
X110345000Y-122728000I-150000J0D01*
G01*
X108745000Y-122728000D01*
G75*
G02*
X108595000Y-122578000I0J150000D01*
G01*
X108595000Y-122278000D01*
G75*
G02*
X108745000Y-122128000I150000J0D01*
G01*
X110345000Y-122128000D01*
G75*
G02*
X110495000Y-122278000I0J-150000D01*
G01*
G37*
G36*
G01*
X110495000Y-123548000D02*
X110495000Y-123848000D01*
G75*
G02*
X110345000Y-123998000I-150000J0D01*
G01*
X108745000Y-123998000D01*
G75*
G02*
X108595000Y-123848000I0J150000D01*
G01*
X108595000Y-123548000D01*
G75*
G02*
X108745000Y-123398000I150000J0D01*
G01*
X110345000Y-123398000D01*
G75*
G02*
X110495000Y-123548000I0J-150000D01*
G01*
G37*
G36*
G01*
X110495000Y-124818000D02*
X110495000Y-125118000D01*
G75*
G02*
X110345000Y-125268000I-150000J0D01*
G01*
X108745000Y-125268000D01*
G75*
G02*
X108595000Y-125118000I0J150000D01*
G01*
X108595000Y-124818000D01*
G75*
G02*
X108745000Y-124668000I150000J0D01*
G01*
X110345000Y-124668000D01*
G75*
G02*
X110495000Y-124818000I0J-150000D01*
G01*
G37*
G36*
G01*
X110495000Y-126088000D02*
X110495000Y-126388000D01*
G75*
G02*
X110345000Y-126538000I-150000J0D01*
G01*
X108745000Y-126538000D01*
G75*
G02*
X108595000Y-126388000I0J150000D01*
G01*
X108595000Y-126088000D01*
G75*
G02*
X108745000Y-125938000I150000J0D01*
G01*
X110345000Y-125938000D01*
G75*
G02*
X110495000Y-126088000I0J-150000D01*
G01*
G37*
G36*
G01*
X103495000Y-126088000D02*
X103495000Y-126388000D01*
G75*
G02*
X103345000Y-126538000I-150000J0D01*
G01*
X101745000Y-126538000D01*
G75*
G02*
X101595000Y-126388000I0J150000D01*
G01*
X101595000Y-126088000D01*
G75*
G02*
X101745000Y-125938000I150000J0D01*
G01*
X103345000Y-125938000D01*
G75*
G02*
X103495000Y-126088000I0J-150000D01*
G01*
G37*
G36*
G01*
X103495000Y-124818000D02*
X103495000Y-125118000D01*
G75*
G02*
X103345000Y-125268000I-150000J0D01*
G01*
X101745000Y-125268000D01*
G75*
G02*
X101595000Y-125118000I0J150000D01*
G01*
X101595000Y-124818000D01*
G75*
G02*
X101745000Y-124668000I150000J0D01*
G01*
X103345000Y-124668000D01*
G75*
G02*
X103495000Y-124818000I0J-150000D01*
G01*
G37*
G36*
G01*
X103495000Y-123548000D02*
X103495000Y-123848000D01*
G75*
G02*
X103345000Y-123998000I-150000J0D01*
G01*
X101745000Y-123998000D01*
G75*
G02*
X101595000Y-123848000I0J150000D01*
G01*
X101595000Y-123548000D01*
G75*
G02*
X101745000Y-123398000I150000J0D01*
G01*
X103345000Y-123398000D01*
G75*
G02*
X103495000Y-123548000I0J-150000D01*
G01*
G37*
G36*
G01*
X103495000Y-122278000D02*
X103495000Y-122578000D01*
G75*
G02*
X103345000Y-122728000I-150000J0D01*
G01*
X101745000Y-122728000D01*
G75*
G02*
X101595000Y-122578000I0J150000D01*
G01*
X101595000Y-122278000D01*
G75*
G02*
X101745000Y-122128000I150000J0D01*
G01*
X103345000Y-122128000D01*
G75*
G02*
X103495000Y-122278000I0J-150000D01*
G01*
G37*
D16*
X119507000Y-138176000D03*
X119507000Y-140716000D03*
X119507000Y-143256000D03*
G36*
G01*
X91158000Y-167064000D02*
X91158000Y-166164000D01*
G75*
G02*
X91408000Y-165914000I250000J0D01*
G01*
X91933000Y-165914000D01*
G75*
G02*
X92183000Y-166164000I0J-250000D01*
G01*
X92183000Y-167064000D01*
G75*
G02*
X91933000Y-167314000I-250000J0D01*
G01*
X91408000Y-167314000D01*
G75*
G02*
X91158000Y-167064000I0J250000D01*
G01*
G37*
G36*
G01*
X92983000Y-167064000D02*
X92983000Y-166164000D01*
G75*
G02*
X93233000Y-165914000I250000J0D01*
G01*
X93758000Y-165914000D01*
G75*
G02*
X94008000Y-166164000I0J-250000D01*
G01*
X94008000Y-167064000D01*
G75*
G02*
X93758000Y-167314000I-250000J0D01*
G01*
X93233000Y-167314000D01*
G75*
G02*
X92983000Y-167064000I0J250000D01*
G01*
G37*
G36*
G01*
X83365000Y-97315000D02*
X83365000Y-98265000D01*
G75*
G02*
X83115000Y-98515000I-250000J0D01*
G01*
X82615000Y-98515000D01*
G75*
G02*
X82365000Y-98265000I0J250000D01*
G01*
X82365000Y-97315000D01*
G75*
G02*
X82615000Y-97065000I250000J0D01*
G01*
X83115000Y-97065000D01*
G75*
G02*
X83365000Y-97315000I0J-250000D01*
G01*
G37*
G36*
G01*
X81465000Y-97315000D02*
X81465000Y-98265000D01*
G75*
G02*
X81215000Y-98515000I-250000J0D01*
G01*
X80715000Y-98515000D01*
G75*
G02*
X80465000Y-98265000I0J250000D01*
G01*
X80465000Y-97315000D01*
G75*
G02*
X80715000Y-97065000I250000J0D01*
G01*
X81215000Y-97065000D01*
G75*
G02*
X81465000Y-97315000I0J-250000D01*
G01*
G37*
G36*
G01*
X110035000Y-157005000D02*
X110035000Y-157955000D01*
G75*
G02*
X109785000Y-158205000I-250000J0D01*
G01*
X109285000Y-158205000D01*
G75*
G02*
X109035000Y-157955000I0J250000D01*
G01*
X109035000Y-157005000D01*
G75*
G02*
X109285000Y-156755000I250000J0D01*
G01*
X109785000Y-156755000D01*
G75*
G02*
X110035000Y-157005000I0J-250000D01*
G01*
G37*
G36*
G01*
X108135000Y-157005000D02*
X108135000Y-157955000D01*
G75*
G02*
X107885000Y-158205000I-250000J0D01*
G01*
X107385000Y-158205000D01*
G75*
G02*
X107135000Y-157955000I0J250000D01*
G01*
X107135000Y-157005000D01*
G75*
G02*
X107385000Y-156755000I250000J0D01*
G01*
X107885000Y-156755000D01*
G75*
G02*
X108135000Y-157005000I0J-250000D01*
G01*
G37*
G36*
G01*
X104955000Y-130335000D02*
X104955000Y-131285000D01*
G75*
G02*
X104705000Y-131535000I-250000J0D01*
G01*
X104205000Y-131535000D01*
G75*
G02*
X103955000Y-131285000I0J250000D01*
G01*
X103955000Y-130335000D01*
G75*
G02*
X104205000Y-130085000I250000J0D01*
G01*
X104705000Y-130085000D01*
G75*
G02*
X104955000Y-130335000I0J-250000D01*
G01*
G37*
G36*
G01*
X103055000Y-130335000D02*
X103055000Y-131285000D01*
G75*
G02*
X102805000Y-131535000I-250000J0D01*
G01*
X102305000Y-131535000D01*
G75*
G02*
X102055000Y-131285000I0J250000D01*
G01*
X102055000Y-130335000D01*
G75*
G02*
X102305000Y-130085000I250000J0D01*
G01*
X102805000Y-130085000D01*
G75*
G02*
X103055000Y-130335000I0J-250000D01*
G01*
G37*
G36*
G01*
X122100000Y-107729000D02*
X122100000Y-108679000D01*
G75*
G02*
X121850000Y-108929000I-250000J0D01*
G01*
X121350000Y-108929000D01*
G75*
G02*
X121100000Y-108679000I0J250000D01*
G01*
X121100000Y-107729000D01*
G75*
G02*
X121350000Y-107479000I250000J0D01*
G01*
X121850000Y-107479000D01*
G75*
G02*
X122100000Y-107729000I0J-250000D01*
G01*
G37*
G36*
G01*
X120200000Y-107729000D02*
X120200000Y-108679000D01*
G75*
G02*
X119950000Y-108929000I-250000J0D01*
G01*
X119450000Y-108929000D01*
G75*
G02*
X119200000Y-108679000I0J250000D01*
G01*
X119200000Y-107729000D01*
G75*
G02*
X119450000Y-107479000I250000J0D01*
G01*
X119950000Y-107479000D01*
G75*
G02*
X120200000Y-107729000I0J-250000D01*
G01*
G37*
G36*
G01*
X98580000Y-125788000D02*
X98580000Y-126688000D01*
G75*
G02*
X98330000Y-126938000I-250000J0D01*
G01*
X97805000Y-126938000D01*
G75*
G02*
X97555000Y-126688000I0J250000D01*
G01*
X97555000Y-125788000D01*
G75*
G02*
X97805000Y-125538000I250000J0D01*
G01*
X98330000Y-125538000D01*
G75*
G02*
X98580000Y-125788000I0J-250000D01*
G01*
G37*
G36*
G01*
X96755000Y-125788000D02*
X96755000Y-126688000D01*
G75*
G02*
X96505000Y-126938000I-250000J0D01*
G01*
X95980000Y-126938000D01*
G75*
G02*
X95730000Y-126688000I0J250000D01*
G01*
X95730000Y-125788000D01*
G75*
G02*
X95980000Y-125538000I250000J0D01*
G01*
X96505000Y-125538000D01*
G75*
G02*
X96755000Y-125788000I0J-250000D01*
G01*
G37*
G36*
G01*
X86942000Y-101694000D02*
X86942000Y-100744000D01*
G75*
G02*
X87192000Y-100494000I250000J0D01*
G01*
X87692000Y-100494000D01*
G75*
G02*
X87942000Y-100744000I0J-250000D01*
G01*
X87942000Y-101694000D01*
G75*
G02*
X87692000Y-101944000I-250000J0D01*
G01*
X87192000Y-101944000D01*
G75*
G02*
X86942000Y-101694000I0J250000D01*
G01*
G37*
G36*
G01*
X88842000Y-101694000D02*
X88842000Y-100744000D01*
G75*
G02*
X89092000Y-100494000I250000J0D01*
G01*
X89592000Y-100494000D01*
G75*
G02*
X89842000Y-100744000I0J-250000D01*
G01*
X89842000Y-101694000D01*
G75*
G02*
X89592000Y-101944000I-250000J0D01*
G01*
X89092000Y-101944000D01*
G75*
G02*
X88842000Y-101694000I0J250000D01*
G01*
G37*
G36*
G01*
X91158000Y-170620000D02*
X91158000Y-169720000D01*
G75*
G02*
X91408000Y-169470000I250000J0D01*
G01*
X91933000Y-169470000D01*
G75*
G02*
X92183000Y-169720000I0J-250000D01*
G01*
X92183000Y-170620000D01*
G75*
G02*
X91933000Y-170870000I-250000J0D01*
G01*
X91408000Y-170870000D01*
G75*
G02*
X91158000Y-170620000I0J250000D01*
G01*
G37*
G36*
G01*
X92983000Y-170620000D02*
X92983000Y-169720000D01*
G75*
G02*
X93233000Y-169470000I250000J0D01*
G01*
X93758000Y-169470000D01*
G75*
G02*
X94008000Y-169720000I0J-250000D01*
G01*
X94008000Y-170620000D01*
G75*
G02*
X93758000Y-170870000I-250000J0D01*
G01*
X93233000Y-170870000D01*
G75*
G02*
X92983000Y-170620000I0J250000D01*
G01*
G37*
G36*
G01*
X120932000Y-155496000D02*
X120932000Y-156396000D01*
G75*
G02*
X120682000Y-156646000I-250000J0D01*
G01*
X120157000Y-156646000D01*
G75*
G02*
X119907000Y-156396000I0J250000D01*
G01*
X119907000Y-155496000D01*
G75*
G02*
X120157000Y-155246000I250000J0D01*
G01*
X120682000Y-155246000D01*
G75*
G02*
X120932000Y-155496000I0J-250000D01*
G01*
G37*
G36*
G01*
X119107000Y-155496000D02*
X119107000Y-156396000D01*
G75*
G02*
X118857000Y-156646000I-250000J0D01*
G01*
X118332000Y-156646000D01*
G75*
G02*
X118082000Y-156396000I0J250000D01*
G01*
X118082000Y-155496000D01*
G75*
G02*
X118332000Y-155246000I250000J0D01*
G01*
X118857000Y-155246000D01*
G75*
G02*
X119107000Y-155496000I0J-250000D01*
G01*
G37*
G36*
G01*
X89817000Y-104325000D02*
X89817000Y-105225000D01*
G75*
G02*
X89567000Y-105475000I-250000J0D01*
G01*
X89042000Y-105475000D01*
G75*
G02*
X88792000Y-105225000I0J250000D01*
G01*
X88792000Y-104325000D01*
G75*
G02*
X89042000Y-104075000I250000J0D01*
G01*
X89567000Y-104075000D01*
G75*
G02*
X89817000Y-104325000I0J-250000D01*
G01*
G37*
G36*
G01*
X87992000Y-104325000D02*
X87992000Y-105225000D01*
G75*
G02*
X87742000Y-105475000I-250000J0D01*
G01*
X87217000Y-105475000D01*
G75*
G02*
X86967000Y-105225000I0J250000D01*
G01*
X86967000Y-104325000D01*
G75*
G02*
X87217000Y-104075000I250000J0D01*
G01*
X87742000Y-104075000D01*
G75*
G02*
X87992000Y-104325000I0J-250000D01*
G01*
G37*
G36*
G01*
X110035000Y-187485000D02*
X110035000Y-188435000D01*
G75*
G02*
X109785000Y-188685000I-250000J0D01*
G01*
X109285000Y-188685000D01*
G75*
G02*
X109035000Y-188435000I0J250000D01*
G01*
X109035000Y-187485000D01*
G75*
G02*
X109285000Y-187235000I250000J0D01*
G01*
X109785000Y-187235000D01*
G75*
G02*
X110035000Y-187485000I0J-250000D01*
G01*
G37*
G36*
G01*
X108135000Y-187485000D02*
X108135000Y-188435000D01*
G75*
G02*
X107885000Y-188685000I-250000J0D01*
G01*
X107385000Y-188685000D01*
G75*
G02*
X107135000Y-188435000I0J250000D01*
G01*
X107135000Y-187485000D01*
G75*
G02*
X107385000Y-187235000I250000J0D01*
G01*
X107885000Y-187235000D01*
G75*
G02*
X108135000Y-187485000I0J-250000D01*
G01*
G37*
G36*
G01*
X76274800Y-149623600D02*
X76274800Y-149923600D01*
G75*
G02*
X76124800Y-150073600I-150000J0D01*
G01*
X74949800Y-150073600D01*
G75*
G02*
X74799800Y-149923600I0J150000D01*
G01*
X74799800Y-149623600D01*
G75*
G02*
X74949800Y-149473600I150000J0D01*
G01*
X76124800Y-149473600D01*
G75*
G02*
X76274800Y-149623600I0J-150000D01*
G01*
G37*
G36*
G01*
X76274800Y-151523600D02*
X76274800Y-151823600D01*
G75*
G02*
X76124800Y-151973600I-150000J0D01*
G01*
X74949800Y-151973600D01*
G75*
G02*
X74799800Y-151823600I0J150000D01*
G01*
X74799800Y-151523600D01*
G75*
G02*
X74949800Y-151373600I150000J0D01*
G01*
X76124800Y-151373600D01*
G75*
G02*
X76274800Y-151523600I0J-150000D01*
G01*
G37*
G36*
G01*
X74399800Y-150573600D02*
X74399800Y-150873600D01*
G75*
G02*
X74249800Y-151023600I-150000J0D01*
G01*
X73074800Y-151023600D01*
G75*
G02*
X72924800Y-150873600I0J150000D01*
G01*
X72924800Y-150573600D01*
G75*
G02*
X73074800Y-150423600I150000J0D01*
G01*
X74249800Y-150423600D01*
G75*
G02*
X74399800Y-150573600I0J-150000D01*
G01*
G37*
G36*
G01*
X78285000Y-84615000D02*
X78285000Y-85565000D01*
G75*
G02*
X78035000Y-85815000I-250000J0D01*
G01*
X77535000Y-85815000D01*
G75*
G02*
X77285000Y-85565000I0J250000D01*
G01*
X77285000Y-84615000D01*
G75*
G02*
X77535000Y-84365000I250000J0D01*
G01*
X78035000Y-84365000D01*
G75*
G02*
X78285000Y-84615000I0J-250000D01*
G01*
G37*
G36*
G01*
X76385000Y-84615000D02*
X76385000Y-85565000D01*
G75*
G02*
X76135000Y-85815000I-250000J0D01*
G01*
X75635000Y-85815000D01*
G75*
G02*
X75385000Y-85565000I0J250000D01*
G01*
X75385000Y-84615000D01*
G75*
G02*
X75635000Y-84365000I250000J0D01*
G01*
X76135000Y-84365000D01*
G75*
G02*
X76385000Y-84615000I0J-250000D01*
G01*
G37*
G36*
G01*
X120932000Y-192590000D02*
X120932000Y-193490000D01*
G75*
G02*
X120682000Y-193740000I-250000J0D01*
G01*
X120157000Y-193740000D01*
G75*
G02*
X119907000Y-193490000I0J250000D01*
G01*
X119907000Y-192590000D01*
G75*
G02*
X120157000Y-192340000I250000J0D01*
G01*
X120682000Y-192340000D01*
G75*
G02*
X120932000Y-192590000I0J-250000D01*
G01*
G37*
G36*
G01*
X119107000Y-192590000D02*
X119107000Y-193490000D01*
G75*
G02*
X118857000Y-193740000I-250000J0D01*
G01*
X118332000Y-193740000D01*
G75*
G02*
X118082000Y-193490000I0J250000D01*
G01*
X118082000Y-192590000D01*
G75*
G02*
X118332000Y-192340000I250000J0D01*
G01*
X118857000Y-192340000D01*
G75*
G02*
X119107000Y-192590000I0J-250000D01*
G01*
G37*
D20*
X138303000Y-81581000D03*
X138303000Y-76581000D03*
G36*
G01*
X78285000Y-114460000D02*
X78285000Y-115410000D01*
G75*
G02*
X78035000Y-115660000I-250000J0D01*
G01*
X77535000Y-115660000D01*
G75*
G02*
X77285000Y-115410000I0J250000D01*
G01*
X77285000Y-114460000D01*
G75*
G02*
X77535000Y-114210000I250000J0D01*
G01*
X78035000Y-114210000D01*
G75*
G02*
X78285000Y-114460000I0J-250000D01*
G01*
G37*
G36*
G01*
X76385000Y-114460000D02*
X76385000Y-115410000D01*
G75*
G02*
X76135000Y-115660000I-250000J0D01*
G01*
X75635000Y-115660000D01*
G75*
G02*
X75385000Y-115410000I0J250000D01*
G01*
X75385000Y-114460000D01*
G75*
G02*
X75635000Y-114210000I250000J0D01*
G01*
X76135000Y-114210000D01*
G75*
G02*
X76385000Y-114460000I0J-250000D01*
G01*
G37*
G36*
G01*
X80837500Y-139885000D02*
X80837500Y-140785000D01*
G75*
G02*
X80587500Y-141035000I-250000J0D01*
G01*
X80062500Y-141035000D01*
G75*
G02*
X79812500Y-140785000I0J250000D01*
G01*
X79812500Y-139885000D01*
G75*
G02*
X80062500Y-139635000I250000J0D01*
G01*
X80587500Y-139635000D01*
G75*
G02*
X80837500Y-139885000I0J-250000D01*
G01*
G37*
G36*
G01*
X79012500Y-139885000D02*
X79012500Y-140785000D01*
G75*
G02*
X78762500Y-141035000I-250000J0D01*
G01*
X78237500Y-141035000D01*
G75*
G02*
X77987500Y-140785000I0J250000D01*
G01*
X77987500Y-139885000D01*
G75*
G02*
X78237500Y-139635000I250000J0D01*
G01*
X78762500Y-139635000D01*
G75*
G02*
X79012500Y-139885000I0J-250000D01*
G01*
G37*
G36*
G01*
X72037000Y-125915000D02*
X72037000Y-126815000D01*
G75*
G02*
X71787000Y-127065000I-250000J0D01*
G01*
X71262000Y-127065000D01*
G75*
G02*
X71012000Y-126815000I0J250000D01*
G01*
X71012000Y-125915000D01*
G75*
G02*
X71262000Y-125665000I250000J0D01*
G01*
X71787000Y-125665000D01*
G75*
G02*
X72037000Y-125915000I0J-250000D01*
G01*
G37*
G36*
G01*
X70212000Y-125915000D02*
X70212000Y-126815000D01*
G75*
G02*
X69962000Y-127065000I-250000J0D01*
G01*
X69437000Y-127065000D01*
G75*
G02*
X69187000Y-126815000I0J250000D01*
G01*
X69187000Y-125915000D01*
G75*
G02*
X69437000Y-125665000I250000J0D01*
G01*
X69962000Y-125665000D01*
G75*
G02*
X70212000Y-125915000I0J-250000D01*
G01*
G37*
G36*
G01*
X122075000Y-100769000D02*
X122075000Y-101669000D01*
G75*
G02*
X121825000Y-101919000I-250000J0D01*
G01*
X121300000Y-101919000D01*
G75*
G02*
X121050000Y-101669000I0J250000D01*
G01*
X121050000Y-100769000D01*
G75*
G02*
X121300000Y-100519000I250000J0D01*
G01*
X121825000Y-100519000D01*
G75*
G02*
X122075000Y-100769000I0J-250000D01*
G01*
G37*
G36*
G01*
X120250000Y-100769000D02*
X120250000Y-101669000D01*
G75*
G02*
X120000000Y-101919000I-250000J0D01*
G01*
X119475000Y-101919000D01*
G75*
G02*
X119225000Y-101669000I0J250000D01*
G01*
X119225000Y-100769000D01*
G75*
G02*
X119475000Y-100519000I250000J0D01*
G01*
X120000000Y-100519000D01*
G75*
G02*
X120250000Y-100769000I0J-250000D01*
G01*
G37*
D21*
X144145000Y-52705000D03*
G36*
G01*
X122075000Y-75750000D02*
X122075000Y-76650000D01*
G75*
G02*
X121825000Y-76900000I-250000J0D01*
G01*
X121300000Y-76900000D01*
G75*
G02*
X121050000Y-76650000I0J250000D01*
G01*
X121050000Y-75750000D01*
G75*
G02*
X121300000Y-75500000I250000J0D01*
G01*
X121825000Y-75500000D01*
G75*
G02*
X122075000Y-75750000I0J-250000D01*
G01*
G37*
G36*
G01*
X120250000Y-75750000D02*
X120250000Y-76650000D01*
G75*
G02*
X120000000Y-76900000I-250000J0D01*
G01*
X119475000Y-76900000D01*
G75*
G02*
X119225000Y-76650000I0J250000D01*
G01*
X119225000Y-75750000D01*
G75*
G02*
X119475000Y-75500000I250000J0D01*
G01*
X120000000Y-75500000D01*
G75*
G02*
X120250000Y-75750000I0J-250000D01*
G01*
G37*
G36*
G01*
X72037000Y-82989000D02*
X72037000Y-83889000D01*
G75*
G02*
X71787000Y-84139000I-250000J0D01*
G01*
X71262000Y-84139000D01*
G75*
G02*
X71012000Y-83889000I0J250000D01*
G01*
X71012000Y-82989000D01*
G75*
G02*
X71262000Y-82739000I250000J0D01*
G01*
X71787000Y-82739000D01*
G75*
G02*
X72037000Y-82989000I0J-250000D01*
G01*
G37*
G36*
G01*
X70212000Y-82989000D02*
X70212000Y-83889000D01*
G75*
G02*
X69962000Y-84139000I-250000J0D01*
G01*
X69437000Y-84139000D01*
G75*
G02*
X69187000Y-83889000I0J250000D01*
G01*
X69187000Y-82989000D01*
G75*
G02*
X69437000Y-82739000I250000J0D01*
G01*
X69962000Y-82739000D01*
G75*
G02*
X70212000Y-82989000I0J-250000D01*
G01*
G37*
G36*
G01*
X78285000Y-68105000D02*
X78285000Y-69055000D01*
G75*
G02*
X78035000Y-69305000I-250000J0D01*
G01*
X77535000Y-69305000D01*
G75*
G02*
X77285000Y-69055000I0J250000D01*
G01*
X77285000Y-68105000D01*
G75*
G02*
X77535000Y-67855000I250000J0D01*
G01*
X78035000Y-67855000D01*
G75*
G02*
X78285000Y-68105000I0J-250000D01*
G01*
G37*
G36*
G01*
X76385000Y-68105000D02*
X76385000Y-69055000D01*
G75*
G02*
X76135000Y-69305000I-250000J0D01*
G01*
X75635000Y-69305000D01*
G75*
G02*
X75385000Y-69055000I0J250000D01*
G01*
X75385000Y-68105000D01*
G75*
G02*
X75635000Y-67855000I250000J0D01*
G01*
X76135000Y-67855000D01*
G75*
G02*
X76385000Y-68105000I0J-250000D01*
G01*
G37*
G36*
G01*
X89817000Y-111437000D02*
X89817000Y-112337000D01*
G75*
G02*
X89567000Y-112587000I-250000J0D01*
G01*
X89042000Y-112587000D01*
G75*
G02*
X88792000Y-112337000I0J250000D01*
G01*
X88792000Y-111437000D01*
G75*
G02*
X89042000Y-111187000I250000J0D01*
G01*
X89567000Y-111187000D01*
G75*
G02*
X89817000Y-111437000I0J-250000D01*
G01*
G37*
G36*
G01*
X87992000Y-111437000D02*
X87992000Y-112337000D01*
G75*
G02*
X87742000Y-112587000I-250000J0D01*
G01*
X87217000Y-112587000D01*
G75*
G02*
X86967000Y-112337000I0J250000D01*
G01*
X86967000Y-111437000D01*
G75*
G02*
X87217000Y-111187000I250000J0D01*
G01*
X87742000Y-111187000D01*
G75*
G02*
X87992000Y-111437000I0J-250000D01*
G01*
G37*
G36*
G01*
X141704000Y-61029000D02*
X141704000Y-60129000D01*
G75*
G02*
X141954000Y-59879000I250000J0D01*
G01*
X142479000Y-59879000D01*
G75*
G02*
X142729000Y-60129000I0J-250000D01*
G01*
X142729000Y-61029000D01*
G75*
G02*
X142479000Y-61279000I-250000J0D01*
G01*
X141954000Y-61279000D01*
G75*
G02*
X141704000Y-61029000I0J250000D01*
G01*
G37*
G36*
G01*
X143529000Y-61029000D02*
X143529000Y-60129000D01*
G75*
G02*
X143779000Y-59879000I250000J0D01*
G01*
X144304000Y-59879000D01*
G75*
G02*
X144554000Y-60129000I0J-250000D01*
G01*
X144554000Y-61029000D01*
G75*
G02*
X144304000Y-61279000I-250000J0D01*
G01*
X143779000Y-61279000D01*
G75*
G02*
X143529000Y-61029000I0J250000D01*
G01*
G37*
D18*
X144653000Y-64263000D03*
X144653000Y-67563000D03*
X93218000Y-86615000D03*
X93218000Y-89915000D03*
G36*
G01*
X83365000Y-114460000D02*
X83365000Y-115410000D01*
G75*
G02*
X83115000Y-115660000I-250000J0D01*
G01*
X82615000Y-115660000D01*
G75*
G02*
X82365000Y-115410000I0J250000D01*
G01*
X82365000Y-114460000D01*
G75*
G02*
X82615000Y-114210000I250000J0D01*
G01*
X83115000Y-114210000D01*
G75*
G02*
X83365000Y-114460000I0J-250000D01*
G01*
G37*
G36*
G01*
X81465000Y-114460000D02*
X81465000Y-115410000D01*
G75*
G02*
X81215000Y-115660000I-250000J0D01*
G01*
X80715000Y-115660000D01*
G75*
G02*
X80465000Y-115410000I0J250000D01*
G01*
X80465000Y-114460000D01*
G75*
G02*
X80715000Y-114210000I250000J0D01*
G01*
X81215000Y-114210000D01*
G75*
G02*
X81465000Y-114460000I0J-250000D01*
G01*
G37*
G36*
G01*
X72037000Y-114993000D02*
X72037000Y-115893000D01*
G75*
G02*
X71787000Y-116143000I-250000J0D01*
G01*
X71262000Y-116143000D01*
G75*
G02*
X71012000Y-115893000I0J250000D01*
G01*
X71012000Y-114993000D01*
G75*
G02*
X71262000Y-114743000I250000J0D01*
G01*
X71787000Y-114743000D01*
G75*
G02*
X72037000Y-114993000I0J-250000D01*
G01*
G37*
G36*
G01*
X70212000Y-114993000D02*
X70212000Y-115893000D01*
G75*
G02*
X69962000Y-116143000I-250000J0D01*
G01*
X69437000Y-116143000D01*
G75*
G02*
X69187000Y-115893000I0J250000D01*
G01*
X69187000Y-114993000D01*
G75*
G02*
X69437000Y-114743000I250000J0D01*
G01*
X69962000Y-114743000D01*
G75*
G02*
X70212000Y-114993000I0J-250000D01*
G01*
G37*
G36*
G01*
X80825000Y-148369000D02*
X80825000Y-149319000D01*
G75*
G02*
X80575000Y-149569000I-250000J0D01*
G01*
X80075000Y-149569000D01*
G75*
G02*
X79825000Y-149319000I0J250000D01*
G01*
X79825000Y-148369000D01*
G75*
G02*
X80075000Y-148119000I250000J0D01*
G01*
X80575000Y-148119000D01*
G75*
G02*
X80825000Y-148369000I0J-250000D01*
G01*
G37*
G36*
G01*
X78925000Y-148369000D02*
X78925000Y-149319000D01*
G75*
G02*
X78675000Y-149569000I-250000J0D01*
G01*
X78175000Y-149569000D01*
G75*
G02*
X77925000Y-149319000I0J250000D01*
G01*
X77925000Y-148369000D01*
G75*
G02*
X78175000Y-148119000I250000J0D01*
G01*
X78675000Y-148119000D01*
G75*
G02*
X78925000Y-148369000I0J-250000D01*
G01*
G37*
G36*
G01*
X110495000Y-149319000D02*
X110495000Y-149619000D01*
G75*
G02*
X110345000Y-149769000I-150000J0D01*
G01*
X108745000Y-149769000D01*
G75*
G02*
X108595000Y-149619000I0J150000D01*
G01*
X108595000Y-149319000D01*
G75*
G02*
X108745000Y-149169000I150000J0D01*
G01*
X110345000Y-149169000D01*
G75*
G02*
X110495000Y-149319000I0J-150000D01*
G01*
G37*
G36*
G01*
X110495000Y-150589000D02*
X110495000Y-150889000D01*
G75*
G02*
X110345000Y-151039000I-150000J0D01*
G01*
X108745000Y-151039000D01*
G75*
G02*
X108595000Y-150889000I0J150000D01*
G01*
X108595000Y-150589000D01*
G75*
G02*
X108745000Y-150439000I150000J0D01*
G01*
X110345000Y-150439000D01*
G75*
G02*
X110495000Y-150589000I0J-150000D01*
G01*
G37*
G36*
G01*
X110495000Y-151859000D02*
X110495000Y-152159000D01*
G75*
G02*
X110345000Y-152309000I-150000J0D01*
G01*
X108745000Y-152309000D01*
G75*
G02*
X108595000Y-152159000I0J150000D01*
G01*
X108595000Y-151859000D01*
G75*
G02*
X108745000Y-151709000I150000J0D01*
G01*
X110345000Y-151709000D01*
G75*
G02*
X110495000Y-151859000I0J-150000D01*
G01*
G37*
G36*
G01*
X110495000Y-153129000D02*
X110495000Y-153429000D01*
G75*
G02*
X110345000Y-153579000I-150000J0D01*
G01*
X108745000Y-153579000D01*
G75*
G02*
X108595000Y-153429000I0J150000D01*
G01*
X108595000Y-153129000D01*
G75*
G02*
X108745000Y-152979000I150000J0D01*
G01*
X110345000Y-152979000D01*
G75*
G02*
X110495000Y-153129000I0J-150000D01*
G01*
G37*
G36*
G01*
X103495000Y-153129000D02*
X103495000Y-153429000D01*
G75*
G02*
X103345000Y-153579000I-150000J0D01*
G01*
X101745000Y-153579000D01*
G75*
G02*
X101595000Y-153429000I0J150000D01*
G01*
X101595000Y-153129000D01*
G75*
G02*
X101745000Y-152979000I150000J0D01*
G01*
X103345000Y-152979000D01*
G75*
G02*
X103495000Y-153129000I0J-150000D01*
G01*
G37*
G36*
G01*
X103495000Y-151859000D02*
X103495000Y-152159000D01*
G75*
G02*
X103345000Y-152309000I-150000J0D01*
G01*
X101745000Y-152309000D01*
G75*
G02*
X101595000Y-152159000I0J150000D01*
G01*
X101595000Y-151859000D01*
G75*
G02*
X101745000Y-151709000I150000J0D01*
G01*
X103345000Y-151709000D01*
G75*
G02*
X103495000Y-151859000I0J-150000D01*
G01*
G37*
G36*
G01*
X103495000Y-150589000D02*
X103495000Y-150889000D01*
G75*
G02*
X103345000Y-151039000I-150000J0D01*
G01*
X101745000Y-151039000D01*
G75*
G02*
X101595000Y-150889000I0J150000D01*
G01*
X101595000Y-150589000D01*
G75*
G02*
X101745000Y-150439000I150000J0D01*
G01*
X103345000Y-150439000D01*
G75*
G02*
X103495000Y-150589000I0J-150000D01*
G01*
G37*
G36*
G01*
X103495000Y-149319000D02*
X103495000Y-149619000D01*
G75*
G02*
X103345000Y-149769000I-150000J0D01*
G01*
X101745000Y-149769000D01*
G75*
G02*
X101595000Y-149619000I0J150000D01*
G01*
X101595000Y-149319000D01*
G75*
G02*
X101745000Y-149169000I150000J0D01*
G01*
X103345000Y-149169000D01*
G75*
G02*
X103495000Y-149319000I0J-150000D01*
G01*
G37*
G36*
G01*
X120932000Y-184970000D02*
X120932000Y-185870000D01*
G75*
G02*
X120682000Y-186120000I-250000J0D01*
G01*
X120157000Y-186120000D01*
G75*
G02*
X119907000Y-185870000I0J250000D01*
G01*
X119907000Y-184970000D01*
G75*
G02*
X120157000Y-184720000I250000J0D01*
G01*
X120682000Y-184720000D01*
G75*
G02*
X120932000Y-184970000I0J-250000D01*
G01*
G37*
G36*
G01*
X119107000Y-184970000D02*
X119107000Y-185870000D01*
G75*
G02*
X118857000Y-186120000I-250000J0D01*
G01*
X118332000Y-186120000D01*
G75*
G02*
X118082000Y-185870000I0J250000D01*
G01*
X118082000Y-184970000D01*
G75*
G02*
X118332000Y-184720000I250000J0D01*
G01*
X118857000Y-184720000D01*
G75*
G02*
X119107000Y-184970000I0J-250000D01*
G01*
G37*
G36*
G01*
X132990000Y-102339000D02*
X132990000Y-102639000D01*
G75*
G02*
X132840000Y-102789000I-150000J0D01*
G01*
X131190000Y-102789000D01*
G75*
G02*
X131040000Y-102639000I0J150000D01*
G01*
X131040000Y-102339000D01*
G75*
G02*
X131190000Y-102189000I150000J0D01*
G01*
X132840000Y-102189000D01*
G75*
G02*
X132990000Y-102339000I0J-150000D01*
G01*
G37*
G36*
G01*
X132990000Y-103609000D02*
X132990000Y-103909000D01*
G75*
G02*
X132840000Y-104059000I-150000J0D01*
G01*
X131190000Y-104059000D01*
G75*
G02*
X131040000Y-103909000I0J150000D01*
G01*
X131040000Y-103609000D01*
G75*
G02*
X131190000Y-103459000I150000J0D01*
G01*
X132840000Y-103459000D01*
G75*
G02*
X132990000Y-103609000I0J-150000D01*
G01*
G37*
G36*
G01*
X132990000Y-104879000D02*
X132990000Y-105179000D01*
G75*
G02*
X132840000Y-105329000I-150000J0D01*
G01*
X131190000Y-105329000D01*
G75*
G02*
X131040000Y-105179000I0J150000D01*
G01*
X131040000Y-104879000D01*
G75*
G02*
X131190000Y-104729000I150000J0D01*
G01*
X132840000Y-104729000D01*
G75*
G02*
X132990000Y-104879000I0J-150000D01*
G01*
G37*
G36*
G01*
X132990000Y-106149000D02*
X132990000Y-106449000D01*
G75*
G02*
X132840000Y-106599000I-150000J0D01*
G01*
X131190000Y-106599000D01*
G75*
G02*
X131040000Y-106449000I0J150000D01*
G01*
X131040000Y-106149000D01*
G75*
G02*
X131190000Y-105999000I150000J0D01*
G01*
X132840000Y-105999000D01*
G75*
G02*
X132990000Y-106149000I0J-150000D01*
G01*
G37*
G36*
G01*
X132990000Y-107419000D02*
X132990000Y-107719000D01*
G75*
G02*
X132840000Y-107869000I-150000J0D01*
G01*
X131190000Y-107869000D01*
G75*
G02*
X131040000Y-107719000I0J150000D01*
G01*
X131040000Y-107419000D01*
G75*
G02*
X131190000Y-107269000I150000J0D01*
G01*
X132840000Y-107269000D01*
G75*
G02*
X132990000Y-107419000I0J-150000D01*
G01*
G37*
G36*
G01*
X132990000Y-108689000D02*
X132990000Y-108989000D01*
G75*
G02*
X132840000Y-109139000I-150000J0D01*
G01*
X131190000Y-109139000D01*
G75*
G02*
X131040000Y-108989000I0J150000D01*
G01*
X131040000Y-108689000D01*
G75*
G02*
X131190000Y-108539000I150000J0D01*
G01*
X132840000Y-108539000D01*
G75*
G02*
X132990000Y-108689000I0J-150000D01*
G01*
G37*
G36*
G01*
X132990000Y-109959000D02*
X132990000Y-110259000D01*
G75*
G02*
X132840000Y-110409000I-150000J0D01*
G01*
X131190000Y-110409000D01*
G75*
G02*
X131040000Y-110259000I0J150000D01*
G01*
X131040000Y-109959000D01*
G75*
G02*
X131190000Y-109809000I150000J0D01*
G01*
X132840000Y-109809000D01*
G75*
G02*
X132990000Y-109959000I0J-150000D01*
G01*
G37*
G36*
G01*
X132990000Y-111229000D02*
X132990000Y-111529000D01*
G75*
G02*
X132840000Y-111679000I-150000J0D01*
G01*
X131190000Y-111679000D01*
G75*
G02*
X131040000Y-111529000I0J150000D01*
G01*
X131040000Y-111229000D01*
G75*
G02*
X131190000Y-111079000I150000J0D01*
G01*
X132840000Y-111079000D01*
G75*
G02*
X132990000Y-111229000I0J-150000D01*
G01*
G37*
G36*
G01*
X128040000Y-111229000D02*
X128040000Y-111529000D01*
G75*
G02*
X127890000Y-111679000I-150000J0D01*
G01*
X126240000Y-111679000D01*
G75*
G02*
X126090000Y-111529000I0J150000D01*
G01*
X126090000Y-111229000D01*
G75*
G02*
X126240000Y-111079000I150000J0D01*
G01*
X127890000Y-111079000D01*
G75*
G02*
X128040000Y-111229000I0J-150000D01*
G01*
G37*
G36*
G01*
X128040000Y-109959000D02*
X128040000Y-110259000D01*
G75*
G02*
X127890000Y-110409000I-150000J0D01*
G01*
X126240000Y-110409000D01*
G75*
G02*
X126090000Y-110259000I0J150000D01*
G01*
X126090000Y-109959000D01*
G75*
G02*
X126240000Y-109809000I150000J0D01*
G01*
X127890000Y-109809000D01*
G75*
G02*
X128040000Y-109959000I0J-150000D01*
G01*
G37*
G36*
G01*
X128040000Y-108689000D02*
X128040000Y-108989000D01*
G75*
G02*
X127890000Y-109139000I-150000J0D01*
G01*
X126240000Y-109139000D01*
G75*
G02*
X126090000Y-108989000I0J150000D01*
G01*
X126090000Y-108689000D01*
G75*
G02*
X126240000Y-108539000I150000J0D01*
G01*
X127890000Y-108539000D01*
G75*
G02*
X128040000Y-108689000I0J-150000D01*
G01*
G37*
G36*
G01*
X128040000Y-107419000D02*
X128040000Y-107719000D01*
G75*
G02*
X127890000Y-107869000I-150000J0D01*
G01*
X126240000Y-107869000D01*
G75*
G02*
X126090000Y-107719000I0J150000D01*
G01*
X126090000Y-107419000D01*
G75*
G02*
X126240000Y-107269000I150000J0D01*
G01*
X127890000Y-107269000D01*
G75*
G02*
X128040000Y-107419000I0J-150000D01*
G01*
G37*
G36*
G01*
X128040000Y-106149000D02*
X128040000Y-106449000D01*
G75*
G02*
X127890000Y-106599000I-150000J0D01*
G01*
X126240000Y-106599000D01*
G75*
G02*
X126090000Y-106449000I0J150000D01*
G01*
X126090000Y-106149000D01*
G75*
G02*
X126240000Y-105999000I150000J0D01*
G01*
X127890000Y-105999000D01*
G75*
G02*
X128040000Y-106149000I0J-150000D01*
G01*
G37*
G36*
G01*
X128040000Y-104879000D02*
X128040000Y-105179000D01*
G75*
G02*
X127890000Y-105329000I-150000J0D01*
G01*
X126240000Y-105329000D01*
G75*
G02*
X126090000Y-105179000I0J150000D01*
G01*
X126090000Y-104879000D01*
G75*
G02*
X126240000Y-104729000I150000J0D01*
G01*
X127890000Y-104729000D01*
G75*
G02*
X128040000Y-104879000I0J-150000D01*
G01*
G37*
G36*
G01*
X128040000Y-103609000D02*
X128040000Y-103909000D01*
G75*
G02*
X127890000Y-104059000I-150000J0D01*
G01*
X126240000Y-104059000D01*
G75*
G02*
X126090000Y-103909000I0J150000D01*
G01*
X126090000Y-103609000D01*
G75*
G02*
X126240000Y-103459000I150000J0D01*
G01*
X127890000Y-103459000D01*
G75*
G02*
X128040000Y-103609000I0J-150000D01*
G01*
G37*
G36*
G01*
X128040000Y-102339000D02*
X128040000Y-102639000D01*
G75*
G02*
X127890000Y-102789000I-150000J0D01*
G01*
X126240000Y-102789000D01*
G75*
G02*
X126090000Y-102639000I0J150000D01*
G01*
X126090000Y-102339000D01*
G75*
G02*
X126240000Y-102189000I150000J0D01*
G01*
X127890000Y-102189000D01*
G75*
G02*
X128040000Y-102339000I0J-150000D01*
G01*
G37*
G36*
G01*
X136853000Y-61054000D02*
X136853000Y-60104000D01*
G75*
G02*
X137103000Y-59854000I250000J0D01*
G01*
X137603000Y-59854000D01*
G75*
G02*
X137853000Y-60104000I0J-250000D01*
G01*
X137853000Y-61054000D01*
G75*
G02*
X137603000Y-61304000I-250000J0D01*
G01*
X137103000Y-61304000D01*
G75*
G02*
X136853000Y-61054000I0J250000D01*
G01*
G37*
G36*
G01*
X138753000Y-61054000D02*
X138753000Y-60104000D01*
G75*
G02*
X139003000Y-59854000I250000J0D01*
G01*
X139503000Y-59854000D01*
G75*
G02*
X139753000Y-60104000I0J-250000D01*
G01*
X139753000Y-61054000D01*
G75*
G02*
X139503000Y-61304000I-250000J0D01*
G01*
X139003000Y-61304000D01*
G75*
G02*
X138753000Y-61054000I0J250000D01*
G01*
G37*
G36*
G01*
X69162000Y-94582000D02*
X69162000Y-93632000D01*
G75*
G02*
X69412000Y-93382000I250000J0D01*
G01*
X69912000Y-93382000D01*
G75*
G02*
X70162000Y-93632000I0J-250000D01*
G01*
X70162000Y-94582000D01*
G75*
G02*
X69912000Y-94832000I-250000J0D01*
G01*
X69412000Y-94832000D01*
G75*
G02*
X69162000Y-94582000I0J250000D01*
G01*
G37*
G36*
G01*
X71062000Y-94582000D02*
X71062000Y-93632000D01*
G75*
G02*
X71312000Y-93382000I250000J0D01*
G01*
X71812000Y-93382000D01*
G75*
G02*
X72062000Y-93632000I0J-250000D01*
G01*
X72062000Y-94582000D01*
G75*
G02*
X71812000Y-94832000I-250000J0D01*
G01*
X71312000Y-94832000D01*
G75*
G02*
X71062000Y-94582000I0J250000D01*
G01*
G37*
D22*
X74295000Y-204470000D03*
D20*
X71795000Y-204470000D03*
G36*
G01*
X83365000Y-68105000D02*
X83365000Y-69055000D01*
G75*
G02*
X83115000Y-69305000I-250000J0D01*
G01*
X82615000Y-69305000D01*
G75*
G02*
X82365000Y-69055000I0J250000D01*
G01*
X82365000Y-68105000D01*
G75*
G02*
X82615000Y-67855000I250000J0D01*
G01*
X83115000Y-67855000D01*
G75*
G02*
X83365000Y-68105000I0J-250000D01*
G01*
G37*
G36*
G01*
X81465000Y-68105000D02*
X81465000Y-69055000D01*
G75*
G02*
X81215000Y-69305000I-250000J0D01*
G01*
X80715000Y-69305000D01*
G75*
G02*
X80465000Y-69055000I0J250000D01*
G01*
X80465000Y-68105000D01*
G75*
G02*
X80715000Y-67855000I250000J0D01*
G01*
X81215000Y-67855000D01*
G75*
G02*
X81465000Y-68105000I0J-250000D01*
G01*
G37*
G36*
G01*
X91158000Y-159952000D02*
X91158000Y-159052000D01*
G75*
G02*
X91408000Y-158802000I250000J0D01*
G01*
X91933000Y-158802000D01*
G75*
G02*
X92183000Y-159052000I0J-250000D01*
G01*
X92183000Y-159952000D01*
G75*
G02*
X91933000Y-160202000I-250000J0D01*
G01*
X91408000Y-160202000D01*
G75*
G02*
X91158000Y-159952000I0J250000D01*
G01*
G37*
G36*
G01*
X92983000Y-159952000D02*
X92983000Y-159052000D01*
G75*
G02*
X93233000Y-158802000I250000J0D01*
G01*
X93758000Y-158802000D01*
G75*
G02*
X94008000Y-159052000I0J-250000D01*
G01*
X94008000Y-159952000D01*
G75*
G02*
X93758000Y-160202000I-250000J0D01*
G01*
X93233000Y-160202000D01*
G75*
G02*
X92983000Y-159952000I0J250000D01*
G01*
G37*
G36*
G01*
X118590000Y-66490000D02*
X118590000Y-65590000D01*
G75*
G02*
X118840000Y-65340000I250000J0D01*
G01*
X119365000Y-65340000D01*
G75*
G02*
X119615000Y-65590000I0J-250000D01*
G01*
X119615000Y-66490000D01*
G75*
G02*
X119365000Y-66740000I-250000J0D01*
G01*
X118840000Y-66740000D01*
G75*
G02*
X118590000Y-66490000I0J250000D01*
G01*
G37*
G36*
G01*
X120415000Y-66490000D02*
X120415000Y-65590000D01*
G75*
G02*
X120665000Y-65340000I250000J0D01*
G01*
X121190000Y-65340000D01*
G75*
G02*
X121440000Y-65590000I0J-250000D01*
G01*
X121440000Y-66490000D01*
G75*
G02*
X121190000Y-66740000I-250000J0D01*
G01*
X120665000Y-66740000D01*
G75*
G02*
X120415000Y-66490000I0J250000D01*
G01*
G37*
G36*
G01*
X139855000Y-111310000D02*
X139855000Y-112210000D01*
G75*
G02*
X139605000Y-112460000I-250000J0D01*
G01*
X139080000Y-112460000D01*
G75*
G02*
X138830000Y-112210000I0J250000D01*
G01*
X138830000Y-111310000D01*
G75*
G02*
X139080000Y-111060000I250000J0D01*
G01*
X139605000Y-111060000D01*
G75*
G02*
X139855000Y-111310000I0J-250000D01*
G01*
G37*
G36*
G01*
X138030000Y-111310000D02*
X138030000Y-112210000D01*
G75*
G02*
X137780000Y-112460000I-250000J0D01*
G01*
X137255000Y-112460000D01*
G75*
G02*
X137005000Y-112210000I0J250000D01*
G01*
X137005000Y-111310000D01*
G75*
G02*
X137255000Y-111060000I250000J0D01*
G01*
X137780000Y-111060000D01*
G75*
G02*
X138030000Y-111310000I0J-250000D01*
G01*
G37*
G36*
G01*
X164342500Y-132900000D02*
X164342500Y-133800000D01*
G75*
G02*
X164092500Y-134050000I-250000J0D01*
G01*
X163567500Y-134050000D01*
G75*
G02*
X163317500Y-133800000I0J250000D01*
G01*
X163317500Y-132900000D01*
G75*
G02*
X163567500Y-132650000I250000J0D01*
G01*
X164092500Y-132650000D01*
G75*
G02*
X164342500Y-132900000I0J-250000D01*
G01*
G37*
G36*
G01*
X162517500Y-132900000D02*
X162517500Y-133800000D01*
G75*
G02*
X162267500Y-134050000I-250000J0D01*
G01*
X161742500Y-134050000D01*
G75*
G02*
X161492500Y-133800000I0J250000D01*
G01*
X161492500Y-132900000D01*
G75*
G02*
X161742500Y-132650000I250000J0D01*
G01*
X162267500Y-132650000D01*
G75*
G02*
X162517500Y-132900000I0J-250000D01*
G01*
G37*
G36*
G01*
X91158000Y-163508000D02*
X91158000Y-162608000D01*
G75*
G02*
X91408000Y-162358000I250000J0D01*
G01*
X91933000Y-162358000D01*
G75*
G02*
X92183000Y-162608000I0J-250000D01*
G01*
X92183000Y-163508000D01*
G75*
G02*
X91933000Y-163758000I-250000J0D01*
G01*
X91408000Y-163758000D01*
G75*
G02*
X91158000Y-163508000I0J250000D01*
G01*
G37*
G36*
G01*
X92983000Y-163508000D02*
X92983000Y-162608000D01*
G75*
G02*
X93233000Y-162358000I250000J0D01*
G01*
X93758000Y-162358000D01*
G75*
G02*
X94008000Y-162608000I0J-250000D01*
G01*
X94008000Y-163508000D01*
G75*
G02*
X93758000Y-163758000I-250000J0D01*
G01*
X93233000Y-163758000D01*
G75*
G02*
X92983000Y-163508000I0J250000D01*
G01*
G37*
D21*
X144780000Y-108585000D03*
G36*
G01*
X165350000Y-110090000D02*
X163660000Y-110090000D01*
G75*
G02*
X163410000Y-109840000I0J250000D01*
G01*
X163410000Y-108600000D01*
G75*
G02*
X163660000Y-108350000I250000J0D01*
G01*
X165350000Y-108350000D01*
G75*
G02*
X165600000Y-108600000I0J-250000D01*
G01*
X165600000Y-109840000D01*
G75*
G02*
X165350000Y-110090000I-250000J0D01*
G01*
G37*
D17*
X164505000Y-106680000D03*
X164505000Y-104140000D03*
G36*
G01*
X72062000Y-118524000D02*
X72062000Y-119474000D01*
G75*
G02*
X71812000Y-119724000I-250000J0D01*
G01*
X71312000Y-119724000D01*
G75*
G02*
X71062000Y-119474000I0J250000D01*
G01*
X71062000Y-118524000D01*
G75*
G02*
X71312000Y-118274000I250000J0D01*
G01*
X71812000Y-118274000D01*
G75*
G02*
X72062000Y-118524000I0J-250000D01*
G01*
G37*
G36*
G01*
X70162000Y-118524000D02*
X70162000Y-119474000D01*
G75*
G02*
X69912000Y-119724000I-250000J0D01*
G01*
X69412000Y-119724000D01*
G75*
G02*
X69162000Y-119474000I0J250000D01*
G01*
X69162000Y-118524000D01*
G75*
G02*
X69412000Y-118274000I250000J0D01*
G01*
X69912000Y-118274000D01*
G75*
G02*
X70162000Y-118524000I0J-250000D01*
G01*
G37*
G36*
G01*
X72062000Y-107856000D02*
X72062000Y-108806000D01*
G75*
G02*
X71812000Y-109056000I-250000J0D01*
G01*
X71312000Y-109056000D01*
G75*
G02*
X71062000Y-108806000I0J250000D01*
G01*
X71062000Y-107856000D01*
G75*
G02*
X71312000Y-107606000I250000J0D01*
G01*
X71812000Y-107606000D01*
G75*
G02*
X72062000Y-107856000I0J-250000D01*
G01*
G37*
G36*
G01*
X70162000Y-107856000D02*
X70162000Y-108806000D01*
G75*
G02*
X69912000Y-109056000I-250000J0D01*
G01*
X69412000Y-109056000D01*
G75*
G02*
X69162000Y-108806000I0J250000D01*
G01*
X69162000Y-107856000D01*
G75*
G02*
X69412000Y-107606000I250000J0D01*
G01*
X69912000Y-107606000D01*
G75*
G02*
X70162000Y-107856000I0J-250000D01*
G01*
G37*
G36*
G01*
X120932000Y-196400000D02*
X120932000Y-197300000D01*
G75*
G02*
X120682000Y-197550000I-250000J0D01*
G01*
X120157000Y-197550000D01*
G75*
G02*
X119907000Y-197300000I0J250000D01*
G01*
X119907000Y-196400000D01*
G75*
G02*
X120157000Y-196150000I250000J0D01*
G01*
X120682000Y-196150000D01*
G75*
G02*
X120932000Y-196400000I0J-250000D01*
G01*
G37*
G36*
G01*
X119107000Y-196400000D02*
X119107000Y-197300000D01*
G75*
G02*
X118857000Y-197550000I-250000J0D01*
G01*
X118332000Y-197550000D01*
G75*
G02*
X118082000Y-197300000I0J250000D01*
G01*
X118082000Y-196400000D01*
G75*
G02*
X118332000Y-196150000I250000J0D01*
G01*
X118857000Y-196150000D01*
G75*
G02*
X119107000Y-196400000I0J-250000D01*
G01*
G37*
G36*
G01*
X86942000Y-115918000D02*
X86942000Y-114968000D01*
G75*
G02*
X87192000Y-114718000I250000J0D01*
G01*
X87692000Y-114718000D01*
G75*
G02*
X87942000Y-114968000I0J-250000D01*
G01*
X87942000Y-115918000D01*
G75*
G02*
X87692000Y-116168000I-250000J0D01*
G01*
X87192000Y-116168000D01*
G75*
G02*
X86942000Y-115918000I0J250000D01*
G01*
G37*
G36*
G01*
X88842000Y-115918000D02*
X88842000Y-114968000D01*
G75*
G02*
X89092000Y-114718000I250000J0D01*
G01*
X89592000Y-114718000D01*
G75*
G02*
X89842000Y-114968000I0J-250000D01*
G01*
X89842000Y-115918000D01*
G75*
G02*
X89592000Y-116168000I-250000J0D01*
G01*
X89092000Y-116168000D01*
G75*
G02*
X88842000Y-115918000I0J250000D01*
G01*
G37*
G36*
G01*
X89690000Y-64320000D02*
X89690000Y-65220000D01*
G75*
G02*
X89440000Y-65470000I-250000J0D01*
G01*
X88915000Y-65470000D01*
G75*
G02*
X88665000Y-65220000I0J250000D01*
G01*
X88665000Y-64320000D01*
G75*
G02*
X88915000Y-64070000I250000J0D01*
G01*
X89440000Y-64070000D01*
G75*
G02*
X89690000Y-64320000I0J-250000D01*
G01*
G37*
G36*
G01*
X87865000Y-64320000D02*
X87865000Y-65220000D01*
G75*
G02*
X87615000Y-65470000I-250000J0D01*
G01*
X87090000Y-65470000D01*
G75*
G02*
X86840000Y-65220000I0J250000D01*
G01*
X86840000Y-64320000D01*
G75*
G02*
X87090000Y-64070000I250000J0D01*
G01*
X87615000Y-64070000D01*
G75*
G02*
X87865000Y-64320000I0J-250000D01*
G01*
G37*
G36*
G01*
X78285000Y-97315000D02*
X78285000Y-98265000D01*
G75*
G02*
X78035000Y-98515000I-250000J0D01*
G01*
X77535000Y-98515000D01*
G75*
G02*
X77285000Y-98265000I0J250000D01*
G01*
X77285000Y-97315000D01*
G75*
G02*
X77535000Y-97065000I250000J0D01*
G01*
X78035000Y-97065000D01*
G75*
G02*
X78285000Y-97315000I0J-250000D01*
G01*
G37*
G36*
G01*
X76385000Y-97315000D02*
X76385000Y-98265000D01*
G75*
G02*
X76135000Y-98515000I-250000J0D01*
G01*
X75635000Y-98515000D01*
G75*
G02*
X75385000Y-98265000I0J250000D01*
G01*
X75385000Y-97315000D01*
G75*
G02*
X75635000Y-97065000I250000J0D01*
G01*
X76135000Y-97065000D01*
G75*
G02*
X76385000Y-97315000I0J-250000D01*
G01*
G37*
G36*
G01*
X83952000Y-60175000D02*
X83952000Y-60475000D01*
G75*
G02*
X83802000Y-60625000I-150000J0D01*
G01*
X82202000Y-60625000D01*
G75*
G02*
X82052000Y-60475000I0J150000D01*
G01*
X82052000Y-60175000D01*
G75*
G02*
X82202000Y-60025000I150000J0D01*
G01*
X83802000Y-60025000D01*
G75*
G02*
X83952000Y-60175000I0J-150000D01*
G01*
G37*
G36*
G01*
X83952000Y-61445000D02*
X83952000Y-61745000D01*
G75*
G02*
X83802000Y-61895000I-150000J0D01*
G01*
X82202000Y-61895000D01*
G75*
G02*
X82052000Y-61745000I0J150000D01*
G01*
X82052000Y-61445000D01*
G75*
G02*
X82202000Y-61295000I150000J0D01*
G01*
X83802000Y-61295000D01*
G75*
G02*
X83952000Y-61445000I0J-150000D01*
G01*
G37*
G36*
G01*
X83952000Y-62715000D02*
X83952000Y-63015000D01*
G75*
G02*
X83802000Y-63165000I-150000J0D01*
G01*
X82202000Y-63165000D01*
G75*
G02*
X82052000Y-63015000I0J150000D01*
G01*
X82052000Y-62715000D01*
G75*
G02*
X82202000Y-62565000I150000J0D01*
G01*
X83802000Y-62565000D01*
G75*
G02*
X83952000Y-62715000I0J-150000D01*
G01*
G37*
G36*
G01*
X83952000Y-63985000D02*
X83952000Y-64285000D01*
G75*
G02*
X83802000Y-64435000I-150000J0D01*
G01*
X82202000Y-64435000D01*
G75*
G02*
X82052000Y-64285000I0J150000D01*
G01*
X82052000Y-63985000D01*
G75*
G02*
X82202000Y-63835000I150000J0D01*
G01*
X83802000Y-63835000D01*
G75*
G02*
X83952000Y-63985000I0J-150000D01*
G01*
G37*
G36*
G01*
X76952000Y-63985000D02*
X76952000Y-64285000D01*
G75*
G02*
X76802000Y-64435000I-150000J0D01*
G01*
X75202000Y-64435000D01*
G75*
G02*
X75052000Y-64285000I0J150000D01*
G01*
X75052000Y-63985000D01*
G75*
G02*
X75202000Y-63835000I150000J0D01*
G01*
X76802000Y-63835000D01*
G75*
G02*
X76952000Y-63985000I0J-150000D01*
G01*
G37*
G36*
G01*
X76952000Y-62715000D02*
X76952000Y-63015000D01*
G75*
G02*
X76802000Y-63165000I-150000J0D01*
G01*
X75202000Y-63165000D01*
G75*
G02*
X75052000Y-63015000I0J150000D01*
G01*
X75052000Y-62715000D01*
G75*
G02*
X75202000Y-62565000I150000J0D01*
G01*
X76802000Y-62565000D01*
G75*
G02*
X76952000Y-62715000I0J-150000D01*
G01*
G37*
G36*
G01*
X76952000Y-61445000D02*
X76952000Y-61745000D01*
G75*
G02*
X76802000Y-61895000I-150000J0D01*
G01*
X75202000Y-61895000D01*
G75*
G02*
X75052000Y-61745000I0J150000D01*
G01*
X75052000Y-61445000D01*
G75*
G02*
X75202000Y-61295000I150000J0D01*
G01*
X76802000Y-61295000D01*
G75*
G02*
X76952000Y-61445000I0J-150000D01*
G01*
G37*
G36*
G01*
X76952000Y-60175000D02*
X76952000Y-60475000D01*
G75*
G02*
X76802000Y-60625000I-150000J0D01*
G01*
X75202000Y-60625000D01*
G75*
G02*
X75052000Y-60475000I0J150000D01*
G01*
X75052000Y-60175000D01*
G75*
G02*
X75202000Y-60025000I150000J0D01*
G01*
X76802000Y-60025000D01*
G75*
G02*
X76952000Y-60175000I0J-150000D01*
G01*
G37*
D21*
X67945000Y-151130000D03*
X161925000Y-89535000D03*
G36*
G01*
X122075000Y-118422000D02*
X122075000Y-119322000D01*
G75*
G02*
X121825000Y-119572000I-250000J0D01*
G01*
X121300000Y-119572000D01*
G75*
G02*
X121050000Y-119322000I0J250000D01*
G01*
X121050000Y-118422000D01*
G75*
G02*
X121300000Y-118172000I250000J0D01*
G01*
X121825000Y-118172000D01*
G75*
G02*
X122075000Y-118422000I0J-250000D01*
G01*
G37*
G36*
G01*
X120250000Y-118422000D02*
X120250000Y-119322000D01*
G75*
G02*
X120000000Y-119572000I-250000J0D01*
G01*
X119475000Y-119572000D01*
G75*
G02*
X119225000Y-119322000I0J250000D01*
G01*
X119225000Y-118422000D01*
G75*
G02*
X119475000Y-118172000I250000J0D01*
G01*
X120000000Y-118172000D01*
G75*
G02*
X120250000Y-118422000I0J-250000D01*
G01*
G37*
G36*
G01*
X76285000Y-141140000D02*
X76285000Y-141440000D01*
G75*
G02*
X76135000Y-141590000I-150000J0D01*
G01*
X74960000Y-141590000D01*
G75*
G02*
X74810000Y-141440000I0J150000D01*
G01*
X74810000Y-141140000D01*
G75*
G02*
X74960000Y-140990000I150000J0D01*
G01*
X76135000Y-140990000D01*
G75*
G02*
X76285000Y-141140000I0J-150000D01*
G01*
G37*
G36*
G01*
X76285000Y-143040000D02*
X76285000Y-143340000D01*
G75*
G02*
X76135000Y-143490000I-150000J0D01*
G01*
X74960000Y-143490000D01*
G75*
G02*
X74810000Y-143340000I0J150000D01*
G01*
X74810000Y-143040000D01*
G75*
G02*
X74960000Y-142890000I150000J0D01*
G01*
X76135000Y-142890000D01*
G75*
G02*
X76285000Y-143040000I0J-150000D01*
G01*
G37*
G36*
G01*
X74410000Y-142090000D02*
X74410000Y-142390000D01*
G75*
G02*
X74260000Y-142540000I-150000J0D01*
G01*
X73085000Y-142540000D01*
G75*
G02*
X72935000Y-142390000I0J150000D01*
G01*
X72935000Y-142090000D01*
G75*
G02*
X73085000Y-141940000I150000J0D01*
G01*
X74260000Y-141940000D01*
G75*
G02*
X74410000Y-142090000I0J-150000D01*
G01*
G37*
G36*
G01*
X91158000Y-174430000D02*
X91158000Y-173530000D01*
G75*
G02*
X91408000Y-173280000I250000J0D01*
G01*
X91933000Y-173280000D01*
G75*
G02*
X92183000Y-173530000I0J-250000D01*
G01*
X92183000Y-174430000D01*
G75*
G02*
X91933000Y-174680000I-250000J0D01*
G01*
X91408000Y-174680000D01*
G75*
G02*
X91158000Y-174430000I0J250000D01*
G01*
G37*
G36*
G01*
X92983000Y-174430000D02*
X92983000Y-173530000D01*
G75*
G02*
X93233000Y-173280000I250000J0D01*
G01*
X93758000Y-173280000D01*
G75*
G02*
X94008000Y-173530000I0J-250000D01*
G01*
X94008000Y-174430000D01*
G75*
G02*
X93758000Y-174680000I-250000J0D01*
G01*
X93233000Y-174680000D01*
G75*
G02*
X92983000Y-174430000I0J250000D01*
G01*
G37*
G36*
G01*
X94008000Y-181160000D02*
X94008000Y-182060000D01*
G75*
G02*
X93758000Y-182310000I-250000J0D01*
G01*
X93233000Y-182310000D01*
G75*
G02*
X92983000Y-182060000I0J250000D01*
G01*
X92983000Y-181160000D01*
G75*
G02*
X93233000Y-180910000I250000J0D01*
G01*
X93758000Y-180910000D01*
G75*
G02*
X94008000Y-181160000I0J-250000D01*
G01*
G37*
G36*
G01*
X92183000Y-181160000D02*
X92183000Y-182060000D01*
G75*
G02*
X91933000Y-182310000I-250000J0D01*
G01*
X91408000Y-182310000D01*
G75*
G02*
X91158000Y-182060000I0J250000D01*
G01*
X91158000Y-181160000D01*
G75*
G02*
X91408000Y-180910000I250000J0D01*
G01*
X91933000Y-180910000D01*
G75*
G02*
X92183000Y-181160000I0J-250000D01*
G01*
G37*
D20*
X138430000Y-93646000D03*
X138430000Y-88646000D03*
G36*
G01*
X113510000Y-115766000D02*
X113510000Y-114866000D01*
G75*
G02*
X113760000Y-114616000I250000J0D01*
G01*
X114285000Y-114616000D01*
G75*
G02*
X114535000Y-114866000I0J-250000D01*
G01*
X114535000Y-115766000D01*
G75*
G02*
X114285000Y-116016000I-250000J0D01*
G01*
X113760000Y-116016000D01*
G75*
G02*
X113510000Y-115766000I0J250000D01*
G01*
G37*
G36*
G01*
X115335000Y-115766000D02*
X115335000Y-114866000D01*
G75*
G02*
X115585000Y-114616000I250000J0D01*
G01*
X116110000Y-114616000D01*
G75*
G02*
X116360000Y-114866000I0J-250000D01*
G01*
X116360000Y-115766000D01*
G75*
G02*
X116110000Y-116016000I-250000J0D01*
G01*
X115585000Y-116016000D01*
G75*
G02*
X115335000Y-115766000I0J250000D01*
G01*
G37*
G36*
G01*
X133530000Y-114460000D02*
X133530000Y-115410000D01*
G75*
G02*
X133280000Y-115660000I-250000J0D01*
G01*
X132780000Y-115660000D01*
G75*
G02*
X132530000Y-115410000I0J250000D01*
G01*
X132530000Y-114460000D01*
G75*
G02*
X132780000Y-114210000I250000J0D01*
G01*
X133280000Y-114210000D01*
G75*
G02*
X133530000Y-114460000I0J-250000D01*
G01*
G37*
G36*
G01*
X131630000Y-114460000D02*
X131630000Y-115410000D01*
G75*
G02*
X131380000Y-115660000I-250000J0D01*
G01*
X130880000Y-115660000D01*
G75*
G02*
X130630000Y-115410000I0J250000D01*
G01*
X130630000Y-114460000D01*
G75*
G02*
X130880000Y-114210000I250000J0D01*
G01*
X131380000Y-114210000D01*
G75*
G02*
X131630000Y-114460000I0J-250000D01*
G01*
G37*
G36*
G01*
X165330000Y-187560000D02*
X163640000Y-187560000D01*
G75*
G02*
X163390000Y-187310000I0J250000D01*
G01*
X163390000Y-186070000D01*
G75*
G02*
X163640000Y-185820000I250000J0D01*
G01*
X165330000Y-185820000D01*
G75*
G02*
X165580000Y-186070000I0J-250000D01*
G01*
X165580000Y-187310000D01*
G75*
G02*
X165330000Y-187560000I-250000J0D01*
G01*
G37*
D17*
X164485000Y-184150000D03*
X164485000Y-181610000D03*
X164485000Y-179070000D03*
D18*
X93218000Y-96265000D03*
X93218000Y-92965000D03*
G36*
G01*
X137005000Y-97986000D02*
X137005000Y-97086000D01*
G75*
G02*
X137255000Y-96836000I250000J0D01*
G01*
X137780000Y-96836000D01*
G75*
G02*
X138030000Y-97086000I0J-250000D01*
G01*
X138030000Y-97986000D01*
G75*
G02*
X137780000Y-98236000I-250000J0D01*
G01*
X137255000Y-98236000D01*
G75*
G02*
X137005000Y-97986000I0J250000D01*
G01*
G37*
G36*
G01*
X138830000Y-97986000D02*
X138830000Y-97086000D01*
G75*
G02*
X139080000Y-96836000I250000J0D01*
G01*
X139605000Y-96836000D01*
G75*
G02*
X139855000Y-97086000I0J-250000D01*
G01*
X139855000Y-97986000D01*
G75*
G02*
X139605000Y-98236000I-250000J0D01*
G01*
X139080000Y-98236000D01*
G75*
G02*
X138830000Y-97986000I0J250000D01*
G01*
G37*
G36*
G01*
X69187000Y-91001000D02*
X69187000Y-90101000D01*
G75*
G02*
X69437000Y-89851000I250000J0D01*
G01*
X69962000Y-89851000D01*
G75*
G02*
X70212000Y-90101000I0J-250000D01*
G01*
X70212000Y-91001000D01*
G75*
G02*
X69962000Y-91251000I-250000J0D01*
G01*
X69437000Y-91251000D01*
G75*
G02*
X69187000Y-91001000I0J250000D01*
G01*
G37*
G36*
G01*
X71012000Y-91001000D02*
X71012000Y-90101000D01*
G75*
G02*
X71262000Y-89851000I250000J0D01*
G01*
X71787000Y-89851000D01*
G75*
G02*
X72037000Y-90101000I0J-250000D01*
G01*
X72037000Y-91001000D01*
G75*
G02*
X71787000Y-91251000I-250000J0D01*
G01*
X71262000Y-91251000D01*
G75*
G02*
X71012000Y-91001000I0J250000D01*
G01*
G37*
G36*
G01*
X118082000Y-182060000D02*
X118082000Y-181160000D01*
G75*
G02*
X118332000Y-180910000I250000J0D01*
G01*
X118857000Y-180910000D01*
G75*
G02*
X119107000Y-181160000I0J-250000D01*
G01*
X119107000Y-182060000D01*
G75*
G02*
X118857000Y-182310000I-250000J0D01*
G01*
X118332000Y-182310000D01*
G75*
G02*
X118082000Y-182060000I0J250000D01*
G01*
G37*
G36*
G01*
X119907000Y-182060000D02*
X119907000Y-181160000D01*
G75*
G02*
X120157000Y-180910000I250000J0D01*
G01*
X120682000Y-180910000D01*
G75*
G02*
X120932000Y-181160000I0J-250000D01*
G01*
X120932000Y-182060000D01*
G75*
G02*
X120682000Y-182310000I-250000J0D01*
G01*
X120157000Y-182310000D01*
G75*
G02*
X119907000Y-182060000I0J250000D01*
G01*
G37*
G36*
G01*
X133530000Y-97315000D02*
X133530000Y-98265000D01*
G75*
G02*
X133280000Y-98515000I-250000J0D01*
G01*
X132780000Y-98515000D01*
G75*
G02*
X132530000Y-98265000I0J250000D01*
G01*
X132530000Y-97315000D01*
G75*
G02*
X132780000Y-97065000I250000J0D01*
G01*
X133280000Y-97065000D01*
G75*
G02*
X133530000Y-97315000I0J-250000D01*
G01*
G37*
G36*
G01*
X131630000Y-97315000D02*
X131630000Y-98265000D01*
G75*
G02*
X131380000Y-98515000I-250000J0D01*
G01*
X130880000Y-98515000D01*
G75*
G02*
X130630000Y-98265000I0J250000D01*
G01*
X130630000Y-97315000D01*
G75*
G02*
X130880000Y-97065000I250000J0D01*
G01*
X131380000Y-97065000D01*
G75*
G02*
X131630000Y-97315000I0J-250000D01*
G01*
G37*
G36*
G01*
X119225000Y-90874000D02*
X119225000Y-89974000D01*
G75*
G02*
X119475000Y-89724000I250000J0D01*
G01*
X120000000Y-89724000D01*
G75*
G02*
X120250000Y-89974000I0J-250000D01*
G01*
X120250000Y-90874000D01*
G75*
G02*
X120000000Y-91124000I-250000J0D01*
G01*
X119475000Y-91124000D01*
G75*
G02*
X119225000Y-90874000I0J250000D01*
G01*
G37*
G36*
G01*
X121050000Y-90874000D02*
X121050000Y-89974000D01*
G75*
G02*
X121300000Y-89724000I250000J0D01*
G01*
X121825000Y-89724000D01*
G75*
G02*
X122075000Y-89974000I0J-250000D01*
G01*
X122075000Y-90874000D01*
G75*
G02*
X121825000Y-91124000I-250000J0D01*
G01*
X121300000Y-91124000D01*
G75*
G02*
X121050000Y-90874000I0J250000D01*
G01*
G37*
G36*
G01*
X94033000Y-177325000D02*
X94033000Y-178275000D01*
G75*
G02*
X93783000Y-178525000I-250000J0D01*
G01*
X93283000Y-178525000D01*
G75*
G02*
X93033000Y-178275000I0J250000D01*
G01*
X93033000Y-177325000D01*
G75*
G02*
X93283000Y-177075000I250000J0D01*
G01*
X93783000Y-177075000D01*
G75*
G02*
X94033000Y-177325000I0J-250000D01*
G01*
G37*
G36*
G01*
X92133000Y-177325000D02*
X92133000Y-178275000D01*
G75*
G02*
X91883000Y-178525000I-250000J0D01*
G01*
X91383000Y-178525000D01*
G75*
G02*
X91133000Y-178275000I0J250000D01*
G01*
X91133000Y-177325000D01*
G75*
G02*
X91383000Y-177075000I250000J0D01*
G01*
X91883000Y-177075000D01*
G75*
G02*
X92133000Y-177325000I0J-250000D01*
G01*
G37*
G36*
G01*
X72037000Y-75877000D02*
X72037000Y-76777000D01*
G75*
G02*
X71787000Y-77027000I-250000J0D01*
G01*
X71262000Y-77027000D01*
G75*
G02*
X71012000Y-76777000I0J250000D01*
G01*
X71012000Y-75877000D01*
G75*
G02*
X71262000Y-75627000I250000J0D01*
G01*
X71787000Y-75627000D01*
G75*
G02*
X72037000Y-75877000I0J-250000D01*
G01*
G37*
G36*
G01*
X70212000Y-75877000D02*
X70212000Y-76777000D01*
G75*
G02*
X69962000Y-77027000I-250000J0D01*
G01*
X69437000Y-77027000D01*
G75*
G02*
X69187000Y-76777000I0J250000D01*
G01*
X69187000Y-75877000D01*
G75*
G02*
X69437000Y-75627000I250000J0D01*
G01*
X69962000Y-75627000D01*
G75*
G02*
X70212000Y-75877000I0J-250000D01*
G01*
G37*
D22*
X82275000Y-204470000D03*
D20*
X79775000Y-204470000D03*
G36*
G01*
X121440000Y-61780000D02*
X121440000Y-62680000D01*
G75*
G02*
X121190000Y-62930000I-250000J0D01*
G01*
X120665000Y-62930000D01*
G75*
G02*
X120415000Y-62680000I0J250000D01*
G01*
X120415000Y-61780000D01*
G75*
G02*
X120665000Y-61530000I250000J0D01*
G01*
X121190000Y-61530000D01*
G75*
G02*
X121440000Y-61780000I0J-250000D01*
G01*
G37*
G36*
G01*
X119615000Y-61780000D02*
X119615000Y-62680000D01*
G75*
G02*
X119365000Y-62930000I-250000J0D01*
G01*
X118840000Y-62930000D01*
G75*
G02*
X118590000Y-62680000I0J250000D01*
G01*
X118590000Y-61780000D01*
G75*
G02*
X118840000Y-61530000I250000J0D01*
G01*
X119365000Y-61530000D01*
G75*
G02*
X119615000Y-61780000I0J-250000D01*
G01*
G37*
G36*
G01*
X116385000Y-118397000D02*
X116385000Y-119347000D01*
G75*
G02*
X116135000Y-119597000I-250000J0D01*
G01*
X115635000Y-119597000D01*
G75*
G02*
X115385000Y-119347000I0J250000D01*
G01*
X115385000Y-118397000D01*
G75*
G02*
X115635000Y-118147000I250000J0D01*
G01*
X116135000Y-118147000D01*
G75*
G02*
X116385000Y-118397000I0J-250000D01*
G01*
G37*
G36*
G01*
X114485000Y-118397000D02*
X114485000Y-119347000D01*
G75*
G02*
X114235000Y-119597000I-250000J0D01*
G01*
X113735000Y-119597000D01*
G75*
G02*
X113485000Y-119347000I0J250000D01*
G01*
X113485000Y-118397000D01*
G75*
G02*
X113735000Y-118147000I250000J0D01*
G01*
X114235000Y-118147000D01*
G75*
G02*
X114485000Y-118397000I0J-250000D01*
G01*
G37*
G36*
G01*
X72037000Y-79433000D02*
X72037000Y-80333000D01*
G75*
G02*
X71787000Y-80583000I-250000J0D01*
G01*
X71262000Y-80583000D01*
G75*
G02*
X71012000Y-80333000I0J250000D01*
G01*
X71012000Y-79433000D01*
G75*
G02*
X71262000Y-79183000I250000J0D01*
G01*
X71787000Y-79183000D01*
G75*
G02*
X72037000Y-79433000I0J-250000D01*
G01*
G37*
G36*
G01*
X70212000Y-79433000D02*
X70212000Y-80333000D01*
G75*
G02*
X69962000Y-80583000I-250000J0D01*
G01*
X69437000Y-80583000D01*
G75*
G02*
X69187000Y-80333000I0J250000D01*
G01*
X69187000Y-79433000D01*
G75*
G02*
X69437000Y-79183000I250000J0D01*
G01*
X69962000Y-79183000D01*
G75*
G02*
X70212000Y-79433000I0J-250000D01*
G01*
G37*
G36*
G01*
X72037000Y-111437000D02*
X72037000Y-112337000D01*
G75*
G02*
X71787000Y-112587000I-250000J0D01*
G01*
X71262000Y-112587000D01*
G75*
G02*
X71012000Y-112337000I0J250000D01*
G01*
X71012000Y-111437000D01*
G75*
G02*
X71262000Y-111187000I250000J0D01*
G01*
X71787000Y-111187000D01*
G75*
G02*
X72037000Y-111437000I0J-250000D01*
G01*
G37*
G36*
G01*
X70212000Y-111437000D02*
X70212000Y-112337000D01*
G75*
G02*
X69962000Y-112587000I-250000J0D01*
G01*
X69437000Y-112587000D01*
G75*
G02*
X69187000Y-112337000I0J250000D01*
G01*
X69187000Y-111437000D01*
G75*
G02*
X69437000Y-111187000I250000J0D01*
G01*
X69962000Y-111187000D01*
G75*
G02*
X70212000Y-111437000I0J-250000D01*
G01*
G37*
D18*
X143764000Y-96138000D03*
X143764000Y-92838000D03*
G36*
G01*
X139855000Y-104198000D02*
X139855000Y-105098000D01*
G75*
G02*
X139605000Y-105348000I-250000J0D01*
G01*
X139080000Y-105348000D01*
G75*
G02*
X138830000Y-105098000I0J250000D01*
G01*
X138830000Y-104198000D01*
G75*
G02*
X139080000Y-103948000I250000J0D01*
G01*
X139605000Y-103948000D01*
G75*
G02*
X139855000Y-104198000I0J-250000D01*
G01*
G37*
G36*
G01*
X138030000Y-104198000D02*
X138030000Y-105098000D01*
G75*
G02*
X137780000Y-105348000I-250000J0D01*
G01*
X137255000Y-105348000D01*
G75*
G02*
X137005000Y-105098000I0J250000D01*
G01*
X137005000Y-104198000D01*
G75*
G02*
X137255000Y-103948000I250000J0D01*
G01*
X137780000Y-103948000D01*
G75*
G02*
X138030000Y-104198000I0J-250000D01*
G01*
G37*
G36*
G01*
X86840000Y-61410000D02*
X86840000Y-60510000D01*
G75*
G02*
X87090000Y-60260000I250000J0D01*
G01*
X87615000Y-60260000D01*
G75*
G02*
X87865000Y-60510000I0J-250000D01*
G01*
X87865000Y-61410000D01*
G75*
G02*
X87615000Y-61660000I-250000J0D01*
G01*
X87090000Y-61660000D01*
G75*
G02*
X86840000Y-61410000I0J250000D01*
G01*
G37*
G36*
G01*
X88665000Y-61410000D02*
X88665000Y-60510000D01*
G75*
G02*
X88915000Y-60260000I250000J0D01*
G01*
X89440000Y-60260000D01*
G75*
G02*
X89690000Y-60510000I0J-250000D01*
G01*
X89690000Y-61410000D01*
G75*
G02*
X89440000Y-61660000I-250000J0D01*
G01*
X88915000Y-61660000D01*
G75*
G02*
X88665000Y-61410000I0J250000D01*
G01*
G37*
G36*
G01*
X89817000Y-107881000D02*
X89817000Y-108781000D01*
G75*
G02*
X89567000Y-109031000I-250000J0D01*
G01*
X89042000Y-109031000D01*
G75*
G02*
X88792000Y-108781000I0J250000D01*
G01*
X88792000Y-107881000D01*
G75*
G02*
X89042000Y-107631000I250000J0D01*
G01*
X89567000Y-107631000D01*
G75*
G02*
X89817000Y-107881000I0J-250000D01*
G01*
G37*
G36*
G01*
X87992000Y-107881000D02*
X87992000Y-108781000D01*
G75*
G02*
X87742000Y-109031000I-250000J0D01*
G01*
X87217000Y-109031000D01*
G75*
G02*
X86967000Y-108781000I0J250000D01*
G01*
X86967000Y-107881000D01*
G75*
G02*
X87217000Y-107631000I250000J0D01*
G01*
X87742000Y-107631000D01*
G75*
G02*
X87992000Y-107881000I0J-250000D01*
G01*
G37*
G36*
G01*
X83952000Y-89512000D02*
X83952000Y-89812000D01*
G75*
G02*
X83802000Y-89962000I-150000J0D01*
G01*
X82202000Y-89962000D01*
G75*
G02*
X82052000Y-89812000I0J150000D01*
G01*
X82052000Y-89512000D01*
G75*
G02*
X82202000Y-89362000I150000J0D01*
G01*
X83802000Y-89362000D01*
G75*
G02*
X83952000Y-89512000I0J-150000D01*
G01*
G37*
G36*
G01*
X83952000Y-90782000D02*
X83952000Y-91082000D01*
G75*
G02*
X83802000Y-91232000I-150000J0D01*
G01*
X82202000Y-91232000D01*
G75*
G02*
X82052000Y-91082000I0J150000D01*
G01*
X82052000Y-90782000D01*
G75*
G02*
X82202000Y-90632000I150000J0D01*
G01*
X83802000Y-90632000D01*
G75*
G02*
X83952000Y-90782000I0J-150000D01*
G01*
G37*
G36*
G01*
X83952000Y-92052000D02*
X83952000Y-92352000D01*
G75*
G02*
X83802000Y-92502000I-150000J0D01*
G01*
X82202000Y-92502000D01*
G75*
G02*
X82052000Y-92352000I0J150000D01*
G01*
X82052000Y-92052000D01*
G75*
G02*
X82202000Y-91902000I150000J0D01*
G01*
X83802000Y-91902000D01*
G75*
G02*
X83952000Y-92052000I0J-150000D01*
G01*
G37*
G36*
G01*
X83952000Y-93322000D02*
X83952000Y-93622000D01*
G75*
G02*
X83802000Y-93772000I-150000J0D01*
G01*
X82202000Y-93772000D01*
G75*
G02*
X82052000Y-93622000I0J150000D01*
G01*
X82052000Y-93322000D01*
G75*
G02*
X82202000Y-93172000I150000J0D01*
G01*
X83802000Y-93172000D01*
G75*
G02*
X83952000Y-93322000I0J-150000D01*
G01*
G37*
G36*
G01*
X76952000Y-93322000D02*
X76952000Y-93622000D01*
G75*
G02*
X76802000Y-93772000I-150000J0D01*
G01*
X75202000Y-93772000D01*
G75*
G02*
X75052000Y-93622000I0J150000D01*
G01*
X75052000Y-93322000D01*
G75*
G02*
X75202000Y-93172000I150000J0D01*
G01*
X76802000Y-93172000D01*
G75*
G02*
X76952000Y-93322000I0J-150000D01*
G01*
G37*
G36*
G01*
X76952000Y-92052000D02*
X76952000Y-92352000D01*
G75*
G02*
X76802000Y-92502000I-150000J0D01*
G01*
X75202000Y-92502000D01*
G75*
G02*
X75052000Y-92352000I0J150000D01*
G01*
X75052000Y-92052000D01*
G75*
G02*
X75202000Y-91902000I150000J0D01*
G01*
X76802000Y-91902000D01*
G75*
G02*
X76952000Y-92052000I0J-150000D01*
G01*
G37*
G36*
G01*
X76952000Y-90782000D02*
X76952000Y-91082000D01*
G75*
G02*
X76802000Y-91232000I-150000J0D01*
G01*
X75202000Y-91232000D01*
G75*
G02*
X75052000Y-91082000I0J150000D01*
G01*
X75052000Y-90782000D01*
G75*
G02*
X75202000Y-90632000I150000J0D01*
G01*
X76802000Y-90632000D01*
G75*
G02*
X76952000Y-90782000I0J-150000D01*
G01*
G37*
G36*
G01*
X76952000Y-89512000D02*
X76952000Y-89812000D01*
G75*
G02*
X76802000Y-89962000I-150000J0D01*
G01*
X75202000Y-89962000D01*
G75*
G02*
X75052000Y-89812000I0J150000D01*
G01*
X75052000Y-89512000D01*
G75*
G02*
X75202000Y-89362000I150000J0D01*
G01*
X76802000Y-89362000D01*
G75*
G02*
X76952000Y-89512000I0J-150000D01*
G01*
G37*
G36*
G01*
X119225000Y-115766000D02*
X119225000Y-114866000D01*
G75*
G02*
X119475000Y-114616000I250000J0D01*
G01*
X120000000Y-114616000D01*
G75*
G02*
X120250000Y-114866000I0J-250000D01*
G01*
X120250000Y-115766000D01*
G75*
G02*
X120000000Y-116016000I-250000J0D01*
G01*
X119475000Y-116016000D01*
G75*
G02*
X119225000Y-115766000I0J250000D01*
G01*
G37*
G36*
G01*
X121050000Y-115766000D02*
X121050000Y-114866000D01*
G75*
G02*
X121300000Y-114616000I250000J0D01*
G01*
X121825000Y-114616000D01*
G75*
G02*
X122075000Y-114866000I0J-250000D01*
G01*
X122075000Y-115766000D01*
G75*
G02*
X121825000Y-116016000I-250000J0D01*
G01*
X121300000Y-116016000D01*
G75*
G02*
X121050000Y-115766000I0J250000D01*
G01*
G37*
X114935000Y-142114000D03*
X114935000Y-145414000D03*
X143764000Y-86488000D03*
X143764000Y-89788000D03*
G36*
G01*
X82952000Y-102466000D02*
X82952000Y-102766000D01*
G75*
G02*
X82802000Y-102916000I-150000J0D01*
G01*
X81152000Y-102916000D01*
G75*
G02*
X81002000Y-102766000I0J150000D01*
G01*
X81002000Y-102466000D01*
G75*
G02*
X81152000Y-102316000I150000J0D01*
G01*
X82802000Y-102316000D01*
G75*
G02*
X82952000Y-102466000I0J-150000D01*
G01*
G37*
G36*
G01*
X82952000Y-103736000D02*
X82952000Y-104036000D01*
G75*
G02*
X82802000Y-104186000I-150000J0D01*
G01*
X81152000Y-104186000D01*
G75*
G02*
X81002000Y-104036000I0J150000D01*
G01*
X81002000Y-103736000D01*
G75*
G02*
X81152000Y-103586000I150000J0D01*
G01*
X82802000Y-103586000D01*
G75*
G02*
X82952000Y-103736000I0J-150000D01*
G01*
G37*
G36*
G01*
X82952000Y-105006000D02*
X82952000Y-105306000D01*
G75*
G02*
X82802000Y-105456000I-150000J0D01*
G01*
X81152000Y-105456000D01*
G75*
G02*
X81002000Y-105306000I0J150000D01*
G01*
X81002000Y-105006000D01*
G75*
G02*
X81152000Y-104856000I150000J0D01*
G01*
X82802000Y-104856000D01*
G75*
G02*
X82952000Y-105006000I0J-150000D01*
G01*
G37*
G36*
G01*
X82952000Y-106276000D02*
X82952000Y-106576000D01*
G75*
G02*
X82802000Y-106726000I-150000J0D01*
G01*
X81152000Y-106726000D01*
G75*
G02*
X81002000Y-106576000I0J150000D01*
G01*
X81002000Y-106276000D01*
G75*
G02*
X81152000Y-106126000I150000J0D01*
G01*
X82802000Y-106126000D01*
G75*
G02*
X82952000Y-106276000I0J-150000D01*
G01*
G37*
G36*
G01*
X82952000Y-107546000D02*
X82952000Y-107846000D01*
G75*
G02*
X82802000Y-107996000I-150000J0D01*
G01*
X81152000Y-107996000D01*
G75*
G02*
X81002000Y-107846000I0J150000D01*
G01*
X81002000Y-107546000D01*
G75*
G02*
X81152000Y-107396000I150000J0D01*
G01*
X82802000Y-107396000D01*
G75*
G02*
X82952000Y-107546000I0J-150000D01*
G01*
G37*
G36*
G01*
X82952000Y-108816000D02*
X82952000Y-109116000D01*
G75*
G02*
X82802000Y-109266000I-150000J0D01*
G01*
X81152000Y-109266000D01*
G75*
G02*
X81002000Y-109116000I0J150000D01*
G01*
X81002000Y-108816000D01*
G75*
G02*
X81152000Y-108666000I150000J0D01*
G01*
X82802000Y-108666000D01*
G75*
G02*
X82952000Y-108816000I0J-150000D01*
G01*
G37*
G36*
G01*
X82952000Y-110086000D02*
X82952000Y-110386000D01*
G75*
G02*
X82802000Y-110536000I-150000J0D01*
G01*
X81152000Y-110536000D01*
G75*
G02*
X81002000Y-110386000I0J150000D01*
G01*
X81002000Y-110086000D01*
G75*
G02*
X81152000Y-109936000I150000J0D01*
G01*
X82802000Y-109936000D01*
G75*
G02*
X82952000Y-110086000I0J-150000D01*
G01*
G37*
G36*
G01*
X82952000Y-111356000D02*
X82952000Y-111656000D01*
G75*
G02*
X82802000Y-111806000I-150000J0D01*
G01*
X81152000Y-111806000D01*
G75*
G02*
X81002000Y-111656000I0J150000D01*
G01*
X81002000Y-111356000D01*
G75*
G02*
X81152000Y-111206000I150000J0D01*
G01*
X82802000Y-111206000D01*
G75*
G02*
X82952000Y-111356000I0J-150000D01*
G01*
G37*
G36*
G01*
X78002000Y-111356000D02*
X78002000Y-111656000D01*
G75*
G02*
X77852000Y-111806000I-150000J0D01*
G01*
X76202000Y-111806000D01*
G75*
G02*
X76052000Y-111656000I0J150000D01*
G01*
X76052000Y-111356000D01*
G75*
G02*
X76202000Y-111206000I150000J0D01*
G01*
X77852000Y-111206000D01*
G75*
G02*
X78002000Y-111356000I0J-150000D01*
G01*
G37*
G36*
G01*
X78002000Y-110086000D02*
X78002000Y-110386000D01*
G75*
G02*
X77852000Y-110536000I-150000J0D01*
G01*
X76202000Y-110536000D01*
G75*
G02*
X76052000Y-110386000I0J150000D01*
G01*
X76052000Y-110086000D01*
G75*
G02*
X76202000Y-109936000I150000J0D01*
G01*
X77852000Y-109936000D01*
G75*
G02*
X78002000Y-110086000I0J-150000D01*
G01*
G37*
G36*
G01*
X78002000Y-108816000D02*
X78002000Y-109116000D01*
G75*
G02*
X77852000Y-109266000I-150000J0D01*
G01*
X76202000Y-109266000D01*
G75*
G02*
X76052000Y-109116000I0J150000D01*
G01*
X76052000Y-108816000D01*
G75*
G02*
X76202000Y-108666000I150000J0D01*
G01*
X77852000Y-108666000D01*
G75*
G02*
X78002000Y-108816000I0J-150000D01*
G01*
G37*
G36*
G01*
X78002000Y-107546000D02*
X78002000Y-107846000D01*
G75*
G02*
X77852000Y-107996000I-150000J0D01*
G01*
X76202000Y-107996000D01*
G75*
G02*
X76052000Y-107846000I0J150000D01*
G01*
X76052000Y-107546000D01*
G75*
G02*
X76202000Y-107396000I150000J0D01*
G01*
X77852000Y-107396000D01*
G75*
G02*
X78002000Y-107546000I0J-150000D01*
G01*
G37*
G36*
G01*
X78002000Y-106276000D02*
X78002000Y-106576000D01*
G75*
G02*
X77852000Y-106726000I-150000J0D01*
G01*
X76202000Y-106726000D01*
G75*
G02*
X76052000Y-106576000I0J150000D01*
G01*
X76052000Y-106276000D01*
G75*
G02*
X76202000Y-106126000I150000J0D01*
G01*
X77852000Y-106126000D01*
G75*
G02*
X78002000Y-106276000I0J-150000D01*
G01*
G37*
G36*
G01*
X78002000Y-105006000D02*
X78002000Y-105306000D01*
G75*
G02*
X77852000Y-105456000I-150000J0D01*
G01*
X76202000Y-105456000D01*
G75*
G02*
X76052000Y-105306000I0J150000D01*
G01*
X76052000Y-105006000D01*
G75*
G02*
X76202000Y-104856000I150000J0D01*
G01*
X77852000Y-104856000D01*
G75*
G02*
X78002000Y-105006000I0J-150000D01*
G01*
G37*
G36*
G01*
X78002000Y-103736000D02*
X78002000Y-104036000D01*
G75*
G02*
X77852000Y-104186000I-150000J0D01*
G01*
X76202000Y-104186000D01*
G75*
G02*
X76052000Y-104036000I0J150000D01*
G01*
X76052000Y-103736000D01*
G75*
G02*
X76202000Y-103586000I150000J0D01*
G01*
X77852000Y-103586000D01*
G75*
G02*
X78002000Y-103736000I0J-150000D01*
G01*
G37*
G36*
G01*
X78002000Y-102466000D02*
X78002000Y-102766000D01*
G75*
G02*
X77852000Y-102916000I-150000J0D01*
G01*
X76202000Y-102916000D01*
G75*
G02*
X76052000Y-102766000I0J150000D01*
G01*
X76052000Y-102466000D01*
G75*
G02*
X76202000Y-102316000I150000J0D01*
G01*
X77852000Y-102316000D01*
G75*
G02*
X78002000Y-102466000I0J-150000D01*
G01*
G37*
G36*
G01*
X119225000Y-112210000D02*
X119225000Y-111310000D01*
G75*
G02*
X119475000Y-111060000I250000J0D01*
G01*
X120000000Y-111060000D01*
G75*
G02*
X120250000Y-111310000I0J-250000D01*
G01*
X120250000Y-112210000D01*
G75*
G02*
X120000000Y-112460000I-250000J0D01*
G01*
X119475000Y-112460000D01*
G75*
G02*
X119225000Y-112210000I0J250000D01*
G01*
G37*
G36*
G01*
X121050000Y-112210000D02*
X121050000Y-111310000D01*
G75*
G02*
X121300000Y-111060000I250000J0D01*
G01*
X121825000Y-111060000D01*
G75*
G02*
X122075000Y-111310000I0J-250000D01*
G01*
X122075000Y-112210000D01*
G75*
G02*
X121825000Y-112460000I-250000J0D01*
G01*
X121300000Y-112460000D01*
G75*
G02*
X121050000Y-112210000I0J250000D01*
G01*
G37*
G36*
G01*
X72037000Y-97213000D02*
X72037000Y-98113000D01*
G75*
G02*
X71787000Y-98363000I-250000J0D01*
G01*
X71262000Y-98363000D01*
G75*
G02*
X71012000Y-98113000I0J250000D01*
G01*
X71012000Y-97213000D01*
G75*
G02*
X71262000Y-96963000I250000J0D01*
G01*
X71787000Y-96963000D01*
G75*
G02*
X72037000Y-97213000I0J-250000D01*
G01*
G37*
G36*
G01*
X70212000Y-97213000D02*
X70212000Y-98113000D01*
G75*
G02*
X69962000Y-98363000I-250000J0D01*
G01*
X69437000Y-98363000D01*
G75*
G02*
X69187000Y-98113000I0J250000D01*
G01*
X69187000Y-97213000D01*
G75*
G02*
X69437000Y-96963000I250000J0D01*
G01*
X69962000Y-96963000D01*
G75*
G02*
X70212000Y-97213000I0J-250000D01*
G01*
G37*
G36*
G01*
X133530000Y-68105000D02*
X133530000Y-69055000D01*
G75*
G02*
X133280000Y-69305000I-250000J0D01*
G01*
X132780000Y-69305000D01*
G75*
G02*
X132530000Y-69055000I0J250000D01*
G01*
X132530000Y-68105000D01*
G75*
G02*
X132780000Y-67855000I250000J0D01*
G01*
X133280000Y-67855000D01*
G75*
G02*
X133530000Y-68105000I0J-250000D01*
G01*
G37*
G36*
G01*
X131630000Y-68105000D02*
X131630000Y-69055000D01*
G75*
G02*
X131380000Y-69305000I-250000J0D01*
G01*
X130880000Y-69305000D01*
G75*
G02*
X130630000Y-69055000I0J250000D01*
G01*
X130630000Y-68105000D01*
G75*
G02*
X130880000Y-67855000I250000J0D01*
G01*
X131380000Y-67855000D01*
G75*
G02*
X131630000Y-68105000I0J-250000D01*
G01*
G37*
G36*
G01*
X118057000Y-178275000D02*
X118057000Y-177325000D01*
G75*
G02*
X118307000Y-177075000I250000J0D01*
G01*
X118807000Y-177075000D01*
G75*
G02*
X119057000Y-177325000I0J-250000D01*
G01*
X119057000Y-178275000D01*
G75*
G02*
X118807000Y-178525000I-250000J0D01*
G01*
X118307000Y-178525000D01*
G75*
G02*
X118057000Y-178275000I0J250000D01*
G01*
G37*
G36*
G01*
X119957000Y-178275000D02*
X119957000Y-177325000D01*
G75*
G02*
X120207000Y-177075000I250000J0D01*
G01*
X120707000Y-177075000D01*
G75*
G02*
X120957000Y-177325000I0J-250000D01*
G01*
X120957000Y-178275000D01*
G75*
G02*
X120707000Y-178525000I-250000J0D01*
G01*
X120207000Y-178525000D01*
G75*
G02*
X119957000Y-178275000I0J250000D01*
G01*
G37*
G36*
G01*
X120932000Y-166164000D02*
X120932000Y-167064000D01*
G75*
G02*
X120682000Y-167314000I-250000J0D01*
G01*
X120157000Y-167314000D01*
G75*
G02*
X119907000Y-167064000I0J250000D01*
G01*
X119907000Y-166164000D01*
G75*
G02*
X120157000Y-165914000I250000J0D01*
G01*
X120682000Y-165914000D01*
G75*
G02*
X120932000Y-166164000I0J-250000D01*
G01*
G37*
G36*
G01*
X119107000Y-166164000D02*
X119107000Y-167064000D01*
G75*
G02*
X118857000Y-167314000I-250000J0D01*
G01*
X118332000Y-167314000D01*
G75*
G02*
X118082000Y-167064000I0J250000D01*
G01*
X118082000Y-166164000D01*
G75*
G02*
X118332000Y-165914000I250000J0D01*
G01*
X118857000Y-165914000D01*
G75*
G02*
X119107000Y-166164000I0J-250000D01*
G01*
G37*
G36*
G01*
X128450000Y-114460000D02*
X128450000Y-115410000D01*
G75*
G02*
X128200000Y-115660000I-250000J0D01*
G01*
X127700000Y-115660000D01*
G75*
G02*
X127450000Y-115410000I0J250000D01*
G01*
X127450000Y-114460000D01*
G75*
G02*
X127700000Y-114210000I250000J0D01*
G01*
X128200000Y-114210000D01*
G75*
G02*
X128450000Y-114460000I0J-250000D01*
G01*
G37*
G36*
G01*
X126550000Y-114460000D02*
X126550000Y-115410000D01*
G75*
G02*
X126300000Y-115660000I-250000J0D01*
G01*
X125800000Y-115660000D01*
G75*
G02*
X125550000Y-115410000I0J250000D01*
G01*
X125550000Y-114460000D01*
G75*
G02*
X125800000Y-114210000I250000J0D01*
G01*
X126300000Y-114210000D01*
G75*
G02*
X126550000Y-114460000I0J-250000D01*
G01*
G37*
D21*
X60325000Y-89535000D03*
G36*
G01*
X133863000Y-60175000D02*
X133863000Y-60475000D01*
G75*
G02*
X133713000Y-60625000I-150000J0D01*
G01*
X132113000Y-60625000D01*
G75*
G02*
X131963000Y-60475000I0J150000D01*
G01*
X131963000Y-60175000D01*
G75*
G02*
X132113000Y-60025000I150000J0D01*
G01*
X133713000Y-60025000D01*
G75*
G02*
X133863000Y-60175000I0J-150000D01*
G01*
G37*
G36*
G01*
X133863000Y-61445000D02*
X133863000Y-61745000D01*
G75*
G02*
X133713000Y-61895000I-150000J0D01*
G01*
X132113000Y-61895000D01*
G75*
G02*
X131963000Y-61745000I0J150000D01*
G01*
X131963000Y-61445000D01*
G75*
G02*
X132113000Y-61295000I150000J0D01*
G01*
X133713000Y-61295000D01*
G75*
G02*
X133863000Y-61445000I0J-150000D01*
G01*
G37*
G36*
G01*
X133863000Y-62715000D02*
X133863000Y-63015000D01*
G75*
G02*
X133713000Y-63165000I-150000J0D01*
G01*
X132113000Y-63165000D01*
G75*
G02*
X131963000Y-63015000I0J150000D01*
G01*
X131963000Y-62715000D01*
G75*
G02*
X132113000Y-62565000I150000J0D01*
G01*
X133713000Y-62565000D01*
G75*
G02*
X133863000Y-62715000I0J-150000D01*
G01*
G37*
G36*
G01*
X133863000Y-63985000D02*
X133863000Y-64285000D01*
G75*
G02*
X133713000Y-64435000I-150000J0D01*
G01*
X132113000Y-64435000D01*
G75*
G02*
X131963000Y-64285000I0J150000D01*
G01*
X131963000Y-63985000D01*
G75*
G02*
X132113000Y-63835000I150000J0D01*
G01*
X133713000Y-63835000D01*
G75*
G02*
X133863000Y-63985000I0J-150000D01*
G01*
G37*
G36*
G01*
X126863000Y-63985000D02*
X126863000Y-64285000D01*
G75*
G02*
X126713000Y-64435000I-150000J0D01*
G01*
X125113000Y-64435000D01*
G75*
G02*
X124963000Y-64285000I0J150000D01*
G01*
X124963000Y-63985000D01*
G75*
G02*
X125113000Y-63835000I150000J0D01*
G01*
X126713000Y-63835000D01*
G75*
G02*
X126863000Y-63985000I0J-150000D01*
G01*
G37*
G36*
G01*
X126863000Y-62715000D02*
X126863000Y-63015000D01*
G75*
G02*
X126713000Y-63165000I-150000J0D01*
G01*
X125113000Y-63165000D01*
G75*
G02*
X124963000Y-63015000I0J150000D01*
G01*
X124963000Y-62715000D01*
G75*
G02*
X125113000Y-62565000I150000J0D01*
G01*
X126713000Y-62565000D01*
G75*
G02*
X126863000Y-62715000I0J-150000D01*
G01*
G37*
G36*
G01*
X126863000Y-61445000D02*
X126863000Y-61745000D01*
G75*
G02*
X126713000Y-61895000I-150000J0D01*
G01*
X125113000Y-61895000D01*
G75*
G02*
X124963000Y-61745000I0J150000D01*
G01*
X124963000Y-61445000D01*
G75*
G02*
X125113000Y-61295000I150000J0D01*
G01*
X126713000Y-61295000D01*
G75*
G02*
X126863000Y-61445000I0J-150000D01*
G01*
G37*
G36*
G01*
X126863000Y-60175000D02*
X126863000Y-60475000D01*
G75*
G02*
X126713000Y-60625000I-150000J0D01*
G01*
X125113000Y-60625000D01*
G75*
G02*
X124963000Y-60475000I0J150000D01*
G01*
X124963000Y-60175000D01*
G75*
G02*
X125113000Y-60025000I150000J0D01*
G01*
X126713000Y-60025000D01*
G75*
G02*
X126863000Y-60175000I0J-150000D01*
G01*
G37*
G36*
G01*
X120932000Y-200210000D02*
X120932000Y-201110000D01*
G75*
G02*
X120682000Y-201360000I-250000J0D01*
G01*
X120157000Y-201360000D01*
G75*
G02*
X119907000Y-201110000I0J250000D01*
G01*
X119907000Y-200210000D01*
G75*
G02*
X120157000Y-199960000I250000J0D01*
G01*
X120682000Y-199960000D01*
G75*
G02*
X120932000Y-200210000I0J-250000D01*
G01*
G37*
G36*
G01*
X119107000Y-200210000D02*
X119107000Y-201110000D01*
G75*
G02*
X118857000Y-201360000I-250000J0D01*
G01*
X118332000Y-201360000D01*
G75*
G02*
X118082000Y-201110000I0J250000D01*
G01*
X118082000Y-200210000D01*
G75*
G02*
X118332000Y-199960000I250000J0D01*
G01*
X118857000Y-199960000D01*
G75*
G02*
X119107000Y-200210000I0J-250000D01*
G01*
G37*
X107315000Y-193040000D03*
D16*
X85090000Y-171450000D03*
X85090000Y-173990000D03*
X85090000Y-176530000D03*
G36*
G01*
X62742500Y-132900000D02*
X62742500Y-133800000D01*
G75*
G02*
X62492500Y-134050000I-250000J0D01*
G01*
X61967500Y-134050000D01*
G75*
G02*
X61717500Y-133800000I0J250000D01*
G01*
X61717500Y-132900000D01*
G75*
G02*
X61967500Y-132650000I250000J0D01*
G01*
X62492500Y-132650000D01*
G75*
G02*
X62742500Y-132900000I0J-250000D01*
G01*
G37*
G36*
G01*
X60917500Y-132900000D02*
X60917500Y-133800000D01*
G75*
G02*
X60667500Y-134050000I-250000J0D01*
G01*
X60142500Y-134050000D01*
G75*
G02*
X59892500Y-133800000I0J250000D01*
G01*
X59892500Y-132900000D01*
G75*
G02*
X60142500Y-132650000I250000J0D01*
G01*
X60667500Y-132650000D01*
G75*
G02*
X60917500Y-132900000I0J-250000D01*
G01*
G37*
D20*
X88392000Y-81621000D03*
X88392000Y-76621000D03*
G36*
G01*
X120932000Y-162608000D02*
X120932000Y-163508000D01*
G75*
G02*
X120682000Y-163758000I-250000J0D01*
G01*
X120157000Y-163758000D01*
G75*
G02*
X119907000Y-163508000I0J250000D01*
G01*
X119907000Y-162608000D01*
G75*
G02*
X120157000Y-162358000I250000J0D01*
G01*
X120682000Y-162358000D01*
G75*
G02*
X120932000Y-162608000I0J-250000D01*
G01*
G37*
G36*
G01*
X119107000Y-162608000D02*
X119107000Y-163508000D01*
G75*
G02*
X118857000Y-163758000I-250000J0D01*
G01*
X118332000Y-163758000D01*
G75*
G02*
X118082000Y-163508000I0J250000D01*
G01*
X118082000Y-162608000D01*
G75*
G02*
X118332000Y-162358000I250000J0D01*
G01*
X118857000Y-162358000D01*
G75*
G02*
X119107000Y-162608000I0J-250000D01*
G01*
G37*
G36*
G01*
X133530000Y-84615000D02*
X133530000Y-85565000D01*
G75*
G02*
X133280000Y-85815000I-250000J0D01*
G01*
X132780000Y-85815000D01*
G75*
G02*
X132530000Y-85565000I0J250000D01*
G01*
X132530000Y-84615000D01*
G75*
G02*
X132780000Y-84365000I250000J0D01*
G01*
X133280000Y-84365000D01*
G75*
G02*
X133530000Y-84615000I0J-250000D01*
G01*
G37*
G36*
G01*
X131630000Y-84615000D02*
X131630000Y-85565000D01*
G75*
G02*
X131380000Y-85815000I-250000J0D01*
G01*
X130880000Y-85815000D01*
G75*
G02*
X130630000Y-85565000I0J250000D01*
G01*
X130630000Y-84615000D01*
G75*
G02*
X130880000Y-84365000I250000J0D01*
G01*
X131380000Y-84365000D01*
G75*
G02*
X131630000Y-84615000I0J-250000D01*
G01*
G37*
G36*
G01*
X122075000Y-82862000D02*
X122075000Y-83762000D01*
G75*
G02*
X121825000Y-84012000I-250000J0D01*
G01*
X121300000Y-84012000D01*
G75*
G02*
X121050000Y-83762000I0J250000D01*
G01*
X121050000Y-82862000D01*
G75*
G02*
X121300000Y-82612000I250000J0D01*
G01*
X121825000Y-82612000D01*
G75*
G02*
X122075000Y-82862000I0J-250000D01*
G01*
G37*
G36*
G01*
X120250000Y-82862000D02*
X120250000Y-83762000D01*
G75*
G02*
X120000000Y-84012000I-250000J0D01*
G01*
X119475000Y-84012000D01*
G75*
G02*
X119225000Y-83762000I0J250000D01*
G01*
X119225000Y-82862000D01*
G75*
G02*
X119475000Y-82612000I250000J0D01*
G01*
X120000000Y-82612000D01*
G75*
G02*
X120250000Y-82862000I0J-250000D01*
G01*
G37*
G36*
G01*
X118082000Y-152840000D02*
X118082000Y-151940000D01*
G75*
G02*
X118332000Y-151690000I250000J0D01*
G01*
X118857000Y-151690000D01*
G75*
G02*
X119107000Y-151940000I0J-250000D01*
G01*
X119107000Y-152840000D01*
G75*
G02*
X118857000Y-153090000I-250000J0D01*
G01*
X118332000Y-153090000D01*
G75*
G02*
X118082000Y-152840000I0J250000D01*
G01*
G37*
G36*
G01*
X119907000Y-152840000D02*
X119907000Y-151940000D01*
G75*
G02*
X120157000Y-151690000I250000J0D01*
G01*
X120682000Y-151690000D01*
G75*
G02*
X120932000Y-151940000I0J-250000D01*
G01*
X120932000Y-152840000D01*
G75*
G02*
X120682000Y-153090000I-250000J0D01*
G01*
X120157000Y-153090000D01*
G75*
G02*
X119907000Y-152840000I0J250000D01*
G01*
G37*
D18*
X97155000Y-142104000D03*
X97155000Y-145404000D03*
G36*
G01*
X122075000Y-104198000D02*
X122075000Y-105098000D01*
G75*
G02*
X121825000Y-105348000I-250000J0D01*
G01*
X121300000Y-105348000D01*
G75*
G02*
X121050000Y-105098000I0J250000D01*
G01*
X121050000Y-104198000D01*
G75*
G02*
X121300000Y-103948000I250000J0D01*
G01*
X121825000Y-103948000D01*
G75*
G02*
X122075000Y-104198000I0J-250000D01*
G01*
G37*
G36*
G01*
X120250000Y-104198000D02*
X120250000Y-105098000D01*
G75*
G02*
X120000000Y-105348000I-250000J0D01*
G01*
X119475000Y-105348000D01*
G75*
G02*
X119225000Y-105098000I0J250000D01*
G01*
X119225000Y-104198000D01*
G75*
G02*
X119475000Y-103948000I250000J0D01*
G01*
X120000000Y-103948000D01*
G75*
G02*
X120250000Y-104198000I0J-250000D01*
G01*
G37*
G36*
G01*
X46800000Y-53740000D02*
X48490000Y-53740000D01*
G75*
G02*
X48740000Y-53990000I0J-250000D01*
G01*
X48740000Y-55230000D01*
G75*
G02*
X48490000Y-55480000I-250000J0D01*
G01*
X46800000Y-55480000D01*
G75*
G02*
X46550000Y-55230000I0J250000D01*
G01*
X46550000Y-53990000D01*
G75*
G02*
X46800000Y-53740000I250000J0D01*
G01*
G37*
D17*
X47645000Y-57150000D03*
X47645000Y-59690000D03*
G36*
G01*
X120932000Y-188780000D02*
X120932000Y-189680000D01*
G75*
G02*
X120682000Y-189930000I-250000J0D01*
G01*
X120157000Y-189930000D01*
G75*
G02*
X119907000Y-189680000I0J250000D01*
G01*
X119907000Y-188780000D01*
G75*
G02*
X120157000Y-188530000I250000J0D01*
G01*
X120682000Y-188530000D01*
G75*
G02*
X120932000Y-188780000I0J-250000D01*
G01*
G37*
G36*
G01*
X119107000Y-188780000D02*
X119107000Y-189680000D01*
G75*
G02*
X118857000Y-189930000I-250000J0D01*
G01*
X118332000Y-189930000D01*
G75*
G02*
X118082000Y-189680000I0J250000D01*
G01*
X118082000Y-188780000D01*
G75*
G02*
X118332000Y-188530000I250000J0D01*
G01*
X118857000Y-188530000D01*
G75*
G02*
X119107000Y-188780000I0J-250000D01*
G01*
G37*
G36*
G01*
X80800000Y-152102400D02*
X80800000Y-153002400D01*
G75*
G02*
X80550000Y-153252400I-250000J0D01*
G01*
X80025000Y-153252400D01*
G75*
G02*
X79775000Y-153002400I0J250000D01*
G01*
X79775000Y-152102400D01*
G75*
G02*
X80025000Y-151852400I250000J0D01*
G01*
X80550000Y-151852400D01*
G75*
G02*
X80800000Y-152102400I0J-250000D01*
G01*
G37*
G36*
G01*
X78975000Y-152102400D02*
X78975000Y-153002400D01*
G75*
G02*
X78725000Y-153252400I-250000J0D01*
G01*
X78200000Y-153252400D01*
G75*
G02*
X77950000Y-153002400I0J250000D01*
G01*
X77950000Y-152102400D01*
G75*
G02*
X78200000Y-151852400I250000J0D01*
G01*
X78725000Y-151852400D01*
G75*
G02*
X78975000Y-152102400I0J-250000D01*
G01*
G37*
G36*
G01*
X136980000Y-115791000D02*
X136980000Y-114841000D01*
G75*
G02*
X137230000Y-114591000I250000J0D01*
G01*
X137730000Y-114591000D01*
G75*
G02*
X137980000Y-114841000I0J-250000D01*
G01*
X137980000Y-115791000D01*
G75*
G02*
X137730000Y-116041000I-250000J0D01*
G01*
X137230000Y-116041000D01*
G75*
G02*
X136980000Y-115791000I0J250000D01*
G01*
G37*
G36*
G01*
X138880000Y-115791000D02*
X138880000Y-114841000D01*
G75*
G02*
X139130000Y-114591000I250000J0D01*
G01*
X139630000Y-114591000D01*
G75*
G02*
X139880000Y-114841000I0J-250000D01*
G01*
X139880000Y-115791000D01*
G75*
G02*
X139630000Y-116041000I-250000J0D01*
G01*
X139130000Y-116041000D01*
G75*
G02*
X138880000Y-115791000I0J250000D01*
G01*
G37*
G36*
G01*
X165310000Y-146920000D02*
X163620000Y-146920000D01*
G75*
G02*
X163370000Y-146670000I0J250000D01*
G01*
X163370000Y-145430000D01*
G75*
G02*
X163620000Y-145180000I250000J0D01*
G01*
X165310000Y-145180000D01*
G75*
G02*
X165560000Y-145430000I0J-250000D01*
G01*
X165560000Y-146670000D01*
G75*
G02*
X165310000Y-146920000I-250000J0D01*
G01*
G37*
X164465000Y-143510000D03*
D21*
X67945000Y-140970000D03*
D16*
X92583000Y-138166000D03*
X92583000Y-140706000D03*
X92583000Y-143246000D03*
G36*
G01*
X122100000Y-122080000D02*
X122100000Y-123030000D01*
G75*
G02*
X121850000Y-123280000I-250000J0D01*
G01*
X121350000Y-123280000D01*
G75*
G02*
X121100000Y-123030000I0J250000D01*
G01*
X121100000Y-122080000D01*
G75*
G02*
X121350000Y-121830000I250000J0D01*
G01*
X121850000Y-121830000D01*
G75*
G02*
X122100000Y-122080000I0J-250000D01*
G01*
G37*
G36*
G01*
X120200000Y-122080000D02*
X120200000Y-123030000D01*
G75*
G02*
X119950000Y-123280000I-250000J0D01*
G01*
X119450000Y-123280000D01*
G75*
G02*
X119200000Y-123030000I0J250000D01*
G01*
X119200000Y-122080000D01*
G75*
G02*
X119450000Y-121830000I250000J0D01*
G01*
X119950000Y-121830000D01*
G75*
G02*
X120200000Y-122080000I0J-250000D01*
G01*
G37*
G36*
G01*
X128450000Y-84615000D02*
X128450000Y-85565000D01*
G75*
G02*
X128200000Y-85815000I-250000J0D01*
G01*
X127700000Y-85815000D01*
G75*
G02*
X127450000Y-85565000I0J250000D01*
G01*
X127450000Y-84615000D01*
G75*
G02*
X127700000Y-84365000I250000J0D01*
G01*
X128200000Y-84365000D01*
G75*
G02*
X128450000Y-84615000I0J-250000D01*
G01*
G37*
G36*
G01*
X126550000Y-84615000D02*
X126550000Y-85565000D01*
G75*
G02*
X126300000Y-85815000I-250000J0D01*
G01*
X125800000Y-85815000D01*
G75*
G02*
X125550000Y-85565000I0J250000D01*
G01*
X125550000Y-84615000D01*
G75*
G02*
X125800000Y-84365000I250000J0D01*
G01*
X126300000Y-84365000D01*
G75*
G02*
X126550000Y-84615000I0J-250000D01*
G01*
G37*
G36*
G01*
X83952000Y-76558000D02*
X83952000Y-76858000D01*
G75*
G02*
X83802000Y-77008000I-150000J0D01*
G01*
X82202000Y-77008000D01*
G75*
G02*
X82052000Y-76858000I0J150000D01*
G01*
X82052000Y-76558000D01*
G75*
G02*
X82202000Y-76408000I150000J0D01*
G01*
X83802000Y-76408000D01*
G75*
G02*
X83952000Y-76558000I0J-150000D01*
G01*
G37*
G36*
G01*
X83952000Y-77828000D02*
X83952000Y-78128000D01*
G75*
G02*
X83802000Y-78278000I-150000J0D01*
G01*
X82202000Y-78278000D01*
G75*
G02*
X82052000Y-78128000I0J150000D01*
G01*
X82052000Y-77828000D01*
G75*
G02*
X82202000Y-77678000I150000J0D01*
G01*
X83802000Y-77678000D01*
G75*
G02*
X83952000Y-77828000I0J-150000D01*
G01*
G37*
G36*
G01*
X83952000Y-79098000D02*
X83952000Y-79398000D01*
G75*
G02*
X83802000Y-79548000I-150000J0D01*
G01*
X82202000Y-79548000D01*
G75*
G02*
X82052000Y-79398000I0J150000D01*
G01*
X82052000Y-79098000D01*
G75*
G02*
X82202000Y-78948000I150000J0D01*
G01*
X83802000Y-78948000D01*
G75*
G02*
X83952000Y-79098000I0J-150000D01*
G01*
G37*
G36*
G01*
X83952000Y-80368000D02*
X83952000Y-80668000D01*
G75*
G02*
X83802000Y-80818000I-150000J0D01*
G01*
X82202000Y-80818000D01*
G75*
G02*
X82052000Y-80668000I0J150000D01*
G01*
X82052000Y-80368000D01*
G75*
G02*
X82202000Y-80218000I150000J0D01*
G01*
X83802000Y-80218000D01*
G75*
G02*
X83952000Y-80368000I0J-150000D01*
G01*
G37*
G36*
G01*
X76952000Y-80368000D02*
X76952000Y-80668000D01*
G75*
G02*
X76802000Y-80818000I-150000J0D01*
G01*
X75202000Y-80818000D01*
G75*
G02*
X75052000Y-80668000I0J150000D01*
G01*
X75052000Y-80368000D01*
G75*
G02*
X75202000Y-80218000I150000J0D01*
G01*
X76802000Y-80218000D01*
G75*
G02*
X76952000Y-80368000I0J-150000D01*
G01*
G37*
G36*
G01*
X76952000Y-79098000D02*
X76952000Y-79398000D01*
G75*
G02*
X76802000Y-79548000I-150000J0D01*
G01*
X75202000Y-79548000D01*
G75*
G02*
X75052000Y-79398000I0J150000D01*
G01*
X75052000Y-79098000D01*
G75*
G02*
X75202000Y-78948000I150000J0D01*
G01*
X76802000Y-78948000D01*
G75*
G02*
X76952000Y-79098000I0J-150000D01*
G01*
G37*
G36*
G01*
X76952000Y-77828000D02*
X76952000Y-78128000D01*
G75*
G02*
X76802000Y-78278000I-150000J0D01*
G01*
X75202000Y-78278000D01*
G75*
G02*
X75052000Y-78128000I0J150000D01*
G01*
X75052000Y-77828000D01*
G75*
G02*
X75202000Y-77678000I150000J0D01*
G01*
X76802000Y-77678000D01*
G75*
G02*
X76952000Y-77828000I0J-150000D01*
G01*
G37*
G36*
G01*
X76952000Y-76558000D02*
X76952000Y-76858000D01*
G75*
G02*
X76802000Y-77008000I-150000J0D01*
G01*
X75202000Y-77008000D01*
G75*
G02*
X75052000Y-76858000I0J150000D01*
G01*
X75052000Y-76558000D01*
G75*
G02*
X75202000Y-76408000I150000J0D01*
G01*
X76802000Y-76408000D01*
G75*
G02*
X76952000Y-76558000I0J-150000D01*
G01*
G37*
G36*
G01*
X119200000Y-94455000D02*
X119200000Y-93505000D01*
G75*
G02*
X119450000Y-93255000I250000J0D01*
G01*
X119950000Y-93255000D01*
G75*
G02*
X120200000Y-93505000I0J-250000D01*
G01*
X120200000Y-94455000D01*
G75*
G02*
X119950000Y-94705000I-250000J0D01*
G01*
X119450000Y-94705000D01*
G75*
G02*
X119200000Y-94455000I0J250000D01*
G01*
G37*
G36*
G01*
X121100000Y-94455000D02*
X121100000Y-93505000D01*
G75*
G02*
X121350000Y-93255000I250000J0D01*
G01*
X121850000Y-93255000D01*
G75*
G02*
X122100000Y-93505000I0J-250000D01*
G01*
X122100000Y-94455000D01*
G75*
G02*
X121850000Y-94705000I-250000J0D01*
G01*
X121350000Y-94705000D01*
G75*
G02*
X121100000Y-94455000I0J250000D01*
G01*
G37*
D21*
X93980000Y-108585000D03*
G36*
G01*
X72037000Y-100769000D02*
X72037000Y-101669000D01*
G75*
G02*
X71787000Y-101919000I-250000J0D01*
G01*
X71262000Y-101919000D01*
G75*
G02*
X71012000Y-101669000I0J250000D01*
G01*
X71012000Y-100769000D01*
G75*
G02*
X71262000Y-100519000I250000J0D01*
G01*
X71787000Y-100519000D01*
G75*
G02*
X72037000Y-100769000I0J-250000D01*
G01*
G37*
G36*
G01*
X70212000Y-100769000D02*
X70212000Y-101669000D01*
G75*
G02*
X69962000Y-101919000I-250000J0D01*
G01*
X69437000Y-101919000D01*
G75*
G02*
X69187000Y-101669000I0J250000D01*
G01*
X69187000Y-100769000D01*
G75*
G02*
X69437000Y-100519000I250000J0D01*
G01*
X69962000Y-100519000D01*
G75*
G02*
X70212000Y-100769000I0J-250000D01*
G01*
G37*
G36*
G01*
X120932000Y-169720000D02*
X120932000Y-170620000D01*
G75*
G02*
X120682000Y-170870000I-250000J0D01*
G01*
X120157000Y-170870000D01*
G75*
G02*
X119907000Y-170620000I0J250000D01*
G01*
X119907000Y-169720000D01*
G75*
G02*
X120157000Y-169470000I250000J0D01*
G01*
X120682000Y-169470000D01*
G75*
G02*
X120932000Y-169720000I0J-250000D01*
G01*
G37*
G36*
G01*
X119107000Y-169720000D02*
X119107000Y-170620000D01*
G75*
G02*
X118857000Y-170870000I-250000J0D01*
G01*
X118332000Y-170870000D01*
G75*
G02*
X118082000Y-170620000I0J250000D01*
G01*
X118082000Y-169720000D01*
G75*
G02*
X118332000Y-169470000I250000J0D01*
G01*
X118857000Y-169470000D01*
G75*
G02*
X119107000Y-169720000I0J-250000D01*
G01*
G37*
G36*
G01*
X104955000Y-157005000D02*
X104955000Y-157955000D01*
G75*
G02*
X104705000Y-158205000I-250000J0D01*
G01*
X104205000Y-158205000D01*
G75*
G02*
X103955000Y-157955000I0J250000D01*
G01*
X103955000Y-157005000D01*
G75*
G02*
X104205000Y-156755000I250000J0D01*
G01*
X104705000Y-156755000D01*
G75*
G02*
X104955000Y-157005000I0J-250000D01*
G01*
G37*
G36*
G01*
X103055000Y-157005000D02*
X103055000Y-157955000D01*
G75*
G02*
X102805000Y-158205000I-250000J0D01*
G01*
X102305000Y-158205000D01*
G75*
G02*
X102055000Y-157955000I0J250000D01*
G01*
X102055000Y-157005000D01*
G75*
G02*
X102305000Y-156755000I250000J0D01*
G01*
X102805000Y-156755000D01*
G75*
G02*
X103055000Y-157005000I0J-250000D01*
G01*
G37*
G36*
G01*
X110495000Y-179047000D02*
X110495000Y-179347000D01*
G75*
G02*
X110345000Y-179497000I-150000J0D01*
G01*
X108745000Y-179497000D01*
G75*
G02*
X108595000Y-179347000I0J150000D01*
G01*
X108595000Y-179047000D01*
G75*
G02*
X108745000Y-178897000I150000J0D01*
G01*
X110345000Y-178897000D01*
G75*
G02*
X110495000Y-179047000I0J-150000D01*
G01*
G37*
G36*
G01*
X110495000Y-180317000D02*
X110495000Y-180617000D01*
G75*
G02*
X110345000Y-180767000I-150000J0D01*
G01*
X108745000Y-180767000D01*
G75*
G02*
X108595000Y-180617000I0J150000D01*
G01*
X108595000Y-180317000D01*
G75*
G02*
X108745000Y-180167000I150000J0D01*
G01*
X110345000Y-180167000D01*
G75*
G02*
X110495000Y-180317000I0J-150000D01*
G01*
G37*
G36*
G01*
X110495000Y-181587000D02*
X110495000Y-181887000D01*
G75*
G02*
X110345000Y-182037000I-150000J0D01*
G01*
X108745000Y-182037000D01*
G75*
G02*
X108595000Y-181887000I0J150000D01*
G01*
X108595000Y-181587000D01*
G75*
G02*
X108745000Y-181437000I150000J0D01*
G01*
X110345000Y-181437000D01*
G75*
G02*
X110495000Y-181587000I0J-150000D01*
G01*
G37*
G36*
G01*
X110495000Y-182857000D02*
X110495000Y-183157000D01*
G75*
G02*
X110345000Y-183307000I-150000J0D01*
G01*
X108745000Y-183307000D01*
G75*
G02*
X108595000Y-183157000I0J150000D01*
G01*
X108595000Y-182857000D01*
G75*
G02*
X108745000Y-182707000I150000J0D01*
G01*
X110345000Y-182707000D01*
G75*
G02*
X110495000Y-182857000I0J-150000D01*
G01*
G37*
G36*
G01*
X103495000Y-182857000D02*
X103495000Y-183157000D01*
G75*
G02*
X103345000Y-183307000I-150000J0D01*
G01*
X101745000Y-183307000D01*
G75*
G02*
X101595000Y-183157000I0J150000D01*
G01*
X101595000Y-182857000D01*
G75*
G02*
X101745000Y-182707000I150000J0D01*
G01*
X103345000Y-182707000D01*
G75*
G02*
X103495000Y-182857000I0J-150000D01*
G01*
G37*
G36*
G01*
X103495000Y-181587000D02*
X103495000Y-181887000D01*
G75*
G02*
X103345000Y-182037000I-150000J0D01*
G01*
X101745000Y-182037000D01*
G75*
G02*
X101595000Y-181887000I0J150000D01*
G01*
X101595000Y-181587000D01*
G75*
G02*
X101745000Y-181437000I150000J0D01*
G01*
X103345000Y-181437000D01*
G75*
G02*
X103495000Y-181587000I0J-150000D01*
G01*
G37*
G36*
G01*
X103495000Y-180317000D02*
X103495000Y-180617000D01*
G75*
G02*
X103345000Y-180767000I-150000J0D01*
G01*
X101745000Y-180767000D01*
G75*
G02*
X101595000Y-180617000I0J150000D01*
G01*
X101595000Y-180317000D01*
G75*
G02*
X101745000Y-180167000I150000J0D01*
G01*
X103345000Y-180167000D01*
G75*
G02*
X103495000Y-180317000I0J-150000D01*
G01*
G37*
G36*
G01*
X103495000Y-179047000D02*
X103495000Y-179347000D01*
G75*
G02*
X103345000Y-179497000I-150000J0D01*
G01*
X101745000Y-179497000D01*
G75*
G02*
X101595000Y-179347000I0J150000D01*
G01*
X101595000Y-179047000D01*
G75*
G02*
X101745000Y-178897000I150000J0D01*
G01*
X103345000Y-178897000D01*
G75*
G02*
X103495000Y-179047000I0J-150000D01*
G01*
G37*
G36*
G01*
X72037000Y-122232000D02*
X72037000Y-123132000D01*
G75*
G02*
X71787000Y-123382000I-250000J0D01*
G01*
X71262000Y-123382000D01*
G75*
G02*
X71012000Y-123132000I0J250000D01*
G01*
X71012000Y-122232000D01*
G75*
G02*
X71262000Y-121982000I250000J0D01*
G01*
X71787000Y-121982000D01*
G75*
G02*
X72037000Y-122232000I0J-250000D01*
G01*
G37*
G36*
G01*
X70212000Y-122232000D02*
X70212000Y-123132000D01*
G75*
G02*
X69962000Y-123382000I-250000J0D01*
G01*
X69437000Y-123382000D01*
G75*
G02*
X69187000Y-123132000I0J250000D01*
G01*
X69187000Y-122232000D01*
G75*
G02*
X69437000Y-121982000I250000J0D01*
G01*
X69962000Y-121982000D01*
G75*
G02*
X70212000Y-122232000I0J-250000D01*
G01*
G37*
G36*
G01*
X98605000Y-122080000D02*
X98605000Y-123030000D01*
G75*
G02*
X98355000Y-123280000I-250000J0D01*
G01*
X97855000Y-123280000D01*
G75*
G02*
X97605000Y-123030000I0J250000D01*
G01*
X97605000Y-122080000D01*
G75*
G02*
X97855000Y-121830000I250000J0D01*
G01*
X98355000Y-121830000D01*
G75*
G02*
X98605000Y-122080000I0J-250000D01*
G01*
G37*
G36*
G01*
X96705000Y-122080000D02*
X96705000Y-123030000D01*
G75*
G02*
X96455000Y-123280000I-250000J0D01*
G01*
X95955000Y-123280000D01*
G75*
G02*
X95705000Y-123030000I0J250000D01*
G01*
X95705000Y-122080000D01*
G75*
G02*
X95955000Y-121830000I250000J0D01*
G01*
X96455000Y-121830000D01*
G75*
G02*
X96705000Y-122080000I0J-250000D01*
G01*
G37*
G36*
G01*
X86967000Y-98113000D02*
X86967000Y-97213000D01*
G75*
G02*
X87217000Y-96963000I250000J0D01*
G01*
X87742000Y-96963000D01*
G75*
G02*
X87992000Y-97213000I0J-250000D01*
G01*
X87992000Y-98113000D01*
G75*
G02*
X87742000Y-98363000I-250000J0D01*
G01*
X87217000Y-98363000D01*
G75*
G02*
X86967000Y-98113000I0J250000D01*
G01*
G37*
G36*
G01*
X88792000Y-98113000D02*
X88792000Y-97213000D01*
G75*
G02*
X89042000Y-96963000I250000J0D01*
G01*
X89567000Y-96963000D01*
G75*
G02*
X89817000Y-97213000I0J-250000D01*
G01*
X89817000Y-98113000D01*
G75*
G02*
X89567000Y-98363000I-250000J0D01*
G01*
X89042000Y-98363000D01*
G75*
G02*
X88792000Y-98113000I0J250000D01*
G01*
G37*
X69215000Y-62230000D03*
G36*
G01*
X89690000Y-68130000D02*
X89690000Y-69030000D01*
G75*
G02*
X89440000Y-69280000I-250000J0D01*
G01*
X88915000Y-69280000D01*
G75*
G02*
X88665000Y-69030000I0J250000D01*
G01*
X88665000Y-68130000D01*
G75*
G02*
X88915000Y-67880000I250000J0D01*
G01*
X89440000Y-67880000D01*
G75*
G02*
X89690000Y-68130000I0J-250000D01*
G01*
G37*
G36*
G01*
X87865000Y-68130000D02*
X87865000Y-69030000D01*
G75*
G02*
X87615000Y-69280000I-250000J0D01*
G01*
X87090000Y-69280000D01*
G75*
G02*
X86840000Y-69030000I0J250000D01*
G01*
X86840000Y-68130000D01*
G75*
G02*
X87090000Y-67880000I250000J0D01*
G01*
X87615000Y-67880000D01*
G75*
G02*
X87865000Y-68130000I0J-250000D01*
G01*
G37*
G36*
G01*
X94033000Y-148105000D02*
X94033000Y-149055000D01*
G75*
G02*
X93783000Y-149305000I-250000J0D01*
G01*
X93283000Y-149305000D01*
G75*
G02*
X93033000Y-149055000I0J250000D01*
G01*
X93033000Y-148105000D01*
G75*
G02*
X93283000Y-147855000I250000J0D01*
G01*
X93783000Y-147855000D01*
G75*
G02*
X94033000Y-148105000I0J-250000D01*
G01*
G37*
G36*
G01*
X92133000Y-148105000D02*
X92133000Y-149055000D01*
G75*
G02*
X91883000Y-149305000I-250000J0D01*
G01*
X91383000Y-149305000D01*
G75*
G02*
X91133000Y-149055000I0J250000D01*
G01*
X91133000Y-148105000D01*
G75*
G02*
X91383000Y-147855000I250000J0D01*
G01*
X91883000Y-147855000D01*
G75*
G02*
X92133000Y-148105000I0J-250000D01*
G01*
G37*
G36*
G01*
X136980000Y-101567000D02*
X136980000Y-100617000D01*
G75*
G02*
X137230000Y-100367000I250000J0D01*
G01*
X137730000Y-100367000D01*
G75*
G02*
X137980000Y-100617000I0J-250000D01*
G01*
X137980000Y-101567000D01*
G75*
G02*
X137730000Y-101817000I-250000J0D01*
G01*
X137230000Y-101817000D01*
G75*
G02*
X136980000Y-101567000I0J250000D01*
G01*
G37*
G36*
G01*
X138880000Y-101567000D02*
X138880000Y-100617000D01*
G75*
G02*
X139130000Y-100367000I250000J0D01*
G01*
X139630000Y-100367000D01*
G75*
G02*
X139880000Y-100617000I0J-250000D01*
G01*
X139880000Y-101567000D01*
G75*
G02*
X139630000Y-101817000I-250000J0D01*
G01*
X139130000Y-101817000D01*
G75*
G02*
X138880000Y-101567000I0J250000D01*
G01*
G37*
G36*
G01*
X104955000Y-187485000D02*
X104955000Y-188435000D01*
G75*
G02*
X104705000Y-188685000I-250000J0D01*
G01*
X104205000Y-188685000D01*
G75*
G02*
X103955000Y-188435000I0J250000D01*
G01*
X103955000Y-187485000D01*
G75*
G02*
X104205000Y-187235000I250000J0D01*
G01*
X104705000Y-187235000D01*
G75*
G02*
X104955000Y-187485000I0J-250000D01*
G01*
G37*
G36*
G01*
X103055000Y-187485000D02*
X103055000Y-188435000D01*
G75*
G02*
X102805000Y-188685000I-250000J0D01*
G01*
X102305000Y-188685000D01*
G75*
G02*
X102055000Y-188435000I0J250000D01*
G01*
X102055000Y-187485000D01*
G75*
G02*
X102305000Y-187235000I250000J0D01*
G01*
X102805000Y-187235000D01*
G75*
G02*
X103055000Y-187485000I0J-250000D01*
G01*
G37*
G36*
G01*
X80825000Y-143670000D02*
X80825000Y-144620000D01*
G75*
G02*
X80575000Y-144870000I-250000J0D01*
G01*
X80075000Y-144870000D01*
G75*
G02*
X79825000Y-144620000I0J250000D01*
G01*
X79825000Y-143670000D01*
G75*
G02*
X80075000Y-143420000I250000J0D01*
G01*
X80575000Y-143420000D01*
G75*
G02*
X80825000Y-143670000I0J-250000D01*
G01*
G37*
G36*
G01*
X78925000Y-143670000D02*
X78925000Y-144620000D01*
G75*
G02*
X78675000Y-144870000I-250000J0D01*
G01*
X78175000Y-144870000D01*
G75*
G02*
X77925000Y-144620000I0J250000D01*
G01*
X77925000Y-143670000D01*
G75*
G02*
X78175000Y-143420000I250000J0D01*
G01*
X78675000Y-143420000D01*
G75*
G02*
X78925000Y-143670000I0J-250000D01*
G01*
G37*
G36*
G01*
X116360000Y-122105000D02*
X116360000Y-123005000D01*
G75*
G02*
X116110000Y-123255000I-250000J0D01*
G01*
X115585000Y-123255000D01*
G75*
G02*
X115335000Y-123005000I0J250000D01*
G01*
X115335000Y-122105000D01*
G75*
G02*
X115585000Y-121855000I250000J0D01*
G01*
X116110000Y-121855000D01*
G75*
G02*
X116360000Y-122105000I0J-250000D01*
G01*
G37*
G36*
G01*
X114535000Y-122105000D02*
X114535000Y-123005000D01*
G75*
G02*
X114285000Y-123255000I-250000J0D01*
G01*
X113760000Y-123255000D01*
G75*
G02*
X113510000Y-123005000I0J250000D01*
G01*
X113510000Y-122105000D01*
G75*
G02*
X113760000Y-121855000I250000J0D01*
G01*
X114285000Y-121855000D01*
G75*
G02*
X114535000Y-122105000I0J-250000D01*
G01*
G37*
D20*
X149549800Y-61264800D03*
X152049800Y-61264800D03*
G36*
G01*
X71155000Y-216320000D02*
X72355000Y-216320000D01*
G75*
G02*
X72605000Y-216570000I0J-250000D01*
G01*
X72605000Y-217770000D01*
G75*
G02*
X72355000Y-218020000I-250000J0D01*
G01*
X71155000Y-218020000D01*
G75*
G02*
X70905000Y-217770000I0J250000D01*
G01*
X70905000Y-216570000D01*
G75*
G02*
X71155000Y-216320000I250000J0D01*
G01*
G37*
D23*
X71755000Y-219710000D03*
X74295000Y-217170000D03*
X74295000Y-219710000D03*
X76835000Y-217170000D03*
X76835000Y-219710000D03*
X79375000Y-217170000D03*
X79375000Y-219710000D03*
X81915000Y-217170000D03*
X81915000Y-219710000D03*
G36*
G01*
X83365000Y-84615000D02*
X83365000Y-85565000D01*
G75*
G02*
X83115000Y-85815000I-250000J0D01*
G01*
X82615000Y-85815000D01*
G75*
G02*
X82365000Y-85565000I0J250000D01*
G01*
X82365000Y-84615000D01*
G75*
G02*
X82615000Y-84365000I250000J0D01*
G01*
X83115000Y-84365000D01*
G75*
G02*
X83365000Y-84615000I0J-250000D01*
G01*
G37*
G36*
G01*
X81465000Y-84615000D02*
X81465000Y-85565000D01*
G75*
G02*
X81215000Y-85815000I-250000J0D01*
G01*
X80715000Y-85815000D01*
G75*
G02*
X80465000Y-85565000I0J250000D01*
G01*
X80465000Y-84615000D01*
G75*
G02*
X80715000Y-84365000I250000J0D01*
G01*
X81215000Y-84365000D01*
G75*
G02*
X81465000Y-84615000I0J-250000D01*
G01*
G37*
G36*
G01*
X122075000Y-79306000D02*
X122075000Y-80206000D01*
G75*
G02*
X121825000Y-80456000I-250000J0D01*
G01*
X121300000Y-80456000D01*
G75*
G02*
X121050000Y-80206000I0J250000D01*
G01*
X121050000Y-79306000D01*
G75*
G02*
X121300000Y-79056000I250000J0D01*
G01*
X121825000Y-79056000D01*
G75*
G02*
X122075000Y-79306000I0J-250000D01*
G01*
G37*
G36*
G01*
X120250000Y-79306000D02*
X120250000Y-80206000D01*
G75*
G02*
X120000000Y-80456000I-250000J0D01*
G01*
X119475000Y-80456000D01*
G75*
G02*
X119225000Y-80206000I0J250000D01*
G01*
X119225000Y-79306000D01*
G75*
G02*
X119475000Y-79056000I250000J0D01*
G01*
X120000000Y-79056000D01*
G75*
G02*
X120250000Y-79306000I0J-250000D01*
G01*
G37*
G36*
G01*
X119225000Y-87318000D02*
X119225000Y-86418000D01*
G75*
G02*
X119475000Y-86168000I250000J0D01*
G01*
X120000000Y-86168000D01*
G75*
G02*
X120250000Y-86418000I0J-250000D01*
G01*
X120250000Y-87318000D01*
G75*
G02*
X120000000Y-87568000I-250000J0D01*
G01*
X119475000Y-87568000D01*
G75*
G02*
X119225000Y-87318000I0J250000D01*
G01*
G37*
G36*
G01*
X121050000Y-87318000D02*
X121050000Y-86418000D01*
G75*
G02*
X121300000Y-86168000I250000J0D01*
G01*
X121825000Y-86168000D01*
G75*
G02*
X122075000Y-86418000I0J-250000D01*
G01*
X122075000Y-87318000D01*
G75*
G02*
X121825000Y-87568000I-250000J0D01*
G01*
X121300000Y-87568000D01*
G75*
G02*
X121050000Y-87318000I0J250000D01*
G01*
G37*
G36*
G01*
X165310000Y-63100000D02*
X163620000Y-63100000D01*
G75*
G02*
X163370000Y-62850000I0J250000D01*
G01*
X163370000Y-61610000D01*
G75*
G02*
X163620000Y-61360000I250000J0D01*
G01*
X165310000Y-61360000D01*
G75*
G02*
X165560000Y-61610000I0J-250000D01*
G01*
X165560000Y-62850000D01*
G75*
G02*
X165310000Y-63100000I-250000J0D01*
G01*
G37*
D17*
X164465000Y-59690000D03*
X164465000Y-57150000D03*
X164465000Y-54610000D03*
G36*
G01*
X136878000Y-64839000D02*
X136878000Y-63939000D01*
G75*
G02*
X137128000Y-63689000I250000J0D01*
G01*
X137653000Y-63689000D01*
G75*
G02*
X137903000Y-63939000I0J-250000D01*
G01*
X137903000Y-64839000D01*
G75*
G02*
X137653000Y-65089000I-250000J0D01*
G01*
X137128000Y-65089000D01*
G75*
G02*
X136878000Y-64839000I0J250000D01*
G01*
G37*
G36*
G01*
X138703000Y-64839000D02*
X138703000Y-63939000D01*
G75*
G02*
X138953000Y-63689000I250000J0D01*
G01*
X139478000Y-63689000D01*
G75*
G02*
X139728000Y-63939000I0J-250000D01*
G01*
X139728000Y-64839000D01*
G75*
G02*
X139478000Y-65089000I-250000J0D01*
G01*
X138953000Y-65089000D01*
G75*
G02*
X138703000Y-64839000I0J250000D01*
G01*
G37*
G36*
G01*
X69187000Y-87445000D02*
X69187000Y-86545000D01*
G75*
G02*
X69437000Y-86295000I250000J0D01*
G01*
X69962000Y-86295000D01*
G75*
G02*
X70212000Y-86545000I0J-250000D01*
G01*
X70212000Y-87445000D01*
G75*
G02*
X69962000Y-87695000I-250000J0D01*
G01*
X69437000Y-87695000D01*
G75*
G02*
X69187000Y-87445000I0J250000D01*
G01*
G37*
G36*
G01*
X71012000Y-87445000D02*
X71012000Y-86545000D01*
G75*
G02*
X71262000Y-86295000I250000J0D01*
G01*
X71787000Y-86295000D01*
G75*
G02*
X72037000Y-86545000I0J-250000D01*
G01*
X72037000Y-87445000D01*
G75*
G02*
X71787000Y-87695000I-250000J0D01*
G01*
X71262000Y-87695000D01*
G75*
G02*
X71012000Y-87445000I0J250000D01*
G01*
G37*
G36*
G01*
X120932000Y-159052000D02*
X120932000Y-159952000D01*
G75*
G02*
X120682000Y-160202000I-250000J0D01*
G01*
X120157000Y-160202000D01*
G75*
G02*
X119907000Y-159952000I0J250000D01*
G01*
X119907000Y-159052000D01*
G75*
G02*
X120157000Y-158802000I250000J0D01*
G01*
X120682000Y-158802000D01*
G75*
G02*
X120932000Y-159052000I0J-250000D01*
G01*
G37*
G36*
G01*
X119107000Y-159052000D02*
X119107000Y-159952000D01*
G75*
G02*
X118857000Y-160202000I-250000J0D01*
G01*
X118332000Y-160202000D01*
G75*
G02*
X118082000Y-159952000I0J250000D01*
G01*
X118082000Y-159052000D01*
G75*
G02*
X118332000Y-158802000I250000J0D01*
G01*
X118857000Y-158802000D01*
G75*
G02*
X119107000Y-159052000I0J-250000D01*
G01*
G37*
G36*
G01*
X120932000Y-173530000D02*
X120932000Y-174430000D01*
G75*
G02*
X120682000Y-174680000I-250000J0D01*
G01*
X120157000Y-174680000D01*
G75*
G02*
X119907000Y-174430000I0J250000D01*
G01*
X119907000Y-173530000D01*
G75*
G02*
X120157000Y-173280000I250000J0D01*
G01*
X120682000Y-173280000D01*
G75*
G02*
X120932000Y-173530000I0J-250000D01*
G01*
G37*
G36*
G01*
X119107000Y-173530000D02*
X119107000Y-174430000D01*
G75*
G02*
X118857000Y-174680000I-250000J0D01*
G01*
X118332000Y-174680000D01*
G75*
G02*
X118082000Y-174430000I0J250000D01*
G01*
X118082000Y-173530000D01*
G75*
G02*
X118332000Y-173280000I250000J0D01*
G01*
X118857000Y-173280000D01*
G75*
G02*
X119107000Y-173530000I0J-250000D01*
G01*
G37*
D21*
X100965000Y-193040000D03*
D20*
X88392000Y-93773000D03*
X88392000Y-88773000D03*
G36*
G01*
X133990000Y-89385000D02*
X133990000Y-89685000D01*
G75*
G02*
X133840000Y-89835000I-150000J0D01*
G01*
X132240000Y-89835000D01*
G75*
G02*
X132090000Y-89685000I0J150000D01*
G01*
X132090000Y-89385000D01*
G75*
G02*
X132240000Y-89235000I150000J0D01*
G01*
X133840000Y-89235000D01*
G75*
G02*
X133990000Y-89385000I0J-150000D01*
G01*
G37*
G36*
G01*
X133990000Y-90655000D02*
X133990000Y-90955000D01*
G75*
G02*
X133840000Y-91105000I-150000J0D01*
G01*
X132240000Y-91105000D01*
G75*
G02*
X132090000Y-90955000I0J150000D01*
G01*
X132090000Y-90655000D01*
G75*
G02*
X132240000Y-90505000I150000J0D01*
G01*
X133840000Y-90505000D01*
G75*
G02*
X133990000Y-90655000I0J-150000D01*
G01*
G37*
G36*
G01*
X133990000Y-91925000D02*
X133990000Y-92225000D01*
G75*
G02*
X133840000Y-92375000I-150000J0D01*
G01*
X132240000Y-92375000D01*
G75*
G02*
X132090000Y-92225000I0J150000D01*
G01*
X132090000Y-91925000D01*
G75*
G02*
X132240000Y-91775000I150000J0D01*
G01*
X133840000Y-91775000D01*
G75*
G02*
X133990000Y-91925000I0J-150000D01*
G01*
G37*
G36*
G01*
X133990000Y-93195000D02*
X133990000Y-93495000D01*
G75*
G02*
X133840000Y-93645000I-150000J0D01*
G01*
X132240000Y-93645000D01*
G75*
G02*
X132090000Y-93495000I0J150000D01*
G01*
X132090000Y-93195000D01*
G75*
G02*
X132240000Y-93045000I150000J0D01*
G01*
X133840000Y-93045000D01*
G75*
G02*
X133990000Y-93195000I0J-150000D01*
G01*
G37*
G36*
G01*
X126990000Y-93195000D02*
X126990000Y-93495000D01*
G75*
G02*
X126840000Y-93645000I-150000J0D01*
G01*
X125240000Y-93645000D01*
G75*
G02*
X125090000Y-93495000I0J150000D01*
G01*
X125090000Y-93195000D01*
G75*
G02*
X125240000Y-93045000I150000J0D01*
G01*
X126840000Y-93045000D01*
G75*
G02*
X126990000Y-93195000I0J-150000D01*
G01*
G37*
G36*
G01*
X126990000Y-91925000D02*
X126990000Y-92225000D01*
G75*
G02*
X126840000Y-92375000I-150000J0D01*
G01*
X125240000Y-92375000D01*
G75*
G02*
X125090000Y-92225000I0J150000D01*
G01*
X125090000Y-91925000D01*
G75*
G02*
X125240000Y-91775000I150000J0D01*
G01*
X126840000Y-91775000D01*
G75*
G02*
X126990000Y-91925000I0J-150000D01*
G01*
G37*
G36*
G01*
X126990000Y-90655000D02*
X126990000Y-90955000D01*
G75*
G02*
X126840000Y-91105000I-150000J0D01*
G01*
X125240000Y-91105000D01*
G75*
G02*
X125090000Y-90955000I0J150000D01*
G01*
X125090000Y-90655000D01*
G75*
G02*
X125240000Y-90505000I150000J0D01*
G01*
X126840000Y-90505000D01*
G75*
G02*
X126990000Y-90655000I0J-150000D01*
G01*
G37*
G36*
G01*
X126990000Y-89385000D02*
X126990000Y-89685000D01*
G75*
G02*
X126840000Y-89835000I-150000J0D01*
G01*
X125240000Y-89835000D01*
G75*
G02*
X125090000Y-89685000I0J150000D01*
G01*
X125090000Y-89385000D01*
G75*
G02*
X125240000Y-89235000I150000J0D01*
G01*
X126840000Y-89235000D01*
G75*
G02*
X126990000Y-89385000I0J-150000D01*
G01*
G37*
D18*
X97155000Y-148708000D03*
X97155000Y-152008000D03*
G36*
G01*
X91158000Y-156396000D02*
X91158000Y-155496000D01*
G75*
G02*
X91408000Y-155246000I250000J0D01*
G01*
X91933000Y-155246000D01*
G75*
G02*
X92183000Y-155496000I0J-250000D01*
G01*
X92183000Y-156396000D01*
G75*
G02*
X91933000Y-156646000I-250000J0D01*
G01*
X91408000Y-156646000D01*
G75*
G02*
X91158000Y-156396000I0J250000D01*
G01*
G37*
G36*
G01*
X92983000Y-156396000D02*
X92983000Y-155496000D01*
G75*
G02*
X93233000Y-155246000I250000J0D01*
G01*
X93758000Y-155246000D01*
G75*
G02*
X94008000Y-155496000I0J-250000D01*
G01*
X94008000Y-156396000D01*
G75*
G02*
X93758000Y-156646000I-250000J0D01*
G01*
X93233000Y-156646000D01*
G75*
G02*
X92983000Y-156396000I0J250000D01*
G01*
G37*
G36*
G01*
X128450000Y-68105000D02*
X128450000Y-69055000D01*
G75*
G02*
X128200000Y-69305000I-250000J0D01*
G01*
X127700000Y-69305000D01*
G75*
G02*
X127450000Y-69055000I0J250000D01*
G01*
X127450000Y-68105000D01*
G75*
G02*
X127700000Y-67855000I250000J0D01*
G01*
X128200000Y-67855000D01*
G75*
G02*
X128450000Y-68105000I0J-250000D01*
G01*
G37*
G36*
G01*
X126550000Y-68105000D02*
X126550000Y-69055000D01*
G75*
G02*
X126300000Y-69305000I-250000J0D01*
G01*
X125800000Y-69305000D01*
G75*
G02*
X125550000Y-69055000I0J250000D01*
G01*
X125550000Y-68105000D01*
G75*
G02*
X125800000Y-67855000I250000J0D01*
G01*
X126300000Y-67855000D01*
G75*
G02*
X126550000Y-68105000I0J-250000D01*
G01*
G37*
G36*
G01*
X110035000Y-130335000D02*
X110035000Y-131285000D01*
G75*
G02*
X109785000Y-131535000I-250000J0D01*
G01*
X109285000Y-131535000D01*
G75*
G02*
X109035000Y-131285000I0J250000D01*
G01*
X109035000Y-130335000D01*
G75*
G02*
X109285000Y-130085000I250000J0D01*
G01*
X109785000Y-130085000D01*
G75*
G02*
X110035000Y-130335000I0J-250000D01*
G01*
G37*
G36*
G01*
X108135000Y-130335000D02*
X108135000Y-131285000D01*
G75*
G02*
X107885000Y-131535000I-250000J0D01*
G01*
X107385000Y-131535000D01*
G75*
G02*
X107135000Y-131285000I0J250000D01*
G01*
X107135000Y-130335000D01*
G75*
G02*
X107385000Y-130085000I250000J0D01*
G01*
X107885000Y-130085000D01*
G75*
G02*
X108135000Y-130335000I0J-250000D01*
G01*
G37*
G36*
G01*
X94008000Y-151940000D02*
X94008000Y-152840000D01*
G75*
G02*
X93758000Y-153090000I-250000J0D01*
G01*
X93233000Y-153090000D01*
G75*
G02*
X92983000Y-152840000I0J250000D01*
G01*
X92983000Y-151940000D01*
G75*
G02*
X93233000Y-151690000I250000J0D01*
G01*
X93758000Y-151690000D01*
G75*
G02*
X94008000Y-151940000I0J-250000D01*
G01*
G37*
G36*
G01*
X92183000Y-151940000D02*
X92183000Y-152840000D01*
G75*
G02*
X91933000Y-153090000I-250000J0D01*
G01*
X91408000Y-153090000D01*
G75*
G02*
X91158000Y-152840000I0J250000D01*
G01*
X91158000Y-151940000D01*
G75*
G02*
X91408000Y-151690000I250000J0D01*
G01*
X91933000Y-151690000D01*
G75*
G02*
X92183000Y-151940000I0J-250000D01*
G01*
G37*
M02*
