%FSLAX45Y45*%
G04 Gerber Fmt 4.5, Leading zero omitted, Abs format (unit mm)*
G04 Created by KiCad (PCBNEW 6.0.5+dfsg-1~bpo11+1) date 2022-08-14 17:08:05*
%MOMM*%
%LPD*%
G01*
G04 APERTURE LIST*
%TA.AperFunction,Profile*%
%ADD10C,0.050000*%
%TD*%
%ADD11C,0.200000*%
%ADD12C,0.040000*%
%ADD13C,0.050000*%
%ADD14C,0.080000*%
%ADD15C,0.090000*%
%ADD16C,0.100000*%
%ADD17C,0.110000*%
%ADD18C,0.119000*%
%ADD19C,0.130000*%
%ADD20C,0.185000*%
G04 APERTURE END LIST*
D10*
X17208500Y-4191000D02*
X4000500Y-4191000D01*
X17208500Y-22733000D02*
X17208500Y-4191000D01*
X4000500Y-4191000D02*
X4000500Y-22733000D01*
X4000500Y-22733000D02*
X17208500Y-22733000D01*
D11*
D12*
X8908100Y-7828600D02*
X8948100Y-7868600D01*
X8948100Y-7828600D02*
X8908100Y-7868600D01*
X11752900Y-6965000D02*
X11792900Y-7005000D01*
X11792900Y-6965000D02*
X11752900Y-7005000D01*
D13*
X5549500Y-10515600D02*
G75*
G03*
X5549500Y-10515600I-25000J0D01*
G01*
X5994000Y-5277551D02*
G75*
G03*
X5994000Y-5277551I-25000J0D01*
G01*
X6260700Y-13538200D02*
G75*
G03*
X6260700Y-13538200I-25000J0D01*
G01*
X6540100Y-12827000D02*
G75*
G03*
X6540100Y-12827000I-25000J0D01*
G01*
X6747250Y-9725170D02*
G75*
G03*
X6747250Y-9725170I-25000J0D01*
G01*
X6755069Y-12798099D02*
G75*
G03*
X6755069Y-12798099I-25000J0D01*
G01*
X6756000Y-10833100D02*
G75*
G03*
X6756000Y-10833100I-25000J0D01*
G01*
X6767525Y-12409075D02*
G75*
G03*
X6767525Y-12409075I-25000J0D01*
G01*
X6819500Y-7975600D02*
G75*
G03*
X6819500Y-7975600I-25000J0D01*
G01*
X6819500Y-11899900D02*
G75*
G03*
X6819500Y-11899900I-25000J0D01*
G01*
X6832200Y-11188700D02*
G75*
G03*
X6832200Y-11188700I-25000J0D01*
G01*
X6844900Y-12280900D02*
G75*
G03*
X6844900Y-12280900I-25000J0D01*
G01*
X6847819Y-8874381D02*
G75*
G03*
X6847819Y-8874381I-25000J0D01*
G01*
X6857600Y-7772400D02*
G75*
G03*
X6857600Y-7772400I-25000J0D01*
G01*
X7175100Y-17399000D02*
G75*
G03*
X7175100Y-17399000I-25000J0D01*
G01*
X7314800Y-5499100D02*
G75*
G03*
X7314800Y-5499100I-25000J0D01*
G01*
X7327500Y-12230100D02*
G75*
G03*
X7327500Y-12230100I-25000J0D01*
G01*
X7373220Y-14635480D02*
G75*
G03*
X7373220Y-14635480I-25000J0D01*
G01*
X7403700Y-6858000D02*
G75*
G03*
X7403700Y-6858000I-25000J0D01*
G01*
X7403700Y-8509000D02*
G75*
G03*
X7403700Y-8509000I-25000J0D01*
G01*
X7403700Y-9474200D02*
G75*
G03*
X7403700Y-9474200I-25000J0D01*
G01*
X7410050Y-6267450D02*
G75*
G03*
X7410050Y-6267450I-25000J0D01*
G01*
X7429100Y-11506200D02*
G75*
G03*
X7429100Y-11506200I-25000J0D01*
G01*
X7454500Y-9906000D02*
G75*
G03*
X7454500Y-9906000I-25000J0D01*
G01*
X7505300Y-10502900D02*
G75*
G03*
X7505300Y-10502900I-25000J0D01*
G01*
X7556100Y-11150600D02*
G75*
G03*
X7556100Y-11150600I-25000J0D01*
G01*
X7568800Y-13703300D02*
G75*
G03*
X7568800Y-13703300I-25000J0D01*
G01*
X7703420Y-14640560D02*
G75*
G03*
X7703420Y-14640560I-25000J0D01*
G01*
X7810100Y-11887200D02*
G75*
G03*
X7810100Y-11887200I-25000J0D01*
G01*
X8013300Y-11150600D02*
G75*
G03*
X8013300Y-11150600I-25000J0D01*
G01*
X8114900Y-11785600D02*
G75*
G03*
X8114900Y-11785600I-25000J0D01*
G01*
X8254600Y-18364200D02*
G75*
G03*
X8254600Y-18364200I-25000J0D01*
G01*
X8325200Y-5270500D02*
G75*
G03*
X8325200Y-5270500I-25000J0D01*
G01*
X8419700Y-10896600D02*
G75*
G03*
X8419700Y-10896600I-25000J0D01*
G01*
X8470500Y-9931400D02*
G75*
G03*
X8470500Y-9931400I-25000J0D01*
G01*
X8495900Y-6858000D02*
G75*
G03*
X8495900Y-6858000I-25000J0D01*
G01*
X8495900Y-8509000D02*
G75*
G03*
X8495900Y-8509000I-25000J0D01*
G01*
X8495900Y-11506200D02*
G75*
G03*
X8495900Y-11506200I-25000J0D01*
G01*
X8495900Y-13411200D02*
G75*
G03*
X8495900Y-13411200I-25000J0D01*
G01*
X8495900Y-16662400D02*
G75*
G03*
X8495900Y-16662400I-25000J0D01*
G01*
X8546700Y-9398000D02*
G75*
G03*
X8546700Y-9398000I-25000J0D01*
G01*
X8635600Y-9766300D02*
G75*
G03*
X8635600Y-9766300I-25000J0D01*
G01*
X8699100Y-13589000D02*
G75*
G03*
X8699100Y-13589000I-25000J0D01*
G01*
X8711800Y-16992600D02*
G75*
G03*
X8711800Y-16992600I-25000J0D01*
G01*
X8818480Y-12679680D02*
G75*
G03*
X8818480Y-12679680I-25000J0D01*
G01*
X8889600Y-18402300D02*
G75*
G03*
X8889600Y-18402300I-25000J0D01*
G01*
X8927700Y-13055600D02*
G75*
G03*
X8927700Y-13055600I-25000J0D01*
G01*
X8927700Y-17881600D02*
G75*
G03*
X8927700Y-17881600I-25000J0D01*
G01*
X9042000Y-17399000D02*
G75*
G03*
X9042000Y-17399000I-25000J0D01*
G01*
X9054700Y-12522200D02*
G75*
G03*
X9054700Y-12522200I-25000J0D01*
G01*
X9054700Y-16306800D02*
G75*
G03*
X9054700Y-16306800I-25000J0D01*
G01*
X9054700Y-16662400D02*
G75*
G03*
X9054700Y-16662400I-25000J0D01*
G01*
X9080100Y-16992600D02*
G75*
G03*
X9080100Y-16992600I-25000J0D01*
G01*
X9130900Y-10134600D02*
G75*
G03*
X9130900Y-10134600I-25000J0D01*
G01*
X9486500Y-13309600D02*
G75*
G03*
X9486500Y-13309600I-25000J0D01*
G01*
X9511900Y-18542000D02*
G75*
G03*
X9511900Y-18542000I-25000J0D01*
G01*
X9536050Y-12255500D02*
G75*
G03*
X9536050Y-12255500I-25000J0D01*
G01*
X9536050Y-12433300D02*
G75*
G03*
X9536050Y-12433300I-25000J0D01*
G01*
X9613500Y-19304000D02*
G75*
G03*
X9613500Y-19304000I-25000J0D01*
G01*
X9638900Y-17754600D02*
G75*
G03*
X9638900Y-17754600I-25000J0D01*
G01*
X9969100Y-12636500D02*
G75*
G03*
X9969100Y-12636500I-25000J0D01*
G01*
X10121500Y-13081000D02*
G75*
G03*
X10121500Y-13081000I-25000J0D01*
G01*
X10121500Y-14097000D02*
G75*
G03*
X10121500Y-14097000I-25000J0D01*
G01*
X10121500Y-15748000D02*
G75*
G03*
X10121500Y-15748000I-25000J0D01*
G01*
X10121500Y-17018000D02*
G75*
G03*
X10121500Y-17018000I-25000J0D01*
G01*
X10121500Y-18796000D02*
G75*
G03*
X10121500Y-18796000I-25000J0D01*
G01*
X10469011Y-11921350D02*
G75*
G03*
X10469011Y-11921350I-25000J0D01*
G01*
X10578700Y-6070600D02*
G75*
G03*
X10578700Y-6070600I-25000J0D01*
G01*
X10654900Y-13703300D02*
G75*
G03*
X10654900Y-13703300I-25000J0D01*
G01*
X10680300Y-12166600D02*
G75*
G03*
X10680300Y-12166600I-25000J0D01*
G01*
X10788500Y-11836400D02*
G75*
G03*
X10788500Y-11836400I-25000J0D01*
G01*
X11137500Y-13081000D02*
G75*
G03*
X11137500Y-13081000I-25000J0D01*
G01*
X11137500Y-14097000D02*
G75*
G03*
X11137500Y-14097000I-25000J0D01*
G01*
X11137500Y-15748000D02*
G75*
G03*
X11137500Y-15748000I-25000J0D01*
G01*
X11137500Y-17018000D02*
G75*
G03*
X11137500Y-17018000I-25000J0D01*
G01*
X11137500Y-18796000D02*
G75*
G03*
X11137500Y-18796000I-25000J0D01*
G01*
X11226400Y-12242800D02*
G75*
G03*
X11226400Y-12242800I-25000J0D01*
G01*
X11391500Y-10909300D02*
G75*
G03*
X11391500Y-10909300I-25000J0D01*
G01*
X11658200Y-8674100D02*
G75*
G03*
X11658200Y-8674100I-25000J0D01*
G01*
X11658200Y-13589000D02*
G75*
G03*
X11658200Y-13589000I-25000J0D01*
G01*
X11785200Y-12446000D02*
G75*
G03*
X11785200Y-12446000I-25000J0D01*
G01*
X11810600Y-10744200D02*
G75*
G03*
X11810600Y-10744200I-25000J0D01*
G01*
X11823300Y-9753600D02*
G75*
G03*
X11823300Y-9753600I-25000J0D01*
G01*
X11823300Y-10972800D02*
G75*
G03*
X11823300Y-10972800I-25000J0D01*
G01*
X11836000Y-8826500D02*
G75*
G03*
X11836000Y-8826500I-25000J0D01*
G01*
X11848700Y-7772400D02*
G75*
G03*
X11848700Y-7772400I-25000J0D01*
G01*
X11848700Y-8674100D02*
G75*
G03*
X11848700Y-8674100I-25000J0D01*
G01*
X11873900Y-11165378D02*
G75*
G03*
X11873900Y-11165378I-25000J0D01*
G01*
X12040174Y-22528550D02*
G75*
G03*
X12040174Y-22528550I-25000J0D01*
G01*
X12204300Y-16306800D02*
G75*
G03*
X12204300Y-16306800I-25000J0D01*
G01*
X12204300Y-16662400D02*
G75*
G03*
X12204300Y-16662400I-25000J0D01*
G01*
X12204300Y-22326600D02*
G75*
G03*
X12204300Y-22326600I-25000J0D01*
G01*
X12217000Y-17399000D02*
G75*
G03*
X12217000Y-17399000I-25000J0D01*
G01*
X12229700Y-19532600D02*
G75*
G03*
X12229700Y-19532600I-25000J0D01*
G01*
X12229700Y-19685000D02*
G75*
G03*
X12229700Y-19685000I-25000J0D01*
G01*
X12255100Y-18542000D02*
G75*
G03*
X12255100Y-18542000I-25000J0D01*
G01*
X12305900Y-18110200D02*
G75*
G03*
X12305900Y-18110200I-25000J0D01*
G01*
X12394800Y-12255500D02*
G75*
G03*
X12394800Y-12255500I-25000J0D01*
G01*
X12407500Y-9448800D02*
G75*
G03*
X12407500Y-9448800I-25000J0D01*
G01*
X12420200Y-17741900D02*
G75*
G03*
X12420200Y-17741900I-25000J0D01*
G01*
X12432900Y-6858000D02*
G75*
G03*
X12432900Y-6858000I-25000J0D01*
G01*
X12432900Y-11506200D02*
G75*
G03*
X12432900Y-11506200I-25000J0D01*
G01*
X12458300Y-8509000D02*
G75*
G03*
X12458300Y-8509000I-25000J0D01*
G01*
X12458300Y-9906000D02*
G75*
G03*
X12458300Y-9906000I-25000J0D01*
G01*
X12483700Y-10744200D02*
G75*
G03*
X12483700Y-10744200I-25000J0D01*
G01*
X12509100Y-10502900D02*
G75*
G03*
X12509100Y-10502900I-25000J0D01*
G01*
X12521800Y-10883900D02*
G75*
G03*
X12521800Y-10883900I-25000J0D01*
G01*
X12559900Y-11150600D02*
G75*
G03*
X12559900Y-11150600I-25000J0D01*
G01*
X12737700Y-11938000D02*
G75*
G03*
X12737700Y-11938000I-25000J0D01*
G01*
X12991700Y-11150600D02*
G75*
G03*
X12991700Y-11150600I-25000J0D01*
G01*
X13099650Y-10852150D02*
G75*
G03*
X13099650Y-10852150I-25000J0D01*
G01*
X13144100Y-11811000D02*
G75*
G03*
X13144100Y-11811000I-25000J0D01*
G01*
X13499700Y-9931400D02*
G75*
G03*
X13499700Y-9931400I-25000J0D01*
G01*
X13525100Y-6858000D02*
G75*
G03*
X13525100Y-6858000I-25000J0D01*
G01*
X13525100Y-8509000D02*
G75*
G03*
X13525100Y-8509000I-25000J0D01*
G01*
X13525100Y-11506200D02*
G75*
G03*
X13525100Y-11506200I-25000J0D01*
G01*
X13550500Y-9296400D02*
G75*
G03*
X13550500Y-9296400I-25000J0D01*
G01*
X13639400Y-9753600D02*
G75*
G03*
X13639400Y-9753600I-25000J0D01*
G01*
X14160100Y-10134600D02*
G75*
G03*
X14160100Y-10134600I-25000J0D01*
G01*
X14795100Y-10744200D02*
G75*
G03*
X14795100Y-10744200I-25000J0D01*
G01*
X15582500Y-10515600D02*
G75*
G03*
X15582500Y-10515600I-25000J0D01*
G01*
X16217500Y-11125200D02*
G75*
G03*
X16217500Y-11125200I-25000J0D01*
G01*
X16242900Y-13550900D02*
G75*
G03*
X16242900Y-13550900I-25000J0D01*
G01*
X16979500Y-19507200D02*
G75*
G03*
X16979500Y-19507200I-25000J0D01*
G01*
X17106340Y-16121380D02*
G75*
G03*
X17106340Y-16121380I-25000J0D01*
G01*
D14*
X7179500Y-20407000D02*
X7179500Y-20487000D01*
X7139500Y-20447000D02*
X7219500Y-20447000D01*
X7429500Y-20407000D02*
X7429500Y-20487000D01*
X7389500Y-20447000D02*
X7469500Y-20447000D01*
X7977500Y-20407000D02*
X7977500Y-20487000D01*
X7937500Y-20447000D02*
X8017500Y-20447000D01*
X8227500Y-20407000D02*
X8227500Y-20487000D01*
X8187500Y-20447000D02*
X8267500Y-20447000D01*
X8509000Y-17105000D02*
X8509000Y-17185000D01*
X8469000Y-17145000D02*
X8549000Y-17145000D01*
X8509000Y-17359000D02*
X8509000Y-17439000D01*
X8469000Y-17399000D02*
X8549000Y-17399000D01*
X8509000Y-17613000D02*
X8509000Y-17693000D01*
X8469000Y-17653000D02*
X8549000Y-17653000D01*
X8839200Y-7622100D02*
X8839200Y-7702100D01*
X8799200Y-7662100D02*
X8879200Y-7662100D01*
X8839200Y-8122100D02*
X8839200Y-8202100D01*
X8799200Y-8162100D02*
X8879200Y-8162100D01*
X8839200Y-8837300D02*
X8839200Y-8917300D01*
X8799200Y-8877300D02*
X8879200Y-8877300D01*
X8839200Y-9337300D02*
X8839200Y-9417300D01*
X8799200Y-9377300D02*
X8879200Y-9377300D01*
X9258300Y-13776600D02*
X9258300Y-13856600D01*
X9218300Y-13816600D02*
X9298300Y-13816600D01*
X9258300Y-14030600D02*
X9258300Y-14110600D01*
X9218300Y-14070600D02*
X9298300Y-14070600D01*
X9258300Y-14284600D02*
X9258300Y-14364600D01*
X9218300Y-14324600D02*
X9298300Y-14324600D01*
X11950700Y-13777600D02*
X11950700Y-13857600D01*
X11910700Y-13817600D02*
X11990700Y-13817600D01*
X11950700Y-14031600D02*
X11950700Y-14111600D01*
X11910700Y-14071600D02*
X11990700Y-14071600D01*
X11950700Y-14285600D02*
X11950700Y-14365600D01*
X11910700Y-14325600D02*
X11990700Y-14325600D01*
X12700000Y-17104000D02*
X12700000Y-17184000D01*
X12660000Y-17144000D02*
X12740000Y-17144000D01*
X12700000Y-17358000D02*
X12700000Y-17438000D01*
X12660000Y-17398000D02*
X12740000Y-17398000D01*
X12700000Y-17612000D02*
X12700000Y-17692000D01*
X12660000Y-17652000D02*
X12740000Y-17652000D01*
X13830300Y-7618100D02*
X13830300Y-7698100D01*
X13790300Y-7658100D02*
X13870300Y-7658100D01*
X13830300Y-8118100D02*
X13830300Y-8198100D01*
X13790300Y-8158100D02*
X13870300Y-8158100D01*
X13843000Y-8824600D02*
X13843000Y-8904600D01*
X13803000Y-8864600D02*
X13883000Y-8864600D01*
X13843000Y-9324600D02*
X13843000Y-9404600D01*
X13803000Y-9364600D02*
X13883000Y-9364600D01*
X14954980Y-6086480D02*
X14954980Y-6166480D01*
X14914980Y-6126480D02*
X14994980Y-6126480D01*
X15204980Y-6086480D02*
X15204980Y-6166480D01*
X15164980Y-6126480D02*
X15244980Y-6126480D01*
D15*
X4555764Y-7231371D02*
X4555764Y-7167731D01*
X4492124Y-7167731D01*
X4492124Y-7231371D01*
X4555764Y-7231371D01*
X4732541Y-7054594D02*
X4732541Y-6990954D01*
X4668901Y-6990954D01*
X4668901Y-7054594D01*
X4732541Y-7054594D01*
X4909317Y-6877817D02*
X4909317Y-6814177D01*
X4845677Y-6814177D01*
X4845677Y-6877817D01*
X4909317Y-6877817D01*
X5086094Y-6701041D02*
X5086094Y-6637400D01*
X5022454Y-6637400D01*
X5022454Y-6701041D01*
X5086094Y-6701041D01*
X5262871Y-6524264D02*
X5262871Y-6460624D01*
X5199231Y-6460624D01*
X5199231Y-6524264D01*
X5262871Y-6524264D01*
X5849769Y-8525376D02*
X5849769Y-8461736D01*
X5786129Y-8461736D01*
X5786129Y-8525376D01*
X5849769Y-8525376D01*
X6026546Y-8348599D02*
X6026546Y-8284959D01*
X5962906Y-8284959D01*
X5962906Y-8348599D01*
X6026546Y-8348599D01*
X6203323Y-8171823D02*
X6203323Y-8108183D01*
X6139683Y-8108183D01*
X6139683Y-8171823D01*
X6203323Y-8171823D01*
X6380099Y-7995046D02*
X6380099Y-7931406D01*
X6316459Y-7931406D01*
X6316459Y-7995046D01*
X6380099Y-7995046D01*
X6556876Y-7818269D02*
X6556876Y-7754629D01*
X6493236Y-7754629D01*
X6493236Y-7818269D01*
X6556876Y-7818269D01*
X14715764Y-7231371D02*
X14715764Y-7167731D01*
X14652124Y-7167731D01*
X14652124Y-7231371D01*
X14715764Y-7231371D01*
X14892541Y-7054594D02*
X14892541Y-6990954D01*
X14828900Y-6990954D01*
X14828900Y-7054594D01*
X14892541Y-7054594D01*
X15069317Y-6877817D02*
X15069317Y-6814177D01*
X15005677Y-6814177D01*
X15005677Y-6877817D01*
X15069317Y-6877817D01*
X15246094Y-6701041D02*
X15246094Y-6637400D01*
X15182454Y-6637400D01*
X15182454Y-6701041D01*
X15246094Y-6701041D01*
X15422871Y-6524264D02*
X15422871Y-6460624D01*
X15359231Y-6460624D01*
X15359231Y-6524264D01*
X15422871Y-6524264D01*
X16009769Y-8525376D02*
X16009769Y-8461736D01*
X15946129Y-8461736D01*
X15946129Y-8525376D01*
X16009769Y-8525376D01*
X16186546Y-8348599D02*
X16186546Y-8284959D01*
X16122906Y-8284959D01*
X16122906Y-8348599D01*
X16186546Y-8348599D01*
X16363323Y-8171823D02*
X16363323Y-8108183D01*
X16299683Y-8108183D01*
X16299683Y-8171823D01*
X16363323Y-8171823D01*
X16540099Y-7995046D02*
X16540099Y-7931406D01*
X16476459Y-7931406D01*
X16476459Y-7995046D01*
X16540099Y-7995046D01*
X16716876Y-7818269D02*
X16716876Y-7754629D01*
X16653236Y-7754629D01*
X16653236Y-7818269D01*
X16716876Y-7818269D01*
D16*
X4635500Y-22275000D02*
X4685500Y-22225000D01*
X4635500Y-22175000D01*
X4585500Y-22225000D01*
X4635500Y-22275000D01*
X4885500Y-22275000D02*
X4935500Y-22225000D01*
X4885500Y-22175000D01*
X4835500Y-22225000D01*
X4885500Y-22275000D01*
X5135500Y-22275000D02*
X5185500Y-22225000D01*
X5135500Y-22175000D01*
X5085500Y-22225000D01*
X5135500Y-22275000D01*
X5270500Y-13385000D02*
X5320500Y-13335000D01*
X5270500Y-13285000D01*
X5220500Y-13335000D01*
X5270500Y-13385000D01*
X5520500Y-13385000D02*
X5570500Y-13335000D01*
X5520500Y-13285000D01*
X5470500Y-13335000D01*
X5520500Y-13385000D01*
X5770500Y-13385000D02*
X5820500Y-13335000D01*
X5770500Y-13285000D01*
X5720500Y-13335000D01*
X5770500Y-13385000D01*
X6032500Y-9003500D02*
X6082500Y-8953500D01*
X6032500Y-8903500D01*
X5982500Y-8953500D01*
X6032500Y-9003500D01*
X6794500Y-14147000D02*
X6844500Y-14097000D01*
X6794500Y-14047000D01*
X6744500Y-14097000D01*
X6794500Y-14147000D01*
X6794500Y-15163000D02*
X6844500Y-15113000D01*
X6794500Y-15063000D01*
X6744500Y-15113000D01*
X6794500Y-15163000D01*
X6921500Y-6273000D02*
X6971500Y-6223000D01*
X6921500Y-6173000D01*
X6871500Y-6223000D01*
X6921500Y-6273000D01*
X7175500Y-21767000D02*
X7225500Y-21717000D01*
X7175500Y-21667000D01*
X7125500Y-21717000D01*
X7175500Y-21767000D01*
X7175500Y-22021000D02*
X7225500Y-21971000D01*
X7175500Y-21921000D01*
X7125500Y-21971000D01*
X7175500Y-22021000D01*
X7429500Y-21767000D02*
X7479500Y-21717000D01*
X7429500Y-21667000D01*
X7379500Y-21717000D01*
X7429500Y-21767000D01*
X7429500Y-22021000D02*
X7479500Y-21971000D01*
X7429500Y-21921000D01*
X7379500Y-21971000D01*
X7429500Y-22021000D01*
X7493000Y-19735000D02*
X7543000Y-19685000D01*
X7493000Y-19635000D01*
X7443000Y-19685000D01*
X7493000Y-19735000D01*
X7683500Y-21767000D02*
X7733500Y-21717000D01*
X7683500Y-21667000D01*
X7633500Y-21717000D01*
X7683500Y-21767000D01*
X7683500Y-22021000D02*
X7733500Y-21971000D01*
X7683500Y-21921000D01*
X7633500Y-21971000D01*
X7683500Y-22021000D01*
X7743000Y-19735000D02*
X7793000Y-19685000D01*
X7743000Y-19635000D01*
X7693000Y-19685000D01*
X7743000Y-19735000D01*
X7937500Y-21767000D02*
X7987500Y-21717000D01*
X7937500Y-21667000D01*
X7887500Y-21717000D01*
X7937500Y-21767000D01*
X7937500Y-22021000D02*
X7987500Y-21971000D01*
X7937500Y-21921000D01*
X7887500Y-21971000D01*
X7937500Y-22021000D01*
X7993000Y-19735000D02*
X8043000Y-19685000D01*
X7993000Y-19635000D01*
X7943000Y-19685000D01*
X7993000Y-19735000D01*
X8191500Y-21767000D02*
X8241500Y-21717000D01*
X8191500Y-21667000D01*
X8141500Y-21717000D01*
X8191500Y-21767000D01*
X8191500Y-22021000D02*
X8241500Y-21971000D01*
X8191500Y-21921000D01*
X8141500Y-21971000D01*
X8191500Y-22021000D01*
X9398000Y-10908500D02*
X9448000Y-10858500D01*
X9398000Y-10808500D01*
X9348000Y-10858500D01*
X9398000Y-10908500D01*
X10096500Y-19354000D02*
X10146500Y-19304000D01*
X10096500Y-19254000D01*
X10046500Y-19304000D01*
X10096500Y-19354000D01*
X10350500Y-5765000D02*
X10400500Y-5715000D01*
X10350500Y-5665000D01*
X10300500Y-5715000D01*
X10350500Y-5765000D01*
X10350500Y-10845000D02*
X10400500Y-10795000D01*
X10350500Y-10745000D01*
X10300500Y-10795000D01*
X10350500Y-10845000D01*
X10350500Y-22275000D02*
X10400500Y-22225000D01*
X10350500Y-22175000D01*
X10300500Y-22225000D01*
X10350500Y-22275000D01*
X10600500Y-5765000D02*
X10650500Y-5715000D01*
X10600500Y-5665000D01*
X10550500Y-5715000D01*
X10600500Y-5765000D01*
X10600500Y-10845000D02*
X10650500Y-10795000D01*
X10600500Y-10745000D01*
X10550500Y-10795000D01*
X10600500Y-10845000D01*
X10600500Y-22275000D02*
X10650500Y-22225000D01*
X10600500Y-22175000D01*
X10550500Y-22225000D01*
X10600500Y-22275000D01*
X10731500Y-19354000D02*
X10781500Y-19304000D01*
X10731500Y-19254000D01*
X10681500Y-19304000D01*
X10731500Y-19354000D01*
X10850500Y-5765000D02*
X10900500Y-5715000D01*
X10850500Y-5665000D01*
X10800500Y-5715000D01*
X10850500Y-5765000D01*
X10850500Y-10845000D02*
X10900500Y-10795000D01*
X10850500Y-10745000D01*
X10800500Y-10795000D01*
X10850500Y-10845000D01*
X10850500Y-22275000D02*
X10900500Y-22225000D01*
X10850500Y-22175000D01*
X10800500Y-22225000D01*
X10850500Y-22275000D01*
X13208000Y-19735000D02*
X13258000Y-19685000D01*
X13208000Y-19635000D01*
X13158000Y-19685000D01*
X13208000Y-19735000D01*
X13458000Y-19735000D02*
X13508000Y-19685000D01*
X13458000Y-19635000D01*
X13408000Y-19685000D01*
X13458000Y-19735000D01*
X13708000Y-19735000D02*
X13758000Y-19685000D01*
X13708000Y-19635000D01*
X13658000Y-19685000D01*
X13708000Y-19735000D01*
X14414500Y-5320500D02*
X14464500Y-5270500D01*
X14414500Y-5220500D01*
X14364500Y-5270500D01*
X14414500Y-5320500D01*
X14478000Y-10908500D02*
X14528000Y-10858500D01*
X14478000Y-10808500D01*
X14428000Y-10858500D01*
X14478000Y-10908500D01*
X15430500Y-13385000D02*
X15480500Y-13335000D01*
X15430500Y-13285000D01*
X15380500Y-13335000D01*
X15430500Y-13385000D01*
X15680500Y-13385000D02*
X15730500Y-13335000D01*
X15680500Y-13285000D01*
X15630500Y-13335000D01*
X15680500Y-13385000D01*
X15930500Y-13385000D02*
X15980500Y-13335000D01*
X15930500Y-13285000D01*
X15880500Y-13335000D01*
X15930500Y-13385000D01*
X16065500Y-22275000D02*
X16115500Y-22225000D01*
X16065500Y-22175000D01*
X16015500Y-22225000D01*
X16065500Y-22275000D01*
X16192500Y-9003500D02*
X16242500Y-8953500D01*
X16192500Y-8903500D01*
X16142500Y-8953500D01*
X16192500Y-9003500D01*
X16315500Y-22275000D02*
X16365500Y-22225000D01*
X16315500Y-22175000D01*
X16265500Y-22225000D01*
X16315500Y-22275000D01*
X16565500Y-22275000D02*
X16615500Y-22225000D01*
X16565500Y-22175000D01*
X16515500Y-22225000D01*
X16565500Y-22275000D01*
D17*
X4350500Y-21420000D02*
X4460500Y-21530000D01*
X4460500Y-21420000D02*
X4350500Y-21530000D01*
X4460500Y-21475000D02*
G75*
G03*
X4460500Y-21475000I-55000J0D01*
G01*
D11*
X4450500Y-21510000D02*
X4450500Y-21440000D01*
X4360500Y-21510000D02*
X4360500Y-21440000D01*
X4450500Y-21440000D02*
G75*
G03*
X4360500Y-21440000I-45000J0D01*
G01*
X4360500Y-21510000D02*
G75*
G03*
X4450500Y-21510000I45000J0D01*
G01*
D17*
X4985500Y-12530000D02*
X5095500Y-12640000D01*
X5095500Y-12530000D02*
X4985500Y-12640000D01*
X5095500Y-12585000D02*
G75*
G03*
X5095500Y-12585000I-55000J0D01*
G01*
D11*
X5085500Y-12620000D02*
X5085500Y-12550000D01*
X4995500Y-12620000D02*
X4995500Y-12550000D01*
X5085500Y-12550000D02*
G75*
G03*
X4995500Y-12550000I-45000J0D01*
G01*
X4995500Y-12620000D02*
G75*
G03*
X5085500Y-12620000I45000J0D01*
G01*
D17*
X5310500Y-21420000D02*
X5420500Y-21530000D01*
X5420500Y-21420000D02*
X5310500Y-21530000D01*
X5420500Y-21475000D02*
G75*
G03*
X5420500Y-21475000I-55000J0D01*
G01*
D11*
X5410500Y-21510000D02*
X5410500Y-21440000D01*
X5320500Y-21510000D02*
X5320500Y-21440000D01*
X5410500Y-21440000D02*
G75*
G03*
X5320500Y-21440000I-45000J0D01*
G01*
X5320500Y-21510000D02*
G75*
G03*
X5410500Y-21510000I45000J0D01*
G01*
D17*
X5945500Y-12530000D02*
X6055500Y-12640000D01*
X6055500Y-12530000D02*
X5945500Y-12640000D01*
X6055500Y-12585000D02*
G75*
G03*
X6055500Y-12585000I-55000J0D01*
G01*
D11*
X6045500Y-12620000D02*
X6045500Y-12550000D01*
X5955500Y-12620000D02*
X5955500Y-12550000D01*
X6045500Y-12550000D02*
G75*
G03*
X5955500Y-12550000I-45000J0D01*
G01*
X5955500Y-12620000D02*
G75*
G03*
X6045500Y-12620000I45000J0D01*
G01*
D17*
X7208000Y-18880000D02*
X7318000Y-18990000D01*
X7318000Y-18880000D02*
X7208000Y-18990000D01*
X7318000Y-18935000D02*
G75*
G03*
X7318000Y-18935000I-55000J0D01*
G01*
D11*
X7308000Y-18970000D02*
X7308000Y-18900000D01*
X7218000Y-18970000D02*
X7218000Y-18900000D01*
X7308000Y-18900000D02*
G75*
G03*
X7218000Y-18900000I-45000J0D01*
G01*
X7218000Y-18970000D02*
G75*
G03*
X7308000Y-18970000I45000J0D01*
G01*
D17*
X8168000Y-18880000D02*
X8278000Y-18990000D01*
X8278000Y-18880000D02*
X8168000Y-18990000D01*
X8278000Y-18935000D02*
G75*
G03*
X8278000Y-18935000I-55000J0D01*
G01*
D11*
X8268000Y-18970000D02*
X8268000Y-18900000D01*
X8178000Y-18970000D02*
X8178000Y-18900000D01*
X8268000Y-18900000D02*
G75*
G03*
X8178000Y-18900000I-45000J0D01*
G01*
X8178000Y-18970000D02*
G75*
G03*
X8268000Y-18970000I45000J0D01*
G01*
D17*
X10065500Y-4910000D02*
X10175500Y-5020000D01*
X10175500Y-4910000D02*
X10065500Y-5020000D01*
X10175500Y-4965000D02*
G75*
G03*
X10175500Y-4965000I-55000J0D01*
G01*
D11*
X10165500Y-5000000D02*
X10165500Y-4930000D01*
X10075500Y-5000000D02*
X10075500Y-4930000D01*
X10165500Y-4930000D02*
G75*
G03*
X10075500Y-4930000I-45000J0D01*
G01*
X10075500Y-5000000D02*
G75*
G03*
X10165500Y-5000000I45000J0D01*
G01*
D17*
X10065500Y-9990000D02*
X10175500Y-10100000D01*
X10175500Y-9990000D02*
X10065500Y-10100000D01*
X10175500Y-10045000D02*
G75*
G03*
X10175500Y-10045000I-55000J0D01*
G01*
D11*
X10165500Y-10080000D02*
X10165500Y-10010000D01*
X10075500Y-10080000D02*
X10075500Y-10010000D01*
X10165500Y-10010000D02*
G75*
G03*
X10075500Y-10010000I-45000J0D01*
G01*
X10075500Y-10080000D02*
G75*
G03*
X10165500Y-10080000I45000J0D01*
G01*
D17*
X10065500Y-21420000D02*
X10175500Y-21530000D01*
X10175500Y-21420000D02*
X10065500Y-21530000D01*
X10175500Y-21475000D02*
G75*
G03*
X10175500Y-21475000I-55000J0D01*
G01*
D11*
X10165500Y-21510000D02*
X10165500Y-21440000D01*
X10075500Y-21510000D02*
X10075500Y-21440000D01*
X10165500Y-21440000D02*
G75*
G03*
X10075500Y-21440000I-45000J0D01*
G01*
X10075500Y-21510000D02*
G75*
G03*
X10165500Y-21510000I45000J0D01*
G01*
D17*
X11025500Y-4910000D02*
X11135500Y-5020000D01*
X11135500Y-4910000D02*
X11025500Y-5020000D01*
X11135500Y-4965000D02*
G75*
G03*
X11135500Y-4965000I-55000J0D01*
G01*
D11*
X11125500Y-5000000D02*
X11125500Y-4930000D01*
X11035500Y-5000000D02*
X11035500Y-4930000D01*
X11125500Y-4930000D02*
G75*
G03*
X11035500Y-4930000I-45000J0D01*
G01*
X11035500Y-5000000D02*
G75*
G03*
X11125500Y-5000000I45000J0D01*
G01*
D17*
X11025500Y-9990000D02*
X11135500Y-10100000D01*
X11135500Y-9990000D02*
X11025500Y-10100000D01*
X11135500Y-10045000D02*
G75*
G03*
X11135500Y-10045000I-55000J0D01*
G01*
D11*
X11125500Y-10080000D02*
X11125500Y-10010000D01*
X11035500Y-10080000D02*
X11035500Y-10010000D01*
X11125500Y-10010000D02*
G75*
G03*
X11035500Y-10010000I-45000J0D01*
G01*
X11035500Y-10080000D02*
G75*
G03*
X11125500Y-10080000I45000J0D01*
G01*
D17*
X11025500Y-21420000D02*
X11135500Y-21530000D01*
X11135500Y-21420000D02*
X11025500Y-21530000D01*
X11135500Y-21475000D02*
G75*
G03*
X11135500Y-21475000I-55000J0D01*
G01*
D11*
X11125500Y-21510000D02*
X11125500Y-21440000D01*
X11035500Y-21510000D02*
X11035500Y-21440000D01*
X11125500Y-21440000D02*
G75*
G03*
X11035500Y-21440000I-45000J0D01*
G01*
X11035500Y-21510000D02*
G75*
G03*
X11125500Y-21510000I45000J0D01*
G01*
D17*
X12923000Y-18880000D02*
X13033000Y-18990000D01*
X13033000Y-18880000D02*
X12923000Y-18990000D01*
X13033000Y-18935000D02*
G75*
G03*
X13033000Y-18935000I-55000J0D01*
G01*
D11*
X13023000Y-18970000D02*
X13023000Y-18900000D01*
X12933000Y-18970000D02*
X12933000Y-18900000D01*
X13023000Y-18900000D02*
G75*
G03*
X12933000Y-18900000I-45000J0D01*
G01*
X12933000Y-18970000D02*
G75*
G03*
X13023000Y-18970000I45000J0D01*
G01*
D17*
X13883000Y-18880000D02*
X13993000Y-18990000D01*
X13993000Y-18880000D02*
X13883000Y-18990000D01*
X13993000Y-18935000D02*
G75*
G03*
X13993000Y-18935000I-55000J0D01*
G01*
D11*
X13983000Y-18970000D02*
X13983000Y-18900000D01*
X13893000Y-18970000D02*
X13893000Y-18900000D01*
X13983000Y-18900000D02*
G75*
G03*
X13893000Y-18900000I-45000J0D01*
G01*
X13893000Y-18970000D02*
G75*
G03*
X13983000Y-18970000I45000J0D01*
G01*
D17*
X15145500Y-12530000D02*
X15255500Y-12640000D01*
X15255500Y-12530000D02*
X15145500Y-12640000D01*
X15255500Y-12585000D02*
G75*
G03*
X15255500Y-12585000I-55000J0D01*
G01*
D11*
X15245500Y-12620000D02*
X15245500Y-12550000D01*
X15155500Y-12620000D02*
X15155500Y-12550000D01*
X15245500Y-12550000D02*
G75*
G03*
X15155500Y-12550000I-45000J0D01*
G01*
X15155500Y-12620000D02*
G75*
G03*
X15245500Y-12620000I45000J0D01*
G01*
D17*
X15780500Y-21420000D02*
X15890500Y-21530000D01*
X15890500Y-21420000D02*
X15780500Y-21530000D01*
X15890500Y-21475000D02*
G75*
G03*
X15890500Y-21475000I-55000J0D01*
G01*
D11*
X15880500Y-21510000D02*
X15880500Y-21440000D01*
X15790500Y-21510000D02*
X15790500Y-21440000D01*
X15880500Y-21440000D02*
G75*
G03*
X15790500Y-21440000I-45000J0D01*
G01*
X15790500Y-21510000D02*
G75*
G03*
X15880500Y-21510000I45000J0D01*
G01*
D17*
X16105500Y-12530000D02*
X16215500Y-12640000D01*
X16215500Y-12530000D02*
X16105500Y-12640000D01*
X16215500Y-12585000D02*
G75*
G03*
X16215500Y-12585000I-55000J0D01*
G01*
D11*
X16205500Y-12620000D02*
X16205500Y-12550000D01*
X16115500Y-12620000D02*
X16115500Y-12550000D01*
X16205500Y-12550000D02*
G75*
G03*
X16115500Y-12550000I-45000J0D01*
G01*
X16115500Y-12620000D02*
G75*
G03*
X16205500Y-12620000I45000J0D01*
G01*
D17*
X16740500Y-21420000D02*
X16850500Y-21530000D01*
X16850500Y-21420000D02*
X16740500Y-21530000D01*
X16850500Y-21475000D02*
G75*
G03*
X16850500Y-21475000I-55000J0D01*
G01*
D11*
X16840500Y-21510000D02*
X16840500Y-21440000D01*
X16750500Y-21510000D02*
X16750500Y-21440000D01*
X16840500Y-21440000D02*
G75*
G03*
X16750500Y-21440000I-45000J0D01*
G01*
X16750500Y-21510000D02*
G75*
G03*
X16840500Y-21510000I45000J0D01*
G01*
D18*
X4705000Y-5401500D02*
X4824000Y-5520500D01*
X4824000Y-5401500D02*
X4705000Y-5520500D01*
X4764500Y-5401500D02*
X4764500Y-5520500D01*
X4705000Y-5461000D02*
X4824000Y-5461000D01*
X4705000Y-5655500D02*
X4824000Y-5774500D01*
X4824000Y-5655500D02*
X4705000Y-5774500D01*
X4764500Y-5655500D02*
X4764500Y-5774500D01*
X4705000Y-5715000D02*
X4824000Y-5715000D01*
X4705000Y-5909500D02*
X4824000Y-6028500D01*
X4824000Y-5909500D02*
X4705000Y-6028500D01*
X4764500Y-5909500D02*
X4764500Y-6028500D01*
X4705000Y-5969000D02*
X4824000Y-5969000D01*
X16387000Y-5401500D02*
X16506000Y-5520500D01*
X16506000Y-5401500D02*
X16387000Y-5520500D01*
X16446500Y-5401500D02*
X16446500Y-5520500D01*
X16387000Y-5461000D02*
X16506000Y-5461000D01*
X16387000Y-5655500D02*
X16506000Y-5774500D01*
X16506000Y-5655500D02*
X16387000Y-5774500D01*
X16446500Y-5655500D02*
X16446500Y-5774500D01*
X16387000Y-5715000D02*
X16506000Y-5715000D01*
X16387000Y-5909500D02*
X16506000Y-6028500D01*
X16506000Y-5909500D02*
X16387000Y-6028500D01*
X16446500Y-5909500D02*
X16446500Y-6028500D01*
X16387000Y-5969000D02*
X16506000Y-5969000D01*
X16387000Y-6163500D02*
X16506000Y-6282500D01*
X16506000Y-6163500D02*
X16387000Y-6282500D01*
X16446500Y-6163500D02*
X16446500Y-6282500D01*
X16387000Y-6223000D02*
X16506000Y-6223000D01*
X16387000Y-14291500D02*
X16506000Y-14410500D01*
X16506000Y-14291500D02*
X16387000Y-14410500D01*
X16446500Y-14291500D02*
X16446500Y-14410500D01*
X16387000Y-14351000D02*
X16506000Y-14351000D01*
X16387000Y-14545500D02*
X16506000Y-14664500D01*
X16506000Y-14545500D02*
X16387000Y-14664500D01*
X16446500Y-14545500D02*
X16446500Y-14664500D01*
X16387000Y-14605000D02*
X16506000Y-14605000D01*
X16389000Y-17847500D02*
X16508000Y-17966500D01*
X16508000Y-17847500D02*
X16389000Y-17966500D01*
X16448500Y-17847500D02*
X16448500Y-17966500D01*
X16389000Y-17907000D02*
X16508000Y-17907000D01*
X16389000Y-18101500D02*
X16508000Y-18220500D01*
X16508000Y-18101500D02*
X16389000Y-18220500D01*
X16448500Y-18101500D02*
X16448500Y-18220500D01*
X16389000Y-18161000D02*
X16508000Y-18161000D01*
X16389000Y-18355500D02*
X16508000Y-18474500D01*
X16508000Y-18355500D02*
X16389000Y-18474500D01*
X16448500Y-18355500D02*
X16448500Y-18474500D01*
X16389000Y-18415000D02*
X16508000Y-18415000D01*
X16389000Y-18609500D02*
X16508000Y-18728500D01*
X16508000Y-18609500D02*
X16389000Y-18728500D01*
X16448500Y-18609500D02*
X16448500Y-18728500D01*
X16389000Y-18669000D02*
X16508000Y-18669000D01*
X16389000Y-20271500D02*
X16508000Y-20390500D01*
X16508000Y-20271500D02*
X16389000Y-20390500D01*
X16448500Y-20271500D02*
X16448500Y-20390500D01*
X16389000Y-20331000D02*
X16508000Y-20331000D01*
X16389000Y-20525500D02*
X16508000Y-20644500D01*
X16508000Y-20525500D02*
X16389000Y-20644500D01*
X16448500Y-20525500D02*
X16448500Y-20644500D01*
X16389000Y-20585000D02*
X16508000Y-20585000D01*
X16391000Y-10354500D02*
X16510000Y-10473500D01*
X16510000Y-10354500D02*
X16391000Y-10473500D01*
X16450500Y-10354500D02*
X16450500Y-10473500D01*
X16391000Y-10414000D02*
X16510000Y-10414000D01*
X16391000Y-10608500D02*
X16510000Y-10727500D01*
X16510000Y-10608500D02*
X16391000Y-10727500D01*
X16450500Y-10608500D02*
X16450500Y-10727500D01*
X16391000Y-10668000D02*
X16510000Y-10668000D01*
X16391000Y-10862500D02*
X16510000Y-10981500D01*
X16510000Y-10862500D02*
X16391000Y-10981500D01*
X16450500Y-10862500D02*
X16450500Y-10981500D01*
X16391000Y-10922000D02*
X16510000Y-10922000D01*
D19*
X5459500Y-19620000D02*
X5589500Y-19750000D01*
X5589500Y-19620000D02*
X5459500Y-19750000D01*
X5570462Y-19730962D02*
X5570462Y-19639038D01*
X5478538Y-19639038D01*
X5478538Y-19730962D01*
X5570462Y-19730962D01*
X6221500Y-19620000D02*
X6351500Y-19750000D01*
X6351500Y-19620000D02*
X6221500Y-19750000D01*
X6332462Y-19730962D02*
X6332462Y-19639038D01*
X6240538Y-19639038D01*
X6240538Y-19730962D01*
X6332462Y-19730962D01*
D20*
X7972000Y-12010500D02*
X8157000Y-12195500D01*
X8157000Y-12010500D02*
X7972000Y-12195500D01*
X8064500Y-12195500D02*
X8157000Y-12103000D01*
X8064500Y-12010500D01*
X7972000Y-12103000D01*
X8064500Y-12195500D01*
X7972000Y-12480500D02*
X8157000Y-12665500D01*
X8157000Y-12480500D02*
X7972000Y-12665500D01*
X8064500Y-12665500D02*
X8157000Y-12573000D01*
X8064500Y-12480500D01*
X7972000Y-12573000D01*
X8064500Y-12665500D01*
X7972000Y-12950500D02*
X8157000Y-13135500D01*
X8157000Y-12950500D02*
X7972000Y-13135500D01*
X8064500Y-13135500D02*
X8157000Y-13043000D01*
X8064500Y-12950500D01*
X7972000Y-13043000D01*
X8064500Y-13135500D01*
X12810500Y-12010500D02*
X12995500Y-12195500D01*
X12995500Y-12010500D02*
X12810500Y-12195500D01*
X12903000Y-12195500D02*
X12995500Y-12103000D01*
X12903000Y-12010500D01*
X12810500Y-12103000D01*
X12903000Y-12195500D01*
X12810500Y-12480500D02*
X12995500Y-12665500D01*
X12995500Y-12480500D02*
X12810500Y-12665500D01*
X12903000Y-12665500D02*
X12995500Y-12573000D01*
X12903000Y-12480500D01*
X12810500Y-12573000D01*
X12903000Y-12665500D01*
X12810500Y-12950500D02*
X12995500Y-13135500D01*
X12995500Y-12950500D02*
X12810500Y-13135500D01*
X12903000Y-13135500D02*
X12995500Y-13043000D01*
X12903000Y-12950500D01*
X12810500Y-13043000D01*
X12903000Y-13135500D01*
X13293500Y-12010500D02*
X13478500Y-12195500D01*
X13478500Y-12010500D02*
X13293500Y-12195500D01*
X13386000Y-12195500D02*
X13478500Y-12103000D01*
X13386000Y-12010500D01*
X13293500Y-12103000D01*
X13386000Y-12195500D01*
X13293500Y-12480500D02*
X13478500Y-12665500D01*
X13478500Y-12480500D02*
X13293500Y-12665500D01*
X13386000Y-12665500D02*
X13478500Y-12573000D01*
X13386000Y-12480500D01*
X13293500Y-12573000D01*
X13386000Y-12665500D01*
X13293500Y-12950500D02*
X13478500Y-13135500D01*
X13478500Y-12950500D02*
X13293500Y-13135500D01*
X13386000Y-13135500D02*
X13478500Y-13043000D01*
X13386000Y-12950500D01*
X13293500Y-13043000D01*
X13386000Y-13135500D01*
D11*
X5036596Y-8036467D02*
X5036596Y-8236467D01*
X4936596Y-8136467D02*
X5136596Y-8136467D01*
X5136596Y-8136467D02*
G75*
G03*
X5136596Y-8136467I-100000J0D01*
G01*
X6167967Y-6905096D02*
X6167967Y-7105096D01*
X6067967Y-7005096D02*
X6267967Y-7005096D01*
X6267967Y-7005096D02*
G75*
G03*
X6267967Y-7005096I-100000J0D01*
G01*
X15196596Y-8036467D02*
X15196596Y-8236467D01*
X15096596Y-8136467D02*
X15296596Y-8136467D01*
X15296596Y-8136467D02*
G75*
G03*
X15296596Y-8136467I-100000J0D01*
G01*
X16327967Y-6905096D02*
X16327967Y-7105096D01*
X16227967Y-7005096D02*
X16427967Y-7005096D01*
X16427967Y-7005096D02*
G75*
G03*
X16427967Y-7005096I-100000J0D01*
G01*
X4255619Y-23045976D02*
X4255619Y-22845976D01*
X4303238Y-22845976D01*
X4331810Y-22855500D01*
X4350857Y-22874548D01*
X4360381Y-22893595D01*
X4369905Y-22931690D01*
X4369905Y-22960262D01*
X4360381Y-22998357D01*
X4350857Y-23017405D01*
X4331810Y-23036452D01*
X4303238Y-23045976D01*
X4255619Y-23045976D01*
X4455619Y-23045976D02*
X4455619Y-22912643D01*
X4455619Y-22950738D02*
X4465143Y-22931690D01*
X4474667Y-22922167D01*
X4493714Y-22912643D01*
X4512762Y-22912643D01*
X4579429Y-23045976D02*
X4579429Y-22912643D01*
X4579429Y-22845976D02*
X4569905Y-22855500D01*
X4579429Y-22865024D01*
X4588952Y-22855500D01*
X4579429Y-22845976D01*
X4579429Y-22865024D01*
X4703238Y-23045976D02*
X4684190Y-23036452D01*
X4674667Y-23017405D01*
X4674667Y-22845976D01*
X4808000Y-23045976D02*
X4788952Y-23036452D01*
X4779429Y-23017405D01*
X4779429Y-22845976D01*
X5036571Y-23045976D02*
X5036571Y-22845976D01*
X5103238Y-22988833D01*
X5169905Y-22845976D01*
X5169905Y-23045976D01*
X5350857Y-23045976D02*
X5350857Y-22941214D01*
X5341333Y-22922167D01*
X5322286Y-22912643D01*
X5284190Y-22912643D01*
X5265143Y-22922167D01*
X5350857Y-23036452D02*
X5331810Y-23045976D01*
X5284190Y-23045976D01*
X5265143Y-23036452D01*
X5255619Y-23017405D01*
X5255619Y-22998357D01*
X5265143Y-22979309D01*
X5284190Y-22969786D01*
X5331810Y-22969786D01*
X5350857Y-22960262D01*
X5446095Y-22912643D02*
X5446095Y-23112643D01*
X5446095Y-22922167D02*
X5465143Y-22912643D01*
X5503238Y-22912643D01*
X5522286Y-22922167D01*
X5531810Y-22931690D01*
X5541333Y-22950738D01*
X5541333Y-23007881D01*
X5531810Y-23026928D01*
X5522286Y-23036452D01*
X5503238Y-23045976D01*
X5465143Y-23045976D01*
X5446095Y-23036452D01*
X5627048Y-23026928D02*
X5636571Y-23036452D01*
X5627048Y-23045976D01*
X5617524Y-23036452D01*
X5627048Y-23026928D01*
X5627048Y-23045976D01*
X5627048Y-22922167D02*
X5636571Y-22931690D01*
X5627048Y-22941214D01*
X5617524Y-22931690D01*
X5627048Y-22922167D01*
X5627048Y-22941214D01*
D12*
X3958000Y-23355500D02*
X3998000Y-23395500D01*
X3998000Y-23355500D02*
X3958000Y-23395500D01*
D11*
X4293714Y-23265976D02*
X4312762Y-23265976D01*
X4331810Y-23275500D01*
X4341333Y-23285024D01*
X4350857Y-23304071D01*
X4360381Y-23342167D01*
X4360381Y-23389786D01*
X4350857Y-23427881D01*
X4341333Y-23446928D01*
X4331810Y-23456452D01*
X4312762Y-23465976D01*
X4293714Y-23465976D01*
X4274667Y-23456452D01*
X4265143Y-23446928D01*
X4255619Y-23427881D01*
X4246095Y-23389786D01*
X4246095Y-23342167D01*
X4255619Y-23304071D01*
X4265143Y-23285024D01*
X4274667Y-23275500D01*
X4293714Y-23265976D01*
X4446095Y-23446928D02*
X4455619Y-23456452D01*
X4446095Y-23465976D01*
X4436571Y-23456452D01*
X4446095Y-23446928D01*
X4446095Y-23465976D01*
X4627048Y-23332643D02*
X4627048Y-23465976D01*
X4579429Y-23256452D02*
X4531810Y-23399309D01*
X4655619Y-23399309D01*
X4769905Y-23265976D02*
X4788952Y-23265976D01*
X4808000Y-23275500D01*
X4817524Y-23285024D01*
X4827048Y-23304071D01*
X4836571Y-23342167D01*
X4836571Y-23389786D01*
X4827048Y-23427881D01*
X4817524Y-23446928D01*
X4808000Y-23456452D01*
X4788952Y-23465976D01*
X4769905Y-23465976D01*
X4750857Y-23456452D01*
X4741333Y-23446928D01*
X4731810Y-23427881D01*
X4722286Y-23389786D01*
X4722286Y-23342167D01*
X4731810Y-23304071D01*
X4741333Y-23285024D01*
X4750857Y-23275500D01*
X4769905Y-23265976D01*
X4960381Y-23265976D02*
X4979429Y-23265976D01*
X4998476Y-23275500D01*
X5008000Y-23285024D01*
X5017524Y-23304071D01*
X5027048Y-23342167D01*
X5027048Y-23389786D01*
X5017524Y-23427881D01*
X5008000Y-23446928D01*
X4998476Y-23456452D01*
X4979429Y-23465976D01*
X4960381Y-23465976D01*
X4941333Y-23456452D01*
X4931810Y-23446928D01*
X4922286Y-23427881D01*
X4912762Y-23389786D01*
X4912762Y-23342167D01*
X4922286Y-23304071D01*
X4931810Y-23285024D01*
X4941333Y-23275500D01*
X4960381Y-23265976D01*
X5112762Y-23465976D02*
X5112762Y-23332643D01*
X5112762Y-23351690D02*
X5122286Y-23342167D01*
X5141333Y-23332643D01*
X5169905Y-23332643D01*
X5188952Y-23342167D01*
X5198476Y-23361214D01*
X5198476Y-23465976D01*
X5198476Y-23361214D02*
X5208000Y-23342167D01*
X5227048Y-23332643D01*
X5255619Y-23332643D01*
X5274667Y-23342167D01*
X5284190Y-23361214D01*
X5284190Y-23465976D01*
X5379429Y-23465976D02*
X5379429Y-23332643D01*
X5379429Y-23351690D02*
X5388952Y-23342167D01*
X5408000Y-23332643D01*
X5436571Y-23332643D01*
X5455619Y-23342167D01*
X5465143Y-23361214D01*
X5465143Y-23465976D01*
X5465143Y-23361214D02*
X5474667Y-23342167D01*
X5493714Y-23332643D01*
X5522286Y-23332643D01*
X5541333Y-23342167D01*
X5550857Y-23361214D01*
X5550857Y-23465976D01*
X5941333Y-23256452D02*
X5769905Y-23513595D01*
X6198476Y-23265976D02*
X6217524Y-23265976D01*
X6236571Y-23275500D01*
X6246095Y-23285024D01*
X6255619Y-23304071D01*
X6265143Y-23342167D01*
X6265143Y-23389786D01*
X6255619Y-23427881D01*
X6246095Y-23446928D01*
X6236571Y-23456452D01*
X6217524Y-23465976D01*
X6198476Y-23465976D01*
X6179428Y-23456452D01*
X6169905Y-23446928D01*
X6160381Y-23427881D01*
X6150857Y-23389786D01*
X6150857Y-23342167D01*
X6160381Y-23304071D01*
X6169905Y-23285024D01*
X6179428Y-23275500D01*
X6198476Y-23265976D01*
X6350857Y-23446928D02*
X6360381Y-23456452D01*
X6350857Y-23465976D01*
X6341333Y-23456452D01*
X6350857Y-23446928D01*
X6350857Y-23465976D01*
X6484190Y-23265976D02*
X6503238Y-23265976D01*
X6522286Y-23275500D01*
X6531809Y-23285024D01*
X6541333Y-23304071D01*
X6550857Y-23342167D01*
X6550857Y-23389786D01*
X6541333Y-23427881D01*
X6531809Y-23446928D01*
X6522286Y-23456452D01*
X6503238Y-23465976D01*
X6484190Y-23465976D01*
X6465143Y-23456452D01*
X6455619Y-23446928D01*
X6446095Y-23427881D01*
X6436571Y-23389786D01*
X6436571Y-23342167D01*
X6446095Y-23304071D01*
X6455619Y-23285024D01*
X6465143Y-23275500D01*
X6484190Y-23265976D01*
X6741333Y-23465976D02*
X6627048Y-23465976D01*
X6684190Y-23465976D02*
X6684190Y-23265976D01*
X6665143Y-23294548D01*
X6646095Y-23313595D01*
X6627048Y-23323119D01*
X6922286Y-23265976D02*
X6827048Y-23265976D01*
X6817524Y-23361214D01*
X6827048Y-23351690D01*
X6846095Y-23342167D01*
X6893714Y-23342167D01*
X6912762Y-23351690D01*
X6922286Y-23361214D01*
X6931809Y-23380262D01*
X6931809Y-23427881D01*
X6922286Y-23446928D01*
X6912762Y-23456452D01*
X6893714Y-23465976D01*
X6846095Y-23465976D01*
X6827048Y-23456452D01*
X6817524Y-23446928D01*
X6998476Y-23265976D02*
X7131809Y-23265976D01*
X7046095Y-23465976D01*
X7198476Y-23265976D02*
X7198476Y-23304071D01*
X7274667Y-23265976D02*
X7274667Y-23304071D01*
X7569905Y-23542167D02*
X7560381Y-23532643D01*
X7541333Y-23504071D01*
X7531809Y-23485024D01*
X7522286Y-23456452D01*
X7512762Y-23408833D01*
X7512762Y-23370738D01*
X7522286Y-23323119D01*
X7531809Y-23294548D01*
X7541333Y-23275500D01*
X7560381Y-23246928D01*
X7569905Y-23237405D01*
X7636571Y-23285024D02*
X7646095Y-23275500D01*
X7665143Y-23265976D01*
X7712762Y-23265976D01*
X7731809Y-23275500D01*
X7741333Y-23285024D01*
X7750857Y-23304071D01*
X7750857Y-23323119D01*
X7741333Y-23351690D01*
X7627048Y-23465976D01*
X7750857Y-23465976D01*
X7988952Y-23465976D02*
X7988952Y-23265976D01*
X8074667Y-23465976D02*
X8074667Y-23361214D01*
X8065143Y-23342167D01*
X8046095Y-23332643D01*
X8017524Y-23332643D01*
X7998476Y-23342167D01*
X7988952Y-23351690D01*
X8198476Y-23465976D02*
X8179428Y-23456452D01*
X8169905Y-23446928D01*
X8160381Y-23427881D01*
X8160381Y-23370738D01*
X8169905Y-23351690D01*
X8179428Y-23342167D01*
X8198476Y-23332643D01*
X8227048Y-23332643D01*
X8246095Y-23342167D01*
X8255619Y-23351690D01*
X8265143Y-23370738D01*
X8265143Y-23427881D01*
X8255619Y-23446928D01*
X8246095Y-23456452D01*
X8227048Y-23465976D01*
X8198476Y-23465976D01*
X8379428Y-23465976D02*
X8360381Y-23456452D01*
X8350857Y-23437405D01*
X8350857Y-23265976D01*
X8531810Y-23456452D02*
X8512762Y-23465976D01*
X8474667Y-23465976D01*
X8455619Y-23456452D01*
X8446095Y-23437405D01*
X8446095Y-23361214D01*
X8455619Y-23342167D01*
X8474667Y-23332643D01*
X8512762Y-23332643D01*
X8531810Y-23342167D01*
X8541333Y-23361214D01*
X8541333Y-23380262D01*
X8446095Y-23399309D01*
X8617524Y-23456452D02*
X8636571Y-23465976D01*
X8674667Y-23465976D01*
X8693714Y-23456452D01*
X8703238Y-23437405D01*
X8703238Y-23427881D01*
X8693714Y-23408833D01*
X8674667Y-23399309D01*
X8646095Y-23399309D01*
X8627048Y-23389786D01*
X8617524Y-23370738D01*
X8617524Y-23361214D01*
X8627048Y-23342167D01*
X8646095Y-23332643D01*
X8674667Y-23332643D01*
X8693714Y-23342167D01*
X8769905Y-23542167D02*
X8779429Y-23532643D01*
X8798476Y-23504071D01*
X8808000Y-23485024D01*
X8817524Y-23456452D01*
X8827048Y-23408833D01*
X8827048Y-23370738D01*
X8817524Y-23323119D01*
X8808000Y-23294548D01*
X8798476Y-23275500D01*
X8779429Y-23246928D01*
X8769905Y-23237405D01*
D13*
X3998000Y-23639500D02*
G75*
G03*
X3998000Y-23639500I-25000J0D01*
G01*
D11*
X4293714Y-23529976D02*
X4312762Y-23529976D01*
X4331810Y-23539500D01*
X4341333Y-23549024D01*
X4350857Y-23568071D01*
X4360381Y-23606167D01*
X4360381Y-23653786D01*
X4350857Y-23691881D01*
X4341333Y-23710928D01*
X4331810Y-23720452D01*
X4312762Y-23729976D01*
X4293714Y-23729976D01*
X4274667Y-23720452D01*
X4265143Y-23710928D01*
X4255619Y-23691881D01*
X4246095Y-23653786D01*
X4246095Y-23606167D01*
X4255619Y-23568071D01*
X4265143Y-23549024D01*
X4274667Y-23539500D01*
X4293714Y-23529976D01*
X4446095Y-23710928D02*
X4455619Y-23720452D01*
X4446095Y-23729976D01*
X4436571Y-23720452D01*
X4446095Y-23710928D01*
X4446095Y-23729976D01*
X4636571Y-23529976D02*
X4541333Y-23529976D01*
X4531810Y-23625214D01*
X4541333Y-23615690D01*
X4560381Y-23606167D01*
X4608000Y-23606167D01*
X4627048Y-23615690D01*
X4636571Y-23625214D01*
X4646095Y-23644262D01*
X4646095Y-23691881D01*
X4636571Y-23710928D01*
X4627048Y-23720452D01*
X4608000Y-23729976D01*
X4560381Y-23729976D01*
X4541333Y-23720452D01*
X4531810Y-23710928D01*
X4769905Y-23529976D02*
X4788952Y-23529976D01*
X4808000Y-23539500D01*
X4817524Y-23549024D01*
X4827048Y-23568071D01*
X4836571Y-23606167D01*
X4836571Y-23653786D01*
X4827048Y-23691881D01*
X4817524Y-23710928D01*
X4808000Y-23720452D01*
X4788952Y-23729976D01*
X4769905Y-23729976D01*
X4750857Y-23720452D01*
X4741333Y-23710928D01*
X4731810Y-23691881D01*
X4722286Y-23653786D01*
X4722286Y-23606167D01*
X4731810Y-23568071D01*
X4741333Y-23549024D01*
X4750857Y-23539500D01*
X4769905Y-23529976D01*
X4960381Y-23529976D02*
X4979429Y-23529976D01*
X4998476Y-23539500D01*
X5008000Y-23549024D01*
X5017524Y-23568071D01*
X5027048Y-23606167D01*
X5027048Y-23653786D01*
X5017524Y-23691881D01*
X5008000Y-23710928D01*
X4998476Y-23720452D01*
X4979429Y-23729976D01*
X4960381Y-23729976D01*
X4941333Y-23720452D01*
X4931810Y-23710928D01*
X4922286Y-23691881D01*
X4912762Y-23653786D01*
X4912762Y-23606167D01*
X4922286Y-23568071D01*
X4931810Y-23549024D01*
X4941333Y-23539500D01*
X4960381Y-23529976D01*
X5112762Y-23729976D02*
X5112762Y-23596643D01*
X5112762Y-23615690D02*
X5122286Y-23606167D01*
X5141333Y-23596643D01*
X5169905Y-23596643D01*
X5188952Y-23606167D01*
X5198476Y-23625214D01*
X5198476Y-23729976D01*
X5198476Y-23625214D02*
X5208000Y-23606167D01*
X5227048Y-23596643D01*
X5255619Y-23596643D01*
X5274667Y-23606167D01*
X5284190Y-23625214D01*
X5284190Y-23729976D01*
X5379429Y-23729976D02*
X5379429Y-23596643D01*
X5379429Y-23615690D02*
X5388952Y-23606167D01*
X5408000Y-23596643D01*
X5436571Y-23596643D01*
X5455619Y-23606167D01*
X5465143Y-23625214D01*
X5465143Y-23729976D01*
X5465143Y-23625214D02*
X5474667Y-23606167D01*
X5493714Y-23596643D01*
X5522286Y-23596643D01*
X5541333Y-23606167D01*
X5550857Y-23625214D01*
X5550857Y-23729976D01*
X5941333Y-23520452D02*
X5769905Y-23777595D01*
X6198476Y-23529976D02*
X6217524Y-23529976D01*
X6236571Y-23539500D01*
X6246095Y-23549024D01*
X6255619Y-23568071D01*
X6265143Y-23606167D01*
X6265143Y-23653786D01*
X6255619Y-23691881D01*
X6246095Y-23710928D01*
X6236571Y-23720452D01*
X6217524Y-23729976D01*
X6198476Y-23729976D01*
X6179428Y-23720452D01*
X6169905Y-23710928D01*
X6160381Y-23691881D01*
X6150857Y-23653786D01*
X6150857Y-23606167D01*
X6160381Y-23568071D01*
X6169905Y-23549024D01*
X6179428Y-23539500D01*
X6198476Y-23529976D01*
X6350857Y-23710928D02*
X6360381Y-23720452D01*
X6350857Y-23729976D01*
X6341333Y-23720452D01*
X6350857Y-23710928D01*
X6350857Y-23729976D01*
X6484190Y-23529976D02*
X6503238Y-23529976D01*
X6522286Y-23539500D01*
X6531809Y-23549024D01*
X6541333Y-23568071D01*
X6550857Y-23606167D01*
X6550857Y-23653786D01*
X6541333Y-23691881D01*
X6531809Y-23710928D01*
X6522286Y-23720452D01*
X6503238Y-23729976D01*
X6484190Y-23729976D01*
X6465143Y-23720452D01*
X6455619Y-23710928D01*
X6446095Y-23691881D01*
X6436571Y-23653786D01*
X6436571Y-23606167D01*
X6446095Y-23568071D01*
X6455619Y-23549024D01*
X6465143Y-23539500D01*
X6484190Y-23529976D01*
X6741333Y-23729976D02*
X6627048Y-23729976D01*
X6684190Y-23729976D02*
X6684190Y-23529976D01*
X6665143Y-23558548D01*
X6646095Y-23577595D01*
X6627048Y-23587119D01*
X6836571Y-23729976D02*
X6874667Y-23729976D01*
X6893714Y-23720452D01*
X6903238Y-23710928D01*
X6922286Y-23682357D01*
X6931809Y-23644262D01*
X6931809Y-23568071D01*
X6922286Y-23549024D01*
X6912762Y-23539500D01*
X6893714Y-23529976D01*
X6855619Y-23529976D01*
X6836571Y-23539500D01*
X6827048Y-23549024D01*
X6817524Y-23568071D01*
X6817524Y-23615690D01*
X6827048Y-23634738D01*
X6836571Y-23644262D01*
X6855619Y-23653786D01*
X6893714Y-23653786D01*
X6912762Y-23644262D01*
X6922286Y-23634738D01*
X6931809Y-23615690D01*
X6998476Y-23529976D02*
X7131809Y-23529976D01*
X7046095Y-23729976D01*
X7198476Y-23529976D02*
X7198476Y-23568071D01*
X7274667Y-23529976D02*
X7274667Y-23568071D01*
X7569905Y-23806167D02*
X7560381Y-23796643D01*
X7541333Y-23768071D01*
X7531809Y-23749024D01*
X7522286Y-23720452D01*
X7512762Y-23672833D01*
X7512762Y-23634738D01*
X7522286Y-23587119D01*
X7531809Y-23558548D01*
X7541333Y-23539500D01*
X7560381Y-23510928D01*
X7569905Y-23501405D01*
X7750857Y-23729976D02*
X7636571Y-23729976D01*
X7693714Y-23729976D02*
X7693714Y-23529976D01*
X7674667Y-23558548D01*
X7655619Y-23577595D01*
X7636571Y-23587119D01*
X7827048Y-23549024D02*
X7836571Y-23539500D01*
X7855619Y-23529976D01*
X7903238Y-23529976D01*
X7922286Y-23539500D01*
X7931809Y-23549024D01*
X7941333Y-23568071D01*
X7941333Y-23587119D01*
X7931809Y-23615690D01*
X7817524Y-23729976D01*
X7941333Y-23729976D01*
X8122286Y-23529976D02*
X8027048Y-23529976D01*
X8017524Y-23625214D01*
X8027048Y-23615690D01*
X8046095Y-23606167D01*
X8093714Y-23606167D01*
X8112762Y-23615690D01*
X8122286Y-23625214D01*
X8131809Y-23644262D01*
X8131809Y-23691881D01*
X8122286Y-23710928D01*
X8112762Y-23720452D01*
X8093714Y-23729976D01*
X8046095Y-23729976D01*
X8027048Y-23720452D01*
X8017524Y-23710928D01*
X8369905Y-23729976D02*
X8369905Y-23529976D01*
X8455619Y-23729976D02*
X8455619Y-23625214D01*
X8446095Y-23606167D01*
X8427048Y-23596643D01*
X8398476Y-23596643D01*
X8379428Y-23606167D01*
X8369905Y-23615690D01*
X8579429Y-23729976D02*
X8560381Y-23720452D01*
X8550857Y-23710928D01*
X8541333Y-23691881D01*
X8541333Y-23634738D01*
X8550857Y-23615690D01*
X8560381Y-23606167D01*
X8579429Y-23596643D01*
X8608000Y-23596643D01*
X8627048Y-23606167D01*
X8636571Y-23615690D01*
X8646095Y-23634738D01*
X8646095Y-23691881D01*
X8636571Y-23710928D01*
X8627048Y-23720452D01*
X8608000Y-23729976D01*
X8579429Y-23729976D01*
X8760381Y-23729976D02*
X8741333Y-23720452D01*
X8731810Y-23701405D01*
X8731810Y-23529976D01*
X8912762Y-23720452D02*
X8893714Y-23729976D01*
X8855619Y-23729976D01*
X8836571Y-23720452D01*
X8827048Y-23701405D01*
X8827048Y-23625214D01*
X8836571Y-23606167D01*
X8855619Y-23596643D01*
X8893714Y-23596643D01*
X8912762Y-23606167D01*
X8922286Y-23625214D01*
X8922286Y-23644262D01*
X8827048Y-23663309D01*
X8998476Y-23720452D02*
X9017524Y-23729976D01*
X9055619Y-23729976D01*
X9074667Y-23720452D01*
X9084190Y-23701405D01*
X9084190Y-23691881D01*
X9074667Y-23672833D01*
X9055619Y-23663309D01*
X9027048Y-23663309D01*
X9008000Y-23653786D01*
X8998476Y-23634738D01*
X8998476Y-23625214D01*
X9008000Y-23606167D01*
X9027048Y-23596643D01*
X9055619Y-23596643D01*
X9074667Y-23606167D01*
X9150857Y-23806167D02*
X9160381Y-23796643D01*
X9179429Y-23768071D01*
X9188952Y-23749024D01*
X9198476Y-23720452D01*
X9208000Y-23672833D01*
X9208000Y-23634738D01*
X9198476Y-23587119D01*
X9188952Y-23558548D01*
X9179429Y-23539500D01*
X9160381Y-23510928D01*
X9150857Y-23501405D01*
D14*
X3958000Y-23863500D02*
X3958000Y-23943500D01*
X3918000Y-23903500D02*
X3998000Y-23903500D01*
D11*
X4293714Y-23793976D02*
X4312762Y-23793976D01*
X4331810Y-23803500D01*
X4341333Y-23813024D01*
X4350857Y-23832071D01*
X4360381Y-23870167D01*
X4360381Y-23917786D01*
X4350857Y-23955881D01*
X4341333Y-23974928D01*
X4331810Y-23984452D01*
X4312762Y-23993976D01*
X4293714Y-23993976D01*
X4274667Y-23984452D01*
X4265143Y-23974928D01*
X4255619Y-23955881D01*
X4246095Y-23917786D01*
X4246095Y-23870167D01*
X4255619Y-23832071D01*
X4265143Y-23813024D01*
X4274667Y-23803500D01*
X4293714Y-23793976D01*
X4446095Y-23974928D02*
X4455619Y-23984452D01*
X4446095Y-23993976D01*
X4436571Y-23984452D01*
X4446095Y-23974928D01*
X4446095Y-23993976D01*
X4569905Y-23879690D02*
X4550857Y-23870167D01*
X4541333Y-23860643D01*
X4531810Y-23841595D01*
X4531810Y-23832071D01*
X4541333Y-23813024D01*
X4550857Y-23803500D01*
X4569905Y-23793976D01*
X4608000Y-23793976D01*
X4627048Y-23803500D01*
X4636571Y-23813024D01*
X4646095Y-23832071D01*
X4646095Y-23841595D01*
X4636571Y-23860643D01*
X4627048Y-23870167D01*
X4608000Y-23879690D01*
X4569905Y-23879690D01*
X4550857Y-23889214D01*
X4541333Y-23898738D01*
X4531810Y-23917786D01*
X4531810Y-23955881D01*
X4541333Y-23974928D01*
X4550857Y-23984452D01*
X4569905Y-23993976D01*
X4608000Y-23993976D01*
X4627048Y-23984452D01*
X4636571Y-23974928D01*
X4646095Y-23955881D01*
X4646095Y-23917786D01*
X4636571Y-23898738D01*
X4627048Y-23889214D01*
X4608000Y-23879690D01*
X4769905Y-23793976D02*
X4788952Y-23793976D01*
X4808000Y-23803500D01*
X4817524Y-23813024D01*
X4827048Y-23832071D01*
X4836571Y-23870167D01*
X4836571Y-23917786D01*
X4827048Y-23955881D01*
X4817524Y-23974928D01*
X4808000Y-23984452D01*
X4788952Y-23993976D01*
X4769905Y-23993976D01*
X4750857Y-23984452D01*
X4741333Y-23974928D01*
X4731810Y-23955881D01*
X4722286Y-23917786D01*
X4722286Y-23870167D01*
X4731810Y-23832071D01*
X4741333Y-23813024D01*
X4750857Y-23803500D01*
X4769905Y-23793976D01*
X4960381Y-23793976D02*
X4979429Y-23793976D01*
X4998476Y-23803500D01*
X5008000Y-23813024D01*
X5017524Y-23832071D01*
X5027048Y-23870167D01*
X5027048Y-23917786D01*
X5017524Y-23955881D01*
X5008000Y-23974928D01*
X4998476Y-23984452D01*
X4979429Y-23993976D01*
X4960381Y-23993976D01*
X4941333Y-23984452D01*
X4931810Y-23974928D01*
X4922286Y-23955881D01*
X4912762Y-23917786D01*
X4912762Y-23870167D01*
X4922286Y-23832071D01*
X4931810Y-23813024D01*
X4941333Y-23803500D01*
X4960381Y-23793976D01*
X5112762Y-23993976D02*
X5112762Y-23860643D01*
X5112762Y-23879690D02*
X5122286Y-23870167D01*
X5141333Y-23860643D01*
X5169905Y-23860643D01*
X5188952Y-23870167D01*
X5198476Y-23889214D01*
X5198476Y-23993976D01*
X5198476Y-23889214D02*
X5208000Y-23870167D01*
X5227048Y-23860643D01*
X5255619Y-23860643D01*
X5274667Y-23870167D01*
X5284190Y-23889214D01*
X5284190Y-23993976D01*
X5379429Y-23993976D02*
X5379429Y-23860643D01*
X5379429Y-23879690D02*
X5388952Y-23870167D01*
X5408000Y-23860643D01*
X5436571Y-23860643D01*
X5455619Y-23870167D01*
X5465143Y-23889214D01*
X5465143Y-23993976D01*
X5465143Y-23889214D02*
X5474667Y-23870167D01*
X5493714Y-23860643D01*
X5522286Y-23860643D01*
X5541333Y-23870167D01*
X5550857Y-23889214D01*
X5550857Y-23993976D01*
X5941333Y-23784452D02*
X5769905Y-24041595D01*
X6198476Y-23793976D02*
X6217524Y-23793976D01*
X6236571Y-23803500D01*
X6246095Y-23813024D01*
X6255619Y-23832071D01*
X6265143Y-23870167D01*
X6265143Y-23917786D01*
X6255619Y-23955881D01*
X6246095Y-23974928D01*
X6236571Y-23984452D01*
X6217524Y-23993976D01*
X6198476Y-23993976D01*
X6179428Y-23984452D01*
X6169905Y-23974928D01*
X6160381Y-23955881D01*
X6150857Y-23917786D01*
X6150857Y-23870167D01*
X6160381Y-23832071D01*
X6169905Y-23813024D01*
X6179428Y-23803500D01*
X6198476Y-23793976D01*
X6350857Y-23974928D02*
X6360381Y-23984452D01*
X6350857Y-23993976D01*
X6341333Y-23984452D01*
X6350857Y-23974928D01*
X6350857Y-23993976D01*
X6484190Y-23793976D02*
X6503238Y-23793976D01*
X6522286Y-23803500D01*
X6531809Y-23813024D01*
X6541333Y-23832071D01*
X6550857Y-23870167D01*
X6550857Y-23917786D01*
X6541333Y-23955881D01*
X6531809Y-23974928D01*
X6522286Y-23984452D01*
X6503238Y-23993976D01*
X6484190Y-23993976D01*
X6465143Y-23984452D01*
X6455619Y-23974928D01*
X6446095Y-23955881D01*
X6436571Y-23917786D01*
X6436571Y-23870167D01*
X6446095Y-23832071D01*
X6455619Y-23813024D01*
X6465143Y-23803500D01*
X6484190Y-23793976D01*
X6617524Y-23793976D02*
X6741333Y-23793976D01*
X6674667Y-23870167D01*
X6703238Y-23870167D01*
X6722286Y-23879690D01*
X6731809Y-23889214D01*
X6741333Y-23908262D01*
X6741333Y-23955881D01*
X6731809Y-23974928D01*
X6722286Y-23984452D01*
X6703238Y-23993976D01*
X6646095Y-23993976D01*
X6627048Y-23984452D01*
X6617524Y-23974928D01*
X6931809Y-23993976D02*
X6817524Y-23993976D01*
X6874667Y-23993976D02*
X6874667Y-23793976D01*
X6855619Y-23822548D01*
X6836571Y-23841595D01*
X6817524Y-23851119D01*
X7112762Y-23793976D02*
X7017524Y-23793976D01*
X7008000Y-23889214D01*
X7017524Y-23879690D01*
X7036571Y-23870167D01*
X7084190Y-23870167D01*
X7103238Y-23879690D01*
X7112762Y-23889214D01*
X7122286Y-23908262D01*
X7122286Y-23955881D01*
X7112762Y-23974928D01*
X7103238Y-23984452D01*
X7084190Y-23993976D01*
X7036571Y-23993976D01*
X7017524Y-23984452D01*
X7008000Y-23974928D01*
X7198476Y-23793976D02*
X7198476Y-23832071D01*
X7274667Y-23793976D02*
X7274667Y-23832071D01*
X7569905Y-24070167D02*
X7560381Y-24060643D01*
X7541333Y-24032071D01*
X7531809Y-24013024D01*
X7522286Y-23984452D01*
X7512762Y-23936833D01*
X7512762Y-23898738D01*
X7522286Y-23851119D01*
X7531809Y-23822548D01*
X7541333Y-23803500D01*
X7560381Y-23774928D01*
X7569905Y-23765405D01*
X7636571Y-23813024D02*
X7646095Y-23803500D01*
X7665143Y-23793976D01*
X7712762Y-23793976D01*
X7731809Y-23803500D01*
X7741333Y-23813024D01*
X7750857Y-23832071D01*
X7750857Y-23851119D01*
X7741333Y-23879690D01*
X7627048Y-23993976D01*
X7750857Y-23993976D01*
X7922286Y-23793976D02*
X7884190Y-23793976D01*
X7865143Y-23803500D01*
X7855619Y-23813024D01*
X7836571Y-23841595D01*
X7827048Y-23879690D01*
X7827048Y-23955881D01*
X7836571Y-23974928D01*
X7846095Y-23984452D01*
X7865143Y-23993976D01*
X7903238Y-23993976D01*
X7922286Y-23984452D01*
X7931809Y-23974928D01*
X7941333Y-23955881D01*
X7941333Y-23908262D01*
X7931809Y-23889214D01*
X7922286Y-23879690D01*
X7903238Y-23870167D01*
X7865143Y-23870167D01*
X7846095Y-23879690D01*
X7836571Y-23889214D01*
X7827048Y-23908262D01*
X8179428Y-23993976D02*
X8179428Y-23793976D01*
X8265143Y-23993976D02*
X8265143Y-23889214D01*
X8255619Y-23870167D01*
X8236571Y-23860643D01*
X8208000Y-23860643D01*
X8188952Y-23870167D01*
X8179428Y-23879690D01*
X8388952Y-23993976D02*
X8369905Y-23984452D01*
X8360381Y-23974928D01*
X8350857Y-23955881D01*
X8350857Y-23898738D01*
X8360381Y-23879690D01*
X8369905Y-23870167D01*
X8388952Y-23860643D01*
X8417524Y-23860643D01*
X8436571Y-23870167D01*
X8446095Y-23879690D01*
X8455619Y-23898738D01*
X8455619Y-23955881D01*
X8446095Y-23974928D01*
X8436571Y-23984452D01*
X8417524Y-23993976D01*
X8388952Y-23993976D01*
X8569905Y-23993976D02*
X8550857Y-23984452D01*
X8541333Y-23965405D01*
X8541333Y-23793976D01*
X8722286Y-23984452D02*
X8703238Y-23993976D01*
X8665143Y-23993976D01*
X8646095Y-23984452D01*
X8636571Y-23965405D01*
X8636571Y-23889214D01*
X8646095Y-23870167D01*
X8665143Y-23860643D01*
X8703238Y-23860643D01*
X8722286Y-23870167D01*
X8731810Y-23889214D01*
X8731810Y-23908262D01*
X8636571Y-23927309D01*
X8808000Y-23984452D02*
X8827048Y-23993976D01*
X8865143Y-23993976D01*
X8884190Y-23984452D01*
X8893714Y-23965405D01*
X8893714Y-23955881D01*
X8884190Y-23936833D01*
X8865143Y-23927309D01*
X8836571Y-23927309D01*
X8817524Y-23917786D01*
X8808000Y-23898738D01*
X8808000Y-23889214D01*
X8817524Y-23870167D01*
X8836571Y-23860643D01*
X8865143Y-23860643D01*
X8884190Y-23870167D01*
X8960381Y-24070167D02*
X8969905Y-24060643D01*
X8988952Y-24032071D01*
X8998476Y-24013024D01*
X9008000Y-23984452D01*
X9017524Y-23936833D01*
X9017524Y-23898738D01*
X9008000Y-23851119D01*
X8998476Y-23822548D01*
X8988952Y-23803500D01*
X8969905Y-23774928D01*
X8960381Y-23765405D01*
D15*
X3984820Y-24199320D02*
X3984820Y-24135680D01*
X3921180Y-24135680D01*
X3921180Y-24199320D01*
X3984820Y-24199320D01*
D11*
X4293714Y-24057976D02*
X4312762Y-24057976D01*
X4331810Y-24067500D01*
X4341333Y-24077024D01*
X4350857Y-24096071D01*
X4360381Y-24134167D01*
X4360381Y-24181786D01*
X4350857Y-24219881D01*
X4341333Y-24238928D01*
X4331810Y-24248452D01*
X4312762Y-24257976D01*
X4293714Y-24257976D01*
X4274667Y-24248452D01*
X4265143Y-24238928D01*
X4255619Y-24219881D01*
X4246095Y-24181786D01*
X4246095Y-24134167D01*
X4255619Y-24096071D01*
X4265143Y-24077024D01*
X4274667Y-24067500D01*
X4293714Y-24057976D01*
X4446095Y-24238928D02*
X4455619Y-24248452D01*
X4446095Y-24257976D01*
X4436571Y-24248452D01*
X4446095Y-24238928D01*
X4446095Y-24257976D01*
X4550857Y-24257976D02*
X4588952Y-24257976D01*
X4608000Y-24248452D01*
X4617524Y-24238928D01*
X4636571Y-24210357D01*
X4646095Y-24172262D01*
X4646095Y-24096071D01*
X4636571Y-24077024D01*
X4627048Y-24067500D01*
X4608000Y-24057976D01*
X4569905Y-24057976D01*
X4550857Y-24067500D01*
X4541333Y-24077024D01*
X4531810Y-24096071D01*
X4531810Y-24143690D01*
X4541333Y-24162738D01*
X4550857Y-24172262D01*
X4569905Y-24181786D01*
X4608000Y-24181786D01*
X4627048Y-24172262D01*
X4636571Y-24162738D01*
X4646095Y-24143690D01*
X4769905Y-24057976D02*
X4788952Y-24057976D01*
X4808000Y-24067500D01*
X4817524Y-24077024D01*
X4827048Y-24096071D01*
X4836571Y-24134167D01*
X4836571Y-24181786D01*
X4827048Y-24219881D01*
X4817524Y-24238928D01*
X4808000Y-24248452D01*
X4788952Y-24257976D01*
X4769905Y-24257976D01*
X4750857Y-24248452D01*
X4741333Y-24238928D01*
X4731810Y-24219881D01*
X4722286Y-24181786D01*
X4722286Y-24134167D01*
X4731810Y-24096071D01*
X4741333Y-24077024D01*
X4750857Y-24067500D01*
X4769905Y-24057976D01*
X4960381Y-24057976D02*
X4979429Y-24057976D01*
X4998476Y-24067500D01*
X5008000Y-24077024D01*
X5017524Y-24096071D01*
X5027048Y-24134167D01*
X5027048Y-24181786D01*
X5017524Y-24219881D01*
X5008000Y-24238928D01*
X4998476Y-24248452D01*
X4979429Y-24257976D01*
X4960381Y-24257976D01*
X4941333Y-24248452D01*
X4931810Y-24238928D01*
X4922286Y-24219881D01*
X4912762Y-24181786D01*
X4912762Y-24134167D01*
X4922286Y-24096071D01*
X4931810Y-24077024D01*
X4941333Y-24067500D01*
X4960381Y-24057976D01*
X5112762Y-24257976D02*
X5112762Y-24124643D01*
X5112762Y-24143690D02*
X5122286Y-24134167D01*
X5141333Y-24124643D01*
X5169905Y-24124643D01*
X5188952Y-24134167D01*
X5198476Y-24153214D01*
X5198476Y-24257976D01*
X5198476Y-24153214D02*
X5208000Y-24134167D01*
X5227048Y-24124643D01*
X5255619Y-24124643D01*
X5274667Y-24134167D01*
X5284190Y-24153214D01*
X5284190Y-24257976D01*
X5379429Y-24257976D02*
X5379429Y-24124643D01*
X5379429Y-24143690D02*
X5388952Y-24134167D01*
X5408000Y-24124643D01*
X5436571Y-24124643D01*
X5455619Y-24134167D01*
X5465143Y-24153214D01*
X5465143Y-24257976D01*
X5465143Y-24153214D02*
X5474667Y-24134167D01*
X5493714Y-24124643D01*
X5522286Y-24124643D01*
X5541333Y-24134167D01*
X5550857Y-24153214D01*
X5550857Y-24257976D01*
X5941333Y-24048452D02*
X5769905Y-24305595D01*
X6198476Y-24057976D02*
X6217524Y-24057976D01*
X6236571Y-24067500D01*
X6246095Y-24077024D01*
X6255619Y-24096071D01*
X6265143Y-24134167D01*
X6265143Y-24181786D01*
X6255619Y-24219881D01*
X6246095Y-24238928D01*
X6236571Y-24248452D01*
X6217524Y-24257976D01*
X6198476Y-24257976D01*
X6179428Y-24248452D01*
X6169905Y-24238928D01*
X6160381Y-24219881D01*
X6150857Y-24181786D01*
X6150857Y-24134167D01*
X6160381Y-24096071D01*
X6169905Y-24077024D01*
X6179428Y-24067500D01*
X6198476Y-24057976D01*
X6350857Y-24238928D02*
X6360381Y-24248452D01*
X6350857Y-24257976D01*
X6341333Y-24248452D01*
X6350857Y-24238928D01*
X6350857Y-24257976D01*
X6484190Y-24057976D02*
X6503238Y-24057976D01*
X6522286Y-24067500D01*
X6531809Y-24077024D01*
X6541333Y-24096071D01*
X6550857Y-24134167D01*
X6550857Y-24181786D01*
X6541333Y-24219881D01*
X6531809Y-24238928D01*
X6522286Y-24248452D01*
X6503238Y-24257976D01*
X6484190Y-24257976D01*
X6465143Y-24248452D01*
X6455619Y-24238928D01*
X6446095Y-24219881D01*
X6436571Y-24181786D01*
X6436571Y-24134167D01*
X6446095Y-24096071D01*
X6455619Y-24077024D01*
X6465143Y-24067500D01*
X6484190Y-24057976D01*
X6617524Y-24057976D02*
X6741333Y-24057976D01*
X6674667Y-24134167D01*
X6703238Y-24134167D01*
X6722286Y-24143690D01*
X6731809Y-24153214D01*
X6741333Y-24172262D01*
X6741333Y-24219881D01*
X6731809Y-24238928D01*
X6722286Y-24248452D01*
X6703238Y-24257976D01*
X6646095Y-24257976D01*
X6627048Y-24248452D01*
X6617524Y-24238928D01*
X6922286Y-24057976D02*
X6827048Y-24057976D01*
X6817524Y-24153214D01*
X6827048Y-24143690D01*
X6846095Y-24134167D01*
X6893714Y-24134167D01*
X6912762Y-24143690D01*
X6922286Y-24153214D01*
X6931809Y-24172262D01*
X6931809Y-24219881D01*
X6922286Y-24238928D01*
X6912762Y-24248452D01*
X6893714Y-24257976D01*
X6846095Y-24257976D01*
X6827048Y-24248452D01*
X6817524Y-24238928D01*
X7103238Y-24124643D02*
X7103238Y-24257976D01*
X7055619Y-24048452D02*
X7008000Y-24191309D01*
X7131809Y-24191309D01*
X7198476Y-24057976D02*
X7198476Y-24096071D01*
X7274667Y-24057976D02*
X7274667Y-24096071D01*
X7569905Y-24334167D02*
X7560381Y-24324643D01*
X7541333Y-24296071D01*
X7531809Y-24277024D01*
X7522286Y-24248452D01*
X7512762Y-24200833D01*
X7512762Y-24162738D01*
X7522286Y-24115119D01*
X7531809Y-24086548D01*
X7541333Y-24067500D01*
X7560381Y-24038928D01*
X7569905Y-24029405D01*
X7636571Y-24077024D02*
X7646095Y-24067500D01*
X7665143Y-24057976D01*
X7712762Y-24057976D01*
X7731809Y-24067500D01*
X7741333Y-24077024D01*
X7750857Y-24096071D01*
X7750857Y-24115119D01*
X7741333Y-24143690D01*
X7627048Y-24257976D01*
X7750857Y-24257976D01*
X7874667Y-24057976D02*
X7893714Y-24057976D01*
X7912762Y-24067500D01*
X7922286Y-24077024D01*
X7931809Y-24096071D01*
X7941333Y-24134167D01*
X7941333Y-24181786D01*
X7931809Y-24219881D01*
X7922286Y-24238928D01*
X7912762Y-24248452D01*
X7893714Y-24257976D01*
X7874667Y-24257976D01*
X7855619Y-24248452D01*
X7846095Y-24238928D01*
X7836571Y-24219881D01*
X7827048Y-24181786D01*
X7827048Y-24134167D01*
X7836571Y-24096071D01*
X7846095Y-24077024D01*
X7855619Y-24067500D01*
X7874667Y-24057976D01*
X8179428Y-24257976D02*
X8179428Y-24057976D01*
X8265143Y-24257976D02*
X8265143Y-24153214D01*
X8255619Y-24134167D01*
X8236571Y-24124643D01*
X8208000Y-24124643D01*
X8188952Y-24134167D01*
X8179428Y-24143690D01*
X8388952Y-24257976D02*
X8369905Y-24248452D01*
X8360381Y-24238928D01*
X8350857Y-24219881D01*
X8350857Y-24162738D01*
X8360381Y-24143690D01*
X8369905Y-24134167D01*
X8388952Y-24124643D01*
X8417524Y-24124643D01*
X8436571Y-24134167D01*
X8446095Y-24143690D01*
X8455619Y-24162738D01*
X8455619Y-24219881D01*
X8446095Y-24238928D01*
X8436571Y-24248452D01*
X8417524Y-24257976D01*
X8388952Y-24257976D01*
X8569905Y-24257976D02*
X8550857Y-24248452D01*
X8541333Y-24229405D01*
X8541333Y-24057976D01*
X8722286Y-24248452D02*
X8703238Y-24257976D01*
X8665143Y-24257976D01*
X8646095Y-24248452D01*
X8636571Y-24229405D01*
X8636571Y-24153214D01*
X8646095Y-24134167D01*
X8665143Y-24124643D01*
X8703238Y-24124643D01*
X8722286Y-24134167D01*
X8731810Y-24153214D01*
X8731810Y-24172262D01*
X8636571Y-24191309D01*
X8808000Y-24248452D02*
X8827048Y-24257976D01*
X8865143Y-24257976D01*
X8884190Y-24248452D01*
X8893714Y-24229405D01*
X8893714Y-24219881D01*
X8884190Y-24200833D01*
X8865143Y-24191309D01*
X8836571Y-24191309D01*
X8817524Y-24181786D01*
X8808000Y-24162738D01*
X8808000Y-24153214D01*
X8817524Y-24134167D01*
X8836571Y-24124643D01*
X8865143Y-24124643D01*
X8884190Y-24134167D01*
X8960381Y-24334167D02*
X8969905Y-24324643D01*
X8988952Y-24296071D01*
X8998476Y-24277024D01*
X9008000Y-24248452D01*
X9017524Y-24200833D01*
X9017524Y-24162738D01*
X9008000Y-24115119D01*
X8998476Y-24086548D01*
X8988952Y-24067500D01*
X8969905Y-24038928D01*
X8960381Y-24029405D01*
D16*
X3948000Y-24481500D02*
X3998000Y-24431500D01*
X3948000Y-24381500D01*
X3898000Y-24431500D01*
X3948000Y-24481500D01*
D11*
X4360381Y-24521976D02*
X4246095Y-24521976D01*
X4303238Y-24521976D02*
X4303238Y-24321976D01*
X4284190Y-24350548D01*
X4265143Y-24369595D01*
X4246095Y-24379119D01*
X4446095Y-24502928D02*
X4455619Y-24512452D01*
X4446095Y-24521976D01*
X4436571Y-24512452D01*
X4446095Y-24502928D01*
X4446095Y-24521976D01*
X4579429Y-24321976D02*
X4598476Y-24321976D01*
X4617524Y-24331500D01*
X4627048Y-24341024D01*
X4636571Y-24360071D01*
X4646095Y-24398167D01*
X4646095Y-24445786D01*
X4636571Y-24483881D01*
X4627048Y-24502928D01*
X4617524Y-24512452D01*
X4598476Y-24521976D01*
X4579429Y-24521976D01*
X4560381Y-24512452D01*
X4550857Y-24502928D01*
X4541333Y-24483881D01*
X4531810Y-24445786D01*
X4531810Y-24398167D01*
X4541333Y-24360071D01*
X4550857Y-24341024D01*
X4560381Y-24331500D01*
X4579429Y-24321976D01*
X4769905Y-24321976D02*
X4788952Y-24321976D01*
X4808000Y-24331500D01*
X4817524Y-24341024D01*
X4827048Y-24360071D01*
X4836571Y-24398167D01*
X4836571Y-24445786D01*
X4827048Y-24483881D01*
X4817524Y-24502928D01*
X4808000Y-24512452D01*
X4788952Y-24521976D01*
X4769905Y-24521976D01*
X4750857Y-24512452D01*
X4741333Y-24502928D01*
X4731810Y-24483881D01*
X4722286Y-24445786D01*
X4722286Y-24398167D01*
X4731810Y-24360071D01*
X4741333Y-24341024D01*
X4750857Y-24331500D01*
X4769905Y-24321976D01*
X4960381Y-24321976D02*
X4979429Y-24321976D01*
X4998476Y-24331500D01*
X5008000Y-24341024D01*
X5017524Y-24360071D01*
X5027048Y-24398167D01*
X5027048Y-24445786D01*
X5017524Y-24483881D01*
X5008000Y-24502928D01*
X4998476Y-24512452D01*
X4979429Y-24521976D01*
X4960381Y-24521976D01*
X4941333Y-24512452D01*
X4931810Y-24502928D01*
X4922286Y-24483881D01*
X4912762Y-24445786D01*
X4912762Y-24398167D01*
X4922286Y-24360071D01*
X4931810Y-24341024D01*
X4941333Y-24331500D01*
X4960381Y-24321976D01*
X5112762Y-24521976D02*
X5112762Y-24388643D01*
X5112762Y-24407690D02*
X5122286Y-24398167D01*
X5141333Y-24388643D01*
X5169905Y-24388643D01*
X5188952Y-24398167D01*
X5198476Y-24417214D01*
X5198476Y-24521976D01*
X5198476Y-24417214D02*
X5208000Y-24398167D01*
X5227048Y-24388643D01*
X5255619Y-24388643D01*
X5274667Y-24398167D01*
X5284190Y-24417214D01*
X5284190Y-24521976D01*
X5379429Y-24521976D02*
X5379429Y-24388643D01*
X5379429Y-24407690D02*
X5388952Y-24398167D01*
X5408000Y-24388643D01*
X5436571Y-24388643D01*
X5455619Y-24398167D01*
X5465143Y-24417214D01*
X5465143Y-24521976D01*
X5465143Y-24417214D02*
X5474667Y-24398167D01*
X5493714Y-24388643D01*
X5522286Y-24388643D01*
X5541333Y-24398167D01*
X5550857Y-24417214D01*
X5550857Y-24521976D01*
X5941333Y-24312452D02*
X5769905Y-24569595D01*
X6198476Y-24321976D02*
X6217524Y-24321976D01*
X6236571Y-24331500D01*
X6246095Y-24341024D01*
X6255619Y-24360071D01*
X6265143Y-24398167D01*
X6265143Y-24445786D01*
X6255619Y-24483881D01*
X6246095Y-24502928D01*
X6236571Y-24512452D01*
X6217524Y-24521976D01*
X6198476Y-24521976D01*
X6179428Y-24512452D01*
X6169905Y-24502928D01*
X6160381Y-24483881D01*
X6150857Y-24445786D01*
X6150857Y-24398167D01*
X6160381Y-24360071D01*
X6169905Y-24341024D01*
X6179428Y-24331500D01*
X6198476Y-24321976D01*
X6350857Y-24502928D02*
X6360381Y-24512452D01*
X6350857Y-24521976D01*
X6341333Y-24512452D01*
X6350857Y-24502928D01*
X6350857Y-24521976D01*
X6484190Y-24321976D02*
X6503238Y-24321976D01*
X6522286Y-24331500D01*
X6531809Y-24341024D01*
X6541333Y-24360071D01*
X6550857Y-24398167D01*
X6550857Y-24445786D01*
X6541333Y-24483881D01*
X6531809Y-24502928D01*
X6522286Y-24512452D01*
X6503238Y-24521976D01*
X6484190Y-24521976D01*
X6465143Y-24512452D01*
X6455619Y-24502928D01*
X6446095Y-24483881D01*
X6436571Y-24445786D01*
X6436571Y-24398167D01*
X6446095Y-24360071D01*
X6455619Y-24341024D01*
X6465143Y-24331500D01*
X6484190Y-24321976D01*
X6617524Y-24321976D02*
X6741333Y-24321976D01*
X6674667Y-24398167D01*
X6703238Y-24398167D01*
X6722286Y-24407690D01*
X6731809Y-24417214D01*
X6741333Y-24436262D01*
X6741333Y-24483881D01*
X6731809Y-24502928D01*
X6722286Y-24512452D01*
X6703238Y-24521976D01*
X6646095Y-24521976D01*
X6627048Y-24512452D01*
X6617524Y-24502928D01*
X6836571Y-24521976D02*
X6874667Y-24521976D01*
X6893714Y-24512452D01*
X6903238Y-24502928D01*
X6922286Y-24474357D01*
X6931809Y-24436262D01*
X6931809Y-24360071D01*
X6922286Y-24341024D01*
X6912762Y-24331500D01*
X6893714Y-24321976D01*
X6855619Y-24321976D01*
X6836571Y-24331500D01*
X6827048Y-24341024D01*
X6817524Y-24360071D01*
X6817524Y-24407690D01*
X6827048Y-24426738D01*
X6836571Y-24436262D01*
X6855619Y-24445786D01*
X6893714Y-24445786D01*
X6912762Y-24436262D01*
X6922286Y-24426738D01*
X6931809Y-24407690D01*
X7103238Y-24388643D02*
X7103238Y-24521976D01*
X7055619Y-24312452D02*
X7008000Y-24455309D01*
X7131809Y-24455309D01*
X7198476Y-24321976D02*
X7198476Y-24360071D01*
X7274667Y-24321976D02*
X7274667Y-24360071D01*
X7569905Y-24598167D02*
X7560381Y-24588643D01*
X7541333Y-24560071D01*
X7531809Y-24541024D01*
X7522286Y-24512452D01*
X7512762Y-24464833D01*
X7512762Y-24426738D01*
X7522286Y-24379119D01*
X7531809Y-24350548D01*
X7541333Y-24331500D01*
X7560381Y-24302928D01*
X7569905Y-24293405D01*
X7731809Y-24388643D02*
X7731809Y-24521976D01*
X7684190Y-24312452D02*
X7636571Y-24455309D01*
X7760381Y-24455309D01*
X7817524Y-24321976D02*
X7950857Y-24321976D01*
X7865143Y-24521976D01*
X8179428Y-24521976D02*
X8179428Y-24321976D01*
X8265143Y-24521976D02*
X8265143Y-24417214D01*
X8255619Y-24398167D01*
X8236571Y-24388643D01*
X8208000Y-24388643D01*
X8188952Y-24398167D01*
X8179428Y-24407690D01*
X8388952Y-24521976D02*
X8369905Y-24512452D01*
X8360381Y-24502928D01*
X8350857Y-24483881D01*
X8350857Y-24426738D01*
X8360381Y-24407690D01*
X8369905Y-24398167D01*
X8388952Y-24388643D01*
X8417524Y-24388643D01*
X8436571Y-24398167D01*
X8446095Y-24407690D01*
X8455619Y-24426738D01*
X8455619Y-24483881D01*
X8446095Y-24502928D01*
X8436571Y-24512452D01*
X8417524Y-24521976D01*
X8388952Y-24521976D01*
X8569905Y-24521976D02*
X8550857Y-24512452D01*
X8541333Y-24493405D01*
X8541333Y-24321976D01*
X8722286Y-24512452D02*
X8703238Y-24521976D01*
X8665143Y-24521976D01*
X8646095Y-24512452D01*
X8636571Y-24493405D01*
X8636571Y-24417214D01*
X8646095Y-24398167D01*
X8665143Y-24388643D01*
X8703238Y-24388643D01*
X8722286Y-24398167D01*
X8731810Y-24417214D01*
X8731810Y-24436262D01*
X8636571Y-24455309D01*
X8808000Y-24512452D02*
X8827048Y-24521976D01*
X8865143Y-24521976D01*
X8884190Y-24512452D01*
X8893714Y-24493405D01*
X8893714Y-24483881D01*
X8884190Y-24464833D01*
X8865143Y-24455309D01*
X8836571Y-24455309D01*
X8817524Y-24445786D01*
X8808000Y-24426738D01*
X8808000Y-24417214D01*
X8817524Y-24398167D01*
X8836571Y-24388643D01*
X8865143Y-24388643D01*
X8884190Y-24398167D01*
X8960381Y-24598167D02*
X8969905Y-24588643D01*
X8988952Y-24560071D01*
X8998476Y-24541024D01*
X9008000Y-24512452D01*
X9017524Y-24464833D01*
X9017524Y-24426738D01*
X9008000Y-24379119D01*
X8998476Y-24350548D01*
X8988952Y-24331500D01*
X8969905Y-24302928D01*
X8960381Y-24293405D01*
D17*
X3888000Y-24640500D02*
X3998000Y-24750500D01*
X3998000Y-24640500D02*
X3888000Y-24750500D01*
X3998000Y-24695500D02*
G75*
G03*
X3998000Y-24695500I-55000J0D01*
G01*
D11*
X4360381Y-24785976D02*
X4246095Y-24785976D01*
X4303238Y-24785976D02*
X4303238Y-24585976D01*
X4284190Y-24614548D01*
X4265143Y-24633595D01*
X4246095Y-24643119D01*
X4446095Y-24766928D02*
X4455619Y-24776452D01*
X4446095Y-24785976D01*
X4436571Y-24776452D01*
X4446095Y-24766928D01*
X4446095Y-24785976D01*
X4646095Y-24785976D02*
X4531810Y-24785976D01*
X4588952Y-24785976D02*
X4588952Y-24585976D01*
X4569905Y-24614548D01*
X4550857Y-24633595D01*
X4531810Y-24643119D01*
X4769905Y-24585976D02*
X4788952Y-24585976D01*
X4808000Y-24595500D01*
X4817524Y-24605024D01*
X4827048Y-24624071D01*
X4836571Y-24662167D01*
X4836571Y-24709786D01*
X4827048Y-24747881D01*
X4817524Y-24766928D01*
X4808000Y-24776452D01*
X4788952Y-24785976D01*
X4769905Y-24785976D01*
X4750857Y-24776452D01*
X4741333Y-24766928D01*
X4731810Y-24747881D01*
X4722286Y-24709786D01*
X4722286Y-24662167D01*
X4731810Y-24624071D01*
X4741333Y-24605024D01*
X4750857Y-24595500D01*
X4769905Y-24585976D01*
X4960381Y-24585976D02*
X4979429Y-24585976D01*
X4998476Y-24595500D01*
X5008000Y-24605024D01*
X5017524Y-24624071D01*
X5027048Y-24662167D01*
X5027048Y-24709786D01*
X5017524Y-24747881D01*
X5008000Y-24766928D01*
X4998476Y-24776452D01*
X4979429Y-24785976D01*
X4960381Y-24785976D01*
X4941333Y-24776452D01*
X4931810Y-24766928D01*
X4922286Y-24747881D01*
X4912762Y-24709786D01*
X4912762Y-24662167D01*
X4922286Y-24624071D01*
X4931810Y-24605024D01*
X4941333Y-24595500D01*
X4960381Y-24585976D01*
X5112762Y-24785976D02*
X5112762Y-24652643D01*
X5112762Y-24671690D02*
X5122286Y-24662167D01*
X5141333Y-24652643D01*
X5169905Y-24652643D01*
X5188952Y-24662167D01*
X5198476Y-24681214D01*
X5198476Y-24785976D01*
X5198476Y-24681214D02*
X5208000Y-24662167D01*
X5227048Y-24652643D01*
X5255619Y-24652643D01*
X5274667Y-24662167D01*
X5284190Y-24681214D01*
X5284190Y-24785976D01*
X5379429Y-24785976D02*
X5379429Y-24652643D01*
X5379429Y-24671690D02*
X5388952Y-24662167D01*
X5408000Y-24652643D01*
X5436571Y-24652643D01*
X5455619Y-24662167D01*
X5465143Y-24681214D01*
X5465143Y-24785976D01*
X5465143Y-24681214D02*
X5474667Y-24662167D01*
X5493714Y-24652643D01*
X5522286Y-24652643D01*
X5541333Y-24662167D01*
X5550857Y-24681214D01*
X5550857Y-24785976D01*
X5941333Y-24576452D02*
X5769905Y-24833595D01*
X6198476Y-24585976D02*
X6217524Y-24585976D01*
X6236571Y-24595500D01*
X6246095Y-24605024D01*
X6255619Y-24624071D01*
X6265143Y-24662167D01*
X6265143Y-24709786D01*
X6255619Y-24747881D01*
X6246095Y-24766928D01*
X6236571Y-24776452D01*
X6217524Y-24785976D01*
X6198476Y-24785976D01*
X6179428Y-24776452D01*
X6169905Y-24766928D01*
X6160381Y-24747881D01*
X6150857Y-24709786D01*
X6150857Y-24662167D01*
X6160381Y-24624071D01*
X6169905Y-24605024D01*
X6179428Y-24595500D01*
X6198476Y-24585976D01*
X6350857Y-24766928D02*
X6360381Y-24776452D01*
X6350857Y-24785976D01*
X6341333Y-24776452D01*
X6350857Y-24766928D01*
X6350857Y-24785976D01*
X6484190Y-24585976D02*
X6503238Y-24585976D01*
X6522286Y-24595500D01*
X6531809Y-24605024D01*
X6541333Y-24624071D01*
X6550857Y-24662167D01*
X6550857Y-24709786D01*
X6541333Y-24747881D01*
X6531809Y-24766928D01*
X6522286Y-24776452D01*
X6503238Y-24785976D01*
X6484190Y-24785976D01*
X6465143Y-24776452D01*
X6455619Y-24766928D01*
X6446095Y-24747881D01*
X6436571Y-24709786D01*
X6436571Y-24662167D01*
X6446095Y-24624071D01*
X6455619Y-24605024D01*
X6465143Y-24595500D01*
X6484190Y-24585976D01*
X6722286Y-24652643D02*
X6722286Y-24785976D01*
X6674667Y-24576452D02*
X6627048Y-24719309D01*
X6750857Y-24719309D01*
X6808000Y-24585976D02*
X6931809Y-24585976D01*
X6865143Y-24662167D01*
X6893714Y-24662167D01*
X6912762Y-24671690D01*
X6922286Y-24681214D01*
X6931809Y-24700262D01*
X6931809Y-24747881D01*
X6922286Y-24766928D01*
X6912762Y-24776452D01*
X6893714Y-24785976D01*
X6836571Y-24785976D01*
X6817524Y-24776452D01*
X6808000Y-24766928D01*
X6998476Y-24585976D02*
X7122286Y-24585976D01*
X7055619Y-24662167D01*
X7084190Y-24662167D01*
X7103238Y-24671690D01*
X7112762Y-24681214D01*
X7122286Y-24700262D01*
X7122286Y-24747881D01*
X7112762Y-24766928D01*
X7103238Y-24776452D01*
X7084190Y-24785976D01*
X7027048Y-24785976D01*
X7008000Y-24776452D01*
X6998476Y-24766928D01*
X7198476Y-24585976D02*
X7198476Y-24624071D01*
X7274667Y-24585976D02*
X7274667Y-24624071D01*
X7569905Y-24862167D02*
X7560381Y-24852643D01*
X7541333Y-24824071D01*
X7531809Y-24805024D01*
X7522286Y-24776452D01*
X7512762Y-24728833D01*
X7512762Y-24690738D01*
X7522286Y-24643119D01*
X7531809Y-24614548D01*
X7541333Y-24595500D01*
X7560381Y-24566928D01*
X7569905Y-24557405D01*
X7684190Y-24585976D02*
X7703238Y-24585976D01*
X7722286Y-24595500D01*
X7731809Y-24605024D01*
X7741333Y-24624071D01*
X7750857Y-24662167D01*
X7750857Y-24709786D01*
X7741333Y-24747881D01*
X7731809Y-24766928D01*
X7722286Y-24776452D01*
X7703238Y-24785976D01*
X7684190Y-24785976D01*
X7665143Y-24776452D01*
X7655619Y-24766928D01*
X7646095Y-24747881D01*
X7636571Y-24709786D01*
X7636571Y-24662167D01*
X7646095Y-24624071D01*
X7655619Y-24605024D01*
X7665143Y-24595500D01*
X7684190Y-24585976D01*
X7988952Y-24785976D02*
X7988952Y-24585976D01*
X8074667Y-24785976D02*
X8074667Y-24681214D01*
X8065143Y-24662167D01*
X8046095Y-24652643D01*
X8017524Y-24652643D01*
X7998476Y-24662167D01*
X7988952Y-24671690D01*
X8198476Y-24785976D02*
X8179428Y-24776452D01*
X8169905Y-24766928D01*
X8160381Y-24747881D01*
X8160381Y-24690738D01*
X8169905Y-24671690D01*
X8179428Y-24662167D01*
X8198476Y-24652643D01*
X8227048Y-24652643D01*
X8246095Y-24662167D01*
X8255619Y-24671690D01*
X8265143Y-24690738D01*
X8265143Y-24747881D01*
X8255619Y-24766928D01*
X8246095Y-24776452D01*
X8227048Y-24785976D01*
X8198476Y-24785976D01*
X8379428Y-24785976D02*
X8360381Y-24776452D01*
X8350857Y-24757405D01*
X8350857Y-24585976D01*
X8531810Y-24776452D02*
X8512762Y-24785976D01*
X8474667Y-24785976D01*
X8455619Y-24776452D01*
X8446095Y-24757405D01*
X8446095Y-24681214D01*
X8455619Y-24662167D01*
X8474667Y-24652643D01*
X8512762Y-24652643D01*
X8531810Y-24662167D01*
X8541333Y-24681214D01*
X8541333Y-24700262D01*
X8446095Y-24719309D01*
X8617524Y-24776452D02*
X8636571Y-24785976D01*
X8674667Y-24785976D01*
X8693714Y-24776452D01*
X8703238Y-24757405D01*
X8703238Y-24747881D01*
X8693714Y-24728833D01*
X8674667Y-24719309D01*
X8646095Y-24719309D01*
X8627048Y-24709786D01*
X8617524Y-24690738D01*
X8617524Y-24681214D01*
X8627048Y-24662167D01*
X8646095Y-24652643D01*
X8674667Y-24652643D01*
X8693714Y-24662167D01*
X8941333Y-24709786D02*
X9093714Y-24709786D01*
X9017524Y-24785976D02*
X9017524Y-24633595D01*
X9446095Y-24785976D02*
X9331810Y-24785976D01*
X9388952Y-24785976D02*
X9388952Y-24585976D01*
X9369905Y-24614548D01*
X9350857Y-24633595D01*
X9331810Y-24643119D01*
X9560381Y-24671690D02*
X9541333Y-24662167D01*
X9531810Y-24652643D01*
X9522286Y-24633595D01*
X9522286Y-24624071D01*
X9531810Y-24605024D01*
X9541333Y-24595500D01*
X9560381Y-24585976D01*
X9598476Y-24585976D01*
X9617524Y-24595500D01*
X9627048Y-24605024D01*
X9636571Y-24624071D01*
X9636571Y-24633595D01*
X9627048Y-24652643D01*
X9617524Y-24662167D01*
X9598476Y-24671690D01*
X9560381Y-24671690D01*
X9541333Y-24681214D01*
X9531810Y-24690738D01*
X9522286Y-24709786D01*
X9522286Y-24747881D01*
X9531810Y-24766928D01*
X9541333Y-24776452D01*
X9560381Y-24785976D01*
X9598476Y-24785976D01*
X9617524Y-24776452D01*
X9627048Y-24766928D01*
X9636571Y-24747881D01*
X9636571Y-24709786D01*
X9627048Y-24690738D01*
X9617524Y-24681214D01*
X9598476Y-24671690D01*
X9865143Y-24776452D02*
X9884190Y-24785976D01*
X9922286Y-24785976D01*
X9941333Y-24776452D01*
X9950857Y-24757405D01*
X9950857Y-24747881D01*
X9941333Y-24728833D01*
X9922286Y-24719309D01*
X9893714Y-24719309D01*
X9874667Y-24709786D01*
X9865143Y-24690738D01*
X9865143Y-24681214D01*
X9874667Y-24662167D01*
X9893714Y-24652643D01*
X9922286Y-24652643D01*
X9941333Y-24662167D01*
X10065143Y-24785976D02*
X10046095Y-24776452D01*
X10036571Y-24757405D01*
X10036571Y-24585976D01*
X10169905Y-24785976D02*
X10150857Y-24776452D01*
X10141333Y-24766928D01*
X10131810Y-24747881D01*
X10131810Y-24690738D01*
X10141333Y-24671690D01*
X10150857Y-24662167D01*
X10169905Y-24652643D01*
X10198476Y-24652643D01*
X10217524Y-24662167D01*
X10227048Y-24671690D01*
X10236571Y-24690738D01*
X10236571Y-24747881D01*
X10227048Y-24766928D01*
X10217524Y-24776452D01*
X10198476Y-24785976D01*
X10169905Y-24785976D01*
X10293714Y-24652643D02*
X10369905Y-24652643D01*
X10322286Y-24585976D02*
X10322286Y-24757405D01*
X10331810Y-24776452D01*
X10350857Y-24785976D01*
X10369905Y-24785976D01*
X10427048Y-24776452D02*
X10446095Y-24785976D01*
X10484190Y-24785976D01*
X10503238Y-24776452D01*
X10512762Y-24757405D01*
X10512762Y-24747881D01*
X10503238Y-24728833D01*
X10484190Y-24719309D01*
X10455619Y-24719309D01*
X10436571Y-24709786D01*
X10427048Y-24690738D01*
X10427048Y-24681214D01*
X10436571Y-24662167D01*
X10455619Y-24652643D01*
X10484190Y-24652643D01*
X10503238Y-24662167D01*
X10579429Y-24862167D02*
X10588952Y-24852643D01*
X10608000Y-24824071D01*
X10617524Y-24805024D01*
X10627048Y-24776452D01*
X10636571Y-24728833D01*
X10636571Y-24690738D01*
X10627048Y-24643119D01*
X10617524Y-24614548D01*
X10608000Y-24595500D01*
X10588952Y-24566928D01*
X10579429Y-24557405D01*
D18*
X3879000Y-24900000D02*
X3998000Y-25019000D01*
X3998000Y-24900000D02*
X3879000Y-25019000D01*
X3938500Y-24900000D02*
X3938500Y-25019000D01*
X3879000Y-24959500D02*
X3998000Y-24959500D01*
D11*
X4360381Y-25049976D02*
X4246095Y-25049976D01*
X4303238Y-25049976D02*
X4303238Y-24849976D01*
X4284190Y-24878548D01*
X4265143Y-24897595D01*
X4246095Y-24907119D01*
X4446095Y-25030928D02*
X4455619Y-25040452D01*
X4446095Y-25049976D01*
X4436571Y-25040452D01*
X4446095Y-25030928D01*
X4446095Y-25049976D01*
X4646095Y-25049976D02*
X4531810Y-25049976D01*
X4588952Y-25049976D02*
X4588952Y-24849976D01*
X4569905Y-24878548D01*
X4550857Y-24897595D01*
X4531810Y-24907119D01*
X4741333Y-25049976D02*
X4779429Y-25049976D01*
X4798476Y-25040452D01*
X4808000Y-25030928D01*
X4827048Y-25002357D01*
X4836571Y-24964262D01*
X4836571Y-24888071D01*
X4827048Y-24869024D01*
X4817524Y-24859500D01*
X4798476Y-24849976D01*
X4760381Y-24849976D01*
X4741333Y-24859500D01*
X4731810Y-24869024D01*
X4722286Y-24888071D01*
X4722286Y-24935690D01*
X4731810Y-24954738D01*
X4741333Y-24964262D01*
X4760381Y-24973786D01*
X4798476Y-24973786D01*
X4817524Y-24964262D01*
X4827048Y-24954738D01*
X4836571Y-24935690D01*
X4960381Y-24849976D02*
X4979429Y-24849976D01*
X4998476Y-24859500D01*
X5008000Y-24869024D01*
X5017524Y-24888071D01*
X5027048Y-24926167D01*
X5027048Y-24973786D01*
X5017524Y-25011881D01*
X5008000Y-25030928D01*
X4998476Y-25040452D01*
X4979429Y-25049976D01*
X4960381Y-25049976D01*
X4941333Y-25040452D01*
X4931810Y-25030928D01*
X4922286Y-25011881D01*
X4912762Y-24973786D01*
X4912762Y-24926167D01*
X4922286Y-24888071D01*
X4931810Y-24869024D01*
X4941333Y-24859500D01*
X4960381Y-24849976D01*
X5112762Y-25049976D02*
X5112762Y-24916643D01*
X5112762Y-24935690D02*
X5122286Y-24926167D01*
X5141333Y-24916643D01*
X5169905Y-24916643D01*
X5188952Y-24926167D01*
X5198476Y-24945214D01*
X5198476Y-25049976D01*
X5198476Y-24945214D02*
X5208000Y-24926167D01*
X5227048Y-24916643D01*
X5255619Y-24916643D01*
X5274667Y-24926167D01*
X5284190Y-24945214D01*
X5284190Y-25049976D01*
X5379429Y-25049976D02*
X5379429Y-24916643D01*
X5379429Y-24935690D02*
X5388952Y-24926167D01*
X5408000Y-24916643D01*
X5436571Y-24916643D01*
X5455619Y-24926167D01*
X5465143Y-24945214D01*
X5465143Y-25049976D01*
X5465143Y-24945214D02*
X5474667Y-24926167D01*
X5493714Y-24916643D01*
X5522286Y-24916643D01*
X5541333Y-24926167D01*
X5550857Y-24945214D01*
X5550857Y-25049976D01*
X5941333Y-24840452D02*
X5769905Y-25097595D01*
X6198476Y-24849976D02*
X6217524Y-24849976D01*
X6236571Y-24859500D01*
X6246095Y-24869024D01*
X6255619Y-24888071D01*
X6265143Y-24926167D01*
X6265143Y-24973786D01*
X6255619Y-25011881D01*
X6246095Y-25030928D01*
X6236571Y-25040452D01*
X6217524Y-25049976D01*
X6198476Y-25049976D01*
X6179428Y-25040452D01*
X6169905Y-25030928D01*
X6160381Y-25011881D01*
X6150857Y-24973786D01*
X6150857Y-24926167D01*
X6160381Y-24888071D01*
X6169905Y-24869024D01*
X6179428Y-24859500D01*
X6198476Y-24849976D01*
X6350857Y-25030928D02*
X6360381Y-25040452D01*
X6350857Y-25049976D01*
X6341333Y-25040452D01*
X6350857Y-25030928D01*
X6350857Y-25049976D01*
X6484190Y-24849976D02*
X6503238Y-24849976D01*
X6522286Y-24859500D01*
X6531809Y-24869024D01*
X6541333Y-24888071D01*
X6550857Y-24926167D01*
X6550857Y-24973786D01*
X6541333Y-25011881D01*
X6531809Y-25030928D01*
X6522286Y-25040452D01*
X6503238Y-25049976D01*
X6484190Y-25049976D01*
X6465143Y-25040452D01*
X6455619Y-25030928D01*
X6446095Y-25011881D01*
X6436571Y-24973786D01*
X6436571Y-24926167D01*
X6446095Y-24888071D01*
X6455619Y-24869024D01*
X6465143Y-24859500D01*
X6484190Y-24849976D01*
X6722286Y-24916643D02*
X6722286Y-25049976D01*
X6674667Y-24840452D02*
X6627048Y-24983309D01*
X6750857Y-24983309D01*
X6912762Y-24849976D02*
X6874667Y-24849976D01*
X6855619Y-24859500D01*
X6846095Y-24869024D01*
X6827048Y-24897595D01*
X6817524Y-24935690D01*
X6817524Y-25011881D01*
X6827048Y-25030928D01*
X6836571Y-25040452D01*
X6855619Y-25049976D01*
X6893714Y-25049976D01*
X6912762Y-25040452D01*
X6922286Y-25030928D01*
X6931809Y-25011881D01*
X6931809Y-24964262D01*
X6922286Y-24945214D01*
X6912762Y-24935690D01*
X6893714Y-24926167D01*
X6855619Y-24926167D01*
X6836571Y-24935690D01*
X6827048Y-24945214D01*
X6817524Y-24964262D01*
X7027048Y-25049976D02*
X7065143Y-25049976D01*
X7084190Y-25040452D01*
X7093714Y-25030928D01*
X7112762Y-25002357D01*
X7122286Y-24964262D01*
X7122286Y-24888071D01*
X7112762Y-24869024D01*
X7103238Y-24859500D01*
X7084190Y-24849976D01*
X7046095Y-24849976D01*
X7027048Y-24859500D01*
X7017524Y-24869024D01*
X7008000Y-24888071D01*
X7008000Y-24935690D01*
X7017524Y-24954738D01*
X7027048Y-24964262D01*
X7046095Y-24973786D01*
X7084190Y-24973786D01*
X7103238Y-24964262D01*
X7112762Y-24954738D01*
X7122286Y-24935690D01*
X7198476Y-24849976D02*
X7198476Y-24888071D01*
X7274667Y-24849976D02*
X7274667Y-24888071D01*
X7569905Y-25126167D02*
X7560381Y-25116643D01*
X7541333Y-25088071D01*
X7531809Y-25069024D01*
X7522286Y-25040452D01*
X7512762Y-24992833D01*
X7512762Y-24954738D01*
X7522286Y-24907119D01*
X7531809Y-24878548D01*
X7541333Y-24859500D01*
X7560381Y-24830928D01*
X7569905Y-24821405D01*
X7750857Y-25049976D02*
X7636571Y-25049976D01*
X7693714Y-25049976D02*
X7693714Y-24849976D01*
X7674667Y-24878548D01*
X7655619Y-24897595D01*
X7636571Y-24907119D01*
X7865143Y-24935690D02*
X7846095Y-24926167D01*
X7836571Y-24916643D01*
X7827048Y-24897595D01*
X7827048Y-24888071D01*
X7836571Y-24869024D01*
X7846095Y-24859500D01*
X7865143Y-24849976D01*
X7903238Y-24849976D01*
X7922286Y-24859500D01*
X7931809Y-24869024D01*
X7941333Y-24888071D01*
X7941333Y-24897595D01*
X7931809Y-24916643D01*
X7922286Y-24926167D01*
X7903238Y-24935690D01*
X7865143Y-24935690D01*
X7846095Y-24945214D01*
X7836571Y-24954738D01*
X7827048Y-24973786D01*
X7827048Y-25011881D01*
X7836571Y-25030928D01*
X7846095Y-25040452D01*
X7865143Y-25049976D01*
X7903238Y-25049976D01*
X7922286Y-25040452D01*
X7931809Y-25030928D01*
X7941333Y-25011881D01*
X7941333Y-24973786D01*
X7931809Y-24954738D01*
X7922286Y-24945214D01*
X7903238Y-24935690D01*
X8179428Y-25049976D02*
X8179428Y-24849976D01*
X8265143Y-25049976D02*
X8265143Y-24945214D01*
X8255619Y-24926167D01*
X8236571Y-24916643D01*
X8208000Y-24916643D01*
X8188952Y-24926167D01*
X8179428Y-24935690D01*
X8388952Y-25049976D02*
X8369905Y-25040452D01*
X8360381Y-25030928D01*
X8350857Y-25011881D01*
X8350857Y-24954738D01*
X8360381Y-24935690D01*
X8369905Y-24926167D01*
X8388952Y-24916643D01*
X8417524Y-24916643D01*
X8436571Y-24926167D01*
X8446095Y-24935690D01*
X8455619Y-24954738D01*
X8455619Y-25011881D01*
X8446095Y-25030928D01*
X8436571Y-25040452D01*
X8417524Y-25049976D01*
X8388952Y-25049976D01*
X8569905Y-25049976D02*
X8550857Y-25040452D01*
X8541333Y-25021405D01*
X8541333Y-24849976D01*
X8722286Y-25040452D02*
X8703238Y-25049976D01*
X8665143Y-25049976D01*
X8646095Y-25040452D01*
X8636571Y-25021405D01*
X8636571Y-24945214D01*
X8646095Y-24926167D01*
X8665143Y-24916643D01*
X8703238Y-24916643D01*
X8722286Y-24926167D01*
X8731810Y-24945214D01*
X8731810Y-24964262D01*
X8636571Y-24983309D01*
X8808000Y-25040452D02*
X8827048Y-25049976D01*
X8865143Y-25049976D01*
X8884190Y-25040452D01*
X8893714Y-25021405D01*
X8893714Y-25011881D01*
X8884190Y-24992833D01*
X8865143Y-24983309D01*
X8836571Y-24983309D01*
X8817524Y-24973786D01*
X8808000Y-24954738D01*
X8808000Y-24945214D01*
X8817524Y-24926167D01*
X8836571Y-24916643D01*
X8865143Y-24916643D01*
X8884190Y-24926167D01*
X8960381Y-25126167D02*
X8969905Y-25116643D01*
X8988952Y-25088071D01*
X8998476Y-25069024D01*
X9008000Y-25040452D01*
X9017524Y-24992833D01*
X9017524Y-24954738D01*
X9008000Y-24907119D01*
X8998476Y-24878548D01*
X8988952Y-24859500D01*
X8969905Y-24830928D01*
X8960381Y-24821405D01*
D19*
X3868000Y-25158500D02*
X3998000Y-25288500D01*
X3998000Y-25158500D02*
X3868000Y-25288500D01*
X3978962Y-25269462D02*
X3978962Y-25177538D01*
X3887038Y-25177538D01*
X3887038Y-25269462D01*
X3978962Y-25269462D01*
D11*
X4360381Y-25313976D02*
X4246095Y-25313976D01*
X4303238Y-25313976D02*
X4303238Y-25113976D01*
X4284190Y-25142548D01*
X4265143Y-25161595D01*
X4246095Y-25171119D01*
X4446095Y-25294928D02*
X4455619Y-25304452D01*
X4446095Y-25313976D01*
X4436571Y-25304452D01*
X4446095Y-25294928D01*
X4446095Y-25313976D01*
X4522286Y-25113976D02*
X4646095Y-25113976D01*
X4579429Y-25190167D01*
X4608000Y-25190167D01*
X4627048Y-25199690D01*
X4636571Y-25209214D01*
X4646095Y-25228262D01*
X4646095Y-25275881D01*
X4636571Y-25294928D01*
X4627048Y-25304452D01*
X4608000Y-25313976D01*
X4550857Y-25313976D01*
X4531810Y-25304452D01*
X4522286Y-25294928D01*
X4769905Y-25113976D02*
X4788952Y-25113976D01*
X4808000Y-25123500D01*
X4817524Y-25133024D01*
X4827048Y-25152071D01*
X4836571Y-25190167D01*
X4836571Y-25237786D01*
X4827048Y-25275881D01*
X4817524Y-25294928D01*
X4808000Y-25304452D01*
X4788952Y-25313976D01*
X4769905Y-25313976D01*
X4750857Y-25304452D01*
X4741333Y-25294928D01*
X4731810Y-25275881D01*
X4722286Y-25237786D01*
X4722286Y-25190167D01*
X4731810Y-25152071D01*
X4741333Y-25133024D01*
X4750857Y-25123500D01*
X4769905Y-25113976D01*
X4960381Y-25113976D02*
X4979429Y-25113976D01*
X4998476Y-25123500D01*
X5008000Y-25133024D01*
X5017524Y-25152071D01*
X5027048Y-25190167D01*
X5027048Y-25237786D01*
X5017524Y-25275881D01*
X5008000Y-25294928D01*
X4998476Y-25304452D01*
X4979429Y-25313976D01*
X4960381Y-25313976D01*
X4941333Y-25304452D01*
X4931810Y-25294928D01*
X4922286Y-25275881D01*
X4912762Y-25237786D01*
X4912762Y-25190167D01*
X4922286Y-25152071D01*
X4931810Y-25133024D01*
X4941333Y-25123500D01*
X4960381Y-25113976D01*
X5112762Y-25313976D02*
X5112762Y-25180643D01*
X5112762Y-25199690D02*
X5122286Y-25190167D01*
X5141333Y-25180643D01*
X5169905Y-25180643D01*
X5188952Y-25190167D01*
X5198476Y-25209214D01*
X5198476Y-25313976D01*
X5198476Y-25209214D02*
X5208000Y-25190167D01*
X5227048Y-25180643D01*
X5255619Y-25180643D01*
X5274667Y-25190167D01*
X5284190Y-25209214D01*
X5284190Y-25313976D01*
X5379429Y-25313976D02*
X5379429Y-25180643D01*
X5379429Y-25199690D02*
X5388952Y-25190167D01*
X5408000Y-25180643D01*
X5436571Y-25180643D01*
X5455619Y-25190167D01*
X5465143Y-25209214D01*
X5465143Y-25313976D01*
X5465143Y-25209214D02*
X5474667Y-25190167D01*
X5493714Y-25180643D01*
X5522286Y-25180643D01*
X5541333Y-25190167D01*
X5550857Y-25209214D01*
X5550857Y-25313976D01*
X5941333Y-25104452D02*
X5769905Y-25361595D01*
X6198476Y-25113976D02*
X6217524Y-25113976D01*
X6236571Y-25123500D01*
X6246095Y-25133024D01*
X6255619Y-25152071D01*
X6265143Y-25190167D01*
X6265143Y-25237786D01*
X6255619Y-25275881D01*
X6246095Y-25294928D01*
X6236571Y-25304452D01*
X6217524Y-25313976D01*
X6198476Y-25313976D01*
X6179428Y-25304452D01*
X6169905Y-25294928D01*
X6160381Y-25275881D01*
X6150857Y-25237786D01*
X6150857Y-25190167D01*
X6160381Y-25152071D01*
X6169905Y-25133024D01*
X6179428Y-25123500D01*
X6198476Y-25113976D01*
X6350857Y-25294928D02*
X6360381Y-25304452D01*
X6350857Y-25313976D01*
X6341333Y-25304452D01*
X6350857Y-25294928D01*
X6350857Y-25313976D01*
X6484190Y-25113976D02*
X6503238Y-25113976D01*
X6522286Y-25123500D01*
X6531809Y-25133024D01*
X6541333Y-25152071D01*
X6550857Y-25190167D01*
X6550857Y-25237786D01*
X6541333Y-25275881D01*
X6531809Y-25294928D01*
X6522286Y-25304452D01*
X6503238Y-25313976D01*
X6484190Y-25313976D01*
X6465143Y-25304452D01*
X6455619Y-25294928D01*
X6446095Y-25275881D01*
X6436571Y-25237786D01*
X6436571Y-25190167D01*
X6446095Y-25152071D01*
X6455619Y-25133024D01*
X6465143Y-25123500D01*
X6484190Y-25113976D01*
X6731809Y-25113976D02*
X6636571Y-25113976D01*
X6627048Y-25209214D01*
X6636571Y-25199690D01*
X6655619Y-25190167D01*
X6703238Y-25190167D01*
X6722286Y-25199690D01*
X6731809Y-25209214D01*
X6741333Y-25228262D01*
X6741333Y-25275881D01*
X6731809Y-25294928D01*
X6722286Y-25304452D01*
X6703238Y-25313976D01*
X6655619Y-25313976D01*
X6636571Y-25304452D01*
X6627048Y-25294928D01*
X6931809Y-25313976D02*
X6817524Y-25313976D01*
X6874667Y-25313976D02*
X6874667Y-25113976D01*
X6855619Y-25142548D01*
X6836571Y-25161595D01*
X6817524Y-25171119D01*
X7008000Y-25133024D02*
X7017524Y-25123500D01*
X7036571Y-25113976D01*
X7084190Y-25113976D01*
X7103238Y-25123500D01*
X7112762Y-25133024D01*
X7122286Y-25152071D01*
X7122286Y-25171119D01*
X7112762Y-25199690D01*
X6998476Y-25313976D01*
X7122286Y-25313976D01*
X7198476Y-25113976D02*
X7198476Y-25152071D01*
X7274667Y-25113976D02*
X7274667Y-25152071D01*
X7569905Y-25390167D02*
X7560381Y-25380643D01*
X7541333Y-25352071D01*
X7531809Y-25333024D01*
X7522286Y-25304452D01*
X7512762Y-25256833D01*
X7512762Y-25218738D01*
X7522286Y-25171119D01*
X7531809Y-25142548D01*
X7541333Y-25123500D01*
X7560381Y-25094928D01*
X7569905Y-25085405D01*
X7636571Y-25133024D02*
X7646095Y-25123500D01*
X7665143Y-25113976D01*
X7712762Y-25113976D01*
X7731809Y-25123500D01*
X7741333Y-25133024D01*
X7750857Y-25152071D01*
X7750857Y-25171119D01*
X7741333Y-25199690D01*
X7627048Y-25313976D01*
X7750857Y-25313976D01*
X7988952Y-25313976D02*
X7988952Y-25113976D01*
X8074667Y-25313976D02*
X8074667Y-25209214D01*
X8065143Y-25190167D01*
X8046095Y-25180643D01*
X8017524Y-25180643D01*
X7998476Y-25190167D01*
X7988952Y-25199690D01*
X8198476Y-25313976D02*
X8179428Y-25304452D01*
X8169905Y-25294928D01*
X8160381Y-25275881D01*
X8160381Y-25218738D01*
X8169905Y-25199690D01*
X8179428Y-25190167D01*
X8198476Y-25180643D01*
X8227048Y-25180643D01*
X8246095Y-25190167D01*
X8255619Y-25199690D01*
X8265143Y-25218738D01*
X8265143Y-25275881D01*
X8255619Y-25294928D01*
X8246095Y-25304452D01*
X8227048Y-25313976D01*
X8198476Y-25313976D01*
X8379428Y-25313976D02*
X8360381Y-25304452D01*
X8350857Y-25285405D01*
X8350857Y-25113976D01*
X8531810Y-25304452D02*
X8512762Y-25313976D01*
X8474667Y-25313976D01*
X8455619Y-25304452D01*
X8446095Y-25285405D01*
X8446095Y-25209214D01*
X8455619Y-25190167D01*
X8474667Y-25180643D01*
X8512762Y-25180643D01*
X8531810Y-25190167D01*
X8541333Y-25209214D01*
X8541333Y-25228262D01*
X8446095Y-25247309D01*
X8617524Y-25304452D02*
X8636571Y-25313976D01*
X8674667Y-25313976D01*
X8693714Y-25304452D01*
X8703238Y-25285405D01*
X8703238Y-25275881D01*
X8693714Y-25256833D01*
X8674667Y-25247309D01*
X8646095Y-25247309D01*
X8627048Y-25237786D01*
X8617524Y-25218738D01*
X8617524Y-25209214D01*
X8627048Y-25190167D01*
X8646095Y-25180643D01*
X8674667Y-25180643D01*
X8693714Y-25190167D01*
X8769905Y-25390167D02*
X8779429Y-25380643D01*
X8798476Y-25352071D01*
X8808000Y-25333024D01*
X8817524Y-25304452D01*
X8827048Y-25256833D01*
X8827048Y-25218738D01*
X8817524Y-25171119D01*
X8808000Y-25142548D01*
X8798476Y-25123500D01*
X8779429Y-25094928D01*
X8769905Y-25085405D01*
D20*
X3813000Y-25395000D02*
X3998000Y-25580000D01*
X3998000Y-25395000D02*
X3813000Y-25580000D01*
X3905500Y-25580000D02*
X3998000Y-25487500D01*
X3905500Y-25395000D01*
X3813000Y-25487500D01*
X3905500Y-25580000D01*
D11*
X4360381Y-25577976D02*
X4246095Y-25577976D01*
X4303238Y-25577976D02*
X4303238Y-25377976D01*
X4284190Y-25406548D01*
X4265143Y-25425595D01*
X4246095Y-25435119D01*
X4446095Y-25558928D02*
X4455619Y-25568452D01*
X4446095Y-25577976D01*
X4436571Y-25568452D01*
X4446095Y-25558928D01*
X4446095Y-25577976D01*
X4569905Y-25463690D02*
X4550857Y-25454167D01*
X4541333Y-25444643D01*
X4531810Y-25425595D01*
X4531810Y-25416071D01*
X4541333Y-25397024D01*
X4550857Y-25387500D01*
X4569905Y-25377976D01*
X4608000Y-25377976D01*
X4627048Y-25387500D01*
X4636571Y-25397024D01*
X4646095Y-25416071D01*
X4646095Y-25425595D01*
X4636571Y-25444643D01*
X4627048Y-25454167D01*
X4608000Y-25463690D01*
X4569905Y-25463690D01*
X4550857Y-25473214D01*
X4541333Y-25482738D01*
X4531810Y-25501786D01*
X4531810Y-25539881D01*
X4541333Y-25558928D01*
X4550857Y-25568452D01*
X4569905Y-25577976D01*
X4608000Y-25577976D01*
X4627048Y-25568452D01*
X4636571Y-25558928D01*
X4646095Y-25539881D01*
X4646095Y-25501786D01*
X4636571Y-25482738D01*
X4627048Y-25473214D01*
X4608000Y-25463690D01*
X4827048Y-25377976D02*
X4731810Y-25377976D01*
X4722286Y-25473214D01*
X4731810Y-25463690D01*
X4750857Y-25454167D01*
X4798476Y-25454167D01*
X4817524Y-25463690D01*
X4827048Y-25473214D01*
X4836571Y-25492262D01*
X4836571Y-25539881D01*
X4827048Y-25558928D01*
X4817524Y-25568452D01*
X4798476Y-25577976D01*
X4750857Y-25577976D01*
X4731810Y-25568452D01*
X4722286Y-25558928D01*
X4960381Y-25377976D02*
X4979429Y-25377976D01*
X4998476Y-25387500D01*
X5008000Y-25397024D01*
X5017524Y-25416071D01*
X5027048Y-25454167D01*
X5027048Y-25501786D01*
X5017524Y-25539881D01*
X5008000Y-25558928D01*
X4998476Y-25568452D01*
X4979429Y-25577976D01*
X4960381Y-25577976D01*
X4941333Y-25568452D01*
X4931810Y-25558928D01*
X4922286Y-25539881D01*
X4912762Y-25501786D01*
X4912762Y-25454167D01*
X4922286Y-25416071D01*
X4931810Y-25397024D01*
X4941333Y-25387500D01*
X4960381Y-25377976D01*
X5112762Y-25577976D02*
X5112762Y-25444643D01*
X5112762Y-25463690D02*
X5122286Y-25454167D01*
X5141333Y-25444643D01*
X5169905Y-25444643D01*
X5188952Y-25454167D01*
X5198476Y-25473214D01*
X5198476Y-25577976D01*
X5198476Y-25473214D02*
X5208000Y-25454167D01*
X5227048Y-25444643D01*
X5255619Y-25444643D01*
X5274667Y-25454167D01*
X5284190Y-25473214D01*
X5284190Y-25577976D01*
X5379429Y-25577976D02*
X5379429Y-25444643D01*
X5379429Y-25463690D02*
X5388952Y-25454167D01*
X5408000Y-25444643D01*
X5436571Y-25444643D01*
X5455619Y-25454167D01*
X5465143Y-25473214D01*
X5465143Y-25577976D01*
X5465143Y-25473214D02*
X5474667Y-25454167D01*
X5493714Y-25444643D01*
X5522286Y-25444643D01*
X5541333Y-25454167D01*
X5550857Y-25473214D01*
X5550857Y-25577976D01*
X5941333Y-25368452D02*
X5769905Y-25625595D01*
X6198476Y-25377976D02*
X6217524Y-25377976D01*
X6236571Y-25387500D01*
X6246095Y-25397024D01*
X6255619Y-25416071D01*
X6265143Y-25454167D01*
X6265143Y-25501786D01*
X6255619Y-25539881D01*
X6246095Y-25558928D01*
X6236571Y-25568452D01*
X6217524Y-25577976D01*
X6198476Y-25577976D01*
X6179428Y-25568452D01*
X6169905Y-25558928D01*
X6160381Y-25539881D01*
X6150857Y-25501786D01*
X6150857Y-25454167D01*
X6160381Y-25416071D01*
X6169905Y-25397024D01*
X6179428Y-25387500D01*
X6198476Y-25377976D01*
X6350857Y-25558928D02*
X6360381Y-25568452D01*
X6350857Y-25577976D01*
X6341333Y-25568452D01*
X6350857Y-25558928D01*
X6350857Y-25577976D01*
X6484190Y-25377976D02*
X6503238Y-25377976D01*
X6522286Y-25387500D01*
X6531809Y-25397024D01*
X6541333Y-25416071D01*
X6550857Y-25454167D01*
X6550857Y-25501786D01*
X6541333Y-25539881D01*
X6531809Y-25558928D01*
X6522286Y-25568452D01*
X6503238Y-25577976D01*
X6484190Y-25577976D01*
X6465143Y-25568452D01*
X6455619Y-25558928D01*
X6446095Y-25539881D01*
X6436571Y-25501786D01*
X6436571Y-25454167D01*
X6446095Y-25416071D01*
X6455619Y-25397024D01*
X6465143Y-25387500D01*
X6484190Y-25377976D01*
X6617524Y-25377976D02*
X6750857Y-25377976D01*
X6665143Y-25577976D01*
X6817524Y-25397024D02*
X6827048Y-25387500D01*
X6846095Y-25377976D01*
X6893714Y-25377976D01*
X6912762Y-25387500D01*
X6922286Y-25397024D01*
X6931809Y-25416071D01*
X6931809Y-25435119D01*
X6922286Y-25463690D01*
X6808000Y-25577976D01*
X6931809Y-25577976D01*
X7046095Y-25463690D02*
X7027048Y-25454167D01*
X7017524Y-25444643D01*
X7008000Y-25425595D01*
X7008000Y-25416071D01*
X7017524Y-25397024D01*
X7027048Y-25387500D01*
X7046095Y-25377976D01*
X7084190Y-25377976D01*
X7103238Y-25387500D01*
X7112762Y-25397024D01*
X7122286Y-25416071D01*
X7122286Y-25425595D01*
X7112762Y-25444643D01*
X7103238Y-25454167D01*
X7084190Y-25463690D01*
X7046095Y-25463690D01*
X7027048Y-25473214D01*
X7017524Y-25482738D01*
X7008000Y-25501786D01*
X7008000Y-25539881D01*
X7017524Y-25558928D01*
X7027048Y-25568452D01*
X7046095Y-25577976D01*
X7084190Y-25577976D01*
X7103238Y-25568452D01*
X7112762Y-25558928D01*
X7122286Y-25539881D01*
X7122286Y-25501786D01*
X7112762Y-25482738D01*
X7103238Y-25473214D01*
X7084190Y-25463690D01*
X7198476Y-25377976D02*
X7198476Y-25416071D01*
X7274667Y-25377976D02*
X7274667Y-25416071D01*
X7569905Y-25654167D02*
X7560381Y-25644643D01*
X7541333Y-25616071D01*
X7531809Y-25597024D01*
X7522286Y-25568452D01*
X7512762Y-25520833D01*
X7512762Y-25482738D01*
X7522286Y-25435119D01*
X7531809Y-25406548D01*
X7541333Y-25387500D01*
X7560381Y-25358928D01*
X7569905Y-25349405D01*
X7655619Y-25577976D02*
X7693714Y-25577976D01*
X7712762Y-25568452D01*
X7722286Y-25558928D01*
X7741333Y-25530357D01*
X7750857Y-25492262D01*
X7750857Y-25416071D01*
X7741333Y-25397024D01*
X7731809Y-25387500D01*
X7712762Y-25377976D01*
X7674667Y-25377976D01*
X7655619Y-25387500D01*
X7646095Y-25397024D01*
X7636571Y-25416071D01*
X7636571Y-25463690D01*
X7646095Y-25482738D01*
X7655619Y-25492262D01*
X7674667Y-25501786D01*
X7712762Y-25501786D01*
X7731809Y-25492262D01*
X7741333Y-25482738D01*
X7750857Y-25463690D01*
X7988952Y-25577976D02*
X7988952Y-25377976D01*
X8074667Y-25577976D02*
X8074667Y-25473214D01*
X8065143Y-25454167D01*
X8046095Y-25444643D01*
X8017524Y-25444643D01*
X7998476Y-25454167D01*
X7988952Y-25463690D01*
X8198476Y-25577976D02*
X8179428Y-25568452D01*
X8169905Y-25558928D01*
X8160381Y-25539881D01*
X8160381Y-25482738D01*
X8169905Y-25463690D01*
X8179428Y-25454167D01*
X8198476Y-25444643D01*
X8227048Y-25444643D01*
X8246095Y-25454167D01*
X8255619Y-25463690D01*
X8265143Y-25482738D01*
X8265143Y-25539881D01*
X8255619Y-25558928D01*
X8246095Y-25568452D01*
X8227048Y-25577976D01*
X8198476Y-25577976D01*
X8379428Y-25577976D02*
X8360381Y-25568452D01*
X8350857Y-25549405D01*
X8350857Y-25377976D01*
X8531810Y-25568452D02*
X8512762Y-25577976D01*
X8474667Y-25577976D01*
X8455619Y-25568452D01*
X8446095Y-25549405D01*
X8446095Y-25473214D01*
X8455619Y-25454167D01*
X8474667Y-25444643D01*
X8512762Y-25444643D01*
X8531810Y-25454167D01*
X8541333Y-25473214D01*
X8541333Y-25492262D01*
X8446095Y-25511309D01*
X8617524Y-25568452D02*
X8636571Y-25577976D01*
X8674667Y-25577976D01*
X8693714Y-25568452D01*
X8703238Y-25549405D01*
X8703238Y-25539881D01*
X8693714Y-25520833D01*
X8674667Y-25511309D01*
X8646095Y-25511309D01*
X8627048Y-25501786D01*
X8617524Y-25482738D01*
X8617524Y-25473214D01*
X8627048Y-25454167D01*
X8646095Y-25444643D01*
X8674667Y-25444643D01*
X8693714Y-25454167D01*
X8769905Y-25654167D02*
X8779429Y-25644643D01*
X8798476Y-25616071D01*
X8808000Y-25597024D01*
X8817524Y-25568452D01*
X8827048Y-25520833D01*
X8827048Y-25482738D01*
X8817524Y-25435119D01*
X8808000Y-25406548D01*
X8798476Y-25387500D01*
X8779429Y-25358928D01*
X8769905Y-25349405D01*
X3898000Y-25692500D02*
X3898000Y-25892500D01*
X3798000Y-25792500D02*
X3998000Y-25792500D01*
X3998000Y-25792500D02*
G75*
G03*
X3998000Y-25792500I-100000J0D01*
G01*
X4246095Y-25702024D02*
X4255619Y-25692500D01*
X4274667Y-25682976D01*
X4322286Y-25682976D01*
X4341333Y-25692500D01*
X4350857Y-25702024D01*
X4360381Y-25721071D01*
X4360381Y-25740119D01*
X4350857Y-25768690D01*
X4236571Y-25882976D01*
X4360381Y-25882976D01*
X4446095Y-25863928D02*
X4455619Y-25873452D01*
X4446095Y-25882976D01*
X4436571Y-25873452D01*
X4446095Y-25863928D01*
X4446095Y-25882976D01*
X4579429Y-25682976D02*
X4598476Y-25682976D01*
X4617524Y-25692500D01*
X4627048Y-25702024D01*
X4636571Y-25721071D01*
X4646095Y-25759167D01*
X4646095Y-25806786D01*
X4636571Y-25844881D01*
X4627048Y-25863928D01*
X4617524Y-25873452D01*
X4598476Y-25882976D01*
X4579429Y-25882976D01*
X4560381Y-25873452D01*
X4550857Y-25863928D01*
X4541333Y-25844881D01*
X4531810Y-25806786D01*
X4531810Y-25759167D01*
X4541333Y-25721071D01*
X4550857Y-25702024D01*
X4560381Y-25692500D01*
X4579429Y-25682976D01*
X4769905Y-25682976D02*
X4788952Y-25682976D01*
X4808000Y-25692500D01*
X4817524Y-25702024D01*
X4827048Y-25721071D01*
X4836571Y-25759167D01*
X4836571Y-25806786D01*
X4827048Y-25844881D01*
X4817524Y-25863928D01*
X4808000Y-25873452D01*
X4788952Y-25882976D01*
X4769905Y-25882976D01*
X4750857Y-25873452D01*
X4741333Y-25863928D01*
X4731810Y-25844881D01*
X4722286Y-25806786D01*
X4722286Y-25759167D01*
X4731810Y-25721071D01*
X4741333Y-25702024D01*
X4750857Y-25692500D01*
X4769905Y-25682976D01*
X4960381Y-25682976D02*
X4979429Y-25682976D01*
X4998476Y-25692500D01*
X5008000Y-25702024D01*
X5017524Y-25721071D01*
X5027048Y-25759167D01*
X5027048Y-25806786D01*
X5017524Y-25844881D01*
X5008000Y-25863928D01*
X4998476Y-25873452D01*
X4979429Y-25882976D01*
X4960381Y-25882976D01*
X4941333Y-25873452D01*
X4931810Y-25863928D01*
X4922286Y-25844881D01*
X4912762Y-25806786D01*
X4912762Y-25759167D01*
X4922286Y-25721071D01*
X4931810Y-25702024D01*
X4941333Y-25692500D01*
X4960381Y-25682976D01*
X5112762Y-25882976D02*
X5112762Y-25749643D01*
X5112762Y-25768690D02*
X5122286Y-25759167D01*
X5141333Y-25749643D01*
X5169905Y-25749643D01*
X5188952Y-25759167D01*
X5198476Y-25778214D01*
X5198476Y-25882976D01*
X5198476Y-25778214D02*
X5208000Y-25759167D01*
X5227048Y-25749643D01*
X5255619Y-25749643D01*
X5274667Y-25759167D01*
X5284190Y-25778214D01*
X5284190Y-25882976D01*
X5379429Y-25882976D02*
X5379429Y-25749643D01*
X5379429Y-25768690D02*
X5388952Y-25759167D01*
X5408000Y-25749643D01*
X5436571Y-25749643D01*
X5455619Y-25759167D01*
X5465143Y-25778214D01*
X5465143Y-25882976D01*
X5465143Y-25778214D02*
X5474667Y-25759167D01*
X5493714Y-25749643D01*
X5522286Y-25749643D01*
X5541333Y-25759167D01*
X5550857Y-25778214D01*
X5550857Y-25882976D01*
X5941333Y-25673452D02*
X5769905Y-25930595D01*
X6198476Y-25682976D02*
X6217524Y-25682976D01*
X6236571Y-25692500D01*
X6246095Y-25702024D01*
X6255619Y-25721071D01*
X6265143Y-25759167D01*
X6265143Y-25806786D01*
X6255619Y-25844881D01*
X6246095Y-25863928D01*
X6236571Y-25873452D01*
X6217524Y-25882976D01*
X6198476Y-25882976D01*
X6179428Y-25873452D01*
X6169905Y-25863928D01*
X6160381Y-25844881D01*
X6150857Y-25806786D01*
X6150857Y-25759167D01*
X6160381Y-25721071D01*
X6169905Y-25702024D01*
X6179428Y-25692500D01*
X6198476Y-25682976D01*
X6350857Y-25863928D02*
X6360381Y-25873452D01*
X6350857Y-25882976D01*
X6341333Y-25873452D01*
X6350857Y-25863928D01*
X6350857Y-25882976D01*
X6484190Y-25682976D02*
X6503238Y-25682976D01*
X6522286Y-25692500D01*
X6531809Y-25702024D01*
X6541333Y-25721071D01*
X6550857Y-25759167D01*
X6550857Y-25806786D01*
X6541333Y-25844881D01*
X6531809Y-25863928D01*
X6522286Y-25873452D01*
X6503238Y-25882976D01*
X6484190Y-25882976D01*
X6465143Y-25873452D01*
X6455619Y-25863928D01*
X6446095Y-25844881D01*
X6436571Y-25806786D01*
X6436571Y-25759167D01*
X6446095Y-25721071D01*
X6455619Y-25702024D01*
X6465143Y-25692500D01*
X6484190Y-25682976D01*
X6617524Y-25682976D02*
X6750857Y-25682976D01*
X6665143Y-25882976D01*
X6855619Y-25768690D02*
X6836571Y-25759167D01*
X6827048Y-25749643D01*
X6817524Y-25730595D01*
X6817524Y-25721071D01*
X6827048Y-25702024D01*
X6836571Y-25692500D01*
X6855619Y-25682976D01*
X6893714Y-25682976D01*
X6912762Y-25692500D01*
X6922286Y-25702024D01*
X6931809Y-25721071D01*
X6931809Y-25730595D01*
X6922286Y-25749643D01*
X6912762Y-25759167D01*
X6893714Y-25768690D01*
X6855619Y-25768690D01*
X6836571Y-25778214D01*
X6827048Y-25787738D01*
X6817524Y-25806786D01*
X6817524Y-25844881D01*
X6827048Y-25863928D01*
X6836571Y-25873452D01*
X6855619Y-25882976D01*
X6893714Y-25882976D01*
X6912762Y-25873452D01*
X6922286Y-25863928D01*
X6931809Y-25844881D01*
X6931809Y-25806786D01*
X6922286Y-25787738D01*
X6912762Y-25778214D01*
X6893714Y-25768690D01*
X6998476Y-25682976D02*
X7131809Y-25682976D01*
X7046095Y-25882976D01*
X7198476Y-25682976D02*
X7198476Y-25721071D01*
X7274667Y-25682976D02*
X7274667Y-25721071D01*
X7569905Y-25959167D02*
X7560381Y-25949643D01*
X7541333Y-25921071D01*
X7531809Y-25902024D01*
X7522286Y-25873452D01*
X7512762Y-25825833D01*
X7512762Y-25787738D01*
X7522286Y-25740119D01*
X7531809Y-25711548D01*
X7541333Y-25692500D01*
X7560381Y-25663928D01*
X7569905Y-25654405D01*
X7731809Y-25749643D02*
X7731809Y-25882976D01*
X7684190Y-25673452D02*
X7636571Y-25816309D01*
X7760381Y-25816309D01*
X7988952Y-25882976D02*
X7988952Y-25682976D01*
X8074667Y-25882976D02*
X8074667Y-25778214D01*
X8065143Y-25759167D01*
X8046095Y-25749643D01*
X8017524Y-25749643D01*
X7998476Y-25759167D01*
X7988952Y-25768690D01*
X8198476Y-25882976D02*
X8179428Y-25873452D01*
X8169905Y-25863928D01*
X8160381Y-25844881D01*
X8160381Y-25787738D01*
X8169905Y-25768690D01*
X8179428Y-25759167D01*
X8198476Y-25749643D01*
X8227048Y-25749643D01*
X8246095Y-25759167D01*
X8255619Y-25768690D01*
X8265143Y-25787738D01*
X8265143Y-25844881D01*
X8255619Y-25863928D01*
X8246095Y-25873452D01*
X8227048Y-25882976D01*
X8198476Y-25882976D01*
X8379428Y-25882976D02*
X8360381Y-25873452D01*
X8350857Y-25854405D01*
X8350857Y-25682976D01*
X8531810Y-25873452D02*
X8512762Y-25882976D01*
X8474667Y-25882976D01*
X8455619Y-25873452D01*
X8446095Y-25854405D01*
X8446095Y-25778214D01*
X8455619Y-25759167D01*
X8474667Y-25749643D01*
X8512762Y-25749643D01*
X8531810Y-25759167D01*
X8541333Y-25778214D01*
X8541333Y-25797262D01*
X8446095Y-25816309D01*
X8617524Y-25873452D02*
X8636571Y-25882976D01*
X8674667Y-25882976D01*
X8693714Y-25873452D01*
X8703238Y-25854405D01*
X8703238Y-25844881D01*
X8693714Y-25825833D01*
X8674667Y-25816309D01*
X8646095Y-25816309D01*
X8627048Y-25806786D01*
X8617524Y-25787738D01*
X8617524Y-25778214D01*
X8627048Y-25759167D01*
X8646095Y-25749643D01*
X8674667Y-25749643D01*
X8693714Y-25759167D01*
X8769905Y-25959167D02*
X8779429Y-25949643D01*
X8798476Y-25921071D01*
X8808000Y-25902024D01*
X8817524Y-25873452D01*
X8827048Y-25825833D01*
X8827048Y-25787738D01*
X8817524Y-25740119D01*
X8808000Y-25711548D01*
X8798476Y-25692500D01*
X8779429Y-25663928D01*
X8769905Y-25654405D01*
M02*
