G04 #@! TF.GenerationSoftware,KiCad,Pcbnew,6.0.5+dfsg-1~bpo11+1*
G04 #@! TF.CreationDate,2022-08-10T11:57:18+00:00*
G04 #@! TF.ProjectId,ribbon_pcb_panel,72696262-6f6e-45f7-9063-625f70616e65,0*
G04 #@! TF.SameCoordinates,Original*
G04 #@! TF.FileFunction,Legend,Top*
G04 #@! TF.FilePolarity,Positive*
%FSLAX46Y46*%
G04 Gerber Fmt 4.6, Leading zero omitted, Abs format (unit mm)*
G04 Created by KiCad (PCBNEW 6.0.5+dfsg-1~bpo11+1) date 2022-08-10 11:57:18*
%MOMM*%
%LPD*%
G01*
G04 APERTURE LIST*
%ADD10C,0.500000*%
%ADD11C,1.000000*%
%ADD12C,1.270000*%
%ADD13C,0.350000*%
%ADD14C,0.400000*%
%ADD15C,0.150000*%
%ADD16C,2.000000*%
G04 APERTURE END LIST*
D10*
X218440000Y-121920000D02*
X230538375Y-128905000D01*
X104140000Y-71120000D02*
X90170000Y-71120000D01*
X59690000Y-71120000D02*
X73660000Y-71120000D01*
D11*
X35814000Y-98298000D02*
X35814000Y-96012000D01*
D10*
X218440000Y-121920000D02*
X204470000Y-121920000D01*
X59690000Y-71120000D02*
X52705000Y-59021625D01*
X148590000Y-71120000D02*
X162560000Y-71120000D01*
X148590000Y-71120000D02*
X136491625Y-64135000D01*
D12*
X34925000Y-97154999D02*
X243204999Y-97155000D01*
D10*
X104140000Y-71120000D02*
X111125000Y-83218375D01*
X148590000Y-71120000D02*
X136491625Y-78105000D01*
X59690000Y-71120000D02*
X71788375Y-64135000D01*
D12*
X170180001Y-97155001D02*
G75*
G03*
X165735001Y-101600001I-1J-4444999D01*
G01*
D10*
X98425000Y-121920000D02*
X103505001Y-121919998D01*
X98425001Y-125094999D02*
X103505002Y-125094997D01*
X60325000Y-125095000D02*
X65405001Y-125094998D01*
D12*
X243204999Y-52070001D02*
G75*
G03*
X238759999Y-47625001I-4444999J1D01*
G01*
D10*
X148590000Y-71120000D02*
X141605000Y-59021625D01*
X193040000Y-71120000D02*
X205138375Y-78105000D01*
X60324999Y-121920001D02*
X65405000Y-121919999D01*
X104140000Y-71120000D02*
X118110000Y-71120000D01*
X79375000Y-121920000D02*
X84455001Y-121919998D01*
D12*
X39370000Y-47625000D02*
X238760000Y-47624999D01*
D11*
X242443000Y-98171000D02*
X242443000Y-95885000D01*
D10*
X148590000Y-71120000D02*
X134620000Y-71120000D01*
X218440000Y-121920000D02*
X211455000Y-109821625D01*
X79375000Y-118744999D02*
X84455001Y-118744997D01*
D12*
X165735000Y-146050000D02*
X165735000Y-97155000D01*
D10*
X60324999Y-118745000D02*
X65405000Y-118744998D01*
X104140000Y-71120000D02*
X104140000Y-57150000D01*
D11*
X166751000Y-98044000D02*
X164465000Y-98044000D01*
D10*
X148590000Y-71120000D02*
X155575000Y-83218375D01*
X59690000Y-71120000D02*
X47591625Y-78105000D01*
D12*
X34925000Y-92710000D02*
G75*
G03*
X39370000Y-97155000I4445000J0D01*
G01*
X243204999Y-142239999D02*
X243204999Y-52070001D01*
D10*
X148590000Y-71120000D02*
X160688375Y-64135000D01*
X59690000Y-71120000D02*
X45720000Y-71120000D01*
D12*
X34925001Y-142239999D02*
G75*
G03*
X39370001Y-146684999I4444999J-1D01*
G01*
X39370000Y-146685000D02*
X238760000Y-146684999D01*
D10*
X193040000Y-71120000D02*
X193040000Y-57150000D01*
X59690000Y-71120000D02*
X66675000Y-59021625D01*
X218440000Y-121920000D02*
X225425000Y-134018375D01*
X59690000Y-71120000D02*
X66675000Y-83218375D01*
X148590000Y-71120000D02*
X160688375Y-78105000D01*
D12*
X165734999Y-101600001D02*
G75*
G03*
X161289999Y-97155001I-4444999J1D01*
G01*
D10*
X218440000Y-121920000D02*
X232410000Y-121920000D01*
X148590000Y-71120000D02*
X148590000Y-57150000D01*
X59690000Y-71120000D02*
X52705000Y-83218375D01*
X104140000Y-71120000D02*
X116238375Y-64135000D01*
D12*
X34925001Y-142239999D02*
X34925000Y-52070000D01*
D10*
X193040000Y-71120000D02*
X186055000Y-59021625D01*
D12*
X238760000Y-97155000D02*
G75*
G03*
X243205000Y-92709999I0J4445000D01*
G01*
D10*
X104140000Y-71120000D02*
X116238375Y-78105000D01*
X104140000Y-71120000D02*
X111125000Y-59021625D01*
X218440000Y-121920000D02*
X211455000Y-134018375D01*
D12*
X243205001Y-101599999D02*
G75*
G03*
X238760000Y-97154999I-4445001J-1D01*
G01*
D10*
X104140000Y-71120000D02*
X92041625Y-64135000D01*
X104140000Y-71120000D02*
X97155000Y-59021625D01*
X218440000Y-121920000D02*
X225425000Y-109821625D01*
X193040000Y-71120000D02*
X207010000Y-71120000D01*
X193040000Y-71120000D02*
X179070000Y-71120000D01*
X59690000Y-71120000D02*
X71788375Y-78105000D01*
X193040000Y-71120000D02*
X180941625Y-64135000D01*
X59690000Y-71120000D02*
X59690000Y-57150000D01*
X59690000Y-71120000D02*
X47591625Y-64135000D01*
X218440000Y-121920000D02*
X218440000Y-107950000D01*
D12*
X238759999Y-146684999D02*
G75*
G03*
X243204999Y-142239999I1J4444999D01*
G01*
D10*
X98425000Y-118744999D02*
X103505001Y-118744997D01*
D12*
X161289999Y-146684999D02*
G75*
G03*
X165734999Y-142239999I1J4444999D01*
G01*
D10*
X104140000Y-71120000D02*
X92041625Y-78105000D01*
X148590000Y-71120000D02*
X155575000Y-59021625D01*
X193040000Y-71120000D02*
X180941625Y-78105000D01*
D11*
X166878000Y-145796000D02*
X164592000Y-145796000D01*
D10*
X193040000Y-71120000D02*
X200025000Y-83218375D01*
X148590000Y-71120000D02*
X141605000Y-83218375D01*
X193040000Y-71120000D02*
X200025000Y-59021625D01*
D12*
X165735001Y-142239999D02*
G75*
G03*
X170180001Y-146684999I4444999J-1D01*
G01*
D10*
X79375001Y-125094999D02*
X84455002Y-125094997D01*
X193040000Y-71120000D02*
X205138375Y-64135000D01*
X193040000Y-71120000D02*
X186055000Y-83218375D01*
X218440000Y-121920000D02*
X230538375Y-114935000D01*
D12*
X39370000Y-47625000D02*
G75*
G03*
X34925000Y-52070000I0J-4445000D01*
G01*
X39370000Y-97155000D02*
G75*
G03*
X34925000Y-101600000I0J-4445000D01*
G01*
D10*
X218440000Y-121920000D02*
X206341625Y-128905000D01*
X218440000Y-121920000D02*
X206341625Y-114935000D01*
X104140000Y-71120000D02*
X97155000Y-83218375D01*
D13*
X177809166Y-124616666D02*
X177809166Y-122866666D01*
X178809166Y-124616666D01*
X178809166Y-122866666D01*
X179975833Y-122866666D02*
X180309166Y-122866666D01*
X180475833Y-122950000D01*
X180642500Y-123116666D01*
X180725833Y-123450000D01*
X180725833Y-124033333D01*
X180642500Y-124366666D01*
X180475833Y-124533333D01*
X180309166Y-124616666D01*
X179975833Y-124616666D01*
X179809166Y-124533333D01*
X179642500Y-124366666D01*
X179559166Y-124033333D01*
X179559166Y-123450000D01*
X179642500Y-123116666D01*
X179809166Y-122950000D01*
X179975833Y-122866666D01*
X182475833Y-124616666D02*
X181892500Y-123783333D01*
X181475833Y-124616666D02*
X181475833Y-122866666D01*
X182142500Y-122866666D01*
X182309166Y-122950000D01*
X182392500Y-123033333D01*
X182475833Y-123200000D01*
X182475833Y-123450000D01*
X182392500Y-123616666D01*
X182309166Y-123700000D01*
X182142500Y-123783333D01*
X181475833Y-123783333D01*
X183225833Y-124616666D02*
X183225833Y-122866666D01*
X183809166Y-124116666D01*
X184392500Y-122866666D01*
X184392500Y-124616666D01*
X185142500Y-124116666D02*
X185975833Y-124116666D01*
X184975833Y-124616666D02*
X185559166Y-122866666D01*
X186142500Y-124616666D01*
X187559166Y-124616666D02*
X186725833Y-124616666D01*
X186725833Y-122866666D01*
X224747500Y-72900000D02*
X224997500Y-72983333D01*
X225080833Y-73066666D01*
X225164166Y-73233333D01*
X225164166Y-73483333D01*
X225080833Y-73650000D01*
X224997500Y-73733333D01*
X224830833Y-73816666D01*
X224164166Y-73816666D01*
X224164166Y-72066666D01*
X224747500Y-72066666D01*
X224914166Y-72150000D01*
X224997500Y-72233333D01*
X225080833Y-72400000D01*
X225080833Y-72566666D01*
X224997500Y-72733333D01*
X224914166Y-72816666D01*
X224747500Y-72900000D01*
X224164166Y-72900000D01*
X225914166Y-72900000D02*
X226497500Y-72900000D01*
X226747500Y-73816666D02*
X225914166Y-73816666D01*
X225914166Y-72066666D01*
X226747500Y-72066666D01*
X227497500Y-73816666D02*
X227497500Y-72066666D01*
X228497500Y-73816666D01*
X228497500Y-72066666D01*
X229330833Y-73816666D02*
X229330833Y-72066666D01*
X229747500Y-72066666D01*
X229997500Y-72150000D01*
X230164166Y-72316666D01*
X230247500Y-72483333D01*
X230330833Y-72816666D01*
X230330833Y-73066666D01*
X230247500Y-73400000D01*
X230164166Y-73566666D01*
X229997500Y-73733333D01*
X229747500Y-73816666D01*
X229330833Y-73816666D01*
D14*
X85344761Y-129079761D02*
X86011428Y-131079761D01*
X86678095Y-129079761D01*
X88487619Y-130889285D02*
X88392380Y-130984523D01*
X88106666Y-131079761D01*
X87916190Y-131079761D01*
X87630476Y-130984523D01*
X87440000Y-130794047D01*
X87344761Y-130603571D01*
X87249523Y-130222619D01*
X87249523Y-129936904D01*
X87344761Y-129555952D01*
X87440000Y-129365476D01*
X87630476Y-129175000D01*
X87916190Y-129079761D01*
X88106666Y-129079761D01*
X88392380Y-129175000D01*
X88487619Y-129270238D01*
X89249523Y-130508333D02*
X90201904Y-130508333D01*
X89059047Y-131079761D02*
X89725714Y-129079761D01*
X90392380Y-131079761D01*
X92582857Y-130032142D02*
X93249523Y-130032142D01*
X93535238Y-131079761D02*
X92582857Y-131079761D01*
X92582857Y-129079761D01*
X93535238Y-129079761D01*
X94392380Y-131079761D02*
X94392380Y-129079761D01*
X95535238Y-131079761D01*
X95535238Y-129079761D01*
X96201904Y-129079761D02*
X96868571Y-131079761D01*
X97535238Y-129079761D01*
D13*
X177809166Y-120806666D02*
X177809166Y-119056666D01*
X178225833Y-119056666D01*
X178475833Y-119140000D01*
X178642500Y-119306666D01*
X178725833Y-119473333D01*
X178809166Y-119806666D01*
X178809166Y-120056666D01*
X178725833Y-120390000D01*
X178642500Y-120556666D01*
X178475833Y-120723333D01*
X178225833Y-120806666D01*
X177809166Y-120806666D01*
X180559166Y-120806666D02*
X179975833Y-119973333D01*
X179559166Y-120806666D02*
X179559166Y-119056666D01*
X180225833Y-119056666D01*
X180392500Y-119140000D01*
X180475833Y-119223333D01*
X180559166Y-119390000D01*
X180559166Y-119640000D01*
X180475833Y-119806666D01*
X180392500Y-119890000D01*
X180225833Y-119973333D01*
X179559166Y-119973333D01*
X181642500Y-119056666D02*
X181975833Y-119056666D01*
X182142500Y-119140000D01*
X182309166Y-119306666D01*
X182392500Y-119640000D01*
X182392500Y-120223333D01*
X182309166Y-120556666D01*
X182142500Y-120723333D01*
X181975833Y-120806666D01*
X181642500Y-120806666D01*
X181475833Y-120723333D01*
X181309166Y-120556666D01*
X181225833Y-120223333D01*
X181225833Y-119640000D01*
X181309166Y-119306666D01*
X181475833Y-119140000D01*
X181642500Y-119056666D01*
X183142500Y-120806666D02*
X183142500Y-119056666D01*
X184142500Y-120806666D01*
X184142500Y-119056666D01*
X184975833Y-119890000D02*
X185559166Y-119890000D01*
X185809166Y-120806666D02*
X184975833Y-120806666D01*
X184975833Y-119056666D01*
X185809166Y-119056666D01*
X38474166Y-119536666D02*
X37890833Y-118703333D01*
X37474166Y-119536666D02*
X37474166Y-117786666D01*
X38140833Y-117786666D01*
X38307500Y-117870000D01*
X38390833Y-117953333D01*
X38474166Y-118120000D01*
X38474166Y-118370000D01*
X38390833Y-118536666D01*
X38307500Y-118620000D01*
X38140833Y-118703333D01*
X37474166Y-118703333D01*
X39224166Y-119536666D02*
X39224166Y-117786666D01*
X40640833Y-118620000D02*
X40890833Y-118703333D01*
X40974166Y-118786666D01*
X41057500Y-118953333D01*
X41057500Y-119203333D01*
X40974166Y-119370000D01*
X40890833Y-119453333D01*
X40724166Y-119536666D01*
X40057500Y-119536666D01*
X40057500Y-117786666D01*
X40640833Y-117786666D01*
X40807500Y-117870000D01*
X40890833Y-117953333D01*
X40974166Y-118120000D01*
X40974166Y-118286666D01*
X40890833Y-118453333D01*
X40807500Y-118536666D01*
X40640833Y-118620000D01*
X40057500Y-118620000D01*
X42390833Y-118620000D02*
X42640833Y-118703333D01*
X42724166Y-118786666D01*
X42807500Y-118953333D01*
X42807500Y-119203333D01*
X42724166Y-119370000D01*
X42640833Y-119453333D01*
X42474166Y-119536666D01*
X41807500Y-119536666D01*
X41807500Y-117786666D01*
X42390833Y-117786666D01*
X42557500Y-117870000D01*
X42640833Y-117953333D01*
X42724166Y-118120000D01*
X42724166Y-118286666D01*
X42640833Y-118453333D01*
X42557500Y-118536666D01*
X42390833Y-118620000D01*
X41807500Y-118620000D01*
X43890833Y-117786666D02*
X44224166Y-117786666D01*
X44390833Y-117870000D01*
X44557500Y-118036666D01*
X44640833Y-118370000D01*
X44640833Y-118953333D01*
X44557500Y-119286666D01*
X44390833Y-119453333D01*
X44224166Y-119536666D01*
X43890833Y-119536666D01*
X43724166Y-119453333D01*
X43557500Y-119286666D01*
X43474166Y-118953333D01*
X43474166Y-118370000D01*
X43557500Y-118036666D01*
X43724166Y-117870000D01*
X43890833Y-117786666D01*
X45390833Y-119536666D02*
X45390833Y-117786666D01*
X46390833Y-119536666D01*
X46390833Y-117786666D01*
X224080833Y-69923333D02*
X224330833Y-70006666D01*
X224747500Y-70006666D01*
X224914166Y-69923333D01*
X224997500Y-69840000D01*
X225080833Y-69673333D01*
X225080833Y-69506666D01*
X224997500Y-69340000D01*
X224914166Y-69256666D01*
X224747500Y-69173333D01*
X224414166Y-69090000D01*
X224247500Y-69006666D01*
X224164166Y-68923333D01*
X224080833Y-68756666D01*
X224080833Y-68590000D01*
X224164166Y-68423333D01*
X224247500Y-68340000D01*
X224414166Y-68256666D01*
X224830833Y-68256666D01*
X225080833Y-68340000D01*
X226664166Y-70006666D02*
X225830833Y-70006666D01*
X225830833Y-68256666D01*
X227247500Y-70006666D02*
X227247500Y-68256666D01*
X228080833Y-70006666D02*
X228080833Y-68256666D01*
X228497500Y-68256666D01*
X228747500Y-68340000D01*
X228914166Y-68506666D01*
X228997500Y-68673333D01*
X229080833Y-69006666D01*
X229080833Y-69256666D01*
X228997500Y-69590000D01*
X228914166Y-69756666D01*
X228747500Y-69923333D01*
X228497500Y-70006666D01*
X228080833Y-70006666D01*
X229830833Y-69090000D02*
X230414166Y-69090000D01*
X230664166Y-70006666D02*
X229830833Y-70006666D01*
X229830833Y-68256666D01*
X230664166Y-68256666D01*
D14*
X209630476Y-80279761D02*
X208963809Y-79327380D01*
X208487619Y-80279761D02*
X208487619Y-78279761D01*
X209249523Y-78279761D01*
X209440000Y-78375000D01*
X209535238Y-78470238D01*
X209630476Y-78660714D01*
X209630476Y-78946428D01*
X209535238Y-79136904D01*
X209440000Y-79232142D01*
X209249523Y-79327380D01*
X208487619Y-79327380D01*
X210487619Y-80279761D02*
X210487619Y-78279761D01*
X212106666Y-79232142D02*
X212392380Y-79327380D01*
X212487619Y-79422619D01*
X212582857Y-79613095D01*
X212582857Y-79898809D01*
X212487619Y-80089285D01*
X212392380Y-80184523D01*
X212201904Y-80279761D01*
X211440000Y-80279761D01*
X211440000Y-78279761D01*
X212106666Y-78279761D01*
X212297142Y-78375000D01*
X212392380Y-78470238D01*
X212487619Y-78660714D01*
X212487619Y-78851190D01*
X212392380Y-79041666D01*
X212297142Y-79136904D01*
X212106666Y-79232142D01*
X211440000Y-79232142D01*
X214106666Y-79232142D02*
X214392380Y-79327380D01*
X214487619Y-79422619D01*
X214582857Y-79613095D01*
X214582857Y-79898809D01*
X214487619Y-80089285D01*
X214392380Y-80184523D01*
X214201904Y-80279761D01*
X213440000Y-80279761D01*
X213440000Y-78279761D01*
X214106666Y-78279761D01*
X214297142Y-78375000D01*
X214392380Y-78470238D01*
X214487619Y-78660714D01*
X214487619Y-78851190D01*
X214392380Y-79041666D01*
X214297142Y-79136904D01*
X214106666Y-79232142D01*
X213440000Y-79232142D01*
X215820952Y-78279761D02*
X216201904Y-78279761D01*
X216392380Y-78375000D01*
X216582857Y-78565476D01*
X216678095Y-78946428D01*
X216678095Y-79613095D01*
X216582857Y-79994047D01*
X216392380Y-80184523D01*
X216201904Y-80279761D01*
X215820952Y-80279761D01*
X215630476Y-80184523D01*
X215440000Y-79994047D01*
X215344761Y-79613095D01*
X215344761Y-78946428D01*
X215440000Y-78565476D01*
X215630476Y-78375000D01*
X215820952Y-78279761D01*
X217535238Y-80279761D02*
X217535238Y-78279761D01*
X218678095Y-80279761D01*
X218678095Y-78279761D01*
X221154285Y-80279761D02*
X221154285Y-78279761D01*
X221820952Y-79708333D01*
X222487619Y-78279761D01*
X222487619Y-80279761D01*
X223820952Y-78279761D02*
X224201904Y-78279761D01*
X224392380Y-78375000D01*
X224582857Y-78565476D01*
X224678095Y-78946428D01*
X224678095Y-79613095D01*
X224582857Y-79994047D01*
X224392380Y-80184523D01*
X224201904Y-80279761D01*
X223820952Y-80279761D01*
X223630476Y-80184523D01*
X223440000Y-79994047D01*
X223344761Y-79613095D01*
X223344761Y-78946428D01*
X223440000Y-78565476D01*
X223630476Y-78375000D01*
X223820952Y-78279761D01*
X225535238Y-80279761D02*
X225535238Y-78279761D01*
X226011428Y-78279761D01*
X226297142Y-78375000D01*
X226487619Y-78565476D01*
X226582857Y-78755952D01*
X226678095Y-79136904D01*
X226678095Y-79422619D01*
X226582857Y-79803571D01*
X226487619Y-79994047D01*
X226297142Y-80184523D01*
X226011428Y-80279761D01*
X225535238Y-80279761D01*
X227535238Y-79232142D02*
X228201904Y-79232142D01*
X228487619Y-80279761D02*
X227535238Y-80279761D01*
X227535238Y-78279761D01*
X228487619Y-78279761D01*
D13*
X141614166Y-124616666D02*
X141614166Y-122866666D01*
X142280833Y-122866666D01*
X142447500Y-122950000D01*
X142530833Y-123033333D01*
X142614166Y-123200000D01*
X142614166Y-123450000D01*
X142530833Y-123616666D01*
X142447500Y-123700000D01*
X142280833Y-123783333D01*
X141614166Y-123783333D01*
X143197500Y-122866666D02*
X143614166Y-124616666D01*
X143947500Y-123366666D01*
X144280833Y-124616666D01*
X144697500Y-122866666D01*
X145364166Y-124616666D02*
X145364166Y-122866666D01*
X145947500Y-124116666D01*
X146530833Y-122866666D01*
X146530833Y-124616666D01*
X149530833Y-124616666D02*
X148697500Y-124616666D01*
X148697500Y-122866666D01*
X150697500Y-123700000D02*
X150114166Y-123700000D01*
X150114166Y-124616666D02*
X150114166Y-122866666D01*
X150947500Y-122866666D01*
X151947500Y-122866666D02*
X152280833Y-122866666D01*
X152447500Y-122950000D01*
X152614166Y-123116666D01*
X152697500Y-123450000D01*
X152697500Y-124033333D01*
X152614166Y-124366666D01*
X152447500Y-124533333D01*
X152280833Y-124616666D01*
X151947500Y-124616666D01*
X151780833Y-124533333D01*
X151614166Y-124366666D01*
X151530833Y-124033333D01*
X151530833Y-123450000D01*
X151614166Y-123116666D01*
X151780833Y-122950000D01*
X151947500Y-122866666D01*
D14*
X184944761Y-87490952D02*
X184944761Y-84990952D01*
X185778095Y-86776666D01*
X186611428Y-84990952D01*
X186611428Y-87490952D01*
X188278095Y-84990952D02*
X188754285Y-84990952D01*
X188992380Y-85110000D01*
X189230476Y-85348095D01*
X189349523Y-85824285D01*
X189349523Y-86657619D01*
X189230476Y-87133809D01*
X188992380Y-87371904D01*
X188754285Y-87490952D01*
X188278095Y-87490952D01*
X188040000Y-87371904D01*
X187801904Y-87133809D01*
X187682857Y-86657619D01*
X187682857Y-85824285D01*
X187801904Y-85348095D01*
X188040000Y-85110000D01*
X188278095Y-84990952D01*
X190420952Y-87490952D02*
X190420952Y-84990952D01*
X191016190Y-84990952D01*
X191373333Y-85110000D01*
X191611428Y-85348095D01*
X191730476Y-85586190D01*
X191849523Y-86062380D01*
X191849523Y-86419523D01*
X191730476Y-86895714D01*
X191611428Y-87133809D01*
X191373333Y-87371904D01*
X191016190Y-87490952D01*
X190420952Y-87490952D01*
X195301904Y-84990952D02*
X195778095Y-84990952D01*
X196016190Y-85110000D01*
X196254285Y-85348095D01*
X196373333Y-85824285D01*
X196373333Y-86657619D01*
X196254285Y-87133809D01*
X196016190Y-87371904D01*
X195778095Y-87490952D01*
X195301904Y-87490952D01*
X195063809Y-87371904D01*
X194825714Y-87133809D01*
X194706666Y-86657619D01*
X194706666Y-85824285D01*
X194825714Y-85348095D01*
X195063809Y-85110000D01*
X195301904Y-84990952D01*
X197325714Y-87371904D02*
X197682857Y-87490952D01*
X198278095Y-87490952D01*
X198516190Y-87371904D01*
X198635238Y-87252857D01*
X198754285Y-87014761D01*
X198754285Y-86776666D01*
X198635238Y-86538571D01*
X198516190Y-86419523D01*
X198278095Y-86300476D01*
X197801904Y-86181428D01*
X197563809Y-86062380D01*
X197444761Y-85943333D01*
X197325714Y-85705238D01*
X197325714Y-85467142D01*
X197444761Y-85229047D01*
X197563809Y-85110000D01*
X197801904Y-84990952D01*
X198397142Y-84990952D01*
X198754285Y-85110000D01*
X201254285Y-87252857D02*
X201135238Y-87371904D01*
X200778095Y-87490952D01*
X200540000Y-87490952D01*
X200182857Y-87371904D01*
X199944761Y-87133809D01*
X199825714Y-86895714D01*
X199706666Y-86419523D01*
X199706666Y-86062380D01*
X199825714Y-85586190D01*
X199944761Y-85348095D01*
X200182857Y-85110000D01*
X200540000Y-84990952D01*
X200778095Y-84990952D01*
X201135238Y-85110000D01*
X201254285Y-85229047D01*
D13*
X38057500Y-121795000D02*
X38307500Y-121878333D01*
X38390833Y-121961666D01*
X38474166Y-122128333D01*
X38474166Y-122378333D01*
X38390833Y-122545000D01*
X38307500Y-122628333D01*
X38140833Y-122711666D01*
X37474166Y-122711666D01*
X37474166Y-120961666D01*
X38057500Y-120961666D01*
X38224166Y-121045000D01*
X38307500Y-121128333D01*
X38390833Y-121295000D01*
X38390833Y-121461666D01*
X38307500Y-121628333D01*
X38224166Y-121711666D01*
X38057500Y-121795000D01*
X37474166Y-121795000D01*
X39557500Y-120961666D02*
X39890833Y-120961666D01*
X40057500Y-121045000D01*
X40224166Y-121211666D01*
X40307500Y-121545000D01*
X40307500Y-122128333D01*
X40224166Y-122461666D01*
X40057500Y-122628333D01*
X39890833Y-122711666D01*
X39557500Y-122711666D01*
X39390833Y-122628333D01*
X39224166Y-122461666D01*
X39140833Y-122128333D01*
X39140833Y-121545000D01*
X39224166Y-121211666D01*
X39390833Y-121045000D01*
X39557500Y-120961666D01*
X40807500Y-120961666D02*
X41807500Y-120961666D01*
X41307500Y-122711666D02*
X41307500Y-120961666D01*
X42390833Y-122711666D02*
X42390833Y-120961666D01*
X42390833Y-121795000D02*
X43390833Y-121795000D01*
X43390833Y-122711666D02*
X43390833Y-120961666D01*
D14*
X66294761Y-129079761D02*
X66961428Y-131079761D01*
X67628095Y-129079761D01*
X69437619Y-130889285D02*
X69342380Y-130984523D01*
X69056666Y-131079761D01*
X68866190Y-131079761D01*
X68580476Y-130984523D01*
X68390000Y-130794047D01*
X68294761Y-130603571D01*
X68199523Y-130222619D01*
X68199523Y-129936904D01*
X68294761Y-129555952D01*
X68390000Y-129365476D01*
X68580476Y-129175000D01*
X68866190Y-129079761D01*
X69056666Y-129079761D01*
X69342380Y-129175000D01*
X69437619Y-129270238D01*
X70961428Y-130032142D02*
X70294761Y-130032142D01*
X70294761Y-131079761D02*
X70294761Y-129079761D01*
X71247142Y-129079761D01*
X73532857Y-130032142D02*
X74199523Y-130032142D01*
X74485238Y-131079761D02*
X73532857Y-131079761D01*
X73532857Y-129079761D01*
X74485238Y-129079761D01*
X75342380Y-131079761D02*
X75342380Y-129079761D01*
X76485238Y-131079761D01*
X76485238Y-129079761D01*
X77151904Y-129079761D02*
X77818571Y-131079761D01*
X78485238Y-129079761D01*
D13*
X37390833Y-125386666D02*
X38224166Y-125386666D01*
X37224166Y-125886666D02*
X37807500Y-124136666D01*
X38390833Y-125886666D01*
X38974166Y-124136666D02*
X38974166Y-125553333D01*
X39057500Y-125720000D01*
X39140833Y-125803333D01*
X39307500Y-125886666D01*
X39640833Y-125886666D01*
X39807500Y-125803333D01*
X39890833Y-125720000D01*
X39974166Y-125553333D01*
X39974166Y-124136666D01*
X40557500Y-124136666D02*
X41557500Y-124136666D01*
X41057500Y-125886666D02*
X41057500Y-124136666D01*
X42474166Y-124136666D02*
X42807500Y-124136666D01*
X42974166Y-124220000D01*
X43140833Y-124386666D01*
X43224166Y-124720000D01*
X43224166Y-125303333D01*
X43140833Y-125636666D01*
X42974166Y-125803333D01*
X42807500Y-125886666D01*
X42474166Y-125886666D01*
X42307500Y-125803333D01*
X42140833Y-125636666D01*
X42057500Y-125303333D01*
X42057500Y-124720000D01*
X42140833Y-124386666D01*
X42307500Y-124220000D01*
X42474166Y-124136666D01*
D14*
X121080476Y-130508333D02*
X122032857Y-130508333D01*
X120890000Y-131079761D02*
X121556666Y-129079761D01*
X122223333Y-131079761D01*
X122890000Y-129079761D02*
X122890000Y-130698809D01*
X122985238Y-130889285D01*
X123080476Y-130984523D01*
X123270952Y-131079761D01*
X123651904Y-131079761D01*
X123842380Y-130984523D01*
X123937619Y-130889285D01*
X124032857Y-130698809D01*
X124032857Y-129079761D01*
X124699523Y-129079761D02*
X125842380Y-129079761D01*
X125270952Y-131079761D02*
X125270952Y-129079761D01*
X126890000Y-129079761D02*
X127270952Y-129079761D01*
X127461428Y-129175000D01*
X127651904Y-129365476D01*
X127747142Y-129746428D01*
X127747142Y-130413095D01*
X127651904Y-130794047D01*
X127461428Y-130984523D01*
X127270952Y-131079761D01*
X126890000Y-131079761D01*
X126699523Y-130984523D01*
X126509047Y-130794047D01*
X126413809Y-130413095D01*
X126413809Y-129746428D01*
X126509047Y-129365476D01*
X126699523Y-129175000D01*
X126890000Y-129079761D01*
X128604285Y-130317857D02*
X130128095Y-130317857D01*
X132128095Y-129175000D02*
X131937619Y-129079761D01*
X131651904Y-129079761D01*
X131366190Y-129175000D01*
X131175714Y-129365476D01*
X131080476Y-129555952D01*
X130985238Y-129936904D01*
X130985238Y-130222619D01*
X131080476Y-130603571D01*
X131175714Y-130794047D01*
X131366190Y-130984523D01*
X131651904Y-131079761D01*
X131842380Y-131079761D01*
X132128095Y-130984523D01*
X132223333Y-130889285D01*
X132223333Y-130222619D01*
X131842380Y-130222619D01*
X132985238Y-130508333D02*
X133937619Y-130508333D01*
X132794761Y-131079761D02*
X133461428Y-129079761D01*
X134128095Y-131079761D01*
X134509047Y-129079761D02*
X135651904Y-129079761D01*
X135080476Y-131079761D02*
X135080476Y-129079761D01*
X136318571Y-130032142D02*
X136985238Y-130032142D01*
X137270952Y-131079761D02*
X136318571Y-131079761D01*
X136318571Y-129079761D01*
X137270952Y-129079761D01*
X139556666Y-130984523D02*
X139842380Y-131079761D01*
X140318571Y-131079761D01*
X140509047Y-130984523D01*
X140604285Y-130889285D01*
X140699523Y-130698809D01*
X140699523Y-130508333D01*
X140604285Y-130317857D01*
X140509047Y-130222619D01*
X140318571Y-130127380D01*
X139937619Y-130032142D01*
X139747142Y-129936904D01*
X139651904Y-129841666D01*
X139556666Y-129651190D01*
X139556666Y-129460714D01*
X139651904Y-129270238D01*
X139747142Y-129175000D01*
X139937619Y-129079761D01*
X140413809Y-129079761D01*
X140699523Y-129175000D01*
X141937619Y-129079761D02*
X142318571Y-129079761D01*
X142509047Y-129175000D01*
X142699523Y-129365476D01*
X142794761Y-129746428D01*
X142794761Y-130413095D01*
X142699523Y-130794047D01*
X142509047Y-130984523D01*
X142318571Y-131079761D01*
X141937619Y-131079761D01*
X141747142Y-130984523D01*
X141556666Y-130794047D01*
X141461428Y-130413095D01*
X141461428Y-129746428D01*
X141556666Y-129365476D01*
X141747142Y-129175000D01*
X141937619Y-129079761D01*
X143651904Y-129079761D02*
X143651904Y-130698809D01*
X143747142Y-130889285D01*
X143842380Y-130984523D01*
X144032857Y-131079761D01*
X144413809Y-131079761D01*
X144604285Y-130984523D01*
X144699523Y-130889285D01*
X144794761Y-130698809D01*
X144794761Y-129079761D01*
X146890000Y-131079761D02*
X146223333Y-130127380D01*
X145747142Y-131079761D02*
X145747142Y-129079761D01*
X146509047Y-129079761D01*
X146699523Y-129175000D01*
X146794761Y-129270238D01*
X146890000Y-129460714D01*
X146890000Y-129746428D01*
X146794761Y-129936904D01*
X146699523Y-130032142D01*
X146509047Y-130127380D01*
X145747142Y-130127380D01*
X148890000Y-130889285D02*
X148794761Y-130984523D01*
X148509047Y-131079761D01*
X148318571Y-131079761D01*
X148032857Y-130984523D01*
X147842380Y-130794047D01*
X147747142Y-130603571D01*
X147651904Y-130222619D01*
X147651904Y-129936904D01*
X147747142Y-129555952D01*
X147842380Y-129365476D01*
X148032857Y-129175000D01*
X148318571Y-129079761D01*
X148509047Y-129079761D01*
X148794761Y-129175000D01*
X148890000Y-129270238D01*
X149747142Y-130032142D02*
X150413809Y-130032142D01*
X150699523Y-131079761D02*
X149747142Y-131079761D01*
X149747142Y-129079761D01*
X150699523Y-129079761D01*
X47054285Y-131079761D02*
X47054285Y-129079761D01*
X47720952Y-130508333D01*
X48387619Y-129079761D01*
X48387619Y-131079761D01*
X49720952Y-129079761D02*
X50101904Y-129079761D01*
X50292380Y-129175000D01*
X50482857Y-129365476D01*
X50578095Y-129746428D01*
X50578095Y-130413095D01*
X50482857Y-130794047D01*
X50292380Y-130984523D01*
X50101904Y-131079761D01*
X49720952Y-131079761D01*
X49530476Y-130984523D01*
X49340000Y-130794047D01*
X49244761Y-130413095D01*
X49244761Y-129746428D01*
X49340000Y-129365476D01*
X49530476Y-129175000D01*
X49720952Y-129079761D01*
X51435238Y-131079761D02*
X51435238Y-129079761D01*
X51911428Y-129079761D01*
X52197142Y-129175000D01*
X52387619Y-129365476D01*
X52482857Y-129555952D01*
X52578095Y-129936904D01*
X52578095Y-130222619D01*
X52482857Y-130603571D01*
X52387619Y-130794047D01*
X52197142Y-130984523D01*
X51911428Y-131079761D01*
X51435238Y-131079761D01*
X54959047Y-130032142D02*
X55625714Y-130032142D01*
X55911428Y-131079761D02*
X54959047Y-131079761D01*
X54959047Y-129079761D01*
X55911428Y-129079761D01*
X56768571Y-131079761D02*
X56768571Y-129079761D01*
X57911428Y-131079761D01*
X57911428Y-129079761D01*
X58578095Y-129079761D02*
X59244761Y-131079761D01*
X59911428Y-129079761D01*
X143232857Y-84990952D02*
X144066190Y-87490952D01*
X144899523Y-84990952D01*
X147161428Y-87252857D02*
X147042380Y-87371904D01*
X146685238Y-87490952D01*
X146447142Y-87490952D01*
X146090000Y-87371904D01*
X145851904Y-87133809D01*
X145732857Y-86895714D01*
X145613809Y-86419523D01*
X145613809Y-86062380D01*
X145732857Y-85586190D01*
X145851904Y-85348095D01*
X146090000Y-85110000D01*
X146447142Y-84990952D01*
X146685238Y-84990952D01*
X147042380Y-85110000D01*
X147161428Y-85229047D01*
X149066190Y-86181428D02*
X148232857Y-86181428D01*
X148232857Y-87490952D02*
X148232857Y-84990952D01*
X149423333Y-84990952D01*
X153113809Y-86181428D02*
X153470952Y-86300476D01*
X153590000Y-86419523D01*
X153709047Y-86657619D01*
X153709047Y-87014761D01*
X153590000Y-87252857D01*
X153470952Y-87371904D01*
X153232857Y-87490952D01*
X152280476Y-87490952D01*
X152280476Y-84990952D01*
X153113809Y-84990952D01*
X153351904Y-85110000D01*
X153470952Y-85229047D01*
X153590000Y-85467142D01*
X153590000Y-85705238D01*
X153470952Y-85943333D01*
X153351904Y-86062380D01*
X153113809Y-86181428D01*
X152280476Y-86181428D01*
X185656800Y-129048991D02*
X186323467Y-131048991D01*
X186990133Y-129048991D01*
X188799657Y-130858515D02*
X188704419Y-130953753D01*
X188418705Y-131048991D01*
X188228229Y-131048991D01*
X187942514Y-130953753D01*
X187752038Y-130763277D01*
X187656800Y-130572801D01*
X187561562Y-130191849D01*
X187561562Y-129906134D01*
X187656800Y-129525182D01*
X187752038Y-129334706D01*
X187942514Y-129144230D01*
X188228229Y-129048991D01*
X188418705Y-129048991D01*
X188704419Y-129144230D01*
X188799657Y-129239468D01*
X189561562Y-130477563D02*
X190513943Y-130477563D01*
X189371086Y-131048991D02*
X190037753Y-129048991D01*
X190704419Y-131048991D01*
X192894895Y-131048991D02*
X192894895Y-129048991D01*
X193561562Y-130477563D01*
X194228229Y-129048991D01*
X194228229Y-131048991D01*
X195561562Y-129048991D02*
X195942514Y-129048991D01*
X196132991Y-129144230D01*
X196323467Y-129334706D01*
X196418705Y-129715658D01*
X196418705Y-130382325D01*
X196323467Y-130763277D01*
X196132991Y-130953753D01*
X195942514Y-131048991D01*
X195561562Y-131048991D01*
X195371086Y-130953753D01*
X195180610Y-130763277D01*
X195085372Y-130382325D01*
X195085372Y-129715658D01*
X195180610Y-129334706D01*
X195371086Y-129144230D01*
X195561562Y-129048991D01*
X197275848Y-131048991D02*
X197275848Y-129048991D01*
X197752038Y-129048991D01*
X198037753Y-129144230D01*
X198228229Y-129334706D01*
X198323467Y-129525182D01*
X198418705Y-129906134D01*
X198418705Y-130191849D01*
X198323467Y-130572801D01*
X198228229Y-130763277D01*
X198037753Y-130953753D01*
X197752038Y-131048991D01*
X197275848Y-131048991D01*
X199275848Y-130001372D02*
X199942514Y-130001372D01*
X200228229Y-131048991D02*
X199275848Y-131048991D01*
X199275848Y-129048991D01*
X200228229Y-129048991D01*
D13*
X141614166Y-120806666D02*
X141614166Y-119056666D01*
X142197500Y-120306666D01*
X142780833Y-119056666D01*
X142780833Y-120806666D01*
X143947500Y-119056666D02*
X144280833Y-119056666D01*
X144447500Y-119140000D01*
X144614166Y-119306666D01*
X144697500Y-119640000D01*
X144697500Y-120223333D01*
X144614166Y-120556666D01*
X144447500Y-120723333D01*
X144280833Y-120806666D01*
X143947500Y-120806666D01*
X143780833Y-120723333D01*
X143614166Y-120556666D01*
X143530833Y-120223333D01*
X143530833Y-119640000D01*
X143614166Y-119306666D01*
X143780833Y-119140000D01*
X143947500Y-119056666D01*
X145447500Y-120806666D02*
X145447500Y-119056666D01*
X145864166Y-119056666D01*
X146114166Y-119140000D01*
X146280833Y-119306666D01*
X146364166Y-119473333D01*
X146447500Y-119806666D01*
X146447500Y-120056666D01*
X146364166Y-120390000D01*
X146280833Y-120556666D01*
X146114166Y-120723333D01*
X145864166Y-120806666D01*
X145447500Y-120806666D01*
X148864166Y-119056666D02*
X149197500Y-119056666D01*
X149364166Y-119140000D01*
X149530833Y-119306666D01*
X149614166Y-119640000D01*
X149614166Y-120223333D01*
X149530833Y-120556666D01*
X149364166Y-120723333D01*
X149197500Y-120806666D01*
X148864166Y-120806666D01*
X148697500Y-120723333D01*
X148530833Y-120556666D01*
X148447500Y-120223333D01*
X148447500Y-119640000D01*
X148530833Y-119306666D01*
X148697500Y-119140000D01*
X148864166Y-119056666D01*
X150280833Y-120723333D02*
X150530833Y-120806666D01*
X150947500Y-120806666D01*
X151114166Y-120723333D01*
X151197500Y-120640000D01*
X151280833Y-120473333D01*
X151280833Y-120306666D01*
X151197500Y-120140000D01*
X151114166Y-120056666D01*
X150947500Y-119973333D01*
X150614166Y-119890000D01*
X150447500Y-119806666D01*
X150364166Y-119723333D01*
X150280833Y-119556666D01*
X150280833Y-119390000D01*
X150364166Y-119223333D01*
X150447500Y-119140000D01*
X150614166Y-119056666D01*
X151030833Y-119056666D01*
X151280833Y-119140000D01*
X153030833Y-120640000D02*
X152947500Y-120723333D01*
X152697500Y-120806666D01*
X152530833Y-120806666D01*
X152280833Y-120723333D01*
X152114166Y-120556666D01*
X152030833Y-120390000D01*
X151947500Y-120056666D01*
X151947500Y-119806666D01*
X152030833Y-119473333D01*
X152114166Y-119306666D01*
X152280833Y-119140000D01*
X152530833Y-119056666D01*
X152697500Y-119056666D01*
X152947500Y-119140000D01*
X153030833Y-119223333D01*
D14*
X56297142Y-84990952D02*
X57130476Y-87490952D01*
X57963809Y-84990952D01*
X60225714Y-87252857D02*
X60106666Y-87371904D01*
X59749523Y-87490952D01*
X59511428Y-87490952D01*
X59154285Y-87371904D01*
X58916190Y-87133809D01*
X58797142Y-86895714D01*
X58678095Y-86419523D01*
X58678095Y-86062380D01*
X58797142Y-85586190D01*
X58916190Y-85348095D01*
X59154285Y-85110000D01*
X59511428Y-84990952D01*
X59749523Y-84990952D01*
X60106666Y-85110000D01*
X60225714Y-85229047D01*
X61773333Y-84990952D02*
X62249523Y-84990952D01*
X62487619Y-85110000D01*
X62725714Y-85348095D01*
X62844761Y-85824285D01*
X62844761Y-86657619D01*
X62725714Y-87133809D01*
X62487619Y-87371904D01*
X62249523Y-87490952D01*
X61773333Y-87490952D01*
X61535238Y-87371904D01*
X61297142Y-87133809D01*
X61178095Y-86657619D01*
X61178095Y-85824285D01*
X61297142Y-85348095D01*
X61535238Y-85110000D01*
X61773333Y-84990952D01*
X107632857Y-130984523D02*
X107918571Y-131079761D01*
X108394761Y-131079761D01*
X108585238Y-130984523D01*
X108680476Y-130889285D01*
X108775714Y-130698809D01*
X108775714Y-130508333D01*
X108680476Y-130317857D01*
X108585238Y-130222619D01*
X108394761Y-130127380D01*
X108013809Y-130032142D01*
X107823333Y-129936904D01*
X107728095Y-129841666D01*
X107632857Y-129651190D01*
X107632857Y-129460714D01*
X107728095Y-129270238D01*
X107823333Y-129175000D01*
X108013809Y-129079761D01*
X108490000Y-129079761D01*
X108775714Y-129175000D01*
X111251904Y-131079761D02*
X111156666Y-131079761D01*
X110966190Y-130984523D01*
X110680476Y-130698809D01*
X110204285Y-130127380D01*
X110013809Y-129841666D01*
X109918571Y-129555952D01*
X109918571Y-129365476D01*
X110013809Y-129175000D01*
X110204285Y-129079761D01*
X110299523Y-129079761D01*
X110490000Y-129175000D01*
X110585238Y-129365476D01*
X110585238Y-129460714D01*
X110490000Y-129651190D01*
X110394761Y-129746428D01*
X109823333Y-130127380D01*
X109728095Y-130222619D01*
X109632857Y-130413095D01*
X109632857Y-130698809D01*
X109728095Y-130889285D01*
X109823333Y-130984523D01*
X110013809Y-131079761D01*
X110299523Y-131079761D01*
X110490000Y-130984523D01*
X110585238Y-130889285D01*
X110870952Y-130508333D01*
X110966190Y-130222619D01*
X110966190Y-130032142D01*
X112109047Y-131079761D02*
X112109047Y-129079761D01*
X112109047Y-130032142D02*
X113251904Y-130032142D01*
X113251904Y-131079761D02*
X113251904Y-129079761D01*
X211416190Y-135790952D02*
X212249523Y-138290952D01*
X213082857Y-135790952D01*
X214392380Y-135790952D02*
X214868571Y-135790952D01*
X215106666Y-135910000D01*
X215344761Y-136148095D01*
X215463809Y-136624285D01*
X215463809Y-137457619D01*
X215344761Y-137933809D01*
X215106666Y-138171904D01*
X214868571Y-138290952D01*
X214392380Y-138290952D01*
X214154285Y-138171904D01*
X213916190Y-137933809D01*
X213797142Y-137457619D01*
X213797142Y-136624285D01*
X213916190Y-136148095D01*
X214154285Y-135910000D01*
X214392380Y-135790952D01*
X217725714Y-138290952D02*
X216535238Y-138290952D01*
X216535238Y-135790952D01*
X218559047Y-135790952D02*
X218559047Y-137814761D01*
X218678095Y-138052857D01*
X218797142Y-138171904D01*
X219035238Y-138290952D01*
X219511428Y-138290952D01*
X219749523Y-138171904D01*
X219868571Y-138052857D01*
X219987619Y-137814761D01*
X219987619Y-135790952D01*
X221178095Y-138290952D02*
X221178095Y-135790952D01*
X222011428Y-137576666D01*
X222844761Y-135790952D01*
X222844761Y-138290952D01*
X224035238Y-136981428D02*
X224868571Y-136981428D01*
X225225714Y-138290952D02*
X224035238Y-138290952D01*
X224035238Y-135790952D01*
X225225714Y-135790952D01*
X98961428Y-84990952D02*
X99794761Y-87490952D01*
X100628095Y-84990952D01*
X102890000Y-87252857D02*
X102770952Y-87371904D01*
X102413809Y-87490952D01*
X102175714Y-87490952D01*
X101818571Y-87371904D01*
X101580476Y-87133809D01*
X101461428Y-86895714D01*
X101342380Y-86419523D01*
X101342380Y-86062380D01*
X101461428Y-85586190D01*
X101580476Y-85348095D01*
X101818571Y-85110000D01*
X102175714Y-84990952D01*
X102413809Y-84990952D01*
X102770952Y-85110000D01*
X102890000Y-85229047D01*
X104794761Y-86181428D02*
X103961428Y-86181428D01*
X103961428Y-87490952D02*
X103961428Y-84990952D01*
X105151904Y-84990952D01*
X107890000Y-86776666D02*
X109080476Y-86776666D01*
X107651904Y-87490952D02*
X108485238Y-84990952D01*
X109318571Y-87490952D01*
D15*
X61090000Y-78105000D02*
G75*
G03*
X61090000Y-78105000I-1400000J0D01*
G01*
G36*
X95085113Y-50967481D02*
G01*
X95342685Y-51369119D01*
X95464923Y-51967209D01*
X95487842Y-52324099D01*
X95495482Y-52705000D01*
X95487842Y-53084809D01*
X95464923Y-53438425D01*
X95342685Y-54036516D01*
X95080748Y-54442519D01*
X94639819Y-54590950D01*
X94194526Y-54442519D01*
X93936954Y-54040881D01*
X93814716Y-53442791D01*
X93791797Y-53085901D01*
X93784157Y-52705000D01*
X93791797Y-52325191D01*
X93814716Y-51971575D01*
X93936954Y-51373484D01*
X94194526Y-50967481D01*
X94639819Y-50819050D01*
X95085113Y-50967481D01*
G37*
G36*
X55488894Y-50901997D02*
G01*
X55733369Y-50989309D01*
X55899263Y-51172666D01*
X55960382Y-51482625D01*
X55750832Y-51975941D01*
X55130913Y-52154931D01*
X54711813Y-52154931D01*
X54711813Y-50915094D01*
X54947557Y-50888900D01*
X55200763Y-50880169D01*
X55488894Y-50901997D01*
G37*
G36*
X60160113Y-50967481D02*
G01*
X60417685Y-51369119D01*
X60539923Y-51967209D01*
X60562842Y-52324099D01*
X60570482Y-52705000D01*
X60562842Y-53084809D01*
X60539923Y-53438425D01*
X60417685Y-54036516D01*
X60155748Y-54442519D01*
X59714819Y-54590950D01*
X59269526Y-54442519D01*
X59011954Y-54040881D01*
X58889716Y-53442791D01*
X58866797Y-53085901D01*
X58859157Y-52705000D01*
X58866797Y-52325191D01*
X58889716Y-51971575D01*
X59011954Y-51373484D01*
X59269526Y-50967481D01*
X59714819Y-50819050D01*
X60160113Y-50967481D01*
G37*
G36*
X55956016Y-53215778D02*
G01*
X56204857Y-53778944D01*
X56117544Y-54167484D01*
X55894898Y-54403228D01*
X55584938Y-54516734D01*
X55226957Y-54547294D01*
X54960654Y-54538563D01*
X54711813Y-54512369D01*
X54711813Y-53045519D01*
X55288076Y-53045519D01*
X55956016Y-53215778D01*
G37*
G36*
X42324352Y-50930373D02*
G01*
X42627763Y-51080987D01*
X42824216Y-51338559D01*
X42889701Y-51709637D01*
X42645226Y-52316459D01*
X42324352Y-52476896D01*
X41850682Y-52530375D01*
X41614938Y-52530375D01*
X41614938Y-50906362D01*
X41789563Y-50884534D01*
X41937994Y-50880169D01*
X42324352Y-50930373D01*
G37*
G36*
X102001839Y-49436216D02*
G01*
X102627053Y-49625873D01*
X103203254Y-49933859D01*
X103708299Y-50348338D01*
X104122778Y-50853383D01*
X104430764Y-51429584D01*
X104620421Y-52054798D01*
X104684460Y-52705000D01*
X104620421Y-53355202D01*
X104430764Y-53980416D01*
X104122778Y-54556617D01*
X103708299Y-55061662D01*
X103203254Y-55476141D01*
X102627053Y-55784127D01*
X102001839Y-55973784D01*
X101351637Y-56037824D01*
X40028364Y-56037824D01*
X39378162Y-55973785D01*
X38752948Y-55784128D01*
X38176746Y-55476142D01*
X38098209Y-55411688D01*
X40540994Y-55411688D01*
X41614938Y-55411688D01*
X41614938Y-53420963D01*
X42173738Y-53420963D01*
X42469509Y-53915370D01*
X42745635Y-54403228D01*
X42995567Y-54897635D01*
X43212757Y-55411688D01*
X44339088Y-55411688D01*
X44906619Y-55411688D01*
X48338001Y-55411688D01*
X48338001Y-55324375D01*
X49272244Y-55324375D01*
X49649871Y-55393134D01*
X50031863Y-55442247D01*
X50409490Y-55471715D01*
X50774019Y-55481538D01*
X51205125Y-55460801D01*
X51607854Y-55398591D01*
X51849419Y-55324375D01*
X53637869Y-55324375D01*
X54015496Y-55393134D01*
X54397488Y-55442247D01*
X54775115Y-55471715D01*
X55139644Y-55481538D01*
X55570750Y-55460801D01*
X55973479Y-55398591D01*
X56335826Y-55287267D01*
X56645785Y-55119191D01*
X57095444Y-54595316D01*
X57219865Y-54227512D01*
X57261338Y-53778944D01*
X57212225Y-53412231D01*
X57064885Y-53062981D01*
X56780028Y-52757388D01*
X56677435Y-52705000D01*
X57767751Y-52705000D01*
X57799129Y-53360662D01*
X57893262Y-53930649D01*
X58050152Y-54414961D01*
X58269798Y-54813597D01*
X58654458Y-55208928D01*
X59139042Y-55446127D01*
X59723551Y-55525194D01*
X60293992Y-55446127D01*
X60363293Y-55411688D01*
X62299269Y-55411688D01*
X63268438Y-55411688D01*
X63268438Y-51823144D01*
X63592950Y-52422205D01*
X63902909Y-53020295D01*
X64198316Y-53617416D01*
X64479171Y-54214536D01*
X64745475Y-54812627D01*
X64997226Y-55411688D01*
X65861619Y-55411688D01*
X65861619Y-52705000D01*
X70864626Y-52705000D01*
X70902279Y-53342927D01*
X71015240Y-53903364D01*
X71203507Y-54386311D01*
X71467082Y-54791769D01*
X71928868Y-55199227D01*
X72510951Y-55443702D01*
X73213332Y-55525194D01*
X73690276Y-55495726D01*
X74108285Y-55407322D01*
X74723838Y-55149750D01*
X74453169Y-54302819D01*
X74012241Y-54494906D01*
X73318107Y-54590950D01*
X72694914Y-54467621D01*
X72274723Y-54097634D01*
X72097672Y-53720735D01*
X71991442Y-53247793D01*
X71957662Y-52705000D01*
X75230251Y-52705000D01*
X75261629Y-53360662D01*
X75355762Y-53930649D01*
X75512652Y-54414961D01*
X75732298Y-54813597D01*
X76116958Y-55208928D01*
X76601542Y-55446127D01*
X77186051Y-55525194D01*
X77756492Y-55446127D01*
X77825793Y-55411688D01*
X79761769Y-55411688D01*
X80730938Y-55411688D01*
X80730938Y-51823144D01*
X81055450Y-52422205D01*
X81365409Y-53020295D01*
X81660816Y-53617416D01*
X81941671Y-54214536D01*
X82207975Y-54812627D01*
X82459726Y-55411688D01*
X83324119Y-55411688D01*
X83324119Y-50897631D01*
X83944038Y-50897631D01*
X85367232Y-50897631D01*
X85367232Y-55411688D01*
X86449907Y-55411688D01*
X88562869Y-55411688D01*
X89636813Y-55411688D01*
X89636813Y-53420963D01*
X90195613Y-53420963D01*
X90491384Y-53915370D01*
X90767510Y-54403228D01*
X91017442Y-54897635D01*
X91234632Y-55411688D01*
X92360963Y-55411688D01*
X92112123Y-54839791D01*
X91810894Y-54237334D01*
X91487838Y-53661072D01*
X91173513Y-53159025D01*
X91555505Y-52912367D01*
X91712034Y-52705000D01*
X92692751Y-52705000D01*
X92724129Y-53360662D01*
X92818262Y-53930649D01*
X92975152Y-54414961D01*
X93194798Y-54813597D01*
X93579458Y-55208928D01*
X94064042Y-55446127D01*
X94648551Y-55525194D01*
X95218992Y-55446127D01*
X95288293Y-55411688D01*
X97442551Y-55411688D01*
X100839007Y-55411688D01*
X100839007Y-54521100D01*
X98525226Y-54521100D01*
X98525226Y-50007044D01*
X97442551Y-50007044D01*
X97442551Y-55411688D01*
X95288293Y-55411688D01*
X95696301Y-55208928D01*
X96080476Y-54813597D01*
X96302031Y-54414961D01*
X96460285Y-53930649D01*
X96555237Y-53360662D01*
X96586888Y-52705000D01*
X96555783Y-52049338D01*
X96462468Y-51479351D01*
X96306942Y-50995039D01*
X96089207Y-50596403D01*
X95706972Y-50201072D01*
X95223843Y-49963873D01*
X94639819Y-49884806D01*
X94073258Y-49963873D01*
X93595950Y-50201072D01*
X93207894Y-50596403D01*
X92982519Y-50995039D01*
X92821537Y-51479351D01*
X92724947Y-52049338D01*
X92692751Y-52705000D01*
X91712034Y-52705000D01*
X91810894Y-52574031D01*
X91954960Y-52168028D01*
X92002982Y-51718369D01*
X91966965Y-51293812D01*
X91858916Y-50928191D01*
X91444182Y-50373756D01*
X91147319Y-50183852D01*
X90798069Y-50050700D01*
X90400798Y-49972119D01*
X89959869Y-49945925D01*
X89654276Y-49954656D01*
X89287563Y-49976484D01*
X88907754Y-50020141D01*
X88562869Y-50085625D01*
X88562869Y-55411688D01*
X86449907Y-55411688D01*
X86449907Y-50897631D01*
X87873101Y-50897631D01*
X87873101Y-50007044D01*
X83944038Y-50007044D01*
X83944038Y-50897631D01*
X83324119Y-50897631D01*
X83324119Y-50007044D01*
X82354951Y-50007044D01*
X82354951Y-53333650D01*
X82201062Y-52993131D01*
X82018798Y-52600225D01*
X81813613Y-52174577D01*
X81590966Y-51735831D01*
X81356314Y-51289446D01*
X81115113Y-50840878D01*
X80870638Y-50407590D01*
X80626163Y-50007044D01*
X79761769Y-50007044D01*
X79761769Y-55411688D01*
X77825793Y-55411688D01*
X78233801Y-55208928D01*
X78617976Y-54813597D01*
X78839531Y-54414961D01*
X78997785Y-53930649D01*
X79092737Y-53360662D01*
X79124388Y-52705000D01*
X79093283Y-52049338D01*
X78999968Y-51479351D01*
X78844442Y-50995039D01*
X78626707Y-50596403D01*
X78244472Y-50201072D01*
X77761343Y-49963873D01*
X77177319Y-49884806D01*
X76610758Y-49963873D01*
X76133450Y-50201072D01*
X75745394Y-50596403D01*
X75520019Y-50995039D01*
X75359037Y-51479351D01*
X75262447Y-52049338D01*
X75230251Y-52705000D01*
X71957662Y-52705000D01*
X71956032Y-52678806D01*
X71985500Y-52189856D01*
X72073904Y-51788219D01*
X72379498Y-51216322D01*
X72807329Y-50910728D01*
X73300644Y-50819050D01*
X73951123Y-50910728D01*
X74435707Y-51133375D01*
X74715107Y-50277712D01*
X74536116Y-50172937D01*
X74243619Y-50041969D01*
X73837616Y-49932828D01*
X73318107Y-49884806D01*
X72806237Y-49931737D01*
X72335841Y-50072528D01*
X71916741Y-50303906D01*
X71558760Y-50622597D01*
X71267355Y-51025326D01*
X71047982Y-51508819D01*
X70910465Y-52069802D01*
X70864626Y-52705000D01*
X65861619Y-52705000D01*
X65861619Y-50007044D01*
X64892451Y-50007044D01*
X64892451Y-53333650D01*
X64738562Y-52993131D01*
X64556298Y-52600225D01*
X64351113Y-52174577D01*
X64128466Y-51735831D01*
X63893814Y-51289446D01*
X63652613Y-50840878D01*
X63408138Y-50407590D01*
X63163663Y-50007044D01*
X62299269Y-50007044D01*
X62299269Y-55411688D01*
X60363293Y-55411688D01*
X60771301Y-55208928D01*
X61155476Y-54813597D01*
X61377031Y-54414961D01*
X61535285Y-53930649D01*
X61630237Y-53360662D01*
X61661888Y-52705000D01*
X61630783Y-52049338D01*
X61537468Y-51479351D01*
X61381942Y-50995039D01*
X61164207Y-50596403D01*
X60781972Y-50201072D01*
X60298843Y-49963873D01*
X59714819Y-49884806D01*
X59148258Y-49963873D01*
X58670950Y-50201072D01*
X58282894Y-50596403D01*
X58057519Y-50995039D01*
X57896537Y-51479351D01*
X57799947Y-52049338D01*
X57767751Y-52705000D01*
X56677435Y-52705000D01*
X56318363Y-52521644D01*
X56820410Y-52050156D01*
X56961201Y-51731466D01*
X57008132Y-51369119D01*
X56929551Y-50862706D01*
X56632688Y-50404316D01*
X56030232Y-50072528D01*
X55589304Y-49977576D01*
X55034869Y-49945925D01*
X54310176Y-49985216D01*
X53637869Y-50076894D01*
X53637869Y-55324375D01*
X51849419Y-55324375D01*
X51970201Y-55287267D01*
X52280160Y-55119191D01*
X52729819Y-54595316D01*
X52854240Y-54227512D01*
X52895713Y-53778944D01*
X52846600Y-53412231D01*
X52699260Y-53062981D01*
X52414403Y-52757388D01*
X51952738Y-52521644D01*
X52454785Y-52050156D01*
X52595576Y-51731466D01*
X52642507Y-51369119D01*
X52563926Y-50862706D01*
X52267063Y-50404316D01*
X51664607Y-50072528D01*
X51223679Y-49977576D01*
X50669244Y-49945925D01*
X49944551Y-49985216D01*
X49272244Y-50076894D01*
X49272244Y-55324375D01*
X48338001Y-55324375D01*
X48338001Y-54521100D01*
X47168013Y-54521100D01*
X47168013Y-50897631D01*
X48338001Y-50897631D01*
X48338001Y-50007044D01*
X44906619Y-50007044D01*
X44906619Y-50897631D01*
X46085338Y-50897631D01*
X46085338Y-54521100D01*
X44906619Y-54521100D01*
X44906619Y-55411688D01*
X44339088Y-55411688D01*
X44090248Y-54839791D01*
X43789019Y-54237334D01*
X43465963Y-53661072D01*
X43151638Y-53159025D01*
X43533630Y-52912367D01*
X43789019Y-52574031D01*
X43933085Y-52168028D01*
X43981107Y-51718369D01*
X43945090Y-51293812D01*
X43837041Y-50928191D01*
X43422307Y-50373756D01*
X43125444Y-50183852D01*
X42776194Y-50050700D01*
X42378923Y-49972119D01*
X41937994Y-49945925D01*
X41632401Y-49954656D01*
X41265688Y-49976484D01*
X40885879Y-50020141D01*
X40540994Y-50085625D01*
X40540994Y-55411688D01*
X38098209Y-55411688D01*
X37671702Y-55061662D01*
X37257222Y-54556618D01*
X36949236Y-53980417D01*
X36759580Y-53355202D01*
X36695540Y-52705000D01*
X36759580Y-52054798D01*
X36949236Y-51429583D01*
X37257222Y-50853382D01*
X37671702Y-50348338D01*
X38176746Y-49933858D01*
X38752948Y-49625872D01*
X39378162Y-49436215D01*
X40028364Y-49372176D01*
X101351637Y-49372176D01*
X102001839Y-49436216D01*
G37*
G36*
X90346227Y-50930373D02*
G01*
X90649638Y-51080987D01*
X90846091Y-51338559D01*
X90911576Y-51709637D01*
X90667101Y-52316459D01*
X90346227Y-52476896D01*
X89872557Y-52530375D01*
X89636813Y-52530375D01*
X89636813Y-50906362D01*
X89811438Y-50884534D01*
X89959869Y-50880169D01*
X90346227Y-50930373D01*
G37*
G36*
X77622613Y-50967481D02*
G01*
X77880185Y-51369119D01*
X78002423Y-51967209D01*
X78025342Y-52324099D01*
X78032982Y-52705000D01*
X78025342Y-53084809D01*
X78002423Y-53438425D01*
X77880185Y-54036516D01*
X77618248Y-54442519D01*
X77177319Y-54590950D01*
X76732026Y-54442519D01*
X76474454Y-54040881D01*
X76352216Y-53442791D01*
X76329297Y-53085901D01*
X76321657Y-52705000D01*
X76329297Y-52325191D01*
X76352216Y-51971575D01*
X76474454Y-51373484D01*
X76732026Y-50967481D01*
X77177319Y-50819050D01*
X77622613Y-50967481D01*
G37*
G36*
X51123269Y-50901997D02*
G01*
X51367744Y-50989309D01*
X51533638Y-51172666D01*
X51594757Y-51482625D01*
X51385207Y-51975941D01*
X50765288Y-52154931D01*
X50346188Y-52154931D01*
X50346188Y-50915094D01*
X50581932Y-50888900D01*
X50835138Y-50880169D01*
X51123269Y-50901997D01*
G37*
G36*
X51590391Y-53215778D02*
G01*
X51839232Y-53778944D01*
X51751919Y-54167484D01*
X51529273Y-54403228D01*
X51219313Y-54516734D01*
X50861332Y-54547294D01*
X50595029Y-54538563D01*
X50346188Y-54512369D01*
X50346188Y-53045519D01*
X50922451Y-53045519D01*
X51590391Y-53215778D01*
G37*
G36*
X86537360Y-100482481D02*
G01*
X86794932Y-100884119D01*
X86917169Y-101482209D01*
X86940089Y-101839099D01*
X86947729Y-102220000D01*
X86940089Y-102599809D01*
X86917169Y-102953425D01*
X86794932Y-103551516D01*
X86532994Y-103957519D01*
X86092066Y-104105950D01*
X85646772Y-103957519D01*
X85389201Y-103555881D01*
X85266963Y-102957791D01*
X85244043Y-102600901D01*
X85236404Y-102220000D01*
X85244043Y-101840191D01*
X85266963Y-101486575D01*
X85389201Y-100888484D01*
X85646772Y-100482481D01*
X86092066Y-100334050D01*
X86537360Y-100482481D01*
G37*
G36*
X69074860Y-100482481D02*
G01*
X69332432Y-100884119D01*
X69454669Y-101482209D01*
X69477589Y-101839099D01*
X69485229Y-102220000D01*
X69477589Y-102599809D01*
X69454669Y-102953425D01*
X69332432Y-103551516D01*
X69070494Y-103957519D01*
X68629566Y-104105950D01*
X68184272Y-103957519D01*
X67926701Y-103555881D01*
X67804463Y-102957791D01*
X67781543Y-102600901D01*
X67773904Y-102220000D01*
X67781543Y-101840191D01*
X67804463Y-101486575D01*
X67926701Y-100888484D01*
X68184272Y-100482481D01*
X68629566Y-100334050D01*
X69074860Y-100482481D01*
G37*
G36*
X93454085Y-98951216D02*
G01*
X94079300Y-99140872D01*
X94655501Y-99448859D01*
X95160546Y-99863338D01*
X95575025Y-100368383D01*
X95883011Y-100944584D01*
X96072668Y-101569798D01*
X96136707Y-102220000D01*
X96072668Y-102870202D01*
X95883011Y-103495416D01*
X95575025Y-104071617D01*
X95160546Y-104576662D01*
X94655501Y-104991141D01*
X94079300Y-105299128D01*
X93454085Y-105488784D01*
X92803884Y-105552824D01*
X39976117Y-105552824D01*
X39325915Y-105488785D01*
X38700701Y-105299128D01*
X38124499Y-104991142D01*
X37619455Y-104576662D01*
X37204975Y-104071618D01*
X36896989Y-103495417D01*
X36707333Y-102870202D01*
X36643293Y-102220000D01*
X40488747Y-102220000D01*
X40528038Y-102875935D01*
X40645910Y-103446741D01*
X40835815Y-103931325D01*
X41091204Y-104328597D01*
X41408803Y-104638556D01*
X41785338Y-104861203D01*
X42216443Y-104995446D01*
X42697754Y-105040194D01*
X43231451Y-105018366D01*
X43680019Y-104952881D01*
X43779698Y-104926688D01*
X44697210Y-104926688D01*
X45814810Y-104926688D01*
X46059285Y-103678119D01*
X47499941Y-103678119D01*
X47753147Y-104926688D01*
X48905672Y-104926688D01*
X48761607Y-104313928D01*
X48615795Y-103718981D01*
X48468237Y-103141845D01*
X48318932Y-102582522D01*
X48167882Y-102041009D01*
X47977704Y-101384256D01*
X47786981Y-100745510D01*
X47684410Y-100412631D01*
X49202535Y-100412631D01*
X50625729Y-100412631D01*
X50625729Y-104926688D01*
X51708404Y-104926688D01*
X53899947Y-104926688D01*
X57366254Y-104926688D01*
X57366254Y-104036100D01*
X54973891Y-104036100D01*
X54973891Y-102516863D01*
X56886035Y-102516863D01*
X56886035Y-102220000D01*
X62316872Y-102220000D01*
X62354526Y-102857927D01*
X62467486Y-103418364D01*
X62655754Y-103901311D01*
X62919329Y-104306769D01*
X63381115Y-104714227D01*
X63963198Y-104958702D01*
X64665579Y-105040194D01*
X65142523Y-105010726D01*
X65560532Y-104922322D01*
X66176085Y-104664750D01*
X65905416Y-103817819D01*
X65464488Y-104009906D01*
X64770354Y-104105950D01*
X64147161Y-103982621D01*
X63726969Y-103612634D01*
X63549919Y-103235735D01*
X63443689Y-102762793D01*
X63409909Y-102220000D01*
X66682497Y-102220000D01*
X66713875Y-102875662D01*
X66808009Y-103445649D01*
X66964899Y-103929961D01*
X67184544Y-104328597D01*
X67569204Y-104723928D01*
X68053789Y-104961127D01*
X68638297Y-105040194D01*
X69208739Y-104961127D01*
X69278040Y-104926688D01*
X71214016Y-104926688D01*
X72183185Y-104926688D01*
X72183185Y-101338144D01*
X72507696Y-101937205D01*
X72817656Y-102535295D01*
X73113063Y-103132416D01*
X73393918Y-103729536D01*
X73660221Y-104327627D01*
X73911972Y-104926688D01*
X74776366Y-104926688D01*
X74776366Y-100412631D01*
X75396285Y-100412631D01*
X76819479Y-100412631D01*
X76819479Y-104926688D01*
X77902154Y-104926688D01*
X80015116Y-104926688D01*
X81089060Y-104926688D01*
X81089060Y-102935963D01*
X81647860Y-102935963D01*
X81943631Y-103430370D01*
X82219757Y-103918228D01*
X82469689Y-104412635D01*
X82686879Y-104926688D01*
X83813210Y-104926688D01*
X83564369Y-104354791D01*
X83263141Y-103752334D01*
X82940085Y-103176072D01*
X82625760Y-102674025D01*
X83007752Y-102427367D01*
X83164281Y-102220000D01*
X84144997Y-102220000D01*
X84176375Y-102875662D01*
X84270509Y-103445649D01*
X84427399Y-103929961D01*
X84647044Y-104328597D01*
X85031704Y-104723928D01*
X85516289Y-104961127D01*
X86100797Y-105040194D01*
X86671239Y-104961127D01*
X86740540Y-104926688D01*
X88894797Y-104926688D01*
X92291254Y-104926688D01*
X92291254Y-104036100D01*
X89977472Y-104036100D01*
X89977472Y-99522044D01*
X88894797Y-99522044D01*
X88894797Y-104926688D01*
X86740540Y-104926688D01*
X87148547Y-104723928D01*
X87532722Y-104328597D01*
X87754278Y-103929961D01*
X87912532Y-103445649D01*
X88007484Y-102875662D01*
X88039135Y-102220000D01*
X88008030Y-101564338D01*
X87914715Y-100994351D01*
X87759189Y-100510039D01*
X87541454Y-100111403D01*
X87159219Y-99716072D01*
X86676090Y-99478873D01*
X86092066Y-99399806D01*
X85525505Y-99478873D01*
X85048197Y-99716072D01*
X84660141Y-100111403D01*
X84434766Y-100510039D01*
X84273783Y-100994351D01*
X84177194Y-101564338D01*
X84144997Y-102220000D01*
X83164281Y-102220000D01*
X83263141Y-102089031D01*
X83407207Y-101683028D01*
X83455229Y-101233369D01*
X83419212Y-100808812D01*
X83311163Y-100443191D01*
X82896429Y-99888756D01*
X82599566Y-99698852D01*
X82250316Y-99565700D01*
X81853044Y-99487119D01*
X81412116Y-99460925D01*
X81106522Y-99469656D01*
X80739810Y-99491484D01*
X80360001Y-99535141D01*
X80015116Y-99600625D01*
X80015116Y-104926688D01*
X77902154Y-104926688D01*
X77902154Y-100412631D01*
X79325347Y-100412631D01*
X79325347Y-99522044D01*
X75396285Y-99522044D01*
X75396285Y-100412631D01*
X74776366Y-100412631D01*
X74776366Y-99522044D01*
X73807197Y-99522044D01*
X73807197Y-102848650D01*
X73653309Y-102508131D01*
X73471044Y-102115225D01*
X73265860Y-101689577D01*
X73043213Y-101250831D01*
X72808561Y-100804446D01*
X72567360Y-100355878D01*
X72322885Y-99922590D01*
X72078410Y-99522044D01*
X71214016Y-99522044D01*
X71214016Y-104926688D01*
X69278040Y-104926688D01*
X69686047Y-104723928D01*
X70070222Y-104328597D01*
X70291778Y-103929961D01*
X70450032Y-103445649D01*
X70544984Y-102875662D01*
X70576635Y-102220000D01*
X70545530Y-101564338D01*
X70452215Y-100994351D01*
X70296689Y-100510039D01*
X70078954Y-100111403D01*
X69696719Y-99716072D01*
X69213590Y-99478873D01*
X68629566Y-99399806D01*
X68063005Y-99478873D01*
X67585697Y-99716072D01*
X67197641Y-100111403D01*
X66972266Y-100510039D01*
X66811283Y-100994351D01*
X66714694Y-101564338D01*
X66682497Y-102220000D01*
X63409909Y-102220000D01*
X63408279Y-102193806D01*
X63437747Y-101704856D01*
X63526151Y-101303219D01*
X63831744Y-100731322D01*
X64259576Y-100425728D01*
X64752891Y-100334050D01*
X65403369Y-100425728D01*
X65887954Y-100648375D01*
X66167354Y-99792712D01*
X65988363Y-99687937D01*
X65695866Y-99556969D01*
X65289863Y-99447828D01*
X64770354Y-99399806D01*
X64258484Y-99446737D01*
X63788088Y-99587528D01*
X63368988Y-99818906D01*
X63011007Y-100137597D01*
X62719601Y-100540326D01*
X62500229Y-101023819D01*
X62362711Y-101584802D01*
X62316872Y-102220000D01*
X56886035Y-102220000D01*
X56886035Y-101626275D01*
X54973891Y-101626275D01*
X54973891Y-100412631D01*
X57174166Y-100412631D01*
X57174166Y-99522044D01*
X53899947Y-99522044D01*
X53899947Y-104926688D01*
X51708404Y-104926688D01*
X51708404Y-100412631D01*
X53131597Y-100412631D01*
X53131597Y-99522044D01*
X49202535Y-99522044D01*
X49202535Y-100412631D01*
X47684410Y-100412631D01*
X47595712Y-100124773D01*
X47403897Y-99522044D01*
X46233910Y-99522044D01*
X46048917Y-100119862D01*
X45860649Y-100734596D01*
X45669107Y-101366247D01*
X45474291Y-102014816D01*
X45317478Y-102551788D01*
X45161363Y-103111461D01*
X45005947Y-103693835D01*
X44851229Y-104298911D01*
X44697210Y-104926688D01*
X43779698Y-104926688D01*
X44278110Y-104795719D01*
X44278110Y-102097762D01*
X43204166Y-102097762D01*
X43204166Y-104071025D01*
X42994616Y-104097219D01*
X42785066Y-104105950D01*
X42263374Y-103991352D01*
X41885747Y-103647559D01*
X41715973Y-103285213D01*
X41614109Y-102809359D01*
X41580154Y-102220000D01*
X41598708Y-101819454D01*
X41654369Y-101456016D01*
X41898844Y-100862291D01*
X42331041Y-100473750D01*
X42977154Y-100334050D01*
X43553416Y-100430094D01*
X44024904Y-100648375D01*
X44304304Y-99792712D01*
X44125313Y-99687937D01*
X43824085Y-99556969D01*
X43391888Y-99447828D01*
X42828722Y-99399806D01*
X42355052Y-99444554D01*
X41911941Y-99578797D01*
X41512486Y-99802535D01*
X41169785Y-100115769D01*
X40888202Y-100516315D01*
X40672104Y-101001991D01*
X40534586Y-101570613D01*
X40488747Y-102220000D01*
X36643293Y-102220000D01*
X36707333Y-101569798D01*
X36896989Y-100944583D01*
X37204975Y-100368382D01*
X37619455Y-99863338D01*
X38124499Y-99448858D01*
X38700701Y-99140872D01*
X39325915Y-98951215D01*
X39976117Y-98887176D01*
X92803884Y-98887176D01*
X93454085Y-98951216D01*
G37*
G36*
X46954238Y-101150422D02*
G01*
X47093938Y-101691759D01*
X47211810Y-102228731D01*
X47316585Y-102787531D01*
X46260104Y-102787531D01*
X46369244Y-102228731D01*
X46491482Y-101691759D01*
X46631182Y-101150422D01*
X46792710Y-100569794D01*
X46954238Y-101150422D01*
G37*
G36*
X81798474Y-100445373D02*
G01*
X82101885Y-100595987D01*
X82298338Y-100853559D01*
X82363822Y-101224637D01*
X82119347Y-101831459D01*
X81798474Y-101991896D01*
X81324804Y-102045375D01*
X81089060Y-102045375D01*
X81089060Y-100421362D01*
X81263685Y-100399534D01*
X81412116Y-100395169D01*
X81798474Y-100445373D01*
G37*
G36*
X185415226Y-98966216D02*
G01*
X186040441Y-99155872D01*
X186616642Y-99463859D01*
X187121686Y-99878338D01*
X187536165Y-100383383D01*
X187844151Y-100959584D01*
X188033808Y-101584798D01*
X188097847Y-102235000D01*
X188033808Y-102885202D01*
X187844151Y-103510416D01*
X187536165Y-104086617D01*
X187121686Y-104591662D01*
X186616642Y-105006141D01*
X186040441Y-105314128D01*
X185415226Y-105503784D01*
X184765025Y-105567824D01*
X170834977Y-105567824D01*
X170184775Y-105503785D01*
X169559560Y-105314128D01*
X168983359Y-105006142D01*
X168478314Y-104591662D01*
X168063835Y-104086618D01*
X167755849Y-103510417D01*
X167566192Y-102885202D01*
X167502153Y-102235000D01*
X167566192Y-101584798D01*
X167755849Y-100959583D01*
X168063835Y-100383382D01*
X168478314Y-99878338D01*
X168894182Y-99537044D01*
X171347607Y-99537044D01*
X171448016Y-100025994D01*
X171592082Y-100637181D01*
X171707528Y-101094602D01*
X171832676Y-101570455D01*
X171967526Y-102064741D01*
X172110136Y-102568728D01*
X172258567Y-103073685D01*
X172412819Y-103579613D01*
X172642015Y-104299941D01*
X172858113Y-104941688D01*
X173966982Y-104941688D01*
X174133846Y-104476506D01*
X174296829Y-104000653D01*
X174455932Y-103514128D01*
X174608729Y-103025178D01*
X174752794Y-102542049D01*
X174839854Y-102235000D01*
X175835469Y-102235000D01*
X175873123Y-102872927D01*
X175986083Y-103433364D01*
X176174351Y-103916311D01*
X176437926Y-104321769D01*
X176899712Y-104729227D01*
X177481795Y-104973702D01*
X178184176Y-105055194D01*
X178661120Y-105025726D01*
X179058485Y-104941688D01*
X180043932Y-104941688D01*
X181161532Y-104941688D01*
X181406007Y-103693119D01*
X182846663Y-103693119D01*
X183099869Y-104941688D01*
X184252394Y-104941688D01*
X184108329Y-104328928D01*
X183962517Y-103733981D01*
X183814959Y-103156845D01*
X183665654Y-102597522D01*
X183514604Y-102056009D01*
X183324426Y-101399256D01*
X183133703Y-100760510D01*
X182942434Y-100139773D01*
X182750619Y-99537044D01*
X181580632Y-99537044D01*
X181395638Y-100134862D01*
X181207371Y-100749596D01*
X181015829Y-101381247D01*
X180821013Y-102029816D01*
X180664200Y-102566788D01*
X180508085Y-103126461D01*
X180352669Y-103708835D01*
X180197951Y-104313911D01*
X180043932Y-104941688D01*
X179058485Y-104941688D01*
X179079129Y-104937322D01*
X179694682Y-104679750D01*
X179424013Y-103832819D01*
X178983085Y-104024906D01*
X178288951Y-104120950D01*
X177665758Y-103997621D01*
X177245566Y-103627634D01*
X177068516Y-103250735D01*
X176962286Y-102777793D01*
X176926876Y-102208806D01*
X176956344Y-101719856D01*
X177044747Y-101318219D01*
X177350341Y-100746322D01*
X177778172Y-100440728D01*
X178271488Y-100349050D01*
X178921966Y-100440728D01*
X179406551Y-100663375D01*
X179685951Y-99807712D01*
X179506960Y-99702937D01*
X179214463Y-99571969D01*
X178808460Y-99462828D01*
X178288951Y-99414806D01*
X177777081Y-99461737D01*
X177306685Y-99602528D01*
X176887585Y-99833906D01*
X176529604Y-100152597D01*
X176238198Y-100555326D01*
X176018826Y-101038819D01*
X175881308Y-101599802D01*
X175835469Y-102235000D01*
X174839854Y-102235000D01*
X174888129Y-102064741D01*
X175073668Y-101369515D01*
X175237379Y-100707031D01*
X175378170Y-100091478D01*
X175494951Y-99537044D01*
X174368619Y-99537044D01*
X174290038Y-99991069D01*
X174193994Y-100514944D01*
X174084854Y-101081384D01*
X173966982Y-101663103D01*
X173840379Y-102248097D01*
X173705044Y-102824359D01*
X173565344Y-103364605D01*
X173425644Y-103841550D01*
X173284853Y-103358057D01*
X173141879Y-102815628D01*
X173002179Y-102239366D01*
X172871210Y-101654372D01*
X172750064Y-101073744D01*
X172639832Y-100510578D01*
X172548154Y-99989977D01*
X172482669Y-99537044D01*
X171347607Y-99537044D01*
X168894182Y-99537044D01*
X168983359Y-99463858D01*
X169559560Y-99155872D01*
X170184775Y-98966215D01*
X170834977Y-98902176D01*
X184765025Y-98902176D01*
X185415226Y-98966216D01*
G37*
G36*
X182300960Y-101165422D02*
G01*
X182440660Y-101706759D01*
X182558532Y-102243731D01*
X182663307Y-102802531D01*
X181606826Y-102802531D01*
X181715966Y-102243731D01*
X181838204Y-101706759D01*
X181977904Y-101165422D01*
X182139432Y-100584794D01*
X182300960Y-101165422D01*
G37*
%LPC*%
D16*
X59690000Y-78105000D03*
M02*
