G04 #@! TF.GenerationSoftware,KiCad,Pcbnew,6.0.5+dfsg-1~bpo11+1*
G04 #@! TF.CreationDate,2022-08-10T11:57:18+00:00*
G04 #@! TF.ProjectId,ribbon_pcb_panel,72696262-6f6e-45f7-9063-625f70616e65,0*
G04 #@! TF.SameCoordinates,Original*
G04 #@! TF.FileFunction,Legend,Bot*
G04 #@! TF.FilePolarity,Positive*
%FSLAX46Y46*%
G04 Gerber Fmt 4.6, Leading zero omitted, Abs format (unit mm)*
G04 Created by KiCad (PCBNEW 6.0.5+dfsg-1~bpo11+1) date 2022-08-10 11:57:18*
%MOMM*%
%LPD*%
G01*
G04 APERTURE LIST*
%ADD10C,0.200000*%
%ADD11C,2.000000*%
G04 APERTURE END LIST*
D10*
X116491904Y-51609761D02*
X116491904Y-53038333D01*
X116396666Y-53324047D01*
X116206190Y-53514523D01*
X115920476Y-53609761D01*
X115730000Y-53609761D01*
X118396666Y-53609761D02*
X117444285Y-53609761D01*
X117444285Y-51609761D01*
X120206190Y-53419285D02*
X120110952Y-53514523D01*
X119825238Y-53609761D01*
X119634761Y-53609761D01*
X119349047Y-53514523D01*
X119158571Y-53324047D01*
X119063333Y-53133571D01*
X118968095Y-52752619D01*
X118968095Y-52466904D01*
X119063333Y-52085952D01*
X119158571Y-51895476D01*
X119349047Y-51705000D01*
X119634761Y-51609761D01*
X119825238Y-51609761D01*
X120110952Y-51705000D01*
X120206190Y-51800238D01*
X121634761Y-51609761D02*
X121634761Y-53038333D01*
X121539523Y-53324047D01*
X121349047Y-53514523D01*
X121063333Y-53609761D01*
X120872857Y-53609761D01*
X123539523Y-53609761D02*
X122587142Y-53609761D01*
X122587142Y-51609761D01*
X125349047Y-53419285D02*
X125253809Y-53514523D01*
X124968095Y-53609761D01*
X124777619Y-53609761D01*
X124491904Y-53514523D01*
X124301428Y-53324047D01*
X124206190Y-53133571D01*
X124110952Y-52752619D01*
X124110952Y-52466904D01*
X124206190Y-52085952D01*
X124301428Y-51895476D01*
X124491904Y-51705000D01*
X124777619Y-51609761D01*
X124968095Y-51609761D01*
X125253809Y-51705000D01*
X125349047Y-51800238D01*
X126777619Y-51609761D02*
X126777619Y-53038333D01*
X126682380Y-53324047D01*
X126491904Y-53514523D01*
X126206190Y-53609761D01*
X126015714Y-53609761D01*
X128682380Y-53609761D02*
X127730000Y-53609761D01*
X127730000Y-51609761D01*
X130491904Y-53419285D02*
X130396666Y-53514523D01*
X130110952Y-53609761D01*
X129920476Y-53609761D01*
X129634761Y-53514523D01*
X129444285Y-53324047D01*
X129349047Y-53133571D01*
X129253809Y-52752619D01*
X129253809Y-52466904D01*
X129349047Y-52085952D01*
X129444285Y-51895476D01*
X129634761Y-51705000D01*
X129920476Y-51609761D01*
X130110952Y-51609761D01*
X130396666Y-51705000D01*
X130491904Y-51800238D01*
X131920476Y-51609761D02*
X131920476Y-53038333D01*
X131825238Y-53324047D01*
X131634761Y-53514523D01*
X131349047Y-53609761D01*
X131158571Y-53609761D01*
X133825238Y-53609761D02*
X132872857Y-53609761D01*
X132872857Y-51609761D01*
X135634761Y-53419285D02*
X135539523Y-53514523D01*
X135253809Y-53609761D01*
X135063333Y-53609761D01*
X134777619Y-53514523D01*
X134587142Y-53324047D01*
X134491904Y-53133571D01*
X134396666Y-52752619D01*
X134396666Y-52466904D01*
X134491904Y-52085952D01*
X134587142Y-51895476D01*
X134777619Y-51705000D01*
X135063333Y-51609761D01*
X135253809Y-51609761D01*
X135539523Y-51705000D01*
X135634761Y-51800238D01*
%LPC*%
D11*
X59690000Y-78105000D03*
M02*
