G04 #@! TF.GenerationSoftware,KiCad,Pcbnew,6.0.5+dfsg-1~bpo11+1*
G04 #@! TF.CreationDate,2022-08-10T11:57:18+00:00*
G04 #@! TF.ProjectId,ribbon_pcb_panel,72696262-6f6e-45f7-9063-625f70616e65,0*
G04 #@! TF.SameCoordinates,Original*
G04 #@! TF.FileFunction,Copper,L2,Bot*
G04 #@! TF.FilePolarity,Positive*
%FSLAX46Y46*%
G04 Gerber Fmt 4.6, Leading zero omitted, Abs format (unit mm)*
G04 Created by KiCad (PCBNEW 6.0.5+dfsg-1~bpo11+1) date 2022-08-10 11:57:18*
%MOMM*%
%LPD*%
G01*
G04 APERTURE LIST*
G04 #@! TA.AperFunction,ComponentPad*
%ADD10C,2.000000*%
G04 #@! TD*
G04 APERTURE END LIST*
D10*
X59690000Y-78105000D03*
G04 #@! TA.AperFunction,Conductor*
G36*
X238730018Y-47500000D02*
G01*
X238744851Y-47502310D01*
X238744855Y-47502310D01*
X238753724Y-47503691D01*
X238774183Y-47501016D01*
X238796008Y-47500072D01*
X239152937Y-47515656D01*
X239163886Y-47516614D01*
X239548379Y-47567233D01*
X239559205Y-47569142D01*
X239937822Y-47653080D01*
X239948439Y-47655925D01*
X240118702Y-47709608D01*
X240318302Y-47772542D01*
X240328615Y-47776295D01*
X240686932Y-47924715D01*
X240696876Y-47929353D01*
X241040867Y-48108423D01*
X241050387Y-48113919D01*
X241377468Y-48322292D01*
X241386472Y-48328597D01*
X241694138Y-48564678D01*
X241702558Y-48571743D01*
X241988483Y-48833744D01*
X241996256Y-48841517D01*
X242258257Y-49127442D01*
X242265322Y-49135862D01*
X242501403Y-49443528D01*
X242507708Y-49452532D01*
X242716081Y-49779613D01*
X242721577Y-49789133D01*
X242900643Y-50133115D01*
X242905289Y-50143077D01*
X243053702Y-50501377D01*
X243057461Y-50511706D01*
X243174075Y-50881561D01*
X243176920Y-50892178D01*
X243260858Y-51270795D01*
X243262767Y-51281621D01*
X243313386Y-51666114D01*
X243314344Y-51677064D01*
X243329603Y-52026552D01*
X243328223Y-52051429D01*
X243326309Y-52063724D01*
X243327473Y-52072626D01*
X243327473Y-52072628D01*
X243330436Y-52095283D01*
X243331500Y-52111621D01*
X243331500Y-142190633D01*
X243330000Y-142210018D01*
X243327690Y-142224851D01*
X243327690Y-142224855D01*
X243326309Y-142233724D01*
X243328984Y-142254183D01*
X243329928Y-142276012D01*
X243314344Y-142632936D01*
X243313386Y-142643886D01*
X243262767Y-143028379D01*
X243260858Y-143039205D01*
X243176920Y-143417822D01*
X243174075Y-143428439D01*
X243057461Y-143798294D01*
X243053702Y-143808623D01*
X242905289Y-144166923D01*
X242900643Y-144176885D01*
X242721577Y-144520867D01*
X242716081Y-144530387D01*
X242507708Y-144857468D01*
X242501403Y-144866472D01*
X242265322Y-145174138D01*
X242258257Y-145182558D01*
X241996256Y-145468483D01*
X241988483Y-145476256D01*
X241702558Y-145738257D01*
X241694138Y-145745322D01*
X241386472Y-145981403D01*
X241377468Y-145987708D01*
X241050387Y-146196081D01*
X241040868Y-146201576D01*
X240696876Y-146380647D01*
X240686932Y-146385285D01*
X240328615Y-146533705D01*
X240318302Y-146537458D01*
X240118702Y-146600392D01*
X239948439Y-146654075D01*
X239937822Y-146656920D01*
X239559205Y-146740858D01*
X239548379Y-146742767D01*
X239163886Y-146793386D01*
X239152937Y-146794344D01*
X238803446Y-146809603D01*
X238778571Y-146808223D01*
X238766276Y-146806309D01*
X238757374Y-146807473D01*
X238757372Y-146807473D01*
X238742323Y-146809441D01*
X238734714Y-146810436D01*
X238718379Y-146811500D01*
X39419367Y-146811500D01*
X39399982Y-146810000D01*
X39385149Y-146807690D01*
X39385145Y-146807690D01*
X39376276Y-146806309D01*
X39355817Y-146808984D01*
X39333992Y-146809928D01*
X38977063Y-146794344D01*
X38966114Y-146793386D01*
X38581621Y-146742767D01*
X38570795Y-146740858D01*
X38192178Y-146656920D01*
X38181561Y-146654075D01*
X38011298Y-146600392D01*
X37811698Y-146537458D01*
X37801385Y-146533705D01*
X37443068Y-146385285D01*
X37433124Y-146380647D01*
X37089132Y-146201576D01*
X37079613Y-146196081D01*
X36752532Y-145987708D01*
X36743528Y-145981403D01*
X36435862Y-145745322D01*
X36427442Y-145738257D01*
X36141517Y-145476256D01*
X36133744Y-145468483D01*
X35871743Y-145182558D01*
X35864678Y-145174138D01*
X35628597Y-144866472D01*
X35622292Y-144857468D01*
X35413919Y-144530387D01*
X35408423Y-144520867D01*
X35229357Y-144176885D01*
X35224711Y-144166923D01*
X35076298Y-143808623D01*
X35072539Y-143798294D01*
X34955925Y-143428439D01*
X34953080Y-143417822D01*
X34869142Y-143039205D01*
X34867233Y-143028379D01*
X34816614Y-142643886D01*
X34815656Y-142632936D01*
X34800561Y-142287208D01*
X34802188Y-142260805D01*
X34802769Y-142257352D01*
X34802770Y-142257345D01*
X34803576Y-142252552D01*
X34803729Y-142240000D01*
X34799773Y-142212376D01*
X34798500Y-142194514D01*
X34798500Y-121920000D01*
X49651445Y-121920000D01*
X49671651Y-122305559D01*
X49672164Y-122308799D01*
X49672165Y-122308807D01*
X49690762Y-122426222D01*
X49732049Y-122686894D01*
X49831976Y-123059826D01*
X49970337Y-123420270D01*
X49971835Y-123423210D01*
X50048021Y-123572732D01*
X50145618Y-123764277D01*
X50147414Y-123767043D01*
X50147416Y-123767046D01*
X50251344Y-123927081D01*
X50355896Y-124088078D01*
X50598869Y-124388125D01*
X50871875Y-124661131D01*
X51171922Y-124904104D01*
X51495722Y-125114382D01*
X51498656Y-125115877D01*
X51498663Y-125115881D01*
X51774946Y-125256654D01*
X51839730Y-125289663D01*
X52200174Y-125428024D01*
X52573106Y-125527951D01*
X52775643Y-125560030D01*
X52951193Y-125587835D01*
X52951201Y-125587836D01*
X52954441Y-125588349D01*
X53340000Y-125608555D01*
X53725559Y-125588349D01*
X53728799Y-125587836D01*
X53728807Y-125587835D01*
X53904357Y-125560030D01*
X54106894Y-125527951D01*
X54479826Y-125428024D01*
X54840270Y-125289663D01*
X54905054Y-125256654D01*
X55181337Y-125115881D01*
X55181344Y-125115877D01*
X55184278Y-125114382D01*
X55508078Y-124904104D01*
X55808125Y-124661131D01*
X56081131Y-124388125D01*
X56324104Y-124088078D01*
X56428656Y-123927081D01*
X56532584Y-123767046D01*
X56532586Y-123767043D01*
X56534382Y-123764277D01*
X56631980Y-123572732D01*
X56708165Y-123423210D01*
X56709663Y-123420270D01*
X56848024Y-123059826D01*
X56947951Y-122686894D01*
X56989238Y-122426222D01*
X57007835Y-122308807D01*
X57007836Y-122308799D01*
X57008349Y-122305559D01*
X57028555Y-121920000D01*
X68701445Y-121920000D01*
X68721651Y-122305559D01*
X68722164Y-122308799D01*
X68722165Y-122308807D01*
X68740762Y-122426222D01*
X68782049Y-122686894D01*
X68881976Y-123059826D01*
X69020337Y-123420270D01*
X69021835Y-123423210D01*
X69098021Y-123572732D01*
X69195618Y-123764277D01*
X69197414Y-123767043D01*
X69197416Y-123767046D01*
X69301344Y-123927081D01*
X69405896Y-124088078D01*
X69648869Y-124388125D01*
X69921875Y-124661131D01*
X70221922Y-124904104D01*
X70545722Y-125114382D01*
X70548656Y-125115877D01*
X70548663Y-125115881D01*
X70824946Y-125256654D01*
X70889730Y-125289663D01*
X71250174Y-125428024D01*
X71623106Y-125527951D01*
X71825643Y-125560030D01*
X72001193Y-125587835D01*
X72001201Y-125587836D01*
X72004441Y-125588349D01*
X72390000Y-125608555D01*
X72775559Y-125588349D01*
X72778799Y-125587836D01*
X72778807Y-125587835D01*
X72954357Y-125560030D01*
X73156894Y-125527951D01*
X73529826Y-125428024D01*
X73890270Y-125289663D01*
X73955054Y-125256654D01*
X74231337Y-125115881D01*
X74231344Y-125115877D01*
X74234278Y-125114382D01*
X74558078Y-124904104D01*
X74858125Y-124661131D01*
X75131131Y-124388125D01*
X75374104Y-124088078D01*
X75478656Y-123927081D01*
X75582584Y-123767046D01*
X75582586Y-123767043D01*
X75584382Y-123764277D01*
X75681980Y-123572732D01*
X75758165Y-123423210D01*
X75759663Y-123420270D01*
X75898024Y-123059826D01*
X75997951Y-122686894D01*
X76039238Y-122426222D01*
X76057835Y-122308807D01*
X76057836Y-122308799D01*
X76058349Y-122305559D01*
X76078555Y-121920000D01*
X87751445Y-121920000D01*
X87771651Y-122305559D01*
X87772164Y-122308799D01*
X87772165Y-122308807D01*
X87790762Y-122426222D01*
X87832049Y-122686894D01*
X87931976Y-123059826D01*
X88070337Y-123420270D01*
X88071835Y-123423210D01*
X88148021Y-123572732D01*
X88245618Y-123764277D01*
X88247414Y-123767043D01*
X88247416Y-123767046D01*
X88351344Y-123927081D01*
X88455896Y-124088078D01*
X88698869Y-124388125D01*
X88971875Y-124661131D01*
X89271922Y-124904104D01*
X89595722Y-125114382D01*
X89598656Y-125115877D01*
X89598663Y-125115881D01*
X89874946Y-125256654D01*
X89939730Y-125289663D01*
X90300174Y-125428024D01*
X90673106Y-125527951D01*
X90875643Y-125560030D01*
X91051193Y-125587835D01*
X91051201Y-125587836D01*
X91054441Y-125588349D01*
X91440000Y-125608555D01*
X91825559Y-125588349D01*
X91828799Y-125587836D01*
X91828807Y-125587835D01*
X92004357Y-125560030D01*
X92206894Y-125527951D01*
X92579826Y-125428024D01*
X92940270Y-125289663D01*
X93005054Y-125256654D01*
X93281337Y-125115881D01*
X93281344Y-125115877D01*
X93284278Y-125114382D01*
X93608078Y-124904104D01*
X93908125Y-124661131D01*
X94181131Y-124388125D01*
X94424104Y-124088078D01*
X94528656Y-123927081D01*
X94632584Y-123767046D01*
X94632586Y-123767043D01*
X94634382Y-123764277D01*
X94731980Y-123572732D01*
X94808165Y-123423210D01*
X94809663Y-123420270D01*
X94948024Y-123059826D01*
X95047951Y-122686894D01*
X95089238Y-122426222D01*
X95107835Y-122308807D01*
X95107836Y-122308799D01*
X95108349Y-122305559D01*
X95128555Y-121920000D01*
X106801445Y-121920000D01*
X106821651Y-122305559D01*
X106822164Y-122308799D01*
X106822165Y-122308807D01*
X106840762Y-122426222D01*
X106882049Y-122686894D01*
X106981976Y-123059826D01*
X107120337Y-123420270D01*
X107121835Y-123423210D01*
X107198021Y-123572732D01*
X107295618Y-123764277D01*
X107297414Y-123767043D01*
X107297416Y-123767046D01*
X107401344Y-123927081D01*
X107505896Y-124088078D01*
X107748869Y-124388125D01*
X108021875Y-124661131D01*
X108321922Y-124904104D01*
X108645722Y-125114382D01*
X108648656Y-125115877D01*
X108648663Y-125115881D01*
X108924946Y-125256654D01*
X108989730Y-125289663D01*
X109350174Y-125428024D01*
X109723106Y-125527951D01*
X109925643Y-125560030D01*
X110101193Y-125587835D01*
X110101201Y-125587836D01*
X110104441Y-125588349D01*
X110490000Y-125608555D01*
X110875559Y-125588349D01*
X110878799Y-125587836D01*
X110878807Y-125587835D01*
X111054357Y-125560030D01*
X111256894Y-125527951D01*
X111629826Y-125428024D01*
X111990270Y-125289663D01*
X112055054Y-125256654D01*
X112331337Y-125115881D01*
X112331344Y-125115877D01*
X112334278Y-125114382D01*
X112658078Y-124904104D01*
X112958125Y-124661131D01*
X113231131Y-124388125D01*
X113474104Y-124088078D01*
X113578656Y-123927081D01*
X113682584Y-123767046D01*
X113682586Y-123767043D01*
X113684382Y-123764277D01*
X113781980Y-123572732D01*
X113858165Y-123423210D01*
X113859663Y-123420270D01*
X113998024Y-123059826D01*
X114097951Y-122686894D01*
X114139238Y-122426222D01*
X114157835Y-122308807D01*
X114157836Y-122308799D01*
X114158349Y-122305559D01*
X114178555Y-121920000D01*
X132201445Y-121920000D01*
X132221651Y-122305559D01*
X132222164Y-122308799D01*
X132222165Y-122308807D01*
X132240762Y-122426222D01*
X132282049Y-122686894D01*
X132381976Y-123059826D01*
X132520337Y-123420270D01*
X132521835Y-123423210D01*
X132598021Y-123572732D01*
X132695618Y-123764277D01*
X132697414Y-123767043D01*
X132697416Y-123767046D01*
X132801344Y-123927081D01*
X132905896Y-124088078D01*
X133148869Y-124388125D01*
X133421875Y-124661131D01*
X133721922Y-124904104D01*
X134045722Y-125114382D01*
X134048656Y-125115877D01*
X134048663Y-125115881D01*
X134324946Y-125256654D01*
X134389730Y-125289663D01*
X134750174Y-125428024D01*
X135123106Y-125527951D01*
X135325643Y-125560030D01*
X135501193Y-125587835D01*
X135501201Y-125587836D01*
X135504441Y-125588349D01*
X135890000Y-125608555D01*
X136275559Y-125588349D01*
X136278799Y-125587836D01*
X136278807Y-125587835D01*
X136454357Y-125560030D01*
X136656894Y-125527951D01*
X137029826Y-125428024D01*
X137390270Y-125289663D01*
X137455054Y-125256654D01*
X137731337Y-125115881D01*
X137731344Y-125115877D01*
X137734278Y-125114382D01*
X138058078Y-124904104D01*
X138358125Y-124661131D01*
X138631131Y-124388125D01*
X138874104Y-124088078D01*
X138978656Y-123927081D01*
X139082584Y-123767046D01*
X139082586Y-123767043D01*
X139084382Y-123764277D01*
X139181980Y-123572732D01*
X139258165Y-123423210D01*
X139259663Y-123420270D01*
X139398024Y-123059826D01*
X139497951Y-122686894D01*
X139539238Y-122426222D01*
X139557835Y-122308807D01*
X139557836Y-122308799D01*
X139558349Y-122305559D01*
X139578555Y-121920000D01*
X189351445Y-121920000D01*
X189371651Y-122305559D01*
X189372164Y-122308799D01*
X189372165Y-122308807D01*
X189390762Y-122426222D01*
X189432049Y-122686894D01*
X189531976Y-123059826D01*
X189670337Y-123420270D01*
X189671835Y-123423210D01*
X189748021Y-123572732D01*
X189845618Y-123764277D01*
X189847414Y-123767043D01*
X189847416Y-123767046D01*
X189951344Y-123927081D01*
X190055896Y-124088078D01*
X190298869Y-124388125D01*
X190571875Y-124661131D01*
X190871922Y-124904104D01*
X191195722Y-125114382D01*
X191198656Y-125115877D01*
X191198663Y-125115881D01*
X191474946Y-125256654D01*
X191539730Y-125289663D01*
X191900174Y-125428024D01*
X192273106Y-125527951D01*
X192475643Y-125560030D01*
X192651193Y-125587835D01*
X192651201Y-125587836D01*
X192654441Y-125588349D01*
X193040000Y-125608555D01*
X193425559Y-125588349D01*
X193428799Y-125587836D01*
X193428807Y-125587835D01*
X193604357Y-125560030D01*
X193806894Y-125527951D01*
X194179826Y-125428024D01*
X194540270Y-125289663D01*
X194605054Y-125256654D01*
X194881337Y-125115881D01*
X194881344Y-125115877D01*
X194884278Y-125114382D01*
X195208078Y-124904104D01*
X195508125Y-124661131D01*
X195781131Y-124388125D01*
X196024104Y-124088078D01*
X196128656Y-123927081D01*
X196232584Y-123767046D01*
X196232586Y-123767043D01*
X196234382Y-123764277D01*
X196331980Y-123572732D01*
X196408165Y-123423210D01*
X196409663Y-123420270D01*
X196548024Y-123059826D01*
X196647951Y-122686894D01*
X196689238Y-122426222D01*
X196707835Y-122308807D01*
X196707836Y-122308799D01*
X196708349Y-122305559D01*
X196728555Y-121920000D01*
X196725582Y-121863266D01*
X214377001Y-121863266D01*
X214377109Y-121866356D01*
X214377499Y-121877534D01*
X214389347Y-122216798D01*
X214390856Y-122260016D01*
X214391262Y-122263060D01*
X214391263Y-122263070D01*
X214397366Y-122308807D01*
X214443361Y-122653521D01*
X214444061Y-122656505D01*
X214444062Y-122656511D01*
X214496492Y-122880047D01*
X214534014Y-123040023D01*
X214661951Y-123415835D01*
X214825950Y-123777369D01*
X215024446Y-124121174D01*
X215026235Y-124123672D01*
X215026237Y-124123676D01*
X215223528Y-124399249D01*
X215255544Y-124443969D01*
X215257571Y-124446284D01*
X215257573Y-124446287D01*
X215422604Y-124634800D01*
X215517038Y-124742671D01*
X215519286Y-124744782D01*
X215804178Y-125012314D01*
X215804185Y-125012320D01*
X215806433Y-125014431D01*
X215808883Y-125016318D01*
X215808888Y-125016322D01*
X216118522Y-125254773D01*
X216120965Y-125256654D01*
X216123564Y-125258278D01*
X216123574Y-125258285D01*
X216304998Y-125371650D01*
X216457634Y-125467027D01*
X216813224Y-125643544D01*
X217184342Y-125784518D01*
X217567446Y-125888605D01*
X217570489Y-125889120D01*
X217570495Y-125889121D01*
X217955837Y-125954297D01*
X217955844Y-125954298D01*
X217958878Y-125954811D01*
X217961949Y-125955026D01*
X217961951Y-125955026D01*
X218351837Y-125982290D01*
X218351845Y-125982290D01*
X218354903Y-125982504D01*
X218611170Y-125975346D01*
X218748666Y-125971505D01*
X218748669Y-125971505D01*
X218751740Y-125971419D01*
X218754793Y-125971033D01*
X218754797Y-125971033D01*
X218943315Y-125947218D01*
X219145601Y-125921663D01*
X219148605Y-125920981D01*
X219148608Y-125920980D01*
X219529731Y-125834391D01*
X219529737Y-125834389D01*
X219532727Y-125833710D01*
X219680604Y-125784518D01*
X219906499Y-125709373D01*
X219906505Y-125709371D01*
X219909423Y-125708400D01*
X220052633Y-125644639D01*
X220269294Y-125548176D01*
X220269300Y-125548173D01*
X220272094Y-125546929D01*
X220304593Y-125528467D01*
X220614603Y-125352357D01*
X220614611Y-125352352D01*
X220617276Y-125350838D01*
X220941676Y-125121999D01*
X220950501Y-125114382D01*
X221239859Y-124864614D01*
X221242197Y-124862596D01*
X221244318Y-124860369D01*
X221244324Y-124860363D01*
X221513853Y-124577329D01*
X221515970Y-124575106D01*
X221518481Y-124571893D01*
X221758472Y-124264717D01*
X221758474Y-124264714D01*
X221760382Y-124262272D01*
X221762038Y-124259662D01*
X221762044Y-124259654D01*
X221971447Y-123929688D01*
X221971451Y-123929681D01*
X221973101Y-123927081D01*
X221999390Y-123875039D01*
X222075235Y-123724890D01*
X222152096Y-123572732D01*
X222153203Y-123569878D01*
X222153207Y-123569869D01*
X222294543Y-123205483D01*
X222294546Y-123205474D01*
X222295658Y-123202607D01*
X222385718Y-122880047D01*
X222401589Y-122823205D01*
X222401590Y-122823203D01*
X222402417Y-122820239D01*
X222471354Y-122429278D01*
X222501811Y-122033457D01*
X222503395Y-121920000D01*
X222502030Y-121892077D01*
X222486813Y-121580967D01*
X222484002Y-121523482D01*
X222444632Y-121256868D01*
X222426458Y-121133795D01*
X222426457Y-121133791D01*
X222426008Y-121130749D01*
X222329967Y-120745550D01*
X222311728Y-120694327D01*
X222265140Y-120563494D01*
X222196796Y-120371561D01*
X222027765Y-120012352D01*
X221998015Y-119962445D01*
X221887380Y-119776855D01*
X221824488Y-119671352D01*
X221588906Y-119351815D01*
X221323266Y-119056793D01*
X221030105Y-118789100D01*
X220712222Y-118551293D01*
X220663370Y-118521707D01*
X220375277Y-118347231D01*
X220375268Y-118347226D01*
X220372649Y-118345640D01*
X220014629Y-118174106D01*
X219955229Y-118152486D01*
X219644475Y-118039381D01*
X219644474Y-118039381D01*
X219641579Y-118038327D01*
X219434688Y-117985206D01*
X219260043Y-117940365D01*
X219260040Y-117940364D01*
X219257059Y-117939599D01*
X218864740Y-117878865D01*
X218861683Y-117878694D01*
X218861682Y-117878694D01*
X218832924Y-117877086D01*
X218468368Y-117856704D01*
X218465290Y-117856833D01*
X218465286Y-117856833D01*
X218206983Y-117867659D01*
X218071724Y-117873328D01*
X218068680Y-117873756D01*
X218068678Y-117873756D01*
X218028989Y-117879334D01*
X217678596Y-117928579D01*
X217292735Y-118021928D01*
X216917825Y-118152486D01*
X216871035Y-118174106D01*
X216560242Y-118317712D01*
X216560232Y-118317717D01*
X216557445Y-118319005D01*
X216215034Y-118519896D01*
X216174018Y-118549696D01*
X215896342Y-118751439D01*
X215896336Y-118751444D01*
X215893861Y-118753242D01*
X215891575Y-118755271D01*
X215891572Y-118755274D01*
X215851134Y-118791177D01*
X215596991Y-119016815D01*
X215594901Y-119019072D01*
X215594899Y-119019074D01*
X215329354Y-119305837D01*
X215329349Y-119305843D01*
X215327259Y-119308100D01*
X215325399Y-119310550D01*
X215325396Y-119310554D01*
X215292202Y-119354286D01*
X215087238Y-119624316D01*
X215085627Y-119626934D01*
X215085624Y-119626939D01*
X214880834Y-119959821D01*
X214879220Y-119962445D01*
X214705190Y-120319258D01*
X214704119Y-120322139D01*
X214704116Y-120322145D01*
X214618146Y-120553313D01*
X214566810Y-120691352D01*
X214465400Y-121075173D01*
X214401928Y-121467058D01*
X214401734Y-121470138D01*
X214401734Y-121470140D01*
X214394762Y-121580967D01*
X214377001Y-121863266D01*
X196725582Y-121863266D01*
X196708349Y-121534441D01*
X196707100Y-121526552D01*
X196648467Y-121156367D01*
X196647951Y-121153106D01*
X196548024Y-120780174D01*
X196535886Y-120748552D01*
X196410847Y-120422815D01*
X196409663Y-120419730D01*
X196357058Y-120316487D01*
X196235881Y-120078664D01*
X196235877Y-120078657D01*
X196234382Y-120075723D01*
X196183703Y-119997683D01*
X196025906Y-119754697D01*
X196024104Y-119751922D01*
X195781131Y-119451875D01*
X195508125Y-119178869D01*
X195208078Y-118935896D01*
X194979194Y-118787257D01*
X194887047Y-118727416D01*
X194887044Y-118727414D01*
X194884278Y-118725618D01*
X194881344Y-118724123D01*
X194881337Y-118724119D01*
X194543210Y-118551835D01*
X194540270Y-118550337D01*
X194179826Y-118411976D01*
X193806894Y-118312049D01*
X193604357Y-118279970D01*
X193428807Y-118252165D01*
X193428799Y-118252164D01*
X193425559Y-118251651D01*
X193040000Y-118231445D01*
X192654441Y-118251651D01*
X192651201Y-118252164D01*
X192651193Y-118252165D01*
X192475643Y-118279970D01*
X192273106Y-118312049D01*
X191900174Y-118411976D01*
X191539730Y-118550337D01*
X191536790Y-118551835D01*
X191198664Y-118724119D01*
X191198657Y-118724123D01*
X191195723Y-118725618D01*
X191192957Y-118727414D01*
X191192954Y-118727416D01*
X190979166Y-118866251D01*
X190871922Y-118935896D01*
X190571875Y-119178869D01*
X190298869Y-119451875D01*
X190055896Y-119751922D01*
X190054094Y-119754697D01*
X189896298Y-119997683D01*
X189845618Y-120075723D01*
X189844123Y-120078657D01*
X189844119Y-120078664D01*
X189722942Y-120316487D01*
X189670337Y-120419730D01*
X189669153Y-120422815D01*
X189544115Y-120748552D01*
X189531976Y-120780174D01*
X189432049Y-121153106D01*
X189431533Y-121156367D01*
X189372901Y-121526552D01*
X189371651Y-121534441D01*
X189352908Y-121892077D01*
X189351445Y-121920000D01*
X139578555Y-121920000D01*
X139558349Y-121534441D01*
X139557100Y-121526552D01*
X139498467Y-121156367D01*
X139497951Y-121153106D01*
X139398024Y-120780174D01*
X139385886Y-120748552D01*
X139260847Y-120422815D01*
X139259663Y-120419730D01*
X139207058Y-120316487D01*
X139085881Y-120078664D01*
X139085877Y-120078657D01*
X139084382Y-120075723D01*
X139033703Y-119997683D01*
X138875906Y-119754697D01*
X138874104Y-119751922D01*
X138631131Y-119451875D01*
X138358125Y-119178869D01*
X138058078Y-118935896D01*
X137829194Y-118787257D01*
X137737047Y-118727416D01*
X137737044Y-118727414D01*
X137734278Y-118725618D01*
X137731344Y-118724123D01*
X137731337Y-118724119D01*
X137393210Y-118551835D01*
X137390270Y-118550337D01*
X137029826Y-118411976D01*
X136656894Y-118312049D01*
X136454357Y-118279970D01*
X136278807Y-118252165D01*
X136278799Y-118252164D01*
X136275559Y-118251651D01*
X135890000Y-118231445D01*
X135504441Y-118251651D01*
X135501201Y-118252164D01*
X135501193Y-118252165D01*
X135325643Y-118279970D01*
X135123106Y-118312049D01*
X134750174Y-118411976D01*
X134389730Y-118550337D01*
X134386790Y-118551835D01*
X134048664Y-118724119D01*
X134048657Y-118724123D01*
X134045723Y-118725618D01*
X134042957Y-118727414D01*
X134042954Y-118727416D01*
X133829166Y-118866251D01*
X133721922Y-118935896D01*
X133421875Y-119178869D01*
X133148869Y-119451875D01*
X132905896Y-119751922D01*
X132904094Y-119754697D01*
X132746298Y-119997683D01*
X132695618Y-120075723D01*
X132694123Y-120078657D01*
X132694119Y-120078664D01*
X132572942Y-120316487D01*
X132520337Y-120419730D01*
X132519153Y-120422815D01*
X132394115Y-120748552D01*
X132381976Y-120780174D01*
X132282049Y-121153106D01*
X132281533Y-121156367D01*
X132222901Y-121526552D01*
X132221651Y-121534441D01*
X132202908Y-121892077D01*
X132201445Y-121920000D01*
X114178555Y-121920000D01*
X114158349Y-121534441D01*
X114157100Y-121526552D01*
X114098467Y-121156367D01*
X114097951Y-121153106D01*
X113998024Y-120780174D01*
X113985886Y-120748552D01*
X113860847Y-120422815D01*
X113859663Y-120419730D01*
X113807058Y-120316487D01*
X113685881Y-120078664D01*
X113685877Y-120078657D01*
X113684382Y-120075723D01*
X113633703Y-119997683D01*
X113475906Y-119754697D01*
X113474104Y-119751922D01*
X113231131Y-119451875D01*
X112958125Y-119178869D01*
X112658078Y-118935896D01*
X112429194Y-118787257D01*
X112337047Y-118727416D01*
X112337044Y-118727414D01*
X112334278Y-118725618D01*
X112331344Y-118724123D01*
X112331337Y-118724119D01*
X111993210Y-118551835D01*
X111990270Y-118550337D01*
X111629826Y-118411976D01*
X111256894Y-118312049D01*
X111054357Y-118279970D01*
X110878807Y-118252165D01*
X110878799Y-118252164D01*
X110875559Y-118251651D01*
X110490000Y-118231445D01*
X110104441Y-118251651D01*
X110101201Y-118252164D01*
X110101193Y-118252165D01*
X109925643Y-118279970D01*
X109723106Y-118312049D01*
X109350174Y-118411976D01*
X108989730Y-118550337D01*
X108986790Y-118551835D01*
X108648664Y-118724119D01*
X108648657Y-118724123D01*
X108645723Y-118725618D01*
X108642957Y-118727414D01*
X108642954Y-118727416D01*
X108429166Y-118866251D01*
X108321922Y-118935896D01*
X108021875Y-119178869D01*
X107748869Y-119451875D01*
X107505896Y-119751922D01*
X107504094Y-119754697D01*
X107346298Y-119997683D01*
X107295618Y-120075723D01*
X107294123Y-120078657D01*
X107294119Y-120078664D01*
X107172942Y-120316487D01*
X107120337Y-120419730D01*
X107119153Y-120422815D01*
X106994115Y-120748552D01*
X106981976Y-120780174D01*
X106882049Y-121153106D01*
X106881533Y-121156367D01*
X106822901Y-121526552D01*
X106821651Y-121534441D01*
X106802908Y-121892077D01*
X106801445Y-121920000D01*
X95128555Y-121920000D01*
X95108349Y-121534441D01*
X95107100Y-121526552D01*
X95048467Y-121156367D01*
X95047951Y-121153106D01*
X94948024Y-120780174D01*
X94935886Y-120748552D01*
X94810847Y-120422815D01*
X94809663Y-120419730D01*
X94757058Y-120316487D01*
X94635881Y-120078664D01*
X94635877Y-120078657D01*
X94634382Y-120075723D01*
X94583703Y-119997683D01*
X94425906Y-119754697D01*
X94424104Y-119751922D01*
X94181131Y-119451875D01*
X93908125Y-119178869D01*
X93608078Y-118935896D01*
X93379194Y-118787257D01*
X93287047Y-118727416D01*
X93287044Y-118727414D01*
X93284278Y-118725618D01*
X93281344Y-118724123D01*
X93281337Y-118724119D01*
X92943210Y-118551835D01*
X92940270Y-118550337D01*
X92579826Y-118411976D01*
X92206894Y-118312049D01*
X92004357Y-118279970D01*
X91828807Y-118252165D01*
X91828799Y-118252164D01*
X91825559Y-118251651D01*
X91440000Y-118231445D01*
X91054441Y-118251651D01*
X91051201Y-118252164D01*
X91051193Y-118252165D01*
X90875643Y-118279970D01*
X90673106Y-118312049D01*
X90300174Y-118411976D01*
X89939730Y-118550337D01*
X89936790Y-118551835D01*
X89598664Y-118724119D01*
X89598657Y-118724123D01*
X89595723Y-118725618D01*
X89592957Y-118727414D01*
X89592954Y-118727416D01*
X89379166Y-118866251D01*
X89271922Y-118935896D01*
X88971875Y-119178869D01*
X88698869Y-119451875D01*
X88455896Y-119751922D01*
X88454094Y-119754697D01*
X88296298Y-119997683D01*
X88245618Y-120075723D01*
X88244123Y-120078657D01*
X88244119Y-120078664D01*
X88122942Y-120316487D01*
X88070337Y-120419730D01*
X88069153Y-120422815D01*
X87944115Y-120748552D01*
X87931976Y-120780174D01*
X87832049Y-121153106D01*
X87831533Y-121156367D01*
X87772901Y-121526552D01*
X87771651Y-121534441D01*
X87752908Y-121892077D01*
X87751445Y-121920000D01*
X76078555Y-121920000D01*
X76058349Y-121534441D01*
X76057100Y-121526552D01*
X75998467Y-121156367D01*
X75997951Y-121153106D01*
X75898024Y-120780174D01*
X75885886Y-120748552D01*
X75760847Y-120422815D01*
X75759663Y-120419730D01*
X75707058Y-120316487D01*
X75585881Y-120078664D01*
X75585877Y-120078657D01*
X75584382Y-120075723D01*
X75533703Y-119997683D01*
X75375906Y-119754697D01*
X75374104Y-119751922D01*
X75131131Y-119451875D01*
X74858125Y-119178869D01*
X74558078Y-118935896D01*
X74329194Y-118787257D01*
X74237047Y-118727416D01*
X74237044Y-118727414D01*
X74234278Y-118725618D01*
X74231344Y-118724123D01*
X74231337Y-118724119D01*
X73893210Y-118551835D01*
X73890270Y-118550337D01*
X73529826Y-118411976D01*
X73156894Y-118312049D01*
X72954357Y-118279970D01*
X72778807Y-118252165D01*
X72778799Y-118252164D01*
X72775559Y-118251651D01*
X72390000Y-118231445D01*
X72004441Y-118251651D01*
X72001201Y-118252164D01*
X72001193Y-118252165D01*
X71825643Y-118279970D01*
X71623106Y-118312049D01*
X71250174Y-118411976D01*
X70889730Y-118550337D01*
X70886790Y-118551835D01*
X70548664Y-118724119D01*
X70548657Y-118724123D01*
X70545723Y-118725618D01*
X70542957Y-118727414D01*
X70542954Y-118727416D01*
X70329166Y-118866251D01*
X70221922Y-118935896D01*
X69921875Y-119178869D01*
X69648869Y-119451875D01*
X69405896Y-119751922D01*
X69404094Y-119754697D01*
X69246298Y-119997683D01*
X69195618Y-120075723D01*
X69194123Y-120078657D01*
X69194119Y-120078664D01*
X69072942Y-120316487D01*
X69020337Y-120419730D01*
X69019153Y-120422815D01*
X68894115Y-120748552D01*
X68881976Y-120780174D01*
X68782049Y-121153106D01*
X68781533Y-121156367D01*
X68722901Y-121526552D01*
X68721651Y-121534441D01*
X68702908Y-121892077D01*
X68701445Y-121920000D01*
X57028555Y-121920000D01*
X57008349Y-121534441D01*
X57007100Y-121526552D01*
X56948467Y-121156367D01*
X56947951Y-121153106D01*
X56848024Y-120780174D01*
X56835886Y-120748552D01*
X56710847Y-120422815D01*
X56709663Y-120419730D01*
X56657058Y-120316487D01*
X56535881Y-120078664D01*
X56535877Y-120078657D01*
X56534382Y-120075723D01*
X56483703Y-119997683D01*
X56325906Y-119754697D01*
X56324104Y-119751922D01*
X56081131Y-119451875D01*
X55808125Y-119178869D01*
X55508078Y-118935896D01*
X55279194Y-118787257D01*
X55187047Y-118727416D01*
X55187044Y-118727414D01*
X55184278Y-118725618D01*
X55181344Y-118724123D01*
X55181337Y-118724119D01*
X54843210Y-118551835D01*
X54840270Y-118550337D01*
X54479826Y-118411976D01*
X54106894Y-118312049D01*
X53904357Y-118279970D01*
X53728807Y-118252165D01*
X53728799Y-118252164D01*
X53725559Y-118251651D01*
X53340000Y-118231445D01*
X52954441Y-118251651D01*
X52951201Y-118252164D01*
X52951193Y-118252165D01*
X52775643Y-118279970D01*
X52573106Y-118312049D01*
X52200174Y-118411976D01*
X51839730Y-118550337D01*
X51836790Y-118551835D01*
X51498664Y-118724119D01*
X51498657Y-118724123D01*
X51495723Y-118725618D01*
X51492957Y-118727414D01*
X51492954Y-118727416D01*
X51279166Y-118866251D01*
X51171922Y-118935896D01*
X50871875Y-119178869D01*
X50598869Y-119451875D01*
X50355896Y-119751922D01*
X50354094Y-119754697D01*
X50196298Y-119997683D01*
X50145618Y-120075723D01*
X50144123Y-120078657D01*
X50144119Y-120078664D01*
X50022942Y-120316487D01*
X49970337Y-120419730D01*
X49969153Y-120422815D01*
X49844115Y-120748552D01*
X49831976Y-120780174D01*
X49732049Y-121153106D01*
X49731533Y-121156367D01*
X49672901Y-121526552D01*
X49671651Y-121534441D01*
X49652908Y-121892077D01*
X49651445Y-121920000D01*
X34798500Y-121920000D01*
X34798500Y-79337670D01*
X58822160Y-79337670D01*
X58827887Y-79345320D01*
X58999042Y-79450205D01*
X59007837Y-79454687D01*
X59217988Y-79541734D01*
X59227373Y-79544783D01*
X59448554Y-79597885D01*
X59458301Y-79599428D01*
X59685070Y-79617275D01*
X59694930Y-79617275D01*
X59921699Y-79599428D01*
X59931446Y-79597885D01*
X60152627Y-79544783D01*
X60162012Y-79541734D01*
X60372163Y-79454687D01*
X60380958Y-79450205D01*
X60548445Y-79347568D01*
X60557907Y-79337110D01*
X60554124Y-79328334D01*
X59702812Y-78477022D01*
X59688868Y-78469408D01*
X59687035Y-78469539D01*
X59680420Y-78473790D01*
X58828920Y-79325290D01*
X58822160Y-79337670D01*
X34798500Y-79337670D01*
X34798500Y-78109930D01*
X58177725Y-78109930D01*
X58195572Y-78336699D01*
X58197115Y-78346446D01*
X58250217Y-78567627D01*
X58253266Y-78577012D01*
X58340313Y-78787163D01*
X58344795Y-78795958D01*
X58447432Y-78963445D01*
X58457890Y-78972907D01*
X58466666Y-78969124D01*
X59317978Y-78117812D01*
X59324356Y-78106132D01*
X60054408Y-78106132D01*
X60054539Y-78107965D01*
X60058790Y-78114580D01*
X60910290Y-78966080D01*
X60922670Y-78972840D01*
X60930320Y-78967113D01*
X61035205Y-78795958D01*
X61039687Y-78787163D01*
X61126734Y-78577012D01*
X61129783Y-78567627D01*
X61182885Y-78346446D01*
X61184428Y-78336699D01*
X61202275Y-78109930D01*
X61202275Y-78100070D01*
X61184428Y-77873301D01*
X61182885Y-77863554D01*
X61129783Y-77642373D01*
X61126734Y-77632988D01*
X61039687Y-77422837D01*
X61035205Y-77414042D01*
X60932568Y-77246555D01*
X60922110Y-77237093D01*
X60913334Y-77240876D01*
X60062022Y-78092188D01*
X60054408Y-78106132D01*
X59324356Y-78106132D01*
X59325592Y-78103868D01*
X59325461Y-78102035D01*
X59321210Y-78095420D01*
X58469710Y-77243920D01*
X58457330Y-77237160D01*
X58449680Y-77242887D01*
X58344795Y-77414042D01*
X58340313Y-77422837D01*
X58253266Y-77632988D01*
X58250217Y-77642373D01*
X58197115Y-77863554D01*
X58195572Y-77873301D01*
X58177725Y-78100070D01*
X58177725Y-78109930D01*
X34798500Y-78109930D01*
X34798500Y-76872890D01*
X58822093Y-76872890D01*
X58825876Y-76881666D01*
X59677188Y-77732978D01*
X59691132Y-77740592D01*
X59692965Y-77740461D01*
X59699580Y-77736210D01*
X60551080Y-76884710D01*
X60557840Y-76872330D01*
X60552113Y-76864680D01*
X60380958Y-76759795D01*
X60372163Y-76755313D01*
X60162012Y-76668266D01*
X60152627Y-76665217D01*
X59931446Y-76612115D01*
X59921699Y-76610572D01*
X59694930Y-76592725D01*
X59685070Y-76592725D01*
X59458301Y-76610572D01*
X59448554Y-76612115D01*
X59227373Y-76665217D01*
X59217988Y-76668266D01*
X59007837Y-76755313D01*
X58999042Y-76759795D01*
X58831555Y-76862432D01*
X58822093Y-76872890D01*
X34798500Y-76872890D01*
X34798500Y-71063266D01*
X55627001Y-71063266D01*
X55627109Y-71066356D01*
X55627499Y-71077534D01*
X55640667Y-71454598D01*
X55640856Y-71460016D01*
X55641262Y-71463060D01*
X55641263Y-71463070D01*
X55663440Y-71629278D01*
X55693361Y-71853521D01*
X55694061Y-71856505D01*
X55694062Y-71856511D01*
X55745221Y-72074629D01*
X55784014Y-72240023D01*
X55911951Y-72615835D01*
X56075950Y-72977369D01*
X56274446Y-73321174D01*
X56276235Y-73323672D01*
X56276237Y-73323676D01*
X56503325Y-73640869D01*
X56505544Y-73643969D01*
X56507571Y-73646284D01*
X56507573Y-73646287D01*
X56667861Y-73829382D01*
X56767038Y-73942671D01*
X56769286Y-73944782D01*
X57054178Y-74212314D01*
X57054185Y-74212320D01*
X57056433Y-74214431D01*
X57058883Y-74216318D01*
X57058888Y-74216322D01*
X57366047Y-74452867D01*
X57370965Y-74456654D01*
X57373564Y-74458278D01*
X57373574Y-74458285D01*
X57554998Y-74571650D01*
X57707634Y-74667027D01*
X58063224Y-74843544D01*
X58434342Y-74984518D01*
X58817446Y-75088605D01*
X58820489Y-75089120D01*
X58820495Y-75089121D01*
X59205837Y-75154297D01*
X59205844Y-75154298D01*
X59208878Y-75154811D01*
X59211949Y-75155026D01*
X59211951Y-75155026D01*
X59601837Y-75182290D01*
X59601845Y-75182290D01*
X59604903Y-75182504D01*
X59861170Y-75175346D01*
X59998666Y-75171505D01*
X59998669Y-75171505D01*
X60001740Y-75171419D01*
X60004793Y-75171033D01*
X60004797Y-75171033D01*
X60193315Y-75147218D01*
X60395601Y-75121663D01*
X60398605Y-75120981D01*
X60398608Y-75120980D01*
X60779731Y-75034391D01*
X60779737Y-75034389D01*
X60782727Y-75033710D01*
X60930604Y-74984518D01*
X61156499Y-74909373D01*
X61156505Y-74909371D01*
X61159423Y-74908400D01*
X61302633Y-74844639D01*
X61519294Y-74748176D01*
X61519300Y-74748173D01*
X61522094Y-74746929D01*
X61524763Y-74745413D01*
X61864603Y-74552357D01*
X61864611Y-74552352D01*
X61867276Y-74550838D01*
X62191676Y-74321999D01*
X62200297Y-74314558D01*
X62489859Y-74064614D01*
X62492197Y-74062596D01*
X62494318Y-74060369D01*
X62494324Y-74060363D01*
X62763853Y-73777329D01*
X62765970Y-73775106D01*
X62768467Y-73771911D01*
X63008472Y-73464717D01*
X63008474Y-73464714D01*
X63010382Y-73462272D01*
X63012038Y-73459662D01*
X63012044Y-73459654D01*
X63221447Y-73129688D01*
X63221451Y-73129681D01*
X63223101Y-73127081D01*
X63227227Y-73118914D01*
X63325235Y-72924890D01*
X63402096Y-72772732D01*
X63403203Y-72769878D01*
X63403207Y-72769869D01*
X63544543Y-72405483D01*
X63544546Y-72405474D01*
X63545658Y-72402607D01*
X63637231Y-72074629D01*
X63651589Y-72023205D01*
X63651590Y-72023203D01*
X63652417Y-72020239D01*
X63721354Y-71629278D01*
X63751811Y-71233457D01*
X63753395Y-71120000D01*
X63752030Y-71092077D01*
X63750621Y-71063266D01*
X100077001Y-71063266D01*
X100077109Y-71066356D01*
X100077499Y-71077534D01*
X100090667Y-71454598D01*
X100090856Y-71460016D01*
X100091262Y-71463060D01*
X100091263Y-71463070D01*
X100113440Y-71629278D01*
X100143361Y-71853521D01*
X100144061Y-71856505D01*
X100144062Y-71856511D01*
X100195221Y-72074629D01*
X100234014Y-72240023D01*
X100361951Y-72615835D01*
X100525950Y-72977369D01*
X100724446Y-73321174D01*
X100726235Y-73323672D01*
X100726237Y-73323676D01*
X100953325Y-73640869D01*
X100955544Y-73643969D01*
X100957571Y-73646284D01*
X100957573Y-73646287D01*
X101117861Y-73829382D01*
X101217038Y-73942671D01*
X101219286Y-73944782D01*
X101504178Y-74212314D01*
X101504185Y-74212320D01*
X101506433Y-74214431D01*
X101508883Y-74216318D01*
X101508888Y-74216322D01*
X101816047Y-74452867D01*
X101820965Y-74456654D01*
X101823564Y-74458278D01*
X101823574Y-74458285D01*
X102004998Y-74571650D01*
X102157634Y-74667027D01*
X102513224Y-74843544D01*
X102884342Y-74984518D01*
X103267446Y-75088605D01*
X103270489Y-75089120D01*
X103270495Y-75089121D01*
X103655837Y-75154297D01*
X103655844Y-75154298D01*
X103658878Y-75154811D01*
X103661949Y-75155026D01*
X103661951Y-75155026D01*
X104051837Y-75182290D01*
X104051845Y-75182290D01*
X104054903Y-75182504D01*
X104311170Y-75175346D01*
X104448666Y-75171505D01*
X104448669Y-75171505D01*
X104451740Y-75171419D01*
X104454793Y-75171033D01*
X104454797Y-75171033D01*
X104643315Y-75147218D01*
X104845601Y-75121663D01*
X104848605Y-75120981D01*
X104848608Y-75120980D01*
X105229731Y-75034391D01*
X105229737Y-75034389D01*
X105232727Y-75033710D01*
X105380604Y-74984518D01*
X105606499Y-74909373D01*
X105606505Y-74909371D01*
X105609423Y-74908400D01*
X105752633Y-74844639D01*
X105969294Y-74748176D01*
X105969300Y-74748173D01*
X105972094Y-74746929D01*
X105974763Y-74745413D01*
X106314603Y-74552357D01*
X106314611Y-74552352D01*
X106317276Y-74550838D01*
X106641676Y-74321999D01*
X106650297Y-74314558D01*
X106939859Y-74064614D01*
X106942197Y-74062596D01*
X106944318Y-74060369D01*
X106944324Y-74060363D01*
X107213853Y-73777329D01*
X107215970Y-73775106D01*
X107218467Y-73771911D01*
X107458472Y-73464717D01*
X107458474Y-73464714D01*
X107460382Y-73462272D01*
X107462038Y-73459662D01*
X107462044Y-73459654D01*
X107671447Y-73129688D01*
X107671451Y-73129681D01*
X107673101Y-73127081D01*
X107677227Y-73118914D01*
X107775235Y-72924890D01*
X107852096Y-72772732D01*
X107853203Y-72769878D01*
X107853207Y-72769869D01*
X107994543Y-72405483D01*
X107994546Y-72405474D01*
X107995658Y-72402607D01*
X108087231Y-72074629D01*
X108101589Y-72023205D01*
X108101590Y-72023203D01*
X108102417Y-72020239D01*
X108171354Y-71629278D01*
X108201811Y-71233457D01*
X108203395Y-71120000D01*
X108202030Y-71092077D01*
X108200356Y-71057848D01*
X144522750Y-71057848D01*
X144522858Y-71060938D01*
X144523248Y-71072116D01*
X144535139Y-71412607D01*
X144536605Y-71454598D01*
X144537011Y-71457642D01*
X144537012Y-71457652D01*
X144558782Y-71620804D01*
X144589110Y-71848103D01*
X144589810Y-71851087D01*
X144589811Y-71851093D01*
X144628909Y-72017787D01*
X144679763Y-72234605D01*
X144680752Y-72237511D01*
X144680754Y-72237517D01*
X144687262Y-72256634D01*
X144807700Y-72610417D01*
X144971699Y-72971951D01*
X145170195Y-73315756D01*
X145171984Y-73318254D01*
X145171986Y-73318258D01*
X145373156Y-73599249D01*
X145401293Y-73638551D01*
X145403320Y-73640866D01*
X145403322Y-73640869D01*
X145660755Y-73934932D01*
X145662787Y-73937253D01*
X145665035Y-73939364D01*
X145949927Y-74206896D01*
X145949934Y-74206902D01*
X145952182Y-74209013D01*
X145954632Y-74210900D01*
X145954637Y-74210904D01*
X146101216Y-74323785D01*
X146266714Y-74451236D01*
X146269313Y-74452860D01*
X146269323Y-74452867D01*
X146423272Y-74549064D01*
X146603383Y-74661609D01*
X146958973Y-74838126D01*
X147330091Y-74979100D01*
X147713195Y-75083187D01*
X147716238Y-75083702D01*
X147716244Y-75083703D01*
X148101586Y-75148879D01*
X148101593Y-75148880D01*
X148104627Y-75149393D01*
X148107698Y-75149608D01*
X148107700Y-75149608D01*
X148497586Y-75176872D01*
X148497594Y-75176872D01*
X148500652Y-75177086D01*
X148756919Y-75169928D01*
X148894415Y-75166087D01*
X148894418Y-75166087D01*
X148897489Y-75166001D01*
X148900542Y-75165615D01*
X148900546Y-75165615D01*
X149089064Y-75141800D01*
X149291350Y-75116245D01*
X149294354Y-75115563D01*
X149294357Y-75115562D01*
X149675480Y-75028973D01*
X149675486Y-75028971D01*
X149678476Y-75028292D01*
X149810066Y-74984518D01*
X150052248Y-74903955D01*
X150052254Y-74903953D01*
X150055172Y-74902982D01*
X150186213Y-74844639D01*
X150415043Y-74742758D01*
X150415049Y-74742755D01*
X150417843Y-74741511D01*
X150443218Y-74727096D01*
X150760352Y-74546939D01*
X150760360Y-74546934D01*
X150763025Y-74545420D01*
X151087425Y-74316581D01*
X151208220Y-74212314D01*
X151385608Y-74059196D01*
X151387946Y-74057178D01*
X151390067Y-74054951D01*
X151390073Y-74054945D01*
X151654443Y-73777329D01*
X151661719Y-73769688D01*
X151690753Y-73732527D01*
X151904221Y-73459299D01*
X151904223Y-73459296D01*
X151906131Y-73456854D01*
X151907787Y-73454244D01*
X151907793Y-73454236D01*
X152117196Y-73124270D01*
X152117200Y-73124263D01*
X152118850Y-73121663D01*
X152145139Y-73069621D01*
X152279748Y-72803140D01*
X152297845Y-72767314D01*
X152298952Y-72764460D01*
X152298956Y-72764451D01*
X152440292Y-72400065D01*
X152440295Y-72400056D01*
X152441407Y-72397189D01*
X152548166Y-72014821D01*
X152617103Y-71623860D01*
X152647560Y-71228039D01*
X152649144Y-71114582D01*
X152648044Y-71092077D01*
X152646635Y-71063266D01*
X188977001Y-71063266D01*
X188977109Y-71066356D01*
X188977499Y-71077534D01*
X188990667Y-71454598D01*
X188990856Y-71460016D01*
X188991262Y-71463060D01*
X188991263Y-71463070D01*
X189013440Y-71629278D01*
X189043361Y-71853521D01*
X189044061Y-71856505D01*
X189044062Y-71856511D01*
X189095221Y-72074629D01*
X189134014Y-72240023D01*
X189261951Y-72615835D01*
X189425950Y-72977369D01*
X189624446Y-73321174D01*
X189626235Y-73323672D01*
X189626237Y-73323676D01*
X189853325Y-73640869D01*
X189855544Y-73643969D01*
X189857571Y-73646284D01*
X189857573Y-73646287D01*
X190017861Y-73829382D01*
X190117038Y-73942671D01*
X190119286Y-73944782D01*
X190404178Y-74212314D01*
X190404185Y-74212320D01*
X190406433Y-74214431D01*
X190408883Y-74216318D01*
X190408888Y-74216322D01*
X190716047Y-74452867D01*
X190720965Y-74456654D01*
X190723564Y-74458278D01*
X190723574Y-74458285D01*
X190904998Y-74571650D01*
X191057634Y-74667027D01*
X191413224Y-74843544D01*
X191784342Y-74984518D01*
X192167446Y-75088605D01*
X192170489Y-75089120D01*
X192170495Y-75089121D01*
X192555837Y-75154297D01*
X192555844Y-75154298D01*
X192558878Y-75154811D01*
X192561949Y-75155026D01*
X192561951Y-75155026D01*
X192951837Y-75182290D01*
X192951845Y-75182290D01*
X192954903Y-75182504D01*
X193211170Y-75175346D01*
X193348666Y-75171505D01*
X193348669Y-75171505D01*
X193351740Y-75171419D01*
X193354793Y-75171033D01*
X193354797Y-75171033D01*
X193543315Y-75147218D01*
X193745601Y-75121663D01*
X193748605Y-75120981D01*
X193748608Y-75120980D01*
X194129731Y-75034391D01*
X194129737Y-75034389D01*
X194132727Y-75033710D01*
X194280604Y-74984518D01*
X194506499Y-74909373D01*
X194506505Y-74909371D01*
X194509423Y-74908400D01*
X194652633Y-74844639D01*
X194869294Y-74748176D01*
X194869300Y-74748173D01*
X194872094Y-74746929D01*
X194874763Y-74745413D01*
X195214603Y-74552357D01*
X195214611Y-74552352D01*
X195217276Y-74550838D01*
X195541676Y-74321999D01*
X195550297Y-74314558D01*
X195839859Y-74064614D01*
X195842197Y-74062596D01*
X195844318Y-74060369D01*
X195844324Y-74060363D01*
X196113853Y-73777329D01*
X196115970Y-73775106D01*
X196118467Y-73771911D01*
X196358472Y-73464717D01*
X196358474Y-73464714D01*
X196360382Y-73462272D01*
X196362038Y-73459662D01*
X196362044Y-73459654D01*
X196571447Y-73129688D01*
X196571451Y-73129681D01*
X196573101Y-73127081D01*
X196577227Y-73118914D01*
X196675235Y-72924890D01*
X196752096Y-72772732D01*
X196753203Y-72769878D01*
X196753207Y-72769869D01*
X196894543Y-72405483D01*
X196894546Y-72405474D01*
X196895658Y-72402607D01*
X196987231Y-72074629D01*
X197001589Y-72023205D01*
X197001590Y-72023203D01*
X197002417Y-72020239D01*
X197071354Y-71629278D01*
X197101811Y-71233457D01*
X197103395Y-71120000D01*
X214751445Y-71120000D01*
X214771651Y-71505559D01*
X214772164Y-71508799D01*
X214772165Y-71508807D01*
X214791246Y-71629278D01*
X214832049Y-71886894D01*
X214931976Y-72259826D01*
X215070337Y-72620270D01*
X215071835Y-72623210D01*
X215160754Y-72797722D01*
X215245618Y-72964277D01*
X215247414Y-72967043D01*
X215247416Y-72967046D01*
X215351344Y-73127081D01*
X215455896Y-73288078D01*
X215698869Y-73588125D01*
X215971875Y-73861131D01*
X216271922Y-74104104D01*
X216595722Y-74314382D01*
X216598656Y-74315877D01*
X216598663Y-74315881D01*
X216874946Y-74456654D01*
X216939730Y-74489663D01*
X217300174Y-74628024D01*
X217673106Y-74727951D01*
X217875643Y-74760030D01*
X218051193Y-74787835D01*
X218051201Y-74787836D01*
X218054441Y-74788349D01*
X218440000Y-74808555D01*
X218825559Y-74788349D01*
X218828799Y-74787836D01*
X218828807Y-74787835D01*
X219004357Y-74760030D01*
X219206894Y-74727951D01*
X219579826Y-74628024D01*
X219940270Y-74489663D01*
X220005054Y-74456654D01*
X220281337Y-74315881D01*
X220281344Y-74315877D01*
X220284278Y-74314382D01*
X220608078Y-74104104D01*
X220908125Y-73861131D01*
X221181131Y-73588125D01*
X221424104Y-73288078D01*
X221528656Y-73127081D01*
X221632584Y-72967046D01*
X221632586Y-72967043D01*
X221634382Y-72964277D01*
X221719247Y-72797722D01*
X221808165Y-72623210D01*
X221809663Y-72620270D01*
X221948024Y-72259826D01*
X222047951Y-71886894D01*
X222088754Y-71629278D01*
X222107835Y-71508807D01*
X222107836Y-71508799D01*
X222108349Y-71505559D01*
X222128555Y-71120000D01*
X222108349Y-70734441D01*
X222107100Y-70726552D01*
X222056141Y-70404815D01*
X222047951Y-70353106D01*
X221948024Y-69980174D01*
X221935886Y-69948552D01*
X221810847Y-69622815D01*
X221809663Y-69619730D01*
X221754297Y-69511069D01*
X221635881Y-69278664D01*
X221635877Y-69278657D01*
X221634382Y-69275723D01*
X221583703Y-69197683D01*
X221425906Y-68954697D01*
X221424104Y-68951922D01*
X221181131Y-68651875D01*
X220908125Y-68378869D01*
X220608078Y-68135896D01*
X220370851Y-67981839D01*
X220287047Y-67927416D01*
X220287044Y-67927414D01*
X220284278Y-67925618D01*
X220281344Y-67924123D01*
X220281337Y-67924119D01*
X219943210Y-67751835D01*
X219940270Y-67750337D01*
X219579826Y-67611976D01*
X219206894Y-67512049D01*
X219004357Y-67479970D01*
X218828807Y-67452165D01*
X218828799Y-67452164D01*
X218825559Y-67451651D01*
X218440000Y-67431445D01*
X218054441Y-67451651D01*
X218051201Y-67452164D01*
X218051193Y-67452165D01*
X217875643Y-67479970D01*
X217673106Y-67512049D01*
X217300174Y-67611976D01*
X216939730Y-67750337D01*
X216936790Y-67751835D01*
X216598664Y-67924119D01*
X216598657Y-67924123D01*
X216595723Y-67925618D01*
X216592957Y-67927414D01*
X216592954Y-67927416D01*
X216379166Y-68066251D01*
X216271922Y-68135896D01*
X215971875Y-68378869D01*
X215698869Y-68651875D01*
X215455896Y-68951922D01*
X215454094Y-68954697D01*
X215296298Y-69197683D01*
X215245618Y-69275723D01*
X215244123Y-69278657D01*
X215244119Y-69278664D01*
X215125703Y-69511069D01*
X215070337Y-69619730D01*
X215069153Y-69622815D01*
X214944115Y-69948552D01*
X214931976Y-69980174D01*
X214832049Y-70353106D01*
X214823859Y-70404815D01*
X214772901Y-70726552D01*
X214771651Y-70734441D01*
X214752908Y-71092077D01*
X214751445Y-71120000D01*
X197103395Y-71120000D01*
X197102030Y-71092077D01*
X197086813Y-70780967D01*
X197084002Y-70723482D01*
X197044632Y-70456868D01*
X197026458Y-70333795D01*
X197026457Y-70333791D01*
X197026008Y-70330749D01*
X196929967Y-69945550D01*
X196927001Y-69937219D01*
X196864688Y-69762224D01*
X196796796Y-69571561D01*
X196627765Y-69212352D01*
X196624536Y-69206934D01*
X196484151Y-68971437D01*
X196424488Y-68871352D01*
X196188906Y-68551815D01*
X195923266Y-68256793D01*
X195630105Y-67989100D01*
X195312222Y-67751293D01*
X195263370Y-67721707D01*
X194975277Y-67547231D01*
X194975268Y-67547226D01*
X194972649Y-67545640D01*
X194614629Y-67374106D01*
X194555229Y-67352486D01*
X194244475Y-67239381D01*
X194244474Y-67239381D01*
X194241579Y-67238327D01*
X194034688Y-67185206D01*
X193860043Y-67140365D01*
X193860040Y-67140364D01*
X193857059Y-67139599D01*
X193464740Y-67078865D01*
X193461683Y-67078694D01*
X193461682Y-67078694D01*
X193432924Y-67077086D01*
X193068368Y-67056704D01*
X193065290Y-67056833D01*
X193065286Y-67056833D01*
X192806983Y-67067659D01*
X192671724Y-67073328D01*
X192668680Y-67073756D01*
X192668678Y-67073756D01*
X192628989Y-67079334D01*
X192278596Y-67128579D01*
X191892735Y-67221928D01*
X191517825Y-67352486D01*
X191471035Y-67374106D01*
X191160242Y-67517712D01*
X191160232Y-67517717D01*
X191157445Y-67519005D01*
X190815034Y-67719896D01*
X190774018Y-67749696D01*
X190496342Y-67951439D01*
X190496336Y-67951444D01*
X190493861Y-67953242D01*
X190491575Y-67955271D01*
X190491572Y-67955274D01*
X190205389Y-68209359D01*
X190196991Y-68216815D01*
X190194901Y-68219072D01*
X190194899Y-68219074D01*
X189929354Y-68505837D01*
X189929349Y-68505843D01*
X189927259Y-68508100D01*
X189925399Y-68510550D01*
X189925396Y-68510554D01*
X189892202Y-68554286D01*
X189687238Y-68824316D01*
X189685627Y-68826934D01*
X189685624Y-68826939D01*
X189484167Y-69154403D01*
X189479220Y-69162445D01*
X189305190Y-69519258D01*
X189304119Y-69522139D01*
X189304116Y-69522145D01*
X189218146Y-69753313D01*
X189166810Y-69891352D01*
X189065400Y-70275173D01*
X189064909Y-70278206D01*
X189002806Y-70661640D01*
X189001928Y-70667058D01*
X189001734Y-70670138D01*
X189001734Y-70670140D01*
X188994762Y-70780967D01*
X188977001Y-71063266D01*
X152646635Y-71063266D01*
X152632562Y-70775549D01*
X152629751Y-70718064D01*
X152589600Y-70446160D01*
X152572207Y-70328377D01*
X152572206Y-70328373D01*
X152571757Y-70325331D01*
X152475716Y-69940132D01*
X152457477Y-69888909D01*
X152361626Y-69619730D01*
X152342545Y-69566143D01*
X152182185Y-69225361D01*
X152174826Y-69209722D01*
X152174825Y-69209721D01*
X152173514Y-69206934D01*
X152168000Y-69197683D01*
X152021496Y-68951922D01*
X151970237Y-68865934D01*
X151810692Y-68649531D01*
X151736477Y-68548868D01*
X151736475Y-68548865D01*
X151734655Y-68546397D01*
X151469015Y-68251375D01*
X151175854Y-67983682D01*
X150857971Y-67745875D01*
X150809119Y-67716289D01*
X150521026Y-67541813D01*
X150521017Y-67541808D01*
X150518398Y-67540222D01*
X150160378Y-67368688D01*
X150115864Y-67352486D01*
X149790224Y-67233963D01*
X149790223Y-67233963D01*
X149787328Y-67232909D01*
X149580437Y-67179788D01*
X149405792Y-67134947D01*
X149405789Y-67134946D01*
X149402808Y-67134181D01*
X149010489Y-67073447D01*
X149007432Y-67073276D01*
X149007431Y-67073276D01*
X148978673Y-67071668D01*
X148614117Y-67051286D01*
X148611039Y-67051415D01*
X148611035Y-67051415D01*
X148352732Y-67062241D01*
X148217473Y-67067910D01*
X148214429Y-67068338D01*
X148214427Y-67068338D01*
X148001990Y-67098194D01*
X147824345Y-67123161D01*
X147438484Y-67216510D01*
X147063574Y-67347068D01*
X147016784Y-67368688D01*
X146705991Y-67512294D01*
X146705981Y-67512299D01*
X146703194Y-67513587D01*
X146360783Y-67714478D01*
X146198783Y-67832178D01*
X146042091Y-67946021D01*
X146042085Y-67946026D01*
X146039610Y-67947824D01*
X146037324Y-67949853D01*
X146037321Y-67949856D01*
X145812512Y-68149451D01*
X145742740Y-68211397D01*
X145740650Y-68213654D01*
X145740648Y-68213656D01*
X145475103Y-68500419D01*
X145475098Y-68500425D01*
X145473008Y-68502682D01*
X145471148Y-68505132D01*
X145471145Y-68505136D01*
X145437951Y-68548868D01*
X145232987Y-68818898D01*
X145231376Y-68821516D01*
X145231373Y-68821521D01*
X145026583Y-69154403D01*
X145024969Y-69157027D01*
X144850939Y-69513840D01*
X144849868Y-69516721D01*
X144849865Y-69516727D01*
X144823825Y-69586748D01*
X144712559Y-69885934D01*
X144611149Y-70269755D01*
X144597649Y-70353106D01*
X144576457Y-70483951D01*
X144547677Y-70661640D01*
X144547483Y-70664720D01*
X144547483Y-70664722D01*
X144540511Y-70775549D01*
X144522750Y-71057848D01*
X108200356Y-71057848D01*
X108186813Y-70780967D01*
X108184002Y-70723482D01*
X108144632Y-70456868D01*
X108126458Y-70333795D01*
X108126457Y-70333791D01*
X108126008Y-70330749D01*
X108029967Y-69945550D01*
X108027001Y-69937219D01*
X107964688Y-69762224D01*
X107896796Y-69571561D01*
X107727765Y-69212352D01*
X107724536Y-69206934D01*
X107584151Y-68971437D01*
X107524488Y-68871352D01*
X107288906Y-68551815D01*
X107023266Y-68256793D01*
X106730105Y-67989100D01*
X106412222Y-67751293D01*
X106363370Y-67721707D01*
X106075277Y-67547231D01*
X106075268Y-67547226D01*
X106072649Y-67545640D01*
X105714629Y-67374106D01*
X105655229Y-67352486D01*
X105344475Y-67239381D01*
X105344474Y-67239381D01*
X105341579Y-67238327D01*
X105134688Y-67185206D01*
X104960043Y-67140365D01*
X104960040Y-67140364D01*
X104957059Y-67139599D01*
X104564740Y-67078865D01*
X104561683Y-67078694D01*
X104561682Y-67078694D01*
X104532924Y-67077086D01*
X104168368Y-67056704D01*
X104165290Y-67056833D01*
X104165286Y-67056833D01*
X103906983Y-67067659D01*
X103771724Y-67073328D01*
X103768680Y-67073756D01*
X103768678Y-67073756D01*
X103728989Y-67079334D01*
X103378596Y-67128579D01*
X102992735Y-67221928D01*
X102617825Y-67352486D01*
X102571035Y-67374106D01*
X102260242Y-67517712D01*
X102260232Y-67517717D01*
X102257445Y-67519005D01*
X101915034Y-67719896D01*
X101874018Y-67749696D01*
X101596342Y-67951439D01*
X101596336Y-67951444D01*
X101593861Y-67953242D01*
X101591575Y-67955271D01*
X101591572Y-67955274D01*
X101305389Y-68209359D01*
X101296991Y-68216815D01*
X101294901Y-68219072D01*
X101294899Y-68219074D01*
X101029354Y-68505837D01*
X101029349Y-68505843D01*
X101027259Y-68508100D01*
X101025399Y-68510550D01*
X101025396Y-68510554D01*
X100992202Y-68554286D01*
X100787238Y-68824316D01*
X100785627Y-68826934D01*
X100785624Y-68826939D01*
X100584167Y-69154403D01*
X100579220Y-69162445D01*
X100405190Y-69519258D01*
X100404119Y-69522139D01*
X100404116Y-69522145D01*
X100318146Y-69753313D01*
X100266810Y-69891352D01*
X100165400Y-70275173D01*
X100164909Y-70278206D01*
X100102806Y-70661640D01*
X100101928Y-70667058D01*
X100101734Y-70670138D01*
X100101734Y-70670140D01*
X100094762Y-70780967D01*
X100077001Y-71063266D01*
X63750621Y-71063266D01*
X63736813Y-70780967D01*
X63734002Y-70723482D01*
X63694632Y-70456868D01*
X63676458Y-70333795D01*
X63676457Y-70333791D01*
X63676008Y-70330749D01*
X63579967Y-69945550D01*
X63577001Y-69937219D01*
X63514688Y-69762224D01*
X63446796Y-69571561D01*
X63277765Y-69212352D01*
X63274536Y-69206934D01*
X63134151Y-68971437D01*
X63074488Y-68871352D01*
X62838906Y-68551815D01*
X62573266Y-68256793D01*
X62280105Y-67989100D01*
X61962222Y-67751293D01*
X61913370Y-67721707D01*
X61625277Y-67547231D01*
X61625268Y-67547226D01*
X61622649Y-67545640D01*
X61264629Y-67374106D01*
X61205229Y-67352486D01*
X60894475Y-67239381D01*
X60894474Y-67239381D01*
X60891579Y-67238327D01*
X60684688Y-67185206D01*
X60510043Y-67140365D01*
X60510040Y-67140364D01*
X60507059Y-67139599D01*
X60114740Y-67078865D01*
X60111683Y-67078694D01*
X60111682Y-67078694D01*
X60082924Y-67077086D01*
X59718368Y-67056704D01*
X59715290Y-67056833D01*
X59715286Y-67056833D01*
X59456983Y-67067659D01*
X59321724Y-67073328D01*
X59318680Y-67073756D01*
X59318678Y-67073756D01*
X59278989Y-67079334D01*
X58928596Y-67128579D01*
X58542735Y-67221928D01*
X58167825Y-67352486D01*
X58121035Y-67374106D01*
X57810242Y-67517712D01*
X57810232Y-67517717D01*
X57807445Y-67519005D01*
X57465034Y-67719896D01*
X57424018Y-67749696D01*
X57146342Y-67951439D01*
X57146336Y-67951444D01*
X57143861Y-67953242D01*
X57141575Y-67955271D01*
X57141572Y-67955274D01*
X56855389Y-68209359D01*
X56846991Y-68216815D01*
X56844901Y-68219072D01*
X56844899Y-68219074D01*
X56579354Y-68505837D01*
X56579349Y-68505843D01*
X56577259Y-68508100D01*
X56575399Y-68510550D01*
X56575396Y-68510554D01*
X56542202Y-68554286D01*
X56337238Y-68824316D01*
X56335627Y-68826934D01*
X56335624Y-68826939D01*
X56134167Y-69154403D01*
X56129220Y-69162445D01*
X55955190Y-69519258D01*
X55954119Y-69522139D01*
X55954116Y-69522145D01*
X55868146Y-69753313D01*
X55816810Y-69891352D01*
X55715400Y-70275173D01*
X55714909Y-70278206D01*
X55652806Y-70661640D01*
X55651928Y-70667058D01*
X55651734Y-70670138D01*
X55651734Y-70670140D01*
X55644762Y-70780967D01*
X55627001Y-71063266D01*
X34798500Y-71063266D01*
X34798500Y-52123250D01*
X34800246Y-52102345D01*
X34802770Y-52087344D01*
X34802770Y-52087341D01*
X34803576Y-52082552D01*
X34803729Y-52070000D01*
X34803039Y-52065184D01*
X34803039Y-52065178D01*
X34801387Y-52053644D01*
X34800234Y-52030284D01*
X34815656Y-51677064D01*
X34816614Y-51666114D01*
X34867233Y-51281621D01*
X34869142Y-51270795D01*
X34953080Y-50892178D01*
X34955925Y-50881561D01*
X35072539Y-50511706D01*
X35076298Y-50501377D01*
X35224711Y-50143077D01*
X35229357Y-50133115D01*
X35408423Y-49789133D01*
X35413919Y-49779613D01*
X35622292Y-49452532D01*
X35628597Y-49443528D01*
X35864678Y-49135862D01*
X35871743Y-49127442D01*
X36133744Y-48841517D01*
X36141517Y-48833744D01*
X36427442Y-48571743D01*
X36435862Y-48564678D01*
X36743528Y-48328597D01*
X36752532Y-48322292D01*
X37079613Y-48113919D01*
X37089133Y-48108423D01*
X37433124Y-47929353D01*
X37443068Y-47924715D01*
X37801385Y-47776295D01*
X37811698Y-47772542D01*
X38011298Y-47709608D01*
X38181561Y-47655925D01*
X38192178Y-47653080D01*
X38570795Y-47569142D01*
X38581621Y-47567233D01*
X38966114Y-47516614D01*
X38977063Y-47515656D01*
X39326554Y-47500397D01*
X39351429Y-47501777D01*
X39363724Y-47503691D01*
X39372626Y-47502527D01*
X39372628Y-47502527D01*
X39391399Y-47500072D01*
X39395286Y-47499564D01*
X39411621Y-47498500D01*
X238710633Y-47498500D01*
X238730018Y-47500000D01*
G37*
G04 #@! TD.AperFunction*
M02*
