%FSLAX45Y45*%
G04 Gerber Fmt 4.5, Leading zero omitted, Abs format (unit mm)*
G04 Created by KiCad (PCBNEW 6.0.5+dfsg-1~bpo11+1) date 2022-08-10 11:57:18*
%MOMM*%
%LPD*%
G01*
G04 APERTURE LIST*
%TA.AperFunction,Profile*%
%ADD10C,0.150000*%
%TD*%
%TA.AperFunction,Profile*%
%ADD11C,0.100000*%
%TD*%
%ADD12C,0.200000*%
%ADD13C,0.100000*%
G04 APERTURE END LIST*
D10*
X15213575Y-7111458D02*
G75*
G03*
X15213575Y-7111458I-355000J0D01*
G01*
D11*
X23876000Y-4699000D02*
X3937000Y-4699000D01*
D10*
X19659000Y-7112000D02*
G75*
G03*
X19659000Y-7112000I-355000J0D01*
G01*
X22199000Y-12192000D02*
G75*
G03*
X22199000Y-12192000I-355000J0D01*
G01*
X10769000Y-7112000D02*
G75*
G03*
X10769000Y-7112000I-355000J0D01*
G01*
D11*
X3937000Y-4699000D02*
G75*
G03*
X3429000Y-5207000I0J-508000D01*
G01*
D10*
X22161500Y-7112000D02*
G75*
G03*
X22161500Y-7112000I-317500J0D01*
G01*
X9461500Y-12192000D02*
G75*
G03*
X9461500Y-12192000I-317500J0D01*
G01*
D11*
X3937000Y-14732000D02*
X23876000Y-14732000D01*
X24384000Y-14224000D02*
X24384000Y-5207000D01*
X23876000Y-14732000D02*
G75*
G03*
X24384000Y-14224000I0J508000D01*
G01*
D10*
X6324000Y-7112000D02*
G75*
G03*
X6324000Y-7112000I-355000J0D01*
G01*
X19621500Y-12192000D02*
G75*
G03*
X19621500Y-12192000I-317500J0D01*
G01*
D11*
X3429000Y-14224000D02*
G75*
G03*
X3937000Y-14732000I508000J0D01*
G01*
D10*
X13906500Y-12192000D02*
G75*
G03*
X13906500Y-12192000I-317500J0D01*
G01*
X5651500Y-12192000D02*
G75*
G03*
X5651500Y-12192000I-317500J0D01*
G01*
X7556500Y-12192000D02*
G75*
G03*
X7556500Y-12192000I-317500J0D01*
G01*
D11*
X24384000Y-5207000D02*
G75*
G03*
X23876000Y-4699000I-508000J0D01*
G01*
D10*
X11366500Y-12192000D02*
G75*
G03*
X11366500Y-12192000I-317500J0D01*
G01*
D11*
X3429000Y-5207000D02*
X3429000Y-14224000D01*
D12*
D13*
X5919000Y-7760500D02*
X6019000Y-7860500D01*
X6019000Y-7760500D02*
X5919000Y-7860500D01*
D12*
X3681619Y-15047476D02*
X3681619Y-14847476D01*
X3729238Y-14847476D01*
X3757809Y-14857000D01*
X3776857Y-14876048D01*
X3786381Y-14895095D01*
X3795905Y-14933190D01*
X3795905Y-14961762D01*
X3786381Y-14999857D01*
X3776857Y-15018905D01*
X3757809Y-15037952D01*
X3729238Y-15047476D01*
X3681619Y-15047476D01*
X3881619Y-15047476D02*
X3881619Y-14914143D01*
X3881619Y-14952238D02*
X3891143Y-14933190D01*
X3900667Y-14923667D01*
X3919714Y-14914143D01*
X3938762Y-14914143D01*
X4005428Y-15047476D02*
X4005428Y-14914143D01*
X4005428Y-14847476D02*
X3995905Y-14857000D01*
X4005428Y-14866524D01*
X4014952Y-14857000D01*
X4005428Y-14847476D01*
X4005428Y-14866524D01*
X4129238Y-15047476D02*
X4110190Y-15037952D01*
X4100667Y-15018905D01*
X4100667Y-14847476D01*
X4234000Y-15047476D02*
X4214952Y-15037952D01*
X4205429Y-15018905D01*
X4205429Y-14847476D01*
X4462571Y-15047476D02*
X4462571Y-14847476D01*
X4529238Y-14990333D01*
X4595905Y-14847476D01*
X4595905Y-15047476D01*
X4776857Y-15047476D02*
X4776857Y-14942714D01*
X4767333Y-14923667D01*
X4748286Y-14914143D01*
X4710190Y-14914143D01*
X4691143Y-14923667D01*
X4776857Y-15037952D02*
X4757810Y-15047476D01*
X4710190Y-15047476D01*
X4691143Y-15037952D01*
X4681619Y-15018905D01*
X4681619Y-14999857D01*
X4691143Y-14980809D01*
X4710190Y-14971286D01*
X4757810Y-14971286D01*
X4776857Y-14961762D01*
X4872095Y-14914143D02*
X4872095Y-15114143D01*
X4872095Y-14923667D02*
X4891143Y-14914143D01*
X4929238Y-14914143D01*
X4948286Y-14923667D01*
X4957810Y-14933190D01*
X4967333Y-14952238D01*
X4967333Y-15009381D01*
X4957810Y-15028428D01*
X4948286Y-15037952D01*
X4929238Y-15047476D01*
X4891143Y-15047476D01*
X4872095Y-15037952D01*
X5053048Y-15028428D02*
X5062571Y-15037952D01*
X5053048Y-15047476D01*
X5043524Y-15037952D01*
X5053048Y-15028428D01*
X5053048Y-15047476D01*
X5053048Y-14923667D02*
X5062571Y-14933190D01*
X5053048Y-14942714D01*
X5043524Y-14933190D01*
X5053048Y-14923667D01*
X5053048Y-14942714D01*
D13*
X3324000Y-15327000D02*
X3424000Y-15427000D01*
X3424000Y-15327000D02*
X3324000Y-15427000D01*
D12*
X3786381Y-15467476D02*
X3672095Y-15467476D01*
X3729238Y-15467476D02*
X3729238Y-15267476D01*
X3710190Y-15296048D01*
X3691143Y-15315095D01*
X3672095Y-15324619D01*
X3872095Y-15448428D02*
X3881619Y-15457952D01*
X3872095Y-15467476D01*
X3862571Y-15457952D01*
X3872095Y-15448428D01*
X3872095Y-15467476D01*
X4005428Y-15267476D02*
X4024476Y-15267476D01*
X4043524Y-15277000D01*
X4053048Y-15286524D01*
X4062571Y-15305571D01*
X4072095Y-15343667D01*
X4072095Y-15391286D01*
X4062571Y-15429381D01*
X4053048Y-15448428D01*
X4043524Y-15457952D01*
X4024476Y-15467476D01*
X4005428Y-15467476D01*
X3986381Y-15457952D01*
X3976857Y-15448428D01*
X3967333Y-15429381D01*
X3957809Y-15391286D01*
X3957809Y-15343667D01*
X3967333Y-15305571D01*
X3976857Y-15286524D01*
X3986381Y-15277000D01*
X4005428Y-15267476D01*
X4195905Y-15267476D02*
X4214952Y-15267476D01*
X4234000Y-15277000D01*
X4243524Y-15286524D01*
X4253048Y-15305571D01*
X4262571Y-15343667D01*
X4262571Y-15391286D01*
X4253048Y-15429381D01*
X4243524Y-15448428D01*
X4234000Y-15457952D01*
X4214952Y-15467476D01*
X4195905Y-15467476D01*
X4176857Y-15457952D01*
X4167333Y-15448428D01*
X4157809Y-15429381D01*
X4148286Y-15391286D01*
X4148286Y-15343667D01*
X4157809Y-15305571D01*
X4167333Y-15286524D01*
X4176857Y-15277000D01*
X4195905Y-15267476D01*
X4386381Y-15267476D02*
X4405429Y-15267476D01*
X4424476Y-15277000D01*
X4434000Y-15286524D01*
X4443524Y-15305571D01*
X4453048Y-15343667D01*
X4453048Y-15391286D01*
X4443524Y-15429381D01*
X4434000Y-15448428D01*
X4424476Y-15457952D01*
X4405429Y-15467476D01*
X4386381Y-15467476D01*
X4367333Y-15457952D01*
X4357810Y-15448428D01*
X4348286Y-15429381D01*
X4338762Y-15391286D01*
X4338762Y-15343667D01*
X4348286Y-15305571D01*
X4357810Y-15286524D01*
X4367333Y-15277000D01*
X4386381Y-15267476D01*
X4538762Y-15467476D02*
X4538762Y-15334143D01*
X4538762Y-15353190D02*
X4548286Y-15343667D01*
X4567333Y-15334143D01*
X4595905Y-15334143D01*
X4614952Y-15343667D01*
X4624476Y-15362714D01*
X4624476Y-15467476D01*
X4624476Y-15362714D02*
X4634000Y-15343667D01*
X4653048Y-15334143D01*
X4681619Y-15334143D01*
X4700667Y-15343667D01*
X4710190Y-15362714D01*
X4710190Y-15467476D01*
X4805429Y-15467476D02*
X4805429Y-15334143D01*
X4805429Y-15353190D02*
X4814952Y-15343667D01*
X4834000Y-15334143D01*
X4862571Y-15334143D01*
X4881619Y-15343667D01*
X4891143Y-15362714D01*
X4891143Y-15467476D01*
X4891143Y-15362714D02*
X4900667Y-15343667D01*
X4919714Y-15334143D01*
X4948286Y-15334143D01*
X4967333Y-15343667D01*
X4976857Y-15362714D01*
X4976857Y-15467476D01*
X5367333Y-15257952D02*
X5195905Y-15515095D01*
X5624476Y-15267476D02*
X5643524Y-15267476D01*
X5662571Y-15277000D01*
X5672095Y-15286524D01*
X5681619Y-15305571D01*
X5691143Y-15343667D01*
X5691143Y-15391286D01*
X5681619Y-15429381D01*
X5672095Y-15448428D01*
X5662571Y-15457952D01*
X5643524Y-15467476D01*
X5624476Y-15467476D01*
X5605428Y-15457952D01*
X5595905Y-15448428D01*
X5586381Y-15429381D01*
X5576857Y-15391286D01*
X5576857Y-15343667D01*
X5586381Y-15305571D01*
X5595905Y-15286524D01*
X5605428Y-15277000D01*
X5624476Y-15267476D01*
X5776857Y-15448428D02*
X5786381Y-15457952D01*
X5776857Y-15467476D01*
X5767333Y-15457952D01*
X5776857Y-15448428D01*
X5776857Y-15467476D01*
X5910190Y-15267476D02*
X5929238Y-15267476D01*
X5948286Y-15277000D01*
X5957809Y-15286524D01*
X5967333Y-15305571D01*
X5976857Y-15343667D01*
X5976857Y-15391286D01*
X5967333Y-15429381D01*
X5957809Y-15448428D01*
X5948286Y-15457952D01*
X5929238Y-15467476D01*
X5910190Y-15467476D01*
X5891143Y-15457952D01*
X5881619Y-15448428D01*
X5872095Y-15429381D01*
X5862571Y-15391286D01*
X5862571Y-15343667D01*
X5872095Y-15305571D01*
X5881619Y-15286524D01*
X5891143Y-15277000D01*
X5910190Y-15267476D01*
X6043524Y-15267476D02*
X6167333Y-15267476D01*
X6100667Y-15343667D01*
X6129238Y-15343667D01*
X6148286Y-15353190D01*
X6157809Y-15362714D01*
X6167333Y-15381762D01*
X6167333Y-15429381D01*
X6157809Y-15448428D01*
X6148286Y-15457952D01*
X6129238Y-15467476D01*
X6072095Y-15467476D01*
X6053048Y-15457952D01*
X6043524Y-15448428D01*
X6262571Y-15467476D02*
X6300667Y-15467476D01*
X6319714Y-15457952D01*
X6329238Y-15448428D01*
X6348286Y-15419857D01*
X6357809Y-15381762D01*
X6357809Y-15305571D01*
X6348286Y-15286524D01*
X6338762Y-15277000D01*
X6319714Y-15267476D01*
X6281619Y-15267476D01*
X6262571Y-15277000D01*
X6253048Y-15286524D01*
X6243524Y-15305571D01*
X6243524Y-15353190D01*
X6253048Y-15372238D01*
X6262571Y-15381762D01*
X6281619Y-15391286D01*
X6319714Y-15391286D01*
X6338762Y-15381762D01*
X6348286Y-15372238D01*
X6357809Y-15353190D01*
X6529238Y-15334143D02*
X6529238Y-15467476D01*
X6481619Y-15257952D02*
X6434000Y-15400809D01*
X6557809Y-15400809D01*
X6624476Y-15267476D02*
X6624476Y-15305571D01*
X6700667Y-15267476D02*
X6700667Y-15305571D01*
X6995905Y-15543667D02*
X6986381Y-15534143D01*
X6967333Y-15505571D01*
X6957809Y-15486524D01*
X6948286Y-15457952D01*
X6938762Y-15410333D01*
X6938762Y-15372238D01*
X6948286Y-15324619D01*
X6957809Y-15296048D01*
X6967333Y-15277000D01*
X6986381Y-15248428D01*
X6995905Y-15238905D01*
X7176857Y-15467476D02*
X7062571Y-15467476D01*
X7119714Y-15467476D02*
X7119714Y-15267476D01*
X7100667Y-15296048D01*
X7081619Y-15315095D01*
X7062571Y-15324619D01*
X7414952Y-15467476D02*
X7414952Y-15267476D01*
X7500667Y-15467476D02*
X7500667Y-15362714D01*
X7491143Y-15343667D01*
X7472095Y-15334143D01*
X7443524Y-15334143D01*
X7424476Y-15343667D01*
X7414952Y-15353190D01*
X7624476Y-15467476D02*
X7605428Y-15457952D01*
X7595905Y-15448428D01*
X7586381Y-15429381D01*
X7586381Y-15372238D01*
X7595905Y-15353190D01*
X7605428Y-15343667D01*
X7624476Y-15334143D01*
X7653048Y-15334143D01*
X7672095Y-15343667D01*
X7681619Y-15353190D01*
X7691143Y-15372238D01*
X7691143Y-15429381D01*
X7681619Y-15448428D01*
X7672095Y-15457952D01*
X7653048Y-15467476D01*
X7624476Y-15467476D01*
X7805428Y-15467476D02*
X7786381Y-15457952D01*
X7776857Y-15438905D01*
X7776857Y-15267476D01*
X7957809Y-15457952D02*
X7938762Y-15467476D01*
X7900667Y-15467476D01*
X7881619Y-15457952D01*
X7872095Y-15438905D01*
X7872095Y-15362714D01*
X7881619Y-15343667D01*
X7900667Y-15334143D01*
X7938762Y-15334143D01*
X7957809Y-15343667D01*
X7967333Y-15362714D01*
X7967333Y-15381762D01*
X7872095Y-15400809D01*
X8034000Y-15543667D02*
X8043524Y-15534143D01*
X8062571Y-15505571D01*
X8072095Y-15486524D01*
X8081619Y-15457952D01*
X8091143Y-15410333D01*
X8091143Y-15372238D01*
X8081619Y-15324619D01*
X8072095Y-15296048D01*
X8062571Y-15277000D01*
X8043524Y-15248428D01*
X8034000Y-15238905D01*
M02*
