G04 #@! TF.GenerationSoftware,KiCad,Pcbnew,6.0.5+dfsg-1~bpo11+1*
G04 #@! TF.CreationDate,2022-08-10T11:57:18+00:00*
G04 #@! TF.ProjectId,ribbon_pcb_panel,72696262-6f6e-45f7-9063-625f70616e65,0*
G04 #@! TF.SameCoordinates,Original*
G04 #@! TF.FileFunction,Profile,NP*
%FSLAX46Y46*%
G04 Gerber Fmt 4.6, Leading zero omitted, Abs format (unit mm)*
G04 Created by KiCad (PCBNEW 6.0.5+dfsg-1~bpo11+1) date 2022-08-10 11:57:18*
%MOMM*%
%LPD*%
G01*
G04 APERTURE LIST*
G04 #@! TA.AperFunction,Profile*
%ADD10C,0.150000*%
G04 #@! TD*
G04 #@! TA.AperFunction,Profile*
%ADD11C,0.100000*%
G04 #@! TD*
G04 APERTURE END LIST*
D10*
X152135749Y-71114582D02*
G75*
G03*
X152135749Y-71114582I-3550000J0D01*
G01*
D11*
X238760000Y-46990000D02*
X39370000Y-46990000D01*
D10*
X196590000Y-71120000D02*
G75*
G03*
X196590000Y-71120000I-3550000J0D01*
G01*
X221990000Y-121920000D02*
G75*
G03*
X221990000Y-121920000I-3550000J0D01*
G01*
X107690000Y-71120000D02*
G75*
G03*
X107690000Y-71120000I-3550000J0D01*
G01*
D11*
X39370000Y-46990000D02*
G75*
G03*
X34290000Y-52070000I0J-5080000D01*
G01*
D10*
X221615000Y-71120000D02*
G75*
G03*
X221615000Y-71120000I-3175000J0D01*
G01*
X94615000Y-121920000D02*
G75*
G03*
X94615000Y-121920000I-3175000J0D01*
G01*
D11*
X39370000Y-147320000D02*
X238760000Y-147320000D01*
X243840000Y-142240000D02*
X243840000Y-52070000D01*
X238760000Y-147320000D02*
G75*
G03*
X243840000Y-142240000I0J5080000D01*
G01*
D10*
X63240000Y-71120000D02*
G75*
G03*
X63240000Y-71120000I-3550000J0D01*
G01*
X196215000Y-121920000D02*
G75*
G03*
X196215000Y-121920000I-3175000J0D01*
G01*
D11*
X34290000Y-142240000D02*
G75*
G03*
X39370000Y-147320000I5080000J0D01*
G01*
D10*
X139065000Y-121920000D02*
G75*
G03*
X139065000Y-121920000I-3175000J0D01*
G01*
X56515000Y-121920000D02*
G75*
G03*
X56515000Y-121920000I-3175000J0D01*
G01*
X75565000Y-121920000D02*
G75*
G03*
X75565000Y-121920000I-3175000J0D01*
G01*
D11*
X243840000Y-52070000D02*
G75*
G03*
X238760000Y-46990000I-5080000J0D01*
G01*
D10*
X113665000Y-121920000D02*
G75*
G03*
X113665000Y-121920000I-3175000J0D01*
G01*
D11*
X34290000Y-52070000D02*
X34290000Y-142240000D01*
M02*
