G04 #@! TF.GenerationSoftware,KiCad,Pcbnew,6.0.5+dfsg-1~bpo11+1*
G04 #@! TF.CreationDate,2022-07-21T21:01:22+00:00*
G04 #@! TF.ProjectId,mod_osc_board,6d6f645f-6f73-4635-9f62-6f6172642e6b,0*
G04 #@! TF.SameCoordinates,Original*
G04 #@! TF.FileFunction,Paste,Bot*
G04 #@! TF.FilePolarity,Positive*
%FSLAX46Y46*%
G04 Gerber Fmt 4.6, Leading zero omitted, Abs format (unit mm)*
G04 Created by KiCad (PCBNEW 6.0.5+dfsg-1~bpo11+1) date 2022-07-21 21:01:22*
%MOMM*%
%LPD*%
G01*
G04 APERTURE LIST*
%ADD10R,0.900000X1.200000*%
%ADD11R,0.900000X1.300000*%
%ADD12R,1.500000X0.200000*%
%ADD13R,0.200000X1.500000*%
G04 APERTURE END LIST*
D10*
X150849600Y-103078400D03*
X147549600Y-103078400D03*
G36*
G01*
X137777400Y-95408600D02*
X137777400Y-94508600D01*
G75*
G02*
X138027400Y-94258600I250000J0D01*
G01*
X138552400Y-94258600D01*
G75*
G02*
X138802400Y-94508600I0J-250000D01*
G01*
X138802400Y-95408600D01*
G75*
G02*
X138552400Y-95658600I-250000J0D01*
G01*
X138027400Y-95658600D01*
G75*
G02*
X137777400Y-95408600I0J250000D01*
G01*
G37*
G36*
G01*
X139602400Y-95408600D02*
X139602400Y-94508600D01*
G75*
G02*
X139852400Y-94258600I250000J0D01*
G01*
X140377400Y-94258600D01*
G75*
G02*
X140627400Y-94508600I0J-250000D01*
G01*
X140627400Y-95408600D01*
G75*
G02*
X140377400Y-95658600I-250000J0D01*
G01*
X139852400Y-95658600D01*
G75*
G02*
X139602400Y-95408600I0J250000D01*
G01*
G37*
G36*
G01*
X156974600Y-95008400D02*
X156974600Y-95908400D01*
G75*
G02*
X156724600Y-96158400I-250000J0D01*
G01*
X156199600Y-96158400D01*
G75*
G02*
X155949600Y-95908400I0J250000D01*
G01*
X155949600Y-95008400D01*
G75*
G02*
X156199600Y-94758400I250000J0D01*
G01*
X156724600Y-94758400D01*
G75*
G02*
X156974600Y-95008400I0J-250000D01*
G01*
G37*
G36*
G01*
X155149600Y-95008400D02*
X155149600Y-95908400D01*
G75*
G02*
X154899600Y-96158400I-250000J0D01*
G01*
X154374600Y-96158400D01*
G75*
G02*
X154124600Y-95908400I0J250000D01*
G01*
X154124600Y-95008400D01*
G75*
G02*
X154374600Y-94758400I250000J0D01*
G01*
X154899600Y-94758400D01*
G75*
G02*
X155149600Y-95008400I0J-250000D01*
G01*
G37*
G36*
G01*
X103558000Y-126847300D02*
X103558000Y-127797300D01*
G75*
G02*
X103308000Y-128047300I-250000J0D01*
G01*
X102808000Y-128047300D01*
G75*
G02*
X102558000Y-127797300I0J250000D01*
G01*
X102558000Y-126847300D01*
G75*
G02*
X102808000Y-126597300I250000J0D01*
G01*
X103308000Y-126597300D01*
G75*
G02*
X103558000Y-126847300I0J-250000D01*
G01*
G37*
G36*
G01*
X101658000Y-126847300D02*
X101658000Y-127797300D01*
G75*
G02*
X101408000Y-128047300I-250000J0D01*
G01*
X100908000Y-128047300D01*
G75*
G02*
X100658000Y-127797300I0J250000D01*
G01*
X100658000Y-126847300D01*
G75*
G02*
X100908000Y-126597300I250000J0D01*
G01*
X101408000Y-126597300D01*
G75*
G02*
X101658000Y-126847300I0J-250000D01*
G01*
G37*
G36*
G01*
X180794600Y-88288400D02*
X180794600Y-87388400D01*
G75*
G02*
X181044600Y-87138400I250000J0D01*
G01*
X181569600Y-87138400D01*
G75*
G02*
X181819600Y-87388400I0J-250000D01*
G01*
X181819600Y-88288400D01*
G75*
G02*
X181569600Y-88538400I-250000J0D01*
G01*
X181044600Y-88538400D01*
G75*
G02*
X180794600Y-88288400I0J250000D01*
G01*
G37*
G36*
G01*
X182619600Y-88288400D02*
X182619600Y-87388400D01*
G75*
G02*
X182869600Y-87138400I250000J0D01*
G01*
X183394600Y-87138400D01*
G75*
G02*
X183644600Y-87388400I0J-250000D01*
G01*
X183644600Y-88288400D01*
G75*
G02*
X183394600Y-88538400I-250000J0D01*
G01*
X182869600Y-88538400D01*
G75*
G02*
X182619600Y-88288400I0J250000D01*
G01*
G37*
G36*
G01*
X162079600Y-102603400D02*
X162079600Y-103553400D01*
G75*
G02*
X161829600Y-103803400I-250000J0D01*
G01*
X161329600Y-103803400D01*
G75*
G02*
X161079600Y-103553400I0J250000D01*
G01*
X161079600Y-102603400D01*
G75*
G02*
X161329600Y-102353400I250000J0D01*
G01*
X161829600Y-102353400D01*
G75*
G02*
X162079600Y-102603400I0J-250000D01*
G01*
G37*
G36*
G01*
X160179600Y-102603400D02*
X160179600Y-103553400D01*
G75*
G02*
X159929600Y-103803400I-250000J0D01*
G01*
X159429600Y-103803400D01*
G75*
G02*
X159179600Y-103553400I0J250000D01*
G01*
X159179600Y-102603400D01*
G75*
G02*
X159429600Y-102353400I250000J0D01*
G01*
X159929600Y-102353400D01*
G75*
G02*
X160179600Y-102603400I0J-250000D01*
G01*
G37*
G36*
G01*
X128450000Y-99563600D02*
X128450000Y-100513600D01*
G75*
G02*
X128200000Y-100763600I-250000J0D01*
G01*
X127700000Y-100763600D01*
G75*
G02*
X127450000Y-100513600I0J250000D01*
G01*
X127450000Y-99563600D01*
G75*
G02*
X127700000Y-99313600I250000J0D01*
G01*
X128200000Y-99313600D01*
G75*
G02*
X128450000Y-99563600I0J-250000D01*
G01*
G37*
G36*
G01*
X126550000Y-99563600D02*
X126550000Y-100513600D01*
G75*
G02*
X126300000Y-100763600I-250000J0D01*
G01*
X125800000Y-100763600D01*
G75*
G02*
X125550000Y-100513600I0J250000D01*
G01*
X125550000Y-99563600D01*
G75*
G02*
X125800000Y-99313600I250000J0D01*
G01*
X126300000Y-99313600D01*
G75*
G02*
X126550000Y-99563600I0J-250000D01*
G01*
G37*
G36*
G01*
X137752400Y-91623600D02*
X137752400Y-90673600D01*
G75*
G02*
X138002400Y-90423600I250000J0D01*
G01*
X138502400Y-90423600D01*
G75*
G02*
X138752400Y-90673600I0J-250000D01*
G01*
X138752400Y-91623600D01*
G75*
G02*
X138502400Y-91873600I-250000J0D01*
G01*
X138002400Y-91873600D01*
G75*
G02*
X137752400Y-91623600I0J250000D01*
G01*
G37*
G36*
G01*
X139652400Y-91623600D02*
X139652400Y-90673600D01*
G75*
G02*
X139902400Y-90423600I250000J0D01*
G01*
X140402400Y-90423600D01*
G75*
G02*
X140652400Y-90673600I0J-250000D01*
G01*
X140652400Y-91623600D01*
G75*
G02*
X140402400Y-91873600I-250000J0D01*
G01*
X139902400Y-91873600D01*
G75*
G02*
X139652400Y-91623600I0J250000D01*
G01*
G37*
G36*
G01*
X133736000Y-91828600D02*
X133736000Y-92128600D01*
G75*
G02*
X133586000Y-92278600I-150000J0D01*
G01*
X131986000Y-92278600D01*
G75*
G02*
X131836000Y-92128600I0J150000D01*
G01*
X131836000Y-91828600D01*
G75*
G02*
X131986000Y-91678600I150000J0D01*
G01*
X133586000Y-91678600D01*
G75*
G02*
X133736000Y-91828600I0J-150000D01*
G01*
G37*
G36*
G01*
X133736000Y-93098600D02*
X133736000Y-93398600D01*
G75*
G02*
X133586000Y-93548600I-150000J0D01*
G01*
X131986000Y-93548600D01*
G75*
G02*
X131836000Y-93398600I0J150000D01*
G01*
X131836000Y-93098600D01*
G75*
G02*
X131986000Y-92948600I150000J0D01*
G01*
X133586000Y-92948600D01*
G75*
G02*
X133736000Y-93098600I0J-150000D01*
G01*
G37*
G36*
G01*
X133736000Y-94368600D02*
X133736000Y-94668600D01*
G75*
G02*
X133586000Y-94818600I-150000J0D01*
G01*
X131986000Y-94818600D01*
G75*
G02*
X131836000Y-94668600I0J150000D01*
G01*
X131836000Y-94368600D01*
G75*
G02*
X131986000Y-94218600I150000J0D01*
G01*
X133586000Y-94218600D01*
G75*
G02*
X133736000Y-94368600I0J-150000D01*
G01*
G37*
G36*
G01*
X133736000Y-95638600D02*
X133736000Y-95938600D01*
G75*
G02*
X133586000Y-96088600I-150000J0D01*
G01*
X131986000Y-96088600D01*
G75*
G02*
X131836000Y-95938600I0J150000D01*
G01*
X131836000Y-95638600D01*
G75*
G02*
X131986000Y-95488600I150000J0D01*
G01*
X133586000Y-95488600D01*
G75*
G02*
X133736000Y-95638600I0J-150000D01*
G01*
G37*
G36*
G01*
X126736000Y-95638600D02*
X126736000Y-95938600D01*
G75*
G02*
X126586000Y-96088600I-150000J0D01*
G01*
X124986000Y-96088600D01*
G75*
G02*
X124836000Y-95938600I0J150000D01*
G01*
X124836000Y-95638600D01*
G75*
G02*
X124986000Y-95488600I150000J0D01*
G01*
X126586000Y-95488600D01*
G75*
G02*
X126736000Y-95638600I0J-150000D01*
G01*
G37*
G36*
G01*
X126736000Y-94368600D02*
X126736000Y-94668600D01*
G75*
G02*
X126586000Y-94818600I-150000J0D01*
G01*
X124986000Y-94818600D01*
G75*
G02*
X124836000Y-94668600I0J150000D01*
G01*
X124836000Y-94368600D01*
G75*
G02*
X124986000Y-94218600I150000J0D01*
G01*
X126586000Y-94218600D01*
G75*
G02*
X126736000Y-94368600I0J-150000D01*
G01*
G37*
G36*
G01*
X126736000Y-93098600D02*
X126736000Y-93398600D01*
G75*
G02*
X126586000Y-93548600I-150000J0D01*
G01*
X124986000Y-93548600D01*
G75*
G02*
X124836000Y-93398600I0J150000D01*
G01*
X124836000Y-93098600D01*
G75*
G02*
X124986000Y-92948600I150000J0D01*
G01*
X126586000Y-92948600D01*
G75*
G02*
X126736000Y-93098600I0J-150000D01*
G01*
G37*
G36*
G01*
X126736000Y-91828600D02*
X126736000Y-92128600D01*
G75*
G02*
X126586000Y-92278600I-150000J0D01*
G01*
X124986000Y-92278600D01*
G75*
G02*
X124836000Y-92128600I0J150000D01*
G01*
X124836000Y-91828600D01*
G75*
G02*
X124986000Y-91678600I150000J0D01*
G01*
X126586000Y-91678600D01*
G75*
G02*
X126736000Y-91828600I0J-150000D01*
G01*
G37*
D11*
X103100000Y-123638300D03*
G36*
X102466500Y-119688300D02*
G01*
X102466500Y-122813300D01*
X102050000Y-122813300D01*
X102050000Y-124288300D01*
X101150000Y-124288300D01*
X101150000Y-122813300D01*
X100733500Y-122813300D01*
X100733500Y-119688300D01*
X102466500Y-119688300D01*
G37*
X100100000Y-123638300D03*
G36*
G01*
X153261000Y-122569300D02*
X153261000Y-121669300D01*
G75*
G02*
X153511000Y-121419300I250000J0D01*
G01*
X154036000Y-121419300D01*
G75*
G02*
X154286000Y-121669300I0J-250000D01*
G01*
X154286000Y-122569300D01*
G75*
G02*
X154036000Y-122819300I-250000J0D01*
G01*
X153511000Y-122819300D01*
G75*
G02*
X153261000Y-122569300I0J250000D01*
G01*
G37*
G36*
G01*
X155086000Y-122569300D02*
X155086000Y-121669300D01*
G75*
G02*
X155336000Y-121419300I250000J0D01*
G01*
X155861000Y-121419300D01*
G75*
G02*
X156111000Y-121669300I0J-250000D01*
G01*
X156111000Y-122569300D01*
G75*
G02*
X155861000Y-122819300I-250000J0D01*
G01*
X155336000Y-122819300D01*
G75*
G02*
X155086000Y-122569300I0J250000D01*
G01*
G37*
G36*
G01*
X180794600Y-95908400D02*
X180794600Y-95008400D01*
G75*
G02*
X181044600Y-94758400I250000J0D01*
G01*
X181569600Y-94758400D01*
G75*
G02*
X181819600Y-95008400I0J-250000D01*
G01*
X181819600Y-95908400D01*
G75*
G02*
X181569600Y-96158400I-250000J0D01*
G01*
X181044600Y-96158400D01*
G75*
G02*
X180794600Y-95908400I0J250000D01*
G01*
G37*
G36*
G01*
X182619600Y-95908400D02*
X182619600Y-95008400D01*
G75*
G02*
X182869600Y-94758400I250000J0D01*
G01*
X183394600Y-94758400D01*
G75*
G02*
X183644600Y-95008400I0J-250000D01*
G01*
X183644600Y-95908400D01*
G75*
G02*
X183394600Y-96158400I-250000J0D01*
G01*
X182869600Y-96158400D01*
G75*
G02*
X182619600Y-95908400I0J250000D01*
G01*
G37*
G36*
G01*
X136218000Y-127835800D02*
X136218000Y-126885800D01*
G75*
G02*
X136468000Y-126635800I250000J0D01*
G01*
X136968000Y-126635800D01*
G75*
G02*
X137218000Y-126885800I0J-250000D01*
G01*
X137218000Y-127835800D01*
G75*
G02*
X136968000Y-128085800I-250000J0D01*
G01*
X136468000Y-128085800D01*
G75*
G02*
X136218000Y-127835800I0J250000D01*
G01*
G37*
G36*
G01*
X138118000Y-127835800D02*
X138118000Y-126885800D01*
G75*
G02*
X138368000Y-126635800I250000J0D01*
G01*
X138868000Y-126635800D01*
G75*
G02*
X139118000Y-126885800I0J-250000D01*
G01*
X139118000Y-127835800D01*
G75*
G02*
X138868000Y-128085800I-250000J0D01*
G01*
X138368000Y-128085800D01*
G75*
G02*
X138118000Y-127835800I0J250000D01*
G01*
G37*
G36*
G01*
X162079600Y-83553400D02*
X162079600Y-84503400D01*
G75*
G02*
X161829600Y-84753400I-250000J0D01*
G01*
X161329600Y-84753400D01*
G75*
G02*
X161079600Y-84503400I0J250000D01*
G01*
X161079600Y-83553400D01*
G75*
G02*
X161329600Y-83303400I250000J0D01*
G01*
X161829600Y-83303400D01*
G75*
G02*
X162079600Y-83553400I0J-250000D01*
G01*
G37*
G36*
G01*
X160179600Y-83553400D02*
X160179600Y-84503400D01*
G75*
G02*
X159929600Y-84753400I-250000J0D01*
G01*
X159429600Y-84753400D01*
G75*
G02*
X159179600Y-84503400I0J250000D01*
G01*
X159179600Y-83553400D01*
G75*
G02*
X159429600Y-83303400I250000J0D01*
G01*
X159929600Y-83303400D01*
G75*
G02*
X160179600Y-83553400I0J-250000D01*
G01*
G37*
G36*
G01*
X156974600Y-91198400D02*
X156974600Y-92098400D01*
G75*
G02*
X156724600Y-92348400I-250000J0D01*
G01*
X156199600Y-92348400D01*
G75*
G02*
X155949600Y-92098400I0J250000D01*
G01*
X155949600Y-91198400D01*
G75*
G02*
X156199600Y-90948400I250000J0D01*
G01*
X156724600Y-90948400D01*
G75*
G02*
X156974600Y-91198400I0J-250000D01*
G01*
G37*
G36*
G01*
X155149600Y-91198400D02*
X155149600Y-92098400D01*
G75*
G02*
X154899600Y-92348400I-250000J0D01*
G01*
X154374600Y-92348400D01*
G75*
G02*
X154124600Y-92098400I0J250000D01*
G01*
X154124600Y-91198400D01*
G75*
G02*
X154374600Y-90948400I250000J0D01*
G01*
X154899600Y-90948400D01*
G75*
G02*
X155149600Y-91198400I0J-250000D01*
G01*
G37*
G36*
G01*
X133022000Y-99563600D02*
X133022000Y-100513600D01*
G75*
G02*
X132772000Y-100763600I-250000J0D01*
G01*
X132272000Y-100763600D01*
G75*
G02*
X132022000Y-100513600I0J250000D01*
G01*
X132022000Y-99563600D01*
G75*
G02*
X132272000Y-99313600I250000J0D01*
G01*
X132772000Y-99313600D01*
G75*
G02*
X133022000Y-99563600I0J-250000D01*
G01*
G37*
G36*
G01*
X131122000Y-99563600D02*
X131122000Y-100513600D01*
G75*
G02*
X130872000Y-100763600I-250000J0D01*
G01*
X130372000Y-100763600D01*
G75*
G02*
X130122000Y-100513600I0J250000D01*
G01*
X130122000Y-99563600D01*
G75*
G02*
X130372000Y-99313600I250000J0D01*
G01*
X130872000Y-99313600D01*
G75*
G02*
X131122000Y-99563600I0J-250000D01*
G01*
G37*
G36*
G01*
X177294600Y-83578400D02*
X177294600Y-84478400D01*
G75*
G02*
X177044600Y-84728400I-250000J0D01*
G01*
X176519600Y-84728400D01*
G75*
G02*
X176269600Y-84478400I0J250000D01*
G01*
X176269600Y-83578400D01*
G75*
G02*
X176519600Y-83328400I250000J0D01*
G01*
X177044600Y-83328400D01*
G75*
G02*
X177294600Y-83578400I0J-250000D01*
G01*
G37*
G36*
G01*
X175469600Y-83578400D02*
X175469600Y-84478400D01*
G75*
G02*
X175219600Y-84728400I-250000J0D01*
G01*
X174694600Y-84728400D01*
G75*
G02*
X174444600Y-84478400I0J250000D01*
G01*
X174444600Y-83578400D01*
G75*
G02*
X174694600Y-83328400I250000J0D01*
G01*
X175219600Y-83328400D01*
G75*
G02*
X175469600Y-83578400I0J-250000D01*
G01*
G37*
G36*
G01*
X118727400Y-99218600D02*
X118727400Y-98318600D01*
G75*
G02*
X118977400Y-98068600I250000J0D01*
G01*
X119502400Y-98068600D01*
G75*
G02*
X119752400Y-98318600I0J-250000D01*
G01*
X119752400Y-99218600D01*
G75*
G02*
X119502400Y-99468600I-250000J0D01*
G01*
X118977400Y-99468600D01*
G75*
G02*
X118727400Y-99218600I0J250000D01*
G01*
G37*
G36*
G01*
X120552400Y-99218600D02*
X120552400Y-98318600D01*
G75*
G02*
X120802400Y-98068600I250000J0D01*
G01*
X121327400Y-98068600D01*
G75*
G02*
X121577400Y-98318600I0J-250000D01*
G01*
X121577400Y-99218600D01*
G75*
G02*
X121327400Y-99468600I-250000J0D01*
G01*
X120802400Y-99468600D01*
G75*
G02*
X120552400Y-99218600I0J250000D01*
G01*
G37*
G36*
G01*
X140627400Y-105938600D02*
X140627400Y-106838600D01*
G75*
G02*
X140377400Y-107088600I-250000J0D01*
G01*
X139852400Y-107088600D01*
G75*
G02*
X139602400Y-106838600I0J250000D01*
G01*
X139602400Y-105938600D01*
G75*
G02*
X139852400Y-105688600I250000J0D01*
G01*
X140377400Y-105688600D01*
G75*
G02*
X140627400Y-105938600I0J-250000D01*
G01*
G37*
G36*
G01*
X138802400Y-105938600D02*
X138802400Y-106838600D01*
G75*
G02*
X138552400Y-107088600I-250000J0D01*
G01*
X138027400Y-107088600D01*
G75*
G02*
X137777400Y-106838600I0J250000D01*
G01*
X137777400Y-105938600D01*
G75*
G02*
X138027400Y-105688600I250000J0D01*
G01*
X138552400Y-105688600D01*
G75*
G02*
X138802400Y-105938600I0J-250000D01*
G01*
G37*
G36*
G01*
X133736000Y-76106000D02*
X133736000Y-76406000D01*
G75*
G02*
X133586000Y-76556000I-150000J0D01*
G01*
X131986000Y-76556000D01*
G75*
G02*
X131836000Y-76406000I0J150000D01*
G01*
X131836000Y-76106000D01*
G75*
G02*
X131986000Y-75956000I150000J0D01*
G01*
X133586000Y-75956000D01*
G75*
G02*
X133736000Y-76106000I0J-150000D01*
G01*
G37*
G36*
G01*
X133736000Y-77376000D02*
X133736000Y-77676000D01*
G75*
G02*
X133586000Y-77826000I-150000J0D01*
G01*
X131986000Y-77826000D01*
G75*
G02*
X131836000Y-77676000I0J150000D01*
G01*
X131836000Y-77376000D01*
G75*
G02*
X131986000Y-77226000I150000J0D01*
G01*
X133586000Y-77226000D01*
G75*
G02*
X133736000Y-77376000I0J-150000D01*
G01*
G37*
G36*
G01*
X133736000Y-78646000D02*
X133736000Y-78946000D01*
G75*
G02*
X133586000Y-79096000I-150000J0D01*
G01*
X131986000Y-79096000D01*
G75*
G02*
X131836000Y-78946000I0J150000D01*
G01*
X131836000Y-78646000D01*
G75*
G02*
X131986000Y-78496000I150000J0D01*
G01*
X133586000Y-78496000D01*
G75*
G02*
X133736000Y-78646000I0J-150000D01*
G01*
G37*
G36*
G01*
X133736000Y-79916000D02*
X133736000Y-80216000D01*
G75*
G02*
X133586000Y-80366000I-150000J0D01*
G01*
X131986000Y-80366000D01*
G75*
G02*
X131836000Y-80216000I0J150000D01*
G01*
X131836000Y-79916000D01*
G75*
G02*
X131986000Y-79766000I150000J0D01*
G01*
X133586000Y-79766000D01*
G75*
G02*
X133736000Y-79916000I0J-150000D01*
G01*
G37*
G36*
G01*
X126736000Y-79916000D02*
X126736000Y-80216000D01*
G75*
G02*
X126586000Y-80366000I-150000J0D01*
G01*
X124986000Y-80366000D01*
G75*
G02*
X124836000Y-80216000I0J150000D01*
G01*
X124836000Y-79916000D01*
G75*
G02*
X124986000Y-79766000I150000J0D01*
G01*
X126586000Y-79766000D01*
G75*
G02*
X126736000Y-79916000I0J-150000D01*
G01*
G37*
G36*
G01*
X126736000Y-78646000D02*
X126736000Y-78946000D01*
G75*
G02*
X126586000Y-79096000I-150000J0D01*
G01*
X124986000Y-79096000D01*
G75*
G02*
X124836000Y-78946000I0J150000D01*
G01*
X124836000Y-78646000D01*
G75*
G02*
X124986000Y-78496000I150000J0D01*
G01*
X126586000Y-78496000D01*
G75*
G02*
X126736000Y-78646000I0J-150000D01*
G01*
G37*
G36*
G01*
X126736000Y-77376000D02*
X126736000Y-77676000D01*
G75*
G02*
X126586000Y-77826000I-150000J0D01*
G01*
X124986000Y-77826000D01*
G75*
G02*
X124836000Y-77676000I0J150000D01*
G01*
X124836000Y-77376000D01*
G75*
G02*
X124986000Y-77226000I150000J0D01*
G01*
X126586000Y-77226000D01*
G75*
G02*
X126736000Y-77376000I0J-150000D01*
G01*
G37*
G36*
G01*
X126736000Y-76106000D02*
X126736000Y-76406000D01*
G75*
G02*
X126586000Y-76556000I-150000J0D01*
G01*
X124986000Y-76556000D01*
G75*
G02*
X124836000Y-76406000I0J150000D01*
G01*
X124836000Y-76106000D01*
G75*
G02*
X124986000Y-75956000I150000J0D01*
G01*
X126586000Y-75956000D01*
G75*
G02*
X126736000Y-76106000I0J-150000D01*
G01*
G37*
G36*
G01*
X167134600Y-83578400D02*
X167134600Y-84478400D01*
G75*
G02*
X166884600Y-84728400I-250000J0D01*
G01*
X166359600Y-84728400D01*
G75*
G02*
X166109600Y-84478400I0J250000D01*
G01*
X166109600Y-83578400D01*
G75*
G02*
X166359600Y-83328400I250000J0D01*
G01*
X166884600Y-83328400D01*
G75*
G02*
X167134600Y-83578400I0J-250000D01*
G01*
G37*
G36*
G01*
X165309600Y-83578400D02*
X165309600Y-84478400D01*
G75*
G02*
X165059600Y-84728400I-250000J0D01*
G01*
X164534600Y-84728400D01*
G75*
G02*
X164284600Y-84478400I0J250000D01*
G01*
X164284600Y-83578400D01*
G75*
G02*
X164534600Y-83328400I250000J0D01*
G01*
X165059600Y-83328400D01*
G75*
G02*
X165309600Y-83578400I0J-250000D01*
G01*
G37*
G36*
G01*
X121577400Y-94508600D02*
X121577400Y-95408600D01*
G75*
G02*
X121327400Y-95658600I-250000J0D01*
G01*
X120802400Y-95658600D01*
G75*
G02*
X120552400Y-95408600I0J250000D01*
G01*
X120552400Y-94508600D01*
G75*
G02*
X120802400Y-94258600I250000J0D01*
G01*
X121327400Y-94258600D01*
G75*
G02*
X121577400Y-94508600I0J-250000D01*
G01*
G37*
G36*
G01*
X119752400Y-94508600D02*
X119752400Y-95408600D01*
G75*
G02*
X119502400Y-95658600I-250000J0D01*
G01*
X118977400Y-95658600D01*
G75*
G02*
X118727400Y-95408600I0J250000D01*
G01*
X118727400Y-94508600D01*
G75*
G02*
X118977400Y-94258600I250000J0D01*
G01*
X119502400Y-94258600D01*
G75*
G02*
X119752400Y-94508600I0J-250000D01*
G01*
G37*
G36*
G01*
X103558000Y-130657300D02*
X103558000Y-131607300D01*
G75*
G02*
X103308000Y-131857300I-250000J0D01*
G01*
X102808000Y-131857300D01*
G75*
G02*
X102558000Y-131607300I0J250000D01*
G01*
X102558000Y-130657300D01*
G75*
G02*
X102808000Y-130407300I250000J0D01*
G01*
X103308000Y-130407300D01*
G75*
G02*
X103558000Y-130657300I0J-250000D01*
G01*
G37*
G36*
G01*
X101658000Y-130657300D02*
X101658000Y-131607300D01*
G75*
G02*
X101408000Y-131857300I-250000J0D01*
G01*
X100908000Y-131857300D01*
G75*
G02*
X100658000Y-131607300I0J250000D01*
G01*
X100658000Y-130657300D01*
G75*
G02*
X100908000Y-130407300I250000J0D01*
G01*
X101408000Y-130407300D01*
G75*
G02*
X101658000Y-130657300I0J-250000D01*
G01*
G37*
G36*
G01*
X180794600Y-99718400D02*
X180794600Y-98818400D01*
G75*
G02*
X181044600Y-98568400I250000J0D01*
G01*
X181569600Y-98568400D01*
G75*
G02*
X181819600Y-98818400I0J-250000D01*
G01*
X181819600Y-99718400D01*
G75*
G02*
X181569600Y-99968400I-250000J0D01*
G01*
X181044600Y-99968400D01*
G75*
G02*
X180794600Y-99718400I0J250000D01*
G01*
G37*
G36*
G01*
X182619600Y-99718400D02*
X182619600Y-98818400D01*
G75*
G02*
X182869600Y-98568400I250000J0D01*
G01*
X183394600Y-98568400D01*
G75*
G02*
X183644600Y-98818400I0J-250000D01*
G01*
X183644600Y-99718400D01*
G75*
G02*
X183394600Y-99968400I-250000J0D01*
G01*
X182869600Y-99968400D01*
G75*
G02*
X182619600Y-99718400I0J250000D01*
G01*
G37*
G36*
G01*
X177294600Y-87388400D02*
X177294600Y-88288400D01*
G75*
G02*
X177044600Y-88538400I-250000J0D01*
G01*
X176519600Y-88538400D01*
G75*
G02*
X176269600Y-88288400I0J250000D01*
G01*
X176269600Y-87388400D01*
G75*
G02*
X176519600Y-87138400I250000J0D01*
G01*
X177044600Y-87138400D01*
G75*
G02*
X177294600Y-87388400I0J-250000D01*
G01*
G37*
G36*
G01*
X175469600Y-87388400D02*
X175469600Y-88288400D01*
G75*
G02*
X175219600Y-88538400I-250000J0D01*
G01*
X174694600Y-88538400D01*
G75*
G02*
X174444600Y-88288400I0J250000D01*
G01*
X174444600Y-87388400D01*
G75*
G02*
X174694600Y-87138400I250000J0D01*
G01*
X175219600Y-87138400D01*
G75*
G02*
X175469600Y-87388400I0J-250000D01*
G01*
G37*
D12*
X168209600Y-92788400D03*
X168209600Y-93188400D03*
X168209600Y-93588400D03*
X168209600Y-93988400D03*
X168209600Y-94388400D03*
X168209600Y-94788400D03*
X168209600Y-95188400D03*
X168209600Y-95588400D03*
D13*
X167109600Y-96688400D03*
X166709600Y-96688400D03*
X166309600Y-96688400D03*
X165909600Y-96688400D03*
X165509600Y-96688400D03*
X165109600Y-96688400D03*
X164709600Y-96688400D03*
X164309600Y-96688400D03*
D12*
X163209600Y-95588400D03*
X163209600Y-95188400D03*
X163209600Y-94788400D03*
X163209600Y-94388400D03*
X163209600Y-93988400D03*
X163209600Y-93588400D03*
X163209600Y-93188400D03*
X163209600Y-92788400D03*
D13*
X164309600Y-91688400D03*
X164709600Y-91688400D03*
X165109600Y-91688400D03*
X165509600Y-91688400D03*
X165909600Y-91688400D03*
X166309600Y-91688400D03*
X166709600Y-91688400D03*
X167109600Y-91688400D03*
G36*
G01*
X174444600Y-95908400D02*
X174444600Y-95008400D01*
G75*
G02*
X174694600Y-94758400I250000J0D01*
G01*
X175219600Y-94758400D01*
G75*
G02*
X175469600Y-95008400I0J-250000D01*
G01*
X175469600Y-95908400D01*
G75*
G02*
X175219600Y-96158400I-250000J0D01*
G01*
X174694600Y-96158400D01*
G75*
G02*
X174444600Y-95908400I0J250000D01*
G01*
G37*
G36*
G01*
X176269600Y-95908400D02*
X176269600Y-95008400D01*
G75*
G02*
X176519600Y-94758400I250000J0D01*
G01*
X177044600Y-94758400D01*
G75*
G02*
X177294600Y-95008400I0J-250000D01*
G01*
X177294600Y-95908400D01*
G75*
G02*
X177044600Y-96158400I-250000J0D01*
G01*
X176519600Y-96158400D01*
G75*
G02*
X176269600Y-95908400I0J250000D01*
G01*
G37*
G36*
G01*
X190853000Y-114348800D02*
X190853000Y-113448800D01*
G75*
G02*
X191103000Y-113198800I250000J0D01*
G01*
X191628000Y-113198800D01*
G75*
G02*
X191878000Y-113448800I0J-250000D01*
G01*
X191878000Y-114348800D01*
G75*
G02*
X191628000Y-114598800I-250000J0D01*
G01*
X191103000Y-114598800D01*
G75*
G02*
X190853000Y-114348800I0J250000D01*
G01*
G37*
G36*
G01*
X192678000Y-114348800D02*
X192678000Y-113448800D01*
G75*
G02*
X192928000Y-113198800I250000J0D01*
G01*
X193453000Y-113198800D01*
G75*
G02*
X193703000Y-113448800I0J-250000D01*
G01*
X193703000Y-114348800D01*
G75*
G02*
X193453000Y-114598800I-250000J0D01*
G01*
X192928000Y-114598800D01*
G75*
G02*
X192678000Y-114348800I0J250000D01*
G01*
G37*
G36*
G01*
X128450000Y-83959800D02*
X128450000Y-84909800D01*
G75*
G02*
X128200000Y-85159800I-250000J0D01*
G01*
X127700000Y-85159800D01*
G75*
G02*
X127450000Y-84909800I0J250000D01*
G01*
X127450000Y-83959800D01*
G75*
G02*
X127700000Y-83709800I250000J0D01*
G01*
X128200000Y-83709800D01*
G75*
G02*
X128450000Y-83959800I0J-250000D01*
G01*
G37*
G36*
G01*
X126550000Y-83959800D02*
X126550000Y-84909800D01*
G75*
G02*
X126300000Y-85159800I-250000J0D01*
G01*
X125800000Y-85159800D01*
G75*
G02*
X125550000Y-84909800I0J250000D01*
G01*
X125550000Y-83959800D01*
G75*
G02*
X125800000Y-83709800I250000J0D01*
G01*
X126300000Y-83709800D01*
G75*
G02*
X126550000Y-83959800I0J-250000D01*
G01*
G37*
G36*
G01*
X177294600Y-98818400D02*
X177294600Y-99718400D01*
G75*
G02*
X177044600Y-99968400I-250000J0D01*
G01*
X176519600Y-99968400D01*
G75*
G02*
X176269600Y-99718400I0J250000D01*
G01*
X176269600Y-98818400D01*
G75*
G02*
X176519600Y-98568400I250000J0D01*
G01*
X177044600Y-98568400D01*
G75*
G02*
X177294600Y-98818400I0J-250000D01*
G01*
G37*
G36*
G01*
X175469600Y-98818400D02*
X175469600Y-99718400D01*
G75*
G02*
X175219600Y-99968400I-250000J0D01*
G01*
X174694600Y-99968400D01*
G75*
G02*
X174444600Y-99718400I0J250000D01*
G01*
X174444600Y-98818400D01*
G75*
G02*
X174694600Y-98568400I250000J0D01*
G01*
X175219600Y-98568400D01*
G75*
G02*
X175469600Y-98818400I0J-250000D01*
G01*
G37*
G36*
G01*
X153494000Y-128946300D02*
X153794000Y-128946300D01*
G75*
G02*
X153944000Y-129096300I0J-150000D01*
G01*
X153944000Y-130271300D01*
G75*
G02*
X153794000Y-130421300I-150000J0D01*
G01*
X153494000Y-130421300D01*
G75*
G02*
X153344000Y-130271300I0J150000D01*
G01*
X153344000Y-129096300D01*
G75*
G02*
X153494000Y-128946300I150000J0D01*
G01*
G37*
G36*
G01*
X155394000Y-128946300D02*
X155694000Y-128946300D01*
G75*
G02*
X155844000Y-129096300I0J-150000D01*
G01*
X155844000Y-130271300D01*
G75*
G02*
X155694000Y-130421300I-150000J0D01*
G01*
X155394000Y-130421300D01*
G75*
G02*
X155244000Y-130271300I0J150000D01*
G01*
X155244000Y-129096300D01*
G75*
G02*
X155394000Y-128946300I150000J0D01*
G01*
G37*
G36*
G01*
X154444000Y-130821300D02*
X154744000Y-130821300D01*
G75*
G02*
X154894000Y-130971300I0J-150000D01*
G01*
X154894000Y-132146300D01*
G75*
G02*
X154744000Y-132296300I-150000J0D01*
G01*
X154444000Y-132296300D01*
G75*
G02*
X154294000Y-132146300I0J150000D01*
G01*
X154294000Y-130971300D01*
G75*
G02*
X154444000Y-130821300I150000J0D01*
G01*
G37*
G36*
G01*
X156974600Y-83578400D02*
X156974600Y-84478400D01*
G75*
G02*
X156724600Y-84728400I-250000J0D01*
G01*
X156199600Y-84728400D01*
G75*
G02*
X155949600Y-84478400I0J250000D01*
G01*
X155949600Y-83578400D01*
G75*
G02*
X156199600Y-83328400I250000J0D01*
G01*
X156724600Y-83328400D01*
G75*
G02*
X156974600Y-83578400I0J-250000D01*
G01*
G37*
G36*
G01*
X155149600Y-83578400D02*
X155149600Y-84478400D01*
G75*
G02*
X154899600Y-84728400I-250000J0D01*
G01*
X154374600Y-84728400D01*
G75*
G02*
X154124600Y-84478400I0J250000D01*
G01*
X154124600Y-83578400D01*
G75*
G02*
X154374600Y-83328400I250000J0D01*
G01*
X154899600Y-83328400D01*
G75*
G02*
X155149600Y-83578400I0J-250000D01*
G01*
G37*
G36*
G01*
X172214600Y-83578400D02*
X172214600Y-84478400D01*
G75*
G02*
X171964600Y-84728400I-250000J0D01*
G01*
X171439600Y-84728400D01*
G75*
G02*
X171189600Y-84478400I0J250000D01*
G01*
X171189600Y-83578400D01*
G75*
G02*
X171439600Y-83328400I250000J0D01*
G01*
X171964600Y-83328400D01*
G75*
G02*
X172214600Y-83578400I0J-250000D01*
G01*
G37*
G36*
G01*
X170389600Y-83578400D02*
X170389600Y-84478400D01*
G75*
G02*
X170139600Y-84728400I-250000J0D01*
G01*
X169614600Y-84728400D01*
G75*
G02*
X169364600Y-84478400I0J250000D01*
G01*
X169364600Y-83578400D01*
G75*
G02*
X169614600Y-83328400I250000J0D01*
G01*
X170139600Y-83328400D01*
G75*
G02*
X170389600Y-83578400I0J-250000D01*
G01*
G37*
G36*
G01*
X156999600Y-102603400D02*
X156999600Y-103553400D01*
G75*
G02*
X156749600Y-103803400I-250000J0D01*
G01*
X156249600Y-103803400D01*
G75*
G02*
X155999600Y-103553400I0J250000D01*
G01*
X155999600Y-102603400D01*
G75*
G02*
X156249600Y-102353400I250000J0D01*
G01*
X156749600Y-102353400D01*
G75*
G02*
X156999600Y-102603400I0J-250000D01*
G01*
G37*
G36*
G01*
X155099600Y-102603400D02*
X155099600Y-103553400D01*
G75*
G02*
X154849600Y-103803400I-250000J0D01*
G01*
X154349600Y-103803400D01*
G75*
G02*
X154099600Y-103553400I0J250000D01*
G01*
X154099600Y-102603400D01*
G75*
G02*
X154349600Y-102353400I250000J0D01*
G01*
X154849600Y-102353400D01*
G75*
G02*
X155099600Y-102603400I0J-250000D01*
G01*
G37*
G36*
G01*
X139094000Y-130695800D02*
X139094000Y-131645800D01*
G75*
G02*
X138844000Y-131895800I-250000J0D01*
G01*
X138344000Y-131895800D01*
G75*
G02*
X138094000Y-131645800I0J250000D01*
G01*
X138094000Y-130695800D01*
G75*
G02*
X138344000Y-130445800I250000J0D01*
G01*
X138844000Y-130445800D01*
G75*
G02*
X139094000Y-130695800I0J-250000D01*
G01*
G37*
G36*
G01*
X137194000Y-130695800D02*
X137194000Y-131645800D01*
G75*
G02*
X136944000Y-131895800I-250000J0D01*
G01*
X136444000Y-131895800D01*
G75*
G02*
X136194000Y-131645800I0J250000D01*
G01*
X136194000Y-130695800D01*
G75*
G02*
X136444000Y-130445800I250000J0D01*
G01*
X136944000Y-130445800D01*
G75*
G02*
X137194000Y-130695800I0J-250000D01*
G01*
G37*
G36*
G01*
X171919600Y-102603400D02*
X171919600Y-103553400D01*
G75*
G02*
X171669600Y-103803400I-250000J0D01*
G01*
X171169600Y-103803400D01*
G75*
G02*
X170919600Y-103553400I0J250000D01*
G01*
X170919600Y-102603400D01*
G75*
G02*
X171169600Y-102353400I250000J0D01*
G01*
X171669600Y-102353400D01*
G75*
G02*
X171919600Y-102603400I0J-250000D01*
G01*
G37*
G36*
G01*
X170019600Y-102603400D02*
X170019600Y-103553400D01*
G75*
G02*
X169769600Y-103803400I-250000J0D01*
G01*
X169269600Y-103803400D01*
G75*
G02*
X169019600Y-103553400I0J250000D01*
G01*
X169019600Y-102603400D01*
G75*
G02*
X169269600Y-102353400I250000J0D01*
G01*
X169769600Y-102353400D01*
G75*
G02*
X170019600Y-102603400I0J-250000D01*
G01*
G37*
G36*
G01*
X177294600Y-102628400D02*
X177294600Y-103528400D01*
G75*
G02*
X177044600Y-103778400I-250000J0D01*
G01*
X176519600Y-103778400D01*
G75*
G02*
X176269600Y-103528400I0J250000D01*
G01*
X176269600Y-102628400D01*
G75*
G02*
X176519600Y-102378400I250000J0D01*
G01*
X177044600Y-102378400D01*
G75*
G02*
X177294600Y-102628400I0J-250000D01*
G01*
G37*
G36*
G01*
X175469600Y-102628400D02*
X175469600Y-103528400D01*
G75*
G02*
X175219600Y-103778400I-250000J0D01*
G01*
X174694600Y-103778400D01*
G75*
G02*
X174444600Y-103528400I0J250000D01*
G01*
X174444600Y-102628400D01*
G75*
G02*
X174694600Y-102378400I250000J0D01*
G01*
X175219600Y-102378400D01*
G75*
G02*
X175469600Y-102628400I0J-250000D01*
G01*
G37*
G36*
G01*
X183644600Y-102628400D02*
X183644600Y-103528400D01*
G75*
G02*
X183394600Y-103778400I-250000J0D01*
G01*
X182869600Y-103778400D01*
G75*
G02*
X182619600Y-103528400I0J250000D01*
G01*
X182619600Y-102628400D01*
G75*
G02*
X182869600Y-102378400I250000J0D01*
G01*
X183394600Y-102378400D01*
G75*
G02*
X183644600Y-102628400I0J-250000D01*
G01*
G37*
G36*
G01*
X181819600Y-102628400D02*
X181819600Y-103528400D01*
G75*
G02*
X181569600Y-103778400I-250000J0D01*
G01*
X181044600Y-103778400D01*
G75*
G02*
X180794600Y-103528400I0J250000D01*
G01*
X180794600Y-102628400D01*
G75*
G02*
X181044600Y-102378400I250000J0D01*
G01*
X181569600Y-102378400D01*
G75*
G02*
X181819600Y-102628400I0J-250000D01*
G01*
G37*
G36*
G01*
X180794600Y-92098400D02*
X180794600Y-91198400D01*
G75*
G02*
X181044600Y-90948400I250000J0D01*
G01*
X181569600Y-90948400D01*
G75*
G02*
X181819600Y-91198400I0J-250000D01*
G01*
X181819600Y-92098400D01*
G75*
G02*
X181569600Y-92348400I-250000J0D01*
G01*
X181044600Y-92348400D01*
G75*
G02*
X180794600Y-92098400I0J250000D01*
G01*
G37*
G36*
G01*
X182619600Y-92098400D02*
X182619600Y-91198400D01*
G75*
G02*
X182869600Y-90948400I250000J0D01*
G01*
X183394600Y-90948400D01*
G75*
G02*
X183644600Y-91198400I0J-250000D01*
G01*
X183644600Y-92098400D01*
G75*
G02*
X183394600Y-92348400I-250000J0D01*
G01*
X182869600Y-92348400D01*
G75*
G02*
X182619600Y-92098400I0J250000D01*
G01*
G37*
G36*
G01*
X156492000Y-74459800D02*
X156492000Y-75359800D01*
G75*
G02*
X156242000Y-75609800I-250000J0D01*
G01*
X155717000Y-75609800D01*
G75*
G02*
X155467000Y-75359800I0J250000D01*
G01*
X155467000Y-74459800D01*
G75*
G02*
X155717000Y-74209800I250000J0D01*
G01*
X156242000Y-74209800D01*
G75*
G02*
X156492000Y-74459800I0J-250000D01*
G01*
G37*
G36*
G01*
X154667000Y-74459800D02*
X154667000Y-75359800D01*
G75*
G02*
X154417000Y-75609800I-250000J0D01*
G01*
X153892000Y-75609800D01*
G75*
G02*
X153642000Y-75359800I0J250000D01*
G01*
X153642000Y-74459800D01*
G75*
G02*
X153892000Y-74209800I250000J0D01*
G01*
X154417000Y-74209800D01*
G75*
G02*
X154667000Y-74459800I0J-250000D01*
G01*
G37*
G36*
G01*
X156974600Y-98818400D02*
X156974600Y-99718400D01*
G75*
G02*
X156724600Y-99968400I-250000J0D01*
G01*
X156199600Y-99968400D01*
G75*
G02*
X155949600Y-99718400I0J250000D01*
G01*
X155949600Y-98818400D01*
G75*
G02*
X156199600Y-98568400I250000J0D01*
G01*
X156724600Y-98568400D01*
G75*
G02*
X156974600Y-98818400I0J-250000D01*
G01*
G37*
G36*
G01*
X155149600Y-98818400D02*
X155149600Y-99718400D01*
G75*
G02*
X154899600Y-99968400I-250000J0D01*
G01*
X154374600Y-99968400D01*
G75*
G02*
X154124600Y-99718400I0J250000D01*
G01*
X154124600Y-98818400D01*
G75*
G02*
X154374600Y-98568400I250000J0D01*
G01*
X154899600Y-98568400D01*
G75*
G02*
X155149600Y-98818400I0J-250000D01*
G01*
G37*
G36*
G01*
X154124600Y-88288400D02*
X154124600Y-87388400D01*
G75*
G02*
X154374600Y-87138400I250000J0D01*
G01*
X154899600Y-87138400D01*
G75*
G02*
X155149600Y-87388400I0J-250000D01*
G01*
X155149600Y-88288400D01*
G75*
G02*
X154899600Y-88538400I-250000J0D01*
G01*
X154374600Y-88538400D01*
G75*
G02*
X154124600Y-88288400I0J250000D01*
G01*
G37*
G36*
G01*
X155949600Y-88288400D02*
X155949600Y-87388400D01*
G75*
G02*
X156199600Y-87138400I250000J0D01*
G01*
X156724600Y-87138400D01*
G75*
G02*
X156974600Y-87388400I0J-250000D01*
G01*
X156974600Y-88288400D01*
G75*
G02*
X156724600Y-88538400I-250000J0D01*
G01*
X156199600Y-88538400D01*
G75*
G02*
X155949600Y-88288400I0J250000D01*
G01*
G37*
G36*
G01*
X153236000Y-126404300D02*
X153236000Y-125454300D01*
G75*
G02*
X153486000Y-125204300I250000J0D01*
G01*
X153986000Y-125204300D01*
G75*
G02*
X154236000Y-125454300I0J-250000D01*
G01*
X154236000Y-126404300D01*
G75*
G02*
X153986000Y-126654300I-250000J0D01*
G01*
X153486000Y-126654300D01*
G75*
G02*
X153236000Y-126404300I0J250000D01*
G01*
G37*
G36*
G01*
X155136000Y-126404300D02*
X155136000Y-125454300D01*
G75*
G02*
X155386000Y-125204300I250000J0D01*
G01*
X155886000Y-125204300D01*
G75*
G02*
X156136000Y-125454300I0J-250000D01*
G01*
X156136000Y-126404300D01*
G75*
G02*
X155886000Y-126654300I-250000J0D01*
G01*
X155386000Y-126654300D01*
G75*
G02*
X155136000Y-126404300I0J250000D01*
G01*
G37*
D10*
X150849600Y-99268400D03*
X147549600Y-99268400D03*
G36*
G01*
X150624600Y-83578400D02*
X150624600Y-84478400D01*
G75*
G02*
X150374600Y-84728400I-250000J0D01*
G01*
X149849600Y-84728400D01*
G75*
G02*
X149599600Y-84478400I0J250000D01*
G01*
X149599600Y-83578400D01*
G75*
G02*
X149849600Y-83328400I250000J0D01*
G01*
X150374600Y-83328400D01*
G75*
G02*
X150624600Y-83578400I0J-250000D01*
G01*
G37*
G36*
G01*
X148799600Y-83578400D02*
X148799600Y-84478400D01*
G75*
G02*
X148549600Y-84728400I-250000J0D01*
G01*
X148024600Y-84728400D01*
G75*
G02*
X147774600Y-84478400I0J250000D01*
G01*
X147774600Y-83578400D01*
G75*
G02*
X148024600Y-83328400I250000J0D01*
G01*
X148549600Y-83328400D01*
G75*
G02*
X148799600Y-83578400I0J-250000D01*
G01*
G37*
G36*
G01*
X183644600Y-83578400D02*
X183644600Y-84478400D01*
G75*
G02*
X183394600Y-84728400I-250000J0D01*
G01*
X182869600Y-84728400D01*
G75*
G02*
X182619600Y-84478400I0J250000D01*
G01*
X182619600Y-83578400D01*
G75*
G02*
X182869600Y-83328400I250000J0D01*
G01*
X183394600Y-83328400D01*
G75*
G02*
X183644600Y-83578400I0J-250000D01*
G01*
G37*
G36*
G01*
X181819600Y-83578400D02*
X181819600Y-84478400D01*
G75*
G02*
X181569600Y-84728400I-250000J0D01*
G01*
X181044600Y-84728400D01*
G75*
G02*
X180794600Y-84478400I0J250000D01*
G01*
X180794600Y-83578400D01*
G75*
G02*
X181044600Y-83328400I250000J0D01*
G01*
X181569600Y-83328400D01*
G75*
G02*
X181819600Y-83578400I0J-250000D01*
G01*
G37*
G36*
G01*
X140627400Y-102128600D02*
X140627400Y-103028600D01*
G75*
G02*
X140377400Y-103278600I-250000J0D01*
G01*
X139852400Y-103278600D01*
G75*
G02*
X139602400Y-103028600I0J250000D01*
G01*
X139602400Y-102128600D01*
G75*
G02*
X139852400Y-101878600I250000J0D01*
G01*
X140377400Y-101878600D01*
G75*
G02*
X140627400Y-102128600I0J-250000D01*
G01*
G37*
G36*
G01*
X138802400Y-102128600D02*
X138802400Y-103028600D01*
G75*
G02*
X138552400Y-103278600I-250000J0D01*
G01*
X138027400Y-103278600D01*
G75*
G02*
X137777400Y-103028600I0J250000D01*
G01*
X137777400Y-102128600D01*
G75*
G02*
X138027400Y-101878600I250000J0D01*
G01*
X138552400Y-101878600D01*
G75*
G02*
X138802400Y-102128600I0J-250000D01*
G01*
G37*
G36*
G01*
X133022000Y-83959800D02*
X133022000Y-84909800D01*
G75*
G02*
X132772000Y-85159800I-250000J0D01*
G01*
X132272000Y-85159800D01*
G75*
G02*
X132022000Y-84909800I0J250000D01*
G01*
X132022000Y-83959800D01*
G75*
G02*
X132272000Y-83709800I250000J0D01*
G01*
X132772000Y-83709800D01*
G75*
G02*
X133022000Y-83959800I0J-250000D01*
G01*
G37*
G36*
G01*
X131122000Y-83959800D02*
X131122000Y-84909800D01*
G75*
G02*
X130872000Y-85159800I-250000J0D01*
G01*
X130372000Y-85159800D01*
G75*
G02*
X130122000Y-84909800I0J250000D01*
G01*
X130122000Y-83959800D01*
G75*
G02*
X130372000Y-83709800I250000J0D01*
G01*
X130872000Y-83709800D01*
G75*
G02*
X131122000Y-83959800I0J-250000D01*
G01*
G37*
G36*
G01*
X121602400Y-90673600D02*
X121602400Y-91623600D01*
G75*
G02*
X121352400Y-91873600I-250000J0D01*
G01*
X120852400Y-91873600D01*
G75*
G02*
X120602400Y-91623600I0J250000D01*
G01*
X120602400Y-90673600D01*
G75*
G02*
X120852400Y-90423600I250000J0D01*
G01*
X121352400Y-90423600D01*
G75*
G02*
X121602400Y-90673600I0J-250000D01*
G01*
G37*
G36*
G01*
X119702400Y-90673600D02*
X119702400Y-91623600D01*
G75*
G02*
X119452400Y-91873600I-250000J0D01*
G01*
X118952400Y-91873600D01*
G75*
G02*
X118702400Y-91623600I0J250000D01*
G01*
X118702400Y-90673600D01*
G75*
G02*
X118952400Y-90423600I250000J0D01*
G01*
X119452400Y-90423600D01*
G75*
G02*
X119702400Y-90673600I0J-250000D01*
G01*
G37*
G36*
G01*
X177294600Y-91198400D02*
X177294600Y-92098400D01*
G75*
G02*
X177044600Y-92348400I-250000J0D01*
G01*
X176519600Y-92348400D01*
G75*
G02*
X176269600Y-92098400I0J250000D01*
G01*
X176269600Y-91198400D01*
G75*
G02*
X176519600Y-90948400I250000J0D01*
G01*
X177044600Y-90948400D01*
G75*
G02*
X177294600Y-91198400I0J-250000D01*
G01*
G37*
G36*
G01*
X175469600Y-91198400D02*
X175469600Y-92098400D01*
G75*
G02*
X175219600Y-92348400I-250000J0D01*
G01*
X174694600Y-92348400D01*
G75*
G02*
X174444600Y-92098400I0J250000D01*
G01*
X174444600Y-91198400D01*
G75*
G02*
X174694600Y-90948400I250000J0D01*
G01*
X175219600Y-90948400D01*
G75*
G02*
X175469600Y-91198400I0J-250000D01*
G01*
G37*
G36*
G01*
X150649600Y-87363400D02*
X150649600Y-88313400D01*
G75*
G02*
X150399600Y-88563400I-250000J0D01*
G01*
X149899600Y-88563400D01*
G75*
G02*
X149649600Y-88313400I0J250000D01*
G01*
X149649600Y-87363400D01*
G75*
G02*
X149899600Y-87113400I250000J0D01*
G01*
X150399600Y-87113400D01*
G75*
G02*
X150649600Y-87363400I0J-250000D01*
G01*
G37*
G36*
G01*
X148749600Y-87363400D02*
X148749600Y-88313400D01*
G75*
G02*
X148499600Y-88563400I-250000J0D01*
G01*
X147999600Y-88563400D01*
G75*
G02*
X147749600Y-88313400I0J250000D01*
G01*
X147749600Y-87363400D01*
G75*
G02*
X147999600Y-87113400I250000J0D01*
G01*
X148499600Y-87113400D01*
G75*
G02*
X148749600Y-87363400I0J-250000D01*
G01*
G37*
D11*
X140160000Y-123676800D03*
G36*
X139526500Y-119726800D02*
G01*
X139526500Y-122851800D01*
X139110000Y-122851800D01*
X139110000Y-124326800D01*
X138210000Y-124326800D01*
X138210000Y-122851800D01*
X137793500Y-122851800D01*
X137793500Y-119726800D01*
X139526500Y-119726800D01*
G37*
X137160000Y-123676800D03*
G36*
G01*
X140627400Y-98318600D02*
X140627400Y-99218600D01*
G75*
G02*
X140377400Y-99468600I-250000J0D01*
G01*
X139852400Y-99468600D01*
G75*
G02*
X139602400Y-99218600I0J250000D01*
G01*
X139602400Y-98318600D01*
G75*
G02*
X139852400Y-98068600I250000J0D01*
G01*
X140377400Y-98068600D01*
G75*
G02*
X140627400Y-98318600I0J-250000D01*
G01*
G37*
G36*
G01*
X138802400Y-98318600D02*
X138802400Y-99218600D01*
G75*
G02*
X138552400Y-99468600I-250000J0D01*
G01*
X138027400Y-99468600D01*
G75*
G02*
X137777400Y-99218600I0J250000D01*
G01*
X137777400Y-98318600D01*
G75*
G02*
X138027400Y-98068600I250000J0D01*
G01*
X138552400Y-98068600D01*
G75*
G02*
X138802400Y-98318600I0J-250000D01*
G01*
G37*
M02*
