M48
; DRILL file {KiCad 6.0.5+dfsg-1~bpo11+1} date Thu Jul 21 21:01:22 2022
; FORMAT={-:-/ absolute / metric / decimal}
; #@! TF.CreationDate,2022-07-21T21:01:22+00:00
; #@! TF.GenerationSoftware,Kicad,Pcbnew,6.0.5+dfsg-1~bpo11+1
; #@! TF.FileFunction,Plated,1,2,PTH
FMAT,2
METRIC
; #@! TA.AperFunction,Plated,PTH,ViaDrill
T1C0.400
; #@! TA.AperFunction,Plated,PTH,ViaDrill
T2C0.500
; #@! TA.AperFunction,Plated,PTH,ComponentDrill
T3C0.800
; #@! TA.AperFunction,Plated,PTH,ComponentDrill
T4C0.900
; #@! TA.AperFunction,Plated,PTH,ComponentDrill
T5C1.000
; #@! TA.AperFunction,Plated,PTH,ComponentDrill
T6C1.100
; #@! TA.AperFunction,Plated,PTH,ComponentDrill
T7C1.190
; #@! TA.AperFunction,Plated,PTH,ComponentDrill
T8C1.300
; #@! TA.AperFunction,Plated,PTH,ComponentDrill
T9C1.400
; #@! TA.AperFunction,Plated,PTH,ComponentDrill
T10C1.850
%
G90
G05
T1
X143.891Y-95.357
X161.544Y-95.23
T2
X103.417Y-117.515
X105.41Y-89.007
X117.094Y-84.181
X123.952Y-82.657
X123.952Y-99.929
X129.286Y-101.453
X134.62Y-82.403
X134.874Y-99.929
X139.192Y-107.803
X141.478Y-94.849
X141.986Y-89.388
X145.669Y-87.838
X146.05Y-99.421
X152.146Y-95.484
X153.162Y-84.181
X153.162Y-91.547
X157.988Y-80.879
X159.258Y-95.357
X160.02Y-91.547
X162.2Y-92.389
X163.17Y-84.028
X163.576Y-98.659
X164.338Y-101.199
X165.297Y-99.531
X166.37Y-88.753
X166.536Y-101.614
X167.552Y-99.929
X167.767Y-98.278
X169.418Y-87.229
X169.926Y-80.879
X170.713Y-93.477
X171.729Y-94.671
X173.228Y-102.977
X173.406Y-87.94
X178.562Y-89.769
X178.562Y-101.961
X178.816Y-99.167
X179.07Y-93.325
X184.658Y-91.547
X186.944Y-118.471
X189.738Y-123.805
T3
X115.28Y-113.848
X117.78Y-113.848
X122.94Y-113.848
X125.44Y-113.848
X153.0Y-110.698
X155.54Y-110.698
X158.08Y-110.698
X163.17Y-110.698
X165.71Y-110.698
X168.25Y-110.698
X173.355Y-110.698
X175.895Y-110.698
X178.435Y-110.698
T4
X149.606Y-74.783
X149.606Y-77.323
T5
X102.616Y-105.898
X102.616Y-111.613
X105.116Y-105.898
X107.616Y-105.898
X112.141Y-80.498
X115.316Y-102.215
X115.316Y-125.583
X115.316Y-128.123
X117.856Y-125.583
X117.856Y-128.123
X120.396Y-125.583
X120.396Y-128.123
X122.936Y-125.583
X122.936Y-128.123
X125.476Y-125.583
X125.476Y-128.123
X132.842Y-113.899
X141.351Y-76.688
X142.621Y-130.663
X149.606Y-130.663
X191.516Y-83.673
X194.016Y-83.673
X196.516Y-83.673
T7
X93.726Y-84.943
X93.726Y-87.483
X93.726Y-102.723
X93.726Y-105.263
X101.346Y-67.163
X103.886Y-67.163
X117.856Y-67.163
X120.396Y-67.163
X122.936Y-67.163
X171.196Y-67.183
X173.736Y-67.183
X176.276Y-67.183
T8
X125.222Y-105.263
X132.842Y-105.263
T9
X183.056Y-120.503
X184.53Y-115.003
X184.53Y-126.003
X188.556Y-110.977
X188.556Y-130.029
X192.056Y-117.039
X194.056Y-109.503
X194.056Y-131.503
X199.556Y-110.977
X199.556Y-130.029
X203.582Y-115.003
X203.582Y-126.003
X205.056Y-120.503
T10
X149.606Y-115.803
X149.606Y-120.503
X149.606Y-125.203
T6
X99.06Y-98.978G85X99.06Y-97.578
G05
X111.252Y-98.978G85X111.252Y-97.578
G05
X187.96Y-76.753G85X187.96Y-75.353
G05
X200.152Y-76.753G85X200.152Y-75.353
G05
T0
M30
