%FSLAX45Y45*%
G04 Gerber Fmt 4.5, Leading zero omitted, Abs format (unit mm)*
G04 Created by KiCad (PCBNEW 6.0.5+dfsg-1~bpo11+1) date 2022-07-21 21:01:22*
%MOMM*%
%LPD*%
G01*
G04 APERTURE LIST*
%TA.AperFunction,Profile*%
%ADD10C,0.100000*%
%TD*%
%ADD11C,0.200000*%
%ADD12C,0.040000*%
%ADD13C,0.050000*%
%ADD14C,0.080000*%
%ADD15C,0.090000*%
%ADD16C,0.100000*%
%ADD17C,0.110000*%
%ADD18C,0.119000*%
%ADD19C,0.130000*%
%ADD20C,0.140000*%
%ADD21C,0.185000*%
G04 APERTURE END LIST*
D10*
X20929600Y-5954280D02*
X8610600Y-5954280D01*
X20929600Y-13574280D02*
X20929600Y-5954280D01*
X8610600Y-13574280D02*
X20929600Y-13574280D01*
X8610600Y-5954280D02*
X8610600Y-13574280D01*
D11*
D12*
X14369100Y-9515680D02*
X14409100Y-9555680D01*
X14409100Y-9515680D02*
X14369100Y-9555680D01*
X16134400Y-9502980D02*
X16174400Y-9542980D01*
X16174400Y-9502980D02*
X16134400Y-9542980D01*
D13*
X10366750Y-11751487D02*
G75*
G03*
X10366750Y-11751487I-25000J0D01*
G01*
X10566000Y-8900680D02*
G75*
G03*
X10566000Y-8900680I-25000J0D01*
G01*
X11734400Y-8418080D02*
G75*
G03*
X11734400Y-8418080I-25000J0D01*
G01*
X12420200Y-8265680D02*
G75*
G03*
X12420200Y-8265680I-25000J0D01*
G01*
X12420200Y-9992880D02*
G75*
G03*
X12420200Y-9992880I-25000J0D01*
G01*
X12953600Y-10145280D02*
G75*
G03*
X12953600Y-10145280I-25000J0D01*
G01*
X13487000Y-8240280D02*
G75*
G03*
X13487000Y-8240280I-25000J0D01*
G01*
X13512400Y-9992880D02*
G75*
G03*
X13512400Y-9992880I-25000J0D01*
G01*
X13944200Y-10780280D02*
G75*
G03*
X13944200Y-10780280I-25000J0D01*
G01*
X14172800Y-9484880D02*
G75*
G03*
X14172800Y-9484880I-25000J0D01*
G01*
X14223600Y-8938780D02*
G75*
G03*
X14223600Y-8938780I-25000J0D01*
G01*
X14591900Y-8783840D02*
G75*
G03*
X14591900Y-8783840I-25000J0D01*
G01*
X14630000Y-9942080D02*
G75*
G03*
X14630000Y-9942080I-25000J0D01*
G01*
X15239600Y-9548380D02*
G75*
G03*
X15239600Y-9548380I-25000J0D01*
G01*
X15341200Y-8418080D02*
G75*
G03*
X15341200Y-8418080I-25000J0D01*
G01*
X15341200Y-9154680D02*
G75*
G03*
X15341200Y-9154680I-25000J0D01*
G01*
X15823800Y-8087880D02*
G75*
G03*
X15823800Y-8087880I-25000J0D01*
G01*
X15950800Y-9535680D02*
G75*
G03*
X15950800Y-9535680I-25000J0D01*
G01*
X16027000Y-9154680D02*
G75*
G03*
X16027000Y-9154680I-25000J0D01*
G01*
X16244973Y-9238938D02*
G75*
G03*
X16244973Y-9238938I-25000J0D01*
G01*
X16341960Y-8402840D02*
G75*
G03*
X16341960Y-8402840I-25000J0D01*
G01*
X16382600Y-9865880D02*
G75*
G03*
X16382600Y-9865880I-25000J0D01*
G01*
X16458800Y-10119880D02*
G75*
G03*
X16458800Y-10119880I-25000J0D01*
G01*
X16554702Y-9953106D02*
G75*
G03*
X16554702Y-9953106I-25000J0D01*
G01*
X16662000Y-8875280D02*
G75*
G03*
X16662000Y-8875280I-25000J0D01*
G01*
X16678650Y-10161411D02*
G75*
G03*
X16678650Y-10161411I-25000J0D01*
G01*
X16780250Y-9992880D02*
G75*
G03*
X16780250Y-9992880I-25000J0D01*
G01*
X16801700Y-9827780D02*
G75*
G03*
X16801700Y-9827780I-25000J0D01*
G01*
X16966800Y-8722880D02*
G75*
G03*
X16966800Y-8722880I-25000J0D01*
G01*
X17017600Y-8087880D02*
G75*
G03*
X17017600Y-8087880I-25000J0D01*
G01*
X17096340Y-9347720D02*
G75*
G03*
X17096340Y-9347720I-25000J0D01*
G01*
X17197940Y-9467100D02*
G75*
G03*
X17197940Y-9467100I-25000J0D01*
G01*
X17347800Y-10297680D02*
G75*
G03*
X17347800Y-10297680I-25000J0D01*
G01*
X17365580Y-8794000D02*
G75*
G03*
X17365580Y-8794000I-25000J0D01*
G01*
X17881200Y-8976880D02*
G75*
G03*
X17881200Y-8976880I-25000J0D01*
G01*
X17881200Y-10196080D02*
G75*
G03*
X17881200Y-10196080I-25000J0D01*
G01*
X17906600Y-9916680D02*
G75*
G03*
X17906600Y-9916680I-25000J0D01*
G01*
X17932000Y-9332480D02*
G75*
G03*
X17932000Y-9332480I-25000J0D01*
G01*
X18490800Y-9154680D02*
G75*
G03*
X18490800Y-9154680I-25000J0D01*
G01*
X18719400Y-11847080D02*
G75*
G03*
X18719400Y-11847080I-25000J0D01*
G01*
X18998800Y-12380480D02*
G75*
G03*
X18998800Y-12380480I-25000J0D01*
G01*
D14*
X11527980Y-11344800D02*
X11527980Y-11424800D01*
X11487980Y-11384800D02*
X11567980Y-11384800D01*
X11777980Y-11344800D02*
X11777980Y-11424800D01*
X11737980Y-11384800D02*
X11817980Y-11384800D01*
X12293980Y-11344800D02*
X12293980Y-11424800D01*
X12253980Y-11384800D02*
X12333980Y-11384800D01*
X12543980Y-11344800D02*
X12543980Y-11424800D01*
X12503980Y-11384800D02*
X12583980Y-11384800D01*
X15299960Y-11029840D02*
X15299960Y-11109840D01*
X15259960Y-11069840D02*
X15339960Y-11069840D01*
X15553960Y-11029840D02*
X15553960Y-11109840D01*
X15513960Y-11069840D02*
X15593960Y-11069840D01*
X15807960Y-11029840D02*
X15807960Y-11109840D01*
X15767960Y-11069840D02*
X15847960Y-11069840D01*
X16316960Y-11029840D02*
X16316960Y-11109840D01*
X16276960Y-11069840D02*
X16356960Y-11069840D01*
X16570960Y-11029840D02*
X16570960Y-11109840D01*
X16530960Y-11069840D02*
X16610960Y-11069840D01*
X16824960Y-11029840D02*
X16824960Y-11109840D01*
X16784960Y-11069840D02*
X16864960Y-11069840D01*
X17335500Y-11029840D02*
X17335500Y-11109840D01*
X17295500Y-11069840D02*
X17375500Y-11069840D01*
X17589500Y-11029840D02*
X17589500Y-11109840D01*
X17549500Y-11069840D02*
X17629500Y-11069840D01*
X17843500Y-11029840D02*
X17843500Y-11109840D01*
X17803500Y-11069840D02*
X17883500Y-11069840D01*
D15*
X14992420Y-7510100D02*
X14992420Y-7446460D01*
X14928780Y-7446460D01*
X14928780Y-7510100D01*
X14992420Y-7510100D01*
X14992420Y-7764100D02*
X14992420Y-7700460D01*
X14928780Y-7700460D01*
X14928780Y-7764100D01*
X14992420Y-7764100D01*
D16*
X10261600Y-10639780D02*
X10311600Y-10589780D01*
X10261600Y-10539780D01*
X10211600Y-10589780D01*
X10261600Y-10639780D01*
X10261600Y-11211280D02*
X10311600Y-11161280D01*
X10261600Y-11111280D01*
X10211600Y-11161280D01*
X10261600Y-11211280D01*
X10511600Y-10639780D02*
X10561600Y-10589780D01*
X10511600Y-10539780D01*
X10461600Y-10589780D01*
X10511600Y-10639780D01*
X10761600Y-10639780D02*
X10811600Y-10589780D01*
X10761600Y-10539780D01*
X10711600Y-10589780D01*
X10761600Y-10639780D01*
X11214100Y-8099780D02*
X11264100Y-8049780D01*
X11214100Y-7999780D01*
X11164100Y-8049780D01*
X11214100Y-8099780D01*
X11531600Y-10271480D02*
X11581600Y-10221480D01*
X11531600Y-10171480D01*
X11481600Y-10221480D01*
X11531600Y-10271480D01*
X11531600Y-12608280D02*
X11581600Y-12558280D01*
X11531600Y-12508280D01*
X11481600Y-12558280D01*
X11531600Y-12608280D01*
X11531600Y-12862280D02*
X11581600Y-12812280D01*
X11531600Y-12762280D01*
X11481600Y-12812280D01*
X11531600Y-12862280D01*
X11785600Y-12608280D02*
X11835600Y-12558280D01*
X11785600Y-12508280D01*
X11735600Y-12558280D01*
X11785600Y-12608280D01*
X11785600Y-12862280D02*
X11835600Y-12812280D01*
X11785600Y-12762280D01*
X11735600Y-12812280D01*
X11785600Y-12862280D01*
X12039600Y-12608280D02*
X12089600Y-12558280D01*
X12039600Y-12508280D01*
X11989600Y-12558280D01*
X12039600Y-12608280D01*
X12039600Y-12862280D02*
X12089600Y-12812280D01*
X12039600Y-12762280D01*
X11989600Y-12812280D01*
X12039600Y-12862280D01*
X12293600Y-12608280D02*
X12343600Y-12558280D01*
X12293600Y-12508280D01*
X12243600Y-12558280D01*
X12293600Y-12608280D01*
X12293600Y-12862280D02*
X12343600Y-12812280D01*
X12293600Y-12762280D01*
X12243600Y-12812280D01*
X12293600Y-12862280D01*
X12547600Y-12608280D02*
X12597600Y-12558280D01*
X12547600Y-12508280D01*
X12497600Y-12558280D01*
X12547600Y-12608280D01*
X12547600Y-12862280D02*
X12597600Y-12812280D01*
X12547600Y-12762280D01*
X12497600Y-12812280D01*
X12547600Y-12862280D01*
X13284200Y-11439880D02*
X13334200Y-11389880D01*
X13284200Y-11339880D01*
X13234200Y-11389880D01*
X13284200Y-11439880D01*
X14135100Y-7718780D02*
X14185100Y-7668780D01*
X14135100Y-7618780D01*
X14085100Y-7668780D01*
X14135100Y-7718780D01*
X14262100Y-13116280D02*
X14312100Y-13066280D01*
X14262100Y-13016280D01*
X14212100Y-13066280D01*
X14262100Y-13116280D01*
X14960600Y-13116280D02*
X15010600Y-13066280D01*
X14960600Y-13016280D01*
X14910600Y-13066280D01*
X14960600Y-13116280D01*
X19151600Y-8417280D02*
X19201600Y-8367280D01*
X19151600Y-8317280D01*
X19101600Y-8367280D01*
X19151600Y-8417280D01*
X19401600Y-8417280D02*
X19451600Y-8367280D01*
X19401600Y-8317280D01*
X19351600Y-8367280D01*
X19401600Y-8417280D01*
X19651600Y-8417280D02*
X19701600Y-8367280D01*
X19651600Y-8317280D01*
X19601600Y-8367280D01*
X19651600Y-8417280D01*
D17*
X9851000Y-9772780D02*
X9961000Y-9882780D01*
X9961000Y-9772780D02*
X9851000Y-9882780D01*
X9961000Y-9827780D02*
G75*
G03*
X9961000Y-9827780I-55000J0D01*
G01*
D11*
X9951000Y-9897780D02*
X9951000Y-9757780D01*
X9861000Y-9897780D02*
X9861000Y-9757780D01*
X9951000Y-9757780D02*
G75*
G03*
X9861000Y-9757780I-45000J0D01*
G01*
X9861000Y-9897780D02*
G75*
G03*
X9951000Y-9897780I45000J0D01*
G01*
D17*
X11070200Y-9772780D02*
X11180200Y-9882780D01*
X11180200Y-9772780D02*
X11070200Y-9882780D01*
X11180200Y-9827780D02*
G75*
G03*
X11180200Y-9827780I-55000J0D01*
G01*
D11*
X11170200Y-9897780D02*
X11170200Y-9757780D01*
X11080200Y-9897780D02*
X11080200Y-9757780D01*
X11170200Y-9757780D02*
G75*
G03*
X11080200Y-9757780I-45000J0D01*
G01*
X11080200Y-9897780D02*
G75*
G03*
X11170200Y-9897780I45000J0D01*
G01*
D17*
X18741000Y-7550280D02*
X18851000Y-7660280D01*
X18851000Y-7550280D02*
X18741000Y-7660280D01*
X18851000Y-7605280D02*
G75*
G03*
X18851000Y-7605280I-55000J0D01*
G01*
D11*
X18841000Y-7675280D02*
X18841000Y-7535280D01*
X18751000Y-7675280D02*
X18751000Y-7535280D01*
X18841000Y-7535280D02*
G75*
G03*
X18751000Y-7535280I-45000J0D01*
G01*
X18751000Y-7675280D02*
G75*
G03*
X18841000Y-7675280I45000J0D01*
G01*
D17*
X19960200Y-7550280D02*
X20070200Y-7660280D01*
X20070200Y-7550280D02*
X19960200Y-7660280D01*
X20070200Y-7605280D02*
G75*
G03*
X20070200Y-7605280I-55000J0D01*
G01*
D11*
X20060200Y-7675280D02*
X20060200Y-7535280D01*
X19970200Y-7675280D02*
X19970200Y-7535280D01*
X20060200Y-7535280D02*
G75*
G03*
X19970200Y-7535280I-45000J0D01*
G01*
X19970200Y-7675280D02*
G75*
G03*
X20060200Y-7675280I45000J0D01*
G01*
D18*
X9313100Y-8434780D02*
X9432100Y-8553780D01*
X9432100Y-8434780D02*
X9313100Y-8553780D01*
X9372600Y-8434780D02*
X9372600Y-8553780D01*
X9313100Y-8494280D02*
X9432100Y-8494280D01*
X9313100Y-8688780D02*
X9432100Y-8807780D01*
X9432100Y-8688780D02*
X9313100Y-8807780D01*
X9372600Y-8688780D02*
X9372600Y-8807780D01*
X9313100Y-8748280D02*
X9432100Y-8748280D01*
X9313100Y-10212780D02*
X9432100Y-10331780D01*
X9432100Y-10212780D02*
X9313100Y-10331780D01*
X9372600Y-10212780D02*
X9372600Y-10331780D01*
X9313100Y-10272280D02*
X9432100Y-10272280D01*
X9313100Y-10466780D02*
X9432100Y-10585780D01*
X9432100Y-10466780D02*
X9313100Y-10585780D01*
X9372600Y-10466780D02*
X9372600Y-10585780D01*
X9313100Y-10526280D02*
X9432100Y-10526280D01*
X10075100Y-6656780D02*
X10194100Y-6775780D01*
X10194100Y-6656780D02*
X10075100Y-6775780D01*
X10134600Y-6656780D02*
X10134600Y-6775780D01*
X10075100Y-6716280D02*
X10194100Y-6716280D01*
X10329100Y-6656780D02*
X10448100Y-6775780D01*
X10448100Y-6656780D02*
X10329100Y-6775780D01*
X10388600Y-6656780D02*
X10388600Y-6775780D01*
X10329100Y-6716280D02*
X10448100Y-6716280D01*
X11726100Y-6656780D02*
X11845100Y-6775780D01*
X11845100Y-6656780D02*
X11726100Y-6775780D01*
X11785600Y-6656780D02*
X11785600Y-6775780D01*
X11726100Y-6716280D02*
X11845100Y-6716280D01*
X11980100Y-6656780D02*
X12099100Y-6775780D01*
X12099100Y-6656780D02*
X11980100Y-6775780D01*
X12039600Y-6656780D02*
X12039600Y-6775780D01*
X11980100Y-6716280D02*
X12099100Y-6716280D01*
X12234100Y-6656780D02*
X12353100Y-6775780D01*
X12353100Y-6656780D02*
X12234100Y-6775780D01*
X12293600Y-6656780D02*
X12293600Y-6775780D01*
X12234100Y-6716280D02*
X12353100Y-6716280D01*
X17060100Y-6658780D02*
X17179100Y-6777780D01*
X17179100Y-6658780D02*
X17060100Y-6777780D01*
X17119600Y-6658780D02*
X17119600Y-6777780D01*
X17060100Y-6718280D02*
X17179100Y-6718280D01*
X17314100Y-6658780D02*
X17433100Y-6777780D01*
X17433100Y-6658780D02*
X17314100Y-6777780D01*
X17373600Y-6658780D02*
X17373600Y-6777780D01*
X17314100Y-6718280D02*
X17433100Y-6718280D01*
X17568100Y-6658780D02*
X17687100Y-6777780D01*
X17687100Y-6658780D02*
X17568100Y-6777780D01*
X17627600Y-6658780D02*
X17627600Y-6777780D01*
X17568100Y-6718280D02*
X17687100Y-6718280D01*
D19*
X12457200Y-10461280D02*
X12587200Y-10591280D01*
X12587200Y-10461280D02*
X12457200Y-10591280D01*
X12568162Y-10572242D02*
X12568162Y-10480318D01*
X12476238Y-10480318D01*
X12476238Y-10572242D01*
X12568162Y-10572242D01*
X13219200Y-10461280D02*
X13349200Y-10591280D01*
X13349200Y-10461280D02*
X13219200Y-10591280D01*
X13330162Y-10572242D02*
X13330162Y-10480318D01*
X13238238Y-10480318D01*
X13238238Y-10572242D01*
X13330162Y-10572242D01*
D20*
X18235600Y-11980280D02*
X18375600Y-12120280D01*
X18375600Y-11980280D02*
X18235600Y-12120280D01*
X18305600Y-12120280D02*
X18375600Y-12050280D01*
X18305600Y-11980280D01*
X18235600Y-12050280D01*
X18305600Y-12120280D01*
X18382972Y-11430280D02*
X18522972Y-11570280D01*
X18522972Y-11430280D02*
X18382972Y-11570280D01*
X18452972Y-11570280D02*
X18522972Y-11500280D01*
X18452972Y-11430280D01*
X18382972Y-11500280D01*
X18452972Y-11570280D01*
X18382972Y-12530280D02*
X18522972Y-12670280D01*
X18522972Y-12530280D02*
X18382972Y-12670280D01*
X18452972Y-12670280D02*
X18522972Y-12600280D01*
X18452972Y-12530280D01*
X18382972Y-12600280D01*
X18452972Y-12670280D01*
X18785600Y-11027652D02*
X18925600Y-11167652D01*
X18925600Y-11027652D02*
X18785600Y-11167652D01*
X18855600Y-11167652D02*
X18925600Y-11097652D01*
X18855600Y-11027652D01*
X18785600Y-11097652D01*
X18855600Y-11167652D01*
X18785600Y-12932908D02*
X18925600Y-13072908D01*
X18925600Y-12932908D02*
X18785600Y-13072908D01*
X18855600Y-13072908D02*
X18925600Y-13002908D01*
X18855600Y-12932908D01*
X18785600Y-13002908D01*
X18855600Y-13072908D01*
X19135600Y-11633870D02*
X19275600Y-11773870D01*
X19275600Y-11633870D02*
X19135600Y-11773870D01*
X19205600Y-11773870D02*
X19275600Y-11703870D01*
X19205600Y-11633870D01*
X19135600Y-11703870D01*
X19205600Y-11773870D01*
X19335600Y-10880280D02*
X19475600Y-11020280D01*
X19475600Y-10880280D02*
X19335600Y-11020280D01*
X19405600Y-11020280D02*
X19475600Y-10950280D01*
X19405600Y-10880280D01*
X19335600Y-10950280D01*
X19405600Y-11020280D01*
X19335600Y-13080280D02*
X19475600Y-13220280D01*
X19475600Y-13080280D02*
X19335600Y-13220280D01*
X19405600Y-13220280D02*
X19475600Y-13150280D01*
X19405600Y-13080280D01*
X19335600Y-13150280D01*
X19405600Y-13220280D01*
X19885600Y-11027652D02*
X20025600Y-11167652D01*
X20025600Y-11027652D02*
X19885600Y-11167652D01*
X19955600Y-11167652D02*
X20025600Y-11097652D01*
X19955600Y-11027652D01*
X19885600Y-11097652D01*
X19955600Y-11167652D01*
X19885600Y-12932908D02*
X20025600Y-13072908D01*
X20025600Y-12932908D02*
X19885600Y-13072908D01*
X19955600Y-13072908D02*
X20025600Y-13002908D01*
X19955600Y-12932908D01*
X19885600Y-13002908D01*
X19955600Y-13072908D01*
X20288228Y-11430280D02*
X20428228Y-11570280D01*
X20428228Y-11430280D02*
X20288228Y-11570280D01*
X20358228Y-11570280D02*
X20428228Y-11500280D01*
X20358228Y-11430280D01*
X20288228Y-11500280D01*
X20358228Y-11570280D01*
X20288228Y-12530280D02*
X20428228Y-12670280D01*
X20428228Y-12530280D02*
X20288228Y-12670280D01*
X20358228Y-12670280D02*
X20428228Y-12600280D01*
X20358228Y-12530280D01*
X20288228Y-12600280D01*
X20358228Y-12670280D01*
X20435600Y-11980280D02*
X20575600Y-12120280D01*
X20575600Y-11980280D02*
X20435600Y-12120280D01*
X20505600Y-12120280D02*
X20575600Y-12050280D01*
X20505600Y-11980280D01*
X20435600Y-12050280D01*
X20505600Y-12120280D01*
D21*
X14960600Y-11487780D02*
X14960600Y-11672780D01*
X14868100Y-11580280D02*
X15053100Y-11580280D01*
X15053100Y-11580280D02*
G75*
G03*
X15053100Y-11580280I-92500J0D01*
G01*
X14960600Y-11957780D02*
X14960600Y-12142780D01*
X14868100Y-12050280D02*
X15053100Y-12050280D01*
X15053100Y-12050280D02*
G75*
G03*
X15053100Y-12050280I-92500J0D01*
G01*
X14960600Y-12427780D02*
X14960600Y-12612780D01*
X14868100Y-12520280D02*
X15053100Y-12520280D01*
X15053100Y-12520280D02*
G75*
G03*
X15053100Y-12520280I-92500J0D01*
G01*
D11*
X8863219Y-13889756D02*
X8863219Y-13689756D01*
X8910838Y-13689756D01*
X8939410Y-13699280D01*
X8958457Y-13718328D01*
X8967981Y-13737375D01*
X8977505Y-13775470D01*
X8977505Y-13804042D01*
X8967981Y-13842137D01*
X8958457Y-13861185D01*
X8939410Y-13880232D01*
X8910838Y-13889756D01*
X8863219Y-13889756D01*
X9063219Y-13889756D02*
X9063219Y-13756423D01*
X9063219Y-13794518D02*
X9072743Y-13775470D01*
X9082267Y-13765947D01*
X9101314Y-13756423D01*
X9120362Y-13756423D01*
X9187029Y-13889756D02*
X9187029Y-13756423D01*
X9187029Y-13689756D02*
X9177505Y-13699280D01*
X9187029Y-13708804D01*
X9196552Y-13699280D01*
X9187029Y-13689756D01*
X9187029Y-13708804D01*
X9310838Y-13889756D02*
X9291790Y-13880232D01*
X9282267Y-13861185D01*
X9282267Y-13689756D01*
X9415600Y-13889756D02*
X9396552Y-13880232D01*
X9387029Y-13861185D01*
X9387029Y-13689756D01*
X9644171Y-13889756D02*
X9644171Y-13689756D01*
X9710838Y-13832613D01*
X9777505Y-13689756D01*
X9777505Y-13889756D01*
X9958457Y-13889756D02*
X9958457Y-13784994D01*
X9948933Y-13765947D01*
X9929886Y-13756423D01*
X9891790Y-13756423D01*
X9872743Y-13765947D01*
X9958457Y-13880232D02*
X9939410Y-13889756D01*
X9891790Y-13889756D01*
X9872743Y-13880232D01*
X9863219Y-13861185D01*
X9863219Y-13842137D01*
X9872743Y-13823089D01*
X9891790Y-13813566D01*
X9939410Y-13813566D01*
X9958457Y-13804042D01*
X10053695Y-13756423D02*
X10053695Y-13956423D01*
X10053695Y-13765947D02*
X10072743Y-13756423D01*
X10110838Y-13756423D01*
X10129886Y-13765947D01*
X10139410Y-13775470D01*
X10148933Y-13794518D01*
X10148933Y-13851661D01*
X10139410Y-13870708D01*
X10129886Y-13880232D01*
X10110838Y-13889756D01*
X10072743Y-13889756D01*
X10053695Y-13880232D01*
X10234648Y-13870708D02*
X10244171Y-13880232D01*
X10234648Y-13889756D01*
X10225124Y-13880232D01*
X10234648Y-13870708D01*
X10234648Y-13889756D01*
X10234648Y-13765947D02*
X10244171Y-13775470D01*
X10234648Y-13784994D01*
X10225124Y-13775470D01*
X10234648Y-13765947D01*
X10234648Y-13784994D01*
D12*
X8565600Y-14199280D02*
X8605600Y-14239280D01*
X8605600Y-14199280D02*
X8565600Y-14239280D01*
D11*
X8901314Y-14109756D02*
X8920362Y-14109756D01*
X8939410Y-14119280D01*
X8948933Y-14128804D01*
X8958457Y-14147851D01*
X8967981Y-14185947D01*
X8967981Y-14233566D01*
X8958457Y-14271661D01*
X8948933Y-14290708D01*
X8939410Y-14300232D01*
X8920362Y-14309756D01*
X8901314Y-14309756D01*
X8882267Y-14300232D01*
X8872743Y-14290708D01*
X8863219Y-14271661D01*
X8853695Y-14233566D01*
X8853695Y-14185947D01*
X8863219Y-14147851D01*
X8872743Y-14128804D01*
X8882267Y-14119280D01*
X8901314Y-14109756D01*
X9053695Y-14290708D02*
X9063219Y-14300232D01*
X9053695Y-14309756D01*
X9044171Y-14300232D01*
X9053695Y-14290708D01*
X9053695Y-14309756D01*
X9234648Y-14176423D02*
X9234648Y-14309756D01*
X9187029Y-14100232D02*
X9139410Y-14243089D01*
X9263219Y-14243089D01*
X9377505Y-14109756D02*
X9396552Y-14109756D01*
X9415600Y-14119280D01*
X9425124Y-14128804D01*
X9434648Y-14147851D01*
X9444171Y-14185947D01*
X9444171Y-14233566D01*
X9434648Y-14271661D01*
X9425124Y-14290708D01*
X9415600Y-14300232D01*
X9396552Y-14309756D01*
X9377505Y-14309756D01*
X9358457Y-14300232D01*
X9348933Y-14290708D01*
X9339410Y-14271661D01*
X9329886Y-14233566D01*
X9329886Y-14185947D01*
X9339410Y-14147851D01*
X9348933Y-14128804D01*
X9358457Y-14119280D01*
X9377505Y-14109756D01*
X9567981Y-14109756D02*
X9587029Y-14109756D01*
X9606076Y-14119280D01*
X9615600Y-14128804D01*
X9625124Y-14147851D01*
X9634648Y-14185947D01*
X9634648Y-14233566D01*
X9625124Y-14271661D01*
X9615600Y-14290708D01*
X9606076Y-14300232D01*
X9587029Y-14309756D01*
X9567981Y-14309756D01*
X9548933Y-14300232D01*
X9539410Y-14290708D01*
X9529886Y-14271661D01*
X9520362Y-14233566D01*
X9520362Y-14185947D01*
X9529886Y-14147851D01*
X9539410Y-14128804D01*
X9548933Y-14119280D01*
X9567981Y-14109756D01*
X9720362Y-14309756D02*
X9720362Y-14176423D01*
X9720362Y-14195470D02*
X9729886Y-14185947D01*
X9748933Y-14176423D01*
X9777505Y-14176423D01*
X9796552Y-14185947D01*
X9806076Y-14204994D01*
X9806076Y-14309756D01*
X9806076Y-14204994D02*
X9815600Y-14185947D01*
X9834648Y-14176423D01*
X9863219Y-14176423D01*
X9882267Y-14185947D01*
X9891790Y-14204994D01*
X9891790Y-14309756D01*
X9987029Y-14309756D02*
X9987029Y-14176423D01*
X9987029Y-14195470D02*
X9996552Y-14185947D01*
X10015600Y-14176423D01*
X10044171Y-14176423D01*
X10063219Y-14185947D01*
X10072743Y-14204994D01*
X10072743Y-14309756D01*
X10072743Y-14204994D02*
X10082267Y-14185947D01*
X10101314Y-14176423D01*
X10129886Y-14176423D01*
X10148933Y-14185947D01*
X10158457Y-14204994D01*
X10158457Y-14309756D01*
X10548933Y-14100232D02*
X10377505Y-14357375D01*
X10806076Y-14109756D02*
X10825124Y-14109756D01*
X10844171Y-14119280D01*
X10853695Y-14128804D01*
X10863219Y-14147851D01*
X10872743Y-14185947D01*
X10872743Y-14233566D01*
X10863219Y-14271661D01*
X10853695Y-14290708D01*
X10844171Y-14300232D01*
X10825124Y-14309756D01*
X10806076Y-14309756D01*
X10787029Y-14300232D01*
X10777505Y-14290708D01*
X10767981Y-14271661D01*
X10758457Y-14233566D01*
X10758457Y-14185947D01*
X10767981Y-14147851D01*
X10777505Y-14128804D01*
X10787029Y-14119280D01*
X10806076Y-14109756D01*
X10958457Y-14290708D02*
X10967981Y-14300232D01*
X10958457Y-14309756D01*
X10948933Y-14300232D01*
X10958457Y-14290708D01*
X10958457Y-14309756D01*
X11091790Y-14109756D02*
X11110838Y-14109756D01*
X11129886Y-14119280D01*
X11139410Y-14128804D01*
X11148933Y-14147851D01*
X11158457Y-14185947D01*
X11158457Y-14233566D01*
X11148933Y-14271661D01*
X11139410Y-14290708D01*
X11129886Y-14300232D01*
X11110838Y-14309756D01*
X11091790Y-14309756D01*
X11072743Y-14300232D01*
X11063219Y-14290708D01*
X11053695Y-14271661D01*
X11044171Y-14233566D01*
X11044171Y-14185947D01*
X11053695Y-14147851D01*
X11063219Y-14128804D01*
X11072743Y-14119280D01*
X11091790Y-14109756D01*
X11348933Y-14309756D02*
X11234648Y-14309756D01*
X11291790Y-14309756D02*
X11291790Y-14109756D01*
X11272743Y-14138328D01*
X11253695Y-14157375D01*
X11234648Y-14166899D01*
X11529886Y-14109756D02*
X11434648Y-14109756D01*
X11425124Y-14204994D01*
X11434648Y-14195470D01*
X11453695Y-14185947D01*
X11501314Y-14185947D01*
X11520362Y-14195470D01*
X11529886Y-14204994D01*
X11539409Y-14224042D01*
X11539409Y-14271661D01*
X11529886Y-14290708D01*
X11520362Y-14300232D01*
X11501314Y-14309756D01*
X11453695Y-14309756D01*
X11434648Y-14300232D01*
X11425124Y-14290708D01*
X11606076Y-14109756D02*
X11739409Y-14109756D01*
X11653695Y-14309756D01*
X11806076Y-14109756D02*
X11806076Y-14147851D01*
X11882267Y-14109756D02*
X11882267Y-14147851D01*
X12177505Y-14385947D02*
X12167981Y-14376423D01*
X12148933Y-14347851D01*
X12139409Y-14328804D01*
X12129886Y-14300232D01*
X12120362Y-14252613D01*
X12120362Y-14214518D01*
X12129886Y-14166899D01*
X12139409Y-14138328D01*
X12148933Y-14119280D01*
X12167981Y-14090708D01*
X12177505Y-14081185D01*
X12244171Y-14128804D02*
X12253695Y-14119280D01*
X12272743Y-14109756D01*
X12320362Y-14109756D01*
X12339409Y-14119280D01*
X12348933Y-14128804D01*
X12358457Y-14147851D01*
X12358457Y-14166899D01*
X12348933Y-14195470D01*
X12234648Y-14309756D01*
X12358457Y-14309756D01*
X12596552Y-14309756D02*
X12596552Y-14109756D01*
X12682267Y-14309756D02*
X12682267Y-14204994D01*
X12672743Y-14185947D01*
X12653695Y-14176423D01*
X12625124Y-14176423D01*
X12606076Y-14185947D01*
X12596552Y-14195470D01*
X12806076Y-14309756D02*
X12787028Y-14300232D01*
X12777505Y-14290708D01*
X12767981Y-14271661D01*
X12767981Y-14214518D01*
X12777505Y-14195470D01*
X12787028Y-14185947D01*
X12806076Y-14176423D01*
X12834648Y-14176423D01*
X12853695Y-14185947D01*
X12863219Y-14195470D01*
X12872743Y-14214518D01*
X12872743Y-14271661D01*
X12863219Y-14290708D01*
X12853695Y-14300232D01*
X12834648Y-14309756D01*
X12806076Y-14309756D01*
X12987028Y-14309756D02*
X12967981Y-14300232D01*
X12958457Y-14281185D01*
X12958457Y-14109756D01*
X13139409Y-14300232D02*
X13120362Y-14309756D01*
X13082267Y-14309756D01*
X13063219Y-14300232D01*
X13053695Y-14281185D01*
X13053695Y-14204994D01*
X13063219Y-14185947D01*
X13082267Y-14176423D01*
X13120362Y-14176423D01*
X13139409Y-14185947D01*
X13148933Y-14204994D01*
X13148933Y-14224042D01*
X13053695Y-14243089D01*
X13225124Y-14300232D02*
X13244171Y-14309756D01*
X13282267Y-14309756D01*
X13301314Y-14300232D01*
X13310838Y-14281185D01*
X13310838Y-14271661D01*
X13301314Y-14252613D01*
X13282267Y-14243089D01*
X13253695Y-14243089D01*
X13234648Y-14233566D01*
X13225124Y-14214518D01*
X13225124Y-14204994D01*
X13234648Y-14185947D01*
X13253695Y-14176423D01*
X13282267Y-14176423D01*
X13301314Y-14185947D01*
X13377505Y-14385947D02*
X13387028Y-14376423D01*
X13406076Y-14347851D01*
X13415600Y-14328804D01*
X13425124Y-14300232D01*
X13434648Y-14252613D01*
X13434648Y-14214518D01*
X13425124Y-14166899D01*
X13415600Y-14138328D01*
X13406076Y-14119280D01*
X13387028Y-14090708D01*
X13377505Y-14081185D01*
D13*
X8605600Y-14483280D02*
G75*
G03*
X8605600Y-14483280I-25000J0D01*
G01*
D11*
X8901314Y-14373756D02*
X8920362Y-14373756D01*
X8939410Y-14383280D01*
X8948933Y-14392804D01*
X8958457Y-14411851D01*
X8967981Y-14449947D01*
X8967981Y-14497566D01*
X8958457Y-14535661D01*
X8948933Y-14554708D01*
X8939410Y-14564232D01*
X8920362Y-14573756D01*
X8901314Y-14573756D01*
X8882267Y-14564232D01*
X8872743Y-14554708D01*
X8863219Y-14535661D01*
X8853695Y-14497566D01*
X8853695Y-14449947D01*
X8863219Y-14411851D01*
X8872743Y-14392804D01*
X8882267Y-14383280D01*
X8901314Y-14373756D01*
X9053695Y-14554708D02*
X9063219Y-14564232D01*
X9053695Y-14573756D01*
X9044171Y-14564232D01*
X9053695Y-14554708D01*
X9053695Y-14573756D01*
X9244171Y-14373756D02*
X9148933Y-14373756D01*
X9139410Y-14468994D01*
X9148933Y-14459470D01*
X9167981Y-14449947D01*
X9215600Y-14449947D01*
X9234648Y-14459470D01*
X9244171Y-14468994D01*
X9253695Y-14488042D01*
X9253695Y-14535661D01*
X9244171Y-14554708D01*
X9234648Y-14564232D01*
X9215600Y-14573756D01*
X9167981Y-14573756D01*
X9148933Y-14564232D01*
X9139410Y-14554708D01*
X9377505Y-14373756D02*
X9396552Y-14373756D01*
X9415600Y-14383280D01*
X9425124Y-14392804D01*
X9434648Y-14411851D01*
X9444171Y-14449947D01*
X9444171Y-14497566D01*
X9434648Y-14535661D01*
X9425124Y-14554708D01*
X9415600Y-14564232D01*
X9396552Y-14573756D01*
X9377505Y-14573756D01*
X9358457Y-14564232D01*
X9348933Y-14554708D01*
X9339410Y-14535661D01*
X9329886Y-14497566D01*
X9329886Y-14449947D01*
X9339410Y-14411851D01*
X9348933Y-14392804D01*
X9358457Y-14383280D01*
X9377505Y-14373756D01*
X9567981Y-14373756D02*
X9587029Y-14373756D01*
X9606076Y-14383280D01*
X9615600Y-14392804D01*
X9625124Y-14411851D01*
X9634648Y-14449947D01*
X9634648Y-14497566D01*
X9625124Y-14535661D01*
X9615600Y-14554708D01*
X9606076Y-14564232D01*
X9587029Y-14573756D01*
X9567981Y-14573756D01*
X9548933Y-14564232D01*
X9539410Y-14554708D01*
X9529886Y-14535661D01*
X9520362Y-14497566D01*
X9520362Y-14449947D01*
X9529886Y-14411851D01*
X9539410Y-14392804D01*
X9548933Y-14383280D01*
X9567981Y-14373756D01*
X9720362Y-14573756D02*
X9720362Y-14440423D01*
X9720362Y-14459470D02*
X9729886Y-14449947D01*
X9748933Y-14440423D01*
X9777505Y-14440423D01*
X9796552Y-14449947D01*
X9806076Y-14468994D01*
X9806076Y-14573756D01*
X9806076Y-14468994D02*
X9815600Y-14449947D01*
X9834648Y-14440423D01*
X9863219Y-14440423D01*
X9882267Y-14449947D01*
X9891790Y-14468994D01*
X9891790Y-14573756D01*
X9987029Y-14573756D02*
X9987029Y-14440423D01*
X9987029Y-14459470D02*
X9996552Y-14449947D01*
X10015600Y-14440423D01*
X10044171Y-14440423D01*
X10063219Y-14449947D01*
X10072743Y-14468994D01*
X10072743Y-14573756D01*
X10072743Y-14468994D02*
X10082267Y-14449947D01*
X10101314Y-14440423D01*
X10129886Y-14440423D01*
X10148933Y-14449947D01*
X10158457Y-14468994D01*
X10158457Y-14573756D01*
X10548933Y-14364232D02*
X10377505Y-14621375D01*
X10806076Y-14373756D02*
X10825124Y-14373756D01*
X10844171Y-14383280D01*
X10853695Y-14392804D01*
X10863219Y-14411851D01*
X10872743Y-14449947D01*
X10872743Y-14497566D01*
X10863219Y-14535661D01*
X10853695Y-14554708D01*
X10844171Y-14564232D01*
X10825124Y-14573756D01*
X10806076Y-14573756D01*
X10787029Y-14564232D01*
X10777505Y-14554708D01*
X10767981Y-14535661D01*
X10758457Y-14497566D01*
X10758457Y-14449947D01*
X10767981Y-14411851D01*
X10777505Y-14392804D01*
X10787029Y-14383280D01*
X10806076Y-14373756D01*
X10958457Y-14554708D02*
X10967981Y-14564232D01*
X10958457Y-14573756D01*
X10948933Y-14564232D01*
X10958457Y-14554708D01*
X10958457Y-14573756D01*
X11091790Y-14373756D02*
X11110838Y-14373756D01*
X11129886Y-14383280D01*
X11139410Y-14392804D01*
X11148933Y-14411851D01*
X11158457Y-14449947D01*
X11158457Y-14497566D01*
X11148933Y-14535661D01*
X11139410Y-14554708D01*
X11129886Y-14564232D01*
X11110838Y-14573756D01*
X11091790Y-14573756D01*
X11072743Y-14564232D01*
X11063219Y-14554708D01*
X11053695Y-14535661D01*
X11044171Y-14497566D01*
X11044171Y-14449947D01*
X11053695Y-14411851D01*
X11063219Y-14392804D01*
X11072743Y-14383280D01*
X11091790Y-14373756D01*
X11348933Y-14573756D02*
X11234648Y-14573756D01*
X11291790Y-14573756D02*
X11291790Y-14373756D01*
X11272743Y-14402328D01*
X11253695Y-14421375D01*
X11234648Y-14430899D01*
X11444171Y-14573756D02*
X11482267Y-14573756D01*
X11501314Y-14564232D01*
X11510838Y-14554708D01*
X11529886Y-14526137D01*
X11539409Y-14488042D01*
X11539409Y-14411851D01*
X11529886Y-14392804D01*
X11520362Y-14383280D01*
X11501314Y-14373756D01*
X11463219Y-14373756D01*
X11444171Y-14383280D01*
X11434648Y-14392804D01*
X11425124Y-14411851D01*
X11425124Y-14459470D01*
X11434648Y-14478518D01*
X11444171Y-14488042D01*
X11463219Y-14497566D01*
X11501314Y-14497566D01*
X11520362Y-14488042D01*
X11529886Y-14478518D01*
X11539409Y-14459470D01*
X11606076Y-14373756D02*
X11739409Y-14373756D01*
X11653695Y-14573756D01*
X11806076Y-14373756D02*
X11806076Y-14411851D01*
X11882267Y-14373756D02*
X11882267Y-14411851D01*
X12177505Y-14649947D02*
X12167981Y-14640423D01*
X12148933Y-14611851D01*
X12139409Y-14592804D01*
X12129886Y-14564232D01*
X12120362Y-14516613D01*
X12120362Y-14478518D01*
X12129886Y-14430899D01*
X12139409Y-14402328D01*
X12148933Y-14383280D01*
X12167981Y-14354708D01*
X12177505Y-14345185D01*
X12339409Y-14440423D02*
X12339409Y-14573756D01*
X12291790Y-14364232D02*
X12244171Y-14507089D01*
X12367981Y-14507089D01*
X12548933Y-14573756D02*
X12434648Y-14573756D01*
X12491790Y-14573756D02*
X12491790Y-14373756D01*
X12472743Y-14402328D01*
X12453695Y-14421375D01*
X12434648Y-14430899D01*
X12787028Y-14573756D02*
X12787028Y-14373756D01*
X12872743Y-14573756D02*
X12872743Y-14468994D01*
X12863219Y-14449947D01*
X12844171Y-14440423D01*
X12815600Y-14440423D01*
X12796552Y-14449947D01*
X12787028Y-14459470D01*
X12996552Y-14573756D02*
X12977505Y-14564232D01*
X12967981Y-14554708D01*
X12958457Y-14535661D01*
X12958457Y-14478518D01*
X12967981Y-14459470D01*
X12977505Y-14449947D01*
X12996552Y-14440423D01*
X13025124Y-14440423D01*
X13044171Y-14449947D01*
X13053695Y-14459470D01*
X13063219Y-14478518D01*
X13063219Y-14535661D01*
X13053695Y-14554708D01*
X13044171Y-14564232D01*
X13025124Y-14573756D01*
X12996552Y-14573756D01*
X13177505Y-14573756D02*
X13158457Y-14564232D01*
X13148933Y-14545185D01*
X13148933Y-14373756D01*
X13329886Y-14564232D02*
X13310838Y-14573756D01*
X13272743Y-14573756D01*
X13253695Y-14564232D01*
X13244171Y-14545185D01*
X13244171Y-14468994D01*
X13253695Y-14449947D01*
X13272743Y-14440423D01*
X13310838Y-14440423D01*
X13329886Y-14449947D01*
X13339409Y-14468994D01*
X13339409Y-14488042D01*
X13244171Y-14507089D01*
X13415600Y-14564232D02*
X13434648Y-14573756D01*
X13472743Y-14573756D01*
X13491790Y-14564232D01*
X13501314Y-14545185D01*
X13501314Y-14535661D01*
X13491790Y-14516613D01*
X13472743Y-14507089D01*
X13444171Y-14507089D01*
X13425124Y-14497566D01*
X13415600Y-14478518D01*
X13415600Y-14468994D01*
X13425124Y-14449947D01*
X13444171Y-14440423D01*
X13472743Y-14440423D01*
X13491790Y-14449947D01*
X13567981Y-14649947D02*
X13577505Y-14640423D01*
X13596552Y-14611851D01*
X13606076Y-14592804D01*
X13615600Y-14564232D01*
X13625124Y-14516613D01*
X13625124Y-14478518D01*
X13615600Y-14430899D01*
X13606076Y-14402328D01*
X13596552Y-14383280D01*
X13577505Y-14354708D01*
X13567981Y-14345185D01*
D14*
X8565600Y-14707280D02*
X8565600Y-14787280D01*
X8525600Y-14747280D02*
X8605600Y-14747280D01*
D11*
X8901314Y-14637756D02*
X8920362Y-14637756D01*
X8939410Y-14647280D01*
X8948933Y-14656804D01*
X8958457Y-14675851D01*
X8967981Y-14713947D01*
X8967981Y-14761566D01*
X8958457Y-14799661D01*
X8948933Y-14818708D01*
X8939410Y-14828232D01*
X8920362Y-14837756D01*
X8901314Y-14837756D01*
X8882267Y-14828232D01*
X8872743Y-14818708D01*
X8863219Y-14799661D01*
X8853695Y-14761566D01*
X8853695Y-14713947D01*
X8863219Y-14675851D01*
X8872743Y-14656804D01*
X8882267Y-14647280D01*
X8901314Y-14637756D01*
X9053695Y-14818708D02*
X9063219Y-14828232D01*
X9053695Y-14837756D01*
X9044171Y-14828232D01*
X9053695Y-14818708D01*
X9053695Y-14837756D01*
X9177505Y-14723470D02*
X9158457Y-14713947D01*
X9148933Y-14704423D01*
X9139410Y-14685375D01*
X9139410Y-14675851D01*
X9148933Y-14656804D01*
X9158457Y-14647280D01*
X9177505Y-14637756D01*
X9215600Y-14637756D01*
X9234648Y-14647280D01*
X9244171Y-14656804D01*
X9253695Y-14675851D01*
X9253695Y-14685375D01*
X9244171Y-14704423D01*
X9234648Y-14713947D01*
X9215600Y-14723470D01*
X9177505Y-14723470D01*
X9158457Y-14732994D01*
X9148933Y-14742518D01*
X9139410Y-14761566D01*
X9139410Y-14799661D01*
X9148933Y-14818708D01*
X9158457Y-14828232D01*
X9177505Y-14837756D01*
X9215600Y-14837756D01*
X9234648Y-14828232D01*
X9244171Y-14818708D01*
X9253695Y-14799661D01*
X9253695Y-14761566D01*
X9244171Y-14742518D01*
X9234648Y-14732994D01*
X9215600Y-14723470D01*
X9377505Y-14637756D02*
X9396552Y-14637756D01*
X9415600Y-14647280D01*
X9425124Y-14656804D01*
X9434648Y-14675851D01*
X9444171Y-14713947D01*
X9444171Y-14761566D01*
X9434648Y-14799661D01*
X9425124Y-14818708D01*
X9415600Y-14828232D01*
X9396552Y-14837756D01*
X9377505Y-14837756D01*
X9358457Y-14828232D01*
X9348933Y-14818708D01*
X9339410Y-14799661D01*
X9329886Y-14761566D01*
X9329886Y-14713947D01*
X9339410Y-14675851D01*
X9348933Y-14656804D01*
X9358457Y-14647280D01*
X9377505Y-14637756D01*
X9567981Y-14637756D02*
X9587029Y-14637756D01*
X9606076Y-14647280D01*
X9615600Y-14656804D01*
X9625124Y-14675851D01*
X9634648Y-14713947D01*
X9634648Y-14761566D01*
X9625124Y-14799661D01*
X9615600Y-14818708D01*
X9606076Y-14828232D01*
X9587029Y-14837756D01*
X9567981Y-14837756D01*
X9548933Y-14828232D01*
X9539410Y-14818708D01*
X9529886Y-14799661D01*
X9520362Y-14761566D01*
X9520362Y-14713947D01*
X9529886Y-14675851D01*
X9539410Y-14656804D01*
X9548933Y-14647280D01*
X9567981Y-14637756D01*
X9720362Y-14837756D02*
X9720362Y-14704423D01*
X9720362Y-14723470D02*
X9729886Y-14713947D01*
X9748933Y-14704423D01*
X9777505Y-14704423D01*
X9796552Y-14713947D01*
X9806076Y-14732994D01*
X9806076Y-14837756D01*
X9806076Y-14732994D02*
X9815600Y-14713947D01*
X9834648Y-14704423D01*
X9863219Y-14704423D01*
X9882267Y-14713947D01*
X9891790Y-14732994D01*
X9891790Y-14837756D01*
X9987029Y-14837756D02*
X9987029Y-14704423D01*
X9987029Y-14723470D02*
X9996552Y-14713947D01*
X10015600Y-14704423D01*
X10044171Y-14704423D01*
X10063219Y-14713947D01*
X10072743Y-14732994D01*
X10072743Y-14837756D01*
X10072743Y-14732994D02*
X10082267Y-14713947D01*
X10101314Y-14704423D01*
X10129886Y-14704423D01*
X10148933Y-14713947D01*
X10158457Y-14732994D01*
X10158457Y-14837756D01*
X10548933Y-14628232D02*
X10377505Y-14885375D01*
X10806076Y-14637756D02*
X10825124Y-14637756D01*
X10844171Y-14647280D01*
X10853695Y-14656804D01*
X10863219Y-14675851D01*
X10872743Y-14713947D01*
X10872743Y-14761566D01*
X10863219Y-14799661D01*
X10853695Y-14818708D01*
X10844171Y-14828232D01*
X10825124Y-14837756D01*
X10806076Y-14837756D01*
X10787029Y-14828232D01*
X10777505Y-14818708D01*
X10767981Y-14799661D01*
X10758457Y-14761566D01*
X10758457Y-14713947D01*
X10767981Y-14675851D01*
X10777505Y-14656804D01*
X10787029Y-14647280D01*
X10806076Y-14637756D01*
X10958457Y-14818708D02*
X10967981Y-14828232D01*
X10958457Y-14837756D01*
X10948933Y-14828232D01*
X10958457Y-14818708D01*
X10958457Y-14837756D01*
X11091790Y-14637756D02*
X11110838Y-14637756D01*
X11129886Y-14647280D01*
X11139410Y-14656804D01*
X11148933Y-14675851D01*
X11158457Y-14713947D01*
X11158457Y-14761566D01*
X11148933Y-14799661D01*
X11139410Y-14818708D01*
X11129886Y-14828232D01*
X11110838Y-14837756D01*
X11091790Y-14837756D01*
X11072743Y-14828232D01*
X11063219Y-14818708D01*
X11053695Y-14799661D01*
X11044171Y-14761566D01*
X11044171Y-14713947D01*
X11053695Y-14675851D01*
X11063219Y-14656804D01*
X11072743Y-14647280D01*
X11091790Y-14637756D01*
X11225124Y-14637756D02*
X11348933Y-14637756D01*
X11282267Y-14713947D01*
X11310838Y-14713947D01*
X11329886Y-14723470D01*
X11339409Y-14732994D01*
X11348933Y-14752042D01*
X11348933Y-14799661D01*
X11339409Y-14818708D01*
X11329886Y-14828232D01*
X11310838Y-14837756D01*
X11253695Y-14837756D01*
X11234648Y-14828232D01*
X11225124Y-14818708D01*
X11539409Y-14837756D02*
X11425124Y-14837756D01*
X11482267Y-14837756D02*
X11482267Y-14637756D01*
X11463219Y-14666328D01*
X11444171Y-14685375D01*
X11425124Y-14694899D01*
X11720362Y-14637756D02*
X11625124Y-14637756D01*
X11615600Y-14732994D01*
X11625124Y-14723470D01*
X11644171Y-14713947D01*
X11691790Y-14713947D01*
X11710838Y-14723470D01*
X11720362Y-14732994D01*
X11729886Y-14752042D01*
X11729886Y-14799661D01*
X11720362Y-14818708D01*
X11710838Y-14828232D01*
X11691790Y-14837756D01*
X11644171Y-14837756D01*
X11625124Y-14828232D01*
X11615600Y-14818708D01*
X11806076Y-14637756D02*
X11806076Y-14675851D01*
X11882267Y-14637756D02*
X11882267Y-14675851D01*
X12177505Y-14913947D02*
X12167981Y-14904423D01*
X12148933Y-14875851D01*
X12139409Y-14856804D01*
X12129886Y-14828232D01*
X12120362Y-14780613D01*
X12120362Y-14742518D01*
X12129886Y-14694899D01*
X12139409Y-14666328D01*
X12148933Y-14647280D01*
X12167981Y-14618708D01*
X12177505Y-14609185D01*
X12358457Y-14837756D02*
X12244171Y-14837756D01*
X12301314Y-14837756D02*
X12301314Y-14637756D01*
X12282267Y-14666328D01*
X12263219Y-14685375D01*
X12244171Y-14694899D01*
X12425124Y-14637756D02*
X12548933Y-14637756D01*
X12482267Y-14713947D01*
X12510838Y-14713947D01*
X12529886Y-14723470D01*
X12539409Y-14732994D01*
X12548933Y-14752042D01*
X12548933Y-14799661D01*
X12539409Y-14818708D01*
X12529886Y-14828232D01*
X12510838Y-14837756D01*
X12453695Y-14837756D01*
X12434648Y-14828232D01*
X12425124Y-14818708D01*
X12787028Y-14837756D02*
X12787028Y-14637756D01*
X12872743Y-14837756D02*
X12872743Y-14732994D01*
X12863219Y-14713947D01*
X12844171Y-14704423D01*
X12815600Y-14704423D01*
X12796552Y-14713947D01*
X12787028Y-14723470D01*
X12996552Y-14837756D02*
X12977505Y-14828232D01*
X12967981Y-14818708D01*
X12958457Y-14799661D01*
X12958457Y-14742518D01*
X12967981Y-14723470D01*
X12977505Y-14713947D01*
X12996552Y-14704423D01*
X13025124Y-14704423D01*
X13044171Y-14713947D01*
X13053695Y-14723470D01*
X13063219Y-14742518D01*
X13063219Y-14799661D01*
X13053695Y-14818708D01*
X13044171Y-14828232D01*
X13025124Y-14837756D01*
X12996552Y-14837756D01*
X13177505Y-14837756D02*
X13158457Y-14828232D01*
X13148933Y-14809185D01*
X13148933Y-14637756D01*
X13329886Y-14828232D02*
X13310838Y-14837756D01*
X13272743Y-14837756D01*
X13253695Y-14828232D01*
X13244171Y-14809185D01*
X13244171Y-14732994D01*
X13253695Y-14713947D01*
X13272743Y-14704423D01*
X13310838Y-14704423D01*
X13329886Y-14713947D01*
X13339409Y-14732994D01*
X13339409Y-14752042D01*
X13244171Y-14771089D01*
X13415600Y-14828232D02*
X13434648Y-14837756D01*
X13472743Y-14837756D01*
X13491790Y-14828232D01*
X13501314Y-14809185D01*
X13501314Y-14799661D01*
X13491790Y-14780613D01*
X13472743Y-14771089D01*
X13444171Y-14771089D01*
X13425124Y-14761566D01*
X13415600Y-14742518D01*
X13415600Y-14732994D01*
X13425124Y-14713947D01*
X13444171Y-14704423D01*
X13472743Y-14704423D01*
X13491790Y-14713947D01*
X13567981Y-14913947D02*
X13577505Y-14904423D01*
X13596552Y-14875851D01*
X13606076Y-14856804D01*
X13615600Y-14828232D01*
X13625124Y-14780613D01*
X13625124Y-14742518D01*
X13615600Y-14694899D01*
X13606076Y-14666328D01*
X13596552Y-14647280D01*
X13577505Y-14618708D01*
X13567981Y-14609185D01*
D15*
X8592420Y-15043100D02*
X8592420Y-14979460D01*
X8528780Y-14979460D01*
X8528780Y-15043100D01*
X8592420Y-15043100D01*
D11*
X8901314Y-14901756D02*
X8920362Y-14901756D01*
X8939410Y-14911280D01*
X8948933Y-14920804D01*
X8958457Y-14939851D01*
X8967981Y-14977947D01*
X8967981Y-15025566D01*
X8958457Y-15063661D01*
X8948933Y-15082708D01*
X8939410Y-15092232D01*
X8920362Y-15101756D01*
X8901314Y-15101756D01*
X8882267Y-15092232D01*
X8872743Y-15082708D01*
X8863219Y-15063661D01*
X8853695Y-15025566D01*
X8853695Y-14977947D01*
X8863219Y-14939851D01*
X8872743Y-14920804D01*
X8882267Y-14911280D01*
X8901314Y-14901756D01*
X9053695Y-15082708D02*
X9063219Y-15092232D01*
X9053695Y-15101756D01*
X9044171Y-15092232D01*
X9053695Y-15082708D01*
X9053695Y-15101756D01*
X9158457Y-15101756D02*
X9196552Y-15101756D01*
X9215600Y-15092232D01*
X9225124Y-15082708D01*
X9244171Y-15054137D01*
X9253695Y-15016042D01*
X9253695Y-14939851D01*
X9244171Y-14920804D01*
X9234648Y-14911280D01*
X9215600Y-14901756D01*
X9177505Y-14901756D01*
X9158457Y-14911280D01*
X9148933Y-14920804D01*
X9139410Y-14939851D01*
X9139410Y-14987470D01*
X9148933Y-15006518D01*
X9158457Y-15016042D01*
X9177505Y-15025566D01*
X9215600Y-15025566D01*
X9234648Y-15016042D01*
X9244171Y-15006518D01*
X9253695Y-14987470D01*
X9377505Y-14901756D02*
X9396552Y-14901756D01*
X9415600Y-14911280D01*
X9425124Y-14920804D01*
X9434648Y-14939851D01*
X9444171Y-14977947D01*
X9444171Y-15025566D01*
X9434648Y-15063661D01*
X9425124Y-15082708D01*
X9415600Y-15092232D01*
X9396552Y-15101756D01*
X9377505Y-15101756D01*
X9358457Y-15092232D01*
X9348933Y-15082708D01*
X9339410Y-15063661D01*
X9329886Y-15025566D01*
X9329886Y-14977947D01*
X9339410Y-14939851D01*
X9348933Y-14920804D01*
X9358457Y-14911280D01*
X9377505Y-14901756D01*
X9567981Y-14901756D02*
X9587029Y-14901756D01*
X9606076Y-14911280D01*
X9615600Y-14920804D01*
X9625124Y-14939851D01*
X9634648Y-14977947D01*
X9634648Y-15025566D01*
X9625124Y-15063661D01*
X9615600Y-15082708D01*
X9606076Y-15092232D01*
X9587029Y-15101756D01*
X9567981Y-15101756D01*
X9548933Y-15092232D01*
X9539410Y-15082708D01*
X9529886Y-15063661D01*
X9520362Y-15025566D01*
X9520362Y-14977947D01*
X9529886Y-14939851D01*
X9539410Y-14920804D01*
X9548933Y-14911280D01*
X9567981Y-14901756D01*
X9720362Y-15101756D02*
X9720362Y-14968423D01*
X9720362Y-14987470D02*
X9729886Y-14977947D01*
X9748933Y-14968423D01*
X9777505Y-14968423D01*
X9796552Y-14977947D01*
X9806076Y-14996994D01*
X9806076Y-15101756D01*
X9806076Y-14996994D02*
X9815600Y-14977947D01*
X9834648Y-14968423D01*
X9863219Y-14968423D01*
X9882267Y-14977947D01*
X9891790Y-14996994D01*
X9891790Y-15101756D01*
X9987029Y-15101756D02*
X9987029Y-14968423D01*
X9987029Y-14987470D02*
X9996552Y-14977947D01*
X10015600Y-14968423D01*
X10044171Y-14968423D01*
X10063219Y-14977947D01*
X10072743Y-14996994D01*
X10072743Y-15101756D01*
X10072743Y-14996994D02*
X10082267Y-14977947D01*
X10101314Y-14968423D01*
X10129886Y-14968423D01*
X10148933Y-14977947D01*
X10158457Y-14996994D01*
X10158457Y-15101756D01*
X10548933Y-14892232D02*
X10377505Y-15149375D01*
X10806076Y-14901756D02*
X10825124Y-14901756D01*
X10844171Y-14911280D01*
X10853695Y-14920804D01*
X10863219Y-14939851D01*
X10872743Y-14977947D01*
X10872743Y-15025566D01*
X10863219Y-15063661D01*
X10853695Y-15082708D01*
X10844171Y-15092232D01*
X10825124Y-15101756D01*
X10806076Y-15101756D01*
X10787029Y-15092232D01*
X10777505Y-15082708D01*
X10767981Y-15063661D01*
X10758457Y-15025566D01*
X10758457Y-14977947D01*
X10767981Y-14939851D01*
X10777505Y-14920804D01*
X10787029Y-14911280D01*
X10806076Y-14901756D01*
X10958457Y-15082708D02*
X10967981Y-15092232D01*
X10958457Y-15101756D01*
X10948933Y-15092232D01*
X10958457Y-15082708D01*
X10958457Y-15101756D01*
X11091790Y-14901756D02*
X11110838Y-14901756D01*
X11129886Y-14911280D01*
X11139410Y-14920804D01*
X11148933Y-14939851D01*
X11158457Y-14977947D01*
X11158457Y-15025566D01*
X11148933Y-15063661D01*
X11139410Y-15082708D01*
X11129886Y-15092232D01*
X11110838Y-15101756D01*
X11091790Y-15101756D01*
X11072743Y-15092232D01*
X11063219Y-15082708D01*
X11053695Y-15063661D01*
X11044171Y-15025566D01*
X11044171Y-14977947D01*
X11053695Y-14939851D01*
X11063219Y-14920804D01*
X11072743Y-14911280D01*
X11091790Y-14901756D01*
X11225124Y-14901756D02*
X11348933Y-14901756D01*
X11282267Y-14977947D01*
X11310838Y-14977947D01*
X11329886Y-14987470D01*
X11339409Y-14996994D01*
X11348933Y-15016042D01*
X11348933Y-15063661D01*
X11339409Y-15082708D01*
X11329886Y-15092232D01*
X11310838Y-15101756D01*
X11253695Y-15101756D01*
X11234648Y-15092232D01*
X11225124Y-15082708D01*
X11529886Y-14901756D02*
X11434648Y-14901756D01*
X11425124Y-14996994D01*
X11434648Y-14987470D01*
X11453695Y-14977947D01*
X11501314Y-14977947D01*
X11520362Y-14987470D01*
X11529886Y-14996994D01*
X11539409Y-15016042D01*
X11539409Y-15063661D01*
X11529886Y-15082708D01*
X11520362Y-15092232D01*
X11501314Y-15101756D01*
X11453695Y-15101756D01*
X11434648Y-15092232D01*
X11425124Y-15082708D01*
X11710838Y-14968423D02*
X11710838Y-15101756D01*
X11663219Y-14892232D02*
X11615600Y-15035089D01*
X11739409Y-15035089D01*
X11806076Y-14901756D02*
X11806076Y-14939851D01*
X11882267Y-14901756D02*
X11882267Y-14939851D01*
X12177505Y-15177947D02*
X12167981Y-15168423D01*
X12148933Y-15139851D01*
X12139409Y-15120804D01*
X12129886Y-15092232D01*
X12120362Y-15044613D01*
X12120362Y-15006518D01*
X12129886Y-14958899D01*
X12139409Y-14930328D01*
X12148933Y-14911280D01*
X12167981Y-14882708D01*
X12177505Y-14873185D01*
X12244171Y-14920804D02*
X12253695Y-14911280D01*
X12272743Y-14901756D01*
X12320362Y-14901756D01*
X12339409Y-14911280D01*
X12348933Y-14920804D01*
X12358457Y-14939851D01*
X12358457Y-14958899D01*
X12348933Y-14987470D01*
X12234648Y-15101756D01*
X12358457Y-15101756D01*
X12596552Y-15101756D02*
X12596552Y-14901756D01*
X12682267Y-15101756D02*
X12682267Y-14996994D01*
X12672743Y-14977947D01*
X12653695Y-14968423D01*
X12625124Y-14968423D01*
X12606076Y-14977947D01*
X12596552Y-14987470D01*
X12806076Y-15101756D02*
X12787028Y-15092232D01*
X12777505Y-15082708D01*
X12767981Y-15063661D01*
X12767981Y-15006518D01*
X12777505Y-14987470D01*
X12787028Y-14977947D01*
X12806076Y-14968423D01*
X12834648Y-14968423D01*
X12853695Y-14977947D01*
X12863219Y-14987470D01*
X12872743Y-15006518D01*
X12872743Y-15063661D01*
X12863219Y-15082708D01*
X12853695Y-15092232D01*
X12834648Y-15101756D01*
X12806076Y-15101756D01*
X12987028Y-15101756D02*
X12967981Y-15092232D01*
X12958457Y-15073185D01*
X12958457Y-14901756D01*
X13139409Y-15092232D02*
X13120362Y-15101756D01*
X13082267Y-15101756D01*
X13063219Y-15092232D01*
X13053695Y-15073185D01*
X13053695Y-14996994D01*
X13063219Y-14977947D01*
X13082267Y-14968423D01*
X13120362Y-14968423D01*
X13139409Y-14977947D01*
X13148933Y-14996994D01*
X13148933Y-15016042D01*
X13053695Y-15035089D01*
X13225124Y-15092232D02*
X13244171Y-15101756D01*
X13282267Y-15101756D01*
X13301314Y-15092232D01*
X13310838Y-15073185D01*
X13310838Y-15063661D01*
X13301314Y-15044613D01*
X13282267Y-15035089D01*
X13253695Y-15035089D01*
X13234648Y-15025566D01*
X13225124Y-15006518D01*
X13225124Y-14996994D01*
X13234648Y-14977947D01*
X13253695Y-14968423D01*
X13282267Y-14968423D01*
X13301314Y-14977947D01*
X13377505Y-15177947D02*
X13387028Y-15168423D01*
X13406076Y-15139851D01*
X13415600Y-15120804D01*
X13425124Y-15092232D01*
X13434648Y-15044613D01*
X13434648Y-15006518D01*
X13425124Y-14958899D01*
X13415600Y-14930328D01*
X13406076Y-14911280D01*
X13387028Y-14882708D01*
X13377505Y-14873185D01*
D16*
X8555600Y-15325280D02*
X8605600Y-15275280D01*
X8555600Y-15225280D01*
X8505600Y-15275280D01*
X8555600Y-15325280D01*
D11*
X8967981Y-15365756D02*
X8853695Y-15365756D01*
X8910838Y-15365756D02*
X8910838Y-15165756D01*
X8891790Y-15194328D01*
X8872743Y-15213375D01*
X8853695Y-15222899D01*
X9053695Y-15346708D02*
X9063219Y-15356232D01*
X9053695Y-15365756D01*
X9044171Y-15356232D01*
X9053695Y-15346708D01*
X9053695Y-15365756D01*
X9187029Y-15165756D02*
X9206076Y-15165756D01*
X9225124Y-15175280D01*
X9234648Y-15184804D01*
X9244171Y-15203851D01*
X9253695Y-15241947D01*
X9253695Y-15289566D01*
X9244171Y-15327661D01*
X9234648Y-15346708D01*
X9225124Y-15356232D01*
X9206076Y-15365756D01*
X9187029Y-15365756D01*
X9167981Y-15356232D01*
X9158457Y-15346708D01*
X9148933Y-15327661D01*
X9139410Y-15289566D01*
X9139410Y-15241947D01*
X9148933Y-15203851D01*
X9158457Y-15184804D01*
X9167981Y-15175280D01*
X9187029Y-15165756D01*
X9377505Y-15165756D02*
X9396552Y-15165756D01*
X9415600Y-15175280D01*
X9425124Y-15184804D01*
X9434648Y-15203851D01*
X9444171Y-15241947D01*
X9444171Y-15289566D01*
X9434648Y-15327661D01*
X9425124Y-15346708D01*
X9415600Y-15356232D01*
X9396552Y-15365756D01*
X9377505Y-15365756D01*
X9358457Y-15356232D01*
X9348933Y-15346708D01*
X9339410Y-15327661D01*
X9329886Y-15289566D01*
X9329886Y-15241947D01*
X9339410Y-15203851D01*
X9348933Y-15184804D01*
X9358457Y-15175280D01*
X9377505Y-15165756D01*
X9567981Y-15165756D02*
X9587029Y-15165756D01*
X9606076Y-15175280D01*
X9615600Y-15184804D01*
X9625124Y-15203851D01*
X9634648Y-15241947D01*
X9634648Y-15289566D01*
X9625124Y-15327661D01*
X9615600Y-15346708D01*
X9606076Y-15356232D01*
X9587029Y-15365756D01*
X9567981Y-15365756D01*
X9548933Y-15356232D01*
X9539410Y-15346708D01*
X9529886Y-15327661D01*
X9520362Y-15289566D01*
X9520362Y-15241947D01*
X9529886Y-15203851D01*
X9539410Y-15184804D01*
X9548933Y-15175280D01*
X9567981Y-15165756D01*
X9720362Y-15365756D02*
X9720362Y-15232423D01*
X9720362Y-15251470D02*
X9729886Y-15241947D01*
X9748933Y-15232423D01*
X9777505Y-15232423D01*
X9796552Y-15241947D01*
X9806076Y-15260994D01*
X9806076Y-15365756D01*
X9806076Y-15260994D02*
X9815600Y-15241947D01*
X9834648Y-15232423D01*
X9863219Y-15232423D01*
X9882267Y-15241947D01*
X9891790Y-15260994D01*
X9891790Y-15365756D01*
X9987029Y-15365756D02*
X9987029Y-15232423D01*
X9987029Y-15251470D02*
X9996552Y-15241947D01*
X10015600Y-15232423D01*
X10044171Y-15232423D01*
X10063219Y-15241947D01*
X10072743Y-15260994D01*
X10072743Y-15365756D01*
X10072743Y-15260994D02*
X10082267Y-15241947D01*
X10101314Y-15232423D01*
X10129886Y-15232423D01*
X10148933Y-15241947D01*
X10158457Y-15260994D01*
X10158457Y-15365756D01*
X10548933Y-15156232D02*
X10377505Y-15413375D01*
X10806076Y-15165756D02*
X10825124Y-15165756D01*
X10844171Y-15175280D01*
X10853695Y-15184804D01*
X10863219Y-15203851D01*
X10872743Y-15241947D01*
X10872743Y-15289566D01*
X10863219Y-15327661D01*
X10853695Y-15346708D01*
X10844171Y-15356232D01*
X10825124Y-15365756D01*
X10806076Y-15365756D01*
X10787029Y-15356232D01*
X10777505Y-15346708D01*
X10767981Y-15327661D01*
X10758457Y-15289566D01*
X10758457Y-15241947D01*
X10767981Y-15203851D01*
X10777505Y-15184804D01*
X10787029Y-15175280D01*
X10806076Y-15165756D01*
X10958457Y-15346708D02*
X10967981Y-15356232D01*
X10958457Y-15365756D01*
X10948933Y-15356232D01*
X10958457Y-15346708D01*
X10958457Y-15365756D01*
X11091790Y-15165756D02*
X11110838Y-15165756D01*
X11129886Y-15175280D01*
X11139410Y-15184804D01*
X11148933Y-15203851D01*
X11158457Y-15241947D01*
X11158457Y-15289566D01*
X11148933Y-15327661D01*
X11139410Y-15346708D01*
X11129886Y-15356232D01*
X11110838Y-15365756D01*
X11091790Y-15365756D01*
X11072743Y-15356232D01*
X11063219Y-15346708D01*
X11053695Y-15327661D01*
X11044171Y-15289566D01*
X11044171Y-15241947D01*
X11053695Y-15203851D01*
X11063219Y-15184804D01*
X11072743Y-15175280D01*
X11091790Y-15165756D01*
X11225124Y-15165756D02*
X11348933Y-15165756D01*
X11282267Y-15241947D01*
X11310838Y-15241947D01*
X11329886Y-15251470D01*
X11339409Y-15260994D01*
X11348933Y-15280042D01*
X11348933Y-15327661D01*
X11339409Y-15346708D01*
X11329886Y-15356232D01*
X11310838Y-15365756D01*
X11253695Y-15365756D01*
X11234648Y-15356232D01*
X11225124Y-15346708D01*
X11444171Y-15365756D02*
X11482267Y-15365756D01*
X11501314Y-15356232D01*
X11510838Y-15346708D01*
X11529886Y-15318137D01*
X11539409Y-15280042D01*
X11539409Y-15203851D01*
X11529886Y-15184804D01*
X11520362Y-15175280D01*
X11501314Y-15165756D01*
X11463219Y-15165756D01*
X11444171Y-15175280D01*
X11434648Y-15184804D01*
X11425124Y-15203851D01*
X11425124Y-15251470D01*
X11434648Y-15270518D01*
X11444171Y-15280042D01*
X11463219Y-15289566D01*
X11501314Y-15289566D01*
X11520362Y-15280042D01*
X11529886Y-15270518D01*
X11539409Y-15251470D01*
X11710838Y-15232423D02*
X11710838Y-15365756D01*
X11663219Y-15156232D02*
X11615600Y-15299089D01*
X11739409Y-15299089D01*
X11806076Y-15165756D02*
X11806076Y-15203851D01*
X11882267Y-15165756D02*
X11882267Y-15203851D01*
X12177505Y-15441947D02*
X12167981Y-15432423D01*
X12148933Y-15403851D01*
X12139409Y-15384804D01*
X12129886Y-15356232D01*
X12120362Y-15308613D01*
X12120362Y-15270518D01*
X12129886Y-15222899D01*
X12139409Y-15194328D01*
X12148933Y-15175280D01*
X12167981Y-15146708D01*
X12177505Y-15137185D01*
X12244171Y-15184804D02*
X12253695Y-15175280D01*
X12272743Y-15165756D01*
X12320362Y-15165756D01*
X12339409Y-15175280D01*
X12348933Y-15184804D01*
X12358457Y-15203851D01*
X12358457Y-15222899D01*
X12348933Y-15251470D01*
X12234648Y-15365756D01*
X12358457Y-15365756D01*
X12425124Y-15165756D02*
X12548933Y-15165756D01*
X12482267Y-15241947D01*
X12510838Y-15241947D01*
X12529886Y-15251470D01*
X12539409Y-15260994D01*
X12548933Y-15280042D01*
X12548933Y-15327661D01*
X12539409Y-15346708D01*
X12529886Y-15356232D01*
X12510838Y-15365756D01*
X12453695Y-15365756D01*
X12434648Y-15356232D01*
X12425124Y-15346708D01*
X12787028Y-15365756D02*
X12787028Y-15165756D01*
X12872743Y-15365756D02*
X12872743Y-15260994D01*
X12863219Y-15241947D01*
X12844171Y-15232423D01*
X12815600Y-15232423D01*
X12796552Y-15241947D01*
X12787028Y-15251470D01*
X12996552Y-15365756D02*
X12977505Y-15356232D01*
X12967981Y-15346708D01*
X12958457Y-15327661D01*
X12958457Y-15270518D01*
X12967981Y-15251470D01*
X12977505Y-15241947D01*
X12996552Y-15232423D01*
X13025124Y-15232423D01*
X13044171Y-15241947D01*
X13053695Y-15251470D01*
X13063219Y-15270518D01*
X13063219Y-15327661D01*
X13053695Y-15346708D01*
X13044171Y-15356232D01*
X13025124Y-15365756D01*
X12996552Y-15365756D01*
X13177505Y-15365756D02*
X13158457Y-15356232D01*
X13148933Y-15337185D01*
X13148933Y-15165756D01*
X13329886Y-15356232D02*
X13310838Y-15365756D01*
X13272743Y-15365756D01*
X13253695Y-15356232D01*
X13244171Y-15337185D01*
X13244171Y-15260994D01*
X13253695Y-15241947D01*
X13272743Y-15232423D01*
X13310838Y-15232423D01*
X13329886Y-15241947D01*
X13339409Y-15260994D01*
X13339409Y-15280042D01*
X13244171Y-15299089D01*
X13415600Y-15356232D02*
X13434648Y-15365756D01*
X13472743Y-15365756D01*
X13491790Y-15356232D01*
X13501314Y-15337185D01*
X13501314Y-15327661D01*
X13491790Y-15308613D01*
X13472743Y-15299089D01*
X13444171Y-15299089D01*
X13425124Y-15289566D01*
X13415600Y-15270518D01*
X13415600Y-15260994D01*
X13425124Y-15241947D01*
X13444171Y-15232423D01*
X13472743Y-15232423D01*
X13491790Y-15241947D01*
X13567981Y-15441947D02*
X13577505Y-15432423D01*
X13596552Y-15403851D01*
X13606076Y-15384804D01*
X13615600Y-15356232D01*
X13625124Y-15308613D01*
X13625124Y-15270518D01*
X13615600Y-15222899D01*
X13606076Y-15194328D01*
X13596552Y-15175280D01*
X13577505Y-15146708D01*
X13567981Y-15137185D01*
D17*
X8495600Y-15484280D02*
X8605600Y-15594280D01*
X8605600Y-15484280D02*
X8495600Y-15594280D01*
X8605600Y-15539280D02*
G75*
G03*
X8605600Y-15539280I-55000J0D01*
G01*
D11*
X8967981Y-15629756D02*
X8853695Y-15629756D01*
X8910838Y-15629756D02*
X8910838Y-15429756D01*
X8891790Y-15458328D01*
X8872743Y-15477375D01*
X8853695Y-15486899D01*
X9053695Y-15610708D02*
X9063219Y-15620232D01*
X9053695Y-15629756D01*
X9044171Y-15620232D01*
X9053695Y-15610708D01*
X9053695Y-15629756D01*
X9253695Y-15629756D02*
X9139410Y-15629756D01*
X9196552Y-15629756D02*
X9196552Y-15429756D01*
X9177505Y-15458328D01*
X9158457Y-15477375D01*
X9139410Y-15486899D01*
X9377505Y-15429756D02*
X9396552Y-15429756D01*
X9415600Y-15439280D01*
X9425124Y-15448804D01*
X9434648Y-15467851D01*
X9444171Y-15505947D01*
X9444171Y-15553566D01*
X9434648Y-15591661D01*
X9425124Y-15610708D01*
X9415600Y-15620232D01*
X9396552Y-15629756D01*
X9377505Y-15629756D01*
X9358457Y-15620232D01*
X9348933Y-15610708D01*
X9339410Y-15591661D01*
X9329886Y-15553566D01*
X9329886Y-15505947D01*
X9339410Y-15467851D01*
X9348933Y-15448804D01*
X9358457Y-15439280D01*
X9377505Y-15429756D01*
X9567981Y-15429756D02*
X9587029Y-15429756D01*
X9606076Y-15439280D01*
X9615600Y-15448804D01*
X9625124Y-15467851D01*
X9634648Y-15505947D01*
X9634648Y-15553566D01*
X9625124Y-15591661D01*
X9615600Y-15610708D01*
X9606076Y-15620232D01*
X9587029Y-15629756D01*
X9567981Y-15629756D01*
X9548933Y-15620232D01*
X9539410Y-15610708D01*
X9529886Y-15591661D01*
X9520362Y-15553566D01*
X9520362Y-15505947D01*
X9529886Y-15467851D01*
X9539410Y-15448804D01*
X9548933Y-15439280D01*
X9567981Y-15429756D01*
X9720362Y-15629756D02*
X9720362Y-15496423D01*
X9720362Y-15515470D02*
X9729886Y-15505947D01*
X9748933Y-15496423D01*
X9777505Y-15496423D01*
X9796552Y-15505947D01*
X9806076Y-15524994D01*
X9806076Y-15629756D01*
X9806076Y-15524994D02*
X9815600Y-15505947D01*
X9834648Y-15496423D01*
X9863219Y-15496423D01*
X9882267Y-15505947D01*
X9891790Y-15524994D01*
X9891790Y-15629756D01*
X9987029Y-15629756D02*
X9987029Y-15496423D01*
X9987029Y-15515470D02*
X9996552Y-15505947D01*
X10015600Y-15496423D01*
X10044171Y-15496423D01*
X10063219Y-15505947D01*
X10072743Y-15524994D01*
X10072743Y-15629756D01*
X10072743Y-15524994D02*
X10082267Y-15505947D01*
X10101314Y-15496423D01*
X10129886Y-15496423D01*
X10148933Y-15505947D01*
X10158457Y-15524994D01*
X10158457Y-15629756D01*
X10548933Y-15420232D02*
X10377505Y-15677375D01*
X10806076Y-15429756D02*
X10825124Y-15429756D01*
X10844171Y-15439280D01*
X10853695Y-15448804D01*
X10863219Y-15467851D01*
X10872743Y-15505947D01*
X10872743Y-15553566D01*
X10863219Y-15591661D01*
X10853695Y-15610708D01*
X10844171Y-15620232D01*
X10825124Y-15629756D01*
X10806076Y-15629756D01*
X10787029Y-15620232D01*
X10777505Y-15610708D01*
X10767981Y-15591661D01*
X10758457Y-15553566D01*
X10758457Y-15505947D01*
X10767981Y-15467851D01*
X10777505Y-15448804D01*
X10787029Y-15439280D01*
X10806076Y-15429756D01*
X10958457Y-15610708D02*
X10967981Y-15620232D01*
X10958457Y-15629756D01*
X10948933Y-15620232D01*
X10958457Y-15610708D01*
X10958457Y-15629756D01*
X11091790Y-15429756D02*
X11110838Y-15429756D01*
X11129886Y-15439280D01*
X11139410Y-15448804D01*
X11148933Y-15467851D01*
X11158457Y-15505947D01*
X11158457Y-15553566D01*
X11148933Y-15591661D01*
X11139410Y-15610708D01*
X11129886Y-15620232D01*
X11110838Y-15629756D01*
X11091790Y-15629756D01*
X11072743Y-15620232D01*
X11063219Y-15610708D01*
X11053695Y-15591661D01*
X11044171Y-15553566D01*
X11044171Y-15505947D01*
X11053695Y-15467851D01*
X11063219Y-15448804D01*
X11072743Y-15439280D01*
X11091790Y-15429756D01*
X11329886Y-15496423D02*
X11329886Y-15629756D01*
X11282267Y-15420232D02*
X11234648Y-15563089D01*
X11358457Y-15563089D01*
X11415600Y-15429756D02*
X11539409Y-15429756D01*
X11472743Y-15505947D01*
X11501314Y-15505947D01*
X11520362Y-15515470D01*
X11529886Y-15524994D01*
X11539409Y-15544042D01*
X11539409Y-15591661D01*
X11529886Y-15610708D01*
X11520362Y-15620232D01*
X11501314Y-15629756D01*
X11444171Y-15629756D01*
X11425124Y-15620232D01*
X11415600Y-15610708D01*
X11606076Y-15429756D02*
X11729886Y-15429756D01*
X11663219Y-15505947D01*
X11691790Y-15505947D01*
X11710838Y-15515470D01*
X11720362Y-15524994D01*
X11729886Y-15544042D01*
X11729886Y-15591661D01*
X11720362Y-15610708D01*
X11710838Y-15620232D01*
X11691790Y-15629756D01*
X11634648Y-15629756D01*
X11615600Y-15620232D01*
X11606076Y-15610708D01*
X11806076Y-15429756D02*
X11806076Y-15467851D01*
X11882267Y-15429756D02*
X11882267Y-15467851D01*
X12177505Y-15705947D02*
X12167981Y-15696423D01*
X12148933Y-15667851D01*
X12139409Y-15648804D01*
X12129886Y-15620232D01*
X12120362Y-15572613D01*
X12120362Y-15534518D01*
X12129886Y-15486899D01*
X12139409Y-15458328D01*
X12148933Y-15439280D01*
X12167981Y-15410708D01*
X12177505Y-15401185D01*
X12291790Y-15429756D02*
X12310838Y-15429756D01*
X12329886Y-15439280D01*
X12339409Y-15448804D01*
X12348933Y-15467851D01*
X12358457Y-15505947D01*
X12358457Y-15553566D01*
X12348933Y-15591661D01*
X12339409Y-15610708D01*
X12329886Y-15620232D01*
X12310838Y-15629756D01*
X12291790Y-15629756D01*
X12272743Y-15620232D01*
X12263219Y-15610708D01*
X12253695Y-15591661D01*
X12244171Y-15553566D01*
X12244171Y-15505947D01*
X12253695Y-15467851D01*
X12263219Y-15448804D01*
X12272743Y-15439280D01*
X12291790Y-15429756D01*
X12596552Y-15629756D02*
X12596552Y-15429756D01*
X12682267Y-15629756D02*
X12682267Y-15524994D01*
X12672743Y-15505947D01*
X12653695Y-15496423D01*
X12625124Y-15496423D01*
X12606076Y-15505947D01*
X12596552Y-15515470D01*
X12806076Y-15629756D02*
X12787028Y-15620232D01*
X12777505Y-15610708D01*
X12767981Y-15591661D01*
X12767981Y-15534518D01*
X12777505Y-15515470D01*
X12787028Y-15505947D01*
X12806076Y-15496423D01*
X12834648Y-15496423D01*
X12853695Y-15505947D01*
X12863219Y-15515470D01*
X12872743Y-15534518D01*
X12872743Y-15591661D01*
X12863219Y-15610708D01*
X12853695Y-15620232D01*
X12834648Y-15629756D01*
X12806076Y-15629756D01*
X12987028Y-15629756D02*
X12967981Y-15620232D01*
X12958457Y-15601185D01*
X12958457Y-15429756D01*
X13139409Y-15620232D02*
X13120362Y-15629756D01*
X13082267Y-15629756D01*
X13063219Y-15620232D01*
X13053695Y-15601185D01*
X13053695Y-15524994D01*
X13063219Y-15505947D01*
X13082267Y-15496423D01*
X13120362Y-15496423D01*
X13139409Y-15505947D01*
X13148933Y-15524994D01*
X13148933Y-15544042D01*
X13053695Y-15563089D01*
X13225124Y-15620232D02*
X13244171Y-15629756D01*
X13282267Y-15629756D01*
X13301314Y-15620232D01*
X13310838Y-15601185D01*
X13310838Y-15591661D01*
X13301314Y-15572613D01*
X13282267Y-15563089D01*
X13253695Y-15563089D01*
X13234648Y-15553566D01*
X13225124Y-15534518D01*
X13225124Y-15524994D01*
X13234648Y-15505947D01*
X13253695Y-15496423D01*
X13282267Y-15496423D01*
X13301314Y-15505947D01*
X13548933Y-15553566D02*
X13701314Y-15553566D01*
X13625124Y-15629756D02*
X13625124Y-15477375D01*
X14034648Y-15496423D02*
X14034648Y-15629756D01*
X13987028Y-15420232D02*
X13939409Y-15563089D01*
X14063219Y-15563089D01*
X14282267Y-15620232D02*
X14301314Y-15629756D01*
X14339409Y-15629756D01*
X14358457Y-15620232D01*
X14367981Y-15601185D01*
X14367981Y-15591661D01*
X14358457Y-15572613D01*
X14339409Y-15563089D01*
X14310838Y-15563089D01*
X14291790Y-15553566D01*
X14282267Y-15534518D01*
X14282267Y-15524994D01*
X14291790Y-15505947D01*
X14310838Y-15496423D01*
X14339409Y-15496423D01*
X14358457Y-15505947D01*
X14482267Y-15629756D02*
X14463219Y-15620232D01*
X14453695Y-15601185D01*
X14453695Y-15429756D01*
X14587028Y-15629756D02*
X14567981Y-15620232D01*
X14558457Y-15610708D01*
X14548933Y-15591661D01*
X14548933Y-15534518D01*
X14558457Y-15515470D01*
X14567981Y-15505947D01*
X14587028Y-15496423D01*
X14615600Y-15496423D01*
X14634648Y-15505947D01*
X14644171Y-15515470D01*
X14653695Y-15534518D01*
X14653695Y-15591661D01*
X14644171Y-15610708D01*
X14634648Y-15620232D01*
X14615600Y-15629756D01*
X14587028Y-15629756D01*
X14710838Y-15496423D02*
X14787028Y-15496423D01*
X14739409Y-15429756D02*
X14739409Y-15601185D01*
X14748933Y-15620232D01*
X14767981Y-15629756D01*
X14787028Y-15629756D01*
X14844171Y-15620232D02*
X14863219Y-15629756D01*
X14901314Y-15629756D01*
X14920362Y-15620232D01*
X14929886Y-15601185D01*
X14929886Y-15591661D01*
X14920362Y-15572613D01*
X14901314Y-15563089D01*
X14872743Y-15563089D01*
X14853695Y-15553566D01*
X14844171Y-15534518D01*
X14844171Y-15524994D01*
X14853695Y-15505947D01*
X14872743Y-15496423D01*
X14901314Y-15496423D01*
X14920362Y-15505947D01*
X14996552Y-15705947D02*
X15006076Y-15696423D01*
X15025124Y-15667851D01*
X15034648Y-15648804D01*
X15044171Y-15620232D01*
X15053695Y-15572613D01*
X15053695Y-15534518D01*
X15044171Y-15486899D01*
X15034648Y-15458328D01*
X15025124Y-15439280D01*
X15006076Y-15410708D01*
X14996552Y-15401185D01*
D18*
X8486600Y-15743780D02*
X8605600Y-15862780D01*
X8605600Y-15743780D02*
X8486600Y-15862780D01*
X8546100Y-15743780D02*
X8546100Y-15862780D01*
X8486600Y-15803280D02*
X8605600Y-15803280D01*
D11*
X8967981Y-15893756D02*
X8853695Y-15893756D01*
X8910838Y-15893756D02*
X8910838Y-15693756D01*
X8891790Y-15722328D01*
X8872743Y-15741375D01*
X8853695Y-15750899D01*
X9053695Y-15874708D02*
X9063219Y-15884232D01*
X9053695Y-15893756D01*
X9044171Y-15884232D01*
X9053695Y-15874708D01*
X9053695Y-15893756D01*
X9253695Y-15893756D02*
X9139410Y-15893756D01*
X9196552Y-15893756D02*
X9196552Y-15693756D01*
X9177505Y-15722328D01*
X9158457Y-15741375D01*
X9139410Y-15750899D01*
X9348933Y-15893756D02*
X9387029Y-15893756D01*
X9406076Y-15884232D01*
X9415600Y-15874708D01*
X9434648Y-15846137D01*
X9444171Y-15808042D01*
X9444171Y-15731851D01*
X9434648Y-15712804D01*
X9425124Y-15703280D01*
X9406076Y-15693756D01*
X9367981Y-15693756D01*
X9348933Y-15703280D01*
X9339410Y-15712804D01*
X9329886Y-15731851D01*
X9329886Y-15779470D01*
X9339410Y-15798518D01*
X9348933Y-15808042D01*
X9367981Y-15817566D01*
X9406076Y-15817566D01*
X9425124Y-15808042D01*
X9434648Y-15798518D01*
X9444171Y-15779470D01*
X9567981Y-15693756D02*
X9587029Y-15693756D01*
X9606076Y-15703280D01*
X9615600Y-15712804D01*
X9625124Y-15731851D01*
X9634648Y-15769947D01*
X9634648Y-15817566D01*
X9625124Y-15855661D01*
X9615600Y-15874708D01*
X9606076Y-15884232D01*
X9587029Y-15893756D01*
X9567981Y-15893756D01*
X9548933Y-15884232D01*
X9539410Y-15874708D01*
X9529886Y-15855661D01*
X9520362Y-15817566D01*
X9520362Y-15769947D01*
X9529886Y-15731851D01*
X9539410Y-15712804D01*
X9548933Y-15703280D01*
X9567981Y-15693756D01*
X9720362Y-15893756D02*
X9720362Y-15760423D01*
X9720362Y-15779470D02*
X9729886Y-15769947D01*
X9748933Y-15760423D01*
X9777505Y-15760423D01*
X9796552Y-15769947D01*
X9806076Y-15788994D01*
X9806076Y-15893756D01*
X9806076Y-15788994D02*
X9815600Y-15769947D01*
X9834648Y-15760423D01*
X9863219Y-15760423D01*
X9882267Y-15769947D01*
X9891790Y-15788994D01*
X9891790Y-15893756D01*
X9987029Y-15893756D02*
X9987029Y-15760423D01*
X9987029Y-15779470D02*
X9996552Y-15769947D01*
X10015600Y-15760423D01*
X10044171Y-15760423D01*
X10063219Y-15769947D01*
X10072743Y-15788994D01*
X10072743Y-15893756D01*
X10072743Y-15788994D02*
X10082267Y-15769947D01*
X10101314Y-15760423D01*
X10129886Y-15760423D01*
X10148933Y-15769947D01*
X10158457Y-15788994D01*
X10158457Y-15893756D01*
X10548933Y-15684232D02*
X10377505Y-15941375D01*
X10806076Y-15693756D02*
X10825124Y-15693756D01*
X10844171Y-15703280D01*
X10853695Y-15712804D01*
X10863219Y-15731851D01*
X10872743Y-15769947D01*
X10872743Y-15817566D01*
X10863219Y-15855661D01*
X10853695Y-15874708D01*
X10844171Y-15884232D01*
X10825124Y-15893756D01*
X10806076Y-15893756D01*
X10787029Y-15884232D01*
X10777505Y-15874708D01*
X10767981Y-15855661D01*
X10758457Y-15817566D01*
X10758457Y-15769947D01*
X10767981Y-15731851D01*
X10777505Y-15712804D01*
X10787029Y-15703280D01*
X10806076Y-15693756D01*
X10958457Y-15874708D02*
X10967981Y-15884232D01*
X10958457Y-15893756D01*
X10948933Y-15884232D01*
X10958457Y-15874708D01*
X10958457Y-15893756D01*
X11091790Y-15693756D02*
X11110838Y-15693756D01*
X11129886Y-15703280D01*
X11139410Y-15712804D01*
X11148933Y-15731851D01*
X11158457Y-15769947D01*
X11158457Y-15817566D01*
X11148933Y-15855661D01*
X11139410Y-15874708D01*
X11129886Y-15884232D01*
X11110838Y-15893756D01*
X11091790Y-15893756D01*
X11072743Y-15884232D01*
X11063219Y-15874708D01*
X11053695Y-15855661D01*
X11044171Y-15817566D01*
X11044171Y-15769947D01*
X11053695Y-15731851D01*
X11063219Y-15712804D01*
X11072743Y-15703280D01*
X11091790Y-15693756D01*
X11329886Y-15760423D02*
X11329886Y-15893756D01*
X11282267Y-15684232D02*
X11234648Y-15827089D01*
X11358457Y-15827089D01*
X11520362Y-15693756D02*
X11482267Y-15693756D01*
X11463219Y-15703280D01*
X11453695Y-15712804D01*
X11434648Y-15741375D01*
X11425124Y-15779470D01*
X11425124Y-15855661D01*
X11434648Y-15874708D01*
X11444171Y-15884232D01*
X11463219Y-15893756D01*
X11501314Y-15893756D01*
X11520362Y-15884232D01*
X11529886Y-15874708D01*
X11539409Y-15855661D01*
X11539409Y-15808042D01*
X11529886Y-15788994D01*
X11520362Y-15779470D01*
X11501314Y-15769947D01*
X11463219Y-15769947D01*
X11444171Y-15779470D01*
X11434648Y-15788994D01*
X11425124Y-15808042D01*
X11634648Y-15893756D02*
X11672743Y-15893756D01*
X11691790Y-15884232D01*
X11701314Y-15874708D01*
X11720362Y-15846137D01*
X11729886Y-15808042D01*
X11729886Y-15731851D01*
X11720362Y-15712804D01*
X11710838Y-15703280D01*
X11691790Y-15693756D01*
X11653695Y-15693756D01*
X11634648Y-15703280D01*
X11625124Y-15712804D01*
X11615600Y-15731851D01*
X11615600Y-15779470D01*
X11625124Y-15798518D01*
X11634648Y-15808042D01*
X11653695Y-15817566D01*
X11691790Y-15817566D01*
X11710838Y-15808042D01*
X11720362Y-15798518D01*
X11729886Y-15779470D01*
X11806076Y-15693756D02*
X11806076Y-15731851D01*
X11882267Y-15693756D02*
X11882267Y-15731851D01*
X12177505Y-15969947D02*
X12167981Y-15960423D01*
X12148933Y-15931851D01*
X12139409Y-15912804D01*
X12129886Y-15884232D01*
X12120362Y-15836613D01*
X12120362Y-15798518D01*
X12129886Y-15750899D01*
X12139409Y-15722328D01*
X12148933Y-15703280D01*
X12167981Y-15674708D01*
X12177505Y-15665185D01*
X12358457Y-15893756D02*
X12244171Y-15893756D01*
X12301314Y-15893756D02*
X12301314Y-15693756D01*
X12282267Y-15722328D01*
X12263219Y-15741375D01*
X12244171Y-15750899D01*
X12434648Y-15712804D02*
X12444171Y-15703280D01*
X12463219Y-15693756D01*
X12510838Y-15693756D01*
X12529886Y-15703280D01*
X12539409Y-15712804D01*
X12548933Y-15731851D01*
X12548933Y-15750899D01*
X12539409Y-15779470D01*
X12425124Y-15893756D01*
X12548933Y-15893756D01*
X12787028Y-15893756D02*
X12787028Y-15693756D01*
X12872743Y-15893756D02*
X12872743Y-15788994D01*
X12863219Y-15769947D01*
X12844171Y-15760423D01*
X12815600Y-15760423D01*
X12796552Y-15769947D01*
X12787028Y-15779470D01*
X12996552Y-15893756D02*
X12977505Y-15884232D01*
X12967981Y-15874708D01*
X12958457Y-15855661D01*
X12958457Y-15798518D01*
X12967981Y-15779470D01*
X12977505Y-15769947D01*
X12996552Y-15760423D01*
X13025124Y-15760423D01*
X13044171Y-15769947D01*
X13053695Y-15779470D01*
X13063219Y-15798518D01*
X13063219Y-15855661D01*
X13053695Y-15874708D01*
X13044171Y-15884232D01*
X13025124Y-15893756D01*
X12996552Y-15893756D01*
X13177505Y-15893756D02*
X13158457Y-15884232D01*
X13148933Y-15865185D01*
X13148933Y-15693756D01*
X13329886Y-15884232D02*
X13310838Y-15893756D01*
X13272743Y-15893756D01*
X13253695Y-15884232D01*
X13244171Y-15865185D01*
X13244171Y-15788994D01*
X13253695Y-15769947D01*
X13272743Y-15760423D01*
X13310838Y-15760423D01*
X13329886Y-15769947D01*
X13339409Y-15788994D01*
X13339409Y-15808042D01*
X13244171Y-15827089D01*
X13415600Y-15884232D02*
X13434648Y-15893756D01*
X13472743Y-15893756D01*
X13491790Y-15884232D01*
X13501314Y-15865185D01*
X13501314Y-15855661D01*
X13491790Y-15836613D01*
X13472743Y-15827089D01*
X13444171Y-15827089D01*
X13425124Y-15817566D01*
X13415600Y-15798518D01*
X13415600Y-15788994D01*
X13425124Y-15769947D01*
X13444171Y-15760423D01*
X13472743Y-15760423D01*
X13491790Y-15769947D01*
X13567981Y-15969947D02*
X13577505Y-15960423D01*
X13596552Y-15931851D01*
X13606076Y-15912804D01*
X13615600Y-15884232D01*
X13625124Y-15836613D01*
X13625124Y-15798518D01*
X13615600Y-15750899D01*
X13606076Y-15722328D01*
X13596552Y-15703280D01*
X13577505Y-15674708D01*
X13567981Y-15665185D01*
D19*
X8475600Y-16002280D02*
X8605600Y-16132280D01*
X8605600Y-16002280D02*
X8475600Y-16132280D01*
X8586562Y-16113242D02*
X8586562Y-16021318D01*
X8494638Y-16021318D01*
X8494638Y-16113242D01*
X8586562Y-16113242D01*
D11*
X8967981Y-16157756D02*
X8853695Y-16157756D01*
X8910838Y-16157756D02*
X8910838Y-15957756D01*
X8891790Y-15986328D01*
X8872743Y-16005375D01*
X8853695Y-16014899D01*
X9053695Y-16138708D02*
X9063219Y-16148232D01*
X9053695Y-16157756D01*
X9044171Y-16148232D01*
X9053695Y-16138708D01*
X9053695Y-16157756D01*
X9129886Y-15957756D02*
X9253695Y-15957756D01*
X9187029Y-16033947D01*
X9215600Y-16033947D01*
X9234648Y-16043470D01*
X9244171Y-16052994D01*
X9253695Y-16072042D01*
X9253695Y-16119661D01*
X9244171Y-16138708D01*
X9234648Y-16148232D01*
X9215600Y-16157756D01*
X9158457Y-16157756D01*
X9139410Y-16148232D01*
X9129886Y-16138708D01*
X9377505Y-15957756D02*
X9396552Y-15957756D01*
X9415600Y-15967280D01*
X9425124Y-15976804D01*
X9434648Y-15995851D01*
X9444171Y-16033947D01*
X9444171Y-16081566D01*
X9434648Y-16119661D01*
X9425124Y-16138708D01*
X9415600Y-16148232D01*
X9396552Y-16157756D01*
X9377505Y-16157756D01*
X9358457Y-16148232D01*
X9348933Y-16138708D01*
X9339410Y-16119661D01*
X9329886Y-16081566D01*
X9329886Y-16033947D01*
X9339410Y-15995851D01*
X9348933Y-15976804D01*
X9358457Y-15967280D01*
X9377505Y-15957756D01*
X9567981Y-15957756D02*
X9587029Y-15957756D01*
X9606076Y-15967280D01*
X9615600Y-15976804D01*
X9625124Y-15995851D01*
X9634648Y-16033947D01*
X9634648Y-16081566D01*
X9625124Y-16119661D01*
X9615600Y-16138708D01*
X9606076Y-16148232D01*
X9587029Y-16157756D01*
X9567981Y-16157756D01*
X9548933Y-16148232D01*
X9539410Y-16138708D01*
X9529886Y-16119661D01*
X9520362Y-16081566D01*
X9520362Y-16033947D01*
X9529886Y-15995851D01*
X9539410Y-15976804D01*
X9548933Y-15967280D01*
X9567981Y-15957756D01*
X9720362Y-16157756D02*
X9720362Y-16024423D01*
X9720362Y-16043470D02*
X9729886Y-16033947D01*
X9748933Y-16024423D01*
X9777505Y-16024423D01*
X9796552Y-16033947D01*
X9806076Y-16052994D01*
X9806076Y-16157756D01*
X9806076Y-16052994D02*
X9815600Y-16033947D01*
X9834648Y-16024423D01*
X9863219Y-16024423D01*
X9882267Y-16033947D01*
X9891790Y-16052994D01*
X9891790Y-16157756D01*
X9987029Y-16157756D02*
X9987029Y-16024423D01*
X9987029Y-16043470D02*
X9996552Y-16033947D01*
X10015600Y-16024423D01*
X10044171Y-16024423D01*
X10063219Y-16033947D01*
X10072743Y-16052994D01*
X10072743Y-16157756D01*
X10072743Y-16052994D02*
X10082267Y-16033947D01*
X10101314Y-16024423D01*
X10129886Y-16024423D01*
X10148933Y-16033947D01*
X10158457Y-16052994D01*
X10158457Y-16157756D01*
X10548933Y-15948232D02*
X10377505Y-16205375D01*
X10806076Y-15957756D02*
X10825124Y-15957756D01*
X10844171Y-15967280D01*
X10853695Y-15976804D01*
X10863219Y-15995851D01*
X10872743Y-16033947D01*
X10872743Y-16081566D01*
X10863219Y-16119661D01*
X10853695Y-16138708D01*
X10844171Y-16148232D01*
X10825124Y-16157756D01*
X10806076Y-16157756D01*
X10787029Y-16148232D01*
X10777505Y-16138708D01*
X10767981Y-16119661D01*
X10758457Y-16081566D01*
X10758457Y-16033947D01*
X10767981Y-15995851D01*
X10777505Y-15976804D01*
X10787029Y-15967280D01*
X10806076Y-15957756D01*
X10958457Y-16138708D02*
X10967981Y-16148232D01*
X10958457Y-16157756D01*
X10948933Y-16148232D01*
X10958457Y-16138708D01*
X10958457Y-16157756D01*
X11091790Y-15957756D02*
X11110838Y-15957756D01*
X11129886Y-15967280D01*
X11139410Y-15976804D01*
X11148933Y-15995851D01*
X11158457Y-16033947D01*
X11158457Y-16081566D01*
X11148933Y-16119661D01*
X11139410Y-16138708D01*
X11129886Y-16148232D01*
X11110838Y-16157756D01*
X11091790Y-16157756D01*
X11072743Y-16148232D01*
X11063219Y-16138708D01*
X11053695Y-16119661D01*
X11044171Y-16081566D01*
X11044171Y-16033947D01*
X11053695Y-15995851D01*
X11063219Y-15976804D01*
X11072743Y-15967280D01*
X11091790Y-15957756D01*
X11339409Y-15957756D02*
X11244171Y-15957756D01*
X11234648Y-16052994D01*
X11244171Y-16043470D01*
X11263219Y-16033947D01*
X11310838Y-16033947D01*
X11329886Y-16043470D01*
X11339409Y-16052994D01*
X11348933Y-16072042D01*
X11348933Y-16119661D01*
X11339409Y-16138708D01*
X11329886Y-16148232D01*
X11310838Y-16157756D01*
X11263219Y-16157756D01*
X11244171Y-16148232D01*
X11234648Y-16138708D01*
X11539409Y-16157756D02*
X11425124Y-16157756D01*
X11482267Y-16157756D02*
X11482267Y-15957756D01*
X11463219Y-15986328D01*
X11444171Y-16005375D01*
X11425124Y-16014899D01*
X11615600Y-15976804D02*
X11625124Y-15967280D01*
X11644171Y-15957756D01*
X11691790Y-15957756D01*
X11710838Y-15967280D01*
X11720362Y-15976804D01*
X11729886Y-15995851D01*
X11729886Y-16014899D01*
X11720362Y-16043470D01*
X11606076Y-16157756D01*
X11729886Y-16157756D01*
X11806076Y-15957756D02*
X11806076Y-15995851D01*
X11882267Y-15957756D02*
X11882267Y-15995851D01*
X12177505Y-16233947D02*
X12167981Y-16224423D01*
X12148933Y-16195851D01*
X12139409Y-16176804D01*
X12129886Y-16148232D01*
X12120362Y-16100613D01*
X12120362Y-16062518D01*
X12129886Y-16014899D01*
X12139409Y-15986328D01*
X12148933Y-15967280D01*
X12167981Y-15938708D01*
X12177505Y-15929185D01*
X12244171Y-15976804D02*
X12253695Y-15967280D01*
X12272743Y-15957756D01*
X12320362Y-15957756D01*
X12339409Y-15967280D01*
X12348933Y-15976804D01*
X12358457Y-15995851D01*
X12358457Y-16014899D01*
X12348933Y-16043470D01*
X12234648Y-16157756D01*
X12358457Y-16157756D01*
X12596552Y-16157756D02*
X12596552Y-15957756D01*
X12682267Y-16157756D02*
X12682267Y-16052994D01*
X12672743Y-16033947D01*
X12653695Y-16024423D01*
X12625124Y-16024423D01*
X12606076Y-16033947D01*
X12596552Y-16043470D01*
X12806076Y-16157756D02*
X12787028Y-16148232D01*
X12777505Y-16138708D01*
X12767981Y-16119661D01*
X12767981Y-16062518D01*
X12777505Y-16043470D01*
X12787028Y-16033947D01*
X12806076Y-16024423D01*
X12834648Y-16024423D01*
X12853695Y-16033947D01*
X12863219Y-16043470D01*
X12872743Y-16062518D01*
X12872743Y-16119661D01*
X12863219Y-16138708D01*
X12853695Y-16148232D01*
X12834648Y-16157756D01*
X12806076Y-16157756D01*
X12987028Y-16157756D02*
X12967981Y-16148232D01*
X12958457Y-16129185D01*
X12958457Y-15957756D01*
X13139409Y-16148232D02*
X13120362Y-16157756D01*
X13082267Y-16157756D01*
X13063219Y-16148232D01*
X13053695Y-16129185D01*
X13053695Y-16052994D01*
X13063219Y-16033947D01*
X13082267Y-16024423D01*
X13120362Y-16024423D01*
X13139409Y-16033947D01*
X13148933Y-16052994D01*
X13148933Y-16072042D01*
X13053695Y-16091089D01*
X13225124Y-16148232D02*
X13244171Y-16157756D01*
X13282267Y-16157756D01*
X13301314Y-16148232D01*
X13310838Y-16129185D01*
X13310838Y-16119661D01*
X13301314Y-16100613D01*
X13282267Y-16091089D01*
X13253695Y-16091089D01*
X13234648Y-16081566D01*
X13225124Y-16062518D01*
X13225124Y-16052994D01*
X13234648Y-16033947D01*
X13253695Y-16024423D01*
X13282267Y-16024423D01*
X13301314Y-16033947D01*
X13377505Y-16233947D02*
X13387028Y-16224423D01*
X13406076Y-16195851D01*
X13415600Y-16176804D01*
X13425124Y-16148232D01*
X13434648Y-16100613D01*
X13434648Y-16062518D01*
X13425124Y-16014899D01*
X13415600Y-15986328D01*
X13406076Y-15967280D01*
X13387028Y-15938708D01*
X13377505Y-15929185D01*
D20*
X8465600Y-16261280D02*
X8605600Y-16401280D01*
X8605600Y-16261280D02*
X8465600Y-16401280D01*
X8535600Y-16401280D02*
X8605600Y-16331280D01*
X8535600Y-16261280D01*
X8465600Y-16331280D01*
X8535600Y-16401280D01*
D11*
X8967981Y-16421756D02*
X8853695Y-16421756D01*
X8910838Y-16421756D02*
X8910838Y-16221756D01*
X8891790Y-16250328D01*
X8872743Y-16269375D01*
X8853695Y-16278899D01*
X9053695Y-16402708D02*
X9063219Y-16412232D01*
X9053695Y-16421756D01*
X9044171Y-16412232D01*
X9053695Y-16402708D01*
X9053695Y-16421756D01*
X9234648Y-16288423D02*
X9234648Y-16421756D01*
X9187029Y-16212232D02*
X9139410Y-16355089D01*
X9263219Y-16355089D01*
X9377505Y-16221756D02*
X9396552Y-16221756D01*
X9415600Y-16231280D01*
X9425124Y-16240804D01*
X9434648Y-16259851D01*
X9444171Y-16297947D01*
X9444171Y-16345566D01*
X9434648Y-16383661D01*
X9425124Y-16402708D01*
X9415600Y-16412232D01*
X9396552Y-16421756D01*
X9377505Y-16421756D01*
X9358457Y-16412232D01*
X9348933Y-16402708D01*
X9339410Y-16383661D01*
X9329886Y-16345566D01*
X9329886Y-16297947D01*
X9339410Y-16259851D01*
X9348933Y-16240804D01*
X9358457Y-16231280D01*
X9377505Y-16221756D01*
X9567981Y-16221756D02*
X9587029Y-16221756D01*
X9606076Y-16231280D01*
X9615600Y-16240804D01*
X9625124Y-16259851D01*
X9634648Y-16297947D01*
X9634648Y-16345566D01*
X9625124Y-16383661D01*
X9615600Y-16402708D01*
X9606076Y-16412232D01*
X9587029Y-16421756D01*
X9567981Y-16421756D01*
X9548933Y-16412232D01*
X9539410Y-16402708D01*
X9529886Y-16383661D01*
X9520362Y-16345566D01*
X9520362Y-16297947D01*
X9529886Y-16259851D01*
X9539410Y-16240804D01*
X9548933Y-16231280D01*
X9567981Y-16221756D01*
X9720362Y-16421756D02*
X9720362Y-16288423D01*
X9720362Y-16307470D02*
X9729886Y-16297947D01*
X9748933Y-16288423D01*
X9777505Y-16288423D01*
X9796552Y-16297947D01*
X9806076Y-16316994D01*
X9806076Y-16421756D01*
X9806076Y-16316994D02*
X9815600Y-16297947D01*
X9834648Y-16288423D01*
X9863219Y-16288423D01*
X9882267Y-16297947D01*
X9891790Y-16316994D01*
X9891790Y-16421756D01*
X9987029Y-16421756D02*
X9987029Y-16288423D01*
X9987029Y-16307470D02*
X9996552Y-16297947D01*
X10015600Y-16288423D01*
X10044171Y-16288423D01*
X10063219Y-16297947D01*
X10072743Y-16316994D01*
X10072743Y-16421756D01*
X10072743Y-16316994D02*
X10082267Y-16297947D01*
X10101314Y-16288423D01*
X10129886Y-16288423D01*
X10148933Y-16297947D01*
X10158457Y-16316994D01*
X10158457Y-16421756D01*
X10548933Y-16212232D02*
X10377505Y-16469375D01*
X10806076Y-16221756D02*
X10825124Y-16221756D01*
X10844171Y-16231280D01*
X10853695Y-16240804D01*
X10863219Y-16259851D01*
X10872743Y-16297947D01*
X10872743Y-16345566D01*
X10863219Y-16383661D01*
X10853695Y-16402708D01*
X10844171Y-16412232D01*
X10825124Y-16421756D01*
X10806076Y-16421756D01*
X10787029Y-16412232D01*
X10777505Y-16402708D01*
X10767981Y-16383661D01*
X10758457Y-16345566D01*
X10758457Y-16297947D01*
X10767981Y-16259851D01*
X10777505Y-16240804D01*
X10787029Y-16231280D01*
X10806076Y-16221756D01*
X10958457Y-16402708D02*
X10967981Y-16412232D01*
X10958457Y-16421756D01*
X10948933Y-16412232D01*
X10958457Y-16402708D01*
X10958457Y-16421756D01*
X11091790Y-16221756D02*
X11110838Y-16221756D01*
X11129886Y-16231280D01*
X11139410Y-16240804D01*
X11148933Y-16259851D01*
X11158457Y-16297947D01*
X11158457Y-16345566D01*
X11148933Y-16383661D01*
X11139410Y-16402708D01*
X11129886Y-16412232D01*
X11110838Y-16421756D01*
X11091790Y-16421756D01*
X11072743Y-16412232D01*
X11063219Y-16402708D01*
X11053695Y-16383661D01*
X11044171Y-16345566D01*
X11044171Y-16297947D01*
X11053695Y-16259851D01*
X11063219Y-16240804D01*
X11072743Y-16231280D01*
X11091790Y-16221756D01*
X11339409Y-16221756D02*
X11244171Y-16221756D01*
X11234648Y-16316994D01*
X11244171Y-16307470D01*
X11263219Y-16297947D01*
X11310838Y-16297947D01*
X11329886Y-16307470D01*
X11339409Y-16316994D01*
X11348933Y-16336042D01*
X11348933Y-16383661D01*
X11339409Y-16402708D01*
X11329886Y-16412232D01*
X11310838Y-16421756D01*
X11263219Y-16421756D01*
X11244171Y-16412232D01*
X11234648Y-16402708D01*
X11529886Y-16221756D02*
X11434648Y-16221756D01*
X11425124Y-16316994D01*
X11434648Y-16307470D01*
X11453695Y-16297947D01*
X11501314Y-16297947D01*
X11520362Y-16307470D01*
X11529886Y-16316994D01*
X11539409Y-16336042D01*
X11539409Y-16383661D01*
X11529886Y-16402708D01*
X11520362Y-16412232D01*
X11501314Y-16421756D01*
X11453695Y-16421756D01*
X11434648Y-16412232D01*
X11425124Y-16402708D01*
X11729886Y-16421756D02*
X11615600Y-16421756D01*
X11672743Y-16421756D02*
X11672743Y-16221756D01*
X11653695Y-16250328D01*
X11634648Y-16269375D01*
X11615600Y-16278899D01*
X11806076Y-16221756D02*
X11806076Y-16259851D01*
X11882267Y-16221756D02*
X11882267Y-16259851D01*
X12177505Y-16497947D02*
X12167981Y-16488423D01*
X12148933Y-16459851D01*
X12139409Y-16440804D01*
X12129886Y-16412232D01*
X12120362Y-16364613D01*
X12120362Y-16326518D01*
X12129886Y-16278899D01*
X12139409Y-16250328D01*
X12148933Y-16231280D01*
X12167981Y-16202708D01*
X12177505Y-16193185D01*
X12358457Y-16421756D02*
X12244171Y-16421756D01*
X12301314Y-16421756D02*
X12301314Y-16221756D01*
X12282267Y-16250328D01*
X12263219Y-16269375D01*
X12244171Y-16278899D01*
X12425124Y-16221756D02*
X12548933Y-16221756D01*
X12482267Y-16297947D01*
X12510838Y-16297947D01*
X12529886Y-16307470D01*
X12539409Y-16316994D01*
X12548933Y-16336042D01*
X12548933Y-16383661D01*
X12539409Y-16402708D01*
X12529886Y-16412232D01*
X12510838Y-16421756D01*
X12453695Y-16421756D01*
X12434648Y-16412232D01*
X12425124Y-16402708D01*
X12787028Y-16421756D02*
X12787028Y-16221756D01*
X12872743Y-16421756D02*
X12872743Y-16316994D01*
X12863219Y-16297947D01*
X12844171Y-16288423D01*
X12815600Y-16288423D01*
X12796552Y-16297947D01*
X12787028Y-16307470D01*
X12996552Y-16421756D02*
X12977505Y-16412232D01*
X12967981Y-16402708D01*
X12958457Y-16383661D01*
X12958457Y-16326518D01*
X12967981Y-16307470D01*
X12977505Y-16297947D01*
X12996552Y-16288423D01*
X13025124Y-16288423D01*
X13044171Y-16297947D01*
X13053695Y-16307470D01*
X13063219Y-16326518D01*
X13063219Y-16383661D01*
X13053695Y-16402708D01*
X13044171Y-16412232D01*
X13025124Y-16421756D01*
X12996552Y-16421756D01*
X13177505Y-16421756D02*
X13158457Y-16412232D01*
X13148933Y-16393185D01*
X13148933Y-16221756D01*
X13329886Y-16412232D02*
X13310838Y-16421756D01*
X13272743Y-16421756D01*
X13253695Y-16412232D01*
X13244171Y-16393185D01*
X13244171Y-16316994D01*
X13253695Y-16297947D01*
X13272743Y-16288423D01*
X13310838Y-16288423D01*
X13329886Y-16297947D01*
X13339409Y-16316994D01*
X13339409Y-16336042D01*
X13244171Y-16355089D01*
X13415600Y-16412232D02*
X13434648Y-16421756D01*
X13472743Y-16421756D01*
X13491790Y-16412232D01*
X13501314Y-16393185D01*
X13501314Y-16383661D01*
X13491790Y-16364613D01*
X13472743Y-16355089D01*
X13444171Y-16355089D01*
X13425124Y-16345566D01*
X13415600Y-16326518D01*
X13415600Y-16316994D01*
X13425124Y-16297947D01*
X13444171Y-16288423D01*
X13472743Y-16288423D01*
X13491790Y-16297947D01*
X13567981Y-16497947D02*
X13577505Y-16488423D01*
X13596552Y-16459851D01*
X13606076Y-16440804D01*
X13615600Y-16412232D01*
X13625124Y-16364613D01*
X13625124Y-16326518D01*
X13615600Y-16278899D01*
X13606076Y-16250328D01*
X13596552Y-16231280D01*
X13577505Y-16202708D01*
X13567981Y-16193185D01*
D21*
X8513100Y-16502780D02*
X8513100Y-16687780D01*
X8420600Y-16595280D02*
X8605600Y-16595280D01*
X8605600Y-16595280D02*
G75*
G03*
X8605600Y-16595280I-92500J0D01*
G01*
D11*
X8967981Y-16685756D02*
X8853695Y-16685756D01*
X8910838Y-16685756D02*
X8910838Y-16485756D01*
X8891790Y-16514328D01*
X8872743Y-16533375D01*
X8853695Y-16542899D01*
X9053695Y-16666708D02*
X9063219Y-16676232D01*
X9053695Y-16685756D01*
X9044171Y-16676232D01*
X9053695Y-16666708D01*
X9053695Y-16685756D01*
X9177505Y-16571470D02*
X9158457Y-16561947D01*
X9148933Y-16552423D01*
X9139410Y-16533375D01*
X9139410Y-16523851D01*
X9148933Y-16504804D01*
X9158457Y-16495280D01*
X9177505Y-16485756D01*
X9215600Y-16485756D01*
X9234648Y-16495280D01*
X9244171Y-16504804D01*
X9253695Y-16523851D01*
X9253695Y-16533375D01*
X9244171Y-16552423D01*
X9234648Y-16561947D01*
X9215600Y-16571470D01*
X9177505Y-16571470D01*
X9158457Y-16580994D01*
X9148933Y-16590518D01*
X9139410Y-16609566D01*
X9139410Y-16647661D01*
X9148933Y-16666708D01*
X9158457Y-16676232D01*
X9177505Y-16685756D01*
X9215600Y-16685756D01*
X9234648Y-16676232D01*
X9244171Y-16666708D01*
X9253695Y-16647661D01*
X9253695Y-16609566D01*
X9244171Y-16590518D01*
X9234648Y-16580994D01*
X9215600Y-16571470D01*
X9434648Y-16485756D02*
X9339410Y-16485756D01*
X9329886Y-16580994D01*
X9339410Y-16571470D01*
X9358457Y-16561947D01*
X9406076Y-16561947D01*
X9425124Y-16571470D01*
X9434648Y-16580994D01*
X9444171Y-16600042D01*
X9444171Y-16647661D01*
X9434648Y-16666708D01*
X9425124Y-16676232D01*
X9406076Y-16685756D01*
X9358457Y-16685756D01*
X9339410Y-16676232D01*
X9329886Y-16666708D01*
X9567981Y-16485756D02*
X9587029Y-16485756D01*
X9606076Y-16495280D01*
X9615600Y-16504804D01*
X9625124Y-16523851D01*
X9634648Y-16561947D01*
X9634648Y-16609566D01*
X9625124Y-16647661D01*
X9615600Y-16666708D01*
X9606076Y-16676232D01*
X9587029Y-16685756D01*
X9567981Y-16685756D01*
X9548933Y-16676232D01*
X9539410Y-16666708D01*
X9529886Y-16647661D01*
X9520362Y-16609566D01*
X9520362Y-16561947D01*
X9529886Y-16523851D01*
X9539410Y-16504804D01*
X9548933Y-16495280D01*
X9567981Y-16485756D01*
X9720362Y-16685756D02*
X9720362Y-16552423D01*
X9720362Y-16571470D02*
X9729886Y-16561947D01*
X9748933Y-16552423D01*
X9777505Y-16552423D01*
X9796552Y-16561947D01*
X9806076Y-16580994D01*
X9806076Y-16685756D01*
X9806076Y-16580994D02*
X9815600Y-16561947D01*
X9834648Y-16552423D01*
X9863219Y-16552423D01*
X9882267Y-16561947D01*
X9891790Y-16580994D01*
X9891790Y-16685756D01*
X9987029Y-16685756D02*
X9987029Y-16552423D01*
X9987029Y-16571470D02*
X9996552Y-16561947D01*
X10015600Y-16552423D01*
X10044171Y-16552423D01*
X10063219Y-16561947D01*
X10072743Y-16580994D01*
X10072743Y-16685756D01*
X10072743Y-16580994D02*
X10082267Y-16561947D01*
X10101314Y-16552423D01*
X10129886Y-16552423D01*
X10148933Y-16561947D01*
X10158457Y-16580994D01*
X10158457Y-16685756D01*
X10548933Y-16476232D02*
X10377505Y-16733375D01*
X10806076Y-16485756D02*
X10825124Y-16485756D01*
X10844171Y-16495280D01*
X10853695Y-16504804D01*
X10863219Y-16523851D01*
X10872743Y-16561947D01*
X10872743Y-16609566D01*
X10863219Y-16647661D01*
X10853695Y-16666708D01*
X10844171Y-16676232D01*
X10825124Y-16685756D01*
X10806076Y-16685756D01*
X10787029Y-16676232D01*
X10777505Y-16666708D01*
X10767981Y-16647661D01*
X10758457Y-16609566D01*
X10758457Y-16561947D01*
X10767981Y-16523851D01*
X10777505Y-16504804D01*
X10787029Y-16495280D01*
X10806076Y-16485756D01*
X10958457Y-16666708D02*
X10967981Y-16676232D01*
X10958457Y-16685756D01*
X10948933Y-16676232D01*
X10958457Y-16666708D01*
X10958457Y-16685756D01*
X11091790Y-16485756D02*
X11110838Y-16485756D01*
X11129886Y-16495280D01*
X11139410Y-16504804D01*
X11148933Y-16523851D01*
X11158457Y-16561947D01*
X11158457Y-16609566D01*
X11148933Y-16647661D01*
X11139410Y-16666708D01*
X11129886Y-16676232D01*
X11110838Y-16685756D01*
X11091790Y-16685756D01*
X11072743Y-16676232D01*
X11063219Y-16666708D01*
X11053695Y-16647661D01*
X11044171Y-16609566D01*
X11044171Y-16561947D01*
X11053695Y-16523851D01*
X11063219Y-16504804D01*
X11072743Y-16495280D01*
X11091790Y-16485756D01*
X11225124Y-16485756D02*
X11358457Y-16485756D01*
X11272743Y-16685756D01*
X11425124Y-16504804D02*
X11434648Y-16495280D01*
X11453695Y-16485756D01*
X11501314Y-16485756D01*
X11520362Y-16495280D01*
X11529886Y-16504804D01*
X11539409Y-16523851D01*
X11539409Y-16542899D01*
X11529886Y-16571470D01*
X11415600Y-16685756D01*
X11539409Y-16685756D01*
X11653695Y-16571470D02*
X11634648Y-16561947D01*
X11625124Y-16552423D01*
X11615600Y-16533375D01*
X11615600Y-16523851D01*
X11625124Y-16504804D01*
X11634648Y-16495280D01*
X11653695Y-16485756D01*
X11691790Y-16485756D01*
X11710838Y-16495280D01*
X11720362Y-16504804D01*
X11729886Y-16523851D01*
X11729886Y-16533375D01*
X11720362Y-16552423D01*
X11710838Y-16561947D01*
X11691790Y-16571470D01*
X11653695Y-16571470D01*
X11634648Y-16580994D01*
X11625124Y-16590518D01*
X11615600Y-16609566D01*
X11615600Y-16647661D01*
X11625124Y-16666708D01*
X11634648Y-16676232D01*
X11653695Y-16685756D01*
X11691790Y-16685756D01*
X11710838Y-16676232D01*
X11720362Y-16666708D01*
X11729886Y-16647661D01*
X11729886Y-16609566D01*
X11720362Y-16590518D01*
X11710838Y-16580994D01*
X11691790Y-16571470D01*
X11806076Y-16485756D02*
X11806076Y-16523851D01*
X11882267Y-16485756D02*
X11882267Y-16523851D01*
X12177505Y-16761947D02*
X12167981Y-16752423D01*
X12148933Y-16723851D01*
X12139409Y-16704804D01*
X12129886Y-16676232D01*
X12120362Y-16628613D01*
X12120362Y-16590518D01*
X12129886Y-16542899D01*
X12139409Y-16514328D01*
X12148933Y-16495280D01*
X12167981Y-16466708D01*
X12177505Y-16457185D01*
X12234648Y-16485756D02*
X12358457Y-16485756D01*
X12291790Y-16561947D01*
X12320362Y-16561947D01*
X12339409Y-16571470D01*
X12348933Y-16580994D01*
X12358457Y-16600042D01*
X12358457Y-16647661D01*
X12348933Y-16666708D01*
X12339409Y-16676232D01*
X12320362Y-16685756D01*
X12263219Y-16685756D01*
X12244171Y-16676232D01*
X12234648Y-16666708D01*
X12596552Y-16685756D02*
X12596552Y-16485756D01*
X12682267Y-16685756D02*
X12682267Y-16580994D01*
X12672743Y-16561947D01*
X12653695Y-16552423D01*
X12625124Y-16552423D01*
X12606076Y-16561947D01*
X12596552Y-16571470D01*
X12806076Y-16685756D02*
X12787028Y-16676232D01*
X12777505Y-16666708D01*
X12767981Y-16647661D01*
X12767981Y-16590518D01*
X12777505Y-16571470D01*
X12787028Y-16561947D01*
X12806076Y-16552423D01*
X12834648Y-16552423D01*
X12853695Y-16561947D01*
X12863219Y-16571470D01*
X12872743Y-16590518D01*
X12872743Y-16647661D01*
X12863219Y-16666708D01*
X12853695Y-16676232D01*
X12834648Y-16685756D01*
X12806076Y-16685756D01*
X12987028Y-16685756D02*
X12967981Y-16676232D01*
X12958457Y-16657185D01*
X12958457Y-16485756D01*
X13139409Y-16676232D02*
X13120362Y-16685756D01*
X13082267Y-16685756D01*
X13063219Y-16676232D01*
X13053695Y-16657185D01*
X13053695Y-16580994D01*
X13063219Y-16561947D01*
X13082267Y-16552423D01*
X13120362Y-16552423D01*
X13139409Y-16561947D01*
X13148933Y-16580994D01*
X13148933Y-16600042D01*
X13053695Y-16619089D01*
X13225124Y-16676232D02*
X13244171Y-16685756D01*
X13282267Y-16685756D01*
X13301314Y-16676232D01*
X13310838Y-16657185D01*
X13310838Y-16647661D01*
X13301314Y-16628613D01*
X13282267Y-16619089D01*
X13253695Y-16619089D01*
X13234648Y-16609566D01*
X13225124Y-16590518D01*
X13225124Y-16580994D01*
X13234648Y-16561947D01*
X13253695Y-16552423D01*
X13282267Y-16552423D01*
X13301314Y-16561947D01*
X13377505Y-16761947D02*
X13387028Y-16752423D01*
X13406076Y-16723851D01*
X13415600Y-16704804D01*
X13425124Y-16676232D01*
X13434648Y-16628613D01*
X13434648Y-16590518D01*
X13425124Y-16542899D01*
X13415600Y-16514328D01*
X13406076Y-16495280D01*
X13387028Y-16466708D01*
X13377505Y-16457185D01*
M02*
