  0
SECTION
  2
HEADER
  9
$ANGBASE
  50
0.0
  9
$ANGDIR
  70
1
  9
$MEASUREMENT
  70
1
  0
ENDSEC
  0
SECTION
  2
TABLES
  0
TABLE
  2
LTYPE
  70
4
  0
LTYPE
  5
40F
  2
CONTINUOUS
  70
0
  3
Solid line
  72
65
  73
0
  40
0.0
  0
LTYPE
  5
410
  2
DASHDOT
 70
0
  3
Dash Dot ____ _ ____ _
 72
65
 73
4
 40
2.0
 49
1.25
 49
-0.25
 49
0.25
 49
-0.25
  0
LTYPE
  5
411
  2
DASHED
 70
0
  3
Dashed __ __ __ __ __
 72
65
 73
2
 40
0.75
 49
0.5
 49
-0.25
  0
LTYPE
  5
43B
  2
DOTTED
 70
0
  3
Dotted .  .  .  .
 72
65
 73
2
 40
0.2
 49
0.0
 49
-0.2
  0
ENDTAB
  0
TABLE
  2
STYLE
  70
4
  0
STYLE
  2
KICAD
  70
0
  40
0
  41
1
  42
1
  50
0
  71
0
  3
isocp.shx
  0
STYLE
  2
KICADB
  70
0
  40
0
  41
1
  42
1
  50
0
  71
0
  3
isocp.shx
  0
STYLE
  2
KICADI
  70
0
  40
0
  41
1
  42
1
  50
15
  71
0
  3
isocp.shx
  0
STYLE
  2
KICADBI
  70
0
  40
0
  41
1
  42
1
  50
15
  71
0
  3
isocp.shx
  0
ENDTAB
  0
TABLE
  2
LAYER
  70
1
  0
LAYER
  2
BLACK
  70
0
  62
7
  6
CONTINUOUS
  0
ENDTAB
  0
ENDSEC
  0
SECTION
  2
ENTITIES
0
LINE
8
BLACK
6
CONTINUOUS
10
84.4124
20
-132.366
11
83.9916
21
-132.314
0
LINE
8
BLACK
6
CONTINUOUS
10
83.9916
20
-132.314
11
83.5767
21
-132.227
0
LINE
8
BLACK
6
CONTINUOUS
10
83.5767
20
-132.227
11
83.1703
21
-132.106
0
LINE
8
BLACK
6
CONTINUOUS
10
83.1703
20
-132.106
11
82.7753
21
-131.952
0
LINE
8
BLACK
6
CONTINUOUS
10
82.7753
20
-131.952
11
82.3944
21
-131.766
0
LINE
8
BLACK
6
CONTINUOUS
10
82.3944
20
-131.766
11
82.0302
21
-131.549
0
LINE
8
BLACK
6
CONTINUOUS
10
82.0302
20
-131.549
11
81.6851
21
-131.302
0
LINE
8
BLACK
6
CONTINUOUS
10
81.6851
20
-131.302
11
81.3615
21
-131.028
0
LINE
8
BLACK
6
CONTINUOUS
10
81.3615
20
-131.028
11
81.0617
21
-130.728
0
LINE
8
BLACK
6
CONTINUOUS
10
81.0617
20
-130.728
11
80.7877
21
-130.405
0
LINE
8
BLACK
6
CONTINUOUS
10
80.7877
20
-130.405
11
80.5413
21
-130.06
0
LINE
8
BLACK
6
CONTINUOUS
10
80.5413
20
-130.06
11
80.3243
21
-129.696
0
LINE
8
BLACK
6
CONTINUOUS
10
80.3243
20
-129.696
11
80.1381
21
-129.315
0
LINE
8
BLACK
6
CONTINUOUS
10
80.1381
20
-129.315
11
79.984
21
-128.92
0
LINE
8
BLACK
6
CONTINUOUS
10
79.984
20
-128.92
11
79.863
21
-128.513
0
LINE
8
BLACK
6
CONTINUOUS
10
79.863
20
-128.513
11
79.776
21
-128.098
0
LINE
8
BLACK
6
CONTINUOUS
10
79.776
20
-128.098
11
79.7235
21
-127.678
0
LINE
8
BLACK
6
CONTINUOUS
10
79.7235
20
-127.678
11
79.706
21
-127.254
0
LINE
8
BLACK
6
CONTINUOUS
10
79.706
20
-127.254
11
79.706
21
-76.454
0
LINE
8
BLACK
6
CONTINUOUS
10
79.706
20
-76.454
11
79.7235
21
-76.0304
0
LINE
8
BLACK
6
CONTINUOUS
10
79.7235
20
-76.0304
11
79.776
21
-75.6096
0
LINE
8
BLACK
6
CONTINUOUS
10
79.776
20
-75.6096
11
79.863
21
-75.1947
0
LINE
8
BLACK
6
CONTINUOUS
10
79.863
20
-75.1947
11
79.984
21
-74.7883
0
LINE
8
BLACK
6
CONTINUOUS
10
79.984
20
-74.7883
11
80.1381
21
-74.3933
0
LINE
8
BLACK
6
CONTINUOUS
10
80.1381
20
-74.3933
11
80.3243
21
-74.0124
0
LINE
8
BLACK
6
CONTINUOUS
10
80.3243
20
-74.0124
11
80.5413
21
-73.6482
0
LINE
8
BLACK
6
CONTINUOUS
10
80.5413
20
-73.6482
11
80.7877
21
-73.3031
0
LINE
8
BLACK
6
CONTINUOUS
10
80.7877
20
-73.3031
11
81.0617
21
-72.9795
0
LINE
8
BLACK
6
CONTINUOUS
10
81.0617
20
-72.9795
11
81.3615
21
-72.6797
0
LINE
8
BLACK
6
CONTINUOUS
10
81.3615
20
-72.6797
11
81.6851
21
-72.4057
0
LINE
8
BLACK
6
CONTINUOUS
10
81.6851
20
-72.4057
11
82.0302
21
-72.1593
0
LINE
8
BLACK
6
CONTINUOUS
10
82.0302
20
-72.1593
11
82.3944
21
-71.9423
0
LINE
8
BLACK
6
CONTINUOUS
10
82.3944
20
-71.9423
11
82.7753
21
-71.7561
0
LINE
8
BLACK
6
CONTINUOUS
10
82.7753
20
-71.7561
11
83.1703
21
-71.602
0
LINE
8
BLACK
6
CONTINUOUS
10
83.1703
20
-71.602
11
83.5767
21
-71.481
0
LINE
8
BLACK
6
CONTINUOUS
10
83.5767
20
-71.481
11
83.9916
21
-71.394
0
LINE
8
BLACK
6
CONTINUOUS
10
83.9916
20
-71.394
11
84.4124
21
-71.3415
0
LINE
8
BLACK
6
CONTINUOUS
10
84.4124
20
-71.3415
11
84.836
21
-71.324
0
LINE
8
BLACK
6
CONTINUOUS
10
84.836
20
-71.324
11
218.186
21
-71.324
0
LINE
8
BLACK
6
CONTINUOUS
10
218.186
20
-71.324
11
218.61
21
-71.3415
0
LINE
8
BLACK
6
CONTINUOUS
10
218.61
20
-71.3415
11
219.03
21
-71.394
0
LINE
8
BLACK
6
CONTINUOUS
10
219.03
20
-71.394
11
219.445
21
-71.481
0
LINE
8
BLACK
6
CONTINUOUS
10
219.445
20
-71.481
11
219.852
21
-71.602
0
LINE
8
BLACK
6
CONTINUOUS
10
219.852
20
-71.602
11
220.247
21
-71.7561
0
LINE
8
BLACK
6
CONTINUOUS
10
220.247
20
-71.7561
11
220.628
21
-71.9423
0
LINE
8
BLACK
6
CONTINUOUS
10
220.628
20
-71.9423
11
220.992
21
-72.1593
0
LINE
8
BLACK
6
CONTINUOUS
10
220.992
20
-72.1593
11
221.337
21
-72.4057
0
LINE
8
BLACK
6
CONTINUOUS
10
221.337
20
-72.4057
11
221.66
21
-72.6797
0
LINE
8
BLACK
6
CONTINUOUS
10
221.66
20
-72.6797
11
221.96
21
-72.9795
0
LINE
8
BLACK
6
CONTINUOUS
10
221.96
20
-72.9795
11
222.234
21
-73.3031
0
LINE
8
BLACK
6
CONTINUOUS
10
222.234
20
-73.3031
11
222.481
21
-73.6482
0
LINE
8
BLACK
6
CONTINUOUS
10
222.481
20
-73.6482
11
222.698
21
-74.0124
0
LINE
8
BLACK
6
CONTINUOUS
10
222.698
20
-74.0124
11
222.884
21
-74.3933
0
LINE
8
BLACK
6
CONTINUOUS
10
222.884
20
-74.3933
11
223.038
21
-74.7883
0
LINE
8
BLACK
6
CONTINUOUS
10
223.038
20
-74.7883
11
223.159
21
-75.1947
0
LINE
8
BLACK
6
CONTINUOUS
10
223.159
20
-75.1947
11
223.246
21
-75.6096
0
LINE
8
BLACK
6
CONTINUOUS
10
223.246
20
-75.6096
11
223.298
21
-76.0304
0
LINE
8
BLACK
6
CONTINUOUS
10
223.298
20
-76.0304
11
223.316
21
-76.454
0
LINE
8
BLACK
6
CONTINUOUS
10
223.316
20
-76.454
11
223.316
21
-127.254
0
LINE
8
BLACK
6
CONTINUOUS
10
223.316
20
-127.254
11
223.298
21
-127.678
0
LINE
8
BLACK
6
CONTINUOUS
10
223.298
20
-127.678
11
223.246
21
-128.098
0
LINE
8
BLACK
6
CONTINUOUS
10
223.246
20
-128.098
11
223.159
21
-128.513
0
LINE
8
BLACK
6
CONTINUOUS
10
223.159
20
-128.513
11
223.038
21
-128.92
0
LINE
8
BLACK
6
CONTINUOUS
10
223.038
20
-128.92
11
222.884
21
-129.315
0
LINE
8
BLACK
6
CONTINUOUS
10
222.884
20
-129.315
11
222.698
21
-129.696
0
LINE
8
BLACK
6
CONTINUOUS
10
222.698
20
-129.696
11
222.481
21
-130.06
0
LINE
8
BLACK
6
CONTINUOUS
10
222.481
20
-130.06
11
222.234
21
-130.405
0
LINE
8
BLACK
6
CONTINUOUS
10
222.234
20
-130.405
11
221.96
21
-130.728
0
LINE
8
BLACK
6
CONTINUOUS
10
221.96
20
-130.728
11
221.66
21
-131.028
0
LINE
8
BLACK
6
CONTINUOUS
10
221.66
20
-131.028
11
221.337
21
-131.302
0
LINE
8
BLACK
6
CONTINUOUS
10
221.337
20
-131.302
11
220.992
21
-131.549
0
LINE
8
BLACK
6
CONTINUOUS
10
220.992
20
-131.549
11
220.628
21
-131.766
0
LINE
8
BLACK
6
CONTINUOUS
10
220.628
20
-131.766
11
220.247
21
-131.952
0
LINE
8
BLACK
6
CONTINUOUS
10
220.247
20
-131.952
11
219.852
21
-132.106
0
LINE
8
BLACK
6
CONTINUOUS
10
219.852
20
-132.106
11
219.445
21
-132.227
0
LINE
8
BLACK
6
CONTINUOUS
10
219.445
20
-132.227
11
219.03
21
-132.314
0
LINE
8
BLACK
6
CONTINUOUS
10
219.03
20
-132.314
11
218.61
21
-132.366
0
LINE
8
BLACK
6
CONTINUOUS
10
218.61
20
-132.366
11
218.186
21
-132.384
0
LINE
8
BLACK
6
CONTINUOUS
10
218.186
20
-132.384
11
84.836
21
-132.384
0
LINE
8
BLACK
6
CONTINUOUS
10
84.836
20
-132.384
11
84.4124
21
-132.366
0
LINE
8
BLACK
6
CONTINUOUS
10
84.8266
20
-71.4201
11
84.4203
21
-71.4369
0
LINE
8
BLACK
6
CONTINUOUS
10
84.4203
20
-71.4369
11
84.0074
21
-71.4884
0
LINE
8
BLACK
6
CONTINUOUS
10
84.0074
20
-71.4884
11
83.6002
21
-71.5737
0
LINE
8
BLACK
6
CONTINUOUS
10
83.6002
20
-71.5737
11
83.2014
21
-71.6925
0
LINE
8
BLACK
6
CONTINUOUS
10
83.2014
20
-71.6925
11
82.8137
21
-71.8437
0
LINE
8
BLACK
6
CONTINUOUS
10
82.8137
20
-71.8437
11
82.4399
21
-72.0265
0
LINE
8
BLACK
6
CONTINUOUS
10
82.4399
20
-72.0265
11
82.0825
21
-72.2395
0
LINE
8
BLACK
6
CONTINUOUS
10
82.0825
20
-72.2395
11
81.7439
21
-72.4812
0
LINE
8
BLACK
6
CONTINUOUS
10
81.7439
20
-72.4812
11
81.4264
21
-72.7501
0
LINE
8
BLACK
6
CONTINUOUS
10
81.4264
20
-72.7501
11
81.1321
21
-73.0444
0
LINE
8
BLACK
6
CONTINUOUS
10
81.1321
20
-73.0444
11
80.8632
21
-73.3619
0
LINE
8
BLACK
6
CONTINUOUS
10
80.8632
20
-73.3619
11
80.6215
21
-73.7005
0
LINE
8
BLACK
6
CONTINUOUS
10
80.6215
20
-73.7005
11
80.4085
21
-74.0579
0
LINE
8
BLACK
6
CONTINUOUS
10
80.4085
20
-74.0579
11
80.2257
21
-74.4317
0
LINE
8
BLACK
6
CONTINUOUS
10
80.2257
20
-74.4317
11
80.0745
21
-74.8194
0
LINE
8
BLACK
6
CONTINUOUS
10
80.0745
20
-74.8194
11
79.9557
21
-75.2182
0
LINE
8
BLACK
6
CONTINUOUS
10
79.9557
20
-75.2182
11
79.8704
21
-75.6254
0
LINE
8
BLACK
6
CONTINUOUS
10
79.8704
20
-75.6254
11
79.8189
21
-76.0383
0
LINE
8
BLACK
6
CONTINUOUS
10
79.8189
20
-76.0383
11
79.8021
21
-76.4446
0
LINE
8
BLACK
6
CONTINUOUS
10
79.8021
20
-76.4446
11
79.806
21
-76.454
0
LINE
8
BLACK
6
CONTINUOUS
10
79.806
20
-76.454
11
79.806
21
-127.254
0
LINE
8
BLACK
6
CONTINUOUS
10
79.806
20
-127.254
11
79.8021
21
-127.263
0
LINE
8
BLACK
6
CONTINUOUS
10
79.8021
20
-127.263
11
79.8189
21
-127.67
0
LINE
8
BLACK
6
CONTINUOUS
10
79.8189
20
-127.67
11
79.8704
21
-128.083
0
LINE
8
BLACK
6
CONTINUOUS
10
79.8704
20
-128.083
11
79.9557
21
-128.49
0
LINE
8
BLACK
6
CONTINUOUS
10
79.9557
20
-128.49
11
80.0745
21
-128.889
0
LINE
8
BLACK
6
CONTINUOUS
10
80.0745
20
-128.889
11
80.2257
21
-129.276
0
LINE
8
BLACK
6
CONTINUOUS
10
80.2257
20
-129.276
11
80.4085
21
-129.65
0
LINE
8
BLACK
6
CONTINUOUS
10
80.4085
20
-129.65
11
80.6215
21
-130.008
0
LINE
8
BLACK
6
CONTINUOUS
10
80.6215
20
-130.008
11
80.8632
21
-130.346
0
LINE
8
BLACK
6
CONTINUOUS
10
80.8632
20
-130.346
11
81.1321
21
-130.664
0
LINE
8
BLACK
6
CONTINUOUS
10
81.1321
20
-130.664
11
81.4264
21
-130.958
0
LINE
8
BLACK
6
CONTINUOUS
10
81.4264
20
-130.958
11
81.7439
21
-131.227
0
LINE
8
BLACK
6
CONTINUOUS
10
81.7439
20
-131.227
11
82.0825
21
-131.469
0
LINE
8
BLACK
6
CONTINUOUS
10
82.0825
20
-131.469
11
82.4399
21
-131.682
0
LINE
8
BLACK
6
CONTINUOUS
10
82.4399
20
-131.682
11
82.8137
21
-131.864
0
LINE
8
BLACK
6
CONTINUOUS
10
82.8137
20
-131.864
11
83.2014
21
-132.016
0
LINE
8
BLACK
6
CONTINUOUS
10
83.2014
20
-132.016
11
83.6002
21
-132.134
0
LINE
8
BLACK
6
CONTINUOUS
10
83.6002
20
-132.134
11
84.0074
21
-132.22
0
LINE
8
BLACK
6
CONTINUOUS
10
84.0074
20
-132.22
11
84.4203
21
-132.271
0
LINE
8
BLACK
6
CONTINUOUS
10
84.4203
20
-132.271
11
84.8266
21
-132.288
0
LINE
8
BLACK
6
CONTINUOUS
10
84.8266
20
-132.288
11
84.836
21
-132.284
0
LINE
8
BLACK
6
CONTINUOUS
10
84.836
20
-132.284
11
218.186
21
-132.284
0
LINE
8
BLACK
6
CONTINUOUS
10
218.186
20
-132.284
11
218.195
21
-132.288
0
LINE
8
BLACK
6
CONTINUOUS
10
218.195
20
-132.288
11
218.602
21
-132.271
0
LINE
8
BLACK
6
CONTINUOUS
10
218.602
20
-132.271
11
219.015
21
-132.22
0
LINE
8
BLACK
6
CONTINUOUS
10
219.015
20
-132.22
11
219.422
21
-132.134
0
LINE
8
BLACK
6
CONTINUOUS
10
219.422
20
-132.134
11
219.821
21
-132.016
0
LINE
8
BLACK
6
CONTINUOUS
10
219.821
20
-132.016
11
220.208
21
-131.864
0
LINE
8
BLACK
6
CONTINUOUS
10
220.208
20
-131.864
11
220.582
21
-131.682
0
LINE
8
BLACK
6
CONTINUOUS
10
220.582
20
-131.682
11
220.94
21
-131.469
0
LINE
8
BLACK
6
CONTINUOUS
10
220.94
20
-131.469
11
221.278
21
-131.227
0
LINE
8
BLACK
6
CONTINUOUS
10
221.278
20
-131.227
11
221.596
21
-130.958
0
LINE
8
BLACK
6
CONTINUOUS
10
221.596
20
-130.958
11
221.89
21
-130.664
0
LINE
8
BLACK
6
CONTINUOUS
10
221.89
20
-130.664
11
222.159
21
-130.346
0
LINE
8
BLACK
6
CONTINUOUS
10
222.159
20
-130.346
11
222.401
21
-130.008
0
LINE
8
BLACK
6
CONTINUOUS
10
222.401
20
-130.008
11
222.614
21
-129.65
0
LINE
8
BLACK
6
CONTINUOUS
10
222.614
20
-129.65
11
222.796
21
-129.276
0
LINE
8
BLACK
6
CONTINUOUS
10
222.796
20
-129.276
11
222.948
21
-128.889
0
LINE
8
BLACK
6
CONTINUOUS
10
222.948
20
-128.889
11
223.066
21
-128.49
0
LINE
8
BLACK
6
CONTINUOUS
10
223.066
20
-128.49
11
223.152
21
-128.083
0
LINE
8
BLACK
6
CONTINUOUS
10
223.152
20
-128.083
11
223.203
21
-127.67
0
LINE
8
BLACK
6
CONTINUOUS
10
223.203
20
-127.67
11
223.22
21
-127.263
0
LINE
8
BLACK
6
CONTINUOUS
10
223.22
20
-127.263
11
223.216
21
-127.254
0
LINE
8
BLACK
6
CONTINUOUS
10
223.216
20
-127.254
11
223.216
21
-76.454
0
LINE
8
BLACK
6
CONTINUOUS
10
223.216
20
-76.454
11
223.22
21
-76.4446
0
LINE
8
BLACK
6
CONTINUOUS
10
223.22
20
-76.4446
11
223.203
21
-76.0383
0
LINE
8
BLACK
6
CONTINUOUS
10
223.203
20
-76.0383
11
223.152
21
-75.6254
0
LINE
8
BLACK
6
CONTINUOUS
10
223.152
20
-75.6254
11
223.066
21
-75.2182
0
LINE
8
BLACK
6
CONTINUOUS
10
223.066
20
-75.2182
11
222.948
21
-74.8194
0
LINE
8
BLACK
6
CONTINUOUS
10
222.948
20
-74.8194
11
222.796
21
-74.4317
0
LINE
8
BLACK
6
CONTINUOUS
10
222.796
20
-74.4317
11
222.614
21
-74.0579
0
LINE
8
BLACK
6
CONTINUOUS
10
222.614
20
-74.0579
11
222.401
21
-73.7005
0
LINE
8
BLACK
6
CONTINUOUS
10
222.401
20
-73.7005
11
222.159
21
-73.3619
0
LINE
8
BLACK
6
CONTINUOUS
10
222.159
20
-73.3619
11
221.89
21
-73.0444
0
LINE
8
BLACK
6
CONTINUOUS
10
221.89
20
-73.0444
11
221.596
21
-72.7501
0
LINE
8
BLACK
6
CONTINUOUS
10
221.596
20
-72.7501
11
221.278
21
-72.4812
0
LINE
8
BLACK
6
CONTINUOUS
10
221.278
20
-72.4812
11
220.94
21
-72.2395
0
LINE
8
BLACK
6
CONTINUOUS
10
220.94
20
-72.2395
11
220.582
21
-72.0265
0
LINE
8
BLACK
6
CONTINUOUS
10
220.582
20
-72.0265
11
220.208
21
-71.8437
0
LINE
8
BLACK
6
CONTINUOUS
10
220.208
20
-71.8437
11
219.821
21
-71.6925
0
LINE
8
BLACK
6
CONTINUOUS
10
219.821
20
-71.6925
11
219.422
21
-71.5737
0
LINE
8
BLACK
6
CONTINUOUS
10
219.422
20
-71.5737
11
219.015
21
-71.4884
0
LINE
8
BLACK
6
CONTINUOUS
10
219.015
20
-71.4884
11
218.602
21
-71.4369
0
LINE
8
BLACK
6
CONTINUOUS
10
218.602
20
-71.4369
11
218.195
21
-71.4201
0
LINE
8
BLACK
6
CONTINUOUS
10
218.195
20
-71.4201
11
218.186
21
-71.424
0
LINE
8
BLACK
6
CONTINUOUS
10
218.186
20
-71.424
11
84.836
21
-71.424
0
LINE
8
BLACK
6
CONTINUOUS
10
84.836
20
-71.424
11
84.8266
21
-71.4201
  0
ENDSEC
  0
EOF
