  0
SECTION
  2
HEADER
  9
$ANGBASE
  50
0.0
  9
$ANGDIR
  70
1
  9
$MEASUREMENT
  70
1
  0
ENDSEC
  0
SECTION
  2
TABLES
  0
TABLE
  2
LTYPE
  70
4
  0
LTYPE
  5
40F
  2
CONTINUOUS
  70
0
  3
Solid line
  72
65
  73
0
  40
0.0
  0
LTYPE
  5
410
  2
DASHDOT
 70
0
  3
Dash Dot ____ _ ____ _
 72
65
 73
4
 40
2.0
 49
1.25
 49
-0.25
 49
0.25
 49
-0.25
  0
LTYPE
  5
411
  2
DASHED
 70
0
  3
Dashed __ __ __ __ __
 72
65
 73
2
 40
0.75
 49
0.5
 49
-0.25
  0
LTYPE
  5
43B
  2
DOTTED
 70
0
  3
Dotted .  .  .  .
 72
65
 73
2
 40
0.2
 49
0.0
 49
-0.2
  0
ENDTAB
  0
TABLE
  2
STYLE
  70
4
  0
STYLE
  2
KICAD
  70
0
  40
0
  41
1
  42
1
  50
0
  71
0
  3
isocp.shx
  0
STYLE
  2
KICADB
  70
0
  40
0
  41
1
  42
1
  50
0
  71
0
  3
isocp.shx
  0
STYLE
  2
KICADI
  70
0
  40
0
  41
1
  42
1
  50
15
  71
0
  3
isocp.shx
  0
STYLE
  2
KICADBI
  70
0
  40
0
  41
1
  42
1
  50
15
  71
0
  3
isocp.shx
  0
ENDTAB
  0
TABLE
  2
LAYER
  70
1
  0
LAYER
  2
BLACK
  70
0
  62
7
  6
CONTINUOUS
  0
ENDTAB
  0
ENDSEC
  0
SECTION
  2
ENTITIES
0
CIRCLE
8
BLACK
10
130.556
20
-88.9
40
0.55
0
CIRCLE
8
BLACK
10
133.096
20
-88.9
40
0.55
0
CIRCLE
8
BLACK
10
135.636
20
-88.9
40
0.55
0
CIRCLE
8
BLACK
10
138.176
20
-80.772
40
0.4
0
CIRCLE
8
BLACK
10
128.016
20
-80.772
40
0.4
0
CIRCLE
8
BLACK
10
134.112
20
-98.044
40
0.55
0
CIRCLE
8
BLACK
10
144.272
20
-98.044
40
0.55
0
CIRCLE
8
BLACK
10
218.186
20
-106.934
40
0.65
0
CIRCLE
8
BLACK
10
218.186
20
-99.314
40
0.65
0
CIRCLE
8
BLACK
10
168.656
20
-86.614
40
0.5
0
CIRCLE
8
BLACK
10
171.196
20
-86.614
40
0.5
0
CIRCLE
8
BLACK
10
168.656
20
-89.154
40
0.5
0
CIRCLE
8
BLACK
10
171.196
20
-89.154
40
0.5
0
CIRCLE
8
BLACK
10
168.656
20
-91.694
40
0.5
0
CIRCLE
8
BLACK
10
171.196
20
-91.694
40
0.5
0
CIRCLE
8
BLACK
10
168.656
20
-94.234
40
0.5
0
CIRCLE
8
BLACK
10
171.196
20
-94.234
40
0.5
0
CIRCLE
8
BLACK
10
168.656
20
-96.774
40
0.5
0
CIRCLE
8
BLACK
10
171.196
20
-96.774
40
0.5
0
CIRCLE
8
BLACK
10
93.032
20
-86.158
40
0.55
0
CIRCLE
8
BLACK
10
82.872
20
-86.158
40
0.55
0
CIRCLE
8
BLACK
10
93.032
20
-91.238
40
0.55
0
CIRCLE
8
BLACK
10
82.872
20
-91.238
40
0.55
0
CIRCLE
8
BLACK
10
84.836
20
-76.454
40
2.15
0
CIRCLE
8
BLACK
10
93.032
20
-101.398
40
0.55
0
CIRCLE
8
BLACK
10
82.872
20
-101.398
40
0.55
0
CIRCLE
8
BLACK
10
145.796
20
-119.38
40
1.25
0
CIRCLE
8
BLACK
10
120.396
20
-119.38
40
1.25
0
CIRCLE
8
BLACK
10
105.156
20
-106.934
40
0.6
0
CIRCLE
8
BLACK
10
105.156
20
-114.434
40
0.6
0
CIRCLE
8
BLACK
10
206.502
20
-86.614
40
0.5
0
CIRCLE
8
BLACK
10
209.042
20
-86.614
40
0.5
0
CIRCLE
8
BLACK
10
206.502
20
-89.154
40
0.5
0
CIRCLE
8
BLACK
10
209.042
20
-89.154
40
0.5
0
CIRCLE
8
BLACK
10
206.502
20
-91.694
40
0.5
0
CIRCLE
8
BLACK
10
209.042
20
-91.694
40
0.5
0
CIRCLE
8
BLACK
10
206.502
20
-94.234
40
0.5
0
CIRCLE
8
BLACK
10
209.042
20
-94.234
40
0.5
0
CIRCLE
8
BLACK
10
206.502
20
-96.774
40
0.5
0
CIRCLE
8
BLACK
10
209.042
20
-96.774
40
0.5
0
CIRCLE
8
BLACK
10
153.162
20
-104.394
40
0.4
0
CIRCLE
8
BLACK
10
153.162
20
-106.934
40
0.4
0
CIRCLE
8
BLACK
10
153.162
20
-109.474
40
0.4
0
CIRCLE
8
BLACK
10
124.206
20
-104.434
40
0.4
0
CIRCLE
8
BLACK
10
124.206
20
-109.434
40
0.4
0
CIRCLE
8
BLACK
10
206.376
20
-109.474
40
0.5
0
CIRCLE
8
BLACK
10
208.916
20
-109.474
40
0.5
0
CIRCLE
8
BLACK
10
206.376
20
-112.014
40
0.5
0
CIRCLE
8
BLACK
10
208.916
20
-112.014
40
0.5
0
CIRCLE
8
BLACK
10
206.376
20
-114.554
40
0.5
0
CIRCLE
8
BLACK
10
208.916
20
-114.554
40
0.5
0
CIRCLE
8
BLACK
10
206.376
20
-117.094
40
0.5
0
CIRCLE
8
BLACK
10
208.916
20
-117.094
40
0.5
0
CIRCLE
8
BLACK
10
206.376
20
-119.634
40
0.5
0
CIRCLE
8
BLACK
10
208.916
20
-119.634
40
0.5
0
CIRCLE
8
BLACK
10
194.056
20
-86.614
40
0.5
0
CIRCLE
8
BLACK
10
196.596
20
-86.614
40
0.5
0
CIRCLE
8
BLACK
10
194.056
20
-89.154
40
0.5
0
CIRCLE
8
BLACK
10
196.596
20
-89.154
40
0.5
0
CIRCLE
8
BLACK
10
194.056
20
-91.694
40
0.5
0
CIRCLE
8
BLACK
10
196.596
20
-91.694
40
0.5
0
CIRCLE
8
BLACK
10
194.056
20
-94.234
40
0.5
0
CIRCLE
8
BLACK
10
196.596
20
-94.234
40
0.5
0
CIRCLE
8
BLACK
10
194.056
20
-96.774
40
0.5
0
CIRCLE
8
BLACK
10
196.596
20
-96.774
40
0.5
0
CIRCLE
8
BLACK
10
168.656
20
-109.474
40
0.5
0
CIRCLE
8
BLACK
10
171.196
20
-109.474
40
0.5
0
CIRCLE
8
BLACK
10
168.656
20
-112.014
40
0.5
0
CIRCLE
8
BLACK
10
171.196
20
-112.014
40
0.5
0
CIRCLE
8
BLACK
10
168.656
20
-114.554
40
0.5
0
CIRCLE
8
BLACK
10
171.196
20
-114.554
40
0.5
0
CIRCLE
8
BLACK
10
168.656
20
-117.094
40
0.5
0
CIRCLE
8
BLACK
10
171.196
20
-117.094
40
0.5
0
CIRCLE
8
BLACK
10
168.656
20
-119.634
40
0.5
0
CIRCLE
8
BLACK
10
171.196
20
-119.634
40
0.5
0
CIRCLE
8
BLACK
10
160.528
20
-96.814
40
0.4
0
CIRCLE
8
BLACK
10
160.528
20
-99.314
40
0.4
0
CIRCLE
8
BLACK
10
105.156
20
-88.2162
40
0.6
0
CIRCLE
8
BLACK
10
105.156
20
-95.7162
40
0.6
0
CIRCLE
8
BLACK
10
138.176
20
-123.952
40
0.4
0
CIRCLE
8
BLACK
10
128.016
20
-123.952
40
0.4
0
CIRCLE
8
BLACK
10
130.556
20
-94.274
40
0.4
0
CIRCLE
8
BLACK
10
130.556
20
-99.274
40
0.4
0
CIRCLE
8
BLACK
10
145.796
20
-84.328
40
1.25
0
CIRCLE
8
BLACK
10
120.396
20
-84.328
40
1.25
0
CIRCLE
8
BLACK
10
218.186
20
-76.454
40
2.15
0
CIRCLE
8
BLACK
10
218.186
20
-127.254
40
2.15
0
CIRCLE
8
BLACK
10
128.016
20
-75.819
40
0.55
0
CIRCLE
8
BLACK
10
138.176
20
-75.819
40
0.55
0
CIRCLE
8
BLACK
10
154.686
20
-127.254
40
2.15
0
CIRCLE
8
BLACK
10
218.186
20
-119.634
40
0.5
0
CIRCLE
8
BLACK
10
194.056
20
-109.474
40
0.5
0
CIRCLE
8
BLACK
10
196.596
20
-109.474
40
0.5
0
CIRCLE
8
BLACK
10
194.056
20
-112.014
40
0.5
0
CIRCLE
8
BLACK
10
196.596
20
-112.014
40
0.5
0
CIRCLE
8
BLACK
10
194.056
20
-114.554
40
0.5
0
CIRCLE
8
BLACK
10
196.596
20
-114.554
40
0.5
0
CIRCLE
8
BLACK
10
194.056
20
-117.094
40
0.5
0
CIRCLE
8
BLACK
10
196.596
20
-117.094
40
0.5
0
CIRCLE
8
BLACK
10
194.056
20
-119.634
40
0.5
0
CIRCLE
8
BLACK
10
196.596
20
-119.634
40
0.5
0
CIRCLE
8
BLACK
10
181.356
20
-86.614
40
0.5
0
CIRCLE
8
BLACK
10
183.896
20
-86.614
40
0.5
0
CIRCLE
8
BLACK
10
181.356
20
-89.154
40
0.5
0
CIRCLE
8
BLACK
10
183.896
20
-89.154
40
0.5
0
CIRCLE
8
BLACK
10
181.356
20
-91.694
40
0.5
0
CIRCLE
8
BLACK
10
183.896
20
-91.694
40
0.5
0
CIRCLE
8
BLACK
10
181.356
20
-94.234
40
0.5
0
CIRCLE
8
BLACK
10
183.896
20
-94.234
40
0.5
0
CIRCLE
8
BLACK
10
181.356
20
-96.774
40
0.5
0
CIRCLE
8
BLACK
10
183.896
20
-96.774
40
0.5
0
CIRCLE
8
BLACK
10
154.686
20
-76.454
40
2.15
0
CIRCLE
8
BLACK
10
181.356
20
-109.474
40
0.5
0
CIRCLE
8
BLACK
10
183.896
20
-109.474
40
0.5
0
CIRCLE
8
BLACK
10
181.356
20
-112.014
40
0.5
0
CIRCLE
8
BLACK
10
183.896
20
-112.014
40
0.5
0
CIRCLE
8
BLACK
10
181.356
20
-114.554
40
0.5
0
CIRCLE
8
BLACK
10
183.896
20
-114.554
40
0.5
0
CIRCLE
8
BLACK
10
181.356
20
-117.094
40
0.5
0
CIRCLE
8
BLACK
10
183.896
20
-117.094
40
0.5
0
CIRCLE
8
BLACK
10
181.356
20
-119.634
40
0.5
0
CIRCLE
8
BLACK
10
183.896
20
-119.634
40
0.5
0
CIRCLE
8
BLACK
10
84.836
20
-127.254
40
2.15
0
CIRCLE
8
BLACK
10
128.016
20
-129.159
40
0.55
0
CIRCLE
8
BLACK
10
138.176
20
-129.159
40
0.55
0
CIRCLE
8
BLACK
10
85.716
20
-110.744
40
0.7
0
CIRCLE
8
BLACK
10
89.916
20
-110.744
40
0.7
0
CIRCLE
8
BLACK
10
85.716
20
-116.244
40
0.7
0
CIRCLE
8
BLACK
10
89.916
20
-116.244
40
0.7
0
CIRCLE
8
BLACK
10
124.206
20
-94.274
40
0.4
0
CIRCLE
8
BLACK
10
124.206
20
-99.274
40
0.4
0
CIRCLE
8
BLACK
10
130.556
20
-104.434
40
0.4
0
CIRCLE
8
BLACK
10
130.556
20
-109.434
40
0.4
0
CIRCLE
8
BLACK
10
93.032
20
-96.318
40
0.55
0
CIRCLE
8
BLACK
10
82.872
20
-96.318
40
0.55
0
CIRCLE
8
BLACK
10
160.528
20
-106.974
40
0.4
0
CIRCLE
8
BLACK
10
160.528
20
-109.474
40
0.4
0
CIRCLE
8
BLACK
10
218.186
20
-86.614
40
0.5
0
CIRCLE
8
BLACK
10
135.89
20
-114.808
40
0.55
0
CIRCLE
8
BLACK
10
133.35
20
-114.808
40
0.55
0
CIRCLE
8
BLACK
10
130.81
20
-114.808
40
0.55
0
CIRCLE
8
BLACK
10
153.162
20
-94.224
40
0.4
0
CIRCLE
8
BLACK
10
153.162
20
-96.764
40
0.4
0
CIRCLE
8
BLACK
10
153.162
20
-99.304
40
0.4
0
CIRCLE
8
BLACK
10
134.112
20
-105.918
40
0.55
0
CIRCLE
8
BLACK
10
144.272
20
-105.918
40
0.55
  0
ENDSEC
  0
EOF
