<?xml version="1.0" standalone="no"?>
 <!DOCTYPE svg PUBLIC "-//W3C//DTD SVG 1.1//EN" 
 "http://www.w3.org/Graphics/SVG/1.1/DTD/svg11.dtd"> 
<svg
  xmlns:svg="http://www.w3.org/2000/svg"
  xmlns="http://www.w3.org/2000/svg"
  xmlns:xlink="http://www.w3.org/1999/xlink"
  version="1.1"
  width="152.4000mm" height="99.0600mm" viewBox="0.0000 0.0000 152.4000 99.0600">
<title>SVG Image created as mod_osc_pcb_panel_front.svg date 2023/03/27 09:41:57 </title>
  <desc>Image generated by PCBNEW </desc>
<g style="fill:#000000; fill-opacity:1.0000;stroke:#000000; stroke-opacity:1.0000;
stroke-linecap:round; stroke-linejoin:round;"
 transform="translate(0 0) scale(1 1)">
</g>
<g style="fill:#000000; fill-opacity:0.0; 
stroke:#000000; stroke-width:0.0000; stroke-opacity:1; 
stroke-linecap:round; stroke-linejoin:round;">
<g >
</g>
<g style="fill:#000000; fill-opacity:1.0000; 
stroke:#000000; stroke-width:0.0000; stroke-opacity:1; 
stroke-linecap:round; stroke-linejoin:round;">
<circle cx="36.1950" cy="59.0550" r="1.0000" /> 
</g>
<g style="fill:#000000; fill-opacity:1.0000; 
stroke:#000000; stroke-width:0.0212; stroke-opacity:1; 
stroke-linecap:round; stroke-linejoin:round;">
</g>
<g >
</g>
<g >
</g>
<g >
</g>
<g >
</g>
<g style="fill:#000000; fill-opacity:1.0000; 
stroke:#000000; stroke-width:0.0212; stroke-opacity:1; 
stroke-linecap:round; stroke-linejoin:round;">
<g >
</g>
<g style="fill:#000000; fill-opacity:1.0000; 
stroke:#000000; stroke-width:0.0000; stroke-opacity:1; 
stroke-linecap:round; stroke-linejoin:round;">
<path style="fill:#000000; fill-opacity:1.0000; 
stroke:#000000; stroke-width:0.0000; stroke-opacity:1; 
stroke-linecap:round; stroke-linejoin:round;fill-rule:evenodd;"
d="M 145.3850,3.0500
145.3999,3.0523
145.3999,3.0523
145.4087,3.0537
145.4292,3.0510
145.4510,3.0501
145.8079,3.0657
145.8189,3.0666
146.2034,3.1172
146.2142,3.1191
146.5928,3.2031
146.6034,3.2059
146.7737,3.2596
146.9733,3.3225
146.9836,3.3263
147.3419,3.4747
147.3519,3.4794
147.6959,3.6584
147.7054,3.6639
148.0325,3.8723
148.0415,3.8786
148.3491,4.1147
148.3576,4.1217
148.6435,4.3837
148.6513,4.3915
148.9133,4.6774
148.9203,4.6859
149.1564,4.9935
149.1627,5.0025
149.3711,5.3296
149.3766,5.3391
149.5556,5.6831
149.5603,5.6931
149.7087,6.0514
149.7125,6.0617
149.8291,6.4316
149.8319,6.4422
149.9159,6.8208
149.9178,6.8316
149.9684,7.2161
149.9693,7.2271
149.9846,7.5766
149.9832,7.6014
149.9813,7.6137
149.9825,7.6226
149.9825,7.6226
149.9854,7.6453
149.9865,7.6616
149.9865,91.3906
149.9850,91.4100
149.9827,91.4249
149.9827,91.4249
149.9813,91.4337
149.9840,91.4542
149.9849,91.4760
149.9693,91.8329
149.9684,91.8439
149.9178,92.2284
149.9159,92.2392
149.8319,92.6178
149.8291,92.6284
149.7125,92.9983
149.7087,93.0086
149.5603,93.3669
149.5556,93.3769
149.3766,93.7209
149.3711,93.7304
149.1627,94.0575
149.1564,94.0665
148.9203,94.3741
148.9133,94.3826
148.6513,94.6685
148.6435,94.6763
148.3576,94.9383
148.3491,94.9453
148.0415,95.1814
148.0325,95.1877
147.7054,95.3961
147.6959,95.4016
147.3519,95.5806
147.3419,95.5853
146.9836,95.7337
146.9733,95.7375
146.7737,95.8004
146.6034,95.8541
146.5928,95.8569
146.2142,95.9409
146.2034,95.9428
145.8189,95.9934
145.8079,95.9943
145.4584,96.0096
145.4336,96.0082
145.4213,96.0063
145.4124,96.0075
145.4124,96.0075
145.3973,96.0094
145.3897,96.0104
145.3734,96.0115
7.6694,96.0115
7.6500,96.0100
7.6351,96.0077
7.6351,96.0077
7.6263,96.0063
7.6058,96.0090
7.5840,96.0099
7.2271,95.9943
7.2161,95.9934
6.8316,95.9428
6.8208,95.9409
6.4422,95.8569
6.4316,95.8541
6.2613,95.8004
6.0617,95.7375
6.0514,95.7337
5.6931,95.5853
5.6831,95.5806
5.3391,95.4016
5.3296,95.3961
5.0025,95.1877
4.9935,95.1814
4.6859,94.9453
4.6774,94.9383
4.3915,94.6763
4.3837,94.6685
4.1217,94.3826
4.1147,94.3741
3.8786,94.0665
3.8723,94.0575
3.6639,93.7304
3.6584,93.7209
3.4794,93.3769
3.4747,93.3669
3.3263,93.0086
3.3225,92.9983
3.2059,92.6284
3.2031,92.6178
3.1191,92.2392
3.1172,92.2284
3.0666,91.8439
3.0657,91.8329
3.0506,91.4872
3.0522,91.4608
3.0528,91.4574
3.0528,91.4573
3.0536,91.4526
3.0537,91.4400
3.0498,91.4124
3.0485,91.3945
3.0485,72.3900
76.9564,72.3900
76.9767,72.7756
76.9772,72.7788
76.9772,72.7788
77.0050,72.9544
77.0370,73.1569
77.1370,73.5298
77.2753,73.8903
77.2768,73.8932
77.4206,74.1753
77.4506,74.2343
77.6609,74.5581
77.9039,74.8581
78.1769,75.1311
78.4769,75.3741
78.8007,75.5844
78.8037,75.5859
78.8037,75.5859
79.0122,75.6922
79.1447,75.7597
79.5052,75.8980
79.8781,75.9980
80.0806,76.0300
80.2562,76.0578
80.2562,76.0578
80.2594,76.0583
80.6450,76.0786
81.0306,76.0583
81.0338,76.0578
81.0338,76.0578
81.2094,76.0300
81.4119,75.9980
81.7848,75.8980
82.1453,75.7597
82.2778,75.6922
82.4863,75.5859
82.4863,75.5859
82.4893,75.5844
82.8131,75.3741
83.1131,75.1311
83.3861,74.8581
83.6291,74.5581
83.8394,74.2343
83.8694,74.1753
84.0132,73.8932
84.0147,73.8903
84.1530,73.5298
84.2530,73.1569
84.2850,72.9544
84.3128,72.7788
84.3128,72.7788
84.3133,72.7756
84.3336,72.3900
119.8825,72.3900
119.8827,72.3927
119.8995,72.7788
119.9024,72.8443
119.9617,73.2951
120.0601,73.7391
120.0610,73.7417
120.0610,73.7417
120.1254,73.9460
120.1969,74.1728
120.3709,74.5929
120.5809,74.9962
120.8252,75.3797
120.8269,75.3819
120.8269,75.3819
121.0649,75.6922
121.1020,75.7405
121.4092,76.0758
121.7445,76.3830
121.7467,76.3846
121.7467,76.3846
121.9635,76.5510
122.1053,76.6598
122.4888,76.9041
122.8921,77.1141
123.3122,77.2881
123.3149,77.2889
123.3149,77.2889
123.7433,77.4240
123.7433,77.4240
123.7459,77.4249
124.1899,77.5233
124.1926,77.5236
124.1926,77.5236
124.3615,77.5459
124.6407,77.5826
124.6435,77.5827
124.6435,77.5827
125.0923,77.6023
125.0950,77.6025
125.0977,77.6023
125.5465,77.5827
125.5465,77.5827
125.5493,77.5826
125.8285,77.5459
125.9974,77.5236
125.9974,77.5236
126.0001,77.5233
126.4441,77.4249
126.4467,77.4240
126.4467,77.4240
126.8751,77.2889
126.8751,77.2889
126.8778,77.2881
127.2979,77.1141
127.7012,76.9041
128.0847,76.6598
128.2265,76.5510
128.4433,76.3846
128.4433,76.3846
128.4455,76.3830
128.7808,76.0758
129.0880,75.7405
129.1251,75.6922
129.3631,75.3819
129.3631,75.3819
129.3648,75.3797
129.6091,74.9962
129.8191,74.5929
129.9931,74.1728
130.0646,73.9460
130.1290,73.7417
130.1290,73.7417
130.1299,73.7391
130.2283,73.2951
130.2876,72.8443
130.2905,72.7788
130.3073,72.3927
130.3075,72.3900
130.3049,72.3315
130.2877,71.9385
130.2877,71.9385
130.2876,71.9357
130.2403,71.5761
130.2286,71.4876
130.2286,71.4876
130.2283,71.4849
130.1299,71.0409
130.0347,70.7392
129.9939,70.6099
129.9939,70.6099
129.9931,70.6072
129.8191,70.1871
129.6091,69.7838
129.3648,69.4003
129.2092,69.1974
129.0896,69.0417
129.0896,69.0417
129.0880,69.0395
128.7808,68.7042
128.4455,68.3970
128.4433,68.3954
128.4433,68.3954
128.0869,68.1219
128.0869,68.1219
128.0847,68.1202
127.7012,67.8759
127.2979,67.6659
126.8778,67.4919
126.8751,67.4911
126.8751,67.4911
126.4467,67.3560
126.4467,67.3560
126.4441,67.3551
126.0001,67.2567
125.9974,67.2564
125.9974,67.2564
125.8285,67.2341
125.5493,67.1974
125.5465,67.1973
125.5465,67.1973
125.0977,67.1777
125.0950,67.1775
125.0923,67.1777
124.6435,67.1973
124.6435,67.1973
124.6407,67.1974
124.3615,67.2341
124.1926,67.2564
124.1926,67.2564
124.1899,67.2567
123.7459,67.3551
123.7433,67.3560
123.7433,67.3560
123.3149,67.4911
123.3149,67.4911
123.3122,67.4919
122.8921,67.6659
122.4888,67.8759
122.1053,68.1202
122.1031,68.1219
122.1031,68.1219
121.7467,68.3954
121.7467,68.3954
121.7445,68.3970
121.4092,68.7042
121.1020,69.0395
121.1004,69.0417
121.1004,69.0417
120.9808,69.1974
120.8252,69.4003
120.5809,69.7838
120.3709,70.1871
120.1969,70.6072
120.1961,70.6099
120.1961,70.6099
120.1553,70.7392
120.0601,71.0409
119.9617,71.4849
119.9614,71.4876
119.9614,71.4876
119.9497,71.5761
119.9024,71.9357
119.8851,72.3315
119.8825,72.3900
84.3336,72.3900
84.3133,72.0044
84.3004,71.9229
84.2535,71.6264
84.2530,71.6231
84.1530,71.2502
84.0147,70.8897
83.9380,70.7392
83.8409,70.5487
83.8409,70.5487
83.8394,70.5457
83.6291,70.2219
83.3861,69.9219
83.1131,69.6489
82.8131,69.4059
82.4893,69.1956
82.4863,69.1941
82.4863,69.1941
82.1482,69.0218
82.1453,69.0203
81.7848,68.8820
81.4119,68.7820
81.2094,68.7500
81.0338,68.7222
81.0338,68.7222
81.0306,68.7217
80.6450,68.7014
80.2594,68.7217
80.2562,68.7222
80.2562,68.7222
80.0806,68.7500
79.8781,68.7820
79.5052,68.8820
79.1447,69.0203
79.1418,69.0218
78.8037,69.1941
78.8037,69.1941
78.8007,69.1956
78.4769,69.4059
78.1769,69.6489
77.9039,69.9219
77.6609,70.2219
77.4506,70.5457
77.4491,70.5487
77.4491,70.5487
77.3520,70.7392
77.2753,70.8897
77.1370,71.2502
77.0370,71.6231
77.0365,71.6264
76.9896,71.9229
76.9767,72.0044
76.9579,72.3621
76.9564,72.3900
3.0485,72.3900
3.0485,60.2877
35.3272,60.2877
35.3329,60.2953
35.5040,60.4002
35.5128,60.4047
35.7230,60.4917
35.7324,60.4948
35.9536,60.5479
35.9633,60.5494
36.1901,60.5673
36.1999,60.5673
36.4267,60.5494
36.4364,60.5479
36.6576,60.4948
36.6670,60.4917
36.8772,60.4047
36.8860,60.4002
37.0534,60.2976
37.0629,60.2871
37.0591,60.2783
36.2078,59.4270
36.1939,59.4194
36.1920,59.4195
36.1854,59.4238
35.3339,60.2753
35.3272,60.2877
3.0485,60.2877
3.0485,59.0599
34.6827,59.0599
34.7006,59.2867
34.7021,59.2964
34.7552,59.5176
34.7583,59.5270
34.8453,59.7372
34.8498,59.7460
34.9524,59.9134
34.9629,59.9229
34.9717,59.9191
35.8230,59.0678
35.8294,59.0561
36.5594,59.0561
36.5595,59.0580
36.5638,59.0646
37.4153,59.9161
37.4277,59.9228
37.4353,59.9171
37.5402,59.7460
37.5447,59.7372
37.6317,59.5270
37.6348,59.5176
37.6879,59.2964
37.6894,59.2867
37.7073,59.0599
37.7073,59.0501
37.6894,58.8233
37.6879,58.8136
37.6348,58.5924
37.6317,58.5830
37.5447,58.3728
37.5402,58.3640
37.4376,58.1966
37.4271,58.1871
37.4183,58.1909
36.5670,59.0422
36.5594,59.0561
35.8294,59.0561
35.8306,59.0539
35.8305,59.0520
35.8262,59.0454
34.9747,58.1939
34.9623,58.1872
34.9547,58.1929
34.8498,58.3640
34.8453,58.3728
34.7583,58.5830
34.7552,58.5924
34.7021,58.8136
34.7006,58.8233
34.6827,59.0501
34.6827,59.0599
3.0485,59.0599
3.0485,57.8229
35.3271,57.8229
35.3309,57.8317
36.1822,58.6830
36.1961,58.6906
36.1980,58.6905
36.2046,58.6862
37.0561,57.8347
37.0628,57.8223
37.0571,57.8147
36.8860,57.7098
36.8772,57.7053
36.6670,57.6183
36.6576,57.6152
36.4364,57.5621
36.4267,57.5606
36.1999,57.5427
36.1901,57.5427
35.9633,57.5606
35.9536,57.5621
35.7324,57.6152
35.7230,57.6183
35.5128,57.7053
35.5040,57.7098
35.3366,57.8124
35.3271,57.8229
3.0485,57.8229
3.0485,50.1650
30.9825,50.1650
30.9827,50.1677
30.9978,50.5157
31.0024,50.6193
31.0617,51.0701
31.1601,51.5141
31.1610,51.5167
31.1610,51.5167
31.2212,51.7076
31.2969,51.9478
31.4709,52.3679
31.6809,52.7712
31.9252,53.1547
31.9269,53.1569
31.9269,53.1569
32.1649,53.4672
32.2020,53.5155
32.5092,53.8508
32.8445,54.1580
32.8467,54.1596
32.8467,54.1596
33.0635,54.3260
33.2053,54.4348
33.5888,54.6791
33.9921,54.8891
34.4122,55.0631
34.4149,55.0639
34.4149,55.0639
34.8433,55.1990
34.8433,55.1990
34.8459,55.1999
35.2899,55.2983
35.2926,55.2986
35.2926,55.2986
35.4615,55.3209
35.7407,55.3576
35.7435,55.3577
35.7435,55.3577
36.1923,55.3773
36.1950,55.3775
36.1977,55.3773
36.6465,55.3577
36.6465,55.3577
36.6493,55.3576
36.9285,55.3209
37.0974,55.2986
37.0974,55.2986
37.1001,55.2983
37.5441,55.1999
37.5467,55.1990
37.5467,55.1990
37.9751,55.0639
37.9751,55.0639
37.9778,55.0631
38.3979,54.8891
38.8012,54.6791
39.1847,54.4348
39.3265,54.3260
39.5433,54.1596
39.5433,54.1596
39.5455,54.1580
39.8808,53.8508
40.1880,53.5155
40.2251,53.4672
40.4631,53.1569
40.4631,53.1569
40.4648,53.1547
40.7091,52.7712
40.9191,52.3679
41.0931,51.9478
41.1688,51.7076
41.2290,51.5167
41.2290,51.5167
41.2299,51.5141
41.3283,51.0701
41.3876,50.6193
41.3922,50.5157
41.4073,50.1677
41.4075,50.1650
41.4049,50.1065
41.3877,49.7135
41.3877,49.7135
41.3876,49.7107
41.3403,49.3511
41.3286,49.2626
41.3286,49.2626
41.3283,49.2599
41.2299,48.8159
41.0931,48.3822
40.9191,47.9621
40.7091,47.5588
40.4648,47.1753
40.2813,46.9362
40.1896,46.8167
40.1896,46.8167
40.1880,46.8145
39.8808,46.4792
39.5455,46.1720
39.5433,46.1704
39.5433,46.1704
39.1869,45.8969
39.1869,45.8969
39.1847,45.8952
38.8012,45.6509
38.3979,45.4409
37.9778,45.2669
37.9751,45.2661
37.9751,45.2661
37.5467,45.1310
37.5467,45.1310
37.5441,45.1301
37.1001,45.0317
37.0974,45.0314
37.0974,45.0314
36.9285,45.0091
36.6493,44.9724
36.6465,44.9723
36.6465,44.9723
36.1977,44.9527
36.1950,44.9525
36.1923,44.9527
35.7435,44.9723
35.7435,44.9723
35.7407,44.9724
35.4615,45.0091
35.2926,45.0314
35.2926,45.0314
35.2899,45.0317
34.8459,45.1301
34.8433,45.1310
34.8433,45.1310
34.4149,45.2661
34.4149,45.2661
34.4122,45.2669
33.9921,45.4409
33.5888,45.6509
33.2053,45.8952
33.2031,45.8969
33.2031,45.8969
32.8467,46.1704
32.8467,46.1704
32.8445,46.1720
32.5092,46.4792
32.2020,46.8145
32.2004,46.8167
32.2004,46.8167
32.1087,46.9362
31.9252,47.1753
31.6809,47.5588
31.4709,47.9621
31.2969,48.3822
31.1601,48.8159
31.0617,49.2599
31.0614,49.2626
31.0614,49.2626
31.0497,49.3511
31.0024,49.7107
30.9851,50.1065
30.9825,50.1650
3.0485,50.1650
3.0485,27.7994
76.1712,27.7994
76.1733,27.9279
76.1779,28.2210
76.2241,28.6402
76.2247,28.6431
76.2247,28.6431
76.3049,29.0302
76.3097,29.0531
76.4336,29.4562
76.5950,29.8458
76.7923,30.2185
76.7940,30.2209
76.7940,30.2209
76.8660,30.3306
77.0239,30.5709
77.2875,30.9000
77.5810,31.2028
77.5832,31.2048
77.7999,31.3898
77.9016,31.4767
78.2467,31.7192
78.3533,31.7800
78.6104,31.9266
78.6104,31.9267
78.6130,31.9281
78.9973,32.1017
79.3962,32.2382
79.3991,32.2389
79.3991,32.2389
79.8034,32.3360
79.8034,32.3360
79.8063,32.3367
79.8092,32.3371
79.8092,32.3371
80.0124,32.3660
80.2238,32.3961
80.6450,32.4160
81.0662,32.3961
81.2776,32.3660
81.4808,32.3371
81.4808,32.3371
81.4837,32.3367
81.4866,32.3360
81.4866,32.3360
81.8909,32.2389
81.8909,32.2389
81.8938,32.2382
82.2927,32.1017
82.6770,31.9281
82.6796,31.9267
82.6796,31.9266
82.9367,31.7800
83.0433,31.7192
83.3884,31.4767
83.4901,31.3898
83.7068,31.2048
83.7090,31.2028
84.0025,30.9000
84.2661,30.5709
84.4240,30.3306
84.4960,30.2209
84.4960,30.2209
84.4977,30.2185
84.6950,29.8458
84.8564,29.4562
84.9803,29.0531
84.9851,29.0302
85.0653,28.6431
85.0653,28.6431
85.0659,28.6402
85.1121,28.2210
85.1210,27.9400
119.8825,27.9400
119.8827,27.9427
119.8999,28.3370
119.9024,28.3943
119.9617,28.8451
120.0601,29.2891
120.0610,29.2917
120.0610,29.2917
120.1924,29.7085
120.1969,29.7228
120.3709,30.1429
120.5809,30.5462
120.8252,30.9297
120.8269,30.9319
120.8269,30.9319
121.0886,31.2731
121.1020,31.2905
121.4092,31.6258
121.7445,31.9330
121.7467,31.9346
121.7467,31.9346
121.9858,32.1181
122.1053,32.2098
122.4888,32.4541
122.8921,32.6641
123.3122,32.8381
123.3149,32.8389
123.3149,32.8389
123.7433,32.9740
123.7433,32.9740
123.7459,32.9749
124.1899,33.0733
124.1926,33.0736
124.1926,33.0736
124.3615,33.0959
124.6407,33.1326
124.6435,33.1327
124.6435,33.1327
125.0923,33.1523
125.0950,33.1525
125.0977,33.1523
125.5465,33.1327
125.5465,33.1327
125.5493,33.1326
125.8285,33.0959
125.9974,33.0736
125.9974,33.0736
126.0001,33.0733
126.4441,32.9749
126.4467,32.9740
126.4467,32.9740
126.8751,32.8389
126.8751,32.8389
126.8778,32.8381
127.2979,32.6641
127.7012,32.4541
128.0847,32.2098
128.2042,32.1181
128.4433,31.9346
128.4433,31.9346
128.4455,31.9330
128.7808,31.6258
129.0880,31.2905
129.1014,31.2731
129.3631,30.9319
129.3631,30.9319
129.3648,30.9297
129.6091,30.5462
129.8191,30.1429
129.9931,29.7228
129.9976,29.7085
130.1290,29.2917
130.1290,29.2917
130.1299,29.2891
130.2283,28.8451
130.2876,28.3943
130.2901,28.3370
130.3073,27.9427
130.3075,27.9400
130.2912,27.5670
130.2877,27.4885
130.2877,27.4885
130.2876,27.4857
130.2374,27.1042
130.2286,27.0376
130.2286,27.0376
130.2283,27.0349
130.1299,26.5909
130.0357,26.2923
129.9939,26.1599
129.9939,26.1599
129.9931,26.1572
129.8191,25.7371
129.6091,25.3338
129.3648,24.9503
129.3145,24.8847
129.0896,24.5917
129.0896,24.5917
129.0880,24.5895
128.7808,24.2542
128.4455,23.9470
128.4433,23.9454
128.4433,23.9454
128.0869,23.6719
128.0869,23.6719
128.0847,23.6702
127.7012,23.4259
127.2979,23.2159
126.8778,23.0419
126.8751,23.0411
126.8751,23.0411
126.4467,22.9060
126.4467,22.9060
126.4441,22.9051
126.0001,22.8067
125.9974,22.8064
125.9974,22.8064
125.8285,22.7841
125.5493,22.7474
125.5465,22.7473
125.5465,22.7473
125.0977,22.7277
125.0950,22.7275
125.0923,22.7277
124.6435,22.7473
124.6435,22.7473
124.6407,22.7474
124.3615,22.7841
124.1926,22.8064
124.1926,22.8064
124.1899,22.8067
123.7459,22.9051
123.7433,22.9060
123.7433,22.9060
123.3149,23.0411
123.3149,23.0411
123.3122,23.0419
122.8921,23.2159
122.4888,23.4259
122.1053,23.6702
122.1031,23.6719
122.1031,23.6719
121.7467,23.9454
121.7467,23.9454
121.7445,23.9470
121.4092,24.2542
121.1020,24.5895
121.1004,24.5917
121.1004,24.5917
120.8755,24.8847
120.8252,24.9503
120.5809,25.3338
120.3709,25.7371
120.1969,26.1572
120.1961,26.1599
120.1961,26.1599
120.1543,26.2923
120.0601,26.5909
119.9617,27.0349
119.9614,27.0376
119.9614,27.0376
119.9526,27.1042
119.9024,27.4857
119.8851,27.8815
119.8825,27.9400
85.1210,27.9400
85.1011,27.5188
85.0417,27.1013
85.0251,27.0322
84.9439,26.6941
84.9439,26.6941
84.9432,26.6912
84.8067,26.2923
84.6331,25.9080
84.4242,25.5417
84.1817,25.1966
83.9078,24.8760
83.6050,24.5825
83.2759,24.3189
83.1806,24.2563
82.9259,24.0890
82.9259,24.0890
82.9235,24.0873
82.5508,23.8900
82.1612,23.7286
82.1584,23.7278
82.1584,23.7278
81.7610,23.6055
81.7610,23.6055
81.7581,23.6047
81.7552,23.6040
81.7552,23.6040
81.3481,23.5197
81.3481,23.5197
81.3452,23.5191
80.9260,23.4729
80.9231,23.4728
80.9231,23.4728
80.8032,23.4709
80.5044,23.4662
80.5015,23.4665
80.5015,23.4665
80.0934,23.4986
80.0840,23.4993
79.6686,23.5718
79.6657,23.5726
79.6657,23.5726
79.2647,23.6823
79.2647,23.6823
79.2618,23.6831
79.2591,23.6841
79.2591,23.6841
78.8897,23.8237
78.8674,23.8322
78.8647,23.8335
78.8647,23.8335
78.6329,23.9470
78.4887,24.0177
78.1291,24.2380
78.1267,24.2398
78.1267,24.2398
77.7943,24.4894
77.7943,24.4894
77.7919,24.4912
77.7897,24.4932
77.7897,24.4932
77.5502,24.7112
77.4800,24.7750
77.4780,24.7772
77.1982,25.0847
77.1982,25.0847
77.1962,25.0869
77.1944,25.0893
77.1944,25.0893
77.0109,25.3338
76.9430,25.4241
76.9415,25.4267
76.7527,25.7347
76.7227,25.7837
76.7214,25.7864
76.7214,25.7864
76.5385,26.1597
76.5372,26.1624
76.5361,26.1651
76.5361,26.1652
76.3891,26.5541
76.3891,26.5541
76.3881,26.5568
76.3873,26.5597
76.3873,26.5597
76.3111,26.8383
76.2768,26.9636
76.2043,27.3790
76.1712,27.7994
3.0485,27.7994
3.0485,7.6732
3.0502,7.6523
3.0528,7.6373
3.0528,7.6373
3.0536,7.6326
3.0537,7.6200
3.0530,7.6152
3.0530,7.6152
3.0514,7.6036
3.0502,7.5803
3.0657,7.2271
3.0666,7.2161
3.1172,6.8316
3.1191,6.8208
3.2031,6.4422
3.2059,6.4316
3.3225,6.0617
3.3263,6.0514
3.4747,5.6931
3.4794,5.6831
3.6584,5.3391
3.6639,5.3296
3.8723,5.0025
3.8786,4.9935
4.1147,4.6859
4.1217,4.6774
4.3837,4.3915
4.3915,4.3837
4.6774,4.1217
4.6859,4.1147
4.9935,3.8786
5.0025,3.8723
5.3296,3.6639
5.3391,3.6584
5.6831,3.4794
5.6931,3.4747
6.0514,3.3263
6.0617,3.3225
6.2613,3.2596
6.4316,3.2059
6.4422,3.2031
6.8208,3.1191
6.8316,3.1172
7.2161,3.0666
7.2271,3.0657
7.5766,3.0504
7.6014,3.0518
7.6137,3.0537
7.6226,3.0525
7.6226,3.0525
7.6414,3.0501
7.6453,3.0496
7.6616,3.0485
145.3656,3.0485
Z" /> 
</g>
</g>
</g>
<g style="fill:#FFFFFF; fill-opacity:1.0000; 
stroke:#FFFFFF; stroke-width:0.0000; stroke-opacity:1; 
stroke-linecap:round; stroke-linejoin:round;">
<circle cx="36.1950" cy="59.0550" r="0.5000" /> 
</g>
<g style="fill:#FFFFFF; fill-opacity:1.0000; 
stroke:#FFFFFF; stroke-width:0.0212; stroke-opacity:1; 
stroke-linecap:round; stroke-linejoin:round;">
</g>
<g style="fill:#000000; fill-opacity:1.0000; 
stroke:#000000; stroke-width:0.0212; stroke-opacity:1; 
stroke-linecap:round; stroke-linejoin:round;">
</g>
<g style="fill:#C2C2C2; fill-opacity:1.0000; 
stroke:#C2C2C2; stroke-width:0.0212; stroke-opacity:1; 
stroke-linecap:round; stroke-linejoin:round;">
</g>
<g style="fill:#C2C2C2; fill-opacity:1.0000; 
stroke:#C2C2C2; stroke-width:0.5000; stroke-opacity:1; 
stroke-linecap:round; stroke-linejoin:round;">
</g>
<g style="fill:#C2C2C2; fill-opacity:0.0; 
stroke:#C2C2C2; stroke-width:0.5000; stroke-opacity:1; 
stroke-linecap:round; stroke-linejoin:round;">
<path d="M125.0950 72.3900
L125.0950 59.6900
" />
<path d="M125.0950 27.9400
L112.9966 34.9250
" />
<path d="M127.6350 54.6100
L127.6350 57.1500
" />
<path d="M36.1950 50.1650
L26.3525 67.2127
" />
<path d="M131.4450 59.6900
L131.4450 57.1500
" />
</g>
<g style="fill:#C2C2C2; fill-opacity:0.0; 
stroke:#C2C2C2; stroke-width:1.2700; stroke-opacity:1; 
stroke-linecap:round; stroke-linejoin:round;">
<path d="M145.4469 95.8850 A4.4450 4.4450 0.0 0 0 149.8919 91.4400" />
</g>
<g style="fill:#C2C2C2; fill-opacity:0.0; 
stroke:#C2C2C2; stroke-width:0.5000; stroke-opacity:1; 
stroke-linecap:round; stroke-linejoin:round;">
<path d="M125.0950 27.9400
L118.1100 40.0384
" />
<path d="M114.3000 57.1500
L116.8400 59.6900
" />
<path d="M136.5250 57.1500
L136.5250 59.6900
" />
<path d="M36.1950 50.1650
L36.1950 30.4800
" />
<path d="M122.5550 57.1500
L127.6350 54.6100
" />
</g>
<g style="fill:#C2C2C2; fill-opacity:0.0; 
stroke:#C2C2C2; stroke-width:1.2700; stroke-opacity:1; 
stroke-linecap:round; stroke-linejoin:round;">
<path d="M7.6200 3.1750
L145.4469 3.1431
" />
</g>
<g style="fill:#C2C2C2; fill-opacity:0.0; 
stroke:#C2C2C2; stroke-width:0.5000; stroke-opacity:1; 
stroke-linecap:round; stroke-linejoin:round;">
<path d="M125.0950 27.9400
L118.1100 15.8416
" />
<path d="M36.1950 50.1650
L16.5100 50.1650
" />
<path d="M110.4900 64.1350 A1.2700 1.2700 0.0 0 0 107.9500 64.1350" />
<path d="M137.6680 62.8650
L140.3350 62.8650
" />
<path d="M140.3350 65.4050
L142.7480 65.4050
" />
<path d="M125.0950 27.9400
L137.1934 34.9250
" />
<path d="M122.5550 57.1500
L122.5550 54.6100
" />
<path d="M36.1950 50.1650
L19.1473 40.3225
" />
</g>
<g style="fill:#C2C2C2; fill-opacity:0.0; 
stroke:#C2C2C2; stroke-width:1.2700; stroke-opacity:1; 
stroke-linecap:round; stroke-linejoin:round;">
<path d="M7.6200 3.1750 A4.4450 4.4450 0.0 0 0 3.1750 7.6200" />
</g>
<g style="fill:#C2C2C2; fill-opacity:0.0; 
stroke:#C2C2C2; stroke-width:0.5000; stroke-opacity:1; 
stroke-linecap:round; stroke-linejoin:round;">
<path d="M36.1950 50.1650
L53.2427 60.0075
" />
<path d="M125.0950 27.9400
L112.9966 20.9550
" />
</g>
<g style="fill:#C2C2C2; fill-opacity:0.0; 
stroke:#C2C2C2; stroke-width:1.2700; stroke-opacity:1; 
stroke-linecap:round; stroke-linejoin:round;">
<path d="M149.8919 7.5881 A4.4450 4.4450 0.0 0 0 145.4469 3.1431" />
</g>
<g style="fill:#C2C2C2; fill-opacity:0.0; 
stroke:#C2C2C2; stroke-width:0.5000; stroke-opacity:1; 
stroke-linecap:round; stroke-linejoin:round;">
<path d="M125.0950 27.9400
L139.0650 27.9400
" />
<path d="M125.0950 27.9400
L137.1934 20.9550
" />
<path d="M36.1950 50.1650
L46.0375 33.1173
" />
<path d="M137.6680 65.4050
L137.6680 62.8650
" />
<path d="M125.0950 72.3900
L131.4450 61.3915
" />
<path d="M125.0950 72.3900
L114.0965 66.0400
" />
<path d="M113.0300 58.4200
L114.3000 57.1500
" />
</g>
<g style="fill:#C2C2C2; fill-opacity:0.0; 
stroke:#C2C2C2; stroke-width:1.2700; stroke-opacity:1; 
stroke-linecap:round; stroke-linejoin:round;">
<path d="M3.1750 91.4719 A4.4450 4.4450 0.0 0 0 7.6200 95.9169" />
</g>
<g style="fill:#C2C2C2; fill-opacity:0.0; 
stroke:#C2C2C2; stroke-width:0.5000; stroke-opacity:1; 
stroke-linecap:round; stroke-linejoin:round;">
<path d="M36.1950 50.1650
L53.2427 40.3225
" />
<path d="M125.0950 27.9400
L125.0950 13.9700
" />
<path d="M125.0950 72.3900
L118.7450 61.3915
" />
<path d="M36.1950 50.1650
L46.0375 67.2127
" />
</g>
<g style="fill:#C2C2C2; fill-opacity:0.0; 
stroke:#C2C2C2; stroke-width:1.2700; stroke-opacity:1; 
stroke-linecap:round; stroke-linejoin:round;">
<path d="M149.8919 91.4400
L149.8919 7.5881
" />
</g>
<g style="fill:#C2C2C2; fill-opacity:0.0; 
stroke:#C2C2C2; stroke-width:0.5000; stroke-opacity:1; 
stroke-linecap:round; stroke-linejoin:round;">
<path d="M110.4900 64.1350 A1.2700 1.2700 0.0 0 0 113.0300 64.1350" />
<path d="M125.0950 72.3900
L136.0935 66.0400
" />
</g>
<g style="fill:#C2C2C2; fill-opacity:0.0; 
stroke:#C2C2C2; stroke-width:1.2700; stroke-opacity:1; 
stroke-linecap:round; stroke-linejoin:round;">
<path d="M7.6200 95.9169
L145.4469 95.8850
" />
<path d="M3.1750 7.6200
L3.1750 91.4719
" />
</g>
<g style="fill:#C2C2C2; fill-opacity:0.0; 
stroke:#C2C2C2; stroke-width:0.5000; stroke-opacity:1; 
stroke-linecap:round; stroke-linejoin:round;">
<path d="M125.0950 27.9400
L132.0800 15.8416
" />
<path d="M131.4450 57.1500
L136.5250 59.6900
" />
<path d="M125.0950 27.9400
L132.0800 40.0384
" />
<path d="M36.1950 50.1650
L26.3525 33.1173
" />
<path d="M140.3350 62.8650
L140.3350 65.4050
" />
<path d="M36.1950 50.1650
L55.8800 50.1650
" />
<path d="M125.0950 27.9400
L111.1250 27.9400
" />
<path d="M36.1950 50.1650
L19.1473 60.0075
" />
<path d="M116.8400 59.6900
L118.1100 58.4200
" />
</g>
<g style="fill:#C2C2C2; fill-opacity:0.0; 
stroke:#C2C2C2; stroke-width:0.3500; stroke-opacity:1; 
stroke-linecap:round; stroke-linejoin:round;">
<text x="64.1350" y="70.0900"
textLength="6.7750" font-size="2.3333" lengthAdjust="spacingAndGlyphs"
text-anchor="start" opacity="0">HIGH</text>
<g class="stroked-text"><desc>HIGH</desc>
<path d="M64.5517 70.0246
L64.5517 68.2746
" />
<path d="M64.5517 69.1079
L65.5517 69.1079
" />
<path d="M65.5517 70.0246
L65.5517 68.2746
" />
<path d="M66.3850 70.0246
L66.3850 68.2746
" />
<path d="M68.1350 68.3579
L67.9683 68.2746
" />
<path d="M67.9683 68.2746
L67.7183 68.2746
" />
<path d="M67.7183 68.2746
L67.4683 68.3579
" />
<path d="M67.4683 68.3579
L67.3017 68.5246
" />
<path d="M67.3017 68.5246
L67.2183 68.6913
" />
<path d="M67.2183 68.6913
L67.1350 69.0246
" />
<path d="M67.1350 69.0246
L67.1350 69.2746
" />
<path d="M67.1350 69.2746
L67.2183 69.6079
" />
<path d="M67.2183 69.6079
L67.3017 69.7746
" />
<path d="M67.3017 69.7746
L67.4683 69.9413
" />
<path d="M67.4683 69.9413
L67.7183 70.0246
" />
<path d="M67.7183 70.0246
L67.8850 70.0246
" />
<path d="M67.8850 70.0246
L68.1350 69.9413
" />
<path d="M68.1350 69.9413
L68.2183 69.8579
" />
<path d="M68.2183 69.8579
L68.2183 69.2746
" />
<path d="M68.2183 69.2746
L67.8850 69.2746
" />
<path d="M68.9683 70.0246
L68.9683 68.2746
" />
<path d="M68.9683 69.1079
L69.9683 69.1079
" />
<path d="M69.9683 70.0246
L69.9683 68.2746
" />
</g></g>
<g style="fill:#C2C2C2; fill-opacity:0.0; 
stroke:#C2C2C2; stroke-width:0.4000; stroke-opacity:1; 
stroke-linecap:round; stroke-linejoin:round;">
<text x="36.1950" y="72.3700"
textLength="9.3095" font-size="3.3333" lengthAdjust="spacingAndGlyphs"
text-anchor="middle" opacity="0">RATE</text>
<g class="stroked-text"><desc>RATE</desc>
<path d="M33.8140 72.2765
L32.9807 71.0861
" />
<path d="M32.3855 72.2765
L32.3855 69.7765
" />
<path d="M32.3855 69.7765
L33.3379 69.7765
" />
<path d="M33.3379 69.7765
L33.5760 69.8956
" />
<path d="M33.5760 69.8956
L33.6950 70.0146
" />
<path d="M33.6950 70.0146
L33.8140 70.2527
" />
<path d="M33.8140 70.2527
L33.8140 70.6099
" />
<path d="M33.8140 70.6099
L33.6950 70.8480
" />
<path d="M33.6950 70.8480
L33.5760 70.9670
" />
<path d="M33.5760 70.9670
L33.3379 71.0861
" />
<path d="M33.3379 71.0861
L32.3855 71.0861
" />
<path d="M34.7664 71.5623
L35.9569 71.5623
" />
<path d="M34.5283 72.2765
L35.3617 69.7765
" />
<path d="M35.3617 69.7765
L36.1950 72.2765
" />
<path d="M36.6712 69.7765
L38.0998 69.7765
" />
<path d="M37.3855 72.2765
L37.3855 69.7765
" />
<path d="M38.9331 70.9670
L39.7664 70.9670
" />
<path d="M40.1236 72.2765
L38.9331 72.2765
" />
<path d="M38.9331 72.2765
L38.9331 69.7765
" />
<path d="M38.9331 69.7765
L40.1236 69.7765
" />
</g><text x="125.0950" y="88.2450"
textLength="21.8095" font-size="3.3333" lengthAdjust="spacingAndGlyphs"
text-anchor="middle" opacity="0">WAVESHAPE</text>
<g class="stroked-text"><desc>WAVESHAPE</desc>
<path d="M114.7974 85.6515
L115.3926 88.1515
" />
<path d="M115.3926 88.1515
L115.8688 86.3658
" />
<path d="M115.8688 86.3658
L116.3450 88.1515
" />
<path d="M116.3450 88.1515
L116.9402 85.6515
" />
<path d="M117.7736 87.4373
L118.9640 87.4373
" />
<path d="M117.5355 88.1515
L118.3688 85.6515
" />
<path d="M118.3688 85.6515
L119.2021 88.1515
" />
<path d="M119.6783 85.6515
L120.5117 88.1515
" />
<path d="M120.5117 88.1515
L121.3450 85.6515
" />
<path d="M122.1783 86.8420
L123.0117 86.8420
" />
<path d="M123.3688 88.1515
L122.1783 88.1515
" />
<path d="M122.1783 88.1515
L122.1783 85.6515
" />
<path d="M122.1783 85.6515
L123.3688 85.6515
" />
<path d="M124.3212 88.0325
L124.6783 88.1515
" />
<path d="M124.6783 88.1515
L125.2736 88.1515
" />
<path d="M125.2736 88.1515
L125.5117 88.0325
" />
<path d="M125.5117 88.0325
L125.6307 87.9135
" />
<path d="M125.6307 87.9135
L125.7498 87.6754
" />
<path d="M125.7498 87.6754
L125.7498 87.4373
" />
<path d="M125.7498 87.4373
L125.6307 87.1992
" />
<path d="M125.6307 87.1992
L125.5117 87.0801
" />
<path d="M125.5117 87.0801
L125.2736 86.9611
" />
<path d="M125.2736 86.9611
L124.7974 86.8420
" />
<path d="M124.7974 86.8420
L124.5593 86.7230
" />
<path d="M124.5593 86.7230
L124.4402 86.6039
" />
<path d="M124.4402 86.6039
L124.3212 86.3658
" />
<path d="M124.3212 86.3658
L124.3212 86.1277
" />
<path d="M124.3212 86.1277
L124.4402 85.8896
" />
<path d="M124.4402 85.8896
L124.5593 85.7706
" />
<path d="M124.5593 85.7706
L124.7974 85.6515
" />
<path d="M124.7974 85.6515
L125.3926 85.6515
" />
<path d="M125.3926 85.6515
L125.7498 85.7706
" />
<path d="M126.8212 88.1515
L126.8212 85.6515
" />
<path d="M126.8212 86.8420
L128.2498 86.8420
" />
<path d="M128.2498 88.1515
L128.2498 85.6515
" />
<path d="M129.3212 87.4373
L130.5117 87.4373
" />
<path d="M129.0831 88.1515
L129.9164 85.6515
" />
<path d="M129.9164 85.6515
L130.7498 88.1515
" />
<path d="M131.5831 88.1515
L131.5831 85.6515
" />
<path d="M131.5831 85.6515
L132.5355 85.6515
" />
<path d="M132.5355 85.6515
L132.7736 85.7706
" />
<path d="M132.7736 85.7706
L132.8926 85.8896
" />
<path d="M132.8926 85.8896
L133.0117 86.1277
" />
<path d="M133.0117 86.1277
L133.0117 86.4849
" />
<path d="M133.0117 86.4849
L132.8926 86.7230
" />
<path d="M132.8926 86.7230
L132.7736 86.8420
" />
<path d="M132.7736 86.8420
L132.5355 86.9611
" />
<path d="M132.5355 86.9611
L131.5831 86.9611
" />
<path d="M134.0831 86.8420
L134.9164 86.8420
" />
<path d="M135.2736 88.1515
L134.0831 88.1515
" />
<path d="M134.0831 88.1515
L134.0831 85.6515
" />
<path d="M134.0831 85.6515
L135.2736 85.6515
" />
</g><text x="125.0950" y="44.4300"
textLength="30.3810" font-size="3.3333" lengthAdjust="spacingAndGlyphs"
text-anchor="middle" opacity="0">MOD ENV DELAY</text>
<g class="stroked-text"><desc>MOD ENV DELAY</desc>
<path d="M110.7498 44.3365
L110.7498 41.8365
" />
<path d="M110.7498 41.8365
L111.5831 43.6223
" />
<path d="M111.5831 43.6223
L112.4164 41.8365
" />
<path d="M112.4164 41.8365
L112.4164 44.3365
" />
<path d="M114.0831 41.8365
L114.5593 41.8365
" />
<path d="M114.5593 41.8365
L114.7974 41.9556
" />
<path d="M114.7974 41.9556
L115.0355 42.1937
" />
<path d="M115.0355 42.1937
L115.1545 42.6699
" />
<path d="M115.1545 42.6699
L115.1545 43.5032
" />
<path d="M115.1545 43.5032
L115.0355 43.9794
" />
<path d="M115.0355 43.9794
L114.7974 44.2175
" />
<path d="M114.7974 44.2175
L114.5593 44.3365
" />
<path d="M114.5593 44.3365
L114.0831 44.3365
" />
<path d="M114.0831 44.3365
L113.8450 44.2175
" />
<path d="M113.8450 44.2175
L113.6069 43.9794
" />
<path d="M113.6069 43.9794
L113.4879 43.5032
" />
<path d="M113.4879 43.5032
L113.4879 42.6699
" />
<path d="M113.4879 42.6699
L113.6069 42.1937
" />
<path d="M113.6069 42.1937
L113.8450 41.9556
" />
<path d="M113.8450 41.9556
L114.0831 41.8365
" />
<path d="M116.2260 44.3365
L116.2260 41.8365
" />
<path d="M116.2260 41.8365
L116.8212 41.8365
" />
<path d="M116.8212 41.8365
L117.1783 41.9556
" />
<path d="M117.1783 41.9556
L117.4164 42.1937
" />
<path d="M117.4164 42.1937
L117.5355 42.4318
" />
<path d="M117.5355 42.4318
L117.6545 42.9080
" />
<path d="M117.6545 42.9080
L117.6545 43.2651
" />
<path d="M117.6545 43.2651
L117.5355 43.7413
" />
<path d="M117.5355 43.7413
L117.4164 43.9794
" />
<path d="M117.4164 43.9794
L117.1783 44.2175
" />
<path d="M117.1783 44.2175
L116.8212 44.3365
" />
<path d="M116.8212 44.3365
L116.2260 44.3365
" />
<path d="M120.6307 43.0270
L121.4640 43.0270
" />
<path d="M121.8212 44.3365
L120.6307 44.3365
" />
<path d="M120.6307 44.3365
L120.6307 41.8365
" />
<path d="M120.6307 41.8365
L121.8212 41.8365
" />
<path d="M122.8926 44.3365
L122.8926 41.8365
" />
<path d="M122.8926 41.8365
L124.3212 44.3365
" />
<path d="M124.3212 44.3365
L124.3212 41.8365
" />
<path d="M125.1545 41.8365
L125.9879 44.3365
" />
<path d="M125.9879 44.3365
L126.8212 41.8365
" />
<path d="M129.5593 44.3365
L129.5593 41.8365
" />
<path d="M129.5593 41.8365
L130.1545 41.8365
" />
<path d="M130.1545 41.8365
L130.5117 41.9556
" />
<path d="M130.5117 41.9556
L130.7498 42.1937
" />
<path d="M130.7498 42.1937
L130.8688 42.4318
" />
<path d="M130.8688 42.4318
L130.9879 42.9080
" />
<path d="M130.9879 42.9080
L130.9879 43.2651
" />
<path d="M130.9879 43.2651
L130.8688 43.7413
" />
<path d="M130.8688 43.7413
L130.7498 43.9794
" />
<path d="M130.7498 43.9794
L130.5117 44.2175
" />
<path d="M130.5117 44.2175
L130.1545 44.3365
" />
<path d="M130.1545 44.3365
L129.5593 44.3365
" />
<path d="M132.0593 43.0270
L132.8926 43.0270
" />
<path d="M133.2498 44.3365
L132.0593 44.3365
" />
<path d="M132.0593 44.3365
L132.0593 41.8365
" />
<path d="M132.0593 41.8365
L133.2498 41.8365
" />
<path d="M135.5117 44.3365
L134.3212 44.3365
" />
<path d="M134.3212 44.3365
L134.3212 41.8365
" />
<path d="M136.2260 43.6223
L137.4164 43.6223
" />
<path d="M135.9879 44.3365
L136.8212 41.8365
" />
<path d="M136.8212 41.8365
L137.6545 44.3365
" />
<path d="M138.9640 43.1461
L138.9640 44.3365
" />
<path d="M138.1307 41.8365
L138.9640 43.1461
" />
<path d="M138.9640 43.1461
L139.7974 41.8365
" />
</g></g>
<g style="fill:#C2C2C2; fill-opacity:0.0; 
stroke:#C2C2C2; stroke-width:0.3500; stroke-opacity:1; 
stroke-linecap:round; stroke-linejoin:round;">
<text x="64.1350" y="73.2650"
textLength="10.8583" font-size="2.3333" lengthAdjust="spacingAndGlyphs"
text-anchor="start" opacity="0">NORMAL</text>
<g class="stroked-text"><desc>NORMAL</desc>
<path d="M64.5517 73.1996
L64.5517 71.4496
" />
<path d="M64.5517 71.4496
L65.5517 73.1996
" />
<path d="M65.5517 73.1996
L65.5517 71.4496
" />
<path d="M66.7183 71.4496
L67.0517 71.4496
" />
<path d="M67.0517 71.4496
L67.2183 71.5329
" />
<path d="M67.2183 71.5329
L67.3850 71.6996
" />
<path d="M67.3850 71.6996
L67.4683 72.0329
" />
<path d="M67.4683 72.0329
L67.4683 72.6163
" />
<path d="M67.4683 72.6163
L67.3850 72.9496
" />
<path d="M67.3850 72.9496
L67.2183 73.1163
" />
<path d="M67.2183 73.1163
L67.0517 73.1996
" />
<path d="M67.0517 73.1996
L66.7183 73.1996
" />
<path d="M66.7183 73.1996
L66.5517 73.1163
" />
<path d="M66.5517 73.1163
L66.3850 72.9496
" />
<path d="M66.3850 72.9496
L66.3017 72.6163
" />
<path d="M66.3017 72.6163
L66.3017 72.0329
" />
<path d="M66.3017 72.0329
L66.3850 71.6996
" />
<path d="M66.3850 71.6996
L66.5517 71.5329
" />
<path d="M66.5517 71.5329
L66.7183 71.4496
" />
<path d="M69.2183 73.1996
L68.6350 72.3663
" />
<path d="M68.2183 73.1996
L68.2183 71.4496
" />
<path d="M68.2183 71.4496
L68.8850 71.4496
" />
<path d="M68.8850 71.4496
L69.0517 71.5329
" />
<path d="M69.0517 71.5329
L69.1350 71.6163
" />
<path d="M69.1350 71.6163
L69.2183 71.7829
" />
<path d="M69.2183 71.7829
L69.2183 72.0329
" />
<path d="M69.2183 72.0329
L69.1350 72.1996
" />
<path d="M69.1350 72.1996
L69.0517 72.2829
" />
<path d="M69.0517 72.2829
L68.8850 72.3663
" />
<path d="M68.8850 72.3663
L68.2183 72.3663
" />
<path d="M69.9683 73.1996
L69.9683 71.4496
" />
<path d="M69.9683 71.4496
L70.5517 72.6996
" />
<path d="M70.5517 72.6996
L71.1350 71.4496
" />
<path d="M71.1350 71.4496
L71.1350 73.1996
" />
<path d="M71.8850 72.6996
L72.7183 72.6996
" />
<path d="M71.7183 73.1996
L72.3017 71.4496
" />
<path d="M72.3017 71.4496
L72.8850 73.1996
" />
<path d="M74.3017 73.1996
L73.4683 73.1996
" />
<path d="M73.4683 73.1996
L73.4683 71.4496
" />
</g></g>
<g style="fill:#C2C2C2; fill-opacity:0.0; 
stroke:#C2C2C2; stroke-width:0.4000; stroke-opacity:1; 
stroke-linecap:round; stroke-linejoin:round;">
<text x="80.6450" y="81.6450"
textLength="10.2190" font-size="2.6667" lengthAdjust="spacingAndGlyphs"
text-anchor="middle" opacity="0">RANGE</text>
<g class="stroked-text"><desc>RANGE</desc>
<path d="M77.4545 81.5702
L76.7879 80.6179
" />
<path d="M76.3117 81.5702
L76.3117 79.5702
" />
<path d="M76.3117 79.5702
L77.0736 79.5702
" />
<path d="M77.0736 79.5702
L77.2640 79.6655
" />
<path d="M77.2640 79.6655
L77.3593 79.7607
" />
<path d="M77.3593 79.7607
L77.4545 79.9512
" />
<path d="M77.4545 79.9512
L77.4545 80.2369
" />
<path d="M77.4545 80.2369
L77.3593 80.4274
" />
<path d="M77.3593 80.4274
L77.2640 80.5226
" />
<path d="M77.2640 80.5226
L77.0736 80.6179
" />
<path d="M77.0736 80.6179
L76.3117 80.6179
" />
<path d="M78.2164 80.9988
L79.1688 80.9988
" />
<path d="M78.0260 81.5702
L78.6926 79.5702
" />
<path d="M78.6926 79.5702
L79.3593 81.5702
" />
<path d="M80.0260 81.5702
L80.0260 79.5702
" />
<path d="M80.0260 79.5702
L81.1688 81.5702
" />
<path d="M81.1688 81.5702
L81.1688 79.5702
" />
<path d="M83.1688 79.6655
L82.9783 79.5702
" />
<path d="M82.9783 79.5702
L82.6926 79.5702
" />
<path d="M82.6926 79.5702
L82.4069 79.6655
" />
<path d="M82.4069 79.6655
L82.2164 79.8560
" />
<path d="M82.2164 79.8560
L82.1212 80.0464
" />
<path d="M82.1212 80.0464
L82.0260 80.4274
" />
<path d="M82.0260 80.4274
L82.0260 80.7131
" />
<path d="M82.0260 80.7131
L82.1212 81.0940
" />
<path d="M82.1212 81.0940
L82.2164 81.2845
" />
<path d="M82.2164 81.2845
L82.4069 81.4750
" />
<path d="M82.4069 81.4750
L82.6926 81.5702
" />
<path d="M82.6926 81.5702
L82.8831 81.5702
" />
<path d="M82.8831 81.5702
L83.1688 81.4750
" />
<path d="M83.1688 81.4750
L83.2640 81.3798
" />
<path d="M83.2640 81.3798
L83.2640 80.7131
" />
<path d="M83.2640 80.7131
L82.8831 80.7131
" />
<path d="M84.1212 80.5226
L84.7879 80.5226
" />
<path d="M85.0736 81.5702
L84.1212 81.5702
" />
<path d="M84.1212 81.5702
L84.1212 79.5702
" />
<path d="M84.1212 79.5702
L85.0736 79.5702
" />
</g></g>
<g style="fill:#C2C2C2; fill-opacity:0.0; 
stroke:#C2C2C2; stroke-width:0.3500; stroke-opacity:1; 
stroke-linecap:round; stroke-linejoin:round;">
<text x="64.1350" y="76.4400"
textLength="5.7750" font-size="2.3333" lengthAdjust="spacingAndGlyphs"
text-anchor="start" opacity="0">LOW</text>
<g class="stroked-text"><desc>LOW</desc>
<path d="M65.3850 76.3746
L64.5517 76.3746
" />
<path d="M64.5517 76.3746
L64.5517 74.6246
" />
<path d="M66.3017 74.6246
L66.6350 74.6246
" />
<path d="M66.6350 74.6246
L66.8017 74.7079
" />
<path d="M66.8017 74.7079
L66.9683 74.8746
" />
<path d="M66.9683 74.8746
L67.0517 75.2079
" />
<path d="M67.0517 75.2079
L67.0517 75.7913
" />
<path d="M67.0517 75.7913
L66.9683 76.1246
" />
<path d="M66.9683 76.1246
L66.8017 76.2913
" />
<path d="M66.8017 76.2913
L66.6350 76.3746
" />
<path d="M66.6350 76.3746
L66.3017 76.3746
" />
<path d="M66.3017 76.3746
L66.1350 76.2913
" />
<path d="M66.1350 76.2913
L65.9683 76.1246
" />
<path d="M65.9683 76.1246
L65.8850 75.7913
" />
<path d="M65.8850 75.7913
L65.8850 75.2079
" />
<path d="M65.8850 75.2079
L65.9683 74.8746
" />
<path d="M65.9683 74.8746
L66.1350 74.7079
" />
<path d="M66.1350 74.7079
L66.3017 74.6246
" />
<path d="M67.6350 74.6246
L68.0517 76.3746
" />
<path d="M68.0517 76.3746
L68.3850 75.1246
" />
<path d="M68.3850 75.1246
L68.7183 76.3746
" />
<path d="M68.7183 76.3746
L69.1350 74.6246
" />
</g></g>
<g style="fill:#C2C2C2; fill-opacity:0.0; 
stroke:#C2C2C2; stroke-width:0.1500; stroke-opacity:1; 
stroke-linecap:round; stroke-linejoin:round;">
<circle cx="36.1950" cy="59.0550" r="1.4000" /> 
</g>
<g style="fill:#C2C2C2; fill-opacity:1.0000; 
stroke:#C2C2C2; stroke-width:0.0000; stroke-opacity:1; 
stroke-linecap:round; stroke-linejoin:round;">
<path style="fill:#C2C2C2; fill-opacity:1.0000; 
stroke:#C2C2C2; stroke-width:0.0000; stroke-opacity:1; 
stroke-linecap:round; stroke-linejoin:round;fill-rule:evenodd;"
d="M 19.7762,6.5680
20.1342,6.9740
20.3176,7.5590
20.3700,8.2400
20.3536,8.6253
20.3045,8.9778
20.0862,9.5584
19.6846,9.9426
19.0690,10.0823
18.9730,10.0823
18.8769,10.0736
18.8769,6.4414
19.0341,6.4195
19.1912,6.4152
Z" /> 
<path style="fill:#C2C2C2; fill-opacity:1.0000; 
stroke:#C2C2C2; stroke-width:0.0000; stroke-opacity:1; 
stroke-linecap:round; stroke-linejoin:round;fill-rule:evenodd;"
d="M 15.5940,6.5025
15.8515,6.9041
15.9738,7.5022
15.9967,7.8591
16.0043,8.2400
15.9967,8.6198
15.9738,8.9734
15.8515,9.5715
15.5896,9.9775
15.1487,10.1259
14.7034,9.9775
14.4458,9.5759
14.3236,8.9778
14.3007,8.6209
14.2930,8.2400
14.3007,7.8602
14.3236,7.5066
14.4458,6.9085
14.7034,6.5025
15.1487,6.3540
Z" /> 
<path style="fill:#C2C2C2; fill-opacity:1.0000; 
stroke:#C2C2C2; stroke-width:0.0000; stroke-opacity:1; 
stroke-linecap:round; stroke-linejoin:round;fill-rule:evenodd;"
d="M 28.6908,6.5025
28.9484,6.9041
29.0707,7.5022
29.0936,7.8591
29.1012,8.2400
29.0936,8.6198
29.0707,8.9734
28.9484,9.5715
28.6865,9.9775
28.2456,10.1259
27.8003,9.9775
27.5427,9.5759
27.4204,8.9778
27.3975,8.6209
27.3899,8.2400
27.3975,7.8602
27.4204,7.5066
27.5427,6.9085
27.8003,6.5025
28.2456,6.3540
Z" /> 
<path style="fill:#C2C2C2; fill-opacity:1.0000; 
stroke:#C2C2C2; stroke-width:0.0000; stroke-opacity:1; 
stroke-linecap:round; stroke-linejoin:round;fill-rule:evenodd;"
d="M 8.8011,4.9072
38.8889,4.9072
39.4016,4.9072
40.0518,4.9712
40.6770,5.1609
41.2532,5.4689
41.7582,5.8833
42.1727,6.3884
42.4807,6.9646
42.6704,7.5898
42.7344,8.2400
42.6704,8.8902
42.4807,9.5154
42.1727,10.0916
41.7582,10.5967
41.2532,11.0111
40.6770,11.3191
40.0518,11.5088
39.4016,11.5728
38.8889,11.5728
8.8011,11.5728
8.2884,11.5728
7.6382,11.5088
7.0130,11.3191
6.4368,11.0111
6.3583,10.9467
8.8011,10.9467
9.7877,10.9467
9.7440,6.7470
10.3814,9.0345
11.1672,9.0345
11.8308,6.7470
11.7784,10.9467
12.7650,10.9467
12.7454,10.2558
12.7214,9.5802
12.6919,8.9145
12.6559,8.2531
12.6550,8.2400
13.2016,8.2400
13.2330,8.8957
13.3271,9.4656
13.4840,9.9500
13.7037,10.3486
14.0883,10.7439
14.5729,10.9811
15.1574,11.0602
15.7278,10.9811
15.9201,10.8856
17.8030,10.8856
18.3923,10.9860
18.9555,11.0165
19.4826,10.9783
19.9640,10.8637
20.3907,10.6662
20.7541,10.3792
21.0499,9.9983
21.2736,9.5191
21.4144,8.9352
21.4614,8.2400
26.2985,8.2400
26.3299,8.8957
26.4240,9.4656
26.5809,9.9500
26.8005,10.3486
27.1852,10.7439
27.6698,10.9811
28.2543,11.0602
28.8247,10.9811
29.3020,10.7439
29.3935,10.6498
30.7776,10.6498
31.3801,10.9161
31.8494,11.0242
32.4540,11.0602
33.0667,11.0141
33.5658,10.8759
33.9514,10.6455
34.3214,10.1445
34.4447,9.4711
34.4076,9.0640
34.2963,8.7333
33.9165,8.2444
33.9095,8.2400
35.0297,8.2400
35.0674,8.8779
35.1803,9.4384
35.3686,9.9213
35.6322,10.3268
36.0940,10.7342
36.6761,10.9787
37.3784,11.0602
37.8554,11.0307
38.2734,10.9423
38.8889,10.6847
38.6183,9.8378
38.1773,10.0299
37.4832,10.1259
36.8600,10.0026
36.4398,9.6326
36.2628,9.2557
36.1565,8.7828
36.1211,8.2138
36.1506,7.7249
36.2390,7.3232
36.5446,6.7513
36.9724,6.4457
37.4658,6.3540
38.1162,6.4457
38.6008,6.6684
38.8802,5.8127
38.7012,5.7079
38.4087,5.5770
38.0027,5.4678
37.4832,5.4198
36.9713,5.4667
36.5009,5.6075
36.0818,5.8389
35.7239,6.1576
35.4325,6.5603
35.2131,7.0438
35.0756,7.6048
35.0297,8.2400
33.9095,8.2400
33.4101,7.9300
32.8818,7.7161
32.5457,7.5852
32.2401,7.4236
32.0175,7.2141
31.9301,6.9390
32.0252,6.5946
32.3104,6.3880
32.7858,6.3191
33.4014,6.4064
33.8859,6.6160
34.2003,5.7865
33.5760,5.5333
33.1732,5.4482
32.7072,5.4198
32.1722,5.4673
31.7196,5.6100
31.3495,5.8476
30.9795,6.3584
30.8562,7.0351
30.9959,7.6768
31.3495,8.1090
31.8254,8.3972
32.3318,8.5980
32.6985,8.7508
33.0303,8.9341
33.2748,9.1655
33.3708,9.4624
33.3315,9.7199
33.1874,9.9470
32.9037,10.1041
32.4540,10.1609
32.0185,10.1303
31.6551,10.0386
31.0919,9.7767
30.7776,10.6498
29.3935,10.6498
29.6862,10.3486
29.9078,9.9500
30.0660,9.4656
30.1610,8.8957
30.1926,8.2400
30.1615,7.5843
30.0682,7.0144
29.9127,6.5300
29.6949,6.1314
29.3127,5.7361
28.8296,5.4989
28.2456,5.4198
27.6790,5.4989
27.2017,5.7361
26.8136,6.1314
26.5882,6.5300
26.4273,7.0144
26.3307,7.5843
26.2985,8.2400
21.4614,8.2400
21.4188,7.5601
21.2911,6.9871
21.0870,6.5134
20.8153,6.1314
20.4758,5.8400
20.0687,5.6381
19.6049,5.5202
19.0952,5.4809
18.4927,5.5071
17.8030,5.6119
17.8030,10.8856
15.9201,10.8856
16.2052,10.7439
16.5893,10.3486
16.8109,9.9500
16.9691,9.4656
17.0641,8.8957
17.0957,8.2400
17.0646,7.5843
16.9713,7.0144
16.8158,6.5300
16.5981,6.1314
16.2158,5.7361
15.7327,5.4989
15.1487,5.4198
14.5821,5.4989
14.1048,5.7361
13.7168,6.1314
13.4914,6.5300
13.3304,7.0144
13.2338,7.5843
13.2016,8.2400
12.6550,8.2400
12.6122,7.5906
12.5599,6.9216
12.5020,6.2405
12.4420,5.5420
11.5514,5.5420
11.3942,6.0048
11.2022,6.6029
10.9839,7.2665
10.7656,7.9344
10.5648,7.3058
10.3552,6.6334
10.1588,6.0135
10.0060,5.5420
9.1154,5.5420
9.0575,6.1336
9.0062,6.7731
8.9615,7.4476
8.9233,8.1440
8.8895,8.8534
8.8578,9.5671
8.8283,10.2700
8.8011,10.9467
6.3583,10.9467
5.9318,10.5967
5.5173,10.0916
5.2093,9.5154
5.0196,8.8902
4.9556,8.2400
5.0196,7.5898
5.2093,6.9646
5.5173,6.3884
5.9318,5.8833
6.4368,5.4689
7.0130,5.1609
7.6382,4.9712
8.2884,4.9072
Z" /> 
<g >
</g>
<g >
</g>
<g >
</g>
<g >
</g>
<g >
</g>
</g>
<g style="fill:#FFFFFF; fill-opacity:1.0000; 
stroke:#FFFFFF; stroke-width:0.0000; stroke-opacity:1; 
stroke-linecap:round; stroke-linejoin:round;">
<circle cx="36.1950" cy="59.0550" r="0.5000" /> 
</g>
<g style="fill:#FFFFFF; fill-opacity:1.0000; 
stroke:#FFFFFF; stroke-width:0.0212; stroke-opacity:1; 
stroke-linecap:round; stroke-linejoin:round;">
</g>
<g style="fill:#000000; fill-opacity:1.0000; 
stroke:#000000; stroke-width:0.0212; stroke-opacity:1; 
stroke-linecap:round; stroke-linejoin:round;">
</g>
<g style="fill:#C2C2C2; fill-opacity:1.0000; 
stroke:#C2C2C2; stroke-width:0.0212; stroke-opacity:1; 
stroke-linecap:round; stroke-linejoin:round;">
</g>
<g style="fill:#C2C2C2; fill-opacity:0.0; 
stroke:#C2C2C2; stroke-width:0.1000; stroke-opacity:1; 
stroke-linecap:round; stroke-linejoin:round;">
<path d="M2.5400 91.4400 A5.0800 5.0800 0.0 0 0 7.6200 96.5200" />
<path d="M2.5400 7.6200
L2.5400 91.4400
" />
</g>
<g style="fill:#C2C2C2; fill-opacity:0.0; 
stroke:#C2C2C2; stroke-width:0.1500; stroke-opacity:1; 
stroke-linecap:round; stroke-linejoin:round;">
<circle cx="80.6450" cy="27.9400" r="3.9624" /> 
<circle cx="36.1950" cy="50.1650" r="4.6990" /> 
</g>
<g style="fill:#C2C2C2; fill-opacity:0.0; 
stroke:#C2C2C2; stroke-width:0.1000; stroke-opacity:1; 
stroke-linecap:round; stroke-linejoin:round;">
<path d="M7.6200 2.5400 A5.0800 5.0800 0.0 0 0 2.5400 7.6200" />
</g>
<g style="fill:#C2C2C2; fill-opacity:0.0; 
stroke:#C2C2C2; stroke-width:0.1500; stroke-opacity:1; 
stroke-linecap:round; stroke-linejoin:round;">
<circle cx="125.0950" cy="72.3900" r="4.6990" /> 
</g>
<g style="fill:#C2C2C2; fill-opacity:0.0; 
stroke:#C2C2C2; stroke-width:0.1000; stroke-opacity:1; 
stroke-linecap:round; stroke-linejoin:round;">
<path d="M150.4950 91.4400
L150.4950 7.6200
" />
<path d="M150.4950 7.6200 A5.0800 5.0800 0.0 0 0 145.4150 2.5400" />
<path d="M145.4150 96.5200 A5.0800 5.0800 0.0 0 0 150.4950 91.4400" />
</g>
<g style="fill:#C2C2C2; fill-opacity:0.0; 
stroke:#C2C2C2; stroke-width:0.1500; stroke-opacity:1; 
stroke-linecap:round; stroke-linejoin:round;">
<circle cx="80.6450" cy="72.3900" r="3.1750" /> 
</g>
<g style="fill:#C2C2C2; fill-opacity:0.0; 
stroke:#C2C2C2; stroke-width:0.1000; stroke-opacity:1; 
stroke-linecap:round; stroke-linejoin:round;">
<path d="M7.6200 96.5200
L145.4150 96.5200
" />
</g>
<g style="fill:#C2C2C2; fill-opacity:0.0; 
stroke:#C2C2C2; stroke-width:0.1500; stroke-opacity:1; 
stroke-linecap:round; stroke-linejoin:round;">
<circle cx="125.0950" cy="27.9400" r="4.6990" /> 
</g>
<g style="fill:#C2C2C2; fill-opacity:0.0; 
stroke:#C2C2C2; stroke-width:0.1000; stroke-opacity:1; 
stroke-linecap:round; stroke-linejoin:round;">
<path d="M145.4150 2.5400
L7.6200 2.5400
" />
<g >
</g>
<g >
</g>
<g >
</g>
<g >
</g>
<g >
</g>
</g> 
</svg>
