<?xml version="1.0" standalone="no"?>
 <!DOCTYPE svg PUBLIC "-//W3C//DTD SVG 1.1//EN" 
 "http://www.w3.org/Graphics/SVG/1.1/DTD/svg11.dtd"> 
<svg
  xmlns:svg="http://www.w3.org/2000/svg"
  xmlns="http://www.w3.org/2000/svg"
  xmlns:xlink="http://www.w3.org/1999/xlink"
  version="1.1"
  width="152.4000mm" height="99.0600mm" viewBox="0.0000 0.0000 152.4000 99.0600">
<title>SVG Image created as mod_osc_pcb_panel_back.svg date 2023/03/27 09:41:57 </title>
  <desc>Image generated by PCBNEW </desc>
<g style="fill:#000000; fill-opacity:1.0000;stroke:#000000; stroke-opacity:1.0000;
stroke-linecap:round; stroke-linejoin:round;"
 transform="translate(0 0) scale(1 1)">
</g>
<g style="fill:#000000; fill-opacity:0.0; 
stroke:#000000; stroke-width:0.0000; stroke-opacity:1; 
stroke-linecap:round; stroke-linejoin:round;">
</g>
<g style="fill:#C2C2C2; fill-opacity:0.0; 
stroke:#C2C2C2; stroke-width:0.0000; stroke-opacity:1; 
stroke-linecap:round; stroke-linejoin:round;">
</g>
<g style="fill:#C2C2C2; fill-opacity:0.0; 
stroke:#C2C2C2; stroke-width:0.2000; stroke-opacity:1; 
stroke-linecap:round; stroke-linejoin:round;">
<text x="71.7550" y="9.2550"
textLength="20.6714" font-size="2.6667" lengthAdjust="spacingAndGlyphs"
text-anchor="middle" opacity="0">JLCJLCJLCJLC</text>
<g class="stroked-text"><desc>JLCJLCJLCJLC</desc>
<path d="M80.9931 7.1802
L80.9931 8.6088
" />
<path d="M80.9931 8.6088
L81.0883 8.8945
" />
<path d="M81.0883 8.8945
L81.2788 9.0850
" />
<path d="M81.2788 9.0850
L81.5645 9.1802
" />
<path d="M81.5645 9.1802
L81.7550 9.1802
" />
<path d="M79.0883 9.1802
L80.0407 9.1802
" />
<path d="M80.0407 9.1802
L80.0407 7.1802
" />
<path d="M77.2788 8.9898
L77.3740 9.0850
" />
<path d="M77.3740 9.0850
L77.6598 9.1802
" />
<path d="M77.6598 9.1802
L77.8502 9.1802
" />
<path d="M77.8502 9.1802
L78.1360 9.0850
" />
<path d="M78.1360 9.0850
L78.3264 8.8945
" />
<path d="M78.3264 8.8945
L78.4217 8.7040
" />
<path d="M78.4217 8.7040
L78.5169 8.3231
" />
<path d="M78.5169 8.3231
L78.5169 8.0374
" />
<path d="M78.5169 8.0374
L78.4217 7.6564
" />
<path d="M78.4217 7.6564
L78.3264 7.4660
" />
<path d="M78.3264 7.4660
L78.1360 7.2755
" />
<path d="M78.1360 7.2755
L77.8502 7.1802
" />
<path d="M77.8502 7.1802
L77.6598 7.1802
" />
<path d="M77.6598 7.1802
L77.3740 7.2755
" />
<path d="M77.3740 7.2755
L77.2788 7.3707
" />
<path d="M75.8502 7.1802
L75.8502 8.6088
" />
<path d="M75.8502 8.6088
L75.9455 8.8945
" />
<path d="M75.9455 8.8945
L76.1360 9.0850
" />
<path d="M76.1360 9.0850
L76.4217 9.1802
" />
<path d="M76.4217 9.1802
L76.6121 9.1802
" />
<path d="M73.9455 9.1802
L74.8979 9.1802
" />
<path d="M74.8979 9.1802
L74.8979 7.1802
" />
<path d="M72.1360 8.9898
L72.2312 9.0850
" />
<path d="M72.2312 9.0850
L72.5169 9.1802
" />
<path d="M72.5169 9.1802
L72.7074 9.1802
" />
<path d="M72.7074 9.1802
L72.9931 9.0850
" />
<path d="M72.9931 9.0850
L73.1836 8.8945
" />
<path d="M73.1836 8.8945
L73.2788 8.7040
" />
<path d="M73.2788 8.7040
L73.3740 8.3231
" />
<path d="M73.3740 8.3231
L73.3740 8.0374
" />
<path d="M73.3740 8.0374
L73.2788 7.6564
" />
<path d="M73.2788 7.6564
L73.1836 7.4660
" />
<path d="M73.1836 7.4660
L72.9931 7.2755
" />
<path d="M72.9931 7.2755
L72.7074 7.1802
" />
<path d="M72.7074 7.1802
L72.5169 7.1802
" />
<path d="M72.5169 7.1802
L72.2312 7.2755
" />
<path d="M72.2312 7.2755
L72.1360 7.3707
" />
<path d="M70.7074 7.1802
L70.7074 8.6088
" />
<path d="M70.7074 8.6088
L70.8026 8.8945
" />
<path d="M70.8026 8.8945
L70.9931 9.0850
" />
<path d="M70.9931 9.0850
L71.2788 9.1802
" />
<path d="M71.2788 9.1802
L71.4693 9.1802
" />
<path d="M68.8026 9.1802
L69.7550 9.1802
" />
<path d="M69.7550 9.1802
L69.7550 7.1802
" />
<path d="M66.9931 8.9898
L67.0883 9.0850
" />
<path d="M67.0883 9.0850
L67.3740 9.1802
" />
<path d="M67.3740 9.1802
L67.5645 9.1802
" />
<path d="M67.5645 9.1802
L67.8502 9.0850
" />
<path d="M67.8502 9.0850
L68.0407 8.8945
" />
<path d="M68.0407 8.8945
L68.1360 8.7040
" />
<path d="M68.1360 8.7040
L68.2312 8.3231
" />
<path d="M68.2312 8.3231
L68.2312 8.0374
" />
<path d="M68.2312 8.0374
L68.1360 7.6564
" />
<path d="M68.1360 7.6564
L68.0407 7.4660
" />
<path d="M68.0407 7.4660
L67.8502 7.2755
" />
<path d="M67.8502 7.2755
L67.5645 7.1802
" />
<path d="M67.5645 7.1802
L67.3740 7.1802
" />
<path d="M67.3740 7.1802
L67.0883 7.2755
" />
<path d="M67.0883 7.2755
L66.9931 7.3707
" />
<path d="M65.5645 7.1802
L65.5645 8.6088
" />
<path d="M65.5645 8.6088
L65.6598 8.8945
" />
<path d="M65.6598 8.8945
L65.8502 9.0850
" />
<path d="M65.8502 9.0850
L66.1360 9.1802
" />
<path d="M66.1360 9.1802
L66.3264 9.1802
" />
<path d="M63.6598 9.1802
L64.6121 9.1802
" />
<path d="M64.6121 9.1802
L64.6121 7.1802
" />
<path d="M61.8502 8.9898
L61.9455 9.0850
" />
<path d="M61.9455 9.0850
L62.2312 9.1802
" />
<path d="M62.2312 9.1802
L62.4217 9.1802
" />
<path d="M62.4217 9.1802
L62.7074 9.0850
" />
<path d="M62.7074 9.0850
L62.8979 8.8945
" />
<path d="M62.8979 8.8945
L62.9931 8.7040
" />
<path d="M62.9931 8.7040
L63.0883 8.3231
" />
<path d="M63.0883 8.3231
L63.0883 8.0374
" />
<path d="M63.0883 8.0374
L62.9931 7.6564
" />
<path d="M62.9931 7.6564
L62.8979 7.4660
" />
<path d="M62.8979 7.4660
L62.7074 7.2755
" />
<path d="M62.7074 7.2755
L62.4217 7.1802
" />
<path d="M62.4217 7.1802
L62.2312 7.1802
" />
<path d="M62.2312 7.1802
L61.9455 7.2755
" />
<path d="M61.9455 7.2755
L61.8502 7.3707
" />
</g><g >
</g>
<g >
</g>
<g >
</g>
<g >
</g>
<g >
</g>
</g>
<g style="fill:#FFFFFF; fill-opacity:0.0; 
stroke:#FFFFFF; stroke-width:0.2000; stroke-opacity:1; 
stroke-linecap:round; stroke-linejoin:round;">
</g>
<g style="fill:#FFFFFF; fill-opacity:1.0000; 
stroke:#FFFFFF; stroke-width:0.0000; stroke-opacity:1; 
stroke-linecap:round; stroke-linejoin:round;">
<circle cx="116.2050" cy="59.0550" r="0.5000" /> 
</g>
<g style="fill:#FFFFFF; fill-opacity:1.0000; 
stroke:#FFFFFF; stroke-width:0.0212; stroke-opacity:1; 
stroke-linecap:round; stroke-linejoin:round;">
</g>
<g style="fill:#000000; fill-opacity:1.0000; 
stroke:#000000; stroke-width:0.0212; stroke-opacity:1; 
stroke-linecap:round; stroke-linejoin:round;">
<g >
</g>
<g style="fill:#000000; fill-opacity:1.0000; 
stroke:#000000; stroke-width:0.0000; stroke-opacity:1; 
stroke-linecap:round; stroke-linejoin:round;">
<circle cx="116.2050" cy="59.0550" r="1.0000" /> 
</g>
<g style="fill:#000000; fill-opacity:1.0000; 
stroke:#000000; stroke-width:0.0212; stroke-opacity:1; 
stroke-linecap:round; stroke-linejoin:round;">
</g>
<g >
</g>
<g >
</g>
<g >
</g>
<g >
</g>
<g style="fill:#000000; fill-opacity:1.0000; 
stroke:#000000; stroke-width:0.0212; stroke-opacity:1; 
stroke-linecap:round; stroke-linejoin:round;">
<g >
</g>
<g style="fill:#000000; fill-opacity:1.0000; 
stroke:#000000; stroke-width:0.0000; stroke-opacity:1; 
stroke-linecap:round; stroke-linejoin:round;">
<path style="fill:#000000; fill-opacity:1.0000; 
stroke:#000000; stroke-width:0.0000; stroke-opacity:1; 
stroke-linecap:round; stroke-linejoin:round;fill-rule:evenodd;"
d="M 7.0150,3.0500
7.0001,3.0523
7.0001,3.0523
6.9913,3.0537
6.9708,3.0510
6.9490,3.0501
6.5921,3.0657
6.5811,3.0666
6.1966,3.1172
6.1858,3.1191
5.8072,3.2031
5.7966,3.2059
5.6263,3.2596
5.4267,3.3225
5.4164,3.3263
5.0581,3.4747
5.0481,3.4794
4.7041,3.6584
4.6946,3.6639
4.3675,3.8723
4.3585,3.8786
4.0509,4.1147
4.0424,4.1217
3.7565,4.3837
3.7487,4.3915
3.4867,4.6774
3.4797,4.6859
3.2436,4.9935
3.2373,5.0025
3.0289,5.3296
3.0234,5.3391
2.8444,5.6831
2.8397,5.6931
2.6913,6.0514
2.6875,6.0617
2.5709,6.4316
2.5681,6.4422
2.4841,6.8208
2.4822,6.8316
2.4316,7.2161
2.4307,7.2271
2.4154,7.5766
2.4168,7.6014
2.4187,7.6137
2.4175,7.6226
2.4175,7.6226
2.4146,7.6453
2.4135,7.6616
2.4135,91.3906
2.4150,91.4100
2.4173,91.4249
2.4173,91.4249
2.4187,91.4337
2.4160,91.4542
2.4151,91.4760
2.4307,91.8329
2.4316,91.8439
2.4822,92.2284
2.4841,92.2392
2.5681,92.6178
2.5709,92.6284
2.6875,92.9983
2.6913,93.0086
2.8397,93.3669
2.8444,93.3769
3.0234,93.7209
3.0289,93.7304
3.2373,94.0575
3.2436,94.0665
3.4797,94.3741
3.4867,94.3826
3.7487,94.6685
3.7565,94.6763
4.0424,94.9383
4.0509,94.9453
4.3585,95.1814
4.3675,95.1877
4.6946,95.3961
4.7041,95.4016
5.0481,95.5806
5.0581,95.5853
5.4164,95.7337
5.4267,95.7375
5.6263,95.8004
5.7966,95.8541
5.8072,95.8569
6.1858,95.9409
6.1966,95.9428
6.5811,95.9934
6.5921,95.9943
6.9416,96.0096
6.9664,96.0082
6.9787,96.0063
6.9876,96.0075
6.9876,96.0075
7.0027,96.0094
7.0103,96.0104
7.0266,96.0115
144.7306,96.0115
144.7500,96.0100
144.7649,96.0077
144.7649,96.0077
144.7737,96.0063
144.7942,96.0090
144.8160,96.0099
145.1729,95.9943
145.1839,95.9934
145.5684,95.9428
145.5792,95.9409
145.9578,95.8569
145.9684,95.8541
146.1387,95.8004
146.3383,95.7375
146.3486,95.7337
146.7069,95.5853
146.7169,95.5806
147.0609,95.4016
147.0704,95.3961
147.3975,95.1877
147.4065,95.1814
147.7141,94.9453
147.7226,94.9383
148.0085,94.6763
148.0163,94.6685
148.2783,94.3826
148.2853,94.3741
148.5214,94.0665
148.5277,94.0575
148.7361,93.7304
148.7416,93.7209
148.9206,93.3769
148.9253,93.3669
149.0737,93.0086
149.0775,92.9983
149.1941,92.6284
149.1969,92.6178
149.2809,92.2392
149.2828,92.2284
149.3334,91.8439
149.3343,91.8329
149.3494,91.4872
149.3478,91.4608
149.3472,91.4574
149.3472,91.4573
149.3464,91.4526
149.3463,91.4400
149.3502,91.4124
149.3515,91.3945
149.3515,72.3900
75.4436,72.3900
75.4233,72.7756
75.4228,72.7788
75.4228,72.7788
75.3950,72.9544
75.3630,73.1569
75.2630,73.5298
75.1247,73.8903
75.1232,73.8932
74.9794,74.1753
74.9494,74.2343
74.7391,74.5581
74.4961,74.8581
74.2231,75.1311
73.9231,75.3741
73.5993,75.5844
73.5963,75.5859
73.5963,75.5859
73.3878,75.6922
73.2553,75.7597
72.8948,75.8980
72.5219,75.9980
72.3194,76.0300
72.1438,76.0578
72.1438,76.0578
72.1406,76.0583
71.7550,76.0786
71.3694,76.0583
71.3662,76.0578
71.3662,76.0578
71.1906,76.0300
70.9881,75.9980
70.6152,75.8980
70.2547,75.7597
70.1222,75.6922
69.9137,75.5859
69.9137,75.5859
69.9107,75.5844
69.5869,75.3741
69.2869,75.1311
69.0139,74.8581
68.7709,74.5581
68.5606,74.2343
68.5306,74.1753
68.3868,73.8932
68.3853,73.8903
68.2470,73.5298
68.1470,73.1569
68.1150,72.9544
68.0872,72.7788
68.0872,72.7788
68.0867,72.7756
68.0664,72.3900
32.5175,72.3900
32.5173,72.3927
32.5005,72.7788
32.4976,72.8443
32.4383,73.2951
32.3399,73.7391
32.3390,73.7417
32.3390,73.7417
32.2746,73.9460
32.2031,74.1728
32.0291,74.5929
31.8191,74.9962
31.5748,75.3797
31.5731,75.3819
31.5731,75.3819
31.3351,75.6922
31.2980,75.7405
30.9908,76.0758
30.6555,76.3830
30.6533,76.3846
30.6533,76.3846
30.4365,76.5510
30.2947,76.6598
29.9112,76.9041
29.5079,77.1141
29.0878,77.2881
29.0851,77.2889
29.0851,77.2889
28.6567,77.4240
28.6567,77.4240
28.6541,77.4249
28.2101,77.5233
28.2074,77.5236
28.2074,77.5236
28.0385,77.5459
27.7593,77.5826
27.7565,77.5827
27.7565,77.5827
27.3077,77.6023
27.3050,77.6025
27.3023,77.6023
26.8535,77.5827
26.8535,77.5827
26.8507,77.5826
26.5715,77.5459
26.4026,77.5236
26.4026,77.5236
26.3999,77.5233
25.9559,77.4249
25.9533,77.4240
25.9533,77.4240
25.5249,77.2889
25.5249,77.2889
25.5222,77.2881
25.1021,77.1141
24.6988,76.9041
24.3153,76.6598
24.1735,76.5510
23.9567,76.3846
23.9567,76.3846
23.9545,76.3830
23.6192,76.0758
23.3120,75.7405
23.2749,75.6922
23.0369,75.3819
23.0369,75.3819
23.0352,75.3797
22.7909,74.9962
22.5809,74.5929
22.4069,74.1728
22.3354,73.9460
22.2710,73.7417
22.2710,73.7417
22.2701,73.7391
22.1717,73.2951
22.1124,72.8443
22.1095,72.7788
22.0927,72.3927
22.0925,72.3900
22.0951,72.3315
22.1123,71.9385
22.1123,71.9385
22.1124,71.9357
22.1597,71.5761
22.1714,71.4876
22.1714,71.4876
22.1717,71.4849
22.2701,71.0409
22.3653,70.7392
22.4061,70.6099
22.4061,70.6099
22.4069,70.6072
22.5809,70.1871
22.7909,69.7838
23.0352,69.4003
23.1908,69.1974
23.3104,69.0417
23.3104,69.0417
23.3120,69.0395
23.6192,68.7042
23.9545,68.3970
23.9567,68.3954
23.9567,68.3954
24.3131,68.1219
24.3131,68.1219
24.3153,68.1202
24.6988,67.8759
25.1021,67.6659
25.5222,67.4919
25.5249,67.4911
25.5249,67.4911
25.9533,67.3560
25.9533,67.3560
25.9559,67.3551
26.3999,67.2567
26.4026,67.2564
26.4026,67.2564
26.5715,67.2341
26.8507,67.1974
26.8535,67.1973
26.8535,67.1973
27.3023,67.1777
27.3050,67.1775
27.3077,67.1777
27.7565,67.1973
27.7565,67.1973
27.7593,67.1974
28.0385,67.2341
28.2074,67.2564
28.2074,67.2564
28.2101,67.2567
28.6541,67.3551
28.6567,67.3560
28.6567,67.3560
29.0851,67.4911
29.0851,67.4911
29.0878,67.4919
29.5079,67.6659
29.9112,67.8759
30.2947,68.1202
30.2969,68.1219
30.2969,68.1219
30.6533,68.3954
30.6533,68.3954
30.6555,68.3970
30.9908,68.7042
31.2980,69.0395
31.2996,69.0417
31.2996,69.0417
31.4192,69.1974
31.5748,69.4003
31.8191,69.7838
32.0291,70.1871
32.2031,70.6072
32.2039,70.6099
32.2039,70.6099
32.2447,70.7392
32.3399,71.0409
32.4383,71.4849
32.4386,71.4876
32.4386,71.4876
32.4503,71.5761
32.4976,71.9357
32.5149,72.3315
32.5175,72.3900
68.0664,72.3900
68.0867,72.0044
68.0996,71.9229
68.1465,71.6264
68.1470,71.6231
68.2470,71.2502
68.3853,70.8897
68.4620,70.7392
68.5591,70.5487
68.5591,70.5487
68.5606,70.5457
68.7709,70.2219
69.0139,69.9219
69.2869,69.6489
69.5869,69.4059
69.9107,69.1956
69.9137,69.1941
69.9137,69.1941
70.2518,69.0218
70.2547,69.0203
70.6152,68.8820
70.9881,68.7820
71.1906,68.7500
71.3662,68.7222
71.3662,68.7222
71.3694,68.7217
71.7550,68.7014
72.1406,68.7217
72.1438,68.7222
72.1438,68.7222
72.3194,68.7500
72.5219,68.7820
72.8948,68.8820
73.2553,69.0203
73.2582,69.0218
73.5963,69.1941
73.5963,69.1941
73.5993,69.1956
73.9231,69.4059
74.2231,69.6489
74.4961,69.9219
74.7391,70.2219
74.9494,70.5457
74.9509,70.5487
74.9509,70.5487
75.0480,70.7392
75.1247,70.8897
75.2630,71.2502
75.3630,71.6231
75.3635,71.6264
75.4104,71.9229
75.4233,72.0044
75.4421,72.3621
75.4436,72.3900
149.3515,72.3900
149.3515,60.2877
117.0728,60.2877
117.0671,60.2953
116.8960,60.4002
116.8872,60.4047
116.6770,60.4917
116.6676,60.4948
116.4464,60.5479
116.4367,60.5494
116.2099,60.5673
116.2001,60.5673
115.9733,60.5494
115.9636,60.5479
115.7424,60.4948
115.7330,60.4917
115.5228,60.4047
115.5140,60.4002
115.3466,60.2976
115.3371,60.2871
115.3409,60.2783
116.1922,59.4270
116.2061,59.4194
116.2080,59.4195
116.2146,59.4238
117.0661,60.2753
117.0728,60.2877
149.3515,60.2877
149.3515,59.0599
117.7173,59.0599
117.6994,59.2867
117.6979,59.2964
117.6448,59.5176
117.6417,59.5270
117.5547,59.7372
117.5502,59.7460
117.4476,59.9134
117.4371,59.9229
117.4283,59.9191
116.5770,59.0678
116.5706,59.0561
115.8406,59.0561
115.8405,59.0580
115.8362,59.0646
114.9847,59.9161
114.9723,59.9228
114.9647,59.9171
114.8598,59.7460
114.8553,59.7372
114.7683,59.5270
114.7652,59.5176
114.7121,59.2964
114.7106,59.2867
114.6927,59.0599
114.6927,59.0501
114.7106,58.8233
114.7121,58.8136
114.7652,58.5924
114.7683,58.5830
114.8553,58.3728
114.8598,58.3640
114.9624,58.1966
114.9729,58.1871
114.9817,58.1909
115.8330,59.0422
115.8406,59.0561
116.5706,59.0561
116.5694,59.0539
116.5695,59.0520
116.5738,59.0454
117.4253,58.1939
117.4377,58.1872
117.4453,58.1929
117.5502,58.3640
117.5547,58.3728
117.6417,58.5830
117.6448,58.5924
117.6979,58.8136
117.6994,58.8233
117.7173,59.0501
117.7173,59.0599
149.3515,59.0599
149.3515,57.8229
117.0729,57.8229
117.0691,57.8317
116.2178,58.6830
116.2039,58.6906
116.2020,58.6905
116.1954,58.6862
115.3439,57.8347
115.3372,57.8223
115.3429,57.8147
115.5140,57.7098
115.5228,57.7053
115.7330,57.6183
115.7424,57.6152
115.9636,57.5621
115.9733,57.5606
116.2001,57.5427
116.2099,57.5427
116.4367,57.5606
116.4464,57.5621
116.6676,57.6152
116.6770,57.6183
116.8872,57.7053
116.8960,57.7098
117.0634,57.8124
117.0729,57.8229
149.3515,57.8229
149.3515,50.1650
121.4175,50.1650
121.4173,50.1677
121.4022,50.5157
121.3976,50.6193
121.3383,51.0701
121.2399,51.5141
121.2390,51.5167
121.2390,51.5167
121.1788,51.7076
121.1031,51.9478
120.9291,52.3679
120.7191,52.7712
120.4748,53.1547
120.4731,53.1569
120.4731,53.1569
120.2351,53.4672
120.1980,53.5155
119.8908,53.8508
119.5555,54.1580
119.5533,54.1596
119.5533,54.1596
119.3365,54.3260
119.1947,54.4348
118.8112,54.6791
118.4079,54.8891
117.9878,55.0631
117.9851,55.0639
117.9851,55.0639
117.5567,55.1990
117.5567,55.1990
117.5541,55.1999
117.1101,55.2983
117.1074,55.2986
117.1074,55.2986
116.9385,55.3209
116.6593,55.3576
116.6565,55.3577
116.6565,55.3577
116.2077,55.3773
116.2050,55.3775
116.2023,55.3773
115.7535,55.3577
115.7535,55.3577
115.7507,55.3576
115.4715,55.3209
115.3026,55.2986
115.3026,55.2986
115.2999,55.2983
114.8559,55.1999
114.8533,55.1990
114.8533,55.1990
114.4249,55.0639
114.4249,55.0639
114.4222,55.0631
114.0021,54.8891
113.5988,54.6791
113.2153,54.4348
113.0735,54.3260
112.8567,54.1596
112.8567,54.1596
112.8545,54.1580
112.5192,53.8508
112.2120,53.5155
112.1749,53.4672
111.9369,53.1569
111.9369,53.1569
111.9352,53.1547
111.6909,52.7712
111.4809,52.3679
111.3069,51.9478
111.2312,51.7076
111.1710,51.5167
111.1710,51.5167
111.1701,51.5141
111.0717,51.0701
111.0124,50.6193
111.0078,50.5157
110.9927,50.1677
110.9925,50.1650
110.9951,50.1065
111.0123,49.7135
111.0123,49.7135
111.0124,49.7107
111.0597,49.3511
111.0714,49.2626
111.0714,49.2626
111.0717,49.2599
111.1701,48.8159
111.3069,48.3822
111.4809,47.9621
111.6909,47.5588
111.9352,47.1753
112.1187,46.9362
112.2104,46.8167
112.2104,46.8167
112.2120,46.8145
112.5192,46.4792
112.8545,46.1720
112.8567,46.1704
112.8567,46.1704
113.2131,45.8969
113.2131,45.8969
113.2153,45.8952
113.5988,45.6509
114.0021,45.4409
114.4222,45.2669
114.4249,45.2661
114.4249,45.2661
114.8533,45.1310
114.8533,45.1310
114.8559,45.1301
115.2999,45.0317
115.3026,45.0314
115.3026,45.0314
115.4715,45.0091
115.7507,44.9724
115.7535,44.9723
115.7535,44.9723
116.2023,44.9527
116.2050,44.9525
116.2077,44.9527
116.6565,44.9723
116.6565,44.9723
116.6593,44.9724
116.9385,45.0091
117.1074,45.0314
117.1074,45.0314
117.1101,45.0317
117.5541,45.1301
117.5567,45.1310
117.5567,45.1310
117.9851,45.2661
117.9851,45.2661
117.9878,45.2669
118.4079,45.4409
118.8112,45.6509
119.1947,45.8952
119.1969,45.8969
119.1969,45.8969
119.5533,46.1704
119.5533,46.1704
119.5555,46.1720
119.8908,46.4792
120.1980,46.8145
120.1996,46.8167
120.1996,46.8167
120.2913,46.9362
120.4748,47.1753
120.7191,47.5588
120.9291,47.9621
121.1031,48.3822
121.2399,48.8159
121.3383,49.2599
121.3386,49.2626
121.3386,49.2626
121.3503,49.3511
121.3976,49.7107
121.4149,50.1065
121.4175,50.1650
149.3515,50.1650
149.3515,27.7994
76.2288,27.7994
76.2267,27.9279
76.2221,28.2210
76.1759,28.6402
76.1753,28.6431
76.1753,28.6431
76.0951,29.0302
76.0903,29.0531
75.9664,29.4562
75.8050,29.8458
75.6077,30.2185
75.6060,30.2209
75.6060,30.2209
75.5340,30.3306
75.3761,30.5709
75.1125,30.9000
74.8190,31.2028
74.8168,31.2048
74.6001,31.3898
74.4984,31.4767
74.1533,31.7192
74.0467,31.7800
73.7896,31.9266
73.7896,31.9267
73.7870,31.9281
73.4027,32.1017
73.0038,32.2382
73.0009,32.2389
73.0009,32.2389
72.5966,32.3360
72.5966,32.3360
72.5937,32.3367
72.5908,32.3371
72.5908,32.3371
72.3876,32.3660
72.1762,32.3961
71.7550,32.4160
71.3338,32.3961
71.1224,32.3660
70.9192,32.3371
70.9192,32.3371
70.9163,32.3367
70.9134,32.3360
70.9134,32.3360
70.5091,32.2389
70.5091,32.2389
70.5062,32.2382
70.1073,32.1017
69.7230,31.9281
69.7204,31.9267
69.7204,31.9266
69.4633,31.7800
69.3567,31.7192
69.0116,31.4767
68.9099,31.3898
68.6932,31.2048
68.6910,31.2028
68.3975,30.9000
68.1339,30.5709
67.9760,30.3306
67.9040,30.2209
67.9040,30.2209
67.9023,30.2185
67.7050,29.8458
67.5436,29.4562
67.4197,29.0531
67.4149,29.0302
67.3347,28.6431
67.3347,28.6431
67.3341,28.6402
67.2879,28.2210
67.2790,27.9400
32.5175,27.9400
32.5173,27.9427
32.5001,28.3370
32.4976,28.3943
32.4383,28.8451
32.3399,29.2891
32.3390,29.2917
32.3390,29.2917
32.2076,29.7085
32.2031,29.7228
32.0291,30.1429
31.8191,30.5462
31.5748,30.9297
31.5731,30.9319
31.5731,30.9319
31.3114,31.2731
31.2980,31.2905
30.9908,31.6258
30.6555,31.9330
30.6533,31.9346
30.6533,31.9346
30.4142,32.1181
30.2947,32.2098
29.9112,32.4541
29.5079,32.6641
29.0878,32.8381
29.0851,32.8389
29.0851,32.8389
28.6567,32.9740
28.6567,32.9740
28.6541,32.9749
28.2101,33.0733
28.2074,33.0736
28.2074,33.0736
28.0385,33.0959
27.7593,33.1326
27.7565,33.1327
27.7565,33.1327
27.3077,33.1523
27.3050,33.1525
27.3023,33.1523
26.8535,33.1327
26.8535,33.1327
26.8507,33.1326
26.5715,33.0959
26.4026,33.0736
26.4026,33.0736
26.3999,33.0733
25.9559,32.9749
25.9533,32.9740
25.9533,32.9740
25.5249,32.8389
25.5249,32.8389
25.5222,32.8381
25.1021,32.6641
24.6988,32.4541
24.3153,32.2098
24.1958,32.1181
23.9567,31.9346
23.9567,31.9346
23.9545,31.9330
23.6192,31.6258
23.3120,31.2905
23.2986,31.2731
23.0369,30.9319
23.0369,30.9319
23.0352,30.9297
22.7909,30.5462
22.5809,30.1429
22.4069,29.7228
22.4024,29.7085
22.2710,29.2917
22.2710,29.2917
22.2701,29.2891
22.1717,28.8451
22.1124,28.3943
22.1099,28.3370
22.0927,27.9427
22.0925,27.9400
22.1088,27.5670
22.1123,27.4885
22.1123,27.4885
22.1124,27.4857
22.1626,27.1042
22.1714,27.0376
22.1714,27.0376
22.1717,27.0349
22.2701,26.5909
22.3643,26.2923
22.4061,26.1599
22.4061,26.1599
22.4069,26.1572
22.5809,25.7371
22.7909,25.3338
23.0352,24.9503
23.0855,24.8847
23.3104,24.5917
23.3104,24.5917
23.3120,24.5895
23.6192,24.2542
23.9545,23.9470
23.9567,23.9454
23.9567,23.9454
24.3131,23.6719
24.3131,23.6719
24.3153,23.6702
24.6988,23.4259
25.1021,23.2159
25.5222,23.0419
25.5249,23.0411
25.5249,23.0411
25.9533,22.9060
25.9533,22.9060
25.9559,22.9051
26.3999,22.8067
26.4026,22.8064
26.4026,22.8064
26.5715,22.7841
26.8507,22.7474
26.8535,22.7473
26.8535,22.7473
27.3023,22.7277
27.3050,22.7275
27.3077,22.7277
27.7565,22.7473
27.7565,22.7473
27.7593,22.7474
28.0385,22.7841
28.2074,22.8064
28.2074,22.8064
28.2101,22.8067
28.6541,22.9051
28.6567,22.9060
28.6567,22.9060
29.0851,23.0411
29.0851,23.0411
29.0878,23.0419
29.5079,23.2159
29.9112,23.4259
30.2947,23.6702
30.2969,23.6719
30.2969,23.6719
30.6533,23.9454
30.6533,23.9454
30.6555,23.9470
30.9908,24.2542
31.2980,24.5895
31.2996,24.5917
31.2996,24.5917
31.5245,24.8847
31.5748,24.9503
31.8191,25.3338
32.0291,25.7371
32.2031,26.1572
32.2039,26.1599
32.2039,26.1599
32.2457,26.2923
32.3399,26.5909
32.4383,27.0349
32.4386,27.0376
32.4386,27.0376
32.4474,27.1042
32.4976,27.4857
32.5149,27.8815
32.5175,27.9400
67.2790,27.9400
67.2989,27.5188
67.3583,27.1013
67.3749,27.0322
67.4561,26.6941
67.4561,26.6941
67.4568,26.6912
67.5933,26.2923
67.7669,25.9080
67.9758,25.5417
68.2183,25.1966
68.4922,24.8760
68.7950,24.5825
69.1241,24.3189
69.2194,24.2563
69.4741,24.0890
69.4741,24.0890
69.4765,24.0873
69.8492,23.8900
70.2388,23.7286
70.2416,23.7278
70.2416,23.7278
70.6390,23.6055
70.6390,23.6055
70.6419,23.6047
70.6448,23.6040
70.6448,23.6040
71.0519,23.5197
71.0519,23.5197
71.0548,23.5191
71.4740,23.4729
71.4769,23.4728
71.4769,23.4728
71.5968,23.4709
71.8956,23.4662
71.8985,23.4665
71.8985,23.4665
72.3066,23.4986
72.3160,23.4993
72.7314,23.5718
72.7343,23.5726
72.7343,23.5726
73.1353,23.6823
73.1353,23.6823
73.1382,23.6831
73.1409,23.6841
73.1409,23.6841
73.5103,23.8237
73.5326,23.8322
73.5353,23.8335
73.5353,23.8335
73.7671,23.9470
73.9113,24.0177
74.2709,24.2380
74.2733,24.2398
74.2733,24.2398
74.6057,24.4894
74.6057,24.4894
74.6081,24.4912
74.6103,24.4932
74.6103,24.4932
74.8498,24.7112
74.9200,24.7750
74.9220,24.7772
75.2018,25.0847
75.2018,25.0847
75.2038,25.0869
75.2056,25.0893
75.2056,25.0893
75.3891,25.3338
75.4570,25.4241
75.4585,25.4267
75.6473,25.7347
75.6773,25.7837
75.6786,25.7864
75.6786,25.7864
75.8615,26.1597
75.8628,26.1624
75.8639,26.1651
75.8639,26.1652
76.0109,26.5541
76.0109,26.5541
76.0119,26.5568
76.0127,26.5597
76.0127,26.5597
76.0889,26.8383
76.1232,26.9636
76.1957,27.3790
76.2288,27.7994
149.3515,27.7994
149.3515,7.6732
149.3498,7.6523
149.3472,7.6373
149.3472,7.6373
149.3464,7.6326
149.3463,7.6200
149.3470,7.6152
149.3470,7.6152
149.3486,7.6036
149.3498,7.5803
149.3343,7.2271
149.3334,7.2161
149.2828,6.8316
149.2809,6.8208
149.1969,6.4422
149.1941,6.4316
149.0775,6.0617
149.0737,6.0514
148.9253,5.6931
148.9206,5.6831
148.7416,5.3391
148.7361,5.3296
148.5277,5.0025
148.5214,4.9935
148.2853,4.6859
148.2783,4.6774
148.0163,4.3915
148.0085,4.3837
147.7226,4.1217
147.7141,4.1147
147.4065,3.8786
147.3975,3.8723
147.0704,3.6639
147.0609,3.6584
146.7169,3.4794
146.7069,3.4747
146.3486,3.3263
146.3383,3.3225
146.1387,3.2596
145.9684,3.2059
145.9578,3.2031
145.5792,3.1191
145.5684,3.1172
145.1839,3.0666
145.1729,3.0657
144.8234,3.0504
144.7986,3.0518
144.7863,3.0537
144.7774,3.0525
144.7774,3.0525
144.7586,3.0501
144.7547,3.0496
144.7384,3.0485
7.0344,3.0485
Z" /> 
</g>
</g>
</g>
<g style="fill:#FFFFFF; fill-opacity:1.0000; 
stroke:#FFFFFF; stroke-width:0.0000; stroke-opacity:1; 
stroke-linecap:round; stroke-linejoin:round;">
<circle cx="116.2050" cy="59.0550" r="0.5000" /> 
</g>
<g style="fill:#FFFFFF; fill-opacity:1.0000; 
stroke:#FFFFFF; stroke-width:0.0212; stroke-opacity:1; 
stroke-linecap:round; stroke-linejoin:round;">
</g>
<g style="fill:#000000; fill-opacity:1.0000; 
stroke:#000000; stroke-width:0.0212; stroke-opacity:1; 
stroke-linecap:round; stroke-linejoin:round;">
</g>
<g style="fill:#C2C2C2; fill-opacity:1.0000; 
stroke:#C2C2C2; stroke-width:0.0212; stroke-opacity:1; 
stroke-linecap:round; stroke-linejoin:round;">
</g>
<g style="fill:#C2C2C2; fill-opacity:0.0; 
stroke:#C2C2C2; stroke-width:0.1000; stroke-opacity:1; 
stroke-linecap:round; stroke-linejoin:round;">
<path d="M144.7800 96.5200 A5.0800 5.0800 0.0 0 0 149.8600 91.4400" />
<path d="M149.8600 7.6200
L149.8600 91.4400
" />
</g>
<g style="fill:#C2C2C2; fill-opacity:0.0; 
stroke:#C2C2C2; stroke-width:0.1500; stroke-opacity:1; 
stroke-linecap:round; stroke-linejoin:round;">
<circle cx="71.7550" cy="27.9400" r="3.9624" /> 
<circle cx="116.2050" cy="50.1650" r="4.6990" /> 
</g>
<g style="fill:#C2C2C2; fill-opacity:0.0; 
stroke:#C2C2C2; stroke-width:0.1000; stroke-opacity:1; 
stroke-linecap:round; stroke-linejoin:round;">
<path d="M149.8600 7.6200 A5.0800 5.0800 0.0 0 0 144.7800 2.5400" />
</g>
<g style="fill:#C2C2C2; fill-opacity:0.0; 
stroke:#C2C2C2; stroke-width:0.1500; stroke-opacity:1; 
stroke-linecap:round; stroke-linejoin:round;">
<circle cx="27.3050" cy="72.3900" r="4.6990" /> 
</g>
<g style="fill:#C2C2C2; fill-opacity:0.0; 
stroke:#C2C2C2; stroke-width:0.1000; stroke-opacity:1; 
stroke-linecap:round; stroke-linejoin:round;">
<path d="M1.9050 91.4400
L1.9050 7.6200
" />
<path d="M6.9850 2.5400 A5.0800 5.0800 0.0 0 0 1.9050 7.6200" />
<path d="M1.9050 91.4400 A5.0800 5.0800 0.0 0 0 6.9850 96.5200" />
</g>
<g style="fill:#C2C2C2; fill-opacity:0.0; 
stroke:#C2C2C2; stroke-width:0.1500; stroke-opacity:1; 
stroke-linecap:round; stroke-linejoin:round;">
<circle cx="71.7550" cy="72.3900" r="3.1750" /> 
</g>
<g style="fill:#C2C2C2; fill-opacity:0.0; 
stroke:#C2C2C2; stroke-width:0.1000; stroke-opacity:1; 
stroke-linecap:round; stroke-linejoin:round;">
<path d="M144.7800 96.5200
L6.9850 96.5200
" />
</g>
<g style="fill:#C2C2C2; fill-opacity:0.0; 
stroke:#C2C2C2; stroke-width:0.1500; stroke-opacity:1; 
stroke-linecap:round; stroke-linejoin:round;">
<circle cx="27.3050" cy="27.9400" r="4.6990" /> 
</g>
<g style="fill:#C2C2C2; fill-opacity:0.0; 
stroke:#C2C2C2; stroke-width:0.1000; stroke-opacity:1; 
stroke-linecap:round; stroke-linejoin:round;">
<path d="M6.9850 2.5400
L144.7800 2.5400
" />
<g >
</g>
<g >
</g>
<g >
</g>
<g >
</g>
<g >
</g>
</g> 
</svg>
