<?xml version="1.0" standalone="no"?>
 <!DOCTYPE svg PUBLIC "-//W3C//DTD SVG 1.1//EN" 
 "http://www.w3.org/Graphics/SVG/1.1/DTD/svg11.dtd"> 
<svg
  xmlns:svg="http://www.w3.org/2000/svg"
  xmlns="http://www.w3.org/2000/svg"
  xmlns:xlink="http://www.w3.org/1999/xlink"
  version="1.1"
  width="215.9000mm" height="106.6800mm" viewBox="0.0000 0.0000 215.9000 106.6800">
<title>SVG Image created as ribbon_pcb_panel_back.svg date 2023/03/27 09:42:05 </title>
  <desc>Image generated by PCBNEW </desc>
<g style="fill:#000000; fill-opacity:1.0000;stroke:#000000; stroke-opacity:1.0000;
stroke-linecap:round; stroke-linejoin:round;"
 transform="translate(0 0) scale(1 1)">
</g>
<g style="fill:#000000; fill-opacity:0.0; 
stroke:#000000; stroke-width:0.0000; stroke-opacity:1; 
stroke-linecap:round; stroke-linejoin:round;">
</g>
<g style="fill:#C2C2C2; fill-opacity:0.0; 
stroke:#C2C2C2; stroke-width:0.0000; stroke-opacity:1; 
stroke-linecap:round; stroke-linejoin:round;">
</g>
<g style="fill:#C2C2C2; fill-opacity:0.0; 
stroke:#C2C2C2; stroke-width:0.2000; stroke-opacity:1; 
stroke-linecap:round; stroke-linejoin:round;">
<text x="121.9200" y="9.2550"
textLength="20.6714" font-size="2.6667" lengthAdjust="spacingAndGlyphs"
text-anchor="middle" opacity="0">JLCJLCJLCJLC</text>
<g class="stroked-text"><desc>JLCJLCJLCJLC</desc>
<path d="M131.1581 7.1802
L131.1581 8.6088
" />
<path d="M131.1581 8.6088
L131.2533 8.8945
" />
<path d="M131.2533 8.8945
L131.4438 9.0850
" />
<path d="M131.4438 9.0850
L131.7295 9.1802
" />
<path d="M131.7295 9.1802
L131.9200 9.1802
" />
<path d="M129.2533 9.1802
L130.2057 9.1802
" />
<path d="M130.2057 9.1802
L130.2057 7.1802
" />
<path d="M127.4438 8.9898
L127.5390 9.0850
" />
<path d="M127.5390 9.0850
L127.8248 9.1802
" />
<path d="M127.8248 9.1802
L128.0152 9.1802
" />
<path d="M128.0152 9.1802
L128.3010 9.0850
" />
<path d="M128.3010 9.0850
L128.4914 8.8945
" />
<path d="M128.4914 8.8945
L128.5867 8.7040
" />
<path d="M128.5867 8.7040
L128.6819 8.3231
" />
<path d="M128.6819 8.3231
L128.6819 8.0374
" />
<path d="M128.6819 8.0374
L128.5867 7.6564
" />
<path d="M128.5867 7.6564
L128.4914 7.4660
" />
<path d="M128.4914 7.4660
L128.3010 7.2755
" />
<path d="M128.3010 7.2755
L128.0152 7.1802
" />
<path d="M128.0152 7.1802
L127.8248 7.1802
" />
<path d="M127.8248 7.1802
L127.5390 7.2755
" />
<path d="M127.5390 7.2755
L127.4438 7.3707
" />
<path d="M126.0152 7.1802
L126.0152 8.6088
" />
<path d="M126.0152 8.6088
L126.1105 8.8945
" />
<path d="M126.1105 8.8945
L126.3010 9.0850
" />
<path d="M126.3010 9.0850
L126.5867 9.1802
" />
<path d="M126.5867 9.1802
L126.7771 9.1802
" />
<path d="M124.1105 9.1802
L125.0629 9.1802
" />
<path d="M125.0629 9.1802
L125.0629 7.1802
" />
<path d="M122.3010 8.9898
L122.3962 9.0850
" />
<path d="M122.3962 9.0850
L122.6819 9.1802
" />
<path d="M122.6819 9.1802
L122.8724 9.1802
" />
<path d="M122.8724 9.1802
L123.1581 9.0850
" />
<path d="M123.1581 9.0850
L123.3486 8.8945
" />
<path d="M123.3486 8.8945
L123.4438 8.7040
" />
<path d="M123.4438 8.7040
L123.5390 8.3231
" />
<path d="M123.5390 8.3231
L123.5390 8.0374
" />
<path d="M123.5390 8.0374
L123.4438 7.6564
" />
<path d="M123.4438 7.6564
L123.3486 7.4660
" />
<path d="M123.3486 7.4660
L123.1581 7.2755
" />
<path d="M123.1581 7.2755
L122.8724 7.1802
" />
<path d="M122.8724 7.1802
L122.6819 7.1802
" />
<path d="M122.6819 7.1802
L122.3962 7.2755
" />
<path d="M122.3962 7.2755
L122.3010 7.3707
" />
<path d="M120.8724 7.1802
L120.8724 8.6088
" />
<path d="M120.8724 8.6088
L120.9676 8.8945
" />
<path d="M120.9676 8.8945
L121.1581 9.0850
" />
<path d="M121.1581 9.0850
L121.4438 9.1802
" />
<path d="M121.4438 9.1802
L121.6343 9.1802
" />
<path d="M118.9676 9.1802
L119.9200 9.1802
" />
<path d="M119.9200 9.1802
L119.9200 7.1802
" />
<path d="M117.1581 8.9898
L117.2533 9.0850
" />
<path d="M117.2533 9.0850
L117.5390 9.1802
" />
<path d="M117.5390 9.1802
L117.7295 9.1802
" />
<path d="M117.7295 9.1802
L118.0152 9.0850
" />
<path d="M118.0152 9.0850
L118.2057 8.8945
" />
<path d="M118.2057 8.8945
L118.3010 8.7040
" />
<path d="M118.3010 8.7040
L118.3962 8.3231
" />
<path d="M118.3962 8.3231
L118.3962 8.0374
" />
<path d="M118.3962 8.0374
L118.3010 7.6564
" />
<path d="M118.3010 7.6564
L118.2057 7.4660
" />
<path d="M118.2057 7.4660
L118.0152 7.2755
" />
<path d="M118.0152 7.2755
L117.7295 7.1802
" />
<path d="M117.7295 7.1802
L117.5390 7.1802
" />
<path d="M117.5390 7.1802
L117.2533 7.2755
" />
<path d="M117.2533 7.2755
L117.1581 7.3707
" />
<path d="M115.7295 7.1802
L115.7295 8.6088
" />
<path d="M115.7295 8.6088
L115.8248 8.8945
" />
<path d="M115.8248 8.8945
L116.0152 9.0850
" />
<path d="M116.0152 9.0850
L116.3010 9.1802
" />
<path d="M116.3010 9.1802
L116.4914 9.1802
" />
<path d="M113.8248 9.1802
L114.7771 9.1802
" />
<path d="M114.7771 9.1802
L114.7771 7.1802
" />
<path d="M112.0152 8.9898
L112.1105 9.0850
" />
<path d="M112.1105 9.0850
L112.3962 9.1802
" />
<path d="M112.3962 9.1802
L112.5867 9.1802
" />
<path d="M112.5867 9.1802
L112.8724 9.0850
" />
<path d="M112.8724 9.0850
L113.0629 8.8945
" />
<path d="M113.0629 8.8945
L113.1581 8.7040
" />
<path d="M113.1581 8.7040
L113.2533 8.3231
" />
<path d="M113.2533 8.3231
L113.2533 8.0374
" />
<path d="M113.2533 8.0374
L113.1581 7.6564
" />
<path d="M113.1581 7.6564
L113.0629 7.4660
" />
<path d="M113.0629 7.4660
L112.8724 7.2755
" />
<path d="M112.8724 7.2755
L112.5867 7.1802
" />
<path d="M112.5867 7.1802
L112.3962 7.1802
" />
<path d="M112.3962 7.1802
L112.1105 7.2755
" />
<path d="M112.1105 7.2755
L112.0152 7.3707
" />
</g><g >
</g>
<g >
</g>
<g >
</g>
<g >
</g>
<g >
</g>
<g >
</g>
<g >
</g>
</g>
<g style="fill:#FFFFFF; fill-opacity:0.0; 
stroke:#FFFFFF; stroke-width:0.2000; stroke-opacity:1; 
stroke-linecap:round; stroke-linejoin:round;">
</g>
<g style="fill:#FFFFFF; fill-opacity:1.0000; 
stroke:#FFFFFF; stroke-width:0.0000; stroke-opacity:1; 
stroke-linecap:round; stroke-linejoin:round;">
<circle cx="187.9600" cy="33.6550" r="0.5000" /> 
</g>
<g style="fill:#FFFFFF; fill-opacity:1.0000; 
stroke:#FFFFFF; stroke-width:0.0212; stroke-opacity:1; 
stroke-linecap:round; stroke-linejoin:round;">
</g>
<g style="fill:#000000; fill-opacity:1.0000; 
stroke:#000000; stroke-width:0.0212; stroke-opacity:1; 
stroke-linecap:round; stroke-linejoin:round;">
<g >
</g>
<g style="fill:#000000; fill-opacity:1.0000; 
stroke:#000000; stroke-width:0.0000; stroke-opacity:1; 
stroke-linecap:round; stroke-linejoin:round;">
<circle cx="187.9600" cy="33.6550" r="1.0000" /> 
</g>
<g style="fill:#000000; fill-opacity:1.0000; 
stroke:#000000; stroke-width:0.0212; stroke-opacity:1; 
stroke-linecap:round; stroke-linejoin:round;">
</g>
<g >
</g>
<g >
</g>
<g >
</g>
<g >
</g>
<g >
</g>
<g >
</g>
<g style="fill:#000000; fill-opacity:1.0000; 
stroke:#000000; stroke-width:0.0212; stroke-opacity:1; 
stroke-linecap:round; stroke-linejoin:round;">
<g >
</g>
<g style="fill:#000000; fill-opacity:1.0000; 
stroke:#000000; stroke-width:0.0000; stroke-opacity:1; 
stroke-linecap:round; stroke-linejoin:round;">
<path style="fill:#000000; fill-opacity:1.0000; 
stroke:#000000; stroke-width:0.0000; stroke-opacity:1; 
stroke-linecap:round; stroke-linejoin:round;fill-rule:evenodd;"
d="M 8.8873,3.0406
8.4964,3.0577
8.4854,3.0586
8.1002,3.1094
8.0894,3.1113
7.7101,3.1954
7.6995,3.1982
7.3290,3.3150
7.3186,3.3188
6.9597,3.4675
6.9497,3.4721
6.6051,3.6515
6.5956,3.6570
6.3635,3.8049
6.2680,3.8657
6.2589,3.8720
5.9507,4.1086
5.9423,4.1156
5.6559,4.3781
5.6481,4.3859
5.3856,4.6723
5.3786,4.6807
5.1420,4.9889
5.1357,4.9980
4.9270,5.3256
4.9215,5.3351
4.7421,5.6797
4.7375,5.6897
4.5888,6.0486
4.5850,6.0590
4.4682,6.4295
4.4654,6.4401
4.3813,6.8194
4.3794,6.8302
4.3286,7.2154
4.3277,7.2264
4.3106,7.6173
4.3105,7.6227
4.3105,97.7873
4.3106,97.7927
4.3277,98.1836
4.3286,98.1946
4.3794,98.5798
4.3813,98.5906
4.4654,98.9699
4.4682,98.9805
4.5850,99.3510
4.5888,99.3614
4.7375,99.7203
4.7421,99.7303
4.9215,100.0749
4.9270,100.0844
5.1357,100.4120
5.1420,100.4211
5.3786,100.7293
5.3856,100.7377
5.6481,101.0241
5.6559,101.0319
5.9423,101.2944
5.9507,101.3014
6.2589,101.5380
6.2680,101.5443
6.5956,101.7530
6.6051,101.7585
6.9497,101.9379
6.9597,101.9425
7.3186,102.0912
7.3290,102.0950
7.6995,102.2118
7.7101,102.2146
8.0894,102.2987
8.1002,102.3006
8.4854,102.3514
8.4964,102.3523
8.8873,102.3694
8.8927,102.3695
208.2773,102.3695
208.2827,102.3694
208.6736,102.3523
208.6846,102.3514
209.0698,102.3006
209.0806,102.2987
209.4599,102.2146
209.4705,102.2118
209.8410,102.0950
209.8514,102.0912
210.2103,101.9425
210.2203,101.9379
210.5649,101.7585
210.5744,101.7530
210.9020,101.5443
210.9111,101.5380
211.2193,101.3014
211.2277,101.2944
211.5141,101.0319
211.5219,101.0241
211.7844,100.7377
211.7914,100.7293
212.0280,100.4211
212.0343,100.4120
212.2430,100.0844
212.2485,100.0749
212.4279,99.7303
212.4325,99.7203
212.5812,99.3614
212.5850,99.3510
212.7018,98.9805
212.7046,98.9699
212.7887,98.5906
212.7906,98.5798
212.8414,98.1946
212.8423,98.1836
212.8594,97.7927
212.8595,97.7873
212.8595,77.4700
197.9905,77.4700
197.9704,77.8547
197.9101,78.2352
197.8104,78.6074
197.6723,78.9670
197.4974,79.3103
197.2876,79.6334
197.0452,79.9328
196.7728,80.2052
196.4734,80.4476
196.4734,80.4476
196.4734,80.4476
196.1503,80.6574
195.8070,80.8323
195.8070,80.8323
195.4474,80.9704
195.4474,80.9704
195.4474,80.9704
195.0752,81.0701
194.6947,81.1304
194.3100,81.1505
193.9253,81.1304
193.5448,81.0701
193.1726,80.9704
192.8380,80.8419
192.8130,80.8323
192.8130,80.8323
192.8130,80.8323
192.4697,80.6574
192.1466,80.4476
192.0108,80.3376
191.8472,80.2052
191.5748,79.9328
191.3324,79.6334
191.3324,79.6334
191.3324,79.6334
191.1226,79.3103
190.9477,78.9670
190.8096,78.6074
190.7099,78.2352
190.6496,77.8547
190.6295,77.4700
178.9405,77.4700
178.9204,77.8547
178.8601,78.2352
178.7604,78.6074
178.6223,78.9670
178.4474,79.3103
178.2376,79.6334
177.9952,79.9328
177.7228,80.2052
177.4234,80.4476
177.4234,80.4476
177.4234,80.4476
177.1003,80.6574
176.7570,80.8323
176.7570,80.8323
176.3974,80.9704
176.3974,80.9704
176.3974,80.9704
176.0252,81.0701
175.6447,81.1304
175.2600,81.1505
174.8753,81.1304
174.4948,81.0701
174.1226,80.9704
173.7880,80.8419
173.7630,80.8323
173.7630,80.8323
173.7630,80.8323
173.4197,80.6574
173.0966,80.4476
172.9608,80.3376
172.7972,80.2052
172.5248,79.9328
172.2824,79.6334
172.2824,79.6334
172.2824,79.6334
172.0726,79.3103
171.8977,78.9670
171.7596,78.6074
171.6599,78.2352
171.5996,77.8547
171.5795,77.4700
159.8905,77.4700
159.8704,77.8547
159.8101,78.2352
159.7104,78.6074
159.5723,78.9670
159.3974,79.3103
159.1876,79.6334
158.9452,79.9328
158.6728,80.2052
158.3734,80.4476
158.3734,80.4476
158.3734,80.4476
158.0503,80.6574
157.7070,80.8323
157.7070,80.8323
157.3474,80.9704
157.3474,80.9704
157.3474,80.9704
156.9752,81.0701
156.5947,81.1304
156.2100,81.1505
155.8253,81.1304
155.4448,81.0701
155.0726,80.9704
154.7380,80.8419
154.7130,80.8323
154.7130,80.8323
154.7130,80.8323
154.3697,80.6574
154.0466,80.4476
153.9108,80.3376
153.7472,80.2052
153.4748,79.9328
153.2324,79.6334
153.2324,79.6334
153.2324,79.6334
153.0226,79.3103
152.8477,78.9670
152.7096,78.6074
152.6099,78.2352
152.5496,77.8547
152.5295,77.4700
140.8405,77.4700
140.8204,77.8547
140.7601,78.2352
140.6604,78.6074
140.5223,78.9670
140.3474,79.3103
140.1376,79.6334
139.8952,79.9328
139.6228,80.2052
139.3234,80.4476
139.3234,80.4476
139.3234,80.4476
139.0003,80.6574
138.6570,80.8323
138.6570,80.8323
138.2974,80.9704
138.2974,80.9704
138.2974,80.9704
137.9252,81.0701
137.5447,81.1304
137.1600,81.1505
136.7753,81.1304
136.3948,81.0701
136.0226,80.9704
135.6880,80.8419
135.6630,80.8323
135.6630,80.8323
135.6630,80.8323
135.3197,80.6574
134.9966,80.4476
134.8608,80.3376
134.6972,80.2052
134.4248,79.9328
134.1824,79.6334
134.1824,79.6334
134.1824,79.6334
133.9726,79.3103
133.7977,78.9670
133.6596,78.6074
133.5599,78.2352
133.4996,77.8547
133.4795,77.4700
133.4795,77.4700
115.4405,77.4700
115.4204,77.8547
115.3601,78.2352
115.2604,78.6074
115.1223,78.9670
114.9474,79.3103
114.7376,79.6334
114.4952,79.9328
114.2228,80.2052
113.9234,80.4476
113.9234,80.4476
113.9234,80.4476
113.6003,80.6574
113.2570,80.8323
113.2570,80.8323
112.8974,80.9704
112.8974,80.9704
112.8974,80.9704
112.5252,81.0701
112.1447,81.1304
111.7600,81.1505
111.3753,81.1304
110.9948,81.0701
110.6226,80.9704
110.2880,80.8419
110.2630,80.8323
110.2630,80.8323
110.2630,80.8323
109.9197,80.6574
109.5966,80.4476
109.4608,80.3376
109.2972,80.2052
109.0248,79.9328
108.7824,79.6334
108.7824,79.6334
108.7824,79.6334
108.5726,79.3103
108.3977,78.9670
108.2596,78.6074
108.1599,78.2352
108.0996,77.8547
108.0795,77.4700
108.0795,77.4700
58.2905,77.4700
58.2704,77.8547
58.2101,78.2352
58.1104,78.6074
57.9723,78.9670
57.7974,79.3103
57.5876,79.6334
57.3452,79.9328
57.0728,80.2052
56.7734,80.4476
56.7734,80.4476
56.7734,80.4476
56.4503,80.6574
56.1070,80.8323
56.1070,80.8323
55.7474,80.9704
55.7474,80.9704
55.7474,80.9704
55.3752,81.0701
54.9947,81.1304
54.6100,81.1505
54.2253,81.1304
53.8448,81.0701
53.4726,80.9704
53.1380,80.8419
53.1130,80.8323
53.1130,80.8323
53.1130,80.8323
52.7697,80.6574
52.4466,80.4476
52.3108,80.3376
52.1472,80.2052
51.8748,79.9328
51.6324,79.6334
51.6324,79.6334
51.6324,79.6334
51.4226,79.3103
51.2477,78.9670
51.1096,78.6074
51.0099,78.2352
50.9496,77.8547
50.9295,77.4700
50.9295,77.4700
33.2654,77.4700
33.2459,77.8675
33.1875,78.2612
33.1007,78.6074
33.0908,78.6472
32.9567,79.0219
32.7865,79.3817
32.7865,79.3817
32.5819,79.7231
32.3449,80.0427
32.3449,80.0427
32.3449,80.0427
32.0776,80.3376
31.7827,80.6049
31.7827,80.6049
31.7827,80.6049
31.4631,80.8419
31.3499,80.9098
31.1217,81.0465
30.7619,81.2167
30.3872,81.3508
30.0012,81.4475
29.6075,81.5059
29.2100,81.5254
28.8125,81.5059
28.4188,81.4475
28.0328,81.3508
27.6581,81.2167
27.2983,81.0465
26.9569,80.8419
26.6373,80.6049
26.3424,80.3376
26.0751,80.0427
25.8381,79.7231
25.6335,79.3817
25.4633,79.0219
25.3292,78.6472
25.2325,78.2612
25.1741,77.8675
25.1546,77.4700
25.1741,77.0725
25.2325,76.6788
25.3292,76.2928
25.4633,75.9181
25.6335,75.5583
25.8381,75.2169
25.8381,75.2169
26.0751,74.8973
26.0751,74.8973
26.0751,74.8973
26.3424,74.6024
26.6373,74.3351
26.6373,74.3351
26.6373,74.3351
26.9569,74.0981
27.1842,73.9618
27.2983,73.8935
27.6581,73.7233
28.0328,73.5892
28.0328,73.5892
28.0328,73.5892
28.2243,73.5413
28.4188,73.4925
28.4188,73.4925
28.4188,73.4925
28.8125,73.4341
29.2100,73.4146
29.6075,73.4341
30.0012,73.4925
30.3872,73.5892
30.7619,73.7233
31.1217,73.8935
31.4631,74.0981
31.7827,74.3351
32.0776,74.6024
32.3449,74.8973
32.5819,75.2169
32.7865,75.5583
32.9567,75.9181
33.0908,76.2928
33.1875,76.6788
33.2459,77.0725
33.2654,77.4700
50.9295,77.4700
50.9496,77.0853
51.0099,76.7048
51.1096,76.3326
51.1249,76.2928
51.2477,75.9730
51.2590,75.9507
51.4226,75.6297
51.6324,75.3066
51.6324,75.3066
51.6324,75.3066
51.8748,75.0072
52.1472,74.7348
52.4466,74.4924
52.7697,74.2826
53.1130,74.1077
53.4726,73.9696
53.8448,73.8699
54.2253,73.8096
54.6100,73.7895
54.9947,73.8096
55.3752,73.8699
55.7474,73.9696
56.1070,74.1077
56.4503,74.2826
56.7734,74.4924
57.0728,74.7348
57.3452,75.0072
57.5876,75.3066
57.7974,75.6297
57.9723,75.9730
58.1104,76.3326
58.2101,76.7048
58.2704,77.0853
58.2905,77.4700
108.0795,77.4700
108.0996,77.0853
108.1599,76.7048
108.2596,76.3326
108.2749,76.2928
108.3977,75.9730
108.4090,75.9507
108.5726,75.6297
108.7824,75.3066
108.7824,75.3066
108.7824,75.3066
109.0248,75.0072
109.2972,74.7348
109.5966,74.4924
109.9197,74.2826
110.2630,74.1077
110.6226,73.9696
110.9948,73.8699
111.3753,73.8096
111.7600,73.7895
112.1447,73.8096
112.5252,73.8699
112.8974,73.9696
113.2570,74.1077
113.6003,74.2826
113.9234,74.4924
114.2228,74.7348
114.4952,75.0072
114.7376,75.3066
114.9474,75.6297
115.1223,75.9730
115.2604,76.3326
115.3601,76.7048
115.4204,77.0853
115.4405,77.4700
133.4795,77.4700
133.4996,77.0853
133.5599,76.7048
133.6596,76.3326
133.6749,76.2928
133.7977,75.9730
133.8090,75.9507
133.9726,75.6297
134.1824,75.3066
134.1824,75.3066
134.1824,75.3066
134.4248,75.0072
134.6972,74.7348
134.9966,74.4924
135.3197,74.2826
135.6630,74.1077
136.0226,73.9696
136.3948,73.8699
136.7753,73.8096
137.1600,73.7895
137.5447,73.8096
137.9252,73.8699
138.2974,73.9696
138.6570,74.1077
139.0003,74.2826
139.3234,74.4924
139.6228,74.7348
139.8952,75.0072
140.1376,75.3066
140.3474,75.6297
140.5223,75.9730
140.6604,76.3326
140.7601,76.7048
140.8204,77.0853
140.8405,77.4700
152.5295,77.4700
152.5496,77.0853
152.6099,76.7048
152.7096,76.3326
152.7249,76.2928
152.8477,75.9730
152.8590,75.9507
153.0226,75.6297
153.2324,75.3066
153.2324,75.3066
153.2324,75.3066
153.4748,75.0072
153.7472,74.7348
154.0466,74.4924
154.3697,74.2826
154.7130,74.1077
155.0726,73.9696
155.4448,73.8699
155.8253,73.8096
156.2100,73.7895
156.5947,73.8096
156.9752,73.8699
157.3474,73.9696
157.7070,74.1077
158.0503,74.2826
158.3734,74.4924
158.6728,74.7348
158.9452,75.0072
159.1876,75.3066
159.3974,75.6297
159.5723,75.9730
159.7104,76.3326
159.8101,76.7048
159.8704,77.0853
159.8905,77.4700
171.5795,77.4700
171.5996,77.0853
171.6599,76.7048
171.7596,76.3326
171.7749,76.2928
171.8977,75.9730
171.9090,75.9507
172.0726,75.6297
172.2824,75.3066
172.2824,75.3066
172.2824,75.3066
172.5248,75.0072
172.7972,74.7348
173.0966,74.4924
173.4197,74.2826
173.7630,74.1077
174.1226,73.9696
174.4948,73.8699
174.8753,73.8096
175.2600,73.7895
175.6447,73.8096
176.0252,73.8699
176.3974,73.9696
176.7570,74.1077
177.1003,74.2826
177.4234,74.4924
177.7228,74.7348
177.9952,75.0072
178.2376,75.3066
178.4474,75.6297
178.6223,75.9730
178.7604,76.3326
178.8601,76.7048
178.9204,77.0853
178.9405,77.4700
190.6295,77.4700
190.6496,77.0853
190.7099,76.7048
190.8096,76.3326
190.8249,76.2928
190.9477,75.9730
190.9590,75.9507
191.1226,75.6297
191.3324,75.3066
191.3324,75.3066
191.3324,75.3066
191.5748,75.0072
191.8472,74.7348
192.1466,74.4924
192.4697,74.2826
192.8130,74.1077
193.1726,73.9696
193.5448,73.8699
193.9253,73.8096
194.3100,73.7895
194.6947,73.8096
195.0752,73.8699
195.4474,73.9696
195.8070,74.1077
196.1503,74.2826
196.4734,74.4924
196.7728,74.7348
197.0452,75.0072
197.2876,75.3066
197.4974,75.6297
197.6723,75.9730
197.8104,76.3326
197.9101,76.7048
197.9704,77.0853
197.9905,77.4700
212.8595,77.4700
212.8595,34.8881
188.8339,34.8881
188.6467,35.0028
188.4274,35.0936
188.1966,35.1490
187.9600,35.1677
187.7234,35.1490
187.4926,35.0936
187.2733,35.0028
187.0861,34.8881
187.0861,34.8881
187.9600,34.0142
187.9600,34.0142
188.8339,34.8881
188.8339,34.8881
212.8595,34.8881
212.8595,33.6550
189.4727,33.6550
189.4540,33.8916
189.3986,34.1224
189.3078,34.3417
189.1931,34.5289
189.1931,34.5289
188.3192,33.6550
187.6008,33.6550
186.7269,34.5289
186.7269,34.5289
186.6122,34.3417
186.5214,34.1224
186.4660,33.8916
186.4473,33.6550
186.4660,33.4184
186.5214,33.1876
186.6122,32.9683
186.7269,32.7811
186.7269,32.7811
187.6008,33.6550
187.6008,33.6550
188.3192,33.6550
188.3192,33.6550
188.3192,33.6550
189.1931,32.7811
189.1931,32.7811
189.3078,32.9683
189.3986,33.1876
189.4540,33.4184
189.4727,33.6550
212.8595,33.6550
212.8595,32.4219
188.8339,32.4219
187.9600,33.2958
187.9600,33.2958
187.0861,32.4219
187.0861,32.4219
187.2733,32.3072
187.4926,32.2164
187.7234,32.1610
187.9600,32.1423
188.1966,32.1610
188.4274,32.2164
188.6467,32.3072
188.8339,32.4219
188.8339,32.4219
212.8595,32.4219
212.8595,26.6700
192.0154,26.6700
191.9959,27.0675
191.9375,27.4612
191.8507,27.8074
191.8408,27.8472
191.7067,28.2219
191.5365,28.5817
191.5365,28.5817
191.3319,28.9231
191.0949,29.2427
191.0949,29.2427
191.0949,29.2427
190.8276,29.5376
190.5327,29.8049
190.5327,29.8049
190.5327,29.8049
190.2131,30.0419
190.0999,30.1098
189.8717,30.2465
189.5119,30.4167
189.1372,30.5508
188.7512,30.6475
188.3575,30.7059
187.9600,30.7254
187.5625,30.7059
187.1688,30.6475
186.7828,30.5508
186.4081,30.4167
186.0483,30.2465
185.7069,30.0419
185.6996,30.0365
185.4582,29.8574
185.3873,29.8049
185.0924,29.5376
184.8251,29.2427
184.5881,28.9231
184.3835,28.5817
184.2133,28.2219
184.0792,27.8472
183.9825,27.4612
183.9241,27.0675
183.9046,26.6700
147.5654,26.6700
147.5459,27.0675
147.4875,27.4612
147.4007,27.8074
147.3908,27.8472
147.2567,28.2219
147.0865,28.5817
147.0865,28.5817
146.8819,28.9231
146.6449,29.2427
146.6449,29.2427
146.6449,29.2427
146.3776,29.5376
146.0827,29.8049
146.0827,29.8049
146.0827,29.8049
145.7631,30.0419
145.6499,30.1098
145.4217,30.2465
145.0619,30.4167
144.6872,30.5508
144.3012,30.6475
143.9075,30.7059
143.5100,30.7254
143.1125,30.7059
142.7188,30.6475
142.3328,30.5508
141.9581,30.4167
141.5983,30.2465
141.2569,30.0419
141.2496,30.0365
141.0082,29.8574
140.9373,29.8049
140.6424,29.5376
140.3751,29.2427
140.1381,28.9231
139.9335,28.5817
139.7633,28.2219
139.6292,27.8472
139.5325,27.4612
139.4741,27.0675
139.4546,26.6700
139.4549,26.6646
103.1196,26.6646
103.1001,27.0621
103.0417,27.4557
102.9536,27.8074
102.9450,27.8418
102.8109,28.2165
102.6408,28.5763
102.5724,28.6904
102.4362,28.9176
102.1991,29.2373
102.1991,29.2373
102.1991,29.2373
101.9318,29.5322
101.6370,29.7994
101.6370,29.7994
101.6370,29.7994
101.3173,30.0365
101.3083,30.0419
100.9759,30.2411
100.6162,30.4113
100.2415,30.5453
99.8554,30.6420
99.4617,30.7004
99.0643,30.7200
98.6668,30.7004
98.2731,30.6420
97.8870,30.5453
97.5123,30.4113
97.1526,30.2411
96.8112,30.0365
96.4915,29.7994
96.1967,29.5322
95.9294,29.2373
95.6923,28.9176
95.4877,28.5763
95.3176,28.2165
95.1835,27.8418
95.0868,27.4557
95.0284,27.0621
95.0091,26.6700
58.6654,26.6700
58.6459,27.0675
58.5875,27.4612
58.5007,27.8074
58.4908,27.8472
58.3567,28.2219
58.1865,28.5817
58.1865,28.5817
57.9819,28.9231
57.7449,29.2427
57.7449,29.2427
57.7449,29.2427
57.4776,29.5376
57.1827,29.8049
57.1827,29.8049
57.1827,29.8049
56.8631,30.0419
56.7499,30.1098
56.5217,30.2465
56.1619,30.4167
55.7872,30.5508
55.4012,30.6475
55.0075,30.7059
54.6100,30.7254
54.2125,30.7059
53.8188,30.6475
53.4328,30.5508
53.0581,30.4167
52.6983,30.2465
52.3569,30.0419
52.3496,30.0365
52.1082,29.8574
52.0373,29.8049
51.7424,29.5376
51.4751,29.2427
51.2381,28.9231
51.0335,28.5817
50.8633,28.2219
50.7292,27.8472
50.6325,27.4612
50.5741,27.0675
50.5546,26.6700
50.5546,26.6700
32.8905,26.6700
32.8704,27.0547
32.8101,27.4352
32.7104,27.8074
32.5723,28.1670
32.3974,28.5103
32.1876,28.8334
31.9452,29.1328
31.6728,29.4052
31.3734,29.6476
31.3734,29.6476
31.3734,29.6476
31.0503,29.8574
30.7070,30.0323
30.7070,30.0323
30.3474,30.1704
30.3474,30.1704
30.3474,30.1704
29.9752,30.2701
29.5947,30.3304
29.2100,30.3505
28.8253,30.3304
28.4448,30.2701
28.0726,30.1704
27.7380,30.0419
27.7130,30.0323
27.7130,30.0323
27.7130,30.0323
27.3697,29.8574
27.0466,29.6476
26.9108,29.5376
26.7472,29.4052
26.4748,29.1328
26.2324,28.8334
26.2324,28.8334
26.2324,28.8334
26.0226,28.5103
25.8477,28.1670
25.7096,27.8074
25.6099,27.4352
25.5496,27.0547
25.5295,26.6700
25.5496,26.2853
25.6099,25.9048
25.7096,25.5326
25.7249,25.4928
25.8477,25.1730
25.8590,25.1507
26.0226,24.8297
26.2324,24.5066
26.2324,24.5066
26.2324,24.5066
26.4748,24.2072
26.7472,23.9348
27.0466,23.6924
27.3697,23.4826
27.7130,23.3077
28.0726,23.1696
28.4448,23.0699
28.8253,23.0096
29.2100,22.9895
29.5947,23.0096
29.9752,23.0699
30.3474,23.1696
30.7070,23.3077
31.0503,23.4826
31.3734,23.6924
31.6728,23.9348
31.9452,24.2072
32.1876,24.5066
32.3974,24.8297
32.5723,25.1730
32.7104,25.5326
32.8101,25.9048
32.8704,26.2853
32.8905,26.6700
50.5546,26.6700
50.5741,26.2725
50.6325,25.8788
50.7292,25.4928
50.8633,25.1181
51.0335,24.7583
51.2381,24.4169
51.2381,24.4169
51.4751,24.0973
51.4751,24.0973
51.4751,24.0973
51.7424,23.8024
52.0373,23.5351
52.0373,23.5351
52.0373,23.5351
52.3569,23.2981
52.5842,23.1618
52.6983,23.0935
53.0581,22.9233
53.4328,22.7892
53.4328,22.7892
53.4328,22.7892
53.6243,22.7413
53.8188,22.6925
53.8188,22.6925
53.8188,22.6925
54.2125,22.6341
54.6100,22.6146
55.0075,22.6341
55.4012,22.6925
55.7872,22.7892
56.1619,22.9233
56.5217,23.0935
56.8631,23.2981
57.1827,23.5351
57.4776,23.8024
57.7449,24.0973
57.9819,24.4169
58.1865,24.7583
58.3567,25.1181
58.4908,25.4928
58.5875,25.8788
58.6459,26.2725
58.6654,26.6700
95.0091,26.6700
95.0089,26.6646
95.0284,26.2671
95.0868,25.8734
95.1835,25.4874
95.3176,25.1127
95.4877,24.7529
95.6579,24.4689
95.6923,24.4115
95.9294,24.0919
95.9294,24.0919
95.9294,24.0919
96.1967,23.7970
96.4915,23.5297
96.4915,23.5297
96.4915,23.5297
96.8112,23.2927
97.0385,23.1564
97.1526,23.0881
97.5123,22.9179
97.8870,22.7838
97.8870,22.7838
97.8870,22.7838
98.0786,22.7358
98.2731,22.6871
98.2731,22.6871
98.2731,22.6871
98.6668,22.6287
99.0643,22.6092
99.4617,22.6287
99.8554,22.6871
100.2415,22.7838
100.6162,22.9179
100.9759,23.0881
101.3173,23.2927
101.6370,23.5297
101.9318,23.7970
102.1991,24.0919
102.4362,24.4115
102.6408,24.7529
102.6408,24.7529
102.6457,24.7632
102.8109,25.1127
102.9450,25.4874
103.0417,25.8734
103.1001,26.2671
103.1196,26.6646
139.4549,26.6646
139.4741,26.2725
139.5325,25.8788
139.6292,25.4928
139.7633,25.1181
139.9335,24.7583
140.1381,24.4169
140.1381,24.4169
140.3751,24.0973
140.3751,24.0973
140.3751,24.0973
140.6424,23.8024
140.9373,23.5351
140.9373,23.5351
140.9373,23.5351
141.2569,23.2981
141.4842,23.1618
141.5983,23.0935
141.9581,22.9233
142.3328,22.7892
142.3328,22.7892
142.3328,22.7892
142.5243,22.7413
142.7188,22.6925
142.7188,22.6925
142.7188,22.6925
143.1125,22.6341
143.5100,22.6146
143.9075,22.6341
144.3012,22.6925
144.6872,22.7892
145.0619,22.9233
145.4217,23.0935
145.7631,23.2981
146.0827,23.5351
146.3776,23.8024
146.6449,24.0973
146.8819,24.4169
147.0865,24.7583
147.2567,25.1181
147.3908,25.4928
147.4875,25.8788
147.5459,26.2725
147.5654,26.6700
183.9046,26.6700
183.9241,26.2725
183.9825,25.8788
184.0792,25.4928
184.2133,25.1181
184.3835,24.7583
184.5881,24.4169
184.5881,24.4169
184.8251,24.0973
184.8251,24.0973
184.8251,24.0973
185.0924,23.8024
185.3873,23.5351
185.3873,23.5351
185.3873,23.5351
185.7069,23.2981
185.9342,23.1618
186.0483,23.0935
186.4081,22.9233
186.7828,22.7892
186.7828,22.7892
186.7828,22.7892
186.9743,22.7413
187.1688,22.6925
187.1688,22.6925
187.1688,22.6925
187.5625,22.6341
187.9600,22.6146
188.3575,22.6341
188.7512,22.6925
189.1372,22.7892
189.5119,22.9233
189.8717,23.0935
190.2131,23.2981
190.5327,23.5351
190.8276,23.8024
191.0949,24.0973
191.3319,24.4169
191.5365,24.7583
191.7067,25.1181
191.8408,25.4928
191.9375,25.8788
191.9959,26.2725
192.0154,26.6700
212.8595,26.6700
212.8595,7.6227
212.8594,7.6173
212.8423,7.2264
212.8414,7.2154
212.7906,6.8302
212.7887,6.8194
212.7046,6.4401
212.7018,6.4295
212.5850,6.0590
212.5812,6.0486
212.4325,5.6897
212.4279,5.6797
212.2485,5.3351
212.2430,5.3256
212.0343,4.9979
212.0280,4.9890
211.7914,4.6807
211.7844,4.6723
211.5219,4.3859
211.5141,4.3781
211.2277,4.1156
211.2193,4.1086
210.9110,3.8720
210.9021,3.8657
210.5744,3.6570
210.5649,3.6515
210.2203,3.4721
210.2103,3.4675
209.8514,3.3188
209.8410,3.3150
209.4705,3.1982
209.4599,3.1954
209.0806,3.1113
209.0698,3.1094
208.6846,3.0586
208.6736,3.0577
208.2827,3.0406
208.2773,3.0405
208.2141,3.0405
8.9559,3.0405
8.8927,3.0405
Z" /> 
</g>
</g>
</g>
<g style="fill:#FFFFFF; fill-opacity:1.0000; 
stroke:#FFFFFF; stroke-width:0.0000; stroke-opacity:1; 
stroke-linecap:round; stroke-linejoin:round;">
<circle cx="187.9600" cy="33.6550" r="0.5000" /> 
</g>
<g style="fill:#FFFFFF; fill-opacity:1.0000; 
stroke:#FFFFFF; stroke-width:0.0212; stroke-opacity:1; 
stroke-linecap:round; stroke-linejoin:round;">
</g>
<g style="fill:#000000; fill-opacity:1.0000; 
stroke:#000000; stroke-width:0.0212; stroke-opacity:1; 
stroke-linecap:round; stroke-linejoin:round;">
</g>
<g style="fill:#C2C2C2; fill-opacity:1.0000; 
stroke:#C2C2C2; stroke-width:0.0212; stroke-opacity:1; 
stroke-linecap:round; stroke-linejoin:round;">
</g>
<g style="fill:#C2C2C2; fill-opacity:0.0; 
stroke:#C2C2C2; stroke-width:0.1500; stroke-opacity:1; 
stroke-linecap:round; stroke-linejoin:round;">
<circle cx="99.0643" cy="26.6646" r="3.5500" /> 
</g>
<g style="fill:#C2C2C2; fill-opacity:0.0; 
stroke:#C2C2C2; stroke-width:0.1000; stroke-opacity:1; 
stroke-linecap:round; stroke-linejoin:round;">
<path d="M8.8900 2.5400
L208.2800 2.5400
" />
</g>
<g style="fill:#C2C2C2; fill-opacity:0.0; 
stroke:#C2C2C2; stroke-width:0.1500; stroke-opacity:1; 
stroke-linecap:round; stroke-linejoin:round;">
<circle cx="54.6100" cy="26.6700" r="3.5500" /> 
<circle cx="29.2100" cy="77.4700" r="3.5500" /> 
<circle cx="143.5100" cy="26.6700" r="3.5500" /> 
</g>
<g style="fill:#C2C2C2; fill-opacity:0.0; 
stroke:#C2C2C2; stroke-width:0.1000; stroke-opacity:1; 
stroke-linecap:round; stroke-linejoin:round;">
<path d="M213.3600 7.6200 A5.0800 5.0800 0.0 0 0 208.2800 2.5400" />
</g>
<g style="fill:#C2C2C2; fill-opacity:0.0; 
stroke:#C2C2C2; stroke-width:0.1500; stroke-opacity:1; 
stroke-linecap:round; stroke-linejoin:round;">
<circle cx="29.2100" cy="26.6700" r="3.1750" /> 
<circle cx="156.2100" cy="77.4700" r="3.1750" /> 
</g>
<g style="fill:#C2C2C2; fill-opacity:0.0; 
stroke:#C2C2C2; stroke-width:0.1000; stroke-opacity:1; 
stroke-linecap:round; stroke-linejoin:round;">
<path d="M208.2800 102.8700
L8.8900 102.8700
" />
<path d="M3.8100 97.7900
L3.8100 7.6200
" />
<path d="M3.8100 97.7900 A5.0800 5.0800 0.0 0 0 8.8900 102.8700" />
</g>
<g style="fill:#C2C2C2; fill-opacity:0.0; 
stroke:#C2C2C2; stroke-width:0.1500; stroke-opacity:1; 
stroke-linecap:round; stroke-linejoin:round;">
<circle cx="187.9600" cy="26.6700" r="3.5500" /> 
<circle cx="54.6100" cy="77.4700" r="3.1750" /> 
</g>
<g style="fill:#C2C2C2; fill-opacity:0.0; 
stroke:#C2C2C2; stroke-width:0.1000; stroke-opacity:1; 
stroke-linecap:round; stroke-linejoin:round;">
<path d="M208.2800 102.8700 A5.0800 5.0800 0.0 0 0 213.3600 97.7900" />
</g>
<g style="fill:#C2C2C2; fill-opacity:0.0; 
stroke:#C2C2C2; stroke-width:0.1500; stroke-opacity:1; 
stroke-linecap:round; stroke-linejoin:round;">
<circle cx="111.7600" cy="77.4700" r="3.1750" /> 
<circle cx="194.3100" cy="77.4700" r="3.1750" /> 
<circle cx="175.2600" cy="77.4700" r="3.1750" /> 
</g>
<g style="fill:#C2C2C2; fill-opacity:0.0; 
stroke:#C2C2C2; stroke-width:0.1000; stroke-opacity:1; 
stroke-linecap:round; stroke-linejoin:round;">
<path d="M8.8900 2.5400 A5.0800 5.0800 0.0 0 0 3.8100 7.6200" />
</g>
<g style="fill:#C2C2C2; fill-opacity:0.0; 
stroke:#C2C2C2; stroke-width:0.1500; stroke-opacity:1; 
stroke-linecap:round; stroke-linejoin:round;">
<circle cx="137.1600" cy="77.4700" r="3.1750" /> 
</g>
<g style="fill:#C2C2C2; fill-opacity:0.0; 
stroke:#C2C2C2; stroke-width:0.1000; stroke-opacity:1; 
stroke-linecap:round; stroke-linejoin:round;">
<path d="M213.3600 7.6200
L213.3600 97.7900
" />
<g >
</g>
<g >
</g>
<g >
</g>
<g >
</g>
<g >
</g>
<g >
</g>
<g >
</g>
</g> 
</svg>
