%FSLAX45Y45*%
G04 Gerber Fmt 4.5, Leading zero omitted, Abs format (unit mm)*
G04 Created by KiCad (PCBNEW 6.0.5+dfsg-1~bpo11+1) date 2022-08-10 11:57:08*
%MOMM*%
%LPD*%
G01*
G04 APERTURE LIST*
%TA.AperFunction,Profile*%
%ADD10C,0.100000*%
%TD*%
%TA.AperFunction,Profile*%
%ADD11C,0.150000*%
%TD*%
%ADD12C,0.200000*%
G04 APERTURE END LIST*
D10*
X6235700Y-14071600D02*
G75*
G03*
X6743700Y-14579600I508000J0D01*
G01*
X6235700Y-5689600D02*
X6235700Y-14071600D01*
D11*
X14442440Y-7721600D02*
G75*
G03*
X14442440Y-7721600I-396240J0D01*
G01*
X10071100Y-9944100D02*
G75*
G03*
X10071100Y-9944100I-469900J0D01*
G01*
D10*
X6743700Y-5181600D02*
G75*
G03*
X6235700Y-5689600I0J-508000D01*
G01*
D11*
X18961100Y-12166600D02*
G75*
G03*
X18961100Y-12166600I-469900J0D01*
G01*
D10*
X21031200Y-14071600D02*
X21031200Y-5689600D01*
X21031200Y-5689600D02*
G75*
G03*
X20523200Y-5181600I-508000J0D01*
G01*
X20523200Y-14579600D02*
G75*
G03*
X21031200Y-14071600I0J508000D01*
G01*
D11*
X14363700Y-12166600D02*
G75*
G03*
X14363700Y-12166600I-317500J0D01*
G01*
D10*
X6743700Y-14579600D02*
X20523200Y-14579600D01*
D11*
X18961100Y-7721600D02*
G75*
G03*
X18961100Y-7721600I-469900J0D01*
G01*
D10*
X20523200Y-5181600D02*
X6743700Y-5181600D01*
D12*
X6488319Y-14895076D02*
X6488319Y-14695076D01*
X6535938Y-14695076D01*
X6564509Y-14704600D01*
X6583557Y-14723648D01*
X6593081Y-14742695D01*
X6602605Y-14780790D01*
X6602605Y-14809362D01*
X6593081Y-14847457D01*
X6583557Y-14866505D01*
X6564509Y-14885552D01*
X6535938Y-14895076D01*
X6488319Y-14895076D01*
X6688319Y-14895076D02*
X6688319Y-14761743D01*
X6688319Y-14799838D02*
X6697843Y-14780790D01*
X6707367Y-14771267D01*
X6726414Y-14761743D01*
X6745462Y-14761743D01*
X6812128Y-14895076D02*
X6812128Y-14761743D01*
X6812128Y-14695076D02*
X6802605Y-14704600D01*
X6812128Y-14714124D01*
X6821652Y-14704600D01*
X6812128Y-14695076D01*
X6812128Y-14714124D01*
X6935938Y-14895076D02*
X6916890Y-14885552D01*
X6907367Y-14866505D01*
X6907367Y-14695076D01*
X7040700Y-14895076D02*
X7021652Y-14885552D01*
X7012128Y-14866505D01*
X7012128Y-14695076D01*
X7269271Y-14895076D02*
X7269271Y-14695076D01*
X7335938Y-14837933D01*
X7402605Y-14695076D01*
X7402605Y-14895076D01*
X7583557Y-14895076D02*
X7583557Y-14790314D01*
X7574033Y-14771267D01*
X7554986Y-14761743D01*
X7516890Y-14761743D01*
X7497843Y-14771267D01*
X7583557Y-14885552D02*
X7564509Y-14895076D01*
X7516890Y-14895076D01*
X7497843Y-14885552D01*
X7488319Y-14866505D01*
X7488319Y-14847457D01*
X7497843Y-14828409D01*
X7516890Y-14818886D01*
X7564509Y-14818886D01*
X7583557Y-14809362D01*
X7678795Y-14761743D02*
X7678795Y-14961743D01*
X7678795Y-14771267D02*
X7697843Y-14761743D01*
X7735938Y-14761743D01*
X7754986Y-14771267D01*
X7764509Y-14780790D01*
X7774033Y-14799838D01*
X7774033Y-14856981D01*
X7764509Y-14876028D01*
X7754986Y-14885552D01*
X7735938Y-14895076D01*
X7697843Y-14895076D01*
X7678795Y-14885552D01*
X7859748Y-14876028D02*
X7869271Y-14885552D01*
X7859748Y-14895076D01*
X7850224Y-14885552D01*
X7859748Y-14876028D01*
X7859748Y-14895076D01*
X7859748Y-14771267D02*
X7869271Y-14780790D01*
X7859748Y-14790314D01*
X7850224Y-14780790D01*
X7859748Y-14771267D01*
X7859748Y-14790314D01*
M02*
