G04 #@! TF.GenerationSoftware,KiCad,Pcbnew,6.0.5+dfsg-1~bpo11+1*
G04 #@! TF.CreationDate,2022-08-10T11:57:08+00:00*
G04 #@! TF.ProjectId,mod_osc_pcb_panel,6d6f645f-6f73-4635-9f70-63625f70616e,0*
G04 #@! TF.SameCoordinates,Original*
G04 #@! TF.FileFunction,Legend,Top*
G04 #@! TF.FilePolarity,Positive*
%FSLAX46Y46*%
G04 Gerber Fmt 4.6, Leading zero omitted, Abs format (unit mm)*
G04 Created by KiCad (PCBNEW 6.0.5+dfsg-1~bpo11+1) date 2022-08-10 11:57:08*
%MOMM*%
%LPD*%
G01*
G04 APERTURE LIST*
%ADD10C,0.500000*%
%ADD11C,1.270000*%
%ADD12C,0.350000*%
%ADD13C,0.400000*%
%ADD14C,0.150000*%
%ADD15C,2.000000*%
G04 APERTURE END LIST*
D10*
X184912000Y-121666000D02*
X184912000Y-108966000D01*
X184912000Y-77216000D02*
X172813625Y-84201000D01*
X187452000Y-103886000D02*
X187452000Y-106426000D01*
X96012000Y-99441000D02*
X86169500Y-116488710D01*
X191262000Y-108966000D02*
X191262000Y-106426000D01*
D11*
X205263911Y-145161011D02*
G75*
G03*
X209708911Y-140716000I-11J4445011D01*
G01*
D10*
X184912000Y-77216000D02*
X177927000Y-89314375D01*
X174117000Y-106426000D02*
X176657000Y-108966000D01*
X196342000Y-106426000D02*
X196342000Y-108966000D01*
X96012000Y-99441000D02*
X96012000Y-79756000D01*
X182372000Y-106426000D02*
X187452000Y-103886000D01*
D11*
X67437000Y-52451000D02*
X205263911Y-52419088D01*
D10*
X184912000Y-77216000D02*
X177927000Y-65117625D01*
X96012000Y-99441000D02*
X76327000Y-99441000D01*
X170307000Y-113411000D02*
G75*
G03*
X167767000Y-113411000I-1270000J0D01*
G01*
X197485000Y-112141000D02*
X200152000Y-112141000D01*
X200152000Y-114681000D02*
X202565000Y-114681000D01*
X184912000Y-77216000D02*
X197010375Y-84201000D01*
X182372000Y-106426000D02*
X182372000Y-103886000D01*
X96012000Y-99441000D02*
X78964290Y-89598500D01*
D11*
X67437000Y-52451000D02*
G75*
G03*
X62992000Y-56896000I0J-4445000D01*
G01*
D10*
X96012000Y-99441000D02*
X113059710Y-109283500D01*
X184912000Y-77216000D02*
X172813625Y-70231000D01*
D11*
X209708910Y-56864090D02*
G75*
G03*
X205263910Y-52419090I-4445010J-10D01*
G01*
D10*
X184912000Y-77216000D02*
X198882000Y-77216000D01*
X184912000Y-77216000D02*
X197010375Y-70231000D01*
X96012000Y-99441000D02*
X105854500Y-82393290D01*
X197485000Y-114681000D02*
X197485000Y-112141000D01*
X184912000Y-121666000D02*
X191262000Y-110667478D01*
X184912000Y-121666000D02*
X173913478Y-115316000D01*
X172847000Y-107696000D02*
X174117000Y-106426000D01*
D11*
X62991989Y-140747911D02*
G75*
G03*
X67437001Y-145192911I4445011J11D01*
G01*
D10*
X96012000Y-99441000D02*
X113059710Y-89598500D01*
X184912000Y-77216000D02*
X184912000Y-63246000D01*
X184912000Y-121666000D02*
X178562000Y-110667477D01*
X96012000Y-99441000D02*
X105854500Y-116488710D01*
D11*
X209708911Y-140716000D02*
X209708910Y-56864090D01*
D10*
X170307000Y-113411000D02*
G75*
G03*
X172847000Y-113411000I1270000J0D01*
G01*
X184912000Y-121666000D02*
X195910523Y-115316000D01*
D11*
X67437001Y-145192911D02*
X205263911Y-145161000D01*
X62992000Y-56896000D02*
X62992001Y-140747911D01*
D10*
X184912000Y-77216000D02*
X191897000Y-65117625D01*
X191262000Y-106426000D02*
X196342000Y-108966000D01*
X184912000Y-77216000D02*
X191897000Y-89314375D01*
X96012000Y-99441000D02*
X86169500Y-82393290D01*
X200152000Y-112141000D02*
X200152000Y-114681000D01*
X96012000Y-99441000D02*
X115697000Y-99441000D01*
X184912000Y-77216000D02*
X170942000Y-77216000D01*
X96012000Y-99441000D02*
X78964290Y-109283500D01*
X176657000Y-108966000D02*
X177927000Y-107696000D01*
D12*
X124596166Y-119282666D02*
X124596166Y-117532666D01*
X124596166Y-118366000D02*
X125596166Y-118366000D01*
X125596166Y-119282666D02*
X125596166Y-117532666D01*
X126429500Y-119282666D02*
X126429500Y-117532666D01*
X128179500Y-117616000D02*
X128012833Y-117532666D01*
X127762833Y-117532666D01*
X127512833Y-117616000D01*
X127346166Y-117782666D01*
X127262833Y-117949333D01*
X127179500Y-118282666D01*
X127179500Y-118532666D01*
X127262833Y-118866000D01*
X127346166Y-119032666D01*
X127512833Y-119199333D01*
X127762833Y-119282666D01*
X127929500Y-119282666D01*
X128179500Y-119199333D01*
X128262833Y-119116000D01*
X128262833Y-118532666D01*
X127929500Y-118532666D01*
X129012833Y-119282666D02*
X129012833Y-117532666D01*
X129012833Y-118366000D02*
X130012833Y-118366000D01*
X130012833Y-119282666D02*
X130012833Y-117532666D01*
D13*
X93631047Y-121526952D02*
X92797714Y-120336476D01*
X92202476Y-121526952D02*
X92202476Y-119026952D01*
X93154857Y-119026952D01*
X93392952Y-119146000D01*
X93512000Y-119265047D01*
X93631047Y-119503142D01*
X93631047Y-119860285D01*
X93512000Y-120098380D01*
X93392952Y-120217428D01*
X93154857Y-120336476D01*
X92202476Y-120336476D01*
X94583428Y-120812666D02*
X95773904Y-120812666D01*
X94345333Y-121526952D02*
X95178666Y-119026952D01*
X96012000Y-121526952D01*
X96488190Y-119026952D02*
X97916761Y-119026952D01*
X97202476Y-121526952D02*
X97202476Y-119026952D01*
X98750095Y-120217428D02*
X99583428Y-120217428D01*
X99940571Y-121526952D02*
X98750095Y-121526952D01*
X98750095Y-119026952D01*
X99940571Y-119026952D01*
X174614380Y-134901952D02*
X175209619Y-137401952D01*
X175685809Y-135616238D01*
X176162000Y-137401952D01*
X176757238Y-134901952D01*
X177590571Y-136687666D02*
X178781047Y-136687666D01*
X177352476Y-137401952D02*
X178185809Y-134901952D01*
X179019142Y-137401952D01*
X179495333Y-134901952D02*
X180328666Y-137401952D01*
X181162000Y-134901952D01*
X181995333Y-136092428D02*
X182828666Y-136092428D01*
X183185809Y-137401952D02*
X181995333Y-137401952D01*
X181995333Y-134901952D01*
X183185809Y-134901952D01*
X184138190Y-137282904D02*
X184495333Y-137401952D01*
X185090571Y-137401952D01*
X185328666Y-137282904D01*
X185447714Y-137163857D01*
X185566761Y-136925761D01*
X185566761Y-136687666D01*
X185447714Y-136449571D01*
X185328666Y-136330523D01*
X185090571Y-136211476D01*
X184614380Y-136092428D01*
X184376285Y-135973380D01*
X184257238Y-135854333D01*
X184138190Y-135616238D01*
X184138190Y-135378142D01*
X184257238Y-135140047D01*
X184376285Y-135021000D01*
X184614380Y-134901952D01*
X185209619Y-134901952D01*
X185566761Y-135021000D01*
X186638190Y-137401952D02*
X186638190Y-134901952D01*
X186638190Y-136092428D02*
X188066761Y-136092428D01*
X188066761Y-137401952D02*
X188066761Y-134901952D01*
X189138190Y-136687666D02*
X190328666Y-136687666D01*
X188900095Y-137401952D02*
X189733428Y-134901952D01*
X190566761Y-137401952D01*
X191400095Y-137401952D02*
X191400095Y-134901952D01*
X192352476Y-134901952D01*
X192590571Y-135021000D01*
X192709619Y-135140047D01*
X192828666Y-135378142D01*
X192828666Y-135735285D01*
X192709619Y-135973380D01*
X192590571Y-136092428D01*
X192352476Y-136211476D01*
X191400095Y-136211476D01*
X193900095Y-136092428D02*
X194733428Y-136092428D01*
X195090571Y-137401952D02*
X193900095Y-137401952D01*
X193900095Y-134901952D01*
X195090571Y-134901952D01*
X170566761Y-93586952D02*
X170566761Y-91086952D01*
X171400095Y-92872666D01*
X172233428Y-91086952D01*
X172233428Y-93586952D01*
X173900095Y-91086952D02*
X174376285Y-91086952D01*
X174614380Y-91206000D01*
X174852476Y-91444095D01*
X174971523Y-91920285D01*
X174971523Y-92753619D01*
X174852476Y-93229809D01*
X174614380Y-93467904D01*
X174376285Y-93586952D01*
X173900095Y-93586952D01*
X173662000Y-93467904D01*
X173423904Y-93229809D01*
X173304857Y-92753619D01*
X173304857Y-91920285D01*
X173423904Y-91444095D01*
X173662000Y-91206000D01*
X173900095Y-91086952D01*
X176042952Y-93586952D02*
X176042952Y-91086952D01*
X176638190Y-91086952D01*
X176995333Y-91206000D01*
X177233428Y-91444095D01*
X177352476Y-91682190D01*
X177471523Y-92158380D01*
X177471523Y-92515523D01*
X177352476Y-92991714D01*
X177233428Y-93229809D01*
X176995333Y-93467904D01*
X176638190Y-93586952D01*
X176042952Y-93586952D01*
X180447714Y-92277428D02*
X181281047Y-92277428D01*
X181638190Y-93586952D02*
X180447714Y-93586952D01*
X180447714Y-91086952D01*
X181638190Y-91086952D01*
X182709619Y-93586952D02*
X182709619Y-91086952D01*
X184138190Y-93586952D01*
X184138190Y-91086952D01*
X184971523Y-91086952D02*
X185804857Y-93586952D01*
X186638190Y-91086952D01*
X189376285Y-93586952D02*
X189376285Y-91086952D01*
X189971523Y-91086952D01*
X190328666Y-91206000D01*
X190566761Y-91444095D01*
X190685809Y-91682190D01*
X190804857Y-92158380D01*
X190804857Y-92515523D01*
X190685809Y-92991714D01*
X190566761Y-93229809D01*
X190328666Y-93467904D01*
X189971523Y-93586952D01*
X189376285Y-93586952D01*
X191876285Y-92277428D02*
X192709619Y-92277428D01*
X193066761Y-93586952D02*
X191876285Y-93586952D01*
X191876285Y-91086952D01*
X193066761Y-91086952D01*
X195328666Y-93586952D02*
X194138190Y-93586952D01*
X194138190Y-91086952D01*
X196042952Y-92872666D02*
X197233428Y-92872666D01*
X195804857Y-93586952D02*
X196638190Y-91086952D01*
X197471523Y-93586952D01*
X198781047Y-92396476D02*
X198781047Y-93586952D01*
X197947714Y-91086952D02*
X198781047Y-92396476D01*
X199614380Y-91086952D01*
D12*
X124596166Y-122457666D02*
X124596166Y-120707666D01*
X125596166Y-122457666D01*
X125596166Y-120707666D01*
X126762833Y-120707666D02*
X127096166Y-120707666D01*
X127262833Y-120791000D01*
X127429500Y-120957666D01*
X127512833Y-121291000D01*
X127512833Y-121874333D01*
X127429500Y-122207666D01*
X127262833Y-122374333D01*
X127096166Y-122457666D01*
X126762833Y-122457666D01*
X126596166Y-122374333D01*
X126429500Y-122207666D01*
X126346166Y-121874333D01*
X126346166Y-121291000D01*
X126429500Y-120957666D01*
X126596166Y-120791000D01*
X126762833Y-120707666D01*
X129262833Y-122457666D02*
X128679500Y-121624333D01*
X128262833Y-122457666D02*
X128262833Y-120707666D01*
X128929500Y-120707666D01*
X129096166Y-120791000D01*
X129179500Y-120874333D01*
X129262833Y-121041000D01*
X129262833Y-121291000D01*
X129179500Y-121457666D01*
X129096166Y-121541000D01*
X128929500Y-121624333D01*
X128262833Y-121624333D01*
X130012833Y-122457666D02*
X130012833Y-120707666D01*
X130596166Y-121957666D01*
X131179500Y-120707666D01*
X131179500Y-122457666D01*
X131929500Y-121957666D02*
X132762833Y-121957666D01*
X131762833Y-122457666D02*
X132346166Y-120707666D01*
X132929500Y-122457666D01*
X134346166Y-122457666D02*
X133512833Y-122457666D01*
X133512833Y-120707666D01*
D13*
X137271523Y-130825761D02*
X136604857Y-129873380D01*
X136128666Y-130825761D02*
X136128666Y-128825761D01*
X136890571Y-128825761D01*
X137081047Y-128921000D01*
X137176285Y-129016238D01*
X137271523Y-129206714D01*
X137271523Y-129492428D01*
X137176285Y-129682904D01*
X137081047Y-129778142D01*
X136890571Y-129873380D01*
X136128666Y-129873380D01*
X138033428Y-130254333D02*
X138985809Y-130254333D01*
X137842952Y-130825761D02*
X138509619Y-128825761D01*
X139176285Y-130825761D01*
X139842952Y-130825761D02*
X139842952Y-128825761D01*
X140985809Y-130825761D01*
X140985809Y-128825761D01*
X142985809Y-128921000D02*
X142795333Y-128825761D01*
X142509619Y-128825761D01*
X142223904Y-128921000D01*
X142033428Y-129111476D01*
X141938190Y-129301952D01*
X141842952Y-129682904D01*
X141842952Y-129968619D01*
X141938190Y-130349571D01*
X142033428Y-130540047D01*
X142223904Y-130730523D01*
X142509619Y-130825761D01*
X142700095Y-130825761D01*
X142985809Y-130730523D01*
X143081047Y-130635285D01*
X143081047Y-129968619D01*
X142700095Y-129968619D01*
X143938190Y-129778142D02*
X144604857Y-129778142D01*
X144890571Y-130825761D02*
X143938190Y-130825761D01*
X143938190Y-128825761D01*
X144890571Y-128825761D01*
D12*
X125429500Y-125632666D02*
X124596166Y-125632666D01*
X124596166Y-123882666D01*
X126346166Y-123882666D02*
X126679500Y-123882666D01*
X126846166Y-123966000D01*
X127012833Y-124132666D01*
X127096166Y-124466000D01*
X127096166Y-125049333D01*
X127012833Y-125382666D01*
X126846166Y-125549333D01*
X126679500Y-125632666D01*
X126346166Y-125632666D01*
X126179500Y-125549333D01*
X126012833Y-125382666D01*
X125929500Y-125049333D01*
X125929500Y-124466000D01*
X126012833Y-124132666D01*
X126179500Y-123966000D01*
X126346166Y-123882666D01*
X127679500Y-123882666D02*
X128096166Y-125632666D01*
X128429500Y-124382666D01*
X128762833Y-125632666D01*
X129179500Y-123882666D01*
D14*
X97412000Y-108331000D02*
G75*
G03*
X97412000Y-108331000I-1400000J0D01*
G01*
G36*
X88507844Y-55778481D02*
G01*
X88765416Y-56180119D01*
X88887654Y-56778209D01*
X88910573Y-57135099D01*
X88918213Y-57516000D01*
X88910573Y-57895809D01*
X88887654Y-58249425D01*
X88765416Y-58847516D01*
X88503479Y-59253519D01*
X88062551Y-59401950D01*
X87617257Y-59253519D01*
X87359685Y-58851881D01*
X87237447Y-58253791D01*
X87214528Y-57896901D01*
X87206888Y-57516000D01*
X87214528Y-57136191D01*
X87237447Y-56782575D01*
X87359685Y-56184484D01*
X87617257Y-55778481D01*
X88062551Y-55630050D01*
X88507844Y-55778481D01*
G37*
G36*
X75410969Y-55778481D02*
G01*
X75668541Y-56180119D01*
X75790779Y-56778209D01*
X75813698Y-57135099D01*
X75821338Y-57516000D01*
X75813698Y-57895809D01*
X75790779Y-58249425D01*
X75668541Y-58847516D01*
X75406604Y-59253519D01*
X74965676Y-59401950D01*
X74520382Y-59253519D01*
X74262810Y-58851881D01*
X74140572Y-58253791D01*
X74117653Y-57896901D01*
X74110013Y-57516000D01*
X74117653Y-57136191D01*
X74140572Y-56782575D01*
X74262810Y-56184484D01*
X74520382Y-55778481D01*
X74965676Y-55630050D01*
X75410969Y-55778481D01*
G37*
G36*
X99868776Y-54247216D02*
G01*
X100493991Y-54436872D01*
X101070192Y-54744859D01*
X101575236Y-55159338D01*
X101989715Y-55664383D01*
X102297701Y-56240584D01*
X102487358Y-56865798D01*
X102551397Y-57516000D01*
X102487358Y-58166202D01*
X102297701Y-58791416D01*
X101989715Y-59367617D01*
X101575236Y-59872662D01*
X101070192Y-60287141D01*
X100493991Y-60595128D01*
X99868776Y-60784784D01*
X99218575Y-60848824D01*
X68105427Y-60848824D01*
X67455225Y-60784785D01*
X66830010Y-60595128D01*
X66253809Y-60287142D01*
X66175272Y-60222688D01*
X68618057Y-60222688D01*
X69604688Y-60222688D01*
X69561032Y-56022956D01*
X70198413Y-58310544D01*
X70984226Y-58310544D01*
X71647801Y-56022956D01*
X71595413Y-60222688D01*
X72582044Y-60222688D01*
X72562399Y-59531827D01*
X72538388Y-58856247D01*
X72508920Y-58190489D01*
X72472904Y-57529097D01*
X72472041Y-57516000D01*
X73018607Y-57516000D01*
X73049985Y-58171662D01*
X73144119Y-58741649D01*
X73301008Y-59225961D01*
X73520654Y-59624597D01*
X73905314Y-60019928D01*
X74389898Y-60257127D01*
X74974407Y-60336194D01*
X75544848Y-60257127D01*
X75737137Y-60161569D01*
X77619976Y-60161569D01*
X78209335Y-60261978D01*
X78772501Y-60292538D01*
X79299650Y-60254338D01*
X79780960Y-60139741D01*
X80207700Y-59942196D01*
X80571138Y-59655156D01*
X80866909Y-59274255D01*
X81090647Y-58795128D01*
X81231439Y-58211226D01*
X81278369Y-57516000D01*
X86115482Y-57516000D01*
X86146860Y-58171662D01*
X86240994Y-58741649D01*
X86397883Y-59225961D01*
X86617529Y-59624597D01*
X87002189Y-60019928D01*
X87486773Y-60257127D01*
X88071282Y-60336194D01*
X88641723Y-60257127D01*
X89119032Y-60019928D01*
X89210479Y-59925825D01*
X90594613Y-59925825D01*
X91197069Y-60192128D01*
X91666374Y-60300177D01*
X92271013Y-60336194D01*
X92883656Y-60290112D01*
X93382792Y-60151867D01*
X93768422Y-59921459D01*
X94138409Y-59420504D01*
X94261738Y-58747106D01*
X94224630Y-58340012D01*
X94113307Y-58009316D01*
X93733497Y-57520366D01*
X93726463Y-57516000D01*
X94846732Y-57516000D01*
X94884385Y-58153927D01*
X94997346Y-58714364D01*
X95185613Y-59197311D01*
X95449188Y-59602769D01*
X95910974Y-60010227D01*
X96493058Y-60254702D01*
X97195438Y-60336194D01*
X97672383Y-60306726D01*
X98090391Y-60218322D01*
X98705944Y-59960750D01*
X98435276Y-59113819D01*
X97994347Y-59305906D01*
X97300213Y-59401950D01*
X96677020Y-59278621D01*
X96256829Y-58908634D01*
X96079778Y-58531735D01*
X95973548Y-58058793D01*
X95938138Y-57489806D01*
X95967606Y-57000856D01*
X96056010Y-56599219D01*
X96361604Y-56027322D01*
X96789435Y-55721728D01*
X97282751Y-55630050D01*
X97933229Y-55721728D01*
X98417813Y-55944375D01*
X98697213Y-55088712D01*
X98518222Y-54983937D01*
X98225726Y-54852969D01*
X97819722Y-54743828D01*
X97300213Y-54695806D01*
X96788344Y-54742737D01*
X96317947Y-54883528D01*
X95898847Y-55114906D01*
X95540866Y-55433597D01*
X95249461Y-55836326D01*
X95030088Y-56319819D01*
X94892571Y-56880802D01*
X94846732Y-57516000D01*
X93726463Y-57516000D01*
X93227085Y-57206041D01*
X92698844Y-56992125D01*
X92362691Y-56861156D01*
X92057097Y-56699628D01*
X91834451Y-56490078D01*
X91747138Y-56215044D01*
X91842212Y-55870644D01*
X92127433Y-55664005D01*
X92602801Y-55595125D01*
X93218354Y-55682437D01*
X93702938Y-55891987D01*
X94017263Y-55062519D01*
X93392979Y-54809312D01*
X92990250Y-54724183D01*
X92524219Y-54695806D01*
X91989188Y-54743343D01*
X91536618Y-54885953D01*
X91166510Y-55123637D01*
X90796523Y-55634416D01*
X90673194Y-56311087D01*
X90812894Y-56952834D01*
X91166510Y-57385031D01*
X91642363Y-57673163D01*
X92148776Y-57873981D01*
X92515488Y-58026778D01*
X92847276Y-58210134D01*
X93091751Y-58441513D01*
X93187794Y-58738375D01*
X93148504Y-58995947D01*
X93004438Y-59222959D01*
X92720672Y-59380122D01*
X92271013Y-59436875D01*
X91835542Y-59406316D01*
X91472104Y-59314638D01*
X90908938Y-59052700D01*
X90594613Y-59925825D01*
X89210479Y-59925825D01*
X89503207Y-59624597D01*
X89724762Y-59225961D01*
X89883016Y-58741649D01*
X89977969Y-58171662D01*
X90009619Y-57516000D01*
X89978514Y-56860338D01*
X89885199Y-56290351D01*
X89729674Y-55806039D01*
X89511938Y-55407403D01*
X89129703Y-55012072D01*
X88646574Y-54774873D01*
X88062551Y-54695806D01*
X87495989Y-54774873D01*
X87018681Y-55012072D01*
X86630626Y-55407403D01*
X86405250Y-55806039D01*
X86244268Y-56290351D01*
X86147678Y-56860338D01*
X86115482Y-57516000D01*
X81278369Y-57516000D01*
X81235804Y-56836054D01*
X81108110Y-56263066D01*
X80904017Y-55789395D01*
X80632257Y-55407403D01*
X80292829Y-55115998D01*
X79885735Y-54914087D01*
X79421887Y-54796216D01*
X78912201Y-54756925D01*
X78309744Y-54783119D01*
X77619976Y-54887894D01*
X77619976Y-60161569D01*
X75737137Y-60161569D01*
X76022157Y-60019928D01*
X76406332Y-59624597D01*
X76627887Y-59225961D01*
X76786141Y-58741649D01*
X76881094Y-58171662D01*
X76912744Y-57516000D01*
X76881639Y-56860338D01*
X76788324Y-56290351D01*
X76632799Y-55806039D01*
X76415063Y-55407403D01*
X76032828Y-55012072D01*
X75549699Y-54774873D01*
X74965676Y-54695806D01*
X74399114Y-54774873D01*
X73921806Y-55012072D01*
X73533751Y-55407403D01*
X73308375Y-55806039D01*
X73147393Y-56290351D01*
X73050803Y-56860338D01*
X73018607Y-57516000D01*
X72472041Y-57516000D01*
X72429247Y-56866613D01*
X72376860Y-56197581D01*
X72319015Y-55516544D01*
X72258988Y-54818044D01*
X71368401Y-54818044D01*
X71211238Y-55280800D01*
X71019151Y-55878891D01*
X70800869Y-56542466D01*
X70582588Y-57210406D01*
X70381769Y-56581756D01*
X70172219Y-55909450D01*
X69975766Y-55289531D01*
X69822969Y-54818044D01*
X68932382Y-54818044D01*
X68874537Y-55409586D01*
X68823241Y-56049150D01*
X68778494Y-56723639D01*
X68740294Y-57419956D01*
X68706461Y-58129370D01*
X68674810Y-58843150D01*
X68645342Y-59546016D01*
X68618057Y-60222688D01*
X66175272Y-60222688D01*
X65748764Y-59872662D01*
X65334285Y-59367618D01*
X65026299Y-58791417D01*
X64836642Y-58166202D01*
X64772603Y-57516000D01*
X64836642Y-56865798D01*
X65026299Y-56240583D01*
X65334285Y-55664382D01*
X65748764Y-55159338D01*
X66253809Y-54744858D01*
X66830010Y-54436872D01*
X67455225Y-54247215D01*
X68105427Y-54183176D01*
X99218575Y-54183176D01*
X99868776Y-54247216D01*
G37*
G36*
X79593238Y-55843966D02*
G01*
X79951219Y-56249969D01*
X80134576Y-56834962D01*
X80186963Y-57516000D01*
X80170592Y-57901266D01*
X80121479Y-58253791D01*
X79903197Y-58834419D01*
X79501560Y-59218594D01*
X78886007Y-59358294D01*
X78789963Y-59358294D01*
X78693919Y-59349563D01*
X78693919Y-55717362D01*
X78851082Y-55695534D01*
X79008244Y-55691169D01*
X79593238Y-55843966D01*
G37*
%LPC*%
D15*
X96012000Y-108331000D03*
M02*
