%FSLAX45Y45*%
G04 Gerber Fmt 4.5, Leading zero omitted, Abs format (unit mm)*
G04 Created by KiCad (PCBNEW 6.0.5+dfsg-1~bpo11+1) date 2022-08-10 11:57:08*
%MOMM*%
%LPD*%
G01*
G04 APERTURE LIST*
%TA.AperFunction,Profile*%
%ADD10C,0.100000*%
%TD*%
%TA.AperFunction,Profile*%
%ADD11C,0.150000*%
%TD*%
%ADD12C,0.200000*%
%ADD13C,0.100000*%
G04 APERTURE END LIST*
D10*
X6235700Y-14071600D02*
G75*
G03*
X6743700Y-14579600I508000J0D01*
G01*
X6235700Y-5689600D02*
X6235700Y-14071600D01*
D11*
X14442440Y-7721600D02*
G75*
G03*
X14442440Y-7721600I-396240J0D01*
G01*
X10071100Y-9944100D02*
G75*
G03*
X10071100Y-9944100I-469900J0D01*
G01*
D10*
X6743700Y-5181600D02*
G75*
G03*
X6235700Y-5689600I0J-508000D01*
G01*
D11*
X18961100Y-12166600D02*
G75*
G03*
X18961100Y-12166600I-469900J0D01*
G01*
D10*
X21031200Y-14071600D02*
X21031200Y-5689600D01*
X21031200Y-5689600D02*
G75*
G03*
X20523200Y-5181600I-508000J0D01*
G01*
X20523200Y-14579600D02*
G75*
G03*
X21031200Y-14071600I0J508000D01*
G01*
D11*
X14363700Y-12166600D02*
G75*
G03*
X14363700Y-12166600I-317500J0D01*
G01*
D10*
X6743700Y-14579600D02*
X20523200Y-14579600D01*
D11*
X18961100Y-7721600D02*
G75*
G03*
X18961100Y-7721600I-469900J0D01*
G01*
D10*
X20523200Y-5181600D02*
X6743700Y-5181600D01*
D12*
D13*
X9551200Y-10783100D02*
X9651200Y-10883100D01*
X9651200Y-10783100D02*
X9551200Y-10883100D01*
D12*
X6488319Y-14895076D02*
X6488319Y-14695076D01*
X6535938Y-14695076D01*
X6564509Y-14704600D01*
X6583557Y-14723648D01*
X6593081Y-14742695D01*
X6602605Y-14780790D01*
X6602605Y-14809362D01*
X6593081Y-14847457D01*
X6583557Y-14866505D01*
X6564509Y-14885552D01*
X6535938Y-14895076D01*
X6488319Y-14895076D01*
X6688319Y-14895076D02*
X6688319Y-14761743D01*
X6688319Y-14799838D02*
X6697843Y-14780790D01*
X6707367Y-14771267D01*
X6726414Y-14761743D01*
X6745462Y-14761743D01*
X6812128Y-14895076D02*
X6812128Y-14761743D01*
X6812128Y-14695076D02*
X6802605Y-14704600D01*
X6812128Y-14714124D01*
X6821652Y-14704600D01*
X6812128Y-14695076D01*
X6812128Y-14714124D01*
X6935938Y-14895076D02*
X6916890Y-14885552D01*
X6907367Y-14866505D01*
X6907367Y-14695076D01*
X7040700Y-14895076D02*
X7021652Y-14885552D01*
X7012128Y-14866505D01*
X7012128Y-14695076D01*
X7269271Y-14895076D02*
X7269271Y-14695076D01*
X7335938Y-14837933D01*
X7402605Y-14695076D01*
X7402605Y-14895076D01*
X7583557Y-14895076D02*
X7583557Y-14790314D01*
X7574033Y-14771267D01*
X7554986Y-14761743D01*
X7516890Y-14761743D01*
X7497843Y-14771267D01*
X7583557Y-14885552D02*
X7564509Y-14895076D01*
X7516890Y-14895076D01*
X7497843Y-14885552D01*
X7488319Y-14866505D01*
X7488319Y-14847457D01*
X7497843Y-14828409D01*
X7516890Y-14818886D01*
X7564509Y-14818886D01*
X7583557Y-14809362D01*
X7678795Y-14761743D02*
X7678795Y-14961743D01*
X7678795Y-14771267D02*
X7697843Y-14761743D01*
X7735938Y-14761743D01*
X7754986Y-14771267D01*
X7764509Y-14780790D01*
X7774033Y-14799838D01*
X7774033Y-14856981D01*
X7764509Y-14876028D01*
X7754986Y-14885552D01*
X7735938Y-14895076D01*
X7697843Y-14895076D01*
X7678795Y-14885552D01*
X7859748Y-14876028D02*
X7869271Y-14885552D01*
X7859748Y-14895076D01*
X7850224Y-14885552D01*
X7859748Y-14876028D01*
X7859748Y-14895076D01*
X7859748Y-14771267D02*
X7869271Y-14780790D01*
X7859748Y-14790314D01*
X7850224Y-14780790D01*
X7859748Y-14771267D01*
X7859748Y-14790314D01*
D13*
X6130700Y-15174600D02*
X6230700Y-15274600D01*
X6230700Y-15174600D02*
X6130700Y-15274600D01*
D12*
X6593081Y-15315076D02*
X6478795Y-15315076D01*
X6535938Y-15315076D02*
X6535938Y-15115076D01*
X6516890Y-15143648D01*
X6497843Y-15162695D01*
X6478795Y-15172219D01*
X6678795Y-15296028D02*
X6688319Y-15305552D01*
X6678795Y-15315076D01*
X6669271Y-15305552D01*
X6678795Y-15296028D01*
X6678795Y-15315076D01*
X6812128Y-15115076D02*
X6831176Y-15115076D01*
X6850224Y-15124600D01*
X6859748Y-15134124D01*
X6869271Y-15153171D01*
X6878795Y-15191267D01*
X6878795Y-15238886D01*
X6869271Y-15276981D01*
X6859748Y-15296028D01*
X6850224Y-15305552D01*
X6831176Y-15315076D01*
X6812128Y-15315076D01*
X6793081Y-15305552D01*
X6783557Y-15296028D01*
X6774033Y-15276981D01*
X6764509Y-15238886D01*
X6764509Y-15191267D01*
X6774033Y-15153171D01*
X6783557Y-15134124D01*
X6793081Y-15124600D01*
X6812128Y-15115076D01*
X7002605Y-15115076D02*
X7021652Y-15115076D01*
X7040700Y-15124600D01*
X7050224Y-15134124D01*
X7059748Y-15153171D01*
X7069271Y-15191267D01*
X7069271Y-15238886D01*
X7059748Y-15276981D01*
X7050224Y-15296028D01*
X7040700Y-15305552D01*
X7021652Y-15315076D01*
X7002605Y-15315076D01*
X6983557Y-15305552D01*
X6974033Y-15296028D01*
X6964509Y-15276981D01*
X6954986Y-15238886D01*
X6954986Y-15191267D01*
X6964509Y-15153171D01*
X6974033Y-15134124D01*
X6983557Y-15124600D01*
X7002605Y-15115076D01*
X7193081Y-15115076D02*
X7212128Y-15115076D01*
X7231176Y-15124600D01*
X7240700Y-15134124D01*
X7250224Y-15153171D01*
X7259748Y-15191267D01*
X7259748Y-15238886D01*
X7250224Y-15276981D01*
X7240700Y-15296028D01*
X7231176Y-15305552D01*
X7212128Y-15315076D01*
X7193081Y-15315076D01*
X7174033Y-15305552D01*
X7164509Y-15296028D01*
X7154986Y-15276981D01*
X7145462Y-15238886D01*
X7145462Y-15191267D01*
X7154986Y-15153171D01*
X7164509Y-15134124D01*
X7174033Y-15124600D01*
X7193081Y-15115076D01*
X7345462Y-15315076D02*
X7345462Y-15181743D01*
X7345462Y-15200790D02*
X7354986Y-15191267D01*
X7374033Y-15181743D01*
X7402605Y-15181743D01*
X7421652Y-15191267D01*
X7431176Y-15210314D01*
X7431176Y-15315076D01*
X7431176Y-15210314D02*
X7440700Y-15191267D01*
X7459748Y-15181743D01*
X7488319Y-15181743D01*
X7507367Y-15191267D01*
X7516890Y-15210314D01*
X7516890Y-15315076D01*
X7612128Y-15315076D02*
X7612128Y-15181743D01*
X7612128Y-15200790D02*
X7621652Y-15191267D01*
X7640700Y-15181743D01*
X7669271Y-15181743D01*
X7688319Y-15191267D01*
X7697843Y-15210314D01*
X7697843Y-15315076D01*
X7697843Y-15210314D02*
X7707367Y-15191267D01*
X7726414Y-15181743D01*
X7754986Y-15181743D01*
X7774033Y-15191267D01*
X7783557Y-15210314D01*
X7783557Y-15315076D01*
X8174033Y-15105552D02*
X8002605Y-15362695D01*
X8431176Y-15115076D02*
X8450224Y-15115076D01*
X8469271Y-15124600D01*
X8478795Y-15134124D01*
X8488319Y-15153171D01*
X8497843Y-15191267D01*
X8497843Y-15238886D01*
X8488319Y-15276981D01*
X8478795Y-15296028D01*
X8469271Y-15305552D01*
X8450224Y-15315076D01*
X8431176Y-15315076D01*
X8412129Y-15305552D01*
X8402605Y-15296028D01*
X8393081Y-15276981D01*
X8383557Y-15238886D01*
X8383557Y-15191267D01*
X8393081Y-15153171D01*
X8402605Y-15134124D01*
X8412129Y-15124600D01*
X8431176Y-15115076D01*
X8583557Y-15296028D02*
X8593081Y-15305552D01*
X8583557Y-15315076D01*
X8574033Y-15305552D01*
X8583557Y-15296028D01*
X8583557Y-15315076D01*
X8716890Y-15115076D02*
X8735938Y-15115076D01*
X8754986Y-15124600D01*
X8764510Y-15134124D01*
X8774033Y-15153171D01*
X8783557Y-15191267D01*
X8783557Y-15238886D01*
X8774033Y-15276981D01*
X8764510Y-15296028D01*
X8754986Y-15305552D01*
X8735938Y-15315076D01*
X8716890Y-15315076D01*
X8697843Y-15305552D01*
X8688319Y-15296028D01*
X8678795Y-15276981D01*
X8669271Y-15238886D01*
X8669271Y-15191267D01*
X8678795Y-15153171D01*
X8688319Y-15134124D01*
X8697843Y-15124600D01*
X8716890Y-15115076D01*
X8850224Y-15115076D02*
X8974033Y-15115076D01*
X8907367Y-15191267D01*
X8935938Y-15191267D01*
X8954986Y-15200790D01*
X8964510Y-15210314D01*
X8974033Y-15229362D01*
X8974033Y-15276981D01*
X8964510Y-15296028D01*
X8954986Y-15305552D01*
X8935938Y-15315076D01*
X8878795Y-15315076D01*
X8859748Y-15305552D01*
X8850224Y-15296028D01*
X9069271Y-15315076D02*
X9107367Y-15315076D01*
X9126414Y-15305552D01*
X9135938Y-15296028D01*
X9154986Y-15267457D01*
X9164510Y-15229362D01*
X9164510Y-15153171D01*
X9154986Y-15134124D01*
X9145462Y-15124600D01*
X9126414Y-15115076D01*
X9088319Y-15115076D01*
X9069271Y-15124600D01*
X9059748Y-15134124D01*
X9050224Y-15153171D01*
X9050224Y-15200790D01*
X9059748Y-15219838D01*
X9069271Y-15229362D01*
X9088319Y-15238886D01*
X9126414Y-15238886D01*
X9145462Y-15229362D01*
X9154986Y-15219838D01*
X9164510Y-15200790D01*
X9335938Y-15181743D02*
X9335938Y-15315076D01*
X9288319Y-15105552D02*
X9240700Y-15248409D01*
X9364510Y-15248409D01*
X9431176Y-15115076D02*
X9431176Y-15153171D01*
X9507367Y-15115076D02*
X9507367Y-15153171D01*
X9802605Y-15391267D02*
X9793081Y-15381743D01*
X9774033Y-15353171D01*
X9764510Y-15334124D01*
X9754986Y-15305552D01*
X9745462Y-15257933D01*
X9745462Y-15219838D01*
X9754986Y-15172219D01*
X9764510Y-15143648D01*
X9774033Y-15124600D01*
X9793081Y-15096028D01*
X9802605Y-15086505D01*
X9983557Y-15315076D02*
X9869271Y-15315076D01*
X9926414Y-15315076D02*
X9926414Y-15115076D01*
X9907367Y-15143648D01*
X9888319Y-15162695D01*
X9869271Y-15172219D01*
X10221652Y-15315076D02*
X10221652Y-15115076D01*
X10307367Y-15315076D02*
X10307367Y-15210314D01*
X10297843Y-15191267D01*
X10278795Y-15181743D01*
X10250224Y-15181743D01*
X10231176Y-15191267D01*
X10221652Y-15200790D01*
X10431176Y-15315076D02*
X10412129Y-15305552D01*
X10402605Y-15296028D01*
X10393081Y-15276981D01*
X10393081Y-15219838D01*
X10402605Y-15200790D01*
X10412129Y-15191267D01*
X10431176Y-15181743D01*
X10459748Y-15181743D01*
X10478795Y-15191267D01*
X10488319Y-15200790D01*
X10497843Y-15219838D01*
X10497843Y-15276981D01*
X10488319Y-15296028D01*
X10478795Y-15305552D01*
X10459748Y-15315076D01*
X10431176Y-15315076D01*
X10612129Y-15315076D02*
X10593081Y-15305552D01*
X10583557Y-15286505D01*
X10583557Y-15115076D01*
X10764510Y-15305552D02*
X10745462Y-15315076D01*
X10707367Y-15315076D01*
X10688319Y-15305552D01*
X10678795Y-15286505D01*
X10678795Y-15210314D01*
X10688319Y-15191267D01*
X10707367Y-15181743D01*
X10745462Y-15181743D01*
X10764510Y-15191267D01*
X10774033Y-15210314D01*
X10774033Y-15229362D01*
X10678795Y-15248409D01*
X10840700Y-15391267D02*
X10850224Y-15381743D01*
X10869271Y-15353171D01*
X10878795Y-15334124D01*
X10888319Y-15305552D01*
X10897843Y-15257933D01*
X10897843Y-15219838D01*
X10888319Y-15172219D01*
X10878795Y-15143648D01*
X10869271Y-15124600D01*
X10850224Y-15096028D01*
X10840700Y-15086505D01*
M02*
