G04 #@! TF.GenerationSoftware,KiCad,Pcbnew,6.0.5+dfsg-1~bpo11+1*
G04 #@! TF.CreationDate,2022-08-10T11:57:08+00:00*
G04 #@! TF.ProjectId,mod_osc_pcb_panel,6d6f645f-6f73-4635-9f70-63625f70616e,0*
G04 #@! TF.SameCoordinates,Original*
G04 #@! TF.FileFunction,Copper,L2,Bot*
G04 #@! TF.FilePolarity,Positive*
%FSLAX46Y46*%
G04 Gerber Fmt 4.6, Leading zero omitted, Abs format (unit mm)*
G04 Created by KiCad (PCBNEW 6.0.5+dfsg-1~bpo11+1) date 2022-08-10 11:57:08*
%MOMM*%
%LPD*%
G01*
G04 APERTURE LIST*
G04 #@! TA.AperFunction,ComponentPad*
%ADD10C,2.000000*%
G04 #@! TD*
G04 APERTURE END LIST*
D10*
X96012000Y-108331000D03*
G04 #@! TA.AperFunction,Conductor*
G36*
X205202018Y-52326000D02*
G01*
X205216851Y-52328310D01*
X205216855Y-52328310D01*
X205225724Y-52329691D01*
X205246183Y-52327016D01*
X205268008Y-52326072D01*
X205624937Y-52341656D01*
X205635886Y-52342614D01*
X206020379Y-52393233D01*
X206031205Y-52395142D01*
X206409822Y-52479080D01*
X206420439Y-52481925D01*
X206590702Y-52535608D01*
X206790302Y-52598542D01*
X206800615Y-52602295D01*
X207158932Y-52750715D01*
X207168876Y-52755353D01*
X207512867Y-52934423D01*
X207522387Y-52939919D01*
X207849468Y-53148292D01*
X207858472Y-53154597D01*
X208166138Y-53390678D01*
X208174558Y-53397743D01*
X208460483Y-53659744D01*
X208468256Y-53667517D01*
X208730257Y-53953442D01*
X208737322Y-53961862D01*
X208973403Y-54269528D01*
X208979708Y-54278532D01*
X209188081Y-54605613D01*
X209193577Y-54615133D01*
X209372643Y-54959115D01*
X209377289Y-54969077D01*
X209525702Y-55327377D01*
X209529461Y-55337706D01*
X209646075Y-55707561D01*
X209648920Y-55718178D01*
X209732858Y-56096795D01*
X209734767Y-56107621D01*
X209785386Y-56492114D01*
X209786344Y-56503064D01*
X209801603Y-56852552D01*
X209800223Y-56877429D01*
X209798309Y-56889724D01*
X209799473Y-56898626D01*
X209799473Y-56898628D01*
X209802436Y-56921283D01*
X209803500Y-56937621D01*
X209803500Y-140666633D01*
X209802000Y-140686018D01*
X209799690Y-140700851D01*
X209799690Y-140700855D01*
X209798309Y-140709724D01*
X209800984Y-140730183D01*
X209801928Y-140752012D01*
X209786344Y-141108936D01*
X209785386Y-141119886D01*
X209734767Y-141504379D01*
X209732858Y-141515205D01*
X209648920Y-141893822D01*
X209646075Y-141904439D01*
X209529461Y-142274294D01*
X209525702Y-142284623D01*
X209377289Y-142642923D01*
X209372643Y-142652885D01*
X209193577Y-142996867D01*
X209188081Y-143006387D01*
X208979708Y-143333468D01*
X208973403Y-143342472D01*
X208737322Y-143650138D01*
X208730257Y-143658558D01*
X208468256Y-143944483D01*
X208460483Y-143952256D01*
X208174558Y-144214257D01*
X208166138Y-144221322D01*
X207858472Y-144457403D01*
X207849468Y-144463708D01*
X207522387Y-144672081D01*
X207512868Y-144677576D01*
X207168876Y-144856647D01*
X207158932Y-144861285D01*
X206800615Y-145009705D01*
X206790302Y-145013458D01*
X206590702Y-145076392D01*
X206420439Y-145130075D01*
X206409822Y-145132920D01*
X206031205Y-145216858D01*
X206020379Y-145218767D01*
X205635886Y-145269386D01*
X205624937Y-145270344D01*
X205275446Y-145285603D01*
X205250571Y-145284223D01*
X205238276Y-145282309D01*
X205229374Y-145283473D01*
X205229372Y-145283473D01*
X205214323Y-145285441D01*
X205206714Y-145286436D01*
X205190379Y-145287500D01*
X67486367Y-145287500D01*
X67466982Y-145286000D01*
X67452149Y-145283690D01*
X67452145Y-145283690D01*
X67443276Y-145282309D01*
X67422817Y-145284984D01*
X67400992Y-145285928D01*
X67044063Y-145270344D01*
X67033114Y-145269386D01*
X66648621Y-145218767D01*
X66637795Y-145216858D01*
X66259178Y-145132920D01*
X66248561Y-145130075D01*
X66078298Y-145076392D01*
X65878698Y-145013458D01*
X65868385Y-145009705D01*
X65510068Y-144861285D01*
X65500124Y-144856647D01*
X65156132Y-144677576D01*
X65146613Y-144672081D01*
X64819532Y-144463708D01*
X64810528Y-144457403D01*
X64502862Y-144221322D01*
X64494442Y-144214257D01*
X64208517Y-143952256D01*
X64200744Y-143944483D01*
X63938743Y-143658558D01*
X63931678Y-143650138D01*
X63695597Y-143342472D01*
X63689292Y-143333468D01*
X63480919Y-143006387D01*
X63475423Y-142996867D01*
X63296357Y-142652885D01*
X63291711Y-142642923D01*
X63143298Y-142284623D01*
X63139539Y-142274294D01*
X63022925Y-141904439D01*
X63020080Y-141893822D01*
X62936142Y-141515205D01*
X62934233Y-141504379D01*
X62883614Y-141119886D01*
X62882656Y-141108936D01*
X62867561Y-140763208D01*
X62869188Y-140736805D01*
X62869769Y-140733352D01*
X62869770Y-140733345D01*
X62870576Y-140728552D01*
X62870729Y-140716000D01*
X62866773Y-140688376D01*
X62865500Y-140670514D01*
X62865500Y-121666000D01*
X136773445Y-121666000D01*
X136793651Y-122051559D01*
X136794164Y-122054799D01*
X136794165Y-122054807D01*
X136821970Y-122230357D01*
X136854049Y-122432894D01*
X136953976Y-122805826D01*
X137092337Y-123166270D01*
X137093835Y-123169210D01*
X137237572Y-123451308D01*
X137267618Y-123510277D01*
X137477896Y-123834078D01*
X137720869Y-124134125D01*
X137993875Y-124407131D01*
X138293922Y-124650104D01*
X138617722Y-124860382D01*
X138620656Y-124861877D01*
X138620663Y-124861881D01*
X138829246Y-124968159D01*
X138961730Y-125035663D01*
X139322174Y-125174024D01*
X139695106Y-125273951D01*
X139897643Y-125306030D01*
X140073193Y-125333835D01*
X140073201Y-125333836D01*
X140076441Y-125334349D01*
X140462000Y-125354555D01*
X140847559Y-125334349D01*
X140850799Y-125333836D01*
X140850807Y-125333835D01*
X141026357Y-125306030D01*
X141228894Y-125273951D01*
X141601826Y-125174024D01*
X141962270Y-125035663D01*
X142094754Y-124968159D01*
X142303337Y-124861881D01*
X142303344Y-124861877D01*
X142306278Y-124860382D01*
X142630078Y-124650104D01*
X142930125Y-124407131D01*
X143203131Y-124134125D01*
X143446104Y-123834078D01*
X143656382Y-123510277D01*
X143686429Y-123451308D01*
X143830165Y-123169210D01*
X143831663Y-123166270D01*
X143970024Y-122805826D01*
X144069951Y-122432894D01*
X144102030Y-122230357D01*
X144129835Y-122054807D01*
X144129836Y-122054799D01*
X144130349Y-122051559D01*
X144150555Y-121666000D01*
X179699539Y-121666000D01*
X179699659Y-121668748D01*
X179716515Y-122054807D01*
X179719374Y-122120296D01*
X179778728Y-122571134D01*
X179877149Y-123015084D01*
X179877977Y-123017709D01*
X179877978Y-123017714D01*
X179942394Y-123222013D01*
X180013889Y-123448767D01*
X180187906Y-123868881D01*
X180397876Y-124272230D01*
X180642202Y-124655745D01*
X180643868Y-124657916D01*
X180643870Y-124657919D01*
X180881926Y-124968159D01*
X180919023Y-125016505D01*
X181226233Y-125351767D01*
X181561495Y-125658977D01*
X181563657Y-125660636D01*
X181563663Y-125660641D01*
X181780495Y-125827022D01*
X181922255Y-125935798D01*
X182305769Y-126180124D01*
X182709119Y-126390094D01*
X183129233Y-126564111D01*
X183131853Y-126564937D01*
X183131861Y-126564940D01*
X183560286Y-126700022D01*
X183560291Y-126700023D01*
X183562916Y-126700851D01*
X184006866Y-126799272D01*
X184009585Y-126799630D01*
X184009591Y-126799631D01*
X184178548Y-126821874D01*
X184457704Y-126858626D01*
X184460453Y-126858746D01*
X184460464Y-126858747D01*
X184909252Y-126878341D01*
X184912000Y-126878461D01*
X184914748Y-126878341D01*
X185363536Y-126858747D01*
X185363547Y-126858746D01*
X185366296Y-126858626D01*
X185645452Y-126821874D01*
X185814409Y-126799631D01*
X185814415Y-126799630D01*
X185817134Y-126799272D01*
X186261084Y-126700851D01*
X186263709Y-126700023D01*
X186263714Y-126700022D01*
X186692139Y-126564940D01*
X186692147Y-126564937D01*
X186694767Y-126564111D01*
X187114881Y-126390094D01*
X187518231Y-126180124D01*
X187901745Y-125935798D01*
X188043505Y-125827022D01*
X188260337Y-125660641D01*
X188260343Y-125660636D01*
X188262505Y-125658977D01*
X188597767Y-125351767D01*
X188904977Y-125016505D01*
X188942075Y-124968159D01*
X189180130Y-124657919D01*
X189180132Y-124657916D01*
X189181798Y-124655745D01*
X189426124Y-124272230D01*
X189636094Y-123868881D01*
X189810111Y-123448767D01*
X189881607Y-123222013D01*
X189946022Y-123017714D01*
X189946023Y-123017709D01*
X189946851Y-123015084D01*
X190045272Y-122571134D01*
X190104626Y-122120296D01*
X190107486Y-122054807D01*
X190124341Y-121668748D01*
X190124461Y-121666000D01*
X190121906Y-121607490D01*
X190104747Y-121214464D01*
X190104746Y-121214453D01*
X190104626Y-121211704D01*
X190057278Y-120852061D01*
X190045631Y-120763591D01*
X190045630Y-120763585D01*
X190045272Y-120760866D01*
X189946851Y-120316916D01*
X189851716Y-120015186D01*
X189810940Y-119885861D01*
X189810937Y-119885853D01*
X189810111Y-119883233D01*
X189636094Y-119463119D01*
X189426124Y-119059770D01*
X189181798Y-118676255D01*
X189026154Y-118473416D01*
X188906641Y-118317663D01*
X188906636Y-118317657D01*
X188904977Y-118315495D01*
X188597767Y-117980233D01*
X188262505Y-117673023D01*
X188260343Y-117671364D01*
X188260337Y-117671359D01*
X187903919Y-117397870D01*
X187903916Y-117397868D01*
X187901745Y-117396202D01*
X187518231Y-117151876D01*
X187114881Y-116941906D01*
X186694767Y-116767889D01*
X186692147Y-116767063D01*
X186692139Y-116767060D01*
X186263714Y-116631978D01*
X186263709Y-116631977D01*
X186261084Y-116631149D01*
X185817134Y-116532728D01*
X185814415Y-116532370D01*
X185814409Y-116532369D01*
X185645452Y-116510126D01*
X185366296Y-116473374D01*
X185363547Y-116473254D01*
X185363536Y-116473253D01*
X184914748Y-116453659D01*
X184912000Y-116453539D01*
X184909252Y-116453659D01*
X184460464Y-116473253D01*
X184460453Y-116473254D01*
X184457704Y-116473374D01*
X184178548Y-116510126D01*
X184009591Y-116532369D01*
X184009585Y-116532370D01*
X184006866Y-116532728D01*
X183562916Y-116631149D01*
X183560291Y-116631977D01*
X183560286Y-116631978D01*
X183131861Y-116767060D01*
X183131853Y-116767063D01*
X183129233Y-116767889D01*
X182709119Y-116941906D01*
X182305770Y-117151876D01*
X181922255Y-117396202D01*
X181920084Y-117397868D01*
X181920081Y-117397870D01*
X181563663Y-117671359D01*
X181563657Y-117671364D01*
X181561495Y-117673023D01*
X181226233Y-117980233D01*
X180919023Y-118315495D01*
X180917364Y-118317657D01*
X180917359Y-118317663D01*
X180797846Y-118473416D01*
X180642202Y-118676255D01*
X180397876Y-119059770D01*
X180187906Y-119463119D01*
X180013889Y-119883233D01*
X180013063Y-119885853D01*
X180013060Y-119885861D01*
X179972284Y-120015186D01*
X179877149Y-120316916D01*
X179778728Y-120760866D01*
X179778370Y-120763585D01*
X179778369Y-120763591D01*
X179766722Y-120852061D01*
X179719374Y-121211704D01*
X179702094Y-121607491D01*
X179699539Y-121666000D01*
X144150555Y-121666000D01*
X144130349Y-121280441D01*
X144117433Y-121198889D01*
X144070467Y-120902367D01*
X144069951Y-120899106D01*
X143970024Y-120526174D01*
X143831663Y-120165730D01*
X143754957Y-120015186D01*
X143657881Y-119824664D01*
X143657877Y-119824657D01*
X143656382Y-119821723D01*
X143446104Y-119497922D01*
X143203131Y-119197875D01*
X142930125Y-118924869D01*
X142630078Y-118681896D01*
X142306278Y-118471618D01*
X142303344Y-118470123D01*
X142303337Y-118470119D01*
X141965210Y-118297835D01*
X141962270Y-118296337D01*
X141601826Y-118157976D01*
X141228894Y-118058049D01*
X141026357Y-118025970D01*
X140850807Y-117998165D01*
X140850799Y-117998164D01*
X140847559Y-117997651D01*
X140462000Y-117977445D01*
X140076441Y-117997651D01*
X140073201Y-117998164D01*
X140073193Y-117998165D01*
X139897643Y-118025970D01*
X139695106Y-118058049D01*
X139322174Y-118157976D01*
X138961730Y-118296337D01*
X138958790Y-118297835D01*
X138620664Y-118470119D01*
X138620657Y-118470123D01*
X138617723Y-118471618D01*
X138293922Y-118681896D01*
X137993875Y-118924869D01*
X137720869Y-119197875D01*
X137477896Y-119497922D01*
X137267618Y-119821723D01*
X137266123Y-119824657D01*
X137266119Y-119824664D01*
X137169043Y-120015186D01*
X137092337Y-120165730D01*
X136953976Y-120526174D01*
X136854049Y-120899106D01*
X136853533Y-120902367D01*
X136806568Y-121198889D01*
X136793651Y-121280441D01*
X136774908Y-121638077D01*
X136773445Y-121666000D01*
X62865500Y-121666000D01*
X62865500Y-109563670D01*
X95144160Y-109563670D01*
X95149887Y-109571320D01*
X95321042Y-109676205D01*
X95329837Y-109680687D01*
X95539988Y-109767734D01*
X95549373Y-109770783D01*
X95770554Y-109823885D01*
X95780301Y-109825428D01*
X96007070Y-109843275D01*
X96016930Y-109843275D01*
X96243699Y-109825428D01*
X96253446Y-109823885D01*
X96474627Y-109770783D01*
X96484012Y-109767734D01*
X96694163Y-109680687D01*
X96702958Y-109676205D01*
X96870445Y-109573568D01*
X96879907Y-109563110D01*
X96876124Y-109554334D01*
X96024812Y-108703022D01*
X96010868Y-108695408D01*
X96009035Y-108695539D01*
X96002420Y-108699790D01*
X95150920Y-109551290D01*
X95144160Y-109563670D01*
X62865500Y-109563670D01*
X62865500Y-108335930D01*
X94499725Y-108335930D01*
X94517572Y-108562699D01*
X94519115Y-108572446D01*
X94572217Y-108793627D01*
X94575266Y-108803012D01*
X94662313Y-109013163D01*
X94666795Y-109021958D01*
X94769432Y-109189445D01*
X94779890Y-109198907D01*
X94788666Y-109195124D01*
X95639978Y-108343812D01*
X95646356Y-108332132D01*
X96376408Y-108332132D01*
X96376539Y-108333965D01*
X96380790Y-108340580D01*
X97232290Y-109192080D01*
X97244670Y-109198840D01*
X97252320Y-109193113D01*
X97357205Y-109021958D01*
X97361687Y-109013163D01*
X97448734Y-108803012D01*
X97451783Y-108793627D01*
X97504885Y-108572446D01*
X97506428Y-108562699D01*
X97524275Y-108335930D01*
X97524275Y-108326070D01*
X97506428Y-108099301D01*
X97504885Y-108089554D01*
X97451783Y-107868373D01*
X97448734Y-107858988D01*
X97361687Y-107648837D01*
X97357205Y-107640042D01*
X97254568Y-107472555D01*
X97244110Y-107463093D01*
X97235334Y-107466876D01*
X96384022Y-108318188D01*
X96376408Y-108332132D01*
X95646356Y-108332132D01*
X95647592Y-108329868D01*
X95647461Y-108328035D01*
X95643210Y-108321420D01*
X94791710Y-107469920D01*
X94779330Y-107463160D01*
X94771680Y-107468887D01*
X94666795Y-107640042D01*
X94662313Y-107648837D01*
X94575266Y-107858988D01*
X94572217Y-107868373D01*
X94519115Y-108089554D01*
X94517572Y-108099301D01*
X94499725Y-108326070D01*
X94499725Y-108335930D01*
X62865500Y-108335930D01*
X62865500Y-107098890D01*
X95144093Y-107098890D01*
X95147876Y-107107666D01*
X95999188Y-107958978D01*
X96013132Y-107966592D01*
X96014965Y-107966461D01*
X96021580Y-107962210D01*
X96873080Y-107110710D01*
X96879840Y-107098330D01*
X96874113Y-107090680D01*
X96702958Y-106985795D01*
X96694163Y-106981313D01*
X96484012Y-106894266D01*
X96474627Y-106891217D01*
X96253446Y-106838115D01*
X96243699Y-106836572D01*
X96016930Y-106818725D01*
X96007070Y-106818725D01*
X95780301Y-106836572D01*
X95770554Y-106838115D01*
X95549373Y-106891217D01*
X95539988Y-106894266D01*
X95329837Y-106981313D01*
X95321042Y-106985795D01*
X95153555Y-107088432D01*
X95144093Y-107098890D01*
X62865500Y-107098890D01*
X62865500Y-99441000D01*
X90799539Y-99441000D01*
X90799659Y-99443748D01*
X90814849Y-99791652D01*
X90819374Y-99895296D01*
X90878728Y-100346134D01*
X90977149Y-100790084D01*
X90977977Y-100792709D01*
X90977978Y-100792714D01*
X91038173Y-100983626D01*
X91113889Y-101223767D01*
X91287906Y-101643881D01*
X91497876Y-102047230D01*
X91742202Y-102430745D01*
X91743868Y-102432916D01*
X91743870Y-102432919D01*
X91981926Y-102743159D01*
X92019023Y-102791505D01*
X92326233Y-103126767D01*
X92661495Y-103433977D01*
X92663657Y-103435636D01*
X92663663Y-103435641D01*
X92880495Y-103602022D01*
X93022255Y-103710798D01*
X93405769Y-103955124D01*
X93809119Y-104165094D01*
X94229233Y-104339111D01*
X94231853Y-104339937D01*
X94231861Y-104339940D01*
X94660286Y-104475022D01*
X94660291Y-104475023D01*
X94662916Y-104475851D01*
X95106866Y-104574272D01*
X95109585Y-104574630D01*
X95109591Y-104574631D01*
X95278548Y-104596874D01*
X95557704Y-104633626D01*
X95560453Y-104633746D01*
X95560464Y-104633747D01*
X96009252Y-104653341D01*
X96012000Y-104653461D01*
X96014748Y-104653341D01*
X96463536Y-104633747D01*
X96463547Y-104633746D01*
X96466296Y-104633626D01*
X96745452Y-104596874D01*
X96914409Y-104574631D01*
X96914415Y-104574630D01*
X96917134Y-104574272D01*
X97361084Y-104475851D01*
X97363709Y-104475023D01*
X97363714Y-104475022D01*
X97792139Y-104339940D01*
X97792147Y-104339937D01*
X97794767Y-104339111D01*
X98214881Y-104165094D01*
X98618231Y-103955124D01*
X99001745Y-103710798D01*
X99143505Y-103602022D01*
X99360337Y-103435641D01*
X99360343Y-103435636D01*
X99362505Y-103433977D01*
X99697767Y-103126767D01*
X100004977Y-102791505D01*
X100042075Y-102743159D01*
X100280130Y-102432919D01*
X100280132Y-102432916D01*
X100281798Y-102430745D01*
X100526124Y-102047230D01*
X100736094Y-101643881D01*
X100910111Y-101223767D01*
X100985828Y-100983626D01*
X101046022Y-100792714D01*
X101046023Y-100792709D01*
X101046851Y-100790084D01*
X101145272Y-100346134D01*
X101204626Y-99895296D01*
X101209152Y-99791652D01*
X101224341Y-99443748D01*
X101224461Y-99441000D01*
X101221906Y-99382490D01*
X101204747Y-98989464D01*
X101204746Y-98989453D01*
X101204626Y-98986704D01*
X101157278Y-98627061D01*
X101145631Y-98538591D01*
X101145630Y-98538585D01*
X101145272Y-98535866D01*
X101046851Y-98091916D01*
X100910111Y-97658233D01*
X100736094Y-97238119D01*
X100526124Y-96834770D01*
X100281798Y-96451255D01*
X100098337Y-96212164D01*
X100006641Y-96092663D01*
X100006636Y-96092657D01*
X100004977Y-96090495D01*
X99697767Y-95755233D01*
X99362505Y-95448023D01*
X99360343Y-95446364D01*
X99360337Y-95446359D01*
X99003919Y-95172870D01*
X99003916Y-95172868D01*
X99001745Y-95171202D01*
X98618231Y-94926876D01*
X98214881Y-94716906D01*
X97794767Y-94542889D01*
X97792147Y-94542063D01*
X97792139Y-94542060D01*
X97363714Y-94406978D01*
X97363709Y-94406977D01*
X97361084Y-94406149D01*
X96917134Y-94307728D01*
X96914415Y-94307370D01*
X96914409Y-94307369D01*
X96745452Y-94285126D01*
X96466296Y-94248374D01*
X96463547Y-94248254D01*
X96463536Y-94248253D01*
X96014748Y-94228659D01*
X96012000Y-94228539D01*
X96009252Y-94228659D01*
X95560464Y-94248253D01*
X95560453Y-94248254D01*
X95557704Y-94248374D01*
X95278548Y-94285126D01*
X95109591Y-94307369D01*
X95109585Y-94307370D01*
X95106866Y-94307728D01*
X94662916Y-94406149D01*
X94660291Y-94406977D01*
X94660286Y-94406978D01*
X94231861Y-94542060D01*
X94231853Y-94542063D01*
X94229233Y-94542889D01*
X93809119Y-94716906D01*
X93405770Y-94926876D01*
X93022255Y-95171202D01*
X93020084Y-95172868D01*
X93020081Y-95172870D01*
X92663663Y-95446359D01*
X92663657Y-95446364D01*
X92661495Y-95448023D01*
X92326233Y-95755233D01*
X92019023Y-96090495D01*
X92017364Y-96092657D01*
X92017359Y-96092663D01*
X91925663Y-96212164D01*
X91742202Y-96451255D01*
X91497876Y-96834770D01*
X91287906Y-97238119D01*
X91113889Y-97658233D01*
X90977149Y-98091916D01*
X90878728Y-98535866D01*
X90878370Y-98538585D01*
X90878369Y-98538591D01*
X90866722Y-98627061D01*
X90819374Y-98986704D01*
X90802094Y-99382491D01*
X90799539Y-99441000D01*
X62865500Y-99441000D01*
X62865500Y-77075406D01*
X135988239Y-77075406D01*
X135990258Y-77203944D01*
X135994862Y-77497048D01*
X136041137Y-77916196D01*
X136041739Y-77919105D01*
X136041741Y-77919115D01*
X136121907Y-78306220D01*
X136126651Y-78329128D01*
X136250646Y-78732181D01*
X136412021Y-79121775D01*
X136609345Y-79494454D01*
X136610970Y-79496928D01*
X136610976Y-79496938D01*
X136683006Y-79606593D01*
X136840864Y-79846909D01*
X137104525Y-80176012D01*
X137397988Y-80478842D01*
X137400242Y-80480767D01*
X137616861Y-80665777D01*
X137718646Y-80752710D01*
X138063655Y-80995186D01*
X138170305Y-81056018D01*
X138427376Y-81202649D01*
X138427381Y-81202652D01*
X138429952Y-81204118D01*
X138814286Y-81377652D01*
X139213244Y-81514246D01*
X139216118Y-81514936D01*
X139216125Y-81514938D01*
X139620408Y-81611997D01*
X139620412Y-81611998D01*
X139623287Y-81612688D01*
X139626220Y-81613105D01*
X139626223Y-81613106D01*
X139829426Y-81642026D01*
X140040774Y-81672105D01*
X140462000Y-81691970D01*
X140883226Y-81672105D01*
X141094574Y-81642026D01*
X141297777Y-81613106D01*
X141297780Y-81613105D01*
X141300713Y-81612688D01*
X141303588Y-81611998D01*
X141303592Y-81611997D01*
X141707875Y-81514938D01*
X141707882Y-81514936D01*
X141710756Y-81514246D01*
X142109714Y-81377652D01*
X142494048Y-81204118D01*
X142496619Y-81202652D01*
X142496624Y-81202649D01*
X142753695Y-81056018D01*
X142860345Y-80995186D01*
X143205354Y-80752710D01*
X143307140Y-80665777D01*
X143523758Y-80480767D01*
X143526012Y-80478842D01*
X143819475Y-80176012D01*
X144083136Y-79846909D01*
X144240994Y-79606593D01*
X144313024Y-79496938D01*
X144313030Y-79496928D01*
X144314655Y-79494454D01*
X144511979Y-79121775D01*
X144673354Y-78732181D01*
X144797349Y-78329128D01*
X144802093Y-78306220D01*
X144882259Y-77919115D01*
X144882261Y-77919105D01*
X144882863Y-77916196D01*
X144929138Y-77497048D01*
X144937970Y-77216000D01*
X179699539Y-77216000D01*
X179699659Y-77218748D01*
X179716872Y-77612981D01*
X179719374Y-77670296D01*
X179778728Y-78121134D01*
X179877149Y-78565084D01*
X179877977Y-78567709D01*
X179877978Y-78567714D01*
X180009405Y-78984545D01*
X180013889Y-78998767D01*
X180187906Y-79418881D01*
X180397876Y-79822230D01*
X180642202Y-80205745D01*
X180643868Y-80207916D01*
X180643870Y-80207919D01*
X180905645Y-80549070D01*
X180919023Y-80566505D01*
X181226233Y-80901767D01*
X181561495Y-81208977D01*
X181563657Y-81210636D01*
X181563663Y-81210641D01*
X181802817Y-81394150D01*
X181922255Y-81485798D01*
X182305769Y-81730124D01*
X182709119Y-81940094D01*
X183129233Y-82114111D01*
X183131853Y-82114937D01*
X183131861Y-82114940D01*
X183560286Y-82250022D01*
X183560291Y-82250023D01*
X183562916Y-82250851D01*
X184006866Y-82349272D01*
X184009585Y-82349630D01*
X184009591Y-82349631D01*
X184178548Y-82371874D01*
X184457704Y-82408626D01*
X184460453Y-82408746D01*
X184460464Y-82408747D01*
X184909252Y-82428341D01*
X184912000Y-82428461D01*
X184914748Y-82428341D01*
X185363536Y-82408747D01*
X185363547Y-82408746D01*
X185366296Y-82408626D01*
X185645452Y-82371874D01*
X185814409Y-82349631D01*
X185814415Y-82349630D01*
X185817134Y-82349272D01*
X186261084Y-82250851D01*
X186263709Y-82250023D01*
X186263714Y-82250022D01*
X186692139Y-82114940D01*
X186692147Y-82114937D01*
X186694767Y-82114111D01*
X187114881Y-81940094D01*
X187518231Y-81730124D01*
X187901745Y-81485798D01*
X188021183Y-81394150D01*
X188260337Y-81210641D01*
X188260343Y-81210636D01*
X188262505Y-81208977D01*
X188597767Y-80901767D01*
X188904977Y-80566505D01*
X188918356Y-80549070D01*
X189180130Y-80207919D01*
X189180132Y-80207916D01*
X189181798Y-80205745D01*
X189426124Y-79822230D01*
X189636094Y-79418881D01*
X189810111Y-78998767D01*
X189814596Y-78984545D01*
X189946022Y-78567714D01*
X189946023Y-78567709D01*
X189946851Y-78565084D01*
X190045272Y-78121134D01*
X190104626Y-77670296D01*
X190107129Y-77612981D01*
X190124341Y-77218748D01*
X190124461Y-77216000D01*
X190108175Y-76842981D01*
X190104747Y-76764464D01*
X190104746Y-76764453D01*
X190104626Y-76761704D01*
X190054403Y-76380223D01*
X190045631Y-76313591D01*
X190045630Y-76313585D01*
X190045272Y-76310866D01*
X189946851Y-75866916D01*
X189852693Y-75568286D01*
X189810940Y-75435861D01*
X189810937Y-75435853D01*
X189810111Y-75433233D01*
X189636094Y-75013119D01*
X189426124Y-74609770D01*
X189181798Y-74226255D01*
X189131531Y-74160746D01*
X188906641Y-73867663D01*
X188906636Y-73867657D01*
X188904977Y-73865495D01*
X188597767Y-73530233D01*
X188262505Y-73223023D01*
X188260343Y-73221364D01*
X188260337Y-73221359D01*
X187903919Y-72947870D01*
X187903916Y-72947868D01*
X187901745Y-72946202D01*
X187518231Y-72701876D01*
X187114881Y-72491906D01*
X186694767Y-72317889D01*
X186692147Y-72317063D01*
X186692139Y-72317060D01*
X186263714Y-72181978D01*
X186263709Y-72181977D01*
X186261084Y-72181149D01*
X185817134Y-72082728D01*
X185814415Y-72082370D01*
X185814409Y-72082369D01*
X185645452Y-72060126D01*
X185366296Y-72023374D01*
X185363547Y-72023254D01*
X185363536Y-72023253D01*
X184914748Y-72003659D01*
X184912000Y-72003539D01*
X184909252Y-72003659D01*
X184460464Y-72023253D01*
X184460453Y-72023254D01*
X184457704Y-72023374D01*
X184178548Y-72060126D01*
X184009591Y-72082369D01*
X184009585Y-72082370D01*
X184006866Y-72082728D01*
X183562916Y-72181149D01*
X183560291Y-72181977D01*
X183560286Y-72181978D01*
X183131861Y-72317060D01*
X183131853Y-72317063D01*
X183129233Y-72317889D01*
X182709119Y-72491906D01*
X182305770Y-72701876D01*
X181922255Y-72946202D01*
X181920084Y-72947868D01*
X181920081Y-72947870D01*
X181563663Y-73221359D01*
X181563657Y-73221364D01*
X181561495Y-73223023D01*
X181226233Y-73530233D01*
X180919023Y-73865495D01*
X180917364Y-73867657D01*
X180917359Y-73867663D01*
X180692469Y-74160746D01*
X180642202Y-74226255D01*
X180397876Y-74609770D01*
X180187906Y-75013119D01*
X180013889Y-75433233D01*
X180013063Y-75435853D01*
X180013060Y-75435861D01*
X179971307Y-75568286D01*
X179877149Y-75866916D01*
X179778728Y-76310866D01*
X179778370Y-76313585D01*
X179778369Y-76313591D01*
X179769597Y-76380223D01*
X179719374Y-76761704D01*
X179702094Y-77157491D01*
X179699539Y-77216000D01*
X144937970Y-77216000D01*
X144918105Y-76794774D01*
X144858688Y-76377287D01*
X144842097Y-76308179D01*
X144760938Y-75970125D01*
X144760936Y-75970118D01*
X144760246Y-75967244D01*
X144623652Y-75568286D01*
X144450118Y-75183952D01*
X144241186Y-74817655D01*
X143998710Y-74472646D01*
X143724842Y-74151988D01*
X143422012Y-73858525D01*
X143092909Y-73594864D01*
X142997593Y-73532253D01*
X142742938Y-73364976D01*
X142742928Y-73364970D01*
X142740454Y-73363345D01*
X142367775Y-73166021D01*
X141978181Y-73004646D01*
X141975358Y-73003778D01*
X141975351Y-73003775D01*
X141577966Y-72881524D01*
X141577964Y-72881524D01*
X141575128Y-72880651D01*
X141572225Y-72880050D01*
X141572218Y-72880048D01*
X141165115Y-72795741D01*
X141165105Y-72795739D01*
X141162196Y-72795137D01*
X140743048Y-72748862D01*
X140740067Y-72748815D01*
X140740064Y-72748815D01*
X140620198Y-72746932D01*
X140321406Y-72742239D01*
X140318462Y-72742471D01*
X140318452Y-72742471D01*
X139910378Y-72774587D01*
X139901012Y-72775324D01*
X139485597Y-72847826D01*
X139482726Y-72848612D01*
X139482719Y-72848613D01*
X139081713Y-72958316D01*
X139081703Y-72958319D01*
X139078849Y-72959100D01*
X139076085Y-72960144D01*
X139076074Y-72960148D01*
X138706695Y-73099725D01*
X138684378Y-73108158D01*
X138681711Y-73109465D01*
X138681710Y-73109465D01*
X138449910Y-73223023D01*
X138305685Y-73293678D01*
X137946132Y-73514012D01*
X137943747Y-73515802D01*
X137943748Y-73515802D01*
X137611283Y-73765423D01*
X137611276Y-73765429D01*
X137608909Y-73767206D01*
X137606728Y-73769191D01*
X137606719Y-73769198D01*
X137367178Y-73987164D01*
X137297011Y-74051011D01*
X137295031Y-74053187D01*
X137015198Y-74360719D01*
X137015191Y-74360728D01*
X137013206Y-74362909D01*
X137011429Y-74365276D01*
X137011423Y-74365283D01*
X136827858Y-74609770D01*
X136760012Y-74700132D01*
X136758458Y-74702668D01*
X136569713Y-75010673D01*
X136539678Y-75059685D01*
X136538366Y-75062364D01*
X136538365Y-75062365D01*
X136355465Y-75435710D01*
X136354158Y-75438378D01*
X136353111Y-75441148D01*
X136353110Y-75441151D01*
X136206148Y-75830074D01*
X136206144Y-75830085D01*
X136205100Y-75832849D01*
X136204319Y-75835703D01*
X136204316Y-75835713D01*
X136128091Y-76114346D01*
X136093826Y-76239597D01*
X136021324Y-76655012D01*
X135988239Y-77075406D01*
X62865500Y-77075406D01*
X62865500Y-56949250D01*
X62867246Y-56928345D01*
X62869770Y-56913344D01*
X62869770Y-56913341D01*
X62870576Y-56908552D01*
X62870729Y-56896000D01*
X62870039Y-56891184D01*
X62870039Y-56891178D01*
X62868387Y-56879644D01*
X62867234Y-56856284D01*
X62882656Y-56503064D01*
X62883614Y-56492114D01*
X62934233Y-56107621D01*
X62936142Y-56096795D01*
X63020080Y-55718178D01*
X63022925Y-55707561D01*
X63139539Y-55337706D01*
X63143298Y-55327377D01*
X63291711Y-54969077D01*
X63296357Y-54959115D01*
X63475423Y-54615133D01*
X63480919Y-54605613D01*
X63689292Y-54278532D01*
X63695597Y-54269528D01*
X63931678Y-53961862D01*
X63938743Y-53953442D01*
X64200744Y-53667517D01*
X64208517Y-53659744D01*
X64494442Y-53397743D01*
X64502862Y-53390678D01*
X64810528Y-53154597D01*
X64819532Y-53148292D01*
X65146613Y-52939919D01*
X65156133Y-52934423D01*
X65500124Y-52755353D01*
X65510068Y-52750715D01*
X65868385Y-52602295D01*
X65878698Y-52598542D01*
X66078298Y-52535608D01*
X66248561Y-52481925D01*
X66259178Y-52479080D01*
X66637795Y-52395142D01*
X66648621Y-52393233D01*
X67033114Y-52342614D01*
X67044063Y-52341656D01*
X67393554Y-52326397D01*
X67418429Y-52327777D01*
X67430724Y-52329691D01*
X67439626Y-52328527D01*
X67439628Y-52328527D01*
X67458399Y-52326072D01*
X67462286Y-52325564D01*
X67478621Y-52324500D01*
X205182633Y-52324500D01*
X205202018Y-52326000D01*
G37*
G04 #@! TD.AperFunction*
M02*
