%FSLAX45Y45*%
G04 Gerber Fmt 4.5, Leading zero omitted, Abs format (unit mm)*
G04 Created by KiCad (PCBNEW 6.0.5+dfsg-1~bpo11+1) date 2022-08-10 11:57:38*
%MOMM*%
%LPD*%
G01*
G04 APERTURE LIST*
%TA.AperFunction,Profile*%
%ADD10C,0.150000*%
%TD*%
%TA.AperFunction,Profile*%
%ADD11C,0.100000*%
%TD*%
%ADD12C,0.200000*%
%ADD13C,0.100000*%
G04 APERTURE END LIST*
D10*
X24130000Y-12065000D02*
G75*
G03*
X24130000Y-12065000I-317500J0D01*
G01*
X16547500Y-12065000D02*
G75*
G03*
X16547500Y-12065000I-355000J0D01*
G01*
X27342500Y-20955000D02*
G75*
G03*
X27342500Y-20955000I-355000J0D01*
G01*
X21626829Y-4444375D02*
G75*
G03*
X21626829Y-4444375I-355000J0D01*
G01*
X18770000Y-18415000D02*
G75*
G03*
X18770000Y-18415000I-355000J0D01*
G01*
X19050000Y-12065000D02*
G75*
G03*
X19050000Y-12065000I-317500J0D01*
G01*
X26802500Y-6985000D02*
G75*
G03*
X26802500Y-6985000I-450000J0D01*
G01*
X24485000Y-18415000D02*
G75*
G03*
X24485000Y-18415000I-355000J0D01*
G01*
X16642500Y-6985000D02*
G75*
G03*
X16642500Y-6985000I-450000J0D01*
G01*
D11*
X13652500Y-25527000D02*
G75*
G03*
X14160500Y-26035000I508000J0D01*
G01*
D10*
X15912500Y-20955000D02*
G75*
G03*
X15912500Y-20955000I-355000J0D01*
G01*
X21627500Y-9525000D02*
G75*
G03*
X21627500Y-9525000I-355000J0D01*
G01*
D11*
X28892500Y-25527000D02*
X28892500Y-2540000D01*
X14160500Y-2032000D02*
G75*
G03*
X13652500Y-2540000I0J-508000D01*
G01*
D10*
X26707041Y-12064372D02*
G75*
G03*
X26707041Y-12064372I-355000J0D01*
G01*
D11*
X28384500Y-2032000D02*
X14160500Y-2032000D01*
X28892500Y-2540000D02*
G75*
G03*
X28384500Y-2032000I-508000J0D01*
G01*
D10*
X21627500Y-20955000D02*
G75*
G03*
X21627500Y-20955000I-355000J0D01*
G01*
D11*
X13652500Y-2540000D02*
X13652500Y-25527000D01*
X28384500Y-26035000D02*
G75*
G03*
X28892500Y-25527000I0J508000D01*
G01*
X14160500Y-26035000D02*
X28384500Y-26035000D01*
D12*
D13*
X21222500Y-5220500D02*
X21322500Y-5320500D01*
X21322500Y-5220500D02*
X21222500Y-5320500D01*
D12*
X13905119Y-26350476D02*
X13905119Y-26150476D01*
X13952738Y-26150476D01*
X13981309Y-26160000D01*
X14000357Y-26179048D01*
X14009881Y-26198095D01*
X14019405Y-26236191D01*
X14019405Y-26264762D01*
X14009881Y-26302857D01*
X14000357Y-26321905D01*
X13981309Y-26340952D01*
X13952738Y-26350476D01*
X13905119Y-26350476D01*
X14105119Y-26350476D02*
X14105119Y-26217143D01*
X14105119Y-26255238D02*
X14114643Y-26236191D01*
X14124167Y-26226667D01*
X14143214Y-26217143D01*
X14162262Y-26217143D01*
X14228928Y-26350476D02*
X14228928Y-26217143D01*
X14228928Y-26150476D02*
X14219405Y-26160000D01*
X14228928Y-26169524D01*
X14238452Y-26160000D01*
X14228928Y-26150476D01*
X14228928Y-26169524D01*
X14352738Y-26350476D02*
X14333690Y-26340952D01*
X14324167Y-26321905D01*
X14324167Y-26150476D01*
X14457500Y-26350476D02*
X14438452Y-26340952D01*
X14428928Y-26321905D01*
X14428928Y-26150476D01*
X14686071Y-26350476D02*
X14686071Y-26150476D01*
X14752738Y-26293333D01*
X14819405Y-26150476D01*
X14819405Y-26350476D01*
X15000357Y-26350476D02*
X15000357Y-26245714D01*
X14990833Y-26226667D01*
X14971786Y-26217143D01*
X14933690Y-26217143D01*
X14914643Y-26226667D01*
X15000357Y-26340952D02*
X14981309Y-26350476D01*
X14933690Y-26350476D01*
X14914643Y-26340952D01*
X14905119Y-26321905D01*
X14905119Y-26302857D01*
X14914643Y-26283810D01*
X14933690Y-26274286D01*
X14981309Y-26274286D01*
X15000357Y-26264762D01*
X15095595Y-26217143D02*
X15095595Y-26417143D01*
X15095595Y-26226667D02*
X15114643Y-26217143D01*
X15152738Y-26217143D01*
X15171786Y-26226667D01*
X15181309Y-26236191D01*
X15190833Y-26255238D01*
X15190833Y-26312381D01*
X15181309Y-26331429D01*
X15171786Y-26340952D01*
X15152738Y-26350476D01*
X15114643Y-26350476D01*
X15095595Y-26340952D01*
X15276548Y-26331429D02*
X15286071Y-26340952D01*
X15276548Y-26350476D01*
X15267024Y-26340952D01*
X15276548Y-26331429D01*
X15276548Y-26350476D01*
X15276548Y-26226667D02*
X15286071Y-26236191D01*
X15276548Y-26245714D01*
X15267024Y-26236191D01*
X15276548Y-26226667D01*
X15276548Y-26245714D01*
D13*
X13547500Y-26630000D02*
X13647500Y-26730000D01*
X13647500Y-26630000D02*
X13547500Y-26730000D01*
D12*
X14009881Y-26770476D02*
X13895595Y-26770476D01*
X13952738Y-26770476D02*
X13952738Y-26570476D01*
X13933690Y-26599048D01*
X13914643Y-26618095D01*
X13895595Y-26627619D01*
X14095595Y-26751429D02*
X14105119Y-26760952D01*
X14095595Y-26770476D01*
X14086071Y-26760952D01*
X14095595Y-26751429D01*
X14095595Y-26770476D01*
X14228928Y-26570476D02*
X14247976Y-26570476D01*
X14267024Y-26580000D01*
X14276548Y-26589524D01*
X14286071Y-26608572D01*
X14295595Y-26646667D01*
X14295595Y-26694286D01*
X14286071Y-26732381D01*
X14276548Y-26751429D01*
X14267024Y-26760952D01*
X14247976Y-26770476D01*
X14228928Y-26770476D01*
X14209881Y-26760952D01*
X14200357Y-26751429D01*
X14190833Y-26732381D01*
X14181309Y-26694286D01*
X14181309Y-26646667D01*
X14190833Y-26608572D01*
X14200357Y-26589524D01*
X14209881Y-26580000D01*
X14228928Y-26570476D01*
X14419405Y-26570476D02*
X14438452Y-26570476D01*
X14457500Y-26580000D01*
X14467024Y-26589524D01*
X14476548Y-26608572D01*
X14486071Y-26646667D01*
X14486071Y-26694286D01*
X14476548Y-26732381D01*
X14467024Y-26751429D01*
X14457500Y-26760952D01*
X14438452Y-26770476D01*
X14419405Y-26770476D01*
X14400357Y-26760952D01*
X14390833Y-26751429D01*
X14381309Y-26732381D01*
X14371786Y-26694286D01*
X14371786Y-26646667D01*
X14381309Y-26608572D01*
X14390833Y-26589524D01*
X14400357Y-26580000D01*
X14419405Y-26570476D01*
X14609881Y-26570476D02*
X14628928Y-26570476D01*
X14647976Y-26580000D01*
X14657500Y-26589524D01*
X14667024Y-26608572D01*
X14676548Y-26646667D01*
X14676548Y-26694286D01*
X14667024Y-26732381D01*
X14657500Y-26751429D01*
X14647976Y-26760952D01*
X14628928Y-26770476D01*
X14609881Y-26770476D01*
X14590833Y-26760952D01*
X14581309Y-26751429D01*
X14571786Y-26732381D01*
X14562262Y-26694286D01*
X14562262Y-26646667D01*
X14571786Y-26608572D01*
X14581309Y-26589524D01*
X14590833Y-26580000D01*
X14609881Y-26570476D01*
X14762262Y-26770476D02*
X14762262Y-26637143D01*
X14762262Y-26656191D02*
X14771786Y-26646667D01*
X14790833Y-26637143D01*
X14819405Y-26637143D01*
X14838452Y-26646667D01*
X14847976Y-26665714D01*
X14847976Y-26770476D01*
X14847976Y-26665714D02*
X14857500Y-26646667D01*
X14876548Y-26637143D01*
X14905119Y-26637143D01*
X14924167Y-26646667D01*
X14933690Y-26665714D01*
X14933690Y-26770476D01*
X15028928Y-26770476D02*
X15028928Y-26637143D01*
X15028928Y-26656191D02*
X15038452Y-26646667D01*
X15057500Y-26637143D01*
X15086071Y-26637143D01*
X15105119Y-26646667D01*
X15114643Y-26665714D01*
X15114643Y-26770476D01*
X15114643Y-26665714D02*
X15124167Y-26646667D01*
X15143214Y-26637143D01*
X15171786Y-26637143D01*
X15190833Y-26646667D01*
X15200357Y-26665714D01*
X15200357Y-26770476D01*
X15590833Y-26560952D02*
X15419405Y-26818095D01*
X15847976Y-26570476D02*
X15867024Y-26570476D01*
X15886071Y-26580000D01*
X15895595Y-26589524D01*
X15905119Y-26608572D01*
X15914643Y-26646667D01*
X15914643Y-26694286D01*
X15905119Y-26732381D01*
X15895595Y-26751429D01*
X15886071Y-26760952D01*
X15867024Y-26770476D01*
X15847976Y-26770476D01*
X15828928Y-26760952D01*
X15819405Y-26751429D01*
X15809881Y-26732381D01*
X15800357Y-26694286D01*
X15800357Y-26646667D01*
X15809881Y-26608572D01*
X15819405Y-26589524D01*
X15828928Y-26580000D01*
X15847976Y-26570476D01*
X16000357Y-26751429D02*
X16009881Y-26760952D01*
X16000357Y-26770476D01*
X15990833Y-26760952D01*
X16000357Y-26751429D01*
X16000357Y-26770476D01*
X16133690Y-26570476D02*
X16152738Y-26570476D01*
X16171786Y-26580000D01*
X16181309Y-26589524D01*
X16190833Y-26608572D01*
X16200357Y-26646667D01*
X16200357Y-26694286D01*
X16190833Y-26732381D01*
X16181309Y-26751429D01*
X16171786Y-26760952D01*
X16152738Y-26770476D01*
X16133690Y-26770476D01*
X16114643Y-26760952D01*
X16105119Y-26751429D01*
X16095595Y-26732381D01*
X16086071Y-26694286D01*
X16086071Y-26646667D01*
X16095595Y-26608572D01*
X16105119Y-26589524D01*
X16114643Y-26580000D01*
X16133690Y-26570476D01*
X16267024Y-26570476D02*
X16390833Y-26570476D01*
X16324167Y-26646667D01*
X16352738Y-26646667D01*
X16371786Y-26656191D01*
X16381309Y-26665714D01*
X16390833Y-26684762D01*
X16390833Y-26732381D01*
X16381309Y-26751429D01*
X16371786Y-26760952D01*
X16352738Y-26770476D01*
X16295595Y-26770476D01*
X16276548Y-26760952D01*
X16267024Y-26751429D01*
X16486071Y-26770476D02*
X16524167Y-26770476D01*
X16543214Y-26760952D01*
X16552738Y-26751429D01*
X16571786Y-26722857D01*
X16581309Y-26684762D01*
X16581309Y-26608572D01*
X16571786Y-26589524D01*
X16562262Y-26580000D01*
X16543214Y-26570476D01*
X16505119Y-26570476D01*
X16486071Y-26580000D01*
X16476548Y-26589524D01*
X16467024Y-26608572D01*
X16467024Y-26656191D01*
X16476548Y-26675238D01*
X16486071Y-26684762D01*
X16505119Y-26694286D01*
X16543214Y-26694286D01*
X16562262Y-26684762D01*
X16571786Y-26675238D01*
X16581309Y-26656191D01*
X16752738Y-26637143D02*
X16752738Y-26770476D01*
X16705119Y-26560952D02*
X16657500Y-26703810D01*
X16781310Y-26703810D01*
X16847976Y-26570476D02*
X16847976Y-26608572D01*
X16924167Y-26570476D02*
X16924167Y-26608572D01*
X17219405Y-26846667D02*
X17209881Y-26837143D01*
X17190833Y-26808572D01*
X17181310Y-26789524D01*
X17171786Y-26760952D01*
X17162262Y-26713333D01*
X17162262Y-26675238D01*
X17171786Y-26627619D01*
X17181310Y-26599048D01*
X17190833Y-26580000D01*
X17209881Y-26551429D01*
X17219405Y-26541905D01*
X17400357Y-26770476D02*
X17286071Y-26770476D01*
X17343214Y-26770476D02*
X17343214Y-26570476D01*
X17324167Y-26599048D01*
X17305119Y-26618095D01*
X17286071Y-26627619D01*
X17638452Y-26770476D02*
X17638452Y-26570476D01*
X17724167Y-26770476D02*
X17724167Y-26665714D01*
X17714643Y-26646667D01*
X17695595Y-26637143D01*
X17667024Y-26637143D01*
X17647976Y-26646667D01*
X17638452Y-26656191D01*
X17847976Y-26770476D02*
X17828929Y-26760952D01*
X17819405Y-26751429D01*
X17809881Y-26732381D01*
X17809881Y-26675238D01*
X17819405Y-26656191D01*
X17828929Y-26646667D01*
X17847976Y-26637143D01*
X17876548Y-26637143D01*
X17895595Y-26646667D01*
X17905119Y-26656191D01*
X17914643Y-26675238D01*
X17914643Y-26732381D01*
X17905119Y-26751429D01*
X17895595Y-26760952D01*
X17876548Y-26770476D01*
X17847976Y-26770476D01*
X18028929Y-26770476D02*
X18009881Y-26760952D01*
X18000357Y-26741905D01*
X18000357Y-26570476D01*
X18181310Y-26760952D02*
X18162262Y-26770476D01*
X18124167Y-26770476D01*
X18105119Y-26760952D01*
X18095595Y-26741905D01*
X18095595Y-26665714D01*
X18105119Y-26646667D01*
X18124167Y-26637143D01*
X18162262Y-26637143D01*
X18181310Y-26646667D01*
X18190833Y-26665714D01*
X18190833Y-26684762D01*
X18095595Y-26703810D01*
X18257500Y-26846667D02*
X18267024Y-26837143D01*
X18286071Y-26808572D01*
X18295595Y-26789524D01*
X18305119Y-26760952D01*
X18314643Y-26713333D01*
X18314643Y-26675238D01*
X18305119Y-26627619D01*
X18295595Y-26599048D01*
X18286071Y-26580000D01*
X18267024Y-26551429D01*
X18257500Y-26541905D01*
M02*
