%FSLAX45Y45*%
G04 Gerber Fmt 4.5, Leading zero omitted, Abs format (unit mm)*
G04 Created by KiCad (PCBNEW 6.0.5+dfsg-1~bpo11+1) date 2022-08-10 11:57:38*
%MOMM*%
%LPD*%
G01*
G04 APERTURE LIST*
%TA.AperFunction,Profile*%
%ADD10C,0.150000*%
%TD*%
%TA.AperFunction,Profile*%
%ADD11C,0.100000*%
%TD*%
%ADD12C,0.200000*%
G04 APERTURE END LIST*
D10*
X24130000Y-12065000D02*
G75*
G03*
X24130000Y-12065000I-317500J0D01*
G01*
X16547500Y-12065000D02*
G75*
G03*
X16547500Y-12065000I-355000J0D01*
G01*
X27342500Y-20955000D02*
G75*
G03*
X27342500Y-20955000I-355000J0D01*
G01*
X21626829Y-4444375D02*
G75*
G03*
X21626829Y-4444375I-355000J0D01*
G01*
X18770000Y-18415000D02*
G75*
G03*
X18770000Y-18415000I-355000J0D01*
G01*
X19050000Y-12065000D02*
G75*
G03*
X19050000Y-12065000I-317500J0D01*
G01*
X26802500Y-6985000D02*
G75*
G03*
X26802500Y-6985000I-450000J0D01*
G01*
X24485000Y-18415000D02*
G75*
G03*
X24485000Y-18415000I-355000J0D01*
G01*
X16642500Y-6985000D02*
G75*
G03*
X16642500Y-6985000I-450000J0D01*
G01*
D11*
X13652500Y-25527000D02*
G75*
G03*
X14160500Y-26035000I508000J0D01*
G01*
D10*
X15912500Y-20955000D02*
G75*
G03*
X15912500Y-20955000I-355000J0D01*
G01*
X21627500Y-9525000D02*
G75*
G03*
X21627500Y-9525000I-355000J0D01*
G01*
D11*
X28892500Y-25527000D02*
X28892500Y-2540000D01*
X14160500Y-2032000D02*
G75*
G03*
X13652500Y-2540000I0J-508000D01*
G01*
D10*
X26707041Y-12064372D02*
G75*
G03*
X26707041Y-12064372I-355000J0D01*
G01*
D11*
X28384500Y-2032000D02*
X14160500Y-2032000D01*
X28892500Y-2540000D02*
G75*
G03*
X28384500Y-2032000I-508000J0D01*
G01*
D10*
X21627500Y-20955000D02*
G75*
G03*
X21627500Y-20955000I-355000J0D01*
G01*
D11*
X13652500Y-2540000D02*
X13652500Y-25527000D01*
X28384500Y-26035000D02*
G75*
G03*
X28892500Y-25527000I0J508000D01*
G01*
X14160500Y-26035000D02*
X28384500Y-26035000D01*
D12*
X13905119Y-26350476D02*
X13905119Y-26150476D01*
X13952738Y-26150476D01*
X13981309Y-26160000D01*
X14000357Y-26179048D01*
X14009881Y-26198095D01*
X14019405Y-26236191D01*
X14019405Y-26264762D01*
X14009881Y-26302857D01*
X14000357Y-26321905D01*
X13981309Y-26340952D01*
X13952738Y-26350476D01*
X13905119Y-26350476D01*
X14105119Y-26350476D02*
X14105119Y-26217143D01*
X14105119Y-26255238D02*
X14114643Y-26236191D01*
X14124167Y-26226667D01*
X14143214Y-26217143D01*
X14162262Y-26217143D01*
X14228928Y-26350476D02*
X14228928Y-26217143D01*
X14228928Y-26150476D02*
X14219405Y-26160000D01*
X14228928Y-26169524D01*
X14238452Y-26160000D01*
X14228928Y-26150476D01*
X14228928Y-26169524D01*
X14352738Y-26350476D02*
X14333690Y-26340952D01*
X14324167Y-26321905D01*
X14324167Y-26150476D01*
X14457500Y-26350476D02*
X14438452Y-26340952D01*
X14428928Y-26321905D01*
X14428928Y-26150476D01*
X14686071Y-26350476D02*
X14686071Y-26150476D01*
X14752738Y-26293333D01*
X14819405Y-26150476D01*
X14819405Y-26350476D01*
X15000357Y-26350476D02*
X15000357Y-26245714D01*
X14990833Y-26226667D01*
X14971786Y-26217143D01*
X14933690Y-26217143D01*
X14914643Y-26226667D01*
X15000357Y-26340952D02*
X14981309Y-26350476D01*
X14933690Y-26350476D01*
X14914643Y-26340952D01*
X14905119Y-26321905D01*
X14905119Y-26302857D01*
X14914643Y-26283810D01*
X14933690Y-26274286D01*
X14981309Y-26274286D01*
X15000357Y-26264762D01*
X15095595Y-26217143D02*
X15095595Y-26417143D01*
X15095595Y-26226667D02*
X15114643Y-26217143D01*
X15152738Y-26217143D01*
X15171786Y-26226667D01*
X15181309Y-26236191D01*
X15190833Y-26255238D01*
X15190833Y-26312381D01*
X15181309Y-26331429D01*
X15171786Y-26340952D01*
X15152738Y-26350476D01*
X15114643Y-26350476D01*
X15095595Y-26340952D01*
X15276548Y-26331429D02*
X15286071Y-26340952D01*
X15276548Y-26350476D01*
X15267024Y-26340952D01*
X15276548Y-26331429D01*
X15276548Y-26350476D01*
X15276548Y-26226667D02*
X15286071Y-26236191D01*
X15276548Y-26245714D01*
X15267024Y-26236191D01*
X15276548Y-26226667D01*
X15276548Y-26245714D01*
M02*
