G04 #@! TF.GenerationSoftware,KiCad,Pcbnew,6.0.5+dfsg-1~bpo11+1*
G04 #@! TF.CreationDate,2022-08-10T11:55:54+00:00*
G04 #@! TF.ProjectId,main_VCO_pcb_panel,6d61696e-5f56-4434-9f5f-7063625f7061,0*
G04 #@! TF.SameCoordinates,Original*
G04 #@! TF.FileFunction,Copper,L1,Top*
G04 #@! TF.FilePolarity,Positive*
%FSLAX46Y46*%
G04 Gerber Fmt 4.6, Leading zero omitted, Abs format (unit mm)*
G04 Created by KiCad (PCBNEW 6.0.5+dfsg-1~bpo11+1) date 2022-08-10 11:55:54*
%MOMM*%
%LPD*%
G01*
G04 APERTURE LIST*
G04 #@! TA.AperFunction,ComponentPad*
%ADD10C,2.000000*%
G04 #@! TD*
G04 APERTURE END LIST*
D10*
X141605000Y-81915000D03*
G04 #@! TA.AperFunction,Conductor*
G36*
X301595018Y-24005000D02*
G01*
X301609851Y-24007310D01*
X301609855Y-24007310D01*
X301618724Y-24008691D01*
X301639183Y-24006016D01*
X301661008Y-24005072D01*
X302017937Y-24020656D01*
X302028886Y-24021614D01*
X302413379Y-24072233D01*
X302424205Y-24074142D01*
X302802822Y-24158080D01*
X302813439Y-24160925D01*
X302983702Y-24214608D01*
X303183302Y-24277542D01*
X303193615Y-24281295D01*
X303551932Y-24429715D01*
X303561876Y-24434353D01*
X303905867Y-24613423D01*
X303915387Y-24618919D01*
X304242468Y-24827292D01*
X304251472Y-24833597D01*
X304559138Y-25069678D01*
X304567558Y-25076743D01*
X304853483Y-25338744D01*
X304861256Y-25346517D01*
X305123257Y-25632442D01*
X305130322Y-25640862D01*
X305366403Y-25948528D01*
X305372708Y-25957532D01*
X305581081Y-26284613D01*
X305586577Y-26294133D01*
X305765643Y-26638115D01*
X305770289Y-26648077D01*
X305918702Y-27006377D01*
X305922461Y-27016706D01*
X306039075Y-27386561D01*
X306041920Y-27397178D01*
X306125858Y-27775795D01*
X306127767Y-27786621D01*
X306178386Y-28171114D01*
X306179344Y-28182064D01*
X306194603Y-28531552D01*
X306193223Y-28556429D01*
X306191309Y-28568724D01*
X306192473Y-28577626D01*
X306192473Y-28577628D01*
X306195436Y-28600283D01*
X306196500Y-28616621D01*
X306196500Y-258395633D01*
X306195000Y-258415018D01*
X306192690Y-258429851D01*
X306192690Y-258429855D01*
X306191309Y-258438724D01*
X306193984Y-258459183D01*
X306194928Y-258481012D01*
X306179344Y-258837936D01*
X306178386Y-258848886D01*
X306127767Y-259233379D01*
X306125858Y-259244205D01*
X306041920Y-259622822D01*
X306039075Y-259633439D01*
X305922461Y-260003294D01*
X305918702Y-260013623D01*
X305770289Y-260371923D01*
X305765643Y-260381885D01*
X305586577Y-260725867D01*
X305581081Y-260735387D01*
X305372708Y-261062468D01*
X305366403Y-261071472D01*
X305130322Y-261379138D01*
X305123257Y-261387558D01*
X304861256Y-261673483D01*
X304853483Y-261681256D01*
X304567558Y-261943257D01*
X304559138Y-261950322D01*
X304251472Y-262186403D01*
X304242468Y-262192708D01*
X303915387Y-262401081D01*
X303905868Y-262406576D01*
X303561876Y-262585647D01*
X303551932Y-262590285D01*
X303193615Y-262738705D01*
X303183302Y-262742458D01*
X302983702Y-262805392D01*
X302813439Y-262859075D01*
X302802822Y-262861920D01*
X302424205Y-262945858D01*
X302413379Y-262947767D01*
X302028886Y-262998386D01*
X302017937Y-262999344D01*
X301668446Y-263014603D01*
X301643571Y-263013223D01*
X301631276Y-263011309D01*
X301622374Y-263012473D01*
X301622372Y-263012473D01*
X301607323Y-263014441D01*
X301599714Y-263015436D01*
X301583379Y-263016500D01*
X121334367Y-263016500D01*
X121314982Y-263015000D01*
X121300149Y-263012690D01*
X121300145Y-263012690D01*
X121291276Y-263011309D01*
X121270817Y-263013984D01*
X121248992Y-263014928D01*
X120892063Y-262999344D01*
X120881114Y-262998386D01*
X120496621Y-262947767D01*
X120485795Y-262945858D01*
X120107178Y-262861920D01*
X120096561Y-262859075D01*
X119926298Y-262805392D01*
X119726698Y-262742458D01*
X119716385Y-262738705D01*
X119358068Y-262590285D01*
X119348124Y-262585647D01*
X119004132Y-262406576D01*
X118994613Y-262401081D01*
X118667532Y-262192708D01*
X118658528Y-262186403D01*
X118350862Y-261950322D01*
X118342442Y-261943257D01*
X118056517Y-261681256D01*
X118048744Y-261673483D01*
X117786743Y-261387558D01*
X117779678Y-261379138D01*
X117543597Y-261071472D01*
X117537292Y-261062468D01*
X117328919Y-260735387D01*
X117323423Y-260725867D01*
X117144357Y-260381885D01*
X117139711Y-260371923D01*
X116991298Y-260013623D01*
X116987539Y-260003294D01*
X116870925Y-259633439D01*
X116868080Y-259622822D01*
X116784142Y-259244205D01*
X116782233Y-259233379D01*
X116731614Y-258848886D01*
X116730656Y-258837936D01*
X116715561Y-258492208D01*
X116717188Y-258465805D01*
X116717769Y-258462352D01*
X116717770Y-258462345D01*
X116718576Y-258457552D01*
X116718729Y-258445000D01*
X116714773Y-258417376D01*
X116713500Y-258399514D01*
X116713500Y-238125000D01*
X131566445Y-238125000D01*
X131586651Y-238510559D01*
X131647049Y-238891894D01*
X131746976Y-239264826D01*
X131885337Y-239625270D01*
X132060618Y-239969277D01*
X132270896Y-240293078D01*
X132513869Y-240593125D01*
X132786875Y-240866131D01*
X133086922Y-241109104D01*
X133410722Y-241319382D01*
X133413656Y-241320877D01*
X133413663Y-241320881D01*
X133751790Y-241493165D01*
X133754730Y-241494663D01*
X134115174Y-241633024D01*
X134488106Y-241732951D01*
X134690643Y-241765030D01*
X134866193Y-241792835D01*
X134866201Y-241792836D01*
X134869441Y-241793349D01*
X135255000Y-241813555D01*
X135640559Y-241793349D01*
X135643799Y-241792836D01*
X135643807Y-241792835D01*
X135819357Y-241765030D01*
X136021894Y-241732951D01*
X136394826Y-241633024D01*
X136755270Y-241494663D01*
X136758210Y-241493165D01*
X137096337Y-241320881D01*
X137096344Y-241320877D01*
X137099278Y-241319382D01*
X137423078Y-241109104D01*
X137723125Y-240866131D01*
X137996131Y-240593125D01*
X138239104Y-240293078D01*
X138449382Y-239969277D01*
X138624663Y-239625270D01*
X138763024Y-239264826D01*
X138862951Y-238891894D01*
X138923349Y-238510559D01*
X138943555Y-238125000D01*
X156966445Y-238125000D01*
X156986651Y-238510559D01*
X157047049Y-238891894D01*
X157146976Y-239264826D01*
X157285337Y-239625270D01*
X157460618Y-239969277D01*
X157670896Y-240293078D01*
X157913869Y-240593125D01*
X158186875Y-240866131D01*
X158486922Y-241109104D01*
X158810722Y-241319382D01*
X158813656Y-241320877D01*
X158813663Y-241320881D01*
X159151790Y-241493165D01*
X159154730Y-241494663D01*
X159515174Y-241633024D01*
X159888106Y-241732951D01*
X160090643Y-241765030D01*
X160266193Y-241792835D01*
X160266201Y-241792836D01*
X160269441Y-241793349D01*
X160655000Y-241813555D01*
X161040559Y-241793349D01*
X161043799Y-241792836D01*
X161043807Y-241792835D01*
X161219357Y-241765030D01*
X161421894Y-241732951D01*
X161794826Y-241633024D01*
X162155270Y-241494663D01*
X162158210Y-241493165D01*
X162496337Y-241320881D01*
X162496344Y-241320877D01*
X162499278Y-241319382D01*
X162823078Y-241109104D01*
X163123125Y-240866131D01*
X163396131Y-240593125D01*
X163639104Y-240293078D01*
X163849382Y-239969277D01*
X164024663Y-239625270D01*
X164163024Y-239264826D01*
X164262951Y-238891894D01*
X164323349Y-238510559D01*
X164343555Y-238125000D01*
X182366445Y-238125000D01*
X182386651Y-238510559D01*
X182447049Y-238891894D01*
X182546976Y-239264826D01*
X182685337Y-239625270D01*
X182860618Y-239969277D01*
X183070896Y-240293078D01*
X183313869Y-240593125D01*
X183586875Y-240866131D01*
X183886922Y-241109104D01*
X184210722Y-241319382D01*
X184213656Y-241320877D01*
X184213663Y-241320881D01*
X184551790Y-241493165D01*
X184554730Y-241494663D01*
X184915174Y-241633024D01*
X185288106Y-241732951D01*
X185490643Y-241765030D01*
X185666193Y-241792835D01*
X185666201Y-241792836D01*
X185669441Y-241793349D01*
X186055000Y-241813555D01*
X186440559Y-241793349D01*
X186443799Y-241792836D01*
X186443807Y-241792835D01*
X186619357Y-241765030D01*
X186821894Y-241732951D01*
X187194826Y-241633024D01*
X187555270Y-241494663D01*
X187558210Y-241493165D01*
X187896337Y-241320881D01*
X187896344Y-241320877D01*
X187899278Y-241319382D01*
X188223078Y-241109104D01*
X188523125Y-240866131D01*
X188796131Y-240593125D01*
X189039104Y-240293078D01*
X189249382Y-239969277D01*
X189424663Y-239625270D01*
X189563024Y-239264826D01*
X189662951Y-238891894D01*
X189723349Y-238510559D01*
X189743555Y-238125000D01*
X189723349Y-237739441D01*
X189662951Y-237358106D01*
X189563024Y-236985174D01*
X189424663Y-236624730D01*
X189407858Y-236591748D01*
X189250881Y-236283664D01*
X189250877Y-236283657D01*
X189249382Y-236280723D01*
X189039104Y-235956922D01*
X188796131Y-235656875D01*
X188523125Y-235383869D01*
X188223078Y-235140896D01*
X187899278Y-234930618D01*
X187896344Y-234929123D01*
X187896337Y-234929119D01*
X187558210Y-234756835D01*
X187555270Y-234755337D01*
X187194826Y-234616976D01*
X186821894Y-234517049D01*
X186619357Y-234484970D01*
X186443807Y-234457165D01*
X186443799Y-234457164D01*
X186440559Y-234456651D01*
X186055000Y-234436445D01*
X185669441Y-234456651D01*
X185666201Y-234457164D01*
X185666193Y-234457165D01*
X185490643Y-234484970D01*
X185288106Y-234517049D01*
X184915174Y-234616976D01*
X184554730Y-234755337D01*
X184551790Y-234756835D01*
X184213664Y-234929119D01*
X184213657Y-234929123D01*
X184210723Y-234930618D01*
X183886922Y-235140896D01*
X183586875Y-235383869D01*
X183313869Y-235656875D01*
X183070896Y-235956922D01*
X182860618Y-236280723D01*
X182859123Y-236283657D01*
X182859119Y-236283664D01*
X182702142Y-236591748D01*
X182685337Y-236624730D01*
X182546976Y-236985174D01*
X182447049Y-237358106D01*
X182386651Y-237739441D01*
X182367908Y-238097077D01*
X182366445Y-238125000D01*
X164343555Y-238125000D01*
X164323349Y-237739441D01*
X164262951Y-237358106D01*
X164163024Y-236985174D01*
X164024663Y-236624730D01*
X164007858Y-236591748D01*
X163850881Y-236283664D01*
X163850877Y-236283657D01*
X163849382Y-236280723D01*
X163639104Y-235956922D01*
X163396131Y-235656875D01*
X163123125Y-235383869D01*
X162823078Y-235140896D01*
X162499278Y-234930618D01*
X162496344Y-234929123D01*
X162496337Y-234929119D01*
X162158210Y-234756835D01*
X162155270Y-234755337D01*
X161794826Y-234616976D01*
X161421894Y-234517049D01*
X161219357Y-234484970D01*
X161043807Y-234457165D01*
X161043799Y-234457164D01*
X161040559Y-234456651D01*
X160655000Y-234436445D01*
X160269441Y-234456651D01*
X160266201Y-234457164D01*
X160266193Y-234457165D01*
X160090643Y-234484970D01*
X159888106Y-234517049D01*
X159515174Y-234616976D01*
X159154730Y-234755337D01*
X159151790Y-234756835D01*
X158813664Y-234929119D01*
X158813657Y-234929123D01*
X158810723Y-234930618D01*
X158486922Y-235140896D01*
X158186875Y-235383869D01*
X157913869Y-235656875D01*
X157670896Y-235956922D01*
X157460618Y-236280723D01*
X157459123Y-236283657D01*
X157459119Y-236283664D01*
X157302142Y-236591748D01*
X157285337Y-236624730D01*
X157146976Y-236985174D01*
X157047049Y-237358106D01*
X156986651Y-237739441D01*
X156967908Y-238097077D01*
X156966445Y-238125000D01*
X138943555Y-238125000D01*
X138923349Y-237739441D01*
X138862951Y-237358106D01*
X138763024Y-236985174D01*
X138624663Y-236624730D01*
X138607858Y-236591748D01*
X138450881Y-236283664D01*
X138450877Y-236283657D01*
X138449382Y-236280723D01*
X138239104Y-235956922D01*
X137996131Y-235656875D01*
X137723125Y-235383869D01*
X137423078Y-235140896D01*
X137099278Y-234930618D01*
X137096344Y-234929123D01*
X137096337Y-234929119D01*
X136758210Y-234756835D01*
X136755270Y-234755337D01*
X136394826Y-234616976D01*
X136021894Y-234517049D01*
X135819357Y-234484970D01*
X135643807Y-234457165D01*
X135643799Y-234457164D01*
X135640559Y-234456651D01*
X135255000Y-234436445D01*
X134869441Y-234456651D01*
X134866201Y-234457164D01*
X134866193Y-234457165D01*
X134690643Y-234484970D01*
X134488106Y-234517049D01*
X134115174Y-234616976D01*
X133754730Y-234755337D01*
X133751790Y-234756835D01*
X133413664Y-234929119D01*
X133413657Y-234929123D01*
X133410723Y-234930618D01*
X133086922Y-235140896D01*
X132786875Y-235383869D01*
X132513869Y-235656875D01*
X132270896Y-235956922D01*
X132060618Y-236280723D01*
X132059123Y-236283657D01*
X132059119Y-236283664D01*
X131902142Y-236591748D01*
X131885337Y-236624730D01*
X131746976Y-236985174D01*
X131647049Y-237358106D01*
X131586651Y-237739441D01*
X131567908Y-238097077D01*
X131566445Y-238125000D01*
X116713500Y-238125000D01*
X116713500Y-212668266D01*
X131192001Y-212668266D01*
X131192109Y-212671356D01*
X131192499Y-212682534D01*
X131204347Y-213021798D01*
X131205856Y-213065016D01*
X131258361Y-213458521D01*
X131349014Y-213845023D01*
X131476951Y-214220835D01*
X131640950Y-214582369D01*
X131839446Y-214926174D01*
X131841235Y-214928672D01*
X131841237Y-214928676D01*
X131941353Y-215068516D01*
X132070544Y-215248969D01*
X132332038Y-215547671D01*
X132334286Y-215549782D01*
X132619178Y-215817314D01*
X132619185Y-215817320D01*
X132621433Y-215819431D01*
X132623883Y-215821318D01*
X132623888Y-215821322D01*
X132933522Y-216059773D01*
X132935965Y-216061654D01*
X132938564Y-216063278D01*
X132938574Y-216063285D01*
X133119998Y-216176650D01*
X133272634Y-216272027D01*
X133628224Y-216448544D01*
X133999342Y-216589518D01*
X134382446Y-216693605D01*
X134385489Y-216694120D01*
X134385495Y-216694121D01*
X134770837Y-216759297D01*
X134770844Y-216759298D01*
X134773878Y-216759811D01*
X134776949Y-216760026D01*
X134776951Y-216760026D01*
X135166837Y-216787290D01*
X135166845Y-216787290D01*
X135169903Y-216787504D01*
X135426170Y-216780346D01*
X135563666Y-216776505D01*
X135563669Y-216776505D01*
X135566740Y-216776419D01*
X135569793Y-216776033D01*
X135569797Y-216776033D01*
X135758315Y-216752218D01*
X135960601Y-216726663D01*
X135963605Y-216725981D01*
X135963608Y-216725980D01*
X136344731Y-216639391D01*
X136344737Y-216639389D01*
X136347727Y-216638710D01*
X136495604Y-216589518D01*
X136721499Y-216514373D01*
X136721505Y-216514371D01*
X136724423Y-216513400D01*
X136867633Y-216449639D01*
X137084294Y-216353176D01*
X137084300Y-216353173D01*
X137087094Y-216351929D01*
X137227747Y-216272027D01*
X137429603Y-216157357D01*
X137429611Y-216157352D01*
X137432276Y-216155838D01*
X137756676Y-215926999D01*
X138057197Y-215667596D01*
X138059318Y-215665369D01*
X138059324Y-215665363D01*
X138328853Y-215382329D01*
X138330970Y-215380106D01*
X138364237Y-215337527D01*
X138573472Y-215069717D01*
X138573474Y-215069714D01*
X138575382Y-215067272D01*
X138577038Y-215064662D01*
X138577044Y-215064654D01*
X138786447Y-214734688D01*
X138786451Y-214734681D01*
X138788101Y-214732081D01*
X138814390Y-214680039D01*
X138873043Y-214563925D01*
X138967096Y-214377732D01*
X138968203Y-214374878D01*
X138968207Y-214374869D01*
X139109543Y-214010483D01*
X139109546Y-214010474D01*
X139110658Y-214007607D01*
X139217417Y-213625239D01*
X139286354Y-213234278D01*
X139316811Y-212838457D01*
X139318395Y-212725000D01*
X139315772Y-212671356D01*
X139315621Y-212668266D01*
X181992001Y-212668266D01*
X181992109Y-212671356D01*
X181992499Y-212682534D01*
X182004347Y-213021798D01*
X182005856Y-213065016D01*
X182058361Y-213458521D01*
X182149014Y-213845023D01*
X182276951Y-214220835D01*
X182440950Y-214582369D01*
X182639446Y-214926174D01*
X182641235Y-214928672D01*
X182641237Y-214928676D01*
X182741353Y-215068516D01*
X182870544Y-215248969D01*
X183132038Y-215547671D01*
X183134286Y-215549782D01*
X183419178Y-215817314D01*
X183419185Y-215817320D01*
X183421433Y-215819431D01*
X183423883Y-215821318D01*
X183423888Y-215821322D01*
X183733522Y-216059773D01*
X183735965Y-216061654D01*
X183738564Y-216063278D01*
X183738574Y-216063285D01*
X183919998Y-216176650D01*
X184072634Y-216272027D01*
X184428224Y-216448544D01*
X184799342Y-216589518D01*
X185182446Y-216693605D01*
X185185489Y-216694120D01*
X185185495Y-216694121D01*
X185570837Y-216759297D01*
X185570844Y-216759298D01*
X185573878Y-216759811D01*
X185576949Y-216760026D01*
X185576951Y-216760026D01*
X185966837Y-216787290D01*
X185966845Y-216787290D01*
X185969903Y-216787504D01*
X186226170Y-216780346D01*
X186363666Y-216776505D01*
X186363669Y-216776505D01*
X186366740Y-216776419D01*
X186369793Y-216776033D01*
X186369797Y-216776033D01*
X186558315Y-216752218D01*
X186760601Y-216726663D01*
X186763605Y-216725981D01*
X186763608Y-216725980D01*
X187144731Y-216639391D01*
X187144737Y-216639389D01*
X187147727Y-216638710D01*
X187295604Y-216589518D01*
X187521499Y-216514373D01*
X187521505Y-216514371D01*
X187524423Y-216513400D01*
X187667633Y-216449639D01*
X187884294Y-216353176D01*
X187884300Y-216353173D01*
X187887094Y-216351929D01*
X188027747Y-216272027D01*
X188229603Y-216157357D01*
X188229611Y-216157352D01*
X188232276Y-216155838D01*
X188556676Y-215926999D01*
X188857197Y-215667596D01*
X188859318Y-215665369D01*
X188859324Y-215665363D01*
X189128853Y-215382329D01*
X189130970Y-215380106D01*
X189164237Y-215337527D01*
X189373472Y-215069717D01*
X189373474Y-215069714D01*
X189375382Y-215067272D01*
X189377038Y-215064662D01*
X189377044Y-215064654D01*
X189586447Y-214734688D01*
X189586451Y-214734681D01*
X189588101Y-214732081D01*
X189614390Y-214680039D01*
X189673043Y-214563925D01*
X189767096Y-214377732D01*
X189768203Y-214374878D01*
X189768207Y-214374869D01*
X189909543Y-214010483D01*
X189909546Y-214010474D01*
X189910658Y-214007607D01*
X190017417Y-213625239D01*
X190086354Y-213234278D01*
X190116811Y-212838457D01*
X190118395Y-212725000D01*
X190115772Y-212671356D01*
X190115621Y-212668266D01*
X232792001Y-212668266D01*
X232792109Y-212671356D01*
X232792499Y-212682534D01*
X232804347Y-213021798D01*
X232805856Y-213065016D01*
X232858361Y-213458521D01*
X232949014Y-213845023D01*
X233076951Y-214220835D01*
X233240950Y-214582369D01*
X233439446Y-214926174D01*
X233441235Y-214928672D01*
X233441237Y-214928676D01*
X233541353Y-215068516D01*
X233670544Y-215248969D01*
X233932038Y-215547671D01*
X233934286Y-215549782D01*
X234219178Y-215817314D01*
X234219185Y-215817320D01*
X234221433Y-215819431D01*
X234223883Y-215821318D01*
X234223888Y-215821322D01*
X234533522Y-216059773D01*
X234535965Y-216061654D01*
X234538564Y-216063278D01*
X234538574Y-216063285D01*
X234719998Y-216176650D01*
X234872634Y-216272027D01*
X235228224Y-216448544D01*
X235599342Y-216589518D01*
X235982446Y-216693605D01*
X235985489Y-216694120D01*
X235985495Y-216694121D01*
X236370837Y-216759297D01*
X236370844Y-216759298D01*
X236373878Y-216759811D01*
X236376949Y-216760026D01*
X236376951Y-216760026D01*
X236766837Y-216787290D01*
X236766845Y-216787290D01*
X236769903Y-216787504D01*
X237026170Y-216780346D01*
X237163666Y-216776505D01*
X237163669Y-216776505D01*
X237166740Y-216776419D01*
X237169793Y-216776033D01*
X237169797Y-216776033D01*
X237358315Y-216752218D01*
X237560601Y-216726663D01*
X237563605Y-216725981D01*
X237563608Y-216725980D01*
X237944731Y-216639391D01*
X237944737Y-216639389D01*
X237947727Y-216638710D01*
X238095604Y-216589518D01*
X238321499Y-216514373D01*
X238321505Y-216514371D01*
X238324423Y-216513400D01*
X238467633Y-216449639D01*
X238684294Y-216353176D01*
X238684300Y-216353173D01*
X238687094Y-216351929D01*
X238827747Y-216272027D01*
X239029603Y-216157357D01*
X239029611Y-216157352D01*
X239032276Y-216155838D01*
X239356676Y-215926999D01*
X239657197Y-215667596D01*
X239659318Y-215665369D01*
X239659324Y-215665363D01*
X239928853Y-215382329D01*
X239930970Y-215380106D01*
X239964237Y-215337527D01*
X240173472Y-215069717D01*
X240173474Y-215069714D01*
X240175382Y-215067272D01*
X240177038Y-215064662D01*
X240177044Y-215064654D01*
X240386447Y-214734688D01*
X240386451Y-214734681D01*
X240388101Y-214732081D01*
X240414390Y-214680039D01*
X240473043Y-214563925D01*
X240567096Y-214377732D01*
X240568203Y-214374878D01*
X240568207Y-214374869D01*
X240709543Y-214010483D01*
X240709546Y-214010474D01*
X240710658Y-214007607D01*
X240817417Y-213625239D01*
X240886354Y-213234278D01*
X240916811Y-212838457D01*
X240918395Y-212725000D01*
X240915772Y-212671356D01*
X240915621Y-212668266D01*
X283592001Y-212668266D01*
X283592109Y-212671356D01*
X283592499Y-212682534D01*
X283604347Y-213021798D01*
X283605856Y-213065016D01*
X283658361Y-213458521D01*
X283749014Y-213845023D01*
X283876951Y-214220835D01*
X284040950Y-214582369D01*
X284239446Y-214926174D01*
X284241235Y-214928672D01*
X284241237Y-214928676D01*
X284341353Y-215068516D01*
X284470544Y-215248969D01*
X284732038Y-215547671D01*
X284734286Y-215549782D01*
X285019178Y-215817314D01*
X285019185Y-215817320D01*
X285021433Y-215819431D01*
X285023883Y-215821318D01*
X285023888Y-215821322D01*
X285333522Y-216059773D01*
X285335965Y-216061654D01*
X285338564Y-216063278D01*
X285338574Y-216063285D01*
X285519998Y-216176650D01*
X285672634Y-216272027D01*
X286028224Y-216448544D01*
X286399342Y-216589518D01*
X286782446Y-216693605D01*
X286785489Y-216694120D01*
X286785495Y-216694121D01*
X287170837Y-216759297D01*
X287170844Y-216759298D01*
X287173878Y-216759811D01*
X287176949Y-216760026D01*
X287176951Y-216760026D01*
X287566837Y-216787290D01*
X287566845Y-216787290D01*
X287569903Y-216787504D01*
X287826170Y-216780346D01*
X287963666Y-216776505D01*
X287963669Y-216776505D01*
X287966740Y-216776419D01*
X287969793Y-216776033D01*
X287969797Y-216776033D01*
X288158315Y-216752218D01*
X288360601Y-216726663D01*
X288363605Y-216725981D01*
X288363608Y-216725980D01*
X288744731Y-216639391D01*
X288744737Y-216639389D01*
X288747727Y-216638710D01*
X288895604Y-216589518D01*
X289121499Y-216514373D01*
X289121505Y-216514371D01*
X289124423Y-216513400D01*
X289267633Y-216449639D01*
X289484294Y-216353176D01*
X289484300Y-216353173D01*
X289487094Y-216351929D01*
X289627747Y-216272027D01*
X289829603Y-216157357D01*
X289829611Y-216157352D01*
X289832276Y-216155838D01*
X290156676Y-215926999D01*
X290457197Y-215667596D01*
X290459318Y-215665369D01*
X290459324Y-215665363D01*
X290728853Y-215382329D01*
X290730970Y-215380106D01*
X290764237Y-215337527D01*
X290973472Y-215069717D01*
X290973474Y-215069714D01*
X290975382Y-215067272D01*
X290977038Y-215064662D01*
X290977044Y-215064654D01*
X291186447Y-214734688D01*
X291186451Y-214734681D01*
X291188101Y-214732081D01*
X291214390Y-214680039D01*
X291273043Y-214563925D01*
X291367096Y-214377732D01*
X291368203Y-214374878D01*
X291368207Y-214374869D01*
X291509543Y-214010483D01*
X291509546Y-214010474D01*
X291510658Y-214007607D01*
X291617417Y-213625239D01*
X291686354Y-213234278D01*
X291716811Y-212838457D01*
X291718395Y-212725000D01*
X291715772Y-212671356D01*
X291699152Y-212331552D01*
X291699002Y-212328482D01*
X291690220Y-212269012D01*
X291641458Y-211938795D01*
X291641457Y-211938791D01*
X291641008Y-211935749D01*
X291544967Y-211550550D01*
X291526728Y-211499327D01*
X291412828Y-211179460D01*
X291411796Y-211176561D01*
X291242765Y-210817352D01*
X291213015Y-210767445D01*
X291041068Y-210479003D01*
X291039488Y-210476352D01*
X290803906Y-210156815D01*
X290538266Y-209861793D01*
X290245105Y-209594100D01*
X289927222Y-209356293D01*
X289878370Y-209326707D01*
X289590277Y-209152231D01*
X289590268Y-209152226D01*
X289587649Y-209150640D01*
X289229629Y-208979106D01*
X289170229Y-208957486D01*
X288859475Y-208844381D01*
X288859474Y-208844381D01*
X288856579Y-208843327D01*
X288649688Y-208790206D01*
X288475043Y-208745365D01*
X288475040Y-208745364D01*
X288472059Y-208744599D01*
X288079740Y-208683865D01*
X288076683Y-208683694D01*
X288076682Y-208683694D01*
X288047924Y-208682086D01*
X287683368Y-208661704D01*
X287680290Y-208661833D01*
X287680286Y-208661833D01*
X287421983Y-208672659D01*
X287286724Y-208678328D01*
X287283680Y-208678756D01*
X287283678Y-208678756D01*
X287243989Y-208684334D01*
X286893596Y-208733579D01*
X286507735Y-208826928D01*
X286132825Y-208957486D01*
X286086035Y-208979106D01*
X285775242Y-209122712D01*
X285775232Y-209122717D01*
X285772445Y-209124005D01*
X285430034Y-209324896D01*
X285389018Y-209354696D01*
X285111342Y-209556439D01*
X285111336Y-209556444D01*
X285108861Y-209558242D01*
X285106575Y-209560271D01*
X285106572Y-209560274D01*
X285066134Y-209596177D01*
X284811991Y-209821815D01*
X284809901Y-209824072D01*
X284809899Y-209824074D01*
X284544354Y-210110837D01*
X284544349Y-210110843D01*
X284542259Y-210113100D01*
X284540399Y-210115550D01*
X284540396Y-210115554D01*
X284507202Y-210159286D01*
X284302238Y-210429316D01*
X284300627Y-210431934D01*
X284300624Y-210431939D01*
X284095834Y-210764821D01*
X284094220Y-210767445D01*
X283920190Y-211124258D01*
X283919119Y-211127139D01*
X283919116Y-211127145D01*
X283833146Y-211358313D01*
X283781810Y-211496352D01*
X283680400Y-211880173D01*
X283616928Y-212272058D01*
X283616734Y-212275138D01*
X283616734Y-212275140D01*
X283609762Y-212385967D01*
X283592001Y-212668266D01*
X240915621Y-212668266D01*
X240899152Y-212331552D01*
X240899002Y-212328482D01*
X240890220Y-212269012D01*
X240841458Y-211938795D01*
X240841457Y-211938791D01*
X240841008Y-211935749D01*
X240744967Y-211550550D01*
X240726728Y-211499327D01*
X240612828Y-211179460D01*
X240611796Y-211176561D01*
X240442765Y-210817352D01*
X240413015Y-210767445D01*
X240241068Y-210479003D01*
X240239488Y-210476352D01*
X240003906Y-210156815D01*
X239738266Y-209861793D01*
X239445105Y-209594100D01*
X239127222Y-209356293D01*
X239078370Y-209326707D01*
X238790277Y-209152231D01*
X238790268Y-209152226D01*
X238787649Y-209150640D01*
X238429629Y-208979106D01*
X238370229Y-208957486D01*
X238059475Y-208844381D01*
X238059474Y-208844381D01*
X238056579Y-208843327D01*
X237849688Y-208790206D01*
X237675043Y-208745365D01*
X237675040Y-208745364D01*
X237672059Y-208744599D01*
X237279740Y-208683865D01*
X237276683Y-208683694D01*
X237276682Y-208683694D01*
X237247924Y-208682086D01*
X236883368Y-208661704D01*
X236880290Y-208661833D01*
X236880286Y-208661833D01*
X236621983Y-208672659D01*
X236486724Y-208678328D01*
X236483680Y-208678756D01*
X236483678Y-208678756D01*
X236443989Y-208684334D01*
X236093596Y-208733579D01*
X235707735Y-208826928D01*
X235332825Y-208957486D01*
X235286035Y-208979106D01*
X234975242Y-209122712D01*
X234975232Y-209122717D01*
X234972445Y-209124005D01*
X234630034Y-209324896D01*
X234589018Y-209354696D01*
X234311342Y-209556439D01*
X234311336Y-209556444D01*
X234308861Y-209558242D01*
X234306575Y-209560271D01*
X234306572Y-209560274D01*
X234266134Y-209596177D01*
X234011991Y-209821815D01*
X234009901Y-209824072D01*
X234009899Y-209824074D01*
X233744354Y-210110837D01*
X233744349Y-210110843D01*
X233742259Y-210113100D01*
X233740399Y-210115550D01*
X233740396Y-210115554D01*
X233707202Y-210159286D01*
X233502238Y-210429316D01*
X233500627Y-210431934D01*
X233500624Y-210431939D01*
X233295834Y-210764821D01*
X233294220Y-210767445D01*
X233120190Y-211124258D01*
X233119119Y-211127139D01*
X233119116Y-211127145D01*
X233033146Y-211358313D01*
X232981810Y-211496352D01*
X232880400Y-211880173D01*
X232816928Y-212272058D01*
X232816734Y-212275138D01*
X232816734Y-212275140D01*
X232809762Y-212385967D01*
X232792001Y-212668266D01*
X190115621Y-212668266D01*
X190099152Y-212331552D01*
X190099002Y-212328482D01*
X190090220Y-212269012D01*
X190041458Y-211938795D01*
X190041457Y-211938791D01*
X190041008Y-211935749D01*
X189944967Y-211550550D01*
X189926728Y-211499327D01*
X189812828Y-211179460D01*
X189811796Y-211176561D01*
X189642765Y-210817352D01*
X189613015Y-210767445D01*
X189441068Y-210479003D01*
X189439488Y-210476352D01*
X189203906Y-210156815D01*
X188938266Y-209861793D01*
X188645105Y-209594100D01*
X188327222Y-209356293D01*
X188278370Y-209326707D01*
X187990277Y-209152231D01*
X187990268Y-209152226D01*
X187987649Y-209150640D01*
X187629629Y-208979106D01*
X187570229Y-208957486D01*
X187259475Y-208844381D01*
X187259474Y-208844381D01*
X187256579Y-208843327D01*
X187049688Y-208790206D01*
X186875043Y-208745365D01*
X186875040Y-208745364D01*
X186872059Y-208744599D01*
X186479740Y-208683865D01*
X186476683Y-208683694D01*
X186476682Y-208683694D01*
X186447924Y-208682086D01*
X186083368Y-208661704D01*
X186080290Y-208661833D01*
X186080286Y-208661833D01*
X185821983Y-208672659D01*
X185686724Y-208678328D01*
X185683680Y-208678756D01*
X185683678Y-208678756D01*
X185643989Y-208684334D01*
X185293596Y-208733579D01*
X184907735Y-208826928D01*
X184532825Y-208957486D01*
X184486035Y-208979106D01*
X184175242Y-209122712D01*
X184175232Y-209122717D01*
X184172445Y-209124005D01*
X183830034Y-209324896D01*
X183789018Y-209354696D01*
X183511342Y-209556439D01*
X183511336Y-209556444D01*
X183508861Y-209558242D01*
X183506575Y-209560271D01*
X183506572Y-209560274D01*
X183466134Y-209596177D01*
X183211991Y-209821815D01*
X183209901Y-209824072D01*
X183209899Y-209824074D01*
X182944354Y-210110837D01*
X182944349Y-210110843D01*
X182942259Y-210113100D01*
X182940399Y-210115550D01*
X182940396Y-210115554D01*
X182907202Y-210159286D01*
X182702238Y-210429316D01*
X182700627Y-210431934D01*
X182700624Y-210431939D01*
X182495834Y-210764821D01*
X182494220Y-210767445D01*
X182320190Y-211124258D01*
X182319119Y-211127139D01*
X182319116Y-211127145D01*
X182233146Y-211358313D01*
X182181810Y-211496352D01*
X182080400Y-211880173D01*
X182016928Y-212272058D01*
X182016734Y-212275138D01*
X182016734Y-212275140D01*
X182009762Y-212385967D01*
X181992001Y-212668266D01*
X139315621Y-212668266D01*
X139299152Y-212331552D01*
X139299002Y-212328482D01*
X139290220Y-212269012D01*
X139241458Y-211938795D01*
X139241457Y-211938791D01*
X139241008Y-211935749D01*
X139144967Y-211550550D01*
X139126728Y-211499327D01*
X139012828Y-211179460D01*
X139011796Y-211176561D01*
X138842765Y-210817352D01*
X138813015Y-210767445D01*
X138641068Y-210479003D01*
X138639488Y-210476352D01*
X138403906Y-210156815D01*
X138138266Y-209861793D01*
X137845105Y-209594100D01*
X137527222Y-209356293D01*
X137478370Y-209326707D01*
X137190277Y-209152231D01*
X137190268Y-209152226D01*
X137187649Y-209150640D01*
X136829629Y-208979106D01*
X136770229Y-208957486D01*
X136459475Y-208844381D01*
X136459474Y-208844381D01*
X136456579Y-208843327D01*
X136249688Y-208790206D01*
X136075043Y-208745365D01*
X136075040Y-208745364D01*
X136072059Y-208744599D01*
X135679740Y-208683865D01*
X135676683Y-208683694D01*
X135676682Y-208683694D01*
X135647924Y-208682086D01*
X135283368Y-208661704D01*
X135280290Y-208661833D01*
X135280286Y-208661833D01*
X135021983Y-208672659D01*
X134886724Y-208678328D01*
X134883680Y-208678756D01*
X134883678Y-208678756D01*
X134843989Y-208684334D01*
X134493596Y-208733579D01*
X134107735Y-208826928D01*
X133732825Y-208957486D01*
X133686035Y-208979106D01*
X133375242Y-209122712D01*
X133375232Y-209122717D01*
X133372445Y-209124005D01*
X133030034Y-209324896D01*
X132989018Y-209354696D01*
X132711342Y-209556439D01*
X132711336Y-209556444D01*
X132708861Y-209558242D01*
X132706575Y-209560271D01*
X132706572Y-209560274D01*
X132666134Y-209596177D01*
X132411991Y-209821815D01*
X132409901Y-209824072D01*
X132409899Y-209824074D01*
X132144354Y-210110837D01*
X132144349Y-210110843D01*
X132142259Y-210113100D01*
X132140399Y-210115550D01*
X132140396Y-210115554D01*
X132107202Y-210159286D01*
X131902238Y-210429316D01*
X131900627Y-210431934D01*
X131900624Y-210431939D01*
X131695834Y-210764821D01*
X131694220Y-210767445D01*
X131520190Y-211124258D01*
X131519119Y-211127139D01*
X131519116Y-211127145D01*
X131433146Y-211358313D01*
X131381810Y-211496352D01*
X131280400Y-211880173D01*
X131216928Y-212272058D01*
X131216734Y-212275138D01*
X131216734Y-212275140D01*
X131209762Y-212385967D01*
X131192001Y-212668266D01*
X116713500Y-212668266D01*
X116713500Y-187268266D01*
X156592001Y-187268266D01*
X156592109Y-187271356D01*
X156592499Y-187282534D01*
X156604347Y-187621798D01*
X156605856Y-187665016D01*
X156658361Y-188058521D01*
X156749014Y-188445023D01*
X156876951Y-188820835D01*
X157040950Y-189182369D01*
X157239446Y-189526174D01*
X157241235Y-189528672D01*
X157241237Y-189528676D01*
X157341353Y-189668516D01*
X157470544Y-189848969D01*
X157732038Y-190147671D01*
X157734286Y-190149782D01*
X158019178Y-190417314D01*
X158019185Y-190417320D01*
X158021433Y-190419431D01*
X158023883Y-190421318D01*
X158023888Y-190421322D01*
X158333522Y-190659773D01*
X158335965Y-190661654D01*
X158338564Y-190663278D01*
X158338574Y-190663285D01*
X158519998Y-190776650D01*
X158672634Y-190872027D01*
X159028224Y-191048544D01*
X159399342Y-191189518D01*
X159782446Y-191293605D01*
X159785489Y-191294120D01*
X159785495Y-191294121D01*
X160170837Y-191359297D01*
X160170844Y-191359298D01*
X160173878Y-191359811D01*
X160176949Y-191360026D01*
X160176951Y-191360026D01*
X160566837Y-191387290D01*
X160566845Y-191387290D01*
X160569903Y-191387504D01*
X160826170Y-191380346D01*
X160963666Y-191376505D01*
X160963669Y-191376505D01*
X160966740Y-191376419D01*
X160969793Y-191376033D01*
X160969797Y-191376033D01*
X161158315Y-191352218D01*
X161360601Y-191326663D01*
X161363605Y-191325981D01*
X161363608Y-191325980D01*
X161744731Y-191239391D01*
X161744737Y-191239389D01*
X161747727Y-191238710D01*
X161895604Y-191189518D01*
X162121499Y-191114373D01*
X162121505Y-191114371D01*
X162124423Y-191113400D01*
X162267633Y-191049639D01*
X162484294Y-190953176D01*
X162484300Y-190953173D01*
X162487094Y-190951929D01*
X162627747Y-190872027D01*
X162829603Y-190757357D01*
X162829611Y-190757352D01*
X162832276Y-190755838D01*
X163156676Y-190526999D01*
X163457197Y-190267596D01*
X163459318Y-190265369D01*
X163459324Y-190265363D01*
X163728853Y-189982329D01*
X163730970Y-189980106D01*
X163764237Y-189937527D01*
X163973472Y-189669717D01*
X163973474Y-189669714D01*
X163975382Y-189667272D01*
X163977038Y-189664662D01*
X163977044Y-189664654D01*
X164186447Y-189334688D01*
X164186451Y-189334681D01*
X164188101Y-189332081D01*
X164214390Y-189280039D01*
X164273043Y-189163925D01*
X164367096Y-188977732D01*
X164368203Y-188974878D01*
X164368207Y-188974869D01*
X164509543Y-188610483D01*
X164509546Y-188610474D01*
X164510658Y-188607607D01*
X164617417Y-188225239D01*
X164686354Y-187834278D01*
X164716811Y-187438457D01*
X164718395Y-187325000D01*
X164715772Y-187271356D01*
X164715621Y-187268266D01*
X258192001Y-187268266D01*
X258192109Y-187271356D01*
X258192499Y-187282534D01*
X258204347Y-187621798D01*
X258205856Y-187665016D01*
X258258361Y-188058521D01*
X258349014Y-188445023D01*
X258476951Y-188820835D01*
X258640950Y-189182369D01*
X258839446Y-189526174D01*
X258841235Y-189528672D01*
X258841237Y-189528676D01*
X258941353Y-189668516D01*
X259070544Y-189848969D01*
X259332038Y-190147671D01*
X259334286Y-190149782D01*
X259619178Y-190417314D01*
X259619185Y-190417320D01*
X259621433Y-190419431D01*
X259623883Y-190421318D01*
X259623888Y-190421322D01*
X259933522Y-190659773D01*
X259935965Y-190661654D01*
X259938564Y-190663278D01*
X259938574Y-190663285D01*
X260119998Y-190776650D01*
X260272634Y-190872027D01*
X260628224Y-191048544D01*
X260999342Y-191189518D01*
X261382446Y-191293605D01*
X261385489Y-191294120D01*
X261385495Y-191294121D01*
X261770837Y-191359297D01*
X261770844Y-191359298D01*
X261773878Y-191359811D01*
X261776949Y-191360026D01*
X261776951Y-191360026D01*
X262166837Y-191387290D01*
X262166845Y-191387290D01*
X262169903Y-191387504D01*
X262426170Y-191380346D01*
X262563666Y-191376505D01*
X262563669Y-191376505D01*
X262566740Y-191376419D01*
X262569793Y-191376033D01*
X262569797Y-191376033D01*
X262758315Y-191352218D01*
X262960601Y-191326663D01*
X262963605Y-191325981D01*
X262963608Y-191325980D01*
X263344731Y-191239391D01*
X263344737Y-191239389D01*
X263347727Y-191238710D01*
X263495604Y-191189518D01*
X263721499Y-191114373D01*
X263721505Y-191114371D01*
X263724423Y-191113400D01*
X263867633Y-191049639D01*
X264084294Y-190953176D01*
X264084300Y-190953173D01*
X264087094Y-190951929D01*
X264227747Y-190872027D01*
X264429603Y-190757357D01*
X264429611Y-190757352D01*
X264432276Y-190755838D01*
X264756676Y-190526999D01*
X265057197Y-190267596D01*
X265059318Y-190265369D01*
X265059324Y-190265363D01*
X265328853Y-189982329D01*
X265330970Y-189980106D01*
X265364237Y-189937527D01*
X265573472Y-189669717D01*
X265573474Y-189669714D01*
X265575382Y-189667272D01*
X265577038Y-189664662D01*
X265577044Y-189664654D01*
X265786447Y-189334688D01*
X265786451Y-189334681D01*
X265788101Y-189332081D01*
X265814390Y-189280039D01*
X265873043Y-189163925D01*
X265967096Y-188977732D01*
X265968203Y-188974878D01*
X265968207Y-188974869D01*
X266109543Y-188610483D01*
X266109546Y-188610474D01*
X266110658Y-188607607D01*
X266217417Y-188225239D01*
X266286354Y-187834278D01*
X266316811Y-187438457D01*
X266318395Y-187325000D01*
X266315772Y-187271356D01*
X266299152Y-186931552D01*
X266299002Y-186928482D01*
X266290220Y-186869012D01*
X266241458Y-186538795D01*
X266241457Y-186538791D01*
X266241008Y-186535749D01*
X266144967Y-186150550D01*
X266126728Y-186099327D01*
X266012828Y-185779460D01*
X266011796Y-185776561D01*
X265842765Y-185417352D01*
X265813015Y-185367445D01*
X265641068Y-185079003D01*
X265639488Y-185076352D01*
X265403906Y-184756815D01*
X265138266Y-184461793D01*
X264845105Y-184194100D01*
X264527222Y-183956293D01*
X264478370Y-183926707D01*
X264190277Y-183752231D01*
X264190268Y-183752226D01*
X264187649Y-183750640D01*
X263829629Y-183579106D01*
X263770229Y-183557486D01*
X263459475Y-183444381D01*
X263459474Y-183444381D01*
X263456579Y-183443327D01*
X263249688Y-183390206D01*
X263075043Y-183345365D01*
X263075040Y-183345364D01*
X263072059Y-183344599D01*
X262679740Y-183283865D01*
X262676683Y-183283694D01*
X262676682Y-183283694D01*
X262647924Y-183282086D01*
X262283368Y-183261704D01*
X262280290Y-183261833D01*
X262280286Y-183261833D01*
X262021983Y-183272659D01*
X261886724Y-183278328D01*
X261883680Y-183278756D01*
X261883678Y-183278756D01*
X261843989Y-183284334D01*
X261493596Y-183333579D01*
X261107735Y-183426928D01*
X260732825Y-183557486D01*
X260686035Y-183579106D01*
X260375242Y-183722712D01*
X260375232Y-183722717D01*
X260372445Y-183724005D01*
X260030034Y-183924896D01*
X259989018Y-183954696D01*
X259711342Y-184156439D01*
X259711336Y-184156444D01*
X259708861Y-184158242D01*
X259706575Y-184160271D01*
X259706572Y-184160274D01*
X259666134Y-184196177D01*
X259411991Y-184421815D01*
X259409901Y-184424072D01*
X259409899Y-184424074D01*
X259144354Y-184710837D01*
X259144349Y-184710843D01*
X259142259Y-184713100D01*
X259140399Y-184715550D01*
X259140396Y-184715554D01*
X259107202Y-184759286D01*
X258902238Y-185029316D01*
X258900627Y-185031934D01*
X258900624Y-185031939D01*
X258695834Y-185364821D01*
X258694220Y-185367445D01*
X258520190Y-185724258D01*
X258519119Y-185727139D01*
X258519116Y-185727145D01*
X258433146Y-185958313D01*
X258381810Y-186096352D01*
X258280400Y-186480173D01*
X258216928Y-186872058D01*
X258216734Y-186875138D01*
X258216734Y-186875140D01*
X258209762Y-186985967D01*
X258192001Y-187268266D01*
X164715621Y-187268266D01*
X164699152Y-186931552D01*
X164699002Y-186928482D01*
X164690220Y-186869012D01*
X164641458Y-186538795D01*
X164641457Y-186538791D01*
X164641008Y-186535749D01*
X164544967Y-186150550D01*
X164526728Y-186099327D01*
X164412828Y-185779460D01*
X164411796Y-185776561D01*
X164242765Y-185417352D01*
X164213015Y-185367445D01*
X164041068Y-185079003D01*
X164039488Y-185076352D01*
X163803906Y-184756815D01*
X163538266Y-184461793D01*
X163245105Y-184194100D01*
X162927222Y-183956293D01*
X162878370Y-183926707D01*
X162590277Y-183752231D01*
X162590268Y-183752226D01*
X162587649Y-183750640D01*
X162229629Y-183579106D01*
X162170229Y-183557486D01*
X161859475Y-183444381D01*
X161859474Y-183444381D01*
X161856579Y-183443327D01*
X161649688Y-183390206D01*
X161475043Y-183345365D01*
X161475040Y-183345364D01*
X161472059Y-183344599D01*
X161079740Y-183283865D01*
X161076683Y-183283694D01*
X161076682Y-183283694D01*
X161047924Y-183282086D01*
X160683368Y-183261704D01*
X160680290Y-183261833D01*
X160680286Y-183261833D01*
X160421983Y-183272659D01*
X160286724Y-183278328D01*
X160283680Y-183278756D01*
X160283678Y-183278756D01*
X160243989Y-183284334D01*
X159893596Y-183333579D01*
X159507735Y-183426928D01*
X159132825Y-183557486D01*
X159086035Y-183579106D01*
X158775242Y-183722712D01*
X158775232Y-183722717D01*
X158772445Y-183724005D01*
X158430034Y-183924896D01*
X158389018Y-183954696D01*
X158111342Y-184156439D01*
X158111336Y-184156444D01*
X158108861Y-184158242D01*
X158106575Y-184160271D01*
X158106572Y-184160274D01*
X158066134Y-184196177D01*
X157811991Y-184421815D01*
X157809901Y-184424072D01*
X157809899Y-184424074D01*
X157544354Y-184710837D01*
X157544349Y-184710843D01*
X157542259Y-184713100D01*
X157540399Y-184715550D01*
X157540396Y-184715554D01*
X157507202Y-184759286D01*
X157302238Y-185029316D01*
X157300627Y-185031934D01*
X157300624Y-185031939D01*
X157095834Y-185364821D01*
X157094220Y-185367445D01*
X156920190Y-185724258D01*
X156919119Y-185727139D01*
X156919116Y-185727145D01*
X156833146Y-185958313D01*
X156781810Y-186096352D01*
X156680400Y-186480173D01*
X156616928Y-186872058D01*
X156616734Y-186875138D01*
X156616734Y-186875140D01*
X156609762Y-186985967D01*
X156592001Y-187268266D01*
X116713500Y-187268266D01*
X116713500Y-149093761D01*
X181043170Y-149093761D01*
X181044554Y-149169270D01*
X181051345Y-149539803D01*
X181051644Y-149542578D01*
X181096785Y-149961511D01*
X181099138Y-149983353D01*
X181099683Y-149986094D01*
X181099684Y-149986099D01*
X181170483Y-150342025D01*
X181186172Y-150420899D01*
X181186959Y-150423580D01*
X181186960Y-150423586D01*
X181211609Y-150507607D01*
X181311756Y-150848976D01*
X181312776Y-150851572D01*
X181312777Y-150851575D01*
X181470350Y-151252623D01*
X181474896Y-151264194D01*
X181536373Y-151387228D01*
X181626336Y-151567272D01*
X181674301Y-151663266D01*
X181908392Y-152043032D01*
X182175315Y-152400485D01*
X182177176Y-152402563D01*
X182177177Y-152402564D01*
X182451884Y-152709268D01*
X182472957Y-152732796D01*
X182474994Y-152734699D01*
X182475001Y-152734706D01*
X182644278Y-152892835D01*
X182798961Y-153037332D01*
X182801157Y-153039045D01*
X182801161Y-153039048D01*
X183027577Y-153215625D01*
X183150746Y-153311682D01*
X183311588Y-153415536D01*
X183523183Y-153552162D01*
X183523191Y-153552167D01*
X183525527Y-153553675D01*
X183920335Y-153761394D01*
X183922928Y-153762476D01*
X184329462Y-153932116D01*
X184329467Y-153932118D01*
X184332046Y-153933194D01*
X184334711Y-153934037D01*
X184334717Y-153934039D01*
X184566317Y-154007284D01*
X184757398Y-154067715D01*
X184760128Y-154068318D01*
X184760129Y-154068318D01*
X185152664Y-154154982D01*
X185193025Y-154163893D01*
X185195799Y-154164251D01*
X185195800Y-154164251D01*
X185632707Y-154220608D01*
X185632714Y-154220609D01*
X185635477Y-154220965D01*
X185638264Y-154221075D01*
X185638270Y-154221075D01*
X185896519Y-154231221D01*
X186081251Y-154238479D01*
X186084043Y-154238340D01*
X186084048Y-154238340D01*
X186524013Y-154216438D01*
X186524022Y-154216437D01*
X186526817Y-154216298D01*
X186529594Y-154215910D01*
X186529596Y-154215910D01*
X186607542Y-154205025D01*
X186968647Y-154154596D01*
X186971357Y-154153968D01*
X186971367Y-154153966D01*
X187400515Y-154054494D01*
X187403242Y-154053862D01*
X187625990Y-153980842D01*
X187824510Y-153915764D01*
X187824516Y-153915762D01*
X187827163Y-153914894D01*
X188237052Y-153738791D01*
X188629664Y-153526950D01*
X189001890Y-153281046D01*
X189350782Y-153003026D01*
X189673580Y-152695093D01*
X189907125Y-152428785D01*
X189965874Y-152361795D01*
X189965877Y-152361791D01*
X189967725Y-152359684D01*
X189995751Y-152321322D01*
X190175159Y-152075743D01*
X190230891Y-151999455D01*
X190232337Y-151997054D01*
X190459541Y-151619669D01*
X190459546Y-151619660D01*
X190460992Y-151617258D01*
X190648440Y-151232081D01*
X190654974Y-151218654D01*
X190654975Y-151218651D01*
X190656207Y-151216120D01*
X190786177Y-150874869D01*
X190813994Y-150801832D01*
X190813996Y-150801825D01*
X190814990Y-150799216D01*
X190936085Y-150369848D01*
X190936601Y-150367105D01*
X191018015Y-149934162D01*
X191018017Y-149934150D01*
X191018531Y-149931415D01*
X191049709Y-149610559D01*
X191061462Y-149489606D01*
X191061463Y-149489594D01*
X191061677Y-149487389D01*
X191068548Y-149225000D01*
X207766445Y-149225000D01*
X207786651Y-149610559D01*
X207787164Y-149613799D01*
X207787165Y-149613807D01*
X207804819Y-149725268D01*
X207847049Y-149991894D01*
X207946976Y-150364826D01*
X207948161Y-150367914D01*
X207948162Y-150367916D01*
X207967445Y-150418149D01*
X208085337Y-150725270D01*
X208086835Y-150728210D01*
X208163021Y-150877732D01*
X208260618Y-151069277D01*
X208262414Y-151072043D01*
X208262416Y-151072046D01*
X208366344Y-151232081D01*
X208470896Y-151393078D01*
X208713869Y-151693125D01*
X208986875Y-151966131D01*
X209286922Y-152209104D01*
X209289697Y-152210906D01*
X209584825Y-152402564D01*
X209610722Y-152419382D01*
X209613656Y-152420877D01*
X209613663Y-152420881D01*
X209889946Y-152561654D01*
X209954730Y-152594663D01*
X210114097Y-152655838D01*
X210309154Y-152730713D01*
X210315174Y-152733024D01*
X210688106Y-152832951D01*
X210890643Y-152865030D01*
X211066193Y-152892835D01*
X211066201Y-152892836D01*
X211069441Y-152893349D01*
X211455000Y-152913555D01*
X211840559Y-152893349D01*
X211843799Y-152892836D01*
X211843807Y-152892835D01*
X212019357Y-152865030D01*
X212221894Y-152832951D01*
X212594826Y-152733024D01*
X212600847Y-152730713D01*
X212795903Y-152655838D01*
X212955270Y-152594663D01*
X213020054Y-152561654D01*
X213296337Y-152420881D01*
X213296344Y-152420877D01*
X213299278Y-152419382D01*
X213325176Y-152402564D01*
X213620303Y-152210906D01*
X213623078Y-152209104D01*
X213923125Y-151966131D01*
X214196131Y-151693125D01*
X214439104Y-151393078D01*
X214543656Y-151232081D01*
X214647584Y-151072046D01*
X214647586Y-151072043D01*
X214649382Y-151069277D01*
X214746980Y-150877732D01*
X214823165Y-150728210D01*
X214824663Y-150725270D01*
X214942555Y-150418149D01*
X214961838Y-150367916D01*
X214961839Y-150367914D01*
X214963024Y-150364826D01*
X215062951Y-149991894D01*
X215105181Y-149725268D01*
X215122835Y-149613807D01*
X215122836Y-149613799D01*
X215123349Y-149610559D01*
X215143555Y-149225000D01*
X215140582Y-149168266D01*
X232792001Y-149168266D01*
X232792109Y-149171356D01*
X232792499Y-149182534D01*
X232805646Y-149559000D01*
X232805856Y-149565016D01*
X232806262Y-149568060D01*
X232806263Y-149568070D01*
X232812366Y-149613807D01*
X232858361Y-149958521D01*
X232859061Y-149961505D01*
X232859062Y-149961511D01*
X232911492Y-150185047D01*
X232949014Y-150345023D01*
X233076951Y-150720835D01*
X233240950Y-151082369D01*
X233439446Y-151426174D01*
X233441235Y-151428672D01*
X233441237Y-151428676D01*
X233638528Y-151704249D01*
X233670544Y-151748969D01*
X233672571Y-151751284D01*
X233672573Y-151751287D01*
X233837604Y-151939800D01*
X233932038Y-152047671D01*
X233934286Y-152049782D01*
X234219178Y-152317314D01*
X234219185Y-152317320D01*
X234221433Y-152319431D01*
X234223883Y-152321318D01*
X234223888Y-152321322D01*
X234459304Y-152502617D01*
X234535965Y-152561654D01*
X234538564Y-152563278D01*
X234538574Y-152563285D01*
X234719998Y-152676650D01*
X234872634Y-152772027D01*
X235228224Y-152948544D01*
X235599342Y-153089518D01*
X235982446Y-153193605D01*
X235985489Y-153194120D01*
X235985495Y-153194121D01*
X236370837Y-153259297D01*
X236370844Y-153259298D01*
X236373878Y-153259811D01*
X236376949Y-153260026D01*
X236376951Y-153260026D01*
X236766837Y-153287290D01*
X236766845Y-153287290D01*
X236769903Y-153287504D01*
X237026170Y-153280346D01*
X237163666Y-153276505D01*
X237163669Y-153276505D01*
X237166740Y-153276419D01*
X237169793Y-153276033D01*
X237169797Y-153276033D01*
X237358315Y-153252218D01*
X237560601Y-153226663D01*
X237563605Y-153225981D01*
X237563608Y-153225980D01*
X237944731Y-153139391D01*
X237944737Y-153139389D01*
X237947727Y-153138710D01*
X238095604Y-153089518D01*
X238321499Y-153014373D01*
X238321505Y-153014371D01*
X238324423Y-153013400D01*
X238327233Y-153012149D01*
X238684294Y-152853176D01*
X238684300Y-152853173D01*
X238687094Y-152851929D01*
X238719593Y-152833467D01*
X239029603Y-152657357D01*
X239029611Y-152657352D01*
X239032276Y-152655838D01*
X239356676Y-152426999D01*
X239365501Y-152419382D01*
X239654859Y-152169614D01*
X239657197Y-152167596D01*
X239659318Y-152165369D01*
X239659324Y-152165363D01*
X239928853Y-151882329D01*
X239930970Y-151880106D01*
X239933481Y-151876893D01*
X240173472Y-151569717D01*
X240173474Y-151569714D01*
X240175382Y-151567272D01*
X240177038Y-151564662D01*
X240177044Y-151564654D01*
X240386447Y-151234688D01*
X240386451Y-151234681D01*
X240388101Y-151232081D01*
X240394884Y-151218654D01*
X240490235Y-151029890D01*
X240567096Y-150877732D01*
X240568203Y-150874878D01*
X240568207Y-150874869D01*
X240709543Y-150510483D01*
X240709546Y-150510474D01*
X240710658Y-150507607D01*
X240800718Y-150185047D01*
X240816589Y-150128205D01*
X240816590Y-150128203D01*
X240817417Y-150125239D01*
X240886354Y-149734278D01*
X240916811Y-149338457D01*
X240918395Y-149225000D01*
X240917030Y-149197077D01*
X240901813Y-148885967D01*
X240899002Y-148828482D01*
X240892158Y-148782132D01*
X240841458Y-148438795D01*
X240841457Y-148438791D01*
X240841008Y-148435749D01*
X240744967Y-148050550D01*
X240726728Y-147999327D01*
X240646235Y-147773278D01*
X240611796Y-147676561D01*
X240459287Y-147352462D01*
X240444077Y-147320140D01*
X240444076Y-147320139D01*
X240442765Y-147317352D01*
X240413015Y-147267445D01*
X240291823Y-147064145D01*
X240239488Y-146976352D01*
X240003906Y-146656815D01*
X239738266Y-146361793D01*
X239445105Y-146094100D01*
X239127222Y-145856293D01*
X239078370Y-145826707D01*
X238790277Y-145652231D01*
X238790268Y-145652226D01*
X238787649Y-145650640D01*
X238429629Y-145479106D01*
X238370229Y-145457486D01*
X238059475Y-145344381D01*
X238059474Y-145344381D01*
X238056579Y-145343327D01*
X237713994Y-145255366D01*
X237675043Y-145245365D01*
X237675040Y-145245364D01*
X237672059Y-145244599D01*
X237279740Y-145183865D01*
X237276683Y-145183694D01*
X237276682Y-145183694D01*
X237247924Y-145182086D01*
X236883368Y-145161704D01*
X236880290Y-145161833D01*
X236880286Y-145161833D01*
X236621983Y-145172659D01*
X236486724Y-145178328D01*
X236483680Y-145178756D01*
X236483678Y-145178756D01*
X236443989Y-145184334D01*
X236093596Y-145233579D01*
X235707735Y-145326928D01*
X235332825Y-145457486D01*
X235286035Y-145479106D01*
X234975242Y-145622712D01*
X234975232Y-145622717D01*
X234972445Y-145624005D01*
X234630034Y-145824896D01*
X234504782Y-145915897D01*
X234311342Y-146056439D01*
X234311336Y-146056444D01*
X234308861Y-146058242D01*
X234306575Y-146060271D01*
X234306572Y-146060274D01*
X234153563Y-146196122D01*
X234011991Y-146321815D01*
X234009901Y-146324072D01*
X234009899Y-146324074D01*
X233744354Y-146610837D01*
X233744349Y-146610843D01*
X233742259Y-146613100D01*
X233740399Y-146615550D01*
X233740396Y-146615554D01*
X233707202Y-146659286D01*
X233502238Y-146929316D01*
X233500627Y-146931934D01*
X233500624Y-146931939D01*
X233295834Y-147264821D01*
X233294220Y-147267445D01*
X233120190Y-147624258D01*
X233119119Y-147627139D01*
X233119116Y-147627145D01*
X233064770Y-147773278D01*
X232981810Y-147996352D01*
X232880400Y-148380173D01*
X232879909Y-148383206D01*
X232836899Y-148648757D01*
X232816928Y-148772058D01*
X232816734Y-148775138D01*
X232816734Y-148775140D01*
X232796512Y-149096571D01*
X232792001Y-149168266D01*
X215140582Y-149168266D01*
X215123349Y-148839441D01*
X215122725Y-148835498D01*
X215063467Y-148461367D01*
X215062951Y-148458106D01*
X214963024Y-148085174D01*
X214950886Y-148053552D01*
X214825847Y-147727815D01*
X214824663Y-147724730D01*
X214772058Y-147621487D01*
X214650881Y-147383664D01*
X214650877Y-147383657D01*
X214649382Y-147380723D01*
X214598703Y-147302683D01*
X214440906Y-147059697D01*
X214439104Y-147056922D01*
X214196131Y-146756875D01*
X213923125Y-146483869D01*
X213623078Y-146240896D01*
X213394194Y-146092257D01*
X213302047Y-146032416D01*
X213302044Y-146032414D01*
X213299278Y-146030618D01*
X213296344Y-146029123D01*
X213296337Y-146029119D01*
X212958210Y-145856835D01*
X212955270Y-145855337D01*
X212594826Y-145716976D01*
X212221894Y-145617049D01*
X212019357Y-145584970D01*
X211843807Y-145557165D01*
X211843799Y-145557164D01*
X211840559Y-145556651D01*
X211455000Y-145536445D01*
X211069441Y-145556651D01*
X211066201Y-145557164D01*
X211066193Y-145557165D01*
X210890643Y-145584970D01*
X210688106Y-145617049D01*
X210315174Y-145716976D01*
X209954730Y-145855337D01*
X209951790Y-145856835D01*
X209613664Y-146029119D01*
X209613657Y-146029123D01*
X209610723Y-146030618D01*
X209607957Y-146032414D01*
X209607954Y-146032416D01*
X209481905Y-146114273D01*
X209286922Y-146240896D01*
X208986875Y-146483869D01*
X208713869Y-146756875D01*
X208470896Y-147056922D01*
X208469094Y-147059697D01*
X208311298Y-147302683D01*
X208260618Y-147380723D01*
X208259123Y-147383657D01*
X208259119Y-147383664D01*
X208137942Y-147621487D01*
X208085337Y-147724730D01*
X208084153Y-147727815D01*
X207959115Y-148053552D01*
X207946976Y-148085174D01*
X207847049Y-148458106D01*
X207846533Y-148461367D01*
X207787276Y-148835498D01*
X207786651Y-148839441D01*
X207767908Y-149197077D01*
X207766445Y-149225000D01*
X191068548Y-149225000D01*
X191048700Y-148779324D01*
X190989312Y-148337177D01*
X190954821Y-148184746D01*
X190891472Y-147904788D01*
X190890855Y-147902060D01*
X190754108Y-147477417D01*
X190747416Y-147461612D01*
X190581245Y-147069186D01*
X190581245Y-147069185D01*
X190580155Y-147066612D01*
X190576471Y-147059697D01*
X190371679Y-146675351D01*
X190370371Y-146672896D01*
X190368850Y-146670567D01*
X190127944Y-146301721D01*
X190127941Y-146301717D01*
X190126420Y-146299388D01*
X190043192Y-146193813D01*
X189851960Y-145951237D01*
X189851958Y-145951235D01*
X189850231Y-145949044D01*
X189543992Y-145624639D01*
X189379786Y-145479106D01*
X189212234Y-145330607D01*
X189212227Y-145330602D01*
X189210128Y-145328741D01*
X188851282Y-145063694D01*
X188650449Y-144941345D01*
X188472684Y-144833049D01*
X188472677Y-144833045D01*
X188470295Y-144831594D01*
X188347964Y-144771267D01*
X188072696Y-144635521D01*
X188070184Y-144634282D01*
X187654118Y-144473318D01*
X187517562Y-144434032D01*
X187228071Y-144350748D01*
X187228065Y-144350746D01*
X187225390Y-144349977D01*
X187222653Y-144349448D01*
X187222647Y-144349446D01*
X187071581Y-144320219D01*
X186787394Y-144265236D01*
X186784617Y-144264951D01*
X186784607Y-144264950D01*
X186509789Y-144236793D01*
X186343600Y-144219765D01*
X186340810Y-144219728D01*
X186340802Y-144219728D01*
X186062276Y-144216083D01*
X185897521Y-144213926D01*
X185894721Y-144214139D01*
X185894720Y-144214139D01*
X185455475Y-144247551D01*
X185452688Y-144247763D01*
X185012625Y-144321010D01*
X184922566Y-144344385D01*
X184583533Y-144432380D01*
X184583522Y-144432383D01*
X184580815Y-144433086D01*
X184312441Y-144528913D01*
X184163320Y-144582159D01*
X184163315Y-144582161D01*
X184160677Y-144583103D01*
X184158137Y-144584274D01*
X184158132Y-144584276D01*
X184049661Y-144634282D01*
X183755538Y-144769875D01*
X183368607Y-144991921D01*
X183366315Y-144993523D01*
X183366307Y-144993528D01*
X183125681Y-145161704D01*
X183002945Y-145247485D01*
X183000804Y-145249285D01*
X183000801Y-145249287D01*
X182673818Y-145524146D01*
X182661450Y-145534542D01*
X182659476Y-145536526D01*
X182659472Y-145536530D01*
X182572454Y-145624005D01*
X182346824Y-145850819D01*
X182345030Y-145852975D01*
X182345030Y-145852976D01*
X182343066Y-145855337D01*
X182061559Y-146193813D01*
X181807914Y-146560808D01*
X181587896Y-146948897D01*
X181586737Y-146951446D01*
X181586735Y-146951450D01*
X181404405Y-147352462D01*
X181404400Y-147352473D01*
X181403248Y-147355008D01*
X181402326Y-147357634D01*
X181402321Y-147357646D01*
X181325152Y-147577394D01*
X181255433Y-147775925D01*
X181254742Y-147778645D01*
X181254741Y-147778649D01*
X181185687Y-148050550D01*
X181145619Y-148208316D01*
X181145176Y-148211066D01*
X181145174Y-148211076D01*
X181088673Y-148561868D01*
X181074678Y-148648757D01*
X181074480Y-148651558D01*
X181074479Y-148651564D01*
X181061953Y-148828482D01*
X181043170Y-149093761D01*
X116713500Y-149093761D01*
X116713500Y-123768266D01*
X137542001Y-123768266D01*
X137542109Y-123771356D01*
X137542499Y-123782534D01*
X137554347Y-124121798D01*
X137555856Y-124165016D01*
X137556262Y-124168060D01*
X137556263Y-124168070D01*
X137562366Y-124213807D01*
X137608361Y-124558521D01*
X137609061Y-124561505D01*
X137609062Y-124561511D01*
X137661492Y-124785047D01*
X137699014Y-124945023D01*
X137826951Y-125320835D01*
X137990950Y-125682369D01*
X138189446Y-126026174D01*
X138191235Y-126028672D01*
X138191237Y-126028676D01*
X138388528Y-126304249D01*
X138420544Y-126348969D01*
X138422571Y-126351284D01*
X138422573Y-126351287D01*
X138587604Y-126539800D01*
X138682038Y-126647671D01*
X138684286Y-126649782D01*
X138969178Y-126917314D01*
X138969185Y-126917320D01*
X138971433Y-126919431D01*
X138973883Y-126921318D01*
X138973888Y-126921322D01*
X139283522Y-127159773D01*
X139285965Y-127161654D01*
X139288564Y-127163278D01*
X139288574Y-127163285D01*
X139469998Y-127276650D01*
X139622634Y-127372027D01*
X139978224Y-127548544D01*
X140349342Y-127689518D01*
X140732446Y-127793605D01*
X140735489Y-127794120D01*
X140735495Y-127794121D01*
X141120837Y-127859297D01*
X141120844Y-127859298D01*
X141123878Y-127859811D01*
X141126949Y-127860026D01*
X141126951Y-127860026D01*
X141516837Y-127887290D01*
X141516845Y-127887290D01*
X141519903Y-127887504D01*
X141776170Y-127880346D01*
X141913666Y-127876505D01*
X141913669Y-127876505D01*
X141916740Y-127876419D01*
X141919793Y-127876033D01*
X141919797Y-127876033D01*
X142108315Y-127852218D01*
X142310601Y-127826663D01*
X142313605Y-127825981D01*
X142313608Y-127825980D01*
X142694731Y-127739391D01*
X142694737Y-127739389D01*
X142697727Y-127738710D01*
X142845604Y-127689518D01*
X143071499Y-127614373D01*
X143071505Y-127614371D01*
X143074423Y-127613400D01*
X143217633Y-127549639D01*
X143434294Y-127453176D01*
X143434300Y-127453173D01*
X143437094Y-127451929D01*
X143469593Y-127433467D01*
X143779603Y-127257357D01*
X143779611Y-127257352D01*
X143782276Y-127255838D01*
X144106676Y-127026999D01*
X144115501Y-127019382D01*
X144404859Y-126769614D01*
X144407197Y-126767596D01*
X144409318Y-126765369D01*
X144409324Y-126765363D01*
X144678853Y-126482329D01*
X144680970Y-126480106D01*
X144683481Y-126476893D01*
X144923472Y-126169717D01*
X144923474Y-126169714D01*
X144925382Y-126167272D01*
X144927038Y-126164662D01*
X144927044Y-126164654D01*
X145136447Y-125834688D01*
X145136451Y-125834681D01*
X145138101Y-125832081D01*
X145164390Y-125780039D01*
X145240235Y-125629890D01*
X145317096Y-125477732D01*
X145318203Y-125474878D01*
X145318207Y-125474869D01*
X145459543Y-125110483D01*
X145459546Y-125110474D01*
X145460658Y-125107607D01*
X145550718Y-124785047D01*
X145566589Y-124728205D01*
X145566590Y-124728203D01*
X145567417Y-124725239D01*
X145636354Y-124334278D01*
X145666811Y-123938457D01*
X145668395Y-123825000D01*
X252216445Y-123825000D01*
X252236651Y-124210559D01*
X252237164Y-124213799D01*
X252237165Y-124213807D01*
X252255762Y-124331222D01*
X252297049Y-124591894D01*
X252396976Y-124964826D01*
X252535337Y-125325270D01*
X252536835Y-125328210D01*
X252613021Y-125477732D01*
X252710618Y-125669277D01*
X252712414Y-125672043D01*
X252712416Y-125672046D01*
X252816344Y-125832081D01*
X252920896Y-125993078D01*
X253163869Y-126293125D01*
X253436875Y-126566131D01*
X253736922Y-126809104D01*
X254060722Y-127019382D01*
X254063656Y-127020877D01*
X254063663Y-127020881D01*
X254339946Y-127161654D01*
X254404730Y-127194663D01*
X254765174Y-127333024D01*
X255138106Y-127432951D01*
X255340643Y-127465030D01*
X255516193Y-127492835D01*
X255516201Y-127492836D01*
X255519441Y-127493349D01*
X255905000Y-127513555D01*
X256290559Y-127493349D01*
X256293799Y-127492836D01*
X256293807Y-127492835D01*
X256469357Y-127465030D01*
X256671894Y-127432951D01*
X257044826Y-127333024D01*
X257405270Y-127194663D01*
X257470054Y-127161654D01*
X257746337Y-127020881D01*
X257746344Y-127020877D01*
X257749278Y-127019382D01*
X258073078Y-126809104D01*
X258373125Y-126566131D01*
X258646131Y-126293125D01*
X258889104Y-125993078D01*
X258993656Y-125832081D01*
X259097584Y-125672046D01*
X259097586Y-125672043D01*
X259099382Y-125669277D01*
X259196980Y-125477732D01*
X259273165Y-125328210D01*
X259274663Y-125325270D01*
X259413024Y-124964826D01*
X259512951Y-124591894D01*
X259554238Y-124331222D01*
X259572835Y-124213807D01*
X259572836Y-124213799D01*
X259573349Y-124210559D01*
X259593555Y-123825000D01*
X259590582Y-123768266D01*
X277242001Y-123768266D01*
X277242109Y-123771356D01*
X277242499Y-123782534D01*
X277254347Y-124121798D01*
X277255856Y-124165016D01*
X277256262Y-124168060D01*
X277256263Y-124168070D01*
X277262366Y-124213807D01*
X277308361Y-124558521D01*
X277309061Y-124561505D01*
X277309062Y-124561511D01*
X277361492Y-124785047D01*
X277399014Y-124945023D01*
X277526951Y-125320835D01*
X277690950Y-125682369D01*
X277889446Y-126026174D01*
X277891235Y-126028672D01*
X277891237Y-126028676D01*
X278088528Y-126304249D01*
X278120544Y-126348969D01*
X278122571Y-126351284D01*
X278122573Y-126351287D01*
X278287604Y-126539800D01*
X278382038Y-126647671D01*
X278384286Y-126649782D01*
X278669178Y-126917314D01*
X278669185Y-126917320D01*
X278671433Y-126919431D01*
X278673883Y-126921318D01*
X278673888Y-126921322D01*
X278983522Y-127159773D01*
X278985965Y-127161654D01*
X278988564Y-127163278D01*
X278988574Y-127163285D01*
X279169998Y-127276650D01*
X279322634Y-127372027D01*
X279678224Y-127548544D01*
X280049342Y-127689518D01*
X280432446Y-127793605D01*
X280435489Y-127794120D01*
X280435495Y-127794121D01*
X280820837Y-127859297D01*
X280820844Y-127859298D01*
X280823878Y-127859811D01*
X280826949Y-127860026D01*
X280826951Y-127860026D01*
X281216837Y-127887290D01*
X281216845Y-127887290D01*
X281219903Y-127887504D01*
X281476170Y-127880346D01*
X281613666Y-127876505D01*
X281613669Y-127876505D01*
X281616740Y-127876419D01*
X281619793Y-127876033D01*
X281619797Y-127876033D01*
X281808315Y-127852218D01*
X282010601Y-127826663D01*
X282013605Y-127825981D01*
X282013608Y-127825980D01*
X282394731Y-127739391D01*
X282394737Y-127739389D01*
X282397727Y-127738710D01*
X282545604Y-127689518D01*
X282771499Y-127614373D01*
X282771505Y-127614371D01*
X282774423Y-127613400D01*
X282917633Y-127549639D01*
X283134294Y-127453176D01*
X283134300Y-127453173D01*
X283137094Y-127451929D01*
X283169593Y-127433467D01*
X283479603Y-127257357D01*
X283479611Y-127257352D01*
X283482276Y-127255838D01*
X283806676Y-127026999D01*
X283815501Y-127019382D01*
X284104859Y-126769614D01*
X284107197Y-126767596D01*
X284109318Y-126765369D01*
X284109324Y-126765363D01*
X284378853Y-126482329D01*
X284380970Y-126480106D01*
X284383481Y-126476893D01*
X284623472Y-126169717D01*
X284623474Y-126169714D01*
X284625382Y-126167272D01*
X284627038Y-126164662D01*
X284627044Y-126164654D01*
X284836447Y-125834688D01*
X284836451Y-125834681D01*
X284838101Y-125832081D01*
X284864390Y-125780039D01*
X284940235Y-125629890D01*
X285017096Y-125477732D01*
X285018203Y-125474878D01*
X285018207Y-125474869D01*
X285159543Y-125110483D01*
X285159546Y-125110474D01*
X285160658Y-125107607D01*
X285250718Y-124785047D01*
X285266589Y-124728205D01*
X285266590Y-124728203D01*
X285267417Y-124725239D01*
X285336354Y-124334278D01*
X285366811Y-123938457D01*
X285368395Y-123825000D01*
X285367030Y-123797077D01*
X285351813Y-123485967D01*
X285349002Y-123428482D01*
X285309632Y-123161868D01*
X285291458Y-123038795D01*
X285291457Y-123038791D01*
X285291008Y-123035749D01*
X285194967Y-122650550D01*
X285176728Y-122599327D01*
X285130140Y-122468494D01*
X285061796Y-122276561D01*
X284892765Y-121917352D01*
X284863015Y-121867445D01*
X284752380Y-121681855D01*
X284689488Y-121576352D01*
X284453906Y-121256815D01*
X284188266Y-120961793D01*
X283895105Y-120694100D01*
X283577222Y-120456293D01*
X283528370Y-120426707D01*
X283240277Y-120252231D01*
X283240268Y-120252226D01*
X283237649Y-120250640D01*
X282879629Y-120079106D01*
X282820229Y-120057486D01*
X282509475Y-119944381D01*
X282509474Y-119944381D01*
X282506579Y-119943327D01*
X282299688Y-119890206D01*
X282125043Y-119845365D01*
X282125040Y-119845364D01*
X282122059Y-119844599D01*
X281729740Y-119783865D01*
X281726683Y-119783694D01*
X281726682Y-119783694D01*
X281697924Y-119782086D01*
X281333368Y-119761704D01*
X281330290Y-119761833D01*
X281330286Y-119761833D01*
X281071983Y-119772659D01*
X280936724Y-119778328D01*
X280933680Y-119778756D01*
X280933678Y-119778756D01*
X280893989Y-119784334D01*
X280543596Y-119833579D01*
X280157735Y-119926928D01*
X279782825Y-120057486D01*
X279736035Y-120079106D01*
X279425242Y-120222712D01*
X279425232Y-120222717D01*
X279422445Y-120224005D01*
X279080034Y-120424896D01*
X279039018Y-120454696D01*
X278761342Y-120656439D01*
X278761336Y-120656444D01*
X278758861Y-120658242D01*
X278756575Y-120660271D01*
X278756572Y-120660274D01*
X278716134Y-120696177D01*
X278461991Y-120921815D01*
X278459901Y-120924072D01*
X278459899Y-120924074D01*
X278194354Y-121210837D01*
X278194349Y-121210843D01*
X278192259Y-121213100D01*
X278190399Y-121215550D01*
X278190396Y-121215554D01*
X278157202Y-121259286D01*
X277952238Y-121529316D01*
X277950627Y-121531934D01*
X277950624Y-121531939D01*
X277745834Y-121864821D01*
X277744220Y-121867445D01*
X277570190Y-122224258D01*
X277569119Y-122227139D01*
X277569116Y-122227145D01*
X277483146Y-122458313D01*
X277431810Y-122596352D01*
X277330400Y-122980173D01*
X277266928Y-123372058D01*
X277266734Y-123375138D01*
X277266734Y-123375140D01*
X277259762Y-123485967D01*
X277242001Y-123768266D01*
X259590582Y-123768266D01*
X259573349Y-123439441D01*
X259572100Y-123431552D01*
X259513467Y-123061367D01*
X259512951Y-123058106D01*
X259413024Y-122685174D01*
X259400886Y-122653552D01*
X259275847Y-122327815D01*
X259274663Y-122324730D01*
X259222058Y-122221487D01*
X259100881Y-121983664D01*
X259100877Y-121983657D01*
X259099382Y-121980723D01*
X259048703Y-121902683D01*
X258890906Y-121659697D01*
X258889104Y-121656922D01*
X258646131Y-121356875D01*
X258373125Y-121083869D01*
X258073078Y-120840896D01*
X257844194Y-120692257D01*
X257752047Y-120632416D01*
X257752044Y-120632414D01*
X257749278Y-120630618D01*
X257746344Y-120629123D01*
X257746337Y-120629119D01*
X257408210Y-120456835D01*
X257405270Y-120455337D01*
X257044826Y-120316976D01*
X256671894Y-120217049D01*
X256469357Y-120184970D01*
X256293807Y-120157165D01*
X256293799Y-120157164D01*
X256290559Y-120156651D01*
X255905000Y-120136445D01*
X255519441Y-120156651D01*
X255516201Y-120157164D01*
X255516193Y-120157165D01*
X255340643Y-120184970D01*
X255138106Y-120217049D01*
X254765174Y-120316976D01*
X254404730Y-120455337D01*
X254401790Y-120456835D01*
X254063664Y-120629119D01*
X254063657Y-120629123D01*
X254060723Y-120630618D01*
X254057957Y-120632414D01*
X254057954Y-120632416D01*
X253844166Y-120771251D01*
X253736922Y-120840896D01*
X253436875Y-121083869D01*
X253163869Y-121356875D01*
X252920896Y-121656922D01*
X252919094Y-121659697D01*
X252761298Y-121902683D01*
X252710618Y-121980723D01*
X252709123Y-121983657D01*
X252709119Y-121983664D01*
X252587942Y-122221487D01*
X252535337Y-122324730D01*
X252534153Y-122327815D01*
X252409115Y-122653552D01*
X252396976Y-122685174D01*
X252297049Y-123058106D01*
X252296533Y-123061367D01*
X252237901Y-123431552D01*
X252236651Y-123439441D01*
X252217908Y-123797077D01*
X252216445Y-123825000D01*
X145668395Y-123825000D01*
X145667030Y-123797077D01*
X145651813Y-123485967D01*
X145649002Y-123428482D01*
X145609632Y-123161868D01*
X145591458Y-123038795D01*
X145591457Y-123038791D01*
X145591008Y-123035749D01*
X145494967Y-122650550D01*
X145476728Y-122599327D01*
X145430140Y-122468494D01*
X145361796Y-122276561D01*
X145192765Y-121917352D01*
X145163015Y-121867445D01*
X145052380Y-121681855D01*
X144989488Y-121576352D01*
X144753906Y-121256815D01*
X144488266Y-120961793D01*
X144195105Y-120694100D01*
X143877222Y-120456293D01*
X143828370Y-120426707D01*
X143540277Y-120252231D01*
X143540268Y-120252226D01*
X143537649Y-120250640D01*
X143179629Y-120079106D01*
X143120229Y-120057486D01*
X142809475Y-119944381D01*
X142809474Y-119944381D01*
X142806579Y-119943327D01*
X142599688Y-119890206D01*
X142425043Y-119845365D01*
X142425040Y-119845364D01*
X142422059Y-119844599D01*
X142029740Y-119783865D01*
X142026683Y-119783694D01*
X142026682Y-119783694D01*
X141997924Y-119782086D01*
X141633368Y-119761704D01*
X141630290Y-119761833D01*
X141630286Y-119761833D01*
X141371983Y-119772659D01*
X141236724Y-119778328D01*
X141233680Y-119778756D01*
X141233678Y-119778756D01*
X141193989Y-119784334D01*
X140843596Y-119833579D01*
X140457735Y-119926928D01*
X140082825Y-120057486D01*
X140036035Y-120079106D01*
X139725242Y-120222712D01*
X139725232Y-120222717D01*
X139722445Y-120224005D01*
X139380034Y-120424896D01*
X139339018Y-120454696D01*
X139061342Y-120656439D01*
X139061336Y-120656444D01*
X139058861Y-120658242D01*
X139056575Y-120660271D01*
X139056572Y-120660274D01*
X139016134Y-120696177D01*
X138761991Y-120921815D01*
X138759901Y-120924072D01*
X138759899Y-120924074D01*
X138494354Y-121210837D01*
X138494349Y-121210843D01*
X138492259Y-121213100D01*
X138490399Y-121215550D01*
X138490396Y-121215554D01*
X138457202Y-121259286D01*
X138252238Y-121529316D01*
X138250627Y-121531934D01*
X138250624Y-121531939D01*
X138045834Y-121864821D01*
X138044220Y-121867445D01*
X137870190Y-122224258D01*
X137869119Y-122227139D01*
X137869116Y-122227145D01*
X137783146Y-122458313D01*
X137731810Y-122596352D01*
X137630400Y-122980173D01*
X137566928Y-123372058D01*
X137566734Y-123375138D01*
X137566734Y-123375140D01*
X137559762Y-123485967D01*
X137542001Y-123768266D01*
X116713500Y-123768266D01*
X116713500Y-98293761D01*
X181043170Y-98293761D01*
X181044554Y-98369270D01*
X181051345Y-98739803D01*
X181051644Y-98742578D01*
X181096785Y-99161511D01*
X181099138Y-99183353D01*
X181099683Y-99186094D01*
X181099684Y-99186099D01*
X181170483Y-99542025D01*
X181186172Y-99620899D01*
X181186959Y-99623580D01*
X181186960Y-99623586D01*
X181211609Y-99707607D01*
X181311756Y-100048976D01*
X181312776Y-100051572D01*
X181312777Y-100051575D01*
X181470350Y-100452623D01*
X181474896Y-100464194D01*
X181536373Y-100587228D01*
X181626336Y-100767272D01*
X181674301Y-100863266D01*
X181908392Y-101243032D01*
X182175315Y-101600485D01*
X182177176Y-101602563D01*
X182177177Y-101602564D01*
X182451884Y-101909268D01*
X182472957Y-101932796D01*
X182474994Y-101934699D01*
X182475001Y-101934706D01*
X182644278Y-102092835D01*
X182798961Y-102237332D01*
X182801157Y-102239045D01*
X182801161Y-102239048D01*
X183027577Y-102415625D01*
X183150746Y-102511682D01*
X183311588Y-102615536D01*
X183523183Y-102752162D01*
X183523191Y-102752167D01*
X183525527Y-102753675D01*
X183920335Y-102961394D01*
X183922928Y-102962476D01*
X184329462Y-103132116D01*
X184329467Y-103132118D01*
X184332046Y-103133194D01*
X184334711Y-103134037D01*
X184334717Y-103134039D01*
X184566317Y-103207284D01*
X184757398Y-103267715D01*
X184760128Y-103268318D01*
X184760129Y-103268318D01*
X185152664Y-103354982D01*
X185193025Y-103363893D01*
X185195799Y-103364251D01*
X185195800Y-103364251D01*
X185632707Y-103420608D01*
X185632714Y-103420609D01*
X185635477Y-103420965D01*
X185638264Y-103421075D01*
X185638270Y-103421075D01*
X185896519Y-103431221D01*
X186081251Y-103438479D01*
X186084043Y-103438340D01*
X186084048Y-103438340D01*
X186524013Y-103416438D01*
X186524022Y-103416437D01*
X186526817Y-103416298D01*
X186529594Y-103415910D01*
X186529596Y-103415910D01*
X186607542Y-103405025D01*
X186968647Y-103354596D01*
X186971357Y-103353968D01*
X186971367Y-103353966D01*
X187400515Y-103254494D01*
X187403242Y-103253862D01*
X187625990Y-103180842D01*
X187824510Y-103115764D01*
X187824516Y-103115762D01*
X187827163Y-103114894D01*
X188237052Y-102938791D01*
X188629664Y-102726950D01*
X189001890Y-102481046D01*
X189350782Y-102203026D01*
X189673580Y-101895093D01*
X189907125Y-101628785D01*
X189965874Y-101561795D01*
X189965877Y-101561791D01*
X189967725Y-101559684D01*
X189995751Y-101521322D01*
X190175159Y-101275743D01*
X190230891Y-101199455D01*
X190232337Y-101197054D01*
X190459541Y-100819669D01*
X190459546Y-100819660D01*
X190460992Y-100817258D01*
X190648440Y-100432081D01*
X190654974Y-100418654D01*
X190654975Y-100418651D01*
X190656207Y-100416120D01*
X190786177Y-100074869D01*
X190813994Y-100001832D01*
X190813996Y-100001825D01*
X190814990Y-99999216D01*
X190936085Y-99569848D01*
X190936601Y-99567105D01*
X191018015Y-99134162D01*
X191018017Y-99134150D01*
X191018531Y-99131415D01*
X191049709Y-98810559D01*
X191061462Y-98689606D01*
X191061463Y-98689594D01*
X191061677Y-98687389D01*
X191068548Y-98425000D01*
X207766445Y-98425000D01*
X207786651Y-98810559D01*
X207787164Y-98813799D01*
X207787165Y-98813807D01*
X207804819Y-98925268D01*
X207847049Y-99191894D01*
X207946976Y-99564826D01*
X207948161Y-99567914D01*
X207948162Y-99567916D01*
X207967445Y-99618149D01*
X208085337Y-99925270D01*
X208086835Y-99928210D01*
X208163021Y-100077732D01*
X208260618Y-100269277D01*
X208262414Y-100272043D01*
X208262416Y-100272046D01*
X208366344Y-100432081D01*
X208470896Y-100593078D01*
X208713869Y-100893125D01*
X208986875Y-101166131D01*
X209286922Y-101409104D01*
X209289697Y-101410906D01*
X209584825Y-101602564D01*
X209610722Y-101619382D01*
X209613656Y-101620877D01*
X209613663Y-101620881D01*
X209889946Y-101761654D01*
X209954730Y-101794663D01*
X210114097Y-101855838D01*
X210309154Y-101930713D01*
X210315174Y-101933024D01*
X210688106Y-102032951D01*
X210890643Y-102065030D01*
X211066193Y-102092835D01*
X211066201Y-102092836D01*
X211069441Y-102093349D01*
X211455000Y-102113555D01*
X211840559Y-102093349D01*
X211843799Y-102092836D01*
X211843807Y-102092835D01*
X212019357Y-102065030D01*
X212221894Y-102032951D01*
X212594826Y-101933024D01*
X212600847Y-101930713D01*
X212795903Y-101855838D01*
X212955270Y-101794663D01*
X213020054Y-101761654D01*
X213296337Y-101620881D01*
X213296344Y-101620877D01*
X213299278Y-101619382D01*
X213325176Y-101602564D01*
X213620303Y-101410906D01*
X213623078Y-101409104D01*
X213923125Y-101166131D01*
X214196131Y-100893125D01*
X214439104Y-100593078D01*
X214543656Y-100432081D01*
X214647584Y-100272046D01*
X214647586Y-100272043D01*
X214649382Y-100269277D01*
X214746980Y-100077732D01*
X214823165Y-99928210D01*
X214824663Y-99925270D01*
X214942555Y-99618149D01*
X214961838Y-99567916D01*
X214961839Y-99567914D01*
X214963024Y-99564826D01*
X215062951Y-99191894D01*
X215105181Y-98925268D01*
X215122835Y-98813807D01*
X215122836Y-98813799D01*
X215123349Y-98810559D01*
X215143555Y-98425000D01*
X215140582Y-98368266D01*
X232792001Y-98368266D01*
X232792109Y-98371356D01*
X232792499Y-98382534D01*
X232805646Y-98759000D01*
X232805856Y-98765016D01*
X232806262Y-98768060D01*
X232806263Y-98768070D01*
X232812366Y-98813807D01*
X232858361Y-99158521D01*
X232859061Y-99161505D01*
X232859062Y-99161511D01*
X232911492Y-99385047D01*
X232949014Y-99545023D01*
X233076951Y-99920835D01*
X233240950Y-100282369D01*
X233439446Y-100626174D01*
X233441235Y-100628672D01*
X233441237Y-100628676D01*
X233638528Y-100904249D01*
X233670544Y-100948969D01*
X233672571Y-100951284D01*
X233672573Y-100951287D01*
X233837604Y-101139800D01*
X233932038Y-101247671D01*
X233934286Y-101249782D01*
X234219178Y-101517314D01*
X234219185Y-101517320D01*
X234221433Y-101519431D01*
X234223883Y-101521318D01*
X234223888Y-101521322D01*
X234459304Y-101702617D01*
X234535965Y-101761654D01*
X234538564Y-101763278D01*
X234538574Y-101763285D01*
X234719998Y-101876650D01*
X234872634Y-101972027D01*
X235228224Y-102148544D01*
X235599342Y-102289518D01*
X235982446Y-102393605D01*
X235985489Y-102394120D01*
X235985495Y-102394121D01*
X236370837Y-102459297D01*
X236370844Y-102459298D01*
X236373878Y-102459811D01*
X236376949Y-102460026D01*
X236376951Y-102460026D01*
X236766837Y-102487290D01*
X236766845Y-102487290D01*
X236769903Y-102487504D01*
X237026170Y-102480346D01*
X237163666Y-102476505D01*
X237163669Y-102476505D01*
X237166740Y-102476419D01*
X237169793Y-102476033D01*
X237169797Y-102476033D01*
X237358315Y-102452218D01*
X237560601Y-102426663D01*
X237563605Y-102425981D01*
X237563608Y-102425980D01*
X237944731Y-102339391D01*
X237944737Y-102339389D01*
X237947727Y-102338710D01*
X238095604Y-102289518D01*
X238321499Y-102214373D01*
X238321505Y-102214371D01*
X238324423Y-102213400D01*
X238327233Y-102212149D01*
X238684294Y-102053176D01*
X238684300Y-102053173D01*
X238687094Y-102051929D01*
X238719593Y-102033467D01*
X239029603Y-101857357D01*
X239029611Y-101857352D01*
X239032276Y-101855838D01*
X239356676Y-101626999D01*
X239365501Y-101619382D01*
X239654859Y-101369614D01*
X239657197Y-101367596D01*
X239659318Y-101365369D01*
X239659324Y-101365363D01*
X239928853Y-101082329D01*
X239930970Y-101080106D01*
X239933481Y-101076893D01*
X240173472Y-100769717D01*
X240173474Y-100769714D01*
X240175382Y-100767272D01*
X240177038Y-100764662D01*
X240177044Y-100764654D01*
X240386447Y-100434688D01*
X240386451Y-100434681D01*
X240388101Y-100432081D01*
X240394884Y-100418654D01*
X240490235Y-100229890D01*
X240567096Y-100077732D01*
X240568203Y-100074878D01*
X240568207Y-100074869D01*
X240709543Y-99710483D01*
X240709546Y-99710474D01*
X240710658Y-99707607D01*
X240800718Y-99385047D01*
X240816589Y-99328205D01*
X240816590Y-99328203D01*
X240817417Y-99325239D01*
X240886354Y-98934278D01*
X240916811Y-98538457D01*
X240918395Y-98425000D01*
X240917030Y-98397077D01*
X240901813Y-98085967D01*
X240899002Y-98028482D01*
X240892158Y-97982132D01*
X240841458Y-97638795D01*
X240841457Y-97638791D01*
X240841008Y-97635749D01*
X240744967Y-97250550D01*
X240726728Y-97199327D01*
X240646235Y-96973278D01*
X240611796Y-96876561D01*
X240459287Y-96552462D01*
X240444077Y-96520140D01*
X240444076Y-96520139D01*
X240442765Y-96517352D01*
X240413015Y-96467445D01*
X240291823Y-96264145D01*
X240239488Y-96176352D01*
X240003906Y-95856815D01*
X239738266Y-95561793D01*
X239445105Y-95294100D01*
X239127222Y-95056293D01*
X239078370Y-95026707D01*
X238790277Y-94852231D01*
X238790268Y-94852226D01*
X238787649Y-94850640D01*
X238429629Y-94679106D01*
X238370229Y-94657486D01*
X238059475Y-94544381D01*
X238059474Y-94544381D01*
X238056579Y-94543327D01*
X237713994Y-94455366D01*
X237675043Y-94445365D01*
X237675040Y-94445364D01*
X237672059Y-94444599D01*
X237279740Y-94383865D01*
X237276683Y-94383694D01*
X237276682Y-94383694D01*
X237247924Y-94382086D01*
X236883368Y-94361704D01*
X236880290Y-94361833D01*
X236880286Y-94361833D01*
X236621983Y-94372659D01*
X236486724Y-94378328D01*
X236483680Y-94378756D01*
X236483678Y-94378756D01*
X236443989Y-94384334D01*
X236093596Y-94433579D01*
X235707735Y-94526928D01*
X235332825Y-94657486D01*
X235286035Y-94679106D01*
X234975242Y-94822712D01*
X234975232Y-94822717D01*
X234972445Y-94824005D01*
X234630034Y-95024896D01*
X234504782Y-95115897D01*
X234311342Y-95256439D01*
X234311336Y-95256444D01*
X234308861Y-95258242D01*
X234306575Y-95260271D01*
X234306572Y-95260274D01*
X234153563Y-95396122D01*
X234011991Y-95521815D01*
X234009901Y-95524072D01*
X234009899Y-95524074D01*
X233744354Y-95810837D01*
X233744349Y-95810843D01*
X233742259Y-95813100D01*
X233740399Y-95815550D01*
X233740396Y-95815554D01*
X233707202Y-95859286D01*
X233502238Y-96129316D01*
X233500627Y-96131934D01*
X233500624Y-96131939D01*
X233295834Y-96464821D01*
X233294220Y-96467445D01*
X233120190Y-96824258D01*
X233119119Y-96827139D01*
X233119116Y-96827145D01*
X233064770Y-96973278D01*
X232981810Y-97196352D01*
X232880400Y-97580173D01*
X232879909Y-97583206D01*
X232836899Y-97848757D01*
X232816928Y-97972058D01*
X232816734Y-97975138D01*
X232816734Y-97975140D01*
X232796512Y-98296571D01*
X232792001Y-98368266D01*
X215140582Y-98368266D01*
X215123349Y-98039441D01*
X215122725Y-98035498D01*
X215063467Y-97661367D01*
X215062951Y-97658106D01*
X214963024Y-97285174D01*
X214950886Y-97253552D01*
X214825847Y-96927815D01*
X214824663Y-96924730D01*
X214772058Y-96821487D01*
X214650881Y-96583664D01*
X214650877Y-96583657D01*
X214649382Y-96580723D01*
X214598703Y-96502683D01*
X214440906Y-96259697D01*
X214439104Y-96256922D01*
X214196131Y-95956875D01*
X213923125Y-95683869D01*
X213623078Y-95440896D01*
X213394194Y-95292257D01*
X213302047Y-95232416D01*
X213302044Y-95232414D01*
X213299278Y-95230618D01*
X213296344Y-95229123D01*
X213296337Y-95229119D01*
X212958210Y-95056835D01*
X212955270Y-95055337D01*
X212594826Y-94916976D01*
X212221894Y-94817049D01*
X212019357Y-94784970D01*
X211843807Y-94757165D01*
X211843799Y-94757164D01*
X211840559Y-94756651D01*
X211455000Y-94736445D01*
X211069441Y-94756651D01*
X211066201Y-94757164D01*
X211066193Y-94757165D01*
X210890643Y-94784970D01*
X210688106Y-94817049D01*
X210315174Y-94916976D01*
X209954730Y-95055337D01*
X209951790Y-95056835D01*
X209613664Y-95229119D01*
X209613657Y-95229123D01*
X209610723Y-95230618D01*
X209607957Y-95232414D01*
X209607954Y-95232416D01*
X209481905Y-95314273D01*
X209286922Y-95440896D01*
X208986875Y-95683869D01*
X208713869Y-95956875D01*
X208470896Y-96256922D01*
X208469094Y-96259697D01*
X208311298Y-96502683D01*
X208260618Y-96580723D01*
X208259123Y-96583657D01*
X208259119Y-96583664D01*
X208137942Y-96821487D01*
X208085337Y-96924730D01*
X208084153Y-96927815D01*
X207959115Y-97253552D01*
X207946976Y-97285174D01*
X207847049Y-97658106D01*
X207846533Y-97661367D01*
X207787276Y-98035498D01*
X207786651Y-98039441D01*
X207767908Y-98397077D01*
X207766445Y-98425000D01*
X191068548Y-98425000D01*
X191048700Y-97979324D01*
X190989312Y-97537177D01*
X190954821Y-97384746D01*
X190891472Y-97104788D01*
X190890855Y-97102060D01*
X190754108Y-96677417D01*
X190747416Y-96661612D01*
X190581245Y-96269186D01*
X190581245Y-96269185D01*
X190580155Y-96266612D01*
X190576471Y-96259697D01*
X190371679Y-95875351D01*
X190370371Y-95872896D01*
X190368850Y-95870567D01*
X190127944Y-95501721D01*
X190127941Y-95501717D01*
X190126420Y-95499388D01*
X190043192Y-95393813D01*
X189851960Y-95151237D01*
X189851958Y-95151235D01*
X189850231Y-95149044D01*
X189543992Y-94824639D01*
X189379786Y-94679106D01*
X189212234Y-94530607D01*
X189212227Y-94530602D01*
X189210128Y-94528741D01*
X188851282Y-94263694D01*
X188650449Y-94141345D01*
X188472684Y-94033049D01*
X188472677Y-94033045D01*
X188470295Y-94031594D01*
X188347964Y-93971267D01*
X188072696Y-93835521D01*
X188070184Y-93834282D01*
X187654118Y-93673318D01*
X187517562Y-93634032D01*
X187228071Y-93550748D01*
X187228065Y-93550746D01*
X187225390Y-93549977D01*
X187222653Y-93549448D01*
X187222647Y-93549446D01*
X187071581Y-93520219D01*
X186787394Y-93465236D01*
X186784617Y-93464951D01*
X186784607Y-93464950D01*
X186509789Y-93436793D01*
X186343600Y-93419765D01*
X186340810Y-93419728D01*
X186340802Y-93419728D01*
X186062276Y-93416083D01*
X185897521Y-93413926D01*
X185894721Y-93414139D01*
X185894720Y-93414139D01*
X185455475Y-93447551D01*
X185452688Y-93447763D01*
X185012625Y-93521010D01*
X184922566Y-93544385D01*
X184583533Y-93632380D01*
X184583522Y-93632383D01*
X184580815Y-93633086D01*
X184312441Y-93728913D01*
X184163320Y-93782159D01*
X184163315Y-93782161D01*
X184160677Y-93783103D01*
X184158137Y-93784274D01*
X184158132Y-93784276D01*
X184049661Y-93834282D01*
X183755538Y-93969875D01*
X183368607Y-94191921D01*
X183366315Y-94193523D01*
X183366307Y-94193528D01*
X183125681Y-94361704D01*
X183002945Y-94447485D01*
X183000804Y-94449285D01*
X183000801Y-94449287D01*
X182673818Y-94724146D01*
X182661450Y-94734542D01*
X182659476Y-94736526D01*
X182659472Y-94736530D01*
X182572454Y-94824005D01*
X182346824Y-95050819D01*
X182345030Y-95052975D01*
X182345030Y-95052976D01*
X182343066Y-95055337D01*
X182061559Y-95393813D01*
X181807914Y-95760808D01*
X181587896Y-96148897D01*
X181586737Y-96151446D01*
X181586735Y-96151450D01*
X181404405Y-96552462D01*
X181404400Y-96552473D01*
X181403248Y-96555008D01*
X181402326Y-96557634D01*
X181402321Y-96557646D01*
X181325152Y-96777394D01*
X181255433Y-96975925D01*
X181254742Y-96978645D01*
X181254741Y-96978649D01*
X181185687Y-97250550D01*
X181145619Y-97408316D01*
X181145176Y-97411066D01*
X181145174Y-97411076D01*
X181088673Y-97761868D01*
X181074678Y-97848757D01*
X181074480Y-97851558D01*
X181074479Y-97851564D01*
X181061953Y-98028482D01*
X181043170Y-98293761D01*
X116713500Y-98293761D01*
X116713500Y-83147670D01*
X140737160Y-83147670D01*
X140742887Y-83155320D01*
X140914042Y-83260205D01*
X140922837Y-83264687D01*
X141132988Y-83351734D01*
X141142373Y-83354783D01*
X141363554Y-83407885D01*
X141373301Y-83409428D01*
X141600070Y-83427275D01*
X141609930Y-83427275D01*
X141836699Y-83409428D01*
X141846446Y-83407885D01*
X142067627Y-83354783D01*
X142077012Y-83351734D01*
X142287163Y-83264687D01*
X142295958Y-83260205D01*
X142463445Y-83157568D01*
X142472907Y-83147110D01*
X142469124Y-83138334D01*
X141617812Y-82287022D01*
X141603868Y-82279408D01*
X141602035Y-82279539D01*
X141595420Y-82283790D01*
X140743920Y-83135290D01*
X140737160Y-83147670D01*
X116713500Y-83147670D01*
X116713500Y-81919930D01*
X140092725Y-81919930D01*
X140110572Y-82146699D01*
X140112115Y-82156446D01*
X140165217Y-82377627D01*
X140168266Y-82387012D01*
X140255313Y-82597163D01*
X140259795Y-82605958D01*
X140362432Y-82773445D01*
X140372890Y-82782907D01*
X140381666Y-82779124D01*
X141232978Y-81927812D01*
X141239356Y-81916132D01*
X141969408Y-81916132D01*
X141969539Y-81917965D01*
X141973790Y-81924580D01*
X142825290Y-82776080D01*
X142837670Y-82782840D01*
X142845320Y-82777113D01*
X142950205Y-82605958D01*
X142954687Y-82597163D01*
X143041734Y-82387012D01*
X143044783Y-82377627D01*
X143097885Y-82156446D01*
X143099428Y-82146699D01*
X143117275Y-81919930D01*
X143117275Y-81910070D01*
X143099428Y-81683301D01*
X143097885Y-81673554D01*
X143044783Y-81452373D01*
X143041734Y-81442988D01*
X142954687Y-81232837D01*
X142950205Y-81224042D01*
X142847568Y-81056555D01*
X142837110Y-81047093D01*
X142828334Y-81050876D01*
X141977022Y-81902188D01*
X141969408Y-81916132D01*
X141239356Y-81916132D01*
X141240592Y-81913868D01*
X141240461Y-81912035D01*
X141236210Y-81905420D01*
X140384710Y-81053920D01*
X140372330Y-81047160D01*
X140364680Y-81052887D01*
X140259795Y-81224042D01*
X140255313Y-81232837D01*
X140168266Y-81442988D01*
X140165217Y-81452373D01*
X140112115Y-81673554D01*
X140110572Y-81683301D01*
X140092725Y-81910070D01*
X140092725Y-81919930D01*
X116713500Y-81919930D01*
X116713500Y-80682890D01*
X140737093Y-80682890D01*
X140740876Y-80691666D01*
X141592188Y-81542978D01*
X141606132Y-81550592D01*
X141607965Y-81550461D01*
X141614580Y-81546210D01*
X142466080Y-80694710D01*
X142472840Y-80682330D01*
X142467113Y-80674680D01*
X142295958Y-80569795D01*
X142287163Y-80565313D01*
X142077012Y-80478266D01*
X142067627Y-80475217D01*
X141846446Y-80422115D01*
X141836699Y-80420572D01*
X141609930Y-80402725D01*
X141600070Y-80402725D01*
X141373301Y-80420572D01*
X141363554Y-80422115D01*
X141142373Y-80475217D01*
X141132988Y-80478266D01*
X140922837Y-80565313D01*
X140914042Y-80569795D01*
X140746555Y-80672432D01*
X140737093Y-80682890D01*
X116713500Y-80682890D01*
X116713500Y-72968266D01*
X137542001Y-72968266D01*
X137542109Y-72971356D01*
X137542499Y-72982534D01*
X137554347Y-73321798D01*
X137555856Y-73365016D01*
X137556262Y-73368060D01*
X137556263Y-73368070D01*
X137562366Y-73413807D01*
X137608361Y-73758521D01*
X137609061Y-73761505D01*
X137609062Y-73761511D01*
X137661492Y-73985047D01*
X137699014Y-74145023D01*
X137826951Y-74520835D01*
X137990950Y-74882369D01*
X138189446Y-75226174D01*
X138191235Y-75228672D01*
X138191237Y-75228676D01*
X138388528Y-75504249D01*
X138420544Y-75548969D01*
X138422571Y-75551284D01*
X138422573Y-75551287D01*
X138587604Y-75739800D01*
X138682038Y-75847671D01*
X138684286Y-75849782D01*
X138969178Y-76117314D01*
X138969185Y-76117320D01*
X138971433Y-76119431D01*
X138973883Y-76121318D01*
X138973888Y-76121322D01*
X139283522Y-76359773D01*
X139285965Y-76361654D01*
X139288564Y-76363278D01*
X139288574Y-76363285D01*
X139469998Y-76476650D01*
X139622634Y-76572027D01*
X139978224Y-76748544D01*
X140349342Y-76889518D01*
X140732446Y-76993605D01*
X140735489Y-76994120D01*
X140735495Y-76994121D01*
X141120837Y-77059297D01*
X141120844Y-77059298D01*
X141123878Y-77059811D01*
X141126949Y-77060026D01*
X141126951Y-77060026D01*
X141516837Y-77087290D01*
X141516845Y-77087290D01*
X141519903Y-77087504D01*
X141776170Y-77080346D01*
X141913666Y-77076505D01*
X141913669Y-77076505D01*
X141916740Y-77076419D01*
X141919793Y-77076033D01*
X141919797Y-77076033D01*
X142108315Y-77052218D01*
X142310601Y-77026663D01*
X142313605Y-77025981D01*
X142313608Y-77025980D01*
X142694731Y-76939391D01*
X142694737Y-76939389D01*
X142697727Y-76938710D01*
X142845604Y-76889518D01*
X143071499Y-76814373D01*
X143071505Y-76814371D01*
X143074423Y-76813400D01*
X143217633Y-76749639D01*
X143434294Y-76653176D01*
X143434300Y-76653173D01*
X143437094Y-76651929D01*
X143469593Y-76633467D01*
X143779603Y-76457357D01*
X143779611Y-76457352D01*
X143782276Y-76455838D01*
X144106676Y-76226999D01*
X144115501Y-76219382D01*
X144404859Y-75969614D01*
X144407197Y-75967596D01*
X144409318Y-75965369D01*
X144409324Y-75965363D01*
X144678853Y-75682329D01*
X144680970Y-75680106D01*
X144683481Y-75676893D01*
X144923472Y-75369717D01*
X144923474Y-75369714D01*
X144925382Y-75367272D01*
X144927038Y-75364662D01*
X144927044Y-75364654D01*
X145136447Y-75034688D01*
X145136451Y-75034681D01*
X145138101Y-75032081D01*
X145164390Y-74980039D01*
X145240235Y-74829890D01*
X145317096Y-74677732D01*
X145318203Y-74674878D01*
X145318207Y-74674869D01*
X145459543Y-74310483D01*
X145459546Y-74310474D01*
X145460658Y-74307607D01*
X145550718Y-73985047D01*
X145566589Y-73928205D01*
X145566590Y-73928203D01*
X145567417Y-73925239D01*
X145636354Y-73534278D01*
X145666811Y-73138457D01*
X145668395Y-73025000D01*
X252216445Y-73025000D01*
X252236651Y-73410559D01*
X252237164Y-73413799D01*
X252237165Y-73413807D01*
X252255762Y-73531222D01*
X252297049Y-73791894D01*
X252396976Y-74164826D01*
X252535337Y-74525270D01*
X252536835Y-74528210D01*
X252613021Y-74677732D01*
X252710618Y-74869277D01*
X252712414Y-74872043D01*
X252712416Y-74872046D01*
X252816344Y-75032081D01*
X252920896Y-75193078D01*
X253163869Y-75493125D01*
X253436875Y-75766131D01*
X253736922Y-76009104D01*
X254060722Y-76219382D01*
X254063656Y-76220877D01*
X254063663Y-76220881D01*
X254339946Y-76361654D01*
X254404730Y-76394663D01*
X254765174Y-76533024D01*
X255138106Y-76632951D01*
X255340643Y-76665030D01*
X255516193Y-76692835D01*
X255516201Y-76692836D01*
X255519441Y-76693349D01*
X255905000Y-76713555D01*
X256290559Y-76693349D01*
X256293799Y-76692836D01*
X256293807Y-76692835D01*
X256469357Y-76665030D01*
X256671894Y-76632951D01*
X257044826Y-76533024D01*
X257405270Y-76394663D01*
X257470054Y-76361654D01*
X257746337Y-76220881D01*
X257746344Y-76220877D01*
X257749278Y-76219382D01*
X258073078Y-76009104D01*
X258373125Y-75766131D01*
X258646131Y-75493125D01*
X258889104Y-75193078D01*
X258993656Y-75032081D01*
X259097584Y-74872046D01*
X259097586Y-74872043D01*
X259099382Y-74869277D01*
X259196980Y-74677732D01*
X259273165Y-74528210D01*
X259274663Y-74525270D01*
X259413024Y-74164826D01*
X259512951Y-73791894D01*
X259554238Y-73531222D01*
X259572835Y-73413807D01*
X259572836Y-73413799D01*
X259573349Y-73410559D01*
X259593555Y-73025000D01*
X259590582Y-72968266D01*
X277242001Y-72968266D01*
X277242109Y-72971356D01*
X277242499Y-72982534D01*
X277254347Y-73321798D01*
X277255856Y-73365016D01*
X277256262Y-73368060D01*
X277256263Y-73368070D01*
X277262366Y-73413807D01*
X277308361Y-73758521D01*
X277309061Y-73761505D01*
X277309062Y-73761511D01*
X277361492Y-73985047D01*
X277399014Y-74145023D01*
X277526951Y-74520835D01*
X277690950Y-74882369D01*
X277889446Y-75226174D01*
X277891235Y-75228672D01*
X277891237Y-75228676D01*
X278088528Y-75504249D01*
X278120544Y-75548969D01*
X278122571Y-75551284D01*
X278122573Y-75551287D01*
X278287604Y-75739800D01*
X278382038Y-75847671D01*
X278384286Y-75849782D01*
X278669178Y-76117314D01*
X278669185Y-76117320D01*
X278671433Y-76119431D01*
X278673883Y-76121318D01*
X278673888Y-76121322D01*
X278983522Y-76359773D01*
X278985965Y-76361654D01*
X278988564Y-76363278D01*
X278988574Y-76363285D01*
X279169998Y-76476650D01*
X279322634Y-76572027D01*
X279678224Y-76748544D01*
X280049342Y-76889518D01*
X280432446Y-76993605D01*
X280435489Y-76994120D01*
X280435495Y-76994121D01*
X280820837Y-77059297D01*
X280820844Y-77059298D01*
X280823878Y-77059811D01*
X280826949Y-77060026D01*
X280826951Y-77060026D01*
X281216837Y-77087290D01*
X281216845Y-77087290D01*
X281219903Y-77087504D01*
X281476170Y-77080346D01*
X281613666Y-77076505D01*
X281613669Y-77076505D01*
X281616740Y-77076419D01*
X281619793Y-77076033D01*
X281619797Y-77076033D01*
X281808315Y-77052218D01*
X282010601Y-77026663D01*
X282013605Y-77025981D01*
X282013608Y-77025980D01*
X282394731Y-76939391D01*
X282394737Y-76939389D01*
X282397727Y-76938710D01*
X282545604Y-76889518D01*
X282771499Y-76814373D01*
X282771505Y-76814371D01*
X282774423Y-76813400D01*
X282917633Y-76749639D01*
X283134294Y-76653176D01*
X283134300Y-76653173D01*
X283137094Y-76651929D01*
X283169593Y-76633467D01*
X283479603Y-76457357D01*
X283479611Y-76457352D01*
X283482276Y-76455838D01*
X283806676Y-76226999D01*
X283815501Y-76219382D01*
X284104859Y-75969614D01*
X284107197Y-75967596D01*
X284109318Y-75965369D01*
X284109324Y-75965363D01*
X284378853Y-75682329D01*
X284380970Y-75680106D01*
X284383481Y-75676893D01*
X284623472Y-75369717D01*
X284623474Y-75369714D01*
X284625382Y-75367272D01*
X284627038Y-75364662D01*
X284627044Y-75364654D01*
X284836447Y-75034688D01*
X284836451Y-75034681D01*
X284838101Y-75032081D01*
X284864390Y-74980039D01*
X284940235Y-74829890D01*
X285017096Y-74677732D01*
X285018203Y-74674878D01*
X285018207Y-74674869D01*
X285159543Y-74310483D01*
X285159546Y-74310474D01*
X285160658Y-74307607D01*
X285250718Y-73985047D01*
X285266589Y-73928205D01*
X285266590Y-73928203D01*
X285267417Y-73925239D01*
X285336354Y-73534278D01*
X285366811Y-73138457D01*
X285368395Y-73025000D01*
X285367030Y-72997077D01*
X285351813Y-72685967D01*
X285349002Y-72628482D01*
X285309632Y-72361868D01*
X285291458Y-72238795D01*
X285291457Y-72238791D01*
X285291008Y-72235749D01*
X285194967Y-71850550D01*
X285176728Y-71799327D01*
X285130140Y-71668494D01*
X285061796Y-71476561D01*
X284892765Y-71117352D01*
X284863015Y-71067445D01*
X284752380Y-70881855D01*
X284689488Y-70776352D01*
X284453906Y-70456815D01*
X284188266Y-70161793D01*
X283895105Y-69894100D01*
X283577222Y-69656293D01*
X283528370Y-69626707D01*
X283240277Y-69452231D01*
X283240268Y-69452226D01*
X283237649Y-69450640D01*
X282879629Y-69279106D01*
X282820229Y-69257486D01*
X282509475Y-69144381D01*
X282509474Y-69144381D01*
X282506579Y-69143327D01*
X282299688Y-69090206D01*
X282125043Y-69045365D01*
X282125040Y-69045364D01*
X282122059Y-69044599D01*
X281729740Y-68983865D01*
X281726683Y-68983694D01*
X281726682Y-68983694D01*
X281697924Y-68982086D01*
X281333368Y-68961704D01*
X281330290Y-68961833D01*
X281330286Y-68961833D01*
X281071983Y-68972659D01*
X280936724Y-68978328D01*
X280933680Y-68978756D01*
X280933678Y-68978756D01*
X280893989Y-68984334D01*
X280543596Y-69033579D01*
X280157735Y-69126928D01*
X279782825Y-69257486D01*
X279736035Y-69279106D01*
X279425242Y-69422712D01*
X279425232Y-69422717D01*
X279422445Y-69424005D01*
X279080034Y-69624896D01*
X279039018Y-69654696D01*
X278761342Y-69856439D01*
X278761336Y-69856444D01*
X278758861Y-69858242D01*
X278756575Y-69860271D01*
X278756572Y-69860274D01*
X278716134Y-69896177D01*
X278461991Y-70121815D01*
X278459901Y-70124072D01*
X278459899Y-70124074D01*
X278194354Y-70410837D01*
X278194349Y-70410843D01*
X278192259Y-70413100D01*
X278190399Y-70415550D01*
X278190396Y-70415554D01*
X278157202Y-70459286D01*
X277952238Y-70729316D01*
X277950627Y-70731934D01*
X277950624Y-70731939D01*
X277745834Y-71064821D01*
X277744220Y-71067445D01*
X277570190Y-71424258D01*
X277569119Y-71427139D01*
X277569116Y-71427145D01*
X277483146Y-71658313D01*
X277431810Y-71796352D01*
X277330400Y-72180173D01*
X277266928Y-72572058D01*
X277266734Y-72575138D01*
X277266734Y-72575140D01*
X277259762Y-72685967D01*
X277242001Y-72968266D01*
X259590582Y-72968266D01*
X259573349Y-72639441D01*
X259572100Y-72631552D01*
X259513467Y-72261367D01*
X259512951Y-72258106D01*
X259413024Y-71885174D01*
X259400886Y-71853552D01*
X259275847Y-71527815D01*
X259274663Y-71524730D01*
X259222058Y-71421487D01*
X259100881Y-71183664D01*
X259100877Y-71183657D01*
X259099382Y-71180723D01*
X259048703Y-71102683D01*
X258890906Y-70859697D01*
X258889104Y-70856922D01*
X258646131Y-70556875D01*
X258373125Y-70283869D01*
X258073078Y-70040896D01*
X257844194Y-69892257D01*
X257752047Y-69832416D01*
X257752044Y-69832414D01*
X257749278Y-69830618D01*
X257746344Y-69829123D01*
X257746337Y-69829119D01*
X257408210Y-69656835D01*
X257405270Y-69655337D01*
X257044826Y-69516976D01*
X256671894Y-69417049D01*
X256469357Y-69384970D01*
X256293807Y-69357165D01*
X256293799Y-69357164D01*
X256290559Y-69356651D01*
X255905000Y-69336445D01*
X255519441Y-69356651D01*
X255516201Y-69357164D01*
X255516193Y-69357165D01*
X255340643Y-69384970D01*
X255138106Y-69417049D01*
X254765174Y-69516976D01*
X254404730Y-69655337D01*
X254401790Y-69656835D01*
X254063664Y-69829119D01*
X254063657Y-69829123D01*
X254060723Y-69830618D01*
X254057957Y-69832414D01*
X254057954Y-69832416D01*
X253844166Y-69971251D01*
X253736922Y-70040896D01*
X253436875Y-70283869D01*
X253163869Y-70556875D01*
X252920896Y-70856922D01*
X252919094Y-70859697D01*
X252761298Y-71102683D01*
X252710618Y-71180723D01*
X252709123Y-71183657D01*
X252709119Y-71183664D01*
X252587942Y-71421487D01*
X252535337Y-71524730D01*
X252534153Y-71527815D01*
X252409115Y-71853552D01*
X252396976Y-71885174D01*
X252297049Y-72258106D01*
X252296533Y-72261367D01*
X252237901Y-72631552D01*
X252236651Y-72639441D01*
X252217908Y-72997077D01*
X252216445Y-73025000D01*
X145668395Y-73025000D01*
X145667030Y-72997077D01*
X145651813Y-72685967D01*
X145649002Y-72628482D01*
X145609632Y-72361868D01*
X145591458Y-72238795D01*
X145591457Y-72238791D01*
X145591008Y-72235749D01*
X145494967Y-71850550D01*
X145476728Y-71799327D01*
X145430140Y-71668494D01*
X145361796Y-71476561D01*
X145192765Y-71117352D01*
X145163015Y-71067445D01*
X145052380Y-70881855D01*
X144989488Y-70776352D01*
X144753906Y-70456815D01*
X144488266Y-70161793D01*
X144195105Y-69894100D01*
X143877222Y-69656293D01*
X143828370Y-69626707D01*
X143540277Y-69452231D01*
X143540268Y-69452226D01*
X143537649Y-69450640D01*
X143179629Y-69279106D01*
X143120229Y-69257486D01*
X142809475Y-69144381D01*
X142809474Y-69144381D01*
X142806579Y-69143327D01*
X142599688Y-69090206D01*
X142425043Y-69045365D01*
X142425040Y-69045364D01*
X142422059Y-69044599D01*
X142029740Y-68983865D01*
X142026683Y-68983694D01*
X142026682Y-68983694D01*
X141997924Y-68982086D01*
X141633368Y-68961704D01*
X141630290Y-68961833D01*
X141630286Y-68961833D01*
X141371983Y-68972659D01*
X141236724Y-68978328D01*
X141233680Y-68978756D01*
X141233678Y-68978756D01*
X141193989Y-68984334D01*
X140843596Y-69033579D01*
X140457735Y-69126928D01*
X140082825Y-69257486D01*
X140036035Y-69279106D01*
X139725242Y-69422712D01*
X139725232Y-69422717D01*
X139722445Y-69424005D01*
X139380034Y-69624896D01*
X139339018Y-69654696D01*
X139061342Y-69856439D01*
X139061336Y-69856444D01*
X139058861Y-69858242D01*
X139056575Y-69860271D01*
X139056572Y-69860274D01*
X139016134Y-69896177D01*
X138761991Y-70121815D01*
X138759901Y-70124072D01*
X138759899Y-70124074D01*
X138494354Y-70410837D01*
X138494349Y-70410843D01*
X138492259Y-70413100D01*
X138490399Y-70415550D01*
X138490396Y-70415554D01*
X138457202Y-70459286D01*
X138252238Y-70729316D01*
X138250627Y-70731934D01*
X138250624Y-70731939D01*
X138045834Y-71064821D01*
X138044220Y-71067445D01*
X137870190Y-71424258D01*
X137869119Y-71427139D01*
X137869116Y-71427145D01*
X137783146Y-71658313D01*
X137731810Y-71796352D01*
X137630400Y-72180173D01*
X137566928Y-72572058D01*
X137566734Y-72575138D01*
X137566734Y-72575140D01*
X137559762Y-72685967D01*
X137542001Y-72968266D01*
X116713500Y-72968266D01*
X116713500Y-47493761D01*
X181043170Y-47493761D01*
X181044554Y-47569270D01*
X181051345Y-47939803D01*
X181051644Y-47942578D01*
X181096785Y-48361511D01*
X181099138Y-48383353D01*
X181099683Y-48386094D01*
X181099684Y-48386099D01*
X181170483Y-48742025D01*
X181186172Y-48820899D01*
X181186959Y-48823580D01*
X181186960Y-48823586D01*
X181211609Y-48907607D01*
X181311756Y-49248976D01*
X181312776Y-49251572D01*
X181312777Y-49251575D01*
X181470350Y-49652623D01*
X181474896Y-49664194D01*
X181536373Y-49787228D01*
X181626336Y-49967272D01*
X181674301Y-50063266D01*
X181908392Y-50443032D01*
X182175315Y-50800485D01*
X182177176Y-50802563D01*
X182177177Y-50802564D01*
X182451884Y-51109268D01*
X182472957Y-51132796D01*
X182474994Y-51134699D01*
X182475001Y-51134706D01*
X182644278Y-51292835D01*
X182798961Y-51437332D01*
X182801157Y-51439045D01*
X182801161Y-51439048D01*
X183027577Y-51615625D01*
X183150746Y-51711682D01*
X183311588Y-51815536D01*
X183523183Y-51952162D01*
X183523191Y-51952167D01*
X183525527Y-51953675D01*
X183920335Y-52161394D01*
X183922928Y-52162476D01*
X184329462Y-52332116D01*
X184329467Y-52332118D01*
X184332046Y-52333194D01*
X184334711Y-52334037D01*
X184334717Y-52334039D01*
X184566317Y-52407284D01*
X184757398Y-52467715D01*
X184760128Y-52468318D01*
X184760129Y-52468318D01*
X185152664Y-52554982D01*
X185193025Y-52563893D01*
X185195799Y-52564251D01*
X185195800Y-52564251D01*
X185632707Y-52620608D01*
X185632714Y-52620609D01*
X185635477Y-52620965D01*
X185638264Y-52621075D01*
X185638270Y-52621075D01*
X185896519Y-52631221D01*
X186081251Y-52638479D01*
X186084043Y-52638340D01*
X186084048Y-52638340D01*
X186524013Y-52616438D01*
X186524022Y-52616437D01*
X186526817Y-52616298D01*
X186529594Y-52615910D01*
X186529596Y-52615910D01*
X186607542Y-52605025D01*
X186968647Y-52554596D01*
X186971357Y-52553968D01*
X186971367Y-52553966D01*
X187400515Y-52454494D01*
X187403242Y-52453862D01*
X187625990Y-52380842D01*
X187824510Y-52315764D01*
X187824516Y-52315762D01*
X187827163Y-52314894D01*
X188237052Y-52138791D01*
X188629664Y-51926950D01*
X189001890Y-51681046D01*
X189350782Y-51403026D01*
X189673580Y-51095093D01*
X189907125Y-50828785D01*
X189965874Y-50761795D01*
X189965877Y-50761791D01*
X189967725Y-50759684D01*
X189995751Y-50721322D01*
X190175159Y-50475743D01*
X190230891Y-50399455D01*
X190232337Y-50397054D01*
X190459541Y-50019669D01*
X190459546Y-50019660D01*
X190460992Y-50017258D01*
X190648440Y-49632081D01*
X190654974Y-49618654D01*
X190654975Y-49618651D01*
X190656207Y-49616120D01*
X190786177Y-49274869D01*
X190813994Y-49201832D01*
X190813996Y-49201825D01*
X190814990Y-49199216D01*
X190936085Y-48769848D01*
X190936601Y-48767105D01*
X191018015Y-48334162D01*
X191018017Y-48334150D01*
X191018531Y-48331415D01*
X191049709Y-48010559D01*
X191061462Y-47889606D01*
X191061463Y-47889594D01*
X191061677Y-47887389D01*
X191068548Y-47625000D01*
X207766445Y-47625000D01*
X207786651Y-48010559D01*
X207787164Y-48013799D01*
X207787165Y-48013807D01*
X207804819Y-48125268D01*
X207847049Y-48391894D01*
X207946976Y-48764826D01*
X207948161Y-48767914D01*
X207948162Y-48767916D01*
X207967445Y-48818149D01*
X208085337Y-49125270D01*
X208086835Y-49128210D01*
X208163021Y-49277732D01*
X208260618Y-49469277D01*
X208262414Y-49472043D01*
X208262416Y-49472046D01*
X208366344Y-49632081D01*
X208470896Y-49793078D01*
X208713869Y-50093125D01*
X208986875Y-50366131D01*
X209286922Y-50609104D01*
X209289697Y-50610906D01*
X209584825Y-50802564D01*
X209610722Y-50819382D01*
X209613656Y-50820877D01*
X209613663Y-50820881D01*
X209889946Y-50961654D01*
X209954730Y-50994663D01*
X210114097Y-51055838D01*
X210309154Y-51130713D01*
X210315174Y-51133024D01*
X210688106Y-51232951D01*
X210890643Y-51265030D01*
X211066193Y-51292835D01*
X211066201Y-51292836D01*
X211069441Y-51293349D01*
X211455000Y-51313555D01*
X211840559Y-51293349D01*
X211843799Y-51292836D01*
X211843807Y-51292835D01*
X212019357Y-51265030D01*
X212221894Y-51232951D01*
X212594826Y-51133024D01*
X212600847Y-51130713D01*
X212795903Y-51055838D01*
X212955270Y-50994663D01*
X213020054Y-50961654D01*
X213296337Y-50820881D01*
X213296344Y-50820877D01*
X213299278Y-50819382D01*
X213325176Y-50802564D01*
X213620303Y-50610906D01*
X213623078Y-50609104D01*
X213923125Y-50366131D01*
X214196131Y-50093125D01*
X214439104Y-49793078D01*
X214543656Y-49632081D01*
X214647584Y-49472046D01*
X214647586Y-49472043D01*
X214649382Y-49469277D01*
X214746980Y-49277732D01*
X214823165Y-49128210D01*
X214824663Y-49125270D01*
X214942555Y-48818149D01*
X214961838Y-48767916D01*
X214961839Y-48767914D01*
X214963024Y-48764826D01*
X215062951Y-48391894D01*
X215105181Y-48125268D01*
X215122835Y-48013807D01*
X215122836Y-48013799D01*
X215123349Y-48010559D01*
X215143555Y-47625000D01*
X215140582Y-47568266D01*
X232792001Y-47568266D01*
X232792109Y-47571356D01*
X232792499Y-47582534D01*
X232805646Y-47959000D01*
X232805856Y-47965016D01*
X232806262Y-47968060D01*
X232806263Y-47968070D01*
X232812366Y-48013807D01*
X232858361Y-48358521D01*
X232859061Y-48361505D01*
X232859062Y-48361511D01*
X232911492Y-48585047D01*
X232949014Y-48745023D01*
X233076951Y-49120835D01*
X233240950Y-49482369D01*
X233439446Y-49826174D01*
X233441235Y-49828672D01*
X233441237Y-49828676D01*
X233638528Y-50104249D01*
X233670544Y-50148969D01*
X233672571Y-50151284D01*
X233672573Y-50151287D01*
X233837604Y-50339800D01*
X233932038Y-50447671D01*
X233934286Y-50449782D01*
X234219178Y-50717314D01*
X234219185Y-50717320D01*
X234221433Y-50719431D01*
X234223883Y-50721318D01*
X234223888Y-50721322D01*
X234459304Y-50902617D01*
X234535965Y-50961654D01*
X234538564Y-50963278D01*
X234538574Y-50963285D01*
X234719998Y-51076650D01*
X234872634Y-51172027D01*
X235228224Y-51348544D01*
X235599342Y-51489518D01*
X235982446Y-51593605D01*
X235985489Y-51594120D01*
X235985495Y-51594121D01*
X236370837Y-51659297D01*
X236370844Y-51659298D01*
X236373878Y-51659811D01*
X236376949Y-51660026D01*
X236376951Y-51660026D01*
X236766837Y-51687290D01*
X236766845Y-51687290D01*
X236769903Y-51687504D01*
X237026170Y-51680346D01*
X237163666Y-51676505D01*
X237163669Y-51676505D01*
X237166740Y-51676419D01*
X237169793Y-51676033D01*
X237169797Y-51676033D01*
X237358315Y-51652218D01*
X237560601Y-51626663D01*
X237563605Y-51625981D01*
X237563608Y-51625980D01*
X237944731Y-51539391D01*
X237944737Y-51539389D01*
X237947727Y-51538710D01*
X238095604Y-51489518D01*
X238321499Y-51414373D01*
X238321505Y-51414371D01*
X238324423Y-51413400D01*
X238327233Y-51412149D01*
X238684294Y-51253176D01*
X238684300Y-51253173D01*
X238687094Y-51251929D01*
X238719593Y-51233467D01*
X239029603Y-51057357D01*
X239029611Y-51057352D01*
X239032276Y-51055838D01*
X239356676Y-50826999D01*
X239365501Y-50819382D01*
X239654859Y-50569614D01*
X239657197Y-50567596D01*
X239659318Y-50565369D01*
X239659324Y-50565363D01*
X239928853Y-50282329D01*
X239930970Y-50280106D01*
X239933481Y-50276893D01*
X240173472Y-49969717D01*
X240173474Y-49969714D01*
X240175382Y-49967272D01*
X240177038Y-49964662D01*
X240177044Y-49964654D01*
X240386447Y-49634688D01*
X240386451Y-49634681D01*
X240388101Y-49632081D01*
X240394884Y-49618654D01*
X240490235Y-49429890D01*
X240567096Y-49277732D01*
X240568203Y-49274878D01*
X240568207Y-49274869D01*
X240709543Y-48910483D01*
X240709546Y-48910474D01*
X240710658Y-48907607D01*
X240800718Y-48585047D01*
X240816589Y-48528205D01*
X240816590Y-48528203D01*
X240817417Y-48525239D01*
X240886354Y-48134278D01*
X240916811Y-47738457D01*
X240918395Y-47625000D01*
X240917030Y-47597077D01*
X240901813Y-47285967D01*
X240899002Y-47228482D01*
X240892158Y-47182132D01*
X240841458Y-46838795D01*
X240841457Y-46838791D01*
X240841008Y-46835749D01*
X240744967Y-46450550D01*
X240726728Y-46399327D01*
X240646235Y-46173278D01*
X240611796Y-46076561D01*
X240459287Y-45752462D01*
X240444077Y-45720140D01*
X240444076Y-45720139D01*
X240442765Y-45717352D01*
X240413015Y-45667445D01*
X240291823Y-45464145D01*
X240239488Y-45376352D01*
X240003906Y-45056815D01*
X239738266Y-44761793D01*
X239445105Y-44494100D01*
X239127222Y-44256293D01*
X239078370Y-44226707D01*
X238790277Y-44052231D01*
X238790268Y-44052226D01*
X238787649Y-44050640D01*
X238429629Y-43879106D01*
X238370229Y-43857486D01*
X238059475Y-43744381D01*
X238059474Y-43744381D01*
X238056579Y-43743327D01*
X237713994Y-43655366D01*
X237675043Y-43645365D01*
X237675040Y-43645364D01*
X237672059Y-43644599D01*
X237279740Y-43583865D01*
X237276683Y-43583694D01*
X237276682Y-43583694D01*
X237247924Y-43582086D01*
X236883368Y-43561704D01*
X236880290Y-43561833D01*
X236880286Y-43561833D01*
X236621983Y-43572659D01*
X236486724Y-43578328D01*
X236483680Y-43578756D01*
X236483678Y-43578756D01*
X236443989Y-43584334D01*
X236093596Y-43633579D01*
X235707735Y-43726928D01*
X235332825Y-43857486D01*
X235286035Y-43879106D01*
X234975242Y-44022712D01*
X234975232Y-44022717D01*
X234972445Y-44024005D01*
X234630034Y-44224896D01*
X234504782Y-44315897D01*
X234311342Y-44456439D01*
X234311336Y-44456444D01*
X234308861Y-44458242D01*
X234306575Y-44460271D01*
X234306572Y-44460274D01*
X234153563Y-44596122D01*
X234011991Y-44721815D01*
X234009901Y-44724072D01*
X234009899Y-44724074D01*
X233744354Y-45010837D01*
X233744349Y-45010843D01*
X233742259Y-45013100D01*
X233740399Y-45015550D01*
X233740396Y-45015554D01*
X233707202Y-45059286D01*
X233502238Y-45329316D01*
X233500627Y-45331934D01*
X233500624Y-45331939D01*
X233295834Y-45664821D01*
X233294220Y-45667445D01*
X233120190Y-46024258D01*
X233119119Y-46027139D01*
X233119116Y-46027145D01*
X233064770Y-46173278D01*
X232981810Y-46396352D01*
X232880400Y-46780173D01*
X232879909Y-46783206D01*
X232836899Y-47048757D01*
X232816928Y-47172058D01*
X232816734Y-47175138D01*
X232816734Y-47175140D01*
X232796512Y-47496571D01*
X232792001Y-47568266D01*
X215140582Y-47568266D01*
X215123349Y-47239441D01*
X215122725Y-47235498D01*
X215063467Y-46861367D01*
X215062951Y-46858106D01*
X214963024Y-46485174D01*
X214950886Y-46453552D01*
X214825847Y-46127815D01*
X214824663Y-46124730D01*
X214772058Y-46021487D01*
X214650881Y-45783664D01*
X214650877Y-45783657D01*
X214649382Y-45780723D01*
X214598703Y-45702683D01*
X214440906Y-45459697D01*
X214439104Y-45456922D01*
X214196131Y-45156875D01*
X213923125Y-44883869D01*
X213623078Y-44640896D01*
X213394194Y-44492257D01*
X213302047Y-44432416D01*
X213302044Y-44432414D01*
X213299278Y-44430618D01*
X213296344Y-44429123D01*
X213296337Y-44429119D01*
X212958210Y-44256835D01*
X212955270Y-44255337D01*
X212594826Y-44116976D01*
X212221894Y-44017049D01*
X212019357Y-43984970D01*
X211843807Y-43957165D01*
X211843799Y-43957164D01*
X211840559Y-43956651D01*
X211455000Y-43936445D01*
X211069441Y-43956651D01*
X211066201Y-43957164D01*
X211066193Y-43957165D01*
X210890643Y-43984970D01*
X210688106Y-44017049D01*
X210315174Y-44116976D01*
X209954730Y-44255337D01*
X209951790Y-44256835D01*
X209613664Y-44429119D01*
X209613657Y-44429123D01*
X209610723Y-44430618D01*
X209607957Y-44432414D01*
X209607954Y-44432416D01*
X209481905Y-44514273D01*
X209286922Y-44640896D01*
X208986875Y-44883869D01*
X208713869Y-45156875D01*
X208470896Y-45456922D01*
X208469094Y-45459697D01*
X208311298Y-45702683D01*
X208260618Y-45780723D01*
X208259123Y-45783657D01*
X208259119Y-45783664D01*
X208137942Y-46021487D01*
X208085337Y-46124730D01*
X208084153Y-46127815D01*
X207959115Y-46453552D01*
X207946976Y-46485174D01*
X207847049Y-46858106D01*
X207846533Y-46861367D01*
X207787276Y-47235498D01*
X207786651Y-47239441D01*
X207767908Y-47597077D01*
X207766445Y-47625000D01*
X191068548Y-47625000D01*
X191048700Y-47179324D01*
X190989312Y-46737177D01*
X190954821Y-46584746D01*
X190891472Y-46304788D01*
X190890855Y-46302060D01*
X190754108Y-45877417D01*
X190747416Y-45861612D01*
X190581245Y-45469186D01*
X190581245Y-45469185D01*
X190580155Y-45466612D01*
X190576471Y-45459697D01*
X190371679Y-45075351D01*
X190370371Y-45072896D01*
X190368850Y-45070567D01*
X190127944Y-44701721D01*
X190127941Y-44701717D01*
X190126420Y-44699388D01*
X190043192Y-44593813D01*
X189851960Y-44351237D01*
X189851958Y-44351235D01*
X189850231Y-44349044D01*
X189543992Y-44024639D01*
X189379786Y-43879106D01*
X189212234Y-43730607D01*
X189212227Y-43730602D01*
X189210128Y-43728741D01*
X188851282Y-43463694D01*
X188650449Y-43341345D01*
X188472684Y-43233049D01*
X188472677Y-43233045D01*
X188470295Y-43231594D01*
X188347964Y-43171267D01*
X188072696Y-43035521D01*
X188070184Y-43034282D01*
X187654118Y-42873318D01*
X187517562Y-42834032D01*
X187228071Y-42750748D01*
X187228065Y-42750746D01*
X187225390Y-42749977D01*
X187222653Y-42749448D01*
X187222647Y-42749446D01*
X187071581Y-42720219D01*
X186787394Y-42665236D01*
X186784617Y-42664951D01*
X186784607Y-42664950D01*
X186509789Y-42636793D01*
X186343600Y-42619765D01*
X186340810Y-42619728D01*
X186340802Y-42619728D01*
X186062276Y-42616083D01*
X185897521Y-42613926D01*
X185894721Y-42614139D01*
X185894720Y-42614139D01*
X185455475Y-42647551D01*
X185452688Y-42647763D01*
X185012625Y-42721010D01*
X184922566Y-42744385D01*
X184583533Y-42832380D01*
X184583522Y-42832383D01*
X184580815Y-42833086D01*
X184312441Y-42928913D01*
X184163320Y-42982159D01*
X184163315Y-42982161D01*
X184160677Y-42983103D01*
X184158137Y-42984274D01*
X184158132Y-42984276D01*
X184049661Y-43034282D01*
X183755538Y-43169875D01*
X183368607Y-43391921D01*
X183366315Y-43393523D01*
X183366307Y-43393528D01*
X183125681Y-43561704D01*
X183002945Y-43647485D01*
X183000804Y-43649285D01*
X183000801Y-43649287D01*
X182673818Y-43924146D01*
X182661450Y-43934542D01*
X182659476Y-43936526D01*
X182659472Y-43936530D01*
X182572454Y-44024005D01*
X182346824Y-44250819D01*
X182345030Y-44252975D01*
X182345030Y-44252976D01*
X182343066Y-44255337D01*
X182061559Y-44593813D01*
X181807914Y-44960808D01*
X181587896Y-45348897D01*
X181586737Y-45351446D01*
X181586735Y-45351450D01*
X181404405Y-45752462D01*
X181404400Y-45752473D01*
X181403248Y-45755008D01*
X181402326Y-45757634D01*
X181402321Y-45757646D01*
X181325152Y-45977394D01*
X181255433Y-46175925D01*
X181254742Y-46178645D01*
X181254741Y-46178649D01*
X181185687Y-46450550D01*
X181145619Y-46608316D01*
X181145176Y-46611066D01*
X181145174Y-46611076D01*
X181088673Y-46961868D01*
X181074678Y-47048757D01*
X181074480Y-47051558D01*
X181074479Y-47051564D01*
X181061953Y-47228482D01*
X181043170Y-47493761D01*
X116713500Y-47493761D01*
X116713500Y-28628250D01*
X116715246Y-28607345D01*
X116717770Y-28592344D01*
X116717770Y-28592341D01*
X116718576Y-28587552D01*
X116718729Y-28575000D01*
X116718039Y-28570184D01*
X116718039Y-28570178D01*
X116716387Y-28558644D01*
X116715234Y-28535284D01*
X116730656Y-28182064D01*
X116731614Y-28171114D01*
X116782233Y-27786621D01*
X116784142Y-27775795D01*
X116868080Y-27397178D01*
X116870925Y-27386561D01*
X116987539Y-27016706D01*
X116991298Y-27006377D01*
X117139711Y-26648077D01*
X117144357Y-26638115D01*
X117323423Y-26294133D01*
X117328919Y-26284613D01*
X117537292Y-25957532D01*
X117543597Y-25948528D01*
X117779678Y-25640862D01*
X117786743Y-25632442D01*
X118048744Y-25346517D01*
X118056517Y-25338744D01*
X118342442Y-25076743D01*
X118350862Y-25069678D01*
X118658528Y-24833597D01*
X118667532Y-24827292D01*
X118994613Y-24618919D01*
X119004133Y-24613423D01*
X119348124Y-24434353D01*
X119358068Y-24429715D01*
X119716385Y-24281295D01*
X119726698Y-24277542D01*
X119926298Y-24214608D01*
X120096561Y-24160925D01*
X120107178Y-24158080D01*
X120485795Y-24074142D01*
X120496621Y-24072233D01*
X120881114Y-24021614D01*
X120892063Y-24020656D01*
X121241554Y-24005397D01*
X121266429Y-24006777D01*
X121278724Y-24008691D01*
X121287626Y-24007527D01*
X121287628Y-24007527D01*
X121306399Y-24005072D01*
X121310286Y-24004564D01*
X121326621Y-24003500D01*
X301575633Y-24003500D01*
X301595018Y-24005000D01*
G37*
G04 #@! TD.AperFunction*
M02*
