%FSLAX45Y45*%
G04 Gerber Fmt 4.5, Leading zero omitted, Abs format (unit mm)*
G04 Created by KiCad (PCBNEW 6.0.5+dfsg-1~bpo11+1) date 2022-08-10 11:55:54*
%MOMM*%
%LPD*%
G01*
G04 APERTURE LIST*
%TA.AperFunction,Profile*%
%ADD10C,0.150000*%
%TD*%
%TA.AperFunction,Profile*%
%ADD11C,0.100000*%
%TD*%
%ADD12C,0.200000*%
G04 APERTURE END LIST*
D10*
X13843000Y-23812500D02*
G75*
G03*
X13843000Y-23812500I-317500J0D01*
G01*
X18923000Y-23812500D02*
G75*
G03*
X18923000Y-23812500I-317500J0D01*
G01*
X19055500Y-14922500D02*
G75*
G03*
X19055500Y-14922500I-450000J0D01*
G01*
X16383000Y-23812500D02*
G75*
G03*
X16383000Y-23812500I-317500J0D01*
G01*
X19055500Y-4762500D02*
G75*
G03*
X19055500Y-4762500I-450000J0D01*
G01*
X29120500Y-21272500D02*
G75*
G03*
X29120500Y-21272500I-355000J0D01*
G01*
D11*
X30162500Y-26352500D02*
G75*
G03*
X30670500Y-25844500I0J508000D01*
G01*
X11620500Y-25844500D02*
X11620500Y-2857500D01*
D10*
X28485500Y-7302500D02*
G75*
G03*
X28485500Y-7302500I-355000J0D01*
G01*
X13880500Y-21272500D02*
G75*
G03*
X13880500Y-21272500I-355000J0D01*
G01*
D11*
X11620500Y-25844500D02*
G75*
G03*
X12128500Y-26352500I508000J0D01*
G01*
D10*
X24040500Y-9842500D02*
G75*
G03*
X24040500Y-9842500I-355000J0D01*
G01*
X14515500Y-12382500D02*
G75*
G03*
X14515500Y-12382500I-355000J0D01*
G01*
X24040500Y-21272500D02*
G75*
G03*
X24040500Y-21272500I-355000J0D01*
G01*
X14515500Y-7302500D02*
G75*
G03*
X14515500Y-7302500I-355000J0D01*
G01*
X25908000Y-12382500D02*
G75*
G03*
X25908000Y-12382500I-317500J0D01*
G01*
X19055500Y-9842500D02*
G75*
G03*
X19055500Y-9842500I-450000J0D01*
G01*
X18960500Y-21272500D02*
G75*
G03*
X18960500Y-21272500I-355000J0D01*
G01*
D11*
X12128500Y-2349500D02*
X30162500Y-2349500D01*
D10*
X16420500Y-18732500D02*
G75*
G03*
X16420500Y-18732500I-355000J0D01*
G01*
D11*
X30670500Y-2857500D02*
X30670500Y-25844500D01*
X30162500Y-26352500D02*
X12128500Y-26352500D01*
D10*
X21463000Y-14922500D02*
G75*
G03*
X21463000Y-14922500I-317500J0D01*
G01*
X26580500Y-18732500D02*
G75*
G03*
X26580500Y-18732500I-355000J0D01*
G01*
X28485500Y-12382500D02*
G75*
G03*
X28485500Y-12382500I-355000J0D01*
G01*
D11*
X12128500Y-2349500D02*
G75*
G03*
X11620500Y-2857500I0J-508000D01*
G01*
D10*
X21463000Y-9842500D02*
G75*
G03*
X21463000Y-9842500I-317500J0D01*
G01*
D11*
X30670500Y-2857500D02*
G75*
G03*
X30162500Y-2349500I-508000J0D01*
G01*
D10*
X24040500Y-14922500D02*
G75*
G03*
X24040500Y-14922500I-355000J0D01*
G01*
X25908000Y-7302500D02*
G75*
G03*
X25908000Y-7302500I-317500J0D01*
G01*
X24040500Y-4762500D02*
G75*
G03*
X24040500Y-4762500I-355000J0D01*
G01*
X21463000Y-4762500D02*
G75*
G03*
X21463000Y-4762500I-317500J0D01*
G01*
D12*
X11873119Y-26667976D02*
X11873119Y-26467976D01*
X11920738Y-26467976D01*
X11949309Y-26477500D01*
X11968357Y-26496548D01*
X11977881Y-26515595D01*
X11987405Y-26553690D01*
X11987405Y-26582262D01*
X11977881Y-26620357D01*
X11968357Y-26639405D01*
X11949309Y-26658452D01*
X11920738Y-26667976D01*
X11873119Y-26667976D01*
X12073119Y-26667976D02*
X12073119Y-26534643D01*
X12073119Y-26572738D02*
X12082643Y-26553690D01*
X12092167Y-26544167D01*
X12111214Y-26534643D01*
X12130262Y-26534643D01*
X12196928Y-26667976D02*
X12196928Y-26534643D01*
X12196928Y-26467976D02*
X12187405Y-26477500D01*
X12196928Y-26487024D01*
X12206452Y-26477500D01*
X12196928Y-26467976D01*
X12196928Y-26487024D01*
X12320738Y-26667976D02*
X12301690Y-26658452D01*
X12292167Y-26639405D01*
X12292167Y-26467976D01*
X12425500Y-26667976D02*
X12406452Y-26658452D01*
X12396928Y-26639405D01*
X12396928Y-26467976D01*
X12654071Y-26667976D02*
X12654071Y-26467976D01*
X12720738Y-26610833D01*
X12787405Y-26467976D01*
X12787405Y-26667976D01*
X12968357Y-26667976D02*
X12968357Y-26563214D01*
X12958833Y-26544167D01*
X12939786Y-26534643D01*
X12901690Y-26534643D01*
X12882643Y-26544167D01*
X12968357Y-26658452D02*
X12949309Y-26667976D01*
X12901690Y-26667976D01*
X12882643Y-26658452D01*
X12873119Y-26639405D01*
X12873119Y-26620357D01*
X12882643Y-26601309D01*
X12901690Y-26591786D01*
X12949309Y-26591786D01*
X12968357Y-26582262D01*
X13063595Y-26534643D02*
X13063595Y-26734643D01*
X13063595Y-26544167D02*
X13082643Y-26534643D01*
X13120738Y-26534643D01*
X13139786Y-26544167D01*
X13149309Y-26553690D01*
X13158833Y-26572738D01*
X13158833Y-26629881D01*
X13149309Y-26648928D01*
X13139786Y-26658452D01*
X13120738Y-26667976D01*
X13082643Y-26667976D01*
X13063595Y-26658452D01*
X13244548Y-26648928D02*
X13254071Y-26658452D01*
X13244548Y-26667976D01*
X13235024Y-26658452D01*
X13244548Y-26648928D01*
X13244548Y-26667976D01*
X13244548Y-26544167D02*
X13254071Y-26553690D01*
X13244548Y-26563214D01*
X13235024Y-26553690D01*
X13244548Y-26544167D01*
X13244548Y-26563214D01*
M02*
