%FSLAX45Y45*%
G04 Gerber Fmt 4.5, Leading zero omitted, Abs format (unit mm)*
G04 Created by KiCad (PCBNEW 6.0.5+dfsg-1~bpo11+1) date 2022-08-10 11:55:54*
%MOMM*%
%LPD*%
G01*
G04 APERTURE LIST*
%TA.AperFunction,Profile*%
%ADD10C,0.150000*%
%TD*%
%TA.AperFunction,Profile*%
%ADD11C,0.100000*%
%TD*%
%ADD12C,0.200000*%
%ADD13C,0.100000*%
G04 APERTURE END LIST*
D10*
X13843000Y-23812500D02*
G75*
G03*
X13843000Y-23812500I-317500J0D01*
G01*
X18923000Y-23812500D02*
G75*
G03*
X18923000Y-23812500I-317500J0D01*
G01*
X19055500Y-14922500D02*
G75*
G03*
X19055500Y-14922500I-450000J0D01*
G01*
X16383000Y-23812500D02*
G75*
G03*
X16383000Y-23812500I-317500J0D01*
G01*
X19055500Y-4762500D02*
G75*
G03*
X19055500Y-4762500I-450000J0D01*
G01*
X29120500Y-21272500D02*
G75*
G03*
X29120500Y-21272500I-355000J0D01*
G01*
D11*
X30162500Y-26352500D02*
G75*
G03*
X30670500Y-25844500I0J508000D01*
G01*
X11620500Y-25844500D02*
X11620500Y-2857500D01*
D10*
X28485500Y-7302500D02*
G75*
G03*
X28485500Y-7302500I-355000J0D01*
G01*
X13880500Y-21272500D02*
G75*
G03*
X13880500Y-21272500I-355000J0D01*
G01*
D11*
X11620500Y-25844500D02*
G75*
G03*
X12128500Y-26352500I508000J0D01*
G01*
D10*
X24040500Y-9842500D02*
G75*
G03*
X24040500Y-9842500I-355000J0D01*
G01*
X14515500Y-12382500D02*
G75*
G03*
X14515500Y-12382500I-355000J0D01*
G01*
X24040500Y-21272500D02*
G75*
G03*
X24040500Y-21272500I-355000J0D01*
G01*
X14515500Y-7302500D02*
G75*
G03*
X14515500Y-7302500I-355000J0D01*
G01*
X25908000Y-12382500D02*
G75*
G03*
X25908000Y-12382500I-317500J0D01*
G01*
X19055500Y-9842500D02*
G75*
G03*
X19055500Y-9842500I-450000J0D01*
G01*
X18960500Y-21272500D02*
G75*
G03*
X18960500Y-21272500I-355000J0D01*
G01*
D11*
X12128500Y-2349500D02*
X30162500Y-2349500D01*
D10*
X16420500Y-18732500D02*
G75*
G03*
X16420500Y-18732500I-355000J0D01*
G01*
D11*
X30670500Y-2857500D02*
X30670500Y-25844500D01*
X30162500Y-26352500D02*
X12128500Y-26352500D01*
D10*
X21463000Y-14922500D02*
G75*
G03*
X21463000Y-14922500I-317500J0D01*
G01*
X26580500Y-18732500D02*
G75*
G03*
X26580500Y-18732500I-355000J0D01*
G01*
X28485500Y-12382500D02*
G75*
G03*
X28485500Y-12382500I-355000J0D01*
G01*
D11*
X12128500Y-2349500D02*
G75*
G03*
X11620500Y-2857500I0J-508000D01*
G01*
D10*
X21463000Y-9842500D02*
G75*
G03*
X21463000Y-9842500I-317500J0D01*
G01*
D11*
X30670500Y-2857500D02*
G75*
G03*
X30162500Y-2349500I-508000J0D01*
G01*
D10*
X24040500Y-14922500D02*
G75*
G03*
X24040500Y-14922500I-355000J0D01*
G01*
X25908000Y-7302500D02*
G75*
G03*
X25908000Y-7302500I-317500J0D01*
G01*
X24040500Y-4762500D02*
G75*
G03*
X24040500Y-4762500I-355000J0D01*
G01*
X21463000Y-4762500D02*
G75*
G03*
X21463000Y-4762500I-317500J0D01*
G01*
D12*
D13*
X14110500Y-8141500D02*
X14210500Y-8241500D01*
X14210500Y-8141500D02*
X14110500Y-8241500D01*
D12*
X11873119Y-26667976D02*
X11873119Y-26467976D01*
X11920738Y-26467976D01*
X11949309Y-26477500D01*
X11968357Y-26496548D01*
X11977881Y-26515595D01*
X11987405Y-26553690D01*
X11987405Y-26582262D01*
X11977881Y-26620357D01*
X11968357Y-26639405D01*
X11949309Y-26658452D01*
X11920738Y-26667976D01*
X11873119Y-26667976D01*
X12073119Y-26667976D02*
X12073119Y-26534643D01*
X12073119Y-26572738D02*
X12082643Y-26553690D01*
X12092167Y-26544167D01*
X12111214Y-26534643D01*
X12130262Y-26534643D01*
X12196928Y-26667976D02*
X12196928Y-26534643D01*
X12196928Y-26467976D02*
X12187405Y-26477500D01*
X12196928Y-26487024D01*
X12206452Y-26477500D01*
X12196928Y-26467976D01*
X12196928Y-26487024D01*
X12320738Y-26667976D02*
X12301690Y-26658452D01*
X12292167Y-26639405D01*
X12292167Y-26467976D01*
X12425500Y-26667976D02*
X12406452Y-26658452D01*
X12396928Y-26639405D01*
X12396928Y-26467976D01*
X12654071Y-26667976D02*
X12654071Y-26467976D01*
X12720738Y-26610833D01*
X12787405Y-26467976D01*
X12787405Y-26667976D01*
X12968357Y-26667976D02*
X12968357Y-26563214D01*
X12958833Y-26544167D01*
X12939786Y-26534643D01*
X12901690Y-26534643D01*
X12882643Y-26544167D01*
X12968357Y-26658452D02*
X12949309Y-26667976D01*
X12901690Y-26667976D01*
X12882643Y-26658452D01*
X12873119Y-26639405D01*
X12873119Y-26620357D01*
X12882643Y-26601309D01*
X12901690Y-26591786D01*
X12949309Y-26591786D01*
X12968357Y-26582262D01*
X13063595Y-26534643D02*
X13063595Y-26734643D01*
X13063595Y-26544167D02*
X13082643Y-26534643D01*
X13120738Y-26534643D01*
X13139786Y-26544167D01*
X13149309Y-26553690D01*
X13158833Y-26572738D01*
X13158833Y-26629881D01*
X13149309Y-26648928D01*
X13139786Y-26658452D01*
X13120738Y-26667976D01*
X13082643Y-26667976D01*
X13063595Y-26658452D01*
X13244548Y-26648928D02*
X13254071Y-26658452D01*
X13244548Y-26667976D01*
X13235024Y-26658452D01*
X13244548Y-26648928D01*
X13244548Y-26667976D01*
X13244548Y-26544167D02*
X13254071Y-26553690D01*
X13244548Y-26563214D01*
X13235024Y-26553690D01*
X13244548Y-26544167D01*
X13244548Y-26563214D01*
D13*
X11515500Y-26947500D02*
X11615500Y-27047500D01*
X11615500Y-26947500D02*
X11515500Y-27047500D01*
D12*
X11977881Y-27087976D02*
X11863595Y-27087976D01*
X11920738Y-27087976D02*
X11920738Y-26887976D01*
X11901690Y-26916548D01*
X11882643Y-26935595D01*
X11863595Y-26945119D01*
X12063595Y-27068928D02*
X12073119Y-27078452D01*
X12063595Y-27087976D01*
X12054071Y-27078452D01*
X12063595Y-27068928D01*
X12063595Y-27087976D01*
X12196928Y-26887976D02*
X12215976Y-26887976D01*
X12235024Y-26897500D01*
X12244548Y-26907024D01*
X12254071Y-26926071D01*
X12263595Y-26964167D01*
X12263595Y-27011786D01*
X12254071Y-27049881D01*
X12244548Y-27068928D01*
X12235024Y-27078452D01*
X12215976Y-27087976D01*
X12196928Y-27087976D01*
X12177881Y-27078452D01*
X12168357Y-27068928D01*
X12158833Y-27049881D01*
X12149309Y-27011786D01*
X12149309Y-26964167D01*
X12158833Y-26926071D01*
X12168357Y-26907024D01*
X12177881Y-26897500D01*
X12196928Y-26887976D01*
X12387405Y-26887976D02*
X12406452Y-26887976D01*
X12425500Y-26897500D01*
X12435024Y-26907024D01*
X12444548Y-26926071D01*
X12454071Y-26964167D01*
X12454071Y-27011786D01*
X12444548Y-27049881D01*
X12435024Y-27068928D01*
X12425500Y-27078452D01*
X12406452Y-27087976D01*
X12387405Y-27087976D01*
X12368357Y-27078452D01*
X12358833Y-27068928D01*
X12349309Y-27049881D01*
X12339786Y-27011786D01*
X12339786Y-26964167D01*
X12349309Y-26926071D01*
X12358833Y-26907024D01*
X12368357Y-26897500D01*
X12387405Y-26887976D01*
X12577881Y-26887976D02*
X12596928Y-26887976D01*
X12615976Y-26897500D01*
X12625500Y-26907024D01*
X12635024Y-26926071D01*
X12644548Y-26964167D01*
X12644548Y-27011786D01*
X12635024Y-27049881D01*
X12625500Y-27068928D01*
X12615976Y-27078452D01*
X12596928Y-27087976D01*
X12577881Y-27087976D01*
X12558833Y-27078452D01*
X12549309Y-27068928D01*
X12539786Y-27049881D01*
X12530262Y-27011786D01*
X12530262Y-26964167D01*
X12539786Y-26926071D01*
X12549309Y-26907024D01*
X12558833Y-26897500D01*
X12577881Y-26887976D01*
X12730262Y-27087976D02*
X12730262Y-26954643D01*
X12730262Y-26973690D02*
X12739786Y-26964167D01*
X12758833Y-26954643D01*
X12787405Y-26954643D01*
X12806452Y-26964167D01*
X12815976Y-26983214D01*
X12815976Y-27087976D01*
X12815976Y-26983214D02*
X12825500Y-26964167D01*
X12844548Y-26954643D01*
X12873119Y-26954643D01*
X12892167Y-26964167D01*
X12901690Y-26983214D01*
X12901690Y-27087976D01*
X12996928Y-27087976D02*
X12996928Y-26954643D01*
X12996928Y-26973690D02*
X13006452Y-26964167D01*
X13025500Y-26954643D01*
X13054071Y-26954643D01*
X13073119Y-26964167D01*
X13082643Y-26983214D01*
X13082643Y-27087976D01*
X13082643Y-26983214D02*
X13092167Y-26964167D01*
X13111214Y-26954643D01*
X13139786Y-26954643D01*
X13158833Y-26964167D01*
X13168357Y-26983214D01*
X13168357Y-27087976D01*
X13558833Y-26878452D02*
X13387405Y-27135595D01*
X13815976Y-26887976D02*
X13835024Y-26887976D01*
X13854071Y-26897500D01*
X13863595Y-26907024D01*
X13873119Y-26926071D01*
X13882643Y-26964167D01*
X13882643Y-27011786D01*
X13873119Y-27049881D01*
X13863595Y-27068928D01*
X13854071Y-27078452D01*
X13835024Y-27087976D01*
X13815976Y-27087976D01*
X13796928Y-27078452D01*
X13787405Y-27068928D01*
X13777881Y-27049881D01*
X13768357Y-27011786D01*
X13768357Y-26964167D01*
X13777881Y-26926071D01*
X13787405Y-26907024D01*
X13796928Y-26897500D01*
X13815976Y-26887976D01*
X13968357Y-27068928D02*
X13977881Y-27078452D01*
X13968357Y-27087976D01*
X13958833Y-27078452D01*
X13968357Y-27068928D01*
X13968357Y-27087976D01*
X14101690Y-26887976D02*
X14120738Y-26887976D01*
X14139786Y-26897500D01*
X14149309Y-26907024D01*
X14158833Y-26926071D01*
X14168357Y-26964167D01*
X14168357Y-27011786D01*
X14158833Y-27049881D01*
X14149309Y-27068928D01*
X14139786Y-27078452D01*
X14120738Y-27087976D01*
X14101690Y-27087976D01*
X14082643Y-27078452D01*
X14073119Y-27068928D01*
X14063595Y-27049881D01*
X14054071Y-27011786D01*
X14054071Y-26964167D01*
X14063595Y-26926071D01*
X14073119Y-26907024D01*
X14082643Y-26897500D01*
X14101690Y-26887976D01*
X14235024Y-26887976D02*
X14358833Y-26887976D01*
X14292167Y-26964167D01*
X14320738Y-26964167D01*
X14339786Y-26973690D01*
X14349309Y-26983214D01*
X14358833Y-27002262D01*
X14358833Y-27049881D01*
X14349309Y-27068928D01*
X14339786Y-27078452D01*
X14320738Y-27087976D01*
X14263595Y-27087976D01*
X14244548Y-27078452D01*
X14235024Y-27068928D01*
X14454071Y-27087976D02*
X14492167Y-27087976D01*
X14511214Y-27078452D01*
X14520738Y-27068928D01*
X14539786Y-27040357D01*
X14549309Y-27002262D01*
X14549309Y-26926071D01*
X14539786Y-26907024D01*
X14530262Y-26897500D01*
X14511214Y-26887976D01*
X14473119Y-26887976D01*
X14454071Y-26897500D01*
X14444548Y-26907024D01*
X14435024Y-26926071D01*
X14435024Y-26973690D01*
X14444548Y-26992738D01*
X14454071Y-27002262D01*
X14473119Y-27011786D01*
X14511214Y-27011786D01*
X14530262Y-27002262D01*
X14539786Y-26992738D01*
X14549309Y-26973690D01*
X14720738Y-26954643D02*
X14720738Y-27087976D01*
X14673119Y-26878452D02*
X14625500Y-27021309D01*
X14749309Y-27021309D01*
X14815976Y-26887976D02*
X14815976Y-26926071D01*
X14892167Y-26887976D02*
X14892167Y-26926071D01*
X15187405Y-27164167D02*
X15177881Y-27154643D01*
X15158833Y-27126071D01*
X15149309Y-27107024D01*
X15139786Y-27078452D01*
X15130262Y-27030833D01*
X15130262Y-26992738D01*
X15139786Y-26945119D01*
X15149309Y-26916548D01*
X15158833Y-26897500D01*
X15177881Y-26868928D01*
X15187405Y-26859405D01*
X15368357Y-27087976D02*
X15254071Y-27087976D01*
X15311214Y-27087976D02*
X15311214Y-26887976D01*
X15292167Y-26916548D01*
X15273119Y-26935595D01*
X15254071Y-26945119D01*
X15606452Y-27087976D02*
X15606452Y-26887976D01*
X15692167Y-27087976D02*
X15692167Y-26983214D01*
X15682643Y-26964167D01*
X15663595Y-26954643D01*
X15635024Y-26954643D01*
X15615976Y-26964167D01*
X15606452Y-26973690D01*
X15815976Y-27087976D02*
X15796928Y-27078452D01*
X15787405Y-27068928D01*
X15777881Y-27049881D01*
X15777881Y-26992738D01*
X15787405Y-26973690D01*
X15796928Y-26964167D01*
X15815976Y-26954643D01*
X15844548Y-26954643D01*
X15863595Y-26964167D01*
X15873119Y-26973690D01*
X15882643Y-26992738D01*
X15882643Y-27049881D01*
X15873119Y-27068928D01*
X15863595Y-27078452D01*
X15844548Y-27087976D01*
X15815976Y-27087976D01*
X15996928Y-27087976D02*
X15977881Y-27078452D01*
X15968357Y-27059405D01*
X15968357Y-26887976D01*
X16149309Y-27078452D02*
X16130262Y-27087976D01*
X16092167Y-27087976D01*
X16073119Y-27078452D01*
X16063595Y-27059405D01*
X16063595Y-26983214D01*
X16073119Y-26964167D01*
X16092167Y-26954643D01*
X16130262Y-26954643D01*
X16149309Y-26964167D01*
X16158833Y-26983214D01*
X16158833Y-27002262D01*
X16063595Y-27021309D01*
X16225500Y-27164167D02*
X16235024Y-27154643D01*
X16254071Y-27126071D01*
X16263595Y-27107024D01*
X16273119Y-27078452D01*
X16282643Y-27030833D01*
X16282643Y-26992738D01*
X16273119Y-26945119D01*
X16263595Y-26916548D01*
X16254071Y-26897500D01*
X16235024Y-26868928D01*
X16225500Y-26859405D01*
M02*
