G04 #@! TF.GenerationSoftware,KiCad,Pcbnew,6.0.5+dfsg-1~bpo11+1*
G04 #@! TF.CreationDate,2022-08-10T11:55:54+00:00*
G04 #@! TF.ProjectId,main_VCO_pcb_panel,6d61696e-5f56-4434-9f5f-7063625f7061,0*
G04 #@! TF.SameCoordinates,Original*
G04 #@! TF.FileFunction,Legend,Bot*
G04 #@! TF.FilePolarity,Positive*
%FSLAX46Y46*%
G04 Gerber Fmt 4.6, Leading zero omitted, Abs format (unit mm)*
G04 Created by KiCad (PCBNEW 6.0.5+dfsg-1~bpo11+1) date 2022-08-10 11:55:54*
%MOMM*%
%LPD*%
G01*
G04 APERTURE LIST*
%ADD10C,0.200000*%
%ADD11C,2.000000*%
G04 APERTURE END LIST*
D10*
X202216904Y-28114761D02*
X202216904Y-29543333D01*
X202121666Y-29829047D01*
X201931190Y-30019523D01*
X201645476Y-30114761D01*
X201455000Y-30114761D01*
X204121666Y-30114761D02*
X203169285Y-30114761D01*
X203169285Y-28114761D01*
X205931190Y-29924285D02*
X205835952Y-30019523D01*
X205550238Y-30114761D01*
X205359761Y-30114761D01*
X205074047Y-30019523D01*
X204883571Y-29829047D01*
X204788333Y-29638571D01*
X204693095Y-29257619D01*
X204693095Y-28971904D01*
X204788333Y-28590952D01*
X204883571Y-28400476D01*
X205074047Y-28210000D01*
X205359761Y-28114761D01*
X205550238Y-28114761D01*
X205835952Y-28210000D01*
X205931190Y-28305238D01*
X207359761Y-28114761D02*
X207359761Y-29543333D01*
X207264523Y-29829047D01*
X207074047Y-30019523D01*
X206788333Y-30114761D01*
X206597857Y-30114761D01*
X209264523Y-30114761D02*
X208312142Y-30114761D01*
X208312142Y-28114761D01*
X211074047Y-29924285D02*
X210978809Y-30019523D01*
X210693095Y-30114761D01*
X210502619Y-30114761D01*
X210216904Y-30019523D01*
X210026428Y-29829047D01*
X209931190Y-29638571D01*
X209835952Y-29257619D01*
X209835952Y-28971904D01*
X209931190Y-28590952D01*
X210026428Y-28400476D01*
X210216904Y-28210000D01*
X210502619Y-28114761D01*
X210693095Y-28114761D01*
X210978809Y-28210000D01*
X211074047Y-28305238D01*
X212502619Y-28114761D02*
X212502619Y-29543333D01*
X212407380Y-29829047D01*
X212216904Y-30019523D01*
X211931190Y-30114761D01*
X211740714Y-30114761D01*
X214407380Y-30114761D02*
X213455000Y-30114761D01*
X213455000Y-28114761D01*
X216216904Y-29924285D02*
X216121666Y-30019523D01*
X215835952Y-30114761D01*
X215645476Y-30114761D01*
X215359761Y-30019523D01*
X215169285Y-29829047D01*
X215074047Y-29638571D01*
X214978809Y-29257619D01*
X214978809Y-28971904D01*
X215074047Y-28590952D01*
X215169285Y-28400476D01*
X215359761Y-28210000D01*
X215645476Y-28114761D01*
X215835952Y-28114761D01*
X216121666Y-28210000D01*
X216216904Y-28305238D01*
X217645476Y-28114761D02*
X217645476Y-29543333D01*
X217550238Y-29829047D01*
X217359761Y-30019523D01*
X217074047Y-30114761D01*
X216883571Y-30114761D01*
X219550238Y-30114761D02*
X218597857Y-30114761D01*
X218597857Y-28114761D01*
X221359761Y-29924285D02*
X221264523Y-30019523D01*
X220978809Y-30114761D01*
X220788333Y-30114761D01*
X220502619Y-30019523D01*
X220312142Y-29829047D01*
X220216904Y-29638571D01*
X220121666Y-29257619D01*
X220121666Y-28971904D01*
X220216904Y-28590952D01*
X220312142Y-28400476D01*
X220502619Y-28210000D01*
X220788333Y-28114761D01*
X220978809Y-28114761D01*
X221264523Y-28210000D01*
X221359761Y-28305238D01*
%LPC*%
D11*
X141605000Y-81915000D03*
M02*
