  0
SECTION
  2
HEADER
  9
$ANGBASE
  50
0.0
  9
$ANGDIR
  70
1
  9
$MEASUREMENT
  70
1
  0
ENDSEC
  0
SECTION
  2
TABLES
  0
TABLE
  2
LTYPE
  70
4
  0
LTYPE
  5
40F
  2
CONTINUOUS
  70
0
  3
Solid line
  72
65
  73
0
  40
0.0
  0
LTYPE
  5
410
  2
DASHDOT
 70
0
  3
Dash Dot ____ _ ____ _
 72
65
 73
4
 40
2.0
 49
1.25
 49
-0.25
 49
0.25
 49
-0.25
  0
LTYPE
  5
411
  2
DASHED
 70
0
  3
Dashed __ __ __ __ __
 72
65
 73
2
 40
0.75
 49
0.5
 49
-0.25
  0
LTYPE
  5
43B
  2
DOTTED
 70
0
  3
Dotted .  .  .  .
 72
65
 73
2
 40
0.2
 49
0.0
 49
-0.2
  0
ENDTAB
  0
TABLE
  2
STYLE
  70
4
  0
STYLE
  2
KICAD
  70
0
  40
0
  41
1
  42
1
  50
0
  71
0
  3
isocp.shx
  0
STYLE
  2
KICADB
  70
0
  40
0
  41
1
  42
1
  50
0
  71
0
  3
isocp.shx
  0
STYLE
  2
KICADI
  70
0
  40
0
  41
1
  42
1
  50
15
  71
0
  3
isocp.shx
  0
STYLE
  2
KICADBI
  70
0
  40
0
  41
1
  42
1
  50
15
  71
0
  3
isocp.shx
  0
ENDTAB
  0
TABLE
  2
LAYER
  70
1
  0
LAYER
  2
BLACK
  70
0
  62
7
  6
CONTINUOUS
  0
ENDTAB
  0
ENDSEC
  0
SECTION
  2
ENTITIES
0
LINE
8
BLACK
6
CONTINUOUS
10
104.357
20
-227.634
11
104.568
21
-227.69
0
LINE
8
BLACK
6
CONTINUOUS
10
104.568
20
-227.69
11
104.765
21
-227.782
0
LINE
8
BLACK
6
CONTINUOUS
10
104.765
20
-227.782
11
104.943
21
-227.907
0
LINE
8
BLACK
6
CONTINUOUS
10
104.943
20
-227.907
11
105.098
21
-228.062
0
LINE
8
BLACK
6
CONTINUOUS
10
105.098
20
-228.062
11
105.223
21
-228.24
0
LINE
8
BLACK
6
CONTINUOUS
10
105.223
20
-228.24
11
105.315
21
-228.437
0
LINE
8
BLACK
6
CONTINUOUS
10
105.315
20
-228.437
11
105.371
21
-228.648
0
LINE
8
BLACK
6
CONTINUOUS
10
105.371
20
-228.648
11
105.39
21
-228.865
0
LINE
8
BLACK
6
CONTINUOUS
10
105.39
20
-228.865
11
105.371
21
-229.082
0
LINE
8
BLACK
6
CONTINUOUS
10
105.371
20
-229.082
11
105.315
21
-229.293
0
LINE
8
BLACK
6
CONTINUOUS
10
105.315
20
-229.293
11
105.223
21
-229.49
0
LINE
8
BLACK
6
CONTINUOUS
10
105.223
20
-229.49
11
105.098
21
-229.668
0
LINE
8
BLACK
6
CONTINUOUS
10
105.098
20
-229.668
11
104.943
21
-229.823
0
LINE
8
BLACK
6
CONTINUOUS
10
104.943
20
-229.823
11
104.765
21
-229.948
0
LINE
8
BLACK
6
CONTINUOUS
10
104.765
20
-229.948
11
104.568
21
-230.04
0
LINE
8
BLACK
6
CONTINUOUS
10
104.568
20
-230.04
11
104.357
21
-230.096
0
LINE
8
BLACK
6
CONTINUOUS
10
104.357
20
-230.096
11
104.14
21
-230.115
0
LINE
8
BLACK
6
CONTINUOUS
10
104.14
20
-230.115
11
103.923
21
-230.096
0
LINE
8
BLACK
6
CONTINUOUS
10
103.923
20
-230.096
11
103.712
21
-230.04
0
LINE
8
BLACK
6
CONTINUOUS
10
103.712
20
-230.04
11
103.515
21
-229.948
0
LINE
8
BLACK
6
CONTINUOUS
10
103.515
20
-229.948
11
103.337
21
-229.823
0
LINE
8
BLACK
6
CONTINUOUS
10
103.337
20
-229.823
11
103.182
21
-229.668
0
LINE
8
BLACK
6
CONTINUOUS
10
103.182
20
-229.668
11
103.057
21
-229.49
0
LINE
8
BLACK
6
CONTINUOUS
10
103.057
20
-229.49
11
102.965
21
-229.293
0
LINE
8
BLACK
6
CONTINUOUS
10
102.965
20
-229.293
11
102.909
21
-229.082
0
LINE
8
BLACK
6
CONTINUOUS
10
102.909
20
-229.082
11
102.89
21
-228.865
0
LINE
8
BLACK
6
CONTINUOUS
10
102.89
20
-228.865
11
102.909
21
-228.648
0
LINE
8
BLACK
6
CONTINUOUS
10
102.909
20
-228.648
11
102.965
21
-228.437
0
LINE
8
BLACK
6
CONTINUOUS
10
102.965
20
-228.437
11
103.057
21
-228.24
0
LINE
8
BLACK
6
CONTINUOUS
10
103.057
20
-228.24
11
103.182
21
-228.062
0
LINE
8
BLACK
6
CONTINUOUS
10
103.182
20
-228.062
11
103.337
21
-227.907
0
LINE
8
BLACK
6
CONTINUOUS
10
103.337
20
-227.907
11
103.515
21
-227.782
0
LINE
8
BLACK
6
CONTINUOUS
10
103.515
20
-227.782
11
103.712
21
-227.69
0
LINE
8
BLACK
6
CONTINUOUS
10
103.712
20
-227.69
11
103.923
21
-227.634
0
LINE
8
BLACK
6
CONTINUOUS
10
103.923
20
-227.634
11
104.14
21
-227.615
0
LINE
8
BLACK
6
CONTINUOUS
10
104.14
20
-227.615
11
104.357
21
-227.634
0
LINE
8
BLACK
6
CONTINUOUS
10
91.0307
20
-227.33
11
91.2496
21
-227.388
0
LINE
8
BLACK
6
CONTINUOUS
10
91.2496
20
-227.388
11
91.455
21
-227.484
0
LINE
8
BLACK
6
CONTINUOUS
10
91.455
20
-227.484
11
91.6406
21
-227.614
0
LINE
8
BLACK
6
CONTINUOUS
10
91.6406
20
-227.614
11
91.8009
21
-227.774
0
LINE
8
BLACK
6
CONTINUOUS
10
91.8009
20
-227.774
11
91.9308
21
-227.96
0
LINE
8
BLACK
6
CONTINUOUS
10
91.9308
20
-227.96
11
92.0266
21
-228.165
0
LINE
8
BLACK
6
CONTINUOUS
10
92.0266
20
-228.165
11
92.0853
21
-228.384
0
LINE
8
BLACK
6
CONTINUOUS
10
92.0853
20
-228.384
11
92.105
21
-228.61
0
LINE
8
BLACK
6
CONTINUOUS
10
92.105
20
-228.61
11
92.0853
21
-228.836
0
LINE
8
BLACK
6
CONTINUOUS
10
92.0853
20
-228.836
11
92.0266
21
-229.055
0
LINE
8
BLACK
6
CONTINUOUS
10
92.0266
20
-229.055
11
91.9308
21
-229.26
0
LINE
8
BLACK
6
CONTINUOUS
10
91.9308
20
-229.26
11
91.8009
21
-229.446
0
LINE
8
BLACK
6
CONTINUOUS
10
91.8009
20
-229.446
11
91.6406
21
-229.606
0
LINE
8
BLACK
6
CONTINUOUS
10
91.6406
20
-229.606
11
91.455
21
-229.736
0
LINE
8
BLACK
6
CONTINUOUS
10
91.455
20
-229.736
11
91.2496
21
-229.832
0
LINE
8
BLACK
6
CONTINUOUS
10
91.2496
20
-229.832
11
91.0307
21
-229.89
0
LINE
8
BLACK
6
CONTINUOUS
10
91.0307
20
-229.89
11
90.805
21
-229.91
0
LINE
8
BLACK
6
CONTINUOUS
10
90.805
20
-229.91
11
90.5793
21
-229.89
0
LINE
8
BLACK
6
CONTINUOUS
10
90.5793
20
-229.89
11
90.3604
21
-229.832
0
LINE
8
BLACK
6
CONTINUOUS
10
90.3604
20
-229.832
11
90.155
21
-229.736
0
LINE
8
BLACK
6
CONTINUOUS
10
90.155
20
-229.736
11
89.9694
21
-229.606
0
LINE
8
BLACK
6
CONTINUOUS
10
89.9694
20
-229.606
11
89.8091
21
-229.446
0
LINE
8
BLACK
6
CONTINUOUS
10
89.8091
20
-229.446
11
89.6792
21
-229.26
0
LINE
8
BLACK
6
CONTINUOUS
10
89.6792
20
-229.26
11
89.5834
21
-229.055
0
LINE
8
BLACK
6
CONTINUOUS
10
89.5834
20
-229.055
11
89.5247
21
-228.836
0
LINE
8
BLACK
6
CONTINUOUS
10
89.5247
20
-228.836
11
89.505
21
-228.61
0
LINE
8
BLACK
6
CONTINUOUS
10
89.505
20
-228.61
11
89.5247
21
-228.384
0
LINE
8
BLACK
6
CONTINUOUS
10
89.5247
20
-228.384
11
89.5834
21
-228.165
0
LINE
8
BLACK
6
CONTINUOUS
10
89.5834
20
-228.165
11
89.6792
21
-227.96
0
LINE
8
BLACK
6
CONTINUOUS
10
89.6792
20
-227.96
11
89.8091
21
-227.774
0
LINE
8
BLACK
6
CONTINUOUS
10
89.8091
20
-227.774
11
89.9694
21
-227.614
0
LINE
8
BLACK
6
CONTINUOUS
10
89.9694
20
-227.614
11
90.155
21
-227.484
0
LINE
8
BLACK
6
CONTINUOUS
10
90.155
20
-227.484
11
90.3604
21
-227.388
0
LINE
8
BLACK
6
CONTINUOUS
10
90.3604
20
-227.388
11
90.5793
21
-227.33
0
LINE
8
BLACK
6
CONTINUOUS
10
90.5793
20
-227.33
11
90.805
21
-227.31
0
LINE
8
BLACK
6
CONTINUOUS
10
90.805
20
-227.31
11
91.0307
21
-227.33
0
LINE
8
BLACK
6
CONTINUOUS
10
98.6507
20
-227.33
11
98.8696
21
-227.388
0
LINE
8
BLACK
6
CONTINUOUS
10
98.8696
20
-227.388
11
99.075
21
-227.484
0
LINE
8
BLACK
6
CONTINUOUS
10
99.075
20
-227.484
11
99.2606
21
-227.614
0
LINE
8
BLACK
6
CONTINUOUS
10
99.2606
20
-227.614
11
99.4209
21
-227.774
0
LINE
8
BLACK
6
CONTINUOUS
10
99.4209
20
-227.774
11
99.5508
21
-227.96
0
LINE
8
BLACK
6
CONTINUOUS
10
99.5508
20
-227.96
11
99.6466
21
-228.165
0
LINE
8
BLACK
6
CONTINUOUS
10
99.6466
20
-228.165
11
99.7052
21
-228.384
0
LINE
8
BLACK
6
CONTINUOUS
10
99.7052
20
-228.384
11
99.725
21
-228.61
0
LINE
8
BLACK
6
CONTINUOUS
10
99.725
20
-228.61
11
99.7052
21
-228.836
0
LINE
8
BLACK
6
CONTINUOUS
10
99.7052
20
-228.836
11
99.6466
21
-229.055
0
LINE
8
BLACK
6
CONTINUOUS
10
99.6466
20
-229.055
11
99.5508
21
-229.26
0
LINE
8
BLACK
6
CONTINUOUS
10
99.5508
20
-229.26
11
99.4209
21
-229.446
0
LINE
8
BLACK
6
CONTINUOUS
10
99.4209
20
-229.446
11
99.2606
21
-229.606
0
LINE
8
BLACK
6
CONTINUOUS
10
99.2606
20
-229.606
11
99.075
21
-229.736
0
LINE
8
BLACK
6
CONTINUOUS
10
99.075
20
-229.736
11
98.8696
21
-229.832
0
LINE
8
BLACK
6
CONTINUOUS
10
98.8696
20
-229.832
11
98.6507
21
-229.89
0
LINE
8
BLACK
6
CONTINUOUS
10
98.6507
20
-229.89
11
98.425
21
-229.91
0
LINE
8
BLACK
6
CONTINUOUS
10
98.425
20
-229.91
11
98.1993
21
-229.89
0
LINE
8
BLACK
6
CONTINUOUS
10
98.1993
20
-229.89
11
97.9804
21
-229.832
0
LINE
8
BLACK
6
CONTINUOUS
10
97.9804
20
-229.832
11
97.775
21
-229.736
0
LINE
8
BLACK
6
CONTINUOUS
10
97.775
20
-229.736
11
97.5894
21
-229.606
0
LINE
8
BLACK
6
CONTINUOUS
10
97.5894
20
-229.606
11
97.4291
21
-229.446
0
LINE
8
BLACK
6
CONTINUOUS
10
97.4291
20
-229.446
11
97.2992
21
-229.26
0
LINE
8
BLACK
6
CONTINUOUS
10
97.2992
20
-229.26
11
97.2034
21
-229.055
0
LINE
8
BLACK
6
CONTINUOUS
10
97.2034
20
-229.055
11
97.1448
21
-228.836
0
LINE
8
BLACK
6
CONTINUOUS
10
97.1448
20
-228.836
11
97.125
21
-228.61
0
LINE
8
BLACK
6
CONTINUOUS
10
97.125
20
-228.61
11
97.1448
21
-228.384
0
LINE
8
BLACK
6
CONTINUOUS
10
97.1448
20
-228.384
11
97.2034
21
-228.165
0
LINE
8
BLACK
6
CONTINUOUS
10
97.2034
20
-228.165
11
97.2992
21
-227.96
0
LINE
8
BLACK
6
CONTINUOUS
10
97.2992
20
-227.96
11
97.4291
21
-227.774
0
LINE
8
BLACK
6
CONTINUOUS
10
97.4291
20
-227.774
11
97.5894
21
-227.614
0
LINE
8
BLACK
6
CONTINUOUS
10
97.5894
20
-227.614
11
97.775
21
-227.484
0
LINE
8
BLACK
6
CONTINUOUS
10
97.775
20
-227.484
11
97.9804
21
-227.388
0
LINE
8
BLACK
6
CONTINUOUS
10
97.9804
20
-227.388
11
98.1993
21
-227.33
0
LINE
8
BLACK
6
CONTINUOUS
10
98.1993
20
-227.33
11
98.425
21
-227.31
0
LINE
8
BLACK
6
CONTINUOUS
10
98.425
20
-227.31
11
98.6507
21
-227.33
0
LINE
8
BLACK
6
CONTINUOUS
10
111.961
20
-227.63
11
112.148
21
-227.688
0
LINE
8
BLACK
6
CONTINUOUS
10
112.148
20
-227.688
11
112.319
21
-227.781
0
LINE
8
BLACK
6
CONTINUOUS
10
112.319
20
-227.781
11
112.47
21
-227.905
0
LINE
8
BLACK
6
CONTINUOUS
10
112.47
20
-227.905
11
112.593
21
-228.057
0
LINE
8
BLACK
6
CONTINUOUS
10
112.593
20
-228.057
11
112.685
21
-228.229
0
LINE
8
BLACK
6
CONTINUOUS
10
112.685
20
-228.229
11
112.741
21
-228.416
0
LINE
8
BLACK
6
CONTINUOUS
10
112.741
20
-228.416
11
112.76
21
-228.61
0
LINE
8
BLACK
6
CONTINUOUS
10
112.76
20
-228.61
11
112.76
21
-228.638
0
LINE
8
BLACK
6
CONTINUOUS
10
112.76
20
-228.638
11
112.735
21
-228.832
0
LINE
8
BLACK
6
CONTINUOUS
10
112.735
20
-228.832
11
112.674
21
-229.017
0
LINE
8
BLACK
6
CONTINUOUS
10
112.674
20
-229.017
11
112.577
21
-229.186
0
LINE
8
BLACK
6
CONTINUOUS
10
112.577
20
-229.186
11
112.45
21
-229.334
0
LINE
8
BLACK
6
CONTINUOUS
10
112.45
20
-229.334
11
112.296
21
-229.454
0
LINE
8
BLACK
6
CONTINUOUS
10
112.296
20
-229.454
11
112.122
21
-229.542
0
LINE
8
BLACK
6
CONTINUOUS
10
112.122
20
-229.542
11
111.934
21
-229.595
0
LINE
8
BLACK
6
CONTINUOUS
10
111.934
20
-229.595
11
111.739
21
-229.61
0
LINE
8
BLACK
6
CONTINUOUS
10
111.739
20
-229.61
11
111.545
21
-229.587
0
LINE
8
BLACK
6
CONTINUOUS
10
111.545
20
-229.587
11
111.36
21
-229.526
0
LINE
8
BLACK
6
CONTINUOUS
10
111.36
20
-229.526
11
111.189
21
-229.431
0
LINE
8
BLACK
6
CONTINUOUS
10
111.189
20
-229.431
11
111.041
21
-229.305
0
LINE
8
BLACK
6
CONTINUOUS
10
111.041
20
-229.305
11
110.919
21
-229.152
0
LINE
8
BLACK
6
CONTINUOUS
10
110.919
20
-229.152
11
110.83
21
-228.978
0
LINE
8
BLACK
6
CONTINUOUS
10
110.83
20
-228.978
11
110.776
21
-228.791
0
LINE
8
BLACK
6
CONTINUOUS
10
110.776
20
-228.791
11
110.76
21
-228.596
0
LINE
8
BLACK
6
CONTINUOUS
10
110.76
20
-228.596
11
110.782
21
-228.402
0
LINE
8
BLACK
6
CONTINUOUS
10
110.782
20
-228.402
11
110.841
21
-228.216
0
LINE
8
BLACK
6
CONTINUOUS
10
110.841
20
-228.216
11
110.935
21
-228.045
0
LINE
8
BLACK
6
CONTINUOUS
10
110.935
20
-228.045
11
111.06
21
-227.896
0
LINE
8
BLACK
6
CONTINUOUS
10
111.06
20
-227.896
11
111.212
21
-227.773
0
LINE
8
BLACK
6
CONTINUOUS
10
111.212
20
-227.773
11
111.385
21
-227.683
0
LINE
8
BLACK
6
CONTINUOUS
10
111.385
20
-227.683
11
111.573
21
-227.628
0
LINE
8
BLACK
6
CONTINUOUS
10
111.573
20
-227.628
11
111.767
21
-227.61
0
LINE
8
BLACK
6
CONTINUOUS
10
111.767
20
-227.61
11
111.961
21
-227.63
0
LINE
8
BLACK
6
CONTINUOUS
10
104.357
20
-222.934
11
104.568
21
-222.99
0
LINE
8
BLACK
6
CONTINUOUS
10
104.568
20
-222.99
11
104.765
21
-223.082
0
LINE
8
BLACK
6
CONTINUOUS
10
104.765
20
-223.082
11
104.943
21
-223.207
0
LINE
8
BLACK
6
CONTINUOUS
10
104.943
20
-223.207
11
105.098
21
-223.362
0
LINE
8
BLACK
6
CONTINUOUS
10
105.098
20
-223.362
11
105.223
21
-223.54
0
LINE
8
BLACK
6
CONTINUOUS
10
105.223
20
-223.54
11
105.315
21
-223.737
0
LINE
8
BLACK
6
CONTINUOUS
10
105.315
20
-223.737
11
105.371
21
-223.948
0
LINE
8
BLACK
6
CONTINUOUS
10
105.371
20
-223.948
11
105.39
21
-224.165
0
LINE
8
BLACK
6
CONTINUOUS
10
105.39
20
-224.165
11
105.371
21
-224.382
0
LINE
8
BLACK
6
CONTINUOUS
10
105.371
20
-224.382
11
105.315
21
-224.593
0
LINE
8
BLACK
6
CONTINUOUS
10
105.315
20
-224.593
11
105.223
21
-224.79
0
LINE
8
BLACK
6
CONTINUOUS
10
105.223
20
-224.79
11
105.098
21
-224.968
0
LINE
8
BLACK
6
CONTINUOUS
10
105.098
20
-224.968
11
104.943
21
-225.123
0
LINE
8
BLACK
6
CONTINUOUS
10
104.943
20
-225.123
11
104.765
21
-225.248
0
LINE
8
BLACK
6
CONTINUOUS
10
104.765
20
-225.248
11
104.568
21
-225.34
0
LINE
8
BLACK
6
CONTINUOUS
10
104.568
20
-225.34
11
104.357
21
-225.396
0
LINE
8
BLACK
6
CONTINUOUS
10
104.357
20
-225.396
11
104.14
21
-225.415
0
LINE
8
BLACK
6
CONTINUOUS
10
104.14
20
-225.415
11
103.923
21
-225.396
0
LINE
8
BLACK
6
CONTINUOUS
10
103.923
20
-225.396
11
103.712
21
-225.34
0
LINE
8
BLACK
6
CONTINUOUS
10
103.712
20
-225.34
11
103.515
21
-225.248
0
LINE
8
BLACK
6
CONTINUOUS
10
103.515
20
-225.248
11
103.337
21
-225.123
0
LINE
8
BLACK
6
CONTINUOUS
10
103.337
20
-225.123
11
103.182
21
-224.968
0
LINE
8
BLACK
6
CONTINUOUS
10
103.182
20
-224.968
11
103.057
21
-224.79
0
LINE
8
BLACK
6
CONTINUOUS
10
103.057
20
-224.79
11
102.965
21
-224.593
0
LINE
8
BLACK
6
CONTINUOUS
10
102.965
20
-224.593
11
102.909
21
-224.382
0
LINE
8
BLACK
6
CONTINUOUS
10
102.909
20
-224.382
11
102.89
21
-224.165
0
LINE
8
BLACK
6
CONTINUOUS
10
102.89
20
-224.165
11
102.909
21
-223.948
0
LINE
8
BLACK
6
CONTINUOUS
10
102.909
20
-223.948
11
102.965
21
-223.737
0
LINE
8
BLACK
6
CONTINUOUS
10
102.965
20
-223.737
11
103.057
21
-223.54
0
LINE
8
BLACK
6
CONTINUOUS
10
103.057
20
-223.54
11
103.182
21
-223.362
0
LINE
8
BLACK
6
CONTINUOUS
10
103.182
20
-223.362
11
103.337
21
-223.207
0
LINE
8
BLACK
6
CONTINUOUS
10
103.337
20
-223.207
11
103.515
21
-223.082
0
LINE
8
BLACK
6
CONTINUOUS
10
103.515
20
-223.082
11
103.712
21
-222.99
0
LINE
8
BLACK
6
CONTINUOUS
10
103.712
20
-222.99
11
103.923
21
-222.934
0
LINE
8
BLACK
6
CONTINUOUS
10
103.923
20
-222.934
11
104.14
21
-222.915
0
LINE
8
BLACK
6
CONTINUOUS
10
104.14
20
-222.915
11
104.357
21
-222.934
0
LINE
8
BLACK
6
CONTINUOUS
10
104.357
20
-218.234
11
104.568
21
-218.29
0
LINE
8
BLACK
6
CONTINUOUS
10
104.568
20
-218.29
11
104.765
21
-218.382
0
LINE
8
BLACK
6
CONTINUOUS
10
104.765
20
-218.382
11
104.943
21
-218.507
0
LINE
8
BLACK
6
CONTINUOUS
10
104.943
20
-218.507
11
105.098
21
-218.662
0
LINE
8
BLACK
6
CONTINUOUS
10
105.098
20
-218.662
11
105.223
21
-218.84
0
LINE
8
BLACK
6
CONTINUOUS
10
105.223
20
-218.84
11
105.315
21
-219.037
0
LINE
8
BLACK
6
CONTINUOUS
10
105.315
20
-219.037
11
105.371
21
-219.248
0
LINE
8
BLACK
6
CONTINUOUS
10
105.371
20
-219.248
11
105.39
21
-219.465
0
LINE
8
BLACK
6
CONTINUOUS
10
105.39
20
-219.465
11
105.371
21
-219.682
0
LINE
8
BLACK
6
CONTINUOUS
10
105.371
20
-219.682
11
105.315
21
-219.893
0
LINE
8
BLACK
6
CONTINUOUS
10
105.315
20
-219.893
11
105.223
21
-220.09
0
LINE
8
BLACK
6
CONTINUOUS
10
105.223
20
-220.09
11
105.098
21
-220.268
0
LINE
8
BLACK
6
CONTINUOUS
10
105.098
20
-220.268
11
104.943
21
-220.423
0
LINE
8
BLACK
6
CONTINUOUS
10
104.943
20
-220.423
11
104.765
21
-220.548
0
LINE
8
BLACK
6
CONTINUOUS
10
104.765
20
-220.548
11
104.568
21
-220.64
0
LINE
8
BLACK
6
CONTINUOUS
10
104.568
20
-220.64
11
104.357
21
-220.696
0
LINE
8
BLACK
6
CONTINUOUS
10
104.357
20
-220.696
11
104.14
21
-220.715
0
LINE
8
BLACK
6
CONTINUOUS
10
104.14
20
-220.715
11
103.923
21
-220.696
0
LINE
8
BLACK
6
CONTINUOUS
10
103.923
20
-220.696
11
103.712
21
-220.64
0
LINE
8
BLACK
6
CONTINUOUS
10
103.712
20
-220.64
11
103.515
21
-220.548
0
LINE
8
BLACK
6
CONTINUOUS
10
103.515
20
-220.548
11
103.337
21
-220.423
0
LINE
8
BLACK
6
CONTINUOUS
10
103.337
20
-220.423
11
103.182
21
-220.268
0
LINE
8
BLACK
6
CONTINUOUS
10
103.182
20
-220.268
11
103.057
21
-220.09
0
LINE
8
BLACK
6
CONTINUOUS
10
103.057
20
-220.09
11
102.965
21
-219.893
0
LINE
8
BLACK
6
CONTINUOUS
10
102.965
20
-219.893
11
102.909
21
-219.682
0
LINE
8
BLACK
6
CONTINUOUS
10
102.909
20
-219.682
11
102.89
21
-219.465
0
LINE
8
BLACK
6
CONTINUOUS
10
102.89
20
-219.465
11
102.909
21
-219.248
0
LINE
8
BLACK
6
CONTINUOUS
10
102.909
20
-219.248
11
102.965
21
-219.037
0
LINE
8
BLACK
6
CONTINUOUS
10
102.965
20
-219.037
11
103.057
21
-218.84
0
LINE
8
BLACK
6
CONTINUOUS
10
103.057
20
-218.84
11
103.182
21
-218.662
0
LINE
8
BLACK
6
CONTINUOUS
10
103.182
20
-218.662
11
103.337
21
-218.507
0
LINE
8
BLACK
6
CONTINUOUS
10
103.337
20
-218.507
11
103.515
21
-218.382
0
LINE
8
BLACK
6
CONTINUOUS
10
103.515
20
-218.382
11
103.712
21
-218.29
0
LINE
8
BLACK
6
CONTINUOUS
10
103.712
20
-218.29
11
103.923
21
-218.234
0
LINE
8
BLACK
6
CONTINUOUS
10
103.923
20
-218.234
11
104.14
21
-218.215
0
LINE
8
BLACK
6
CONTINUOUS
10
104.14
20
-218.215
11
104.357
21
-218.234
0
LINE
8
BLACK
6
CONTINUOUS
10
111.961
20
-218.105
11
112.148
21
-218.163
0
LINE
8
BLACK
6
CONTINUOUS
10
112.148
20
-218.163
11
112.319
21
-218.256
0
LINE
8
BLACK
6
CONTINUOUS
10
112.319
20
-218.256
11
112.47
21
-218.38
0
LINE
8
BLACK
6
CONTINUOUS
10
112.47
20
-218.38
11
112.593
21
-218.532
0
LINE
8
BLACK
6
CONTINUOUS
10
112.593
20
-218.532
11
112.685
21
-218.704
0
LINE
8
BLACK
6
CONTINUOUS
10
112.685
20
-218.704
11
112.741
21
-218.891
0
LINE
8
BLACK
6
CONTINUOUS
10
112.741
20
-218.891
11
112.76
21
-219.085
0
LINE
8
BLACK
6
CONTINUOUS
10
112.76
20
-219.085
11
112.76
21
-219.113
0
LINE
8
BLACK
6
CONTINUOUS
10
112.76
20
-219.113
11
112.735
21
-219.307
0
LINE
8
BLACK
6
CONTINUOUS
10
112.735
20
-219.307
11
112.674
21
-219.492
0
LINE
8
BLACK
6
CONTINUOUS
10
112.674
20
-219.492
11
112.577
21
-219.661
0
LINE
8
BLACK
6
CONTINUOUS
10
112.577
20
-219.661
11
112.45
21
-219.809
0
LINE
8
BLACK
6
CONTINUOUS
10
112.45
20
-219.809
11
112.296
21
-219.929
0
LINE
8
BLACK
6
CONTINUOUS
10
112.296
20
-219.929
11
112.122
21
-220.017
0
LINE
8
BLACK
6
CONTINUOUS
10
112.122
20
-220.017
11
111.934
21
-220.07
0
LINE
8
BLACK
6
CONTINUOUS
10
111.934
20
-220.07
11
111.739
21
-220.085
0
LINE
8
BLACK
6
CONTINUOUS
10
111.739
20
-220.085
11
111.545
21
-220.062
0
LINE
8
BLACK
6
CONTINUOUS
10
111.545
20
-220.062
11
111.36
21
-220.001
0
LINE
8
BLACK
6
CONTINUOUS
10
111.36
20
-220.001
11
111.189
21
-219.906
0
LINE
8
BLACK
6
CONTINUOUS
10
111.189
20
-219.906
11
111.041
21
-219.78
0
LINE
8
BLACK
6
CONTINUOUS
10
111.041
20
-219.78
11
110.919
21
-219.627
0
LINE
8
BLACK
6
CONTINUOUS
10
110.919
20
-219.627
11
110.83
21
-219.453
0
LINE
8
BLACK
6
CONTINUOUS
10
110.83
20
-219.453
11
110.776
21
-219.266
0
LINE
8
BLACK
6
CONTINUOUS
10
110.776
20
-219.266
11
110.76
21
-219.071
0
LINE
8
BLACK
6
CONTINUOUS
10
110.76
20
-219.071
11
110.782
21
-218.877
0
LINE
8
BLACK
6
CONTINUOUS
10
110.782
20
-218.877
11
110.841
21
-218.691
0
LINE
8
BLACK
6
CONTINUOUS
10
110.841
20
-218.691
11
110.935
21
-218.52
0
LINE
8
BLACK
6
CONTINUOUS
10
110.935
20
-218.52
11
111.06
21
-218.371
0
LINE
8
BLACK
6
CONTINUOUS
10
111.06
20
-218.371
11
111.212
21
-218.248
0
LINE
8
BLACK
6
CONTINUOUS
10
111.212
20
-218.248
11
111.385
21
-218.158
0
LINE
8
BLACK
6
CONTINUOUS
10
111.385
20
-218.158
11
111.573
21
-218.103
0
LINE
8
BLACK
6
CONTINUOUS
10
111.573
20
-218.103
11
111.767
21
-218.085
0
LINE
8
BLACK
6
CONTINUOUS
10
111.767
20
-218.085
11
111.961
21
-218.105
0
LINE
8
BLACK
6
CONTINUOUS
10
109.483
20
-211.292
11
109.645
21
-211.364
0
LINE
8
BLACK
6
CONTINUOUS
10
109.645
20
-211.364
11
109.789
21
-211.468
0
LINE
8
BLACK
6
CONTINUOUS
10
109.789
20
-211.468
11
109.908
21
-211.6
0
LINE
8
BLACK
6
CONTINUOUS
10
109.908
20
-211.6
11
109.997
21
-211.754
0
LINE
8
BLACK
6
CONTINUOUS
10
109.997
20
-211.754
11
110.051
21
-211.923
0
LINE
8
BLACK
6
CONTINUOUS
10
110.051
20
-211.923
11
110.07
21
-212.1
0
LINE
8
BLACK
6
CONTINUOUS
10
110.07
20
-212.1
11
110.051
21
-212.277
0
LINE
8
BLACK
6
CONTINUOUS
10
110.051
20
-212.277
11
109.997
21
-212.446
0
LINE
8
BLACK
6
CONTINUOUS
10
109.997
20
-212.446
11
109.908
21
-212.6
0
LINE
8
BLACK
6
CONTINUOUS
10
109.908
20
-212.6
11
109.789
21
-212.732
0
LINE
8
BLACK
6
CONTINUOUS
10
109.789
20
-212.732
11
109.645
21
-212.836
0
LINE
8
BLACK
6
CONTINUOUS
10
109.645
20
-212.836
11
109.483
21
-212.908
0
LINE
8
BLACK
6
CONTINUOUS
10
109.483
20
-212.908
11
109.309
21
-212.945
0
LINE
8
BLACK
6
CONTINUOUS
10
109.309
20
-212.945
11
109.131
21
-212.945
0
LINE
8
BLACK
6
CONTINUOUS
10
109.131
20
-212.945
11
108.957
21
-212.908
0
LINE
8
BLACK
6
CONTINUOUS
10
108.957
20
-212.908
11
108.795
21
-212.836
0
LINE
8
BLACK
6
CONTINUOUS
10
108.795
20
-212.836
11
108.651
21
-212.732
0
LINE
8
BLACK
6
CONTINUOUS
10
108.651
20
-212.732
11
108.532
21
-212.6
0
LINE
8
BLACK
6
CONTINUOUS
10
108.532
20
-212.6
11
108.443
21
-212.446
0
LINE
8
BLACK
6
CONTINUOUS
10
108.443
20
-212.446
11
108.389
21
-212.277
0
LINE
8
BLACK
6
CONTINUOUS
10
108.389
20
-212.277
11
108.37
21
-212.1
0
LINE
8
BLACK
6
CONTINUOUS
10
108.37
20
-212.1
11
108.389
21
-211.923
0
LINE
8
BLACK
6
CONTINUOUS
10
108.389
20
-211.923
11
108.443
21
-211.754
0
LINE
8
BLACK
6
CONTINUOUS
10
108.443
20
-211.754
11
108.532
21
-211.6
0
LINE
8
BLACK
6
CONTINUOUS
10
108.532
20
-211.6
11
108.651
21
-211.468
0
LINE
8
BLACK
6
CONTINUOUS
10
108.651
20
-211.468
11
108.795
21
-211.364
0
LINE
8
BLACK
6
CONTINUOUS
10
108.795
20
-211.364
11
108.957
21
-211.292
0
LINE
8
BLACK
6
CONTINUOUS
10
108.957
20
-211.292
11
109.131
21
-211.255
0
LINE
8
BLACK
6
CONTINUOUS
10
109.131
20
-211.255
11
109.309
21
-211.255
0
LINE
8
BLACK
6
CONTINUOUS
10
109.309
20
-211.255
11
109.483
21
-211.292
0
LINE
8
BLACK
6
CONTINUOUS
10
99.3227
20
-211.292
11
99.485
21
-211.364
0
LINE
8
BLACK
6
CONTINUOUS
10
99.485
20
-211.364
11
99.6288
21
-211.468
0
LINE
8
BLACK
6
CONTINUOUS
10
99.6288
20
-211.468
11
99.7477
21
-211.6
0
LINE
8
BLACK
6
CONTINUOUS
10
99.7477
20
-211.6
11
99.8365
21
-211.754
0
LINE
8
BLACK
6
CONTINUOUS
10
99.8365
20
-211.754
11
99.8914
21
-211.923
0
LINE
8
BLACK
6
CONTINUOUS
10
99.8914
20
-211.923
11
99.91
21
-212.1
0
LINE
8
BLACK
6
CONTINUOUS
10
99.91
20
-212.1
11
99.8914
21
-212.277
0
LINE
8
BLACK
6
CONTINUOUS
10
99.8914
20
-212.277
11
99.8365
21
-212.446
0
LINE
8
BLACK
6
CONTINUOUS
10
99.8365
20
-212.446
11
99.7477
21
-212.6
0
LINE
8
BLACK
6
CONTINUOUS
10
99.7477
20
-212.6
11
99.6288
21
-212.732
0
LINE
8
BLACK
6
CONTINUOUS
10
99.6288
20
-212.732
11
99.485
21
-212.836
0
LINE
8
BLACK
6
CONTINUOUS
10
99.485
20
-212.836
11
99.3227
21
-212.908
0
LINE
8
BLACK
6
CONTINUOUS
10
99.3227
20
-212.908
11
99.1488
21
-212.945
0
LINE
8
BLACK
6
CONTINUOUS
10
99.1488
20
-212.945
11
98.9712
21
-212.945
0
LINE
8
BLACK
6
CONTINUOUS
10
98.9712
20
-212.945
11
98.7973
21
-212.908
0
LINE
8
BLACK
6
CONTINUOUS
10
98.7973
20
-212.908
11
98.635
21
-212.836
0
LINE
8
BLACK
6
CONTINUOUS
10
98.635
20
-212.836
11
98.4912
21
-212.732
0
LINE
8
BLACK
6
CONTINUOUS
10
98.4912
20
-212.732
11
98.3723
21
-212.6
0
LINE
8
BLACK
6
CONTINUOUS
10
98.3723
20
-212.6
11
98.2835
21
-212.446
0
LINE
8
BLACK
6
CONTINUOUS
10
98.2835
20
-212.446
11
98.2286
21
-212.277
0
LINE
8
BLACK
6
CONTINUOUS
10
98.2286
20
-212.277
11
98.21
21
-212.1
0
LINE
8
BLACK
6
CONTINUOUS
10
98.21
20
-212.1
11
98.2286
21
-211.923
0
LINE
8
BLACK
6
CONTINUOUS
10
98.2286
20
-211.923
11
98.2835
21
-211.754
0
LINE
8
BLACK
6
CONTINUOUS
10
98.2835
20
-211.754
11
98.3723
21
-211.6
0
LINE
8
BLACK
6
CONTINUOUS
10
98.3723
20
-211.6
11
98.4912
21
-211.468
0
LINE
8
BLACK
6
CONTINUOUS
10
98.4912
20
-211.468
11
98.635
21
-211.364
0
LINE
8
BLACK
6
CONTINUOUS
10
98.635
20
-211.364
11
98.7973
21
-211.292
0
LINE
8
BLACK
6
CONTINUOUS
10
98.7973
20
-211.292
11
98.9712
21
-211.255
0
LINE
8
BLACK
6
CONTINUOUS
10
98.9712
20
-211.255
11
99.1488
21
-211.255
0
LINE
8
BLACK
6
CONTINUOUS
10
99.1488
20
-211.255
11
99.3227
21
-211.292
0
LINE
8
BLACK
6
CONTINUOUS
10
101.863
20
-211.292
11
102.025
21
-211.364
0
LINE
8
BLACK
6
CONTINUOUS
10
102.025
20
-211.364
11
102.169
21
-211.468
0
LINE
8
BLACK
6
CONTINUOUS
10
102.169
20
-211.468
11
102.288
21
-211.6
0
LINE
8
BLACK
6
CONTINUOUS
10
102.288
20
-211.6
11
102.377
21
-211.754
0
LINE
8
BLACK
6
CONTINUOUS
10
102.377
20
-211.754
11
102.431
21
-211.923
0
LINE
8
BLACK
6
CONTINUOUS
10
102.431
20
-211.923
11
102.45
21
-212.1
0
LINE
8
BLACK
6
CONTINUOUS
10
102.45
20
-212.1
11
102.431
21
-212.277
0
LINE
8
BLACK
6
CONTINUOUS
10
102.431
20
-212.277
11
102.377
21
-212.446
0
LINE
8
BLACK
6
CONTINUOUS
10
102.377
20
-212.446
11
102.288
21
-212.6
0
LINE
8
BLACK
6
CONTINUOUS
10
102.288
20
-212.6
11
102.169
21
-212.732
0
LINE
8
BLACK
6
CONTINUOUS
10
102.169
20
-212.732
11
102.025
21
-212.836
0
LINE
8
BLACK
6
CONTINUOUS
10
102.025
20
-212.836
11
101.863
21
-212.908
0
LINE
8
BLACK
6
CONTINUOUS
10
101.863
20
-212.908
11
101.689
21
-212.945
0
LINE
8
BLACK
6
CONTINUOUS
10
101.689
20
-212.945
11
101.511
21
-212.945
0
LINE
8
BLACK
6
CONTINUOUS
10
101.511
20
-212.945
11
101.337
21
-212.908
0
LINE
8
BLACK
6
CONTINUOUS
10
101.337
20
-212.908
11
101.175
21
-212.836
0
LINE
8
BLACK
6
CONTINUOUS
10
101.175
20
-212.836
11
101.031
21
-212.732
0
LINE
8
BLACK
6
CONTINUOUS
10
101.031
20
-212.732
11
100.912
21
-212.6
0
LINE
8
BLACK
6
CONTINUOUS
10
100.912
20
-212.6
11
100.823
21
-212.446
0
LINE
8
BLACK
6
CONTINUOUS
10
100.823
20
-212.446
11
100.769
21
-212.277
0
LINE
8
BLACK
6
CONTINUOUS
10
100.769
20
-212.277
11
100.75
21
-212.1
0
LINE
8
BLACK
6
CONTINUOUS
10
100.75
20
-212.1
11
100.769
21
-211.923
0
LINE
8
BLACK
6
CONTINUOUS
10
100.769
20
-211.923
11
100.823
21
-211.754
0
LINE
8
BLACK
6
CONTINUOUS
10
100.823
20
-211.754
11
100.912
21
-211.6
0
LINE
8
BLACK
6
CONTINUOUS
10
100.912
20
-211.6
11
101.031
21
-211.468
0
LINE
8
BLACK
6
CONTINUOUS
10
101.031
20
-211.468
11
101.175
21
-211.364
0
LINE
8
BLACK
6
CONTINUOUS
10
101.175
20
-211.364
11
101.337
21
-211.292
0
LINE
8
BLACK
6
CONTINUOUS
10
101.337
20
-211.292
11
101.511
21
-211.255
0
LINE
8
BLACK
6
CONTINUOUS
10
101.511
20
-211.255
11
101.689
21
-211.255
0
LINE
8
BLACK
6
CONTINUOUS
10
101.689
20
-211.255
11
101.863
21
-211.292
0
LINE
8
BLACK
6
CONTINUOUS
10
104.403
20
-211.292
11
104.565
21
-211.364
0
LINE
8
BLACK
6
CONTINUOUS
10
104.565
20
-211.364
11
104.709
21
-211.468
0
LINE
8
BLACK
6
CONTINUOUS
10
104.709
20
-211.468
11
104.828
21
-211.6
0
LINE
8
BLACK
6
CONTINUOUS
10
104.828
20
-211.6
11
104.917
21
-211.754
0
LINE
8
BLACK
6
CONTINUOUS
10
104.917
20
-211.754
11
104.971
21
-211.923
0
LINE
8
BLACK
6
CONTINUOUS
10
104.971
20
-211.923
11
104.99
21
-212.1
0
LINE
8
BLACK
6
CONTINUOUS
10
104.99
20
-212.1
11
104.971
21
-212.277
0
LINE
8
BLACK
6
CONTINUOUS
10
104.971
20
-212.277
11
104.917
21
-212.446
0
LINE
8
BLACK
6
CONTINUOUS
10
104.917
20
-212.446
11
104.828
21
-212.6
0
LINE
8
BLACK
6
CONTINUOUS
10
104.828
20
-212.6
11
104.709
21
-212.732
0
LINE
8
BLACK
6
CONTINUOUS
10
104.709
20
-212.732
11
104.565
21
-212.836
0
LINE
8
BLACK
6
CONTINUOUS
10
104.565
20
-212.836
11
104.403
21
-212.908
0
LINE
8
BLACK
6
CONTINUOUS
10
104.403
20
-212.908
11
104.229
21
-212.945
0
LINE
8
BLACK
6
CONTINUOUS
10
104.229
20
-212.945
11
104.051
21
-212.945
0
LINE
8
BLACK
6
CONTINUOUS
10
104.051
20
-212.945
11
103.877
21
-212.908
0
LINE
8
BLACK
6
CONTINUOUS
10
103.877
20
-212.908
11
103.715
21
-212.836
0
LINE
8
BLACK
6
CONTINUOUS
10
103.715
20
-212.836
11
103.571
21
-212.732
0
LINE
8
BLACK
6
CONTINUOUS
10
103.571
20
-212.732
11
103.452
21
-212.6
0
LINE
8
BLACK
6
CONTINUOUS
10
103.452
20
-212.6
11
103.363
21
-212.446
0
LINE
8
BLACK
6
CONTINUOUS
10
103.363
20
-212.446
11
103.309
21
-212.277
0
LINE
8
BLACK
6
CONTINUOUS
10
103.309
20
-212.277
11
103.29
21
-212.1
0
LINE
8
BLACK
6
CONTINUOUS
10
103.29
20
-212.1
11
103.309
21
-211.923
0
LINE
8
BLACK
6
CONTINUOUS
10
103.309
20
-211.923
11
103.363
21
-211.754
0
LINE
8
BLACK
6
CONTINUOUS
10
103.363
20
-211.754
11
103.452
21
-211.6
0
LINE
8
BLACK
6
CONTINUOUS
10
103.452
20
-211.6
11
103.571
21
-211.468
0
LINE
8
BLACK
6
CONTINUOUS
10
103.571
20
-211.468
11
103.715
21
-211.364
0
LINE
8
BLACK
6
CONTINUOUS
10
103.715
20
-211.364
11
103.877
21
-211.292
0
LINE
8
BLACK
6
CONTINUOUS
10
103.877
20
-211.292
11
104.051
21
-211.255
0
LINE
8
BLACK
6
CONTINUOUS
10
104.051
20
-211.255
11
104.229
21
-211.255
0
LINE
8
BLACK
6
CONTINUOUS
10
104.229
20
-211.255
11
104.403
21
-211.292
0
LINE
8
BLACK
6
CONTINUOUS
10
106.943
20
-211.292
11
107.105
21
-211.364
0
LINE
8
BLACK
6
CONTINUOUS
10
107.105
20
-211.364
11
107.249
21
-211.468
0
LINE
8
BLACK
6
CONTINUOUS
10
107.249
20
-211.468
11
107.368
21
-211.6
0
LINE
8
BLACK
6
CONTINUOUS
10
107.368
20
-211.6
11
107.457
21
-211.754
0
LINE
8
BLACK
6
CONTINUOUS
10
107.457
20
-211.754
11
107.511
21
-211.923
0
LINE
8
BLACK
6
CONTINUOUS
10
107.511
20
-211.923
11
107.53
21
-212.1
0
LINE
8
BLACK
6
CONTINUOUS
10
107.53
20
-212.1
11
107.511
21
-212.277
0
LINE
8
BLACK
6
CONTINUOUS
10
107.511
20
-212.277
11
107.457
21
-212.446
0
LINE
8
BLACK
6
CONTINUOUS
10
107.457
20
-212.446
11
107.368
21
-212.6
0
LINE
8
BLACK
6
CONTINUOUS
10
107.368
20
-212.6
11
107.249
21
-212.732
0
LINE
8
BLACK
6
CONTINUOUS
10
107.249
20
-212.732
11
107.105
21
-212.836
0
LINE
8
BLACK
6
CONTINUOUS
10
107.105
20
-212.836
11
106.943
21
-212.908
0
LINE
8
BLACK
6
CONTINUOUS
10
106.943
20
-212.908
11
106.769
21
-212.945
0
LINE
8
BLACK
6
CONTINUOUS
10
106.769
20
-212.945
11
106.591
21
-212.945
0
LINE
8
BLACK
6
CONTINUOUS
10
106.591
20
-212.945
11
106.417
21
-212.908
0
LINE
8
BLACK
6
CONTINUOUS
10
106.417
20
-212.908
11
106.255
21
-212.836
0
LINE
8
BLACK
6
CONTINUOUS
10
106.255
20
-212.836
11
106.111
21
-212.732
0
LINE
8
BLACK
6
CONTINUOUS
10
106.111
20
-212.732
11
105.992
21
-212.6
0
LINE
8
BLACK
6
CONTINUOUS
10
105.992
20
-212.6
11
105.903
21
-212.446
0
LINE
8
BLACK
6
CONTINUOUS
10
105.903
20
-212.446
11
105.849
21
-212.277
0
LINE
8
BLACK
6
CONTINUOUS
10
105.849
20
-212.277
11
105.83
21
-212.1
0
LINE
8
BLACK
6
CONTINUOUS
10
105.83
20
-212.1
11
105.849
21
-211.923
0
LINE
8
BLACK
6
CONTINUOUS
10
105.849
20
-211.923
11
105.903
21
-211.754
0
LINE
8
BLACK
6
CONTINUOUS
10
105.903
20
-211.754
11
105.992
21
-211.6
0
LINE
8
BLACK
6
CONTINUOUS
10
105.992
20
-211.6
11
106.111
21
-211.468
0
LINE
8
BLACK
6
CONTINUOUS
10
106.111
20
-211.468
11
106.255
21
-211.364
0
LINE
8
BLACK
6
CONTINUOUS
10
106.255
20
-211.364
11
106.417
21
-211.292
0
LINE
8
BLACK
6
CONTINUOUS
10
106.417
20
-211.292
11
106.591
21
-211.255
0
LINE
8
BLACK
6
CONTINUOUS
10
106.591
20
-211.255
11
106.769
21
-211.255
0
LINE
8
BLACK
6
CONTINUOUS
10
106.769
20
-211.255
11
106.943
21
-211.292
0
LINE
8
BLACK
6
CONTINUOUS
10
117.676
20
-208.58
11
117.863
21
-208.638
0
LINE
8
BLACK
6
CONTINUOUS
10
117.863
20
-208.638
11
118.034
21
-208.731
0
LINE
8
BLACK
6
CONTINUOUS
10
118.034
20
-208.731
11
118.185
21
-208.855
0
LINE
8
BLACK
6
CONTINUOUS
10
118.185
20
-208.855
11
118.308
21
-209.007
0
LINE
8
BLACK
6
CONTINUOUS
10
118.308
20
-209.007
11
118.4
21
-209.179
0
LINE
8
BLACK
6
CONTINUOUS
10
118.4
20
-209.179
11
118.456
21
-209.366
0
LINE
8
BLACK
6
CONTINUOUS
10
118.456
20
-209.366
11
118.475
21
-209.56
0
LINE
8
BLACK
6
CONTINUOUS
10
118.475
20
-209.56
11
118.475
21
-209.588
0
LINE
8
BLACK
6
CONTINUOUS
10
118.475
20
-209.588
11
118.45
21
-209.782
0
LINE
8
BLACK
6
CONTINUOUS
10
118.45
20
-209.782
11
118.389
21
-209.967
0
LINE
8
BLACK
6
CONTINUOUS
10
118.389
20
-209.967
11
118.292
21
-210.136
0
LINE
8
BLACK
6
CONTINUOUS
10
118.292
20
-210.136
11
118.165
21
-210.284
0
LINE
8
BLACK
6
CONTINUOUS
10
118.165
20
-210.284
11
118.011
21
-210.404
0
LINE
8
BLACK
6
CONTINUOUS
10
118.011
20
-210.404
11
117.837
21
-210.492
0
LINE
8
BLACK
6
CONTINUOUS
10
117.837
20
-210.492
11
117.649
21
-210.545
0
LINE
8
BLACK
6
CONTINUOUS
10
117.649
20
-210.545
11
117.454
21
-210.56
0
LINE
8
BLACK
6
CONTINUOUS
10
117.454
20
-210.56
11
117.26
21
-210.537
0
LINE
8
BLACK
6
CONTINUOUS
10
117.26
20
-210.537
11
117.075
21
-210.476
0
LINE
8
BLACK
6
CONTINUOUS
10
117.075
20
-210.476
11
116.904
21
-210.381
0
LINE
8
BLACK
6
CONTINUOUS
10
116.904
20
-210.381
11
116.756
21
-210.255
0
LINE
8
BLACK
6
CONTINUOUS
10
116.756
20
-210.255
11
116.634
21
-210.102
0
LINE
8
BLACK
6
CONTINUOUS
10
116.634
20
-210.102
11
116.545
21
-209.928
0
LINE
8
BLACK
6
CONTINUOUS
10
116.545
20
-209.928
11
116.491
21
-209.741
0
LINE
8
BLACK
6
CONTINUOUS
10
116.491
20
-209.741
11
116.475
21
-209.546
0
LINE
8
BLACK
6
CONTINUOUS
10
116.475
20
-209.546
11
116.497
21
-209.352
0
LINE
8
BLACK
6
CONTINUOUS
10
116.497
20
-209.352
11
116.556
21
-209.166
0
LINE
8
BLACK
6
CONTINUOUS
10
116.556
20
-209.166
11
116.65
21
-208.995
0
LINE
8
BLACK
6
CONTINUOUS
10
116.65
20
-208.995
11
116.775
21
-208.846
0
LINE
8
BLACK
6
CONTINUOUS
10
116.775
20
-208.846
11
116.927
21
-208.723
0
LINE
8
BLACK
6
CONTINUOUS
10
116.927
20
-208.723
11
117.1
21
-208.633
0
LINE
8
BLACK
6
CONTINUOUS
10
117.1
20
-208.633
11
117.288
21
-208.578
0
LINE
8
BLACK
6
CONTINUOUS
10
117.288
20
-208.578
11
117.482
21
-208.56
0
LINE
8
BLACK
6
CONTINUOUS
10
117.482
20
-208.56
11
117.676
21
-208.58
0
LINE
8
BLACK
6
CONTINUOUS
10
91.0061
20
-208.58
11
91.1925
21
-208.638
0
LINE
8
BLACK
6
CONTINUOUS
10
91.1925
20
-208.638
11
91.3642
21
-208.731
0
LINE
8
BLACK
6
CONTINUOUS
10
91.3642
20
-208.731
11
91.5146
21
-208.855
0
LINE
8
BLACK
6
CONTINUOUS
10
91.5146
20
-208.855
11
91.6379
21
-209.007
0
LINE
8
BLACK
6
CONTINUOUS
10
91.6379
20
-209.007
11
91.7295
21
-209.179
0
LINE
8
BLACK
6
CONTINUOUS
10
91.7295
20
-209.179
11
91.786
21
-209.366
0
LINE
8
BLACK
6
CONTINUOUS
10
91.786
20
-209.366
11
91.805
21
-209.56
0
LINE
8
BLACK
6
CONTINUOUS
10
91.805
20
-209.56
11
91.8046
21
-209.588
0
LINE
8
BLACK
6
CONTINUOUS
10
91.8046
20
-209.588
11
91.7801
21
-209.782
0
LINE
8
BLACK
6
CONTINUOUS
10
91.7801
20
-209.782
11
91.7185
21
-209.967
0
LINE
8
BLACK
6
CONTINUOUS
10
91.7185
20
-209.967
11
91.6221
21
-210.136
0
LINE
8
BLACK
6
CONTINUOUS
10
91.6221
20
-210.136
11
91.4946
21
-210.284
0
LINE
8
BLACK
6
CONTINUOUS
10
91.4946
20
-210.284
11
91.3408
21
-210.404
0
LINE
8
BLACK
6
CONTINUOUS
10
91.3408
20
-210.404
11
91.1666
21
-210.492
0
LINE
8
BLACK
6
CONTINUOUS
10
91.1666
20
-210.492
11
90.9786
21
-210.545
0
LINE
8
BLACK
6
CONTINUOUS
10
90.9786
20
-210.545
11
90.7841
21
-210.56
0
LINE
8
BLACK
6
CONTINUOUS
10
90.7841
20
-210.56
11
90.5903
21
-210.537
0
LINE
8
BLACK
6
CONTINUOUS
10
90.5903
20
-210.537
11
90.4047
21
-210.476
0
LINE
8
BLACK
6
CONTINUOUS
10
90.4047
20
-210.476
11
90.2343
21
-210.381
0
LINE
8
BLACK
6
CONTINUOUS
10
90.2343
20
-210.381
11
90.0857
21
-210.255
0
LINE
8
BLACK
6
CONTINUOUS
10
90.0857
20
-210.255
11
89.9644
21
-210.102
0
LINE
8
BLACK
6
CONTINUOUS
10
89.9644
20
-210.102
11
89.8752
21
-209.928
0
LINE
8
BLACK
6
CONTINUOUS
10
89.8752
20
-209.928
11
89.8214
21
-209.741
0
LINE
8
BLACK
6
CONTINUOUS
10
89.8214
20
-209.741
11
89.8051
21
-209.546
0
LINE
8
BLACK
6
CONTINUOUS
10
89.8051
20
-209.546
11
89.8269
21
-209.352
0
LINE
8
BLACK
6
CONTINUOUS
10
89.8269
20
-209.352
11
89.8859
21
-209.166
0
LINE
8
BLACK
6
CONTINUOUS
10
89.8859
20
-209.166
11
89.9799
21
-208.995
0
LINE
8
BLACK
6
CONTINUOUS
10
89.9799
20
-208.995
11
90.1053
21
-208.846
0
LINE
8
BLACK
6
CONTINUOUS
10
90.1053
20
-208.846
11
90.2574
21
-208.723
0
LINE
8
BLACK
6
CONTINUOUS
10
90.2574
20
-208.723
11
90.4304
21
-208.633
0
LINE
8
BLACK
6
CONTINUOUS
10
90.4304
20
-208.633
11
90.6176
21
-208.578
0
LINE
8
BLACK
6
CONTINUOUS
10
90.6176
20
-208.578
11
90.812
21
-208.56
0
LINE
8
BLACK
6
CONTINUOUS
10
90.812
20
-208.56
11
91.0061
21
-208.58
0
LINE
8
BLACK
6
CONTINUOUS
10
99.7557
20
-208.729
11
99.8368
21
-208.783
0
LINE
8
BLACK
6
CONTINUOUS
10
99.8368
20
-208.783
11
99.891
21
-208.864
0
LINE
8
BLACK
6
CONTINUOUS
10
99.891
20
-208.864
11
99.91
21
-208.96
0
LINE
8
BLACK
6
CONTINUOUS
10
99.91
20
-208.96
11
99.91
21
-210.16
0
LINE
8
BLACK
6
CONTINUOUS
10
99.91
20
-210.16
11
99.891
21
-210.256
0
LINE
8
BLACK
6
CONTINUOUS
10
99.891
20
-210.256
11
99.8368
21
-210.337
0
LINE
8
BLACK
6
CONTINUOUS
10
99.8368
20
-210.337
11
99.7557
21
-210.391
0
LINE
8
BLACK
6
CONTINUOUS
10
99.7557
20
-210.391
11
99.66
21
-210.41
0
LINE
8
BLACK
6
CONTINUOUS
10
99.66
20
-210.41
11
98.46
21
-210.41
0
LINE
8
BLACK
6
CONTINUOUS
10
98.46
20
-210.41
11
98.3643
21
-210.391
0
LINE
8
BLACK
6
CONTINUOUS
10
98.3643
20
-210.391
11
98.2832
21
-210.337
0
LINE
8
BLACK
6
CONTINUOUS
10
98.2832
20
-210.337
11
98.229
21
-210.256
0
LINE
8
BLACK
6
CONTINUOUS
10
98.229
20
-210.256
11
98.21
21
-210.16
0
LINE
8
BLACK
6
CONTINUOUS
10
98.21
20
-210.16
11
98.21
21
-208.96
0
LINE
8
BLACK
6
CONTINUOUS
10
98.21
20
-208.96
11
98.229
21
-208.864
0
LINE
8
BLACK
6
CONTINUOUS
10
98.229
20
-208.864
11
98.2832
21
-208.783
0
LINE
8
BLACK
6
CONTINUOUS
10
98.2832
20
-208.783
11
98.3643
21
-208.729
0
LINE
8
BLACK
6
CONTINUOUS
10
98.3643
20
-208.729
11
98.46
21
-208.71
0
LINE
8
BLACK
6
CONTINUOUS
10
98.46
20
-208.71
11
99.66
21
-208.71
0
LINE
8
BLACK
6
CONTINUOUS
10
99.66
20
-208.71
11
99.7557
21
-208.729
0
LINE
8
BLACK
6
CONTINUOUS
10
104.403
20
-208.752
11
104.565
21
-208.824
0
LINE
8
BLACK
6
CONTINUOUS
10
104.565
20
-208.824
11
104.709
21
-208.928
0
LINE
8
BLACK
6
CONTINUOUS
10
104.709
20
-208.928
11
104.828
21
-209.06
0
LINE
8
BLACK
6
CONTINUOUS
10
104.828
20
-209.06
11
104.917
21
-209.214
0
LINE
8
BLACK
6
CONTINUOUS
10
104.917
20
-209.214
11
104.971
21
-209.383
0
LINE
8
BLACK
6
CONTINUOUS
10
104.971
20
-209.383
11
104.99
21
-209.56
0
LINE
8
BLACK
6
CONTINUOUS
10
104.99
20
-209.56
11
104.971
21
-209.737
0
LINE
8
BLACK
6
CONTINUOUS
10
104.971
20
-209.737
11
104.917
21
-209.906
0
LINE
8
BLACK
6
CONTINUOUS
10
104.917
20
-209.906
11
104.828
21
-210.06
0
LINE
8
BLACK
6
CONTINUOUS
10
104.828
20
-210.06
11
104.709
21
-210.192
0
LINE
8
BLACK
6
CONTINUOUS
10
104.709
20
-210.192
11
104.565
21
-210.296
0
LINE
8
BLACK
6
CONTINUOUS
10
104.565
20
-210.296
11
104.403
21
-210.368
0
LINE
8
BLACK
6
CONTINUOUS
10
104.403
20
-210.368
11
104.229
21
-210.405
0
LINE
8
BLACK
6
CONTINUOUS
10
104.229
20
-210.405
11
104.051
21
-210.405
0
LINE
8
BLACK
6
CONTINUOUS
10
104.051
20
-210.405
11
103.877
21
-210.368
0
LINE
8
BLACK
6
CONTINUOUS
10
103.877
20
-210.368
11
103.715
21
-210.296
0
LINE
8
BLACK
6
CONTINUOUS
10
103.715
20
-210.296
11
103.571
21
-210.192
0
LINE
8
BLACK
6
CONTINUOUS
10
103.571
20
-210.192
11
103.452
21
-210.06
0
LINE
8
BLACK
6
CONTINUOUS
10
103.452
20
-210.06
11
103.363
21
-209.906
0
LINE
8
BLACK
6
CONTINUOUS
10
103.363
20
-209.906
11
103.309
21
-209.737
0
LINE
8
BLACK
6
CONTINUOUS
10
103.309
20
-209.737
11
103.29
21
-209.56
0
LINE
8
BLACK
6
CONTINUOUS
10
103.29
20
-209.56
11
103.309
21
-209.383
0
LINE
8
BLACK
6
CONTINUOUS
10
103.309
20
-209.383
11
103.363
21
-209.214
0
LINE
8
BLACK
6
CONTINUOUS
10
103.363
20
-209.214
11
103.452
21
-209.06
0
LINE
8
BLACK
6
CONTINUOUS
10
103.452
20
-209.06
11
103.571
21
-208.928
0
LINE
8
BLACK
6
CONTINUOUS
10
103.571
20
-208.928
11
103.715
21
-208.824
0
LINE
8
BLACK
6
CONTINUOUS
10
103.715
20
-208.824
11
103.877
21
-208.752
0
LINE
8
BLACK
6
CONTINUOUS
10
103.877
20
-208.752
11
104.051
21
-208.715
0
LINE
8
BLACK
6
CONTINUOUS
10
104.051
20
-208.715
11
104.229
21
-208.715
0
LINE
8
BLACK
6
CONTINUOUS
10
104.229
20
-208.715
11
104.403
21
-208.752
0
LINE
8
BLACK
6
CONTINUOUS
10
101.863
20
-208.752
11
102.025
21
-208.824
0
LINE
8
BLACK
6
CONTINUOUS
10
102.025
20
-208.824
11
102.169
21
-208.928
0
LINE
8
BLACK
6
CONTINUOUS
10
102.169
20
-208.928
11
102.288
21
-209.06
0
LINE
8
BLACK
6
CONTINUOUS
10
102.288
20
-209.06
11
102.377
21
-209.214
0
LINE
8
BLACK
6
CONTINUOUS
10
102.377
20
-209.214
11
102.431
21
-209.383
0
LINE
8
BLACK
6
CONTINUOUS
10
102.431
20
-209.383
11
102.45
21
-209.56
0
LINE
8
BLACK
6
CONTINUOUS
10
102.45
20
-209.56
11
102.431
21
-209.737
0
LINE
8
BLACK
6
CONTINUOUS
10
102.431
20
-209.737
11
102.377
21
-209.906
0
LINE
8
BLACK
6
CONTINUOUS
10
102.377
20
-209.906
11
102.288
21
-210.06
0
LINE
8
BLACK
6
CONTINUOUS
10
102.288
20
-210.06
11
102.169
21
-210.192
0
LINE
8
BLACK
6
CONTINUOUS
10
102.169
20
-210.192
11
102.025
21
-210.296
0
LINE
8
BLACK
6
CONTINUOUS
10
102.025
20
-210.296
11
101.863
21
-210.368
0
LINE
8
BLACK
6
CONTINUOUS
10
101.863
20
-210.368
11
101.689
21
-210.405
0
LINE
8
BLACK
6
CONTINUOUS
10
101.689
20
-210.405
11
101.511
21
-210.405
0
LINE
8
BLACK
6
CONTINUOUS
10
101.511
20
-210.405
11
101.337
21
-210.368
0
LINE
8
BLACK
6
CONTINUOUS
10
101.337
20
-210.368
11
101.175
21
-210.296
0
LINE
8
BLACK
6
CONTINUOUS
10
101.175
20
-210.296
11
101.031
21
-210.192
0
LINE
8
BLACK
6
CONTINUOUS
10
101.031
20
-210.192
11
100.912
21
-210.06
0
LINE
8
BLACK
6
CONTINUOUS
10
100.912
20
-210.06
11
100.823
21
-209.906
0
LINE
8
BLACK
6
CONTINUOUS
10
100.823
20
-209.906
11
100.769
21
-209.737
0
LINE
8
BLACK
6
CONTINUOUS
10
100.769
20
-209.737
11
100.75
21
-209.56
0
LINE
8
BLACK
6
CONTINUOUS
10
100.75
20
-209.56
11
100.769
21
-209.383
0
LINE
8
BLACK
6
CONTINUOUS
10
100.769
20
-209.383
11
100.823
21
-209.214
0
LINE
8
BLACK
6
CONTINUOUS
10
100.823
20
-209.214
11
100.912
21
-209.06
0
LINE
8
BLACK
6
CONTINUOUS
10
100.912
20
-209.06
11
101.031
21
-208.928
0
LINE
8
BLACK
6
CONTINUOUS
10
101.031
20
-208.928
11
101.175
21
-208.824
0
LINE
8
BLACK
6
CONTINUOUS
10
101.175
20
-208.824
11
101.337
21
-208.752
0
LINE
8
BLACK
6
CONTINUOUS
10
101.337
20
-208.752
11
101.511
21
-208.715
0
LINE
8
BLACK
6
CONTINUOUS
10
101.511
20
-208.715
11
101.689
21
-208.715
0
LINE
8
BLACK
6
CONTINUOUS
10
101.689
20
-208.715
11
101.863
21
-208.752
0
LINE
8
BLACK
6
CONTINUOUS
10
109.483
20
-208.752
11
109.645
21
-208.824
0
LINE
8
BLACK
6
CONTINUOUS
10
109.645
20
-208.824
11
109.789
21
-208.928
0
LINE
8
BLACK
6
CONTINUOUS
10
109.789
20
-208.928
11
109.908
21
-209.06
0
LINE
8
BLACK
6
CONTINUOUS
10
109.908
20
-209.06
11
109.997
21
-209.214
0
LINE
8
BLACK
6
CONTINUOUS
10
109.997
20
-209.214
11
110.051
21
-209.383
0
LINE
8
BLACK
6
CONTINUOUS
10
110.051
20
-209.383
11
110.07
21
-209.56
0
LINE
8
BLACK
6
CONTINUOUS
10
110.07
20
-209.56
11
110.051
21
-209.737
0
LINE
8
BLACK
6
CONTINUOUS
10
110.051
20
-209.737
11
109.997
21
-209.906
0
LINE
8
BLACK
6
CONTINUOUS
10
109.997
20
-209.906
11
109.908
21
-210.06
0
LINE
8
BLACK
6
CONTINUOUS
10
109.908
20
-210.06
11
109.789
21
-210.192
0
LINE
8
BLACK
6
CONTINUOUS
10
109.789
20
-210.192
11
109.645
21
-210.296
0
LINE
8
BLACK
6
CONTINUOUS
10
109.645
20
-210.296
11
109.483
21
-210.368
0
LINE
8
BLACK
6
CONTINUOUS
10
109.483
20
-210.368
11
109.309
21
-210.405
0
LINE
8
BLACK
6
CONTINUOUS
10
109.309
20
-210.405
11
109.131
21
-210.405
0
LINE
8
BLACK
6
CONTINUOUS
10
109.131
20
-210.405
11
108.957
21
-210.368
0
LINE
8
BLACK
6
CONTINUOUS
10
108.957
20
-210.368
11
108.795
21
-210.296
0
LINE
8
BLACK
6
CONTINUOUS
10
108.795
20
-210.296
11
108.651
21
-210.192
0
LINE
8
BLACK
6
CONTINUOUS
10
108.651
20
-210.192
11
108.532
21
-210.06
0
LINE
8
BLACK
6
CONTINUOUS
10
108.532
20
-210.06
11
108.443
21
-209.906
0
LINE
8
BLACK
6
CONTINUOUS
10
108.443
20
-209.906
11
108.389
21
-209.737
0
LINE
8
BLACK
6
CONTINUOUS
10
108.389
20
-209.737
11
108.37
21
-209.56
0
LINE
8
BLACK
6
CONTINUOUS
10
108.37
20
-209.56
11
108.389
21
-209.383
0
LINE
8
BLACK
6
CONTINUOUS
10
108.389
20
-209.383
11
108.443
21
-209.214
0
LINE
8
BLACK
6
CONTINUOUS
10
108.443
20
-209.214
11
108.532
21
-209.06
0
LINE
8
BLACK
6
CONTINUOUS
10
108.532
20
-209.06
11
108.651
21
-208.928
0
LINE
8
BLACK
6
CONTINUOUS
10
108.651
20
-208.928
11
108.795
21
-208.824
0
LINE
8
BLACK
6
CONTINUOUS
10
108.795
20
-208.824
11
108.957
21
-208.752
0
LINE
8
BLACK
6
CONTINUOUS
10
108.957
20
-208.752
11
109.131
21
-208.715
0
LINE
8
BLACK
6
CONTINUOUS
10
109.131
20
-208.715
11
109.309
21
-208.715
0
LINE
8
BLACK
6
CONTINUOUS
10
109.309
20
-208.715
11
109.483
21
-208.752
0
LINE
8
BLACK
6
CONTINUOUS
10
106.943
20
-208.752
11
107.105
21
-208.824
0
LINE
8
BLACK
6
CONTINUOUS
10
107.105
20
-208.824
11
107.249
21
-208.928
0
LINE
8
BLACK
6
CONTINUOUS
10
107.249
20
-208.928
11
107.368
21
-209.06
0
LINE
8
BLACK
6
CONTINUOUS
10
107.368
20
-209.06
11
107.457
21
-209.214
0
LINE
8
BLACK
6
CONTINUOUS
10
107.457
20
-209.214
11
107.511
21
-209.383
0
LINE
8
BLACK
6
CONTINUOUS
10
107.511
20
-209.383
11
107.53
21
-209.56
0
LINE
8
BLACK
6
CONTINUOUS
10
107.53
20
-209.56
11
107.511
21
-209.737
0
LINE
8
BLACK
6
CONTINUOUS
10
107.511
20
-209.737
11
107.457
21
-209.906
0
LINE
8
BLACK
6
CONTINUOUS
10
107.457
20
-209.906
11
107.368
21
-210.06
0
LINE
8
BLACK
6
CONTINUOUS
10
107.368
20
-210.06
11
107.249
21
-210.192
0
LINE
8
BLACK
6
CONTINUOUS
10
107.249
20
-210.192
11
107.105
21
-210.296
0
LINE
8
BLACK
6
CONTINUOUS
10
107.105
20
-210.296
11
106.943
21
-210.368
0
LINE
8
BLACK
6
CONTINUOUS
10
106.943
20
-210.368
11
106.769
21
-210.405
0
LINE
8
BLACK
6
CONTINUOUS
10
106.769
20
-210.405
11
106.591
21
-210.405
0
LINE
8
BLACK
6
CONTINUOUS
10
106.591
20
-210.405
11
106.417
21
-210.368
0
LINE
8
BLACK
6
CONTINUOUS
10
106.417
20
-210.368
11
106.255
21
-210.296
0
LINE
8
BLACK
6
CONTINUOUS
10
106.255
20
-210.296
11
106.111
21
-210.192
0
LINE
8
BLACK
6
CONTINUOUS
10
106.111
20
-210.192
11
105.992
21
-210.06
0
LINE
8
BLACK
6
CONTINUOUS
10
105.992
20
-210.06
11
105.903
21
-209.906
0
LINE
8
BLACK
6
CONTINUOUS
10
105.903
20
-209.906
11
105.849
21
-209.737
0
LINE
8
BLACK
6
CONTINUOUS
10
105.849
20
-209.737
11
105.83
21
-209.56
0
LINE
8
BLACK
6
CONTINUOUS
10
105.83
20
-209.56
11
105.849
21
-209.383
0
LINE
8
BLACK
6
CONTINUOUS
10
105.849
20
-209.383
11
105.903
21
-209.214
0
LINE
8
BLACK
6
CONTINUOUS
10
105.903
20
-209.214
11
105.992
21
-209.06
0
LINE
8
BLACK
6
CONTINUOUS
10
105.992
20
-209.06
11
106.111
21
-208.928
0
LINE
8
BLACK
6
CONTINUOUS
10
106.111
20
-208.928
11
106.255
21
-208.824
0
LINE
8
BLACK
6
CONTINUOUS
10
106.255
20
-208.824
11
106.417
21
-208.752
0
LINE
8
BLACK
6
CONTINUOUS
10
106.417
20
-208.752
11
106.591
21
-208.715
0
LINE
8
BLACK
6
CONTINUOUS
10
106.591
20
-208.715
11
106.769
21
-208.715
0
LINE
8
BLACK
6
CONTINUOUS
10
106.769
20
-208.715
11
106.943
21
-208.752
0
LINE
8
BLACK
6
CONTINUOUS
10
99.9
20
-198.295
11
98.3
21
-198.295
0
LINE
8
BLACK
6
CONTINUOUS
10
98.3
20
-198.295
11
98.3
21
-196.695
0
LINE
8
BLACK
6
CONTINUOUS
10
98.3
20
-196.695
11
99.9
21
-196.695
0
LINE
8
BLACK
6
CONTINUOUS
10
99.9
20
-196.695
11
99.9
21
-198.295
0
LINE
8
BLACK
6
CONTINUOUS
10
107.48
20
-198.295
11
105.88
21
-198.295
0
LINE
8
BLACK
6
CONTINUOUS
10
105.88
20
-198.295
11
105.88
21
-196.695
0
LINE
8
BLACK
6
CONTINUOUS
10
105.88
20
-196.695
11
107.48
21
-196.695
0
LINE
8
BLACK
6
CONTINUOUS
10
107.48
20
-196.695
11
107.48
21
-198.295
0
LINE
8
BLACK
6
CONTINUOUS
10
101.783
20
-196.716
11
101.951
21
-196.776
0
LINE
8
BLACK
6
CONTINUOUS
10
101.951
20
-196.776
11
102.101
21
-196.872
0
LINE
8
BLACK
6
CONTINUOUS
10
102.101
20
-196.872
11
102.227
21
-196.998
0
LINE
8
BLACK
6
CONTINUOUS
10
102.227
20
-196.998
11
102.321
21
-197.149
0
LINE
8
BLACK
6
CONTINUOUS
10
102.321
20
-197.149
11
102.38
21
-197.318
0
LINE
8
BLACK
6
CONTINUOUS
10
102.38
20
-197.318
11
102.4
21
-197.495
0
LINE
8
BLACK
6
CONTINUOUS
10
102.4
20
-197.495
11
102.4
21
-197.517
0
LINE
8
BLACK
6
CONTINUOUS
10
102.4
20
-197.517
11
102.375
21
-197.694
0
LINE
8
BLACK
6
CONTINUOUS
10
102.375
20
-197.694
11
102.312
21
-197.861
0
LINE
8
BLACK
6
CONTINUOUS
10
102.312
20
-197.861
11
102.213
21
-198.009
0
LINE
8
BLACK
6
CONTINUOUS
10
102.213
20
-198.009
11
102.084
21
-198.132
0
LINE
8
BLACK
6
CONTINUOUS
10
102.084
20
-198.132
11
101.93
21
-198.224
0
LINE
8
BLACK
6
CONTINUOUS
10
101.93
20
-198.224
11
101.761
21
-198.279
0
LINE
8
BLACK
6
CONTINUOUS
10
101.761
20
-198.279
11
101.583
21
-198.295
0
LINE
8
BLACK
6
CONTINUOUS
10
101.583
20
-198.295
11
101.406
21
-198.271
0
LINE
8
BLACK
6
CONTINUOUS
10
101.406
20
-198.271
11
101.239
21
-198.209
0
LINE
8
BLACK
6
CONTINUOUS
10
101.239
20
-198.209
11
101.09
21
-198.111
0
LINE
8
BLACK
6
CONTINUOUS
10
101.09
20
-198.111
11
100.966
21
-197.983
0
LINE
8
BLACK
6
CONTINUOUS
10
100.966
20
-197.983
11
100.874
21
-197.831
0
LINE
8
BLACK
6
CONTINUOUS
10
100.874
20
-197.831
11
100.817
21
-197.661
0
LINE
8
BLACK
6
CONTINUOUS
10
100.817
20
-197.661
11
100.8
21
-197.484
0
LINE
8
BLACK
6
CONTINUOUS
10
100.8
20
-197.484
11
100.822
21
-197.307
0
LINE
8
BLACK
6
CONTINUOUS
10
100.822
20
-197.307
11
100.883
21
-197.139
0
LINE
8
BLACK
6
CONTINUOUS
10
100.883
20
-197.139
11
100.98
21
-196.989
0
LINE
8
BLACK
6
CONTINUOUS
10
100.98
20
-196.989
11
101.107
21
-196.865
0
LINE
8
BLACK
6
CONTINUOUS
10
101.107
20
-196.865
11
101.259
21
-196.771
0
LINE
8
BLACK
6
CONTINUOUS
10
101.259
20
-196.771
11
101.428
21
-196.714
0
LINE
8
BLACK
6
CONTINUOUS
10
101.428
20
-196.714
11
101.606
21
-196.695
0
LINE
8
BLACK
6
CONTINUOUS
10
101.606
20
-196.695
11
101.783
21
-196.716
0
LINE
8
BLACK
6
CONTINUOUS
10
109.363
20
-196.716
11
109.531
21
-196.776
0
LINE
8
BLACK
6
CONTINUOUS
10
109.531
20
-196.776
11
109.681
21
-196.872
0
LINE
8
BLACK
6
CONTINUOUS
10
109.681
20
-196.872
11
109.807
21
-196.998
0
LINE
8
BLACK
6
CONTINUOUS
10
109.807
20
-196.998
11
109.901
21
-197.149
0
LINE
8
BLACK
6
CONTINUOUS
10
109.901
20
-197.149
11
109.96
21
-197.318
0
LINE
8
BLACK
6
CONTINUOUS
10
109.96
20
-197.318
11
109.98
21
-197.495
0
LINE
8
BLACK
6
CONTINUOUS
10
109.98
20
-197.495
11
109.98
21
-197.517
0
LINE
8
BLACK
6
CONTINUOUS
10
109.98
20
-197.517
11
109.955
21
-197.694
0
LINE
8
BLACK
6
CONTINUOUS
10
109.955
20
-197.694
11
109.892
21
-197.861
0
LINE
8
BLACK
6
CONTINUOUS
10
109.892
20
-197.861
11
109.793
21
-198.009
0
LINE
8
BLACK
6
CONTINUOUS
10
109.793
20
-198.009
11
109.664
21
-198.132
0
LINE
8
BLACK
6
CONTINUOUS
10
109.664
20
-198.132
11
109.51
21
-198.224
0
LINE
8
BLACK
6
CONTINUOUS
10
109.51
20
-198.224
11
109.341
21
-198.279
0
LINE
8
BLACK
6
CONTINUOUS
10
109.341
20
-198.279
11
109.163
21
-198.295
0
LINE
8
BLACK
6
CONTINUOUS
10
109.163
20
-198.295
11
108.986
21
-198.271
0
LINE
8
BLACK
6
CONTINUOUS
10
108.986
20
-198.271
11
108.819
21
-198.209
0
LINE
8
BLACK
6
CONTINUOUS
10
108.819
20
-198.209
11
108.67
21
-198.111
0
LINE
8
BLACK
6
CONTINUOUS
10
108.67
20
-198.111
11
108.546
21
-197.983
0
LINE
8
BLACK
6
CONTINUOUS
10
108.546
20
-197.983
11
108.454
21
-197.831
0
LINE
8
BLACK
6
CONTINUOUS
10
108.454
20
-197.831
11
108.397
21
-197.661
0
LINE
8
BLACK
6
CONTINUOUS
10
108.397
20
-197.661
11
108.38
21
-197.484
0
LINE
8
BLACK
6
CONTINUOUS
10
108.38
20
-197.484
11
108.402
21
-197.307
0
LINE
8
BLACK
6
CONTINUOUS
10
108.402
20
-197.307
11
108.463
21
-197.139
0
LINE
8
BLACK
6
CONTINUOUS
10
108.463
20
-197.139
11
108.56
21
-196.989
0
LINE
8
BLACK
6
CONTINUOUS
10
108.56
20
-196.989
11
108.687
21
-196.865
0
LINE
8
BLACK
6
CONTINUOUS
10
108.687
20
-196.865
11
108.839
21
-196.771
0
LINE
8
BLACK
6
CONTINUOUS
10
108.839
20
-196.771
11
109.008
21
-196.714
0
LINE
8
BLACK
6
CONTINUOUS
10
109.008
20
-196.714
11
109.186
21
-196.695
0
LINE
8
BLACK
6
CONTINUOUS
10
109.186
20
-196.695
11
109.363
21
-196.716
0
LINE
8
BLACK
6
CONTINUOUS
10
114.465
20
-193.85
11
112.865
21
-193.85
0
LINE
8
BLACK
6
CONTINUOUS
10
112.865
20
-193.85
11
112.865
21
-192.25
0
LINE
8
BLACK
6
CONTINUOUS
10
112.865
20
-192.25
11
114.465
21
-192.25
0
LINE
8
BLACK
6
CONTINUOUS
10
114.465
20
-192.25
11
114.465
21
-193.85
0
LINE
8
BLACK
6
CONTINUOUS
10
92.915
20
-193.85
11
91.315
21
-193.85
0
LINE
8
BLACK
6
CONTINUOUS
10
91.315
20
-193.85
11
91.315
21
-192.25
0
LINE
8
BLACK
6
CONTINUOUS
10
91.315
20
-192.25
11
92.915
21
-192.25
0
LINE
8
BLACK
6
CONTINUOUS
10
92.915
20
-192.25
11
92.915
21
-193.85
0
LINE
8
BLACK
6
CONTINUOUS
10
116.348
20
-192.271
11
116.516
21
-192.331
0
LINE
8
BLACK
6
CONTINUOUS
10
116.516
20
-192.331
11
116.666
21
-192.427
0
LINE
8
BLACK
6
CONTINUOUS
10
116.666
20
-192.427
11
116.792
21
-192.553
0
LINE
8
BLACK
6
CONTINUOUS
10
116.792
20
-192.553
11
116.886
21
-192.704
0
LINE
8
BLACK
6
CONTINUOUS
10
116.886
20
-192.704
11
116.945
21
-192.873
0
LINE
8
BLACK
6
CONTINUOUS
10
116.945
20
-192.873
11
116.965
21
-193.05
0
LINE
8
BLACK
6
CONTINUOUS
10
116.965
20
-193.05
11
116.965
21
-193.072
0
LINE
8
BLACK
6
CONTINUOUS
10
116.965
20
-193.072
11
116.94
21
-193.249
0
LINE
8
BLACK
6
CONTINUOUS
10
116.94
20
-193.249
11
116.877
21
-193.416
0
LINE
8
BLACK
6
CONTINUOUS
10
116.877
20
-193.416
11
116.778
21
-193.564
0
LINE
8
BLACK
6
CONTINUOUS
10
116.778
20
-193.564
11
116.649
21
-193.687
0
LINE
8
BLACK
6
CONTINUOUS
10
116.649
20
-193.687
11
116.495
21
-193.779
0
LINE
8
BLACK
6
CONTINUOUS
10
116.495
20
-193.779
11
116.326
21
-193.834
0
LINE
8
BLACK
6
CONTINUOUS
10
116.326
20
-193.834
11
116.148
21
-193.85
0
LINE
8
BLACK
6
CONTINUOUS
10
116.148
20
-193.85
11
115.971
21
-193.826
0
LINE
8
BLACK
6
CONTINUOUS
10
115.971
20
-193.826
11
115.804
21
-193.764
0
LINE
8
BLACK
6
CONTINUOUS
10
115.804
20
-193.764
11
115.655
21
-193.666
0
LINE
8
BLACK
6
CONTINUOUS
10
115.655
20
-193.666
11
115.531
21
-193.538
0
LINE
8
BLACK
6
CONTINUOUS
10
115.531
20
-193.538
11
115.439
21
-193.386
0
LINE
8
BLACK
6
CONTINUOUS
10
115.439
20
-193.386
11
115.382
21
-193.216
0
LINE
8
BLACK
6
CONTINUOUS
10
115.382
20
-193.216
11
115.365
21
-193.039
0
LINE
8
BLACK
6
CONTINUOUS
10
115.365
20
-193.039
11
115.387
21
-192.862
0
LINE
8
BLACK
6
CONTINUOUS
10
115.387
20
-192.862
11
115.448
21
-192.694
0
LINE
8
BLACK
6
CONTINUOUS
10
115.448
20
-192.694
11
115.545
21
-192.544
0
LINE
8
BLACK
6
CONTINUOUS
10
115.545
20
-192.544
11
115.672
21
-192.42
0
LINE
8
BLACK
6
CONTINUOUS
10
115.672
20
-192.42
11
115.824
21
-192.326
0
LINE
8
BLACK
6
CONTINUOUS
10
115.824
20
-192.326
11
115.993
21
-192.269
0
LINE
8
BLACK
6
CONTINUOUS
10
115.993
20
-192.269
11
116.171
21
-192.25
0
LINE
8
BLACK
6
CONTINUOUS
10
116.171
20
-192.25
11
116.348
21
-192.271
0
LINE
8
BLACK
6
CONTINUOUS
10
94.7977
20
-192.271
11
94.9657
21
-192.331
0
LINE
8
BLACK
6
CONTINUOUS
10
94.9657
20
-192.331
11
95.1163
21
-192.427
0
LINE
8
BLACK
6
CONTINUOUS
10
95.1163
20
-192.427
11
95.242
21
-192.553
0
LINE
8
BLACK
6
CONTINUOUS
10
95.242
20
-192.553
11
95.3365
21
-192.704
0
LINE
8
BLACK
6
CONTINUOUS
10
95.3365
20
-192.704
11
95.3951
21
-192.873
0
LINE
8
BLACK
6
CONTINUOUS
10
95.3951
20
-192.873
11
95.415
21
-193.05
0
LINE
8
BLACK
6
CONTINUOUS
10
95.415
20
-193.05
11
95.4147
21
-193.072
0
LINE
8
BLACK
6
CONTINUOUS
10
95.4147
20
-193.072
11
95.3899
21
-193.249
0
LINE
8
BLACK
6
CONTINUOUS
10
95.3899
20
-193.249
11
95.3265
21
-193.416
0
LINE
8
BLACK
6
CONTINUOUS
10
95.3265
20
-193.416
11
95.2278
21
-193.564
0
LINE
8
BLACK
6
CONTINUOUS
10
95.2278
20
-193.564
11
95.0987
21
-193.687
0
LINE
8
BLACK
6
CONTINUOUS
10
95.0987
20
-193.687
11
94.9455
21
-193.779
0
LINE
8
BLACK
6
CONTINUOUS
10
94.9455
20
-193.779
11
94.7759
21
-193.834
0
LINE
8
BLACK
6
CONTINUOUS
10
94.7759
20
-193.834
11
94.5982
21
-193.85
0
LINE
8
BLACK
6
CONTINUOUS
10
94.5982
20
-193.85
11
94.4215
21
-193.826
0
LINE
8
BLACK
6
CONTINUOUS
10
94.4215
20
-193.826
11
94.2543
21
-193.764
0
LINE
8
BLACK
6
CONTINUOUS
10
94.2543
20
-193.764
11
94.1051
21
-193.666
0
LINE
8
BLACK
6
CONTINUOUS
10
94.1051
20
-193.666
11
93.9812
21
-193.538
0
LINE
8
BLACK
6
CONTINUOUS
10
93.9812
20
-193.538
11
93.8888
21
-193.386
0
LINE
8
BLACK
6
CONTINUOUS
10
93.8888
20
-193.386
11
93.8325
21
-193.216
0
LINE
8
BLACK
6
CONTINUOUS
10
93.8325
20
-193.216
11
93.8151
21
-193.039
0
LINE
8
BLACK
6
CONTINUOUS
10
93.8151
20
-193.039
11
93.8374
21
-192.862
0
LINE
8
BLACK
6
CONTINUOUS
10
93.8374
20
-192.862
11
93.8984
21
-192.694
0
LINE
8
BLACK
6
CONTINUOUS
10
93.8984
20
-192.694
11
93.995
21
-192.544
0
LINE
8
BLACK
6
CONTINUOUS
10
93.995
20
-192.544
11
94.1225
21
-192.42
0
LINE
8
BLACK
6
CONTINUOUS
10
94.1225
20
-192.42
11
94.2744
21
-192.326
0
LINE
8
BLACK
6
CONTINUOUS
10
94.2744
20
-192.326
11
94.4432
21
-192.269
0
LINE
8
BLACK
6
CONTINUOUS
10
94.4432
20
-192.269
11
94.6206
21
-192.25
0
LINE
8
BLACK
6
CONTINUOUS
10
94.6206
20
-192.25
11
94.7977
21
-192.271
0
LINE
8
BLACK
6
CONTINUOUS
10
102.54
20
-180.615
11
100.74
21
-180.615
0
LINE
8
BLACK
6
CONTINUOUS
10
100.74
20
-180.615
11
100.74
21
-178.815
0
LINE
8
BLACK
6
CONTINUOUS
10
100.74
20
-178.815
11
102.54
21
-178.815
0
LINE
8
BLACK
6
CONTINUOUS
10
102.54
20
-178.815
11
102.54
21
-180.615
0
LINE
8
BLACK
6
CONTINUOUS
10
104.418
20
-178.859
11
104.59
21
-178.936
0
LINE
8
BLACK
6
CONTINUOUS
10
104.59
20
-178.936
11
104.742
21
-179.046
0
LINE
8
BLACK
6
CONTINUOUS
10
104.742
20
-179.046
11
104.868
21
-179.186
0
LINE
8
BLACK
6
CONTINUOUS
10
104.868
20
-179.186
11
104.962
21
-179.349
0
LINE
8
BLACK
6
CONTINUOUS
10
104.962
20
-179.349
11
105.02
21
-179.528
0
LINE
8
BLACK
6
CONTINUOUS
10
105.02
20
-179.528
11
105.04
21
-179.715
0
LINE
8
BLACK
6
CONTINUOUS
10
105.04
20
-179.715
11
105.02
21
-179.902
0
LINE
8
BLACK
6
CONTINUOUS
10
105.02
20
-179.902
11
104.962
21
-180.081
0
LINE
8
BLACK
6
CONTINUOUS
10
104.962
20
-180.081
11
104.868
21
-180.244
0
LINE
8
BLACK
6
CONTINUOUS
10
104.868
20
-180.244
11
104.742
21
-180.384
0
LINE
8
BLACK
6
CONTINUOUS
10
104.742
20
-180.384
11
104.59
21
-180.494
0
LINE
8
BLACK
6
CONTINUOUS
10
104.59
20
-180.494
11
104.418
21
-180.571
0
LINE
8
BLACK
6
CONTINUOUS
10
104.418
20
-180.571
11
104.234
21
-180.61
0
LINE
8
BLACK
6
CONTINUOUS
10
104.234
20
-180.61
11
104.046
21
-180.61
0
LINE
8
BLACK
6
CONTINUOUS
10
104.046
20
-180.61
11
103.862
21
-180.571
0
LINE
8
BLACK
6
CONTINUOUS
10
103.862
20
-180.571
11
103.69
21
-180.494
0
LINE
8
BLACK
6
CONTINUOUS
10
103.69
20
-180.494
11
103.538
21
-180.384
0
LINE
8
BLACK
6
CONTINUOUS
10
103.538
20
-180.384
11
103.412
21
-180.244
0
LINE
8
BLACK
6
CONTINUOUS
10
103.412
20
-180.244
11
103.318
21
-180.081
0
LINE
8
BLACK
6
CONTINUOUS
10
103.318
20
-180.081
11
103.26
21
-179.902
0
LINE
8
BLACK
6
CONTINUOUS
10
103.26
20
-179.902
11
103.24
21
-179.715
0
LINE
8
BLACK
6
CONTINUOUS
10
103.24
20
-179.715
11
103.26
21
-179.528
0
LINE
8
BLACK
6
CONTINUOUS
10
103.26
20
-179.528
11
103.318
21
-179.349
0
LINE
8
BLACK
6
CONTINUOUS
10
103.318
20
-179.349
11
103.412
21
-179.186
0
LINE
8
BLACK
6
CONTINUOUS
10
103.412
20
-179.186
11
103.538
21
-179.046
0
LINE
8
BLACK
6
CONTINUOUS
10
103.538
20
-179.046
11
103.69
21
-178.936
0
LINE
8
BLACK
6
CONTINUOUS
10
103.69
20
-178.936
11
103.862
21
-178.859
0
LINE
8
BLACK
6
CONTINUOUS
10
103.862
20
-178.859
11
104.046
21
-178.82
0
LINE
8
BLACK
6
CONTINUOUS
10
104.046
20
-178.82
11
104.234
21
-178.82
0
LINE
8
BLACK
6
CONTINUOUS
10
104.234
20
-178.82
11
104.418
21
-178.859
0
LINE
8
BLACK
6
CONTINUOUS
10
106.918
20
-178.859
11
107.09
21
-178.936
0
LINE
8
BLACK
6
CONTINUOUS
10
107.09
20
-178.936
11
107.242
21
-179.046
0
LINE
8
BLACK
6
CONTINUOUS
10
107.242
20
-179.046
11
107.368
21
-179.186
0
LINE
8
BLACK
6
CONTINUOUS
10
107.368
20
-179.186
11
107.462
21
-179.349
0
LINE
8
BLACK
6
CONTINUOUS
10
107.462
20
-179.349
11
107.52
21
-179.528
0
LINE
8
BLACK
6
CONTINUOUS
10
107.52
20
-179.528
11
107.54
21
-179.715
0
LINE
8
BLACK
6
CONTINUOUS
10
107.54
20
-179.715
11
107.52
21
-179.902
0
LINE
8
BLACK
6
CONTINUOUS
10
107.52
20
-179.902
11
107.462
21
-180.081
0
LINE
8
BLACK
6
CONTINUOUS
10
107.462
20
-180.081
11
107.368
21
-180.244
0
LINE
8
BLACK
6
CONTINUOUS
10
107.368
20
-180.244
11
107.242
21
-180.384
0
LINE
8
BLACK
6
CONTINUOUS
10
107.242
20
-180.384
11
107.09
21
-180.494
0
LINE
8
BLACK
6
CONTINUOUS
10
107.09
20
-180.494
11
106.918
21
-180.571
0
LINE
8
BLACK
6
CONTINUOUS
10
106.918
20
-180.571
11
106.734
21
-180.61
0
LINE
8
BLACK
6
CONTINUOUS
10
106.734
20
-180.61
11
106.546
21
-180.61
0
LINE
8
BLACK
6
CONTINUOUS
10
106.546
20
-180.61
11
106.362
21
-180.571
0
LINE
8
BLACK
6
CONTINUOUS
10
106.362
20
-180.571
11
106.19
21
-180.494
0
LINE
8
BLACK
6
CONTINUOUS
10
106.19
20
-180.494
11
106.038
21
-180.384
0
LINE
8
BLACK
6
CONTINUOUS
10
106.038
20
-180.384
11
105.912
21
-180.244
0
LINE
8
BLACK
6
CONTINUOUS
10
105.912
20
-180.244
11
105.818
21
-180.081
0
LINE
8
BLACK
6
CONTINUOUS
10
105.818
20
-180.081
11
105.76
21
-179.902
0
LINE
8
BLACK
6
CONTINUOUS
10
105.76
20
-179.902
11
105.74
21
-179.715
0
LINE
8
BLACK
6
CONTINUOUS
10
105.74
20
-179.715
11
105.76
21
-179.528
0
LINE
8
BLACK
6
CONTINUOUS
10
105.76
20
-179.528
11
105.818
21
-179.349
0
LINE
8
BLACK
6
CONTINUOUS
10
105.818
20
-179.349
11
105.912
21
-179.186
0
LINE
8
BLACK
6
CONTINUOUS
10
105.912
20
-179.186
11
106.038
21
-179.046
0
LINE
8
BLACK
6
CONTINUOUS
10
106.038
20
-179.046
11
106.19
21
-178.936
0
LINE
8
BLACK
6
CONTINUOUS
10
106.19
20
-178.936
11
106.362
21
-178.859
0
LINE
8
BLACK
6
CONTINUOUS
10
106.362
20
-178.859
11
106.546
21
-178.82
0
LINE
8
BLACK
6
CONTINUOUS
10
106.546
20
-178.82
11
106.734
21
-178.82
0
LINE
8
BLACK
6
CONTINUOUS
10
106.734
20
-178.82
11
106.918
21
-178.859
0
LINE
8
BLACK
6
CONTINUOUS
10
99.632
20
-170.627
11
99.8517
21
-170.695
0
LINE
8
BLACK
6
CONTINUOUS
10
99.8517
20
-170.695
11
100.057
21
-170.799
0
LINE
8
BLACK
6
CONTINUOUS
10
100.057
20
-170.799
11
100.241
21
-170.936
0
LINE
8
BLACK
6
CONTINUOUS
10
100.241
20
-170.936
11
100.4
21
-171.103
0
LINE
8
BLACK
6
CONTINUOUS
10
100.4
20
-171.103
11
100.528
21
-171.294
0
LINE
8
BLACK
6
CONTINUOUS
10
100.528
20
-171.294
11
100.623
21
-171.503
0
LINE
8
BLACK
6
CONTINUOUS
10
100.623
20
-171.503
11
100.681
21
-171.726
0
LINE
8
BLACK
6
CONTINUOUS
10
100.681
20
-171.726
11
100.7
21
-171.955
0
LINE
8
BLACK
6
CONTINUOUS
10
100.7
20
-171.955
11
100.7
21
-172.475
0
LINE
8
BLACK
6
CONTINUOUS
10
100.7
20
-172.475
11
100.694
21
-172.603
0
LINE
8
BLACK
6
CONTINUOUS
10
100.694
20
-172.603
11
100.653
21
-172.829
0
LINE
8
BLACK
6
CONTINUOUS
10
100.653
20
-172.829
11
100.575
21
-173.045
0
LINE
8
BLACK
6
CONTINUOUS
10
100.575
20
-173.045
11
100.461
21
-173.245
0
LINE
8
BLACK
6
CONTINUOUS
10
100.461
20
-173.245
11
100.315
21
-173.423
0
LINE
8
BLACK
6
CONTINUOUS
10
100.315
20
-173.423
11
100.141
21
-173.574
0
LINE
8
BLACK
6
CONTINUOUS
10
100.141
20
-173.574
11
99.9447
21
-173.693
0
LINE
8
BLACK
6
CONTINUOUS
10
99.9447
20
-173.693
11
99.7308
21
-173.778
0
LINE
8
BLACK
6
CONTINUOUS
10
99.7308
20
-173.778
11
99.5057
21
-173.825
0
LINE
8
BLACK
6
CONTINUOUS
10
99.5057
20
-173.825
11
99.2759
21
-173.833
0
LINE
8
BLACK
6
CONTINUOUS
10
99.2759
20
-173.833
11
99.048
21
-173.803
0
LINE
8
BLACK
6
CONTINUOUS
10
99.048
20
-173.803
11
98.8283
21
-173.735
0
LINE
8
BLACK
6
CONTINUOUS
10
98.8283
20
-173.735
11
98.6233
21
-173.631
0
LINE
8
BLACK
6
CONTINUOUS
10
98.6233
20
-173.631
11
98.4388
21
-173.494
0
LINE
8
BLACK
6
CONTINUOUS
10
98.4388
20
-173.494
11
98.2801
21
-173.327
0
LINE
8
BLACK
6
CONTINUOUS
10
98.2801
20
-173.327
11
98.1517
21
-173.136
0
LINE
8
BLACK
6
CONTINUOUS
10
98.1517
20
-173.136
11
98.0572
21
-172.927
0
LINE
8
BLACK
6
CONTINUOUS
10
98.0572
20
-172.927
11
97.9994
21
-172.704
0
LINE
8
BLACK
6
CONTINUOUS
10
97.9994
20
-172.704
11
97.98
21
-172.475
0
LINE
8
BLACK
6
CONTINUOUS
10
97.98
20
-172.475
11
97.98
21
-171.955
0
LINE
8
BLACK
6
CONTINUOUS
10
97.98
20
-171.955
11
97.986
21
-171.827
0
LINE
8
BLACK
6
CONTINUOUS
10
97.986
20
-171.827
11
98.027
21
-171.601
0
LINE
8
BLACK
6
CONTINUOUS
10
98.027
20
-171.601
11
98.1054
21
-171.385
0
LINE
8
BLACK
6
CONTINUOUS
10
98.1054
20
-171.385
11
98.2192
21
-171.185
0
LINE
8
BLACK
6
CONTINUOUS
10
98.2192
20
-171.185
11
98.365
21
-171.007
0
LINE
8
BLACK
6
CONTINUOUS
10
98.365
20
-171.007
11
98.5387
21
-170.856
0
LINE
8
BLACK
6
CONTINUOUS
10
98.5387
20
-170.856
11
98.7353
21
-170.737
0
LINE
8
BLACK
6
CONTINUOUS
10
98.7353
20
-170.737
11
98.9492
21
-170.652
0
LINE
8
BLACK
6
CONTINUOUS
10
98.9492
20
-170.652
11
99.1743
21
-170.605
0
LINE
8
BLACK
6
CONTINUOUS
10
99.1743
20
-170.605
11
99.4041
21
-170.597
0
LINE
8
BLACK
6
CONTINUOUS
10
99.4041
20
-170.597
11
99.632
21
-170.627
0
LINE
8
BLACK
6
CONTINUOUS
10
109.232
20
-170.627
11
109.452
21
-170.695
0
LINE
8
BLACK
6
CONTINUOUS
10
109.452
20
-170.695
11
109.657
21
-170.799
0
LINE
8
BLACK
6
CONTINUOUS
10
109.657
20
-170.799
11
109.841
21
-170.936
0
LINE
8
BLACK
6
CONTINUOUS
10
109.841
20
-170.936
11
110
21
-171.103
0
LINE
8
BLACK
6
CONTINUOUS
10
110
20
-171.103
11
110.128
21
-171.294
0
LINE
8
BLACK
6
CONTINUOUS
10
110.128
20
-171.294
11
110.223
21
-171.503
0
LINE
8
BLACK
6
CONTINUOUS
10
110.223
20
-171.503
11
110.281
21
-171.726
0
LINE
8
BLACK
6
CONTINUOUS
10
110.281
20
-171.726
11
110.3
21
-171.955
0
LINE
8
BLACK
6
CONTINUOUS
10
110.3
20
-171.955
11
110.3
21
-172.475
0
LINE
8
BLACK
6
CONTINUOUS
10
110.3
20
-172.475
11
110.294
21
-172.603
0
LINE
8
BLACK
6
CONTINUOUS
10
110.294
20
-172.603
11
110.253
21
-172.829
0
LINE
8
BLACK
6
CONTINUOUS
10
110.253
20
-172.829
11
110.175
21
-173.045
0
LINE
8
BLACK
6
CONTINUOUS
10
110.175
20
-173.045
11
110.061
21
-173.245
0
LINE
8
BLACK
6
CONTINUOUS
10
110.061
20
-173.245
11
109.915
21
-173.423
0
LINE
8
BLACK
6
CONTINUOUS
10
109.915
20
-173.423
11
109.741
21
-173.574
0
LINE
8
BLACK
6
CONTINUOUS
10
109.741
20
-173.574
11
109.545
21
-173.693
0
LINE
8
BLACK
6
CONTINUOUS
10
109.545
20
-173.693
11
109.331
21
-173.778
0
LINE
8
BLACK
6
CONTINUOUS
10
109.331
20
-173.778
11
109.106
21
-173.825
0
LINE
8
BLACK
6
CONTINUOUS
10
109.106
20
-173.825
11
108.876
21
-173.833
0
LINE
8
BLACK
6
CONTINUOUS
10
108.876
20
-173.833
11
108.648
21
-173.803
0
LINE
8
BLACK
6
CONTINUOUS
10
108.648
20
-173.803
11
108.428
21
-173.735
0
LINE
8
BLACK
6
CONTINUOUS
10
108.428
20
-173.735
11
108.223
21
-173.631
0
LINE
8
BLACK
6
CONTINUOUS
10
108.223
20
-173.631
11
108.039
21
-173.494
0
LINE
8
BLACK
6
CONTINUOUS
10
108.039
20
-173.494
11
107.88
21
-173.327
0
LINE
8
BLACK
6
CONTINUOUS
10
107.88
20
-173.327
11
107.752
21
-173.136
0
LINE
8
BLACK
6
CONTINUOUS
10
107.752
20
-173.136
11
107.657
21
-172.927
0
LINE
8
BLACK
6
CONTINUOUS
10
107.657
20
-172.927
11
107.599
21
-172.704
0
LINE
8
BLACK
6
CONTINUOUS
10
107.599
20
-172.704
11
107.58
21
-172.475
0
LINE
8
BLACK
6
CONTINUOUS
10
107.58
20
-172.475
11
107.58
21
-171.955
0
LINE
8
BLACK
6
CONTINUOUS
10
107.58
20
-171.955
11
107.586
21
-171.827
0
LINE
8
BLACK
6
CONTINUOUS
10
107.586
20
-171.827
11
107.627
21
-171.601
0
LINE
8
BLACK
6
CONTINUOUS
10
107.627
20
-171.601
11
107.705
21
-171.385
0
LINE
8
BLACK
6
CONTINUOUS
10
107.705
20
-171.385
11
107.819
21
-171.185
0
LINE
8
BLACK
6
CONTINUOUS
10
107.819
20
-171.185
11
107.965
21
-171.007
0
LINE
8
BLACK
6
CONTINUOUS
10
107.965
20
-171.007
11
108.139
21
-170.856
0
LINE
8
BLACK
6
CONTINUOUS
10
108.139
20
-170.856
11
108.335
21
-170.737
0
LINE
8
BLACK
6
CONTINUOUS
10
108.335
20
-170.737
11
108.549
21
-170.652
0
LINE
8
BLACK
6
CONTINUOUS
10
108.549
20
-170.652
11
108.774
21
-170.605
0
LINE
8
BLACK
6
CONTINUOUS
10
108.774
20
-170.605
11
109.004
21
-170.597
0
LINE
8
BLACK
6
CONTINUOUS
10
109.004
20
-170.597
11
109.232
21
-170.627
0
LINE
8
BLACK
6
CONTINUOUS
10
117.146
20
-166.164
11
117.227
21
-166.218
0
LINE
8
BLACK
6
CONTINUOUS
10
117.227
20
-166.218
11
117.281
21
-166.299
0
LINE
8
BLACK
6
CONTINUOUS
10
117.281
20
-166.299
11
117.3
21
-166.395
0
LINE
8
BLACK
6
CONTINUOUS
10
117.3
20
-166.395
11
117.3
21
-167.635
0
LINE
8
BLACK
6
CONTINUOUS
10
117.3
20
-167.635
11
117.281
21
-167.731
0
LINE
8
BLACK
6
CONTINUOUS
10
117.281
20
-167.731
11
117.227
21
-167.812
0
LINE
8
BLACK
6
CONTINUOUS
10
117.227
20
-167.812
11
117.146
21
-167.866
0
LINE
8
BLACK
6
CONTINUOUS
10
117.146
20
-167.866
11
117.05
21
-167.885
0
LINE
8
BLACK
6
CONTINUOUS
10
117.05
20
-167.885
11
115.36
21
-167.885
0
LINE
8
BLACK
6
CONTINUOUS
10
115.36
20
-167.885
11
115.264
21
-167.866
0
LINE
8
BLACK
6
CONTINUOUS
10
115.264
20
-167.866
11
115.183
21
-167.812
0
LINE
8
BLACK
6
CONTINUOUS
10
115.183
20
-167.812
11
115.129
21
-167.731
0
LINE
8
BLACK
6
CONTINUOUS
10
115.129
20
-167.731
11
115.11
21
-167.635
0
LINE
8
BLACK
6
CONTINUOUS
10
115.11
20
-167.635
11
115.11
21
-166.395
0
LINE
8
BLACK
6
CONTINUOUS
10
115.11
20
-166.395
11
115.129
21
-166.299
0
LINE
8
BLACK
6
CONTINUOUS
10
115.129
20
-166.299
11
115.183
21
-166.218
0
LINE
8
BLACK
6
CONTINUOUS
10
115.183
20
-166.218
11
115.264
21
-166.164
0
LINE
8
BLACK
6
CONTINUOUS
10
115.264
20
-166.164
11
115.36
21
-166.145
0
LINE
8
BLACK
6
CONTINUOUS
10
115.36
20
-166.145
11
117.05
21
-166.145
0
LINE
8
BLACK
6
CONTINUOUS
10
117.05
20
-166.145
11
117.146
21
-166.164
0
LINE
8
BLACK
6
CONTINUOUS
10
116.527
20
-163.61
11
116.71
21
-163.651
0
LINE
8
BLACK
6
CONTINUOUS
10
116.71
20
-163.651
11
116.881
21
-163.731
0
LINE
8
BLACK
6
CONTINUOUS
10
116.881
20
-163.731
11
117.03
21
-163.845
0
LINE
8
BLACK
6
CONTINUOUS
10
117.03
20
-163.845
11
117.151
21
-163.989
0
LINE
8
BLACK
6
CONTINUOUS
10
117.151
20
-163.989
11
117.239
21
-164.155
0
LINE
8
BLACK
6
CONTINUOUS
10
117.239
20
-164.155
11
117.289
21
-164.336
0
LINE
8
BLACK
6
CONTINUOUS
10
117.289
20
-164.336
11
117.299
21
-164.524
0
LINE
8
BLACK
6
CONTINUOUS
10
117.299
20
-164.524
11
117.268
21
-164.709
0
LINE
8
BLACK
6
CONTINUOUS
10
117.268
20
-164.709
11
117.198
21
-164.883
0
LINE
8
BLACK
6
CONTINUOUS
10
117.198
20
-164.883
11
117.093
21
-165.039
0
LINE
8
BLACK
6
CONTINUOUS
10
117.093
20
-165.039
11
116.956
21
-165.168
0
LINE
8
BLACK
6
CONTINUOUS
10
116.956
20
-165.168
11
116.795
21
-165.265
0
LINE
8
BLACK
6
CONTINUOUS
10
116.795
20
-165.265
11
116.617
21
-165.325
0
LINE
8
BLACK
6
CONTINUOUS
10
116.617
20
-165.325
11
116.43
21
-165.345
0
LINE
8
BLACK
6
CONTINUOUS
10
116.43
20
-165.345
11
115.98
21
-165.345
0
LINE
8
BLACK
6
CONTINUOUS
10
115.98
20
-165.345
11
115.883
21
-165.34
0
LINE
8
BLACK
6
CONTINUOUS
10
115.883
20
-165.34
11
115.7
21
-165.299
0
LINE
8
BLACK
6
CONTINUOUS
10
115.7
20
-165.299
11
115.529
21
-165.219
0
LINE
8
BLACK
6
CONTINUOUS
10
115.529
20
-165.219
11
115.38
21
-165.105
0
LINE
8
BLACK
6
CONTINUOUS
10
115.38
20
-165.105
11
115.259
21
-164.961
0
LINE
8
BLACK
6
CONTINUOUS
10
115.259
20
-164.961
11
115.171
21
-164.795
0
LINE
8
BLACK
6
CONTINUOUS
10
115.171
20
-164.795
11
115.121
21
-164.614
0
LINE
8
BLACK
6
CONTINUOUS
10
115.121
20
-164.614
11
115.111
21
-164.426
0
LINE
8
BLACK
6
CONTINUOUS
10
115.111
20
-164.426
11
115.142
21
-164.241
0
LINE
8
BLACK
6
CONTINUOUS
10
115.142
20
-164.241
11
115.212
21
-164.067
0
LINE
8
BLACK
6
CONTINUOUS
10
115.212
20
-164.067
11
115.317
21
-163.911
0
LINE
8
BLACK
6
CONTINUOUS
10
115.317
20
-163.911
11
115.454
21
-163.782
0
LINE
8
BLACK
6
CONTINUOUS
10
115.454
20
-163.782
11
115.615
21
-163.685
0
LINE
8
BLACK
6
CONTINUOUS
10
115.615
20
-163.685
11
115.793
21
-163.625
0
LINE
8
BLACK
6
CONTINUOUS
10
115.793
20
-163.625
11
115.98
21
-163.605
0
LINE
8
BLACK
6
CONTINUOUS
10
115.98
20
-163.605
11
116.43
21
-163.605
0
LINE
8
BLACK
6
CONTINUOUS
10
116.43
20
-163.605
11
116.527
21
-163.61
0
LINE
8
BLACK
6
CONTINUOUS
10
104.311
20
-157.649
11
104.469
21
-157.705
0
LINE
8
BLACK
6
CONTINUOUS
10
104.469
20
-157.705
11
104.61
21
-157.794
0
LINE
8
BLACK
6
CONTINUOUS
10
104.61
20
-157.794
11
104.728
21
-157.913
0
LINE
8
BLACK
6
CONTINUOUS
10
104.728
20
-157.913
11
104.816
21
-158.055
0
LINE
8
BLACK
6
CONTINUOUS
10
104.816
20
-158.055
11
104.871
21
-158.213
0
LINE
8
BLACK
6
CONTINUOUS
10
104.871
20
-158.213
11
104.89
21
-158.379
0
LINE
8
BLACK
6
CONTINUOUS
10
104.89
20
-158.379
11
104.89
21
-158.4
0
LINE
8
BLACK
6
CONTINUOUS
10
104.89
20
-158.4
11
104.866
21
-158.566
0
LINE
8
BLACK
6
CONTINUOUS
10
104.866
20
-158.566
11
104.807
21
-158.722
0
LINE
8
BLACK
6
CONTINUOUS
10
104.807
20
-158.722
11
104.715
21
-158.861
0
LINE
8
BLACK
6
CONTINUOUS
10
104.715
20
-158.861
11
104.593
21
-158.976
0
LINE
8
BLACK
6
CONTINUOUS
10
104.593
20
-158.976
11
104.45
21
-159.062
0
LINE
8
BLACK
6
CONTINUOUS
10
104.45
20
-159.062
11
104.291
21
-159.114
0
LINE
8
BLACK
6
CONTINUOUS
10
104.291
20
-159.114
11
104.124
21
-159.129
0
LINE
8
BLACK
6
CONTINUOUS
10
104.124
20
-159.129
11
103.959
21
-159.107
0
LINE
8
BLACK
6
CONTINUOUS
10
103.959
20
-159.107
11
103.802
21
-159.048
0
LINE
8
BLACK
6
CONTINUOUS
10
103.802
20
-159.048
11
103.662
21
-158.957
0
LINE
8
BLACK
6
CONTINUOUS
10
103.662
20
-158.957
11
103.546
21
-158.837
0
LINE
8
BLACK
6
CONTINUOUS
10
103.546
20
-158.837
11
103.459
21
-158.694
0
LINE
8
BLACK
6
CONTINUOUS
10
103.459
20
-158.694
11
103.406
21
-158.535
0
LINE
8
BLACK
6
CONTINUOUS
10
103.406
20
-158.535
11
103.39
21
-158.369
0
LINE
8
BLACK
6
CONTINUOUS
10
103.39
20
-158.369
11
103.411
21
-158.203
0
LINE
8
BLACK
6
CONTINUOUS
10
103.411
20
-158.203
11
103.468
21
-158.046
0
LINE
8
BLACK
6
CONTINUOUS
10
103.468
20
-158.046
11
103.559
21
-157.905
0
LINE
8
BLACK
6
CONTINUOUS
10
103.559
20
-157.905
11
103.678
21
-157.788
0
LINE
8
BLACK
6
CONTINUOUS
10
103.678
20
-157.788
11
103.821
21
-157.7
0
LINE
8
BLACK
6
CONTINUOUS
10
103.821
20
-157.7
11
103.979
21
-157.646
0
LINE
8
BLACK
6
CONTINUOUS
10
103.979
20
-157.646
11
104.145
21
-157.629
0
LINE
8
BLACK
6
CONTINUOUS
10
104.145
20
-157.629
11
104.311
21
-157.649
0
LINE
8
BLACK
6
CONTINUOUS
10
104.311
20
-155.109
11
104.469
21
-155.165
0
LINE
8
BLACK
6
CONTINUOUS
10
104.469
20
-155.165
11
104.61
21
-155.254
0
LINE
8
BLACK
6
CONTINUOUS
10
104.61
20
-155.254
11
104.728
21
-155.373
0
LINE
8
BLACK
6
CONTINUOUS
10
104.728
20
-155.373
11
104.816
21
-155.515
0
LINE
8
BLACK
6
CONTINUOUS
10
104.816
20
-155.515
11
104.871
21
-155.673
0
LINE
8
BLACK
6
CONTINUOUS
10
104.871
20
-155.673
11
104.89
21
-155.839
0
LINE
8
BLACK
6
CONTINUOUS
10
104.89
20
-155.839
11
104.89
21
-155.86
0
LINE
8
BLACK
6
CONTINUOUS
10
104.89
20
-155.86
11
104.866
21
-156.026
0
LINE
8
BLACK
6
CONTINUOUS
10
104.866
20
-156.026
11
104.807
21
-156.182
0
LINE
8
BLACK
6
CONTINUOUS
10
104.807
20
-156.182
11
104.715
21
-156.321
0
LINE
8
BLACK
6
CONTINUOUS
10
104.715
20
-156.321
11
104.593
21
-156.436
0
LINE
8
BLACK
6
CONTINUOUS
10
104.593
20
-156.436
11
104.45
21
-156.522
0
LINE
8
BLACK
6
CONTINUOUS
10
104.45
20
-156.522
11
104.291
21
-156.574
0
LINE
8
BLACK
6
CONTINUOUS
10
104.291
20
-156.574
11
104.124
21
-156.589
0
LINE
8
BLACK
6
CONTINUOUS
10
104.124
20
-156.589
11
103.959
21
-156.567
0
LINE
8
BLACK
6
CONTINUOUS
10
103.959
20
-156.567
11
103.802
21
-156.508
0
LINE
8
BLACK
6
CONTINUOUS
10
103.802
20
-156.508
11
103.662
21
-156.417
0
LINE
8
BLACK
6
CONTINUOUS
10
103.662
20
-156.417
11
103.546
21
-156.297
0
LINE
8
BLACK
6
CONTINUOUS
10
103.546
20
-156.297
11
103.459
21
-156.154
0
LINE
8
BLACK
6
CONTINUOUS
10
103.459
20
-156.154
11
103.406
21
-155.995
0
LINE
8
BLACK
6
CONTINUOUS
10
103.406
20
-155.995
11
103.39
21
-155.829
0
LINE
8
BLACK
6
CONTINUOUS
10
103.39
20
-155.829
11
103.411
21
-155.663
0
LINE
8
BLACK
6
CONTINUOUS
10
103.411
20
-155.663
11
103.468
21
-155.506
0
LINE
8
BLACK
6
CONTINUOUS
10
103.468
20
-155.506
11
103.559
21
-155.365
0
LINE
8
BLACK
6
CONTINUOUS
10
103.559
20
-155.365
11
103.678
21
-155.248
0
LINE
8
BLACK
6
CONTINUOUS
10
103.678
20
-155.248
11
103.821
21
-155.16
0
LINE
8
BLACK
6
CONTINUOUS
10
103.821
20
-155.16
11
103.979
21
-155.106
0
LINE
8
BLACK
6
CONTINUOUS
10
103.979
20
-155.106
11
104.145
21
-155.089
0
LINE
8
BLACK
6
CONTINUOUS
10
104.145
20
-155.089
11
104.311
21
-155.109
0
LINE
8
BLACK
6
CONTINUOUS
10
109.954
20
-154.099
11
108.354
21
-154.099
0
LINE
8
BLACK
6
CONTINUOUS
10
108.354
20
-154.099
11
108.354
21
-152.499
0
LINE
8
BLACK
6
CONTINUOUS
10
108.354
20
-152.499
11
109.954
21
-152.499
0
LINE
8
BLACK
6
CONTINUOUS
10
109.954
20
-152.499
11
109.954
21
-154.099
0
LINE
8
BLACK
6
CONTINUOUS
10
111.837
20
-152.52
11
112.005
21
-152.58
0
LINE
8
BLACK
6
CONTINUOUS
10
112.005
20
-152.58
11
112.155
21
-152.676
0
LINE
8
BLACK
6
CONTINUOUS
10
112.155
20
-152.676
11
112.281
21
-152.802
0
LINE
8
BLACK
6
CONTINUOUS
10
112.281
20
-152.802
11
112.375
21
-152.953
0
LINE
8
BLACK
6
CONTINUOUS
10
112.375
20
-152.953
11
112.434
21
-153.122
0
LINE
8
BLACK
6
CONTINUOUS
10
112.434
20
-153.122
11
112.454
21
-153.299
0
LINE
8
BLACK
6
CONTINUOUS
10
112.454
20
-153.299
11
112.454
21
-153.321
0
LINE
8
BLACK
6
CONTINUOUS
10
112.454
20
-153.321
11
112.429
21
-153.498
0
LINE
8
BLACK
6
CONTINUOUS
10
112.429
20
-153.498
11
112.366
21
-153.665
0
LINE
8
BLACK
6
CONTINUOUS
10
112.366
20
-153.665
11
112.267
21
-153.813
0
LINE
8
BLACK
6
CONTINUOUS
10
112.267
20
-153.813
11
112.138
21
-153.936
0
LINE
8
BLACK
6
CONTINUOUS
10
112.138
20
-153.936
11
111.984
21
-154.028
0
LINE
8
BLACK
6
CONTINUOUS
10
111.984
20
-154.028
11
111.815
21
-154.083
0
LINE
8
BLACK
6
CONTINUOUS
10
111.815
20
-154.083
11
111.637
21
-154.099
0
LINE
8
BLACK
6
CONTINUOUS
10
111.637
20
-154.099
11
111.46
21
-154.075
0
LINE
8
BLACK
6
CONTINUOUS
10
111.46
20
-154.075
11
111.293
21
-154.013
0
LINE
8
BLACK
6
CONTINUOUS
10
111.293
20
-154.013
11
111.144
21
-153.915
0
LINE
8
BLACK
6
CONTINUOUS
10
111.144
20
-153.915
11
111.02
21
-153.787
0
LINE
8
BLACK
6
CONTINUOUS
10
111.02
20
-153.787
11
110.928
21
-153.635
0
LINE
8
BLACK
6
CONTINUOUS
10
110.928
20
-153.635
11
110.871
21
-153.465
0
LINE
8
BLACK
6
CONTINUOUS
10
110.871
20
-153.465
11
110.854
21
-153.288
0
LINE
8
BLACK
6
CONTINUOUS
10
110.854
20
-153.288
11
110.876
21
-153.111
0
LINE
8
BLACK
6
CONTINUOUS
10
110.876
20
-153.111
11
110.937
21
-152.943
0
LINE
8
BLACK
6
CONTINUOUS
10
110.937
20
-152.943
11
111.034
21
-152.793
0
LINE
8
BLACK
6
CONTINUOUS
10
111.034
20
-152.793
11
111.161
21
-152.669
0
LINE
8
BLACK
6
CONTINUOUS
10
111.161
20
-152.669
11
111.313
21
-152.575
0
LINE
8
BLACK
6
CONTINUOUS
10
111.313
20
-152.575
11
111.482
21
-152.518
0
LINE
8
BLACK
6
CONTINUOUS
10
111.482
20
-152.518
11
111.66
21
-152.499
0
LINE
8
BLACK
6
CONTINUOUS
10
111.66
20
-152.499
11
111.837
21
-152.52
0
LINE
8
BLACK
6
CONTINUOUS
10
104.89
20
-154.049
11
103.39
21
-154.049
0
LINE
8
BLACK
6
CONTINUOUS
10
103.39
20
-154.049
11
103.39
21
-152.549
0
LINE
8
BLACK
6
CONTINUOUS
10
103.39
20
-152.549
11
104.89
21
-152.549
0
LINE
8
BLACK
6
CONTINUOUS
10
104.89
20
-152.549
11
104.89
21
-154.049
0
LINE
8
BLACK
6
CONTINUOUS
10
104.16
20
-147.114
11
102.56
21
-147.114
0
LINE
8
BLACK
6
CONTINUOUS
10
102.56
20
-147.114
11
102.56
21
-145.514
0
LINE
8
BLACK
6
CONTINUOUS
10
102.56
20
-145.514
11
104.16
21
-145.514
0
LINE
8
BLACK
6
CONTINUOUS
10
104.16
20
-145.514
11
104.16
21
-147.114
0
LINE
8
BLACK
6
CONTINUOUS
10
106.042
20
-145.535
11
106.21
21
-145.595
0
LINE
8
BLACK
6
CONTINUOUS
10
106.21
20
-145.595
11
106.361
21
-145.691
0
LINE
8
BLACK
6
CONTINUOUS
10
106.361
20
-145.691
11
106.487
21
-145.817
0
LINE
8
BLACK
6
CONTINUOUS
10
106.487
20
-145.817
11
106.581
21
-145.968
0
LINE
8
BLACK
6
CONTINUOUS
10
106.581
20
-145.968
11
106.64
21
-146.137
0
LINE
8
BLACK
6
CONTINUOUS
10
106.64
20
-146.137
11
106.66
21
-146.314
0
LINE
8
BLACK
6
CONTINUOUS
10
106.66
20
-146.314
11
106.659
21
-146.336
0
LINE
8
BLACK
6
CONTINUOUS
10
106.659
20
-146.336
11
106.634
21
-146.513
0
LINE
8
BLACK
6
CONTINUOUS
10
106.634
20
-146.513
11
106.571
21
-146.68
0
LINE
8
BLACK
6
CONTINUOUS
10
106.571
20
-146.68
11
106.472
21
-146.828
0
LINE
8
BLACK
6
CONTINUOUS
10
106.472
20
-146.828
11
106.343
21
-146.951
0
LINE
8
BLACK
6
CONTINUOUS
10
106.343
20
-146.951
11
106.19
21
-147.043
0
LINE
8
BLACK
6
CONTINUOUS
10
106.19
20
-147.043
11
106.02
21
-147.098
0
LINE
8
BLACK
6
CONTINUOUS
10
106.02
20
-147.098
11
105.843
21
-147.114
0
LINE
8
BLACK
6
CONTINUOUS
10
105.843
20
-147.114
11
105.666
21
-147.09
0
LINE
8
BLACK
6
CONTINUOUS
10
105.666
20
-147.09
11
105.499
21
-147.028
0
LINE
8
BLACK
6
CONTINUOUS
10
105.499
20
-147.028
11
105.35
21
-146.93
0
LINE
8
BLACK
6
CONTINUOUS
10
105.35
20
-146.93
11
105.226
21
-146.802
0
LINE
8
BLACK
6
CONTINUOUS
10
105.226
20
-146.802
11
105.133
21
-146.65
0
LINE
8
BLACK
6
CONTINUOUS
10
105.133
20
-146.65
11
105.077
21
-146.48
0
LINE
8
BLACK
6
CONTINUOUS
10
105.077
20
-146.48
11
105.06
21
-146.303
0
LINE
8
BLACK
6
CONTINUOUS
10
105.06
20
-146.303
11
105.082
21
-146.126
0
LINE
8
BLACK
6
CONTINUOUS
10
105.082
20
-146.126
11
105.143
21
-145.958
0
LINE
8
BLACK
6
CONTINUOUS
10
105.143
20
-145.958
11
105.24
21
-145.808
0
LINE
8
BLACK
6
CONTINUOUS
10
105.24
20
-145.808
11
105.367
21
-145.684
0
LINE
8
BLACK
6
CONTINUOUS
10
105.367
20
-145.684
11
105.519
21
-145.59
0
LINE
8
BLACK
6
CONTINUOUS
10
105.519
20
-145.59
11
105.688
21
-145.533
0
LINE
8
BLACK
6
CONTINUOUS
10
105.688
20
-145.533
11
105.865
21
-145.514
0
LINE
8
BLACK
6
CONTINUOUS
10
105.865
20
-145.514
11
106.042
21
-145.535
0
LINE
8
BLACK
6
CONTINUOUS
10
102.54
20
-136.165
11
100.74
21
-136.165
0
LINE
8
BLACK
6
CONTINUOUS
10
100.74
20
-136.165
11
100.74
21
-134.365
0
LINE
8
BLACK
6
CONTINUOUS
10
100.74
20
-134.365
11
102.54
21
-134.365
0
LINE
8
BLACK
6
CONTINUOUS
10
102.54
20
-134.365
11
102.54
21
-136.165
0
LINE
8
BLACK
6
CONTINUOUS
10
106.918
20
-134.409
11
107.09
21
-134.486
0
LINE
8
BLACK
6
CONTINUOUS
10
107.09
20
-134.486
11
107.242
21
-134.596
0
LINE
8
BLACK
6
CONTINUOUS
10
107.242
20
-134.596
11
107.368
21
-134.736
0
LINE
8
BLACK
6
CONTINUOUS
10
107.368
20
-134.736
11
107.462
21
-134.899
0
LINE
8
BLACK
6
CONTINUOUS
10
107.462
20
-134.899
11
107.52
21
-135.078
0
LINE
8
BLACK
6
CONTINUOUS
10
107.52
20
-135.078
11
107.54
21
-135.265
0
LINE
8
BLACK
6
CONTINUOUS
10
107.54
20
-135.265
11
107.52
21
-135.452
0
LINE
8
BLACK
6
CONTINUOUS
10
107.52
20
-135.452
11
107.462
21
-135.631
0
LINE
8
BLACK
6
CONTINUOUS
10
107.462
20
-135.631
11
107.368
21
-135.794
0
LINE
8
BLACK
6
CONTINUOUS
10
107.368
20
-135.794
11
107.242
21
-135.934
0
LINE
8
BLACK
6
CONTINUOUS
10
107.242
20
-135.934
11
107.09
21
-136.044
0
LINE
8
BLACK
6
CONTINUOUS
10
107.09
20
-136.044
11
106.918
21
-136.121
0
LINE
8
BLACK
6
CONTINUOUS
10
106.918
20
-136.121
11
106.734
21
-136.16
0
LINE
8
BLACK
6
CONTINUOUS
10
106.734
20
-136.16
11
106.546
21
-136.16
0
LINE
8
BLACK
6
CONTINUOUS
10
106.546
20
-136.16
11
106.362
21
-136.121
0
LINE
8
BLACK
6
CONTINUOUS
10
106.362
20
-136.121
11
106.19
21
-136.044
0
LINE
8
BLACK
6
CONTINUOUS
10
106.19
20
-136.044
11
106.038
21
-135.934
0
LINE
8
BLACK
6
CONTINUOUS
10
106.038
20
-135.934
11
105.912
21
-135.794
0
LINE
8
BLACK
6
CONTINUOUS
10
105.912
20
-135.794
11
105.818
21
-135.631
0
LINE
8
BLACK
6
CONTINUOUS
10
105.818
20
-135.631
11
105.76
21
-135.452
0
LINE
8
BLACK
6
CONTINUOUS
10
105.76
20
-135.452
11
105.74
21
-135.265
0
LINE
8
BLACK
6
CONTINUOUS
10
105.74
20
-135.265
11
105.76
21
-135.078
0
LINE
8
BLACK
6
CONTINUOUS
10
105.76
20
-135.078
11
105.818
21
-134.899
0
LINE
8
BLACK
6
CONTINUOUS
10
105.818
20
-134.899
11
105.912
21
-134.736
0
LINE
8
BLACK
6
CONTINUOUS
10
105.912
20
-134.736
11
106.038
21
-134.596
0
LINE
8
BLACK
6
CONTINUOUS
10
106.038
20
-134.596
11
106.19
21
-134.486
0
LINE
8
BLACK
6
CONTINUOUS
10
106.19
20
-134.486
11
106.362
21
-134.409
0
LINE
8
BLACK
6
CONTINUOUS
10
106.362
20
-134.409
11
106.546
21
-134.37
0
LINE
8
BLACK
6
CONTINUOUS
10
106.546
20
-134.37
11
106.734
21
-134.37
0
LINE
8
BLACK
6
CONTINUOUS
10
106.734
20
-134.37
11
106.918
21
-134.409
0
LINE
8
BLACK
6
CONTINUOUS
10
104.418
20
-134.409
11
104.59
21
-134.486
0
LINE
8
BLACK
6
CONTINUOUS
10
104.59
20
-134.486
11
104.742
21
-134.596
0
LINE
8
BLACK
6
CONTINUOUS
10
104.742
20
-134.596
11
104.868
21
-134.736
0
LINE
8
BLACK
6
CONTINUOUS
10
104.868
20
-134.736
11
104.962
21
-134.899
0
LINE
8
BLACK
6
CONTINUOUS
10
104.962
20
-134.899
11
105.02
21
-135.078
0
LINE
8
BLACK
6
CONTINUOUS
10
105.02
20
-135.078
11
105.04
21
-135.265
0
LINE
8
BLACK
6
CONTINUOUS
10
105.04
20
-135.265
11
105.02
21
-135.452
0
LINE
8
BLACK
6
CONTINUOUS
10
105.02
20
-135.452
11
104.962
21
-135.631
0
LINE
8
BLACK
6
CONTINUOUS
10
104.962
20
-135.631
11
104.868
21
-135.794
0
LINE
8
BLACK
6
CONTINUOUS
10
104.868
20
-135.794
11
104.742
21
-135.934
0
LINE
8
BLACK
6
CONTINUOUS
10
104.742
20
-135.934
11
104.59
21
-136.044
0
LINE
8
BLACK
6
CONTINUOUS
10
104.59
20
-136.044
11
104.418
21
-136.121
0
LINE
8
BLACK
6
CONTINUOUS
10
104.418
20
-136.121
11
104.234
21
-136.16
0
LINE
8
BLACK
6
CONTINUOUS
10
104.234
20
-136.16
11
104.046
21
-136.16
0
LINE
8
BLACK
6
CONTINUOUS
10
104.046
20
-136.16
11
103.862
21
-136.121
0
LINE
8
BLACK
6
CONTINUOUS
10
103.862
20
-136.121
11
103.69
21
-136.044
0
LINE
8
BLACK
6
CONTINUOUS
10
103.69
20
-136.044
11
103.538
21
-135.934
0
LINE
8
BLACK
6
CONTINUOUS
10
103.538
20
-135.934
11
103.412
21
-135.794
0
LINE
8
BLACK
6
CONTINUOUS
10
103.412
20
-135.794
11
103.318
21
-135.631
0
LINE
8
BLACK
6
CONTINUOUS
10
103.318
20
-135.631
11
103.26
21
-135.452
0
LINE
8
BLACK
6
CONTINUOUS
10
103.26
20
-135.452
11
103.24
21
-135.265
0
LINE
8
BLACK
6
CONTINUOUS
10
103.24
20
-135.265
11
103.26
21
-135.078
0
LINE
8
BLACK
6
CONTINUOUS
10
103.26
20
-135.078
11
103.318
21
-134.899
0
LINE
8
BLACK
6
CONTINUOUS
10
103.318
20
-134.899
11
103.412
21
-134.736
0
LINE
8
BLACK
6
CONTINUOUS
10
103.412
20
-134.736
11
103.538
21
-134.596
0
LINE
8
BLACK
6
CONTINUOUS
10
103.538
20
-134.596
11
103.69
21
-134.486
0
LINE
8
BLACK
6
CONTINUOUS
10
103.69
20
-134.486
11
103.862
21
-134.409
0
LINE
8
BLACK
6
CONTINUOUS
10
103.862
20
-134.409
11
104.046
21
-134.37
0
LINE
8
BLACK
6
CONTINUOUS
10
104.046
20
-134.37
11
104.234
21
-134.37
0
LINE
8
BLACK
6
CONTINUOUS
10
104.234
20
-134.37
11
104.418
21
-134.409
0
LINE
8
BLACK
6
CONTINUOUS
10
99.632
20
-126.177
11
99.8517
21
-126.245
0
LINE
8
BLACK
6
CONTINUOUS
10
99.8517
20
-126.245
11
100.057
21
-126.349
0
LINE
8
BLACK
6
CONTINUOUS
10
100.057
20
-126.349
11
100.241
21
-126.486
0
LINE
8
BLACK
6
CONTINUOUS
10
100.241
20
-126.486
11
100.4
21
-126.653
0
LINE
8
BLACK
6
CONTINUOUS
10
100.4
20
-126.653
11
100.528
21
-126.844
0
LINE
8
BLACK
6
CONTINUOUS
10
100.528
20
-126.844
11
100.623
21
-127.053
0
LINE
8
BLACK
6
CONTINUOUS
10
100.623
20
-127.053
11
100.681
21
-127.276
0
LINE
8
BLACK
6
CONTINUOUS
10
100.681
20
-127.276
11
100.7
21
-127.505
0
LINE
8
BLACK
6
CONTINUOUS
10
100.7
20
-127.505
11
100.7
21
-128.025
0
LINE
8
BLACK
6
CONTINUOUS
10
100.7
20
-128.025
11
100.694
21
-128.153
0
LINE
8
BLACK
6
CONTINUOUS
10
100.694
20
-128.153
11
100.653
21
-128.379
0
LINE
8
BLACK
6
CONTINUOUS
10
100.653
20
-128.379
11
100.575
21
-128.595
0
LINE
8
BLACK
6
CONTINUOUS
10
100.575
20
-128.595
11
100.461
21
-128.795
0
LINE
8
BLACK
6
CONTINUOUS
10
100.461
20
-128.795
11
100.315
21
-128.973
0
LINE
8
BLACK
6
CONTINUOUS
10
100.315
20
-128.973
11
100.141
21
-129.124
0
LINE
8
BLACK
6
CONTINUOUS
10
100.141
20
-129.124
11
99.9447
21
-129.243
0
LINE
8
BLACK
6
CONTINUOUS
10
99.9447
20
-129.243
11
99.7308
21
-129.328
0
LINE
8
BLACK
6
CONTINUOUS
10
99.7308
20
-129.328
11
99.5057
21
-129.375
0
LINE
8
BLACK
6
CONTINUOUS
10
99.5057
20
-129.375
11
99.2759
21
-129.383
0
LINE
8
BLACK
6
CONTINUOUS
10
99.2759
20
-129.383
11
99.048
21
-129.353
0
LINE
8
BLACK
6
CONTINUOUS
10
99.048
20
-129.353
11
98.8283
21
-129.285
0
LINE
8
BLACK
6
CONTINUOUS
10
98.8283
20
-129.285
11
98.6233
21
-129.181
0
LINE
8
BLACK
6
CONTINUOUS
10
98.6233
20
-129.181
11
98.4388
21
-129.044
0
LINE
8
BLACK
6
CONTINUOUS
10
98.4388
20
-129.044
11
98.2801
21
-128.877
0
LINE
8
BLACK
6
CONTINUOUS
10
98.2801
20
-128.877
11
98.1517
21
-128.686
0
LINE
8
BLACK
6
CONTINUOUS
10
98.1517
20
-128.686
11
98.0572
21
-128.477
0
LINE
8
BLACK
6
CONTINUOUS
10
98.0572
20
-128.477
11
97.9994
21
-128.254
0
LINE
8
BLACK
6
CONTINUOUS
10
97.9994
20
-128.254
11
97.98
21
-128.025
0
LINE
8
BLACK
6
CONTINUOUS
10
97.98
20
-128.025
11
97.98
21
-127.505
0
LINE
8
BLACK
6
CONTINUOUS
10
97.98
20
-127.505
11
97.986
21
-127.377
0
LINE
8
BLACK
6
CONTINUOUS
10
97.986
20
-127.377
11
98.027
21
-127.151
0
LINE
8
BLACK
6
CONTINUOUS
10
98.027
20
-127.151
11
98.1054
21
-126.935
0
LINE
8
BLACK
6
CONTINUOUS
10
98.1054
20
-126.935
11
98.2192
21
-126.735
0
LINE
8
BLACK
6
CONTINUOUS
10
98.2192
20
-126.735
11
98.365
21
-126.557
0
LINE
8
BLACK
6
CONTINUOUS
10
98.365
20
-126.557
11
98.5387
21
-126.406
0
LINE
8
BLACK
6
CONTINUOUS
10
98.5387
20
-126.406
11
98.7353
21
-126.287
0
LINE
8
BLACK
6
CONTINUOUS
10
98.7353
20
-126.287
11
98.9492
21
-126.202
0
LINE
8
BLACK
6
CONTINUOUS
10
98.9492
20
-126.202
11
99.1743
21
-126.155
0
LINE
8
BLACK
6
CONTINUOUS
10
99.1743
20
-126.155
11
99.4041
21
-126.147
0
LINE
8
BLACK
6
CONTINUOUS
10
99.4041
20
-126.147
11
99.632
21
-126.177
0
LINE
8
BLACK
6
CONTINUOUS
10
109.232
20
-126.177
11
109.452
21
-126.245
0
LINE
8
BLACK
6
CONTINUOUS
10
109.452
20
-126.245
11
109.657
21
-126.349
0
LINE
8
BLACK
6
CONTINUOUS
10
109.657
20
-126.349
11
109.841
21
-126.486
0
LINE
8
BLACK
6
CONTINUOUS
10
109.841
20
-126.486
11
110
21
-126.653
0
LINE
8
BLACK
6
CONTINUOUS
10
110
20
-126.653
11
110.128
21
-126.844
0
LINE
8
BLACK
6
CONTINUOUS
10
110.128
20
-126.844
11
110.223
21
-127.053
0
LINE
8
BLACK
6
CONTINUOUS
10
110.223
20
-127.053
11
110.281
21
-127.276
0
LINE
8
BLACK
6
CONTINUOUS
10
110.281
20
-127.276
11
110.3
21
-127.505
0
LINE
8
BLACK
6
CONTINUOUS
10
110.3
20
-127.505
11
110.3
21
-128.025
0
LINE
8
BLACK
6
CONTINUOUS
10
110.3
20
-128.025
11
110.294
21
-128.153
0
LINE
8
BLACK
6
CONTINUOUS
10
110.294
20
-128.153
11
110.253
21
-128.379
0
LINE
8
BLACK
6
CONTINUOUS
10
110.253
20
-128.379
11
110.175
21
-128.595
0
LINE
8
BLACK
6
CONTINUOUS
10
110.175
20
-128.595
11
110.061
21
-128.795
0
LINE
8
BLACK
6
CONTINUOUS
10
110.061
20
-128.795
11
109.915
21
-128.973
0
LINE
8
BLACK
6
CONTINUOUS
10
109.915
20
-128.973
11
109.741
21
-129.124
0
LINE
8
BLACK
6
CONTINUOUS
10
109.741
20
-129.124
11
109.545
21
-129.243
0
LINE
8
BLACK
6
CONTINUOUS
10
109.545
20
-129.243
11
109.331
21
-129.328
0
LINE
8
BLACK
6
CONTINUOUS
10
109.331
20
-129.328
11
109.106
21
-129.375
0
LINE
8
BLACK
6
CONTINUOUS
10
109.106
20
-129.375
11
108.876
21
-129.383
0
LINE
8
BLACK
6
CONTINUOUS
10
108.876
20
-129.383
11
108.648
21
-129.353
0
LINE
8
BLACK
6
CONTINUOUS
10
108.648
20
-129.353
11
108.428
21
-129.285
0
LINE
8
BLACK
6
CONTINUOUS
10
108.428
20
-129.285
11
108.223
21
-129.181
0
LINE
8
BLACK
6
CONTINUOUS
10
108.223
20
-129.181
11
108.039
21
-129.044
0
LINE
8
BLACK
6
CONTINUOUS
10
108.039
20
-129.044
11
107.88
21
-128.877
0
LINE
8
BLACK
6
CONTINUOUS
10
107.88
20
-128.877
11
107.752
21
-128.686
0
LINE
8
BLACK
6
CONTINUOUS
10
107.752
20
-128.686
11
107.657
21
-128.477
0
LINE
8
BLACK
6
CONTINUOUS
10
107.657
20
-128.477
11
107.599
21
-128.254
0
LINE
8
BLACK
6
CONTINUOUS
10
107.599
20
-128.254
11
107.58
21
-128.025
0
LINE
8
BLACK
6
CONTINUOUS
10
107.58
20
-128.025
11
107.58
21
-127.505
0
LINE
8
BLACK
6
CONTINUOUS
10
107.58
20
-127.505
11
107.586
21
-127.377
0
LINE
8
BLACK
6
CONTINUOUS
10
107.586
20
-127.377
11
107.627
21
-127.151
0
LINE
8
BLACK
6
CONTINUOUS
10
107.627
20
-127.151
11
107.705
21
-126.935
0
LINE
8
BLACK
6
CONTINUOUS
10
107.705
20
-126.935
11
107.819
21
-126.735
0
LINE
8
BLACK
6
CONTINUOUS
10
107.819
20
-126.735
11
107.965
21
-126.557
0
LINE
8
BLACK
6
CONTINUOUS
10
107.965
20
-126.557
11
108.139
21
-126.406
0
LINE
8
BLACK
6
CONTINUOUS
10
108.139
20
-126.406
11
108.335
21
-126.287
0
LINE
8
BLACK
6
CONTINUOUS
10
108.335
20
-126.287
11
108.549
21
-126.202
0
LINE
8
BLACK
6
CONTINUOUS
10
108.549
20
-126.202
11
108.774
21
-126.155
0
LINE
8
BLACK
6
CONTINUOUS
10
108.774
20
-126.155
11
109.004
21
-126.147
0
LINE
8
BLACK
6
CONTINUOUS
10
109.004
20
-126.147
11
109.232
21
-126.177
0
LINE
8
BLACK
6
CONTINUOUS
10
92.397
20
-124.24
11
92.5804
21
-124.281
0
LINE
8
BLACK
6
CONTINUOUS
10
92.5804
20
-124.281
11
92.7507
21
-124.361
0
LINE
8
BLACK
6
CONTINUOUS
10
92.7507
20
-124.361
11
92.9
21
-124.475
0
LINE
8
BLACK
6
CONTINUOUS
10
92.9
20
-124.475
11
93.0213
21
-124.619
0
LINE
8
BLACK
6
CONTINUOUS
10
93.0213
20
-124.619
11
93.1089
21
-124.785
0
LINE
8
BLACK
6
CONTINUOUS
10
93.1089
20
-124.785
11
93.1588
21
-124.966
0
LINE
8
BLACK
6
CONTINUOUS
10
93.1588
20
-124.966
11
93.1686
21
-125.154
0
LINE
8
BLACK
6
CONTINUOUS
10
93.1686
20
-125.154
11
93.138
21
-125.339
0
LINE
8
BLACK
6
CONTINUOUS
10
93.138
20
-125.339
11
93.0682
21
-125.513
0
LINE
8
BLACK
6
CONTINUOUS
10
93.0682
20
-125.513
11
92.9625
21
-125.669
0
LINE
8
BLACK
6
CONTINUOUS
10
92.9625
20
-125.669
11
92.826
21
-125.798
0
LINE
8
BLACK
6
CONTINUOUS
10
92.826
20
-125.798
11
92.6649
21
-125.895
0
LINE
8
BLACK
6
CONTINUOUS
10
92.6649
20
-125.895
11
92.4868
21
-125.955
0
LINE
8
BLACK
6
CONTINUOUS
10
92.4868
20
-125.955
11
92.3
21
-125.975
0
LINE
8
BLACK
6
CONTINUOUS
10
92.3
20
-125.975
11
91.85
21
-125.975
0
LINE
8
BLACK
6
CONTINUOUS
10
91.85
20
-125.975
11
91.753
21
-125.97
0
LINE
8
BLACK
6
CONTINUOUS
10
91.753
20
-125.97
11
91.5696
21
-125.929
0
LINE
8
BLACK
6
CONTINUOUS
10
91.5696
20
-125.929
11
91.3993
21
-125.849
0
LINE
8
BLACK
6
CONTINUOUS
10
91.3993
20
-125.849
11
91.25
21
-125.735
0
LINE
8
BLACK
6
CONTINUOUS
10
91.25
20
-125.735
11
91.1287
21
-125.591
0
LINE
8
BLACK
6
CONTINUOUS
10
91.1287
20
-125.591
11
91.0411
21
-125.425
0
LINE
8
BLACK
6
CONTINUOUS
10
91.0411
20
-125.425
11
90.9912
21
-125.244
0
LINE
8
BLACK
6
CONTINUOUS
10
90.9912
20
-125.244
11
90.9814
21
-125.056
0
LINE
8
BLACK
6
CONTINUOUS
10
90.9814
20
-125.056
11
91.012
21
-124.871
0
LINE
8
BLACK
6
CONTINUOUS
10
91.012
20
-124.871
11
91.0818
21
-124.697
0
LINE
8
BLACK
6
CONTINUOUS
10
91.0818
20
-124.697
11
91.1875
21
-124.541
0
LINE
8
BLACK
6
CONTINUOUS
10
91.1875
20
-124.541
11
91.324
21
-124.412
0
LINE
8
BLACK
6
CONTINUOUS
10
91.324
20
-124.412
11
91.4851
21
-124.315
0
LINE
8
BLACK
6
CONTINUOUS
10
91.4851
20
-124.315
11
91.6632
21
-124.255
0
LINE
8
BLACK
6
CONTINUOUS
10
91.6632
20
-124.255
11
91.85
21
-124.235
0
LINE
8
BLACK
6
CONTINUOUS
10
91.85
20
-124.235
11
92.3
21
-124.235
0
LINE
8
BLACK
6
CONTINUOUS
10
92.3
20
-124.235
11
92.397
21
-124.24
0
LINE
8
BLACK
6
CONTINUOUS
10
92.397
20
-121.7
11
92.5804
21
-121.741
0
LINE
8
BLACK
6
CONTINUOUS
10
92.5804
20
-121.741
11
92.7507
21
-121.821
0
LINE
8
BLACK
6
CONTINUOUS
10
92.7507
20
-121.821
11
92.9
21
-121.935
0
LINE
8
BLACK
6
CONTINUOUS
10
92.9
20
-121.935
11
93.0213
21
-122.079
0
LINE
8
BLACK
6
CONTINUOUS
10
93.0213
20
-122.079
11
93.1089
21
-122.245
0
LINE
8
BLACK
6
CONTINUOUS
10
93.1089
20
-122.245
11
93.1588
21
-122.426
0
LINE
8
BLACK
6
CONTINUOUS
10
93.1588
20
-122.426
11
93.1686
21
-122.614
0
LINE
8
BLACK
6
CONTINUOUS
10
93.1686
20
-122.614
11
93.138
21
-122.799
0
LINE
8
BLACK
6
CONTINUOUS
10
93.138
20
-122.799
11
93.0682
21
-122.973
0
LINE
8
BLACK
6
CONTINUOUS
10
93.0682
20
-122.973
11
92.9625
21
-123.129
0
LINE
8
BLACK
6
CONTINUOUS
10
92.9625
20
-123.129
11
92.826
21
-123.258
0
LINE
8
BLACK
6
CONTINUOUS
10
92.826
20
-123.258
11
92.6649
21
-123.355
0
LINE
8
BLACK
6
CONTINUOUS
10
92.6649
20
-123.355
11
92.4868
21
-123.415
0
LINE
8
BLACK
6
CONTINUOUS
10
92.4868
20
-123.415
11
92.3
21
-123.435
0
LINE
8
BLACK
6
CONTINUOUS
10
92.3
20
-123.435
11
91.85
21
-123.435
0
LINE
8
BLACK
6
CONTINUOUS
10
91.85
20
-123.435
11
91.753
21
-123.43
0
LINE
8
BLACK
6
CONTINUOUS
10
91.753
20
-123.43
11
91.5696
21
-123.389
0
LINE
8
BLACK
6
CONTINUOUS
10
91.5696
20
-123.389
11
91.3993
21
-123.309
0
LINE
8
BLACK
6
CONTINUOUS
10
91.3993
20
-123.309
11
91.25
21
-123.195
0
LINE
8
BLACK
6
CONTINUOUS
10
91.25
20
-123.195
11
91.1287
21
-123.051
0
LINE
8
BLACK
6
CONTINUOUS
10
91.1287
20
-123.051
11
91.0411
21
-122.885
0
LINE
8
BLACK
6
CONTINUOUS
10
91.0411
20
-122.885
11
90.9912
21
-122.704
0
LINE
8
BLACK
6
CONTINUOUS
10
90.9912
20
-122.704
11
90.9814
21
-122.516
0
LINE
8
BLACK
6
CONTINUOUS
10
90.9814
20
-122.516
11
91.012
21
-122.331
0
LINE
8
BLACK
6
CONTINUOUS
10
91.012
20
-122.331
11
91.0818
21
-122.157
0
LINE
8
BLACK
6
CONTINUOUS
10
91.0818
20
-122.157
11
91.1875
21
-122.001
0
LINE
8
BLACK
6
CONTINUOUS
10
91.1875
20
-122.001
11
91.324
21
-121.872
0
LINE
8
BLACK
6
CONTINUOUS
10
91.324
20
-121.872
11
91.4851
21
-121.775
0
LINE
8
BLACK
6
CONTINUOUS
10
91.4851
20
-121.775
11
91.6632
21
-121.715
0
LINE
8
BLACK
6
CONTINUOUS
10
91.6632
20
-121.715
11
91.85
21
-121.695
0
LINE
8
BLACK
6
CONTINUOUS
10
91.85
20
-121.695
11
92.3
21
-121.695
0
LINE
8
BLACK
6
CONTINUOUS
10
92.3
20
-121.695
11
92.397
21
-121.7
0
LINE
8
BLACK
6
CONTINUOUS
10
92.397
20
-119.16
11
92.5804
21
-119.201
0
LINE
8
BLACK
6
CONTINUOUS
10
92.5804
20
-119.201
11
92.7507
21
-119.281
0
LINE
8
BLACK
6
CONTINUOUS
10
92.7507
20
-119.281
11
92.9
21
-119.395
0
LINE
8
BLACK
6
CONTINUOUS
10
92.9
20
-119.395
11
93.0213
21
-119.539
0
LINE
8
BLACK
6
CONTINUOUS
10
93.0213
20
-119.539
11
93.1089
21
-119.705
0
LINE
8
BLACK
6
CONTINUOUS
10
93.1089
20
-119.705
11
93.1588
21
-119.886
0
LINE
8
BLACK
6
CONTINUOUS
10
93.1588
20
-119.886
11
93.1686
21
-120.074
0
LINE
8
BLACK
6
CONTINUOUS
10
93.1686
20
-120.074
11
93.138
21
-120.259
0
LINE
8
BLACK
6
CONTINUOUS
10
93.138
20
-120.259
11
93.0682
21
-120.433
0
LINE
8
BLACK
6
CONTINUOUS
10
93.0682
20
-120.433
11
92.9625
21
-120.589
0
LINE
8
BLACK
6
CONTINUOUS
10
92.9625
20
-120.589
11
92.826
21
-120.718
0
LINE
8
BLACK
6
CONTINUOUS
10
92.826
20
-120.718
11
92.6649
21
-120.815
0
LINE
8
BLACK
6
CONTINUOUS
10
92.6649
20
-120.815
11
92.4868
21
-120.875
0
LINE
8
BLACK
6
CONTINUOUS
10
92.4868
20
-120.875
11
92.3
21
-120.895
0
LINE
8
BLACK
6
CONTINUOUS
10
92.3
20
-120.895
11
91.85
21
-120.895
0
LINE
8
BLACK
6
CONTINUOUS
10
91.85
20
-120.895
11
91.753
21
-120.89
0
LINE
8
BLACK
6
CONTINUOUS
10
91.753
20
-120.89
11
91.5696
21
-120.849
0
LINE
8
BLACK
6
CONTINUOUS
10
91.5696
20
-120.849
11
91.3993
21
-120.769
0
LINE
8
BLACK
6
CONTINUOUS
10
91.3993
20
-120.769
11
91.25
21
-120.655
0
LINE
8
BLACK
6
CONTINUOUS
10
91.25
20
-120.655
11
91.1287
21
-120.511
0
LINE
8
BLACK
6
CONTINUOUS
10
91.1287
20
-120.511
11
91.0411
21
-120.345
0
LINE
8
BLACK
6
CONTINUOUS
10
91.0411
20
-120.345
11
90.9912
21
-120.164
0
LINE
8
BLACK
6
CONTINUOUS
10
90.9912
20
-120.164
11
90.9814
21
-119.976
0
LINE
8
BLACK
6
CONTINUOUS
10
90.9814
20
-119.976
11
91.012
21
-119.791
0
LINE
8
BLACK
6
CONTINUOUS
10
91.012
20
-119.791
11
91.0818
21
-119.617
0
LINE
8
BLACK
6
CONTINUOUS
10
91.0818
20
-119.617
11
91.1875
21
-119.461
0
LINE
8
BLACK
6
CONTINUOUS
10
91.1875
20
-119.461
11
91.324
21
-119.332
0
LINE
8
BLACK
6
CONTINUOUS
10
91.324
20
-119.332
11
91.4851
21
-119.235
0
LINE
8
BLACK
6
CONTINUOUS
10
91.4851
20
-119.235
11
91.6632
21
-119.175
0
LINE
8
BLACK
6
CONTINUOUS
10
91.6632
20
-119.175
11
91.85
21
-119.155
0
LINE
8
BLACK
6
CONTINUOUS
10
91.85
20
-119.155
11
92.3
21
-119.155
0
LINE
8
BLACK
6
CONTINUOUS
10
92.3
20
-119.155
11
92.397
21
-119.16
0
LINE
8
BLACK
6
CONTINUOUS
10
92.397
20
-116.62
11
92.5804
21
-116.661
0
LINE
8
BLACK
6
CONTINUOUS
10
92.5804
20
-116.661
11
92.7507
21
-116.741
0
LINE
8
BLACK
6
CONTINUOUS
10
92.7507
20
-116.741
11
92.9
21
-116.855
0
LINE
8
BLACK
6
CONTINUOUS
10
92.9
20
-116.855
11
93.0213
21
-116.999
0
LINE
8
BLACK
6
CONTINUOUS
10
93.0213
20
-116.999
11
93.1089
21
-117.165
0
LINE
8
BLACK
6
CONTINUOUS
10
93.1089
20
-117.165
11
93.1588
21
-117.346
0
LINE
8
BLACK
6
CONTINUOUS
10
93.1588
20
-117.346
11
93.1686
21
-117.534
0
LINE
8
BLACK
6
CONTINUOUS
10
93.1686
20
-117.534
11
93.138
21
-117.719
0
LINE
8
BLACK
6
CONTINUOUS
10
93.138
20
-117.719
11
93.0682
21
-117.893
0
LINE
8
BLACK
6
CONTINUOUS
10
93.0682
20
-117.893
11
92.9625
21
-118.049
0
LINE
8
BLACK
6
CONTINUOUS
10
92.9625
20
-118.049
11
92.826
21
-118.178
0
LINE
8
BLACK
6
CONTINUOUS
10
92.826
20
-118.178
11
92.6649
21
-118.275
0
LINE
8
BLACK
6
CONTINUOUS
10
92.6649
20
-118.275
11
92.4868
21
-118.335
0
LINE
8
BLACK
6
CONTINUOUS
10
92.4868
20
-118.335
11
92.3
21
-118.355
0
LINE
8
BLACK
6
CONTINUOUS
10
92.3
20
-118.355
11
91.85
21
-118.355
0
LINE
8
BLACK
6
CONTINUOUS
10
91.85
20
-118.355
11
91.753
21
-118.35
0
LINE
8
BLACK
6
CONTINUOUS
10
91.753
20
-118.35
11
91.5696
21
-118.309
0
LINE
8
BLACK
6
CONTINUOUS
10
91.5696
20
-118.309
11
91.3993
21
-118.229
0
LINE
8
BLACK
6
CONTINUOUS
10
91.3993
20
-118.229
11
91.25
21
-118.115
0
LINE
8
BLACK
6
CONTINUOUS
10
91.25
20
-118.115
11
91.1287
21
-117.971
0
LINE
8
BLACK
6
CONTINUOUS
10
91.1287
20
-117.971
11
91.0411
21
-117.805
0
LINE
8
BLACK
6
CONTINUOUS
10
91.0411
20
-117.805
11
90.9912
21
-117.624
0
LINE
8
BLACK
6
CONTINUOUS
10
90.9912
20
-117.624
11
90.9814
21
-117.436
0
LINE
8
BLACK
6
CONTINUOUS
10
90.9814
20
-117.436
11
91.012
21
-117.251
0
LINE
8
BLACK
6
CONTINUOUS
10
91.012
20
-117.251
11
91.0818
21
-117.077
0
LINE
8
BLACK
6
CONTINUOUS
10
91.0818
20
-117.077
11
91.1875
21
-116.921
0
LINE
8
BLACK
6
CONTINUOUS
10
91.1875
20
-116.921
11
91.324
21
-116.792
0
LINE
8
BLACK
6
CONTINUOUS
10
91.324
20
-116.792
11
91.4851
21
-116.695
0
LINE
8
BLACK
6
CONTINUOUS
10
91.4851
20
-116.695
11
91.6632
21
-116.635
0
LINE
8
BLACK
6
CONTINUOUS
10
91.6632
20
-116.635
11
91.85
21
-116.615
0
LINE
8
BLACK
6
CONTINUOUS
10
91.85
20
-116.615
11
92.3
21
-116.615
0
LINE
8
BLACK
6
CONTINUOUS
10
92.3
20
-116.615
11
92.397
21
-116.62
0
LINE
8
BLACK
6
CONTINUOUS
10
92.397
20
-114.08
11
92.5804
21
-114.121
0
LINE
8
BLACK
6
CONTINUOUS
10
92.5804
20
-114.121
11
92.7507
21
-114.201
0
LINE
8
BLACK
6
CONTINUOUS
10
92.7507
20
-114.201
11
92.9
21
-114.315
0
LINE
8
BLACK
6
CONTINUOUS
10
92.9
20
-114.315
11
93.0213
21
-114.459
0
LINE
8
BLACK
6
CONTINUOUS
10
93.0213
20
-114.459
11
93.1089
21
-114.625
0
LINE
8
BLACK
6
CONTINUOUS
10
93.1089
20
-114.625
11
93.1588
21
-114.806
0
LINE
8
BLACK
6
CONTINUOUS
10
93.1588
20
-114.806
11
93.1686
21
-114.994
0
LINE
8
BLACK
6
CONTINUOUS
10
93.1686
20
-114.994
11
93.138
21
-115.179
0
LINE
8
BLACK
6
CONTINUOUS
10
93.138
20
-115.179
11
93.0682
21
-115.353
0
LINE
8
BLACK
6
CONTINUOUS
10
93.0682
20
-115.353
11
92.9625
21
-115.509
0
LINE
8
BLACK
6
CONTINUOUS
10
92.9625
20
-115.509
11
92.826
21
-115.638
0
LINE
8
BLACK
6
CONTINUOUS
10
92.826
20
-115.638
11
92.6649
21
-115.735
0
LINE
8
BLACK
6
CONTINUOUS
10
92.6649
20
-115.735
11
92.4868
21
-115.795
0
LINE
8
BLACK
6
CONTINUOUS
10
92.4868
20
-115.795
11
92.3
21
-115.815
0
LINE
8
BLACK
6
CONTINUOUS
10
92.3
20
-115.815
11
91.85
21
-115.815
0
LINE
8
BLACK
6
CONTINUOUS
10
91.85
20
-115.815
11
91.753
21
-115.81
0
LINE
8
BLACK
6
CONTINUOUS
10
91.753
20
-115.81
11
91.5696
21
-115.769
0
LINE
8
BLACK
6
CONTINUOUS
10
91.5696
20
-115.769
11
91.3993
21
-115.689
0
LINE
8
BLACK
6
CONTINUOUS
10
91.3993
20
-115.689
11
91.25
21
-115.575
0
LINE
8
BLACK
6
CONTINUOUS
10
91.25
20
-115.575
11
91.1287
21
-115.431
0
LINE
8
BLACK
6
CONTINUOUS
10
91.1287
20
-115.431
11
91.0411
21
-115.265
0
LINE
8
BLACK
6
CONTINUOUS
10
91.0411
20
-115.265
11
90.9912
21
-115.084
0
LINE
8
BLACK
6
CONTINUOUS
10
90.9912
20
-115.084
11
90.9814
21
-114.896
0
LINE
8
BLACK
6
CONTINUOUS
10
90.9814
20
-114.896
11
91.012
21
-114.711
0
LINE
8
BLACK
6
CONTINUOUS
10
91.012
20
-114.711
11
91.0818
21
-114.537
0
LINE
8
BLACK
6
CONTINUOUS
10
91.0818
20
-114.537
11
91.1875
21
-114.381
0
LINE
8
BLACK
6
CONTINUOUS
10
91.1875
20
-114.381
11
91.324
21
-114.252
0
LINE
8
BLACK
6
CONTINUOUS
10
91.324
20
-114.252
11
91.4851
21
-114.155
0
LINE
8
BLACK
6
CONTINUOUS
10
91.4851
20
-114.155
11
91.6632
21
-114.095
0
LINE
8
BLACK
6
CONTINUOUS
10
91.6632
20
-114.095
11
91.85
21
-114.075
0
LINE
8
BLACK
6
CONTINUOUS
10
91.85
20
-114.075
11
92.3
21
-114.075
0
LINE
8
BLACK
6
CONTINUOUS
10
92.3
20
-114.075
11
92.397
21
-114.08
0
LINE
8
BLACK
6
CONTINUOUS
10
93.0157
20
-111.554
11
93.0968
21
-111.608
0
LINE
8
BLACK
6
CONTINUOUS
10
93.0968
20
-111.608
11
93.151
21
-111.689
0
LINE
8
BLACK
6
CONTINUOUS
10
93.151
20
-111.689
11
93.17
21
-111.785
0
LINE
8
BLACK
6
CONTINUOUS
10
93.17
20
-111.785
11
93.17
21
-113.025
0
LINE
8
BLACK
6
CONTINUOUS
10
93.17
20
-113.025
11
93.151
21
-113.121
0
LINE
8
BLACK
6
CONTINUOUS
10
93.151
20
-113.121
11
93.0968
21
-113.202
0
LINE
8
BLACK
6
CONTINUOUS
10
93.0968
20
-113.202
11
93.0157
21
-113.256
0
LINE
8
BLACK
6
CONTINUOUS
10
93.0157
20
-113.256
11
92.92
21
-113.275
0
LINE
8
BLACK
6
CONTINUOUS
10
92.92
20
-113.275
11
91.23
21
-113.275
0
LINE
8
BLACK
6
CONTINUOUS
10
91.23
20
-113.275
11
91.1343
21
-113.256
0
LINE
8
BLACK
6
CONTINUOUS
10
91.1343
20
-113.256
11
91.0532
21
-113.202
0
LINE
8
BLACK
6
CONTINUOUS
10
91.0532
20
-113.202
11
90.999
21
-113.121
0
LINE
8
BLACK
6
CONTINUOUS
10
90.999
20
-113.121
11
90.98
21
-113.025
0
LINE
8
BLACK
6
CONTINUOUS
10
90.98
20
-113.025
11
90.98
21
-111.785
0
LINE
8
BLACK
6
CONTINUOUS
10
90.98
20
-111.785
11
90.999
21
-111.689
0
LINE
8
BLACK
6
CONTINUOUS
10
90.999
20
-111.689
11
91.0532
21
-111.608
0
LINE
8
BLACK
6
CONTINUOUS
10
91.0532
20
-111.608
11
91.1343
21
-111.554
0
LINE
8
BLACK
6
CONTINUOUS
10
91.1343
20
-111.554
11
91.23
21
-111.535
0
LINE
8
BLACK
6
CONTINUOUS
10
91.23
20
-111.535
11
92.92
21
-111.535
0
LINE
8
BLACK
6
CONTINUOUS
10
92.92
20
-111.535
11
93.0157
21
-111.554
0
LINE
8
BLACK
6
CONTINUOUS
10
92.417
20
-97.5704
11
92.6004
21
-97.6114
0
LINE
8
BLACK
6
CONTINUOUS
10
92.6004
20
-97.6114
11
92.7707
21
-97.6908
0
LINE
8
BLACK
6
CONTINUOUS
10
92.7707
20
-97.6908
11
92.92
21
-97.805
0
LINE
8
BLACK
6
CONTINUOUS
10
92.92
20
-97.805
11
93.0413
21
-97.9485
0
LINE
8
BLACK
6
CONTINUOUS
10
93.0413
20
-97.9485
11
93.1289
21
-98.1147
0
LINE
8
BLACK
6
CONTINUOUS
10
93.1289
20
-98.1147
11
93.1788
21
-98.2959
0
LINE
8
BLACK
6
CONTINUOUS
10
93.1788
20
-98.2959
11
93.1886
21
-98.4836
0
LINE
8
BLACK
6
CONTINUOUS
10
93.1886
20
-98.4836
11
93.158
21
-98.669
0
LINE
8
BLACK
6
CONTINUOUS
10
93.158
20
-98.669
11
93.0882
21
-98.8434
0
LINE
8
BLACK
6
CONTINUOUS
10
93.0882
20
-98.8434
11
92.9825
21
-98.9989
0
LINE
8
BLACK
6
CONTINUOUS
10
92.9825
20
-98.9989
11
92.846
21
-99.128
0
LINE
8
BLACK
6
CONTINUOUS
10
92.846
20
-99.128
11
92.6849
21
-99.2248
0
LINE
8
BLACK
6
CONTINUOUS
10
92.6849
20
-99.2248
11
92.5068
21
-99.2847
0
LINE
8
BLACK
6
CONTINUOUS
10
92.5068
20
-99.2847
11
92.32
21
-99.305
0
LINE
8
BLACK
6
CONTINUOUS
10
92.32
20
-99.305
11
91.87
21
-99.305
0
LINE
8
BLACK
6
CONTINUOUS
10
91.87
20
-99.305
11
91.773
21
-99.2996
0
LINE
8
BLACK
6
CONTINUOUS
10
91.773
20
-99.2996
11
91.5896
21
-99.2586
0
LINE
8
BLACK
6
CONTINUOUS
10
91.5896
20
-99.2586
11
91.4193
21
-99.1792
0
LINE
8
BLACK
6
CONTINUOUS
10
91.4193
20
-99.1792
11
91.27
21
-99.065
0
LINE
8
BLACK
6
CONTINUOUS
10
91.27
20
-99.065
11
91.1487
21
-98.9215
0
LINE
8
BLACK
6
CONTINUOUS
10
91.1487
20
-98.9215
11
91.0611
21
-98.7553
0
LINE
8
BLACK
6
CONTINUOUS
10
91.0611
20
-98.7553
11
91.0112
21
-98.5741
0
LINE
8
BLACK
6
CONTINUOUS
10
91.0112
20
-98.5741
11
91.0014
21
-98.3864
0
LINE
8
BLACK
6
CONTINUOUS
10
91.0014
20
-98.3864
11
91.032
21
-98.201
0
LINE
8
BLACK
6
CONTINUOUS
10
91.032
20
-98.201
11
91.1018
21
-98.0266
0
LINE
8
BLACK
6
CONTINUOUS
10
91.1018
20
-98.0266
11
91.2075
21
-97.8711
0
LINE
8
BLACK
6
CONTINUOUS
10
91.2075
20
-97.8711
11
91.344
21
-97.742
0
LINE
8
BLACK
6
CONTINUOUS
10
91.344
20
-97.742
11
91.5051
21
-97.6452
0
LINE
8
BLACK
6
CONTINUOUS
10
91.5051
20
-97.6452
11
91.6832
21
-97.5853
0
LINE
8
BLACK
6
CONTINUOUS
10
91.6832
20
-97.5853
11
91.87
21
-97.565
0
LINE
8
BLACK
6
CONTINUOUS
10
91.87
20
-97.565
11
92.32
21
-97.565
0
LINE
8
BLACK
6
CONTINUOUS
10
92.32
20
-97.565
11
92.417
21
-97.5704
0
LINE
8
BLACK
6
CONTINUOUS
10
92.417
20
-95.0304
11
92.6004
21
-95.0714
0
LINE
8
BLACK
6
CONTINUOUS
10
92.6004
20
-95.0714
11
92.7707
21
-95.1508
0
LINE
8
BLACK
6
CONTINUOUS
10
92.7707
20
-95.1508
11
92.92
21
-95.265
0
LINE
8
BLACK
6
CONTINUOUS
10
92.92
20
-95.265
11
93.0413
21
-95.4085
0
LINE
8
BLACK
6
CONTINUOUS
10
93.0413
20
-95.4085
11
93.1289
21
-95.5747
0
LINE
8
BLACK
6
CONTINUOUS
10
93.1289
20
-95.5747
11
93.1788
21
-95.7559
0
LINE
8
BLACK
6
CONTINUOUS
10
93.1788
20
-95.7559
11
93.1886
21
-95.9436
0
LINE
8
BLACK
6
CONTINUOUS
10
93.1886
20
-95.9436
11
93.158
21
-96.129
0
LINE
8
BLACK
6
CONTINUOUS
10
93.158
20
-96.129
11
93.0882
21
-96.3034
0
LINE
8
BLACK
6
CONTINUOUS
10
93.0882
20
-96.3034
11
92.9825
21
-96.4589
0
LINE
8
BLACK
6
CONTINUOUS
10
92.9825
20
-96.4589
11
92.846
21
-96.588
0
LINE
8
BLACK
6
CONTINUOUS
10
92.846
20
-96.588
11
92.6849
21
-96.6848
0
LINE
8
BLACK
6
CONTINUOUS
10
92.6849
20
-96.6848
11
92.5068
21
-96.7447
0
LINE
8
BLACK
6
CONTINUOUS
10
92.5068
20
-96.7447
11
92.32
21
-96.765
0
LINE
8
BLACK
6
CONTINUOUS
10
92.32
20
-96.765
11
91.87
21
-96.765
0
LINE
8
BLACK
6
CONTINUOUS
10
91.87
20
-96.765
11
91.773
21
-96.7596
0
LINE
8
BLACK
6
CONTINUOUS
10
91.773
20
-96.7596
11
91.5896
21
-96.7186
0
LINE
8
BLACK
6
CONTINUOUS
10
91.5896
20
-96.7186
11
91.4193
21
-96.6392
0
LINE
8
BLACK
6
CONTINUOUS
10
91.4193
20
-96.6392
11
91.27
21
-96.525
0
LINE
8
BLACK
6
CONTINUOUS
10
91.27
20
-96.525
11
91.1487
21
-96.3815
0
LINE
8
BLACK
6
CONTINUOUS
10
91.1487
20
-96.3815
11
91.0611
21
-96.2153
0
LINE
8
BLACK
6
CONTINUOUS
10
91.0611
20
-96.2153
11
91.0112
21
-96.0341
0
LINE
8
BLACK
6
CONTINUOUS
10
91.0112
20
-96.0341
11
91.0014
21
-95.8464
0
LINE
8
BLACK
6
CONTINUOUS
10
91.0014
20
-95.8464
11
91.032
21
-95.661
0
LINE
8
BLACK
6
CONTINUOUS
10
91.032
20
-95.661
11
91.1018
21
-95.4866
0
LINE
8
BLACK
6
CONTINUOUS
10
91.1018
20
-95.4866
11
91.2075
21
-95.3311
0
LINE
8
BLACK
6
CONTINUOUS
10
91.2075
20
-95.3311
11
91.344
21
-95.202
0
LINE
8
BLACK
6
CONTINUOUS
10
91.344
20
-95.202
11
91.5051
21
-95.1052
0
LINE
8
BLACK
6
CONTINUOUS
10
91.5051
20
-95.1052
11
91.6832
21
-95.0453
0
LINE
8
BLACK
6
CONTINUOUS
10
91.6832
20
-95.0453
11
91.87
21
-95.025
0
LINE
8
BLACK
6
CONTINUOUS
10
91.87
20
-95.025
11
92.32
21
-95.025
0
LINE
8
BLACK
6
CONTINUOUS
10
92.32
20
-95.025
11
92.417
21
-95.0304
0
LINE
8
BLACK
6
CONTINUOUS
10
93.0357
20
-92.504
11
93.1168
21
-92.5582
0
LINE
8
BLACK
6
CONTINUOUS
10
93.1168
20
-92.5582
11
93.171
21
-92.6393
0
LINE
8
BLACK
6
CONTINUOUS
10
93.171
20
-92.6393
11
93.19
21
-92.735
0
LINE
8
BLACK
6
CONTINUOUS
10
93.19
20
-92.735
11
93.19
21
-93.975
0
LINE
8
BLACK
6
CONTINUOUS
10
93.19
20
-93.975
11
93.171
21
-94.0707
0
LINE
8
BLACK
6
CONTINUOUS
10
93.171
20
-94.0707
11
93.1168
21
-94.1518
0
LINE
8
BLACK
6
CONTINUOUS
10
93.1168
20
-94.1518
11
93.0357
21
-94.206
0
LINE
8
BLACK
6
CONTINUOUS
10
93.0357
20
-94.206
11
92.94
21
-94.225
0
LINE
8
BLACK
6
CONTINUOUS
10
92.94
20
-94.225
11
91.25
21
-94.225
0
LINE
8
BLACK
6
CONTINUOUS
10
91.25
20
-94.225
11
91.1543
21
-94.206
0
LINE
8
BLACK
6
CONTINUOUS
10
91.1543
20
-94.206
11
91.0732
21
-94.1518
0
LINE
8
BLACK
6
CONTINUOUS
10
91.0732
20
-94.1518
11
91.019
21
-94.0707
0
LINE
8
BLACK
6
CONTINUOUS
10
91.019
20
-94.0707
11
91
21
-93.975
0
LINE
8
BLACK
6
CONTINUOUS
10
91
20
-93.975
11
91
21
-92.735
0
LINE
8
BLACK
6
CONTINUOUS
10
91
20
-92.735
11
91.019
21
-92.6393
0
LINE
8
BLACK
6
CONTINUOUS
10
91.019
20
-92.6393
11
91.0732
21
-92.5582
0
LINE
8
BLACK
6
CONTINUOUS
10
91.0732
20
-92.5582
11
91.1543
21
-92.504
0
LINE
8
BLACK
6
CONTINUOUS
10
91.1543
20
-92.504
11
91.25
21
-92.485
0
LINE
8
BLACK
6
CONTINUOUS
10
91.25
20
-92.485
11
92.94
21
-92.485
0
LINE
8
BLACK
6
CONTINUOUS
10
92.94
20
-92.485
11
93.0357
21
-92.504
0
LINE
8
BLACK
6
CONTINUOUS
10
112.977
20
-91.3594
11
113.164
21
-91.4171
0
LINE
8
BLACK
6
CONTINUOUS
10
113.164
20
-91.4171
11
113.335
21
-91.51
0
LINE
8
BLACK
6
CONTINUOUS
10
113.335
20
-91.51
11
113.486
21
-91.6344
0
LINE
8
BLACK
6
CONTINUOUS
10
113.486
20
-91.6344
11
113.609
21
-91.7856
0
LINE
8
BLACK
6
CONTINUOUS
10
113.609
20
-91.7856
11
113.701
21
-91.9579
0
LINE
8
BLACK
6
CONTINUOUS
10
113.701
20
-91.9579
11
113.757
21
-92.1448
0
LINE
8
BLACK
6
CONTINUOUS
10
113.757
20
-92.1448
11
113.776
21
-92.339
0
LINE
8
BLACK
6
CONTINUOUS
10
113.776
20
-92.339
11
113.776
21
-92.3669
0
LINE
8
BLACK
6
CONTINUOUS
10
113.776
20
-92.3669
11
113.751
21
-92.5605
0
LINE
8
BLACK
6
CONTINUOUS
10
113.751
20
-92.5605
11
113.69
21
-92.7457
0
LINE
8
BLACK
6
CONTINUOUS
10
113.69
20
-92.7457
11
113.593
21
-92.9154
0
LINE
8
BLACK
6
CONTINUOUS
10
113.593
20
-92.9154
11
113.466
21
-93.0632
0
LINE
8
BLACK
6
CONTINUOUS
10
113.466
20
-93.0632
11
113.312
21
-93.1833
0
LINE
8
BLACK
6
CONTINUOUS
10
113.312
20
-93.1833
11
113.138
21
-93.2713
0
LINE
8
BLACK
6
CONTINUOUS
10
113.138
20
-93.2713
11
112.95
21
-93.3238
0
LINE
8
BLACK
6
CONTINUOUS
10
112.95
20
-93.3238
11
112.755
21
-93.3388
0
LINE
8
BLACK
6
CONTINUOUS
10
112.755
20
-93.3388
11
112.561
21
-93.3157
0
LINE
8
BLACK
6
CONTINUOUS
10
112.561
20
-93.3157
11
112.376
21
-93.2554
0
LINE
8
BLACK
6
CONTINUOUS
10
112.376
20
-93.2554
11
112.205
21
-93.1601
0
LINE
8
BLACK
6
CONTINUOUS
10
112.205
20
-93.1601
11
112.057
21
-93.0337
0
LINE
8
BLACK
6
CONTINUOUS
10
112.057
20
-93.0337
11
111.935
21
-92.8807
0
LINE
8
BLACK
6
CONTINUOUS
10
111.935
20
-92.8807
11
111.846
21
-92.7071
0
LINE
8
BLACK
6
CONTINUOUS
10
111.846
20
-92.7071
11
111.792
21
-92.5195
0
LINE
8
BLACK
6
CONTINUOUS
10
111.792
20
-92.5195
11
111.776
21
-92.325
0
LINE
8
BLACK
6
CONTINUOUS
10
111.776
20
-92.325
11
111.798
21
-92.1311
0
LINE
8
BLACK
6
CONTINUOUS
10
111.798
20
-92.1311
11
111.857
21
-91.9451
0
LINE
8
BLACK
6
CONTINUOUS
10
111.857
20
-91.9451
11
111.951
21
-91.774
0
LINE
8
BLACK
6
CONTINUOUS
10
111.951
20
-91.774
11
112.076
21
-91.6245
0
LINE
8
BLACK
6
CONTINUOUS
10
112.076
20
-91.6245
11
112.228
21
-91.5022
0
LINE
8
BLACK
6
CONTINUOUS
10
112.228
20
-91.5022
11
112.401
21
-91.4118
0
LINE
8
BLACK
6
CONTINUOUS
10
112.401
20
-91.4118
11
112.589
21
-91.3567
0
LINE
8
BLACK
6
CONTINUOUS
10
112.589
20
-91.3567
11
112.783
21
-91.339
0
LINE
8
BLACK
6
CONTINUOUS
10
112.783
20
-91.339
11
112.977
21
-91.3594
0
LINE
8
BLACK
6
CONTINUOUS
10
102.54
20
-91.715
11
100.74
21
-91.715
0
LINE
8
BLACK
6
CONTINUOUS
10
100.74
20
-91.715
11
100.74
21
-89.915
0
LINE
8
BLACK
6
CONTINUOUS
10
100.74
20
-89.915
11
102.54
21
-89.915
0
LINE
8
BLACK
6
CONTINUOUS
10
102.54
20
-89.915
11
102.54
21
-91.715
0
LINE
8
BLACK
6
CONTINUOUS
10
106.918
20
-89.959
11
107.09
21
-90.0356
0
LINE
8
BLACK
6
CONTINUOUS
10
107.09
20
-90.0356
11
107.242
21
-90.1462
0
LINE
8
BLACK
6
CONTINUOUS
10
107.242
20
-90.1462
11
107.368
21
-90.286
0
LINE
8
BLACK
6
CONTINUOUS
10
107.368
20
-90.286
11
107.462
21
-90.4489
0
LINE
8
BLACK
6
CONTINUOUS
10
107.462
20
-90.4489
11
107.52
21
-90.6279
0
LINE
8
BLACK
6
CONTINUOUS
10
107.52
20
-90.6279
11
107.54
21
-90.815
0
LINE
8
BLACK
6
CONTINUOUS
10
107.54
20
-90.815
11
107.52
21
-91.0021
0
LINE
8
BLACK
6
CONTINUOUS
10
107.52
20
-91.0021
11
107.462
21
-91.1811
0
LINE
8
BLACK
6
CONTINUOUS
10
107.462
20
-91.1811
11
107.368
21
-91.344
0
LINE
8
BLACK
6
CONTINUOUS
10
107.368
20
-91.344
11
107.242
21
-91.4838
0
LINE
8
BLACK
6
CONTINUOUS
10
107.242
20
-91.4838
11
107.09
21
-91.5944
0
LINE
8
BLACK
6
CONTINUOUS
10
107.09
20
-91.5944
11
106.918
21
-91.671
0
LINE
8
BLACK
6
CONTINUOUS
10
106.918
20
-91.671
11
106.734
21
-91.7101
0
LINE
8
BLACK
6
CONTINUOUS
10
106.734
20
-91.7101
11
106.546
21
-91.7101
0
LINE
8
BLACK
6
CONTINUOUS
10
106.546
20
-91.7101
11
106.362
21
-91.671
0
LINE
8
BLACK
6
CONTINUOUS
10
106.362
20
-91.671
11
106.19
21
-91.5944
0
LINE
8
BLACK
6
CONTINUOUS
10
106.19
20
-91.5944
11
106.038
21
-91.4838
0
LINE
8
BLACK
6
CONTINUOUS
10
106.038
20
-91.4838
11
105.912
21
-91.344
0
LINE
8
BLACK
6
CONTINUOUS
10
105.912
20
-91.344
11
105.818
21
-91.1811
0
LINE
8
BLACK
6
CONTINUOUS
10
105.818
20
-91.1811
11
105.76
21
-91.0021
0
LINE
8
BLACK
6
CONTINUOUS
10
105.76
20
-91.0021
11
105.74
21
-90.815
0
LINE
8
BLACK
6
CONTINUOUS
10
105.74
20
-90.815
11
105.76
21
-90.6279
0
LINE
8
BLACK
6
CONTINUOUS
10
105.76
20
-90.6279
11
105.818
21
-90.4489
0
LINE
8
BLACK
6
CONTINUOUS
10
105.818
20
-90.4489
11
105.912
21
-90.286
0
LINE
8
BLACK
6
CONTINUOUS
10
105.912
20
-90.286
11
106.038
21
-90.1462
0
LINE
8
BLACK
6
CONTINUOUS
10
106.038
20
-90.1462
11
106.19
21
-90.0356
0
LINE
8
BLACK
6
CONTINUOUS
10
106.19
20
-90.0356
11
106.362
21
-89.959
0
LINE
8
BLACK
6
CONTINUOUS
10
106.362
20
-89.959
11
106.546
21
-89.9199
0
LINE
8
BLACK
6
CONTINUOUS
10
106.546
20
-89.9199
11
106.734
21
-89.9199
0
LINE
8
BLACK
6
CONTINUOUS
10
106.734
20
-89.9199
11
106.918
21
-89.959
0
LINE
8
BLACK
6
CONTINUOUS
10
104.418
20
-89.959
11
104.59
21
-90.0356
0
LINE
8
BLACK
6
CONTINUOUS
10
104.59
20
-90.0356
11
104.742
21
-90.1462
0
LINE
8
BLACK
6
CONTINUOUS
10
104.742
20
-90.1462
11
104.868
21
-90.286
0
LINE
8
BLACK
6
CONTINUOUS
10
104.868
20
-90.286
11
104.962
21
-90.4489
0
LINE
8
BLACK
6
CONTINUOUS
10
104.962
20
-90.4489
11
105.02
21
-90.6279
0
LINE
8
BLACK
6
CONTINUOUS
10
105.02
20
-90.6279
11
105.04
21
-90.815
0
LINE
8
BLACK
6
CONTINUOUS
10
105.04
20
-90.815
11
105.02
21
-91.0021
0
LINE
8
BLACK
6
CONTINUOUS
10
105.02
20
-91.0021
11
104.962
21
-91.1811
0
LINE
8
BLACK
6
CONTINUOUS
10
104.962
20
-91.1811
11
104.868
21
-91.344
0
LINE
8
BLACK
6
CONTINUOUS
10
104.868
20
-91.344
11
104.742
21
-91.4838
0
LINE
8
BLACK
6
CONTINUOUS
10
104.742
20
-91.4838
11
104.59
21
-91.5944
0
LINE
8
BLACK
6
CONTINUOUS
10
104.59
20
-91.5944
11
104.418
21
-91.671
0
LINE
8
BLACK
6
CONTINUOUS
10
104.418
20
-91.671
11
104.234
21
-91.7101
0
LINE
8
BLACK
6
CONTINUOUS
10
104.234
20
-91.7101
11
104.046
21
-91.7101
0
LINE
8
BLACK
6
CONTINUOUS
10
104.046
20
-91.7101
11
103.862
21
-91.671
0
LINE
8
BLACK
6
CONTINUOUS
10
103.862
20
-91.671
11
103.69
21
-91.5944
0
LINE
8
BLACK
6
CONTINUOUS
10
103.69
20
-91.5944
11
103.538
21
-91.4838
0
LINE
8
BLACK
6
CONTINUOUS
10
103.538
20
-91.4838
11
103.412
21
-91.344
0
LINE
8
BLACK
6
CONTINUOUS
10
103.412
20
-91.344
11
103.318
21
-91.1811
0
LINE
8
BLACK
6
CONTINUOUS
10
103.318
20
-91.1811
11
103.26
21
-91.0021
0
LINE
8
BLACK
6
CONTINUOUS
10
103.26
20
-91.0021
11
103.24
21
-90.815
0
LINE
8
BLACK
6
CONTINUOUS
10
103.24
20
-90.815
11
103.26
21
-90.6279
0
LINE
8
BLACK
6
CONTINUOUS
10
103.26
20
-90.6279
11
103.318
21
-90.4489
0
LINE
8
BLACK
6
CONTINUOUS
10
103.318
20
-90.4489
11
103.412
21
-90.286
0
LINE
8
BLACK
6
CONTINUOUS
10
103.412
20
-90.286
11
103.538
21
-90.1462
0
LINE
8
BLACK
6
CONTINUOUS
10
103.538
20
-90.1462
11
103.69
21
-90.0356
0
LINE
8
BLACK
6
CONTINUOUS
10
103.69
20
-90.0356
11
103.862
21
-89.959
0
LINE
8
BLACK
6
CONTINUOUS
10
103.862
20
-89.959
11
104.046
21
-89.9199
0
LINE
8
BLACK
6
CONTINUOUS
10
104.046
20
-89.9199
11
104.234
21
-89.9199
0
LINE
8
BLACK
6
CONTINUOUS
10
104.234
20
-89.9199
11
104.418
21
-89.959
0
LINE
8
BLACK
6
CONTINUOUS
10
99.632
20
-81.7267
11
99.8517
21
-81.7949
0
LINE
8
BLACK
6
CONTINUOUS
10
99.8517
20
-81.7949
11
100.057
21
-81.8991
0
LINE
8
BLACK
6
CONTINUOUS
10
100.057
20
-81.8991
11
100.241
21
-82.0364
0
LINE
8
BLACK
6
CONTINUOUS
10
100.241
20
-82.0364
11
100.4
21
-82.2028
0
LINE
8
BLACK
6
CONTINUOUS
10
100.4
20
-82.2028
11
100.528
21
-82.3936
0
LINE
8
BLACK
6
CONTINUOUS
10
100.528
20
-82.3936
11
100.623
21
-82.6033
0
LINE
8
BLACK
6
CONTINUOUS
10
100.623
20
-82.6033
11
100.681
21
-82.8259
0
LINE
8
BLACK
6
CONTINUOUS
10
100.681
20
-82.8259
11
100.7
21
-83.055
0
LINE
8
BLACK
6
CONTINUOUS
10
100.7
20
-83.055
11
100.7
21
-83.575
0
LINE
8
BLACK
6
CONTINUOUS
10
100.7
20
-83.575
11
100.694
21
-83.703
0
LINE
8
BLACK
6
CONTINUOUS
10
100.694
20
-83.703
11
100.653
21
-83.9293
0
LINE
8
BLACK
6
CONTINUOUS
10
100.653
20
-83.9293
11
100.575
21
-84.1455
0
LINE
8
BLACK
6
CONTINUOUS
10
100.575
20
-84.1455
11
100.461
21
-84.3453
0
LINE
8
BLACK
6
CONTINUOUS
10
100.461
20
-84.3453
11
100.315
21
-84.5231
0
LINE
8
BLACK
6
CONTINUOUS
10
100.315
20
-84.5231
11
100.141
21
-84.6739
0
LINE
8
BLACK
6
CONTINUOUS
10
100.141
20
-84.6739
11
99.9447
21
-84.7932
0
LINE
8
BLACK
6
CONTINUOUS
10
99.9447
20
-84.7932
11
99.7308
21
-84.8776
0
LINE
8
BLACK
6
CONTINUOUS
10
99.7308
20
-84.8776
11
99.5057
21
-84.9249
0
LINE
8
BLACK
6
CONTINUOUS
10
99.5057
20
-84.9249
11
99.2759
21
-84.9335
0
LINE
8
BLACK
6
CONTINUOUS
10
99.2759
20
-84.9335
11
99.048
21
-84.9033
0
LINE
8
BLACK
6
CONTINUOUS
10
99.048
20
-84.9033
11
98.8283
21
-84.8351
0
LINE
8
BLACK
6
CONTINUOUS
10
98.8283
20
-84.8351
11
98.6233
21
-84.7309
0
LINE
8
BLACK
6
CONTINUOUS
10
98.6233
20
-84.7309
11
98.4388
21
-84.5936
0
LINE
8
BLACK
6
CONTINUOUS
10
98.4388
20
-84.5936
11
98.2801
21
-84.4272
0
LINE
8
BLACK
6
CONTINUOUS
10
98.2801
20
-84.4272
11
98.1517
21
-84.2364
0
LINE
8
BLACK
6
CONTINUOUS
10
98.1517
20
-84.2364
11
98.0572
21
-84.0267
0
LINE
8
BLACK
6
CONTINUOUS
10
98.0572
20
-84.0267
11
97.9994
21
-83.8041
0
LINE
8
BLACK
6
CONTINUOUS
10
97.9994
20
-83.8041
11
97.98
21
-83.575
0
LINE
8
BLACK
6
CONTINUOUS
10
97.98
20
-83.575
11
97.98
21
-83.055
0
LINE
8
BLACK
6
CONTINUOUS
10
97.98
20
-83.055
11
97.986
21
-82.927
0
LINE
8
BLACK
6
CONTINUOUS
10
97.986
20
-82.927
11
98.027
21
-82.7007
0
LINE
8
BLACK
6
CONTINUOUS
10
98.027
20
-82.7007
11
98.1054
21
-82.4845
0
LINE
8
BLACK
6
CONTINUOUS
10
98.1054
20
-82.4845
11
98.2192
21
-82.2847
0
LINE
8
BLACK
6
CONTINUOUS
10
98.2192
20
-82.2847
11
98.365
21
-82.1069
0
LINE
8
BLACK
6
CONTINUOUS
10
98.365
20
-82.1069
11
98.5387
21
-81.9561
0
LINE
8
BLACK
6
CONTINUOUS
10
98.5387
20
-81.9561
11
98.7353
21
-81.8368
0
LINE
8
BLACK
6
CONTINUOUS
10
98.7353
20
-81.8368
11
98.9492
21
-81.7524
0
LINE
8
BLACK
6
CONTINUOUS
10
98.9492
20
-81.7524
11
99.1743
21
-81.7051
0
LINE
8
BLACK
6
CONTINUOUS
10
99.1743
20
-81.7051
11
99.4041
21
-81.6965
0
LINE
8
BLACK
6
CONTINUOUS
10
99.4041
20
-81.6965
11
99.632
21
-81.7267
0
LINE
8
BLACK
6
CONTINUOUS
10
109.232
20
-81.7267
11
109.452
21
-81.7949
0
LINE
8
BLACK
6
CONTINUOUS
10
109.452
20
-81.7949
11
109.657
21
-81.8991
0
LINE
8
BLACK
6
CONTINUOUS
10
109.657
20
-81.8991
11
109.841
21
-82.0364
0
LINE
8
BLACK
6
CONTINUOUS
10
109.841
20
-82.0364
11
110
21
-82.2028
0
LINE
8
BLACK
6
CONTINUOUS
10
110
20
-82.2028
11
110.128
21
-82.3936
0
LINE
8
BLACK
6
CONTINUOUS
10
110.128
20
-82.3936
11
110.223
21
-82.6033
0
LINE
8
BLACK
6
CONTINUOUS
10
110.223
20
-82.6033
11
110.281
21
-82.8259
0
LINE
8
BLACK
6
CONTINUOUS
10
110.281
20
-82.8259
11
110.3
21
-83.055
0
LINE
8
BLACK
6
CONTINUOUS
10
110.3
20
-83.055
11
110.3
21
-83.575
0
LINE
8
BLACK
6
CONTINUOUS
10
110.3
20
-83.575
11
110.294
21
-83.703
0
LINE
8
BLACK
6
CONTINUOUS
10
110.294
20
-83.703
11
110.253
21
-83.9293
0
LINE
8
BLACK
6
CONTINUOUS
10
110.253
20
-83.9293
11
110.175
21
-84.1455
0
LINE
8
BLACK
6
CONTINUOUS
10
110.175
20
-84.1455
11
110.061
21
-84.3453
0
LINE
8
BLACK
6
CONTINUOUS
10
110.061
20
-84.3453
11
109.915
21
-84.5231
0
LINE
8
BLACK
6
CONTINUOUS
10
109.915
20
-84.5231
11
109.741
21
-84.6739
0
LINE
8
BLACK
6
CONTINUOUS
10
109.741
20
-84.6739
11
109.545
21
-84.7932
0
LINE
8
BLACK
6
CONTINUOUS
10
109.545
20
-84.7932
11
109.331
21
-84.8776
0
LINE
8
BLACK
6
CONTINUOUS
10
109.331
20
-84.8776
11
109.106
21
-84.9249
0
LINE
8
BLACK
6
CONTINUOUS
10
109.106
20
-84.9249
11
108.876
21
-84.9335
0
LINE
8
BLACK
6
CONTINUOUS
10
108.876
20
-84.9335
11
108.648
21
-84.9033
0
LINE
8
BLACK
6
CONTINUOUS
10
108.648
20
-84.9033
11
108.428
21
-84.8351
0
LINE
8
BLACK
6
CONTINUOUS
10
108.428
20
-84.8351
11
108.223
21
-84.7309
0
LINE
8
BLACK
6
CONTINUOUS
10
108.223
20
-84.7309
11
108.039
21
-84.5936
0
LINE
8
BLACK
6
CONTINUOUS
10
108.039
20
-84.5936
11
107.88
21
-84.4272
0
LINE
8
BLACK
6
CONTINUOUS
10
107.88
20
-84.4272
11
107.752
21
-84.2364
0
LINE
8
BLACK
6
CONTINUOUS
10
107.752
20
-84.2364
11
107.657
21
-84.0267
0
LINE
8
BLACK
6
CONTINUOUS
10
107.657
20
-84.0267
11
107.599
21
-83.8041
0
LINE
8
BLACK
6
CONTINUOUS
10
107.599
20
-83.8041
11
107.58
21
-83.575
0
LINE
8
BLACK
6
CONTINUOUS
10
107.58
20
-83.575
11
107.58
21
-83.055
0
LINE
8
BLACK
6
CONTINUOUS
10
107.58
20
-83.055
11
107.586
21
-82.927
0
LINE
8
BLACK
6
CONTINUOUS
10
107.586
20
-82.927
11
107.627
21
-82.7007
0
LINE
8
BLACK
6
CONTINUOUS
10
107.627
20
-82.7007
11
107.705
21
-82.4845
0
LINE
8
BLACK
6
CONTINUOUS
10
107.705
20
-82.4845
11
107.819
21
-82.2847
0
LINE
8
BLACK
6
CONTINUOUS
10
107.819
20
-82.2847
11
107.965
21
-82.1069
0
LINE
8
BLACK
6
CONTINUOUS
10
107.965
20
-82.1069
11
108.139
21
-81.9561
0
LINE
8
BLACK
6
CONTINUOUS
10
108.139
20
-81.9561
11
108.335
21
-81.8368
0
LINE
8
BLACK
6
CONTINUOUS
10
108.335
20
-81.8368
11
108.549
21
-81.7524
0
LINE
8
BLACK
6
CONTINUOUS
10
108.549
20
-81.7524
11
108.774
21
-81.7051
0
LINE
8
BLACK
6
CONTINUOUS
10
108.774
20
-81.7051
11
109.004
21
-81.6965
0
LINE
8
BLACK
6
CONTINUOUS
10
109.004
20
-81.6965
11
109.232
21
-81.7267
0
LINE
8
BLACK
6
CONTINUOUS
10
90.3711
20
-79.6754
11
90.5575
21
-79.7331
0
LINE
8
BLACK
6
CONTINUOUS
10
90.5575
20
-79.7331
11
90.7292
21
-79.826
0
LINE
8
BLACK
6
CONTINUOUS
10
90.7292
20
-79.826
11
90.8796
21
-79.9504
0
LINE
8
BLACK
6
CONTINUOUS
10
90.8796
20
-79.9504
11
91.0029
21
-80.1016
0
LINE
8
BLACK
6
CONTINUOUS
10
91.0029
20
-80.1016
11
91.0945
21
-80.2739
0
LINE
8
BLACK
6
CONTINUOUS
10
91.0945
20
-80.2739
11
91.151
21
-80.4608
0
LINE
8
BLACK
6
CONTINUOUS
10
91.151
20
-80.4608
11
91.17
21
-80.655
0
LINE
8
BLACK
6
CONTINUOUS
10
91.17
20
-80.655
11
91.1696
21
-80.6829
0
LINE
8
BLACK
6
CONTINUOUS
10
91.1696
20
-80.6829
11
91.1451
21
-80.8765
0
LINE
8
BLACK
6
CONTINUOUS
10
91.1451
20
-80.8765
11
91.0835
21
-81.0617
0
LINE
8
BLACK
6
CONTINUOUS
10
91.0835
20
-81.0617
11
90.9871
21
-81.2314
0
LINE
8
BLACK
6
CONTINUOUS
10
90.9871
20
-81.2314
11
90.8596
21
-81.3792
0
LINE
8
BLACK
6
CONTINUOUS
10
90.8596
20
-81.3792
11
90.7058
21
-81.4993
0
LINE
8
BLACK
6
CONTINUOUS
10
90.7058
20
-81.4993
11
90.5316
21
-81.5873
0
LINE
8
BLACK
6
CONTINUOUS
10
90.5316
20
-81.5873
11
90.3436
21
-81.6398
0
LINE
8
BLACK
6
CONTINUOUS
10
90.3436
20
-81.6398
11
90.1491
21
-81.6548
0
LINE
8
BLACK
6
CONTINUOUS
10
90.1491
20
-81.6548
11
89.9553
21
-81.6317
0
LINE
8
BLACK
6
CONTINUOUS
10
89.9553
20
-81.6317
11
89.7697
21
-81.5714
0
LINE
8
BLACK
6
CONTINUOUS
10
89.7697
20
-81.5714
11
89.5993
21
-81.4761
0
LINE
8
BLACK
6
CONTINUOUS
10
89.5993
20
-81.4761
11
89.4507
21
-81.3497
0
LINE
8
BLACK
6
CONTINUOUS
10
89.4507
20
-81.3497
11
89.3294
21
-81.1967
0
LINE
8
BLACK
6
CONTINUOUS
10
89.3294
20
-81.1967
11
89.2402
21
-81.0231
0
LINE
8
BLACK
6
CONTINUOUS
10
89.2402
20
-81.0231
11
89.1864
21
-80.8355
0
LINE
8
BLACK
6
CONTINUOUS
10
89.1864
20
-80.8355
11
89.1701
21
-80.641
0
LINE
8
BLACK
6
CONTINUOUS
10
89.1701
20
-80.641
11
89.1919
21
-80.4471
0
LINE
8
BLACK
6
CONTINUOUS
10
89.1919
20
-80.4471
11
89.2509
21
-80.2611
0
LINE
8
BLACK
6
CONTINUOUS
10
89.2509
20
-80.2611
11
89.3449
21
-80.09
0
LINE
8
BLACK
6
CONTINUOUS
10
89.3449
20
-80.09
11
89.4703
21
-79.9405
0
LINE
8
BLACK
6
CONTINUOUS
10
89.4703
20
-79.9405
11
89.6224
21
-79.8182
0
LINE
8
BLACK
6
CONTINUOUS
10
89.6224
20
-79.8182
11
89.7954
21
-79.7278
0
LINE
8
BLACK
6
CONTINUOUS
10
89.7954
20
-79.7278
11
89.9826
21
-79.6727
0
LINE
8
BLACK
6
CONTINUOUS
10
89.9826
20
-79.6727
11
90.177
21
-79.655
0
LINE
8
BLACK
6
CONTINUOUS
10
90.177
20
-79.655
11
90.3711
21
-79.6754
0
LINE
8
BLACK
6
CONTINUOUS
10
113.231
20
-70.1504
11
113.418
21
-70.2081
0
LINE
8
BLACK
6
CONTINUOUS
10
113.418
20
-70.2081
11
113.589
21
-70.301
0
LINE
8
BLACK
6
CONTINUOUS
10
113.589
20
-70.301
11
113.74
21
-70.4254
0
LINE
8
BLACK
6
CONTINUOUS
10
113.74
20
-70.4254
11
113.863
21
-70.5766
0
LINE
8
BLACK
6
CONTINUOUS
10
113.863
20
-70.5766
11
113.955
21
-70.7489
0
LINE
8
BLACK
6
CONTINUOUS
10
113.955
20
-70.7489
11
114.011
21
-70.9358
0
LINE
8
BLACK
6
CONTINUOUS
10
114.011
20
-70.9358
11
114.03
21
-71.13
0
LINE
8
BLACK
6
CONTINUOUS
10
114.03
20
-71.13
11
114.03
21
-71.1579
0
LINE
8
BLACK
6
CONTINUOUS
10
114.03
20
-71.1579
11
114.005
21
-71.3515
0
LINE
8
BLACK
6
CONTINUOUS
10
114.005
20
-71.3515
11
113.944
21
-71.5367
0
LINE
8
BLACK
6
CONTINUOUS
10
113.944
20
-71.5367
11
113.847
21
-71.7064
0
LINE
8
BLACK
6
CONTINUOUS
10
113.847
20
-71.7064
11
113.72
21
-71.8542
0
LINE
8
BLACK
6
CONTINUOUS
10
113.72
20
-71.8542
11
113.566
21
-71.9743
0
LINE
8
BLACK
6
CONTINUOUS
10
113.566
20
-71.9743
11
113.392
21
-72.0623
0
LINE
8
BLACK
6
CONTINUOUS
10
113.392
20
-72.0623
11
113.204
21
-72.1148
0
LINE
8
BLACK
6
CONTINUOUS
10
113.204
20
-72.1148
11
113.009
21
-72.1298
0
LINE
8
BLACK
6
CONTINUOUS
10
113.009
20
-72.1298
11
112.815
21
-72.1067
0
LINE
8
BLACK
6
CONTINUOUS
10
112.815
20
-72.1067
11
112.63
21
-72.0464
0
LINE
8
BLACK
6
CONTINUOUS
10
112.63
20
-72.0464
11
112.459
21
-71.9511
0
LINE
8
BLACK
6
CONTINUOUS
10
112.459
20
-71.9511
11
112.311
21
-71.8247
0
LINE
8
BLACK
6
CONTINUOUS
10
112.311
20
-71.8247
11
112.189
21
-71.6717
0
LINE
8
BLACK
6
CONTINUOUS
10
112.189
20
-71.6717
11
112.1
21
-71.4981
0
LINE
8
BLACK
6
CONTINUOUS
10
112.1
20
-71.4981
11
112.046
21
-71.3105
0
LINE
8
BLACK
6
CONTINUOUS
10
112.046
20
-71.3105
11
112.03
21
-71.116
0
LINE
8
BLACK
6
CONTINUOUS
10
112.03
20
-71.116
11
112.052
21
-70.9221
0
LINE
8
BLACK
6
CONTINUOUS
10
112.052
20
-70.9221
11
112.111
21
-70.7361
0
LINE
8
BLACK
6
CONTINUOUS
10
112.111
20
-70.7361
11
112.205
21
-70.565
0
LINE
8
BLACK
6
CONTINUOUS
10
112.205
20
-70.565
11
112.33
21
-70.4155
0
LINE
8
BLACK
6
CONTINUOUS
10
112.33
20
-70.4155
11
112.482
21
-70.2932
0
LINE
8
BLACK
6
CONTINUOUS
10
112.482
20
-70.2932
11
112.655
21
-70.2028
0
LINE
8
BLACK
6
CONTINUOUS
10
112.655
20
-70.2028
11
112.843
21
-70.1477
0
LINE
8
BLACK
6
CONTINUOUS
10
112.843
20
-70.1477
11
113.037
21
-70.13
0
LINE
8
BLACK
6
CONTINUOUS
10
113.037
20
-70.13
11
113.231
21
-70.1504
0
LINE
8
BLACK
6
CONTINUOUS
10
112.959
20
-63.1121
11
113.127
21
-63.172
0
LINE
8
BLACK
6
CONTINUOUS
10
113.127
20
-63.172
11
113.277
21
-63.2675
0
LINE
8
BLACK
6
CONTINUOUS
10
113.277
20
-63.2675
11
113.403
21
-63.3941
0
LINE
8
BLACK
6
CONTINUOUS
10
113.403
20
-63.3941
11
113.497
21
-63.5453
0
LINE
8
BLACK
6
CONTINUOUS
10
113.497
20
-63.5453
11
113.556
21
-63.7138
0
LINE
8
BLACK
6
CONTINUOUS
10
113.556
20
-63.7138
11
113.576
21
-63.891
0
LINE
8
BLACK
6
CONTINUOUS
10
113.576
20
-63.891
11
113.576
21
-63.9133
0
LINE
8
BLACK
6
CONTINUOUS
10
113.576
20
-63.9133
11
113.551
21
-64.09
0
LINE
8
BLACK
6
CONTINUOUS
10
113.551
20
-64.09
11
113.488
21
-64.2567
0
LINE
8
BLACK
6
CONTINUOUS
10
113.488
20
-64.2567
11
113.389
21
-64.4052
0
LINE
8
BLACK
6
CONTINUOUS
10
113.389
20
-64.4052
11
113.26
21
-64.5282
0
LINE
8
BLACK
6
CONTINUOUS
10
113.26
20
-64.5282
11
113.106
21
-64.6195
0
LINE
8
BLACK
6
CONTINUOUS
10
113.106
20
-64.6195
11
112.937
21
-64.6747
0
LINE
8
BLACK
6
CONTINUOUS
10
112.937
20
-64.6747
11
112.759
21
-64.6908
0
LINE
8
BLACK
6
CONTINUOUS
10
112.759
20
-64.6908
11
112.582
21
-64.6672
0
LINE
8
BLACK
6
CONTINUOUS
10
112.582
20
-64.6672
11
112.415
21
-64.6051
0
LINE
8
BLACK
6
CONTINUOUS
10
112.415
20
-64.6051
11
112.266
21
-64.5074
0
LINE
8
BLACK
6
CONTINUOUS
10
112.266
20
-64.5074
11
112.142
21
-64.3791
0
LINE
8
BLACK
6
CONTINUOUS
10
112.142
20
-64.3791
11
112.05
21
-64.2266
0
LINE
8
BLACK
6
CONTINUOUS
10
112.05
20
-64.2266
11
111.993
21
-64.0573
0
LINE
8
BLACK
6
CONTINUOUS
10
111.993
20
-64.0573
11
111.976
21
-63.8798
0
LINE
8
BLACK
6
CONTINUOUS
10
111.976
20
-63.8798
11
111.998
21
-63.7029
0
LINE
8
BLACK
6
CONTINUOUS
10
111.998
20
-63.7029
11
112.059
21
-63.5353
0
LINE
8
BLACK
6
CONTINUOUS
10
112.059
20
-63.5353
11
112.156
21
-63.3854
0
LINE
8
BLACK
6
CONTINUOUS
10
112.156
20
-63.3854
11
112.283
21
-63.2606
0
LINE
8
BLACK
6
CONTINUOUS
10
112.283
20
-63.2606
11
112.435
21
-63.1671
0
LINE
8
BLACK
6
CONTINUOUS
10
112.435
20
-63.1671
11
112.604
21
-63.1097
0
LINE
8
BLACK
6
CONTINUOUS
10
112.604
20
-63.1097
11
112.782
21
-63.091
0
LINE
8
BLACK
6
CONTINUOUS
10
112.782
20
-63.091
11
112.959
21
-63.1121
0
LINE
8
BLACK
6
CONTINUOUS
10
117.959
20
-63.1121
11
118.127
21
-63.172
0
LINE
8
BLACK
6
CONTINUOUS
10
118.127
20
-63.172
11
118.277
21
-63.2675
0
LINE
8
BLACK
6
CONTINUOUS
10
118.277
20
-63.2675
11
118.403
21
-63.3941
0
LINE
8
BLACK
6
CONTINUOUS
10
118.403
20
-63.3941
11
118.497
21
-63.5453
0
LINE
8
BLACK
6
CONTINUOUS
10
118.497
20
-63.5453
11
118.556
21
-63.7138
0
LINE
8
BLACK
6
CONTINUOUS
10
118.556
20
-63.7138
11
118.576
21
-63.891
0
LINE
8
BLACK
6
CONTINUOUS
10
118.576
20
-63.891
11
118.576
21
-63.9133
0
LINE
8
BLACK
6
CONTINUOUS
10
118.576
20
-63.9133
11
118.551
21
-64.09
0
LINE
8
BLACK
6
CONTINUOUS
10
118.551
20
-64.09
11
118.488
21
-64.2567
0
LINE
8
BLACK
6
CONTINUOUS
10
118.488
20
-64.2567
11
118.389
21
-64.4052
0
LINE
8
BLACK
6
CONTINUOUS
10
118.389
20
-64.4052
11
118.26
21
-64.5282
0
LINE
8
BLACK
6
CONTINUOUS
10
118.26
20
-64.5282
11
118.106
21
-64.6195
0
LINE
8
BLACK
6
CONTINUOUS
10
118.106
20
-64.6195
11
117.937
21
-64.6747
0
LINE
8
BLACK
6
CONTINUOUS
10
117.937
20
-64.6747
11
117.759
21
-64.6908
0
LINE
8
BLACK
6
CONTINUOUS
10
117.759
20
-64.6908
11
117.582
21
-64.6672
0
LINE
8
BLACK
6
CONTINUOUS
10
117.582
20
-64.6672
11
117.415
21
-64.6051
0
LINE
8
BLACK
6
CONTINUOUS
10
117.415
20
-64.6051
11
117.266
21
-64.5074
0
LINE
8
BLACK
6
CONTINUOUS
10
117.266
20
-64.5074
11
117.142
21
-64.3791
0
LINE
8
BLACK
6
CONTINUOUS
10
117.142
20
-64.3791
11
117.05
21
-64.2266
0
LINE
8
BLACK
6
CONTINUOUS
10
117.05
20
-64.2266
11
116.993
21
-64.0573
0
LINE
8
BLACK
6
CONTINUOUS
10
116.993
20
-64.0573
11
116.976
21
-63.8798
0
LINE
8
BLACK
6
CONTINUOUS
10
116.976
20
-63.8798
11
116.998
21
-63.7029
0
LINE
8
BLACK
6
CONTINUOUS
10
116.998
20
-63.7029
11
117.059
21
-63.5353
0
LINE
8
BLACK
6
CONTINUOUS
10
117.059
20
-63.5353
11
117.156
21
-63.3854
0
LINE
8
BLACK
6
CONTINUOUS
10
117.156
20
-63.3854
11
117.283
21
-63.2606
0
LINE
8
BLACK
6
CONTINUOUS
10
117.283
20
-63.2606
11
117.435
21
-63.1671
0
LINE
8
BLACK
6
CONTINUOUS
10
117.435
20
-63.1671
11
117.604
21
-63.1097
0
LINE
8
BLACK
6
CONTINUOUS
10
117.604
20
-63.1097
11
117.782
21
-63.091
0
LINE
8
BLACK
6
CONTINUOUS
10
117.782
20
-63.091
11
117.959
21
-63.1121
0
LINE
8
BLACK
6
CONTINUOUS
10
101.823
20
-62.6041
11
101.991
21
-62.664
0
LINE
8
BLACK
6
CONTINUOUS
10
101.991
20
-62.664
11
102.141
21
-62.7595
0
LINE
8
BLACK
6
CONTINUOUS
10
102.141
20
-62.7595
11
102.267
21
-62.8861
0
LINE
8
BLACK
6
CONTINUOUS
10
102.267
20
-62.8861
11
102.361
21
-63.0373
0
LINE
8
BLACK
6
CONTINUOUS
10
102.361
20
-63.0373
11
102.42
21
-63.2058
0
LINE
8
BLACK
6
CONTINUOUS
10
102.42
20
-63.2058
11
102.44
21
-63.383
0
LINE
8
BLACK
6
CONTINUOUS
10
102.44
20
-63.383
11
102.44
21
-63.4053
0
LINE
8
BLACK
6
CONTINUOUS
10
102.44
20
-63.4053
11
102.415
21
-63.582
0
LINE
8
BLACK
6
CONTINUOUS
10
102.415
20
-63.582
11
102.352
21
-63.7487
0
LINE
8
BLACK
6
CONTINUOUS
10
102.352
20
-63.7487
11
102.253
21
-63.8972
0
LINE
8
BLACK
6
CONTINUOUS
10
102.253
20
-63.8972
11
102.124
21
-64.0202
0
LINE
8
BLACK
6
CONTINUOUS
10
102.124
20
-64.0202
11
101.97
21
-64.1115
0
LINE
8
BLACK
6
CONTINUOUS
10
101.97
20
-64.1115
11
101.801
21
-64.1667
0
LINE
8
BLACK
6
CONTINUOUS
10
101.801
20
-64.1667
11
101.623
21
-64.1828
0
LINE
8
BLACK
6
CONTINUOUS
10
101.623
20
-64.1828
11
101.446
21
-64.1592
0
LINE
8
BLACK
6
CONTINUOUS
10
101.446
20
-64.1592
11
101.279
21
-64.0971
0
LINE
8
BLACK
6
CONTINUOUS
10
101.279
20
-64.0971
11
101.13
21
-63.9994
0
LINE
8
BLACK
6
CONTINUOUS
10
101.13
20
-63.9994
11
101.006
21
-63.8711
0
LINE
8
BLACK
6
CONTINUOUS
10
101.006
20
-63.8711
11
100.914
21
-63.7186
0
LINE
8
BLACK
6
CONTINUOUS
10
100.914
20
-63.7186
11
100.857
21
-63.5493
0
LINE
8
BLACK
6
CONTINUOUS
10
100.857
20
-63.5493
11
100.84
21
-63.3718
0
LINE
8
BLACK
6
CONTINUOUS
10
100.84
20
-63.3718
11
100.862
21
-63.1949
0
LINE
8
BLACK
6
CONTINUOUS
10
100.862
20
-63.1949
11
100.923
21
-63.0273
0
LINE
8
BLACK
6
CONTINUOUS
10
100.923
20
-63.0273
11
101.02
21
-62.8774
0
LINE
8
BLACK
6
CONTINUOUS
10
101.02
20
-62.8774
11
101.147
21
-62.7526
0
LINE
8
BLACK
6
CONTINUOUS
10
101.147
20
-62.7526
11
101.299
21
-62.6591
0
LINE
8
BLACK
6
CONTINUOUS
10
101.299
20
-62.6591
11
101.468
21
-62.6017
0
LINE
8
BLACK
6
CONTINUOUS
10
101.468
20
-62.6017
11
101.646
21
-62.583
0
LINE
8
BLACK
6
CONTINUOUS
10
101.646
20
-62.583
11
101.823
21
-62.6041
0
LINE
8
BLACK
6
CONTINUOUS
10
106.823
20
-62.6041
11
106.991
21
-62.664
0
LINE
8
BLACK
6
CONTINUOUS
10
106.991
20
-62.664
11
107.141
21
-62.7595
0
LINE
8
BLACK
6
CONTINUOUS
10
107.141
20
-62.7595
11
107.267
21
-62.8861
0
LINE
8
BLACK
6
CONTINUOUS
10
107.267
20
-62.8861
11
107.361
21
-63.0373
0
LINE
8
BLACK
6
CONTINUOUS
10
107.361
20
-63.0373
11
107.42
21
-63.2058
0
LINE
8
BLACK
6
CONTINUOUS
10
107.42
20
-63.2058
11
107.44
21
-63.383
0
LINE
8
BLACK
6
CONTINUOUS
10
107.44
20
-63.383
11
107.44
21
-63.4053
0
LINE
8
BLACK
6
CONTINUOUS
10
107.44
20
-63.4053
11
107.415
21
-63.582
0
LINE
8
BLACK
6
CONTINUOUS
10
107.415
20
-63.582
11
107.352
21
-63.7487
0
LINE
8
BLACK
6
CONTINUOUS
10
107.352
20
-63.7487
11
107.253
21
-63.8972
0
LINE
8
BLACK
6
CONTINUOUS
10
107.253
20
-63.8972
11
107.124
21
-64.0202
0
LINE
8
BLACK
6
CONTINUOUS
10
107.124
20
-64.0202
11
106.97
21
-64.1115
0
LINE
8
BLACK
6
CONTINUOUS
10
106.97
20
-64.1115
11
106.801
21
-64.1667
0
LINE
8
BLACK
6
CONTINUOUS
10
106.801
20
-64.1667
11
106.623
21
-64.1828
0
LINE
8
BLACK
6
CONTINUOUS
10
106.623
20
-64.1828
11
106.446
21
-64.1592
0
LINE
8
BLACK
6
CONTINUOUS
10
106.446
20
-64.1592
11
106.279
21
-64.0971
0
LINE
8
BLACK
6
CONTINUOUS
10
106.279
20
-64.0971
11
106.13
21
-63.9994
0
LINE
8
BLACK
6
CONTINUOUS
10
106.13
20
-63.9994
11
106.006
21
-63.8711
0
LINE
8
BLACK
6
CONTINUOUS
10
106.006
20
-63.8711
11
105.914
21
-63.7186
0
LINE
8
BLACK
6
CONTINUOUS
10
105.914
20
-63.7186
11
105.857
21
-63.5493
0
LINE
8
BLACK
6
CONTINUOUS
10
105.857
20
-63.5493
11
105.84
21
-63.3718
0
LINE
8
BLACK
6
CONTINUOUS
10
105.84
20
-63.3718
11
105.862
21
-63.1949
0
LINE
8
BLACK
6
CONTINUOUS
10
105.862
20
-63.1949
11
105.923
21
-63.0273
0
LINE
8
BLACK
6
CONTINUOUS
10
105.923
20
-63.0273
11
106.02
21
-62.8774
0
LINE
8
BLACK
6
CONTINUOUS
10
106.02
20
-62.8774
11
106.147
21
-62.7526
0
LINE
8
BLACK
6
CONTINUOUS
10
106.147
20
-62.7526
11
106.299
21
-62.6591
0
LINE
8
BLACK
6
CONTINUOUS
10
106.299
20
-62.6591
11
106.468
21
-62.6017
0
LINE
8
BLACK
6
CONTINUOUS
10
106.468
20
-62.6017
11
106.646
21
-62.583
0
LINE
8
BLACK
6
CONTINUOUS
10
106.646
20
-62.583
11
106.823
21
-62.6041
0
LINE
8
BLACK
6
CONTINUOUS
10
102.54
20
-47.265
11
100.74
21
-47.265
0
LINE
8
BLACK
6
CONTINUOUS
10
100.74
20
-47.265
11
100.74
21
-45.465
0
LINE
8
BLACK
6
CONTINUOUS
10
100.74
20
-45.465
11
102.54
21
-45.465
0
LINE
8
BLACK
6
CONTINUOUS
10
102.54
20
-45.465
11
102.54
21
-47.265
0
LINE
8
BLACK
6
CONTINUOUS
10
104.418
20
-45.509
11
104.59
21
-45.5856
0
LINE
8
BLACK
6
CONTINUOUS
10
104.59
20
-45.5856
11
104.742
21
-45.6962
0
LINE
8
BLACK
6
CONTINUOUS
10
104.742
20
-45.6962
11
104.868
21
-45.836
0
LINE
8
BLACK
6
CONTINUOUS
10
104.868
20
-45.836
11
104.962
21
-45.9989
0
LINE
8
BLACK
6
CONTINUOUS
10
104.962
20
-45.9989
11
105.02
21
-46.1779
0
LINE
8
BLACK
6
CONTINUOUS
10
105.02
20
-46.1779
11
105.04
21
-46.365
0
LINE
8
BLACK
6
CONTINUOUS
10
105.04
20
-46.365
11
105.02
21
-46.5521
0
LINE
8
BLACK
6
CONTINUOUS
10
105.02
20
-46.5521
11
104.962
21
-46.7311
0
LINE
8
BLACK
6
CONTINUOUS
10
104.962
20
-46.7311
11
104.868
21
-46.894
0
LINE
8
BLACK
6
CONTINUOUS
10
104.868
20
-46.894
11
104.742
21
-47.0338
0
LINE
8
BLACK
6
CONTINUOUS
10
104.742
20
-47.0338
11
104.59
21
-47.1444
0
LINE
8
BLACK
6
CONTINUOUS
10
104.59
20
-47.1444
11
104.418
21
-47.221
0
LINE
8
BLACK
6
CONTINUOUS
10
104.418
20
-47.221
11
104.234
21
-47.2601
0
LINE
8
BLACK
6
CONTINUOUS
10
104.234
20
-47.2601
11
104.046
21
-47.2601
0
LINE
8
BLACK
6
CONTINUOUS
10
104.046
20
-47.2601
11
103.862
21
-47.221
0
LINE
8
BLACK
6
CONTINUOUS
10
103.862
20
-47.221
11
103.69
21
-47.1444
0
LINE
8
BLACK
6
CONTINUOUS
10
103.69
20
-47.1444
11
103.538
21
-47.0338
0
LINE
8
BLACK
6
CONTINUOUS
10
103.538
20
-47.0338
11
103.412
21
-46.894
0
LINE
8
BLACK
6
CONTINUOUS
10
103.412
20
-46.894
11
103.318
21
-46.7311
0
LINE
8
BLACK
6
CONTINUOUS
10
103.318
20
-46.7311
11
103.26
21
-46.5521
0
LINE
8
BLACK
6
CONTINUOUS
10
103.26
20
-46.5521
11
103.24
21
-46.365
0
LINE
8
BLACK
6
CONTINUOUS
10
103.24
20
-46.365
11
103.26
21
-46.1779
0
LINE
8
BLACK
6
CONTINUOUS
10
103.26
20
-46.1779
11
103.318
21
-45.9989
0
LINE
8
BLACK
6
CONTINUOUS
10
103.318
20
-45.9989
11
103.412
21
-45.836
0
LINE
8
BLACK
6
CONTINUOUS
10
103.412
20
-45.836
11
103.538
21
-45.6962
0
LINE
8
BLACK
6
CONTINUOUS
10
103.538
20
-45.6962
11
103.69
21
-45.5856
0
LINE
8
BLACK
6
CONTINUOUS
10
103.69
20
-45.5856
11
103.862
21
-45.509
0
LINE
8
BLACK
6
CONTINUOUS
10
103.862
20
-45.509
11
104.046
21
-45.4699
0
LINE
8
BLACK
6
CONTINUOUS
10
104.046
20
-45.4699
11
104.234
21
-45.4699
0
LINE
8
BLACK
6
CONTINUOUS
10
104.234
20
-45.4699
11
104.418
21
-45.509
0
LINE
8
BLACK
6
CONTINUOUS
10
106.918
20
-45.509
11
107.09
21
-45.5856
0
LINE
8
BLACK
6
CONTINUOUS
10
107.09
20
-45.5856
11
107.242
21
-45.6962
0
LINE
8
BLACK
6
CONTINUOUS
10
107.242
20
-45.6962
11
107.368
21
-45.836
0
LINE
8
BLACK
6
CONTINUOUS
10
107.368
20
-45.836
11
107.462
21
-45.9989
0
LINE
8
BLACK
6
CONTINUOUS
10
107.462
20
-45.9989
11
107.52
21
-46.1779
0
LINE
8
BLACK
6
CONTINUOUS
10
107.52
20
-46.1779
11
107.54
21
-46.365
0
LINE
8
BLACK
6
CONTINUOUS
10
107.54
20
-46.365
11
107.52
21
-46.5521
0
LINE
8
BLACK
6
CONTINUOUS
10
107.52
20
-46.5521
11
107.462
21
-46.7311
0
LINE
8
BLACK
6
CONTINUOUS
10
107.462
20
-46.7311
11
107.368
21
-46.894
0
LINE
8
BLACK
6
CONTINUOUS
10
107.368
20
-46.894
11
107.242
21
-47.0338
0
LINE
8
BLACK
6
CONTINUOUS
10
107.242
20
-47.0338
11
107.09
21
-47.1444
0
LINE
8
BLACK
6
CONTINUOUS
10
107.09
20
-47.1444
11
106.918
21
-47.221
0
LINE
8
BLACK
6
CONTINUOUS
10
106.918
20
-47.221
11
106.734
21
-47.2601
0
LINE
8
BLACK
6
CONTINUOUS
10
106.734
20
-47.2601
11
106.546
21
-47.2601
0
LINE
8
BLACK
6
CONTINUOUS
10
106.546
20
-47.2601
11
106.362
21
-47.221
0
LINE
8
BLACK
6
CONTINUOUS
10
106.362
20
-47.221
11
106.19
21
-47.1444
0
LINE
8
BLACK
6
CONTINUOUS
10
106.19
20
-47.1444
11
106.038
21
-47.0338
0
LINE
8
BLACK
6
CONTINUOUS
10
106.038
20
-47.0338
11
105.912
21
-46.894
0
LINE
8
BLACK
6
CONTINUOUS
10
105.912
20
-46.894
11
105.818
21
-46.7311
0
LINE
8
BLACK
6
CONTINUOUS
10
105.818
20
-46.7311
11
105.76
21
-46.5521
0
LINE
8
BLACK
6
CONTINUOUS
10
105.76
20
-46.5521
11
105.74
21
-46.365
0
LINE
8
BLACK
6
CONTINUOUS
10
105.74
20
-46.365
11
105.76
21
-46.1779
0
LINE
8
BLACK
6
CONTINUOUS
10
105.76
20
-46.1779
11
105.818
21
-45.9989
0
LINE
8
BLACK
6
CONTINUOUS
10
105.818
20
-45.9989
11
105.912
21
-45.836
0
LINE
8
BLACK
6
CONTINUOUS
10
105.912
20
-45.836
11
106.038
21
-45.6962
0
LINE
8
BLACK
6
CONTINUOUS
10
106.038
20
-45.6962
11
106.19
21
-45.5856
0
LINE
8
BLACK
6
CONTINUOUS
10
106.19
20
-45.5856
11
106.362
21
-45.509
0
LINE
8
BLACK
6
CONTINUOUS
10
106.362
20
-45.509
11
106.546
21
-45.4699
0
LINE
8
BLACK
6
CONTINUOUS
10
106.546
20
-45.4699
11
106.734
21
-45.4699
0
LINE
8
BLACK
6
CONTINUOUS
10
106.734
20
-45.4699
11
106.918
21
-45.509
0
LINE
8
BLACK
6
CONTINUOUS
10
109.232
20
-37.2767
11
109.452
21
-37.3449
0
LINE
8
BLACK
6
CONTINUOUS
10
109.452
20
-37.3449
11
109.657
21
-37.4491
0
LINE
8
BLACK
6
CONTINUOUS
10
109.657
20
-37.4491
11
109.841
21
-37.5864
0
LINE
8
BLACK
6
CONTINUOUS
10
109.841
20
-37.5864
11
110
21
-37.7528
0
LINE
8
BLACK
6
CONTINUOUS
10
110
20
-37.7528
11
110.128
21
-37.9436
0
LINE
8
BLACK
6
CONTINUOUS
10
110.128
20
-37.9436
11
110.223
21
-38.1533
0
LINE
8
BLACK
6
CONTINUOUS
10
110.223
20
-38.1533
11
110.281
21
-38.3759
0
LINE
8
BLACK
6
CONTINUOUS
10
110.281
20
-38.3759
11
110.3
21
-38.605
0
LINE
8
BLACK
6
CONTINUOUS
10
110.3
20
-38.605
11
110.3
21
-39.125
0
LINE
8
BLACK
6
CONTINUOUS
10
110.3
20
-39.125
11
110.294
21
-39.253
0
LINE
8
BLACK
6
CONTINUOUS
10
110.294
20
-39.253
11
110.253
21
-39.4793
0
LINE
8
BLACK
6
CONTINUOUS
10
110.253
20
-39.4793
11
110.175
21
-39.6955
0
LINE
8
BLACK
6
CONTINUOUS
10
110.175
20
-39.6955
11
110.061
21
-39.8953
0
LINE
8
BLACK
6
CONTINUOUS
10
110.061
20
-39.8953
11
109.915
21
-40.0731
0
LINE
8
BLACK
6
CONTINUOUS
10
109.915
20
-40.0731
11
109.741
21
-40.2239
0
LINE
8
BLACK
6
CONTINUOUS
10
109.741
20
-40.2239
11
109.545
21
-40.3432
0
LINE
8
BLACK
6
CONTINUOUS
10
109.545
20
-40.3432
11
109.331
21
-40.4276
0
LINE
8
BLACK
6
CONTINUOUS
10
109.331
20
-40.4276
11
109.106
21
-40.4749
0
LINE
8
BLACK
6
CONTINUOUS
10
109.106
20
-40.4749
11
108.876
21
-40.4835
0
LINE
8
BLACK
6
CONTINUOUS
10
108.876
20
-40.4835
11
108.648
21
-40.4533
0
LINE
8
BLACK
6
CONTINUOUS
10
108.648
20
-40.4533
11
108.428
21
-40.3851
0
LINE
8
BLACK
6
CONTINUOUS
10
108.428
20
-40.3851
11
108.223
21
-40.2809
0
LINE
8
BLACK
6
CONTINUOUS
10
108.223
20
-40.2809
11
108.039
21
-40.1436
0
LINE
8
BLACK
6
CONTINUOUS
10
108.039
20
-40.1436
11
107.88
21
-39.9772
0
LINE
8
BLACK
6
CONTINUOUS
10
107.88
20
-39.9772
11
107.752
21
-39.7864
0
LINE
8
BLACK
6
CONTINUOUS
10
107.752
20
-39.7864
11
107.657
21
-39.5767
0
LINE
8
BLACK
6
CONTINUOUS
10
107.657
20
-39.5767
11
107.599
21
-39.3541
0
LINE
8
BLACK
6
CONTINUOUS
10
107.599
20
-39.3541
11
107.58
21
-39.125
0
LINE
8
BLACK
6
CONTINUOUS
10
107.58
20
-39.125
11
107.58
21
-38.605
0
LINE
8
BLACK
6
CONTINUOUS
10
107.58
20
-38.605
11
107.586
21
-38.477
0
LINE
8
BLACK
6
CONTINUOUS
10
107.586
20
-38.477
11
107.627
21
-38.2507
0
LINE
8
BLACK
6
CONTINUOUS
10
107.627
20
-38.2507
11
107.705
21
-38.0345
0
LINE
8
BLACK
6
CONTINUOUS
10
107.705
20
-38.0345
11
107.819
21
-37.8347
0
LINE
8
BLACK
6
CONTINUOUS
10
107.819
20
-37.8347
11
107.965
21
-37.6569
0
LINE
8
BLACK
6
CONTINUOUS
10
107.965
20
-37.6569
11
108.139
21
-37.5061
0
LINE
8
BLACK
6
CONTINUOUS
10
108.139
20
-37.5061
11
108.335
21
-37.3868
0
LINE
8
BLACK
6
CONTINUOUS
10
108.335
20
-37.3868
11
108.549
21
-37.3024
0
LINE
8
BLACK
6
CONTINUOUS
10
108.549
20
-37.3024
11
108.774
21
-37.2551
0
LINE
8
BLACK
6
CONTINUOUS
10
108.774
20
-37.2551
11
109.004
21
-37.2465
0
LINE
8
BLACK
6
CONTINUOUS
10
109.004
20
-37.2465
11
109.232
21
-37.2767
0
LINE
8
BLACK
6
CONTINUOUS
10
99.632
20
-37.2767
11
99.8517
21
-37.3449
0
LINE
8
BLACK
6
CONTINUOUS
10
99.8517
20
-37.3449
11
100.057
21
-37.4491
0
LINE
8
BLACK
6
CONTINUOUS
10
100.057
20
-37.4491
11
100.241
21
-37.5864
0
LINE
8
BLACK
6
CONTINUOUS
10
100.241
20
-37.5864
11
100.4
21
-37.7528
0
LINE
8
BLACK
6
CONTINUOUS
10
100.4
20
-37.7528
11
100.528
21
-37.9436
0
LINE
8
BLACK
6
CONTINUOUS
10
100.528
20
-37.9436
11
100.623
21
-38.1533
0
LINE
8
BLACK
6
CONTINUOUS
10
100.623
20
-38.1533
11
100.681
21
-38.3759
0
LINE
8
BLACK
6
CONTINUOUS
10
100.681
20
-38.3759
11
100.7
21
-38.605
0
LINE
8
BLACK
6
CONTINUOUS
10
100.7
20
-38.605
11
100.7
21
-39.125
0
LINE
8
BLACK
6
CONTINUOUS
10
100.7
20
-39.125
11
100.694
21
-39.253
0
LINE
8
BLACK
6
CONTINUOUS
10
100.694
20
-39.253
11
100.653
21
-39.4793
0
LINE
8
BLACK
6
CONTINUOUS
10
100.653
20
-39.4793
11
100.575
21
-39.6955
0
LINE
8
BLACK
6
CONTINUOUS
10
100.575
20
-39.6955
11
100.461
21
-39.8953
0
LINE
8
BLACK
6
CONTINUOUS
10
100.461
20
-39.8953
11
100.315
21
-40.0731
0
LINE
8
BLACK
6
CONTINUOUS
10
100.315
20
-40.0731
11
100.141
21
-40.2239
0
LINE
8
BLACK
6
CONTINUOUS
10
100.141
20
-40.2239
11
99.9447
21
-40.3432
0
LINE
8
BLACK
6
CONTINUOUS
10
99.9447
20
-40.3432
11
99.7308
21
-40.4276
0
LINE
8
BLACK
6
CONTINUOUS
10
99.7308
20
-40.4276
11
99.5057
21
-40.4749
0
LINE
8
BLACK
6
CONTINUOUS
10
99.5057
20
-40.4749
11
99.2759
21
-40.4835
0
LINE
8
BLACK
6
CONTINUOUS
10
99.2759
20
-40.4835
11
99.048
21
-40.4533
0
LINE
8
BLACK
6
CONTINUOUS
10
99.048
20
-40.4533
11
98.8283
21
-40.3851
0
LINE
8
BLACK
6
CONTINUOUS
10
98.8283
20
-40.3851
11
98.6233
21
-40.2809
0
LINE
8
BLACK
6
CONTINUOUS
10
98.6233
20
-40.2809
11
98.4388
21
-40.1436
0
LINE
8
BLACK
6
CONTINUOUS
10
98.4388
20
-40.1436
11
98.2801
21
-39.9772
0
LINE
8
BLACK
6
CONTINUOUS
10
98.2801
20
-39.9772
11
98.1517
21
-39.7864
0
LINE
8
BLACK
6
CONTINUOUS
10
98.1517
20
-39.7864
11
98.0572
21
-39.5767
0
LINE
8
BLACK
6
CONTINUOUS
10
98.0572
20
-39.5767
11
97.9994
21
-39.3541
0
LINE
8
BLACK
6
CONTINUOUS
10
97.9994
20
-39.3541
11
97.98
21
-39.125
0
LINE
8
BLACK
6
CONTINUOUS
10
97.98
20
-39.125
11
97.98
21
-38.605
0
LINE
8
BLACK
6
CONTINUOUS
10
97.98
20
-38.605
11
97.986
21
-38.477
0
LINE
8
BLACK
6
CONTINUOUS
10
97.986
20
-38.477
11
98.027
21
-38.2507
0
LINE
8
BLACK
6
CONTINUOUS
10
98.027
20
-38.2507
11
98.1054
21
-38.0345
0
LINE
8
BLACK
6
CONTINUOUS
10
98.1054
20
-38.0345
11
98.2192
21
-37.8347
0
LINE
8
BLACK
6
CONTINUOUS
10
98.2192
20
-37.8347
11
98.365
21
-37.6569
0
LINE
8
BLACK
6
CONTINUOUS
10
98.365
20
-37.6569
11
98.5387
21
-37.5061
0
LINE
8
BLACK
6
CONTINUOUS
10
98.5387
20
-37.5061
11
98.7353
21
-37.3868
0
LINE
8
BLACK
6
CONTINUOUS
10
98.7353
20
-37.3868
11
98.9492
21
-37.3024
0
LINE
8
BLACK
6
CONTINUOUS
10
98.9492
20
-37.3024
11
99.1743
21
-37.2551
0
LINE
8
BLACK
6
CONTINUOUS
10
99.1743
20
-37.2551
11
99.4041
21
-37.2465
0
LINE
8
BLACK
6
CONTINUOUS
10
99.4041
20
-37.2465
11
99.632
21
-37.2767
  0
ENDSEC
  0
EOF
