  0
SECTION
  2
HEADER
  9
$ANGBASE
  50
0.0
  9
$ANGDIR
  70
1
  9
$MEASUREMENT
  70
1
  0
ENDSEC
  0
SECTION
  2
TABLES
  0
TABLE
  2
LTYPE
  70
4
  0
LTYPE
  5
40F
  2
CONTINUOUS
  70
0
  3
Solid line
  72
65
  73
0
  40
0.0
  0
LTYPE
  5
410
  2
DASHDOT
 70
0
  3
Dash Dot ____ _ ____ _
 72
65
 73
4
 40
2.0
 49
1.25
 49
-0.25
 49
0.25
 49
-0.25
  0
LTYPE
  5
411
  2
DASHED
 70
0
  3
Dashed __ __ __ __ __
 72
65
 73
2
 40
0.75
 49
0.5
 49
-0.25
  0
LTYPE
  5
43B
  2
DOTTED
 70
0
  3
Dotted .  .  .  .
 72
65
 73
2
 40
0.2
 49
0.0
 49
-0.2
  0
ENDTAB
  0
TABLE
  2
STYLE
  70
4
  0
STYLE
  2
KICAD
  70
0
  40
0
  41
1
  42
1
  50
0
  71
0
  3
isocp.shx
  0
STYLE
  2
KICADB
  70
0
  40
0
  41
1
  42
1
  50
0
  71
0
  3
isocp.shx
  0
STYLE
  2
KICADI
  70
0
  40
0
  41
1
  42
1
  50
15
  71
0
  3
isocp.shx
  0
STYLE
  2
KICADBI
  70
0
  40
0
  41
1
  42
1
  50
15
  71
0
  3
isocp.shx
  0
ENDTAB
  0
TABLE
  2
LAYER
  70
1
  0
LAYER
  2
BLACK
  70
0
  62
7
  6
CONTINUOUS
  0
ENDTAB
  0
ENDSEC
  0
SECTION
  2
ENTITIES
0
LINE
8
BLACK
6
CONTINUOUS
10
100.598
20
-230.557
11
100.58
21
-230.515
0
LINE
8
BLACK
6
CONTINUOUS
10
100.58
20
-230.515
11
100.58
21
-217.815
0
LINE
8
BLACK
6
CONTINUOUS
10
100.58
20
-217.815
11
100.598
21
-217.773
0
LINE
8
BLACK
6
CONTINUOUS
10
100.598
20
-217.773
11
100.64
21
-217.755
0
LINE
8
BLACK
6
CONTINUOUS
10
100.64
20
-217.755
11
107.64
21
-217.755
0
LINE
8
BLACK
6
CONTINUOUS
10
107.64
20
-217.755
11
107.682
21
-217.773
0
LINE
8
BLACK
6
CONTINUOUS
10
107.682
20
-217.773
11
107.7
21
-217.815
0
LINE
8
BLACK
6
CONTINUOUS
10
107.7
20
-217.815
11
107.7
21
-230.515
0
LINE
8
BLACK
6
CONTINUOUS
10
107.7
20
-230.515
11
107.682
21
-230.557
0
LINE
8
BLACK
6
CONTINUOUS
10
107.682
20
-230.557
11
107.64
21
-230.575
0
LINE
8
BLACK
6
CONTINUOUS
10
107.64
20
-230.575
11
100.64
21
-230.575
0
LINE
8
BLACK
6
CONTINUOUS
10
100.64
20
-230.575
11
100.598
21
-230.557
0
LINE
8
BLACK
6
CONTINUOUS
10
100.7
20
-217.875
11
100.7
21
-230.455
0
LINE
8
BLACK
6
CONTINUOUS
10
100.7
20
-230.455
11
107.58
21
-230.455
0
LINE
8
BLACK
6
CONTINUOUS
10
107.58
20
-230.455
11
107.58
21
-217.875
0
LINE
8
BLACK
6
CONTINUOUS
10
107.58
20
-217.875
11
100.7
21
-217.875
0
LINE
8
BLACK
6
CONTINUOUS
10
103.257
20
-216.434
11
103.259
21
-216.434
0
LINE
8
BLACK
6
CONTINUOUS
10
103.259
20
-216.434
11
103.402
21
-216.482
0
LINE
8
BLACK
6
CONTINUOUS
10
103.402
20
-216.482
11
103.425
21
-216.494
0
LINE
8
BLACK
6
CONTINUOUS
10
103.425
20
-216.494
11
103.452
21
-216.538
0
LINE
8
BLACK
6
CONTINUOUS
10
103.452
20
-216.538
11
103.444
21
-216.589
0
LINE
8
BLACK
6
CONTINUOUS
10
103.444
20
-216.589
11
103.406
21
-216.623
0
LINE
8
BLACK
6
CONTINUOUS
10
103.406
20
-216.623
11
103.354
21
-216.624
0
LINE
8
BLACK
6
CONTINUOUS
10
103.354
20
-216.624
11
103.223
21
-216.58
0
LINE
8
BLACK
6
CONTINUOUS
10
103.223
20
-216.58
11
103.015
21
-216.58
0
LINE
8
BLACK
6
CONTINUOUS
10
103.015
20
-216.58
11
102.946
21
-216.615
0
LINE
8
BLACK
6
CONTINUOUS
10
102.946
20
-216.615
11
102.916
21
-216.645
0
LINE
8
BLACK
6
CONTINUOUS
10
102.916
20
-216.645
11
102.882
21
-216.714
0
LINE
8
BLACK
6
CONTINUOUS
10
102.882
20
-216.714
11
102.882
21
-216.773
0
LINE
8
BLACK
6
CONTINUOUS
10
102.882
20
-216.773
11
102.916
21
-216.842
0
LINE
8
BLACK
6
CONTINUOUS
10
102.916
20
-216.842
11
102.946
21
-216.872
0
LINE
8
BLACK
6
CONTINUOUS
10
102.946
20
-216.872
11
103.023
21
-216.911
0
LINE
8
BLACK
6
CONTINUOUS
10
103.023
20
-216.911
11
103.206
21
-216.956
0
LINE
8
BLACK
6
CONTINUOUS
10
103.206
20
-216.956
11
103.218
21
-216.962
0
LINE
8
BLACK
6
CONTINUOUS
10
103.218
20
-216.962
11
103.221
21
-216.962
0
LINE
8
BLACK
6
CONTINUOUS
10
103.221
20
-216.962
11
103.316
21
-217.01
0
LINE
8
BLACK
6
CONTINUOUS
10
103.316
20
-217.01
11
103.334
21
-217.023
0
LINE
8
BLACK
6
CONTINUOUS
10
103.334
20
-217.023
11
103.336
21
-217.024
0
LINE
8
BLACK
6
CONTINUOUS
10
103.336
20
-217.024
11
103.384
21
-217.071
0
LINE
8
BLACK
6
CONTINUOUS
10
103.384
20
-217.071
11
103.396
21
-217.09
0
LINE
8
BLACK
6
CONTINUOUS
10
103.396
20
-217.09
11
103.398
21
-217.091
0
LINE
8
BLACK
6
CONTINUOUS
10
103.398
20
-217.091
11
103.445
21
-217.186
0
LINE
8
BLACK
6
CONTINUOUS
10
103.445
20
-217.186
11
103.453
21
-217.211
0
LINE
8
BLACK
6
CONTINUOUS
10
103.453
20
-217.211
11
103.452
21
-217.215
0
LINE
8
BLACK
6
CONTINUOUS
10
103.452
20
-217.215
11
103.453
21
-217.22
0
LINE
8
BLACK
6
CONTINUOUS
10
103.453
20
-217.22
11
103.453
21
-217.315
0
LINE
8
BLACK
6
CONTINUOUS
10
103.453
20
-217.315
11
103.449
21
-217.341
0
LINE
8
BLACK
6
CONTINUOUS
10
103.449
20
-217.341
11
103.446
21
-217.344
0
LINE
8
BLACK
6
CONTINUOUS
10
103.446
20
-217.344
11
103.445
21
-217.348
0
LINE
8
BLACK
6
CONTINUOUS
10
103.445
20
-217.348
11
103.398
21
-217.444
0
LINE
8
BLACK
6
CONTINUOUS
10
103.398
20
-217.444
11
103.384
21
-217.462
0
LINE
8
BLACK
6
CONTINUOUS
10
103.384
20
-217.462
11
103.384
21
-217.463
0
LINE
8
BLACK
6
CONTINUOUS
10
103.384
20
-217.463
11
103.336
21
-217.511
0
LINE
8
BLACK
6
CONTINUOUS
10
103.336
20
-217.511
11
103.318
21
-217.524
0
LINE
8
BLACK
6
CONTINUOUS
10
103.318
20
-217.524
11
103.316
21
-217.525
0
LINE
8
BLACK
6
CONTINUOUS
10
103.316
20
-217.525
11
103.221
21
-217.572
0
LINE
8
BLACK
6
CONTINUOUS
10
103.221
20
-217.572
11
103.196
21
-217.58
0
LINE
8
BLACK
6
CONTINUOUS
10
103.196
20
-217.58
11
103.192
21
-217.579
0
LINE
8
BLACK
6
CONTINUOUS
10
103.192
20
-217.579
11
103.188
21
-217.58
0
LINE
8
BLACK
6
CONTINUOUS
10
103.188
20
-217.58
11
102.95
21
-217.58
0
LINE
8
BLACK
6
CONTINUOUS
10
102.95
20
-217.58
11
102.927
21
-217.576
0
LINE
8
BLACK
6
CONTINUOUS
10
102.927
20
-217.576
11
102.926
21
-217.577
0
LINE
8
BLACK
6
CONTINUOUS
10
102.926
20
-217.577
11
102.783
21
-217.529
0
LINE
8
BLACK
6
CONTINUOUS
10
102.783
20
-217.529
11
102.76
21
-217.517
0
LINE
8
BLACK
6
CONTINUOUS
10
102.76
20
-217.517
11
102.733
21
-217.473
0
LINE
8
BLACK
6
CONTINUOUS
10
102.733
20
-217.473
11
102.741
21
-217.422
0
LINE
8
BLACK
6
CONTINUOUS
10
102.741
20
-217.422
11
102.779
21
-217.388
0
LINE
8
BLACK
6
CONTINUOUS
10
102.779
20
-217.388
11
102.83
21
-217.387
0
LINE
8
BLACK
6
CONTINUOUS
10
102.83
20
-217.387
11
102.962
21
-217.43
0
LINE
8
BLACK
6
CONTINUOUS
10
102.962
20
-217.43
11
103.17
21
-217.43
0
LINE
8
BLACK
6
CONTINUOUS
10
103.17
20
-217.43
11
103.238
21
-217.396
0
LINE
8
BLACK
6
CONTINUOUS
10
103.238
20
-217.396
11
103.269
21
-217.366
0
LINE
8
BLACK
6
CONTINUOUS
10
103.269
20
-217.366
11
103.303
21
-217.297
0
LINE
8
BLACK
6
CONTINUOUS
10
103.303
20
-217.297
11
103.303
21
-217.237
0
LINE
8
BLACK
6
CONTINUOUS
10
103.303
20
-217.237
11
103.269
21
-217.169
0
LINE
8
BLACK
6
CONTINUOUS
10
103.269
20
-217.169
11
103.238
21
-217.138
0
LINE
8
BLACK
6
CONTINUOUS
10
103.238
20
-217.138
11
103.161
21
-217.1
0
LINE
8
BLACK
6
CONTINUOUS
10
103.161
20
-217.1
11
102.979
21
-217.054
0
LINE
8
BLACK
6
CONTINUOUS
10
102.979
20
-217.054
11
102.967
21
-217.049
0
LINE
8
BLACK
6
CONTINUOUS
10
102.967
20
-217.049
11
102.964
21
-217.049
0
LINE
8
BLACK
6
CONTINUOUS
10
102.964
20
-217.049
11
102.868
21
-217.001
0
LINE
8
BLACK
6
CONTINUOUS
10
102.868
20
-217.001
11
102.85
21
-216.988
0
LINE
8
BLACK
6
CONTINUOUS
10
102.85
20
-216.988
11
102.849
21
-216.987
0
LINE
8
BLACK
6
CONTINUOUS
10
102.849
20
-216.987
11
102.801
21
-216.939
0
LINE
8
BLACK
6
CONTINUOUS
10
102.801
20
-216.939
11
102.788
21
-216.921
0
LINE
8
BLACK
6
CONTINUOUS
10
102.788
20
-216.921
11
102.787
21
-216.92
0
LINE
8
BLACK
6
CONTINUOUS
10
102.787
20
-216.92
11
102.74
21
-216.825
0
LINE
8
BLACK
6
CONTINUOUS
10
102.74
20
-216.825
11
102.732
21
-216.8
0
LINE
8
BLACK
6
CONTINUOUS
10
102.732
20
-216.8
11
102.733
21
-216.795
0
LINE
8
BLACK
6
CONTINUOUS
10
102.733
20
-216.795
11
102.732
21
-216.791
0
LINE
8
BLACK
6
CONTINUOUS
10
102.732
20
-216.791
11
102.732
21
-216.696
0
LINE
8
BLACK
6
CONTINUOUS
10
102.732
20
-216.696
11
102.736
21
-216.67
0
LINE
8
BLACK
6
CONTINUOUS
10
102.736
20
-216.67
11
102.739
21
-216.667
0
LINE
8
BLACK
6
CONTINUOUS
10
102.739
20
-216.667
11
102.74
21
-216.662
0
LINE
8
BLACK
6
CONTINUOUS
10
102.74
20
-216.662
11
102.787
21
-216.567
0
LINE
8
BLACK
6
CONTINUOUS
10
102.787
20
-216.567
11
102.801
21
-216.549
0
LINE
8
BLACK
6
CONTINUOUS
10
102.801
20
-216.549
11
102.801
21
-216.548
0
LINE
8
BLACK
6
CONTINUOUS
10
102.801
20
-216.548
11
102.849
21
-216.5
0
LINE
8
BLACK
6
CONTINUOUS
10
102.849
20
-216.5
11
102.867
21
-216.487
0
LINE
8
BLACK
6
CONTINUOUS
10
102.867
20
-216.487
11
102.868
21
-216.486
0
LINE
8
BLACK
6
CONTINUOUS
10
102.868
20
-216.486
11
102.964
21
-216.438
0
LINE
8
BLACK
6
CONTINUOUS
10
102.964
20
-216.438
11
102.989
21
-216.431
0
LINE
8
BLACK
6
CONTINUOUS
10
102.989
20
-216.431
11
102.993
21
-216.432
0
LINE
8
BLACK
6
CONTINUOUS
10
102.993
20
-216.432
11
102.997
21
-216.43
0
LINE
8
BLACK
6
CONTINUOUS
10
102.997
20
-216.43
11
103.235
21
-216.43
0
LINE
8
BLACK
6
CONTINUOUS
10
103.235
20
-216.43
11
103.257
21
-216.434
0
LINE
8
BLACK
6
CONTINUOUS
10
105.196
20
-216.432
11
105.201
21
-216.432
0
LINE
8
BLACK
6
CONTINUOUS
10
105.201
20
-216.432
11
105.219
21
-216.442
0
LINE
8
BLACK
6
CONTINUOUS
10
105.219
20
-216.442
11
105.239
21
-216.451
0
LINE
8
BLACK
6
CONTINUOUS
10
105.239
20
-216.451
11
105.241
21
-216.455
0
LINE
8
BLACK
6
CONTINUOUS
10
105.241
20
-216.455
11
105.245
21
-216.457
0
LINE
8
BLACK
6
CONTINUOUS
10
105.245
20
-216.457
11
105.253
21
-216.478
0
LINE
8
BLACK
6
CONTINUOUS
10
105.253
20
-216.478
11
105.262
21
-216.497
0
LINE
8
BLACK
6
CONTINUOUS
10
105.262
20
-216.497
11
105.261
21
-216.501
0
LINE
8
BLACK
6
CONTINUOUS
10
105.261
20
-216.501
11
105.263
21
-216.505
0
LINE
8
BLACK
6
CONTINUOUS
10
105.263
20
-216.505
11
105.263
21
-217.43
0
LINE
8
BLACK
6
CONTINUOUS
10
105.263
20
-217.43
11
105.473
21
-217.43
0
LINE
8
BLACK
6
CONTINUOUS
10
105.473
20
-217.43
11
105.499
21
-217.435
0
LINE
8
BLACK
6
CONTINUOUS
10
105.499
20
-217.435
11
105.538
21
-217.468
0
LINE
8
BLACK
6
CONTINUOUS
10
105.538
20
-217.468
11
105.547
21
-217.518
0
LINE
8
BLACK
6
CONTINUOUS
10
105.547
20
-217.518
11
105.522
21
-217.563
0
LINE
8
BLACK
6
CONTINUOUS
10
105.522
20
-217.563
11
105.473
21
-217.58
0
LINE
8
BLACK
6
CONTINUOUS
10
105.473
20
-217.58
11
104.902
21
-217.58
0
LINE
8
BLACK
6
CONTINUOUS
10
104.902
20
-217.58
11
104.876
21
-217.576
0
LINE
8
BLACK
6
CONTINUOUS
10
104.876
20
-217.576
11
104.837
21
-217.543
0
LINE
8
BLACK
6
CONTINUOUS
10
104.837
20
-217.543
11
104.828
21
-217.492
0
LINE
8
BLACK
6
CONTINUOUS
10
104.828
20
-217.492
11
104.854
21
-217.448
0
LINE
8
BLACK
6
CONTINUOUS
10
104.854
20
-217.448
11
104.902
21
-217.43
0
LINE
8
BLACK
6
CONTINUOUS
10
104.902
20
-217.43
11
105.113
21
-217.43
0
LINE
8
BLACK
6
CONTINUOUS
10
105.113
20
-217.43
11
105.113
21
-216.734
0
LINE
8
BLACK
6
CONTINUOUS
10
105.113
20
-216.734
11
105.05
21
-216.797
0
LINE
8
BLACK
6
CONTINUOUS
10
105.05
20
-216.797
11
105.032
21
-216.809
0
LINE
8
BLACK
6
CONTINUOUS
10
105.032
20
-216.809
11
105.031
21
-216.811
0
LINE
8
BLACK
6
CONTINUOUS
10
105.031
20
-216.811
11
104.935
21
-216.858
0
LINE
8
BLACK
6
CONTINUOUS
10
104.935
20
-216.858
11
104.91
21
-216.866
0
LINE
8
BLACK
6
CONTINUOUS
10
104.91
20
-216.866
11
104.861
21
-216.854
0
LINE
8
BLACK
6
CONTINUOUS
10
104.861
20
-216.854
11
104.83
21
-216.812
0
LINE
8
BLACK
6
CONTINUOUS
10
104.83
20
-216.812
11
104.833
21
-216.761
0
LINE
8
BLACK
6
CONTINUOUS
10
104.833
20
-216.761
11
104.868
21
-216.724
0
LINE
8
BLACK
6
CONTINUOUS
10
104.868
20
-216.724
11
104.953
21
-216.682
0
LINE
8
BLACK
6
CONTINUOUS
10
104.953
20
-216.682
11
105.034
21
-216.6
0
LINE
8
BLACK
6
CONTINUOUS
10
105.034
20
-216.6
11
105.125
21
-216.464
0
LINE
8
BLACK
6
CONTINUOUS
10
105.125
20
-216.464
11
105.143
21
-216.445
0
LINE
8
BLACK
6
CONTINUOUS
10
105.143
20
-216.445
11
105.147
21
-216.444
0
LINE
8
BLACK
6
CONTINUOUS
10
105.147
20
-216.444
11
105.15
21
-216.44
0
LINE
8
BLACK
6
CONTINUOUS
10
105.15
20
-216.44
11
105.172
21
-216.437
0
LINE
8
BLACK
6
CONTINUOUS
10
105.172
20
-216.437
11
105.192
21
-216.431
0
LINE
8
BLACK
6
CONTINUOUS
10
105.192
20
-216.431
11
105.196
21
-216.432
0
LINE
8
BLACK
6
CONTINUOUS
10
103.756
20
-216.445
11
103.784
21
-216.488
0
LINE
8
BLACK
6
CONTINUOUS
10
103.784
20
-216.488
11
103.954
21
-217.199
0
LINE
8
BLACK
6
CONTINUOUS
10
103.954
20
-217.199
11
104.068
21
-216.772
0
LINE
8
BLACK
6
CONTINUOUS
10
104.068
20
-216.772
11
104.079
21
-216.748
0
LINE
8
BLACK
6
CONTINUOUS
10
104.079
20
-216.748
11
104.084
21
-216.744
0
LINE
8
BLACK
6
CONTINUOUS
10
104.084
20
-216.744
11
104.087
21
-216.738
0
LINE
8
BLACK
6
CONTINUOUS
10
104.087
20
-216.738
11
104.105
21
-216.73
0
LINE
8
BLACK
6
CONTINUOUS
10
104.105
20
-216.73
11
104.121
21
-216.719
0
LINE
8
BLACK
6
CONTINUOUS
10
104.121
20
-216.719
11
104.127
21
-216.719
0
LINE
8
BLACK
6
CONTINUOUS
10
104.127
20
-216.719
11
104.134
21
-216.716
0
LINE
8
BLACK
6
CONTINUOUS
10
104.134
20
-216.716
11
104.152
21
-216.721
0
LINE
8
BLACK
6
CONTINUOUS
10
104.152
20
-216.721
11
104.172
21
-216.723
0
LINE
8
BLACK
6
CONTINUOUS
10
104.172
20
-216.723
11
104.176
21
-216.728
0
LINE
8
BLACK
6
CONTINUOUS
10
104.176
20
-216.728
11
104.183
21
-216.73
0
LINE
8
BLACK
6
CONTINUOUS
10
104.183
20
-216.73
11
104.194
21
-216.746
0
LINE
8
BLACK
6
CONTINUOUS
10
104.194
20
-216.746
11
104.208
21
-216.759
0
LINE
8
BLACK
6
CONTINUOUS
10
104.208
20
-216.759
11
104.209
21
-216.766
0
LINE
8
BLACK
6
CONTINUOUS
10
104.209
20
-216.766
11
104.212
21
-216.772
0
LINE
8
BLACK
6
CONTINUOUS
10
104.212
20
-216.772
11
104.326
21
-217.199
0
LINE
8
BLACK
6
CONTINUOUS
10
104.326
20
-217.199
11
104.496
21
-216.488
0
LINE
8
BLACK
6
CONTINUOUS
10
104.496
20
-216.488
11
104.506
21
-216.464
0
LINE
8
BLACK
6
CONTINUOUS
10
104.506
20
-216.464
11
104.547
21
-216.434
0
LINE
8
BLACK
6
CONTINUOUS
10
104.547
20
-216.434
11
104.598
21
-216.437
0
LINE
8
BLACK
6
CONTINUOUS
10
104.598
20
-216.437
11
104.636
21
-216.472
0
LINE
8
BLACK
6
CONTINUOUS
10
104.636
20
-216.472
11
104.642
21
-216.523
0
LINE
8
BLACK
6
CONTINUOUS
10
104.642
20
-216.523
11
104.403
21
-217.523
0
LINE
8
BLACK
6
CONTINUOUS
10
104.403
20
-217.523
11
104.393
21
-217.547
0
LINE
8
BLACK
6
CONTINUOUS
10
104.393
20
-217.547
11
104.387
21
-217.551
0
LINE
8
BLACK
6
CONTINUOUS
10
104.387
20
-217.551
11
104.383
21
-217.558
0
LINE
8
BLACK
6
CONTINUOUS
10
104.383
20
-217.558
11
104.367
21
-217.566
0
LINE
8
BLACK
6
CONTINUOUS
10
104.367
20
-217.566
11
104.352
21
-217.577
0
LINE
8
BLACK
6
CONTINUOUS
10
104.352
20
-217.577
11
104.344
21
-217.577
0
LINE
8
BLACK
6
CONTINUOUS
10
104.344
20
-217.577
11
104.337
21
-217.58
0
LINE
8
BLACK
6
CONTINUOUS
10
104.337
20
-217.58
11
104.319
21
-217.575
0
LINE
8
BLACK
6
CONTINUOUS
10
104.319
20
-217.575
11
104.301
21
-217.574
0
LINE
8
BLACK
6
CONTINUOUS
10
104.301
20
-217.574
11
104.295
21
-217.569
0
LINE
8
BLACK
6
CONTINUOUS
10
104.295
20
-217.569
11
104.287
21
-217.567
0
LINE
8
BLACK
6
CONTINUOUS
10
104.287
20
-217.567
11
104.277
21
-217.552
0
LINE
8
BLACK
6
CONTINUOUS
10
104.277
20
-217.552
11
104.263
21
-217.539
0
LINE
8
BLACK
6
CONTINUOUS
10
104.263
20
-217.539
11
104.263
21
-217.531
0
LINE
8
BLACK
6
CONTINUOUS
10
104.263
20
-217.531
11
104.258
21
-217.525
0
LINE
8
BLACK
6
CONTINUOUS
10
104.258
20
-217.525
11
104.14
21
-217.082
0
LINE
8
BLACK
6
CONTINUOUS
10
104.14
20
-217.082
11
104.022
21
-217.525
0
LINE
8
BLACK
6
CONTINUOUS
10
104.022
20
-217.525
11
104.011
21
-217.548
0
LINE
8
BLACK
6
CONTINUOUS
10
104.011
20
-217.548
11
104.005
21
-217.553
0
LINE
8
BLACK
6
CONTINUOUS
10
104.005
20
-217.553
11
104.001
21
-217.56
0
LINE
8
BLACK
6
CONTINUOUS
10
104.001
20
-217.56
11
103.984
21
-217.567
0
LINE
8
BLACK
6
CONTINUOUS
10
103.984
20
-217.567
11
103.969
21
-217.578
0
LINE
8
BLACK
6
CONTINUOUS
10
103.969
20
-217.578
11
103.961
21
-217.577
0
LINE
8
BLACK
6
CONTINUOUS
10
103.961
20
-217.577
11
103.954
21
-217.58
0
LINE
8
BLACK
6
CONTINUOUS
10
103.954
20
-217.58
11
103.936
21
-217.575
0
LINE
8
BLACK
6
CONTINUOUS
10
103.936
20
-217.575
11
103.918
21
-217.573
0
LINE
8
BLACK
6
CONTINUOUS
10
103.918
20
-217.573
11
103.912
21
-217.568
0
LINE
8
BLACK
6
CONTINUOUS
10
103.912
20
-217.568
11
103.905
21
-217.566
0
LINE
8
BLACK
6
CONTINUOUS
10
103.905
20
-217.566
11
103.895
21
-217.55
0
LINE
8
BLACK
6
CONTINUOUS
10
103.895
20
-217.55
11
103.882
21
-217.537
0
LINE
8
BLACK
6
CONTINUOUS
10
103.882
20
-217.537
11
103.881
21
-217.529
0
LINE
8
BLACK
6
CONTINUOUS
10
103.881
20
-217.529
11
103.877
21
-217.523
0
LINE
8
BLACK
6
CONTINUOUS
10
103.877
20
-217.523
11
103.638
21
-216.523
0
LINE
8
BLACK
6
CONTINUOUS
10
103.638
20
-216.523
11
103.637
21
-216.497
0
LINE
8
BLACK
6
CONTINUOUS
10
103.637
20
-216.497
11
103.66
21
-216.451
0
LINE
8
BLACK
6
CONTINUOUS
10
103.66
20
-216.451
11
103.707
21
-216.431
0
LINE
8
BLACK
6
CONTINUOUS
10
103.707
20
-216.431
11
103.756
21
-216.445
0
LINE
8
BLACK
6
CONTINUOUS
10
100.285
20
-179.094
11
100.289
21
-179.094
0
LINE
8
BLACK
6
CONTINUOUS
10
100.289
20
-179.094
11
100.291
21
-179.095
0
LINE
8
BLACK
6
CONTINUOUS
10
100.291
20
-179.095
11
100.3
21
-179.097
0
LINE
8
BLACK
6
CONTINUOUS
10
100.3
20
-179.097
11
100.315
21
-179.11
0
LINE
8
BLACK
6
CONTINUOUS
10
100.315
20
-179.11
11
100.333
21
-179.12
0
LINE
8
BLACK
6
CONTINUOUS
10
100.333
20
-179.12
11
100.335
21
-179.126
0
LINE
8
BLACK
6
CONTINUOUS
10
100.335
20
-179.126
11
100.339
21
-179.13
0
LINE
8
BLACK
6
CONTINUOUS
10
100.339
20
-179.13
11
100.343
21
-179.15
0
LINE
8
BLACK
6
CONTINUOUS
10
100.343
20
-179.15
11
100.349
21
-179.169
0
LINE
8
BLACK
6
CONTINUOUS
10
100.349
20
-179.169
11
100.347
21
-179.175
0
LINE
8
BLACK
6
CONTINUOUS
10
100.347
20
-179.175
11
100.348
21
-179.18
0
LINE
8
BLACK
6
CONTINUOUS
10
100.348
20
-179.18
11
100.338
21
-179.198
0
LINE
8
BLACK
6
CONTINUOUS
10
100.338
20
-179.198
11
100.331
21
-179.217
0
LINE
8
BLACK
6
CONTINUOUS
10
100.331
20
-179.217
11
100.103
21
-179.477
0
LINE
8
BLACK
6
CONTINUOUS
10
100.103
20
-179.477
11
100.109
21
-179.478
0
LINE
8
BLACK
6
CONTINUOUS
10
100.109
20
-179.478
11
100.113
21
-179.481
0
LINE
8
BLACK
6
CONTINUOUS
10
100.113
20
-179.481
11
100.117
21
-179.481
0
LINE
8
BLACK
6
CONTINUOUS
10
100.117
20
-179.481
11
100.213
21
-179.529
0
LINE
8
BLACK
6
CONTINUOUS
10
100.213
20
-179.529
11
100.231
21
-179.542
0
LINE
8
BLACK
6
CONTINUOUS
10
100.231
20
-179.542
11
100.232
21
-179.543
0
LINE
8
BLACK
6
CONTINUOUS
10
100.232
20
-179.543
11
100.28
21
-179.591
0
LINE
8
BLACK
6
CONTINUOUS
10
100.28
20
-179.591
11
100.293
21
-179.609
0
LINE
8
BLACK
6
CONTINUOUS
10
100.293
20
-179.609
11
100.294
21
-179.61
0
LINE
8
BLACK
6
CONTINUOUS
10
100.294
20
-179.61
11
100.341
21
-179.705
0
LINE
8
BLACK
6
CONTINUOUS
10
100.341
20
-179.705
11
100.349
21
-179.73
0
LINE
8
BLACK
6
CONTINUOUS
10
100.349
20
-179.73
11
100.348
21
-179.735
0
LINE
8
BLACK
6
CONTINUOUS
10
100.348
20
-179.735
11
100.349
21
-179.739
0
LINE
8
BLACK
6
CONTINUOUS
10
100.349
20
-179.739
11
100.349
21
-179.977
0
LINE
8
BLACK
6
CONTINUOUS
10
100.349
20
-179.977
11
100.345
21
-180.003
0
LINE
8
BLACK
6
CONTINUOUS
10
100.345
20
-180.003
11
100.342
21
-180.006
0
LINE
8
BLACK
6
CONTINUOUS
10
100.342
20
-180.006
11
100.341
21
-180.01
0
LINE
8
BLACK
6
CONTINUOUS
10
100.341
20
-180.01
11
100.294
21
-180.106
0
LINE
8
BLACK
6
CONTINUOUS
10
100.294
20
-180.106
11
100.28
21
-180.124
0
LINE
8
BLACK
6
CONTINUOUS
10
100.28
20
-180.124
11
100.28
21
-180.125
0
LINE
8
BLACK
6
CONTINUOUS
10
100.28
20
-180.125
11
100.232
21
-180.173
0
LINE
8
BLACK
6
CONTINUOUS
10
100.232
20
-180.173
11
100.214
21
-180.186
0
LINE
8
BLACK
6
CONTINUOUS
10
100.214
20
-180.186
11
100.213
21
-180.187
0
LINE
8
BLACK
6
CONTINUOUS
10
100.213
20
-180.187
11
100.117
21
-180.234
0
LINE
8
BLACK
6
CONTINUOUS
10
100.117
20
-180.234
11
100.092
21
-180.242
0
LINE
8
BLACK
6
CONTINUOUS
10
100.092
20
-180.242
11
100.088
21
-180.241
0
LINE
8
BLACK
6
CONTINUOUS
10
100.088
20
-180.241
11
100.084
21
-180.242
0
LINE
8
BLACK
6
CONTINUOUS
10
100.084
20
-180.242
11
99.7981
21
-180.242
0
LINE
8
BLACK
6
CONTINUOUS
10
99.7981
20
-180.242
11
99.7724
21
-180.238
0
LINE
8
BLACK
6
CONTINUOUS
10
99.7724
20
-180.238
11
99.769
21
-180.235
0
LINE
8
BLACK
6
CONTINUOUS
10
99.769
20
-180.235
11
99.7646
21
-180.234
0
LINE
8
BLACK
6
CONTINUOUS
10
99.7646
20
-180.234
11
99.6693
21
-180.187
0
LINE
8
BLACK
6
CONTINUOUS
10
99.6693
20
-180.187
11
99.6513
21
-180.173
0
LINE
8
BLACK
6
CONTINUOUS
10
99.6513
20
-180.173
11
99.6498
21
-180.173
0
LINE
8
BLACK
6
CONTINUOUS
10
99.6498
20
-180.173
11
99.6022
21
-180.125
0
LINE
8
BLACK
6
CONTINUOUS
10
99.6022
20
-180.125
11
99.5873
21
-180.104
0
LINE
8
BLACK
6
CONTINUOUS
10
99.5873
20
-180.104
11
99.5828
21
-180.053
0
LINE
8
BLACK
6
CONTINUOUS
10
99.5828
20
-180.053
11
99.6122
21
-180.011
0
LINE
8
BLACK
6
CONTINUOUS
10
99.6122
20
-180.011
11
99.6618
21
-179.997
0
LINE
8
BLACK
6
CONTINUOUS
10
99.6618
20
-179.997
11
99.7083
21
-180.019
0
LINE
8
BLACK
6
CONTINUOUS
10
99.7083
20
-180.019
11
99.7473
21
-180.058
0
LINE
8
BLACK
6
CONTINUOUS
10
99.7473
20
-180.058
11
99.8158
21
-180.092
0
LINE
8
BLACK
6
CONTINUOUS
10
99.8158
20
-180.092
11
100.066
21
-180.092
0
LINE
8
BLACK
6
CONTINUOUS
10
100.066
20
-180.092
11
100.135
21
-180.058
0
LINE
8
BLACK
6
CONTINUOUS
10
100.135
20
-180.058
11
100.165
21
-180.028
0
LINE
8
BLACK
6
CONTINUOUS
10
100.165
20
-180.028
11
100.199
21
-179.959
0
LINE
8
BLACK
6
CONTINUOUS
10
100.199
20
-179.959
11
100.199
21
-179.757
0
LINE
8
BLACK
6
CONTINUOUS
10
100.199
20
-179.757
11
100.165
21
-179.688
0
LINE
8
BLACK
6
CONTINUOUS
10
100.165
20
-179.688
11
100.135
21
-179.658
0
LINE
8
BLACK
6
CONTINUOUS
10
100.135
20
-179.658
11
100.066
21
-179.623
0
LINE
8
BLACK
6
CONTINUOUS
10
100.066
20
-179.623
11
99.941
21
-179.623
0
LINE
8
BLACK
6
CONTINUOUS
10
99.941
20
-179.623
11
99.9298
21
-179.621
0
LINE
8
BLACK
6
CONTINUOUS
10
99.9298
20
-179.621
11
99.9264
21
-179.622
0
LINE
8
BLACK
6
CONTINUOUS
10
99.9264
20
-179.622
11
99.9237
21
-179.62
0
LINE
8
BLACK
6
CONTINUOUS
10
99.9237
20
-179.62
11
99.9153
21
-179.619
0
LINE
8
BLACK
6
CONTINUOUS
10
99.9153
20
-179.619
11
99.8998
21
-179.606
0
LINE
8
BLACK
6
CONTINUOUS
10
99.8998
20
-179.606
11
99.8825
21
-179.595
0
LINE
8
BLACK
6
CONTINUOUS
10
99.8825
20
-179.595
11
99.8806
21
-179.59
0
LINE
8
BLACK
6
CONTINUOUS
10
99.8806
20
-179.59
11
99.876
21
-179.586
0
LINE
8
BLACK
6
CONTINUOUS
10
99.876
20
-179.586
11
99.8725
21
-179.566
0
LINE
8
BLACK
6
CONTINUOUS
10
99.8725
20
-179.566
11
99.866
21
-179.547
0
LINE
8
BLACK
6
CONTINUOUS
10
99.866
20
-179.547
11
99.8681
21
-179.541
0
LINE
8
BLACK
6
CONTINUOUS
10
99.8681
20
-179.541
11
99.8671
21
-179.535
0
LINE
8
BLACK
6
CONTINUOUS
10
99.8671
20
-179.535
11
99.8772
21
-179.518
0
LINE
8
BLACK
6
CONTINUOUS
10
99.8772
20
-179.518
11
99.8845
21
-179.499
0
LINE
8
BLACK
6
CONTINUOUS
10
99.8845
20
-179.499
11
100.109
21
-179.242
0
LINE
8
BLACK
6
CONTINUOUS
10
100.109
20
-179.242
11
99.6552
21
-179.242
0
LINE
8
BLACK
6
CONTINUOUS
10
99.6552
20
-179.242
11
99.6296
21
-179.238
0
LINE
8
BLACK
6
CONTINUOUS
10
99.6296
20
-179.238
11
99.5903
21
-179.205
0
LINE
8
BLACK
6
CONTINUOUS
10
99.5903
20
-179.205
11
99.5814
21
-179.154
0
LINE
8
BLACK
6
CONTINUOUS
10
99.5814
20
-179.154
11
99.607
21
-179.11
0
LINE
8
BLACK
6
CONTINUOUS
10
99.607
20
-179.11
11
99.6552
21
-179.092
0
LINE
8
BLACK
6
CONTINUOUS
10
99.6552
20
-179.092
11
100.274
21
-179.092
0
LINE
8
BLACK
6
CONTINUOUS
10
100.274
20
-179.092
11
100.285
21
-179.094
0
LINE
8
BLACK
6
CONTINUOUS
10
98.7897
20
-179.103
11
98.8216
21
-179.144
0
LINE
8
BLACK
6
CONTINUOUS
10
98.8216
20
-179.144
11
99.0838
21
-179.93
0
LINE
8
BLACK
6
CONTINUOUS
10
99.0838
20
-179.93
11
99.346
21
-179.144
0
LINE
8
BLACK
6
CONTINUOUS
10
99.346
20
-179.144
11
99.3584
21
-179.121
0
LINE
8
BLACK
6
CONTINUOUS
10
99.3584
20
-179.121
11
99.4021
21
-179.094
0
LINE
8
BLACK
6
CONTINUOUS
10
99.4021
20
-179.094
11
99.4529
21
-179.101
0
LINE
8
BLACK
6
CONTINUOUS
10
99.4529
20
-179.101
11
99.4869
21
-179.14
0
LINE
8
BLACK
6
CONTINUOUS
10
99.4869
20
-179.14
11
99.4883
21
-179.191
0
LINE
8
BLACK
6
CONTINUOUS
10
99.4883
20
-179.191
11
99.155
21
-180.191
0
LINE
8
BLACK
6
CONTINUOUS
10
99.155
20
-180.191
11
99.1426
21
-180.214
0
LINE
8
BLACK
6
CONTINUOUS
10
99.1426
20
-180.214
11
99.1407
21
-180.215
0
LINE
8
BLACK
6
CONTINUOUS
10
99.1407
20
-180.215
11
99.1399
21
-180.217
0
LINE
8
BLACK
6
CONTINUOUS
10
99.1399
20
-180.217
11
99.1191
21
-180.228
0
LINE
8
BLACK
6
CONTINUOUS
10
99.1191
20
-180.228
11
99.0988
21
-180.241
0
LINE
8
BLACK
6
CONTINUOUS
10
99.0988
20
-180.241
11
99.0967
21
-180.241
0
LINE
8
BLACK
6
CONTINUOUS
10
99.0967
20
-180.241
11
99.0948
21
-180.242
0
LINE
8
BLACK
6
CONTINUOUS
10
99.0948
20
-180.242
11
99.0716
21
-180.237
0
LINE
8
BLACK
6
CONTINUOUS
10
99.0716
20
-180.237
11
99.0481
21
-180.233
0
LINE
8
BLACK
6
CONTINUOUS
10
99.0481
20
-180.233
11
99.0467
21
-180.232
0
LINE
8
BLACK
6
CONTINUOUS
10
99.0467
20
-180.232
11
99.0445
21
-180.231
0
LINE
8
BLACK
6
CONTINUOUS
10
99.0445
20
-180.231
11
99.0298
21
-180.213
0
LINE
8
BLACK
6
CONTINUOUS
10
99.0298
20
-180.213
11
99.0141
21
-180.195
0
LINE
8
BLACK
6
CONTINUOUS
10
99.0141
20
-180.195
11
99.014
21
-180.193
0
LINE
8
BLACK
6
CONTINUOUS
10
99.014
20
-180.193
11
99.0127
21
-180.191
0
LINE
8
BLACK
6
CONTINUOUS
10
99.0127
20
-180.191
11
98.6793
21
-179.191
0
LINE
8
BLACK
6
CONTINUOUS
10
98.6793
20
-179.191
11
98.6755
21
-179.165
0
LINE
8
BLACK
6
CONTINUOUS
10
98.6755
20
-179.165
11
98.6944
21
-179.118
0
LINE
8
BLACK
6
CONTINUOUS
10
98.6944
20
-179.118
11
98.7395
21
-179.093
0
LINE
8
BLACK
6
CONTINUOUS
10
98.7395
20
-179.093
11
98.7897
21
-179.103
0
LINE
8
BLACK
6
CONTINUOUS
10
98.2999
20
-179.097
11
98.3034
21
-179.1
0
LINE
8
BLACK
6
CONTINUOUS
10
98.3034
20
-179.1
11
98.3078
21
-179.1
0
LINE
8
BLACK
6
CONTINUOUS
10
98.3078
20
-179.1
11
98.4031
21
-179.148
0
LINE
8
BLACK
6
CONTINUOUS
10
98.4031
20
-179.148
11
98.4211
21
-179.161
0
LINE
8
BLACK
6
CONTINUOUS
10
98.4211
20
-179.161
11
98.4226
21
-179.162
0
LINE
8
BLACK
6
CONTINUOUS
10
98.4226
20
-179.162
11
98.4702
21
-179.21
0
LINE
8
BLACK
6
CONTINUOUS
10
98.4702
20
-179.21
11
98.483
21
-179.228
0
LINE
8
BLACK
6
CONTINUOUS
10
98.483
20
-179.228
11
98.4842
21
-179.229
0
LINE
8
BLACK
6
CONTINUOUS
10
98.4842
20
-179.229
11
98.5318
21
-179.324
0
LINE
8
BLACK
6
CONTINUOUS
10
98.5318
20
-179.324
11
98.5393
21
-179.349
0
LINE
8
BLACK
6
CONTINUOUS
10
98.5393
20
-179.349
11
98.5382
21
-179.354
0
LINE
8
BLACK
6
CONTINUOUS
10
98.5382
20
-179.354
11
98.5398
21
-179.358
0
LINE
8
BLACK
6
CONTINUOUS
10
98.5398
20
-179.358
11
98.5398
21
-179.501
0
LINE
8
BLACK
6
CONTINUOUS
10
98.5398
20
-179.501
11
98.5352
21
-179.526
0
LINE
8
BLACK
6
CONTINUOUS
10
98.5352
20
-179.526
11
98.5324
21
-179.53
0
LINE
8
BLACK
6
CONTINUOUS
10
98.5324
20
-179.53
11
98.5318
21
-179.534
0
LINE
8
BLACK
6
CONTINUOUS
10
98.5318
20
-179.534
11
98.4842
21
-179.629
0
LINE
8
BLACK
6
CONTINUOUS
10
98.4842
20
-179.629
11
98.4709
21
-179.648
0
LINE
8
BLACK
6
CONTINUOUS
10
98.4709
20
-179.648
11
98.4702
21
-179.649
0
LINE
8
BLACK
6
CONTINUOUS
10
98.4702
20
-179.649
11
98.4226
21
-179.697
0
LINE
8
BLACK
6
CONTINUOUS
10
98.4226
20
-179.697
11
98.4042
21
-179.709
0
LINE
8
BLACK
6
CONTINUOUS
10
98.4042
20
-179.709
11
98.4031
21
-179.711
0
LINE
8
BLACK
6
CONTINUOUS
10
98.4031
20
-179.711
11
98.3078
21
-179.758
0
LINE
8
BLACK
6
CONTINUOUS
10
98.3078
20
-179.758
11
98.2829
21
-179.766
0
LINE
8
BLACK
6
CONTINUOUS
10
98.2829
20
-179.766
11
98.2785
21
-179.765
0
LINE
8
BLACK
6
CONTINUOUS
10
98.2785
20
-179.765
11
98.2752
21
-179.766
0
LINE
8
BLACK
6
CONTINUOUS
10
98.2752
20
-179.766
11
98.5262
21
-180.124
0
LINE
8
BLACK
6
CONTINUOUS
10
98.5262
20
-180.124
11
98.5372
21
-180.148
0
LINE
8
BLACK
6
CONTINUOUS
10
98.5372
20
-180.148
11
98.5327
21
-180.199
0
LINE
8
BLACK
6
CONTINUOUS
10
98.5327
20
-180.199
11
98.4964
21
-180.235
0
LINE
8
BLACK
6
CONTINUOUS
10
98.4964
20
-180.235
11
98.4453
21
-180.24
0
LINE
8
BLACK
6
CONTINUOUS
10
98.4453
20
-180.24
11
98.4033
21
-180.21
0
LINE
8
BLACK
6
CONTINUOUS
10
98.4033
20
-180.21
11
98.0924
21
-179.766
0
LINE
8
BLACK
6
CONTINUOUS
10
98.0924
20
-179.766
11
97.9683
21
-179.766
0
LINE
8
BLACK
6
CONTINUOUS
10
97.9683
20
-179.766
11
97.9683
21
-180.167
0
LINE
8
BLACK
6
CONTINUOUS
10
97.9683
20
-180.167
11
97.9638
21
-180.193
0
LINE
8
BLACK
6
CONTINUOUS
10
97.9638
20
-180.193
11
97.9308
21
-180.232
0
LINE
8
BLACK
6
CONTINUOUS
10
97.9308
20
-180.232
11
97.8803
21
-180.241
0
LINE
8
BLACK
6
CONTINUOUS
10
97.8803
20
-180.241
11
97.8359
21
-180.216
0
LINE
8
BLACK
6
CONTINUOUS
10
97.8359
20
-180.216
11
97.8183
21
-180.167
0
LINE
8
BLACK
6
CONTINUOUS
10
97.8183
20
-180.167
11
97.8183
21
-179.167
0
LINE
8
BLACK
6
CONTINUOUS
10
97.8183
20
-179.167
11
97.8201
21
-179.158
0
LINE
8
BLACK
6
CONTINUOUS
10
97.8201
20
-179.158
11
97.8195
21
-179.154
0
LINE
8
BLACK
6
CONTINUOUS
10
97.8195
20
-179.154
11
97.8211
21
-179.151
0
LINE
8
BLACK
6
CONTINUOUS
10
97.8211
20
-179.151
11
97.8229
21
-179.142
0
LINE
8
BLACK
6
CONTINUOUS
10
97.8229
20
-179.142
11
97.8354
21
-179.127
0
LINE
8
BLACK
6
CONTINUOUS
10
97.8354
20
-179.127
11
97.8451
21
-179.11
0
LINE
8
BLACK
6
CONTINUOUS
10
97.8451
20
-179.11
11
97.8515
21
-179.108
0
LINE
8
BLACK
6
CONTINUOUS
10
97.8515
20
-179.108
11
97.8558
21
-179.102
0
LINE
8
BLACK
6
CONTINUOUS
10
97.8558
20
-179.102
11
97.875
21
-179.099
0
LINE
8
BLACK
6
CONTINUOUS
10
97.875
20
-179.099
11
97.8933
21
-179.092
0
LINE
8
BLACK
6
CONTINUOUS
10
97.8933
20
-179.092
11
98.2743
21
-179.092
0
LINE
8
BLACK
6
CONTINUOUS
10
98.2743
20
-179.092
11
98.2999
21
-179.097
0
LINE
8
BLACK
6
CONTINUOUS
10
97.9683
20
-179.242
11
97.9683
21
-179.616
0
LINE
8
BLACK
6
CONTINUOUS
10
97.9683
20
-179.616
11
98.2566
21
-179.616
0
LINE
8
BLACK
6
CONTINUOUS
10
98.2566
20
-179.616
11
98.3251
21
-179.582
0
LINE
8
BLACK
6
CONTINUOUS
10
98.3251
20
-179.582
11
98.3555
21
-179.552
0
LINE
8
BLACK
6
CONTINUOUS
10
98.3555
20
-179.552
11
98.3898
21
-179.483
0
LINE
8
BLACK
6
CONTINUOUS
10
98.3898
20
-179.483
11
98.3898
21
-179.376
0
LINE
8
BLACK
6
CONTINUOUS
10
98.3898
20
-179.376
11
98.3555
21
-179.307
0
LINE
8
BLACK
6
CONTINUOUS
10
98.3555
20
-179.307
11
98.3251
21
-179.277
0
LINE
8
BLACK
6
CONTINUOUS
10
98.3251
20
-179.277
11
98.2566
21
-179.242
0
LINE
8
BLACK
6
CONTINUOUS
10
98.2566
20
-179.242
11
97.9683
21
-179.242
0
LINE
8
BLACK
6
CONTINUOUS
10
99.3024
20
-174.073
11
99.32
21
-174.115
0
LINE
8
BLACK
6
CONTINUOUS
10
99.32
20
-174.115
11
99.32
21
-178.775
0
LINE
8
BLACK
6
CONTINUOUS
10
99.32
20
-178.775
11
100.45
21
-178.775
0
LINE
8
BLACK
6
CONTINUOUS
10
100.45
20
-178.775
11
100.492
21
-178.793
0
LINE
8
BLACK
6
CONTINUOUS
10
100.492
20
-178.793
11
100.51
21
-178.835
0
LINE
8
BLACK
6
CONTINUOUS
10
100.51
20
-178.835
11
100.492
21
-178.877
0
LINE
8
BLACK
6
CONTINUOUS
10
100.492
20
-178.877
11
100.45
21
-178.895
0
LINE
8
BLACK
6
CONTINUOUS
10
100.45
20
-178.895
11
99.27
21
-178.895
0
LINE
8
BLACK
6
CONTINUOUS
10
99.27
20
-178.895
11
99.265
21
-178.893
0
LINE
8
BLACK
6
CONTINUOUS
10
99.265
20
-178.893
11
99.26
21
-178.895
0
LINE
8
BLACK
6
CONTINUOUS
10
99.26
20
-178.895
11
99.2176
21
-178.877
0
LINE
8
BLACK
6
CONTINUOUS
10
99.2176
20
-178.877
11
99.2
21
-178.835
0
LINE
8
BLACK
6
CONTINUOUS
10
99.2
20
-178.835
11
99.2
21
-174.115
0
LINE
8
BLACK
6
CONTINUOUS
10
99.2
20
-174.115
11
99.2176
21
-174.073
0
LINE
8
BLACK
6
CONTINUOUS
10
99.2176
20
-174.073
11
99.26
21
-174.055
0
LINE
8
BLACK
6
CONTINUOUS
10
99.26
20
-174.055
11
99.3024
21
-174.073
0
LINE
8
BLACK
6
CONTINUOUS
10
105.842
20
-178.793
11
105.86
21
-178.835
0
LINE
8
BLACK
6
CONTINUOUS
10
105.86
20
-178.835
11
105.842
21
-178.877
0
LINE
8
BLACK
6
CONTINUOUS
10
105.842
20
-178.877
11
105.8
21
-178.895
0
LINE
8
BLACK
6
CONTINUOUS
10
105.8
20
-178.895
11
104.97
21
-178.895
0
LINE
8
BLACK
6
CONTINUOUS
10
104.97
20
-178.895
11
104.928
21
-178.877
0
LINE
8
BLACK
6
CONTINUOUS
10
104.928
20
-178.877
11
104.91
21
-178.835
0
LINE
8
BLACK
6
CONTINUOUS
10
104.91
20
-178.835
11
104.928
21
-178.793
0
LINE
8
BLACK
6
CONTINUOUS
10
104.928
20
-178.793
11
104.97
21
-178.775
0
LINE
8
BLACK
6
CONTINUOUS
10
104.97
20
-178.775
11
105.8
21
-178.775
0
LINE
8
BLACK
6
CONTINUOUS
10
105.8
20
-178.775
11
105.842
21
-178.793
0
LINE
8
BLACK
6
CONTINUOUS
10
103.392
20
-178.793
11
103.41
21
-178.835
0
LINE
8
BLACK
6
CONTINUOUS
10
103.41
20
-178.835
11
103.392
21
-178.877
0
LINE
8
BLACK
6
CONTINUOUS
10
103.392
20
-178.877
11
103.35
21
-178.895
0
LINE
8
BLACK
6
CONTINUOUS
10
103.35
20
-178.895
11
102.82
21
-178.895
0
LINE
8
BLACK
6
CONTINUOUS
10
102.82
20
-178.895
11
102.778
21
-178.877
0
LINE
8
BLACK
6
CONTINUOUS
10
102.778
20
-178.877
11
102.76
21
-178.835
0
LINE
8
BLACK
6
CONTINUOUS
10
102.76
20
-178.835
11
102.778
21
-178.793
0
LINE
8
BLACK
6
CONTINUOUS
10
102.778
20
-178.793
11
102.82
21
-178.775
0
LINE
8
BLACK
6
CONTINUOUS
10
102.82
20
-178.775
11
103.35
21
-178.775
0
LINE
8
BLACK
6
CONTINUOUS
10
103.35
20
-178.775
11
103.392
21
-178.793
0
LINE
8
BLACK
6
CONTINUOUS
10
107.478
20
-178.877
11
107.46
21
-178.835
0
LINE
8
BLACK
6
CONTINUOUS
10
107.46
20
-178.835
11
107.478
21
-178.793
0
LINE
8
BLACK
6
CONTINUOUS
10
107.478
20
-178.793
11
107.52
21
-178.775
0
LINE
8
BLACK
6
CONTINUOUS
10
107.52
20
-178.775
11
108.95
21
-178.775
0
LINE
8
BLACK
6
CONTINUOUS
10
108.95
20
-178.775
11
108.95
21
-174.115
0
LINE
8
BLACK
6
CONTINUOUS
10
108.95
20
-174.115
11
108.968
21
-174.073
0
LINE
8
BLACK
6
CONTINUOUS
10
108.968
20
-174.073
11
109.01
21
-174.055
0
LINE
8
BLACK
6
CONTINUOUS
10
109.01
20
-174.055
11
109.052
21
-174.073
0
LINE
8
BLACK
6
CONTINUOUS
10
109.052
20
-174.073
11
109.07
21
-174.115
0
LINE
8
BLACK
6
CONTINUOUS
10
109.07
20
-174.115
11
109.07
21
-178.835
0
LINE
8
BLACK
6
CONTINUOUS
10
109.07
20
-178.835
11
109.052
21
-178.877
0
LINE
8
BLACK
6
CONTINUOUS
10
109.052
20
-178.877
11
109.01
21
-178.895
0
LINE
8
BLACK
6
CONTINUOUS
10
109.01
20
-178.895
11
107.52
21
-178.895
0
LINE
8
BLACK
6
CONTINUOUS
10
107.52
20
-178.895
11
107.478
21
-178.877
0
LINE
8
BLACK
6
CONTINUOUS
10
109.052
20
-167.203
11
109.07
21
-167.245
0
LINE
8
BLACK
6
CONTINUOUS
10
109.07
20
-167.245
11
109.07
21
-170.305
0
LINE
8
BLACK
6
CONTINUOUS
10
109.07
20
-170.305
11
109.052
21
-170.347
0
LINE
8
BLACK
6
CONTINUOUS
10
109.052
20
-170.347
11
109.01
21
-170.365
0
LINE
8
BLACK
6
CONTINUOUS
10
109.01
20
-170.365
11
108.968
21
-170.347
0
LINE
8
BLACK
6
CONTINUOUS
10
108.968
20
-170.347
11
108.95
21
-170.305
0
LINE
8
BLACK
6
CONTINUOUS
10
108.95
20
-170.305
11
108.95
21
-167.305
0
LINE
8
BLACK
6
CONTINUOUS
10
108.95
20
-167.305
11
99.33
21
-167.305
0
LINE
8
BLACK
6
CONTINUOUS
10
99.33
20
-167.305
11
99.33
21
-170.305
0
LINE
8
BLACK
6
CONTINUOUS
10
99.33
20
-170.305
11
99.3124
21
-170.347
0
LINE
8
BLACK
6
CONTINUOUS
10
99.3124
20
-170.347
11
99.27
21
-170.365
0
LINE
8
BLACK
6
CONTINUOUS
10
99.27
20
-170.365
11
99.2276
21
-170.347
0
LINE
8
BLACK
6
CONTINUOUS
10
99.2276
20
-170.347
11
99.21
21
-170.305
0
LINE
8
BLACK
6
CONTINUOUS
10
99.21
20
-170.305
11
99.21
21
-167.245
0
LINE
8
BLACK
6
CONTINUOUS
10
99.21
20
-167.245
11
99.2276
21
-167.203
0
LINE
8
BLACK
6
CONTINUOUS
10
99.2276
20
-167.203
11
99.27
21
-167.185
0
LINE
8
BLACK
6
CONTINUOUS
10
99.27
20
-167.185
11
109.01
21
-167.185
0
LINE
8
BLACK
6
CONTINUOUS
10
109.01
20
-167.185
11
109.052
21
-167.203
0
LINE
8
BLACK
6
CONTINUOUS
10
100.109
20
-134.647
11
100.113
21
-134.65
0
LINE
8
BLACK
6
CONTINUOUS
10
100.113
20
-134.65
11
100.117
21
-134.65
0
LINE
8
BLACK
6
CONTINUOUS
10
100.117
20
-134.65
11
100.213
21
-134.698
0
LINE
8
BLACK
6
CONTINUOUS
10
100.213
20
-134.698
11
100.231
21
-134.711
0
LINE
8
BLACK
6
CONTINUOUS
10
100.231
20
-134.711
11
100.232
21
-134.712
0
LINE
8
BLACK
6
CONTINUOUS
10
100.232
20
-134.712
11
100.28
21
-134.76
0
LINE
8
BLACK
6
CONTINUOUS
10
100.28
20
-134.76
11
100.293
21
-134.778
0
LINE
8
BLACK
6
CONTINUOUS
10
100.293
20
-134.778
11
100.294
21
-134.779
0
LINE
8
BLACK
6
CONTINUOUS
10
100.294
20
-134.779
11
100.341
21
-134.874
0
LINE
8
BLACK
6
CONTINUOUS
10
100.341
20
-134.874
11
100.349
21
-134.899
0
LINE
8
BLACK
6
CONTINUOUS
10
100.349
20
-134.899
11
100.348
21
-134.904
0
LINE
8
BLACK
6
CONTINUOUS
10
100.348
20
-134.904
11
100.349
21
-134.908
0
LINE
8
BLACK
6
CONTINUOUS
10
100.349
20
-134.908
11
100.349
21
-135.003
0
LINE
8
BLACK
6
CONTINUOUS
10
100.349
20
-135.003
11
100.345
21
-135.025
0
LINE
8
BLACK
6
CONTINUOUS
10
100.345
20
-135.025
11
100.345
21
-135.027
0
LINE
8
BLACK
6
CONTINUOUS
10
100.345
20
-135.027
11
100.298
21
-135.17
0
LINE
8
BLACK
6
CONTINUOUS
10
100.298
20
-135.17
11
100.285
21
-135.193
0
LINE
8
BLACK
6
CONTINUOUS
10
100.285
20
-135.193
11
100.282
21
-135.195
0
LINE
8
BLACK
6
CONTINUOUS
10
100.282
20
-135.195
11
100.28
21
-135.199
0
LINE
8
BLACK
6
CONTINUOUS
10
100.28
20
-135.199
11
99.8363
21
-135.642
0
LINE
8
BLACK
6
CONTINUOUS
10
99.8363
20
-135.642
11
100.274
21
-135.642
0
LINE
8
BLACK
6
CONTINUOUS
10
100.274
20
-135.642
11
100.3
21
-135.647
0
LINE
8
BLACK
6
CONTINUOUS
10
100.3
20
-135.647
11
100.339
21
-135.68
0
LINE
8
BLACK
6
CONTINUOUS
10
100.339
20
-135.68
11
100.348
21
-135.73
0
LINE
8
BLACK
6
CONTINUOUS
10
100.348
20
-135.73
11
100.322
21
-135.775
0
LINE
8
BLACK
6
CONTINUOUS
10
100.322
20
-135.775
11
100.274
21
-135.792
0
LINE
8
BLACK
6
CONTINUOUS
10
100.274
20
-135.792
11
99.6552
21
-135.792
0
LINE
8
BLACK
6
CONTINUOUS
10
99.6552
20
-135.792
11
99.6391
21
-135.79
0
LINE
8
BLACK
6
CONTINUOUS
10
99.6391
20
-135.79
11
99.6358
21
-135.79
0
LINE
8
BLACK
6
CONTINUOUS
10
99.6358
20
-135.79
11
99.6342
21
-135.789
0
LINE
8
BLACK
6
CONTINUOUS
10
99.6342
20
-135.789
11
99.6296
21
-135.788
0
LINE
8
BLACK
6
CONTINUOUS
10
99.6296
20
-135.788
11
99.6123
21
-135.773
0
LINE
8
BLACK
6
CONTINUOUS
10
99.6123
20
-135.773
11
99.5938
21
-135.76
0
LINE
8
BLACK
6
CONTINUOUS
10
99.5938
20
-135.76
11
99.5929
21
-135.757
0
LINE
8
BLACK
6
CONTINUOUS
10
99.5929
20
-135.757
11
99.5903
21
-135.755
0
LINE
8
BLACK
6
CONTINUOUS
10
99.5903
20
-135.755
11
99.5864
21
-135.733
0
LINE
8
BLACK
6
CONTINUOUS
10
99.5864
20
-135.733
11
99.5805
21
-135.711
0
LINE
8
BLACK
6
CONTINUOUS
10
99.5805
20
-135.711
11
99.582
21
-135.708
0
LINE
8
BLACK
6
CONTINUOUS
10
99.582
20
-135.708
11
99.5814
21
-135.704
0
LINE
8
BLACK
6
CONTINUOUS
10
99.5814
20
-135.704
11
99.5927
21
-135.685
0
LINE
8
BLACK
6
CONTINUOUS
10
99.5927
20
-135.685
11
99.6022
21
-135.664
0
LINE
8
BLACK
6
CONTINUOUS
10
99.6022
20
-135.664
11
100.161
21
-135.105
0
LINE
8
BLACK
6
CONTINUOUS
10
100.161
20
-135.105
11
100.199
21
-134.991
0
LINE
8
BLACK
6
CONTINUOUS
10
100.199
20
-134.991
11
100.199
21
-134.926
0
LINE
8
BLACK
6
CONTINUOUS
10
100.199
20
-134.926
11
100.165
21
-134.857
0
LINE
8
BLACK
6
CONTINUOUS
10
100.165
20
-134.857
11
100.135
21
-134.827
0
LINE
8
BLACK
6
CONTINUOUS
10
100.135
20
-134.827
11
100.066
21
-134.792
0
LINE
8
BLACK
6
CONTINUOUS
10
100.066
20
-134.792
11
99.8634
21
-134.792
0
LINE
8
BLACK
6
CONTINUOUS
10
99.8634
20
-134.792
11
99.7949
21
-134.827
0
LINE
8
BLACK
6
CONTINUOUS
10
99.7949
20
-134.827
11
99.7559
21
-134.866
0
LINE
8
BLACK
6
CONTINUOUS
10
99.7559
20
-134.866
11
99.7346
21
-134.881
0
LINE
8
BLACK
6
CONTINUOUS
10
99.7346
20
-134.881
11
99.6834
21
-134.885
0
LINE
8
BLACK
6
CONTINUOUS
10
99.6834
20
-134.885
11
99.6414
21
-134.856
0
LINE
8
BLACK
6
CONTINUOUS
10
99.6414
20
-134.856
11
99.6281
21
-134.806
0
LINE
8
BLACK
6
CONTINUOUS
10
99.6281
20
-134.806
11
99.6498
21
-134.76
0
LINE
8
BLACK
6
CONTINUOUS
10
99.6498
20
-134.76
11
99.6974
21
-134.712
0
LINE
8
BLACK
6
CONTINUOUS
10
99.6974
20
-134.712
11
99.7158
21
-134.699
0
LINE
8
BLACK
6
CONTINUOUS
10
99.7158
20
-134.699
11
99.7169
21
-134.698
0
LINE
8
BLACK
6
CONTINUOUS
10
99.7169
20
-134.698
11
99.8122
21
-134.65
0
LINE
8
BLACK
6
CONTINUOUS
10
99.8122
20
-134.65
11
99.8371
21
-134.643
0
LINE
8
BLACK
6
CONTINUOUS
10
99.8371
20
-134.643
11
99.8415
21
-134.644
0
LINE
8
BLACK
6
CONTINUOUS
10
99.8415
20
-134.644
11
99.8457
21
-134.642
0
LINE
8
BLACK
6
CONTINUOUS
10
99.8457
20
-134.642
11
100.084
21
-134.642
0
LINE
8
BLACK
6
CONTINUOUS
10
100.084
20
-134.642
11
100.109
21
-134.647
0
LINE
8
BLACK
6
CONTINUOUS
10
98.7897
20
-134.653
11
98.8216
21
-134.694
0
LINE
8
BLACK
6
CONTINUOUS
10
98.8216
20
-134.694
11
99.0838
21
-135.48
0
LINE
8
BLACK
6
CONTINUOUS
10
99.0838
20
-135.48
11
99.346
21
-134.694
0
LINE
8
BLACK
6
CONTINUOUS
10
99.346
20
-134.694
11
99.3584
21
-134.671
0
LINE
8
BLACK
6
CONTINUOUS
10
99.3584
20
-134.671
11
99.4021
21
-134.644
0
LINE
8
BLACK
6
CONTINUOUS
10
99.4021
20
-134.644
11
99.4529
21
-134.651
0
LINE
8
BLACK
6
CONTINUOUS
10
99.4529
20
-134.651
11
99.4869
21
-134.69
0
LINE
8
BLACK
6
CONTINUOUS
10
99.4869
20
-134.69
11
99.4883
21
-134.741
0
LINE
8
BLACK
6
CONTINUOUS
10
99.4883
20
-134.741
11
99.155
21
-135.741
0
LINE
8
BLACK
6
CONTINUOUS
10
99.155
20
-135.741
11
99.1426
21
-135.764
0
LINE
8
BLACK
6
CONTINUOUS
10
99.1426
20
-135.764
11
99.1407
21
-135.765
0
LINE
8
BLACK
6
CONTINUOUS
10
99.1407
20
-135.765
11
99.1399
21
-135.767
0
LINE
8
BLACK
6
CONTINUOUS
10
99.1399
20
-135.767
11
99.1191
21
-135.778
0
LINE
8
BLACK
6
CONTINUOUS
10
99.1191
20
-135.778
11
99.0988
21
-135.791
0
LINE
8
BLACK
6
CONTINUOUS
10
99.0988
20
-135.791
11
99.0967
21
-135.791
0
LINE
8
BLACK
6
CONTINUOUS
10
99.0967
20
-135.791
11
99.0948
21
-135.792
0
LINE
8
BLACK
6
CONTINUOUS
10
99.0948
20
-135.792
11
99.0716
21
-135.787
0
LINE
8
BLACK
6
CONTINUOUS
10
99.0716
20
-135.787
11
99.0481
21
-135.783
0
LINE
8
BLACK
6
CONTINUOUS
10
99.0481
20
-135.783
11
99.0467
21
-135.782
0
LINE
8
BLACK
6
CONTINUOUS
10
99.0467
20
-135.782
11
99.0445
21
-135.781
0
LINE
8
BLACK
6
CONTINUOUS
10
99.0445
20
-135.781
11
99.0298
21
-135.763
0
LINE
8
BLACK
6
CONTINUOUS
10
99.0298
20
-135.763
11
99.0141
21
-135.745
0
LINE
8
BLACK
6
CONTINUOUS
10
99.0141
20
-135.745
11
99.014
21
-135.743
0
LINE
8
BLACK
6
CONTINUOUS
10
99.014
20
-135.743
11
99.0127
21
-135.741
0
LINE
8
BLACK
6
CONTINUOUS
10
99.0127
20
-135.741
11
98.6793
21
-134.741
0
LINE
8
BLACK
6
CONTINUOUS
10
98.6793
20
-134.741
11
98.6755
21
-134.715
0
LINE
8
BLACK
6
CONTINUOUS
10
98.6755
20
-134.715
11
98.6944
21
-134.668
0
LINE
8
BLACK
6
CONTINUOUS
10
98.6944
20
-134.668
11
98.7395
21
-134.643
0
LINE
8
BLACK
6
CONTINUOUS
10
98.7395
20
-134.643
11
98.7897
21
-134.653
0
LINE
8
BLACK
6
CONTINUOUS
10
98.2999
20
-134.647
11
98.3034
21
-134.65
0
LINE
8
BLACK
6
CONTINUOUS
10
98.3034
20
-134.65
11
98.3078
21
-134.65
0
LINE
8
BLACK
6
CONTINUOUS
10
98.3078
20
-134.65
11
98.4031
21
-134.698
0
LINE
8
BLACK
6
CONTINUOUS
10
98.4031
20
-134.698
11
98.4211
21
-134.711
0
LINE
8
BLACK
6
CONTINUOUS
10
98.4211
20
-134.711
11
98.4226
21
-134.712
0
LINE
8
BLACK
6
CONTINUOUS
10
98.4226
20
-134.712
11
98.4702
21
-134.76
0
LINE
8
BLACK
6
CONTINUOUS
10
98.4702
20
-134.76
11
98.483
21
-134.778
0
LINE
8
BLACK
6
CONTINUOUS
10
98.483
20
-134.778
11
98.4842
21
-134.779
0
LINE
8
BLACK
6
CONTINUOUS
10
98.4842
20
-134.779
11
98.5318
21
-134.874
0
LINE
8
BLACK
6
CONTINUOUS
10
98.5318
20
-134.874
11
98.5393
21
-134.899
0
LINE
8
BLACK
6
CONTINUOUS
10
98.5393
20
-134.899
11
98.5382
21
-134.904
0
LINE
8
BLACK
6
CONTINUOUS
10
98.5382
20
-134.904
11
98.5398
21
-134.908
0
LINE
8
BLACK
6
CONTINUOUS
10
98.5398
20
-134.908
11
98.5398
21
-135.051
0
LINE
8
BLACK
6
CONTINUOUS
10
98.5398
20
-135.051
11
98.5352
21
-135.076
0
LINE
8
BLACK
6
CONTINUOUS
10
98.5352
20
-135.076
11
98.5324
21
-135.08
0
LINE
8
BLACK
6
CONTINUOUS
10
98.5324
20
-135.08
11
98.5318
21
-135.084
0
LINE
8
BLACK
6
CONTINUOUS
10
98.5318
20
-135.084
11
98.4842
21
-135.179
0
LINE
8
BLACK
6
CONTINUOUS
10
98.4842
20
-135.179
11
98.4709
21
-135.198
0
LINE
8
BLACK
6
CONTINUOUS
10
98.4709
20
-135.198
11
98.4702
21
-135.199
0
LINE
8
BLACK
6
CONTINUOUS
10
98.4702
20
-135.199
11
98.4226
21
-135.247
0
LINE
8
BLACK
6
CONTINUOUS
10
98.4226
20
-135.247
11
98.4042
21
-135.259
0
LINE
8
BLACK
6
CONTINUOUS
10
98.4042
20
-135.259
11
98.4031
21
-135.261
0
LINE
8
BLACK
6
CONTINUOUS
10
98.4031
20
-135.261
11
98.3078
21
-135.308
0
LINE
8
BLACK
6
CONTINUOUS
10
98.3078
20
-135.308
11
98.2829
21
-135.316
0
LINE
8
BLACK
6
CONTINUOUS
10
98.2829
20
-135.316
11
98.2785
21
-135.315
0
LINE
8
BLACK
6
CONTINUOUS
10
98.2785
20
-135.315
11
98.2752
21
-135.316
0
LINE
8
BLACK
6
CONTINUOUS
10
98.2752
20
-135.316
11
98.5262
21
-135.674
0
LINE
8
BLACK
6
CONTINUOUS
10
98.5262
20
-135.674
11
98.5372
21
-135.698
0
LINE
8
BLACK
6
CONTINUOUS
10
98.5372
20
-135.698
11
98.5327
21
-135.749
0
LINE
8
BLACK
6
CONTINUOUS
10
98.5327
20
-135.749
11
98.4964
21
-135.785
0
LINE
8
BLACK
6
CONTINUOUS
10
98.4964
20
-135.785
11
98.4453
21
-135.79
0
LINE
8
BLACK
6
CONTINUOUS
10
98.4453
20
-135.79
11
98.4033
21
-135.76
0
LINE
8
BLACK
6
CONTINUOUS
10
98.4033
20
-135.76
11
98.0924
21
-135.316
0
LINE
8
BLACK
6
CONTINUOUS
10
98.0924
20
-135.316
11
97.9683
21
-135.316
0
LINE
8
BLACK
6
CONTINUOUS
10
97.9683
20
-135.316
11
97.9683
21
-135.717
0
LINE
8
BLACK
6
CONTINUOUS
10
97.9683
20
-135.717
11
97.9638
21
-135.743
0
LINE
8
BLACK
6
CONTINUOUS
10
97.9638
20
-135.743
11
97.9308
21
-135.782
0
LINE
8
BLACK
6
CONTINUOUS
10
97.9308
20
-135.782
11
97.8803
21
-135.791
0
LINE
8
BLACK
6
CONTINUOUS
10
97.8803
20
-135.791
11
97.8359
21
-135.766
0
LINE
8
BLACK
6
CONTINUOUS
10
97.8359
20
-135.766
11
97.8183
21
-135.717
0
LINE
8
BLACK
6
CONTINUOUS
10
97.8183
20
-135.717
11
97.8183
21
-134.717
0
LINE
8
BLACK
6
CONTINUOUS
10
97.8183
20
-134.717
11
97.8201
21
-134.708
0
LINE
8
BLACK
6
CONTINUOUS
10
97.8201
20
-134.708
11
97.8195
21
-134.704
0
LINE
8
BLACK
6
CONTINUOUS
10
97.8195
20
-134.704
11
97.8211
21
-134.701
0
LINE
8
BLACK
6
CONTINUOUS
10
97.8211
20
-134.701
11
97.8229
21
-134.692
0
LINE
8
BLACK
6
CONTINUOUS
10
97.8229
20
-134.692
11
97.8354
21
-134.677
0
LINE
8
BLACK
6
CONTINUOUS
10
97.8354
20
-134.677
11
97.8451
21
-134.66
0
LINE
8
BLACK
6
CONTINUOUS
10
97.8451
20
-134.66
11
97.8515
21
-134.658
0
LINE
8
BLACK
6
CONTINUOUS
10
97.8515
20
-134.658
11
97.8558
21
-134.652
0
LINE
8
BLACK
6
CONTINUOUS
10
97.8558
20
-134.652
11
97.875
21
-134.649
0
LINE
8
BLACK
6
CONTINUOUS
10
97.875
20
-134.649
11
97.8933
21
-134.642
0
LINE
8
BLACK
6
CONTINUOUS
10
97.8933
20
-134.642
11
98.2743
21
-134.642
0
LINE
8
BLACK
6
CONTINUOUS
10
98.2743
20
-134.642
11
98.2999
21
-134.647
0
LINE
8
BLACK
6
CONTINUOUS
10
97.9683
20
-134.792
11
97.9683
21
-135.166
0
LINE
8
BLACK
6
CONTINUOUS
10
97.9683
20
-135.166
11
98.2566
21
-135.166
0
LINE
8
BLACK
6
CONTINUOUS
10
98.2566
20
-135.166
11
98.3251
21
-135.132
0
LINE
8
BLACK
6
CONTINUOUS
10
98.3251
20
-135.132
11
98.3555
21
-135.102
0
LINE
8
BLACK
6
CONTINUOUS
10
98.3555
20
-135.102
11
98.3898
21
-135.033
0
LINE
8
BLACK
6
CONTINUOUS
10
98.3898
20
-135.033
11
98.3898
21
-134.926
0
LINE
8
BLACK
6
CONTINUOUS
10
98.3898
20
-134.926
11
98.3555
21
-134.857
0
LINE
8
BLACK
6
CONTINUOUS
10
98.3555
20
-134.857
11
98.3251
21
-134.827
0
LINE
8
BLACK
6
CONTINUOUS
10
98.3251
20
-134.827
11
98.2566
21
-134.792
0
LINE
8
BLACK
6
CONTINUOUS
10
98.2566
20
-134.792
11
97.9683
21
-134.792
0
LINE
8
BLACK
6
CONTINUOUS
10
103.392
20
-134.343
11
103.41
21
-134.385
0
LINE
8
BLACK
6
CONTINUOUS
10
103.41
20
-134.385
11
103.392
21
-134.427
0
LINE
8
BLACK
6
CONTINUOUS
10
103.392
20
-134.427
11
103.35
21
-134.445
0
LINE
8
BLACK
6
CONTINUOUS
10
103.35
20
-134.445
11
102.82
21
-134.445
0
LINE
8
BLACK
6
CONTINUOUS
10
102.82
20
-134.445
11
102.778
21
-134.427
0
LINE
8
BLACK
6
CONTINUOUS
10
102.778
20
-134.427
11
102.76
21
-134.385
0
LINE
8
BLACK
6
CONTINUOUS
10
102.76
20
-134.385
11
102.778
21
-134.343
0
LINE
8
BLACK
6
CONTINUOUS
10
102.778
20
-134.343
11
102.82
21
-134.325
0
LINE
8
BLACK
6
CONTINUOUS
10
102.82
20
-134.325
11
103.35
21
-134.325
0
LINE
8
BLACK
6
CONTINUOUS
10
103.35
20
-134.325
11
103.392
21
-134.343
0
LINE
8
BLACK
6
CONTINUOUS
10
107.478
20
-134.427
11
107.46
21
-134.385
0
LINE
8
BLACK
6
CONTINUOUS
10
107.46
20
-134.385
11
107.478
21
-134.343
0
LINE
8
BLACK
6
CONTINUOUS
10
107.478
20
-134.343
11
107.52
21
-134.325
0
LINE
8
BLACK
6
CONTINUOUS
10
107.52
20
-134.325
11
108.95
21
-134.325
0
LINE
8
BLACK
6
CONTINUOUS
10
108.95
20
-134.325
11
108.95
21
-129.665
0
LINE
8
BLACK
6
CONTINUOUS
10
108.95
20
-129.665
11
108.968
21
-129.623
0
LINE
8
BLACK
6
CONTINUOUS
10
108.968
20
-129.623
11
109.01
21
-129.605
0
LINE
8
BLACK
6
CONTINUOUS
10
109.01
20
-129.605
11
109.052
21
-129.623
0
LINE
8
BLACK
6
CONTINUOUS
10
109.052
20
-129.623
11
109.07
21
-129.665
0
LINE
8
BLACK
6
CONTINUOUS
10
109.07
20
-129.665
11
109.07
21
-134.385
0
LINE
8
BLACK
6
CONTINUOUS
10
109.07
20
-134.385
11
109.052
21
-134.427
0
LINE
8
BLACK
6
CONTINUOUS
10
109.052
20
-134.427
11
109.01
21
-134.445
0
LINE
8
BLACK
6
CONTINUOUS
10
109.01
20
-134.445
11
107.52
21
-134.445
0
LINE
8
BLACK
6
CONTINUOUS
10
107.52
20
-134.445
11
107.478
21
-134.427
0
LINE
8
BLACK
6
CONTINUOUS
10
99.3024
20
-129.623
11
99.32
21
-129.665
0
LINE
8
BLACK
6
CONTINUOUS
10
99.32
20
-129.665
11
99.32
21
-134.325
0
LINE
8
BLACK
6
CONTINUOUS
10
99.32
20
-134.325
11
100.45
21
-134.325
0
LINE
8
BLACK
6
CONTINUOUS
10
100.45
20
-134.325
11
100.492
21
-134.343
0
LINE
8
BLACK
6
CONTINUOUS
10
100.492
20
-134.343
11
100.51
21
-134.385
0
LINE
8
BLACK
6
CONTINUOUS
10
100.51
20
-134.385
11
100.492
21
-134.427
0
LINE
8
BLACK
6
CONTINUOUS
10
100.492
20
-134.427
11
100.45
21
-134.445
0
LINE
8
BLACK
6
CONTINUOUS
10
100.45
20
-134.445
11
99.27
21
-134.445
0
LINE
8
BLACK
6
CONTINUOUS
10
99.27
20
-134.445
11
99.265
21
-134.443
0
LINE
8
BLACK
6
CONTINUOUS
10
99.265
20
-134.443
11
99.26
21
-134.445
0
LINE
8
BLACK
6
CONTINUOUS
10
99.26
20
-134.445
11
99.2176
21
-134.427
0
LINE
8
BLACK
6
CONTINUOUS
10
99.2176
20
-134.427
11
99.2
21
-134.385
0
LINE
8
BLACK
6
CONTINUOUS
10
99.2
20
-134.385
11
99.2
21
-129.665
0
LINE
8
BLACK
6
CONTINUOUS
10
99.2
20
-129.665
11
99.2176
21
-129.623
0
LINE
8
BLACK
6
CONTINUOUS
10
99.2176
20
-129.623
11
99.26
21
-129.605
0
LINE
8
BLACK
6
CONTINUOUS
10
99.26
20
-129.605
11
99.3024
21
-129.623
0
LINE
8
BLACK
6
CONTINUOUS
10
105.842
20
-134.343
11
105.86
21
-134.385
0
LINE
8
BLACK
6
CONTINUOUS
10
105.86
20
-134.385
11
105.842
21
-134.427
0
LINE
8
BLACK
6
CONTINUOUS
10
105.842
20
-134.427
11
105.8
21
-134.445
0
LINE
8
BLACK
6
CONTINUOUS
10
105.8
20
-134.445
11
104.97
21
-134.445
0
LINE
8
BLACK
6
CONTINUOUS
10
104.97
20
-134.445
11
104.928
21
-134.427
0
LINE
8
BLACK
6
CONTINUOUS
10
104.928
20
-134.427
11
104.91
21
-134.385
0
LINE
8
BLACK
6
CONTINUOUS
10
104.91
20
-134.385
11
104.928
21
-134.343
0
LINE
8
BLACK
6
CONTINUOUS
10
104.928
20
-134.343
11
104.97
21
-134.325
0
LINE
8
BLACK
6
CONTINUOUS
10
104.97
20
-134.325
11
105.8
21
-134.325
0
LINE
8
BLACK
6
CONTINUOUS
10
105.8
20
-134.325
11
105.842
21
-134.343
0
LINE
8
BLACK
6
CONTINUOUS
10
109.052
20
-122.753
11
109.07
21
-122.795
0
LINE
8
BLACK
6
CONTINUOUS
10
109.07
20
-122.795
11
109.07
21
-125.855
0
LINE
8
BLACK
6
CONTINUOUS
10
109.07
20
-125.855
11
109.052
21
-125.897
0
LINE
8
BLACK
6
CONTINUOUS
10
109.052
20
-125.897
11
109.01
21
-125.915
0
LINE
8
BLACK
6
CONTINUOUS
10
109.01
20
-125.915
11
108.968
21
-125.897
0
LINE
8
BLACK
6
CONTINUOUS
10
108.968
20
-125.897
11
108.95
21
-125.855
0
LINE
8
BLACK
6
CONTINUOUS
10
108.95
20
-125.855
11
108.95
21
-122.855
0
LINE
8
BLACK
6
CONTINUOUS
10
108.95
20
-122.855
11
99.33
21
-122.855
0
LINE
8
BLACK
6
CONTINUOUS
10
99.33
20
-122.855
11
99.33
21
-125.855
0
LINE
8
BLACK
6
CONTINUOUS
10
99.33
20
-125.855
11
99.3124
21
-125.897
0
LINE
8
BLACK
6
CONTINUOUS
10
99.3124
20
-125.897
11
99.27
21
-125.915
0
LINE
8
BLACK
6
CONTINUOUS
10
99.27
20
-125.915
11
99.2276
21
-125.897
0
LINE
8
BLACK
6
CONTINUOUS
10
99.2276
20
-125.897
11
99.21
21
-125.855
0
LINE
8
BLACK
6
CONTINUOUS
10
99.21
20
-125.855
11
99.21
21
-122.795
0
LINE
8
BLACK
6
CONTINUOUS
10
99.21
20
-122.795
11
99.2276
21
-122.753
0
LINE
8
BLACK
6
CONTINUOUS
10
99.2276
20
-122.753
11
99.27
21
-122.735
0
LINE
8
BLACK
6
CONTINUOUS
10
99.27
20
-122.735
11
109.01
21
-122.735
0
LINE
8
BLACK
6
CONTINUOUS
10
109.01
20
-122.735
11
109.052
21
-122.753
0
LINE
8
BLACK
6
CONTINUOUS
10
99.9973
20
-90.1943
11
100.002
21
-90.1935
0
LINE
8
BLACK
6
CONTINUOUS
10
100.002
20
-90.1935
11
100.02
21
-90.2044
0
LINE
8
BLACK
6
CONTINUOUS
10
100.02
20
-90.2044
11
100.04
21
-90.2131
0
LINE
8
BLACK
6
CONTINUOUS
10
100.04
20
-90.2131
11
100.042
21
-90.217
0
LINE
8
BLACK
6
CONTINUOUS
10
100.042
20
-90.217
11
100.046
21
-90.2192
0
LINE
8
BLACK
6
CONTINUOUS
10
100.046
20
-90.2192
11
100.053
21
-90.2396
0
LINE
8
BLACK
6
CONTINUOUS
10
100.053
20
-90.2396
11
100.063
21
-90.2591
0
LINE
8
BLACK
6
CONTINUOUS
10
100.063
20
-90.2591
11
100.062
21
-90.2633
0
LINE
8
BLACK
6
CONTINUOUS
10
100.062
20
-90.2633
11
100.064
21
-90.2674
0
LINE
8
BLACK
6
CONTINUOUS
10
100.064
20
-90.2674
11
100.064
21
-91.1924
0
LINE
8
BLACK
6
CONTINUOUS
10
100.064
20
-91.1924
11
100.274
21
-91.1924
0
LINE
8
BLACK
6
CONTINUOUS
10
100.274
20
-91.1924
11
100.3
21
-91.1969
0
LINE
8
BLACK
6
CONTINUOUS
10
100.3
20
-91.1969
11
100.339
21
-91.2299
0
LINE
8
BLACK
6
CONTINUOUS
10
100.339
20
-91.2299
11
100.348
21
-91.2804
0
LINE
8
BLACK
6
CONTINUOUS
10
100.348
20
-91.2804
11
100.322
21
-91.3248
0
LINE
8
BLACK
6
CONTINUOUS
10
100.322
20
-91.3248
11
100.274
21
-91.3424
0
LINE
8
BLACK
6
CONTINUOUS
10
100.274
20
-91.3424
11
99.7029
21
-91.3424
0
LINE
8
BLACK
6
CONTINUOUS
10
99.7029
20
-91.3424
11
99.6772
21
-91.3379
0
LINE
8
BLACK
6
CONTINUOUS
10
99.6772
20
-91.3379
11
99.6379
21
-91.3049
0
LINE
8
BLACK
6
CONTINUOUS
10
99.6379
20
-91.3049
11
99.629
21
-91.2544
0
LINE
8
BLACK
6
CONTINUOUS
10
99.629
20
-91.2544
11
99.6546
21
-91.2099
0
LINE
8
BLACK
6
CONTINUOUS
10
99.6546
20
-91.2099
11
99.7029
21
-91.1924
0
LINE
8
BLACK
6
CONTINUOUS
10
99.7029
20
-91.1924
11
99.9136
21
-91.1924
0
LINE
8
BLACK
6
CONTINUOUS
10
99.9136
20
-91.1924
11
99.9136
21
-90.4961
0
LINE
8
BLACK
6
CONTINUOUS
10
99.9136
20
-90.4961
11
99.8511
21
-90.5585
0
LINE
8
BLACK
6
CONTINUOUS
10
99.8511
20
-90.5585
11
99.8328
21
-90.5714
0
LINE
8
BLACK
6
CONTINUOUS
10
99.8328
20
-90.5714
11
99.8316
21
-90.5726
0
LINE
8
BLACK
6
CONTINUOUS
10
99.8316
20
-90.5726
11
99.7364
21
-90.6202
0
LINE
8
BLACK
6
CONTINUOUS
10
99.7364
20
-90.6202
11
99.7114
21
-90.6276
0
LINE
8
BLACK
6
CONTINUOUS
10
99.7114
20
-90.6276
11
99.6615
21
-90.6157
0
LINE
8
BLACK
6
CONTINUOUS
10
99.6615
20
-90.6157
11
99.631
21
-90.5745
0
LINE
8
BLACK
6
CONTINUOUS
10
99.631
20
-90.5745
11
99.634
21
-90.5233
0
LINE
8
BLACK
6
CONTINUOUS
10
99.634
20
-90.5233
11
99.6693
21
-90.486
0
LINE
8
BLACK
6
CONTINUOUS
10
99.6693
20
-90.486
11
99.7537
21
-90.4438
0
LINE
8
BLACK
6
CONTINUOUS
10
99.7537
20
-90.4438
11
99.835
21
-90.3625
0
LINE
8
BLACK
6
CONTINUOUS
10
99.835
20
-90.3625
11
99.9262
21
-90.2258
0
LINE
8
BLACK
6
CONTINUOUS
10
99.9262
20
-90.2258
11
99.9442
21
-90.2069
0
LINE
8
BLACK
6
CONTINUOUS
10
99.9442
20
-90.2069
11
99.9483
21
-90.2057
0
LINE
8
BLACK
6
CONTINUOUS
10
99.9483
20
-90.2057
11
99.9511
21
-90.2024
0
LINE
8
BLACK
6
CONTINUOUS
10
99.9511
20
-90.2024
11
99.9725
21
-90.1986
0
LINE
8
BLACK
6
CONTINUOUS
10
99.9725
20
-90.1986
11
99.9934
21
-90.1925
0
LINE
8
BLACK
6
CONTINUOUS
10
99.9934
20
-90.1925
11
99.9973
21
-90.1943
0
LINE
8
BLACK
6
CONTINUOUS
10
98.7897
20
-90.2035
11
98.8216
21
-90.2437
0
LINE
8
BLACK
6
CONTINUOUS
10
98.8216
20
-90.2437
11
99.0838
21
-91.0302
0
LINE
8
BLACK
6
CONTINUOUS
10
99.0838
20
-91.0302
11
99.346
21
-90.2437
0
LINE
8
BLACK
6
CONTINUOUS
10
99.346
20
-90.2437
11
99.3584
21
-90.2208
0
LINE
8
BLACK
6
CONTINUOUS
10
99.3584
20
-90.2208
11
99.4021
21
-90.1939
0
LINE
8
BLACK
6
CONTINUOUS
10
99.4021
20
-90.1939
11
99.4529
21
-90.2014
0
LINE
8
BLACK
6
CONTINUOUS
10
99.4529
20
-90.2014
11
99.4869
21
-90.2398
0
LINE
8
BLACK
6
CONTINUOUS
10
99.4869
20
-90.2398
11
99.4883
21
-90.2911
0
LINE
8
BLACK
6
CONTINUOUS
10
99.4883
20
-90.2911
11
99.155
21
-91.2911
0
LINE
8
BLACK
6
CONTINUOUS
10
99.155
20
-91.2911
11
99.1426
21
-91.314
0
LINE
8
BLACK
6
CONTINUOUS
10
99.1426
20
-91.314
11
99.1407
21
-91.3151
0
LINE
8
BLACK
6
CONTINUOUS
10
99.1407
20
-91.3151
11
99.1399
21
-91.3171
0
LINE
8
BLACK
6
CONTINUOUS
10
99.1399
20
-91.3171
11
99.1191
21
-91.3284
0
LINE
8
BLACK
6
CONTINUOUS
10
99.1191
20
-91.3284
11
99.0988
21
-91.3409
0
LINE
8
BLACK
6
CONTINUOUS
10
99.0988
20
-91.3409
11
99.0967
21
-91.3405
0
LINE
8
BLACK
6
CONTINUOUS
10
99.0967
20
-91.3405
11
99.0948
21
-91.3416
0
LINE
8
BLACK
6
CONTINUOUS
10
99.0948
20
-91.3416
11
99.0716
21
-91.3368
0
LINE
8
BLACK
6
CONTINUOUS
10
99.0716
20
-91.3368
11
99.0481
21
-91.3333
0
LINE
8
BLACK
6
CONTINUOUS
10
99.0481
20
-91.3333
11
99.0467
21
-91.3317
0
LINE
8
BLACK
6
CONTINUOUS
10
99.0467
20
-91.3317
11
99.0445
21
-91.3313
0
LINE
8
BLACK
6
CONTINUOUS
10
99.0445
20
-91.3313
11
99.0298
21
-91.3127
0
LINE
8
BLACK
6
CONTINUOUS
10
99.0298
20
-91.3127
11
99.0141
21
-91.2949
0
LINE
8
BLACK
6
CONTINUOUS
10
99.0141
20
-91.2949
11
99.014
21
-91.2928
0
LINE
8
BLACK
6
CONTINUOUS
10
99.014
20
-91.2928
11
99.0127
21
-91.2911
0
LINE
8
BLACK
6
CONTINUOUS
10
99.0127
20
-91.2911
11
98.6793
21
-90.2911
0
LINE
8
BLACK
6
CONTINUOUS
10
98.6793
20
-90.2911
11
98.6755
21
-90.2653
0
LINE
8
BLACK
6
CONTINUOUS
10
98.6755
20
-90.2653
11
98.6944
21
-90.2176
0
LINE
8
BLACK
6
CONTINUOUS
10
98.6944
20
-90.2176
11
98.7395
21
-90.1932
0
LINE
8
BLACK
6
CONTINUOUS
10
98.7395
20
-90.1932
11
98.7897
21
-90.2035
0
LINE
8
BLACK
6
CONTINUOUS
10
98.2999
20
-90.1969
11
98.3034
21
-90.1998
0
LINE
8
BLACK
6
CONTINUOUS
10
98.3034
20
-90.1998
11
98.3078
21
-90.2003
0
LINE
8
BLACK
6
CONTINUOUS
10
98.3078
20
-90.2003
11
98.4031
21
-90.2479
0
LINE
8
BLACK
6
CONTINUOUS
10
98.4031
20
-90.2479
11
98.4211
21
-90.2613
0
LINE
8
BLACK
6
CONTINUOUS
10
98.4211
20
-90.2613
11
98.4226
21
-90.262
0
LINE
8
BLACK
6
CONTINUOUS
10
98.4226
20
-90.262
11
98.4702
21
-90.3096
0
LINE
8
BLACK
6
CONTINUOUS
10
98.4702
20
-90.3096
11
98.483
21
-90.328
0
LINE
8
BLACK
6
CONTINUOUS
10
98.483
20
-90.328
11
98.4842
21
-90.3291
0
LINE
8
BLACK
6
CONTINUOUS
10
98.4842
20
-90.3291
11
98.5318
21
-90.4243
0
LINE
8
BLACK
6
CONTINUOUS
10
98.5318
20
-90.4243
11
98.5393
21
-90.4493
0
LINE
8
BLACK
6
CONTINUOUS
10
98.5393
20
-90.4493
11
98.5382
21
-90.4536
0
LINE
8
BLACK
6
CONTINUOUS
10
98.5382
20
-90.4536
11
98.5398
21
-90.4579
0
LINE
8
BLACK
6
CONTINUOUS
10
98.5398
20
-90.4579
11
98.5398
21
-90.6007
0
LINE
8
BLACK
6
CONTINUOUS
10
98.5398
20
-90.6007
11
98.5352
21
-90.6264
0
LINE
8
BLACK
6
CONTINUOUS
10
98.5352
20
-90.6264
11
98.5324
21
-90.6298
0
LINE
8
BLACK
6
CONTINUOUS
10
98.5324
20
-90.6298
11
98.5318
21
-90.6343
0
LINE
8
BLACK
6
CONTINUOUS
10
98.5318
20
-90.6343
11
98.4842
21
-90.7295
0
LINE
8
BLACK
6
CONTINUOUS
10
98.4842
20
-90.7295
11
98.4709
21
-90.7475
0
LINE
8
BLACK
6
CONTINUOUS
10
98.4709
20
-90.7475
11
98.4702
21
-90.749
0
LINE
8
BLACK
6
CONTINUOUS
10
98.4702
20
-90.749
11
98.4226
21
-90.7966
0
LINE
8
BLACK
6
CONTINUOUS
10
98.4226
20
-90.7966
11
98.4042
21
-90.8095
0
LINE
8
BLACK
6
CONTINUOUS
10
98.4042
20
-90.8095
11
98.4031
21
-90.8107
0
LINE
8
BLACK
6
CONTINUOUS
10
98.4031
20
-90.8107
11
98.3078
21
-90.8583
0
LINE
8
BLACK
6
CONTINUOUS
10
98.3078
20
-90.8583
11
98.2829
21
-90.8657
0
LINE
8
BLACK
6
CONTINUOUS
10
98.2829
20
-90.8657
11
98.2785
21
-90.8647
0
LINE
8
BLACK
6
CONTINUOUS
10
98.2785
20
-90.8647
11
98.2752
21
-90.8658
0
LINE
8
BLACK
6
CONTINUOUS
10
98.2752
20
-90.8658
11
98.5262
21
-91.2244
0
LINE
8
BLACK
6
CONTINUOUS
10
98.5262
20
-91.2244
11
98.5372
21
-91.248
0
LINE
8
BLACK
6
CONTINUOUS
10
98.5372
20
-91.248
11
98.5327
21
-91.2991
0
LINE
8
BLACK
6
CONTINUOUS
10
98.5327
20
-91.2991
11
98.4964
21
-91.3354
0
LINE
8
BLACK
6
CONTINUOUS
10
98.4964
20
-91.3354
11
98.4453
21
-91.3398
0
LINE
8
BLACK
6
CONTINUOUS
10
98.4453
20
-91.3398
11
98.4033
21
-91.3104
0
LINE
8
BLACK
6
CONTINUOUS
10
98.4033
20
-91.3104
11
98.0924
21
-90.8662
0
LINE
8
BLACK
6
CONTINUOUS
10
98.0924
20
-90.8662
11
97.9683
21
-90.8662
0
LINE
8
BLACK
6
CONTINUOUS
10
97.9683
20
-90.8662
11
97.9683
21
-91.2674
0
LINE
8
BLACK
6
CONTINUOUS
10
97.9683
20
-91.2674
11
97.9638
21
-91.293
0
LINE
8
BLACK
6
CONTINUOUS
10
97.9638
20
-91.293
11
97.9308
21
-91.3323
0
LINE
8
BLACK
6
CONTINUOUS
10
97.9308
20
-91.3323
11
97.8803
21
-91.3412
0
LINE
8
BLACK
6
CONTINUOUS
10
97.8803
20
-91.3412
11
97.8359
21
-91.3156
0
LINE
8
BLACK
6
CONTINUOUS
10
97.8359
20
-91.3156
11
97.8183
21
-91.2674
0
LINE
8
BLACK
6
CONTINUOUS
10
97.8183
20
-91.2674
11
97.8183
21
-90.2674
0
LINE
8
BLACK
6
CONTINUOUS
10
97.8183
20
-90.2674
11
97.8201
21
-90.2576
0
LINE
8
BLACK
6
CONTINUOUS
10
97.8201
20
-90.2576
11
97.8195
21
-90.2544
0
LINE
8
BLACK
6
CONTINUOUS
10
97.8195
20
-90.2544
11
97.8211
21
-90.2515
0
LINE
8
BLACK
6
CONTINUOUS
10
97.8211
20
-90.2515
11
97.8229
21
-90.2417
0
LINE
8
BLACK
6
CONTINUOUS
10
97.8229
20
-90.2417
11
97.8354
21
-90.2268
0
LINE
8
BLACK
6
CONTINUOUS
10
97.8354
20
-90.2268
11
97.8451
21
-90.2099
0
LINE
8
BLACK
6
CONTINUOUS
10
97.8451
20
-90.2099
11
97.8515
21
-90.2076
0
LINE
8
BLACK
6
CONTINUOUS
10
97.8515
20
-90.2076
11
97.8558
21
-90.2024
0
LINE
8
BLACK
6
CONTINUOUS
10
97.8558
20
-90.2024
11
97.875
21
-90.199
0
LINE
8
BLACK
6
CONTINUOUS
10
97.875
20
-90.199
11
97.8933
21
-90.1924
0
LINE
8
BLACK
6
CONTINUOUS
10
97.8933
20
-90.1924
11
98.2743
21
-90.1924
0
LINE
8
BLACK
6
CONTINUOUS
10
98.2743
20
-90.1924
11
98.2999
21
-90.1969
0
LINE
8
BLACK
6
CONTINUOUS
10
97.9683
20
-90.3424
11
97.9683
21
-90.7162
0
LINE
8
BLACK
6
CONTINUOUS
10
97.9683
20
-90.7162
11
98.2566
21
-90.7162
0
LINE
8
BLACK
6
CONTINUOUS
10
98.2566
20
-90.7162
11
98.3251
21
-90.6819
0
LINE
8
BLACK
6
CONTINUOUS
10
98.3251
20
-90.6819
11
98.3555
21
-90.6515
0
LINE
8
BLACK
6
CONTINUOUS
10
98.3555
20
-90.6515
11
98.3898
21
-90.583
0
LINE
8
BLACK
6
CONTINUOUS
10
98.3898
20
-90.583
11
98.3898
21
-90.4756
0
LINE
8
BLACK
6
CONTINUOUS
10
98.3898
20
-90.4756
11
98.3555
21
-90.407
0
LINE
8
BLACK
6
CONTINUOUS
10
98.3555
20
-90.407
11
98.3251
21
-90.3766
0
LINE
8
BLACK
6
CONTINUOUS
10
98.3251
20
-90.3766
11
98.2566
21
-90.3424
0
LINE
8
BLACK
6
CONTINUOUS
10
98.2566
20
-90.3424
11
97.9683
21
-90.3424
0
LINE
8
BLACK
6
CONTINUOUS
10
99.3024
20
-85.1726
11
99.32
21
-85.215
0
LINE
8
BLACK
6
CONTINUOUS
10
99.32
20
-85.215
11
99.32
21
-89.875
0
LINE
8
BLACK
6
CONTINUOUS
10
99.32
20
-89.875
11
100.45
21
-89.875
0
LINE
8
BLACK
6
CONTINUOUS
10
100.45
20
-89.875
11
100.492
21
-89.8926
0
LINE
8
BLACK
6
CONTINUOUS
10
100.492
20
-89.8926
11
100.51
21
-89.935
0
LINE
8
BLACK
6
CONTINUOUS
10
100.51
20
-89.935
11
100.492
21
-89.9774
0
LINE
8
BLACK
6
CONTINUOUS
10
100.492
20
-89.9774
11
100.45
21
-89.995
0
LINE
8
BLACK
6
CONTINUOUS
10
100.45
20
-89.995
11
99.27
21
-89.995
0
LINE
8
BLACK
6
CONTINUOUS
10
99.27
20
-89.995
11
99.265
21
-89.9929
0
LINE
8
BLACK
6
CONTINUOUS
10
99.265
20
-89.9929
11
99.26
21
-89.995
0
LINE
8
BLACK
6
CONTINUOUS
10
99.26
20
-89.995
11
99.2176
21
-89.9774
0
LINE
8
BLACK
6
CONTINUOUS
10
99.2176
20
-89.9774
11
99.2
21
-89.935
0
LINE
8
BLACK
6
CONTINUOUS
10
99.2
20
-89.935
11
99.2
21
-85.215
0
LINE
8
BLACK
6
CONTINUOUS
10
99.2
20
-85.215
11
99.2176
21
-85.1726
0
LINE
8
BLACK
6
CONTINUOUS
10
99.2176
20
-85.1726
11
99.26
21
-85.155
0
LINE
8
BLACK
6
CONTINUOUS
10
99.26
20
-85.155
11
99.3024
21
-85.1726
0
LINE
8
BLACK
6
CONTINUOUS
10
107.478
20
-89.9774
11
107.46
21
-89.935
0
LINE
8
BLACK
6
CONTINUOUS
10
107.46
20
-89.935
11
107.478
21
-89.8926
0
LINE
8
BLACK
6
CONTINUOUS
10
107.478
20
-89.8926
11
107.52
21
-89.875
0
LINE
8
BLACK
6
CONTINUOUS
10
107.52
20
-89.875
11
108.95
21
-89.875
0
LINE
8
BLACK
6
CONTINUOUS
10
108.95
20
-89.875
11
108.95
21
-85.215
0
LINE
8
BLACK
6
CONTINUOUS
10
108.95
20
-85.215
11
108.968
21
-85.1726
0
LINE
8
BLACK
6
CONTINUOUS
10
108.968
20
-85.1726
11
109.01
21
-85.155
0
LINE
8
BLACK
6
CONTINUOUS
10
109.01
20
-85.155
11
109.052
21
-85.1726
0
LINE
8
BLACK
6
CONTINUOUS
10
109.052
20
-85.1726
11
109.07
21
-85.215
0
LINE
8
BLACK
6
CONTINUOUS
10
109.07
20
-85.215
11
109.07
21
-89.935
0
LINE
8
BLACK
6
CONTINUOUS
10
109.07
20
-89.935
11
109.052
21
-89.9774
0
LINE
8
BLACK
6
CONTINUOUS
10
109.052
20
-89.9774
11
109.01
21
-89.995
0
LINE
8
BLACK
6
CONTINUOUS
10
109.01
20
-89.995
11
107.52
21
-89.995
0
LINE
8
BLACK
6
CONTINUOUS
10
107.52
20
-89.995
11
107.478
21
-89.9774
0
LINE
8
BLACK
6
CONTINUOUS
10
105.842
20
-89.8926
11
105.86
21
-89.935
0
LINE
8
BLACK
6
CONTINUOUS
10
105.86
20
-89.935
11
105.842
21
-89.9774
0
LINE
8
BLACK
6
CONTINUOUS
10
105.842
20
-89.9774
11
105.8
21
-89.995
0
LINE
8
BLACK
6
CONTINUOUS
10
105.8
20
-89.995
11
104.97
21
-89.995
0
LINE
8
BLACK
6
CONTINUOUS
10
104.97
20
-89.995
11
104.928
21
-89.9774
0
LINE
8
BLACK
6
CONTINUOUS
10
104.928
20
-89.9774
11
104.91
21
-89.935
0
LINE
8
BLACK
6
CONTINUOUS
10
104.91
20
-89.935
11
104.928
21
-89.8926
0
LINE
8
BLACK
6
CONTINUOUS
10
104.928
20
-89.8926
11
104.97
21
-89.875
0
LINE
8
BLACK
6
CONTINUOUS
10
104.97
20
-89.875
11
105.8
21
-89.875
0
LINE
8
BLACK
6
CONTINUOUS
10
105.8
20
-89.875
11
105.842
21
-89.8926
0
LINE
8
BLACK
6
CONTINUOUS
10
103.392
20
-89.8926
11
103.41
21
-89.935
0
LINE
8
BLACK
6
CONTINUOUS
10
103.41
20
-89.935
11
103.392
21
-89.9774
0
LINE
8
BLACK
6
CONTINUOUS
10
103.392
20
-89.9774
11
103.35
21
-89.995
0
LINE
8
BLACK
6
CONTINUOUS
10
103.35
20
-89.995
11
102.82
21
-89.995
0
LINE
8
BLACK
6
CONTINUOUS
10
102.82
20
-89.995
11
102.778
21
-89.9774
0
LINE
8
BLACK
6
CONTINUOUS
10
102.778
20
-89.9774
11
102.76
21
-89.935
0
LINE
8
BLACK
6
CONTINUOUS
10
102.76
20
-89.935
11
102.778
21
-89.8926
0
LINE
8
BLACK
6
CONTINUOUS
10
102.778
20
-89.8926
11
102.82
21
-89.875
0
LINE
8
BLACK
6
CONTINUOUS
10
102.82
20
-89.875
11
103.35
21
-89.875
0
LINE
8
BLACK
6
CONTINUOUS
10
103.35
20
-89.875
11
103.392
21
-89.8926
0
LINE
8
BLACK
6
CONTINUOUS
10
109.052
20
-78.3026
11
109.07
21
-78.345
0
LINE
8
BLACK
6
CONTINUOUS
10
109.07
20
-78.345
11
109.07
21
-81.405
0
LINE
8
BLACK
6
CONTINUOUS
10
109.07
20
-81.405
11
109.052
21
-81.4474
0
LINE
8
BLACK
6
CONTINUOUS
10
109.052
20
-81.4474
11
109.01
21
-81.465
0
LINE
8
BLACK
6
CONTINUOUS
10
109.01
20
-81.465
11
108.968
21
-81.4474
0
LINE
8
BLACK
6
CONTINUOUS
10
108.968
20
-81.4474
11
108.95
21
-81.405
0
LINE
8
BLACK
6
CONTINUOUS
10
108.95
20
-81.405
11
108.95
21
-78.405
0
LINE
8
BLACK
6
CONTINUOUS
10
108.95
20
-78.405
11
99.33
21
-78.405
0
LINE
8
BLACK
6
CONTINUOUS
10
99.33
20
-78.405
11
99.33
21
-81.405
0
LINE
8
BLACK
6
CONTINUOUS
10
99.33
20
-81.405
11
99.3124
21
-81.4474
0
LINE
8
BLACK
6
CONTINUOUS
10
99.3124
20
-81.4474
11
99.27
21
-81.465
0
LINE
8
BLACK
6
CONTINUOUS
10
99.27
20
-81.465
11
99.2276
21
-81.4474
0
LINE
8
BLACK
6
CONTINUOUS
10
99.2276
20
-81.4474
11
99.21
21
-81.405
0
LINE
8
BLACK
6
CONTINUOUS
10
99.21
20
-81.405
11
99.21
21
-78.345
0
LINE
8
BLACK
6
CONTINUOUS
10
99.21
20
-78.345
11
99.2276
21
-78.3026
0
LINE
8
BLACK
6
CONTINUOUS
10
99.2276
20
-78.3026
11
99.27
21
-78.285
0
LINE
8
BLACK
6
CONTINUOUS
10
99.27
20
-78.285
11
109.01
21
-78.285
0
LINE
8
BLACK
6
CONTINUOUS
10
109.01
20
-78.285
11
109.052
21
-78.3026
0
LINE
8
BLACK
6
CONTINUOUS
10
98.7897
20
-45.7535
11
98.8216
21
-45.7937
0
LINE
8
BLACK
6
CONTINUOUS
10
98.8216
20
-45.7937
11
99.0838
21
-46.5802
0
LINE
8
BLACK
6
CONTINUOUS
10
99.0838
20
-46.5802
11
99.346
21
-45.7937
0
LINE
8
BLACK
6
CONTINUOUS
10
99.346
20
-45.7937
11
99.3584
21
-45.7708
0
LINE
8
BLACK
6
CONTINUOUS
10
99.3584
20
-45.7708
11
99.4021
21
-45.7439
0
LINE
8
BLACK
6
CONTINUOUS
10
99.4021
20
-45.7439
11
99.4529
21
-45.7514
0
LINE
8
BLACK
6
CONTINUOUS
10
99.4529
20
-45.7514
11
99.4869
21
-45.7898
0
LINE
8
BLACK
6
CONTINUOUS
10
99.4869
20
-45.7898
11
99.4883
21
-45.8411
0
LINE
8
BLACK
6
CONTINUOUS
10
99.4883
20
-45.8411
11
99.155
21
-46.8411
0
LINE
8
BLACK
6
CONTINUOUS
10
99.155
20
-46.8411
11
99.1426
21
-46.864
0
LINE
8
BLACK
6
CONTINUOUS
10
99.1426
20
-46.864
11
99.1407
21
-46.8651
0
LINE
8
BLACK
6
CONTINUOUS
10
99.1407
20
-46.8651
11
99.1399
21
-46.8671
0
LINE
8
BLACK
6
CONTINUOUS
10
99.1399
20
-46.8671
11
99.1191
21
-46.8784
0
LINE
8
BLACK
6
CONTINUOUS
10
99.1191
20
-46.8784
11
99.0988
21
-46.8909
0
LINE
8
BLACK
6
CONTINUOUS
10
99.0988
20
-46.8909
11
99.0967
21
-46.8905
0
LINE
8
BLACK
6
CONTINUOUS
10
99.0967
20
-46.8905
11
99.0948
21
-46.8916
0
LINE
8
BLACK
6
CONTINUOUS
10
99.0948
20
-46.8916
11
99.0716
21
-46.8868
0
LINE
8
BLACK
6
CONTINUOUS
10
99.0716
20
-46.8868
11
99.0481
21
-46.8833
0
LINE
8
BLACK
6
CONTINUOUS
10
99.0481
20
-46.8833
11
99.0467
21
-46.8817
0
LINE
8
BLACK
6
CONTINUOUS
10
99.0467
20
-46.8817
11
99.0445
21
-46.8813
0
LINE
8
BLACK
6
CONTINUOUS
10
99.0445
20
-46.8813
11
99.0298
21
-46.8627
0
LINE
8
BLACK
6
CONTINUOUS
10
99.0298
20
-46.8627
11
99.0141
21
-46.8449
0
LINE
8
BLACK
6
CONTINUOUS
10
99.0141
20
-46.8449
11
99.014
21
-46.8428
0
LINE
8
BLACK
6
CONTINUOUS
10
99.014
20
-46.8428
11
99.0127
21
-46.8411
0
LINE
8
BLACK
6
CONTINUOUS
10
99.0127
20
-46.8411
11
98.6793
21
-45.8411
0
LINE
8
BLACK
6
CONTINUOUS
10
98.6793
20
-45.8411
11
98.6755
21
-45.8153
0
LINE
8
BLACK
6
CONTINUOUS
10
98.6755
20
-45.8153
11
98.6944
21
-45.7676
0
LINE
8
BLACK
6
CONTINUOUS
10
98.6944
20
-45.7676
11
98.7395
21
-45.7432
0
LINE
8
BLACK
6
CONTINUOUS
10
98.7395
20
-45.7432
11
98.7897
21
-45.7535
0
LINE
8
BLACK
6
CONTINUOUS
10
99.9767
20
-45.7038
11
100.011
21
-45.7422
0
LINE
8
BLACK
6
CONTINUOUS
10
100.011
20
-45.7422
11
100.012
21
-45.7935
0
LINE
8
BLACK
6
CONTINUOUS
10
100.012
20
-45.7935
11
99.8069
21
-46.409
0
LINE
8
BLACK
6
CONTINUOUS
10
99.8069
20
-46.409
11
100.104
21
-46.409
0
LINE
8
BLACK
6
CONTINUOUS
10
100.104
20
-46.409
11
100.104
21
-46.1507
0
LINE
8
BLACK
6
CONTINUOUS
10
100.104
20
-46.1507
11
100.109
21
-46.1251
0
LINE
8
BLACK
6
CONTINUOUS
10
100.109
20
-46.1251
11
100.142
21
-46.0858
0
LINE
8
BLACK
6
CONTINUOUS
10
100.142
20
-46.0858
11
100.192
21
-46.0769
0
LINE
8
BLACK
6
CONTINUOUS
10
100.192
20
-46.0769
11
100.236
21
-46.1025
0
LINE
8
BLACK
6
CONTINUOUS
10
100.236
20
-46.1025
11
100.254
21
-46.1507
0
LINE
8
BLACK
6
CONTINUOUS
10
100.254
20
-46.1507
11
100.254
21
-46.409
0
LINE
8
BLACK
6
CONTINUOUS
10
100.254
20
-46.409
11
100.322
21
-46.409
0
LINE
8
BLACK
6
CONTINUOUS
10
100.322
20
-46.409
11
100.348
21
-46.4136
0
LINE
8
BLACK
6
CONTINUOUS
10
100.348
20
-46.4136
11
100.387
21
-46.4465
0
LINE
8
BLACK
6
CONTINUOUS
10
100.387
20
-46.4465
11
100.396
21
-46.4971
0
LINE
8
BLACK
6
CONTINUOUS
10
100.396
20
-46.4971
11
100.37
21
-46.5415
0
LINE
8
BLACK
6
CONTINUOUS
10
100.37
20
-46.5415
11
100.322
21
-46.559
0
LINE
8
BLACK
6
CONTINUOUS
10
100.322
20
-46.559
11
100.254
21
-46.559
0
LINE
8
BLACK
6
CONTINUOUS
10
100.254
20
-46.559
11
100.254
21
-46.8174
0
LINE
8
BLACK
6
CONTINUOUS
10
100.254
20
-46.8174
11
100.25
21
-46.843
0
LINE
8
BLACK
6
CONTINUOUS
10
100.25
20
-46.843
11
100.217
21
-46.8823
0
LINE
8
BLACK
6
CONTINUOUS
10
100.217
20
-46.8823
11
100.166
21
-46.8912
0
LINE
8
BLACK
6
CONTINUOUS
10
100.166
20
-46.8912
11
100.122
21
-46.8656
0
LINE
8
BLACK
6
CONTINUOUS
10
100.122
20
-46.8656
11
100.104
21
-46.8174
0
LINE
8
BLACK
6
CONTINUOUS
10
100.104
20
-46.8174
11
100.104
21
-46.559
0
LINE
8
BLACK
6
CONTINUOUS
10
100.104
20
-46.559
11
99.7029
21
-46.559
0
LINE
8
BLACK
6
CONTINUOUS
10
99.7029
20
-46.559
11
99.6772
21
-46.5545
0
LINE
8
BLACK
6
CONTINUOUS
10
99.6772
20
-46.5545
11
99.6728
21
-46.5508
0
LINE
8
BLACK
6
CONTINUOUS
10
99.6728
20
-46.5508
11
99.6671
21
-46.55
0
LINE
8
BLACK
6
CONTINUOUS
10
99.6671
20
-46.55
11
99.6536
21
-46.5347
0
LINE
8
BLACK
6
CONTINUOUS
10
99.6536
20
-46.5347
11
99.6379
21
-46.5215
0
LINE
8
BLACK
6
CONTINUOUS
10
99.6379
20
-46.5215
11
99.6369
21
-46.5159
0
LINE
8
BLACK
6
CONTINUOUS
10
99.6369
20
-46.5159
11
99.6331
21
-46.5116
0
LINE
8
BLACK
6
CONTINUOUS
10
99.6331
20
-46.5116
11
99.6325
21
-46.4912
0
LINE
8
BLACK
6
CONTINUOUS
10
99.6325
20
-46.4912
11
99.629
21
-46.471
0
LINE
8
BLACK
6
CONTINUOUS
10
99.629
20
-46.471
11
99.6319
21
-46.4661
0
LINE
8
BLACK
6
CONTINUOUS
10
99.6319
20
-46.4661
11
99.6317
21
-46.4603
0
LINE
8
BLACK
6
CONTINUOUS
10
99.6317
20
-46.4603
11
99.8698
21
-45.746
0
LINE
8
BLACK
6
CONTINUOUS
10
99.8698
20
-45.746
11
99.8822
21
-45.7231
0
LINE
8
BLACK
6
CONTINUOUS
10
99.8822
20
-45.7231
11
99.9259
21
-45.6963
0
LINE
8
BLACK
6
CONTINUOUS
10
99.9259
20
-45.6963
11
99.9767
21
-45.7038
0
LINE
8
BLACK
6
CONTINUOUS
10
98.2999
20
-45.7469
11
98.3034
21
-45.7498
0
LINE
8
BLACK
6
CONTINUOUS
10
98.3034
20
-45.7498
11
98.3078
21
-45.7503
0
LINE
8
BLACK
6
CONTINUOUS
10
98.3078
20
-45.7503
11
98.4031
21
-45.7979
0
LINE
8
BLACK
6
CONTINUOUS
10
98.4031
20
-45.7979
11
98.4211
21
-45.8113
0
LINE
8
BLACK
6
CONTINUOUS
10
98.4211
20
-45.8113
11
98.4226
21
-45.812
0
LINE
8
BLACK
6
CONTINUOUS
10
98.4226
20
-45.812
11
98.4702
21
-45.8596
0
LINE
8
BLACK
6
CONTINUOUS
10
98.4702
20
-45.8596
11
98.483
21
-45.878
0
LINE
8
BLACK
6
CONTINUOUS
10
98.483
20
-45.878
11
98.4842
21
-45.8791
0
LINE
8
BLACK
6
CONTINUOUS
10
98.4842
20
-45.8791
11
98.5318
21
-45.9743
0
LINE
8
BLACK
6
CONTINUOUS
10
98.5318
20
-45.9743
11
98.5393
21
-45.9993
0
LINE
8
BLACK
6
CONTINUOUS
10
98.5393
20
-45.9993
11
98.5382
21
-46.0036
0
LINE
8
BLACK
6
CONTINUOUS
10
98.5382
20
-46.0036
11
98.5398
21
-46.0079
0
LINE
8
BLACK
6
CONTINUOUS
10
98.5398
20
-46.0079
11
98.5398
21
-46.1507
0
LINE
8
BLACK
6
CONTINUOUS
10
98.5398
20
-46.1507
11
98.5352
21
-46.1764
0
LINE
8
BLACK
6
CONTINUOUS
10
98.5352
20
-46.1764
11
98.5324
21
-46.1798
0
LINE
8
BLACK
6
CONTINUOUS
10
98.5324
20
-46.1798
11
98.5318
21
-46.1843
0
LINE
8
BLACK
6
CONTINUOUS
10
98.5318
20
-46.1843
11
98.4842
21
-46.2795
0
LINE
8
BLACK
6
CONTINUOUS
10
98.4842
20
-46.2795
11
98.4709
21
-46.2975
0
LINE
8
BLACK
6
CONTINUOUS
10
98.4709
20
-46.2975
11
98.4702
21
-46.299
0
LINE
8
BLACK
6
CONTINUOUS
10
98.4702
20
-46.299
11
98.4226
21
-46.3466
0
LINE
8
BLACK
6
CONTINUOUS
10
98.4226
20
-46.3466
11
98.4042
21
-46.3595
0
LINE
8
BLACK
6
CONTINUOUS
10
98.4042
20
-46.3595
11
98.4031
21
-46.3607
0
LINE
8
BLACK
6
CONTINUOUS
10
98.4031
20
-46.3607
11
98.3078
21
-46.4083
0
LINE
8
BLACK
6
CONTINUOUS
10
98.3078
20
-46.4083
11
98.2829
21
-46.4157
0
LINE
8
BLACK
6
CONTINUOUS
10
98.2829
20
-46.4157
11
98.2785
21
-46.4147
0
LINE
8
BLACK
6
CONTINUOUS
10
98.2785
20
-46.4147
11
98.2752
21
-46.4158
0
LINE
8
BLACK
6
CONTINUOUS
10
98.2752
20
-46.4158
11
98.5262
21
-46.7744
0
LINE
8
BLACK
6
CONTINUOUS
10
98.5262
20
-46.7744
11
98.5372
21
-46.798
0
LINE
8
BLACK
6
CONTINUOUS
10
98.5372
20
-46.798
11
98.5327
21
-46.8491
0
LINE
8
BLACK
6
CONTINUOUS
10
98.5327
20
-46.8491
11
98.4964
21
-46.8854
0
LINE
8
BLACK
6
CONTINUOUS
10
98.4964
20
-46.8854
11
98.4453
21
-46.8898
0
LINE
8
BLACK
6
CONTINUOUS
10
98.4453
20
-46.8898
11
98.4033
21
-46.8604
0
LINE
8
BLACK
6
CONTINUOUS
10
98.4033
20
-46.8604
11
98.0924
21
-46.4162
0
LINE
8
BLACK
6
CONTINUOUS
10
98.0924
20
-46.4162
11
97.9683
21
-46.4162
0
LINE
8
BLACK
6
CONTINUOUS
10
97.9683
20
-46.4162
11
97.9683
21
-46.8174
0
LINE
8
BLACK
6
CONTINUOUS
10
97.9683
20
-46.8174
11
97.9638
21
-46.843
0
LINE
8
BLACK
6
CONTINUOUS
10
97.9638
20
-46.843
11
97.9308
21
-46.8823
0
LINE
8
BLACK
6
CONTINUOUS
10
97.9308
20
-46.8823
11
97.8803
21
-46.8912
0
LINE
8
BLACK
6
CONTINUOUS
10
97.8803
20
-46.8912
11
97.8359
21
-46.8656
0
LINE
8
BLACK
6
CONTINUOUS
10
97.8359
20
-46.8656
11
97.8183
21
-46.8174
0
LINE
8
BLACK
6
CONTINUOUS
10
97.8183
20
-46.8174
11
97.8183
21
-45.8174
0
LINE
8
BLACK
6
CONTINUOUS
10
97.8183
20
-45.8174
11
97.8201
21
-45.8076
0
LINE
8
BLACK
6
CONTINUOUS
10
97.8201
20
-45.8076
11
97.8195
21
-45.8044
0
LINE
8
BLACK
6
CONTINUOUS
10
97.8195
20
-45.8044
11
97.8211
21
-45.8015
0
LINE
8
BLACK
6
CONTINUOUS
10
97.8211
20
-45.8015
11
97.8229
21
-45.7917
0
LINE
8
BLACK
6
CONTINUOUS
10
97.8229
20
-45.7917
11
97.8354
21
-45.7768
0
LINE
8
BLACK
6
CONTINUOUS
10
97.8354
20
-45.7768
11
97.8451
21
-45.7599
0
LINE
8
BLACK
6
CONTINUOUS
10
97.8451
20
-45.7599
11
97.8515
21
-45.7576
0
LINE
8
BLACK
6
CONTINUOUS
10
97.8515
20
-45.7576
11
97.8558
21
-45.7524
0
LINE
8
BLACK
6
CONTINUOUS
10
97.8558
20
-45.7524
11
97.875
21
-45.749
0
LINE
8
BLACK
6
CONTINUOUS
10
97.875
20
-45.749
11
97.8933
21
-45.7424
0
LINE
8
BLACK
6
CONTINUOUS
10
97.8933
20
-45.7424
11
98.2743
21
-45.7424
0
LINE
8
BLACK
6
CONTINUOUS
10
98.2743
20
-45.7424
11
98.2999
21
-45.7469
0
LINE
8
BLACK
6
CONTINUOUS
10
97.9683
20
-45.8924
11
97.9683
21
-46.2662
0
LINE
8
BLACK
6
CONTINUOUS
10
97.9683
20
-46.2662
11
98.2566
21
-46.2662
0
LINE
8
BLACK
6
CONTINUOUS
10
98.2566
20
-46.2662
11
98.3251
21
-46.2319
0
LINE
8
BLACK
6
CONTINUOUS
10
98.3251
20
-46.2319
11
98.3555
21
-46.2015
0
LINE
8
BLACK
6
CONTINUOUS
10
98.3555
20
-46.2015
11
98.3898
21
-46.133
0
LINE
8
BLACK
6
CONTINUOUS
10
98.3898
20
-46.133
11
98.3898
21
-46.0256
0
LINE
8
BLACK
6
CONTINUOUS
10
98.3898
20
-46.0256
11
98.3555
21
-45.957
0
LINE
8
BLACK
6
CONTINUOUS
10
98.3555
20
-45.957
11
98.3251
21
-45.9266
0
LINE
8
BLACK
6
CONTINUOUS
10
98.3251
20
-45.9266
11
98.2566
21
-45.8924
0
LINE
8
BLACK
6
CONTINUOUS
10
98.2566
20
-45.8924
11
97.9683
21
-45.8924
0
LINE
8
BLACK
6
CONTINUOUS
10
99.3024
20
-40.7226
11
99.32
21
-40.765
0
LINE
8
BLACK
6
CONTINUOUS
10
99.32
20
-40.765
11
99.32
21
-45.425
0
LINE
8
BLACK
6
CONTINUOUS
10
99.32
20
-45.425
11
100.45
21
-45.425
0
LINE
8
BLACK
6
CONTINUOUS
10
100.45
20
-45.425
11
100.492
21
-45.4426
0
LINE
8
BLACK
6
CONTINUOUS
10
100.492
20
-45.4426
11
100.51
21
-45.485
0
LINE
8
BLACK
6
CONTINUOUS
10
100.51
20
-45.485
11
100.492
21
-45.5274
0
LINE
8
BLACK
6
CONTINUOUS
10
100.492
20
-45.5274
11
100.45
21
-45.545
0
LINE
8
BLACK
6
CONTINUOUS
10
100.45
20
-45.545
11
99.27
21
-45.545
0
LINE
8
BLACK
6
CONTINUOUS
10
99.27
20
-45.545
11
99.265
21
-45.5429
0
LINE
8
BLACK
6
CONTINUOUS
10
99.265
20
-45.5429
11
99.26
21
-45.545
0
LINE
8
BLACK
6
CONTINUOUS
10
99.26
20
-45.545
11
99.2176
21
-45.5274
0
LINE
8
BLACK
6
CONTINUOUS
10
99.2176
20
-45.5274
11
99.2
21
-45.485
0
LINE
8
BLACK
6
CONTINUOUS
10
99.2
20
-45.485
11
99.2
21
-40.765
0
LINE
8
BLACK
6
CONTINUOUS
10
99.2
20
-40.765
11
99.2176
21
-40.7226
0
LINE
8
BLACK
6
CONTINUOUS
10
99.2176
20
-40.7226
11
99.26
21
-40.705
0
LINE
8
BLACK
6
CONTINUOUS
10
99.26
20
-40.705
11
99.3024
21
-40.7226
0
LINE
8
BLACK
6
CONTINUOUS
10
107.478
20
-45.5274
11
107.46
21
-45.485
0
LINE
8
BLACK
6
CONTINUOUS
10
107.46
20
-45.485
11
107.478
21
-45.4426
0
LINE
8
BLACK
6
CONTINUOUS
10
107.478
20
-45.4426
11
107.52
21
-45.425
0
LINE
8
BLACK
6
CONTINUOUS
10
107.52
20
-45.425
11
108.95
21
-45.425
0
LINE
8
BLACK
6
CONTINUOUS
10
108.95
20
-45.425
11
108.95
21
-40.765
0
LINE
8
BLACK
6
CONTINUOUS
10
108.95
20
-40.765
11
108.968
21
-40.7226
0
LINE
8
BLACK
6
CONTINUOUS
10
108.968
20
-40.7226
11
109.01
21
-40.705
0
LINE
8
BLACK
6
CONTINUOUS
10
109.01
20
-40.705
11
109.052
21
-40.7226
0
LINE
8
BLACK
6
CONTINUOUS
10
109.052
20
-40.7226
11
109.07
21
-40.765
0
LINE
8
BLACK
6
CONTINUOUS
10
109.07
20
-40.765
11
109.07
21
-45.485
0
LINE
8
BLACK
6
CONTINUOUS
10
109.07
20
-45.485
11
109.052
21
-45.5274
0
LINE
8
BLACK
6
CONTINUOUS
10
109.052
20
-45.5274
11
109.01
21
-45.545
0
LINE
8
BLACK
6
CONTINUOUS
10
109.01
20
-45.545
11
107.52
21
-45.545
0
LINE
8
BLACK
6
CONTINUOUS
10
107.52
20
-45.545
11
107.478
21
-45.5274
0
LINE
8
BLACK
6
CONTINUOUS
10
103.392
20
-45.4426
11
103.41
21
-45.485
0
LINE
8
BLACK
6
CONTINUOUS
10
103.41
20
-45.485
11
103.392
21
-45.5274
0
LINE
8
BLACK
6
CONTINUOUS
10
103.392
20
-45.5274
11
103.35
21
-45.545
0
LINE
8
BLACK
6
CONTINUOUS
10
103.35
20
-45.545
11
102.82
21
-45.545
0
LINE
8
BLACK
6
CONTINUOUS
10
102.82
20
-45.545
11
102.778
21
-45.5274
0
LINE
8
BLACK
6
CONTINUOUS
10
102.778
20
-45.5274
11
102.76
21
-45.485
0
LINE
8
BLACK
6
CONTINUOUS
10
102.76
20
-45.485
11
102.778
21
-45.4426
0
LINE
8
BLACK
6
CONTINUOUS
10
102.778
20
-45.4426
11
102.82
21
-45.425
0
LINE
8
BLACK
6
CONTINUOUS
10
102.82
20
-45.425
11
103.35
21
-45.425
0
LINE
8
BLACK
6
CONTINUOUS
10
103.35
20
-45.425
11
103.392
21
-45.4426
0
LINE
8
BLACK
6
CONTINUOUS
10
105.842
20
-45.4426
11
105.86
21
-45.485
0
LINE
8
BLACK
6
CONTINUOUS
10
105.86
20
-45.485
11
105.842
21
-45.5274
0
LINE
8
BLACK
6
CONTINUOUS
10
105.842
20
-45.5274
11
105.8
21
-45.545
0
LINE
8
BLACK
6
CONTINUOUS
10
105.8
20
-45.545
11
104.97
21
-45.545
0
LINE
8
BLACK
6
CONTINUOUS
10
104.97
20
-45.545
11
104.928
21
-45.5274
0
LINE
8
BLACK
6
CONTINUOUS
10
104.928
20
-45.5274
11
104.91
21
-45.485
0
LINE
8
BLACK
6
CONTINUOUS
10
104.91
20
-45.485
11
104.928
21
-45.4426
0
LINE
8
BLACK
6
CONTINUOUS
10
104.928
20
-45.4426
11
104.97
21
-45.425
0
LINE
8
BLACK
6
CONTINUOUS
10
104.97
20
-45.425
11
105.8
21
-45.425
0
LINE
8
BLACK
6
CONTINUOUS
10
105.8
20
-45.425
11
105.842
21
-45.4426
0
LINE
8
BLACK
6
CONTINUOUS
10
109.052
20
-33.8526
11
109.07
21
-33.895
0
LINE
8
BLACK
6
CONTINUOUS
10
109.07
20
-33.895
11
109.07
21
-36.955
0
LINE
8
BLACK
6
CONTINUOUS
10
109.07
20
-36.955
11
109.052
21
-36.9974
0
LINE
8
BLACK
6
CONTINUOUS
10
109.052
20
-36.9974
11
109.01
21
-37.015
0
LINE
8
BLACK
6
CONTINUOUS
10
109.01
20
-37.015
11
108.968
21
-36.9974
0
LINE
8
BLACK
6
CONTINUOUS
10
108.968
20
-36.9974
11
108.95
21
-36.955
0
LINE
8
BLACK
6
CONTINUOUS
10
108.95
20
-36.955
11
108.95
21
-33.955
0
LINE
8
BLACK
6
CONTINUOUS
10
108.95
20
-33.955
11
99.33
21
-33.955
0
LINE
8
BLACK
6
CONTINUOUS
10
99.33
20
-33.955
11
99.33
21
-36.955
0
LINE
8
BLACK
6
CONTINUOUS
10
99.33
20
-36.955
11
99.3124
21
-36.9974
0
LINE
8
BLACK
6
CONTINUOUS
10
99.3124
20
-36.9974
11
99.27
21
-37.015
0
LINE
8
BLACK
6
CONTINUOUS
10
99.27
20
-37.015
11
99.2276
21
-36.9974
0
LINE
8
BLACK
6
CONTINUOUS
10
99.2276
20
-36.9974
11
99.21
21
-36.955
0
LINE
8
BLACK
6
CONTINUOUS
10
99.21
20
-36.955
11
99.21
21
-33.895
0
LINE
8
BLACK
6
CONTINUOUS
10
99.21
20
-33.895
11
99.2276
21
-33.8526
0
LINE
8
BLACK
6
CONTINUOUS
10
99.2276
20
-33.8526
11
99.27
21
-33.835
0
LINE
8
BLACK
6
CONTINUOUS
10
99.27
20
-33.835
11
109.01
21
-33.835
0
LINE
8
BLACK
6
CONTINUOUS
10
109.01
20
-33.835
11
109.052
21
-33.8526
0
LINE
8
BLACK
6
CONTINUOUS
10
108.396
20
-171.785
11
108.438
21
-171.641
0
LINE
8
BLACK
6
CONTINUOUS
10
108.438
20
-171.641
11
108.516
21
-171.514
0
LINE
8
BLACK
6
CONTINUOUS
10
108.516
20
-171.514
11
108.626
21
-171.413
0
LINE
8
BLACK
6
CONTINUOUS
10
108.626
20
-171.413
11
108.759
21
-171.346
0
LINE
8
BLACK
6
CONTINUOUS
10
108.759
20
-171.346
11
108.905
21
-171.316
0
LINE
8
BLACK
6
CONTINUOUS
10
108.905
20
-171.316
11
109.054
21
-171.327
0
LINE
8
BLACK
6
CONTINUOUS
10
109.054
20
-171.327
11
109.195
21
-171.378
0
LINE
8
BLACK
6
CONTINUOUS
10
109.195
20
-171.378
11
109.317
21
-171.464
0
LINE
8
BLACK
6
CONTINUOUS
10
109.317
20
-171.464
11
109.41
21
-171.58
0
LINE
8
BLACK
6
CONTINUOUS
10
109.41
20
-171.58
11
109.47
21
-171.717
0
LINE
8
BLACK
6
CONTINUOUS
10
109.47
20
-171.717
11
109.49
21
-171.865
0
LINE
8
BLACK
6
CONTINUOUS
10
109.49
20
-171.865
11
109.49
21
-172.565
0
LINE
8
BLACK
6
CONTINUOUS
10
109.49
20
-172.565
11
109.484
21
-172.645
0
LINE
8
BLACK
6
CONTINUOUS
10
109.484
20
-172.645
11
109.442
21
-172.789
0
LINE
8
BLACK
6
CONTINUOUS
10
109.442
20
-172.789
11
109.364
21
-172.916
0
LINE
8
BLACK
6
CONTINUOUS
10
109.364
20
-172.916
11
109.254
21
-173.017
0
LINE
8
BLACK
6
CONTINUOUS
10
109.254
20
-173.017
11
109.121
21
-173.084
0
LINE
8
BLACK
6
CONTINUOUS
10
109.121
20
-173.084
11
108.975
21
-173.114
0
LINE
8
BLACK
6
CONTINUOUS
10
108.975
20
-173.114
11
108.826
21
-173.103
0
LINE
8
BLACK
6
CONTINUOUS
10
108.826
20
-173.103
11
108.685
21
-173.052
0
LINE
8
BLACK
6
CONTINUOUS
10
108.685
20
-173.052
11
108.563
21
-172.966
0
LINE
8
BLACK
6
CONTINUOUS
10
108.563
20
-172.966
11
108.47
21
-172.85
0
LINE
8
BLACK
6
CONTINUOUS
10
108.47
20
-172.85
11
108.41
21
-172.713
0
LINE
8
BLACK
6
CONTINUOUS
10
108.41
20
-172.713
11
108.39
21
-172.565
0
LINE
8
BLACK
6
CONTINUOUS
10
108.39
20
-172.565
11
108.39
21
-171.865
0
LINE
8
BLACK
6
CONTINUOUS
10
108.39
20
-171.865
11
108.396
21
-171.785
0
LINE
8
BLACK
6
CONTINUOUS
10
98.7959
20
-171.785
11
98.8375
21
-171.641
0
LINE
8
BLACK
6
CONTINUOUS
10
98.8375
20
-171.641
11
98.9162
21
-171.514
0
LINE
8
BLACK
6
CONTINUOUS
10
98.9162
20
-171.514
11
99.0261
21
-171.413
0
LINE
8
BLACK
6
CONTINUOUS
10
99.0261
20
-171.413
11
99.1591
21
-171.346
0
LINE
8
BLACK
6
CONTINUOUS
10
99.1591
20
-171.346
11
99.3055
21
-171.316
0
LINE
8
BLACK
6
CONTINUOUS
10
99.3055
20
-171.316
11
99.4544
21
-171.327
0
LINE
8
BLACK
6
CONTINUOUS
10
99.4544
20
-171.327
11
99.5948
21
-171.378
0
LINE
8
BLACK
6
CONTINUOUS
10
99.5948
20
-171.378
11
99.7165
21
-171.464
0
LINE
8
BLACK
6
CONTINUOUS
10
99.7165
20
-171.464
11
99.8104
21
-171.58
0
LINE
8
BLACK
6
CONTINUOUS
10
99.8104
20
-171.58
11
99.8697
21
-171.717
0
LINE
8
BLACK
6
CONTINUOUS
10
99.8697
20
-171.717
11
99.89
21
-171.865
0
LINE
8
BLACK
6
CONTINUOUS
10
99.89
20
-171.865
11
99.89
21
-172.565
0
LINE
8
BLACK
6
CONTINUOUS
10
99.89
20
-172.565
11
99.8841
21
-172.645
0
LINE
8
BLACK
6
CONTINUOUS
10
99.8841
20
-172.645
11
99.8424
21
-172.789
0
LINE
8
BLACK
6
CONTINUOUS
10
99.8424
20
-172.789
11
99.7638
21
-172.916
0
LINE
8
BLACK
6
CONTINUOUS
10
99.7638
20
-172.916
11
99.6539
21
-173.017
0
LINE
8
BLACK
6
CONTINUOUS
10
99.6539
20
-173.017
11
99.5209
21
-173.084
0
LINE
8
BLACK
6
CONTINUOUS
10
99.5209
20
-173.084
11
99.3745
21
-173.114
0
LINE
8
BLACK
6
CONTINUOUS
10
99.3745
20
-173.114
11
99.2256
21
-173.103
0
LINE
8
BLACK
6
CONTINUOUS
10
99.2256
20
-173.103
11
99.0852
21
-173.052
0
LINE
8
BLACK
6
CONTINUOUS
10
99.0852
20
-173.052
11
98.9635
21
-172.966
0
LINE
8
BLACK
6
CONTINUOUS
10
98.9635
20
-172.966
11
98.8695
21
-172.85
0
LINE
8
BLACK
6
CONTINUOUS
10
98.8695
20
-172.85
11
98.8103
21
-172.713
0
LINE
8
BLACK
6
CONTINUOUS
10
98.8103
20
-172.713
11
98.79
21
-172.565
0
LINE
8
BLACK
6
CONTINUOUS
10
98.79
20
-172.565
11
98.79
21
-171.865
0
LINE
8
BLACK
6
CONTINUOUS
10
98.79
20
-171.865
11
98.7959
21
-171.785
0
CIRCLE
8
BLACK
10
101.64
20
-179.715
40
0.5
0
CIRCLE
8
BLACK
10
104.14
20
-179.715
40
0.5
0
CIRCLE
8
BLACK
10
106.64
20
-179.715
40
0.5
0
CIRCLE
8
BLACK
10
104.14
20
-228.865
40
0.925
0
CIRCLE
8
BLACK
10
104.14
20
-224.165
40
0.925
0
CIRCLE
8
BLACK
10
104.14
20
-219.465
40
0.925
0
LINE
8
BLACK
6
CONTINUOUS
10
108.396
20
-82.8847
11
108.438
21
-82.7413
0
LINE
8
BLACK
6
CONTINUOUS
10
108.438
20
-82.7413
11
108.516
21
-82.6144
0
LINE
8
BLACK
6
CONTINUOUS
10
108.516
20
-82.6144
11
108.626
21
-82.5134
0
LINE
8
BLACK
6
CONTINUOUS
10
108.626
20
-82.5134
11
108.759
21
-82.4456
0
LINE
8
BLACK
6
CONTINUOUS
10
108.759
20
-82.4456
11
108.905
21
-82.4161
0
LINE
8
BLACK
6
CONTINUOUS
10
108.905
20
-82.4161
11
109.054
21
-82.427
0
LINE
8
BLACK
6
CONTINUOUS
10
109.054
20
-82.427
11
109.195
21
-82.4776
0
LINE
8
BLACK
6
CONTINUOUS
10
109.195
20
-82.4776
11
109.317
21
-82.5641
0
LINE
8
BLACK
6
CONTINUOUS
10
109.317
20
-82.5641
11
109.41
21
-82.6801
0
LINE
8
BLACK
6
CONTINUOUS
10
109.41
20
-82.6801
11
109.47
21
-82.8171
0
LINE
8
BLACK
6
CONTINUOUS
10
109.47
20
-82.8171
11
109.49
21
-82.965
0
LINE
8
BLACK
6
CONTINUOUS
10
109.49
20
-82.965
11
109.49
21
-83.665
0
LINE
8
BLACK
6
CONTINUOUS
10
109.49
20
-83.665
11
109.484
21
-83.7453
0
LINE
8
BLACK
6
CONTINUOUS
10
109.484
20
-83.7453
11
109.442
21
-83.8887
0
LINE
8
BLACK
6
CONTINUOUS
10
109.442
20
-83.8887
11
109.364
21
-84.0156
0
LINE
8
BLACK
6
CONTINUOUS
10
109.364
20
-84.0156
11
109.254
21
-84.1166
0
LINE
8
BLACK
6
CONTINUOUS
10
109.254
20
-84.1166
11
109.121
21
-84.1844
0
LINE
8
BLACK
6
CONTINUOUS
10
109.121
20
-84.1844
11
108.975
21
-84.2139
0
LINE
8
BLACK
6
CONTINUOUS
10
108.975
20
-84.2139
11
108.826
21
-84.203
0
LINE
8
BLACK
6
CONTINUOUS
10
108.826
20
-84.203
11
108.685
21
-84.1524
0
LINE
8
BLACK
6
CONTINUOUS
10
108.685
20
-84.1524
11
108.563
21
-84.0659
0
LINE
8
BLACK
6
CONTINUOUS
10
108.563
20
-84.0659
11
108.47
21
-83.9499
0
LINE
8
BLACK
6
CONTINUOUS
10
108.47
20
-83.9499
11
108.41
21
-83.8129
0
LINE
8
BLACK
6
CONTINUOUS
10
108.41
20
-83.8129
11
108.39
21
-83.665
0
LINE
8
BLACK
6
CONTINUOUS
10
108.39
20
-83.665
11
108.39
21
-82.965
0
LINE
8
BLACK
6
CONTINUOUS
10
108.39
20
-82.965
11
108.396
21
-82.8847
0
LINE
8
BLACK
6
CONTINUOUS
10
98.7959
20
-82.8847
11
98.8375
21
-82.7413
0
LINE
8
BLACK
6
CONTINUOUS
10
98.8375
20
-82.7413
11
98.9162
21
-82.6144
0
LINE
8
BLACK
6
CONTINUOUS
10
98.9162
20
-82.6144
11
99.0261
21
-82.5134
0
LINE
8
BLACK
6
CONTINUOUS
10
99.0261
20
-82.5134
11
99.1591
21
-82.4456
0
LINE
8
BLACK
6
CONTINUOUS
10
99.1591
20
-82.4456
11
99.3055
21
-82.4161
0
LINE
8
BLACK
6
CONTINUOUS
10
99.3055
20
-82.4161
11
99.4544
21
-82.427
0
LINE
8
BLACK
6
CONTINUOUS
10
99.4544
20
-82.427
11
99.5948
21
-82.4776
0
LINE
8
BLACK
6
CONTINUOUS
10
99.5948
20
-82.4776
11
99.7165
21
-82.5641
0
LINE
8
BLACK
6
CONTINUOUS
10
99.7165
20
-82.5641
11
99.8104
21
-82.6801
0
LINE
8
BLACK
6
CONTINUOUS
10
99.8104
20
-82.6801
11
99.8697
21
-82.8171
0
LINE
8
BLACK
6
CONTINUOUS
10
99.8697
20
-82.8171
11
99.89
21
-82.965
0
LINE
8
BLACK
6
CONTINUOUS
10
99.89
20
-82.965
11
99.89
21
-83.665
0
LINE
8
BLACK
6
CONTINUOUS
10
99.89
20
-83.665
11
99.8841
21
-83.7453
0
LINE
8
BLACK
6
CONTINUOUS
10
99.8841
20
-83.7453
11
99.8424
21
-83.8887
0
LINE
8
BLACK
6
CONTINUOUS
10
99.8424
20
-83.8887
11
99.7638
21
-84.0156
0
LINE
8
BLACK
6
CONTINUOUS
10
99.7638
20
-84.0156
11
99.6539
21
-84.1166
0
LINE
8
BLACK
6
CONTINUOUS
10
99.6539
20
-84.1166
11
99.5209
21
-84.1844
0
LINE
8
BLACK
6
CONTINUOUS
10
99.5209
20
-84.1844
11
99.3745
21
-84.2139
0
LINE
8
BLACK
6
CONTINUOUS
10
99.3745
20
-84.2139
11
99.2256
21
-84.203
0
LINE
8
BLACK
6
CONTINUOUS
10
99.2256
20
-84.203
11
99.0852
21
-84.1524
0
LINE
8
BLACK
6
CONTINUOUS
10
99.0852
20
-84.1524
11
98.9635
21
-84.0659
0
LINE
8
BLACK
6
CONTINUOUS
10
98.9635
20
-84.0659
11
98.8695
21
-83.9499
0
LINE
8
BLACK
6
CONTINUOUS
10
98.8695
20
-83.9499
11
98.8103
21
-83.8129
0
LINE
8
BLACK
6
CONTINUOUS
10
98.8103
20
-83.8129
11
98.79
21
-83.665
0
LINE
8
BLACK
6
CONTINUOUS
10
98.79
20
-83.665
11
98.79
21
-82.965
0
LINE
8
BLACK
6
CONTINUOUS
10
98.79
20
-82.965
11
98.7959
21
-82.8847
0
CIRCLE
8
BLACK
10
101.64
20
-90.815
40
0.5
0
CIRCLE
8
BLACK
10
104.14
20
-90.815
40
0.5
0
CIRCLE
8
BLACK
10
106.64
20
-90.815
40
0.5
0
LINE
8
BLACK
6
CONTINUOUS
10
98.7959
20
-127.335
11
98.8375
21
-127.191
0
LINE
8
BLACK
6
CONTINUOUS
10
98.8375
20
-127.191
11
98.9162
21
-127.064
0
LINE
8
BLACK
6
CONTINUOUS
10
98.9162
20
-127.064
11
99.0261
21
-126.963
0
LINE
8
BLACK
6
CONTINUOUS
10
99.0261
20
-126.963
11
99.1591
21
-126.896
0
LINE
8
BLACK
6
CONTINUOUS
10
99.1591
20
-126.896
11
99.3055
21
-126.866
0
LINE
8
BLACK
6
CONTINUOUS
10
99.3055
20
-126.866
11
99.4544
21
-126.877
0
LINE
8
BLACK
6
CONTINUOUS
10
99.4544
20
-126.877
11
99.5948
21
-126.928
0
LINE
8
BLACK
6
CONTINUOUS
10
99.5948
20
-126.928
11
99.7165
21
-127.014
0
LINE
8
BLACK
6
CONTINUOUS
10
99.7165
20
-127.014
11
99.8104
21
-127.13
0
LINE
8
BLACK
6
CONTINUOUS
10
99.8104
20
-127.13
11
99.8697
21
-127.267
0
LINE
8
BLACK
6
CONTINUOUS
10
99.8697
20
-127.267
11
99.89
21
-127.415
0
LINE
8
BLACK
6
CONTINUOUS
10
99.89
20
-127.415
11
99.89
21
-128.115
0
LINE
8
BLACK
6
CONTINUOUS
10
99.89
20
-128.115
11
99.8841
21
-128.195
0
LINE
8
BLACK
6
CONTINUOUS
10
99.8841
20
-128.195
11
99.8424
21
-128.339
0
LINE
8
BLACK
6
CONTINUOUS
10
99.8424
20
-128.339
11
99.7638
21
-128.466
0
LINE
8
BLACK
6
CONTINUOUS
10
99.7638
20
-128.466
11
99.6539
21
-128.567
0
LINE
8
BLACK
6
CONTINUOUS
10
99.6539
20
-128.567
11
99.5209
21
-128.634
0
LINE
8
BLACK
6
CONTINUOUS
10
99.5209
20
-128.634
11
99.3745
21
-128.664
0
LINE
8
BLACK
6
CONTINUOUS
10
99.3745
20
-128.664
11
99.2256
21
-128.653
0
LINE
8
BLACK
6
CONTINUOUS
10
99.2256
20
-128.653
11
99.0852
21
-128.602
0
LINE
8
BLACK
6
CONTINUOUS
10
99.0852
20
-128.602
11
98.9635
21
-128.516
0
LINE
8
BLACK
6
CONTINUOUS
10
98.9635
20
-128.516
11
98.8695
21
-128.4
0
LINE
8
BLACK
6
CONTINUOUS
10
98.8695
20
-128.4
11
98.8103
21
-128.263
0
LINE
8
BLACK
6
CONTINUOUS
10
98.8103
20
-128.263
11
98.79
21
-128.115
0
LINE
8
BLACK
6
CONTINUOUS
10
98.79
20
-128.115
11
98.79
21
-127.415
0
LINE
8
BLACK
6
CONTINUOUS
10
98.79
20
-127.415
11
98.7959
21
-127.335
0
LINE
8
BLACK
6
CONTINUOUS
10
108.396
20
-127.335
11
108.438
21
-127.191
0
LINE
8
BLACK
6
CONTINUOUS
10
108.438
20
-127.191
11
108.516
21
-127.064
0
LINE
8
BLACK
6
CONTINUOUS
10
108.516
20
-127.064
11
108.626
21
-126.963
0
LINE
8
BLACK
6
CONTINUOUS
10
108.626
20
-126.963
11
108.759
21
-126.896
0
LINE
8
BLACK
6
CONTINUOUS
10
108.759
20
-126.896
11
108.905
21
-126.866
0
LINE
8
BLACK
6
CONTINUOUS
10
108.905
20
-126.866
11
109.054
21
-126.877
0
LINE
8
BLACK
6
CONTINUOUS
10
109.054
20
-126.877
11
109.195
21
-126.928
0
LINE
8
BLACK
6
CONTINUOUS
10
109.195
20
-126.928
11
109.317
21
-127.014
0
LINE
8
BLACK
6
CONTINUOUS
10
109.317
20
-127.014
11
109.41
21
-127.13
0
LINE
8
BLACK
6
CONTINUOUS
10
109.41
20
-127.13
11
109.47
21
-127.267
0
LINE
8
BLACK
6
CONTINUOUS
10
109.47
20
-127.267
11
109.49
21
-127.415
0
LINE
8
BLACK
6
CONTINUOUS
10
109.49
20
-127.415
11
109.49
21
-128.115
0
LINE
8
BLACK
6
CONTINUOUS
10
109.49
20
-128.115
11
109.484
21
-128.195
0
LINE
8
BLACK
6
CONTINUOUS
10
109.484
20
-128.195
11
109.442
21
-128.339
0
LINE
8
BLACK
6
CONTINUOUS
10
109.442
20
-128.339
11
109.364
21
-128.466
0
LINE
8
BLACK
6
CONTINUOUS
10
109.364
20
-128.466
11
109.254
21
-128.567
0
LINE
8
BLACK
6
CONTINUOUS
10
109.254
20
-128.567
11
109.121
21
-128.634
0
LINE
8
BLACK
6
CONTINUOUS
10
109.121
20
-128.634
11
108.975
21
-128.664
0
LINE
8
BLACK
6
CONTINUOUS
10
108.975
20
-128.664
11
108.826
21
-128.653
0
LINE
8
BLACK
6
CONTINUOUS
10
108.826
20
-128.653
11
108.685
21
-128.602
0
LINE
8
BLACK
6
CONTINUOUS
10
108.685
20
-128.602
11
108.563
21
-128.516
0
LINE
8
BLACK
6
CONTINUOUS
10
108.563
20
-128.516
11
108.47
21
-128.4
0
LINE
8
BLACK
6
CONTINUOUS
10
108.47
20
-128.4
11
108.41
21
-128.263
0
LINE
8
BLACK
6
CONTINUOUS
10
108.41
20
-128.263
11
108.39
21
-128.115
0
LINE
8
BLACK
6
CONTINUOUS
10
108.39
20
-128.115
11
108.39
21
-127.415
0
LINE
8
BLACK
6
CONTINUOUS
10
108.39
20
-127.415
11
108.396
21
-127.335
0
CIRCLE
8
BLACK
10
101.64
20
-135.265
40
0.5
0
CIRCLE
8
BLACK
10
104.14
20
-135.265
40
0.5
0
CIRCLE
8
BLACK
10
106.64
20
-135.265
40
0.5
0
LINE
8
BLACK
6
CONTINUOUS
10
108.396
20
-38.4347
11
108.438
21
-38.2913
0
LINE
8
BLACK
6
CONTINUOUS
10
108.438
20
-38.2913
11
108.516
21
-38.1644
0
LINE
8
BLACK
6
CONTINUOUS
10
108.516
20
-38.1644
11
108.626
21
-38.0634
0
LINE
8
BLACK
6
CONTINUOUS
10
108.626
20
-38.0634
11
108.759
21
-37.9956
0
LINE
8
BLACK
6
CONTINUOUS
10
108.759
20
-37.9956
11
108.905
21
-37.9661
0
LINE
8
BLACK
6
CONTINUOUS
10
108.905
20
-37.9661
11
109.054
21
-37.977
0
LINE
8
BLACK
6
CONTINUOUS
10
109.054
20
-37.977
11
109.195
21
-38.0276
0
LINE
8
BLACK
6
CONTINUOUS
10
109.195
20
-38.0276
11
109.317
21
-38.1141
0
LINE
8
BLACK
6
CONTINUOUS
10
109.317
20
-38.1141
11
109.41
21
-38.2301
0
LINE
8
BLACK
6
CONTINUOUS
10
109.41
20
-38.2301
11
109.47
21
-38.3671
0
LINE
8
BLACK
6
CONTINUOUS
10
109.47
20
-38.3671
11
109.49
21
-38.515
0
LINE
8
BLACK
6
CONTINUOUS
10
109.49
20
-38.515
11
109.49
21
-39.215
0
LINE
8
BLACK
6
CONTINUOUS
10
109.49
20
-39.215
11
109.484
21
-39.2953
0
LINE
8
BLACK
6
CONTINUOUS
10
109.484
20
-39.2953
11
109.442
21
-39.4387
0
LINE
8
BLACK
6
CONTINUOUS
10
109.442
20
-39.4387
11
109.364
21
-39.5656
0
LINE
8
BLACK
6
CONTINUOUS
10
109.364
20
-39.5656
11
109.254
21
-39.6666
0
LINE
8
BLACK
6
CONTINUOUS
10
109.254
20
-39.6666
11
109.121
21
-39.7344
0
LINE
8
BLACK
6
CONTINUOUS
10
109.121
20
-39.7344
11
108.975
21
-39.7639
0
LINE
8
BLACK
6
CONTINUOUS
10
108.975
20
-39.7639
11
108.826
21
-39.753
0
LINE
8
BLACK
6
CONTINUOUS
10
108.826
20
-39.753
11
108.685
21
-39.7024
0
LINE
8
BLACK
6
CONTINUOUS
10
108.685
20
-39.7024
11
108.563
21
-39.6159
0
LINE
8
BLACK
6
CONTINUOUS
10
108.563
20
-39.6159
11
108.47
21
-39.4999
0
LINE
8
BLACK
6
CONTINUOUS
10
108.47
20
-39.4999
11
108.41
21
-39.3629
0
LINE
8
BLACK
6
CONTINUOUS
10
108.41
20
-39.3629
11
108.39
21
-39.215
0
LINE
8
BLACK
6
CONTINUOUS
10
108.39
20
-39.215
11
108.39
21
-38.515
0
LINE
8
BLACK
6
CONTINUOUS
10
108.39
20
-38.515
11
108.396
21
-38.4347
0
LINE
8
BLACK
6
CONTINUOUS
10
98.7959
20
-38.4347
11
98.8375
21
-38.2913
0
LINE
8
BLACK
6
CONTINUOUS
10
98.8375
20
-38.2913
11
98.9162
21
-38.1644
0
LINE
8
BLACK
6
CONTINUOUS
10
98.9162
20
-38.1644
11
99.0261
21
-38.0634
0
LINE
8
BLACK
6
CONTINUOUS
10
99.0261
20
-38.0634
11
99.1591
21
-37.9956
0
LINE
8
BLACK
6
CONTINUOUS
10
99.1591
20
-37.9956
11
99.3055
21
-37.9661
0
LINE
8
BLACK
6
CONTINUOUS
10
99.3055
20
-37.9661
11
99.4544
21
-37.977
0
LINE
8
BLACK
6
CONTINUOUS
10
99.4544
20
-37.977
11
99.5948
21
-38.0276
0
LINE
8
BLACK
6
CONTINUOUS
10
99.5948
20
-38.0276
11
99.7165
21
-38.1141
0
LINE
8
BLACK
6
CONTINUOUS
10
99.7165
20
-38.1141
11
99.8104
21
-38.2301
0
LINE
8
BLACK
6
CONTINUOUS
10
99.8104
20
-38.2301
11
99.8697
21
-38.3671
0
LINE
8
BLACK
6
CONTINUOUS
10
99.8697
20
-38.3671
11
99.89
21
-38.515
0
LINE
8
BLACK
6
CONTINUOUS
10
99.89
20
-38.515
11
99.89
21
-39.215
0
LINE
8
BLACK
6
CONTINUOUS
10
99.89
20
-39.215
11
99.8841
21
-39.2953
0
LINE
8
BLACK
6
CONTINUOUS
10
99.8841
20
-39.2953
11
99.8424
21
-39.4387
0
LINE
8
BLACK
6
CONTINUOUS
10
99.8424
20
-39.4387
11
99.7638
21
-39.5656
0
LINE
8
BLACK
6
CONTINUOUS
10
99.7638
20
-39.5656
11
99.6539
21
-39.6666
0
LINE
8
BLACK
6
CONTINUOUS
10
99.6539
20
-39.6666
11
99.5209
21
-39.7344
0
LINE
8
BLACK
6
CONTINUOUS
10
99.5209
20
-39.7344
11
99.3745
21
-39.7639
0
LINE
8
BLACK
6
CONTINUOUS
10
99.3745
20
-39.7639
11
99.2256
21
-39.753
0
LINE
8
BLACK
6
CONTINUOUS
10
99.2256
20
-39.753
11
99.0852
21
-39.7024
0
LINE
8
BLACK
6
CONTINUOUS
10
99.0852
20
-39.7024
11
98.9635
21
-39.6159
0
LINE
8
BLACK
6
CONTINUOUS
10
98.9635
20
-39.6159
11
98.8695
21
-39.4999
0
LINE
8
BLACK
6
CONTINUOUS
10
98.8695
20
-39.4999
11
98.8103
21
-39.3629
0
LINE
8
BLACK
6
CONTINUOUS
10
98.8103
20
-39.3629
11
98.79
21
-39.215
0
LINE
8
BLACK
6
CONTINUOUS
10
98.79
20
-39.215
11
98.79
21
-38.515
0
LINE
8
BLACK
6
CONTINUOUS
10
98.79
20
-38.515
11
98.7959
21
-38.4347
0
CIRCLE
8
BLACK
10
101.64
20
-46.365
40
0.5
0
CIRCLE
8
BLACK
10
104.14
20
-46.365
40
0.5
0
CIRCLE
8
BLACK
10
106.64
20
-46.365
40
0.5
0
CIRCLE
8
BLACK
10
113.665
20
-193.05
40
0.4
0
CIRCLE
8
BLACK
10
116.165
20
-193.05
40
0.4
0
CIRCLE
8
BLACK
10
101.64
20
-63.383
40
0.4
0
CIRCLE
8
BLACK
10
106.64
20
-63.383
40
0.4
0
CIRCLE
8
BLACK
10
103.36
20
-146.314
40
0.4
0
CIRCLE
8
BLACK
10
105.86
20
-146.314
40
0.4
0
CIRCLE
8
BLACK
10
99.1
20
-197.495
40
0.4
0
CIRCLE
8
BLACK
10
101.6
20
-197.495
40
0.4
0
CIRCLE
8
BLACK
10
117.475
20
-209.56
40
0.5
0
CIRCLE
8
BLACK
10
109.154
20
-153.299
40
0.4
0
CIRCLE
8
BLACK
10
111.654
20
-153.299
40
0.4
0
CIRCLE
8
BLACK
10
116.205
20
-167.015
40
0.595
0
CIRCLE
8
BLACK
10
116.205
20
-164.475
40
0.595
0
CIRCLE
8
BLACK
10
90.805
20
-228.61
40
0.65
0
CIRCLE
8
BLACK
10
98.425
20
-228.61
40
0.65
0
CIRCLE
8
BLACK
10
92.075
20
-112.405
40
0.595
0
CIRCLE
8
BLACK
10
92.075
20
-114.945
40
0.595
0
CIRCLE
8
BLACK
10
92.075
20
-117.485
40
0.595
0
CIRCLE
8
BLACK
10
92.075
20
-120.025
40
0.595
0
CIRCLE
8
BLACK
10
92.075
20
-122.565
40
0.595
0
CIRCLE
8
BLACK
10
92.075
20
-125.105
40
0.595
0
CIRCLE
8
BLACK
10
92.095
20
-93.355
40
0.595
0
CIRCLE
8
BLACK
10
92.095
20
-95.895
40
0.595
0
CIRCLE
8
BLACK
10
92.095
20
-98.435
40
0.595
0
CIRCLE
8
BLACK
10
112.776
20
-92.339
40
0.5
0
CIRCLE
8
BLACK
10
106.68
20
-197.495
40
0.4
0
CIRCLE
8
BLACK
10
109.18
20
-197.495
40
0.4
0
CIRCLE
8
BLACK
10
90.17
20
-80.655
40
0.5
0
CIRCLE
8
BLACK
10
111.76
20
-219.085
40
0.5
0
CIRCLE
8
BLACK
10
90.805
20
-209.56
40
0.5
0
CIRCLE
8
BLACK
10
92.115
20
-193.05
40
0.4
0
CIRCLE
8
BLACK
10
94.615
20
-193.05
40
0.4
0
CIRCLE
8
BLACK
10
111.76
20
-228.61
40
0.5
0
CIRCLE
8
BLACK
10
99.06
20
-209.56
40
0.5
0
CIRCLE
8
BLACK
10
99.06
20
-212.1
40
0.5
0
CIRCLE
8
BLACK
10
101.6
20
-209.56
40
0.5
0
CIRCLE
8
BLACK
10
101.6
20
-212.1
40
0.5
0
CIRCLE
8
BLACK
10
104.14
20
-209.56
40
0.5
0
CIRCLE
8
BLACK
10
104.14
20
-212.1
40
0.5
0
CIRCLE
8
BLACK
10
106.68
20
-209.56
40
0.5
0
CIRCLE
8
BLACK
10
106.68
20
-212.1
40
0.5
0
CIRCLE
8
BLACK
10
109.22
20
-209.56
40
0.5
0
CIRCLE
8
BLACK
10
109.22
20
-212.1
40
0.5
0
CIRCLE
8
BLACK
10
112.776
20
-63.891
40
0.4
0
CIRCLE
8
BLACK
10
117.776
20
-63.891
40
0.4
0
CIRCLE
8
BLACK
10
104.14
20
-153.299
40
0.4
0
CIRCLE
8
BLACK
10
104.14
20
-155.839
40
0.4
0
CIRCLE
8
BLACK
10
104.14
20
-158.379
40
0.4
0
CIRCLE
8
BLACK
10
113.03
20
-71.13
40
0.5
  0
ENDSEC
  0
EOF
