<?xml version="1.0" standalone="no"?>
 <!DOCTYPE svg PUBLIC "-//W3C//DTD SVG 1.1//EN" 
 "http://www.w3.org/Graphics/SVG/1.1/DTD/svg11.dtd"> 
<svg
  xmlns:svg="http://www.w3.org/2000/svg"
  xmlns="http://www.w3.org/2000/svg"
  xmlns:xlink="http://www.w3.org/1999/xlink"
  version="1.1"
  width="157.4800mm" height="246.3800mm" viewBox="0.0000 0.0000 157.4800 246.3800">
<title>SVG Image created as VCF_VCA_BBD_pcb_panel_back.svg date 2023/03/27 09:42:22 </title>
  <desc>Image generated by PCBNEW </desc>
<g style="fill:#000000; fill-opacity:1.0000;stroke:#000000; stroke-opacity:1.0000;
stroke-linecap:round; stroke-linejoin:round;"
 transform="translate(0 0) scale(1 1)">
</g>
<g style="fill:#000000; fill-opacity:0.0; 
stroke:#000000; stroke-width:0.0000; stroke-opacity:1; 
stroke-linecap:round; stroke-linejoin:round;">
</g>
<g style="fill:#C2C2C2; fill-opacity:0.0; 
stroke:#C2C2C2; stroke-width:0.0000; stroke-opacity:1; 
stroke-linecap:round; stroke-linejoin:round;">
</g>
<g style="fill:#C2C2C2; fill-opacity:0.0; 
stroke:#C2C2C2; stroke-width:0.2000; stroke-opacity:1; 
stroke-linecap:round; stroke-linejoin:round;">
<text x="78.7400" y="9.2550"
textLength="20.6714" font-size="2.6667" lengthAdjust="spacingAndGlyphs"
text-anchor="middle" opacity="0">JLCJLCJLCJLC</text>
<g class="stroked-text"><desc>JLCJLCJLCJLC</desc>
<path d="M87.9781 7.1802
L87.9781 8.6088
" />
<path d="M87.9781 8.6088
L88.0733 8.8945
" />
<path d="M88.0733 8.8945
L88.2638 9.0850
" />
<path d="M88.2638 9.0850
L88.5495 9.1802
" />
<path d="M88.5495 9.1802
L88.7400 9.1802
" />
<path d="M86.0733 9.1802
L87.0257 9.1802
" />
<path d="M87.0257 9.1802
L87.0257 7.1802
" />
<path d="M84.2638 8.9898
L84.3590 9.0850
" />
<path d="M84.3590 9.0850
L84.6448 9.1802
" />
<path d="M84.6448 9.1802
L84.8352 9.1802
" />
<path d="M84.8352 9.1802
L85.1210 9.0850
" />
<path d="M85.1210 9.0850
L85.3114 8.8945
" />
<path d="M85.3114 8.8945
L85.4067 8.7040
" />
<path d="M85.4067 8.7040
L85.5019 8.3231
" />
<path d="M85.5019 8.3231
L85.5019 8.0374
" />
<path d="M85.5019 8.0374
L85.4067 7.6564
" />
<path d="M85.4067 7.6564
L85.3114 7.4660
" />
<path d="M85.3114 7.4660
L85.1210 7.2755
" />
<path d="M85.1210 7.2755
L84.8352 7.1802
" />
<path d="M84.8352 7.1802
L84.6448 7.1802
" />
<path d="M84.6448 7.1802
L84.3590 7.2755
" />
<path d="M84.3590 7.2755
L84.2638 7.3707
" />
<path d="M82.8352 7.1802
L82.8352 8.6088
" />
<path d="M82.8352 8.6088
L82.9305 8.8945
" />
<path d="M82.9305 8.8945
L83.1210 9.0850
" />
<path d="M83.1210 9.0850
L83.4067 9.1802
" />
<path d="M83.4067 9.1802
L83.5971 9.1802
" />
<path d="M80.9305 9.1802
L81.8829 9.1802
" />
<path d="M81.8829 9.1802
L81.8829 7.1802
" />
<path d="M79.1210 8.9898
L79.2162 9.0850
" />
<path d="M79.2162 9.0850
L79.5019 9.1802
" />
<path d="M79.5019 9.1802
L79.6924 9.1802
" />
<path d="M79.6924 9.1802
L79.9781 9.0850
" />
<path d="M79.9781 9.0850
L80.1686 8.8945
" />
<path d="M80.1686 8.8945
L80.2638 8.7040
" />
<path d="M80.2638 8.7040
L80.3590 8.3231
" />
<path d="M80.3590 8.3231
L80.3590 8.0374
" />
<path d="M80.3590 8.0374
L80.2638 7.6564
" />
<path d="M80.2638 7.6564
L80.1686 7.4660
" />
<path d="M80.1686 7.4660
L79.9781 7.2755
" />
<path d="M79.9781 7.2755
L79.6924 7.1802
" />
<path d="M79.6924 7.1802
L79.5019 7.1802
" />
<path d="M79.5019 7.1802
L79.2162 7.2755
" />
<path d="M79.2162 7.2755
L79.1210 7.3707
" />
<path d="M77.6924 7.1802
L77.6924 8.6088
" />
<path d="M77.6924 8.6088
L77.7876 8.8945
" />
<path d="M77.7876 8.8945
L77.9781 9.0850
" />
<path d="M77.9781 9.0850
L78.2638 9.1802
" />
<path d="M78.2638 9.1802
L78.4543 9.1802
" />
<path d="M75.7876 9.1802
L76.7400 9.1802
" />
<path d="M76.7400 9.1802
L76.7400 7.1802
" />
<path d="M73.9781 8.9898
L74.0733 9.0850
" />
<path d="M74.0733 9.0850
L74.3590 9.1802
" />
<path d="M74.3590 9.1802
L74.5495 9.1802
" />
<path d="M74.5495 9.1802
L74.8352 9.0850
" />
<path d="M74.8352 9.0850
L75.0257 8.8945
" />
<path d="M75.0257 8.8945
L75.1210 8.7040
" />
<path d="M75.1210 8.7040
L75.2162 8.3231
" />
<path d="M75.2162 8.3231
L75.2162 8.0374
" />
<path d="M75.2162 8.0374
L75.1210 7.6564
" />
<path d="M75.1210 7.6564
L75.0257 7.4660
" />
<path d="M75.0257 7.4660
L74.8352 7.2755
" />
<path d="M74.8352 7.2755
L74.5495 7.1802
" />
<path d="M74.5495 7.1802
L74.3590 7.1802
" />
<path d="M74.3590 7.1802
L74.0733 7.2755
" />
<path d="M74.0733 7.2755
L73.9781 7.3707
" />
<path d="M72.5495 7.1802
L72.5495 8.6088
" />
<path d="M72.5495 8.6088
L72.6448 8.8945
" />
<path d="M72.6448 8.8945
L72.8352 9.0850
" />
<path d="M72.8352 9.0850
L73.1210 9.1802
" />
<path d="M73.1210 9.1802
L73.3114 9.1802
" />
<path d="M70.6448 9.1802
L71.5971 9.1802
" />
<path d="M71.5971 9.1802
L71.5971 7.1802
" />
<path d="M68.8352 8.9898
L68.9305 9.0850
" />
<path d="M68.9305 9.0850
L69.2162 9.1802
" />
<path d="M69.2162 9.1802
L69.4067 9.1802
" />
<path d="M69.4067 9.1802
L69.6924 9.0850
" />
<path d="M69.6924 9.0850
L69.8829 8.8945
" />
<path d="M69.8829 8.8945
L69.9781 8.7040
" />
<path d="M69.9781 8.7040
L70.0733 8.3231
" />
<path d="M70.0733 8.3231
L70.0733 8.0374
" />
<path d="M70.0733 8.0374
L69.9781 7.6564
" />
<path d="M69.9781 7.6564
L69.8829 7.4660
" />
<path d="M69.8829 7.4660
L69.6924 7.2755
" />
<path d="M69.6924 7.2755
L69.4067 7.1802
" />
<path d="M69.4067 7.1802
L69.2162 7.1802
" />
<path d="M69.2162 7.1802
L68.9305 7.2755
" />
<path d="M68.9305 7.2755
L68.8352 7.3707
" />
</g><g >
</g>
<g >
</g>
<g >
</g>
<g >
</g>
<g >
</g>
<g >
</g>
<g >
</g>
</g>
<g style="fill:#FFFFFF; fill-opacity:0.0; 
stroke:#FFFFFF; stroke-width:0.2000; stroke-opacity:1; 
stroke-linecap:round; stroke-linejoin:round;">
</g>
<g style="fill:#FFFFFF; fill-opacity:1.0000; 
stroke:#FFFFFF; stroke-width:0.0000; stroke-opacity:1; 
stroke-linecap:round; stroke-linejoin:round;">
<circle cx="78.7400" cy="34.9250" r="0.5000" /> 
</g>
<g style="fill:#FFFFFF; fill-opacity:1.0000; 
stroke:#FFFFFF; stroke-width:0.0212; stroke-opacity:1; 
stroke-linecap:round; stroke-linejoin:round;">
</g>
<g style="fill:#000000; fill-opacity:1.0000; 
stroke:#000000; stroke-width:0.0212; stroke-opacity:1; 
stroke-linecap:round; stroke-linejoin:round;">
<g >
</g>
<g style="fill:#000000; fill-opacity:1.0000; 
stroke:#000000; stroke-width:0.0000; stroke-opacity:1; 
stroke-linecap:round; stroke-linejoin:round;">
<circle cx="78.7400" cy="34.9250" r="1.0000" /> 
</g>
<g style="fill:#000000; fill-opacity:1.0000; 
stroke:#000000; stroke-width:0.0212; stroke-opacity:1; 
stroke-linecap:round; stroke-linejoin:round;">
</g>
<g >
</g>
<g >
</g>
<g >
</g>
<g >
</g>
<g >
</g>
<g >
</g>
<g style="fill:#000000; fill-opacity:1.0000; 
stroke:#000000; stroke-width:0.0212; stroke-opacity:1; 
stroke-linecap:round; stroke-linejoin:round;">
<g >
</g>
<g style="fill:#000000; fill-opacity:1.0000; 
stroke:#000000; stroke-width:0.0000; stroke-opacity:1; 
stroke-linecap:round; stroke-linejoin:round;">
<path style="fill:#000000; fill-opacity:1.0000; 
stroke:#000000; stroke-width:0.0000; stroke-opacity:1; 
stroke-linecap:round; stroke-linejoin:round;fill-rule:evenodd;"
d="M 7.6500,3.0500
7.6351,3.0523
7.6351,3.0523
7.6263,3.0537
7.6058,3.0510
7.5840,3.0501
7.2271,3.0657
7.2161,3.0666
6.8316,3.1172
6.8208,3.1191
6.4422,3.2031
6.4316,3.2059
6.2613,3.2596
6.0617,3.3225
6.0514,3.3263
5.6931,3.4747
5.6831,3.4794
5.3391,3.6584
5.3296,3.6639
5.0025,3.8723
4.9935,3.8786
4.6859,4.1147
4.6774,4.1217
4.3915,4.3837
4.3837,4.3915
4.1217,4.6774
4.1147,4.6859
3.8786,4.9935
3.8723,5.0025
3.6639,5.3296
3.6584,5.3391
3.4794,5.6831
3.4747,5.6931
3.3263,6.0514
3.3225,6.0617
3.2059,6.4316
3.2031,6.4422
3.1191,6.8208
3.1172,6.8316
3.0666,7.2161
3.0657,7.2271
3.0504,7.5766
3.0518,7.6014
3.0537,7.6137
3.0525,7.6226
3.0525,7.6226
3.0496,7.6453
3.0485,7.6616
3.0485,237.4406
3.0500,237.4600
3.0523,237.4749
3.0523,237.4749
3.0537,237.4837
3.0510,237.5042
3.0501,237.5260
3.0657,237.8829
3.0666,237.8939
3.1172,238.2784
3.1172,238.2784
3.1191,238.2892
3.1359,238.3649
3.2031,238.6678
3.2059,238.6784
3.3225,239.0483
3.3225,239.0483
3.3263,239.0586
3.4747,239.4169
3.4747,239.4169
3.4794,239.4269
3.6584,239.7709
3.6639,239.7804
3.8723,240.1075
3.8786,240.1165
4.1147,240.4241
4.1217,240.4326
4.3837,240.7185
4.3915,240.7263
4.6774,240.9883
4.6859,240.9953
4.9935,241.2314
5.0025,241.2377
5.3296,241.4461
5.3391,241.4516
5.6831,241.6306
5.6931,241.6353
6.0514,241.7837
6.0617,241.7875
6.4316,241.9041
6.4422,241.9069
6.8208,241.9909
6.8316,241.9928
7.2161,242.0434
7.2161,242.0434
7.2271,242.0443
7.5766,242.0596
7.6014,242.0582
7.6137,242.0563
7.6226,242.0575
7.6226,242.0575
7.6453,242.0604
7.6616,242.0615
149.8106,242.0615
149.8300,242.0600
149.8449,242.0577
149.8449,242.0577
149.8537,242.0563
149.8742,242.0590
149.8960,242.0599
150.2529,242.0443
150.2639,242.0434
150.6484,241.9928
150.6592,241.9909
151.0378,241.9069
151.0484,241.9041
151.2187,241.8504
151.4183,241.7875
151.4286,241.7837
151.7869,241.6353
151.7969,241.6306
152.1409,241.4516
152.1504,241.4461
152.4775,241.2377
152.4865,241.2314
152.7941,240.9953
152.8026,240.9883
153.0885,240.7263
153.0963,240.7185
153.3583,240.4326
153.3653,240.4241
153.6014,240.1165
153.6077,240.1075
153.8161,239.7804
153.8216,239.7709
153.8948,239.6303
154.0006,239.4269
154.0053,239.4169
154.1537,239.0586
154.1575,239.0483
154.2741,238.6784
154.2769,238.6678
154.3609,238.2892
154.3628,238.2784
154.4134,237.8939
154.4143,237.8829
154.4294,237.5372
154.4278,237.5108
154.4272,237.5074
154.4272,237.5073
154.4264,237.5026
154.4263,237.4900
154.4302,237.4624
154.4315,237.4445
154.4315,222.1933
139.9530,222.1933
139.9529,222.1964
139.9525,222.2075
139.9407,222.5468
139.9391,222.5900
139.8866,222.9835
139.7960,223.3700
139.6680,223.7458
139.5041,224.1074
139.3056,224.4512
139.3038,224.4537
139.3038,224.4537
139.2036,224.5935
139.0745,224.7740
138.8130,225.0727
138.8107,225.0748
138.5258,225.3423
138.5258,225.3423
138.5236,225.3444
138.5211,225.3463
138.5211,225.3463
138.2115,225.5848
138.2090,225.5867
138.2064,225.5883
138.2064,225.5883
138.0250,225.7017
137.8724,225.7970
137.5168,225.9735
137.1457,226.1145
136.7626,226.2186
136.7595,226.2191
136.7595,226.2191
136.3742,226.2843
136.3742,226.2843
136.3711,226.2848
136.3681,226.2850
136.3680,226.2850
135.9782,226.3123
135.9782,226.3123
135.9751,226.3125
135.7188,226.3053
135.5813,226.3015
135.5813,226.3015
135.5783,226.3014
135.5752,226.3010
135.5752,226.3010
135.3867,226.2772
135.1844,226.2517
135.1814,226.2510
135.1814,226.2510
134.8003,226.1644
134.8003,226.1644
134.7973,226.1637
134.6494,226.1145
134.4235,226.0394
134.4235,226.0394
134.4206,226.0384
134.2774,225.9746
134.0607,225.8782
134.0607,225.8782
134.0579,225.8769
133.9173,225.7970
133.7154,225.6824
133.7154,225.6824
133.7127,225.6808
133.3883,225.4520
133.0878,225.1926
133.0857,225.1904
133.0857,225.1904
132.8161,224.9073
132.8140,224.9051
132.7808,224.8625
132.5715,224.5947
132.5715,224.5947
132.5696,224.5923
132.5680,224.5897
132.5680,224.5897
132.3586,224.2597
132.3585,224.2597
132.3569,224.2571
132.3306,224.2050
132.2720,224.0889
132.1779,223.9027
132.1768,223.8999
132.1768,223.8999
132.0355,223.5355
132.0355,223.5355
132.0343,223.5326
131.9276,223.1502
131.8586,222.7593
131.8282,222.3635
131.8266,222.2500
131.8292,222.1964
131.8294,222.1933
82.8030,222.1933
82.8029,222.1964
82.8025,222.2075
82.7907,222.5468
82.7891,222.5900
82.7366,222.9835
82.6460,223.3700
82.5180,223.7458
82.3541,224.1074
82.1556,224.4512
82.1538,224.4537
82.1538,224.4537
82.0536,224.5935
81.9245,224.7740
81.6630,225.0727
81.6607,225.0748
81.3758,225.3423
81.3758,225.3423
81.3736,225.3444
81.3711,225.3463
81.3711,225.3463
81.0615,225.5848
81.0590,225.5867
81.0564,225.5883
81.0564,225.5883
80.8750,225.7017
80.7224,225.7970
80.3668,225.9735
79.9957,226.1145
79.6126,226.2186
79.6095,226.2191
79.6095,226.2191
79.2242,226.2843
79.2242,226.2843
79.2211,226.2848
79.2181,226.2850
79.2180,226.2850
78.8282,226.3123
78.8282,226.3123
78.8251,226.3125
78.5688,226.3053
78.4313,226.3015
78.4313,226.3015
78.4283,226.3014
78.4252,226.3010
78.4252,226.3010
78.2367,226.2772
78.0344,226.2517
78.0314,226.2510
78.0314,226.2510
77.6503,226.1644
77.6503,226.1644
77.6473,226.1637
77.4994,226.1145
77.2735,226.0394
77.2735,226.0394
77.2706,226.0384
77.1274,225.9746
76.9107,225.8782
76.9107,225.8782
76.9079,225.8769
76.7673,225.7970
76.5654,225.6824
76.5654,225.6824
76.5627,225.6808
76.2383,225.4520
75.9378,225.1926
75.9357,225.1904
75.9357,225.1904
75.6661,224.9073
75.6640,224.9051
75.6308,224.8625
75.4215,224.5947
75.4215,224.5947
75.4196,224.5923
75.4180,224.5897
75.4180,224.5897
75.2086,224.2597
75.2085,224.2597
75.2069,224.2571
75.1806,224.2050
75.1220,224.0889
75.0279,223.9027
75.0268,223.8999
75.0268,223.8999
74.8855,223.5355
74.8855,223.5355
74.8843,223.5326
74.7776,223.1502
74.7086,222.7593
74.6782,222.3635
74.6766,222.2500
74.6792,222.1964
74.6794,222.1933
25.6530,222.1933
25.6529,222.1964
25.6525,222.2075
25.6407,222.5468
25.6391,222.5900
25.5866,222.9835
25.4960,223.3700
25.3680,223.7458
25.2040,224.1074
25.0056,224.4512
25.0038,224.4537
25.0038,224.4537
24.9036,224.5935
24.7745,224.7740
24.5130,225.0727
24.5107,225.0748
24.2258,225.3423
24.2258,225.3423
24.2236,225.3444
24.2211,225.3463
24.2211,225.3463
23.9115,225.5848
23.9090,225.5867
23.9064,225.5883
23.9064,225.5883
23.7250,225.7017
23.5724,225.7970
23.2168,225.9735
22.8457,226.1145
22.4626,226.2186
22.4595,226.2191
22.4595,226.2191
22.0742,226.2843
22.0742,226.2843
22.0711,226.2848
22.0681,226.2850
22.0680,226.2850
21.6782,226.3123
21.6782,226.3123
21.6751,226.3125
21.4188,226.3053
21.2813,226.3015
21.2813,226.3015
21.2783,226.3014
21.2752,226.3010
21.2752,226.3010
21.0867,226.2772
20.8844,226.2517
20.8814,226.2510
20.8814,226.2510
20.5003,226.1644
20.5003,226.1644
20.4973,226.1637
20.3494,226.1145
20.1235,226.0394
20.1235,226.0394
20.1206,226.0384
19.9774,225.9746
19.7607,225.8782
19.7607,225.8782
19.7579,225.8769
19.6173,225.7970
19.4154,225.6824
19.4154,225.6824
19.4127,225.6808
19.0883,225.4520
18.7878,225.1926
18.7857,225.1904
18.7857,225.1904
18.5161,224.9073
18.5140,224.9051
18.4808,224.8625
18.2715,224.5947
18.2715,224.5947
18.2696,224.5923
18.2680,224.5897
18.2680,224.5897
18.0586,224.2597
18.0585,224.2597
18.0569,224.2571
18.0306,224.2050
17.9720,224.0889
17.8779,223.9027
17.8768,223.8999
17.8768,223.8999
17.7355,223.5355
17.7355,223.5355
17.7343,223.5326
17.6276,223.1502
17.5586,222.7593
17.5282,222.3635
17.5266,222.2500
17.5292,222.1964
17.5458,221.8566
17.5460,221.8535
17.5548,221.7940
17.6035,221.4638
17.6035,221.4638
17.6040,221.4607
17.7000,221.0755
17.7183,221.0243
17.8322,220.7045
17.8332,220.7016
18.0022,220.3424
18.0320,220.2924
18.2039,220.0040
18.2055,220.0014
18.4411,219.6818
18.7067,219.3868
18.9999,219.1191
19.3178,218.8813
19.3666,218.8517
19.6547,218.6772
19.6547,218.6772
19.6574,218.6756
20.0154,218.5041
20.0748,218.4825
20.3855,218.3694
20.3855,218.3694
20.3884,218.3683
20.5953,218.3152
20.7700,218.2704
20.7700,218.2704
20.7729,218.2696
21.1653,218.2089
21.1683,218.2087
21.1683,218.2087
21.1971,218.2071
21.5616,218.1867
21.5647,218.1868
21.5647,218.1868
21.8230,218.1977
21.9583,218.2033
21.9613,218.2038
21.9613,218.2038
22.0010,218.2093
22.3514,218.2586
22.7373,218.3519
23.1122,218.4825
23.1590,218.5041
23.4698,218.6477
23.4698,218.6477
23.4726,218.6490
23.8150,218.8499
23.8560,218.8797
24.1337,219.0814
24.1337,219.0814
24.1361,219.0832
24.1384,219.0853
24.1384,219.0853
24.1789,219.1212
24.4330,219.3468
24.4351,219.3491
24.4351,219.3491
24.7006,219.6358
24.7007,219.6358
24.7027,219.6381
24.7046,219.6405
24.7046,219.6406
24.7378,219.6843
24.9428,219.9543
24.9444,219.9569
24.9444,219.9569
25.1492,220.2898
25.1508,220.2924
25.3248,220.6493
25.3259,220.6521
25.3259,220.6521
25.4119,220.8833
25.4632,221.0214
25.5646,221.4052
25.6281,221.7971
25.6283,221.8001
25.6283,221.8001
25.6352,221.9110
25.6530,222.1933
74.6794,222.1933
74.6958,221.8566
74.6960,221.8535
74.7048,221.7940
74.7535,221.4638
74.7535,221.4638
74.7540,221.4607
74.8500,221.0755
74.8683,221.0243
74.9822,220.7045
74.9832,220.7016
75.1522,220.3424
75.1820,220.2924
75.3539,220.0040
75.3555,220.0014
75.5911,219.6818
75.8567,219.3868
76.1499,219.1191
76.4678,218.8813
76.5166,218.8517
76.8047,218.6772
76.8047,218.6772
76.8074,218.6756
77.1654,218.5041
77.2248,218.4825
77.5355,218.3694
77.5355,218.3694
77.5384,218.3683
77.7453,218.3152
77.9200,218.2704
77.9200,218.2704
77.9229,218.2696
78.3153,218.2089
78.3183,218.2087
78.3183,218.2087
78.3471,218.2071
78.7116,218.1867
78.7147,218.1868
78.7147,218.1868
78.9730,218.1977
79.1083,218.2033
79.1113,218.2038
79.1113,218.2038
79.1510,218.2093
79.5014,218.2586
79.8873,218.3519
80.2622,218.4825
80.3090,218.5041
80.6198,218.6477
80.6198,218.6477
80.6226,218.6490
80.9650,218.8499
81.0060,218.8797
81.2837,219.0814
81.2837,219.0814
81.2861,219.0832
81.2884,219.0853
81.2884,219.0853
81.3289,219.1212
81.5830,219.3468
81.5851,219.3491
81.5851,219.3491
81.8506,219.6358
81.8507,219.6358
81.8527,219.6381
81.8546,219.6405
81.8546,219.6406
81.8878,219.6843
82.0928,219.9543
82.0944,219.9569
82.0944,219.9569
82.2992,220.2898
82.3008,220.2924
82.4748,220.6493
82.4759,220.6521
82.4759,220.6521
82.5619,220.8833
82.6132,221.0214
82.7146,221.4052
82.7781,221.7971
82.7783,221.8001
82.7783,221.8001
82.7852,221.9110
82.8030,222.1933
131.8294,222.1933
131.8458,221.8566
131.8460,221.8535
131.8548,221.7940
131.9035,221.4638
131.9035,221.4638
131.9040,221.4607
132.0000,221.0755
132.0183,221.0243
132.1322,220.7045
132.1332,220.7016
132.3022,220.3424
132.3320,220.2924
132.5039,220.0040
132.5055,220.0014
132.7411,219.6818
133.0067,219.3868
133.2999,219.1191
133.6178,218.8813
133.6666,218.8517
133.9547,218.6772
133.9547,218.6772
133.9574,218.6756
134.3154,218.5041
134.3748,218.4825
134.6855,218.3694
134.6855,218.3694
134.6884,218.3683
134.8953,218.3152
135.0700,218.2704
135.0700,218.2704
135.0729,218.2696
135.4653,218.2089
135.4683,218.2087
135.4683,218.2087
135.4971,218.2071
135.8616,218.1867
135.8647,218.1868
135.8647,218.1868
136.1230,218.1977
136.2583,218.2033
136.2613,218.2038
136.2613,218.2038
136.3010,218.2093
136.6514,218.2586
137.0373,218.3519
137.4122,218.4825
137.4590,218.5041
137.7698,218.6477
137.7698,218.6477
137.7726,218.6490
138.1150,218.8499
138.1560,218.8797
138.4337,219.0814
138.4337,219.0814
138.4361,219.0832
138.4384,219.0853
138.4384,219.0853
138.4789,219.1212
138.7330,219.3468
138.7351,219.3491
138.7351,219.3491
139.0006,219.6358
139.0007,219.6358
139.0027,219.6381
139.0046,219.6405
139.0046,219.6406
139.0378,219.6843
139.2428,219.9543
139.2444,219.9569
139.2444,219.9569
139.4492,220.2898
139.4508,220.2924
139.6248,220.6493
139.6259,220.6521
139.6259,220.6521
139.7119,220.8833
139.7632,221.0214
139.8646,221.4052
139.9281,221.7971
139.9283,221.8001
139.9283,221.8001
139.9352,221.9110
139.9530,222.1933
154.4315,222.1933
154.4315,196.7188
112.9618,196.7188
112.9604,196.7943
112.9537,197.1648
112.9534,197.1676
112.9082,197.5865
112.9059,197.6084
112.9053,197.6111
112.9053,197.6111
112.8345,197.9670
112.8188,198.0459
112.8180,198.0486
112.8180,198.0486
112.7934,198.1326
112.6932,198.4740
112.6922,198.4766
112.6922,198.4766
112.5427,198.8571
112.5301,198.8892
112.4686,199.0122
112.3787,199.1923
112.3307,199.2883
112.0966,199.6680
111.8297,200.0255
111.8278,200.0276
111.8278,200.0276
111.5531,200.3343
111.5320,200.3578
111.5300,200.3597
111.5300,200.3597
111.3084,200.5667
111.2060,200.6623
111.2038,200.6640
111.2038,200.6640
110.9774,200.8406
110.8543,200.9367
110.6934,201.0405
110.4818,201.1772
110.4818,201.1772
110.4795,201.1787
110.0847,201.3864
110.0821,201.3875
109.6755,201.5571
109.6755,201.5571
109.6730,201.5582
109.6703,201.5590
109.6703,201.5590
109.4387,201.6323
109.2476,201.6927
109.2449,201.6933
109.2449,201.6933
108.8523,201.7800
108.8120,201.7889
108.8092,201.7893
108.8092,201.7893
108.3723,201.8456
108.3723,201.8456
108.3695,201.8460
108.3667,201.8461
108.3667,201.8461
108.1085,201.8562
107.9237,201.8635
107.9210,201.8633
107.9210,201.8633
107.4810,201.8414
107.4810,201.8414
107.4782,201.8413
107.4754,201.8409
107.4754,201.8409
107.3975,201.8300
107.0364,201.7796
107.0336,201.7790
107.0336,201.7790
106.6045,201.6795
106.6018,201.6789
106.3790,201.6058
106.1805,201.5408
106.1805,201.5408
106.1778,201.5399
105.7679,201.3638
105.3753,201.1519
105.0031,200.9060
104.6542,200.6280
104.3314,200.3201
104.0979,200.0538
104.0391,199.9868
104.0391,199.9868
104.0373,199.9847
104.0092,199.9463
103.8298,199.7007
103.7741,199.6245
103.7727,199.6221
103.5455,199.2447
103.5455,199.2447
103.5440,199.2423
103.3566,198.8571
103.3500,198.8437
103.3500,198.8437
103.3488,198.8411
103.2188,198.4999
103.1910,198.4268
103.1910,198.4268
103.1900,198.4242
103.0689,197.9948
103.0567,197.9301
102.9870,197.5592
102.9870,197.5591
102.9865,197.5564
102.9590,197.2733
102.9435,197.1146
102.9435,197.1146
102.9433,197.1124
102.9365,196.8500
102.9390,196.7933
53.5930,196.7933
53.5929,196.7964
53.5925,196.8075
53.5794,197.1840
53.5791,197.1900
53.5266,197.5835
53.5259,197.5865
53.5259,197.5865
53.5213,197.6064
53.4360,197.9700
53.3080,198.3458
53.1441,198.7074
52.9456,199.0512
52.9438,199.0537
52.9438,199.0537
52.8070,199.2447
52.7145,199.3740
52.7124,199.3763
52.7124,199.3763
52.6369,199.4625
52.4530,199.6727
52.4507,199.6748
52.1658,199.9423
52.1658,199.9423
52.1636,199.9444
52.1611,199.9463
52.1611,199.9463
51.9257,200.1276
51.8490,200.1867
51.8464,200.1883
51.8464,200.1883
51.6650,200.3016
51.5124,200.3970
51.1568,200.5735
50.7857,200.7145
50.4026,200.8186
50.3995,200.8191
50.3995,200.8191
50.0142,200.8843
50.0142,200.8843
50.0111,200.8848
50.0081,200.8850
50.0080,200.8850
49.6182,200.9123
49.6182,200.9123
49.6151,200.9125
49.3588,200.9053
49.2213,200.9015
49.2213,200.9015
49.2183,200.9014
49.2152,200.9010
49.2152,200.9010
49.0267,200.8772
48.8244,200.8517
48.8214,200.8510
48.8214,200.8510
48.4403,200.7644
48.4403,200.7644
48.4373,200.7637
48.2894,200.7145
48.0635,200.6394
48.0635,200.6394
48.0606,200.6384
48.0578,200.6371
47.7007,200.4782
47.7007,200.4782
47.6979,200.4769
47.5573,200.3970
47.3554,200.2824
47.3554,200.2824
47.3527,200.2808
47.0283,200.0520
46.9950,200.0232
46.7301,199.7946
46.7278,199.7926
46.7257,199.7904
46.7257,199.7904
46.4561,199.5073
46.4540,199.5051
46.4208,199.4625
46.2115,199.1947
46.2115,199.1947
46.2096,199.1923
46.2080,199.1897
46.2080,199.1897
45.9986,198.8597
45.9985,198.8597
45.9969,198.8571
45.9901,198.8437
45.9047,198.6745
45.8179,198.5027
45.8168,198.4999
45.8168,198.4999
45.6755,198.1355
45.6755,198.1355
45.6743,198.1326
45.5676,197.7502
45.4986,197.3593
45.4682,196.9635
45.4666,196.8500
45.4692,196.7964
45.4858,196.4566
45.4860,196.4535
45.4928,196.4071
45.5435,196.0638
45.5435,196.0638
45.5440,196.0607
45.6400,195.6755
45.6583,195.6243
45.7388,195.3983
45.7732,195.3016
45.9257,194.9775
45.9409,194.9451
45.9409,194.9451
45.9422,194.9424
45.9720,194.8924
46.1439,194.6040
46.1455,194.6014
46.3811,194.2818
46.6467,193.9868
46.9399,193.7191
47.2578,193.4813
47.3066,193.4517
47.5947,193.2772
47.5947,193.2772
47.5974,193.2756
47.9554,193.1041
48.0148,193.0825
48.3255,192.9694
48.3255,192.9694
48.3284,192.9683
48.6710,192.8804
48.7100,192.8704
48.7100,192.8704
48.7129,192.8696
49.1053,192.8089
49.1083,192.8087
49.1083,192.8087
49.1371,192.8071
49.5016,192.7867
49.5047,192.7868
49.5047,192.7868
49.7630,192.7977
49.8983,192.8033
49.9013,192.8038
49.9013,192.8038
49.9410,192.8093
50.2914,192.8586
50.6773,192.9519
51.0522,193.0825
51.0990,193.1041
51.4098,193.2477
51.4098,193.2477
51.4126,193.2490
51.7550,193.4499
51.8802,193.5409
52.0737,193.6814
52.0737,193.6814
52.0761,193.6832
52.0784,193.6853
52.0784,193.6853
52.2314,193.8211
52.3730,193.9468
52.3751,193.9491
52.3751,193.9491
52.6406,194.2358
52.6407,194.2358
52.6427,194.2381
52.6446,194.2405
52.6446,194.2406
52.6778,194.2843
52.8828,194.5543
52.8844,194.5569
52.8844,194.5569
53.0892,194.8898
53.0908,194.8924
53.2648,195.2493
53.2659,195.2521
53.2659,195.2521
53.2944,195.3290
53.4032,195.6214
53.5046,196.0052
53.5051,196.0082
53.5481,196.2738
53.5681,196.3971
53.5683,196.4001
53.5683,196.4001
53.5885,196.7216
53.5930,196.7933
102.9390,196.7933
102.9563,196.4043
103.0157,195.9622
103.0502,195.8097
103.1135,195.5298
103.1141,195.5271
103.2509,195.1024
103.3044,194.9761
103.4238,194.6942
103.4238,194.6942
103.4248,194.6916
103.4715,194.6040
103.6333,194.3004
103.6346,194.2979
103.6362,194.2956
103.8771,193.9267
103.8771,193.9267
103.8786,193.9244
103.9618,193.8188
104.1530,193.5762
104.1530,193.5762
104.1548,193.5740
104.4610,193.2496
104.6252,193.1041
104.7928,192.9556
104.7928,192.9556
104.7949,192.9537
105.1537,192.6887
105.3546,192.5663
105.5323,192.4580
105.5323,192.4580
105.5347,192.4566
105.6570,192.3963
105.9323,192.2605
105.9348,192.2593
106.3509,192.0983
106.4874,192.0590
106.7769,191.9757
106.7769,191.9757
106.7796,191.9750
106.7823,191.9744
106.7824,191.9744
106.9334,191.9452
107.2176,191.8902
107.2204,191.8900
107.2204,191.8899
107.4952,191.8618
107.6614,191.8448
107.6642,191.8447
107.6642,191.8447
107.9427,191.8411
108.1075,191.8389
108.1103,191.8391
108.1103,191.8391
108.5495,191.8726
108.5523,191.8728
108.9924,191.9460
109.0824,191.9694
109.4215,192.0574
109.4215,192.0574
109.4242,192.0581
109.6926,192.1539
109.8417,192.2072
109.8417,192.2072
109.8443,192.2081
109.8469,192.2093
109.8469,192.2093
109.9553,192.2593
110.2495,192.3949
110.6364,192.6169
110.6387,192.6185
110.6387,192.6185
110.8793,192.7867
111.0021,192.8725
111.0042,192.8743
111.0042,192.8743
111.3312,193.1491
111.3435,193.1595
111.3455,193.1615
111.3455,193.1615
111.4325,193.2490
111.6582,193.4758
111.6600,193.4780
111.6600,193.4780
111.6627,193.4813
111.9434,193.8188
112.1971,194.1858
112.4171,194.5739
112.4183,194.5764
112.4183,194.5764
112.6006,194.9775
112.6006,194.9775
112.6018,194.9800
112.6027,194.9826
112.6027,194.9826
112.6798,195.2024
112.7496,195.4009
112.7503,195.4036
112.7503,195.4036
112.8193,195.6755
112.8594,195.8333
112.8598,195.8361
112.8598,195.8361
112.9299,196.2710
112.9303,196.2738
112.9305,196.2766
112.9305,196.2766
112.9430,196.4535
112.9618,196.7188
154.4315,196.7188
154.4315,184.1500
139.5786,184.1500
139.5583,184.5356
139.4980,184.9169
139.3980,185.2898
139.2597,185.6503
139.0844,185.9943
138.8741,186.3181
138.6311,186.6181
138.3581,186.8911
138.0581,187.1341
137.7343,187.3444
137.7313,187.3459
137.7313,187.3459
137.3932,187.5182
137.3903,187.5197
137.0298,187.6580
136.6569,187.7580
136.4544,187.7900
136.2788,187.8178
136.2788,187.8178
136.2756,187.8183
135.8900,187.8386
135.5044,187.8183
135.5012,187.8178
135.5012,187.8178
135.3256,187.7900
135.1231,187.7580
134.7502,187.6580
134.3897,187.5197
134.3868,187.5182
134.0487,187.3459
134.0487,187.3459
134.0457,187.3444
133.7219,187.1341
133.4219,186.8911
133.1489,186.6181
132.9059,186.3181
132.6956,185.9943
132.5203,185.6503
132.3820,185.2898
132.2820,184.9169
132.2217,184.5356
132.2014,184.1500
25.2786,184.1500
25.2583,184.5356
25.1980,184.9169
25.0980,185.2898
24.9597,185.6503
24.7844,185.9943
24.5741,186.3181
24.3311,186.6181
24.0581,186.8911
23.7581,187.1341
23.4343,187.3444
23.4313,187.3459
23.4313,187.3459
23.0932,187.5182
23.0903,187.5197
22.7298,187.6580
22.3569,187.7580
22.1544,187.7900
21.9788,187.8178
21.9788,187.8178
21.9756,187.8183
21.5900,187.8386
21.2044,187.8183
21.2012,187.8178
21.2012,187.8178
21.0256,187.7900
20.8231,187.7580
20.4502,187.6580
20.0897,187.5197
20.0868,187.5182
19.7487,187.3459
19.7487,187.3459
19.7457,187.3444
19.4219,187.1341
19.1219,186.8911
18.8489,186.6181
18.6059,186.3181
18.3956,185.9943
18.2203,185.6503
18.0820,185.2898
17.9820,184.9169
17.9217,184.5356
17.9014,184.1500
17.9217,183.7644
17.9820,183.3831
18.0820,183.0102
18.2203,182.6497
18.2371,182.6167
18.3941,182.3087
18.3941,182.3087
18.3956,182.3057
18.6059,181.9819
18.8489,181.6819
19.1219,181.4089
19.4219,181.1659
19.7457,180.9556
19.7487,180.9541
19.7487,180.9541
20.0868,180.7818
20.0897,180.7803
20.4502,180.6420
20.8231,180.5420
21.0256,180.5100
21.2012,180.4822
21.2012,180.4822
21.2044,180.4817
21.5900,180.4614
21.9756,180.4817
21.9788,180.4822
21.9788,180.4822
22.1544,180.5100
22.3569,180.5420
22.7298,180.6420
23.0903,180.7803
23.0932,180.7818
23.4313,180.9541
23.4313,180.9541
23.4343,180.9556
23.7581,181.1659
24.0581,181.4089
24.3311,181.6819
24.5741,181.9819
24.7844,182.3057
24.7859,182.3087
24.7859,182.3087
24.9429,182.6167
24.9597,182.6497
25.0980,183.0102
25.1980,183.3831
25.2583,183.7644
25.2771,184.1221
25.2786,184.1500
132.2014,184.1500
132.2217,183.7644
132.2820,183.3831
132.3820,183.0102
132.5203,182.6497
132.5371,182.6167
132.6941,182.3087
132.6941,182.3087
132.6956,182.3057
132.9059,181.9819
133.1489,181.6819
133.4219,181.4089
133.7219,181.1659
134.0457,180.9556
134.0487,180.9541
134.0487,180.9541
134.3868,180.7818
134.3897,180.7803
134.7502,180.6420
135.1231,180.5420
135.3256,180.5100
135.5012,180.4822
135.5012,180.4822
135.5044,180.4817
135.8900,180.4614
136.2756,180.4817
136.2788,180.4822
136.2788,180.4822
136.4544,180.5100
136.6569,180.5420
137.0298,180.6420
137.3903,180.7803
137.3932,180.7818
137.7313,180.9541
137.7313,180.9541
137.7343,180.9556
138.0581,181.1659
138.3581,181.4089
138.6311,181.6819
138.8741,181.9819
139.0844,182.3057
139.0859,182.3087
139.0859,182.3087
139.2429,182.6167
139.2597,182.6497
139.3980,183.0102
139.4980,183.3831
139.5583,183.7644
139.5771,184.1221
139.5786,184.1500
154.4315,184.1500
154.4315,138.3733
139.9530,138.3733
139.9529,138.3764
139.9525,138.3875
139.9407,138.7268
139.9391,138.7700
139.8866,139.1635
139.7960,139.5500
139.6680,139.9258
139.5041,140.2874
139.3056,140.6312
139.3038,140.6337
139.3038,140.6337
139.2036,140.7735
139.0745,140.9540
138.8130,141.2527
138.8107,141.2548
138.5258,141.5223
138.5258,141.5223
138.5236,141.5244
138.5211,141.5263
138.5211,141.5263
138.2115,141.7648
138.2090,141.7667
138.2064,141.7683
138.2064,141.7683
138.0250,141.8817
137.8724,141.9770
137.5168,142.1535
137.1457,142.2945
136.7626,142.3986
136.7595,142.3991
136.7595,142.3991
136.3742,142.4643
136.3742,142.4643
136.3711,142.4648
136.3681,142.4650
136.3680,142.4650
135.9782,142.4923
135.9782,142.4923
135.9751,142.4925
135.7188,142.4853
135.5813,142.4815
135.5813,142.4815
135.5783,142.4814
135.5752,142.4810
135.5752,142.4810
135.3867,142.4572
135.1844,142.4317
135.1814,142.4310
135.1814,142.4310
134.8003,142.3444
134.8003,142.3444
134.7973,142.3437
134.6494,142.2945
134.4235,142.2194
134.4235,142.2194
134.4206,142.2184
134.2774,142.1546
134.0607,142.0582
134.0607,142.0582
134.0579,142.0569
133.9173,141.9770
133.7154,141.8624
133.7154,141.8624
133.7127,141.8608
133.3883,141.6320
133.0878,141.3726
133.0857,141.3704
133.0857,141.3704
132.8161,141.0873
132.8140,141.0851
132.7808,141.0425
132.5715,140.7747
132.5715,140.7747
132.5696,140.7723
132.5680,140.7697
132.5680,140.7697
132.3586,140.4397
132.3585,140.4397
132.3569,140.4371
132.3306,140.3850
132.2720,140.2689
132.1779,140.0827
132.1768,140.0799
132.1768,140.0799
132.0355,139.7155
132.0355,139.7155
132.0343,139.7126
131.9276,139.3302
131.8586,138.9393
131.8282,138.5435
131.8266,138.4300
131.8292,138.3764
131.8294,138.3733
111.3780,138.3733
111.3779,138.3764
111.3775,138.3875
111.3657,138.7268
111.3641,138.7700
111.3116,139.1635
111.2210,139.5500
111.0930,139.9258
110.9290,140.2874
110.7306,140.6312
110.7288,140.6337
110.7288,140.6337
110.6286,140.7735
110.4995,140.9540
110.2380,141.2527
110.2357,141.2548
109.9508,141.5223
109.9508,141.5223
109.9486,141.5244
109.9461,141.5263
109.9461,141.5263
109.6365,141.7648
109.6340,141.7667
109.6314,141.7683
109.6314,141.7683
109.4500,141.8817
109.2974,141.9770
108.9418,142.1535
108.5707,142.2945
108.1876,142.3986
108.1845,142.3991
108.1845,142.3991
107.7992,142.4643
107.7992,142.4643
107.7961,142.4648
107.7931,142.4650
107.7930,142.4650
107.4032,142.4923
107.4032,142.4923
107.4001,142.4925
107.1438,142.4853
107.0063,142.4815
107.0063,142.4815
107.0033,142.4814
107.0002,142.4810
107.0002,142.4810
106.8117,142.4572
106.6094,142.4317
106.6064,142.4310
106.6064,142.4310
106.2253,142.3444
106.2253,142.3444
106.2223,142.3437
106.0744,142.2945
105.8485,142.2194
105.8485,142.2194
105.8456,142.2184
105.7024,142.1546
105.4857,142.0582
105.4857,142.0582
105.4829,142.0569
105.3423,141.9770
105.1404,141.8624
105.1404,141.8624
105.1377,141.8608
104.8133,141.6320
104.5128,141.3726
104.5107,141.3704
104.5107,141.3704
104.2411,141.0873
104.2390,141.0851
104.2058,141.0425
103.9965,140.7747
103.9965,140.7747
103.9946,140.7723
103.9930,140.7697
103.9930,140.7697
103.7836,140.4397
103.7835,140.4397
103.7819,140.4371
103.7556,140.3850
103.6970,140.2689
103.6029,140.0827
103.6018,140.0799
103.6018,140.0799
103.4605,139.7155
103.4605,139.7155
103.4593,139.7126
103.3526,139.3302
103.2836,138.9393
103.2532,138.5435
103.2516,138.4300
103.2542,138.3764
103.2544,138.3733
82.8030,138.3733
82.8029,138.3764
82.8025,138.3875
82.7907,138.7268
82.7891,138.7700
82.7366,139.1635
82.6460,139.5500
82.5180,139.9258
82.3541,140.2874
82.1556,140.6312
82.1538,140.6337
82.1538,140.6337
82.0536,140.7735
81.9245,140.9540
81.6630,141.2527
81.6607,141.2548
81.3758,141.5223
81.3758,141.5223
81.3736,141.5244
81.3711,141.5263
81.3711,141.5263
81.0615,141.7648
81.0590,141.7667
81.0564,141.7683
81.0564,141.7683
80.8750,141.8817
80.7224,141.9770
80.3668,142.1535
79.9957,142.2945
79.6126,142.3986
79.6095,142.3991
79.6095,142.3991
79.2242,142.4643
79.2242,142.4643
79.2211,142.4648
79.2181,142.4650
79.2180,142.4650
78.8282,142.4923
78.8282,142.4923
78.8251,142.4925
78.5688,142.4853
78.4313,142.4815
78.4313,142.4815
78.4283,142.4814
78.4252,142.4810
78.4252,142.4810
78.2367,142.4572
78.0344,142.4317
78.0314,142.4310
78.0314,142.4310
77.6503,142.3444
77.6503,142.3444
77.6473,142.3437
77.4994,142.2945
77.2735,142.2194
77.2735,142.2194
77.2706,142.2184
77.1274,142.1546
76.9107,142.0582
76.9107,142.0582
76.9079,142.0569
76.7673,141.9770
76.5654,141.8624
76.5654,141.8624
76.5627,141.8608
76.2383,141.6320
75.9378,141.3726
75.9357,141.3704
75.9357,141.3704
75.6661,141.0873
75.6640,141.0851
75.6308,141.0425
75.4215,140.7747
75.4215,140.7747
75.4196,140.7723
75.4180,140.7697
75.4180,140.7697
75.2086,140.4397
75.2085,140.4397
75.2069,140.4371
75.1806,140.3850
75.1220,140.2689
75.0279,140.0827
75.0268,140.0799
75.0268,140.0799
74.8855,139.7155
74.8855,139.7155
74.8843,139.7126
74.7776,139.3302
74.7086,138.9393
74.6782,138.5435
74.6766,138.4300
74.6792,138.3764
74.6794,138.3733
54.2280,138.3733
54.2279,138.3764
54.2275,138.3875
54.2157,138.7268
54.2141,138.7700
54.1616,139.1635
54.0710,139.5500
53.9430,139.9258
53.7790,140.2874
53.5806,140.6312
53.5788,140.6337
53.5788,140.6337
53.4786,140.7735
53.3495,140.9540
53.0880,141.2527
53.0857,141.2548
52.8008,141.5223
52.8008,141.5223
52.7986,141.5244
52.7961,141.5263
52.7961,141.5263
52.4865,141.7648
52.4840,141.7667
52.4814,141.7683
52.4814,141.7683
52.3000,141.8817
52.1474,141.9770
51.7918,142.1535
51.4207,142.2945
51.0376,142.3986
51.0345,142.3991
51.0345,142.3991
50.6492,142.4643
50.6492,142.4643
50.6461,142.4648
50.6431,142.4650
50.6430,142.4650
50.2532,142.4923
50.2532,142.4923
50.2501,142.4925
49.9938,142.4853
49.8563,142.4815
49.8563,142.4815
49.8533,142.4814
49.8502,142.4810
49.8502,142.4810
49.6617,142.4572
49.4594,142.4317
49.4564,142.4310
49.4564,142.4310
49.0753,142.3444
49.0753,142.3444
49.0723,142.3437
48.9244,142.2945
48.6985,142.2194
48.6985,142.2194
48.6956,142.2184
48.5524,142.1546
48.3357,142.0582
48.3357,142.0582
48.3329,142.0569
48.1923,141.9770
47.9904,141.8624
47.9904,141.8624
47.9877,141.8608
47.6633,141.6320
47.3628,141.3726
47.3607,141.3704
47.3607,141.3704
47.0911,141.0873
47.0890,141.0851
47.0558,141.0425
46.8465,140.7747
46.8465,140.7747
46.8446,140.7723
46.8430,140.7697
46.8430,140.7697
46.6336,140.4397
46.6335,140.4397
46.6319,140.4371
46.6056,140.3850
46.5470,140.2689
46.4529,140.0827
46.4518,140.0799
46.4518,140.0799
46.3105,139.7155
46.3105,139.7155
46.3093,139.7126
46.2026,139.3302
46.1336,138.9393
46.1032,138.5435
46.1016,138.4300
46.1042,138.3764
46.1044,138.3733
25.6530,138.3733
25.6529,138.3764
25.6525,138.3875
25.6407,138.7268
25.6391,138.7700
25.5866,139.1635
25.4960,139.5500
25.3680,139.9258
25.2040,140.2874
25.0056,140.6312
25.0038,140.6337
25.0038,140.6337
24.9036,140.7735
24.7745,140.9540
24.5130,141.2527
24.5107,141.2548
24.2258,141.5223
24.2258,141.5223
24.2236,141.5244
24.2211,141.5263
24.2211,141.5263
23.9115,141.7648
23.9090,141.7667
23.9064,141.7683
23.9064,141.7683
23.7250,141.8817
23.5724,141.9770
23.2168,142.1535
22.8457,142.2945
22.4626,142.3986
22.4595,142.3991
22.4595,142.3991
22.0742,142.4643
22.0742,142.4643
22.0711,142.4648
22.0681,142.4650
22.0680,142.4650
21.6782,142.4923
21.6782,142.4923
21.6751,142.4925
21.4188,142.4853
21.2813,142.4815
21.2813,142.4815
21.2783,142.4814
21.2752,142.4810
21.2752,142.4810
21.0867,142.4572
20.8844,142.4317
20.8814,142.4310
20.8814,142.4310
20.5003,142.3444
20.5003,142.3444
20.4973,142.3437
20.3494,142.2945
20.1235,142.2194
20.1235,142.2194
20.1206,142.2184
19.9774,142.1546
19.7607,142.0582
19.7607,142.0582
19.7579,142.0569
19.6173,141.9770
19.4154,141.8624
19.4154,141.8624
19.4127,141.8608
19.0883,141.6320
18.7878,141.3726
18.7857,141.3704
18.7857,141.3704
18.5161,141.0873
18.5140,141.0851
18.4808,141.0425
18.2715,140.7747
18.2715,140.7747
18.2696,140.7723
18.2680,140.7697
18.2680,140.7697
18.0586,140.4397
18.0585,140.4397
18.0569,140.4371
18.0306,140.3850
17.9720,140.2689
17.8779,140.0827
17.8768,140.0799
17.8768,140.0799
17.7355,139.7155
17.7355,139.7155
17.7343,139.7126
17.6276,139.3302
17.5586,138.9393
17.5282,138.5435
17.5266,138.4300
17.5292,138.3764
17.5458,138.0366
17.5460,138.0335
17.5548,137.9740
17.6035,137.6438
17.6035,137.6438
17.6040,137.6407
17.7000,137.2555
17.7183,137.2043
17.8322,136.8845
17.8332,136.8816
18.0022,136.5224
18.0320,136.4724
18.2039,136.1840
18.2055,136.1814
18.4411,135.8618
18.7067,135.5668
18.9999,135.2991
19.3178,135.0613
19.3666,135.0317
19.6547,134.8572
19.6547,134.8572
19.6574,134.8556
20.0154,134.6841
20.0748,134.6625
20.3855,134.5494
20.3855,134.5494
20.3884,134.5483
20.5953,134.4952
20.7700,134.4504
20.7700,134.4504
20.7729,134.4496
21.1653,134.3889
21.1683,134.3887
21.1683,134.3887
21.1971,134.3871
21.5616,134.3667
21.5647,134.3668
21.5647,134.3668
21.8230,134.3777
21.9583,134.3833
21.9613,134.3838
21.9613,134.3838
22.0010,134.3893
22.3514,134.4386
22.7373,134.5319
23.1122,134.6625
23.1590,134.6841
23.4698,134.8277
23.4698,134.8277
23.4726,134.8290
23.8150,135.0299
23.8560,135.0597
24.1337,135.2614
24.1337,135.2614
24.1361,135.2632
24.1384,135.2653
24.1384,135.2653
24.1789,135.3012
24.4330,135.5268
24.4351,135.5291
24.4351,135.5291
24.7006,135.8158
24.7007,135.8158
24.7027,135.8181
24.7046,135.8205
24.7046,135.8206
24.7378,135.8643
24.9428,136.1343
24.9444,136.1369
24.9444,136.1369
25.1492,136.4698
25.1508,136.4724
25.3248,136.8293
25.3259,136.8321
25.3259,136.8321
25.4119,137.0633
25.4632,137.2014
25.5646,137.5852
25.6281,137.9771
25.6283,137.9801
25.6283,137.9801
25.6352,138.0910
25.6530,138.3733
46.1044,138.3733
46.1208,138.0366
46.1210,138.0335
46.1298,137.9740
46.1785,137.6438
46.1785,137.6438
46.1790,137.6407
46.2750,137.2555
46.2933,137.2043
46.4072,136.8845
46.4082,136.8816
46.5772,136.5224
46.6070,136.4724
46.7789,136.1840
46.7805,136.1814
47.0161,135.8618
47.2817,135.5668
47.5749,135.2991
47.8928,135.0613
47.9416,135.0317
48.2297,134.8572
48.2297,134.8572
48.2324,134.8556
48.5904,134.6841
48.6498,134.6625
48.9605,134.5494
48.9605,134.5494
48.9634,134.5483
49.1703,134.4952
49.3450,134.4504
49.3450,134.4504
49.3479,134.4496
49.7403,134.3889
49.7433,134.3887
49.7433,134.3887
49.7721,134.3871
50.1366,134.3667
50.1397,134.3668
50.1397,134.3668
50.3980,134.3777
50.5333,134.3833
50.5363,134.3838
50.5363,134.3838
50.5760,134.3893
50.9264,134.4386
51.3123,134.5319
51.6872,134.6625
51.7340,134.6841
52.0448,134.8277
52.0448,134.8277
52.0476,134.8290
52.3900,135.0299
52.4310,135.0597
52.7087,135.2614
52.7087,135.2614
52.7111,135.2632
52.7134,135.2653
52.7134,135.2653
52.7539,135.3012
53.0080,135.5268
53.0101,135.5291
53.0101,135.5291
53.2756,135.8158
53.2757,135.8158
53.2777,135.8181
53.2796,135.8205
53.2796,135.8206
53.3128,135.8643
53.5178,136.1343
53.5194,136.1369
53.5194,136.1369
53.7242,136.4698
53.7258,136.4724
53.8998,136.8293
53.9009,136.8321
53.9009,136.8321
53.9869,137.0633
54.0382,137.2014
54.1396,137.5852
54.2031,137.9771
54.2033,137.9801
54.2033,137.9801
54.2102,138.0910
54.2280,138.3733
74.6794,138.3733
74.6958,138.0366
74.6960,138.0335
74.7048,137.9740
74.7535,137.6438
74.7535,137.6438
74.7540,137.6407
74.8500,137.2555
74.8683,137.2043
74.9822,136.8845
74.9832,136.8816
75.1522,136.5224
75.1820,136.4724
75.3539,136.1840
75.3555,136.1814
75.5911,135.8618
75.8567,135.5668
76.1499,135.2991
76.4678,135.0613
76.5166,135.0317
76.8047,134.8572
76.8047,134.8572
76.8074,134.8556
77.1654,134.6841
77.2248,134.6625
77.5355,134.5494
77.5355,134.5494
77.5384,134.5483
77.7453,134.4952
77.9200,134.4504
77.9200,134.4504
77.9229,134.4496
78.3153,134.3889
78.3183,134.3887
78.3183,134.3887
78.3471,134.3871
78.7116,134.3667
78.7147,134.3668
78.7147,134.3668
78.9730,134.3777
79.1083,134.3833
79.1113,134.3838
79.1113,134.3838
79.1510,134.3893
79.5014,134.4386
79.8873,134.5319
80.2622,134.6625
80.3090,134.6841
80.6198,134.8277
80.6198,134.8277
80.6226,134.8290
80.9650,135.0299
81.0060,135.0597
81.2837,135.2614
81.2837,135.2614
81.2861,135.2632
81.2884,135.2653
81.2884,135.2653
81.3289,135.3012
81.5830,135.5268
81.5851,135.5291
81.5851,135.5291
81.8506,135.8158
81.8507,135.8158
81.8527,135.8181
81.8546,135.8205
81.8546,135.8206
81.8878,135.8643
82.0928,136.1343
82.0944,136.1369
82.0944,136.1369
82.2992,136.4698
82.3008,136.4724
82.4748,136.8293
82.4759,136.8321
82.4759,136.8321
82.5619,137.0633
82.6132,137.2014
82.7146,137.5852
82.7781,137.9771
82.7783,137.9801
82.7783,137.9801
82.7852,138.0910
82.8030,138.3733
103.2544,138.3733
103.2708,138.0366
103.2710,138.0335
103.2798,137.9740
103.3285,137.6438
103.3285,137.6438
103.3290,137.6407
103.4250,137.2555
103.4433,137.2043
103.5572,136.8845
103.5582,136.8816
103.7272,136.5224
103.7570,136.4724
103.9289,136.1840
103.9305,136.1814
104.1661,135.8618
104.4317,135.5668
104.7249,135.2991
105.0428,135.0613
105.0916,135.0317
105.3797,134.8572
105.3797,134.8572
105.3824,134.8556
105.7404,134.6841
105.7998,134.6625
106.1105,134.5494
106.1105,134.5494
106.1134,134.5483
106.3203,134.4952
106.4950,134.4504
106.4950,134.4504
106.4979,134.4496
106.8903,134.3889
106.8933,134.3887
106.8933,134.3887
106.9221,134.3871
107.2866,134.3667
107.2897,134.3668
107.2897,134.3668
107.5480,134.3777
107.6833,134.3833
107.6863,134.3838
107.6863,134.3838
107.7260,134.3893
108.0764,134.4386
108.4623,134.5319
108.8372,134.6625
108.8840,134.6841
109.1948,134.8277
109.1948,134.8277
109.1976,134.8290
109.5400,135.0299
109.5810,135.0597
109.8587,135.2614
109.8587,135.2614
109.8611,135.2632
109.8634,135.2653
109.8634,135.2653
109.9039,135.3012
110.1580,135.5268
110.1601,135.5291
110.1601,135.5291
110.4256,135.8158
110.4257,135.8158
110.4277,135.8181
110.4296,135.8205
110.4296,135.8206
110.4628,135.8643
110.6678,136.1343
110.6694,136.1369
110.6694,136.1369
110.8742,136.4698
110.8758,136.4724
111.0498,136.8293
111.0509,136.8321
111.0509,136.8321
111.1369,137.0633
111.1882,137.2014
111.2896,137.5852
111.3531,137.9771
111.3533,137.9801
111.3533,137.9801
111.3602,138.0910
111.3780,138.3733
131.8294,138.3733
131.8458,138.0366
131.8460,138.0335
131.8548,137.9740
131.9035,137.6438
131.9035,137.6438
131.9040,137.6407
132.0000,137.2555
132.0183,137.2043
132.1322,136.8845
132.1332,136.8816
132.3022,136.5224
132.3320,136.4724
132.5039,136.1840
132.5055,136.1814
132.7411,135.8618
133.0067,135.5668
133.2999,135.2991
133.6178,135.0613
133.6666,135.0317
133.9547,134.8572
133.9547,134.8572
133.9574,134.8556
134.3154,134.6841
134.3748,134.6625
134.6855,134.5494
134.6855,134.5494
134.6884,134.5483
134.8953,134.4952
135.0700,134.4504
135.0700,134.4504
135.0729,134.4496
135.4653,134.3889
135.4683,134.3887
135.4683,134.3887
135.4971,134.3871
135.8616,134.3667
135.8647,134.3668
135.8647,134.3668
136.1230,134.3777
136.2583,134.3833
136.2613,134.3838
136.2613,134.3838
136.3010,134.3893
136.6514,134.4386
137.0373,134.5319
137.4122,134.6625
137.4590,134.6841
137.7698,134.8277
137.7698,134.8277
137.7726,134.8290
138.1150,135.0299
138.1560,135.0597
138.4337,135.2614
138.4337,135.2614
138.4361,135.2632
138.4384,135.2653
138.4384,135.2653
138.4789,135.3012
138.7330,135.5268
138.7351,135.5291
138.7351,135.5291
139.0006,135.8158
139.0007,135.8158
139.0027,135.8181
139.0046,135.8205
139.0046,135.8206
139.0378,135.8643
139.2428,136.1343
139.2444,136.1369
139.2444,136.1369
139.4492,136.4698
139.4508,136.4724
139.6248,136.8293
139.6259,136.8321
139.6259,136.8321
139.7119,137.0633
139.7632,137.2014
139.8646,137.5852
139.9281,137.9771
139.9283,137.9801
139.9283,137.9801
139.9352,138.0910
139.9530,138.3733
154.4315,138.3733
154.4315,102.8133
133.6030,102.8133
133.6029,102.8164
133.6025,102.8275
133.5894,103.2037
133.5891,103.2100
133.5887,103.2131
133.5887,103.2131
133.5780,103.2933
133.5366,103.6035
133.5359,103.6065
133.5359,103.6065
133.4850,103.8238
133.4460,103.9900
133.3180,104.3658
133.1540,104.7274
132.9556,105.0712
132.9538,105.0737
132.9538,105.0737
132.7565,105.3492
132.7245,105.3940
132.7224,105.3963
132.7224,105.3963
132.5574,105.5848
132.4630,105.6927
132.4607,105.6948
132.1758,105.9623
132.1758,105.9623
132.1736,105.9644
132.1711,105.9663
132.1711,105.9663
131.8672,106.2004
131.8590,106.2067
131.8564,106.2083
131.8564,106.2083
131.6750,106.3216
131.5224,106.4170
131.1668,106.5935
130.7957,106.7345
130.4126,106.8386
130.4095,106.8391
130.4095,106.8391
130.0242,106.9043
130.0242,106.9043
130.0211,106.9048
130.0181,106.9050
130.0180,106.9050
129.6282,106.9323
129.6282,106.9323
129.6251,106.9325
129.3688,106.9253
129.2313,106.9215
129.2313,106.9215
129.2283,106.9214
129.2252,106.9210
129.2252,106.9210
129.0367,106.8972
128.8344,106.8717
128.8314,106.8710
128.8314,106.8710
128.4503,106.7844
128.4503,106.7844
128.4473,106.7837
128.4304,106.7781
128.0735,106.6594
128.0735,106.6594
128.0706,106.6584
128.0678,106.6571
127.7107,106.4982
127.7107,106.4982
127.7079,106.4969
127.6754,106.4785
127.3654,106.3024
127.3654,106.3024
127.3627,106.3008
127.3560,106.2961
127.0409,106.0738
127.0383,106.0720
127.0295,106.0644
126.7401,105.8146
126.7378,105.8126
126.7357,105.8104
126.7357,105.8104
126.4661,105.5273
126.4640,105.5251
126.4615,105.5219
126.2215,105.2147
126.2215,105.2147
126.2196,105.2123
126.2180,105.2097
126.2180,105.2097
126.0086,104.8797
126.0085,104.8797
126.0069,104.8771
126.0023,104.8680
125.9048,104.6749
125.8279,104.5227
125.8268,104.5199
125.8268,104.5199
125.6855,104.1555
125.6855,104.1555
125.6843,104.1526
125.5925,103.8238
125.5784,103.7732
125.5784,103.7732
125.5776,103.7702
125.5086,103.3793
125.4782,102.9835
125.4766,102.8700
107.8286,102.8700
107.8083,103.2556
107.8078,103.2588
107.8078,103.2588
107.7892,103.3762
107.7480,103.6369
107.6480,104.0098
107.5097,104.3703
107.5082,104.3732
107.4320,104.5227
107.3344,104.7143
107.3326,104.7170
107.3326,104.7170
107.2287,104.8771
107.1241,105.0381
106.8811,105.3381
106.6081,105.6111
106.3081,105.8541
105.9843,106.0644
105.9813,106.0659
105.9813,106.0659
105.7051,106.2067
105.6403,106.2397
105.2798,106.3780
104.9069,106.4780
104.7044,106.5100
104.5288,106.5378
104.5288,106.5378
104.5256,106.5383
104.1400,106.5586
103.7544,106.5383
103.7512,106.5378
103.7512,106.5378
103.5756,106.5100
103.3731,106.4780
103.0002,106.3780
102.6397,106.2397
102.5749,106.2067
102.2987,106.0659
102.2987,106.0659
102.2957,106.0644
101.9719,105.8541
101.6719,105.6111
101.3989,105.3381
101.1559,105.0381
101.0513,104.8771
100.9474,104.7170
100.9474,104.7170
100.9456,104.7143
100.8480,104.5227
100.7718,104.3732
100.7703,104.3703
100.6320,104.0098
100.5320,103.6369
100.4908,103.3762
100.4722,103.2588
100.4722,103.2588
100.4717,103.2556
100.4514,102.8700
57.0286,102.8700
57.0083,103.2556
57.0078,103.2588
57.0078,103.2588
56.9892,103.3762
56.9480,103.6369
56.8480,104.0098
56.7097,104.3703
56.7082,104.3732
56.6320,104.5227
56.5344,104.7143
56.5326,104.7170
56.5326,104.7170
56.4287,104.8771
56.3241,105.0381
56.0811,105.3381
55.8081,105.6111
55.5081,105.8541
55.1843,106.0644
55.1813,106.0659
55.1813,106.0659
54.9051,106.2067
54.8403,106.2397
54.4798,106.3780
54.1069,106.4780
53.9044,106.5100
53.7288,106.5378
53.7288,106.5378
53.7256,106.5383
53.3400,106.5586
52.9544,106.5383
52.9512,106.5378
52.9512,106.5378
52.7756,106.5100
52.5731,106.4780
52.2002,106.3780
51.8397,106.2397
51.7749,106.2067
51.4987,106.0659
51.4987,106.0659
51.4957,106.0644
51.1719,105.8541
50.8719,105.6111
50.5989,105.3381
50.3559,105.0381
50.2513,104.8771
50.1474,104.7170
50.1474,104.7170
50.1456,104.7143
50.0480,104.5227
49.9718,104.3732
49.9703,104.3703
49.8320,104.0098
49.7320,103.6369
49.6908,103.3762
49.6722,103.2588
49.6722,103.2588
49.6717,103.2556
49.6514,102.8700
49.6547,102.8070
32.0076,102.8070
32.0075,102.8101
32.0071,102.8213
31.9952,103.1626
31.9937,103.2037
31.9933,103.2068
31.9933,103.2068
31.9881,103.2457
31.9412,103.5972
31.9405,103.6002
31.9405,103.6002
31.9327,103.6336
31.8506,103.9837
31.8496,103.9866
31.8496,103.9867
31.8417,104.0098
31.7226,104.3596
31.5586,104.7211
31.3601,105.0649
31.3584,105.0674
31.3584,105.0674
31.1354,105.3789
31.1290,105.3877
31.1270,105.3900
31.1270,105.3900
31.1106,105.4087
30.8676,105.6864
30.8653,105.6885
30.5804,105.9560
30.5804,105.9560
30.5782,105.9581
30.5757,105.9600
30.5757,105.9600
30.4329,106.0700
30.2636,106.2004
30.2610,106.2020
30.2610,106.2020
30.0796,106.3154
29.9270,106.4107
29.5714,106.5873
29.2002,106.7282
28.8171,106.8323
28.8141,106.8328
28.8141,106.8328
28.4288,106.8980
28.4287,106.8980
28.4257,106.8985
28.4226,106.8987
28.4226,106.8987
28.0328,106.9260
28.0327,106.9260
28.0297,106.9262
27.7734,106.9191
27.6359,106.9152
27.6359,106.9152
27.6328,106.9151
27.6298,106.9147
27.6298,106.9147
27.4413,106.8909
27.2390,106.8654
27.2360,106.8647
27.2360,106.8647
26.8549,106.7781
26.8549,106.7781
26.8519,106.7774
26.8489,106.7765
26.4781,106.6531
26.4781,106.6531
26.4752,106.6521
26.4724,106.6509
26.1153,106.4919
26.1153,106.4919
26.1125,106.4906
26.0911,106.4785
25.7700,106.2961
25.7700,106.2961
25.7673,106.2946
25.4429,106.0657
25.4393,106.0626
25.1850,105.8431
25.1424,105.8063
25.1403,105.8041
25.1403,105.8041
24.8707,105.5210
24.8686,105.5188
24.8632,105.5118
24.6261,105.2084
24.6261,105.2084
24.6242,105.2060
24.6226,105.2034
24.6225,105.2034
24.4131,104.8734
24.4131,104.8734
24.4115,104.8708
24.3852,104.8188
24.2510,104.5531
24.2325,104.5164
24.2314,104.5136
24.2314,104.5136
24.0900,104.1492
24.0900,104.1492
24.0889,104.1463
23.9822,103.7640
23.9132,103.3730
23.8965,103.1559
23.8829,102.9791
23.8829,102.9791
23.8828,102.9772
23.8812,102.8637
23.8830,102.8275
23.9004,102.4703
23.9006,102.4672
23.9406,102.1962
23.9581,102.0775
23.9581,102.0775
23.9586,102.0745
24.0546,101.6893
24.0717,101.6414
24.1684,101.3697
24.1878,101.3153
24.3482,100.9745
24.3555,100.9589
24.3555,100.9589
24.3568,100.9561
24.3866,100.9062
24.5099,100.6993
24.5601,100.6151
24.7154,100.4044
24.7939,100.2980
24.7939,100.2980
24.7957,100.2955
25.0613,100.0005
25.3545,99.7328
25.6724,99.4950
25.7212,99.4654
26.0093,99.2909
26.0093,99.2909
26.0119,99.2894
26.3700,99.1178
26.4085,99.1038
26.7401,98.9831
26.7401,98.9831
26.7430,98.9820
26.9499,98.9289
27.1245,98.8841
27.1245,98.8841
27.1275,98.8833
27.5198,98.8226
27.5229,98.8224
27.5229,98.8224
27.5517,98.8208
27.9162,98.8004
27.9193,98.8006
27.9193,98.8006
28.1776,98.8114
28.3129,98.8170
28.3159,98.8175
28.3159,98.8175
28.3970,98.8289
28.7060,98.8723
29.0919,98.9656
29.4668,99.0962
29.5136,99.1178
29.8243,99.2614
29.8244,99.2614
29.8271,99.2627
30.1696,99.4636
30.2192,99.4997
30.4882,99.6952
30.4883,99.6952
30.4907,99.6970
30.4930,99.6990
30.4930,99.6990
30.7294,99.9089
30.7876,99.9605
30.7897,99.9628
30.7897,99.9628
31.0552,100.2496
31.0552,100.2496
31.0573,100.2518
31.0592,100.2543
31.0592,100.2543
31.0924,100.2980
31.2974,100.5680
31.2990,100.5707
31.2990,100.5707
31.4887,100.8791
31.5054,100.9062
31.6794,101.2630
31.6805,101.2659
31.6805,101.2659
31.7180,101.3668
31.8178,101.6351
31.9192,102.0189
31.9827,102.4108
31.9829,102.4139
31.9829,102.4139
31.9914,102.5497
32.0076,102.8070
49.6547,102.8070
49.6717,102.4844
49.6729,102.4766
49.7239,102.1548
49.7320,102.1031
49.8320,101.7302
49.8441,101.6986
49.9692,101.3728
49.9703,101.3697
50.0229,101.2665
50.1441,101.0287
50.1441,101.0287
50.1456,101.0257
50.1963,100.9477
50.3541,100.7047
50.3559,100.7019
50.5989,100.4019
50.8719,100.1289
51.1719,99.8859
51.4105,99.7310
51.4930,99.6774
51.4930,99.6774
51.4957,99.6756
51.4987,99.6741
51.4987,99.6741
51.8368,99.5018
51.8397,99.5003
52.2002,99.3620
52.5731,99.2620
52.7756,99.2300
52.9512,99.2022
52.9512,99.2022
52.9544,99.2017
53.3400,99.1814
53.7256,99.2017
53.7288,99.2022
53.7288,99.2022
53.9044,99.2300
54.1069,99.2620
54.4798,99.3620
54.8403,99.5003
54.8432,99.5018
55.1813,99.6741
55.1813,99.6741
55.1843,99.6756
55.1870,99.6774
55.1870,99.6774
55.4008,99.8163
55.5081,99.8859
55.8081,100.1289
56.0811,100.4019
56.3241,100.7019
56.3259,100.7047
56.4837,100.9477
56.5344,101.0257
56.5359,101.0287
56.5359,101.0287
56.6571,101.2665
56.7097,101.3697
56.7108,101.3728
56.8359,101.6986
56.8480,101.7302
56.9480,102.1031
56.9561,102.1548
57.0071,102.4766
57.0083,102.4844
57.0271,102.8421
57.0286,102.8700
100.4514,102.8700
100.4717,102.4844
100.4729,102.4766
100.5239,102.1548
100.5320,102.1031
100.6320,101.7302
100.6441,101.6986
100.7692,101.3728
100.7703,101.3697
100.8229,101.2665
100.9441,101.0287
100.9441,101.0287
100.9456,101.0257
100.9963,100.9477
101.1541,100.7047
101.1559,100.7019
101.3989,100.4019
101.6719,100.1289
101.9719,99.8859
102.2105,99.7310
102.2930,99.6774
102.2930,99.6774
102.2957,99.6756
102.2987,99.6741
102.2987,99.6741
102.6368,99.5018
102.6397,99.5003
103.0002,99.3620
103.3731,99.2620
103.5756,99.2300
103.7512,99.2022
103.7512,99.2022
103.7544,99.2017
104.1400,99.1814
104.5256,99.2017
104.5288,99.2022
104.5288,99.2022
104.7044,99.2300
104.9069,99.2620
105.2798,99.3620
105.6403,99.5003
105.6432,99.5018
105.9813,99.6741
105.9813,99.6741
105.9843,99.6756
105.9870,99.6774
105.9870,99.6774
106.2008,99.8163
106.3081,99.8859
106.6081,100.1289
106.8811,100.4019
107.1241,100.7019
107.1259,100.7047
107.2837,100.9477
107.3344,101.0257
107.3359,101.0287
107.3359,101.0287
107.4571,101.2665
107.5097,101.3697
107.5108,101.3728
107.6359,101.6986
107.6480,101.7302
107.7480,102.1031
107.7561,102.1548
107.8071,102.4766
107.8083,102.4844
107.8271,102.8421
107.8286,102.8700
125.4766,102.8700
125.4768,102.8657
125.4935,102.5247
125.4960,102.4735
125.5053,102.4108
125.5535,102.0838
125.5535,102.0838
125.5540,102.0807
125.6500,101.6955
125.6533,101.6864
125.7156,101.5114
125.7832,101.3216
125.9522,100.9624
125.9576,100.9534
126.0964,100.7206
126.1555,100.6214
126.3911,100.3018
126.6567,100.0068
126.9499,99.7391
127.2678,99.5013
127.3166,99.4717
127.6047,99.2972
127.6047,99.2972
127.6074,99.2956
127.9654,99.1241
127.9855,99.1168
128.3355,98.9894
128.3355,98.9894
128.3384,98.9883
128.5453,98.9352
128.7200,98.8904
128.7200,98.8904
128.7229,98.8896
129.1153,98.8289
129.1183,98.8287
129.1183,98.8287
129.1471,98.8271
129.5116,98.8067
129.5147,98.8068
129.5147,98.8068
129.7686,98.8175
129.9083,98.8233
129.9113,98.8238
129.9113,98.8238
129.9510,98.8293
130.3014,98.8786
130.6873,98.9719
131.0622,99.1025
131.1090,99.1241
131.4198,99.2677
131.4198,99.2677
131.4226,99.2690
131.7650,99.4699
131.8060,99.4997
132.0837,99.7014
132.0837,99.7014
132.0861,99.7032
132.0884,99.7053
132.0884,99.7053
132.3759,99.9605
132.3830,99.9668
132.3851,99.9691
132.3851,99.9691
132.6506,100.2558
132.6507,100.2558
132.6527,100.2581
132.6546,100.2605
132.6546,100.2606
132.6878,100.3043
132.8928,100.5743
132.8944,100.5769
132.8944,100.5769
133.0969,100.9062
133.1008,100.9124
133.2748,101.2693
133.2759,101.2721
133.2759,101.2721
133.3619,101.5033
133.4132,101.6414
133.5146,102.0252
133.5151,102.0282
133.5771,102.4108
133.5781,102.4171
133.5783,102.4201
133.5783,102.4201
133.5852,102.5310
133.6030,102.8133
154.4315,102.8133
154.4315,77.4133
82.8030,77.4133
82.8029,77.4164
82.8025,77.4275
82.7907,77.7668
82.7891,77.8100
82.7366,78.2035
82.6460,78.5900
82.5180,78.9658
82.3541,79.3274
82.1556,79.6712
82.1538,79.6737
82.1538,79.6737
82.0536,79.8135
81.9245,79.9940
81.6630,80.2927
81.6607,80.2948
81.3758,80.5623
81.3758,80.5623
81.3736,80.5644
81.3711,80.5663
81.3711,80.5663
81.0615,80.8048
81.0590,80.8067
81.0564,80.8083
81.0564,80.8083
80.8750,80.9216
80.7224,81.0170
80.3668,81.1935
79.9957,81.3345
79.6126,81.4386
79.6095,81.4391
79.6095,81.4391
79.2242,81.5043
79.2242,81.5043
79.2211,81.5048
79.2181,81.5050
79.2180,81.5050
78.8282,81.5323
78.8282,81.5323
78.8251,81.5325
78.5688,81.5253
78.4313,81.5215
78.4313,81.5215
78.4283,81.5214
78.4252,81.5210
78.4252,81.5210
78.2367,81.4972
78.0344,81.4717
78.0314,81.4710
78.0314,81.4710
77.6503,81.3844
77.6503,81.3844
77.6473,81.3837
77.4994,81.3345
77.2735,81.2594
77.2735,81.2594
77.2706,81.2584
77.1274,81.1946
76.9107,81.0982
76.9107,81.0982
76.9079,81.0969
76.7673,81.0170
76.5654,80.9024
76.5654,80.9024
76.5627,80.9008
76.2383,80.6720
75.9378,80.4126
75.9357,80.4104
75.9357,80.4104
75.6661,80.1273
75.6640,80.1251
75.6308,80.0825
75.4215,79.8147
75.4215,79.8147
75.4196,79.8123
75.4180,79.8097
75.4180,79.8097
75.2086,79.4797
75.2085,79.4797
75.2069,79.4771
75.1806,79.4250
75.1220,79.3089
75.0279,79.1227
75.0268,79.1199
75.0268,79.1199
74.8855,78.7555
74.8855,78.7555
74.8843,78.7526
74.7776,78.3702
74.7086,77.9793
74.6782,77.5835
74.6766,77.4700
74.6792,77.4164
74.6958,77.0766
74.6960,77.0735
74.7048,77.0140
74.7535,76.6838
74.7535,76.6838
74.7540,76.6807
74.8500,76.2955
74.8683,76.2443
74.9822,75.9245
74.9832,75.9216
75.1522,75.5624
75.1820,75.5124
75.3539,75.2240
75.3555,75.2214
75.5911,74.9018
75.8567,74.6068
76.1499,74.3391
76.4678,74.1013
76.5166,74.0717
76.8047,73.8972
76.8047,73.8972
76.8074,73.8956
77.1654,73.7241
77.2248,73.7025
77.5355,73.5894
77.5355,73.5894
77.5384,73.5883
77.7453,73.5352
77.9200,73.4904
77.9200,73.4904
77.9229,73.4896
78.3153,73.4289
78.3183,73.4287
78.3183,73.4287
78.3471,73.4271
78.7116,73.4067
78.7147,73.4068
78.7147,73.4068
78.9730,73.4177
79.1083,73.4233
79.1113,73.4238
79.1113,73.4238
79.1510,73.4293
79.5014,73.4786
79.8873,73.5719
80.2622,73.7025
80.3090,73.7241
80.6198,73.8677
80.6198,73.8677
80.6226,73.8690
80.9650,74.0699
81.0060,74.0997
81.2837,74.3014
81.2837,74.3014
81.2861,74.3032
81.2884,74.3053
81.2884,74.3053
81.3289,74.3412
81.5830,74.5668
81.5851,74.5691
81.5851,74.5691
81.8506,74.8558
81.8507,74.8558
81.8527,74.8581
81.8546,74.8606
81.8546,74.8606
81.8878,74.9043
82.0928,75.1743
82.0944,75.1769
82.0944,75.1769
82.2992,75.5098
82.3008,75.5124
82.4748,75.8693
82.4759,75.8721
82.4759,75.8721
82.5619,76.1033
82.6132,76.2414
82.7146,76.6252
82.7781,77.0171
82.7783,77.0201
82.7783,77.0201
82.7852,77.1310
82.8030,77.4133
154.4315,77.4133
154.4315,51.9388
134.5518,51.9388
134.5504,52.0143
134.5437,52.3848
134.5434,52.3876
134.5012,52.7792
134.4959,52.8284
134.4953,52.8311
134.4953,52.8311
134.4195,53.2121
134.4088,53.2659
134.4080,53.2686
134.4080,53.2686
134.3286,53.5394
134.2832,53.6940
134.2822,53.6966
134.2822,53.6966
134.1390,54.0611
134.1201,54.1092
133.9207,54.5083
133.6866,54.8880
133.4197,55.2455
133.4178,55.2476
133.4178,55.2476
133.1431,55.5543
133.1220,55.5778
133.1200,55.5797
133.1200,55.5797
132.8984,55.7867
132.7960,55.8823
132.7938,55.8840
132.7938,55.8840
132.5674,56.0606
132.4443,56.1567
132.2834,56.2605
132.0718,56.3972
132.0718,56.3972
132.0695,56.3987
131.6747,56.6064
131.6721,56.6075
131.2655,56.7771
131.2655,56.7771
131.2630,56.7782
131.2603,56.7790
131.2603,56.7790
131.0287,56.8523
130.8376,56.9127
130.8349,56.9133
130.8349,56.9133
130.4423,57.0000
130.4020,57.0089
130.3992,57.0093
130.3992,57.0093
129.9623,57.0656
129.9623,57.0656
129.9595,57.0660
129.9567,57.0661
129.9567,57.0661
129.6985,57.0762
129.5137,57.0835
129.5110,57.0833
129.5110,57.0833
129.0710,57.0614
129.0710,57.0614
129.0682,57.0613
129.0654,57.0609
129.0654,57.0609
128.9875,57.0500
128.6264,56.9996
128.6236,56.9990
128.6236,56.9990
128.1945,56.8995
128.1918,56.8989
127.9690,56.8258
127.7705,56.7608
127.7705,56.7608
127.7678,56.7599
127.3579,56.5838
126.9653,56.3719
126.5931,56.1260
126.2442,55.8480
125.9214,55.5401
125.7068,55.2954
125.6291,55.2068
125.6291,55.2068
125.6273,55.2047
125.5579,55.1097
125.3658,54.8467
125.3641,54.8445
125.1864,54.5493
125.1355,54.4647
125.1355,54.4647
125.1340,54.4623
124.9388,54.0611
124.8498,53.8274
124.7810,53.6468
124.7810,53.6468
124.7800,53.6442
124.6589,53.2148
124.6505,53.1702
124.5770,52.7792
124.5770,52.7791
124.5765,52.7764
124.5403,52.4040
124.5335,52.3346
124.5335,52.3346
124.5333,52.3324
124.5265,52.0700
124.5323,51.9388
32.9518,51.9388
32.9504,52.0143
32.9437,52.3848
32.9434,52.3876
32.9012,52.7792
32.8959,52.8284
32.8953,52.8311
32.8953,52.8311
32.8195,53.2121
32.8088,53.2659
32.8080,53.2686
32.8080,53.2686
32.7286,53.5394
32.6832,53.6940
32.6822,53.6966
32.6822,53.6966
32.5390,54.0611
32.5201,54.1092
32.3207,54.5083
32.0866,54.8880
31.8197,55.2455
31.8178,55.2476
31.8178,55.2476
31.5431,55.5543
31.5220,55.5778
31.5200,55.5797
31.5200,55.5797
31.2984,55.7867
31.1960,55.8823
31.1938,55.8840
31.1938,55.8840
30.9674,56.0606
30.8443,56.1567
30.6834,56.2605
30.4718,56.3972
30.4718,56.3972
30.4695,56.3987
30.0747,56.6064
30.0721,56.6075
29.6655,56.7771
29.6655,56.7771
29.6630,56.7782
29.6603,56.7790
29.6603,56.7790
29.4287,56.8523
29.2376,56.9127
29.2349,56.9133
29.2349,56.9133
28.8423,57.0000
28.8020,57.0089
28.7992,57.0093
28.7992,57.0093
28.3623,57.0656
28.3623,57.0656
28.3595,57.0660
28.3567,57.0661
28.3567,57.0661
28.0985,57.0762
27.9137,57.0835
27.9110,57.0833
27.9110,57.0833
27.4710,57.0614
27.4710,57.0614
27.4682,57.0613
27.4654,57.0609
27.4654,57.0609
27.3875,57.0500
27.0264,56.9996
27.0236,56.9990
27.0236,56.9990
26.5945,56.8995
26.5918,56.8989
26.3690,56.8258
26.1705,56.7608
26.1705,56.7608
26.1678,56.7599
25.7579,56.5838
25.3653,56.3719
24.9931,56.1260
24.6442,55.8480
24.3214,55.5401
24.1068,55.2954
24.0291,55.2068
24.0291,55.2068
24.0273,55.2047
23.9579,55.1097
23.7658,54.8467
23.7641,54.8445
23.5864,54.5493
23.5355,54.4647
23.5355,54.4647
23.5340,54.4623
23.3388,54.0611
23.2498,53.8274
23.1810,53.6468
23.1810,53.6468
23.1800,53.6442
23.0589,53.2148
23.0505,53.1702
22.9770,52.7792
22.9770,52.7791
22.9765,52.7764
22.9403,52.4040
22.9335,52.3346
22.9335,52.3346
22.9333,52.3324
22.9265,52.0700
22.9463,51.6243
23.0057,51.1822
23.1041,50.7471
23.2409,50.3224
23.2944,50.1961
23.4138,49.9142
23.4138,49.9142
23.4148,49.9116
23.4789,49.7915
23.6233,49.5204
23.6246,49.5179
23.6261,49.5156
23.8671,49.1467
23.8671,49.1467
23.8686,49.1444
23.9518,49.0388
24.1430,48.7962
24.1430,48.7962
24.1448,48.7940
24.4510,48.4696
24.7091,48.2409
24.7828,48.1756
24.7828,48.1756
24.7849,48.1737
25.1437,47.9087
25.3446,47.7863
25.5223,47.6780
25.5223,47.6780
25.5247,47.6766
25.6470,47.6163
25.9223,47.4805
25.9248,47.4793
26.3409,47.3183
26.4774,47.2790
26.7669,47.1957
26.7669,47.1957
26.7696,47.1950
26.7723,47.1944
26.7724,47.1944
26.9234,47.1652
27.2076,47.1102
27.2104,47.1100
27.2104,47.1099
27.4852,47.0818
27.6514,47.0648
27.6542,47.0647
27.6542,47.0647
27.9327,47.0611
28.0975,47.0589
28.1003,47.0591
28.1003,47.0591
28.5395,47.0926
28.5423,47.0928
28.9824,47.1660
29.0724,47.1894
29.4115,47.2774
29.4115,47.2774
29.4142,47.2781
29.6826,47.3739
29.8317,47.4272
29.8317,47.4272
29.8343,47.4281
29.8369,47.4293
29.8369,47.4293
29.9453,47.4793
30.2395,47.6149
30.6264,47.8369
30.6287,47.8385
30.6287,47.8385
30.9335,48.0516
30.9921,48.0925
30.9942,48.0943
30.9942,48.0943
31.3212,48.3691
31.3335,48.3795
31.3355,48.3815
31.3355,48.3815
31.4232,48.4696
31.6482,48.6958
31.9334,49.0388
32.1871,49.4058
32.4071,49.7939
32.4083,49.7964
32.4083,49.7965
32.5906,50.1975
32.5906,50.1975
32.5918,50.2000
32.5927,50.2026
32.5927,50.2026
32.6769,50.4423
32.7396,50.6209
32.7403,50.6236
32.7403,50.6236
32.7723,50.7498
32.8494,51.0533
32.8498,51.0561
32.8498,51.0561
32.8883,51.2947
32.9203,51.4938
32.9205,51.4966
32.9205,51.4966
32.9335,51.6805
32.9518,51.9388
124.5323,51.9388
124.5463,51.6243
124.6057,51.1822
124.7041,50.7471
124.8409,50.3224
124.8944,50.1961
125.0138,49.9142
125.0138,49.9142
125.0148,49.9116
125.0789,49.7915
125.2233,49.5204
125.2246,49.5179
125.2261,49.5156
125.4671,49.1467
125.4671,49.1467
125.4686,49.1444
125.5518,49.0388
125.7430,48.7962
125.7430,48.7962
125.7448,48.7940
126.0510,48.4696
126.3091,48.2409
126.3828,48.1756
126.3828,48.1756
126.3849,48.1737
126.7437,47.9087
126.9446,47.7863
127.1223,47.6780
127.1223,47.6780
127.1247,47.6766
127.2470,47.6163
127.5223,47.4805
127.5248,47.4793
127.9409,47.3183
128.0774,47.2790
128.3669,47.1957
128.3669,47.1957
128.3696,47.1950
128.3723,47.1944
128.3724,47.1944
128.5234,47.1652
128.8076,47.1102
128.8104,47.1100
128.8104,47.1099
129.0852,47.0818
129.2514,47.0648
129.2542,47.0647
129.2542,47.0647
129.5327,47.0611
129.6975,47.0589
129.7003,47.0591
129.7003,47.0591
130.1395,47.0926
130.1423,47.0928
130.5824,47.1660
130.6724,47.1894
131.0115,47.2774
131.0115,47.2774
131.0142,47.2781
131.2826,47.3739
131.4317,47.4272
131.4317,47.4272
131.4343,47.4281
131.4369,47.4293
131.4369,47.4293
131.5453,47.4793
131.8395,47.6149
132.2264,47.8369
132.2287,47.8385
132.2287,47.8385
132.5335,48.0516
132.5921,48.0925
132.5942,48.0943
132.5942,48.0943
132.9212,48.3691
132.9335,48.3795
132.9355,48.3815
132.9355,48.3815
133.0232,48.4696
133.2482,48.6958
133.5334,49.0388
133.7871,49.4058
134.0071,49.7939
134.0083,49.7964
134.0083,49.7965
134.1906,50.1975
134.1906,50.1975
134.1918,50.2000
134.1927,50.2026
134.1927,50.2026
134.2769,50.4423
134.3396,50.6209
134.3403,50.6236
134.3403,50.6236
134.3723,50.7498
134.4494,51.0533
134.4498,51.0561
134.4498,51.0561
134.4883,51.2947
134.5203,51.4938
134.5205,51.4966
134.5205,51.4966
134.5335,51.6805
134.5518,51.9388
154.4315,51.9388
154.4315,36.1577
79.6078,36.1577
79.6021,36.1653
79.4310,36.2702
79.4222,36.2747
79.2120,36.3617
79.2026,36.3648
78.9814,36.4179
78.9717,36.4194
78.7449,36.4373
78.7351,36.4373
78.5083,36.4194
78.4986,36.4179
78.2774,36.3648
78.2680,36.3617
78.0578,36.2747
78.0490,36.2702
77.8816,36.1676
77.8721,36.1571
77.8759,36.1483
78.7272,35.2970
78.7411,35.2894
78.7430,35.2895
78.7496,35.2938
79.6011,36.1453
79.6078,36.1577
154.4315,36.1577
154.4315,34.9299
80.2523,34.9299
80.2344,35.1567
80.2329,35.1664
80.1798,35.3876
80.1767,35.3970
80.0897,35.6072
80.0852,35.6160
79.9826,35.7834
79.9721,35.7929
79.9633,35.7891
79.1120,34.9378
79.1056,34.9261
78.3756,34.9261
78.3755,34.9280
78.3712,34.9346
77.5197,35.7861
77.5073,35.7928
77.4997,35.7871
77.3948,35.6160
77.3903,35.6072
77.3033,35.3970
77.3002,35.3876
77.2471,35.1664
77.2456,35.1567
77.2277,34.9299
77.2277,34.9201
77.2456,34.6933
77.2471,34.6836
77.3002,34.4624
77.3033,34.4530
77.3903,34.2428
77.3948,34.2340
77.4974,34.0666
77.5079,34.0571
77.5167,34.0609
78.3680,34.9122
78.3756,34.9261
79.1056,34.9261
79.1044,34.9239
79.1045,34.9220
79.1088,34.9154
79.9603,34.0639
79.9727,34.0572
79.9803,34.0629
80.0852,34.2340
80.0897,34.2428
80.1767,34.4530
80.1798,34.4624
80.2329,34.6836
80.2344,34.6933
80.2523,34.9201
80.2523,34.9299
154.4315,34.9299
154.4315,33.6929
79.6079,33.6929
79.6041,33.7017
78.7528,34.5530
78.7389,34.5606
78.7370,34.5605
78.7304,34.5562
77.8789,33.7047
77.8722,33.6923
77.8779,33.6847
78.0490,33.5798
78.0578,33.5753
78.2680,33.4883
78.2774,33.4852
78.4986,33.4321
78.5083,33.4306
78.7351,33.4127
78.7449,33.4127
78.9717,33.4306
78.9814,33.4321
79.2026,33.4852
79.2120,33.4883
79.4222,33.5753
79.4310,33.5798
79.5984,33.6824
79.6079,33.6929
154.4315,33.6929
154.4315,26.6070
82.8097,26.6070
82.8096,26.6101
82.8092,26.6213
82.7974,26.9605
82.7959,27.0038
82.7433,27.3973
82.6527,27.7838
82.5248,28.1596
82.3608,28.5211
82.1623,28.8649
82.1605,28.8674
82.1605,28.8674
82.0604,29.0073
81.9312,29.1877
81.6697,29.4864
81.6674,29.4885
81.3825,29.7561
81.3825,29.7561
81.3803,29.7582
81.3778,29.7601
81.3778,29.7601
81.0682,29.9985
81.0657,30.0004
81.0631,30.0020
81.0631,30.0020
80.8817,30.1154
80.7291,30.2108
80.3735,30.3873
80.0024,30.5283
79.6193,30.6324
79.6162,30.6329
79.6162,30.6329
79.2309,30.6980
79.2309,30.6980
79.2278,30.6986
79.2248,30.6988
79.2248,30.6988
78.8349,30.7260
78.8349,30.7260
78.8318,30.7263
78.5755,30.7191
78.4380,30.7153
78.4380,30.7153
78.4350,30.7152
78.4319,30.7148
78.4319,30.7148
78.2434,30.6910
78.0411,30.6654
78.0381,30.6647
78.0381,30.6647
77.6570,30.5781
77.6570,30.5781
77.6540,30.5775
77.5061,30.5283
77.2802,30.4531
77.2802,30.4531
77.2773,30.4521
77.1341,30.3884
76.9174,30.2919
76.9174,30.2919
76.9146,30.2907
76.7740,30.2108
76.5721,30.0961
76.5721,30.0961
76.5694,30.0946
76.2450,29.8657
75.9445,29.6063
75.9424,29.6041
75.9424,29.6041
75.6729,29.3211
75.6707,29.3189
75.6375,29.2763
75.4282,29.0085
75.4282,29.0085
75.4263,29.0060
75.4247,29.0034
75.4247,29.0034
75.2153,28.6734
75.2153,28.6734
75.2136,28.6708
75.1873,28.6188
75.1287,28.5027
75.0346,28.3165
75.0335,28.3136
75.0335,28.3136
74.8922,27.9492
74.8922,27.9492
74.8910,27.9464
74.7843,27.5640
74.7154,27.1730
74.6849,26.7772
74.6833,26.6637
74.6859,26.6101
74.7026,26.2703
74.7027,26.2672
74.7115,26.2078
74.7602,25.8775
74.7602,25.8775
74.7607,25.8745
74.8567,25.4893
74.8750,25.4381
74.9889,25.1182
74.9899,25.1153
75.1589,24.7561
75.1887,24.7062
75.3606,24.4178
75.3622,24.4151
75.5978,24.0956
75.8634,23.8005
76.1566,23.5328
76.4745,23.2950
76.5233,23.2655
76.8114,23.0910
76.8114,23.0910
76.8141,23.0894
77.1721,22.9179
77.2315,22.8962
77.5422,22.7831
77.5422,22.7831
77.5451,22.7821
77.7520,22.7290
77.9267,22.6841
77.9267,22.6841
77.9296,22.6833
78.3220,22.6226
78.3250,22.6224
78.3250,22.6224
78.3538,22.6208
78.7183,22.6005
78.7214,22.6006
78.7214,22.6006
78.9797,22.6114
79.1150,22.6171
79.1180,22.6175
79.1180,22.6175
79.1577,22.6231
79.5081,22.6723
79.8940,22.7657
80.2689,22.8962
80.3157,22.9179
80.6265,23.0615
80.6265,23.0615
80.6293,23.0628
80.9717,23.2636
81.0127,23.2934
81.2904,23.4952
81.2904,23.4952
81.2928,23.4970
81.2951,23.4990
81.2951,23.4990
81.3356,23.5349
81.5897,23.7606
81.5918,23.7628
81.5918,23.7628
81.8574,24.0496
81.8574,24.0496
81.8594,24.0518
81.8613,24.0543
81.8613,24.0543
81.8945,24.0980
82.0995,24.3681
82.1011,24.3707
82.1011,24.3707
82.3059,24.7036
82.3075,24.7062
82.4815,25.0630
82.4826,25.0659
82.4826,25.0659
82.5686,25.2971
82.6199,25.4351
82.7213,25.8189
82.7848,26.2108
82.7850,26.2139
82.7850,26.2139
82.7919,26.3247
82.8097,26.6070
154.4315,26.6070
154.4315,7.6732
154.4298,7.6523
154.4272,7.6373
154.4272,7.6373
154.4264,7.6326
154.4263,7.6200
154.4270,7.6152
154.4270,7.6152
154.4286,7.6036
154.4298,7.5803
154.4143,7.2271
154.4134,7.2161
154.3628,6.8316
154.3609,6.8208
154.2769,6.4422
154.2741,6.4316
154.1575,6.0617
154.1537,6.0514
154.0053,5.6931
154.0006,5.6831
153.8216,5.3391
153.8161,5.3296
153.6077,5.0025
153.6014,4.9935
153.3653,4.6859
153.3583,4.6774
153.0963,4.3915
153.0885,4.3837
152.8026,4.1217
152.7941,4.1147
152.4865,3.8786
152.4775,3.8723
152.1504,3.6639
152.1409,3.6584
151.7969,3.4794
151.7869,3.4747
151.4286,3.3263
151.4183,3.3225
151.2187,3.2596
151.0484,3.2059
151.0378,3.2031
150.6592,3.1191
150.6484,3.1172
150.2639,3.0666
150.2529,3.0657
149.9034,3.0504
149.8786,3.0518
149.8663,3.0537
149.8574,3.0525
149.8574,3.0525
149.8386,3.0501
149.8347,3.0496
149.8184,3.0485
7.6694,3.0485
Z" /> 
</g>
</g>
</g>
<g style="fill:#FFFFFF; fill-opacity:1.0000; 
stroke:#FFFFFF; stroke-width:0.0000; stroke-opacity:1; 
stroke-linecap:round; stroke-linejoin:round;">
<circle cx="78.7400" cy="34.9250" r="0.5000" /> 
</g>
<g style="fill:#FFFFFF; fill-opacity:1.0000; 
stroke:#FFFFFF; stroke-width:0.0212; stroke-opacity:1; 
stroke-linecap:round; stroke-linejoin:round;">
</g>
<g style="fill:#000000; fill-opacity:1.0000; 
stroke:#000000; stroke-width:0.0212; stroke-opacity:1; 
stroke-linecap:round; stroke-linejoin:round;">
</g>
<g style="fill:#C2C2C2; fill-opacity:1.0000; 
stroke:#C2C2C2; stroke-width:0.0212; stroke-opacity:1; 
stroke-linecap:round; stroke-linejoin:round;">
</g>
<g style="fill:#C2C2C2; fill-opacity:0.0; 
stroke:#C2C2C2; stroke-width:0.1500; stroke-opacity:1; 
stroke-linecap:round; stroke-linejoin:round;">
<circle cx="53.3400" cy="102.8700" r="3.1750" /> 
<circle cx="129.5400" cy="102.8700" r="3.5500" /> 
<circle cx="21.5900" cy="138.4300" r="3.5500" /> 
<circle cx="78.7467" cy="26.6637" r="3.5500" /> 
<circle cx="21.5900" cy="184.1500" r="3.1750" /> 
<circle cx="135.8900" cy="222.2500" r="3.5500" /> 
<circle cx="107.9500" cy="196.8500" r="4.5000" /> 
<circle cx="135.8900" cy="138.4300" r="3.5500" /> 
<circle cx="104.1400" cy="102.8700" r="3.1750" /> 
<circle cx="78.7400" cy="222.2500" r="3.5500" /> 
<circle cx="27.9400" cy="52.0700" r="4.5000" /> 
<circle cx="50.1650" cy="138.4300" r="3.5500" /> 
<circle cx="21.5900" cy="222.2500" r="3.5500" /> 
<circle cx="129.5400" cy="52.0700" r="4.5000" /> 
</g>
<g style="fill:#C2C2C2; fill-opacity:0.0; 
stroke:#C2C2C2; stroke-width:0.1000; stroke-opacity:1; 
stroke-linecap:round; stroke-linejoin:round;">
<path d="M149.8600 242.5700 A5.0800 5.0800 0.0 0 0 154.9400 237.4900" />
</g>
<g style="fill:#C2C2C2; fill-opacity:0.0; 
stroke:#C2C2C2; stroke-width:0.1500; stroke-opacity:1; 
stroke-linecap:round; stroke-linejoin:round;">
<circle cx="135.8900" cy="184.1500" r="3.1750" /> 
<circle cx="78.7400" cy="77.4700" r="3.5500" /> 
</g>
<g style="fill:#C2C2C2; fill-opacity:0.0; 
stroke:#C2C2C2; stroke-width:0.1000; stroke-opacity:1; 
stroke-linecap:round; stroke-linejoin:round;">
<path d="M2.5400 237.4900
L2.5400 7.6200
" />
</g>
<g style="fill:#C2C2C2; fill-opacity:0.0; 
stroke:#C2C2C2; stroke-width:0.1500; stroke-opacity:1; 
stroke-linecap:round; stroke-linejoin:round;">
<circle cx="49.5300" cy="196.8500" r="3.5500" /> 
<circle cx="107.3150" cy="138.4300" r="3.5500" /> 
</g>
<g style="fill:#C2C2C2; fill-opacity:0.0; 
stroke:#C2C2C2; stroke-width:0.1000; stroke-opacity:1; 
stroke-linecap:round; stroke-linejoin:round;">
<path d="M154.9400 7.6200 A5.0800 5.0800 0.0 0 0 149.8600 2.5400" />
</g>
<g style="fill:#C2C2C2; fill-opacity:0.0; 
stroke:#C2C2C2; stroke-width:0.1500; stroke-opacity:1; 
stroke-linecap:round; stroke-linejoin:round;">
<circle cx="27.9446" cy="102.8637" r="3.5500" /> 
</g>
<g style="fill:#C2C2C2; fill-opacity:0.0; 
stroke:#C2C2C2; stroke-width:0.1000; stroke-opacity:1; 
stroke-linecap:round; stroke-linejoin:round;">
<path d="M7.6200 2.5400
L149.8600 2.5400
" />
<path d="M7.6200 2.5400 A5.0800 5.0800 0.0 0 0 2.5400 7.6200" />
</g>
<g style="fill:#C2C2C2; fill-opacity:0.0; 
stroke:#C2C2C2; stroke-width:0.1500; stroke-opacity:1; 
stroke-linecap:round; stroke-linejoin:round;">
<circle cx="78.7400" cy="138.4300" r="3.5500" /> 
</g>
<g style="fill:#C2C2C2; fill-opacity:0.0; 
stroke:#C2C2C2; stroke-width:0.1000; stroke-opacity:1; 
stroke-linecap:round; stroke-linejoin:round;">
<path d="M154.9400 7.6200
L154.9400 237.4900
" />
<path d="M2.5400 237.4900 A5.0800 5.0800 0.0 0 0 7.6200 242.5700" />
<path d="M149.8600 242.5700
L7.6200 242.5700
" />
<g >
</g>
<g >
</g>
<g >
</g>
<g >
</g>
<g >
</g>
<g >
</g>
<g >
</g>
</g> 
</svg>
