%FSLAX45Y45*%
G04 Gerber Fmt 4.5, Leading zero omitted, Abs format (unit mm)*
G04 Created by KiCad (PCBNEW 6.0.5+dfsg-1~bpo11+1) date 2023-02-06 17:01:20*
%MOMM*%
%LPD*%
G01*
G04 APERTURE LIST*
%TA.AperFunction,Profile*%
%ADD10C,0.050000*%
%TD*%
%ADD11C,0.200000*%
G04 APERTURE END LIST*
D10*
X17272000Y-2540000D02*
X4064000Y-2540000D01*
X17272000Y-23876000D02*
X17272000Y-2540000D01*
X4064000Y-2540000D02*
X4064000Y-23876000D01*
X4064000Y-23876000D02*
X17272000Y-23876000D01*
D11*
X4319119Y-24188976D02*
X4319119Y-23988976D01*
X4366738Y-23988976D01*
X4395310Y-23998500D01*
X4414357Y-24017548D01*
X4423881Y-24036595D01*
X4433405Y-24074690D01*
X4433405Y-24103262D01*
X4423881Y-24141357D01*
X4414357Y-24160405D01*
X4395310Y-24179452D01*
X4366738Y-24188976D01*
X4319119Y-24188976D01*
X4519119Y-24188976D02*
X4519119Y-24055643D01*
X4519119Y-24093738D02*
X4528643Y-24074690D01*
X4538167Y-24065167D01*
X4557214Y-24055643D01*
X4576262Y-24055643D01*
X4642929Y-24188976D02*
X4642929Y-24055643D01*
X4642929Y-23988976D02*
X4633405Y-23998500D01*
X4642929Y-24008024D01*
X4652452Y-23998500D01*
X4642929Y-23988976D01*
X4642929Y-24008024D01*
X4766738Y-24188976D02*
X4747690Y-24179452D01*
X4738167Y-24160405D01*
X4738167Y-23988976D01*
X4871500Y-24188976D02*
X4852452Y-24179452D01*
X4842929Y-24160405D01*
X4842929Y-23988976D01*
X5100071Y-24188976D02*
X5100071Y-23988976D01*
X5166738Y-24131833D01*
X5233405Y-23988976D01*
X5233405Y-24188976D01*
X5414357Y-24188976D02*
X5414357Y-24084214D01*
X5404833Y-24065167D01*
X5385786Y-24055643D01*
X5347690Y-24055643D01*
X5328643Y-24065167D01*
X5414357Y-24179452D02*
X5395310Y-24188976D01*
X5347690Y-24188976D01*
X5328643Y-24179452D01*
X5319119Y-24160405D01*
X5319119Y-24141357D01*
X5328643Y-24122309D01*
X5347690Y-24112786D01*
X5395310Y-24112786D01*
X5414357Y-24103262D01*
X5509595Y-24055643D02*
X5509595Y-24255643D01*
X5509595Y-24065167D02*
X5528643Y-24055643D01*
X5566738Y-24055643D01*
X5585786Y-24065167D01*
X5595309Y-24074690D01*
X5604833Y-24093738D01*
X5604833Y-24150881D01*
X5595309Y-24169928D01*
X5585786Y-24179452D01*
X5566738Y-24188976D01*
X5528643Y-24188976D01*
X5509595Y-24179452D01*
X5690548Y-24169928D02*
X5700071Y-24179452D01*
X5690548Y-24188976D01*
X5681024Y-24179452D01*
X5690548Y-24169928D01*
X5690548Y-24188976D01*
X5690548Y-24065167D02*
X5700071Y-24074690D01*
X5690548Y-24084214D01*
X5681024Y-24074690D01*
X5690548Y-24065167D01*
X5690548Y-24084214D01*
M02*
