%FSLAX45Y45*%
G04 Gerber Fmt 4.5, Leading zero omitted, Abs format (unit mm)*
G04 Created by KiCad (PCBNEW 6.0.5+dfsg-1~bpo11+1) date 2023-02-06 17:01:20*
%MOMM*%
%LPD*%
G01*
G04 APERTURE LIST*
%TA.AperFunction,Profile*%
%ADD10C,0.050000*%
%TD*%
%ADD11C,0.200000*%
%ADD12C,0.040000*%
%ADD13C,0.050000*%
%ADD14C,0.080000*%
%ADD15C,0.090000*%
%ADD16C,0.100000*%
%ADD17C,0.110000*%
%ADD18C,0.119000*%
%ADD19C,0.130000*%
%ADD20C,0.185000*%
G04 APERTURE END LIST*
D10*
X17272000Y-2540000D02*
X4064000Y-2540000D01*
X17272000Y-23876000D02*
X17272000Y-2540000D01*
X4064000Y-2540000D02*
X4064000Y-23876000D01*
X4064000Y-23876000D02*
X17272000Y-23876000D01*
D11*
D12*
X5669600Y-15626400D02*
X5709600Y-15666400D01*
X5709600Y-15626400D02*
X5669600Y-15666400D01*
X7066600Y-17226600D02*
X7106600Y-17266600D01*
X7106600Y-17226600D02*
X7066600Y-17266600D01*
X7066600Y-17480600D02*
X7106600Y-17520600D01*
X7106600Y-17480600D02*
X7066600Y-17520600D01*
X7777800Y-16388400D02*
X7817800Y-16428400D01*
X7817800Y-16388400D02*
X7777800Y-16428400D01*
X7955600Y-16083600D02*
X7995600Y-16123600D01*
X7995600Y-16083600D02*
X7955600Y-16123600D01*
X8057200Y-17556800D02*
X8097200Y-17596800D01*
X8097200Y-17556800D02*
X8057200Y-17596800D01*
X8768400Y-5466400D02*
X8808400Y-5506400D01*
X8808400Y-5466400D02*
X8768400Y-5506400D01*
X13035600Y-23627400D02*
X13075600Y-23667400D01*
X13075600Y-23627400D02*
X13035600Y-23667400D01*
D13*
X4241400Y-17297400D02*
G75*
G03*
X4241400Y-17297400I-25000J0D01*
G01*
X4266800Y-15976600D02*
G75*
G03*
X4266800Y-15976600I-25000J0D01*
G01*
X4266800Y-16306800D02*
G75*
G03*
X4266800Y-16306800I-25000J0D01*
G01*
X4266800Y-18364200D02*
G75*
G03*
X4266800Y-18364200I-25000J0D01*
G01*
X4292200Y-16637000D02*
G75*
G03*
X4292200Y-16637000I-25000J0D01*
G01*
X4317600Y-19685000D02*
G75*
G03*
X4317600Y-19685000I-25000J0D01*
G01*
X4368400Y-18923000D02*
G75*
G03*
X4368400Y-18923000I-25000J0D01*
G01*
X4457300Y-17767300D02*
G75*
G03*
X4457300Y-17767300I-25000J0D01*
G01*
X4498445Y-11915645D02*
G75*
G03*
X4498445Y-11915645I-25000J0D01*
G01*
X4787500Y-6756400D02*
G75*
G03*
X4787500Y-6756400I-25000J0D01*
G01*
X4812900Y-17767300D02*
G75*
G03*
X4812900Y-17767300I-25000J0D01*
G01*
X4825600Y-18211800D02*
G75*
G03*
X4825600Y-18211800I-25000J0D01*
G01*
X4825600Y-21310600D02*
G75*
G03*
X4825600Y-21310600I-25000J0D01*
G01*
X4888050Y-11771850D02*
G75*
G03*
X4888050Y-11771850I-25000J0D01*
G01*
X4901800Y-3098800D02*
G75*
G03*
X4901800Y-3098800I-25000J0D01*
G01*
X4952600Y-21920200D02*
G75*
G03*
X4952600Y-21920200I-25000J0D01*
G01*
X5054200Y-21082000D02*
G75*
G03*
X5054200Y-21082000I-25000J0D01*
G01*
X5105000Y-7556500D02*
G75*
G03*
X5105000Y-7556500I-25000J0D01*
G01*
X5105000Y-9652000D02*
G75*
G03*
X5105000Y-9652000I-25000J0D01*
G01*
X5105000Y-20751800D02*
G75*
G03*
X5105000Y-20751800I-25000J0D01*
G01*
X5117700Y-5372100D02*
G75*
G03*
X5117700Y-5372100I-25000J0D01*
G01*
X5206600Y-15621000D02*
G75*
G03*
X5206600Y-15621000I-25000J0D01*
G01*
X5257400Y-15849600D02*
G75*
G03*
X5257400Y-15849600I-25000J0D01*
G01*
X5409800Y-19913600D02*
G75*
G03*
X5409800Y-19913600I-25000J0D01*
G01*
X5448950Y-17167193D02*
G75*
G03*
X5448950Y-17167193I-25000J0D01*
G01*
X5511400Y-10210800D02*
G75*
G03*
X5511400Y-10210800I-25000J0D01*
G01*
X5562200Y-6134100D02*
G75*
G03*
X5562200Y-6134100I-25000J0D01*
G01*
X5613000Y-19964400D02*
G75*
G03*
X5613000Y-19964400I-25000J0D01*
G01*
X5714600Y-21463000D02*
G75*
G03*
X5714600Y-21463000I-25000J0D01*
G01*
X5751650Y-17783207D02*
G75*
G03*
X5751650Y-17783207I-25000J0D01*
G01*
X5790800Y-18211800D02*
G75*
G03*
X5790800Y-18211800I-25000J0D01*
G01*
X5803500Y-7556500D02*
G75*
G03*
X5803500Y-7556500I-25000J0D01*
G01*
X5867000Y-18846800D02*
G75*
G03*
X5867000Y-18846800I-25000J0D01*
G01*
X5914825Y-19904443D02*
G75*
G03*
X5914825Y-19904443I-25000J0D01*
G01*
X5994000Y-20650200D02*
G75*
G03*
X5994000Y-20650200I-25000J0D01*
G01*
X6019400Y-18973800D02*
G75*
G03*
X6019400Y-18973800I-25000J0D01*
G01*
X6019400Y-23469600D02*
G75*
G03*
X6019400Y-23469600I-25000J0D01*
G01*
X6044800Y-21082000D02*
G75*
G03*
X6044800Y-21082000I-25000J0D01*
G01*
X6070200Y-15113000D02*
G75*
G03*
X6070200Y-15113000I-25000J0D01*
G01*
X6222600Y-22860000D02*
G75*
G03*
X6222600Y-22860000I-25000J0D01*
G01*
X6298800Y-10795000D02*
G75*
G03*
X6298800Y-10795000I-25000J0D01*
G01*
X6311500Y-7556500D02*
G75*
G03*
X6311500Y-7556500I-25000J0D01*
G01*
X6324200Y-11506200D02*
G75*
G03*
X6324200Y-11506200I-25000J0D01*
G01*
X6375000Y-3149600D02*
G75*
G03*
X6375000Y-3149600I-25000J0D01*
G01*
X6375000Y-9334500D02*
G75*
G03*
X6375000Y-9334500I-25000J0D01*
G01*
X6375000Y-19888200D02*
G75*
G03*
X6375000Y-19888200I-25000J0D01*
G01*
X6425800Y-17475200D02*
G75*
G03*
X6425800Y-17475200I-25000J0D01*
G01*
X6527400Y-13030200D02*
G75*
G03*
X6527400Y-13030200I-25000J0D01*
G01*
X6603600Y-14909800D02*
G75*
G03*
X6603600Y-14909800I-25000J0D01*
G01*
X6621150Y-12412750D02*
G75*
G03*
X6621150Y-12412750I-25000J0D01*
G01*
X6654400Y-5118100D02*
G75*
G03*
X6654400Y-5118100I-25000J0D01*
G01*
X6679800Y-3937000D02*
G75*
G03*
X6679800Y-3937000I-25000J0D01*
G01*
X6679800Y-6807200D02*
G75*
G03*
X6679800Y-6807200I-25000J0D01*
G01*
X6705200Y-15646400D02*
G75*
G03*
X6705200Y-15646400I-25000J0D01*
G01*
X6730600Y-5816600D02*
G75*
G03*
X6730600Y-5816600I-25000J0D01*
G01*
X6730600Y-16154400D02*
G75*
G03*
X6730600Y-16154400I-25000J0D01*
G01*
X6756000Y-4165600D02*
G75*
G03*
X6756000Y-4165600I-25000J0D01*
G01*
X6756000Y-7823200D02*
G75*
G03*
X6756000Y-7823200I-25000J0D01*
G01*
X6756000Y-16814800D02*
G75*
G03*
X6756000Y-16814800I-25000J0D01*
G01*
X6832200Y-3810000D02*
G75*
G03*
X6832200Y-3810000I-25000J0D01*
G01*
X6933800Y-6807200D02*
G75*
G03*
X6933800Y-6807200I-25000J0D01*
G01*
X6933800Y-7340600D02*
G75*
G03*
X6933800Y-7340600I-25000J0D01*
G01*
X6946500Y-9080500D02*
G75*
G03*
X6946500Y-9080500I-25000J0D01*
G01*
X6984600Y-15900400D02*
G75*
G03*
X6984600Y-15900400I-25000J0D01*
G01*
X7073500Y-18097500D02*
G75*
G03*
X7073500Y-18097500I-25000J0D01*
G01*
X7073500Y-23495000D02*
G75*
G03*
X7073500Y-23495000I-25000J0D01*
G01*
X7130400Y-12412750D02*
G75*
G03*
X7130400Y-12412750I-25000J0D01*
G01*
X7162400Y-11506200D02*
G75*
G03*
X7162400Y-11506200I-25000J0D01*
G01*
X7187800Y-10134600D02*
G75*
G03*
X7187800Y-10134600I-25000J0D01*
G01*
X7187800Y-10591800D02*
G75*
G03*
X7187800Y-10591800I-25000J0D01*
G01*
X7200500Y-15303500D02*
G75*
G03*
X7200500Y-15303500I-25000J0D01*
G01*
X7213200Y-5816600D02*
G75*
G03*
X7213200Y-5816600I-25000J0D01*
G01*
X7213200Y-20802600D02*
G75*
G03*
X7213200Y-20802600I-25000J0D01*
G01*
X7238600Y-6248400D02*
G75*
G03*
X7238600Y-6248400I-25000J0D01*
G01*
X7238600Y-6604000D02*
G75*
G03*
X7238600Y-6604000I-25000J0D01*
G01*
X7257400Y-16281400D02*
G75*
G03*
X7257400Y-16281400I-25000J0D01*
G01*
X7264000Y-12065000D02*
G75*
G03*
X7264000Y-12065000I-25000J0D01*
G01*
X7264000Y-18516600D02*
G75*
G03*
X7264000Y-18516600I-25000J0D01*
G01*
X7289400Y-20066000D02*
G75*
G03*
X7289400Y-20066000I-25000J0D01*
G01*
X7340200Y-5613400D02*
G75*
G03*
X7340200Y-5613400I-25000J0D01*
G01*
X7340200Y-5943600D02*
G75*
G03*
X7340200Y-5943600I-25000J0D01*
G01*
X7416400Y-4965700D02*
G75*
G03*
X7416400Y-4965700I-25000J0D01*
G01*
X7518000Y-19939000D02*
G75*
G03*
X7518000Y-19939000I-25000J0D01*
G01*
X7568800Y-18821400D02*
G75*
G03*
X7568800Y-18821400I-25000J0D01*
G01*
X7676500Y-16015750D02*
G75*
G03*
X7676500Y-16015750I-25000J0D01*
G01*
X7759300Y-9029700D02*
G75*
G03*
X7759300Y-9029700I-25000J0D01*
G01*
X7797400Y-8813800D02*
G75*
G03*
X7797400Y-8813800I-25000J0D01*
G01*
X7848200Y-9169400D02*
G75*
G03*
X7848200Y-9169400I-25000J0D01*
G01*
X7873600Y-4800600D02*
G75*
G03*
X7873600Y-4800600I-25000J0D01*
G01*
X7873600Y-5842000D02*
G75*
G03*
X7873600Y-5842000I-25000J0D01*
G01*
X7899000Y-3238500D02*
G75*
G03*
X7899000Y-3238500I-25000J0D01*
G01*
X7899000Y-6883400D02*
G75*
G03*
X7899000Y-6883400I-25000J0D01*
G01*
X7899000Y-8432800D02*
G75*
G03*
X7899000Y-8432800I-25000J0D01*
G01*
X7899000Y-9474200D02*
G75*
G03*
X7899000Y-9474200I-25000J0D01*
G01*
X7899000Y-23672800D02*
G75*
G03*
X7899000Y-23672800I-25000J0D01*
G01*
X7924400Y-6553200D02*
G75*
G03*
X7924400Y-6553200I-25000J0D01*
G01*
X7924400Y-7543800D02*
G75*
G03*
X7924400Y-7543800I-25000J0D01*
G01*
X7924400Y-7783650D02*
G75*
G03*
X7924400Y-7783650I-25000J0D01*
G01*
X7924400Y-8128000D02*
G75*
G03*
X7924400Y-8128000I-25000J0D01*
G01*
X8051400Y-21666200D02*
G75*
G03*
X8051400Y-21666200I-25000J0D01*
G01*
X8098667Y-15795058D02*
G75*
G03*
X8098667Y-15795058I-25000J0D01*
G01*
X8200160Y-9673760D02*
G75*
G03*
X8200160Y-9673760I-25000J0D01*
G01*
X8203800Y-9804400D02*
G75*
G03*
X8203800Y-9804400I-25000J0D01*
G01*
X8251101Y-15364560D02*
G75*
G03*
X8251101Y-15364560I-25000J0D01*
G01*
X8283617Y-21698250D02*
G75*
G03*
X8283617Y-21698250I-25000J0D01*
G01*
X8305400Y-12319000D02*
G75*
G03*
X8305400Y-12319000I-25000J0D01*
G01*
X8305400Y-16408400D02*
G75*
G03*
X8305400Y-16408400I-25000J0D01*
G01*
X8349494Y-15433166D02*
G75*
G03*
X8349494Y-15433166I-25000J0D01*
G01*
X8381600Y-17348200D02*
G75*
G03*
X8381600Y-17348200I-25000J0D01*
G01*
X8407000Y-10096500D02*
G75*
G03*
X8407000Y-10096500I-25000J0D01*
G01*
X8407000Y-21844000D02*
G75*
G03*
X8407000Y-21844000I-25000J0D01*
G01*
X8426240Y-15525351D02*
G75*
G03*
X8426240Y-15525351I-25000J0D01*
G01*
X8457800Y-8102600D02*
G75*
G03*
X8457800Y-8102600I-25000J0D01*
G01*
X8508600Y-12610050D02*
G75*
G03*
X8508600Y-12610050I-25000J0D01*
G01*
X8610200Y-16027400D02*
G75*
G03*
X8610200Y-16027400I-25000J0D01*
G01*
X8635600Y-19710400D02*
G75*
G03*
X8635600Y-19710400I-25000J0D01*
G01*
X8838800Y-4419600D02*
G75*
G03*
X8838800Y-4419600I-25000J0D01*
G01*
X8838800Y-6451600D02*
G75*
G03*
X8838800Y-6451600I-25000J0D01*
G01*
X8838800Y-22072600D02*
G75*
G03*
X8838800Y-22072600I-25000J0D01*
G01*
X8864200Y-7264400D02*
G75*
G03*
X8864200Y-7264400I-25000J0D01*
G01*
X8864200Y-4800600D02*
G75*
G03*
X8864200Y-4800600I-25000J0D01*
G01*
X8864200Y-6883400D02*
G75*
G03*
X8864200Y-6883400I-25000J0D01*
G01*
X8864200Y-7518400D02*
G75*
G03*
X8864200Y-7518400I-25000J0D01*
G01*
X8864200Y-8432800D02*
G75*
G03*
X8864200Y-8432800I-25000J0D01*
G01*
X8864200Y-9474200D02*
G75*
G03*
X8864200Y-9474200I-25000J0D01*
G01*
X8889600Y-5842000D02*
G75*
G03*
X8889600Y-5842000I-25000J0D01*
G01*
X8889600Y-9093200D02*
G75*
G03*
X8889600Y-9093200I-25000J0D01*
G01*
X8889600Y-18973800D02*
G75*
G03*
X8889600Y-18973800I-25000J0D01*
G01*
X8915000Y-7874000D02*
G75*
G03*
X8915000Y-7874000I-25000J0D01*
G01*
X8915000Y-8077200D02*
G75*
G03*
X8915000Y-8077200I-25000J0D01*
G01*
X8940400Y-11684000D02*
G75*
G03*
X8940400Y-11684000I-25000J0D01*
G01*
X8940400Y-15138400D02*
G75*
G03*
X8940400Y-15138400I-25000J0D01*
G01*
X8953100Y-11163300D02*
G75*
G03*
X8953100Y-11163300I-25000J0D01*
G01*
X8965800Y-13030200D02*
G75*
G03*
X8965800Y-13030200I-25000J0D01*
G01*
X8991200Y-7162800D02*
G75*
G03*
X8991200Y-7162800I-25000J0D01*
G01*
X8991200Y-12674600D02*
G75*
G03*
X8991200Y-12674600I-25000J0D01*
G01*
X9092800Y-18237200D02*
G75*
G03*
X9092800Y-18237200I-25000J0D01*
G01*
X9092800Y-21285200D02*
G75*
G03*
X9092800Y-21285200I-25000J0D01*
G01*
X9118200Y-20040600D02*
G75*
G03*
X9118200Y-20040600I-25000J0D01*
G01*
X9118200Y-20370800D02*
G75*
G03*
X9118200Y-20370800I-25000J0D01*
G01*
X9118200Y-21031200D02*
G75*
G03*
X9118200Y-21031200I-25000J0D01*
G01*
X9169000Y-10096500D02*
G75*
G03*
X9169000Y-10096500I-25000J0D01*
G01*
X9232500Y-3238500D02*
G75*
G03*
X9232500Y-3238500I-25000J0D01*
G01*
X9245200Y-14427200D02*
G75*
G03*
X9245200Y-14427200I-25000J0D01*
G01*
X9296000Y-15875000D02*
G75*
G03*
X9296000Y-15875000I-25000J0D01*
G01*
X9346800Y-9652000D02*
G75*
G03*
X9346800Y-9652000I-25000J0D01*
G01*
X9473800Y-5156200D02*
G75*
G03*
X9473800Y-5156200I-25000J0D01*
G01*
X9473800Y-6807200D02*
G75*
G03*
X9473800Y-6807200I-25000J0D01*
G01*
X9473800Y-13563600D02*
G75*
G03*
X9473800Y-13563600I-25000J0D01*
G01*
X9486500Y-23495000D02*
G75*
G03*
X9486500Y-23495000I-25000J0D01*
G01*
X9550000Y-4902200D02*
G75*
G03*
X9550000Y-4902200I-25000J0D01*
G01*
X9550000Y-10922000D02*
G75*
G03*
X9550000Y-10922000I-25000J0D01*
G01*
X9550000Y-16256000D02*
G75*
G03*
X9550000Y-16256000I-25000J0D01*
G01*
X9611050Y-15732850D02*
G75*
G03*
X9611050Y-15732850I-25000J0D01*
G01*
X9626200Y-22072600D02*
G75*
G03*
X9626200Y-22072600I-25000J0D01*
G01*
X9651600Y-6388100D02*
G75*
G03*
X9651600Y-6388100I-25000J0D01*
G01*
X9665750Y-8813800D02*
G75*
G03*
X9665750Y-8813800I-25000J0D01*
G01*
X9753200Y-19634200D02*
G75*
G03*
X9753200Y-19634200I-25000J0D01*
G01*
X9778600Y-18897600D02*
G75*
G03*
X9778600Y-18897600I-25000J0D01*
G01*
X9854800Y-18288000D02*
G75*
G03*
X9854800Y-18288000I-25000J0D01*
G01*
X9859050Y-15726850D02*
G75*
G03*
X9859050Y-15726850I-25000J0D01*
G01*
X9880200Y-8305800D02*
G75*
G03*
X9880200Y-8305800I-25000J0D01*
G01*
X9880200Y-11125200D02*
G75*
G03*
X9880200Y-11125200I-25000J0D01*
G01*
X9905600Y-8813800D02*
G75*
G03*
X9905600Y-8813800I-25000J0D01*
G01*
X9943700Y-6553200D02*
G75*
G03*
X9943700Y-6553200I-25000J0D01*
G01*
X9994500Y-9461500D02*
G75*
G03*
X9994500Y-9461500I-25000J0D01*
G01*
X9994500Y-10096500D02*
G75*
G03*
X9994500Y-10096500I-25000J0D01*
G01*
X10007200Y-7162800D02*
G75*
G03*
X10007200Y-7162800I-25000J0D01*
G01*
X10007200Y-16256000D02*
G75*
G03*
X10007200Y-16256000I-25000J0D01*
G01*
X10032600Y-5029200D02*
G75*
G03*
X10032600Y-5029200I-25000J0D01*
G01*
X10058000Y-19329400D02*
G75*
G03*
X10058000Y-19329400I-25000J0D01*
G01*
X10058000Y-19812000D02*
G75*
G03*
X10058000Y-19812000I-25000J0D01*
G01*
X10185000Y-10922000D02*
G75*
G03*
X10185000Y-10922000I-25000J0D01*
G01*
X10247450Y-21027993D02*
G75*
G03*
X10247450Y-21027993I-25000J0D01*
G01*
X10271600Y-6898400D02*
G75*
G03*
X10271600Y-6898400I-25000J0D01*
G01*
X10337400Y-17653000D02*
G75*
G03*
X10337400Y-17653000I-25000J0D01*
G01*
X10362800Y-11658600D02*
G75*
G03*
X10362800Y-11658600I-25000J0D01*
G01*
X10362800Y-19329400D02*
G75*
G03*
X10362800Y-19329400I-25000J0D01*
G01*
X10362800Y-19989800D02*
G75*
G03*
X10362800Y-19989800I-25000J0D01*
G01*
X10388200Y-17856200D02*
G75*
G03*
X10388200Y-17856200I-25000J0D01*
G01*
X10439000Y-4394200D02*
G75*
G03*
X10439000Y-4394200I-25000J0D01*
G01*
X10439000Y-9575800D02*
G75*
G03*
X10439000Y-9575800I-25000J0D01*
G01*
X10464400Y-15824200D02*
G75*
G03*
X10464400Y-15824200I-25000J0D01*
G01*
X10502500Y-16065500D02*
G75*
G03*
X10502500Y-16065500I-25000J0D01*
G01*
X10540600Y-20650200D02*
G75*
G03*
X10540600Y-20650200I-25000J0D01*
G01*
X10566000Y-21691600D02*
G75*
G03*
X10566000Y-21691600I-25000J0D01*
G01*
X10642200Y-5588000D02*
G75*
G03*
X10642200Y-5588000I-25000J0D01*
G01*
X10693000Y-18770600D02*
G75*
G03*
X10693000Y-18770600I-25000J0D01*
G01*
X10693000Y-19634200D02*
G75*
G03*
X10693000Y-19634200I-25000J0D01*
G01*
X10704650Y-4902200D02*
G75*
G03*
X10704650Y-4902200I-25000J0D01*
G01*
X10732150Y-6285450D02*
G75*
G03*
X10732150Y-6285450I-25000J0D01*
G01*
X10755329Y-21291850D02*
G75*
G03*
X10755329Y-21291850I-25000J0D01*
G01*
X10806250Y-4749696D02*
G75*
G03*
X10806250Y-4749696I-25000J0D01*
G01*
X10812315Y-18014201D02*
G75*
G03*
X10812315Y-18014201I-25000J0D01*
G01*
X10959700Y-11176000D02*
G75*
G03*
X10959700Y-11176000I-25000J0D01*
G01*
X10997800Y-16433800D02*
G75*
G03*
X10997800Y-16433800I-25000J0D01*
G01*
X11028950Y-4390993D02*
G75*
G03*
X11028950Y-4390993I-25000J0D01*
G01*
X11060250Y-17946150D02*
G75*
G03*
X11060250Y-17946150I-25000J0D01*
G01*
X11099400Y-22123400D02*
G75*
G03*
X11099400Y-22123400I-25000J0D01*
G01*
X11137500Y-13208000D02*
G75*
G03*
X11137500Y-13208000I-25000J0D01*
G01*
X11201000Y-9461500D02*
G75*
G03*
X11201000Y-9461500I-25000J0D01*
G01*
X11201000Y-10096500D02*
G75*
G03*
X11201000Y-10096500I-25000J0D01*
G01*
X11226400Y-18999200D02*
G75*
G03*
X11226400Y-18999200I-25000J0D01*
G01*
X11264500Y-12446000D02*
G75*
G03*
X11264500Y-12446000I-25000J0D01*
G01*
X11302600Y-11760200D02*
G75*
G03*
X11302600Y-11760200I-25000J0D01*
G01*
X11320475Y-4706525D02*
G75*
G03*
X11320475Y-4706525I-25000J0D01*
G01*
X11328000Y-7251700D02*
G75*
G03*
X11328000Y-7251700I-25000J0D01*
G01*
X11353400Y-7518400D02*
G75*
G03*
X11353400Y-7518400I-25000J0D01*
G01*
X11353400Y-21691600D02*
G75*
G03*
X11353400Y-21691600I-25000J0D01*
G01*
X11378800Y-5003800D02*
G75*
G03*
X11378800Y-5003800I-25000J0D01*
G01*
X11378800Y-5232400D02*
G75*
G03*
X11378800Y-5232400I-25000J0D01*
G01*
X11378800Y-7823200D02*
G75*
G03*
X11378800Y-7823200I-25000J0D01*
G01*
X11378800Y-19380200D02*
G75*
G03*
X11378800Y-19380200I-25000J0D01*
G01*
X11378800Y-20040600D02*
G75*
G03*
X11378800Y-20040600I-25000J0D01*
G01*
X11392550Y-8178800D02*
G75*
G03*
X11392550Y-8178800I-25000J0D01*
G01*
X11404200Y-4572000D02*
G75*
G03*
X11404200Y-4572000I-25000J0D01*
G01*
X11429600Y-20904200D02*
G75*
G03*
X11429600Y-20904200I-25000J0D01*
G01*
X11455000Y-9144000D02*
G75*
G03*
X11455000Y-9144000I-25000J0D01*
G01*
X11505800Y-6426200D02*
G75*
G03*
X11505800Y-6426200I-25000J0D01*
G01*
X11505800Y-19608800D02*
G75*
G03*
X11505800Y-19608800I-25000J0D01*
G01*
X11582000Y-11379200D02*
G75*
G03*
X11582000Y-11379200I-25000J0D01*
G01*
X11609900Y-22247277D02*
G75*
G03*
X11609900Y-22247277I-25000J0D01*
G01*
X11709000Y-9144000D02*
G75*
G03*
X11709000Y-9144000I-25000J0D01*
G01*
X11759800Y-15138400D02*
G75*
G03*
X11759800Y-15138400I-25000J0D01*
G01*
X11759800Y-16687800D02*
G75*
G03*
X11759800Y-16687800I-25000J0D01*
G01*
X11810600Y-11176000D02*
G75*
G03*
X11810600Y-11176000I-25000J0D01*
G01*
X11836000Y-4902200D02*
G75*
G03*
X11836000Y-4902200I-25000J0D01*
G01*
X11836000Y-5232400D02*
G75*
G03*
X11836000Y-5232400I-25000J0D01*
G01*
X11861400Y-6045200D02*
G75*
G03*
X11861400Y-6045200I-25000J0D01*
G01*
X11861400Y-9525000D02*
G75*
G03*
X11861400Y-9525000I-25000J0D01*
G01*
X11963000Y-22174200D02*
G75*
G03*
X11963000Y-22174200I-25000J0D01*
G01*
X12013800Y-22758400D02*
G75*
G03*
X12013800Y-22758400I-25000J0D01*
G01*
X12140800Y-23215600D02*
G75*
G03*
X12140800Y-23215600I-25000J0D01*
G01*
X12153500Y-17526000D02*
G75*
G03*
X12153500Y-17526000I-25000J0D01*
G01*
X12153500Y-18161000D02*
G75*
G03*
X12153500Y-18161000I-25000J0D01*
G01*
X12153500Y-19304000D02*
G75*
G03*
X12153500Y-19304000I-25000J0D01*
G01*
X12153500Y-19875500D02*
G75*
G03*
X12153500Y-19875500I-25000J0D01*
G01*
X12166200Y-15722600D02*
G75*
G03*
X12166200Y-15722600I-25000J0D01*
G01*
X12267800Y-20599400D02*
G75*
G03*
X12267800Y-20599400I-25000J0D01*
G01*
X12344000Y-10096500D02*
G75*
G03*
X12344000Y-10096500I-25000J0D01*
G01*
X12416993Y-7201950D02*
G75*
G03*
X12416993Y-7201950I-25000J0D01*
G01*
X12432900Y-7886700D02*
G75*
G03*
X12432900Y-7886700I-25000J0D01*
G01*
X12445600Y-8102600D02*
G75*
G03*
X12445600Y-8102600I-25000J0D01*
G01*
X12471000Y-3238500D02*
G75*
G03*
X12471000Y-3238500I-25000J0D01*
G01*
X12471000Y-5867400D02*
G75*
G03*
X12471000Y-5867400I-25000J0D01*
G01*
X12496400Y-6604000D02*
G75*
G03*
X12496400Y-6604000I-25000J0D01*
G01*
X12496400Y-6908800D02*
G75*
G03*
X12496400Y-6908800I-25000J0D01*
G01*
X12496400Y-8458200D02*
G75*
G03*
X12496400Y-8458200I-25000J0D01*
G01*
X12496400Y-9499600D02*
G75*
G03*
X12496400Y-9499600I-25000J0D01*
G01*
X12509100Y-11176000D02*
G75*
G03*
X12509100Y-11176000I-25000J0D01*
G01*
X12521800Y-4826000D02*
G75*
G03*
X12521800Y-4826000I-25000J0D01*
G01*
X12521800Y-7315200D02*
G75*
G03*
X12521800Y-7315200I-25000J0D01*
G01*
X12521800Y-7569200D02*
G75*
G03*
X12521800Y-7569200I-25000J0D01*
G01*
X12521800Y-15189200D02*
G75*
G03*
X12521800Y-15189200I-25000J0D01*
G01*
X12534500Y-6337300D02*
G75*
G03*
X12534500Y-6337300I-25000J0D01*
G01*
X12547200Y-4521200D02*
G75*
G03*
X12547200Y-4521200I-25000J0D01*
G01*
X12547200Y-5562600D02*
G75*
G03*
X12547200Y-5562600I-25000J0D01*
G01*
X12547200Y-9220200D02*
G75*
G03*
X12547200Y-9220200I-25000J0D01*
G01*
X12572600Y-8177750D02*
G75*
G03*
X12572600Y-8177750I-25000J0D01*
G01*
X12623400Y-18999200D02*
G75*
G03*
X12623400Y-18999200I-25000J0D01*
G01*
X12648800Y-13970000D02*
G75*
G03*
X12648800Y-13970000I-25000J0D01*
G01*
X12674200Y-17830800D02*
G75*
G03*
X12674200Y-17830800I-25000J0D01*
G01*
X12725000Y-17551400D02*
G75*
G03*
X12725000Y-17551400I-25000J0D01*
G01*
X12725000Y-18872200D02*
G75*
G03*
X12725000Y-18872200I-25000J0D01*
G01*
X12725000Y-20675600D02*
G75*
G03*
X12725000Y-20675600I-25000J0D01*
G01*
X12737804Y-20815404D02*
G75*
G03*
X12737804Y-20815404I-25000J0D01*
G01*
X12747900Y-20548600D02*
G75*
G03*
X12747900Y-20548600I-25000J0D01*
G01*
X12750400Y-18542000D02*
G75*
G03*
X12750400Y-18542000I-25000J0D01*
G01*
X12801200Y-13258800D02*
G75*
G03*
X12801200Y-13258800I-25000J0D01*
G01*
X12801200Y-20929600D02*
G75*
G03*
X12801200Y-20929600I-25000J0D01*
G01*
X12835439Y-9801407D02*
G75*
G03*
X12835439Y-9801407I-25000J0D01*
G01*
X12852000Y-16383000D02*
G75*
G03*
X12852000Y-16383000I-25000J0D01*
G01*
X12852000Y-19481800D02*
G75*
G03*
X12852000Y-19481800I-25000J0D01*
G01*
X12877400Y-15824200D02*
G75*
G03*
X12877400Y-15824200I-25000J0D01*
G01*
X12979000Y-15265400D02*
G75*
G03*
X12979000Y-15265400I-25000J0D01*
G01*
X13029800Y-19939000D02*
G75*
G03*
X13029800Y-19939000I-25000J0D01*
G01*
X13055200Y-8128000D02*
G75*
G03*
X13055200Y-8128000I-25000J0D01*
G01*
X13055200Y-21082000D02*
G75*
G03*
X13055200Y-21082000I-25000J0D01*
G01*
X13156800Y-9880600D02*
G75*
G03*
X13156800Y-9880600I-25000J0D01*
G01*
X13360000Y-17043400D02*
G75*
G03*
X13360000Y-17043400I-25000J0D01*
G01*
X13360000Y-18719800D02*
G75*
G03*
X13360000Y-18719800I-25000J0D01*
G01*
X13423500Y-21526500D02*
G75*
G03*
X13423500Y-21526500I-25000J0D01*
G01*
X13461600Y-7518400D02*
G75*
G03*
X13461600Y-7518400I-25000J0D01*
G01*
X13461600Y-8128000D02*
G75*
G03*
X13461600Y-8128000I-25000J0D01*
G01*
X13461600Y-9067800D02*
G75*
G03*
X13461600Y-9067800I-25000J0D01*
G01*
X13487000Y-7874000D02*
G75*
G03*
X13487000Y-7874000I-25000J0D01*
G01*
X13487000Y-9499600D02*
G75*
G03*
X13487000Y-9499600I-25000J0D01*
G01*
X13512400Y-4826000D02*
G75*
G03*
X13512400Y-4826000I-25000J0D01*
G01*
X13512400Y-5867400D02*
G75*
G03*
X13512400Y-5867400I-25000J0D01*
G01*
X13512400Y-6477000D02*
G75*
G03*
X13512400Y-6477000I-25000J0D01*
G01*
X13512400Y-6908800D02*
G75*
G03*
X13512400Y-6908800I-25000J0D01*
G01*
X13512400Y-8458200D02*
G75*
G03*
X13512400Y-8458200I-25000J0D01*
G01*
X13550500Y-16192500D02*
G75*
G03*
X13550500Y-16192500I-25000J0D01*
G01*
X13550500Y-23304500D02*
G75*
G03*
X13550500Y-23304500I-25000J0D01*
G01*
X13588600Y-16764000D02*
G75*
G03*
X13588600Y-16764000I-25000J0D01*
G01*
X13601300Y-8928100D02*
G75*
G03*
X13601300Y-8928100I-25000J0D01*
G01*
X13614000Y-8712200D02*
G75*
G03*
X13614000Y-8712200I-25000J0D01*
G01*
X13614000Y-13512800D02*
G75*
G03*
X13614000Y-13512800I-25000J0D01*
G01*
X13639400Y-10083800D02*
G75*
G03*
X13639400Y-10083800I-25000J0D01*
G01*
X13690200Y-17246600D02*
G75*
G03*
X13690200Y-17246600I-25000J0D01*
G01*
X13741000Y-12471400D02*
G75*
G03*
X13741000Y-12471400I-25000J0D01*
G01*
X13804500Y-3238500D02*
G75*
G03*
X13804500Y-3238500I-25000J0D01*
G01*
X13804500Y-15684500D02*
G75*
G03*
X13804500Y-15684500I-25000J0D01*
G01*
X13817200Y-5905500D02*
G75*
G03*
X13817200Y-5905500I-25000J0D01*
G01*
X13829900Y-18021300D02*
G75*
G03*
X13829900Y-18021300I-25000J0D01*
G01*
X13845100Y-18542000D02*
G75*
G03*
X13845100Y-18542000I-25000J0D01*
G01*
X13944200Y-17500600D02*
G75*
G03*
X13944200Y-17500600I-25000J0D01*
G01*
X13969600Y-5537200D02*
G75*
G03*
X13969600Y-5537200I-25000J0D01*
G01*
X13969600Y-5816600D02*
G75*
G03*
X13969600Y-5816600I-25000J0D01*
G01*
X13995000Y-18211800D02*
G75*
G03*
X13995000Y-18211800I-25000J0D01*
G01*
X14020400Y-4978400D02*
G75*
G03*
X14020400Y-4978400I-25000J0D01*
G01*
X14034150Y-16764000D02*
G75*
G03*
X14034150Y-16764000I-25000J0D01*
G01*
X14071200Y-12102050D02*
G75*
G03*
X14071200Y-12102050I-25000J0D01*
G01*
X14122000Y-6299200D02*
G75*
G03*
X14122000Y-6299200I-25000J0D01*
G01*
X14147400Y-6654800D02*
G75*
G03*
X14147400Y-6654800I-25000J0D01*
G01*
X14153087Y-18183557D02*
G75*
G03*
X14153087Y-18183557I-25000J0D01*
G01*
X14172800Y-5816600D02*
G75*
G03*
X14172800Y-5816600I-25000J0D01*
G01*
X14176500Y-12852400D02*
G75*
G03*
X14176500Y-12852400I-25000J0D01*
G01*
X14249000Y-11633200D02*
G75*
G03*
X14249000Y-11633200I-25000J0D01*
G01*
X14274400Y-19888200D02*
G75*
G03*
X14274400Y-19888200I-25000J0D01*
G01*
X14299800Y-9842500D02*
G75*
G03*
X14299800Y-9842500I-25000J0D01*
G01*
X14312500Y-15811500D02*
G75*
G03*
X14312500Y-15811500I-25000J0D01*
G01*
X14325200Y-17043400D02*
G75*
G03*
X14325200Y-17043400I-25000J0D01*
G01*
X14325200Y-19380200D02*
G75*
G03*
X14325200Y-19380200I-25000J0D01*
G01*
X14376000Y-9460450D02*
G75*
G03*
X14376000Y-9460450I-25000J0D01*
G01*
X14376000Y-10922000D02*
G75*
G03*
X14376000Y-10922000I-25000J0D01*
G01*
X14376000Y-12166600D02*
G75*
G03*
X14376000Y-12166600I-25000J0D01*
G01*
X14376000Y-20650200D02*
G75*
G03*
X14376000Y-20650200I-25000J0D01*
G01*
X14426800Y-6680200D02*
G75*
G03*
X14426800Y-6680200I-25000J0D01*
G01*
X14452200Y-7366000D02*
G75*
G03*
X14452200Y-7366000I-25000J0D01*
G01*
X14542647Y-21894800D02*
G75*
G03*
X14542647Y-21894800I-25000J0D01*
G01*
X14553800Y-21564600D02*
G75*
G03*
X14553800Y-21564600I-25000J0D01*
G01*
X14579200Y-16332200D02*
G75*
G03*
X14579200Y-16332200I-25000J0D01*
G01*
X14579200Y-23241000D02*
G75*
G03*
X14579200Y-23241000I-25000J0D01*
G01*
X14586400Y-6890600D02*
G75*
G03*
X14586400Y-6890600I-25000J0D01*
G01*
X14630000Y-4191000D02*
G75*
G03*
X14630000Y-4191000I-25000J0D01*
G01*
X14630000Y-7848600D02*
G75*
G03*
X14630000Y-7848600I-25000J0D01*
G01*
X14630000Y-19608800D02*
G75*
G03*
X14630000Y-19608800I-25000J0D01*
G01*
X14655400Y-5283200D02*
G75*
G03*
X14655400Y-5283200I-25000J0D01*
G01*
X14655400Y-5486400D02*
G75*
G03*
X14655400Y-5486400I-25000J0D01*
G01*
X14680800Y-13131800D02*
G75*
G03*
X14680800Y-13131800I-25000J0D01*
G01*
X14757000Y-12268200D02*
G75*
G03*
X14757000Y-12268200I-25000J0D01*
G01*
X14757000Y-15811500D02*
G75*
G03*
X14757000Y-15811500I-25000J0D01*
G01*
X14782400Y-5715000D02*
G75*
G03*
X14782400Y-5715000I-25000J0D01*
G01*
X14782400Y-14960600D02*
G75*
G03*
X14782400Y-14960600I-25000J0D01*
G01*
X14782400Y-20751800D02*
G75*
G03*
X14782400Y-20751800I-25000J0D01*
G01*
X14807800Y-8280400D02*
G75*
G03*
X14807800Y-8280400I-25000J0D01*
G01*
X14807800Y-23545800D02*
G75*
G03*
X14807800Y-23545800I-25000J0D01*
G01*
X14833096Y-7239104D02*
G75*
G03*
X14833096Y-7239104I-25000J0D01*
G01*
X14845900Y-3403600D02*
G75*
G03*
X14845900Y-3403600I-25000J0D01*
G01*
X14884000Y-6807200D02*
G75*
G03*
X14884000Y-6807200I-25000J0D01*
G01*
X14884000Y-23164800D02*
G75*
G03*
X14884000Y-23164800I-25000J0D01*
G01*
X14920982Y-6672513D02*
G75*
G03*
X14920982Y-6672513I-25000J0D01*
G01*
X14985600Y-18542000D02*
G75*
G03*
X14985600Y-18542000I-25000J0D01*
G01*
X14985600Y-19202400D02*
G75*
G03*
X14985600Y-19202400I-25000J0D01*
G01*
X15011000Y-16891000D02*
G75*
G03*
X15011000Y-16891000I-25000J0D01*
G01*
X15011000Y-17551400D02*
G75*
G03*
X15011000Y-17551400I-25000J0D01*
G01*
X15011000Y-20853400D02*
G75*
G03*
X15011000Y-20853400I-25000J0D01*
G01*
X15201500Y-7937500D02*
G75*
G03*
X15201500Y-7937500I-25000J0D01*
G01*
X15201500Y-8699500D02*
G75*
G03*
X15201500Y-8699500I-25000J0D01*
G01*
X15239600Y-10033000D02*
G75*
G03*
X15239600Y-10033000I-25000J0D01*
G01*
X15265000Y-22352000D02*
G75*
G03*
X15265000Y-22352000I-25000J0D01*
G01*
X15328500Y-15811500D02*
G75*
G03*
X15328500Y-15811500I-25000J0D01*
G01*
X15341200Y-21463000D02*
G75*
G03*
X15341200Y-21463000I-25000J0D01*
G01*
X15366600Y-13157200D02*
G75*
G03*
X15366600Y-13157200I-25000J0D01*
G01*
X15442800Y-14960600D02*
G75*
G03*
X15442800Y-14960600I-25000J0D01*
G01*
X15506936Y-17213137D02*
G75*
G03*
X15506936Y-17213137I-25000J0D01*
G01*
X15595200Y-12166600D02*
G75*
G03*
X15595200Y-12166600I-25000J0D01*
G01*
X15646000Y-19050000D02*
G75*
G03*
X15646000Y-19050000I-25000J0D01*
G01*
X15671400Y-6248400D02*
G75*
G03*
X15671400Y-6248400I-25000J0D01*
G01*
X15696800Y-7061200D02*
G75*
G03*
X15696800Y-7061200I-25000J0D01*
G01*
X15722200Y-15214600D02*
G75*
G03*
X15722200Y-15214600I-25000J0D01*
G01*
X15823800Y-20243800D02*
G75*
G03*
X15823800Y-20243800I-25000J0D01*
G01*
X15849200Y-20675600D02*
G75*
G03*
X15849200Y-20675600I-25000J0D01*
G01*
X15849200Y-22377400D02*
G75*
G03*
X15849200Y-22377400I-25000J0D01*
G01*
X15849200Y-23596600D02*
G75*
G03*
X15849200Y-23596600I-25000J0D01*
G01*
X16027000Y-8191500D02*
G75*
G03*
X16027000Y-8191500I-25000J0D01*
G01*
X16027000Y-15811500D02*
G75*
G03*
X16027000Y-15811500I-25000J0D01*
G01*
X16052400Y-10058400D02*
G75*
G03*
X16052400Y-10058400I-25000J0D01*
G01*
X16103200Y-13690600D02*
G75*
G03*
X16103200Y-13690600I-25000J0D01*
G01*
X16217500Y-17907000D02*
G75*
G03*
X16217500Y-17907000I-25000J0D01*
G01*
X16344500Y-20193000D02*
G75*
G03*
X16344500Y-20193000I-25000J0D01*
G01*
X16611200Y-22148800D02*
G75*
G03*
X16611200Y-22148800I-25000J0D01*
G01*
X16712800Y-11861800D02*
G75*
G03*
X16712800Y-11861800I-25000J0D01*
G01*
X16763600Y-19253200D02*
G75*
G03*
X16763600Y-19253200I-25000J0D01*
G01*
X16839800Y-9626600D02*
G75*
G03*
X16839800Y-9626600I-25000J0D01*
G01*
X16890600Y-9778199D02*
G75*
G03*
X16890600Y-9778199I-25000J0D01*
G01*
X16916000Y-6146800D02*
G75*
G03*
X16916000Y-6146800I-25000J0D01*
G01*
X16916000Y-7747000D02*
G75*
G03*
X16916000Y-7747000I-25000J0D01*
G01*
X16941400Y-18643600D02*
G75*
G03*
X16941400Y-18643600I-25000J0D01*
G01*
X16966800Y-10287000D02*
G75*
G03*
X16966800Y-10287000I-25000J0D01*
G01*
X16966800Y-19837400D02*
G75*
G03*
X16966800Y-19837400I-25000J0D01*
G01*
X17093800Y-23596600D02*
G75*
G03*
X17093800Y-23596600I-25000J0D01*
G01*
X17119200Y-19126200D02*
G75*
G03*
X17119200Y-19126200I-25000J0D01*
G01*
X17220800Y-4495800D02*
G75*
G03*
X17220800Y-4495800I-25000J0D01*
G01*
D14*
X6470400Y-10773800D02*
X6470400Y-10853800D01*
X6430400Y-10813800D02*
X6510400Y-10813800D01*
X4824123Y-12384434D02*
X4824123Y-12327865D01*
X4767554Y-12327865D01*
X4767554Y-12384434D01*
X4824123Y-12384434D01*
X5074123Y-12384434D02*
X5074123Y-12327865D01*
X5017554Y-12327865D01*
X5017554Y-12384434D01*
X5074123Y-12384434D01*
X5081885Y-16132884D02*
X5081885Y-16076315D01*
X5025316Y-16076315D01*
X5025316Y-16132884D01*
X5081885Y-16132884D01*
X5081885Y-16386884D02*
X5081885Y-16330315D01*
X5025316Y-16330315D01*
X5025316Y-16386884D01*
X5081885Y-16386884D01*
X5081885Y-16640884D02*
X5081885Y-16584315D01*
X5025316Y-16584315D01*
X5025316Y-16640884D01*
X5081885Y-16640884D01*
X5081885Y-16894885D02*
X5081885Y-16838316D01*
X5025316Y-16838316D01*
X5025316Y-16894885D01*
X5081885Y-16894885D01*
X5514685Y-12409834D02*
X5514685Y-12353265D01*
X5458116Y-12353265D01*
X5458116Y-12409834D01*
X5514685Y-12409834D01*
X5743284Y-19713285D02*
X5743284Y-19656716D01*
X5686715Y-19656716D01*
X5686715Y-19713285D01*
X5743284Y-19713285D01*
X5764684Y-12409834D02*
X5764684Y-12353265D01*
X5708115Y-12353265D01*
X5708115Y-12409834D01*
X5764684Y-12409834D01*
X5843884Y-16132884D02*
X5843884Y-16076315D01*
X5787315Y-16076315D01*
X5787315Y-16132884D01*
X5843884Y-16132884D01*
X5843884Y-16386884D02*
X5843884Y-16330315D01*
X5787315Y-16330315D01*
X5787315Y-16386884D01*
X5843884Y-16386884D01*
X5843884Y-16640884D02*
X5843884Y-16584315D01*
X5787315Y-16584315D01*
X5787315Y-16640884D01*
X5843884Y-16640884D01*
X5843884Y-16894885D02*
X5843884Y-16838316D01*
X5787315Y-16838316D01*
X5787315Y-16894885D01*
X5843884Y-16894885D01*
X6276684Y-18621085D02*
X6276684Y-18564516D01*
X6220115Y-18564516D01*
X6220115Y-18621085D01*
X6276684Y-18621085D01*
X6378284Y-21415085D02*
X6378284Y-21358516D01*
X6321715Y-21358516D01*
X6321715Y-21415085D01*
X6378284Y-21415085D01*
X6378284Y-22558084D02*
X6378284Y-22501515D01*
X6321715Y-22501515D01*
X6321715Y-22558084D01*
X6378284Y-22558084D01*
X6530684Y-18621085D02*
X6530684Y-18564516D01*
X6474115Y-18564516D01*
X6474115Y-18621085D01*
X6530684Y-18621085D01*
X6632284Y-21415085D02*
X6632284Y-21358516D01*
X6575715Y-21358516D01*
X6575715Y-21415085D01*
X6632284Y-21415085D01*
X6632284Y-22558084D02*
X6632284Y-22501515D01*
X6575715Y-22501515D01*
X6575715Y-22558084D01*
X6632284Y-22558084D01*
X6759284Y-19713285D02*
X6759284Y-19656716D01*
X6702715Y-19656716D01*
X6702715Y-19713285D01*
X6759284Y-19713285D01*
X6784684Y-18621085D02*
X6784684Y-18564516D01*
X6728115Y-18564516D01*
X6728115Y-18621085D01*
X6784684Y-18621085D01*
X6886284Y-21415085D02*
X6886284Y-21358516D01*
X6829715Y-21358516D01*
X6829715Y-21415085D01*
X6886284Y-21415085D01*
X6886284Y-22558084D02*
X6886284Y-22501515D01*
X6829715Y-22501515D01*
X6829715Y-22558084D01*
X6886284Y-22558084D01*
X7623884Y-22558084D02*
X7623884Y-22501515D01*
X7567315Y-22501515D01*
X7567315Y-22558084D01*
X7623884Y-22558084D01*
X7877884Y-22558084D02*
X7877884Y-22501515D01*
X7821315Y-22501515D01*
X7821315Y-22558084D01*
X7877884Y-22558084D01*
X7927684Y-18621085D02*
X7927684Y-18564516D01*
X7871115Y-18564516D01*
X7871115Y-18621085D01*
X7927684Y-18621085D01*
X8131884Y-22558084D02*
X8131884Y-22501515D01*
X8075315Y-22501515D01*
X8075315Y-22558084D01*
X8131884Y-22558084D01*
X8181684Y-18621085D02*
X8181684Y-18564516D01*
X8125115Y-18564516D01*
X8125115Y-18621085D01*
X8181684Y-18621085D01*
X8435685Y-18621085D02*
X8435685Y-18564516D01*
X8379115Y-18564516D01*
X8379115Y-18621085D01*
X8435685Y-18621085D01*
X8791285Y-16716084D02*
X8791285Y-16659515D01*
X8734716Y-16659515D01*
X8734716Y-16716084D01*
X8791285Y-16716084D01*
X9019885Y-22558084D02*
X9019885Y-22501515D01*
X8963316Y-22501515D01*
X8963316Y-22558084D01*
X9019885Y-22558084D01*
X9045285Y-16716084D02*
X9045285Y-16659515D01*
X8988716Y-16659515D01*
X8988716Y-16716084D01*
X9045285Y-16716084D01*
X9273885Y-22558084D02*
X9273885Y-22501515D01*
X9217316Y-22501515D01*
X9217316Y-22558084D01*
X9273885Y-22558084D01*
X9299285Y-16716084D02*
X9299285Y-16659515D01*
X9242716Y-16659515D01*
X9242716Y-16716084D01*
X9299285Y-16716084D01*
X9527885Y-22558084D02*
X9527885Y-22501515D01*
X9471316Y-22501515D01*
X9471316Y-22558084D01*
X9527885Y-22558084D01*
X9781885Y-16872485D02*
X9781885Y-16815916D01*
X9725316Y-16815916D01*
X9725316Y-16872485D01*
X9781885Y-16872485D01*
X9781885Y-17372485D02*
X9781885Y-17315916D01*
X9725316Y-17315916D01*
X9725316Y-17372485D01*
X9781885Y-17372485D01*
X9807285Y-12550484D02*
X9807285Y-12493915D01*
X9750716Y-12493915D01*
X9750716Y-12550484D01*
X9807285Y-12550484D01*
X10061285Y-12550484D02*
X10061285Y-12493915D01*
X10004716Y-12493915D01*
X10004716Y-12550484D01*
X10061285Y-12550484D01*
X10263485Y-15851984D02*
X10263485Y-15795415D01*
X10206916Y-15795415D01*
X10206916Y-15851984D01*
X10263485Y-15851984D01*
X10263485Y-16105984D02*
X10263485Y-16049415D01*
X10206916Y-16049415D01*
X10206916Y-16105984D01*
X10263485Y-16105984D01*
X10263485Y-17121985D02*
X10263485Y-17065416D01*
X10206916Y-17065416D01*
X10206916Y-17121985D01*
X10263485Y-17121985D01*
X10263485Y-17375985D02*
X10263485Y-17319416D01*
X10206916Y-17319416D01*
X10206916Y-17375985D01*
X10263485Y-17375985D01*
X10315285Y-12550484D02*
X10315285Y-12493915D01*
X10258716Y-12493915D01*
X10258716Y-12550484D01*
X10315285Y-12550484D01*
X10391485Y-4929485D02*
X10391485Y-4872916D01*
X10334916Y-4872916D01*
X10334916Y-4929485D01*
X10391485Y-4929485D01*
X10391485Y-5183485D02*
X10391485Y-5126916D01*
X10334916Y-5126916D01*
X10334916Y-5183485D01*
X10391485Y-5183485D01*
X10391485Y-5437485D02*
X10391485Y-5380916D01*
X10334916Y-5380916D01*
X10334916Y-5437485D01*
X10391485Y-5437485D01*
X10391485Y-6530684D02*
X10391485Y-6474115D01*
X10334916Y-6474115D01*
X10334916Y-6530684D01*
X10391485Y-6530684D01*
X10391485Y-6784684D02*
X10391485Y-6728115D01*
X10334916Y-6728115D01*
X10334916Y-6784684D01*
X10391485Y-6784684D01*
X10391485Y-7038684D02*
X10391485Y-6982115D01*
X10334916Y-6982115D01*
X10334916Y-7038684D01*
X10391485Y-7038684D01*
X10898485Y-12270584D02*
X10898485Y-12214015D01*
X10841916Y-12214015D01*
X10841916Y-12270584D01*
X10898485Y-12270584D01*
X10898485Y-12524584D02*
X10898485Y-12468015D01*
X10841916Y-12468015D01*
X10841916Y-12524584D01*
X10898485Y-12524584D01*
X10898485Y-13540584D02*
X10898485Y-13484015D01*
X10841916Y-13484015D01*
X10841916Y-13540584D01*
X10898485Y-13540584D01*
X10898485Y-13794584D02*
X10898485Y-13738015D01*
X10841916Y-13738015D01*
X10841916Y-13794584D01*
X10898485Y-13794584D01*
X11001085Y-4929485D02*
X11001085Y-4872916D01*
X10944516Y-4872916D01*
X10944516Y-4929485D01*
X11001085Y-4929485D01*
X11001085Y-5183485D02*
X11001085Y-5126916D01*
X10944516Y-5126916D01*
X10944516Y-5183485D01*
X11001085Y-5183485D01*
X11001085Y-5437485D02*
X11001085Y-5380916D01*
X10944516Y-5380916D01*
X10944516Y-5437485D01*
X11001085Y-5437485D01*
X11001085Y-6530684D02*
X11001085Y-6474115D01*
X10944516Y-6474115D01*
X10944516Y-6530684D01*
X11001085Y-6530684D01*
X11001085Y-6784684D02*
X11001085Y-6728115D01*
X10944516Y-6728115D01*
X10944516Y-6784684D01*
X11001085Y-6784684D01*
X11001085Y-7038684D02*
X11001085Y-6982115D01*
X10944516Y-6982115D01*
X10944516Y-7038684D01*
X11001085Y-7038684D01*
X11025485Y-15851984D02*
X11025485Y-15795415D01*
X10968916Y-15795415D01*
X10968916Y-15851984D01*
X11025485Y-15851984D01*
X11025485Y-16105984D02*
X11025485Y-16049415D01*
X10968916Y-16049415D01*
X10968916Y-16105984D01*
X11025485Y-16105984D01*
X11025485Y-17121985D02*
X11025485Y-17065416D01*
X10968916Y-17065416D01*
X10968916Y-17121985D01*
X11025485Y-17121985D01*
X11025485Y-17375985D02*
X11025485Y-17319416D01*
X10968916Y-17319416D01*
X10968916Y-17375985D01*
X11025485Y-17375985D01*
X11521784Y-15838784D02*
X11521784Y-15782215D01*
X11465215Y-15782215D01*
X11465215Y-15838784D01*
X11521784Y-15838784D01*
X11521784Y-16092784D02*
X11521784Y-16036215D01*
X11465215Y-16036215D01*
X11465215Y-16092784D01*
X11521784Y-16092784D01*
X11521784Y-16346784D02*
X11521784Y-16290215D01*
X11465215Y-16290215D01*
X11465215Y-16346784D01*
X11521784Y-16346784D01*
X11660484Y-12270584D02*
X11660484Y-12214015D01*
X11603915Y-12214015D01*
X11603915Y-12270584D01*
X11660484Y-12270584D01*
X11660484Y-12524584D02*
X11660484Y-12468015D01*
X11603915Y-12468015D01*
X11603915Y-12524584D01*
X11660484Y-12524584D01*
X11660484Y-13540584D02*
X11660484Y-13484015D01*
X11603915Y-13484015D01*
X11603915Y-13540584D01*
X11660484Y-13540584D01*
X11660484Y-13794584D02*
X11660484Y-13738015D01*
X11603915Y-13738015D01*
X11603915Y-13794584D01*
X11660484Y-13794584D01*
X11991684Y-21546085D02*
X11991684Y-21489516D01*
X11935115Y-21489516D01*
X11935115Y-21546085D01*
X11991684Y-21546085D01*
X11991684Y-22046085D02*
X11991684Y-21989516D01*
X11935115Y-21989516D01*
X11935115Y-22046085D01*
X11991684Y-22046085D01*
X11991684Y-22523984D02*
X11991684Y-22467415D01*
X11935115Y-22467415D01*
X11935115Y-22523984D01*
X11991684Y-22523984D01*
X11991684Y-23023984D02*
X11991684Y-22967415D01*
X11935115Y-22967415D01*
X11935115Y-23023984D01*
X11991684Y-23023984D01*
X12046484Y-14684084D02*
X12046484Y-14627515D01*
X11989915Y-14627515D01*
X11989915Y-14684084D01*
X12046484Y-14684084D01*
X12169484Y-12779084D02*
X12169484Y-12722515D01*
X12112915Y-12722515D01*
X12112915Y-12779084D01*
X12169484Y-12779084D01*
X12169484Y-13033084D02*
X12169484Y-12976515D01*
X12112915Y-12976515D01*
X12112915Y-13033084D01*
X12169484Y-13033084D01*
X12169484Y-13287084D02*
X12169484Y-13230515D01*
X12112915Y-13230515D01*
X12112915Y-13287084D01*
X12169484Y-13287084D01*
X12173484Y-12169484D02*
X12173484Y-12112915D01*
X12116915Y-12112915D01*
X12116915Y-12169484D01*
X12173484Y-12169484D01*
X12546484Y-14684084D02*
X12546484Y-14627515D01*
X12489915Y-14627515D01*
X12489915Y-14684084D01*
X12546484Y-14684084D01*
X12673484Y-12169484D02*
X12673484Y-12112915D01*
X12616915Y-12112915D01*
X12616915Y-12169484D01*
X12673484Y-12169484D01*
X13057484Y-21541085D02*
X13057484Y-21484516D01*
X13000915Y-21484516D01*
X13000915Y-21541085D01*
X13057484Y-21541085D01*
X13057484Y-21795085D02*
X13057484Y-21738516D01*
X13000915Y-21738516D01*
X13000915Y-21795085D01*
X13057484Y-21795085D01*
X13057484Y-22049085D02*
X13057484Y-21992516D01*
X13000915Y-21992516D01*
X13000915Y-22049085D01*
X13057484Y-22049085D01*
X13057484Y-22303085D02*
X13057484Y-22246516D01*
X13000915Y-22246516D01*
X13000915Y-22303085D01*
X13057484Y-22303085D01*
X13057484Y-22557084D02*
X13057484Y-22500515D01*
X13000915Y-22500515D01*
X13000915Y-22557084D01*
X13057484Y-22557084D01*
X13057484Y-22811084D02*
X13057484Y-22754515D01*
X13000915Y-22754515D01*
X13000915Y-22811084D01*
X13057484Y-22811084D01*
X13057484Y-23065084D02*
X13057484Y-23008515D01*
X13000915Y-23008515D01*
X13000915Y-23065084D01*
X13057484Y-23065084D01*
X13057484Y-23319084D02*
X13057484Y-23262515D01*
X13000915Y-23262515D01*
X13000915Y-23319084D01*
X13057484Y-23319084D01*
X13819484Y-21541085D02*
X13819484Y-21484516D01*
X13762915Y-21484516D01*
X13762915Y-21541085D01*
X13819484Y-21541085D01*
X13819484Y-21795085D02*
X13819484Y-21738516D01*
X13762915Y-21738516D01*
X13762915Y-21795085D01*
X13819484Y-21795085D01*
X13819484Y-22049085D02*
X13819484Y-21992516D01*
X13762915Y-21992516D01*
X13762915Y-22049085D01*
X13819484Y-22049085D01*
X13819484Y-22303085D02*
X13819484Y-22246516D01*
X13762915Y-22246516D01*
X13762915Y-22303085D01*
X13819484Y-22303085D01*
X13819484Y-22557084D02*
X13819484Y-22500515D01*
X13762915Y-22500515D01*
X13762915Y-22557084D01*
X13819484Y-22557084D01*
X13819484Y-22811084D02*
X13819484Y-22754515D01*
X13762915Y-22754515D01*
X13762915Y-22811084D01*
X13819484Y-22811084D01*
X13819484Y-23065084D02*
X13819484Y-23008515D01*
X13762915Y-23008515D01*
X13762915Y-23065084D01*
X13819484Y-23065084D01*
X13819484Y-23319084D02*
X13819484Y-23262515D01*
X13762915Y-23262515D01*
X13762915Y-23319084D01*
X13819484Y-23319084D01*
X14180084Y-22737284D02*
X14180084Y-22680715D01*
X14123515Y-22680715D01*
X14123515Y-22737284D01*
X14180084Y-22737284D01*
X14257684Y-21111685D02*
X14257684Y-21055116D01*
X14201115Y-21055116D01*
X14201115Y-21111685D01*
X14257684Y-21111685D01*
X14680084Y-22737284D02*
X14680084Y-22680715D01*
X14623515Y-22680715D01*
X14623515Y-22737284D01*
X14680084Y-22737284D01*
X14757684Y-21111685D02*
X14757684Y-21055116D01*
X14701115Y-21055116D01*
X14701115Y-21111685D01*
X14757684Y-21111685D01*
X14929384Y-4460585D02*
X14929384Y-4404016D01*
X14872815Y-4404016D01*
X14872815Y-4460585D01*
X14929384Y-4460585D01*
X15179384Y-4460585D02*
X15179384Y-4404016D01*
X15122815Y-4404016D01*
X15122815Y-4460585D01*
X15179384Y-4460585D01*
D15*
X5088000Y-4972000D02*
X5133000Y-4927000D01*
X5088000Y-4882000D01*
X5043000Y-4927000D01*
X5088000Y-4972000D01*
X5088000Y-6802000D02*
X5133000Y-6757000D01*
X5088000Y-6712000D01*
X5043000Y-6757000D01*
X5088000Y-6802000D01*
X5338000Y-4972000D02*
X5383000Y-4927000D01*
X5338000Y-4882000D01*
X5293000Y-4927000D01*
X5338000Y-4972000D01*
X5338000Y-6802000D02*
X5383000Y-6757000D01*
X5338000Y-6712000D01*
X5293000Y-6757000D01*
X5338000Y-6802000D01*
X5588000Y-4972000D02*
X5633000Y-4927000D01*
X5588000Y-4882000D01*
X5543000Y-4927000D01*
X5588000Y-4972000D01*
X5588000Y-6802000D02*
X5633000Y-6757000D01*
X5588000Y-6712000D01*
X5543000Y-6757000D01*
X5588000Y-6802000D01*
X5838000Y-4972000D02*
X5883000Y-4927000D01*
X5838000Y-4882000D01*
X5793000Y-4927000D01*
X5838000Y-4972000D01*
X5838000Y-6802000D02*
X5883000Y-6757000D01*
X5838000Y-6712000D01*
X5793000Y-6757000D01*
X5838000Y-6802000D01*
X6088000Y-4972000D02*
X6133000Y-4927000D01*
X6088000Y-4882000D01*
X6043000Y-4927000D01*
X6088000Y-4972000D01*
X6088000Y-6802000D02*
X6133000Y-6757000D01*
X6088000Y-6712000D01*
X6043000Y-6757000D01*
X6088000Y-6802000D01*
X7247000Y-19450000D02*
X7292000Y-19405000D01*
X7247000Y-19360000D01*
X7202000Y-19405000D01*
X7247000Y-19450000D01*
X7247000Y-21280000D02*
X7292000Y-21235000D01*
X7247000Y-21190000D01*
X7202000Y-21235000D01*
X7247000Y-21280000D01*
X7497000Y-19450000D02*
X7542000Y-19405000D01*
X7497000Y-19360000D01*
X7452000Y-19405000D01*
X7497000Y-19450000D01*
X7497000Y-21280000D02*
X7542000Y-21235000D01*
X7497000Y-21190000D01*
X7452000Y-21235000D01*
X7497000Y-21280000D01*
X7747000Y-19450000D02*
X7792000Y-19405000D01*
X7747000Y-19360000D01*
X7702000Y-19405000D01*
X7747000Y-19450000D01*
X7747000Y-21280000D02*
X7792000Y-21235000D01*
X7747000Y-21190000D01*
X7702000Y-21235000D01*
X7747000Y-21280000D01*
X7997000Y-19450000D02*
X8042000Y-19405000D01*
X7997000Y-19360000D01*
X7952000Y-19405000D01*
X7997000Y-19450000D01*
X7997000Y-21280000D02*
X8042000Y-21235000D01*
X7997000Y-21190000D01*
X7952000Y-21235000D01*
X7997000Y-21280000D01*
X8247000Y-19450000D02*
X8292000Y-19405000D01*
X8247000Y-19360000D01*
X8202000Y-19405000D01*
X8247000Y-19450000D01*
X8247000Y-21280000D02*
X8292000Y-21235000D01*
X8247000Y-21190000D01*
X8202000Y-21235000D01*
X8247000Y-21280000D01*
X15248000Y-4972000D02*
X15293000Y-4927000D01*
X15248000Y-4882000D01*
X15203000Y-4927000D01*
X15248000Y-4972000D01*
X15248000Y-6802000D02*
X15293000Y-6757000D01*
X15248000Y-6712000D01*
X15203000Y-6757000D01*
X15248000Y-6802000D01*
X15498000Y-4972000D02*
X15543000Y-4927000D01*
X15498000Y-4882000D01*
X15453000Y-4927000D01*
X15498000Y-4972000D01*
X15498000Y-6802000D02*
X15543000Y-6757000D01*
X15498000Y-6712000D01*
X15453000Y-6757000D01*
X15498000Y-6802000D01*
X15748000Y-4972000D02*
X15793000Y-4927000D01*
X15748000Y-4882000D01*
X15703000Y-4927000D01*
X15748000Y-4972000D01*
X15748000Y-6802000D02*
X15793000Y-6757000D01*
X15748000Y-6712000D01*
X15703000Y-6757000D01*
X15748000Y-6802000D01*
X15998000Y-4972000D02*
X16043000Y-4927000D01*
X15998000Y-4882000D01*
X15953000Y-4927000D01*
X15998000Y-4972000D01*
X15998000Y-6802000D02*
X16043000Y-6757000D01*
X15998000Y-6712000D01*
X15953000Y-6757000D01*
X15998000Y-6802000D01*
X16248000Y-4972000D02*
X16293000Y-4927000D01*
X16248000Y-4882000D01*
X16203000Y-4927000D01*
X16248000Y-4972000D01*
X16248000Y-6802000D02*
X16293000Y-6757000D01*
X16248000Y-6712000D01*
X16203000Y-6757000D01*
X16248000Y-6802000D01*
D16*
X4653000Y-15190000D02*
X4753000Y-15290000D01*
X4753000Y-15190000D02*
X4653000Y-15290000D01*
X4753000Y-15240000D02*
G75*
G03*
X4753000Y-15240000I-50000J0D01*
G01*
X4653000Y-23573000D02*
X4753000Y-23673000D01*
X4753000Y-23573000D02*
X4653000Y-23673000D01*
X4753000Y-23623000D02*
G75*
G03*
X4753000Y-23623000I-50000J0D01*
G01*
X4699800Y-13386600D02*
X4799800Y-13486600D01*
X4799800Y-13386600D02*
X4699800Y-13486600D01*
X4799800Y-13436600D02*
G75*
G03*
X4799800Y-13436600I-50000J0D01*
G01*
X4699800Y-13640600D02*
X4799800Y-13740600D01*
X4799800Y-13640600D02*
X4699800Y-13740600D01*
X4799800Y-13690600D02*
G75*
G03*
X4799800Y-13690600I-50000J0D01*
G01*
X4776000Y-7011200D02*
X4876000Y-7111200D01*
X4876000Y-7011200D02*
X4776000Y-7111200D01*
X4876000Y-7061200D02*
G75*
G03*
X4876000Y-7061200I-50000J0D01*
G01*
X4903000Y-15190000D02*
X5003000Y-15290000D01*
X5003000Y-15190000D02*
X4903000Y-15290000D01*
X5003000Y-15240000D02*
G75*
G03*
X5003000Y-15240000I-50000J0D01*
G01*
X4903000Y-23573000D02*
X5003000Y-23673000D01*
X5003000Y-23573000D02*
X4903000Y-23673000D01*
X5003000Y-23623000D02*
G75*
G03*
X5003000Y-23623000I-50000J0D01*
G01*
X4953800Y-13386600D02*
X5053800Y-13486600D01*
X5053800Y-13386600D02*
X4953800Y-13486600D01*
X5053800Y-13436600D02*
G75*
G03*
X5053800Y-13436600I-50000J0D01*
G01*
X4953800Y-13640600D02*
X5053800Y-13740600D01*
X5053800Y-13640600D02*
X4953800Y-13740600D01*
X5053800Y-13690600D02*
G75*
G03*
X5053800Y-13690600I-50000J0D01*
G01*
X5153000Y-15190000D02*
X5253000Y-15290000D01*
X5253000Y-15190000D02*
X5153000Y-15290000D01*
X5253000Y-15240000D02*
G75*
G03*
X5253000Y-15240000I-50000J0D01*
G01*
X5153000Y-23573000D02*
X5253000Y-23673000D01*
X5253000Y-23573000D02*
X5153000Y-23673000D01*
X5253000Y-23623000D02*
G75*
G03*
X5253000Y-23623000I-50000J0D01*
G01*
X5207800Y-13386600D02*
X5307800Y-13486600D01*
X5307800Y-13386600D02*
X5207800Y-13486600D01*
X5307800Y-13436600D02*
G75*
G03*
X5307800Y-13436600I-50000J0D01*
G01*
X5207800Y-13640600D02*
X5307800Y-13740600D01*
X5307800Y-13640600D02*
X5207800Y-13740600D01*
X5307800Y-13690600D02*
G75*
G03*
X5307800Y-13690600I-50000J0D01*
G01*
X5284000Y-11634000D02*
X5384000Y-11734000D01*
X5384000Y-11634000D02*
X5284000Y-11734000D01*
X5384000Y-11684000D02*
G75*
G03*
X5384000Y-11684000I-50000J0D01*
G01*
X5461800Y-13386600D02*
X5561800Y-13486600D01*
X5561800Y-13386600D02*
X5461800Y-13486600D01*
X5561800Y-13436600D02*
G75*
G03*
X5561800Y-13436600I-50000J0D01*
G01*
X5461800Y-13640600D02*
X5561800Y-13740600D01*
X5561800Y-13640600D02*
X5461800Y-13740600D01*
X5561800Y-13690600D02*
G75*
G03*
X5561800Y-13690600I-50000J0D01*
G01*
X5534000Y-11634000D02*
X5634000Y-11734000D01*
X5634000Y-11634000D02*
X5534000Y-11734000D01*
X5634000Y-11684000D02*
G75*
G03*
X5634000Y-11684000I-50000J0D01*
G01*
X5715800Y-13386600D02*
X5815800Y-13486600D01*
X5815800Y-13386600D02*
X5715800Y-13486600D01*
X5815800Y-13436600D02*
G75*
G03*
X5815800Y-13436600I-50000J0D01*
G01*
X5715800Y-13640600D02*
X5815800Y-13740600D01*
X5815800Y-13640600D02*
X5715800Y-13740600D01*
X5815800Y-13690600D02*
G75*
G03*
X5815800Y-13690600I-50000J0D01*
G01*
X5784000Y-11634000D02*
X5884000Y-11734000D01*
X5884000Y-11634000D02*
X5784000Y-11734000D01*
X5884000Y-11684000D02*
G75*
G03*
X5884000Y-11684000I-50000J0D01*
G01*
X6350800Y-3760000D02*
X6450800Y-3860000D01*
X6450800Y-3760000D02*
X6350800Y-3860000D01*
X6450800Y-3810000D02*
G75*
G03*
X6450800Y-3810000I-50000J0D01*
G01*
X6503200Y-11024400D02*
X6603200Y-11124400D01*
X6603200Y-11024400D02*
X6503200Y-11124400D01*
X6603200Y-11074400D02*
G75*
G03*
X6603200Y-11074400I-50000J0D01*
G01*
X6985800Y-10872000D02*
X7085800Y-10972000D01*
X7085800Y-10872000D02*
X6985800Y-10972000D01*
X7085800Y-10922000D02*
G75*
G03*
X7085800Y-10922000I-50000J0D01*
G01*
X7510500Y-15190000D02*
X7610500Y-15290000D01*
X7610500Y-15190000D02*
X7510500Y-15290000D01*
X7610500Y-15240000D02*
G75*
G03*
X7610500Y-15240000I-50000J0D01*
G01*
X7760500Y-15190000D02*
X7860500Y-15290000D01*
X7860500Y-15190000D02*
X7760500Y-15290000D01*
X7860500Y-15240000D02*
G75*
G03*
X7860500Y-15240000I-50000J0D01*
G01*
X8010500Y-15190000D02*
X8110500Y-15290000D01*
X8110500Y-15190000D02*
X8010500Y-15290000D01*
X8110500Y-15240000D02*
G75*
G03*
X8110500Y-15240000I-50000J0D01*
G01*
X8509800Y-23114800D02*
X8609800Y-23214800D01*
X8609800Y-23114800D02*
X8509800Y-23214800D01*
X8609800Y-23164800D02*
G75*
G03*
X8609800Y-23164800I-50000J0D01*
G01*
X9322600Y-17628400D02*
X9422600Y-17728400D01*
X9422600Y-17628400D02*
X9322600Y-17728400D01*
X9422600Y-17678400D02*
G75*
G03*
X9422600Y-17678400I-50000J0D01*
G01*
X9449600Y-3404400D02*
X9549600Y-3504400D01*
X9549600Y-3404400D02*
X9449600Y-3504400D01*
X9549600Y-3454400D02*
G75*
G03*
X9549600Y-3454400I-50000J0D01*
G01*
X9815550Y-21717800D02*
X9915550Y-21817800D01*
X9915550Y-21717800D02*
X9815550Y-21817800D01*
X9915550Y-21767800D02*
G75*
G03*
X9915550Y-21767800I-50000J0D01*
G01*
X9983000Y-10414800D02*
X10083000Y-10514800D01*
X10083000Y-10414800D02*
X9983000Y-10514800D01*
X10083000Y-10464800D02*
G75*
G03*
X10083000Y-10464800I-50000J0D01*
G01*
X10069550Y-21717800D02*
X10169550Y-21817800D01*
X10169550Y-21717800D02*
X10069550Y-21817800D01*
X10169550Y-21767800D02*
G75*
G03*
X10169550Y-21767800I-50000J0D01*
G01*
X10364000Y-4014000D02*
X10464000Y-4114000D01*
X10464000Y-4014000D02*
X10364000Y-4114000D01*
X10464000Y-4064000D02*
G75*
G03*
X10464000Y-4064000I-50000J0D01*
G01*
X10364000Y-9094000D02*
X10464000Y-9194000D01*
X10464000Y-9094000D02*
X10364000Y-9194000D01*
X10464000Y-9144000D02*
G75*
G03*
X10464000Y-9144000I-50000J0D01*
G01*
X10368000Y-15191000D02*
X10468000Y-15291000D01*
X10468000Y-15191000D02*
X10368000Y-15291000D01*
X10468000Y-15241000D02*
G75*
G03*
X10468000Y-15241000I-50000J0D01*
G01*
X10368000Y-23572000D02*
X10468000Y-23672000D01*
X10468000Y-23572000D02*
X10368000Y-23672000D01*
X10468000Y-23622000D02*
G75*
G03*
X10468000Y-23622000I-50000J0D01*
G01*
X10614000Y-4014000D02*
X10714000Y-4114000D01*
X10714000Y-4014000D02*
X10614000Y-4114000D01*
X10714000Y-4064000D02*
G75*
G03*
X10714000Y-4064000I-50000J0D01*
G01*
X10614000Y-9094000D02*
X10714000Y-9194000D01*
X10714000Y-9094000D02*
X10614000Y-9194000D01*
X10714000Y-9144000D02*
G75*
G03*
X10714000Y-9144000I-50000J0D01*
G01*
X10618000Y-15191000D02*
X10718000Y-15291000D01*
X10718000Y-15191000D02*
X10618000Y-15291000D01*
X10718000Y-15241000D02*
G75*
G03*
X10718000Y-15241000I-50000J0D01*
G01*
X10618000Y-23572000D02*
X10718000Y-23672000D01*
X10718000Y-23572000D02*
X10618000Y-23672000D01*
X10718000Y-23622000D02*
G75*
G03*
X10718000Y-23622000I-50000J0D01*
G01*
X10846600Y-10592600D02*
X10946600Y-10692600D01*
X10946600Y-10592600D02*
X10846600Y-10692600D01*
X10946600Y-10642600D02*
G75*
G03*
X10946600Y-10642600I-50000J0D01*
G01*
X10864000Y-4014000D02*
X10964000Y-4114000D01*
X10964000Y-4014000D02*
X10864000Y-4114000D01*
X10964000Y-4064000D02*
G75*
G03*
X10964000Y-4064000I-50000J0D01*
G01*
X10864000Y-9094000D02*
X10964000Y-9194000D01*
X10964000Y-9094000D02*
X10864000Y-9194000D01*
X10964000Y-9144000D02*
G75*
G03*
X10964000Y-9144000I-50000J0D01*
G01*
X10868000Y-15191000D02*
X10968000Y-15291000D01*
X10968000Y-15191000D02*
X10868000Y-15291000D01*
X10968000Y-15241000D02*
G75*
G03*
X10968000Y-15241000I-50000J0D01*
G01*
X10868000Y-23572000D02*
X10968000Y-23672000D01*
X10968000Y-23572000D02*
X10868000Y-23672000D01*
X10968000Y-23622000D02*
G75*
G03*
X10968000Y-23622000I-50000J0D01*
G01*
X11659400Y-18136400D02*
X11759400Y-18236400D01*
X11759400Y-18136400D02*
X11659400Y-18236400D01*
X11759400Y-18186400D02*
G75*
G03*
X11759400Y-18186400I-50000J0D01*
G01*
X11710200Y-20320800D02*
X11810200Y-20420800D01*
X11810200Y-20320800D02*
X11710200Y-20420800D01*
X11810200Y-20370800D02*
G75*
G03*
X11810200Y-20370800I-50000J0D01*
G01*
X12015000Y-16587000D02*
X12115000Y-16687000D01*
X12115000Y-16587000D02*
X12015000Y-16687000D01*
X12115000Y-16637000D02*
G75*
G03*
X12115000Y-16637000I-50000J0D01*
G01*
X12116600Y-3404400D02*
X12216600Y-3504400D01*
X12216600Y-3404400D02*
X12116600Y-3504400D01*
X12216600Y-3454400D02*
G75*
G03*
X12216600Y-3454400I-50000J0D01*
G01*
X13107200Y-13310400D02*
X13207200Y-13410400D01*
X13207200Y-13310400D02*
X13107200Y-13410400D01*
X13207200Y-13360400D02*
G75*
G03*
X13207200Y-13360400I-50000J0D01*
G01*
X13225500Y-15191000D02*
X13325500Y-15291000D01*
X13325500Y-15191000D02*
X13225500Y-15291000D01*
X13325500Y-15241000D02*
G75*
G03*
X13325500Y-15241000I-50000J0D01*
G01*
X13289000Y-21032000D02*
X13389000Y-21132000D01*
X13389000Y-21032000D02*
X13289000Y-21132000D01*
X13389000Y-21082000D02*
G75*
G03*
X13389000Y-21082000I-50000J0D01*
G01*
X13475500Y-15191000D02*
X13575500Y-15291000D01*
X13575500Y-15191000D02*
X13475500Y-15291000D01*
X13575500Y-15241000D02*
G75*
G03*
X13575500Y-15241000I-50000J0D01*
G01*
X13477850Y-19228600D02*
X13577850Y-19328600D01*
X13577850Y-19228600D02*
X13477850Y-19328600D01*
X13577850Y-19278600D02*
G75*
G03*
X13577850Y-19278600I-50000J0D01*
G01*
X13539000Y-21032000D02*
X13639000Y-21132000D01*
X13639000Y-21032000D02*
X13539000Y-21132000D01*
X13639000Y-21082000D02*
G75*
G03*
X13639000Y-21082000I-50000J0D01*
G01*
X13725500Y-15191000D02*
X13825500Y-15291000D01*
X13825500Y-15191000D02*
X13725500Y-15291000D01*
X13825500Y-15241000D02*
G75*
G03*
X13825500Y-15241000I-50000J0D01*
G01*
X13731850Y-19228600D02*
X13831850Y-19328600D01*
X13831850Y-19228600D02*
X13731850Y-19328600D01*
X13831850Y-19278600D02*
G75*
G03*
X13831850Y-19278600I-50000J0D01*
G01*
X13789000Y-21032000D02*
X13889000Y-21132000D01*
X13889000Y-21032000D02*
X13789000Y-21132000D01*
X13889000Y-21082000D02*
G75*
G03*
X13889000Y-21082000I-50000J0D01*
G01*
X14656600Y-10262400D02*
X14756600Y-10362400D01*
X14756600Y-10262400D02*
X14656600Y-10362400D01*
X14756600Y-10312400D02*
G75*
G03*
X14756600Y-10312400I-50000J0D01*
G01*
X15291600Y-7214400D02*
X15391600Y-7314400D01*
X15391600Y-7214400D02*
X15291600Y-7314400D01*
X15391600Y-7264400D02*
G75*
G03*
X15391600Y-7264400I-50000J0D01*
G01*
X15444000Y-11634000D02*
X15544000Y-11734000D01*
X15544000Y-11634000D02*
X15444000Y-11734000D01*
X15544000Y-11684000D02*
G75*
G03*
X15544000Y-11684000I-50000J0D01*
G01*
X15621800Y-19279400D02*
X15721800Y-19379400D01*
X15721800Y-19279400D02*
X15621800Y-19379400D01*
X15721800Y-19329400D02*
G75*
G03*
X15721800Y-19329400I-50000J0D01*
G01*
X15694000Y-11634000D02*
X15794000Y-11734000D01*
X15794000Y-11634000D02*
X15694000Y-11734000D01*
X15794000Y-11684000D02*
G75*
G03*
X15794000Y-11684000I-50000J0D01*
G01*
X15799600Y-3201200D02*
X15899600Y-3301200D01*
X15899600Y-3201200D02*
X15799600Y-3301200D01*
X15899600Y-3251200D02*
G75*
G03*
X15899600Y-3251200I-50000J0D01*
G01*
X15944000Y-11634000D02*
X16044000Y-11734000D01*
X16044000Y-11634000D02*
X15944000Y-11734000D01*
X16044000Y-11684000D02*
G75*
G03*
X16044000Y-11684000I-50000J0D01*
G01*
X16083000Y-15190000D02*
X16183000Y-15290000D01*
X16183000Y-15190000D02*
X16083000Y-15290000D01*
X16183000Y-15240000D02*
G75*
G03*
X16183000Y-15240000I-50000J0D01*
G01*
X16083000Y-23572000D02*
X16183000Y-23672000D01*
X16183000Y-23572000D02*
X16083000Y-23672000D01*
X16183000Y-23622000D02*
G75*
G03*
X16183000Y-23622000I-50000J0D01*
G01*
X16333000Y-15190000D02*
X16433000Y-15290000D01*
X16433000Y-15190000D02*
X16333000Y-15290000D01*
X16433000Y-15240000D02*
G75*
G03*
X16433000Y-15240000I-50000J0D01*
G01*
X16333000Y-23572000D02*
X16433000Y-23672000D01*
X16433000Y-23572000D02*
X16333000Y-23672000D01*
X16433000Y-23622000D02*
G75*
G03*
X16433000Y-23622000I-50000J0D01*
G01*
X16583000Y-15190000D02*
X16683000Y-15290000D01*
X16683000Y-15190000D02*
X16583000Y-15290000D01*
X16683000Y-15240000D02*
G75*
G03*
X16683000Y-15240000I-50000J0D01*
G01*
X16583000Y-23572000D02*
X16683000Y-23672000D01*
X16683000Y-23572000D02*
X16583000Y-23672000D01*
X16683000Y-23622000D02*
G75*
G03*
X16683000Y-23622000I-50000J0D01*
G01*
D17*
X4418000Y-14435000D02*
X4528000Y-14545000D01*
X4528000Y-14435000D02*
X4418000Y-14545000D01*
X4473000Y-14435000D02*
X4473000Y-14545000D01*
X4418000Y-14490000D02*
X4528000Y-14490000D01*
D11*
X4518000Y-14525000D02*
X4518000Y-14455000D01*
X4428000Y-14525000D02*
X4428000Y-14455000D01*
X4518000Y-14455000D02*
G75*
G03*
X4428000Y-14455000I-45000J0D01*
G01*
X4428000Y-14525000D02*
G75*
G03*
X4518000Y-14525000I45000J0D01*
G01*
D17*
X4418000Y-22818000D02*
X4528000Y-22928000D01*
X4528000Y-22818000D02*
X4418000Y-22928000D01*
X4473000Y-22818000D02*
X4473000Y-22928000D01*
X4418000Y-22873000D02*
X4528000Y-22873000D01*
D11*
X4518000Y-22908000D02*
X4518000Y-22838000D01*
X4428000Y-22908000D02*
X4428000Y-22838000D01*
X4518000Y-22838000D02*
G75*
G03*
X4428000Y-22838000I-45000J0D01*
G01*
X4428000Y-22908000D02*
G75*
G03*
X4518000Y-22908000I45000J0D01*
G01*
D17*
X5049000Y-10879000D02*
X5159000Y-10989000D01*
X5159000Y-10879000D02*
X5049000Y-10989000D01*
X5104000Y-10879000D02*
X5104000Y-10989000D01*
X5049000Y-10934000D02*
X5159000Y-10934000D01*
D11*
X5149000Y-10969000D02*
X5149000Y-10899000D01*
X5059000Y-10969000D02*
X5059000Y-10899000D01*
X5149000Y-10899000D02*
G75*
G03*
X5059000Y-10899000I-45000J0D01*
G01*
X5059000Y-10969000D02*
G75*
G03*
X5149000Y-10969000I45000J0D01*
G01*
D17*
X5378000Y-14435000D02*
X5488000Y-14545000D01*
X5488000Y-14435000D02*
X5378000Y-14545000D01*
X5433000Y-14435000D02*
X5433000Y-14545000D01*
X5378000Y-14490000D02*
X5488000Y-14490000D01*
D11*
X5478000Y-14525000D02*
X5478000Y-14455000D01*
X5388000Y-14525000D02*
X5388000Y-14455000D01*
X5478000Y-14455000D02*
G75*
G03*
X5388000Y-14455000I-45000J0D01*
G01*
X5388000Y-14525000D02*
G75*
G03*
X5478000Y-14525000I45000J0D01*
G01*
D17*
X5378000Y-22818000D02*
X5488000Y-22928000D01*
X5488000Y-22818000D02*
X5378000Y-22928000D01*
X5433000Y-22818000D02*
X5433000Y-22928000D01*
X5378000Y-22873000D02*
X5488000Y-22873000D01*
D11*
X5478000Y-22908000D02*
X5478000Y-22838000D01*
X5388000Y-22908000D02*
X5388000Y-22838000D01*
X5478000Y-22838000D02*
G75*
G03*
X5388000Y-22838000I-45000J0D01*
G01*
X5388000Y-22908000D02*
G75*
G03*
X5478000Y-22908000I45000J0D01*
G01*
D17*
X6009000Y-10879000D02*
X6119000Y-10989000D01*
X6119000Y-10879000D02*
X6009000Y-10989000D01*
X6064000Y-10879000D02*
X6064000Y-10989000D01*
X6009000Y-10934000D02*
X6119000Y-10934000D01*
D11*
X6109000Y-10969000D02*
X6109000Y-10899000D01*
X6019000Y-10969000D02*
X6019000Y-10899000D01*
X6109000Y-10899000D02*
G75*
G03*
X6019000Y-10899000I-45000J0D01*
G01*
X6019000Y-10969000D02*
G75*
G03*
X6109000Y-10969000I45000J0D01*
G01*
D17*
X7275500Y-14435000D02*
X7385500Y-14545000D01*
X7385500Y-14435000D02*
X7275500Y-14545000D01*
X7330500Y-14435000D02*
X7330500Y-14545000D01*
X7275500Y-14490000D02*
X7385500Y-14490000D01*
D11*
X7375500Y-14525000D02*
X7375500Y-14455000D01*
X7285500Y-14525000D02*
X7285500Y-14455000D01*
X7375500Y-14455000D02*
G75*
G03*
X7285500Y-14455000I-45000J0D01*
G01*
X7285500Y-14525000D02*
G75*
G03*
X7375500Y-14525000I45000J0D01*
G01*
D17*
X8235500Y-14435000D02*
X8345500Y-14545000D01*
X8345500Y-14435000D02*
X8235500Y-14545000D01*
X8290500Y-14435000D02*
X8290500Y-14545000D01*
X8235500Y-14490000D02*
X8345500Y-14490000D01*
D11*
X8335500Y-14525000D02*
X8335500Y-14455000D01*
X8245500Y-14525000D02*
X8245500Y-14455000D01*
X8335500Y-14455000D02*
G75*
G03*
X8245500Y-14455000I-45000J0D01*
G01*
X8245500Y-14525000D02*
G75*
G03*
X8335500Y-14525000I45000J0D01*
G01*
D17*
X10129000Y-3259000D02*
X10239000Y-3369000D01*
X10239000Y-3259000D02*
X10129000Y-3369000D01*
X10184000Y-3259000D02*
X10184000Y-3369000D01*
X10129000Y-3314000D02*
X10239000Y-3314000D01*
D11*
X10229000Y-3349000D02*
X10229000Y-3279000D01*
X10139000Y-3349000D02*
X10139000Y-3279000D01*
X10229000Y-3279000D02*
G75*
G03*
X10139000Y-3279000I-45000J0D01*
G01*
X10139000Y-3349000D02*
G75*
G03*
X10229000Y-3349000I45000J0D01*
G01*
D17*
X10129000Y-8339000D02*
X10239000Y-8449000D01*
X10239000Y-8339000D02*
X10129000Y-8449000D01*
X10184000Y-8339000D02*
X10184000Y-8449000D01*
X10129000Y-8394000D02*
X10239000Y-8394000D01*
D11*
X10229000Y-8429000D02*
X10229000Y-8359000D01*
X10139000Y-8429000D02*
X10139000Y-8359000D01*
X10229000Y-8359000D02*
G75*
G03*
X10139000Y-8359000I-45000J0D01*
G01*
X10139000Y-8429000D02*
G75*
G03*
X10229000Y-8429000I45000J0D01*
G01*
D17*
X10133000Y-14436000D02*
X10243000Y-14546000D01*
X10243000Y-14436000D02*
X10133000Y-14546000D01*
X10188000Y-14436000D02*
X10188000Y-14546000D01*
X10133000Y-14491000D02*
X10243000Y-14491000D01*
D11*
X10233000Y-14526000D02*
X10233000Y-14456000D01*
X10143000Y-14526000D02*
X10143000Y-14456000D01*
X10233000Y-14456000D02*
G75*
G03*
X10143000Y-14456000I-45000J0D01*
G01*
X10143000Y-14526000D02*
G75*
G03*
X10233000Y-14526000I45000J0D01*
G01*
D17*
X10133000Y-22817000D02*
X10243000Y-22927000D01*
X10243000Y-22817000D02*
X10133000Y-22927000D01*
X10188000Y-22817000D02*
X10188000Y-22927000D01*
X10133000Y-22872000D02*
X10243000Y-22872000D01*
D11*
X10233000Y-22907000D02*
X10233000Y-22837000D01*
X10143000Y-22907000D02*
X10143000Y-22837000D01*
X10233000Y-22837000D02*
G75*
G03*
X10143000Y-22837000I-45000J0D01*
G01*
X10143000Y-22907000D02*
G75*
G03*
X10233000Y-22907000I45000J0D01*
G01*
D17*
X11089000Y-3259000D02*
X11199000Y-3369000D01*
X11199000Y-3259000D02*
X11089000Y-3369000D01*
X11144000Y-3259000D02*
X11144000Y-3369000D01*
X11089000Y-3314000D02*
X11199000Y-3314000D01*
D11*
X11189000Y-3349000D02*
X11189000Y-3279000D01*
X11099000Y-3349000D02*
X11099000Y-3279000D01*
X11189000Y-3279000D02*
G75*
G03*
X11099000Y-3279000I-45000J0D01*
G01*
X11099000Y-3349000D02*
G75*
G03*
X11189000Y-3349000I45000J0D01*
G01*
D17*
X11089000Y-8339000D02*
X11199000Y-8449000D01*
X11199000Y-8339000D02*
X11089000Y-8449000D01*
X11144000Y-8339000D02*
X11144000Y-8449000D01*
X11089000Y-8394000D02*
X11199000Y-8394000D01*
D11*
X11189000Y-8429000D02*
X11189000Y-8359000D01*
X11099000Y-8429000D02*
X11099000Y-8359000D01*
X11189000Y-8359000D02*
G75*
G03*
X11099000Y-8359000I-45000J0D01*
G01*
X11099000Y-8429000D02*
G75*
G03*
X11189000Y-8429000I45000J0D01*
G01*
D17*
X11093000Y-14436000D02*
X11203000Y-14546000D01*
X11203000Y-14436000D02*
X11093000Y-14546000D01*
X11148000Y-14436000D02*
X11148000Y-14546000D01*
X11093000Y-14491000D02*
X11203000Y-14491000D01*
D11*
X11193000Y-14526000D02*
X11193000Y-14456000D01*
X11103000Y-14526000D02*
X11103000Y-14456000D01*
X11193000Y-14456000D02*
G75*
G03*
X11103000Y-14456000I-45000J0D01*
G01*
X11103000Y-14526000D02*
G75*
G03*
X11193000Y-14526000I45000J0D01*
G01*
D17*
X11093000Y-22817000D02*
X11203000Y-22927000D01*
X11203000Y-22817000D02*
X11093000Y-22927000D01*
X11148000Y-22817000D02*
X11148000Y-22927000D01*
X11093000Y-22872000D02*
X11203000Y-22872000D01*
D11*
X11193000Y-22907000D02*
X11193000Y-22837000D01*
X11103000Y-22907000D02*
X11103000Y-22837000D01*
X11193000Y-22837000D02*
G75*
G03*
X11103000Y-22837000I-45000J0D01*
G01*
X11103000Y-22907000D02*
G75*
G03*
X11193000Y-22907000I45000J0D01*
G01*
D17*
X12990500Y-14436000D02*
X13100500Y-14546000D01*
X13100500Y-14436000D02*
X12990500Y-14546000D01*
X13045500Y-14436000D02*
X13045500Y-14546000D01*
X12990500Y-14491000D02*
X13100500Y-14491000D01*
D11*
X13090500Y-14526000D02*
X13090500Y-14456000D01*
X13000500Y-14526000D02*
X13000500Y-14456000D01*
X13090500Y-14456000D02*
G75*
G03*
X13000500Y-14456000I-45000J0D01*
G01*
X13000500Y-14526000D02*
G75*
G03*
X13090500Y-14526000I45000J0D01*
G01*
D17*
X13054000Y-20277000D02*
X13164000Y-20387000D01*
X13164000Y-20277000D02*
X13054000Y-20387000D01*
X13109000Y-20277000D02*
X13109000Y-20387000D01*
X13054000Y-20332000D02*
X13164000Y-20332000D01*
D11*
X13154000Y-20367000D02*
X13154000Y-20297000D01*
X13064000Y-20367000D02*
X13064000Y-20297000D01*
X13154000Y-20297000D02*
G75*
G03*
X13064000Y-20297000I-45000J0D01*
G01*
X13064000Y-20367000D02*
G75*
G03*
X13154000Y-20367000I45000J0D01*
G01*
D17*
X13950500Y-14436000D02*
X14060500Y-14546000D01*
X14060500Y-14436000D02*
X13950500Y-14546000D01*
X14005500Y-14436000D02*
X14005500Y-14546000D01*
X13950500Y-14491000D02*
X14060500Y-14491000D01*
D11*
X14050500Y-14526000D02*
X14050500Y-14456000D01*
X13960500Y-14526000D02*
X13960500Y-14456000D01*
X14050500Y-14456000D02*
G75*
G03*
X13960500Y-14456000I-45000J0D01*
G01*
X13960500Y-14526000D02*
G75*
G03*
X14050500Y-14526000I45000J0D01*
G01*
D17*
X14014000Y-20277000D02*
X14124000Y-20387000D01*
X14124000Y-20277000D02*
X14014000Y-20387000D01*
X14069000Y-20277000D02*
X14069000Y-20387000D01*
X14014000Y-20332000D02*
X14124000Y-20332000D01*
D11*
X14114000Y-20367000D02*
X14114000Y-20297000D01*
X14024000Y-20367000D02*
X14024000Y-20297000D01*
X14114000Y-20297000D02*
G75*
G03*
X14024000Y-20297000I-45000J0D01*
G01*
X14024000Y-20367000D02*
G75*
G03*
X14114000Y-20367000I45000J0D01*
G01*
D17*
X15209000Y-10879000D02*
X15319000Y-10989000D01*
X15319000Y-10879000D02*
X15209000Y-10989000D01*
X15264000Y-10879000D02*
X15264000Y-10989000D01*
X15209000Y-10934000D02*
X15319000Y-10934000D01*
D11*
X15309000Y-10969000D02*
X15309000Y-10899000D01*
X15219000Y-10969000D02*
X15219000Y-10899000D01*
X15309000Y-10899000D02*
G75*
G03*
X15219000Y-10899000I-45000J0D01*
G01*
X15219000Y-10969000D02*
G75*
G03*
X15309000Y-10969000I45000J0D01*
G01*
D17*
X15848000Y-14435000D02*
X15958000Y-14545000D01*
X15958000Y-14435000D02*
X15848000Y-14545000D01*
X15903000Y-14435000D02*
X15903000Y-14545000D01*
X15848000Y-14490000D02*
X15958000Y-14490000D01*
D11*
X15948000Y-14525000D02*
X15948000Y-14455000D01*
X15858000Y-14525000D02*
X15858000Y-14455000D01*
X15948000Y-14455000D02*
G75*
G03*
X15858000Y-14455000I-45000J0D01*
G01*
X15858000Y-14525000D02*
G75*
G03*
X15948000Y-14525000I45000J0D01*
G01*
D17*
X15848000Y-22817000D02*
X15958000Y-22927000D01*
X15958000Y-22817000D02*
X15848000Y-22927000D01*
X15903000Y-22817000D02*
X15903000Y-22927000D01*
X15848000Y-22872000D02*
X15958000Y-22872000D01*
D11*
X15948000Y-22907000D02*
X15948000Y-22837000D01*
X15858000Y-22907000D02*
X15858000Y-22837000D01*
X15948000Y-22837000D02*
G75*
G03*
X15858000Y-22837000I-45000J0D01*
G01*
X15858000Y-22907000D02*
G75*
G03*
X15948000Y-22907000I45000J0D01*
G01*
D17*
X16169000Y-10879000D02*
X16279000Y-10989000D01*
X16279000Y-10879000D02*
X16169000Y-10989000D01*
X16224000Y-10879000D02*
X16224000Y-10989000D01*
X16169000Y-10934000D02*
X16279000Y-10934000D01*
D11*
X16269000Y-10969000D02*
X16269000Y-10899000D01*
X16179000Y-10969000D02*
X16179000Y-10899000D01*
X16269000Y-10899000D02*
G75*
G03*
X16179000Y-10899000I-45000J0D01*
G01*
X16179000Y-10969000D02*
G75*
G03*
X16269000Y-10969000I45000J0D01*
G01*
D17*
X16808000Y-14435000D02*
X16918000Y-14545000D01*
X16918000Y-14435000D02*
X16808000Y-14545000D01*
X16863000Y-14435000D02*
X16863000Y-14545000D01*
X16808000Y-14490000D02*
X16918000Y-14490000D01*
D11*
X16908000Y-14525000D02*
X16908000Y-14455000D01*
X16818000Y-14525000D02*
X16818000Y-14455000D01*
X16908000Y-14455000D02*
G75*
G03*
X16818000Y-14455000I-45000J0D01*
G01*
X16818000Y-14525000D02*
G75*
G03*
X16908000Y-14525000I45000J0D01*
G01*
D17*
X16808000Y-22817000D02*
X16918000Y-22927000D01*
X16918000Y-22817000D02*
X16808000Y-22927000D01*
X16863000Y-22817000D02*
X16863000Y-22927000D01*
X16808000Y-22872000D02*
X16918000Y-22872000D01*
D11*
X16908000Y-22907000D02*
X16908000Y-22837000D01*
X16818000Y-22907000D02*
X16818000Y-22837000D01*
X16908000Y-22837000D02*
G75*
G03*
X16818000Y-22837000I-45000J0D01*
G01*
X16818000Y-22907000D02*
G75*
G03*
X16908000Y-22907000I45000J0D01*
G01*
D18*
X4768500Y-3750500D02*
X4887500Y-3869500D01*
X4887500Y-3750500D02*
X4768500Y-3869500D01*
X4870073Y-3852073D02*
X4870073Y-3767927D01*
X4785927Y-3767927D01*
X4785927Y-3852073D01*
X4870073Y-3852073D01*
X4768500Y-4004500D02*
X4887500Y-4123500D01*
X4887500Y-4004500D02*
X4768500Y-4123500D01*
X4870073Y-4106073D02*
X4870073Y-4021927D01*
X4785927Y-4021927D01*
X4785927Y-4106073D01*
X4870073Y-4106073D01*
X4768500Y-4258500D02*
X4887500Y-4377500D01*
X4887500Y-4258500D02*
X4768500Y-4377500D01*
X4870073Y-4360073D02*
X4870073Y-4275927D01*
X4785927Y-4275927D01*
X4785927Y-4360073D01*
X4870073Y-4360073D01*
X16448500Y-16133000D02*
X16567500Y-16252000D01*
X16567500Y-16133000D02*
X16448500Y-16252000D01*
X16550073Y-16234573D02*
X16550073Y-16150427D01*
X16465927Y-16150427D01*
X16465927Y-16234573D01*
X16550073Y-16234573D01*
X16448500Y-16387000D02*
X16567500Y-16506000D01*
X16567500Y-16387000D02*
X16448500Y-16506000D01*
X16550073Y-16488573D02*
X16550073Y-16404427D01*
X16465927Y-16404427D01*
X16465927Y-16488573D01*
X16550073Y-16488573D01*
X16448500Y-16641000D02*
X16567500Y-16760000D01*
X16567500Y-16641000D02*
X16448500Y-16760000D01*
X16550073Y-16742573D02*
X16550073Y-16658427D01*
X16465927Y-16658427D01*
X16465927Y-16742573D01*
X16550073Y-16742573D01*
X16448500Y-16895000D02*
X16567500Y-17014000D01*
X16567500Y-16895000D02*
X16448500Y-17014000D01*
X16550073Y-16996573D02*
X16550073Y-16912427D01*
X16465927Y-16912427D01*
X16465927Y-16996573D01*
X16550073Y-16996573D01*
X16448500Y-17149000D02*
X16567500Y-17268000D01*
X16567500Y-17149000D02*
X16448500Y-17268000D01*
X16550073Y-17250573D02*
X16550073Y-17166427D01*
X16465927Y-17166427D01*
X16465927Y-17250573D01*
X16550073Y-17250573D01*
X16448500Y-21022500D02*
X16567500Y-21141500D01*
X16567500Y-21022500D02*
X16448500Y-21141500D01*
X16550073Y-21124073D02*
X16550073Y-21039927D01*
X16465927Y-21039927D01*
X16465927Y-21124073D01*
X16550073Y-21124073D01*
X16448500Y-21276500D02*
X16567500Y-21395500D01*
X16567500Y-21276500D02*
X16448500Y-21395500D01*
X16550073Y-21378073D02*
X16550073Y-21293927D01*
X16465927Y-21293927D01*
X16465927Y-21378073D01*
X16550073Y-21378073D01*
X16450500Y-3750500D02*
X16569500Y-3869500D01*
X16569500Y-3750500D02*
X16450500Y-3869500D01*
X16552073Y-3852073D02*
X16552073Y-3767927D01*
X16467927Y-3767927D01*
X16467927Y-3852073D01*
X16552073Y-3852073D01*
X16450500Y-4004500D02*
X16569500Y-4123500D01*
X16569500Y-4004500D02*
X16450500Y-4123500D01*
X16552073Y-4106073D02*
X16552073Y-4021927D01*
X16467927Y-4021927D01*
X16467927Y-4106073D01*
X16552073Y-4106073D01*
X16450500Y-4258500D02*
X16569500Y-4377500D01*
X16569500Y-4258500D02*
X16450500Y-4377500D01*
X16552073Y-4360073D02*
X16552073Y-4275927D01*
X16467927Y-4275927D01*
X16467927Y-4360073D01*
X16552073Y-4360073D01*
X16450500Y-4512500D02*
X16569500Y-4631500D01*
X16569500Y-4512500D02*
X16450500Y-4631500D01*
X16552073Y-4614073D02*
X16552073Y-4529927D01*
X16467927Y-4529927D01*
X16467927Y-4614073D01*
X16552073Y-4614073D01*
X16450500Y-12513500D02*
X16569500Y-12632500D01*
X16569500Y-12513500D02*
X16450500Y-12632500D01*
X16552073Y-12615073D02*
X16552073Y-12530927D01*
X16467927Y-12530927D01*
X16467927Y-12615073D01*
X16552073Y-12615073D01*
X16450500Y-12767500D02*
X16569500Y-12886500D01*
X16569500Y-12767500D02*
X16450500Y-12886500D01*
X16552073Y-12869073D02*
X16552073Y-12784927D01*
X16467927Y-12784927D01*
X16467927Y-12869073D01*
X16552073Y-12869073D01*
X16450500Y-13021500D02*
X16569500Y-13140500D01*
X16569500Y-13021500D02*
X16450500Y-13140500D01*
X16552073Y-13123073D02*
X16552073Y-13038927D01*
X16467927Y-13038927D01*
X16467927Y-13123073D01*
X16552073Y-13123073D01*
X16454500Y-8703500D02*
X16573500Y-8822500D01*
X16573500Y-8703500D02*
X16454500Y-8822500D01*
X16556073Y-8805073D02*
X16556073Y-8720927D01*
X16471927Y-8720927D01*
X16471927Y-8805073D01*
X16556073Y-8805073D01*
X16454500Y-8957500D02*
X16573500Y-9076500D01*
X16573500Y-8957500D02*
X16454500Y-9076500D01*
X16556073Y-9059073D02*
X16556073Y-8974927D01*
X16471927Y-8974927D01*
X16471927Y-9059073D01*
X16556073Y-9059073D01*
X16454500Y-9211500D02*
X16573500Y-9330500D01*
X16573500Y-9211500D02*
X16454500Y-9330500D01*
X16556073Y-9313073D02*
X16556073Y-9228927D01*
X16471927Y-9228927D01*
X16471927Y-9313073D01*
X16556073Y-9313073D01*
D19*
X7301000Y-13320800D02*
X7431000Y-13450800D01*
X7431000Y-13320800D02*
X7301000Y-13450800D01*
X7366000Y-13450800D02*
X7431000Y-13385800D01*
X7366000Y-13320800D01*
X7301000Y-13385800D01*
X7366000Y-13450800D01*
X8063000Y-13320800D02*
X8193000Y-13450800D01*
X8193000Y-13320800D02*
X8063000Y-13450800D01*
X8128000Y-13450800D02*
X8193000Y-13385800D01*
X8128000Y-13320800D01*
X8063000Y-13385800D01*
X8128000Y-13450800D01*
D20*
X4711500Y-18487500D02*
X4711500Y-18672500D01*
X4619000Y-18580000D02*
X4804000Y-18580000D01*
X4804000Y-18580000D02*
G75*
G03*
X4804000Y-18580000I-92500J0D01*
G01*
X4711500Y-18957500D02*
X4711500Y-19142500D01*
X4619000Y-19050000D02*
X4804000Y-19050000D01*
X4804000Y-19050000D02*
G75*
G03*
X4804000Y-19050000I-92500J0D01*
G01*
X4711500Y-19427500D02*
X4711500Y-19612500D01*
X4619000Y-19520000D02*
X4804000Y-19520000D01*
X4804000Y-19520000D02*
G75*
G03*
X4804000Y-19520000I-92500J0D01*
G01*
X5194500Y-18487500D02*
X5194500Y-18672500D01*
X5102000Y-18580000D02*
X5287000Y-18580000D01*
X5287000Y-18580000D02*
G75*
G03*
X5287000Y-18580000I-92500J0D01*
G01*
X5194500Y-18957500D02*
X5194500Y-19142500D01*
X5102000Y-19050000D02*
X5287000Y-19050000D01*
X5287000Y-19050000D02*
G75*
G03*
X5287000Y-19050000I-92500J0D01*
G01*
X5194500Y-19427500D02*
X5194500Y-19612500D01*
X5102000Y-19520000D02*
X5287000Y-19520000D01*
X5287000Y-19520000D02*
G75*
G03*
X5287000Y-19520000I-92500J0D01*
G01*
X8128000Y-10359500D02*
X8128000Y-10544500D01*
X8035500Y-10452000D02*
X8220500Y-10452000D01*
X8220500Y-10452000D02*
G75*
G03*
X8220500Y-10452000I-92500J0D01*
G01*
X8128000Y-10829500D02*
X8128000Y-11014500D01*
X8035500Y-10922000D02*
X8220500Y-10922000D01*
X8220500Y-10922000D02*
G75*
G03*
X8220500Y-10922000I-92500J0D01*
G01*
X8128000Y-11299500D02*
X8128000Y-11484500D01*
X8035500Y-11392000D02*
X8220500Y-11392000D01*
X8220500Y-11392000D02*
G75*
G03*
X8220500Y-11392000I-92500J0D01*
G01*
X12966500Y-10359500D02*
X12966500Y-10544500D01*
X12874000Y-10452000D02*
X13059000Y-10452000D01*
X13059000Y-10452000D02*
G75*
G03*
X13059000Y-10452000I-92500J0D01*
G01*
X12966500Y-10829500D02*
X12966500Y-11014500D01*
X12874000Y-10922000D02*
X13059000Y-10922000D01*
X13059000Y-10922000D02*
G75*
G03*
X13059000Y-10922000I-92500J0D01*
G01*
X12966500Y-11299500D02*
X12966500Y-11484500D01*
X12874000Y-11392000D02*
X13059000Y-11392000D01*
X13059000Y-11392000D02*
G75*
G03*
X13059000Y-11392000I-92500J0D01*
G01*
X13449500Y-10359500D02*
X13449500Y-10544500D01*
X13357000Y-10452000D02*
X13542000Y-10452000D01*
X13542000Y-10452000D02*
G75*
G03*
X13542000Y-10452000I-92500J0D01*
G01*
X13449500Y-10829500D02*
X13449500Y-11014500D01*
X13357000Y-10922000D02*
X13542000Y-10922000D01*
X13542000Y-10922000D02*
G75*
G03*
X13542000Y-10922000I-92500J0D01*
G01*
X13449500Y-11299500D02*
X13449500Y-11484500D01*
X13357000Y-11392000D02*
X13542000Y-11392000D01*
X13542000Y-11392000D02*
G75*
G03*
X13542000Y-11392000I-92500J0D01*
G01*
X16383000Y-18487500D02*
X16383000Y-18672500D01*
X16290500Y-18580000D02*
X16475500Y-18580000D01*
X16475500Y-18580000D02*
G75*
G03*
X16475500Y-18580000I-92500J0D01*
G01*
X16383000Y-18957500D02*
X16383000Y-19142500D01*
X16290500Y-19050000D02*
X16475500Y-19050000D01*
X16475500Y-19050000D02*
G75*
G03*
X16475500Y-19050000I-92500J0D01*
G01*
X16383000Y-19427500D02*
X16383000Y-19612500D01*
X16290500Y-19520000D02*
X16475500Y-19520000D01*
X16475500Y-19520000D02*
G75*
G03*
X16475500Y-19520000I-92500J0D01*
G01*
D11*
X4858711Y-6022711D02*
X4858711Y-5881289D01*
X4717289Y-5881289D01*
X4717289Y-6022711D01*
X4858711Y-6022711D01*
X4888000Y-5952000D02*
G75*
G03*
X4888000Y-5952000I-100000J0D01*
G01*
X6458711Y-6022711D02*
X6458711Y-5881289D01*
X6317289Y-5881289D01*
X6317289Y-6022711D01*
X6458711Y-6022711D01*
X6488000Y-5952000D02*
G75*
G03*
X6488000Y-5952000I-100000J0D01*
G01*
X7017711Y-20500711D02*
X7017711Y-20359289D01*
X6876289Y-20359289D01*
X6876289Y-20500711D01*
X7017711Y-20500711D01*
X7047000Y-20430000D02*
G75*
G03*
X7047000Y-20430000I-100000J0D01*
G01*
X8617711Y-20500711D02*
X8617711Y-20359289D01*
X8476289Y-20359289D01*
X8476289Y-20500711D01*
X8617711Y-20500711D01*
X8647000Y-20430000D02*
G75*
G03*
X8647000Y-20430000I-100000J0D01*
G01*
X15018711Y-6022711D02*
X15018711Y-5881289D01*
X14877289Y-5881289D01*
X14877289Y-6022711D01*
X15018711Y-6022711D01*
X15048000Y-5952000D02*
G75*
G03*
X15048000Y-5952000I-100000J0D01*
G01*
X16618711Y-6022711D02*
X16618711Y-5881289D01*
X16477289Y-5881289D01*
X16477289Y-6022711D01*
X16618711Y-6022711D01*
X16648000Y-5952000D02*
G75*
G03*
X16648000Y-5952000I-100000J0D01*
G01*
X4319119Y-24188976D02*
X4319119Y-23988976D01*
X4366738Y-23988976D01*
X4395310Y-23998500D01*
X4414357Y-24017548D01*
X4423881Y-24036595D01*
X4433405Y-24074690D01*
X4433405Y-24103262D01*
X4423881Y-24141357D01*
X4414357Y-24160405D01*
X4395310Y-24179452D01*
X4366738Y-24188976D01*
X4319119Y-24188976D01*
X4519119Y-24188976D02*
X4519119Y-24055643D01*
X4519119Y-24093738D02*
X4528643Y-24074690D01*
X4538167Y-24065167D01*
X4557214Y-24055643D01*
X4576262Y-24055643D01*
X4642929Y-24188976D02*
X4642929Y-24055643D01*
X4642929Y-23988976D02*
X4633405Y-23998500D01*
X4642929Y-24008024D01*
X4652452Y-23998500D01*
X4642929Y-23988976D01*
X4642929Y-24008024D01*
X4766738Y-24188976D02*
X4747690Y-24179452D01*
X4738167Y-24160405D01*
X4738167Y-23988976D01*
X4871500Y-24188976D02*
X4852452Y-24179452D01*
X4842929Y-24160405D01*
X4842929Y-23988976D01*
X5100071Y-24188976D02*
X5100071Y-23988976D01*
X5166738Y-24131833D01*
X5233405Y-23988976D01*
X5233405Y-24188976D01*
X5414357Y-24188976D02*
X5414357Y-24084214D01*
X5404833Y-24065167D01*
X5385786Y-24055643D01*
X5347690Y-24055643D01*
X5328643Y-24065167D01*
X5414357Y-24179452D02*
X5395310Y-24188976D01*
X5347690Y-24188976D01*
X5328643Y-24179452D01*
X5319119Y-24160405D01*
X5319119Y-24141357D01*
X5328643Y-24122309D01*
X5347690Y-24112786D01*
X5395310Y-24112786D01*
X5414357Y-24103262D01*
X5509595Y-24055643D02*
X5509595Y-24255643D01*
X5509595Y-24065167D02*
X5528643Y-24055643D01*
X5566738Y-24055643D01*
X5585786Y-24065167D01*
X5595309Y-24074690D01*
X5604833Y-24093738D01*
X5604833Y-24150881D01*
X5595309Y-24169928D01*
X5585786Y-24179452D01*
X5566738Y-24188976D01*
X5528643Y-24188976D01*
X5509595Y-24179452D01*
X5690548Y-24169928D02*
X5700071Y-24179452D01*
X5690548Y-24188976D01*
X5681024Y-24179452D01*
X5690548Y-24169928D01*
X5690548Y-24188976D01*
X5690548Y-24065167D02*
X5700071Y-24074690D01*
X5690548Y-24084214D01*
X5681024Y-24074690D01*
X5690548Y-24065167D01*
X5690548Y-24084214D01*
D12*
X4021500Y-24498500D02*
X4061500Y-24538500D01*
X4061500Y-24498500D02*
X4021500Y-24538500D01*
D11*
X4357214Y-24408976D02*
X4376262Y-24408976D01*
X4395310Y-24418500D01*
X4404833Y-24428024D01*
X4414357Y-24447071D01*
X4423881Y-24485167D01*
X4423881Y-24532786D01*
X4414357Y-24570881D01*
X4404833Y-24589928D01*
X4395310Y-24599452D01*
X4376262Y-24608976D01*
X4357214Y-24608976D01*
X4338167Y-24599452D01*
X4328643Y-24589928D01*
X4319119Y-24570881D01*
X4309595Y-24532786D01*
X4309595Y-24485167D01*
X4319119Y-24447071D01*
X4328643Y-24428024D01*
X4338167Y-24418500D01*
X4357214Y-24408976D01*
X4509595Y-24589928D02*
X4519119Y-24599452D01*
X4509595Y-24608976D01*
X4500071Y-24599452D01*
X4509595Y-24589928D01*
X4509595Y-24608976D01*
X4690548Y-24475643D02*
X4690548Y-24608976D01*
X4642929Y-24399452D02*
X4595310Y-24542309D01*
X4719119Y-24542309D01*
X4833405Y-24408976D02*
X4852452Y-24408976D01*
X4871500Y-24418500D01*
X4881024Y-24428024D01*
X4890548Y-24447071D01*
X4900071Y-24485167D01*
X4900071Y-24532786D01*
X4890548Y-24570881D01*
X4881024Y-24589928D01*
X4871500Y-24599452D01*
X4852452Y-24608976D01*
X4833405Y-24608976D01*
X4814357Y-24599452D01*
X4804833Y-24589928D01*
X4795310Y-24570881D01*
X4785786Y-24532786D01*
X4785786Y-24485167D01*
X4795310Y-24447071D01*
X4804833Y-24428024D01*
X4814357Y-24418500D01*
X4833405Y-24408976D01*
X5023881Y-24408976D02*
X5042929Y-24408976D01*
X5061976Y-24418500D01*
X5071500Y-24428024D01*
X5081024Y-24447071D01*
X5090548Y-24485167D01*
X5090548Y-24532786D01*
X5081024Y-24570881D01*
X5071500Y-24589928D01*
X5061976Y-24599452D01*
X5042929Y-24608976D01*
X5023881Y-24608976D01*
X5004833Y-24599452D01*
X4995310Y-24589928D01*
X4985786Y-24570881D01*
X4976262Y-24532786D01*
X4976262Y-24485167D01*
X4985786Y-24447071D01*
X4995310Y-24428024D01*
X5004833Y-24418500D01*
X5023881Y-24408976D01*
X5176262Y-24608976D02*
X5176262Y-24475643D01*
X5176262Y-24494690D02*
X5185786Y-24485167D01*
X5204833Y-24475643D01*
X5233405Y-24475643D01*
X5252452Y-24485167D01*
X5261976Y-24504214D01*
X5261976Y-24608976D01*
X5261976Y-24504214D02*
X5271500Y-24485167D01*
X5290548Y-24475643D01*
X5319119Y-24475643D01*
X5338167Y-24485167D01*
X5347690Y-24504214D01*
X5347690Y-24608976D01*
X5442929Y-24608976D02*
X5442929Y-24475643D01*
X5442929Y-24494690D02*
X5452452Y-24485167D01*
X5471500Y-24475643D01*
X5500071Y-24475643D01*
X5519119Y-24485167D01*
X5528643Y-24504214D01*
X5528643Y-24608976D01*
X5528643Y-24504214D02*
X5538167Y-24485167D01*
X5557214Y-24475643D01*
X5585786Y-24475643D01*
X5604833Y-24485167D01*
X5614357Y-24504214D01*
X5614357Y-24608976D01*
X6004833Y-24399452D02*
X5833405Y-24656595D01*
X6261976Y-24408976D02*
X6281024Y-24408976D01*
X6300071Y-24418500D01*
X6309595Y-24428024D01*
X6319119Y-24447071D01*
X6328643Y-24485167D01*
X6328643Y-24532786D01*
X6319119Y-24570881D01*
X6309595Y-24589928D01*
X6300071Y-24599452D01*
X6281024Y-24608976D01*
X6261976Y-24608976D01*
X6242928Y-24599452D01*
X6233405Y-24589928D01*
X6223881Y-24570881D01*
X6214357Y-24532786D01*
X6214357Y-24485167D01*
X6223881Y-24447071D01*
X6233405Y-24428024D01*
X6242928Y-24418500D01*
X6261976Y-24408976D01*
X6414357Y-24589928D02*
X6423881Y-24599452D01*
X6414357Y-24608976D01*
X6404833Y-24599452D01*
X6414357Y-24589928D01*
X6414357Y-24608976D01*
X6547690Y-24408976D02*
X6566738Y-24408976D01*
X6585786Y-24418500D01*
X6595309Y-24428024D01*
X6604833Y-24447071D01*
X6614357Y-24485167D01*
X6614357Y-24532786D01*
X6604833Y-24570881D01*
X6595309Y-24589928D01*
X6585786Y-24599452D01*
X6566738Y-24608976D01*
X6547690Y-24608976D01*
X6528643Y-24599452D01*
X6519119Y-24589928D01*
X6509595Y-24570881D01*
X6500071Y-24532786D01*
X6500071Y-24485167D01*
X6509595Y-24447071D01*
X6519119Y-24428024D01*
X6528643Y-24418500D01*
X6547690Y-24408976D01*
X6804833Y-24608976D02*
X6690548Y-24608976D01*
X6747690Y-24608976D02*
X6747690Y-24408976D01*
X6728643Y-24437548D01*
X6709595Y-24456595D01*
X6690548Y-24466119D01*
X6985786Y-24408976D02*
X6890548Y-24408976D01*
X6881024Y-24504214D01*
X6890548Y-24494690D01*
X6909595Y-24485167D01*
X6957214Y-24485167D01*
X6976262Y-24494690D01*
X6985786Y-24504214D01*
X6995309Y-24523262D01*
X6995309Y-24570881D01*
X6985786Y-24589928D01*
X6976262Y-24599452D01*
X6957214Y-24608976D01*
X6909595Y-24608976D01*
X6890548Y-24599452D01*
X6881024Y-24589928D01*
X7061976Y-24408976D02*
X7195309Y-24408976D01*
X7109595Y-24608976D01*
X7261976Y-24408976D02*
X7261976Y-24447071D01*
X7338167Y-24408976D02*
X7338167Y-24447071D01*
X7633405Y-24685167D02*
X7623881Y-24675643D01*
X7604833Y-24647071D01*
X7595309Y-24628024D01*
X7585786Y-24599452D01*
X7576262Y-24551833D01*
X7576262Y-24513738D01*
X7585786Y-24466119D01*
X7595309Y-24437548D01*
X7604833Y-24418500D01*
X7623881Y-24389928D01*
X7633405Y-24380405D01*
X7738167Y-24494690D02*
X7719119Y-24485167D01*
X7709595Y-24475643D01*
X7700071Y-24456595D01*
X7700071Y-24447071D01*
X7709595Y-24428024D01*
X7719119Y-24418500D01*
X7738167Y-24408976D01*
X7776262Y-24408976D01*
X7795309Y-24418500D01*
X7804833Y-24428024D01*
X7814357Y-24447071D01*
X7814357Y-24456595D01*
X7804833Y-24475643D01*
X7795309Y-24485167D01*
X7776262Y-24494690D01*
X7738167Y-24494690D01*
X7719119Y-24504214D01*
X7709595Y-24513738D01*
X7700071Y-24532786D01*
X7700071Y-24570881D01*
X7709595Y-24589928D01*
X7719119Y-24599452D01*
X7738167Y-24608976D01*
X7776262Y-24608976D01*
X7795309Y-24599452D01*
X7804833Y-24589928D01*
X7814357Y-24570881D01*
X7814357Y-24532786D01*
X7804833Y-24513738D01*
X7795309Y-24504214D01*
X7776262Y-24494690D01*
X8052452Y-24608976D02*
X8052452Y-24408976D01*
X8138167Y-24608976D02*
X8138167Y-24504214D01*
X8128643Y-24485167D01*
X8109595Y-24475643D01*
X8081024Y-24475643D01*
X8061976Y-24485167D01*
X8052452Y-24494690D01*
X8261976Y-24608976D02*
X8242928Y-24599452D01*
X8233405Y-24589928D01*
X8223881Y-24570881D01*
X8223881Y-24513738D01*
X8233405Y-24494690D01*
X8242928Y-24485167D01*
X8261976Y-24475643D01*
X8290548Y-24475643D01*
X8309595Y-24485167D01*
X8319119Y-24494690D01*
X8328643Y-24513738D01*
X8328643Y-24570881D01*
X8319119Y-24589928D01*
X8309595Y-24599452D01*
X8290548Y-24608976D01*
X8261976Y-24608976D01*
X8442929Y-24608976D02*
X8423881Y-24599452D01*
X8414357Y-24580405D01*
X8414357Y-24408976D01*
X8595310Y-24599452D02*
X8576262Y-24608976D01*
X8538167Y-24608976D01*
X8519119Y-24599452D01*
X8509595Y-24580405D01*
X8509595Y-24504214D01*
X8519119Y-24485167D01*
X8538167Y-24475643D01*
X8576262Y-24475643D01*
X8595310Y-24485167D01*
X8604833Y-24504214D01*
X8604833Y-24523262D01*
X8509595Y-24542309D01*
X8681024Y-24599452D02*
X8700071Y-24608976D01*
X8738167Y-24608976D01*
X8757214Y-24599452D01*
X8766738Y-24580405D01*
X8766738Y-24570881D01*
X8757214Y-24551833D01*
X8738167Y-24542309D01*
X8709595Y-24542309D01*
X8690548Y-24532786D01*
X8681024Y-24513738D01*
X8681024Y-24504214D01*
X8690548Y-24485167D01*
X8709595Y-24475643D01*
X8738167Y-24475643D01*
X8757214Y-24485167D01*
X8833405Y-24685167D02*
X8842929Y-24675643D01*
X8861976Y-24647071D01*
X8871500Y-24628024D01*
X8881024Y-24599452D01*
X8890548Y-24551833D01*
X8890548Y-24513738D01*
X8881024Y-24466119D01*
X8871500Y-24437548D01*
X8861976Y-24418500D01*
X8842929Y-24389928D01*
X8833405Y-24380405D01*
D13*
X4061500Y-24782500D02*
G75*
G03*
X4061500Y-24782500I-25000J0D01*
G01*
D11*
X4357214Y-24672976D02*
X4376262Y-24672976D01*
X4395310Y-24682500D01*
X4404833Y-24692024D01*
X4414357Y-24711071D01*
X4423881Y-24749167D01*
X4423881Y-24796786D01*
X4414357Y-24834881D01*
X4404833Y-24853928D01*
X4395310Y-24863452D01*
X4376262Y-24872976D01*
X4357214Y-24872976D01*
X4338167Y-24863452D01*
X4328643Y-24853928D01*
X4319119Y-24834881D01*
X4309595Y-24796786D01*
X4309595Y-24749167D01*
X4319119Y-24711071D01*
X4328643Y-24692024D01*
X4338167Y-24682500D01*
X4357214Y-24672976D01*
X4509595Y-24853928D02*
X4519119Y-24863452D01*
X4509595Y-24872976D01*
X4500071Y-24863452D01*
X4509595Y-24853928D01*
X4509595Y-24872976D01*
X4700071Y-24672976D02*
X4604833Y-24672976D01*
X4595310Y-24768214D01*
X4604833Y-24758690D01*
X4623881Y-24749167D01*
X4671500Y-24749167D01*
X4690548Y-24758690D01*
X4700071Y-24768214D01*
X4709595Y-24787262D01*
X4709595Y-24834881D01*
X4700071Y-24853928D01*
X4690548Y-24863452D01*
X4671500Y-24872976D01*
X4623881Y-24872976D01*
X4604833Y-24863452D01*
X4595310Y-24853928D01*
X4833405Y-24672976D02*
X4852452Y-24672976D01*
X4871500Y-24682500D01*
X4881024Y-24692024D01*
X4890548Y-24711071D01*
X4900071Y-24749167D01*
X4900071Y-24796786D01*
X4890548Y-24834881D01*
X4881024Y-24853928D01*
X4871500Y-24863452D01*
X4852452Y-24872976D01*
X4833405Y-24872976D01*
X4814357Y-24863452D01*
X4804833Y-24853928D01*
X4795310Y-24834881D01*
X4785786Y-24796786D01*
X4785786Y-24749167D01*
X4795310Y-24711071D01*
X4804833Y-24692024D01*
X4814357Y-24682500D01*
X4833405Y-24672976D01*
X5023881Y-24672976D02*
X5042929Y-24672976D01*
X5061976Y-24682500D01*
X5071500Y-24692024D01*
X5081024Y-24711071D01*
X5090548Y-24749167D01*
X5090548Y-24796786D01*
X5081024Y-24834881D01*
X5071500Y-24853928D01*
X5061976Y-24863452D01*
X5042929Y-24872976D01*
X5023881Y-24872976D01*
X5004833Y-24863452D01*
X4995310Y-24853928D01*
X4985786Y-24834881D01*
X4976262Y-24796786D01*
X4976262Y-24749167D01*
X4985786Y-24711071D01*
X4995310Y-24692024D01*
X5004833Y-24682500D01*
X5023881Y-24672976D01*
X5176262Y-24872976D02*
X5176262Y-24739643D01*
X5176262Y-24758690D02*
X5185786Y-24749167D01*
X5204833Y-24739643D01*
X5233405Y-24739643D01*
X5252452Y-24749167D01*
X5261976Y-24768214D01*
X5261976Y-24872976D01*
X5261976Y-24768214D02*
X5271500Y-24749167D01*
X5290548Y-24739643D01*
X5319119Y-24739643D01*
X5338167Y-24749167D01*
X5347690Y-24768214D01*
X5347690Y-24872976D01*
X5442929Y-24872976D02*
X5442929Y-24739643D01*
X5442929Y-24758690D02*
X5452452Y-24749167D01*
X5471500Y-24739643D01*
X5500071Y-24739643D01*
X5519119Y-24749167D01*
X5528643Y-24768214D01*
X5528643Y-24872976D01*
X5528643Y-24768214D02*
X5538167Y-24749167D01*
X5557214Y-24739643D01*
X5585786Y-24739643D01*
X5604833Y-24749167D01*
X5614357Y-24768214D01*
X5614357Y-24872976D01*
X6004833Y-24663452D02*
X5833405Y-24920595D01*
X6261976Y-24672976D02*
X6281024Y-24672976D01*
X6300071Y-24682500D01*
X6309595Y-24692024D01*
X6319119Y-24711071D01*
X6328643Y-24749167D01*
X6328643Y-24796786D01*
X6319119Y-24834881D01*
X6309595Y-24853928D01*
X6300071Y-24863452D01*
X6281024Y-24872976D01*
X6261976Y-24872976D01*
X6242928Y-24863452D01*
X6233405Y-24853928D01*
X6223881Y-24834881D01*
X6214357Y-24796786D01*
X6214357Y-24749167D01*
X6223881Y-24711071D01*
X6233405Y-24692024D01*
X6242928Y-24682500D01*
X6261976Y-24672976D01*
X6414357Y-24853928D02*
X6423881Y-24863452D01*
X6414357Y-24872976D01*
X6404833Y-24863452D01*
X6414357Y-24853928D01*
X6414357Y-24872976D01*
X6547690Y-24672976D02*
X6566738Y-24672976D01*
X6585786Y-24682500D01*
X6595309Y-24692024D01*
X6604833Y-24711071D01*
X6614357Y-24749167D01*
X6614357Y-24796786D01*
X6604833Y-24834881D01*
X6595309Y-24853928D01*
X6585786Y-24863452D01*
X6566738Y-24872976D01*
X6547690Y-24872976D01*
X6528643Y-24863452D01*
X6519119Y-24853928D01*
X6509595Y-24834881D01*
X6500071Y-24796786D01*
X6500071Y-24749167D01*
X6509595Y-24711071D01*
X6519119Y-24692024D01*
X6528643Y-24682500D01*
X6547690Y-24672976D01*
X6804833Y-24872976D02*
X6690548Y-24872976D01*
X6747690Y-24872976D02*
X6747690Y-24672976D01*
X6728643Y-24701548D01*
X6709595Y-24720595D01*
X6690548Y-24730119D01*
X6900071Y-24872976D02*
X6938167Y-24872976D01*
X6957214Y-24863452D01*
X6966738Y-24853928D01*
X6985786Y-24825357D01*
X6995309Y-24787262D01*
X6995309Y-24711071D01*
X6985786Y-24692024D01*
X6976262Y-24682500D01*
X6957214Y-24672976D01*
X6919119Y-24672976D01*
X6900071Y-24682500D01*
X6890548Y-24692024D01*
X6881024Y-24711071D01*
X6881024Y-24758690D01*
X6890548Y-24777738D01*
X6900071Y-24787262D01*
X6919119Y-24796786D01*
X6957214Y-24796786D01*
X6976262Y-24787262D01*
X6985786Y-24777738D01*
X6995309Y-24758690D01*
X7061976Y-24672976D02*
X7195309Y-24672976D01*
X7109595Y-24872976D01*
X7261976Y-24672976D02*
X7261976Y-24711071D01*
X7338167Y-24672976D02*
X7338167Y-24711071D01*
X7633405Y-24949167D02*
X7623881Y-24939643D01*
X7604833Y-24911071D01*
X7595309Y-24892024D01*
X7585786Y-24863452D01*
X7576262Y-24815833D01*
X7576262Y-24777738D01*
X7585786Y-24730119D01*
X7595309Y-24701548D01*
X7604833Y-24682500D01*
X7623881Y-24653928D01*
X7633405Y-24644405D01*
X7690548Y-24672976D02*
X7814357Y-24672976D01*
X7747690Y-24749167D01*
X7776262Y-24749167D01*
X7795309Y-24758690D01*
X7804833Y-24768214D01*
X7814357Y-24787262D01*
X7814357Y-24834881D01*
X7804833Y-24853928D01*
X7795309Y-24863452D01*
X7776262Y-24872976D01*
X7719119Y-24872976D01*
X7700071Y-24863452D01*
X7690548Y-24853928D01*
X7909595Y-24872976D02*
X7947690Y-24872976D01*
X7966738Y-24863452D01*
X7976262Y-24853928D01*
X7995309Y-24825357D01*
X8004833Y-24787262D01*
X8004833Y-24711071D01*
X7995309Y-24692024D01*
X7985786Y-24682500D01*
X7966738Y-24672976D01*
X7928643Y-24672976D01*
X7909595Y-24682500D01*
X7900071Y-24692024D01*
X7890548Y-24711071D01*
X7890548Y-24758690D01*
X7900071Y-24777738D01*
X7909595Y-24787262D01*
X7928643Y-24796786D01*
X7966738Y-24796786D01*
X7985786Y-24787262D01*
X7995309Y-24777738D01*
X8004833Y-24758690D01*
X8185786Y-24672976D02*
X8090548Y-24672976D01*
X8081024Y-24768214D01*
X8090548Y-24758690D01*
X8109595Y-24749167D01*
X8157214Y-24749167D01*
X8176262Y-24758690D01*
X8185786Y-24768214D01*
X8195309Y-24787262D01*
X8195309Y-24834881D01*
X8185786Y-24853928D01*
X8176262Y-24863452D01*
X8157214Y-24872976D01*
X8109595Y-24872976D01*
X8090548Y-24863452D01*
X8081024Y-24853928D01*
X8433405Y-24872976D02*
X8433405Y-24672976D01*
X8519119Y-24872976D02*
X8519119Y-24768214D01*
X8509595Y-24749167D01*
X8490548Y-24739643D01*
X8461976Y-24739643D01*
X8442929Y-24749167D01*
X8433405Y-24758690D01*
X8642929Y-24872976D02*
X8623881Y-24863452D01*
X8614357Y-24853928D01*
X8604833Y-24834881D01*
X8604833Y-24777738D01*
X8614357Y-24758690D01*
X8623881Y-24749167D01*
X8642929Y-24739643D01*
X8671500Y-24739643D01*
X8690548Y-24749167D01*
X8700071Y-24758690D01*
X8709595Y-24777738D01*
X8709595Y-24834881D01*
X8700071Y-24853928D01*
X8690548Y-24863452D01*
X8671500Y-24872976D01*
X8642929Y-24872976D01*
X8823881Y-24872976D02*
X8804833Y-24863452D01*
X8795310Y-24844405D01*
X8795310Y-24672976D01*
X8976262Y-24863452D02*
X8957214Y-24872976D01*
X8919119Y-24872976D01*
X8900071Y-24863452D01*
X8890548Y-24844405D01*
X8890548Y-24768214D01*
X8900071Y-24749167D01*
X8919119Y-24739643D01*
X8957214Y-24739643D01*
X8976262Y-24749167D01*
X8985786Y-24768214D01*
X8985786Y-24787262D01*
X8890548Y-24806309D01*
X9061976Y-24863452D02*
X9081024Y-24872976D01*
X9119119Y-24872976D01*
X9138167Y-24863452D01*
X9147690Y-24844405D01*
X9147690Y-24834881D01*
X9138167Y-24815833D01*
X9119119Y-24806309D01*
X9090548Y-24806309D01*
X9071500Y-24796786D01*
X9061976Y-24777738D01*
X9061976Y-24768214D01*
X9071500Y-24749167D01*
X9090548Y-24739643D01*
X9119119Y-24739643D01*
X9138167Y-24749167D01*
X9214357Y-24949167D02*
X9223881Y-24939643D01*
X9242929Y-24911071D01*
X9252452Y-24892024D01*
X9261976Y-24863452D01*
X9271500Y-24815833D01*
X9271500Y-24777738D01*
X9261976Y-24730119D01*
X9252452Y-24701548D01*
X9242929Y-24682500D01*
X9223881Y-24653928D01*
X9214357Y-24644405D01*
D14*
X4021500Y-25006500D02*
X4021500Y-25086500D01*
X3981500Y-25046500D02*
X4061500Y-25046500D01*
D11*
X4357214Y-24936976D02*
X4376262Y-24936976D01*
X4395310Y-24946500D01*
X4404833Y-24956024D01*
X4414357Y-24975071D01*
X4423881Y-25013167D01*
X4423881Y-25060786D01*
X4414357Y-25098881D01*
X4404833Y-25117928D01*
X4395310Y-25127452D01*
X4376262Y-25136976D01*
X4357214Y-25136976D01*
X4338167Y-25127452D01*
X4328643Y-25117928D01*
X4319119Y-25098881D01*
X4309595Y-25060786D01*
X4309595Y-25013167D01*
X4319119Y-24975071D01*
X4328643Y-24956024D01*
X4338167Y-24946500D01*
X4357214Y-24936976D01*
X4509595Y-25117928D02*
X4519119Y-25127452D01*
X4509595Y-25136976D01*
X4500071Y-25127452D01*
X4509595Y-25117928D01*
X4509595Y-25136976D01*
X4633405Y-25022690D02*
X4614357Y-25013167D01*
X4604833Y-25003643D01*
X4595310Y-24984595D01*
X4595310Y-24975071D01*
X4604833Y-24956024D01*
X4614357Y-24946500D01*
X4633405Y-24936976D01*
X4671500Y-24936976D01*
X4690548Y-24946500D01*
X4700071Y-24956024D01*
X4709595Y-24975071D01*
X4709595Y-24984595D01*
X4700071Y-25003643D01*
X4690548Y-25013167D01*
X4671500Y-25022690D01*
X4633405Y-25022690D01*
X4614357Y-25032214D01*
X4604833Y-25041738D01*
X4595310Y-25060786D01*
X4595310Y-25098881D01*
X4604833Y-25117928D01*
X4614357Y-25127452D01*
X4633405Y-25136976D01*
X4671500Y-25136976D01*
X4690548Y-25127452D01*
X4700071Y-25117928D01*
X4709595Y-25098881D01*
X4709595Y-25060786D01*
X4700071Y-25041738D01*
X4690548Y-25032214D01*
X4671500Y-25022690D01*
X4833405Y-24936976D02*
X4852452Y-24936976D01*
X4871500Y-24946500D01*
X4881024Y-24956024D01*
X4890548Y-24975071D01*
X4900071Y-25013167D01*
X4900071Y-25060786D01*
X4890548Y-25098881D01*
X4881024Y-25117928D01*
X4871500Y-25127452D01*
X4852452Y-25136976D01*
X4833405Y-25136976D01*
X4814357Y-25127452D01*
X4804833Y-25117928D01*
X4795310Y-25098881D01*
X4785786Y-25060786D01*
X4785786Y-25013167D01*
X4795310Y-24975071D01*
X4804833Y-24956024D01*
X4814357Y-24946500D01*
X4833405Y-24936976D01*
X5023881Y-24936976D02*
X5042929Y-24936976D01*
X5061976Y-24946500D01*
X5071500Y-24956024D01*
X5081024Y-24975071D01*
X5090548Y-25013167D01*
X5090548Y-25060786D01*
X5081024Y-25098881D01*
X5071500Y-25117928D01*
X5061976Y-25127452D01*
X5042929Y-25136976D01*
X5023881Y-25136976D01*
X5004833Y-25127452D01*
X4995310Y-25117928D01*
X4985786Y-25098881D01*
X4976262Y-25060786D01*
X4976262Y-25013167D01*
X4985786Y-24975071D01*
X4995310Y-24956024D01*
X5004833Y-24946500D01*
X5023881Y-24936976D01*
X5176262Y-25136976D02*
X5176262Y-25003643D01*
X5176262Y-25022690D02*
X5185786Y-25013167D01*
X5204833Y-25003643D01*
X5233405Y-25003643D01*
X5252452Y-25013167D01*
X5261976Y-25032214D01*
X5261976Y-25136976D01*
X5261976Y-25032214D02*
X5271500Y-25013167D01*
X5290548Y-25003643D01*
X5319119Y-25003643D01*
X5338167Y-25013167D01*
X5347690Y-25032214D01*
X5347690Y-25136976D01*
X5442929Y-25136976D02*
X5442929Y-25003643D01*
X5442929Y-25022690D02*
X5452452Y-25013167D01*
X5471500Y-25003643D01*
X5500071Y-25003643D01*
X5519119Y-25013167D01*
X5528643Y-25032214D01*
X5528643Y-25136976D01*
X5528643Y-25032214D02*
X5538167Y-25013167D01*
X5557214Y-25003643D01*
X5585786Y-25003643D01*
X5604833Y-25013167D01*
X5614357Y-25032214D01*
X5614357Y-25136976D01*
X6004833Y-24927452D02*
X5833405Y-25184595D01*
X6261976Y-24936976D02*
X6281024Y-24936976D01*
X6300071Y-24946500D01*
X6309595Y-24956024D01*
X6319119Y-24975071D01*
X6328643Y-25013167D01*
X6328643Y-25060786D01*
X6319119Y-25098881D01*
X6309595Y-25117928D01*
X6300071Y-25127452D01*
X6281024Y-25136976D01*
X6261976Y-25136976D01*
X6242928Y-25127452D01*
X6233405Y-25117928D01*
X6223881Y-25098881D01*
X6214357Y-25060786D01*
X6214357Y-25013167D01*
X6223881Y-24975071D01*
X6233405Y-24956024D01*
X6242928Y-24946500D01*
X6261976Y-24936976D01*
X6414357Y-25117928D02*
X6423881Y-25127452D01*
X6414357Y-25136976D01*
X6404833Y-25127452D01*
X6414357Y-25117928D01*
X6414357Y-25136976D01*
X6547690Y-24936976D02*
X6566738Y-24936976D01*
X6585786Y-24946500D01*
X6595309Y-24956024D01*
X6604833Y-24975071D01*
X6614357Y-25013167D01*
X6614357Y-25060786D01*
X6604833Y-25098881D01*
X6595309Y-25117928D01*
X6585786Y-25127452D01*
X6566738Y-25136976D01*
X6547690Y-25136976D01*
X6528643Y-25127452D01*
X6519119Y-25117928D01*
X6509595Y-25098881D01*
X6500071Y-25060786D01*
X6500071Y-25013167D01*
X6509595Y-24975071D01*
X6519119Y-24956024D01*
X6528643Y-24946500D01*
X6547690Y-24936976D01*
X6681024Y-24936976D02*
X6804833Y-24936976D01*
X6738167Y-25013167D01*
X6766738Y-25013167D01*
X6785786Y-25022690D01*
X6795309Y-25032214D01*
X6804833Y-25051262D01*
X6804833Y-25098881D01*
X6795309Y-25117928D01*
X6785786Y-25127452D01*
X6766738Y-25136976D01*
X6709595Y-25136976D01*
X6690548Y-25127452D01*
X6681024Y-25117928D01*
X6995309Y-25136976D02*
X6881024Y-25136976D01*
X6938167Y-25136976D02*
X6938167Y-24936976D01*
X6919119Y-24965548D01*
X6900071Y-24984595D01*
X6881024Y-24994119D01*
X7176262Y-24936976D02*
X7081024Y-24936976D01*
X7071500Y-25032214D01*
X7081024Y-25022690D01*
X7100071Y-25013167D01*
X7147690Y-25013167D01*
X7166738Y-25022690D01*
X7176262Y-25032214D01*
X7185786Y-25051262D01*
X7185786Y-25098881D01*
X7176262Y-25117928D01*
X7166738Y-25127452D01*
X7147690Y-25136976D01*
X7100071Y-25136976D01*
X7081024Y-25127452D01*
X7071500Y-25117928D01*
X7261976Y-24936976D02*
X7261976Y-24975071D01*
X7338167Y-24936976D02*
X7338167Y-24975071D01*
X7633405Y-25213167D02*
X7623881Y-25203643D01*
X7604833Y-25175071D01*
X7595309Y-25156024D01*
X7585786Y-25127452D01*
X7576262Y-25079833D01*
X7576262Y-25041738D01*
X7585786Y-24994119D01*
X7595309Y-24965548D01*
X7604833Y-24946500D01*
X7623881Y-24917928D01*
X7633405Y-24908405D01*
X7814357Y-25136976D02*
X7700071Y-25136976D01*
X7757214Y-25136976D02*
X7757214Y-24936976D01*
X7738167Y-24965548D01*
X7719119Y-24984595D01*
X7700071Y-24994119D01*
X8052452Y-25136976D02*
X8052452Y-24936976D01*
X8138167Y-25136976D02*
X8138167Y-25032214D01*
X8128643Y-25013167D01*
X8109595Y-25003643D01*
X8081024Y-25003643D01*
X8061976Y-25013167D01*
X8052452Y-25022690D01*
X8261976Y-25136976D02*
X8242928Y-25127452D01*
X8233405Y-25117928D01*
X8223881Y-25098881D01*
X8223881Y-25041738D01*
X8233405Y-25022690D01*
X8242928Y-25013167D01*
X8261976Y-25003643D01*
X8290548Y-25003643D01*
X8309595Y-25013167D01*
X8319119Y-25022690D01*
X8328643Y-25041738D01*
X8328643Y-25098881D01*
X8319119Y-25117928D01*
X8309595Y-25127452D01*
X8290548Y-25136976D01*
X8261976Y-25136976D01*
X8442929Y-25136976D02*
X8423881Y-25127452D01*
X8414357Y-25108405D01*
X8414357Y-24936976D01*
X8595310Y-25127452D02*
X8576262Y-25136976D01*
X8538167Y-25136976D01*
X8519119Y-25127452D01*
X8509595Y-25108405D01*
X8509595Y-25032214D01*
X8519119Y-25013167D01*
X8538167Y-25003643D01*
X8576262Y-25003643D01*
X8595310Y-25013167D01*
X8604833Y-25032214D01*
X8604833Y-25051262D01*
X8509595Y-25070309D01*
X8671500Y-25213167D02*
X8681024Y-25203643D01*
X8700071Y-25175071D01*
X8709595Y-25156024D01*
X8719119Y-25127452D01*
X8728643Y-25079833D01*
X8728643Y-25041738D01*
X8719119Y-24994119D01*
X8709595Y-24965548D01*
X8700071Y-24946500D01*
X8681024Y-24917928D01*
X8671500Y-24908405D01*
D14*
X4049784Y-25338784D02*
X4049784Y-25282215D01*
X3993215Y-25282215D01*
X3993215Y-25338784D01*
X4049784Y-25338784D01*
D11*
X4357214Y-25200976D02*
X4376262Y-25200976D01*
X4395310Y-25210500D01*
X4404833Y-25220024D01*
X4414357Y-25239071D01*
X4423881Y-25277167D01*
X4423881Y-25324786D01*
X4414357Y-25362881D01*
X4404833Y-25381928D01*
X4395310Y-25391452D01*
X4376262Y-25400976D01*
X4357214Y-25400976D01*
X4338167Y-25391452D01*
X4328643Y-25381928D01*
X4319119Y-25362881D01*
X4309595Y-25324786D01*
X4309595Y-25277167D01*
X4319119Y-25239071D01*
X4328643Y-25220024D01*
X4338167Y-25210500D01*
X4357214Y-25200976D01*
X4509595Y-25381928D02*
X4519119Y-25391452D01*
X4509595Y-25400976D01*
X4500071Y-25391452D01*
X4509595Y-25381928D01*
X4509595Y-25400976D01*
X4633405Y-25286690D02*
X4614357Y-25277167D01*
X4604833Y-25267643D01*
X4595310Y-25248595D01*
X4595310Y-25239071D01*
X4604833Y-25220024D01*
X4614357Y-25210500D01*
X4633405Y-25200976D01*
X4671500Y-25200976D01*
X4690548Y-25210500D01*
X4700071Y-25220024D01*
X4709595Y-25239071D01*
X4709595Y-25248595D01*
X4700071Y-25267643D01*
X4690548Y-25277167D01*
X4671500Y-25286690D01*
X4633405Y-25286690D01*
X4614357Y-25296214D01*
X4604833Y-25305738D01*
X4595310Y-25324786D01*
X4595310Y-25362881D01*
X4604833Y-25381928D01*
X4614357Y-25391452D01*
X4633405Y-25400976D01*
X4671500Y-25400976D01*
X4690548Y-25391452D01*
X4700071Y-25381928D01*
X4709595Y-25362881D01*
X4709595Y-25324786D01*
X4700071Y-25305738D01*
X4690548Y-25296214D01*
X4671500Y-25286690D01*
X4833405Y-25200976D02*
X4852452Y-25200976D01*
X4871500Y-25210500D01*
X4881024Y-25220024D01*
X4890548Y-25239071D01*
X4900071Y-25277167D01*
X4900071Y-25324786D01*
X4890548Y-25362881D01*
X4881024Y-25381928D01*
X4871500Y-25391452D01*
X4852452Y-25400976D01*
X4833405Y-25400976D01*
X4814357Y-25391452D01*
X4804833Y-25381928D01*
X4795310Y-25362881D01*
X4785786Y-25324786D01*
X4785786Y-25277167D01*
X4795310Y-25239071D01*
X4804833Y-25220024D01*
X4814357Y-25210500D01*
X4833405Y-25200976D01*
X5023881Y-25200976D02*
X5042929Y-25200976D01*
X5061976Y-25210500D01*
X5071500Y-25220024D01*
X5081024Y-25239071D01*
X5090548Y-25277167D01*
X5090548Y-25324786D01*
X5081024Y-25362881D01*
X5071500Y-25381928D01*
X5061976Y-25391452D01*
X5042929Y-25400976D01*
X5023881Y-25400976D01*
X5004833Y-25391452D01*
X4995310Y-25381928D01*
X4985786Y-25362881D01*
X4976262Y-25324786D01*
X4976262Y-25277167D01*
X4985786Y-25239071D01*
X4995310Y-25220024D01*
X5004833Y-25210500D01*
X5023881Y-25200976D01*
X5176262Y-25400976D02*
X5176262Y-25267643D01*
X5176262Y-25286690D02*
X5185786Y-25277167D01*
X5204833Y-25267643D01*
X5233405Y-25267643D01*
X5252452Y-25277167D01*
X5261976Y-25296214D01*
X5261976Y-25400976D01*
X5261976Y-25296214D02*
X5271500Y-25277167D01*
X5290548Y-25267643D01*
X5319119Y-25267643D01*
X5338167Y-25277167D01*
X5347690Y-25296214D01*
X5347690Y-25400976D01*
X5442929Y-25400976D02*
X5442929Y-25267643D01*
X5442929Y-25286690D02*
X5452452Y-25277167D01*
X5471500Y-25267643D01*
X5500071Y-25267643D01*
X5519119Y-25277167D01*
X5528643Y-25296214D01*
X5528643Y-25400976D01*
X5528643Y-25296214D02*
X5538167Y-25277167D01*
X5557214Y-25267643D01*
X5585786Y-25267643D01*
X5604833Y-25277167D01*
X5614357Y-25296214D01*
X5614357Y-25400976D01*
X6004833Y-25191452D02*
X5833405Y-25448595D01*
X6261976Y-25200976D02*
X6281024Y-25200976D01*
X6300071Y-25210500D01*
X6309595Y-25220024D01*
X6319119Y-25239071D01*
X6328643Y-25277167D01*
X6328643Y-25324786D01*
X6319119Y-25362881D01*
X6309595Y-25381928D01*
X6300071Y-25391452D01*
X6281024Y-25400976D01*
X6261976Y-25400976D01*
X6242928Y-25391452D01*
X6233405Y-25381928D01*
X6223881Y-25362881D01*
X6214357Y-25324786D01*
X6214357Y-25277167D01*
X6223881Y-25239071D01*
X6233405Y-25220024D01*
X6242928Y-25210500D01*
X6261976Y-25200976D01*
X6414357Y-25381928D02*
X6423881Y-25391452D01*
X6414357Y-25400976D01*
X6404833Y-25391452D01*
X6414357Y-25381928D01*
X6414357Y-25400976D01*
X6547690Y-25200976D02*
X6566738Y-25200976D01*
X6585786Y-25210500D01*
X6595309Y-25220024D01*
X6604833Y-25239071D01*
X6614357Y-25277167D01*
X6614357Y-25324786D01*
X6604833Y-25362881D01*
X6595309Y-25381928D01*
X6585786Y-25391452D01*
X6566738Y-25400976D01*
X6547690Y-25400976D01*
X6528643Y-25391452D01*
X6519119Y-25381928D01*
X6509595Y-25362881D01*
X6500071Y-25324786D01*
X6500071Y-25277167D01*
X6509595Y-25239071D01*
X6519119Y-25220024D01*
X6528643Y-25210500D01*
X6547690Y-25200976D01*
X6681024Y-25200976D02*
X6804833Y-25200976D01*
X6738167Y-25277167D01*
X6766738Y-25277167D01*
X6785786Y-25286690D01*
X6795309Y-25296214D01*
X6804833Y-25315262D01*
X6804833Y-25362881D01*
X6795309Y-25381928D01*
X6785786Y-25391452D01*
X6766738Y-25400976D01*
X6709595Y-25400976D01*
X6690548Y-25391452D01*
X6681024Y-25381928D01*
X6995309Y-25400976D02*
X6881024Y-25400976D01*
X6938167Y-25400976D02*
X6938167Y-25200976D01*
X6919119Y-25229548D01*
X6900071Y-25248595D01*
X6881024Y-25258119D01*
X7176262Y-25200976D02*
X7081024Y-25200976D01*
X7071500Y-25296214D01*
X7081024Y-25286690D01*
X7100071Y-25277167D01*
X7147690Y-25277167D01*
X7166738Y-25286690D01*
X7176262Y-25296214D01*
X7185786Y-25315262D01*
X7185786Y-25362881D01*
X7176262Y-25381928D01*
X7166738Y-25391452D01*
X7147690Y-25400976D01*
X7100071Y-25400976D01*
X7081024Y-25391452D01*
X7071500Y-25381928D01*
X7261976Y-25200976D02*
X7261976Y-25239071D01*
X7338167Y-25200976D02*
X7338167Y-25239071D01*
X7633405Y-25477167D02*
X7623881Y-25467643D01*
X7604833Y-25439071D01*
X7595309Y-25420024D01*
X7585786Y-25391452D01*
X7576262Y-25343833D01*
X7576262Y-25305738D01*
X7585786Y-25258119D01*
X7595309Y-25229548D01*
X7604833Y-25210500D01*
X7623881Y-25181928D01*
X7633405Y-25172405D01*
X7814357Y-25400976D02*
X7700071Y-25400976D01*
X7757214Y-25400976D02*
X7757214Y-25200976D01*
X7738167Y-25229548D01*
X7719119Y-25248595D01*
X7700071Y-25258119D01*
X7938167Y-25200976D02*
X7957214Y-25200976D01*
X7976262Y-25210500D01*
X7985786Y-25220024D01*
X7995309Y-25239071D01*
X8004833Y-25277167D01*
X8004833Y-25324786D01*
X7995309Y-25362881D01*
X7985786Y-25381928D01*
X7976262Y-25391452D01*
X7957214Y-25400976D01*
X7938167Y-25400976D01*
X7919119Y-25391452D01*
X7909595Y-25381928D01*
X7900071Y-25362881D01*
X7890548Y-25324786D01*
X7890548Y-25277167D01*
X7900071Y-25239071D01*
X7909595Y-25220024D01*
X7919119Y-25210500D01*
X7938167Y-25200976D01*
X8176262Y-25267643D02*
X8176262Y-25400976D01*
X8128643Y-25191452D02*
X8081024Y-25334309D01*
X8204833Y-25334309D01*
X8433405Y-25400976D02*
X8433405Y-25200976D01*
X8519119Y-25400976D02*
X8519119Y-25296214D01*
X8509595Y-25277167D01*
X8490548Y-25267643D01*
X8461976Y-25267643D01*
X8442929Y-25277167D01*
X8433405Y-25286690D01*
X8642929Y-25400976D02*
X8623881Y-25391452D01*
X8614357Y-25381928D01*
X8604833Y-25362881D01*
X8604833Y-25305738D01*
X8614357Y-25286690D01*
X8623881Y-25277167D01*
X8642929Y-25267643D01*
X8671500Y-25267643D01*
X8690548Y-25277167D01*
X8700071Y-25286690D01*
X8709595Y-25305738D01*
X8709595Y-25362881D01*
X8700071Y-25381928D01*
X8690548Y-25391452D01*
X8671500Y-25400976D01*
X8642929Y-25400976D01*
X8823881Y-25400976D02*
X8804833Y-25391452D01*
X8795310Y-25372405D01*
X8795310Y-25200976D01*
X8976262Y-25391452D02*
X8957214Y-25400976D01*
X8919119Y-25400976D01*
X8900071Y-25391452D01*
X8890548Y-25372405D01*
X8890548Y-25296214D01*
X8900071Y-25277167D01*
X8919119Y-25267643D01*
X8957214Y-25267643D01*
X8976262Y-25277167D01*
X8985786Y-25296214D01*
X8985786Y-25315262D01*
X8890548Y-25334309D01*
X9061976Y-25391452D02*
X9081024Y-25400976D01*
X9119119Y-25400976D01*
X9138167Y-25391452D01*
X9147690Y-25372405D01*
X9147690Y-25362881D01*
X9138167Y-25343833D01*
X9119119Y-25334309D01*
X9090548Y-25334309D01*
X9071500Y-25324786D01*
X9061976Y-25305738D01*
X9061976Y-25296214D01*
X9071500Y-25277167D01*
X9090548Y-25267643D01*
X9119119Y-25267643D01*
X9138167Y-25277167D01*
X9214357Y-25477167D02*
X9223881Y-25467643D01*
X9242929Y-25439071D01*
X9252452Y-25420024D01*
X9261976Y-25391452D01*
X9271500Y-25343833D01*
X9271500Y-25305738D01*
X9261976Y-25258119D01*
X9252452Y-25229548D01*
X9242929Y-25210500D01*
X9223881Y-25181928D01*
X9214357Y-25172405D01*
D15*
X4016500Y-25619500D02*
X4061500Y-25574500D01*
X4016500Y-25529500D01*
X3971500Y-25574500D01*
X4016500Y-25619500D01*
D11*
X4357214Y-25464976D02*
X4376262Y-25464976D01*
X4395310Y-25474500D01*
X4404833Y-25484024D01*
X4414357Y-25503071D01*
X4423881Y-25541167D01*
X4423881Y-25588786D01*
X4414357Y-25626881D01*
X4404833Y-25645928D01*
X4395310Y-25655452D01*
X4376262Y-25664976D01*
X4357214Y-25664976D01*
X4338167Y-25655452D01*
X4328643Y-25645928D01*
X4319119Y-25626881D01*
X4309595Y-25588786D01*
X4309595Y-25541167D01*
X4319119Y-25503071D01*
X4328643Y-25484024D01*
X4338167Y-25474500D01*
X4357214Y-25464976D01*
X4509595Y-25645928D02*
X4519119Y-25655452D01*
X4509595Y-25664976D01*
X4500071Y-25655452D01*
X4509595Y-25645928D01*
X4509595Y-25664976D01*
X4614357Y-25664976D02*
X4652452Y-25664976D01*
X4671500Y-25655452D01*
X4681024Y-25645928D01*
X4700071Y-25617357D01*
X4709595Y-25579262D01*
X4709595Y-25503071D01*
X4700071Y-25484024D01*
X4690548Y-25474500D01*
X4671500Y-25464976D01*
X4633405Y-25464976D01*
X4614357Y-25474500D01*
X4604833Y-25484024D01*
X4595310Y-25503071D01*
X4595310Y-25550690D01*
X4604833Y-25569738D01*
X4614357Y-25579262D01*
X4633405Y-25588786D01*
X4671500Y-25588786D01*
X4690548Y-25579262D01*
X4700071Y-25569738D01*
X4709595Y-25550690D01*
X4833405Y-25464976D02*
X4852452Y-25464976D01*
X4871500Y-25474500D01*
X4881024Y-25484024D01*
X4890548Y-25503071D01*
X4900071Y-25541167D01*
X4900071Y-25588786D01*
X4890548Y-25626881D01*
X4881024Y-25645928D01*
X4871500Y-25655452D01*
X4852452Y-25664976D01*
X4833405Y-25664976D01*
X4814357Y-25655452D01*
X4804833Y-25645928D01*
X4795310Y-25626881D01*
X4785786Y-25588786D01*
X4785786Y-25541167D01*
X4795310Y-25503071D01*
X4804833Y-25484024D01*
X4814357Y-25474500D01*
X4833405Y-25464976D01*
X5023881Y-25464976D02*
X5042929Y-25464976D01*
X5061976Y-25474500D01*
X5071500Y-25484024D01*
X5081024Y-25503071D01*
X5090548Y-25541167D01*
X5090548Y-25588786D01*
X5081024Y-25626881D01*
X5071500Y-25645928D01*
X5061976Y-25655452D01*
X5042929Y-25664976D01*
X5023881Y-25664976D01*
X5004833Y-25655452D01*
X4995310Y-25645928D01*
X4985786Y-25626881D01*
X4976262Y-25588786D01*
X4976262Y-25541167D01*
X4985786Y-25503071D01*
X4995310Y-25484024D01*
X5004833Y-25474500D01*
X5023881Y-25464976D01*
X5176262Y-25664976D02*
X5176262Y-25531643D01*
X5176262Y-25550690D02*
X5185786Y-25541167D01*
X5204833Y-25531643D01*
X5233405Y-25531643D01*
X5252452Y-25541167D01*
X5261976Y-25560214D01*
X5261976Y-25664976D01*
X5261976Y-25560214D02*
X5271500Y-25541167D01*
X5290548Y-25531643D01*
X5319119Y-25531643D01*
X5338167Y-25541167D01*
X5347690Y-25560214D01*
X5347690Y-25664976D01*
X5442929Y-25664976D02*
X5442929Y-25531643D01*
X5442929Y-25550690D02*
X5452452Y-25541167D01*
X5471500Y-25531643D01*
X5500071Y-25531643D01*
X5519119Y-25541167D01*
X5528643Y-25560214D01*
X5528643Y-25664976D01*
X5528643Y-25560214D02*
X5538167Y-25541167D01*
X5557214Y-25531643D01*
X5585786Y-25531643D01*
X5604833Y-25541167D01*
X5614357Y-25560214D01*
X5614357Y-25664976D01*
X6004833Y-25455452D02*
X5833405Y-25712595D01*
X6261976Y-25464976D02*
X6281024Y-25464976D01*
X6300071Y-25474500D01*
X6309595Y-25484024D01*
X6319119Y-25503071D01*
X6328643Y-25541167D01*
X6328643Y-25588786D01*
X6319119Y-25626881D01*
X6309595Y-25645928D01*
X6300071Y-25655452D01*
X6281024Y-25664976D01*
X6261976Y-25664976D01*
X6242928Y-25655452D01*
X6233405Y-25645928D01*
X6223881Y-25626881D01*
X6214357Y-25588786D01*
X6214357Y-25541167D01*
X6223881Y-25503071D01*
X6233405Y-25484024D01*
X6242928Y-25474500D01*
X6261976Y-25464976D01*
X6414357Y-25645928D02*
X6423881Y-25655452D01*
X6414357Y-25664976D01*
X6404833Y-25655452D01*
X6414357Y-25645928D01*
X6414357Y-25664976D01*
X6547690Y-25464976D02*
X6566738Y-25464976D01*
X6585786Y-25474500D01*
X6595309Y-25484024D01*
X6604833Y-25503071D01*
X6614357Y-25541167D01*
X6614357Y-25588786D01*
X6604833Y-25626881D01*
X6595309Y-25645928D01*
X6585786Y-25655452D01*
X6566738Y-25664976D01*
X6547690Y-25664976D01*
X6528643Y-25655452D01*
X6519119Y-25645928D01*
X6509595Y-25626881D01*
X6500071Y-25588786D01*
X6500071Y-25541167D01*
X6509595Y-25503071D01*
X6519119Y-25484024D01*
X6528643Y-25474500D01*
X6547690Y-25464976D01*
X6681024Y-25464976D02*
X6804833Y-25464976D01*
X6738167Y-25541167D01*
X6766738Y-25541167D01*
X6785786Y-25550690D01*
X6795309Y-25560214D01*
X6804833Y-25579262D01*
X6804833Y-25626881D01*
X6795309Y-25645928D01*
X6785786Y-25655452D01*
X6766738Y-25664976D01*
X6709595Y-25664976D01*
X6690548Y-25655452D01*
X6681024Y-25645928D01*
X6985786Y-25464976D02*
X6890548Y-25464976D01*
X6881024Y-25560214D01*
X6890548Y-25550690D01*
X6909595Y-25541167D01*
X6957214Y-25541167D01*
X6976262Y-25550690D01*
X6985786Y-25560214D01*
X6995309Y-25579262D01*
X6995309Y-25626881D01*
X6985786Y-25645928D01*
X6976262Y-25655452D01*
X6957214Y-25664976D01*
X6909595Y-25664976D01*
X6890548Y-25655452D01*
X6881024Y-25645928D01*
X7166738Y-25531643D02*
X7166738Y-25664976D01*
X7119119Y-25455452D02*
X7071500Y-25598309D01*
X7195309Y-25598309D01*
X7261976Y-25464976D02*
X7261976Y-25503071D01*
X7338167Y-25464976D02*
X7338167Y-25503071D01*
X7633405Y-25741167D02*
X7623881Y-25731643D01*
X7604833Y-25703071D01*
X7595309Y-25684024D01*
X7585786Y-25655452D01*
X7576262Y-25607833D01*
X7576262Y-25569738D01*
X7585786Y-25522119D01*
X7595309Y-25493548D01*
X7604833Y-25474500D01*
X7623881Y-25445928D01*
X7633405Y-25436405D01*
X7690548Y-25464976D02*
X7814357Y-25464976D01*
X7747690Y-25541167D01*
X7776262Y-25541167D01*
X7795309Y-25550690D01*
X7804833Y-25560214D01*
X7814357Y-25579262D01*
X7814357Y-25626881D01*
X7804833Y-25645928D01*
X7795309Y-25655452D01*
X7776262Y-25664976D01*
X7719119Y-25664976D01*
X7700071Y-25655452D01*
X7690548Y-25645928D01*
X7938167Y-25464976D02*
X7957214Y-25464976D01*
X7976262Y-25474500D01*
X7985786Y-25484024D01*
X7995309Y-25503071D01*
X8004833Y-25541167D01*
X8004833Y-25588786D01*
X7995309Y-25626881D01*
X7985786Y-25645928D01*
X7976262Y-25655452D01*
X7957214Y-25664976D01*
X7938167Y-25664976D01*
X7919119Y-25655452D01*
X7909595Y-25645928D01*
X7900071Y-25626881D01*
X7890548Y-25588786D01*
X7890548Y-25541167D01*
X7900071Y-25503071D01*
X7909595Y-25484024D01*
X7919119Y-25474500D01*
X7938167Y-25464976D01*
X8242928Y-25664976D02*
X8242928Y-25464976D01*
X8328643Y-25664976D02*
X8328643Y-25560214D01*
X8319119Y-25541167D01*
X8300071Y-25531643D01*
X8271500Y-25531643D01*
X8252452Y-25541167D01*
X8242928Y-25550690D01*
X8452452Y-25664976D02*
X8433405Y-25655452D01*
X8423881Y-25645928D01*
X8414357Y-25626881D01*
X8414357Y-25569738D01*
X8423881Y-25550690D01*
X8433405Y-25541167D01*
X8452452Y-25531643D01*
X8481024Y-25531643D01*
X8500071Y-25541167D01*
X8509595Y-25550690D01*
X8519119Y-25569738D01*
X8519119Y-25626881D01*
X8509595Y-25645928D01*
X8500071Y-25655452D01*
X8481024Y-25664976D01*
X8452452Y-25664976D01*
X8633405Y-25664976D02*
X8614357Y-25655452D01*
X8604833Y-25636405D01*
X8604833Y-25464976D01*
X8785786Y-25655452D02*
X8766738Y-25664976D01*
X8728643Y-25664976D01*
X8709595Y-25655452D01*
X8700071Y-25636405D01*
X8700071Y-25560214D01*
X8709595Y-25541167D01*
X8728643Y-25531643D01*
X8766738Y-25531643D01*
X8785786Y-25541167D01*
X8795310Y-25560214D01*
X8795310Y-25579262D01*
X8700071Y-25598309D01*
X8871500Y-25655452D02*
X8890548Y-25664976D01*
X8928643Y-25664976D01*
X8947690Y-25655452D01*
X8957214Y-25636405D01*
X8957214Y-25626881D01*
X8947690Y-25607833D01*
X8928643Y-25598309D01*
X8900071Y-25598309D01*
X8881024Y-25588786D01*
X8871500Y-25569738D01*
X8871500Y-25560214D01*
X8881024Y-25541167D01*
X8900071Y-25531643D01*
X8928643Y-25531643D01*
X8947690Y-25541167D01*
X9023881Y-25741167D02*
X9033405Y-25731643D01*
X9052452Y-25703071D01*
X9061976Y-25684024D01*
X9071500Y-25655452D01*
X9081024Y-25607833D01*
X9081024Y-25569738D01*
X9071500Y-25522119D01*
X9061976Y-25493548D01*
X9052452Y-25474500D01*
X9033405Y-25445928D01*
X9023881Y-25436405D01*
D16*
X3961500Y-25788500D02*
X4061500Y-25888500D01*
X4061500Y-25788500D02*
X3961500Y-25888500D01*
X4061500Y-25838500D02*
G75*
G03*
X4061500Y-25838500I-50000J0D01*
G01*
D11*
X4423881Y-25928976D02*
X4309595Y-25928976D01*
X4366738Y-25928976D02*
X4366738Y-25728976D01*
X4347690Y-25757548D01*
X4328643Y-25776595D01*
X4309595Y-25786119D01*
X4509595Y-25909928D02*
X4519119Y-25919452D01*
X4509595Y-25928976D01*
X4500071Y-25919452D01*
X4509595Y-25909928D01*
X4509595Y-25928976D01*
X4642929Y-25728976D02*
X4661976Y-25728976D01*
X4681024Y-25738500D01*
X4690548Y-25748024D01*
X4700071Y-25767071D01*
X4709595Y-25805167D01*
X4709595Y-25852786D01*
X4700071Y-25890881D01*
X4690548Y-25909928D01*
X4681024Y-25919452D01*
X4661976Y-25928976D01*
X4642929Y-25928976D01*
X4623881Y-25919452D01*
X4614357Y-25909928D01*
X4604833Y-25890881D01*
X4595310Y-25852786D01*
X4595310Y-25805167D01*
X4604833Y-25767071D01*
X4614357Y-25748024D01*
X4623881Y-25738500D01*
X4642929Y-25728976D01*
X4833405Y-25728976D02*
X4852452Y-25728976D01*
X4871500Y-25738500D01*
X4881024Y-25748024D01*
X4890548Y-25767071D01*
X4900071Y-25805167D01*
X4900071Y-25852786D01*
X4890548Y-25890881D01*
X4881024Y-25909928D01*
X4871500Y-25919452D01*
X4852452Y-25928976D01*
X4833405Y-25928976D01*
X4814357Y-25919452D01*
X4804833Y-25909928D01*
X4795310Y-25890881D01*
X4785786Y-25852786D01*
X4785786Y-25805167D01*
X4795310Y-25767071D01*
X4804833Y-25748024D01*
X4814357Y-25738500D01*
X4833405Y-25728976D01*
X5023881Y-25728976D02*
X5042929Y-25728976D01*
X5061976Y-25738500D01*
X5071500Y-25748024D01*
X5081024Y-25767071D01*
X5090548Y-25805167D01*
X5090548Y-25852786D01*
X5081024Y-25890881D01*
X5071500Y-25909928D01*
X5061976Y-25919452D01*
X5042929Y-25928976D01*
X5023881Y-25928976D01*
X5004833Y-25919452D01*
X4995310Y-25909928D01*
X4985786Y-25890881D01*
X4976262Y-25852786D01*
X4976262Y-25805167D01*
X4985786Y-25767071D01*
X4995310Y-25748024D01*
X5004833Y-25738500D01*
X5023881Y-25728976D01*
X5176262Y-25928976D02*
X5176262Y-25795643D01*
X5176262Y-25814690D02*
X5185786Y-25805167D01*
X5204833Y-25795643D01*
X5233405Y-25795643D01*
X5252452Y-25805167D01*
X5261976Y-25824214D01*
X5261976Y-25928976D01*
X5261976Y-25824214D02*
X5271500Y-25805167D01*
X5290548Y-25795643D01*
X5319119Y-25795643D01*
X5338167Y-25805167D01*
X5347690Y-25824214D01*
X5347690Y-25928976D01*
X5442929Y-25928976D02*
X5442929Y-25795643D01*
X5442929Y-25814690D02*
X5452452Y-25805167D01*
X5471500Y-25795643D01*
X5500071Y-25795643D01*
X5519119Y-25805167D01*
X5528643Y-25824214D01*
X5528643Y-25928976D01*
X5528643Y-25824214D02*
X5538167Y-25805167D01*
X5557214Y-25795643D01*
X5585786Y-25795643D01*
X5604833Y-25805167D01*
X5614357Y-25824214D01*
X5614357Y-25928976D01*
X6004833Y-25719452D02*
X5833405Y-25976595D01*
X6261976Y-25728976D02*
X6281024Y-25728976D01*
X6300071Y-25738500D01*
X6309595Y-25748024D01*
X6319119Y-25767071D01*
X6328643Y-25805167D01*
X6328643Y-25852786D01*
X6319119Y-25890881D01*
X6309595Y-25909928D01*
X6300071Y-25919452D01*
X6281024Y-25928976D01*
X6261976Y-25928976D01*
X6242928Y-25919452D01*
X6233405Y-25909928D01*
X6223881Y-25890881D01*
X6214357Y-25852786D01*
X6214357Y-25805167D01*
X6223881Y-25767071D01*
X6233405Y-25748024D01*
X6242928Y-25738500D01*
X6261976Y-25728976D01*
X6414357Y-25909928D02*
X6423881Y-25919452D01*
X6414357Y-25928976D01*
X6404833Y-25919452D01*
X6414357Y-25909928D01*
X6414357Y-25928976D01*
X6547690Y-25728976D02*
X6566738Y-25728976D01*
X6585786Y-25738500D01*
X6595309Y-25748024D01*
X6604833Y-25767071D01*
X6614357Y-25805167D01*
X6614357Y-25852786D01*
X6604833Y-25890881D01*
X6595309Y-25909928D01*
X6585786Y-25919452D01*
X6566738Y-25928976D01*
X6547690Y-25928976D01*
X6528643Y-25919452D01*
X6519119Y-25909928D01*
X6509595Y-25890881D01*
X6500071Y-25852786D01*
X6500071Y-25805167D01*
X6509595Y-25767071D01*
X6519119Y-25748024D01*
X6528643Y-25738500D01*
X6547690Y-25728976D01*
X6681024Y-25728976D02*
X6804833Y-25728976D01*
X6738167Y-25805167D01*
X6766738Y-25805167D01*
X6785786Y-25814690D01*
X6795309Y-25824214D01*
X6804833Y-25843262D01*
X6804833Y-25890881D01*
X6795309Y-25909928D01*
X6785786Y-25919452D01*
X6766738Y-25928976D01*
X6709595Y-25928976D01*
X6690548Y-25919452D01*
X6681024Y-25909928D01*
X6900071Y-25928976D02*
X6938167Y-25928976D01*
X6957214Y-25919452D01*
X6966738Y-25909928D01*
X6985786Y-25881357D01*
X6995309Y-25843262D01*
X6995309Y-25767071D01*
X6985786Y-25748024D01*
X6976262Y-25738500D01*
X6957214Y-25728976D01*
X6919119Y-25728976D01*
X6900071Y-25738500D01*
X6890548Y-25748024D01*
X6881024Y-25767071D01*
X6881024Y-25814690D01*
X6890548Y-25833738D01*
X6900071Y-25843262D01*
X6919119Y-25852786D01*
X6957214Y-25852786D01*
X6976262Y-25843262D01*
X6985786Y-25833738D01*
X6995309Y-25814690D01*
X7166738Y-25795643D02*
X7166738Y-25928976D01*
X7119119Y-25719452D02*
X7071500Y-25862309D01*
X7195309Y-25862309D01*
X7261976Y-25728976D02*
X7261976Y-25767071D01*
X7338167Y-25728976D02*
X7338167Y-25767071D01*
X7633405Y-26005167D02*
X7623881Y-25995643D01*
X7604833Y-25967071D01*
X7595309Y-25948024D01*
X7585786Y-25919452D01*
X7576262Y-25871833D01*
X7576262Y-25833738D01*
X7585786Y-25786119D01*
X7595309Y-25757548D01*
X7604833Y-25738500D01*
X7623881Y-25709928D01*
X7633405Y-25700405D01*
X7690548Y-25728976D02*
X7823881Y-25728976D01*
X7738167Y-25928976D01*
X8004833Y-25928976D02*
X7890548Y-25928976D01*
X7947690Y-25928976D02*
X7947690Y-25728976D01*
X7928643Y-25757548D01*
X7909595Y-25776595D01*
X7890548Y-25786119D01*
X8242928Y-25928976D02*
X8242928Y-25728976D01*
X8328643Y-25928976D02*
X8328643Y-25824214D01*
X8319119Y-25805167D01*
X8300071Y-25795643D01*
X8271500Y-25795643D01*
X8252452Y-25805167D01*
X8242928Y-25814690D01*
X8452452Y-25928976D02*
X8433405Y-25919452D01*
X8423881Y-25909928D01*
X8414357Y-25890881D01*
X8414357Y-25833738D01*
X8423881Y-25814690D01*
X8433405Y-25805167D01*
X8452452Y-25795643D01*
X8481024Y-25795643D01*
X8500071Y-25805167D01*
X8509595Y-25814690D01*
X8519119Y-25833738D01*
X8519119Y-25890881D01*
X8509595Y-25909928D01*
X8500071Y-25919452D01*
X8481024Y-25928976D01*
X8452452Y-25928976D01*
X8633405Y-25928976D02*
X8614357Y-25919452D01*
X8604833Y-25900405D01*
X8604833Y-25728976D01*
X8785786Y-25919452D02*
X8766738Y-25928976D01*
X8728643Y-25928976D01*
X8709595Y-25919452D01*
X8700071Y-25900405D01*
X8700071Y-25824214D01*
X8709595Y-25805167D01*
X8728643Y-25795643D01*
X8766738Y-25795643D01*
X8785786Y-25805167D01*
X8795310Y-25824214D01*
X8795310Y-25843262D01*
X8700071Y-25862309D01*
X8871500Y-25919452D02*
X8890548Y-25928976D01*
X8928643Y-25928976D01*
X8947690Y-25919452D01*
X8957214Y-25900405D01*
X8957214Y-25890881D01*
X8947690Y-25871833D01*
X8928643Y-25862309D01*
X8900071Y-25862309D01*
X8881024Y-25852786D01*
X8871500Y-25833738D01*
X8871500Y-25824214D01*
X8881024Y-25805167D01*
X8900071Y-25795643D01*
X8928643Y-25795643D01*
X8947690Y-25805167D01*
X9023881Y-26005167D02*
X9033405Y-25995643D01*
X9052452Y-25967071D01*
X9061976Y-25948024D01*
X9071500Y-25919452D01*
X9081024Y-25871833D01*
X9081024Y-25833738D01*
X9071500Y-25786119D01*
X9061976Y-25757548D01*
X9052452Y-25738500D01*
X9033405Y-25709928D01*
X9023881Y-25700405D01*
D17*
X3951500Y-26047500D02*
X4061500Y-26157500D01*
X4061500Y-26047500D02*
X3951500Y-26157500D01*
X4006500Y-26047500D02*
X4006500Y-26157500D01*
X3951500Y-26102500D02*
X4061500Y-26102500D01*
D11*
X4423881Y-26192976D02*
X4309595Y-26192976D01*
X4366738Y-26192976D02*
X4366738Y-25992976D01*
X4347690Y-26021548D01*
X4328643Y-26040595D01*
X4309595Y-26050119D01*
X4509595Y-26173928D02*
X4519119Y-26183452D01*
X4509595Y-26192976D01*
X4500071Y-26183452D01*
X4509595Y-26173928D01*
X4509595Y-26192976D01*
X4709595Y-26192976D02*
X4595310Y-26192976D01*
X4652452Y-26192976D02*
X4652452Y-25992976D01*
X4633405Y-26021548D01*
X4614357Y-26040595D01*
X4595310Y-26050119D01*
X4833405Y-25992976D02*
X4852452Y-25992976D01*
X4871500Y-26002500D01*
X4881024Y-26012024D01*
X4890548Y-26031071D01*
X4900071Y-26069167D01*
X4900071Y-26116786D01*
X4890548Y-26154881D01*
X4881024Y-26173928D01*
X4871500Y-26183452D01*
X4852452Y-26192976D01*
X4833405Y-26192976D01*
X4814357Y-26183452D01*
X4804833Y-26173928D01*
X4795310Y-26154881D01*
X4785786Y-26116786D01*
X4785786Y-26069167D01*
X4795310Y-26031071D01*
X4804833Y-26012024D01*
X4814357Y-26002500D01*
X4833405Y-25992976D01*
X5023881Y-25992976D02*
X5042929Y-25992976D01*
X5061976Y-26002500D01*
X5071500Y-26012024D01*
X5081024Y-26031071D01*
X5090548Y-26069167D01*
X5090548Y-26116786D01*
X5081024Y-26154881D01*
X5071500Y-26173928D01*
X5061976Y-26183452D01*
X5042929Y-26192976D01*
X5023881Y-26192976D01*
X5004833Y-26183452D01*
X4995310Y-26173928D01*
X4985786Y-26154881D01*
X4976262Y-26116786D01*
X4976262Y-26069167D01*
X4985786Y-26031071D01*
X4995310Y-26012024D01*
X5004833Y-26002500D01*
X5023881Y-25992976D01*
X5176262Y-26192976D02*
X5176262Y-26059643D01*
X5176262Y-26078690D02*
X5185786Y-26069167D01*
X5204833Y-26059643D01*
X5233405Y-26059643D01*
X5252452Y-26069167D01*
X5261976Y-26088214D01*
X5261976Y-26192976D01*
X5261976Y-26088214D02*
X5271500Y-26069167D01*
X5290548Y-26059643D01*
X5319119Y-26059643D01*
X5338167Y-26069167D01*
X5347690Y-26088214D01*
X5347690Y-26192976D01*
X5442929Y-26192976D02*
X5442929Y-26059643D01*
X5442929Y-26078690D02*
X5452452Y-26069167D01*
X5471500Y-26059643D01*
X5500071Y-26059643D01*
X5519119Y-26069167D01*
X5528643Y-26088214D01*
X5528643Y-26192976D01*
X5528643Y-26088214D02*
X5538167Y-26069167D01*
X5557214Y-26059643D01*
X5585786Y-26059643D01*
X5604833Y-26069167D01*
X5614357Y-26088214D01*
X5614357Y-26192976D01*
X6004833Y-25983452D02*
X5833405Y-26240595D01*
X6261976Y-25992976D02*
X6281024Y-25992976D01*
X6300071Y-26002500D01*
X6309595Y-26012024D01*
X6319119Y-26031071D01*
X6328643Y-26069167D01*
X6328643Y-26116786D01*
X6319119Y-26154881D01*
X6309595Y-26173928D01*
X6300071Y-26183452D01*
X6281024Y-26192976D01*
X6261976Y-26192976D01*
X6242928Y-26183452D01*
X6233405Y-26173928D01*
X6223881Y-26154881D01*
X6214357Y-26116786D01*
X6214357Y-26069167D01*
X6223881Y-26031071D01*
X6233405Y-26012024D01*
X6242928Y-26002500D01*
X6261976Y-25992976D01*
X6414357Y-26173928D02*
X6423881Y-26183452D01*
X6414357Y-26192976D01*
X6404833Y-26183452D01*
X6414357Y-26173928D01*
X6414357Y-26192976D01*
X6547690Y-25992976D02*
X6566738Y-25992976D01*
X6585786Y-26002500D01*
X6595309Y-26012024D01*
X6604833Y-26031071D01*
X6614357Y-26069167D01*
X6614357Y-26116786D01*
X6604833Y-26154881D01*
X6595309Y-26173928D01*
X6585786Y-26183452D01*
X6566738Y-26192976D01*
X6547690Y-26192976D01*
X6528643Y-26183452D01*
X6519119Y-26173928D01*
X6509595Y-26154881D01*
X6500071Y-26116786D01*
X6500071Y-26069167D01*
X6509595Y-26031071D01*
X6519119Y-26012024D01*
X6528643Y-26002500D01*
X6547690Y-25992976D01*
X6785786Y-26059643D02*
X6785786Y-26192976D01*
X6738167Y-25983452D02*
X6690548Y-26126309D01*
X6814357Y-26126309D01*
X6871500Y-25992976D02*
X6995309Y-25992976D01*
X6928643Y-26069167D01*
X6957214Y-26069167D01*
X6976262Y-26078690D01*
X6985786Y-26088214D01*
X6995309Y-26107262D01*
X6995309Y-26154881D01*
X6985786Y-26173928D01*
X6976262Y-26183452D01*
X6957214Y-26192976D01*
X6900071Y-26192976D01*
X6881024Y-26183452D01*
X6871500Y-26173928D01*
X7061976Y-25992976D02*
X7185786Y-25992976D01*
X7119119Y-26069167D01*
X7147690Y-26069167D01*
X7166738Y-26078690D01*
X7176262Y-26088214D01*
X7185786Y-26107262D01*
X7185786Y-26154881D01*
X7176262Y-26173928D01*
X7166738Y-26183452D01*
X7147690Y-26192976D01*
X7090548Y-26192976D01*
X7071500Y-26183452D01*
X7061976Y-26173928D01*
X7261976Y-25992976D02*
X7261976Y-26031071D01*
X7338167Y-25992976D02*
X7338167Y-26031071D01*
X7633405Y-26269167D02*
X7623881Y-26259643D01*
X7604833Y-26231071D01*
X7595309Y-26212024D01*
X7585786Y-26183452D01*
X7576262Y-26135833D01*
X7576262Y-26097738D01*
X7585786Y-26050119D01*
X7595309Y-26021548D01*
X7604833Y-26002500D01*
X7623881Y-25973928D01*
X7633405Y-25964405D01*
X7747690Y-25992976D02*
X7766738Y-25992976D01*
X7785786Y-26002500D01*
X7795309Y-26012024D01*
X7804833Y-26031071D01*
X7814357Y-26069167D01*
X7814357Y-26116786D01*
X7804833Y-26154881D01*
X7795309Y-26173928D01*
X7785786Y-26183452D01*
X7766738Y-26192976D01*
X7747690Y-26192976D01*
X7728643Y-26183452D01*
X7719119Y-26173928D01*
X7709595Y-26154881D01*
X7700071Y-26116786D01*
X7700071Y-26069167D01*
X7709595Y-26031071D01*
X7719119Y-26012024D01*
X7728643Y-26002500D01*
X7747690Y-25992976D01*
X8052452Y-26192976D02*
X8052452Y-25992976D01*
X8138167Y-26192976D02*
X8138167Y-26088214D01*
X8128643Y-26069167D01*
X8109595Y-26059643D01*
X8081024Y-26059643D01*
X8061976Y-26069167D01*
X8052452Y-26078690D01*
X8261976Y-26192976D02*
X8242928Y-26183452D01*
X8233405Y-26173928D01*
X8223881Y-26154881D01*
X8223881Y-26097738D01*
X8233405Y-26078690D01*
X8242928Y-26069167D01*
X8261976Y-26059643D01*
X8290548Y-26059643D01*
X8309595Y-26069167D01*
X8319119Y-26078690D01*
X8328643Y-26097738D01*
X8328643Y-26154881D01*
X8319119Y-26173928D01*
X8309595Y-26183452D01*
X8290548Y-26192976D01*
X8261976Y-26192976D01*
X8442929Y-26192976D02*
X8423881Y-26183452D01*
X8414357Y-26164405D01*
X8414357Y-25992976D01*
X8595310Y-26183452D02*
X8576262Y-26192976D01*
X8538167Y-26192976D01*
X8519119Y-26183452D01*
X8509595Y-26164405D01*
X8509595Y-26088214D01*
X8519119Y-26069167D01*
X8538167Y-26059643D01*
X8576262Y-26059643D01*
X8595310Y-26069167D01*
X8604833Y-26088214D01*
X8604833Y-26107262D01*
X8509595Y-26126309D01*
X8681024Y-26183452D02*
X8700071Y-26192976D01*
X8738167Y-26192976D01*
X8757214Y-26183452D01*
X8766738Y-26164405D01*
X8766738Y-26154881D01*
X8757214Y-26135833D01*
X8738167Y-26126309D01*
X8709595Y-26126309D01*
X8690548Y-26116786D01*
X8681024Y-26097738D01*
X8681024Y-26088214D01*
X8690548Y-26069167D01*
X8709595Y-26059643D01*
X8738167Y-26059643D01*
X8757214Y-26069167D01*
X9004833Y-26116786D02*
X9157214Y-26116786D01*
X9081024Y-26192976D02*
X9081024Y-26040595D01*
X9395310Y-26012024D02*
X9404833Y-26002500D01*
X9423881Y-25992976D01*
X9471500Y-25992976D01*
X9490548Y-26002500D01*
X9500071Y-26012024D01*
X9509595Y-26031071D01*
X9509595Y-26050119D01*
X9500071Y-26078690D01*
X9385786Y-26192976D01*
X9509595Y-26192976D01*
X9681024Y-25992976D02*
X9642929Y-25992976D01*
X9623881Y-26002500D01*
X9614357Y-26012024D01*
X9595310Y-26040595D01*
X9585786Y-26078690D01*
X9585786Y-26154881D01*
X9595310Y-26173928D01*
X9604833Y-26183452D01*
X9623881Y-26192976D01*
X9661976Y-26192976D01*
X9681024Y-26183452D01*
X9690548Y-26173928D01*
X9700071Y-26154881D01*
X9700071Y-26107262D01*
X9690548Y-26088214D01*
X9681024Y-26078690D01*
X9661976Y-26069167D01*
X9623881Y-26069167D01*
X9604833Y-26078690D01*
X9595310Y-26088214D01*
X9585786Y-26107262D01*
X9928643Y-26183452D02*
X9947690Y-26192976D01*
X9985786Y-26192976D01*
X10004833Y-26183452D01*
X10014357Y-26164405D01*
X10014357Y-26154881D01*
X10004833Y-26135833D01*
X9985786Y-26126309D01*
X9957214Y-26126309D01*
X9938167Y-26116786D01*
X9928643Y-26097738D01*
X9928643Y-26088214D01*
X9938167Y-26069167D01*
X9957214Y-26059643D01*
X9985786Y-26059643D01*
X10004833Y-26069167D01*
X10128643Y-26192976D02*
X10109595Y-26183452D01*
X10100071Y-26164405D01*
X10100071Y-25992976D01*
X10233405Y-26192976D02*
X10214357Y-26183452D01*
X10204833Y-26173928D01*
X10195310Y-26154881D01*
X10195310Y-26097738D01*
X10204833Y-26078690D01*
X10214357Y-26069167D01*
X10233405Y-26059643D01*
X10261976Y-26059643D01*
X10281024Y-26069167D01*
X10290548Y-26078690D01*
X10300071Y-26097738D01*
X10300071Y-26154881D01*
X10290548Y-26173928D01*
X10281024Y-26183452D01*
X10261976Y-26192976D01*
X10233405Y-26192976D01*
X10357214Y-26059643D02*
X10433405Y-26059643D01*
X10385786Y-25992976D02*
X10385786Y-26164405D01*
X10395310Y-26183452D01*
X10414357Y-26192976D01*
X10433405Y-26192976D01*
X10490548Y-26183452D02*
X10509595Y-26192976D01*
X10547690Y-26192976D01*
X10566738Y-26183452D01*
X10576262Y-26164405D01*
X10576262Y-26154881D01*
X10566738Y-26135833D01*
X10547690Y-26126309D01*
X10519119Y-26126309D01*
X10500071Y-26116786D01*
X10490548Y-26097738D01*
X10490548Y-26088214D01*
X10500071Y-26069167D01*
X10519119Y-26059643D01*
X10547690Y-26059643D01*
X10566738Y-26069167D01*
X10642929Y-26269167D02*
X10652452Y-26259643D01*
X10671500Y-26231071D01*
X10681024Y-26212024D01*
X10690548Y-26183452D01*
X10700071Y-26135833D01*
X10700071Y-26097738D01*
X10690548Y-26050119D01*
X10681024Y-26021548D01*
X10671500Y-26002500D01*
X10652452Y-25973928D01*
X10642929Y-25964405D01*
D18*
X3942500Y-26307000D02*
X4061500Y-26426000D01*
X4061500Y-26307000D02*
X3942500Y-26426000D01*
X4044073Y-26408573D02*
X4044073Y-26324427D01*
X3959927Y-26324427D01*
X3959927Y-26408573D01*
X4044073Y-26408573D01*
D11*
X4423881Y-26456976D02*
X4309595Y-26456976D01*
X4366738Y-26456976D02*
X4366738Y-26256976D01*
X4347690Y-26285548D01*
X4328643Y-26304595D01*
X4309595Y-26314119D01*
X4509595Y-26437928D02*
X4519119Y-26447452D01*
X4509595Y-26456976D01*
X4500071Y-26447452D01*
X4509595Y-26437928D01*
X4509595Y-26456976D01*
X4709595Y-26456976D02*
X4595310Y-26456976D01*
X4652452Y-26456976D02*
X4652452Y-26256976D01*
X4633405Y-26285548D01*
X4614357Y-26304595D01*
X4595310Y-26314119D01*
X4804833Y-26456976D02*
X4842929Y-26456976D01*
X4861976Y-26447452D01*
X4871500Y-26437928D01*
X4890548Y-26409357D01*
X4900071Y-26371262D01*
X4900071Y-26295071D01*
X4890548Y-26276024D01*
X4881024Y-26266500D01*
X4861976Y-26256976D01*
X4823881Y-26256976D01*
X4804833Y-26266500D01*
X4795310Y-26276024D01*
X4785786Y-26295071D01*
X4785786Y-26342690D01*
X4795310Y-26361738D01*
X4804833Y-26371262D01*
X4823881Y-26380786D01*
X4861976Y-26380786D01*
X4881024Y-26371262D01*
X4890548Y-26361738D01*
X4900071Y-26342690D01*
X5023881Y-26256976D02*
X5042929Y-26256976D01*
X5061976Y-26266500D01*
X5071500Y-26276024D01*
X5081024Y-26295071D01*
X5090548Y-26333167D01*
X5090548Y-26380786D01*
X5081024Y-26418881D01*
X5071500Y-26437928D01*
X5061976Y-26447452D01*
X5042929Y-26456976D01*
X5023881Y-26456976D01*
X5004833Y-26447452D01*
X4995310Y-26437928D01*
X4985786Y-26418881D01*
X4976262Y-26380786D01*
X4976262Y-26333167D01*
X4985786Y-26295071D01*
X4995310Y-26276024D01*
X5004833Y-26266500D01*
X5023881Y-26256976D01*
X5176262Y-26456976D02*
X5176262Y-26323643D01*
X5176262Y-26342690D02*
X5185786Y-26333167D01*
X5204833Y-26323643D01*
X5233405Y-26323643D01*
X5252452Y-26333167D01*
X5261976Y-26352214D01*
X5261976Y-26456976D01*
X5261976Y-26352214D02*
X5271500Y-26333167D01*
X5290548Y-26323643D01*
X5319119Y-26323643D01*
X5338167Y-26333167D01*
X5347690Y-26352214D01*
X5347690Y-26456976D01*
X5442929Y-26456976D02*
X5442929Y-26323643D01*
X5442929Y-26342690D02*
X5452452Y-26333167D01*
X5471500Y-26323643D01*
X5500071Y-26323643D01*
X5519119Y-26333167D01*
X5528643Y-26352214D01*
X5528643Y-26456976D01*
X5528643Y-26352214D02*
X5538167Y-26333167D01*
X5557214Y-26323643D01*
X5585786Y-26323643D01*
X5604833Y-26333167D01*
X5614357Y-26352214D01*
X5614357Y-26456976D01*
X6004833Y-26247452D02*
X5833405Y-26504595D01*
X6261976Y-26256976D02*
X6281024Y-26256976D01*
X6300071Y-26266500D01*
X6309595Y-26276024D01*
X6319119Y-26295071D01*
X6328643Y-26333167D01*
X6328643Y-26380786D01*
X6319119Y-26418881D01*
X6309595Y-26437928D01*
X6300071Y-26447452D01*
X6281024Y-26456976D01*
X6261976Y-26456976D01*
X6242928Y-26447452D01*
X6233405Y-26437928D01*
X6223881Y-26418881D01*
X6214357Y-26380786D01*
X6214357Y-26333167D01*
X6223881Y-26295071D01*
X6233405Y-26276024D01*
X6242928Y-26266500D01*
X6261976Y-26256976D01*
X6414357Y-26437928D02*
X6423881Y-26447452D01*
X6414357Y-26456976D01*
X6404833Y-26447452D01*
X6414357Y-26437928D01*
X6414357Y-26456976D01*
X6547690Y-26256976D02*
X6566738Y-26256976D01*
X6585786Y-26266500D01*
X6595309Y-26276024D01*
X6604833Y-26295071D01*
X6614357Y-26333167D01*
X6614357Y-26380786D01*
X6604833Y-26418881D01*
X6595309Y-26437928D01*
X6585786Y-26447452D01*
X6566738Y-26456976D01*
X6547690Y-26456976D01*
X6528643Y-26447452D01*
X6519119Y-26437928D01*
X6509595Y-26418881D01*
X6500071Y-26380786D01*
X6500071Y-26333167D01*
X6509595Y-26295071D01*
X6519119Y-26276024D01*
X6528643Y-26266500D01*
X6547690Y-26256976D01*
X6785786Y-26323643D02*
X6785786Y-26456976D01*
X6738167Y-26247452D02*
X6690548Y-26390309D01*
X6814357Y-26390309D01*
X6976262Y-26256976D02*
X6938167Y-26256976D01*
X6919119Y-26266500D01*
X6909595Y-26276024D01*
X6890548Y-26304595D01*
X6881024Y-26342690D01*
X6881024Y-26418881D01*
X6890548Y-26437928D01*
X6900071Y-26447452D01*
X6919119Y-26456976D01*
X6957214Y-26456976D01*
X6976262Y-26447452D01*
X6985786Y-26437928D01*
X6995309Y-26418881D01*
X6995309Y-26371262D01*
X6985786Y-26352214D01*
X6976262Y-26342690D01*
X6957214Y-26333167D01*
X6919119Y-26333167D01*
X6900071Y-26342690D01*
X6890548Y-26352214D01*
X6881024Y-26371262D01*
X7090548Y-26456976D02*
X7128643Y-26456976D01*
X7147690Y-26447452D01*
X7157214Y-26437928D01*
X7176262Y-26409357D01*
X7185786Y-26371262D01*
X7185786Y-26295071D01*
X7176262Y-26276024D01*
X7166738Y-26266500D01*
X7147690Y-26256976D01*
X7109595Y-26256976D01*
X7090548Y-26266500D01*
X7081024Y-26276024D01*
X7071500Y-26295071D01*
X7071500Y-26342690D01*
X7081024Y-26361738D01*
X7090548Y-26371262D01*
X7109595Y-26380786D01*
X7147690Y-26380786D01*
X7166738Y-26371262D01*
X7176262Y-26361738D01*
X7185786Y-26342690D01*
X7261976Y-26256976D02*
X7261976Y-26295071D01*
X7338167Y-26256976D02*
X7338167Y-26295071D01*
X7633405Y-26533167D02*
X7623881Y-26523643D01*
X7604833Y-26495071D01*
X7595309Y-26476024D01*
X7585786Y-26447452D01*
X7576262Y-26399833D01*
X7576262Y-26361738D01*
X7585786Y-26314119D01*
X7595309Y-26285548D01*
X7604833Y-26266500D01*
X7623881Y-26237928D01*
X7633405Y-26228405D01*
X7700071Y-26276024D02*
X7709595Y-26266500D01*
X7728643Y-26256976D01*
X7776262Y-26256976D01*
X7795309Y-26266500D01*
X7804833Y-26276024D01*
X7814357Y-26295071D01*
X7814357Y-26314119D01*
X7804833Y-26342690D01*
X7690548Y-26456976D01*
X7814357Y-26456976D01*
X7938167Y-26256976D02*
X7957214Y-26256976D01*
X7976262Y-26266500D01*
X7985786Y-26276024D01*
X7995309Y-26295071D01*
X8004833Y-26333167D01*
X8004833Y-26380786D01*
X7995309Y-26418881D01*
X7985786Y-26437928D01*
X7976262Y-26447452D01*
X7957214Y-26456976D01*
X7938167Y-26456976D01*
X7919119Y-26447452D01*
X7909595Y-26437928D01*
X7900071Y-26418881D01*
X7890548Y-26380786D01*
X7890548Y-26333167D01*
X7900071Y-26295071D01*
X7909595Y-26276024D01*
X7919119Y-26266500D01*
X7938167Y-26256976D01*
X8242928Y-26456976D02*
X8242928Y-26256976D01*
X8328643Y-26456976D02*
X8328643Y-26352214D01*
X8319119Y-26333167D01*
X8300071Y-26323643D01*
X8271500Y-26323643D01*
X8252452Y-26333167D01*
X8242928Y-26342690D01*
X8452452Y-26456976D02*
X8433405Y-26447452D01*
X8423881Y-26437928D01*
X8414357Y-26418881D01*
X8414357Y-26361738D01*
X8423881Y-26342690D01*
X8433405Y-26333167D01*
X8452452Y-26323643D01*
X8481024Y-26323643D01*
X8500071Y-26333167D01*
X8509595Y-26342690D01*
X8519119Y-26361738D01*
X8519119Y-26418881D01*
X8509595Y-26437928D01*
X8500071Y-26447452D01*
X8481024Y-26456976D01*
X8452452Y-26456976D01*
X8633405Y-26456976D02*
X8614357Y-26447452D01*
X8604833Y-26428405D01*
X8604833Y-26256976D01*
X8785786Y-26447452D02*
X8766738Y-26456976D01*
X8728643Y-26456976D01*
X8709595Y-26447452D01*
X8700071Y-26428405D01*
X8700071Y-26352214D01*
X8709595Y-26333167D01*
X8728643Y-26323643D01*
X8766738Y-26323643D01*
X8785786Y-26333167D01*
X8795310Y-26352214D01*
X8795310Y-26371262D01*
X8700071Y-26390309D01*
X8871500Y-26447452D02*
X8890548Y-26456976D01*
X8928643Y-26456976D01*
X8947690Y-26447452D01*
X8957214Y-26428405D01*
X8957214Y-26418881D01*
X8947690Y-26399833D01*
X8928643Y-26390309D01*
X8900071Y-26390309D01*
X8881024Y-26380786D01*
X8871500Y-26361738D01*
X8871500Y-26352214D01*
X8881024Y-26333167D01*
X8900071Y-26323643D01*
X8928643Y-26323643D01*
X8947690Y-26333167D01*
X9023881Y-26533167D02*
X9033405Y-26523643D01*
X9052452Y-26495071D01*
X9061976Y-26476024D01*
X9071500Y-26447452D01*
X9081024Y-26399833D01*
X9081024Y-26361738D01*
X9071500Y-26314119D01*
X9061976Y-26285548D01*
X9052452Y-26266500D01*
X9033405Y-26237928D01*
X9023881Y-26228405D01*
D19*
X3931500Y-26565500D02*
X4061500Y-26695500D01*
X4061500Y-26565500D02*
X3931500Y-26695500D01*
X3996500Y-26695500D02*
X4061500Y-26630500D01*
X3996500Y-26565500D01*
X3931500Y-26630500D01*
X3996500Y-26695500D01*
D11*
X4423881Y-26720976D02*
X4309595Y-26720976D01*
X4366738Y-26720976D02*
X4366738Y-26520976D01*
X4347690Y-26549548D01*
X4328643Y-26568595D01*
X4309595Y-26578119D01*
X4509595Y-26701928D02*
X4519119Y-26711452D01*
X4509595Y-26720976D01*
X4500071Y-26711452D01*
X4509595Y-26701928D01*
X4509595Y-26720976D01*
X4585786Y-26520976D02*
X4709595Y-26520976D01*
X4642929Y-26597167D01*
X4671500Y-26597167D01*
X4690548Y-26606690D01*
X4700071Y-26616214D01*
X4709595Y-26635262D01*
X4709595Y-26682881D01*
X4700071Y-26701928D01*
X4690548Y-26711452D01*
X4671500Y-26720976D01*
X4614357Y-26720976D01*
X4595310Y-26711452D01*
X4585786Y-26701928D01*
X4833405Y-26520976D02*
X4852452Y-26520976D01*
X4871500Y-26530500D01*
X4881024Y-26540024D01*
X4890548Y-26559071D01*
X4900071Y-26597167D01*
X4900071Y-26644786D01*
X4890548Y-26682881D01*
X4881024Y-26701928D01*
X4871500Y-26711452D01*
X4852452Y-26720976D01*
X4833405Y-26720976D01*
X4814357Y-26711452D01*
X4804833Y-26701928D01*
X4795310Y-26682881D01*
X4785786Y-26644786D01*
X4785786Y-26597167D01*
X4795310Y-26559071D01*
X4804833Y-26540024D01*
X4814357Y-26530500D01*
X4833405Y-26520976D01*
X5023881Y-26520976D02*
X5042929Y-26520976D01*
X5061976Y-26530500D01*
X5071500Y-26540024D01*
X5081024Y-26559071D01*
X5090548Y-26597167D01*
X5090548Y-26644786D01*
X5081024Y-26682881D01*
X5071500Y-26701928D01*
X5061976Y-26711452D01*
X5042929Y-26720976D01*
X5023881Y-26720976D01*
X5004833Y-26711452D01*
X4995310Y-26701928D01*
X4985786Y-26682881D01*
X4976262Y-26644786D01*
X4976262Y-26597167D01*
X4985786Y-26559071D01*
X4995310Y-26540024D01*
X5004833Y-26530500D01*
X5023881Y-26520976D01*
X5176262Y-26720976D02*
X5176262Y-26587643D01*
X5176262Y-26606690D02*
X5185786Y-26597167D01*
X5204833Y-26587643D01*
X5233405Y-26587643D01*
X5252452Y-26597167D01*
X5261976Y-26616214D01*
X5261976Y-26720976D01*
X5261976Y-26616214D02*
X5271500Y-26597167D01*
X5290548Y-26587643D01*
X5319119Y-26587643D01*
X5338167Y-26597167D01*
X5347690Y-26616214D01*
X5347690Y-26720976D01*
X5442929Y-26720976D02*
X5442929Y-26587643D01*
X5442929Y-26606690D02*
X5452452Y-26597167D01*
X5471500Y-26587643D01*
X5500071Y-26587643D01*
X5519119Y-26597167D01*
X5528643Y-26616214D01*
X5528643Y-26720976D01*
X5528643Y-26616214D02*
X5538167Y-26597167D01*
X5557214Y-26587643D01*
X5585786Y-26587643D01*
X5604833Y-26597167D01*
X5614357Y-26616214D01*
X5614357Y-26720976D01*
X6004833Y-26511452D02*
X5833405Y-26768595D01*
X6261976Y-26520976D02*
X6281024Y-26520976D01*
X6300071Y-26530500D01*
X6309595Y-26540024D01*
X6319119Y-26559071D01*
X6328643Y-26597167D01*
X6328643Y-26644786D01*
X6319119Y-26682881D01*
X6309595Y-26701928D01*
X6300071Y-26711452D01*
X6281024Y-26720976D01*
X6261976Y-26720976D01*
X6242928Y-26711452D01*
X6233405Y-26701928D01*
X6223881Y-26682881D01*
X6214357Y-26644786D01*
X6214357Y-26597167D01*
X6223881Y-26559071D01*
X6233405Y-26540024D01*
X6242928Y-26530500D01*
X6261976Y-26520976D01*
X6414357Y-26701928D02*
X6423881Y-26711452D01*
X6414357Y-26720976D01*
X6404833Y-26711452D01*
X6414357Y-26701928D01*
X6414357Y-26720976D01*
X6547690Y-26520976D02*
X6566738Y-26520976D01*
X6585786Y-26530500D01*
X6595309Y-26540024D01*
X6604833Y-26559071D01*
X6614357Y-26597167D01*
X6614357Y-26644786D01*
X6604833Y-26682881D01*
X6595309Y-26701928D01*
X6585786Y-26711452D01*
X6566738Y-26720976D01*
X6547690Y-26720976D01*
X6528643Y-26711452D01*
X6519119Y-26701928D01*
X6509595Y-26682881D01*
X6500071Y-26644786D01*
X6500071Y-26597167D01*
X6509595Y-26559071D01*
X6519119Y-26540024D01*
X6528643Y-26530500D01*
X6547690Y-26520976D01*
X6795309Y-26520976D02*
X6700071Y-26520976D01*
X6690548Y-26616214D01*
X6700071Y-26606690D01*
X6719119Y-26597167D01*
X6766738Y-26597167D01*
X6785786Y-26606690D01*
X6795309Y-26616214D01*
X6804833Y-26635262D01*
X6804833Y-26682881D01*
X6795309Y-26701928D01*
X6785786Y-26711452D01*
X6766738Y-26720976D01*
X6719119Y-26720976D01*
X6700071Y-26711452D01*
X6690548Y-26701928D01*
X6995309Y-26720976D02*
X6881024Y-26720976D01*
X6938167Y-26720976D02*
X6938167Y-26520976D01*
X6919119Y-26549548D01*
X6900071Y-26568595D01*
X6881024Y-26578119D01*
X7071500Y-26540024D02*
X7081024Y-26530500D01*
X7100071Y-26520976D01*
X7147690Y-26520976D01*
X7166738Y-26530500D01*
X7176262Y-26540024D01*
X7185786Y-26559071D01*
X7185786Y-26578119D01*
X7176262Y-26606690D01*
X7061976Y-26720976D01*
X7185786Y-26720976D01*
X7261976Y-26520976D02*
X7261976Y-26559071D01*
X7338167Y-26520976D02*
X7338167Y-26559071D01*
X7633405Y-26797167D02*
X7623881Y-26787643D01*
X7604833Y-26759071D01*
X7595309Y-26740024D01*
X7585786Y-26711452D01*
X7576262Y-26663833D01*
X7576262Y-26625738D01*
X7585786Y-26578119D01*
X7595309Y-26549548D01*
X7604833Y-26530500D01*
X7623881Y-26501928D01*
X7633405Y-26492405D01*
X7700071Y-26540024D02*
X7709595Y-26530500D01*
X7728643Y-26520976D01*
X7776262Y-26520976D01*
X7795309Y-26530500D01*
X7804833Y-26540024D01*
X7814357Y-26559071D01*
X7814357Y-26578119D01*
X7804833Y-26606690D01*
X7690548Y-26720976D01*
X7814357Y-26720976D01*
X8052452Y-26720976D02*
X8052452Y-26520976D01*
X8138167Y-26720976D02*
X8138167Y-26616214D01*
X8128643Y-26597167D01*
X8109595Y-26587643D01*
X8081024Y-26587643D01*
X8061976Y-26597167D01*
X8052452Y-26606690D01*
X8261976Y-26720976D02*
X8242928Y-26711452D01*
X8233405Y-26701928D01*
X8223881Y-26682881D01*
X8223881Y-26625738D01*
X8233405Y-26606690D01*
X8242928Y-26597167D01*
X8261976Y-26587643D01*
X8290548Y-26587643D01*
X8309595Y-26597167D01*
X8319119Y-26606690D01*
X8328643Y-26625738D01*
X8328643Y-26682881D01*
X8319119Y-26701928D01*
X8309595Y-26711452D01*
X8290548Y-26720976D01*
X8261976Y-26720976D01*
X8442929Y-26720976D02*
X8423881Y-26711452D01*
X8414357Y-26692405D01*
X8414357Y-26520976D01*
X8595310Y-26711452D02*
X8576262Y-26720976D01*
X8538167Y-26720976D01*
X8519119Y-26711452D01*
X8509595Y-26692405D01*
X8509595Y-26616214D01*
X8519119Y-26597167D01*
X8538167Y-26587643D01*
X8576262Y-26587643D01*
X8595310Y-26597167D01*
X8604833Y-26616214D01*
X8604833Y-26635262D01*
X8509595Y-26654309D01*
X8681024Y-26711452D02*
X8700071Y-26720976D01*
X8738167Y-26720976D01*
X8757214Y-26711452D01*
X8766738Y-26692405D01*
X8766738Y-26682881D01*
X8757214Y-26663833D01*
X8738167Y-26654309D01*
X8709595Y-26654309D01*
X8690548Y-26644786D01*
X8681024Y-26625738D01*
X8681024Y-26616214D01*
X8690548Y-26597167D01*
X8709595Y-26587643D01*
X8738167Y-26587643D01*
X8757214Y-26597167D01*
X8833405Y-26797167D02*
X8842929Y-26787643D01*
X8861976Y-26759071D01*
X8871500Y-26740024D01*
X8881024Y-26711452D01*
X8890548Y-26663833D01*
X8890548Y-26625738D01*
X8881024Y-26578119D01*
X8871500Y-26549548D01*
X8861976Y-26530500D01*
X8842929Y-26501928D01*
X8833405Y-26492405D01*
D20*
X3969000Y-26802000D02*
X3969000Y-26987000D01*
X3876500Y-26894500D02*
X4061500Y-26894500D01*
X4061500Y-26894500D02*
G75*
G03*
X4061500Y-26894500I-92500J0D01*
G01*
D11*
X4423881Y-26984976D02*
X4309595Y-26984976D01*
X4366738Y-26984976D02*
X4366738Y-26784976D01*
X4347690Y-26813548D01*
X4328643Y-26832595D01*
X4309595Y-26842119D01*
X4509595Y-26965928D02*
X4519119Y-26975452D01*
X4509595Y-26984976D01*
X4500071Y-26975452D01*
X4509595Y-26965928D01*
X4509595Y-26984976D01*
X4633405Y-26870690D02*
X4614357Y-26861167D01*
X4604833Y-26851643D01*
X4595310Y-26832595D01*
X4595310Y-26823071D01*
X4604833Y-26804024D01*
X4614357Y-26794500D01*
X4633405Y-26784976D01*
X4671500Y-26784976D01*
X4690548Y-26794500D01*
X4700071Y-26804024D01*
X4709595Y-26823071D01*
X4709595Y-26832595D01*
X4700071Y-26851643D01*
X4690548Y-26861167D01*
X4671500Y-26870690D01*
X4633405Y-26870690D01*
X4614357Y-26880214D01*
X4604833Y-26889738D01*
X4595310Y-26908786D01*
X4595310Y-26946881D01*
X4604833Y-26965928D01*
X4614357Y-26975452D01*
X4633405Y-26984976D01*
X4671500Y-26984976D01*
X4690548Y-26975452D01*
X4700071Y-26965928D01*
X4709595Y-26946881D01*
X4709595Y-26908786D01*
X4700071Y-26889738D01*
X4690548Y-26880214D01*
X4671500Y-26870690D01*
X4890548Y-26784976D02*
X4795310Y-26784976D01*
X4785786Y-26880214D01*
X4795310Y-26870690D01*
X4814357Y-26861167D01*
X4861976Y-26861167D01*
X4881024Y-26870690D01*
X4890548Y-26880214D01*
X4900071Y-26899262D01*
X4900071Y-26946881D01*
X4890548Y-26965928D01*
X4881024Y-26975452D01*
X4861976Y-26984976D01*
X4814357Y-26984976D01*
X4795310Y-26975452D01*
X4785786Y-26965928D01*
X5023881Y-26784976D02*
X5042929Y-26784976D01*
X5061976Y-26794500D01*
X5071500Y-26804024D01*
X5081024Y-26823071D01*
X5090548Y-26861167D01*
X5090548Y-26908786D01*
X5081024Y-26946881D01*
X5071500Y-26965928D01*
X5061976Y-26975452D01*
X5042929Y-26984976D01*
X5023881Y-26984976D01*
X5004833Y-26975452D01*
X4995310Y-26965928D01*
X4985786Y-26946881D01*
X4976262Y-26908786D01*
X4976262Y-26861167D01*
X4985786Y-26823071D01*
X4995310Y-26804024D01*
X5004833Y-26794500D01*
X5023881Y-26784976D01*
X5176262Y-26984976D02*
X5176262Y-26851643D01*
X5176262Y-26870690D02*
X5185786Y-26861167D01*
X5204833Y-26851643D01*
X5233405Y-26851643D01*
X5252452Y-26861167D01*
X5261976Y-26880214D01*
X5261976Y-26984976D01*
X5261976Y-26880214D02*
X5271500Y-26861167D01*
X5290548Y-26851643D01*
X5319119Y-26851643D01*
X5338167Y-26861167D01*
X5347690Y-26880214D01*
X5347690Y-26984976D01*
X5442929Y-26984976D02*
X5442929Y-26851643D01*
X5442929Y-26870690D02*
X5452452Y-26861167D01*
X5471500Y-26851643D01*
X5500071Y-26851643D01*
X5519119Y-26861167D01*
X5528643Y-26880214D01*
X5528643Y-26984976D01*
X5528643Y-26880214D02*
X5538167Y-26861167D01*
X5557214Y-26851643D01*
X5585786Y-26851643D01*
X5604833Y-26861167D01*
X5614357Y-26880214D01*
X5614357Y-26984976D01*
X6004833Y-26775452D02*
X5833405Y-27032595D01*
X6261976Y-26784976D02*
X6281024Y-26784976D01*
X6300071Y-26794500D01*
X6309595Y-26804024D01*
X6319119Y-26823071D01*
X6328643Y-26861167D01*
X6328643Y-26908786D01*
X6319119Y-26946881D01*
X6309595Y-26965928D01*
X6300071Y-26975452D01*
X6281024Y-26984976D01*
X6261976Y-26984976D01*
X6242928Y-26975452D01*
X6233405Y-26965928D01*
X6223881Y-26946881D01*
X6214357Y-26908786D01*
X6214357Y-26861167D01*
X6223881Y-26823071D01*
X6233405Y-26804024D01*
X6242928Y-26794500D01*
X6261976Y-26784976D01*
X6414357Y-26965928D02*
X6423881Y-26975452D01*
X6414357Y-26984976D01*
X6404833Y-26975452D01*
X6414357Y-26965928D01*
X6414357Y-26984976D01*
X6547690Y-26784976D02*
X6566738Y-26784976D01*
X6585786Y-26794500D01*
X6595309Y-26804024D01*
X6604833Y-26823071D01*
X6614357Y-26861167D01*
X6614357Y-26908786D01*
X6604833Y-26946881D01*
X6595309Y-26965928D01*
X6585786Y-26975452D01*
X6566738Y-26984976D01*
X6547690Y-26984976D01*
X6528643Y-26975452D01*
X6519119Y-26965928D01*
X6509595Y-26946881D01*
X6500071Y-26908786D01*
X6500071Y-26861167D01*
X6509595Y-26823071D01*
X6519119Y-26804024D01*
X6528643Y-26794500D01*
X6547690Y-26784976D01*
X6681024Y-26784976D02*
X6814357Y-26784976D01*
X6728643Y-26984976D01*
X6881024Y-26804024D02*
X6890548Y-26794500D01*
X6909595Y-26784976D01*
X6957214Y-26784976D01*
X6976262Y-26794500D01*
X6985786Y-26804024D01*
X6995309Y-26823071D01*
X6995309Y-26842119D01*
X6985786Y-26870690D01*
X6871500Y-26984976D01*
X6995309Y-26984976D01*
X7109595Y-26870690D02*
X7090548Y-26861167D01*
X7081024Y-26851643D01*
X7071500Y-26832595D01*
X7071500Y-26823071D01*
X7081024Y-26804024D01*
X7090548Y-26794500D01*
X7109595Y-26784976D01*
X7147690Y-26784976D01*
X7166738Y-26794500D01*
X7176262Y-26804024D01*
X7185786Y-26823071D01*
X7185786Y-26832595D01*
X7176262Y-26851643D01*
X7166738Y-26861167D01*
X7147690Y-26870690D01*
X7109595Y-26870690D01*
X7090548Y-26880214D01*
X7081024Y-26889738D01*
X7071500Y-26908786D01*
X7071500Y-26946881D01*
X7081024Y-26965928D01*
X7090548Y-26975452D01*
X7109595Y-26984976D01*
X7147690Y-26984976D01*
X7166738Y-26975452D01*
X7176262Y-26965928D01*
X7185786Y-26946881D01*
X7185786Y-26908786D01*
X7176262Y-26889738D01*
X7166738Y-26880214D01*
X7147690Y-26870690D01*
X7261976Y-26784976D02*
X7261976Y-26823071D01*
X7338167Y-26784976D02*
X7338167Y-26823071D01*
X7633405Y-27061167D02*
X7623881Y-27051643D01*
X7604833Y-27023071D01*
X7595309Y-27004024D01*
X7585786Y-26975452D01*
X7576262Y-26927833D01*
X7576262Y-26889738D01*
X7585786Y-26842119D01*
X7595309Y-26813548D01*
X7604833Y-26794500D01*
X7623881Y-26765928D01*
X7633405Y-26756405D01*
X7814357Y-26984976D02*
X7700071Y-26984976D01*
X7757214Y-26984976D02*
X7757214Y-26784976D01*
X7738167Y-26813548D01*
X7719119Y-26832595D01*
X7700071Y-26842119D01*
X7928643Y-26870690D02*
X7909595Y-26861167D01*
X7900071Y-26851643D01*
X7890548Y-26832595D01*
X7890548Y-26823071D01*
X7900071Y-26804024D01*
X7909595Y-26794500D01*
X7928643Y-26784976D01*
X7966738Y-26784976D01*
X7985786Y-26794500D01*
X7995309Y-26804024D01*
X8004833Y-26823071D01*
X8004833Y-26832595D01*
X7995309Y-26851643D01*
X7985786Y-26861167D01*
X7966738Y-26870690D01*
X7928643Y-26870690D01*
X7909595Y-26880214D01*
X7900071Y-26889738D01*
X7890548Y-26908786D01*
X7890548Y-26946881D01*
X7900071Y-26965928D01*
X7909595Y-26975452D01*
X7928643Y-26984976D01*
X7966738Y-26984976D01*
X7985786Y-26975452D01*
X7995309Y-26965928D01*
X8004833Y-26946881D01*
X8004833Y-26908786D01*
X7995309Y-26889738D01*
X7985786Y-26880214D01*
X7966738Y-26870690D01*
X8242928Y-26984976D02*
X8242928Y-26784976D01*
X8328643Y-26984976D02*
X8328643Y-26880214D01*
X8319119Y-26861167D01*
X8300071Y-26851643D01*
X8271500Y-26851643D01*
X8252452Y-26861167D01*
X8242928Y-26870690D01*
X8452452Y-26984976D02*
X8433405Y-26975452D01*
X8423881Y-26965928D01*
X8414357Y-26946881D01*
X8414357Y-26889738D01*
X8423881Y-26870690D01*
X8433405Y-26861167D01*
X8452452Y-26851643D01*
X8481024Y-26851643D01*
X8500071Y-26861167D01*
X8509595Y-26870690D01*
X8519119Y-26889738D01*
X8519119Y-26946881D01*
X8509595Y-26965928D01*
X8500071Y-26975452D01*
X8481024Y-26984976D01*
X8452452Y-26984976D01*
X8633405Y-26984976D02*
X8614357Y-26975452D01*
X8604833Y-26956405D01*
X8604833Y-26784976D01*
X8785786Y-26975452D02*
X8766738Y-26984976D01*
X8728643Y-26984976D01*
X8709595Y-26975452D01*
X8700071Y-26956405D01*
X8700071Y-26880214D01*
X8709595Y-26861167D01*
X8728643Y-26851643D01*
X8766738Y-26851643D01*
X8785786Y-26861167D01*
X8795310Y-26880214D01*
X8795310Y-26899262D01*
X8700071Y-26918309D01*
X8871500Y-26975452D02*
X8890548Y-26984976D01*
X8928643Y-26984976D01*
X8947690Y-26975452D01*
X8957214Y-26956405D01*
X8957214Y-26946881D01*
X8947690Y-26927833D01*
X8928643Y-26918309D01*
X8900071Y-26918309D01*
X8881024Y-26908786D01*
X8871500Y-26889738D01*
X8871500Y-26880214D01*
X8881024Y-26861167D01*
X8900071Y-26851643D01*
X8928643Y-26851643D01*
X8947690Y-26861167D01*
X9023881Y-27061167D02*
X9033405Y-27051643D01*
X9052452Y-27023071D01*
X9061976Y-27004024D01*
X9071500Y-26975452D01*
X9081024Y-26927833D01*
X9081024Y-26889738D01*
X9071500Y-26842119D01*
X9061976Y-26813548D01*
X9052452Y-26794500D01*
X9033405Y-26765928D01*
X9023881Y-26756405D01*
X4032211Y-27270211D02*
X4032211Y-27128789D01*
X3890789Y-27128789D01*
X3890789Y-27270211D01*
X4032211Y-27270211D01*
X4061500Y-27199500D02*
G75*
G03*
X4061500Y-27199500I-100000J0D01*
G01*
X4309595Y-27109024D02*
X4319119Y-27099500D01*
X4338167Y-27089976D01*
X4385786Y-27089976D01*
X4404833Y-27099500D01*
X4414357Y-27109024D01*
X4423881Y-27128071D01*
X4423881Y-27147119D01*
X4414357Y-27175690D01*
X4300071Y-27289976D01*
X4423881Y-27289976D01*
X4509595Y-27270928D02*
X4519119Y-27280452D01*
X4509595Y-27289976D01*
X4500071Y-27280452D01*
X4509595Y-27270928D01*
X4509595Y-27289976D01*
X4642929Y-27089976D02*
X4661976Y-27089976D01*
X4681024Y-27099500D01*
X4690548Y-27109024D01*
X4700071Y-27128071D01*
X4709595Y-27166167D01*
X4709595Y-27213786D01*
X4700071Y-27251881D01*
X4690548Y-27270928D01*
X4681024Y-27280452D01*
X4661976Y-27289976D01*
X4642929Y-27289976D01*
X4623881Y-27280452D01*
X4614357Y-27270928D01*
X4604833Y-27251881D01*
X4595310Y-27213786D01*
X4595310Y-27166167D01*
X4604833Y-27128071D01*
X4614357Y-27109024D01*
X4623881Y-27099500D01*
X4642929Y-27089976D01*
X4833405Y-27089976D02*
X4852452Y-27089976D01*
X4871500Y-27099500D01*
X4881024Y-27109024D01*
X4890548Y-27128071D01*
X4900071Y-27166167D01*
X4900071Y-27213786D01*
X4890548Y-27251881D01*
X4881024Y-27270928D01*
X4871500Y-27280452D01*
X4852452Y-27289976D01*
X4833405Y-27289976D01*
X4814357Y-27280452D01*
X4804833Y-27270928D01*
X4795310Y-27251881D01*
X4785786Y-27213786D01*
X4785786Y-27166167D01*
X4795310Y-27128071D01*
X4804833Y-27109024D01*
X4814357Y-27099500D01*
X4833405Y-27089976D01*
X5023881Y-27089976D02*
X5042929Y-27089976D01*
X5061976Y-27099500D01*
X5071500Y-27109024D01*
X5081024Y-27128071D01*
X5090548Y-27166167D01*
X5090548Y-27213786D01*
X5081024Y-27251881D01*
X5071500Y-27270928D01*
X5061976Y-27280452D01*
X5042929Y-27289976D01*
X5023881Y-27289976D01*
X5004833Y-27280452D01*
X4995310Y-27270928D01*
X4985786Y-27251881D01*
X4976262Y-27213786D01*
X4976262Y-27166167D01*
X4985786Y-27128071D01*
X4995310Y-27109024D01*
X5004833Y-27099500D01*
X5023881Y-27089976D01*
X5176262Y-27289976D02*
X5176262Y-27156643D01*
X5176262Y-27175690D02*
X5185786Y-27166167D01*
X5204833Y-27156643D01*
X5233405Y-27156643D01*
X5252452Y-27166167D01*
X5261976Y-27185214D01*
X5261976Y-27289976D01*
X5261976Y-27185214D02*
X5271500Y-27166167D01*
X5290548Y-27156643D01*
X5319119Y-27156643D01*
X5338167Y-27166167D01*
X5347690Y-27185214D01*
X5347690Y-27289976D01*
X5442929Y-27289976D02*
X5442929Y-27156643D01*
X5442929Y-27175690D02*
X5452452Y-27166167D01*
X5471500Y-27156643D01*
X5500071Y-27156643D01*
X5519119Y-27166167D01*
X5528643Y-27185214D01*
X5528643Y-27289976D01*
X5528643Y-27185214D02*
X5538167Y-27166167D01*
X5557214Y-27156643D01*
X5585786Y-27156643D01*
X5604833Y-27166167D01*
X5614357Y-27185214D01*
X5614357Y-27289976D01*
X6004833Y-27080452D02*
X5833405Y-27337595D01*
X6261976Y-27089976D02*
X6281024Y-27089976D01*
X6300071Y-27099500D01*
X6309595Y-27109024D01*
X6319119Y-27128071D01*
X6328643Y-27166167D01*
X6328643Y-27213786D01*
X6319119Y-27251881D01*
X6309595Y-27270928D01*
X6300071Y-27280452D01*
X6281024Y-27289976D01*
X6261976Y-27289976D01*
X6242928Y-27280452D01*
X6233405Y-27270928D01*
X6223881Y-27251881D01*
X6214357Y-27213786D01*
X6214357Y-27166167D01*
X6223881Y-27128071D01*
X6233405Y-27109024D01*
X6242928Y-27099500D01*
X6261976Y-27089976D01*
X6414357Y-27270928D02*
X6423881Y-27280452D01*
X6414357Y-27289976D01*
X6404833Y-27280452D01*
X6414357Y-27270928D01*
X6414357Y-27289976D01*
X6547690Y-27089976D02*
X6566738Y-27089976D01*
X6585786Y-27099500D01*
X6595309Y-27109024D01*
X6604833Y-27128071D01*
X6614357Y-27166167D01*
X6614357Y-27213786D01*
X6604833Y-27251881D01*
X6595309Y-27270928D01*
X6585786Y-27280452D01*
X6566738Y-27289976D01*
X6547690Y-27289976D01*
X6528643Y-27280452D01*
X6519119Y-27270928D01*
X6509595Y-27251881D01*
X6500071Y-27213786D01*
X6500071Y-27166167D01*
X6509595Y-27128071D01*
X6519119Y-27109024D01*
X6528643Y-27099500D01*
X6547690Y-27089976D01*
X6681024Y-27089976D02*
X6814357Y-27089976D01*
X6728643Y-27289976D01*
X6919119Y-27175690D02*
X6900071Y-27166167D01*
X6890548Y-27156643D01*
X6881024Y-27137595D01*
X6881024Y-27128071D01*
X6890548Y-27109024D01*
X6900071Y-27099500D01*
X6919119Y-27089976D01*
X6957214Y-27089976D01*
X6976262Y-27099500D01*
X6985786Y-27109024D01*
X6995309Y-27128071D01*
X6995309Y-27137595D01*
X6985786Y-27156643D01*
X6976262Y-27166167D01*
X6957214Y-27175690D01*
X6919119Y-27175690D01*
X6900071Y-27185214D01*
X6890548Y-27194738D01*
X6881024Y-27213786D01*
X6881024Y-27251881D01*
X6890548Y-27270928D01*
X6900071Y-27280452D01*
X6919119Y-27289976D01*
X6957214Y-27289976D01*
X6976262Y-27280452D01*
X6985786Y-27270928D01*
X6995309Y-27251881D01*
X6995309Y-27213786D01*
X6985786Y-27194738D01*
X6976262Y-27185214D01*
X6957214Y-27175690D01*
X7061976Y-27089976D02*
X7195309Y-27089976D01*
X7109595Y-27289976D01*
X7261976Y-27089976D02*
X7261976Y-27128071D01*
X7338167Y-27089976D02*
X7338167Y-27128071D01*
X7633405Y-27366167D02*
X7623881Y-27356643D01*
X7604833Y-27328071D01*
X7595309Y-27309024D01*
X7585786Y-27280452D01*
X7576262Y-27232833D01*
X7576262Y-27194738D01*
X7585786Y-27147119D01*
X7595309Y-27118548D01*
X7604833Y-27099500D01*
X7623881Y-27070928D01*
X7633405Y-27061405D01*
X7795309Y-27089976D02*
X7757214Y-27089976D01*
X7738167Y-27099500D01*
X7728643Y-27109024D01*
X7709595Y-27137595D01*
X7700071Y-27175690D01*
X7700071Y-27251881D01*
X7709595Y-27270928D01*
X7719119Y-27280452D01*
X7738167Y-27289976D01*
X7776262Y-27289976D01*
X7795309Y-27280452D01*
X7804833Y-27270928D01*
X7814357Y-27251881D01*
X7814357Y-27204262D01*
X7804833Y-27185214D01*
X7795309Y-27175690D01*
X7776262Y-27166167D01*
X7738167Y-27166167D01*
X7719119Y-27175690D01*
X7709595Y-27185214D01*
X7700071Y-27204262D01*
X8052452Y-27289976D02*
X8052452Y-27089976D01*
X8138167Y-27289976D02*
X8138167Y-27185214D01*
X8128643Y-27166167D01*
X8109595Y-27156643D01*
X8081024Y-27156643D01*
X8061976Y-27166167D01*
X8052452Y-27175690D01*
X8261976Y-27289976D02*
X8242928Y-27280452D01*
X8233405Y-27270928D01*
X8223881Y-27251881D01*
X8223881Y-27194738D01*
X8233405Y-27175690D01*
X8242928Y-27166167D01*
X8261976Y-27156643D01*
X8290548Y-27156643D01*
X8309595Y-27166167D01*
X8319119Y-27175690D01*
X8328643Y-27194738D01*
X8328643Y-27251881D01*
X8319119Y-27270928D01*
X8309595Y-27280452D01*
X8290548Y-27289976D01*
X8261976Y-27289976D01*
X8442929Y-27289976D02*
X8423881Y-27280452D01*
X8414357Y-27261405D01*
X8414357Y-27089976D01*
X8595310Y-27280452D02*
X8576262Y-27289976D01*
X8538167Y-27289976D01*
X8519119Y-27280452D01*
X8509595Y-27261405D01*
X8509595Y-27185214D01*
X8519119Y-27166167D01*
X8538167Y-27156643D01*
X8576262Y-27156643D01*
X8595310Y-27166167D01*
X8604833Y-27185214D01*
X8604833Y-27204262D01*
X8509595Y-27223309D01*
X8681024Y-27280452D02*
X8700071Y-27289976D01*
X8738167Y-27289976D01*
X8757214Y-27280452D01*
X8766738Y-27261405D01*
X8766738Y-27251881D01*
X8757214Y-27232833D01*
X8738167Y-27223309D01*
X8709595Y-27223309D01*
X8690548Y-27213786D01*
X8681024Y-27194738D01*
X8681024Y-27185214D01*
X8690548Y-27166167D01*
X8709595Y-27156643D01*
X8738167Y-27156643D01*
X8757214Y-27166167D01*
X8833405Y-27366167D02*
X8842929Y-27356643D01*
X8861976Y-27328071D01*
X8871500Y-27309024D01*
X8881024Y-27280452D01*
X8890548Y-27232833D01*
X8890548Y-27194738D01*
X8881024Y-27147119D01*
X8871500Y-27118548D01*
X8861976Y-27099500D01*
X8842929Y-27070928D01*
X8833405Y-27061405D01*
M02*
