G04 #@! TF.GenerationSoftware,KiCad,Pcbnew,6.0.5+dfsg-1~bpo11+1*
G04 #@! TF.CreationDate,2023-02-06T17:01:20+00:00*
G04 #@! TF.ProjectId,VCF_VCA_BBD_board,5643465f-5643-4415-9f42-42445f626f61,1.0*
G04 #@! TF.SameCoordinates,Original*
G04 #@! TF.FileFunction,Soldermask,Top*
G04 #@! TF.FilePolarity,Negative*
%FSLAX46Y46*%
G04 Gerber Fmt 4.6, Leading zero omitted, Abs format (unit mm)*
G04 Created by KiCad (PCBNEW 6.0.5+dfsg-1~bpo11+1) date 2023-02-06 17:01:20*
%MOMM*%
%LPD*%
G01*
G04 APERTURE LIST*
%ADD10O,2.720000X3.240000*%
%ADD11R,1.800000X1.800000*%
%ADD12C,1.800000*%
%ADD13C,2.500000*%
%ADD14C,3.000000*%
%ADD15C,1.451600*%
%ADD16O,2.190000X1.740000*%
%ADD17C,1.440000*%
%ADD18C,2.600000*%
%ADD19C,2.000000*%
%ADD20C,1.600000*%
%ADD21R,1.600000X1.600000*%
%ADD22O,1.600000X1.600000*%
%ADD23R,1.700000X1.700000*%
%ADD24O,1.700000X1.700000*%
%ADD25C,1.700000*%
G04 APERTURE END LIST*
D10*
X111440000Y-83940000D03*
X101840000Y-83940000D03*
D11*
X104140000Y-91440000D03*
D12*
X106640000Y-91440000D03*
X109140000Y-91440000D03*
D10*
X101840000Y-33140000D03*
X111440000Y-33140000D03*
D11*
X104140000Y-40640000D03*
D12*
X106640000Y-40640000D03*
X109140000Y-40640000D03*
D13*
X129665000Y-113920000D03*
X129665000Y-109220000D03*
X129665000Y-104520000D03*
X134495000Y-113920000D03*
X134495000Y-109220000D03*
X134495000Y-104520000D03*
D10*
X51040000Y-109340000D03*
X60640000Y-109340000D03*
D11*
X53340000Y-116840000D03*
D12*
X55840000Y-116840000D03*
X58340000Y-116840000D03*
D13*
X51945000Y-185800000D03*
X51945000Y-190500000D03*
X51945000Y-195200000D03*
X47115000Y-185800000D03*
X47115000Y-190500000D03*
X47115000Y-195200000D03*
D14*
X69470000Y-204300000D03*
X85470000Y-204300000D03*
D15*
X72470000Y-194050000D03*
X74970000Y-194050000D03*
X77470000Y-194050000D03*
X79970000Y-194050000D03*
X82470000Y-194050000D03*
X82470000Y-212350000D03*
X79970000Y-212350000D03*
X77470000Y-212350000D03*
X74970000Y-212350000D03*
X72470000Y-212350000D03*
D10*
X111480000Y-228720000D03*
X101880000Y-228720000D03*
D11*
X104180000Y-236220000D03*
D12*
X106680000Y-236220000D03*
X109180000Y-236220000D03*
D10*
X111480000Y-144910000D03*
X101880000Y-144910000D03*
D11*
X104180000Y-152410000D03*
D12*
X106680000Y-152410000D03*
X109180000Y-152410000D03*
D10*
X162240000Y-109340000D03*
X152640000Y-109340000D03*
D11*
X154940000Y-116840000D03*
D12*
X157440000Y-116840000D03*
X159940000Y-116840000D03*
D10*
X82905000Y-144900000D03*
X73305000Y-144900000D03*
D11*
X75605000Y-152400000D03*
D12*
X78105000Y-152400000D03*
X80605000Y-152400000D03*
D10*
X159030000Y-144900000D03*
X168630000Y-144900000D03*
D11*
X161330000Y-152400000D03*
D12*
X163830000Y-152400000D03*
X166330000Y-152400000D03*
D10*
X44730000Y-228730000D03*
X54330000Y-228730000D03*
D11*
X47030000Y-236230000D03*
D12*
X49530000Y-236230000D03*
X52030000Y-236230000D03*
D10*
X54330000Y-144900000D03*
X44730000Y-144900000D03*
D11*
X47030000Y-152400000D03*
D12*
X49530000Y-152400000D03*
X52030000Y-152400000D03*
D10*
X140690000Y-203320000D03*
X131090000Y-203320000D03*
D11*
X133390000Y-210820000D03*
D12*
X135890000Y-210820000D03*
X138390000Y-210820000D03*
D14*
X63880000Y-59520000D03*
X47880000Y-59520000D03*
D15*
X50880000Y-49270000D03*
X53380000Y-49270000D03*
X55880000Y-49270000D03*
X58380000Y-49270000D03*
X60880000Y-49270000D03*
X60880000Y-67570000D03*
X58380000Y-67570000D03*
X55880000Y-67570000D03*
X53380000Y-67570000D03*
X50880000Y-67570000D03*
D13*
X163830000Y-185800000D03*
X163830000Y-190500000D03*
X163830000Y-195200000D03*
D10*
X130455000Y-144910000D03*
X140055000Y-144910000D03*
D11*
X132755000Y-152410000D03*
D12*
X135255000Y-152410000D03*
X137755000Y-152410000D03*
D13*
X81280000Y-113920000D03*
X81280000Y-109220000D03*
X81280000Y-104520000D03*
D14*
X165480000Y-59520000D03*
X149480000Y-59520000D03*
D15*
X152480000Y-49270000D03*
X154980000Y-49270000D03*
X157480000Y-49270000D03*
X159980000Y-49270000D03*
X162480000Y-49270000D03*
X162480000Y-67570000D03*
X159980000Y-67570000D03*
X157480000Y-67570000D03*
X154980000Y-67570000D03*
X152480000Y-67570000D03*
D10*
X168630000Y-228720000D03*
X159030000Y-228720000D03*
D11*
X161330000Y-236220000D03*
D12*
X163830000Y-236220000D03*
X166330000Y-236220000D03*
G36*
G01*
X165925000Y-214230000D02*
X164235000Y-214230000D01*
G75*
G02*
X163985000Y-213980000I0J250000D01*
G01*
X163985000Y-212740000D01*
G75*
G02*
X164235000Y-212490000I250000J0D01*
G01*
X165925000Y-212490000D01*
G75*
G02*
X166175000Y-212740000I0J-250000D01*
G01*
X166175000Y-213980000D01*
G75*
G02*
X165925000Y-214230000I-250000J0D01*
G01*
G37*
D16*
X165080000Y-210820000D03*
D17*
X67564000Y-185928000D03*
X65024000Y-185928000D03*
X62484000Y-185928000D03*
D18*
X81280000Y-133858000D03*
X73660000Y-133858000D03*
D17*
X81036000Y-225298000D03*
X78496000Y-225298000D03*
X75956000Y-225298000D03*
X94996000Y-225298000D03*
X92456000Y-225298000D03*
X89916000Y-225298000D03*
G36*
G01*
X165925000Y-172955000D02*
X164235000Y-172955000D01*
G75*
G02*
X163985000Y-172705000I0J250000D01*
G01*
X163985000Y-171465000D01*
G75*
G02*
X164235000Y-171215000I250000J0D01*
G01*
X165925000Y-171215000D01*
G75*
G02*
X166175000Y-171465000I0J-250000D01*
G01*
X166175000Y-172705000D01*
G75*
G02*
X165925000Y-172955000I-250000J0D01*
G01*
G37*
D16*
X165080000Y-169545000D03*
X165080000Y-167005000D03*
X165080000Y-164465000D03*
X165080000Y-161925000D03*
D17*
X109728000Y-49012000D03*
X109728000Y-51552000D03*
X109728000Y-54092000D03*
D19*
X153416000Y-72644000D03*
G36*
G01*
X47435000Y-37230000D02*
X49125000Y-37230000D01*
G75*
G02*
X49375000Y-37480000I0J-250000D01*
G01*
X49375000Y-38720000D01*
G75*
G02*
X49125000Y-38970000I-250000J0D01*
G01*
X47435000Y-38970000D01*
G75*
G02*
X47185000Y-38720000I0J250000D01*
G01*
X47185000Y-37480000D01*
G75*
G02*
X47435000Y-37230000I250000J0D01*
G01*
G37*
D16*
X48280000Y-40640000D03*
X48280000Y-43180000D03*
D19*
X94996000Y-34544000D03*
X48260000Y-70612000D03*
D20*
X149011000Y-44323000D03*
X151511000Y-44323000D03*
D17*
X68580000Y-225298000D03*
X66040000Y-225298000D03*
X63500000Y-225298000D03*
D21*
X137912000Y-215128000D03*
D22*
X137912000Y-217668000D03*
X137912000Y-220208000D03*
X137912000Y-222748000D03*
X137912000Y-225288000D03*
X137912000Y-227828000D03*
X137912000Y-230368000D03*
X137912000Y-232908000D03*
X130292000Y-232908000D03*
X130292000Y-230368000D03*
X130292000Y-227828000D03*
X130292000Y-225288000D03*
X130292000Y-222748000D03*
X130292000Y-220208000D03*
X130292000Y-217668000D03*
X130292000Y-215128000D03*
D20*
X125182000Y-146558000D03*
X120182000Y-146558000D03*
D19*
X70358000Y-109220000D03*
D23*
X137818500Y-192786000D03*
D24*
X135278500Y-192786000D03*
D19*
X108966000Y-106426000D03*
D17*
X121412000Y-127508000D03*
X121412000Y-130048000D03*
X121412000Y-132588000D03*
D19*
X85598000Y-231648000D03*
X100330000Y-104648000D03*
D21*
X50458380Y-123561500D03*
D20*
X47958380Y-123561500D03*
D19*
X156718000Y-193294000D03*
G36*
G01*
X165985000Y-93580000D02*
X164295000Y-93580000D01*
G75*
G02*
X164045000Y-93330000I0J250000D01*
G01*
X164045000Y-92090000D01*
G75*
G02*
X164295000Y-91840000I250000J0D01*
G01*
X165985000Y-91840000D01*
G75*
G02*
X166235000Y-92090000I0J-250000D01*
G01*
X166235000Y-93330000D01*
G75*
G02*
X165985000Y-93580000I-250000J0D01*
G01*
G37*
D16*
X165140000Y-90170000D03*
X165140000Y-87630000D03*
D19*
X121666000Y-34544000D03*
G36*
G01*
X165945000Y-131680000D02*
X164255000Y-131680000D01*
G75*
G02*
X164005000Y-131430000I0J250000D01*
G01*
X164005000Y-130190000D01*
G75*
G02*
X164255000Y-129940000I250000J0D01*
G01*
X165945000Y-129940000D01*
G75*
G02*
X166195000Y-130190000I0J-250000D01*
G01*
X166195000Y-131430000D01*
G75*
G02*
X165945000Y-131680000I-250000J0D01*
G01*
G37*
D16*
X165100000Y-128270000D03*
X165100000Y-125730000D03*
D20*
X141518000Y-227090000D03*
X146518000Y-227090000D03*
D17*
X109728000Y-65024000D03*
X109728000Y-67564000D03*
X109728000Y-70104000D03*
D21*
X58156000Y-161046000D03*
D22*
X58156000Y-163586000D03*
X58156000Y-166126000D03*
X58156000Y-168666000D03*
X50536000Y-168666000D03*
X50536000Y-166126000D03*
X50536000Y-163586000D03*
X50536000Y-161046000D03*
D19*
X158496000Y-32512000D03*
D17*
X92710000Y-166878000D03*
X90170000Y-166878000D03*
X87630000Y-166878000D03*
X84074000Y-185928000D03*
X81534000Y-185928000D03*
X78994000Y-185928000D03*
X68580000Y-213868000D03*
X66040000Y-213868000D03*
X63500000Y-213868000D03*
D19*
X117602000Y-203708000D03*
D20*
X147294000Y-210834000D03*
X142294000Y-210834000D03*
X67310000Y-196850000D03*
D22*
X57150000Y-196850000D03*
D19*
X93726000Y-176784000D03*
D17*
X103632000Y-49012000D03*
X103632000Y-51552000D03*
X103632000Y-54092000D03*
D19*
X131572000Y-133604000D03*
D21*
X57364000Y-123815500D03*
D20*
X54864000Y-123815500D03*
D23*
X101195500Y-217678000D03*
D24*
X98655500Y-217678000D03*
D17*
X103632000Y-65024000D03*
X103632000Y-67564000D03*
X103632000Y-70104000D03*
D20*
X119634000Y-220178000D03*
X119634000Y-215178000D03*
X97536000Y-168442000D03*
X97536000Y-173442000D03*
X119634000Y-229957000D03*
X119634000Y-224957000D03*
D17*
X114935000Y-158105000D03*
X114935000Y-160645000D03*
X114935000Y-163185000D03*
D19*
X65532000Y-110744000D03*
D20*
X126452000Y-121412000D03*
X121452000Y-121412000D03*
D19*
X120650000Y-166370000D03*
D21*
X109972000Y-158237000D03*
D22*
X109972000Y-160777000D03*
X109972000Y-170937000D03*
X109972000Y-173477000D03*
X102352000Y-173477000D03*
X102352000Y-170937000D03*
X102352000Y-160777000D03*
X102352000Y-158237000D03*
D19*
X147066000Y-103124000D03*
D21*
X116322000Y-122423000D03*
D22*
X116322000Y-124963000D03*
X116322000Y-135123000D03*
X116322000Y-137663000D03*
X108702000Y-137663000D03*
X108702000Y-135123000D03*
X108702000Y-124963000D03*
X108702000Y-122423000D03*
D19*
X117094000Y-181864000D03*
D17*
X102870000Y-125222000D03*
X100330000Y-125222000D03*
X97790000Y-125222000D03*
G36*
G01*
X46898000Y-133516000D02*
X48098000Y-133516000D01*
G75*
G02*
X48348000Y-133766000I0J-250000D01*
G01*
X48348000Y-134966000D01*
G75*
G02*
X48098000Y-135216000I-250000J0D01*
G01*
X46898000Y-135216000D01*
G75*
G02*
X46648000Y-134966000I0J250000D01*
G01*
X46648000Y-133766000D01*
G75*
G02*
X46898000Y-133516000I250000J0D01*
G01*
G37*
D25*
X47498000Y-136906000D03*
X50038000Y-134366000D03*
X50038000Y-136906000D03*
X52578000Y-134366000D03*
X52578000Y-136906000D03*
X55118000Y-134366000D03*
X55118000Y-136906000D03*
X57658000Y-134366000D03*
X57658000Y-136906000D03*
G36*
G01*
X165945000Y-46590000D02*
X164255000Y-46590000D01*
G75*
G02*
X164005000Y-46340000I0J250000D01*
G01*
X164005000Y-45100000D01*
G75*
G02*
X164255000Y-44850000I250000J0D01*
G01*
X165945000Y-44850000D01*
G75*
G02*
X166195000Y-45100000I0J-250000D01*
G01*
X166195000Y-46340000D01*
G75*
G02*
X165945000Y-46590000I-250000J0D01*
G01*
G37*
D16*
X165100000Y-43180000D03*
X165100000Y-40640000D03*
X165100000Y-38100000D03*
D19*
X64008000Y-38100000D03*
M02*
