M48
; DRILL file {KiCad 6.0.5+dfsg-1~bpo11+1} date Mon Feb  6 17:01:20 2023
; FORMAT={-:-/ absolute / metric / decimal}
; #@! TF.CreationDate,2023-02-06T17:01:20+00:00
; #@! TF.GenerationSoftware,Kicad,Pcbnew,6.0.5+dfsg-1~bpo11+1
; #@! TF.FileFunction,Plated,1,2,PTH
FMAT,2
METRIC
; #@! TA.AperFunction,Plated,PTH,ViaDrill
T1C0.400
; #@! TA.AperFunction,Plated,PTH,ViaDrill
T2C0.500
; #@! TA.AperFunction,Plated,PTH,ViaDrill
T3C0.800
; #@! TA.AperFunction,Plated,PTH,ComponentDrill
T4C0.800
; #@! TA.AperFunction,Plated,PTH,ComponentDrill
T5C0.900
; #@! TA.AperFunction,Plated,PTH,ComponentDrill
T6C1.000
; #@! TA.AperFunction,Plated,PTH,ComponentDrill
T7C1.100
; #@! TA.AperFunction,Plated,PTH,ComponentDrill
T8C1.190
; #@! TA.AperFunction,Plated,PTH,ComponentDrill
T9C1.300
; #@! TA.AperFunction,Plated,PTH,ComponentDrill
T10C1.850
; #@! TA.AperFunction,Plated,PTH,ComponentDrill
T11C2.000
%
G90
G05
T1
X56.896Y-156.464
X70.866Y-172.466
X70.866Y-175.006
X77.978Y-164.084
X79.756Y-161.036
X80.772Y-175.768
X87.884Y-54.864
X130.556Y-236.474
T2
X42.164Y-172.974
X42.418Y-159.766
X42.418Y-163.068
X42.418Y-183.642
X42.672Y-166.37
X42.926Y-196.85
X43.434Y-189.23
X44.323Y-177.673
X44.734Y-119.156
X47.625Y-67.564
X47.879Y-177.673
X48.006Y-182.118
X48.006Y-213.106
X48.63Y-117.718
X48.768Y-30.988
X49.276Y-219.202
X50.292Y-210.82
X50.8Y-75.565
X50.8Y-96.52
X50.8Y-207.518
X50.927Y-53.721
X51.816Y-156.21
X52.324Y-158.496
X53.848Y-199.136
X54.239Y-171.672
X54.864Y-102.108
X55.372Y-61.341
X55.88Y-199.644
X56.896Y-214.63
X57.267Y-177.832
X57.658Y-182.118
X57.785Y-75.565
X58.42Y-188.468
X58.898Y-199.044
X59.69Y-206.502
X59.944Y-189.738
X59.944Y-234.696
X60.198Y-210.82
X60.452Y-151.13
X61.976Y-228.6
X62.738Y-107.95
X62.865Y-75.565
X62.992Y-115.062
X63.5Y-31.496
X63.5Y-93.345
X63.5Y-198.882
X64.008Y-174.752
X65.024Y-130.302
X65.786Y-149.098
X65.962Y-124.127
X66.294Y-51.181
X66.548Y-39.37
X66.548Y-68.072
X66.802Y-156.464
X67.056Y-58.166
X67.056Y-161.544
X67.31Y-41.656
X67.31Y-78.232
X67.31Y-168.148
X68.072Y-38.1
X69.088Y-68.072
X69.088Y-73.406
X69.215Y-90.805
X69.596Y-159.004
X70.485Y-180.975
X70.485Y-234.95
X71.054Y-124.127
X71.374Y-115.062
X71.628Y-101.346
X71.628Y-105.918
X71.755Y-153.035
X71.882Y-58.166
X71.882Y-208.026
X72.136Y-62.484
X72.136Y-66.04
X72.324Y-162.814
X72.39Y-120.65
X72.39Y-185.166
X72.644Y-200.66
X73.152Y-56.134
X73.152Y-59.436
X73.914Y-49.657
X74.93Y-199.39
X75.438Y-188.214
X76.515Y-160.157
X77.343Y-90.297
X77.724Y-88.138
X78.232Y-91.694
X78.486Y-48.006
X78.486Y-58.42
X78.74Y-32.385
X78.74Y-68.834
X78.74Y-84.328
X78.74Y-94.742
X78.74Y-236.728
X78.994Y-65.532
X78.994Y-75.438
X78.994Y-77.837
X78.994Y-81.28
X80.264Y-216.662
X80.737Y-157.951
X81.752Y-96.738
X81.788Y-98.044
X82.261Y-153.646
X82.586Y-216.983
X82.804Y-123.19
X82.804Y-164.084
X83.245Y-154.332
X83.566Y-173.482
X83.82Y-100.965
X83.82Y-218.44
X84.012Y-155.254
X84.328Y-81.026
X84.836Y-126.1
X85.852Y-160.274
X86.106Y-197.104
X88.138Y-44.196
X88.138Y-64.516
X88.138Y-220.726
X88.392Y-72.644
X88.392Y-48.006
X88.392Y-68.834
X88.392Y-75.184
X88.392Y-84.328
X88.392Y-94.742
X88.646Y-58.42
X88.646Y-90.932
X88.646Y-189.738
X88.9Y-78.74
X88.9Y-80.772
X89.154Y-116.84
X89.154Y-151.384
X89.281Y-111.633
X89.408Y-130.302
X89.662Y-71.628
X89.662Y-126.746
X90.678Y-182.372
X90.678Y-212.852
X90.932Y-200.406
X90.932Y-203.708
X90.932Y-210.312
X91.44Y-100.965
X92.075Y-32.385
X92.202Y-144.272
X92.71Y-158.75
X93.218Y-96.52
X94.488Y-51.562
X94.488Y-68.072
X94.488Y-135.636
X94.615Y-234.95
X95.25Y-49.022
X95.25Y-109.22
X95.25Y-162.56
X95.861Y-157.328
X96.012Y-220.726
X96.266Y-63.881
X96.407Y-88.138
X97.282Y-196.342
X97.536Y-188.976
X98.298Y-182.88
X98.34Y-157.268
X98.552Y-83.058
X98.552Y-111.252
X98.806Y-88.138
X99.187Y-65.532
X99.695Y-94.615
X99.695Y-100.965
X99.822Y-71.628
X99.822Y-162.56
X100.076Y-50.292
X100.33Y-193.294
X100.33Y-198.12
X101.6Y-109.22
X102.224Y-210.28
X102.466Y-68.984
X103.124Y-176.53
X103.378Y-116.586
X103.378Y-193.294
X103.378Y-199.898
X103.632Y-178.562
X104.14Y-43.942
X104.14Y-95.758
X104.394Y-158.242
X104.775Y-160.655
X105.156Y-206.502
X105.41Y-216.916
X106.172Y-55.88
X106.68Y-187.706
X106.68Y-196.342
X106.796Y-49.022
X107.072Y-62.854
X107.303Y-212.919
X107.812Y-47.497
X107.873Y-180.142
X109.347Y-111.76
X109.728Y-164.338
X110.039Y-43.91
X110.352Y-179.462
X110.744Y-221.234
X111.125Y-132.08
X111.76Y-94.615
X111.76Y-100.965
X112.014Y-189.992
X112.395Y-124.46
X112.776Y-117.602
X112.955Y-47.065
X113.03Y-72.517
X113.284Y-75.184
X113.284Y-216.916
X113.538Y-50.038
X113.538Y-52.324
X113.538Y-78.232
X113.538Y-193.802
X113.538Y-200.406
X113.675Y-81.788
X113.792Y-45.72
X114.046Y-209.042
X114.3Y-91.44
X114.808Y-64.262
X114.808Y-196.088
X115.57Y-113.792
X115.849Y-222.473
X116.84Y-91.44
X117.348Y-151.384
X117.348Y-166.878
X117.856Y-111.76
X118.11Y-49.022
X118.11Y-52.324
X118.364Y-60.452
X118.364Y-95.25
X119.38Y-221.742
X119.888Y-227.584
X121.158Y-232.156
X121.285Y-175.26
X121.285Y-181.61
X121.285Y-193.04
X121.285Y-198.755
X121.412Y-157.226
X122.428Y-205.994
X123.19Y-100.965
X123.92Y-72.019
X124.079Y-78.867
X124.206Y-81.026
X124.46Y-32.385
X124.46Y-58.674
X124.714Y-66.04
X124.714Y-69.088
X124.714Y-84.582
X124.714Y-94.996
X124.841Y-111.76
X124.968Y-48.26
X124.968Y-73.152
X124.968Y-75.692
X124.968Y-151.892
X125.095Y-63.373
X125.222Y-45.212
X125.222Y-55.626
X125.222Y-92.202
X125.476Y-81.777
X125.984Y-189.992
X126.238Y-139.7
X126.492Y-178.308
X127.0Y-175.514
X127.0Y-188.722
X127.0Y-206.756
X127.128Y-208.154
X127.229Y-205.486
X127.254Y-185.42
X127.762Y-132.588
X127.762Y-209.296
X128.104Y-98.014
X128.27Y-163.83
X128.27Y-194.818
X128.524Y-158.242
X129.54Y-152.654
X130.048Y-199.39
X130.302Y-81.28
X130.302Y-210.82
X131.318Y-98.806
X133.35Y-170.434
X133.35Y-187.198
X133.985Y-215.265
X134.366Y-75.184
X134.366Y-81.28
X134.366Y-90.678
X134.62Y-78.74
X134.62Y-94.996
X134.874Y-48.26
X134.874Y-58.674
X134.874Y-64.77
X134.874Y-69.088
X134.874Y-84.582
X135.255Y-161.925
X135.255Y-233.045
X135.636Y-167.64
X135.763Y-89.281
X135.89Y-87.122
X135.89Y-135.128
X136.144Y-100.838
X136.652Y-172.466
X137.16Y-124.714
X137.795Y-32.385
X137.795Y-156.845
X137.922Y-59.055
X138.049Y-180.213
X138.201Y-185.42
X139.192Y-175.006
X139.446Y-55.372
X139.446Y-58.166
X139.7Y-182.118
X139.954Y-49.784
X140.091Y-167.64
X140.462Y-121.02
X140.97Y-62.992
X141.224Y-66.548
X141.281Y-181.836
X141.478Y-58.166
X141.515Y-128.524
X142.24Y-116.332
X142.494Y-198.882
X142.748Y-98.425
X142.875Y-158.115
X143.002Y-170.434
X143.002Y-193.802
X143.51Y-94.605
X143.51Y-109.22
X143.51Y-121.666
X143.51Y-206.502
X144.018Y-66.802
X144.272Y-73.66
X145.176Y-218.948
X145.288Y-215.646
X145.542Y-163.322
X145.542Y-232.41
X145.614Y-68.906
X146.05Y-41.91
X146.05Y-78.486
X146.05Y-196.088
X146.304Y-52.832
X146.304Y-54.864
X146.558Y-131.318
X147.32Y-122.682
X147.32Y-158.115
X147.574Y-57.15
X147.574Y-149.606
X147.574Y-207.518
X147.828Y-82.804
X147.828Y-235.458
X148.081Y-72.391
X148.209Y-34.036
X148.59Y-68.072
X148.59Y-231.648
X148.96Y-66.725
X149.606Y-185.42
X149.606Y-192.024
X149.86Y-168.91
X149.86Y-175.514
X149.86Y-208.534
X151.765Y-79.375
X151.765Y-86.995
X152.146Y-100.33
X152.4Y-223.52
X153.035Y-158.115
X153.162Y-214.63
X153.416Y-131.572
X154.178Y-149.606
X154.819Y-172.131
X155.702Y-121.666
X156.21Y-190.5
X156.464Y-62.484
X156.718Y-70.612
X156.972Y-152.146
X157.988Y-202.438
X158.242Y-206.756
X158.242Y-223.774
X158.242Y-235.966
X160.02Y-81.915
X160.02Y-158.115
X160.274Y-100.584
X160.782Y-136.906
X161.925Y-179.07
X163.195Y-201.93
X165.862Y-221.488
X166.878Y-118.618
X167.386Y-192.532
X168.148Y-96.266
X168.656Y-97.782
X168.91Y-61.468
X168.91Y-77.47
X169.164Y-186.436
X169.418Y-102.87
X169.418Y-198.374
X170.688Y-235.966
X170.942Y-191.262
X171.958Y-44.958
T3
X64.704Y-108.138
T4
X47.958Y-123.561
X50.458Y-123.561
X50.536Y-161.046
X50.536Y-163.586
X50.536Y-166.126
X50.536Y-168.666
X54.864Y-123.816
X57.15Y-196.85
X57.364Y-123.816
X58.156Y-161.046
X58.156Y-163.586
X58.156Y-166.126
X58.156Y-168.666
X62.484Y-185.928
X63.5Y-213.868
X63.5Y-225.298
X65.024Y-185.928
X66.04Y-213.868
X66.04Y-225.298
X67.31Y-196.85
X67.564Y-185.928
X68.58Y-213.868
X68.58Y-225.298
X75.956Y-225.298
X78.496Y-225.298
X78.994Y-185.928
X81.036Y-225.298
X81.534Y-185.928
X84.074Y-185.928
X87.63Y-166.878
X89.916Y-225.298
X90.17Y-166.878
X92.456Y-225.298
X92.71Y-166.878
X94.996Y-225.298
X97.536Y-168.442
X97.536Y-173.442
X97.79Y-125.222
X100.33Y-125.222
X102.352Y-158.237
X102.352Y-160.777
X102.352Y-170.937
X102.352Y-173.477
X102.87Y-125.222
X103.632Y-49.012
X103.632Y-51.552
X103.632Y-54.092
X103.632Y-65.024
X103.632Y-67.564
X103.632Y-70.104
X108.702Y-122.423
X108.702Y-124.963
X108.702Y-135.123
X108.702Y-137.663
X109.728Y-49.012
X109.728Y-51.552
X109.728Y-54.092
X109.728Y-65.024
X109.728Y-67.564
X109.728Y-70.104
X109.972Y-158.237
X109.972Y-160.777
X109.972Y-170.937
X109.972Y-173.477
X114.935Y-158.105
X114.935Y-160.645
X114.935Y-163.185
X116.322Y-122.423
X116.322Y-124.963
X116.322Y-135.123
X116.322Y-137.663
X119.634Y-215.178
X119.634Y-220.178
X119.634Y-224.957
X119.634Y-229.957
X120.182Y-146.558
X121.412Y-127.508
X121.412Y-130.048
X121.412Y-132.588
X121.452Y-121.412
X125.182Y-146.558
X126.452Y-121.412
X130.292Y-215.128
X130.292Y-217.668
X130.292Y-220.208
X130.292Y-222.748
X130.292Y-225.288
X130.292Y-227.828
X130.292Y-230.368
X130.292Y-232.908
X137.912Y-215.128
X137.912Y-217.668
X137.912Y-220.208
X137.912Y-222.748
X137.912Y-225.288
X137.912Y-227.828
X137.912Y-230.368
X137.912Y-232.908
X141.518Y-227.09
X142.294Y-210.834
X146.518Y-227.09
X147.294Y-210.834
X149.011Y-44.323
X151.511Y-44.323
T5
X50.88Y-49.27
X50.88Y-67.57
X53.38Y-49.27
X53.38Y-67.57
X55.88Y-49.27
X55.88Y-67.57
X58.38Y-49.27
X58.38Y-67.57
X60.88Y-49.27
X60.88Y-67.57
X72.47Y-194.05
X72.47Y-212.35
X74.97Y-194.05
X74.97Y-212.35
X77.47Y-194.05
X77.47Y-212.35
X79.97Y-194.05
X79.97Y-212.35
X82.47Y-194.05
X82.47Y-212.35
X152.48Y-49.27
X152.48Y-67.57
X154.98Y-49.27
X154.98Y-67.57
X157.48Y-49.27
X157.48Y-67.57
X159.98Y-49.27
X159.98Y-67.57
X162.48Y-49.27
X162.48Y-67.57
T6
X47.03Y-152.4
X47.03Y-236.23
X47.498Y-134.366
X47.498Y-136.906
X48.26Y-70.612
X49.53Y-152.4
X49.53Y-236.23
X50.038Y-134.366
X50.038Y-136.906
X52.03Y-152.4
X52.03Y-236.23
X52.578Y-134.366
X52.578Y-136.906
X53.34Y-116.84
X55.118Y-134.366
X55.118Y-136.906
X55.84Y-116.84
X57.658Y-134.366
X57.658Y-136.906
X58.34Y-116.84
X64.008Y-38.1
X65.532Y-110.744
X70.358Y-109.22
X75.605Y-152.4
X78.105Y-152.4
X80.605Y-152.4
X85.598Y-231.648
X93.726Y-176.784
X94.996Y-34.544
X98.655Y-217.678
X100.33Y-104.648
X101.195Y-217.678
X104.14Y-40.64
X104.14Y-91.44
X104.18Y-152.41
X104.18Y-236.22
X106.64Y-40.64
X106.64Y-91.44
X106.68Y-152.41
X106.68Y-236.22
X108.966Y-106.426
X109.14Y-40.64
X109.14Y-91.44
X109.18Y-152.41
X109.18Y-236.22
X117.094Y-181.864
X117.602Y-203.708
X120.65Y-166.37
X121.666Y-34.544
X131.572Y-133.604
X132.755Y-152.41
X133.39Y-210.82
X135.255Y-152.41
X135.278Y-192.786
X135.89Y-210.82
X137.755Y-152.41
X137.819Y-192.786
X138.39Y-210.82
X147.066Y-103.124
X153.416Y-72.644
X154.94Y-116.84
X156.718Y-193.294
X157.44Y-116.84
X158.496Y-32.512
X159.94Y-116.84
X161.33Y-152.4
X161.33Y-236.22
X163.83Y-152.4
X163.83Y-236.22
X166.33Y-152.4
X166.33Y-236.22
T8
X48.28Y-38.1
X48.28Y-40.64
X48.28Y-43.18
X165.08Y-161.925
X165.08Y-164.465
X165.08Y-167.005
X165.08Y-169.545
X165.08Y-172.085
X165.08Y-210.82
X165.08Y-213.36
X165.1Y-38.1
X165.1Y-40.64
X165.1Y-43.18
X165.1Y-45.72
X165.1Y-125.73
X165.1Y-128.27
X165.1Y-130.81
X165.14Y-87.63
X165.14Y-90.17
X165.14Y-92.71
T9
X73.66Y-133.858
X81.28Y-133.858
T10
X47.115Y-185.8
X47.115Y-190.5
X47.115Y-195.2
X51.945Y-185.8
X51.945Y-190.5
X51.945Y-195.2
X81.28Y-104.52
X81.28Y-109.22
X81.28Y-113.92
X129.665Y-104.52
X129.665Y-109.22
X129.665Y-113.92
X134.495Y-104.52
X134.495Y-109.22
X134.495Y-113.92
X163.83Y-185.8
X163.83Y-190.5
X163.83Y-195.2
T11
X47.88Y-59.52
X63.88Y-59.52
X69.47Y-204.3
X85.47Y-204.3
X149.48Y-59.52
X165.48Y-59.52
T7
X44.73Y-145.25G85X44.73Y-144.55
G05
X44.73Y-229.08G85X44.73Y-228.38
G05
X51.04Y-109.69G85X51.04Y-108.99
G05
X54.33Y-145.25G85X54.33Y-144.55
G05
X54.33Y-229.08G85X54.33Y-228.38
G05
X60.64Y-109.69G85X60.64Y-108.99
G05
X73.305Y-145.25G85X73.305Y-144.55
G05
X82.905Y-145.25G85X82.905Y-144.55
G05
X101.84Y-33.49G85X101.84Y-32.79
G05
X101.84Y-84.29G85X101.84Y-83.59
G05
X101.88Y-145.26G85X101.88Y-144.56
G05
X101.88Y-229.07G85X101.88Y-228.37
G05
X111.44Y-33.49G85X111.44Y-32.79
G05
X111.44Y-84.29G85X111.44Y-83.59
G05
X111.48Y-145.26G85X111.48Y-144.56
G05
X111.48Y-229.07G85X111.48Y-228.37
G05
X130.455Y-145.26G85X130.455Y-144.56
G05
X131.09Y-203.67G85X131.09Y-202.97
G05
X140.055Y-145.26G85X140.055Y-144.56
G05
X140.69Y-203.67G85X140.69Y-202.97
G05
X152.64Y-109.69G85X152.64Y-108.99
G05
X159.03Y-145.25G85X159.03Y-144.55
G05
X159.03Y-229.07G85X159.03Y-228.37
G05
X162.24Y-109.69G85X162.24Y-108.99
G05
X168.63Y-145.25G85X168.63Y-144.55
G05
X168.63Y-229.07G85X168.63Y-228.37
G05
T0
M30
