G04 #@! TF.GenerationSoftware,KiCad,Pcbnew,6.0.5+dfsg-1~bpo11+1*
G04 #@! TF.CreationDate,2023-02-06T17:01:20+00:00*
G04 #@! TF.ProjectId,VCF_VCA_BBD_board,5643465f-5643-4415-9f42-42445f626f61,1.0*
G04 #@! TF.SameCoordinates,Original*
G04 #@! TF.FileFunction,Legend,Top*
G04 #@! TF.FilePolarity,Positive*
%FSLAX46Y46*%
G04 Gerber Fmt 4.6, Leading zero omitted, Abs format (unit mm)*
G04 Created by KiCad (PCBNEW 6.0.5+dfsg-1~bpo11+1) date 2023-02-06 17:01:20*
%MOMM*%
%LPD*%
G01*
G04 APERTURE LIST*
%ADD10C,0.150000*%
%ADD11C,0.120000*%
%ADD12C,0.127000*%
%ADD13C,0.080000*%
%ADD14O,2.720000X3.240000*%
%ADD15R,1.800000X1.800000*%
%ADD16C,1.800000*%
%ADD17C,2.500000*%
%ADD18C,3.000000*%
%ADD19C,1.451600*%
%ADD20O,2.190000X1.740000*%
%ADD21C,1.440000*%
%ADD22C,2.600000*%
%ADD23C,2.000000*%
%ADD24C,1.600000*%
%ADD25R,1.600000X1.600000*%
%ADD26O,1.600000X1.600000*%
%ADD27R,1.700000X1.700000*%
%ADD28O,1.700000X1.700000*%
%ADD29C,1.700000*%
G04 APERTURE END LIST*
D10*
X105132380Y-78684380D02*
X104799047Y-78208190D01*
X104560952Y-78684380D02*
X104560952Y-77684380D01*
X104941904Y-77684380D01*
X105037142Y-77732000D01*
X105084761Y-77779619D01*
X105132380Y-77874857D01*
X105132380Y-78017714D01*
X105084761Y-78112952D01*
X105037142Y-78160571D01*
X104941904Y-78208190D01*
X104560952Y-78208190D01*
X105418095Y-77684380D02*
X105751428Y-78684380D01*
X106084761Y-77684380D01*
X106846666Y-78017714D02*
X106846666Y-78684380D01*
X106608571Y-77636761D02*
X106370476Y-78351047D01*
X106989523Y-78351047D01*
X107560952Y-77684380D02*
X107656190Y-77684380D01*
X107751428Y-77732000D01*
X107799047Y-77779619D01*
X107846666Y-77874857D01*
X107894285Y-78065333D01*
X107894285Y-78303428D01*
X107846666Y-78493904D01*
X107799047Y-78589142D01*
X107751428Y-78636761D01*
X107656190Y-78684380D01*
X107560952Y-78684380D01*
X107465714Y-78636761D01*
X107418095Y-78589142D01*
X107370476Y-78493904D01*
X107322857Y-78303428D01*
X107322857Y-78065333D01*
X107370476Y-77874857D01*
X107418095Y-77779619D01*
X107465714Y-77732000D01*
X107560952Y-77684380D01*
X108227619Y-77684380D02*
X108894285Y-77684380D01*
X108465714Y-78684380D01*
X105132380Y-27884380D02*
X104799047Y-27408190D01*
X104560952Y-27884380D02*
X104560952Y-26884380D01*
X104941904Y-26884380D01*
X105037142Y-26932000D01*
X105084761Y-26979619D01*
X105132380Y-27074857D01*
X105132380Y-27217714D01*
X105084761Y-27312952D01*
X105037142Y-27360571D01*
X104941904Y-27408190D01*
X104560952Y-27408190D01*
X105418095Y-26884380D02*
X105751428Y-27884380D01*
X106084761Y-26884380D01*
X106846666Y-27217714D02*
X106846666Y-27884380D01*
X106608571Y-26836761D02*
X106370476Y-27551047D01*
X106989523Y-27551047D01*
X107560952Y-26884380D02*
X107656190Y-26884380D01*
X107751428Y-26932000D01*
X107799047Y-26979619D01*
X107846666Y-27074857D01*
X107894285Y-27265333D01*
X107894285Y-27503428D01*
X107846666Y-27693904D01*
X107799047Y-27789142D01*
X107751428Y-27836761D01*
X107656190Y-27884380D01*
X107560952Y-27884380D01*
X107465714Y-27836761D01*
X107418095Y-27789142D01*
X107370476Y-27693904D01*
X107322857Y-27503428D01*
X107322857Y-27265333D01*
X107370476Y-27074857D01*
X107418095Y-26979619D01*
X107465714Y-26932000D01*
X107560952Y-26884380D01*
X108751428Y-26884380D02*
X108560952Y-26884380D01*
X108465714Y-26932000D01*
X108418095Y-26979619D01*
X108322857Y-27122476D01*
X108275238Y-27312952D01*
X108275238Y-27693904D01*
X108322857Y-27789142D01*
X108370476Y-27836761D01*
X108465714Y-27884380D01*
X108656190Y-27884380D01*
X108751428Y-27836761D01*
X108799047Y-27789142D01*
X108846666Y-27693904D01*
X108846666Y-27455809D01*
X108799047Y-27360571D01*
X108751428Y-27312952D01*
X108656190Y-27265333D01*
X108465714Y-27265333D01*
X108370476Y-27312952D01*
X108322857Y-27360571D01*
X108275238Y-27455809D01*
X130746666Y-102639761D02*
X130889523Y-102687380D01*
X131127619Y-102687380D01*
X131222857Y-102639761D01*
X131270476Y-102592142D01*
X131318095Y-102496904D01*
X131318095Y-102401666D01*
X131270476Y-102306428D01*
X131222857Y-102258809D01*
X131127619Y-102211190D01*
X130937142Y-102163571D01*
X130841904Y-102115952D01*
X130794285Y-102068333D01*
X130746666Y-101973095D01*
X130746666Y-101877857D01*
X130794285Y-101782619D01*
X130841904Y-101735000D01*
X130937142Y-101687380D01*
X131175238Y-101687380D01*
X131318095Y-101735000D01*
X131651428Y-101687380D02*
X131889523Y-102687380D01*
X132080000Y-101973095D01*
X132270476Y-102687380D01*
X132508571Y-101687380D01*
X132794285Y-101687380D02*
X133413333Y-101687380D01*
X133080000Y-102068333D01*
X133222857Y-102068333D01*
X133318095Y-102115952D01*
X133365714Y-102163571D01*
X133413333Y-102258809D01*
X133413333Y-102496904D01*
X133365714Y-102592142D01*
X133318095Y-102639761D01*
X133222857Y-102687380D01*
X132937142Y-102687380D01*
X132841904Y-102639761D01*
X132794285Y-102592142D01*
X54332380Y-103957380D02*
X53999047Y-103481190D01*
X53760952Y-103957380D02*
X53760952Y-102957380D01*
X54141904Y-102957380D01*
X54237142Y-103005000D01*
X54284761Y-103052619D01*
X54332380Y-103147857D01*
X54332380Y-103290714D01*
X54284761Y-103385952D01*
X54237142Y-103433571D01*
X54141904Y-103481190D01*
X53760952Y-103481190D01*
X54618095Y-102957380D02*
X54951428Y-103957380D01*
X55284761Y-102957380D01*
X55570476Y-103052619D02*
X55618095Y-103005000D01*
X55713333Y-102957380D01*
X55951428Y-102957380D01*
X56046666Y-103005000D01*
X56094285Y-103052619D01*
X56141904Y-103147857D01*
X56141904Y-103243095D01*
X56094285Y-103385952D01*
X55522857Y-103957380D01*
X56141904Y-103957380D01*
X56760952Y-102957380D02*
X56856190Y-102957380D01*
X56951428Y-103005000D01*
X56999047Y-103052619D01*
X57046666Y-103147857D01*
X57094285Y-103338333D01*
X57094285Y-103576428D01*
X57046666Y-103766904D01*
X56999047Y-103862142D01*
X56951428Y-103909761D01*
X56856190Y-103957380D01*
X56760952Y-103957380D01*
X56665714Y-103909761D01*
X56618095Y-103862142D01*
X56570476Y-103766904D01*
X56522857Y-103576428D01*
X56522857Y-103338333D01*
X56570476Y-103147857D01*
X56618095Y-103052619D01*
X56665714Y-103005000D01*
X56760952Y-102957380D01*
X58046666Y-103957380D02*
X57475238Y-103957380D01*
X57760952Y-103957380D02*
X57760952Y-102957380D01*
X57665714Y-103100238D01*
X57570476Y-103195476D01*
X57475238Y-103243095D01*
X46768095Y-183919761D02*
X46910952Y-183967380D01*
X47149047Y-183967380D01*
X47244285Y-183919761D01*
X47291904Y-183872142D01*
X47339523Y-183776904D01*
X47339523Y-183681666D01*
X47291904Y-183586428D01*
X47244285Y-183538809D01*
X47149047Y-183491190D01*
X46958571Y-183443571D01*
X46863333Y-183395952D01*
X46815714Y-183348333D01*
X46768095Y-183253095D01*
X46768095Y-183157857D01*
X46815714Y-183062619D01*
X46863333Y-183015000D01*
X46958571Y-182967380D01*
X47196666Y-182967380D01*
X47339523Y-183015000D01*
X47672857Y-182967380D02*
X47910952Y-183967380D01*
X48101428Y-183253095D01*
X48291904Y-183967380D01*
X48530000Y-182967380D01*
X49434761Y-183967380D02*
X48863333Y-183967380D01*
X49149047Y-183967380D02*
X49149047Y-182967380D01*
X49053809Y-183110238D01*
X48958571Y-183205476D01*
X48863333Y-183253095D01*
X49815714Y-183062619D02*
X49863333Y-183015000D01*
X49958571Y-182967380D01*
X50196666Y-182967380D01*
X50291904Y-183015000D01*
X50339523Y-183062619D01*
X50387142Y-183157857D01*
X50387142Y-183253095D01*
X50339523Y-183395952D01*
X49768095Y-183967380D01*
X50387142Y-183967380D01*
X51006190Y-182967380D02*
X51101428Y-182967380D01*
X51196666Y-183015000D01*
X51244285Y-183062619D01*
X51291904Y-183157857D01*
X51339523Y-183348333D01*
X51339523Y-183586428D01*
X51291904Y-183776904D01*
X51244285Y-183872142D01*
X51196666Y-183919761D01*
X51101428Y-183967380D01*
X51006190Y-183967380D01*
X50910952Y-183919761D01*
X50863333Y-183872142D01*
X50815714Y-183776904D01*
X50768095Y-183586428D01*
X50768095Y-183348333D01*
X50815714Y-183157857D01*
X50863333Y-183062619D01*
X50910952Y-183015000D01*
X51006190Y-182967380D01*
X52291904Y-183967380D02*
X51720476Y-183967380D01*
X52006190Y-183967380D02*
X52006190Y-182967380D01*
X51910952Y-183110238D01*
X51815714Y-183205476D01*
X51720476Y-183253095D01*
D11*
X75570000Y-192904285D02*
X75773571Y-192972142D01*
X76112857Y-192972142D01*
X76248571Y-192904285D01*
X76316428Y-192836428D01*
X76384285Y-192700714D01*
X76384285Y-192565000D01*
X76316428Y-192429285D01*
X76248571Y-192361428D01*
X76112857Y-192293571D01*
X75841428Y-192225714D01*
X75705714Y-192157857D01*
X75637857Y-192090000D01*
X75570000Y-191954285D01*
X75570000Y-191818571D01*
X75637857Y-191682857D01*
X75705714Y-191615000D01*
X75841428Y-191547142D01*
X76180714Y-191547142D01*
X76384285Y-191615000D01*
X76859285Y-191547142D02*
X77198571Y-192972142D01*
X77470000Y-191954285D01*
X77741428Y-192972142D01*
X78080714Y-191547142D01*
X79234285Y-192022142D02*
X79234285Y-192972142D01*
X78895000Y-191479285D02*
X78555714Y-192497142D01*
X79437857Y-192497142D01*
D10*
X105132380Y-223337380D02*
X104799047Y-222861190D01*
X104560952Y-223337380D02*
X104560952Y-222337380D01*
X104941904Y-222337380D01*
X105037142Y-222385000D01*
X105084761Y-222432619D01*
X105132380Y-222527857D01*
X105132380Y-222670714D01*
X105084761Y-222765952D01*
X105037142Y-222813571D01*
X104941904Y-222861190D01*
X104560952Y-222861190D01*
X105418095Y-222337380D02*
X105751428Y-223337380D01*
X106084761Y-222337380D01*
X106322857Y-222337380D02*
X106989523Y-222337380D01*
X106560952Y-223337380D01*
X107560952Y-222337380D02*
X107656190Y-222337380D01*
X107751428Y-222385000D01*
X107799047Y-222432619D01*
X107846666Y-222527857D01*
X107894285Y-222718333D01*
X107894285Y-222956428D01*
X107846666Y-223146904D01*
X107799047Y-223242142D01*
X107751428Y-223289761D01*
X107656190Y-223337380D01*
X107560952Y-223337380D01*
X107465714Y-223289761D01*
X107418095Y-223242142D01*
X107370476Y-223146904D01*
X107322857Y-222956428D01*
X107322857Y-222718333D01*
X107370476Y-222527857D01*
X107418095Y-222432619D01*
X107465714Y-222385000D01*
X107560952Y-222337380D01*
X108846666Y-223337380D02*
X108275238Y-223337380D01*
X108560952Y-223337380D02*
X108560952Y-222337380D01*
X108465714Y-222480238D01*
X108370476Y-222575476D01*
X108275238Y-222623095D01*
X103100380Y-139390380D02*
X102767047Y-138914190D01*
X102528952Y-139390380D02*
X102528952Y-138390380D01*
X102909904Y-138390380D01*
X103005142Y-138438000D01*
X103052761Y-138485619D01*
X103100380Y-138580857D01*
X103100380Y-138723714D01*
X103052761Y-138818952D01*
X103005142Y-138866571D01*
X102909904Y-138914190D01*
X102528952Y-138914190D01*
X103386095Y-138390380D02*
X103719428Y-139390380D01*
X104052761Y-138390380D01*
X104814666Y-138723714D02*
X104814666Y-139390380D01*
X104576571Y-138342761D02*
X104338476Y-139057047D01*
X104957523Y-139057047D01*
X105528952Y-138390380D02*
X105624190Y-138390380D01*
X105719428Y-138438000D01*
X105767047Y-138485619D01*
X105814666Y-138580857D01*
X105862285Y-138771333D01*
X105862285Y-139009428D01*
X105814666Y-139199904D01*
X105767047Y-139295142D01*
X105719428Y-139342761D01*
X105624190Y-139390380D01*
X105528952Y-139390380D01*
X105433714Y-139342761D01*
X105386095Y-139295142D01*
X105338476Y-139199904D01*
X105290857Y-139009428D01*
X105290857Y-138771333D01*
X105338476Y-138580857D01*
X105386095Y-138485619D01*
X105433714Y-138438000D01*
X105528952Y-138390380D01*
X106195619Y-138390380D02*
X106814666Y-138390380D01*
X106481333Y-138771333D01*
X106624190Y-138771333D01*
X106719428Y-138818952D01*
X106767047Y-138866571D01*
X106814666Y-138961809D01*
X106814666Y-139199904D01*
X106767047Y-139295142D01*
X106719428Y-139342761D01*
X106624190Y-139390380D01*
X106338476Y-139390380D01*
X106243238Y-139342761D01*
X106195619Y-139295142D01*
X155932380Y-103957380D02*
X155599047Y-103481190D01*
X155360952Y-103957380D02*
X155360952Y-102957380D01*
X155741904Y-102957380D01*
X155837142Y-103005000D01*
X155884761Y-103052619D01*
X155932380Y-103147857D01*
X155932380Y-103290714D01*
X155884761Y-103385952D01*
X155837142Y-103433571D01*
X155741904Y-103481190D01*
X155360952Y-103481190D01*
X156218095Y-102957380D02*
X156551428Y-103957380D01*
X156884761Y-102957380D01*
X157122857Y-102957380D02*
X157741904Y-102957380D01*
X157408571Y-103338333D01*
X157551428Y-103338333D01*
X157646666Y-103385952D01*
X157694285Y-103433571D01*
X157741904Y-103528809D01*
X157741904Y-103766904D01*
X157694285Y-103862142D01*
X157646666Y-103909761D01*
X157551428Y-103957380D01*
X157265714Y-103957380D01*
X157170476Y-103909761D01*
X157122857Y-103862142D01*
X158360952Y-102957380D02*
X158456190Y-102957380D01*
X158551428Y-103005000D01*
X158599047Y-103052619D01*
X158646666Y-103147857D01*
X158694285Y-103338333D01*
X158694285Y-103576428D01*
X158646666Y-103766904D01*
X158599047Y-103862142D01*
X158551428Y-103909761D01*
X158456190Y-103957380D01*
X158360952Y-103957380D01*
X158265714Y-103909761D01*
X158218095Y-103862142D01*
X158170476Y-103766904D01*
X158122857Y-103576428D01*
X158122857Y-103338333D01*
X158170476Y-103147857D01*
X158218095Y-103052619D01*
X158265714Y-103005000D01*
X158360952Y-102957380D01*
X159646666Y-103957380D02*
X159075238Y-103957380D01*
X159360952Y-103957380D02*
X159360952Y-102957380D01*
X159265714Y-103100238D01*
X159170476Y-103195476D01*
X159075238Y-103243095D01*
X76557380Y-139644380D02*
X76224047Y-139168190D01*
X75985952Y-139644380D02*
X75985952Y-138644380D01*
X76366904Y-138644380D01*
X76462142Y-138692000D01*
X76509761Y-138739619D01*
X76557380Y-138834857D01*
X76557380Y-138977714D01*
X76509761Y-139072952D01*
X76462142Y-139120571D01*
X76366904Y-139168190D01*
X75985952Y-139168190D01*
X76843095Y-138644380D02*
X77176428Y-139644380D01*
X77509761Y-138644380D01*
X78271666Y-138977714D02*
X78271666Y-139644380D01*
X78033571Y-138596761D02*
X77795476Y-139311047D01*
X78414523Y-139311047D01*
X78985952Y-138644380D02*
X79081190Y-138644380D01*
X79176428Y-138692000D01*
X79224047Y-138739619D01*
X79271666Y-138834857D01*
X79319285Y-139025333D01*
X79319285Y-139263428D01*
X79271666Y-139453904D01*
X79224047Y-139549142D01*
X79176428Y-139596761D01*
X79081190Y-139644380D01*
X78985952Y-139644380D01*
X78890714Y-139596761D01*
X78843095Y-139549142D01*
X78795476Y-139453904D01*
X78747857Y-139263428D01*
X78747857Y-139025333D01*
X78795476Y-138834857D01*
X78843095Y-138739619D01*
X78890714Y-138692000D01*
X78985952Y-138644380D01*
X79700238Y-138739619D02*
X79747857Y-138692000D01*
X79843095Y-138644380D01*
X80081190Y-138644380D01*
X80176428Y-138692000D01*
X80224047Y-138739619D01*
X80271666Y-138834857D01*
X80271666Y-138930095D01*
X80224047Y-139072952D01*
X79652619Y-139644380D01*
X80271666Y-139644380D01*
X162282380Y-139517380D02*
X161949047Y-139041190D01*
X161710952Y-139517380D02*
X161710952Y-138517380D01*
X162091904Y-138517380D01*
X162187142Y-138565000D01*
X162234761Y-138612619D01*
X162282380Y-138707857D01*
X162282380Y-138850714D01*
X162234761Y-138945952D01*
X162187142Y-138993571D01*
X162091904Y-139041190D01*
X161710952Y-139041190D01*
X162568095Y-138517380D02*
X162901428Y-139517380D01*
X163234761Y-138517380D01*
X163996666Y-138850714D02*
X163996666Y-139517380D01*
X163758571Y-138469761D02*
X163520476Y-139184047D01*
X164139523Y-139184047D01*
X164710952Y-138517380D02*
X164806190Y-138517380D01*
X164901428Y-138565000D01*
X164949047Y-138612619D01*
X164996666Y-138707857D01*
X165044285Y-138898333D01*
X165044285Y-139136428D01*
X164996666Y-139326904D01*
X164949047Y-139422142D01*
X164901428Y-139469761D01*
X164806190Y-139517380D01*
X164710952Y-139517380D01*
X164615714Y-139469761D01*
X164568095Y-139422142D01*
X164520476Y-139326904D01*
X164472857Y-139136428D01*
X164472857Y-138898333D01*
X164520476Y-138707857D01*
X164568095Y-138612619D01*
X164615714Y-138565000D01*
X164710952Y-138517380D01*
X165949047Y-138517380D02*
X165472857Y-138517380D01*
X165425238Y-138993571D01*
X165472857Y-138945952D01*
X165568095Y-138898333D01*
X165806190Y-138898333D01*
X165901428Y-138945952D01*
X165949047Y-138993571D01*
X165996666Y-139088809D01*
X165996666Y-139326904D01*
X165949047Y-139422142D01*
X165901428Y-139469761D01*
X165806190Y-139517380D01*
X165568095Y-139517380D01*
X165472857Y-139469761D01*
X165425238Y-139422142D01*
X47982380Y-223337380D02*
X47649047Y-222861190D01*
X47410952Y-223337380D02*
X47410952Y-222337380D01*
X47791904Y-222337380D01*
X47887142Y-222385000D01*
X47934761Y-222432619D01*
X47982380Y-222527857D01*
X47982380Y-222670714D01*
X47934761Y-222765952D01*
X47887142Y-222813571D01*
X47791904Y-222861190D01*
X47410952Y-222861190D01*
X48268095Y-222337380D02*
X48601428Y-223337380D01*
X48934761Y-222337380D01*
X49696666Y-222337380D02*
X49506190Y-222337380D01*
X49410952Y-222385000D01*
X49363333Y-222432619D01*
X49268095Y-222575476D01*
X49220476Y-222765952D01*
X49220476Y-223146904D01*
X49268095Y-223242142D01*
X49315714Y-223289761D01*
X49410952Y-223337380D01*
X49601428Y-223337380D01*
X49696666Y-223289761D01*
X49744285Y-223242142D01*
X49791904Y-223146904D01*
X49791904Y-222908809D01*
X49744285Y-222813571D01*
X49696666Y-222765952D01*
X49601428Y-222718333D01*
X49410952Y-222718333D01*
X49315714Y-222765952D01*
X49268095Y-222813571D01*
X49220476Y-222908809D01*
X50410952Y-222337380D02*
X50506190Y-222337380D01*
X50601428Y-222385000D01*
X50649047Y-222432619D01*
X50696666Y-222527857D01*
X50744285Y-222718333D01*
X50744285Y-222956428D01*
X50696666Y-223146904D01*
X50649047Y-223242142D01*
X50601428Y-223289761D01*
X50506190Y-223337380D01*
X50410952Y-223337380D01*
X50315714Y-223289761D01*
X50268095Y-223242142D01*
X50220476Y-223146904D01*
X50172857Y-222956428D01*
X50172857Y-222718333D01*
X50220476Y-222527857D01*
X50268095Y-222432619D01*
X50315714Y-222385000D01*
X50410952Y-222337380D01*
X51696666Y-223337380D02*
X51125238Y-223337380D01*
X51410952Y-223337380D02*
X51410952Y-222337380D01*
X51315714Y-222480238D01*
X51220476Y-222575476D01*
X51125238Y-222623095D01*
X47982380Y-139507380D02*
X47649047Y-139031190D01*
X47410952Y-139507380D02*
X47410952Y-138507380D01*
X47791904Y-138507380D01*
X47887142Y-138555000D01*
X47934761Y-138602619D01*
X47982380Y-138697857D01*
X47982380Y-138840714D01*
X47934761Y-138935952D01*
X47887142Y-138983571D01*
X47791904Y-139031190D01*
X47410952Y-139031190D01*
X48268095Y-138507380D02*
X48601428Y-139507380D01*
X48934761Y-138507380D01*
X49696666Y-138840714D02*
X49696666Y-139507380D01*
X49458571Y-138459761D02*
X49220476Y-139174047D01*
X49839523Y-139174047D01*
X50410952Y-138507380D02*
X50506190Y-138507380D01*
X50601428Y-138555000D01*
X50649047Y-138602619D01*
X50696666Y-138697857D01*
X50744285Y-138888333D01*
X50744285Y-139126428D01*
X50696666Y-139316904D01*
X50649047Y-139412142D01*
X50601428Y-139459761D01*
X50506190Y-139507380D01*
X50410952Y-139507380D01*
X50315714Y-139459761D01*
X50268095Y-139412142D01*
X50220476Y-139316904D01*
X50172857Y-139126428D01*
X50172857Y-138888333D01*
X50220476Y-138697857D01*
X50268095Y-138602619D01*
X50315714Y-138555000D01*
X50410952Y-138507380D01*
X51696666Y-139507380D02*
X51125238Y-139507380D01*
X51410952Y-139507380D02*
X51410952Y-138507380D01*
X51315714Y-138650238D01*
X51220476Y-138745476D01*
X51125238Y-138793095D01*
X134342380Y-197937380D02*
X134009047Y-197461190D01*
X133770952Y-197937380D02*
X133770952Y-196937380D01*
X134151904Y-196937380D01*
X134247142Y-196985000D01*
X134294761Y-197032619D01*
X134342380Y-197127857D01*
X134342380Y-197270714D01*
X134294761Y-197365952D01*
X134247142Y-197413571D01*
X134151904Y-197461190D01*
X133770952Y-197461190D01*
X134628095Y-196937380D02*
X134961428Y-197937380D01*
X135294761Y-196937380D01*
X136056666Y-196937380D02*
X135866190Y-196937380D01*
X135770952Y-196985000D01*
X135723333Y-197032619D01*
X135628095Y-197175476D01*
X135580476Y-197365952D01*
X135580476Y-197746904D01*
X135628095Y-197842142D01*
X135675714Y-197889761D01*
X135770952Y-197937380D01*
X135961428Y-197937380D01*
X136056666Y-197889761D01*
X136104285Y-197842142D01*
X136151904Y-197746904D01*
X136151904Y-197508809D01*
X136104285Y-197413571D01*
X136056666Y-197365952D01*
X135961428Y-197318333D01*
X135770952Y-197318333D01*
X135675714Y-197365952D01*
X135628095Y-197413571D01*
X135580476Y-197508809D01*
X136770952Y-196937380D02*
X136866190Y-196937380D01*
X136961428Y-196985000D01*
X137009047Y-197032619D01*
X137056666Y-197127857D01*
X137104285Y-197318333D01*
X137104285Y-197556428D01*
X137056666Y-197746904D01*
X137009047Y-197842142D01*
X136961428Y-197889761D01*
X136866190Y-197937380D01*
X136770952Y-197937380D01*
X136675714Y-197889761D01*
X136628095Y-197842142D01*
X136580476Y-197746904D01*
X136532857Y-197556428D01*
X136532857Y-197318333D01*
X136580476Y-197127857D01*
X136628095Y-197032619D01*
X136675714Y-196985000D01*
X136770952Y-196937380D01*
X137485238Y-197032619D02*
X137532857Y-196985000D01*
X137628095Y-196937380D01*
X137866190Y-196937380D01*
X137961428Y-196985000D01*
X138009047Y-197032619D01*
X138056666Y-197127857D01*
X138056666Y-197223095D01*
X138009047Y-197365952D01*
X137437619Y-197937380D01*
X138056666Y-197937380D01*
D11*
X53980000Y-48124285D02*
X54183571Y-48192142D01*
X54522857Y-48192142D01*
X54658571Y-48124285D01*
X54726428Y-48056428D01*
X54794285Y-47920714D01*
X54794285Y-47785000D01*
X54726428Y-47649285D01*
X54658571Y-47581428D01*
X54522857Y-47513571D01*
X54251428Y-47445714D01*
X54115714Y-47377857D01*
X54047857Y-47310000D01*
X53980000Y-47174285D01*
X53980000Y-47038571D01*
X54047857Y-46902857D01*
X54115714Y-46835000D01*
X54251428Y-46767142D01*
X54590714Y-46767142D01*
X54794285Y-46835000D01*
X55269285Y-46767142D02*
X55608571Y-48192142D01*
X55880000Y-47174285D01*
X56151428Y-48192142D01*
X56490714Y-46767142D01*
X57780000Y-48192142D02*
X56965714Y-48192142D01*
X57372857Y-48192142D02*
X57372857Y-46767142D01*
X57237142Y-46970714D01*
X57101428Y-47106428D01*
X56965714Y-47174285D01*
D10*
X162496666Y-183919761D02*
X162639523Y-183967380D01*
X162877619Y-183967380D01*
X162972857Y-183919761D01*
X163020476Y-183872142D01*
X163068095Y-183776904D01*
X163068095Y-183681666D01*
X163020476Y-183586428D01*
X162972857Y-183538809D01*
X162877619Y-183491190D01*
X162687142Y-183443571D01*
X162591904Y-183395952D01*
X162544285Y-183348333D01*
X162496666Y-183253095D01*
X162496666Y-183157857D01*
X162544285Y-183062619D01*
X162591904Y-183015000D01*
X162687142Y-182967380D01*
X162925238Y-182967380D01*
X163068095Y-183015000D01*
X163401428Y-182967380D02*
X163639523Y-183967380D01*
X163830000Y-183253095D01*
X164020476Y-183967380D01*
X164258571Y-182967380D01*
X165115714Y-182967380D02*
X164639523Y-182967380D01*
X164591904Y-183443571D01*
X164639523Y-183395952D01*
X164734761Y-183348333D01*
X164972857Y-183348333D01*
X165068095Y-183395952D01*
X165115714Y-183443571D01*
X165163333Y-183538809D01*
X165163333Y-183776904D01*
X165115714Y-183872142D01*
X165068095Y-183919761D01*
X164972857Y-183967380D01*
X164734761Y-183967380D01*
X164639523Y-183919761D01*
X164591904Y-183872142D01*
X133707380Y-139517380D02*
X133374047Y-139041190D01*
X133135952Y-139517380D02*
X133135952Y-138517380D01*
X133516904Y-138517380D01*
X133612142Y-138565000D01*
X133659761Y-138612619D01*
X133707380Y-138707857D01*
X133707380Y-138850714D01*
X133659761Y-138945952D01*
X133612142Y-138993571D01*
X133516904Y-139041190D01*
X133135952Y-139041190D01*
X133993095Y-138517380D02*
X134326428Y-139517380D01*
X134659761Y-138517380D01*
X135421666Y-138850714D02*
X135421666Y-139517380D01*
X135183571Y-138469761D02*
X134945476Y-139184047D01*
X135564523Y-139184047D01*
X136135952Y-138517380D02*
X136231190Y-138517380D01*
X136326428Y-138565000D01*
X136374047Y-138612619D01*
X136421666Y-138707857D01*
X136469285Y-138898333D01*
X136469285Y-139136428D01*
X136421666Y-139326904D01*
X136374047Y-139422142D01*
X136326428Y-139469761D01*
X136231190Y-139517380D01*
X136135952Y-139517380D01*
X136040714Y-139469761D01*
X135993095Y-139422142D01*
X135945476Y-139326904D01*
X135897857Y-139136428D01*
X135897857Y-138898333D01*
X135945476Y-138707857D01*
X135993095Y-138612619D01*
X136040714Y-138565000D01*
X136135952Y-138517380D01*
X137326428Y-138850714D02*
X137326428Y-139517380D01*
X137088333Y-138469761D02*
X136850238Y-139184047D01*
X137469285Y-139184047D01*
X78994285Y-102639761D02*
X79137142Y-102687380D01*
X79375238Y-102687380D01*
X79470476Y-102639761D01*
X79518095Y-102592142D01*
X79565714Y-102496904D01*
X79565714Y-102401666D01*
X79518095Y-102306428D01*
X79470476Y-102258809D01*
X79375238Y-102211190D01*
X79184761Y-102163571D01*
X79089523Y-102115952D01*
X79041904Y-102068333D01*
X78994285Y-101973095D01*
X78994285Y-101877857D01*
X79041904Y-101782619D01*
X79089523Y-101735000D01*
X79184761Y-101687380D01*
X79422857Y-101687380D01*
X79565714Y-101735000D01*
X79899047Y-101687380D02*
X80137142Y-102687380D01*
X80327619Y-101973095D01*
X80518095Y-102687380D01*
X80756190Y-101687380D01*
X81565714Y-102020714D02*
X81565714Y-102687380D01*
X81327619Y-101639761D02*
X81089523Y-102354047D01*
X81708571Y-102354047D01*
X82280000Y-101687380D02*
X82375238Y-101687380D01*
X82470476Y-101735000D01*
X82518095Y-101782619D01*
X82565714Y-101877857D01*
X82613333Y-102068333D01*
X82613333Y-102306428D01*
X82565714Y-102496904D01*
X82518095Y-102592142D01*
X82470476Y-102639761D01*
X82375238Y-102687380D01*
X82280000Y-102687380D01*
X82184761Y-102639761D01*
X82137142Y-102592142D01*
X82089523Y-102496904D01*
X82041904Y-102306428D01*
X82041904Y-102068333D01*
X82089523Y-101877857D01*
X82137142Y-101782619D01*
X82184761Y-101735000D01*
X82280000Y-101687380D01*
X83565714Y-102687380D02*
X82994285Y-102687380D01*
X83280000Y-102687380D02*
X83280000Y-101687380D01*
X83184761Y-101830238D01*
X83089523Y-101925476D01*
X82994285Y-101973095D01*
D11*
X155580000Y-47507978D02*
X155783571Y-47575835D01*
X156122857Y-47575835D01*
X156258571Y-47507978D01*
X156326428Y-47440121D01*
X156394285Y-47304407D01*
X156394285Y-47168693D01*
X156326428Y-47032978D01*
X156258571Y-46965121D01*
X156122857Y-46897264D01*
X155851428Y-46829407D01*
X155715714Y-46761550D01*
X155647857Y-46693693D01*
X155580000Y-46557978D01*
X155580000Y-46422264D01*
X155647857Y-46286550D01*
X155715714Y-46218693D01*
X155851428Y-46150835D01*
X156190714Y-46150835D01*
X156394285Y-46218693D01*
X156869285Y-46150835D02*
X157208571Y-47575835D01*
X157480000Y-46557978D01*
X157751428Y-47575835D01*
X158090714Y-46150835D01*
X158565714Y-46286550D02*
X158633571Y-46218693D01*
X158769285Y-46150835D01*
X159108571Y-46150835D01*
X159244285Y-46218693D01*
X159312142Y-46286550D01*
X159380000Y-46422264D01*
X159380000Y-46557978D01*
X159312142Y-46761550D01*
X158497857Y-47575835D01*
X159380000Y-47575835D01*
D10*
X161806190Y-223337380D02*
X161472857Y-222861190D01*
X161234761Y-223337380D02*
X161234761Y-222337380D01*
X161615714Y-222337380D01*
X161710952Y-222385000D01*
X161758571Y-222432619D01*
X161806190Y-222527857D01*
X161806190Y-222670714D01*
X161758571Y-222765952D01*
X161710952Y-222813571D01*
X161615714Y-222861190D01*
X161234761Y-222861190D01*
X162091904Y-222337380D02*
X162425238Y-223337380D01*
X162758571Y-222337380D01*
X163615714Y-223337380D02*
X163044285Y-223337380D01*
X163330000Y-223337380D02*
X163330000Y-222337380D01*
X163234761Y-222480238D01*
X163139523Y-222575476D01*
X163044285Y-222623095D01*
X164568095Y-223337380D02*
X163996666Y-223337380D01*
X164282380Y-223337380D02*
X164282380Y-222337380D01*
X164187142Y-222480238D01*
X164091904Y-222575476D01*
X163996666Y-222623095D01*
X165187142Y-222337380D02*
X165282380Y-222337380D01*
X165377619Y-222385000D01*
X165425238Y-222432619D01*
X165472857Y-222527857D01*
X165520476Y-222718333D01*
X165520476Y-222956428D01*
X165472857Y-223146904D01*
X165425238Y-223242142D01*
X165377619Y-223289761D01*
X165282380Y-223337380D01*
X165187142Y-223337380D01*
X165091904Y-223289761D01*
X165044285Y-223242142D01*
X164996666Y-223146904D01*
X164949047Y-222956428D01*
X164949047Y-222718333D01*
X164996666Y-222527857D01*
X165044285Y-222432619D01*
X165091904Y-222385000D01*
X165187142Y-222337380D01*
X166472857Y-223337380D02*
X165901428Y-223337380D01*
X166187142Y-223337380D02*
X166187142Y-222337380D01*
X166091904Y-222480238D01*
X165996666Y-222575476D01*
X165901428Y-222623095D01*
D11*
X101760000Y-90560000D02*
X101760000Y-85840000D01*
X111510000Y-82030000D02*
X111510000Y-78970000D01*
X105850000Y-90560000D02*
X105320000Y-90560000D01*
X108300000Y-90560000D02*
X107470000Y-90560000D01*
X101770000Y-82030000D02*
X101770000Y-78970000D01*
X102950000Y-90560000D02*
X101770000Y-90560000D01*
X111510000Y-78970000D02*
X101770000Y-78970000D01*
X111510000Y-90560000D02*
X111510000Y-85840000D01*
X111510000Y-90560000D02*
X110020000Y-90560000D01*
X101770000Y-31230000D02*
X101770000Y-28170000D01*
X108300000Y-39760000D02*
X107470000Y-39760000D01*
X111510000Y-31230000D02*
X111510000Y-28170000D01*
X105850000Y-39760000D02*
X105320000Y-39760000D01*
X101760000Y-39760000D02*
X101760000Y-35040000D01*
X111510000Y-39760000D02*
X111510000Y-35040000D01*
X111510000Y-39760000D02*
X110020000Y-39760000D01*
X111510000Y-28170000D02*
X101770000Y-28170000D01*
X102950000Y-39760000D02*
X101770000Y-39760000D01*
X137795000Y-115570000D02*
X126365000Y-115570000D01*
X126365000Y-102870000D02*
X137795000Y-102870000D01*
X126365000Y-115570000D02*
X126365000Y-102870000D01*
X137795000Y-102870000D02*
X137795000Y-115570000D01*
X60710000Y-115960000D02*
X59220000Y-115960000D01*
X60710000Y-115960000D02*
X60710000Y-111240000D01*
X57500000Y-115960000D02*
X56670000Y-115960000D01*
X55050000Y-115960000D02*
X54520000Y-115960000D01*
X50960000Y-115960000D02*
X50960000Y-111240000D01*
X60710000Y-104370000D02*
X50970000Y-104370000D01*
X60710000Y-107430000D02*
X60710000Y-104370000D01*
X50970000Y-107430000D02*
X50970000Y-104370000D01*
X52150000Y-115960000D02*
X50970000Y-115960000D01*
X43815000Y-196850000D02*
X43815000Y-184150000D01*
X55245000Y-196850000D02*
X43815000Y-196850000D01*
X55245000Y-184150000D02*
X55245000Y-196850000D01*
X43815000Y-184150000D02*
X55245000Y-184150000D01*
D12*
X69370000Y-195200000D02*
X69370000Y-202565000D01*
D11*
X85570000Y-211200000D02*
X85570000Y-205994000D01*
D12*
X85570000Y-202565000D02*
X85570000Y-195200000D01*
X84970000Y-211200000D02*
X85570000Y-211200000D01*
X69370000Y-211200000D02*
X69970000Y-211200000D01*
X77470000Y-202200000D02*
X77470000Y-204200000D01*
D11*
X69370000Y-211200000D02*
X69370000Y-205994000D01*
D12*
X78470000Y-203200000D02*
X76470000Y-203200000D01*
X85570000Y-195200000D02*
X69370000Y-195200000D01*
X69970000Y-211200000D02*
X84970000Y-211200000D01*
D13*
X81470000Y-203200000D02*
G75*
G03*
X81470000Y-203200000I-4000000J0D01*
G01*
D11*
X111550000Y-226810000D02*
X111550000Y-223750000D01*
X101800000Y-235340000D02*
X101800000Y-230620000D01*
X102990000Y-235340000D02*
X101810000Y-235340000D01*
X105890000Y-235340000D02*
X105360000Y-235340000D01*
X111550000Y-235340000D02*
X111550000Y-230620000D01*
X101810000Y-226810000D02*
X101810000Y-223750000D01*
X111550000Y-223750000D02*
X101810000Y-223750000D01*
X108340000Y-235340000D02*
X107510000Y-235340000D01*
X111550000Y-235340000D02*
X110060000Y-235340000D01*
X111550000Y-143000000D02*
X111550000Y-139940000D01*
X101810000Y-143000000D02*
X101810000Y-139940000D01*
X111550000Y-151530000D02*
X110060000Y-151530000D01*
X105890000Y-151530000D02*
X105360000Y-151530000D01*
X111550000Y-151530000D02*
X111550000Y-146810000D01*
X108340000Y-151530000D02*
X107510000Y-151530000D01*
X102990000Y-151530000D02*
X101810000Y-151530000D01*
X101800000Y-151530000D02*
X101800000Y-146810000D01*
X111550000Y-139940000D02*
X101810000Y-139940000D01*
X162310000Y-104370000D02*
X152570000Y-104370000D01*
X162310000Y-115960000D02*
X160820000Y-115960000D01*
X162310000Y-115960000D02*
X162310000Y-111240000D01*
X156650000Y-115960000D02*
X156120000Y-115960000D01*
X162310000Y-107430000D02*
X162310000Y-104370000D01*
X152570000Y-107430000D02*
X152570000Y-104370000D01*
X159100000Y-115960000D02*
X158270000Y-115960000D01*
X152560000Y-115960000D02*
X152560000Y-111240000D01*
X153750000Y-115960000D02*
X152570000Y-115960000D01*
X73225000Y-151520000D02*
X73225000Y-146800000D01*
X77315000Y-151520000D02*
X76785000Y-151520000D01*
X73235000Y-142990000D02*
X73235000Y-139930000D01*
X82975000Y-151520000D02*
X82975000Y-146800000D01*
X82975000Y-151520000D02*
X81485000Y-151520000D01*
X82975000Y-142990000D02*
X82975000Y-139930000D01*
X74415000Y-151520000D02*
X73235000Y-151520000D01*
X79765000Y-151520000D02*
X78935000Y-151520000D01*
X82975000Y-139930000D02*
X73235000Y-139930000D01*
X163040000Y-151520000D02*
X162510000Y-151520000D01*
X168700000Y-151520000D02*
X167210000Y-151520000D01*
X158950000Y-151520000D02*
X158950000Y-146800000D01*
X168700000Y-142990000D02*
X168700000Y-139930000D01*
X165490000Y-151520000D02*
X164660000Y-151520000D01*
X158960000Y-142990000D02*
X158960000Y-139930000D01*
X168700000Y-139930000D02*
X158960000Y-139930000D01*
X168700000Y-151520000D02*
X168700000Y-146800000D01*
X160140000Y-151520000D02*
X158960000Y-151520000D01*
X51190000Y-235350000D02*
X50360000Y-235350000D01*
X54400000Y-226820000D02*
X54400000Y-223760000D01*
X54400000Y-235350000D02*
X52910000Y-235350000D01*
X48740000Y-235350000D02*
X48210000Y-235350000D01*
X44660000Y-226820000D02*
X44660000Y-223760000D01*
X44650000Y-235350000D02*
X44650000Y-230630000D01*
X54400000Y-223760000D02*
X44660000Y-223760000D01*
X45840000Y-235350000D02*
X44660000Y-235350000D01*
X54400000Y-235350000D02*
X54400000Y-230630000D01*
X54400000Y-139930000D02*
X44660000Y-139930000D01*
X44650000Y-151520000D02*
X44650000Y-146800000D01*
X54400000Y-151520000D02*
X52910000Y-151520000D01*
X54400000Y-151520000D02*
X54400000Y-146800000D01*
X45840000Y-151520000D02*
X44660000Y-151520000D01*
X48740000Y-151520000D02*
X48210000Y-151520000D01*
X51190000Y-151520000D02*
X50360000Y-151520000D01*
X44660000Y-142990000D02*
X44660000Y-139930000D01*
X54400000Y-142990000D02*
X54400000Y-139930000D01*
X140760000Y-209940000D02*
X139270000Y-209940000D01*
X131020000Y-201410000D02*
X131020000Y-198350000D01*
X137550000Y-209940000D02*
X136720000Y-209940000D01*
X140760000Y-201410000D02*
X140760000Y-198350000D01*
X132200000Y-209940000D02*
X131020000Y-209940000D01*
X140760000Y-209940000D02*
X140760000Y-205220000D01*
X135100000Y-209940000D02*
X134570000Y-209940000D01*
X131010000Y-209940000D02*
X131010000Y-205220000D01*
X140760000Y-198350000D02*
X131020000Y-198350000D01*
X47780000Y-66420000D02*
X47780000Y-61214000D01*
D12*
X55880000Y-57420000D02*
X55880000Y-59420000D01*
X63980000Y-50420000D02*
X47780000Y-50420000D01*
X47780000Y-50420000D02*
X47780000Y-57785000D01*
D11*
X63980000Y-66420000D02*
X63980000Y-61214000D01*
D12*
X63980000Y-57785000D02*
X63980000Y-50420000D01*
X47780000Y-66420000D02*
X48380000Y-66420000D01*
X56880000Y-58420000D02*
X54880000Y-58420000D01*
X63380000Y-66420000D02*
X63980000Y-66420000D01*
X48380000Y-66420000D02*
X63380000Y-66420000D01*
D13*
X59880000Y-58420000D02*
G75*
G03*
X59880000Y-58420000I-4000000J0D01*
G01*
D11*
X167330000Y-196850000D02*
X160330000Y-196850000D01*
X160330000Y-196850000D02*
X160330000Y-184150000D01*
X167330000Y-184150000D02*
X167330000Y-196850000D01*
X160330000Y-184150000D02*
X167330000Y-184150000D01*
X140125000Y-151530000D02*
X138635000Y-151530000D01*
X140125000Y-139940000D02*
X130385000Y-139940000D01*
X136915000Y-151530000D02*
X136085000Y-151530000D01*
X140125000Y-151530000D02*
X140125000Y-146810000D01*
X130375000Y-151530000D02*
X130375000Y-146810000D01*
X140125000Y-143000000D02*
X140125000Y-139940000D01*
X130385000Y-143000000D02*
X130385000Y-139940000D01*
X134465000Y-151530000D02*
X133935000Y-151530000D01*
X131565000Y-151530000D02*
X130385000Y-151530000D01*
X84780000Y-102870000D02*
X84780000Y-115570000D01*
X84780000Y-115570000D02*
X77780000Y-115570000D01*
X77780000Y-115570000D02*
X77780000Y-102870000D01*
X77780000Y-102870000D02*
X84780000Y-102870000D01*
D12*
X149980000Y-66420000D02*
X164980000Y-66420000D01*
X165580000Y-50420000D02*
X149380000Y-50420000D01*
X149380000Y-66420000D02*
X149980000Y-66420000D01*
D11*
X149380000Y-66420000D02*
X149380000Y-61214000D01*
X165580000Y-66420000D02*
X165580000Y-61214000D01*
D12*
X164980000Y-66420000D02*
X165580000Y-66420000D01*
X149380000Y-50420000D02*
X149380000Y-57785000D01*
X158480000Y-58420000D02*
X156480000Y-58420000D01*
X165580000Y-57785000D02*
X165580000Y-50420000D01*
X157480000Y-57420000D02*
X157480000Y-59420000D01*
D13*
X161480000Y-58420000D02*
G75*
G03*
X161480000Y-58420000I-4000000J0D01*
G01*
D11*
X168700000Y-223750000D02*
X158960000Y-223750000D01*
X158960000Y-226810000D02*
X158960000Y-223750000D01*
X163040000Y-235340000D02*
X162510000Y-235340000D01*
X160140000Y-235340000D02*
X158960000Y-235340000D01*
X168700000Y-226810000D02*
X168700000Y-223750000D01*
X158950000Y-235340000D02*
X158950000Y-230620000D01*
X168700000Y-235340000D02*
X168700000Y-230620000D01*
X168700000Y-235340000D02*
X167210000Y-235340000D01*
X165490000Y-235340000D02*
X164660000Y-235340000D01*
%LPC*%
D14*
X111440000Y-83940000D03*
X101840000Y-83940000D03*
D15*
X104140000Y-91440000D03*
D16*
X106640000Y-91440000D03*
X109140000Y-91440000D03*
D14*
X101840000Y-33140000D03*
X111440000Y-33140000D03*
D15*
X104140000Y-40640000D03*
D16*
X106640000Y-40640000D03*
X109140000Y-40640000D03*
D17*
X129665000Y-113920000D03*
X129665000Y-109220000D03*
X129665000Y-104520000D03*
X134495000Y-113920000D03*
X134495000Y-109220000D03*
X134495000Y-104520000D03*
D14*
X51040000Y-109340000D03*
X60640000Y-109340000D03*
D15*
X53340000Y-116840000D03*
D16*
X55840000Y-116840000D03*
X58340000Y-116840000D03*
D17*
X51945000Y-185800000D03*
X51945000Y-190500000D03*
X51945000Y-195200000D03*
X47115000Y-185800000D03*
X47115000Y-190500000D03*
X47115000Y-195200000D03*
D18*
X69470000Y-204300000D03*
X85470000Y-204300000D03*
D19*
X72470000Y-194050000D03*
X74970000Y-194050000D03*
X77470000Y-194050000D03*
X79970000Y-194050000D03*
X82470000Y-194050000D03*
X82470000Y-212350000D03*
X79970000Y-212350000D03*
X77470000Y-212350000D03*
X74970000Y-212350000D03*
X72470000Y-212350000D03*
D14*
X111480000Y-228720000D03*
X101880000Y-228720000D03*
D15*
X104180000Y-236220000D03*
D16*
X106680000Y-236220000D03*
X109180000Y-236220000D03*
D14*
X111480000Y-144910000D03*
X101880000Y-144910000D03*
D15*
X104180000Y-152410000D03*
D16*
X106680000Y-152410000D03*
X109180000Y-152410000D03*
D14*
X162240000Y-109340000D03*
X152640000Y-109340000D03*
D15*
X154940000Y-116840000D03*
D16*
X157440000Y-116840000D03*
X159940000Y-116840000D03*
D14*
X82905000Y-144900000D03*
X73305000Y-144900000D03*
D15*
X75605000Y-152400000D03*
D16*
X78105000Y-152400000D03*
X80605000Y-152400000D03*
D14*
X159030000Y-144900000D03*
X168630000Y-144900000D03*
D15*
X161330000Y-152400000D03*
D16*
X163830000Y-152400000D03*
X166330000Y-152400000D03*
D14*
X44730000Y-228730000D03*
X54330000Y-228730000D03*
D15*
X47030000Y-236230000D03*
D16*
X49530000Y-236230000D03*
X52030000Y-236230000D03*
D14*
X54330000Y-144900000D03*
X44730000Y-144900000D03*
D15*
X47030000Y-152400000D03*
D16*
X49530000Y-152400000D03*
X52030000Y-152400000D03*
D14*
X140690000Y-203320000D03*
X131090000Y-203320000D03*
D15*
X133390000Y-210820000D03*
D16*
X135890000Y-210820000D03*
X138390000Y-210820000D03*
D18*
X63880000Y-59520000D03*
X47880000Y-59520000D03*
D19*
X50880000Y-49270000D03*
X53380000Y-49270000D03*
X55880000Y-49270000D03*
X58380000Y-49270000D03*
X60880000Y-49270000D03*
X60880000Y-67570000D03*
X58380000Y-67570000D03*
X55880000Y-67570000D03*
X53380000Y-67570000D03*
X50880000Y-67570000D03*
D17*
X163830000Y-185800000D03*
X163830000Y-190500000D03*
X163830000Y-195200000D03*
D14*
X130455000Y-144910000D03*
X140055000Y-144910000D03*
D15*
X132755000Y-152410000D03*
D16*
X135255000Y-152410000D03*
X137755000Y-152410000D03*
D17*
X81280000Y-113920000D03*
X81280000Y-109220000D03*
X81280000Y-104520000D03*
D18*
X165480000Y-59520000D03*
X149480000Y-59520000D03*
D19*
X152480000Y-49270000D03*
X154980000Y-49270000D03*
X157480000Y-49270000D03*
X159980000Y-49270000D03*
X162480000Y-49270000D03*
X162480000Y-67570000D03*
X159980000Y-67570000D03*
X157480000Y-67570000D03*
X154980000Y-67570000D03*
X152480000Y-67570000D03*
D14*
X168630000Y-228720000D03*
X159030000Y-228720000D03*
D15*
X161330000Y-236220000D03*
D16*
X163830000Y-236220000D03*
X166330000Y-236220000D03*
G36*
G01*
X165925000Y-214230000D02*
X164235000Y-214230000D01*
G75*
G02*
X163985000Y-213980000I0J250000D01*
G01*
X163985000Y-212740000D01*
G75*
G02*
X164235000Y-212490000I250000J0D01*
G01*
X165925000Y-212490000D01*
G75*
G02*
X166175000Y-212740000I0J-250000D01*
G01*
X166175000Y-213980000D01*
G75*
G02*
X165925000Y-214230000I-250000J0D01*
G01*
G37*
D20*
X165080000Y-210820000D03*
D21*
X67564000Y-185928000D03*
X65024000Y-185928000D03*
X62484000Y-185928000D03*
D22*
X81280000Y-133858000D03*
X73660000Y-133858000D03*
D21*
X81036000Y-225298000D03*
X78496000Y-225298000D03*
X75956000Y-225298000D03*
X94996000Y-225298000D03*
X92456000Y-225298000D03*
X89916000Y-225298000D03*
G36*
G01*
X165925000Y-172955000D02*
X164235000Y-172955000D01*
G75*
G02*
X163985000Y-172705000I0J250000D01*
G01*
X163985000Y-171465000D01*
G75*
G02*
X164235000Y-171215000I250000J0D01*
G01*
X165925000Y-171215000D01*
G75*
G02*
X166175000Y-171465000I0J-250000D01*
G01*
X166175000Y-172705000D01*
G75*
G02*
X165925000Y-172955000I-250000J0D01*
G01*
G37*
D20*
X165080000Y-169545000D03*
X165080000Y-167005000D03*
X165080000Y-164465000D03*
X165080000Y-161925000D03*
D21*
X109728000Y-49012000D03*
X109728000Y-51552000D03*
X109728000Y-54092000D03*
D23*
X153416000Y-72644000D03*
G36*
G01*
X47435000Y-37230000D02*
X49125000Y-37230000D01*
G75*
G02*
X49375000Y-37480000I0J-250000D01*
G01*
X49375000Y-38720000D01*
G75*
G02*
X49125000Y-38970000I-250000J0D01*
G01*
X47435000Y-38970000D01*
G75*
G02*
X47185000Y-38720000I0J250000D01*
G01*
X47185000Y-37480000D01*
G75*
G02*
X47435000Y-37230000I250000J0D01*
G01*
G37*
D20*
X48280000Y-40640000D03*
X48280000Y-43180000D03*
D23*
X94996000Y-34544000D03*
X48260000Y-70612000D03*
D24*
X149011000Y-44323000D03*
X151511000Y-44323000D03*
D21*
X68580000Y-225298000D03*
X66040000Y-225298000D03*
X63500000Y-225298000D03*
D25*
X137912000Y-215128000D03*
D26*
X137912000Y-217668000D03*
X137912000Y-220208000D03*
X137912000Y-222748000D03*
X137912000Y-225288000D03*
X137912000Y-227828000D03*
X137912000Y-230368000D03*
X137912000Y-232908000D03*
X130292000Y-232908000D03*
X130292000Y-230368000D03*
X130292000Y-227828000D03*
X130292000Y-225288000D03*
X130292000Y-222748000D03*
X130292000Y-220208000D03*
X130292000Y-217668000D03*
X130292000Y-215128000D03*
D24*
X125182000Y-146558000D03*
X120182000Y-146558000D03*
D23*
X70358000Y-109220000D03*
D27*
X137818500Y-192786000D03*
D28*
X135278500Y-192786000D03*
D23*
X108966000Y-106426000D03*
D21*
X121412000Y-127508000D03*
X121412000Y-130048000D03*
X121412000Y-132588000D03*
D23*
X85598000Y-231648000D03*
X100330000Y-104648000D03*
D25*
X50458380Y-123561500D03*
D24*
X47958380Y-123561500D03*
D23*
X156718000Y-193294000D03*
G36*
G01*
X165985000Y-93580000D02*
X164295000Y-93580000D01*
G75*
G02*
X164045000Y-93330000I0J250000D01*
G01*
X164045000Y-92090000D01*
G75*
G02*
X164295000Y-91840000I250000J0D01*
G01*
X165985000Y-91840000D01*
G75*
G02*
X166235000Y-92090000I0J-250000D01*
G01*
X166235000Y-93330000D01*
G75*
G02*
X165985000Y-93580000I-250000J0D01*
G01*
G37*
D20*
X165140000Y-90170000D03*
X165140000Y-87630000D03*
D23*
X121666000Y-34544000D03*
G36*
G01*
X165945000Y-131680000D02*
X164255000Y-131680000D01*
G75*
G02*
X164005000Y-131430000I0J250000D01*
G01*
X164005000Y-130190000D01*
G75*
G02*
X164255000Y-129940000I250000J0D01*
G01*
X165945000Y-129940000D01*
G75*
G02*
X166195000Y-130190000I0J-250000D01*
G01*
X166195000Y-131430000D01*
G75*
G02*
X165945000Y-131680000I-250000J0D01*
G01*
G37*
D20*
X165100000Y-128270000D03*
X165100000Y-125730000D03*
D24*
X141518000Y-227090000D03*
X146518000Y-227090000D03*
D21*
X109728000Y-65024000D03*
X109728000Y-67564000D03*
X109728000Y-70104000D03*
D25*
X58156000Y-161046000D03*
D26*
X58156000Y-163586000D03*
X58156000Y-166126000D03*
X58156000Y-168666000D03*
X50536000Y-168666000D03*
X50536000Y-166126000D03*
X50536000Y-163586000D03*
X50536000Y-161046000D03*
D23*
X158496000Y-32512000D03*
D21*
X92710000Y-166878000D03*
X90170000Y-166878000D03*
X87630000Y-166878000D03*
X84074000Y-185928000D03*
X81534000Y-185928000D03*
X78994000Y-185928000D03*
X68580000Y-213868000D03*
X66040000Y-213868000D03*
X63500000Y-213868000D03*
D23*
X117602000Y-203708000D03*
D24*
X147294000Y-210834000D03*
X142294000Y-210834000D03*
X67310000Y-196850000D03*
D26*
X57150000Y-196850000D03*
D23*
X93726000Y-176784000D03*
D21*
X103632000Y-49012000D03*
X103632000Y-51552000D03*
X103632000Y-54092000D03*
D23*
X131572000Y-133604000D03*
D25*
X57364000Y-123815500D03*
D24*
X54864000Y-123815500D03*
D27*
X101195500Y-217678000D03*
D28*
X98655500Y-217678000D03*
D21*
X103632000Y-65024000D03*
X103632000Y-67564000D03*
X103632000Y-70104000D03*
D24*
X119634000Y-220178000D03*
X119634000Y-215178000D03*
X97536000Y-168442000D03*
X97536000Y-173442000D03*
X119634000Y-229957000D03*
X119634000Y-224957000D03*
D21*
X114935000Y-158105000D03*
X114935000Y-160645000D03*
X114935000Y-163185000D03*
D23*
X65532000Y-110744000D03*
D24*
X126452000Y-121412000D03*
X121452000Y-121412000D03*
D23*
X120650000Y-166370000D03*
D25*
X109972000Y-158237000D03*
D26*
X109972000Y-160777000D03*
X109972000Y-170937000D03*
X109972000Y-173477000D03*
X102352000Y-173477000D03*
X102352000Y-170937000D03*
X102352000Y-160777000D03*
X102352000Y-158237000D03*
D23*
X147066000Y-103124000D03*
D25*
X116322000Y-122423000D03*
D26*
X116322000Y-124963000D03*
X116322000Y-135123000D03*
X116322000Y-137663000D03*
X108702000Y-137663000D03*
X108702000Y-135123000D03*
X108702000Y-124963000D03*
X108702000Y-122423000D03*
D23*
X117094000Y-181864000D03*
D21*
X102870000Y-125222000D03*
X100330000Y-125222000D03*
X97790000Y-125222000D03*
G36*
G01*
X46898000Y-133516000D02*
X48098000Y-133516000D01*
G75*
G02*
X48348000Y-133766000I0J-250000D01*
G01*
X48348000Y-134966000D01*
G75*
G02*
X48098000Y-135216000I-250000J0D01*
G01*
X46898000Y-135216000D01*
G75*
G02*
X46648000Y-134966000I0J250000D01*
G01*
X46648000Y-133766000D01*
G75*
G02*
X46898000Y-133516000I250000J0D01*
G01*
G37*
D29*
X47498000Y-136906000D03*
X50038000Y-134366000D03*
X50038000Y-136906000D03*
X52578000Y-134366000D03*
X52578000Y-136906000D03*
X55118000Y-134366000D03*
X55118000Y-136906000D03*
X57658000Y-134366000D03*
X57658000Y-136906000D03*
G36*
G01*
X165945000Y-46590000D02*
X164255000Y-46590000D01*
G75*
G02*
X164005000Y-46340000I0J250000D01*
G01*
X164005000Y-45100000D01*
G75*
G02*
X164255000Y-44850000I250000J0D01*
G01*
X165945000Y-44850000D01*
G75*
G02*
X166195000Y-45100000I0J-250000D01*
G01*
X166195000Y-46340000D01*
G75*
G02*
X165945000Y-46590000I-250000J0D01*
G01*
G37*
D20*
X165100000Y-43180000D03*
X165100000Y-40640000D03*
X165100000Y-38100000D03*
D23*
X64008000Y-38100000D03*
M02*
