<?xml version="1.0" standalone="no"?>
 <!DOCTYPE svg PUBLIC "-//W3C//DTD SVG 1.1//EN" 
 "http://www.w3.org/Graphics/SVG/1.1/DTD/svg11.dtd"> 
<svg
  xmlns:svg="http://www.w3.org/2000/svg"
  xmlns="http://www.w3.org/2000/svg"
  xmlns:xlink="http://www.w3.org/1999/xlink"
  version="1.1"
  width="55.8800mm" height="246.3800mm" viewBox="0.0000 0.0000 55.8800 246.3800">
<title>SVG Image created as s_and_h_pcb_panel_back.svg date 2023/03/27 09:42:13 </title>
  <desc>Image generated by PCBNEW </desc>
<g style="fill:#000000; fill-opacity:1.0000;stroke:#000000; stroke-opacity:1.0000;
stroke-linecap:round; stroke-linejoin:round;"
 transform="translate(0 0) scale(1 1)">
</g>
<g style="fill:#000000; fill-opacity:0.0; 
stroke:#000000; stroke-width:0.0000; stroke-opacity:1; 
stroke-linecap:round; stroke-linejoin:round;">
</g>
<g style="fill:#C2C2C2; fill-opacity:0.0; 
stroke:#C2C2C2; stroke-width:0.0000; stroke-opacity:1; 
stroke-linecap:round; stroke-linejoin:round;">
</g>
<g style="fill:#C2C2C2; fill-opacity:0.0; 
stroke:#C2C2C2; stroke-width:0.2000; stroke-opacity:1; 
stroke-linecap:round; stroke-linejoin:round;">
<text x="27.9400" y="9.2550"
textLength="20.6714" font-size="2.6667" lengthAdjust="spacingAndGlyphs"
text-anchor="middle" opacity="0">JLCJLCJLCJLC</text>
<g class="stroked-text"><desc>JLCJLCJLCJLC</desc>
<path d="M37.1781 7.1802
L37.1781 8.6088
" />
<path d="M37.1781 8.6088
L37.2733 8.8945
" />
<path d="M37.2733 8.8945
L37.4638 9.0850
" />
<path d="M37.4638 9.0850
L37.7495 9.1802
" />
<path d="M37.7495 9.1802
L37.9400 9.1802
" />
<path d="M35.2733 9.1802
L36.2257 9.1802
" />
<path d="M36.2257 9.1802
L36.2257 7.1802
" />
<path d="M33.4638 8.9898
L33.5590 9.0850
" />
<path d="M33.5590 9.0850
L33.8448 9.1802
" />
<path d="M33.8448 9.1802
L34.0352 9.1802
" />
<path d="M34.0352 9.1802
L34.3210 9.0850
" />
<path d="M34.3210 9.0850
L34.5114 8.8945
" />
<path d="M34.5114 8.8945
L34.6067 8.7040
" />
<path d="M34.6067 8.7040
L34.7019 8.3231
" />
<path d="M34.7019 8.3231
L34.7019 8.0374
" />
<path d="M34.7019 8.0374
L34.6067 7.6564
" />
<path d="M34.6067 7.6564
L34.5114 7.4660
" />
<path d="M34.5114 7.4660
L34.3210 7.2755
" />
<path d="M34.3210 7.2755
L34.0352 7.1802
" />
<path d="M34.0352 7.1802
L33.8448 7.1802
" />
<path d="M33.8448 7.1802
L33.5590 7.2755
" />
<path d="M33.5590 7.2755
L33.4638 7.3707
" />
<path d="M32.0352 7.1802
L32.0352 8.6088
" />
<path d="M32.0352 8.6088
L32.1305 8.8945
" />
<path d="M32.1305 8.8945
L32.3210 9.0850
" />
<path d="M32.3210 9.0850
L32.6067 9.1802
" />
<path d="M32.6067 9.1802
L32.7971 9.1802
" />
<path d="M30.1305 9.1802
L31.0829 9.1802
" />
<path d="M31.0829 9.1802
L31.0829 7.1802
" />
<path d="M28.3210 8.9898
L28.4162 9.0850
" />
<path d="M28.4162 9.0850
L28.7019 9.1802
" />
<path d="M28.7019 9.1802
L28.8924 9.1802
" />
<path d="M28.8924 9.1802
L29.1781 9.0850
" />
<path d="M29.1781 9.0850
L29.3686 8.8945
" />
<path d="M29.3686 8.8945
L29.4638 8.7040
" />
<path d="M29.4638 8.7040
L29.5590 8.3231
" />
<path d="M29.5590 8.3231
L29.5590 8.0374
" />
<path d="M29.5590 8.0374
L29.4638 7.6564
" />
<path d="M29.4638 7.6564
L29.3686 7.4660
" />
<path d="M29.3686 7.4660
L29.1781 7.2755
" />
<path d="M29.1781 7.2755
L28.8924 7.1802
" />
<path d="M28.8924 7.1802
L28.7019 7.1802
" />
<path d="M28.7019 7.1802
L28.4162 7.2755
" />
<path d="M28.4162 7.2755
L28.3210 7.3707
" />
<path d="M26.8924 7.1802
L26.8924 8.6088
" />
<path d="M26.8924 8.6088
L26.9876 8.8945
" />
<path d="M26.9876 8.8945
L27.1781 9.0850
" />
<path d="M27.1781 9.0850
L27.4638 9.1802
" />
<path d="M27.4638 9.1802
L27.6543 9.1802
" />
<path d="M24.9876 9.1802
L25.9400 9.1802
" />
<path d="M25.9400 9.1802
L25.9400 7.1802
" />
<path d="M23.1781 8.9898
L23.2733 9.0850
" />
<path d="M23.2733 9.0850
L23.5590 9.1802
" />
<path d="M23.5590 9.1802
L23.7495 9.1802
" />
<path d="M23.7495 9.1802
L24.0352 9.0850
" />
<path d="M24.0352 9.0850
L24.2257 8.8945
" />
<path d="M24.2257 8.8945
L24.3210 8.7040
" />
<path d="M24.3210 8.7040
L24.4162 8.3231
" />
<path d="M24.4162 8.3231
L24.4162 8.0374
" />
<path d="M24.4162 8.0374
L24.3210 7.6564
" />
<path d="M24.3210 7.6564
L24.2257 7.4660
" />
<path d="M24.2257 7.4660
L24.0352 7.2755
" />
<path d="M24.0352 7.2755
L23.7495 7.1802
" />
<path d="M23.7495 7.1802
L23.5590 7.1802
" />
<path d="M23.5590 7.1802
L23.2733 7.2755
" />
<path d="M23.2733 7.2755
L23.1781 7.3707
" />
<path d="M21.7495 7.1802
L21.7495 8.6088
" />
<path d="M21.7495 8.6088
L21.8448 8.8945
" />
<path d="M21.8448 8.8945
L22.0352 9.0850
" />
<path d="M22.0352 9.0850
L22.3210 9.1802
" />
<path d="M22.3210 9.1802
L22.5114 9.1802
" />
<path d="M19.8448 9.1802
L20.7971 9.1802
" />
<path d="M20.7971 9.1802
L20.7971 7.1802
" />
<path d="M18.0352 8.9898
L18.1305 9.0850
" />
<path d="M18.1305 9.0850
L18.4162 9.1802
" />
<path d="M18.4162 9.1802
L18.6067 9.1802
" />
<path d="M18.6067 9.1802
L18.8924 9.0850
" />
<path d="M18.8924 9.0850
L19.0829 8.8945
" />
<path d="M19.0829 8.8945
L19.1781 8.7040
" />
<path d="M19.1781 8.7040
L19.2733 8.3231
" />
<path d="M19.2733 8.3231
L19.2733 8.0374
" />
<path d="M19.2733 8.0374
L19.1781 7.6564
" />
<path d="M19.1781 7.6564
L19.0829 7.4660
" />
<path d="M19.0829 7.4660
L18.8924 7.2755
" />
<path d="M18.8924 7.2755
L18.6067 7.1802
" />
<path d="M18.6067 7.1802
L18.4162 7.1802
" />
<path d="M18.4162 7.1802
L18.1305 7.2755
" />
<path d="M18.1305 7.2755
L18.0352 7.3707
" />
</g><g >
</g>
<g >
</g>
<g >
</g>
<g >
</g>
<g >
</g>
<g >
</g>
</g>
<g style="fill:#FFFFFF; fill-opacity:0.0; 
stroke:#FFFFFF; stroke-width:0.2000; stroke-opacity:1; 
stroke-linecap:round; stroke-linejoin:round;">
</g>
<g style="fill:#FFFFFF; fill-opacity:1.0000; 
stroke:#FFFFFF; stroke-width:0.0000; stroke-opacity:1; 
stroke-linecap:round; stroke-linejoin:round;">
<circle cx="27.9400" cy="33.6550" r="0.5000" /> 
</g>
<g style="fill:#FFFFFF; fill-opacity:1.0000; 
stroke:#FFFFFF; stroke-width:0.0212; stroke-opacity:1; 
stroke-linecap:round; stroke-linejoin:round;">
</g>
<g style="fill:#000000; fill-opacity:1.0000; 
stroke:#000000; stroke-width:0.0212; stroke-opacity:1; 
stroke-linecap:round; stroke-linejoin:round;">
<g >
</g>
<g style="fill:#000000; fill-opacity:1.0000; 
stroke:#000000; stroke-width:0.0000; stroke-opacity:1; 
stroke-linecap:round; stroke-linejoin:round;">
<circle cx="27.9400" cy="33.6550" r="1.0000" /> 
</g>
<g style="fill:#000000; fill-opacity:1.0000; 
stroke:#000000; stroke-width:0.0212; stroke-opacity:1; 
stroke-linecap:round; stroke-linejoin:round;">
</g>
<g >
</g>
<g >
</g>
<g >
</g>
<g >
</g>
<g >
</g>
<g style="fill:#000000; fill-opacity:1.0000; 
stroke:#000000; stroke-width:0.0212; stroke-opacity:1; 
stroke-linecap:round; stroke-linejoin:round;">
<g >
</g>
<g style="fill:#000000; fill-opacity:1.0000; 
stroke:#000000; stroke-width:0.0000; stroke-opacity:1; 
stroke-linecap:round; stroke-linejoin:round;">
<path style="fill:#000000; fill-opacity:1.0000; 
stroke:#000000; stroke-width:0.0000; stroke-opacity:1; 
stroke-linecap:round; stroke-linejoin:round;fill-rule:evenodd;"
d="M 7.6500,3.0500
7.6351,3.0523
7.6351,3.0523
7.6263,3.0537
7.6058,3.0510
7.5840,3.0501
7.2271,3.0657
7.2161,3.0666
6.8316,3.1172
6.8208,3.1191
6.4422,3.2031
6.4316,3.2059
6.2613,3.2596
6.0617,3.3225
6.0514,3.3263
5.6931,3.4747
5.6831,3.4794
5.3391,3.6584
5.3296,3.6639
5.0025,3.8723
4.9935,3.8786
4.6859,4.1147
4.6774,4.1217
4.3915,4.3837
4.3837,4.3915
4.1217,4.6774
4.1147,4.6859
3.8786,4.9935
3.8723,5.0025
3.6639,5.3296
3.6584,5.3391
3.4794,5.6831
3.4747,5.6931
3.3263,6.0514
3.3225,6.0617
3.2059,6.4316
3.2031,6.4422
3.1191,6.8208
3.1172,6.8316
3.0666,7.2161
3.0657,7.2271
3.0504,7.5766
3.0518,7.6014
3.0537,7.6137
3.0525,7.6226
3.0525,7.6226
3.0496,7.6453
3.0485,7.6616
3.0485,237.4406
3.0500,237.4600
3.0523,237.4749
3.0523,237.4749
3.0537,237.4837
3.0510,237.5042
3.0501,237.5260
3.0657,237.8829
3.0666,237.8939
3.1172,238.2784
3.1191,238.2892
3.2031,238.6678
3.2059,238.6784
3.3225,239.0483
3.3263,239.0586
3.4747,239.4169
3.4794,239.4269
3.6584,239.7709
3.6639,239.7804
3.8723,240.1075
3.8786,240.1165
4.1147,240.4241
4.1217,240.4326
4.3837,240.7185
4.3915,240.7263
4.6774,240.9883
4.6859,240.9953
4.9935,241.2314
5.0025,241.2377
5.3296,241.4461
5.3391,241.4516
5.6831,241.6306
5.6931,241.6353
6.0514,241.7837
6.0617,241.7875
6.2613,241.8504
6.4316,241.9041
6.4422,241.9069
6.8208,241.9909
6.8316,241.9928
7.2161,242.0434
7.2271,242.0443
7.5766,242.0596
7.6014,242.0582
7.6137,242.0563
7.6226,242.0575
7.6226,242.0575
7.6377,242.0594
7.6453,242.0604
7.6616,242.0615
48.2106,242.0615
48.2300,242.0600
48.2449,242.0577
48.2449,242.0577
48.2537,242.0563
48.2742,242.0590
48.2960,242.0599
48.6529,242.0443
48.6639,242.0434
49.0484,241.9928
49.0592,241.9909
49.4378,241.9069
49.4484,241.9041
49.6187,241.8504
49.8183,241.7875
49.8286,241.7837
50.1869,241.6353
50.1969,241.6306
50.5409,241.4516
50.5504,241.4461
50.8775,241.2377
50.8865,241.2314
51.1941,240.9953
51.2026,240.9883
51.4885,240.7263
51.4963,240.7185
51.7583,240.4326
51.7653,240.4241
52.0014,240.1165
52.0077,240.1075
52.2161,239.7804
52.2216,239.7709
52.4006,239.4269
52.4053,239.4169
52.5537,239.0586
52.5575,239.0483
52.6741,238.6784
52.6769,238.6678
52.7609,238.2892
52.7628,238.2784
52.8134,237.8939
52.8143,237.8829
52.8294,237.5372
52.8278,237.5108
52.8272,237.5074
52.8272,237.5073
52.8264,237.5026
52.8263,237.4900
52.8302,237.4624
52.8315,237.4445
52.8315,212.0900
31.6286,212.0900
31.6083,212.4756
31.5480,212.8569
31.4480,213.2298
31.3097,213.5903
31.1344,213.9343
30.9241,214.2581
30.6811,214.5581
30.4081,214.8311
30.1081,215.0741
29.7843,215.2844
29.7813,215.2859
29.7813,215.2859
29.4432,215.4582
29.4403,215.4597
29.0798,215.5980
28.7069,215.6980
28.5044,215.7300
28.3288,215.7578
28.3288,215.7578
28.3256,215.7583
27.9400,215.7786
27.5544,215.7583
27.5512,215.7578
27.5512,215.7578
27.3756,215.7300
27.1731,215.6980
26.8002,215.5980
26.4397,215.4597
26.4368,215.4582
26.0987,215.2859
26.0987,215.2859
26.0957,215.2844
25.7719,215.0741
25.4719,214.8311
25.1989,214.5581
24.9559,214.2581
24.7456,213.9343
24.5703,213.5903
24.4320,213.2298
24.3320,212.8569
24.2717,212.4756
24.2514,212.0900
24.2717,211.7044
24.3320,211.3231
24.4320,210.9502
24.5703,210.5897
24.5871,210.5567
24.7441,210.2487
24.7441,210.2487
24.7456,210.2457
24.9559,209.9219
25.1989,209.6219
25.4719,209.3489
25.7719,209.1059
26.0957,208.8956
26.0987,208.8941
26.0987,208.8941
26.4368,208.7218
26.4397,208.7203
26.8002,208.5820
27.1731,208.4820
27.3756,208.4500
27.5512,208.4222
27.5512,208.4222
27.5544,208.4217
27.9400,208.4014
28.3256,208.4217
28.3288,208.4222
28.3288,208.4222
28.5044,208.4500
28.7069,208.4820
29.0798,208.5820
29.4403,208.7203
29.4432,208.7218
29.7813,208.8941
29.7813,208.8941
29.7843,208.8956
30.1081,209.1059
30.4081,209.3489
30.6811,209.6219
30.9241,209.9219
31.1344,210.2457
31.1359,210.2487
31.1359,210.2487
31.2929,210.5567
31.3097,210.5897
31.4480,210.9502
31.5480,211.3231
31.6083,211.7044
31.6271,212.0621
31.6286,212.0900
52.8315,212.0900
52.8315,159.9633
32.0030,159.9633
32.0029,159.9664
32.0025,159.9775
31.9907,160.3168
31.9891,160.3600
31.9366,160.7535
31.8460,161.1400
31.7180,161.5158
31.5541,161.8774
31.3556,162.2212
31.3538,162.2237
31.3538,162.2237
31.2536,162.3635
31.1245,162.5440
30.8630,162.8427
30.8607,162.8448
30.5758,163.1123
30.5758,163.1123
30.5736,163.1144
30.5711,163.1163
30.5711,163.1163
30.2615,163.3548
30.2590,163.3567
30.2564,163.3583
30.2564,163.3583
30.0750,163.4716
29.9224,163.5670
29.5668,163.7435
29.1957,163.8845
28.8126,163.9886
28.8095,163.9891
28.8095,163.9891
28.4242,164.0543
28.4242,164.0543
28.4211,164.0548
28.4181,164.0550
28.4180,164.0550
28.0282,164.0823
28.0282,164.0823
28.0251,164.0825
27.7688,164.0753
27.6313,164.0715
27.6313,164.0715
27.6283,164.0714
27.6252,164.0710
27.6252,164.0710
27.4367,164.0472
27.2344,164.0217
27.2314,164.0210
27.2314,164.0210
26.8503,163.9344
26.8503,163.9344
26.8473,163.9337
26.6994,163.8845
26.4735,163.8094
26.4735,163.8094
26.4706,163.8084
26.3274,163.7446
26.1107,163.6482
26.1107,163.6482
26.1079,163.6469
25.9673,163.5670
25.7654,163.4524
25.7654,163.4524
25.7627,163.4508
25.4383,163.2220
25.1378,162.9626
25.1357,162.9604
25.1357,162.9604
24.8661,162.6773
24.8640,162.6751
24.8308,162.6325
24.6215,162.3647
24.6215,162.3647
24.6196,162.3623
24.6180,162.3597
24.6180,162.3597
24.4086,162.0297
24.4085,162.0297
24.4069,162.0271
24.3806,161.9750
24.3220,161.8589
24.2279,161.6727
24.2268,161.6699
24.2268,161.6699
24.0855,161.3055
24.0855,161.3055
24.0843,161.3026
23.9776,160.9202
23.9086,160.5293
23.8782,160.1335
23.8766,160.0200
23.8792,159.9664
23.8958,159.6266
23.8960,159.6235
23.9048,159.5640
23.9535,159.2338
23.9535,159.2338
23.9540,159.2307
24.0500,158.8456
24.0683,158.7943
24.1822,158.4745
24.1832,158.4716
24.3522,158.1124
24.3820,158.0624
24.5539,157.7740
24.5555,157.7714
24.7911,157.4518
25.0567,157.1568
25.3499,156.8891
25.6678,156.6513
25.7166,156.6217
26.0047,156.4472
26.0047,156.4472
26.0074,156.4456
26.3654,156.2741
26.4248,156.2525
26.7355,156.1394
26.7355,156.1394
26.7384,156.1383
26.9453,156.0852
27.1200,156.0404
27.1200,156.0404
27.1229,156.0396
27.5153,155.9789
27.5183,155.9787
27.5183,155.9787
27.5471,155.9771
27.9116,155.9567
27.9147,155.9568
27.9147,155.9568
28.1730,155.9677
28.3083,155.9733
28.3113,155.9738
28.3113,155.9738
28.3510,155.9793
28.7014,156.0286
29.0873,156.1219
29.4622,156.2525
29.5090,156.2741
29.8198,156.4177
29.8198,156.4177
29.8226,156.4190
30.1650,156.6199
30.2060,156.6497
30.4837,156.8514
30.4837,156.8514
30.4861,156.8532
30.4884,156.8553
30.4884,156.8553
30.5289,156.8912
30.7830,157.1168
30.7851,157.1191
30.7851,157.1191
31.0506,157.4058
31.0507,157.4058
31.0527,157.4081
31.0546,157.4106
31.0546,157.4106
31.0878,157.4543
31.2928,157.7243
31.2944,157.7269
31.2944,157.7269
31.4992,158.0598
31.5008,158.0624
31.6748,158.4193
31.6759,158.4221
31.6759,158.4221
31.7619,158.6533
31.8132,158.7914
31.9146,159.1752
31.9781,159.5671
31.9783,159.5701
31.9783,159.5701
31.9852,159.6810
32.0030,159.9633
52.8315,159.9633
52.8315,115.5133
32.0030,115.5133
32.0029,115.5164
32.0025,115.5275
31.9907,115.8668
31.9891,115.9100
31.9366,116.3035
31.8460,116.6900
31.7180,117.0658
31.5541,117.4274
31.3556,117.7712
31.3538,117.7737
31.3538,117.7737
31.2536,117.9135
31.1245,118.0940
30.8630,118.3927
30.8607,118.3948
30.5758,118.6623
30.5758,118.6623
30.5736,118.6644
30.5711,118.6663
30.5711,118.6663
30.2615,118.9048
30.2590,118.9067
30.2564,118.9083
30.2564,118.9083
30.0750,119.0216
29.9224,119.1170
29.5668,119.2935
29.1957,119.4345
28.8126,119.5386
28.8095,119.5391
28.8095,119.5391
28.4242,119.6043
28.4242,119.6043
28.4211,119.6048
28.4181,119.6050
28.4180,119.6050
28.0282,119.6323
28.0282,119.6323
28.0251,119.6325
27.7688,119.6253
27.6313,119.6215
27.6313,119.6215
27.6283,119.6214
27.6252,119.6210
27.6252,119.6210
27.4367,119.5972
27.2344,119.5717
27.2314,119.5710
27.2314,119.5710
26.8503,119.4844
26.8503,119.4844
26.8473,119.4837
26.6994,119.4345
26.4735,119.3594
26.4735,119.3594
26.4706,119.3584
26.3274,119.2946
26.1107,119.1982
26.1107,119.1982
26.1079,119.1969
25.9673,119.1170
25.7654,119.0024
25.7654,119.0024
25.7627,119.0008
25.4383,118.7720
25.1378,118.5126
25.1357,118.5104
25.1357,118.5104
24.8661,118.2273
24.8640,118.2251
24.8308,118.1825
24.6215,117.9147
24.6215,117.9147
24.6196,117.9123
24.6180,117.9097
24.6180,117.9097
24.4086,117.5797
24.4085,117.5797
24.4069,117.5771
24.3806,117.5250
24.3220,117.4089
24.2279,117.2227
24.2268,117.2199
24.2268,117.2199
24.0855,116.8555
24.0855,116.8555
24.0843,116.8526
23.9776,116.4702
23.9086,116.0793
23.8782,115.6835
23.8766,115.5700
23.8792,115.5164
23.8958,115.1766
23.8960,115.1735
23.9048,115.1140
23.9535,114.7838
23.9535,114.7838
23.9540,114.7807
24.0500,114.3956
24.0683,114.3443
24.1822,114.0245
24.1832,114.0216
24.3522,113.6624
24.3820,113.6124
24.5539,113.3240
24.5555,113.3214
24.7911,113.0018
25.0567,112.7068
25.3499,112.4391
25.6678,112.2013
25.7166,112.1717
26.0047,111.9972
26.0047,111.9972
26.0074,111.9956
26.3654,111.8241
26.4248,111.8025
26.7355,111.6894
26.7355,111.6894
26.7384,111.6883
26.9453,111.6352
27.1200,111.5904
27.1200,111.5904
27.1229,111.5896
27.5153,111.5289
27.5183,111.5287
27.5183,111.5287
27.5471,111.5271
27.9116,111.5067
27.9147,111.5068
27.9147,111.5068
28.1730,111.5177
28.3083,111.5233
28.3113,111.5238
28.3113,111.5238
28.3510,111.5293
28.7014,111.5786
29.0873,111.6719
29.4622,111.8025
29.5090,111.8241
29.8198,111.9677
29.8198,111.9677
29.8226,111.9690
30.1650,112.1699
30.2060,112.1997
30.4837,112.4014
30.4837,112.4014
30.4861,112.4032
30.4884,112.4053
30.4884,112.4053
30.5289,112.4412
30.7830,112.6668
30.7851,112.6691
30.7851,112.6691
31.0506,112.9558
31.0507,112.9558
31.0527,112.9581
31.0546,112.9605
31.0546,112.9606
31.0878,113.0043
31.2928,113.2743
31.2944,113.2769
31.2944,113.2769
31.4992,113.6098
31.5008,113.6124
31.6748,113.9693
31.6759,113.9721
31.6759,113.9721
31.7619,114.2033
31.8132,114.3414
31.9146,114.7252
31.9781,115.1171
31.9783,115.1201
31.9783,115.1201
31.9852,115.2310
32.0030,115.5133
52.8315,115.5133
52.8315,71.0633
32.0030,71.0633
32.0029,71.0664
32.0025,71.0775
31.9907,71.4168
31.9891,71.4600
31.9366,71.8535
31.8460,72.2400
31.7180,72.6158
31.5541,72.9774
31.3556,73.3212
31.3538,73.3237
31.3538,73.3237
31.2536,73.4635
31.1245,73.6440
30.8630,73.9427
30.8607,73.9448
30.5758,74.2123
30.5758,74.2123
30.5736,74.2144
30.5711,74.2163
30.5711,74.2163
30.2615,74.4548
30.2590,74.4567
30.2564,74.4583
30.2564,74.4583
30.0750,74.5716
29.9224,74.6670
29.5668,74.8435
29.1957,74.9845
28.8126,75.0886
28.8095,75.0891
28.8095,75.0891
28.4242,75.1543
28.4242,75.1543
28.4211,75.1548
28.4181,75.1550
28.4180,75.1550
28.0282,75.1823
28.0282,75.1823
28.0251,75.1825
27.7688,75.1753
27.6313,75.1715
27.6313,75.1715
27.6283,75.1714
27.6252,75.1710
27.6252,75.1710
27.4367,75.1472
27.2344,75.1217
27.2314,75.1210
27.2314,75.1210
26.8503,75.0344
26.8503,75.0344
26.8473,75.0337
26.6994,74.9845
26.4735,74.9094
26.4735,74.9094
26.4706,74.9084
26.3274,74.8446
26.1107,74.7482
26.1107,74.7482
26.1079,74.7469
25.9673,74.6670
25.7654,74.5524
25.7654,74.5524
25.7627,74.5508
25.4383,74.3220
25.1378,74.0626
25.1357,74.0604
25.1357,74.0604
24.8661,73.7773
24.8640,73.7751
24.8308,73.7325
24.6215,73.4647
24.6215,73.4647
24.6196,73.4623
24.6180,73.4597
24.6180,73.4597
24.4086,73.1297
24.4085,73.1297
24.4069,73.1271
24.3806,73.0750
24.3220,72.9589
24.2279,72.7727
24.2268,72.7699
24.2268,72.7699
24.0855,72.4055
24.0855,72.4055
24.0843,72.4026
23.9776,72.0202
23.9086,71.6293
23.8782,71.2335
23.8766,71.1200
23.8792,71.0664
23.8958,70.7266
23.8960,70.7235
23.9048,70.6640
23.9535,70.3338
23.9535,70.3338
23.9540,70.3307
24.0500,69.9455
24.0683,69.8943
24.1822,69.5745
24.1832,69.5716
24.3522,69.2124
24.3820,69.1624
24.5539,68.8740
24.5555,68.8714
24.7911,68.5518
25.0567,68.2568
25.3499,67.9891
25.6678,67.7513
25.7166,67.7217
26.0047,67.5472
26.0047,67.5472
26.0074,67.5456
26.3654,67.3741
26.4248,67.3525
26.7355,67.2394
26.7355,67.2394
26.7384,67.2383
26.9453,67.1852
27.1200,67.1404
27.1200,67.1404
27.1229,67.1396
27.5153,67.0789
27.5183,67.0787
27.5183,67.0787
27.5471,67.0771
27.9116,67.0567
27.9147,67.0568
27.9147,67.0568
28.1730,67.0677
28.3083,67.0733
28.3113,67.0738
28.3113,67.0738
28.3510,67.0793
28.7014,67.1286
29.0873,67.2219
29.4622,67.3525
29.5090,67.3741
29.8198,67.5177
29.8198,67.5177
29.8226,67.5190
30.1650,67.7199
30.2060,67.7497
30.4837,67.9514
30.4837,67.9514
30.4861,67.9532
30.4884,67.9553
30.4884,67.9553
30.5289,67.9912
30.7830,68.2168
30.7851,68.2191
30.7851,68.2191
31.0506,68.5058
31.0507,68.5058
31.0527,68.5081
31.0546,68.5105
31.0546,68.5106
31.0878,68.5543
31.2928,68.8243
31.2944,68.8269
31.2944,68.8269
31.4992,69.1598
31.5008,69.1624
31.6748,69.5193
31.6759,69.5221
31.6759,69.5221
31.7619,69.7533
31.8132,69.8914
31.9146,70.2752
31.9781,70.6671
31.9783,70.6701
31.9783,70.6701
31.9852,70.7810
32.0030,71.0633
52.8315,71.0633
52.8315,34.8877
28.8078,34.8877
28.8021,34.8953
28.6310,35.0002
28.6222,35.0047
28.4120,35.0917
28.4026,35.0948
28.1814,35.1479
28.1717,35.1494
27.9449,35.1673
27.9351,35.1673
27.7083,35.1494
27.6986,35.1479
27.4774,35.0948
27.4680,35.0917
27.2578,35.0047
27.2490,35.0002
27.0816,34.8976
27.0721,34.8871
27.0759,34.8783
27.9272,34.0270
27.9411,34.0194
27.9430,34.0195
27.9496,34.0238
28.8011,34.8753
28.8078,34.8877
52.8315,34.8877
52.8315,33.6599
29.4523,33.6599
29.4344,33.8867
29.4329,33.8964
29.3798,34.1176
29.3767,34.1270
29.2897,34.3372
29.2852,34.3460
29.1826,34.5134
29.1721,34.5229
29.1633,34.5191
28.3120,33.6678
28.3056,33.6561
27.5756,33.6561
27.5755,33.6580
27.5712,33.6646
26.7197,34.5161
26.7073,34.5228
26.6997,34.5171
26.5948,34.3460
26.5903,34.3372
26.5033,34.1270
26.5002,34.1176
26.4471,33.8964
26.4456,33.8867
26.4277,33.6599
26.4277,33.6501
26.4456,33.4233
26.4471,33.4136
26.5002,33.1924
26.5033,33.1830
26.5903,32.9728
26.5948,32.9640
26.6974,32.7966
26.7079,32.7871
26.7167,32.7909
27.5680,33.6422
27.5756,33.6561
28.3056,33.6561
28.3044,33.6539
28.3045,33.6520
28.3088,33.6454
29.1603,32.7939
29.1727,32.7872
29.1803,32.7929
29.2852,32.9640
29.2897,32.9728
29.3767,33.1830
29.3798,33.1924
29.4329,33.4136
29.4344,33.4233
29.4523,33.6501
29.4523,33.6599
52.8315,33.6599
52.8315,32.4229
28.8079,32.4229
28.8041,32.4317
27.9528,33.2830
27.9389,33.2906
27.9370,33.2905
27.9304,33.2862
27.0789,32.4347
27.0722,32.4223
27.0779,32.4147
27.2490,32.3098
27.2578,32.3053
27.4680,32.2183
27.4774,32.2152
27.6986,32.1621
27.7083,32.1606
27.9351,32.1427
27.9449,32.1427
28.1717,32.1606
28.1814,32.1621
28.4026,32.2152
28.4120,32.2183
28.6222,32.3053
28.6310,32.3098
28.7984,32.4124
28.8079,32.4229
52.8315,32.4229
52.8315,26.6133
32.0030,26.6133
32.0029,26.6164
32.0025,26.6275
31.9907,26.9668
31.9891,27.0100
31.9366,27.4035
31.8460,27.7900
31.7180,28.1658
31.5541,28.5274
31.3556,28.8712
31.3538,28.8737
31.3538,28.8737
31.2536,29.0135
31.1245,29.1940
30.8630,29.4927
30.8607,29.4948
30.5758,29.7623
30.5758,29.7623
30.5736,29.7644
30.5711,29.7663
30.5711,29.7663
30.2615,30.0048
30.2590,30.0067
30.2564,30.0083
30.2564,30.0083
30.0750,30.1216
29.9224,30.2170
29.5668,30.3935
29.1957,30.5345
28.8126,30.6386
28.8095,30.6391
28.8095,30.6391
28.4242,30.7043
28.4242,30.7043
28.4211,30.7048
28.4181,30.7050
28.4180,30.7050
28.0282,30.7323
28.0282,30.7323
28.0251,30.7325
27.7688,30.7253
27.6313,30.7215
27.6313,30.7215
27.6283,30.7214
27.6252,30.7210
27.6252,30.7210
27.4367,30.6972
27.2344,30.6717
27.2314,30.6710
27.2314,30.6710
26.8503,30.5844
26.8503,30.5844
26.8473,30.5837
26.6994,30.5345
26.4735,30.4594
26.4735,30.4594
26.4706,30.4584
26.3274,30.3946
26.1107,30.2982
26.1107,30.2982
26.1079,30.2969
25.9673,30.2170
25.7654,30.1024
25.7654,30.1024
25.7627,30.1008
25.4383,29.8720
25.1378,29.6126
25.1357,29.6104
25.1357,29.6104
24.8661,29.3273
24.8640,29.3251
24.8308,29.2825
24.6215,29.0147
24.6215,29.0147
24.6196,29.0123
24.6180,29.0097
24.6180,29.0097
24.4086,28.6797
24.4085,28.6797
24.4069,28.6771
24.3806,28.6250
24.3220,28.5089
24.2279,28.3227
24.2268,28.3199
24.2268,28.3199
24.0855,27.9555
24.0855,27.9555
24.0843,27.9526
23.9776,27.5702
23.9086,27.1793
23.8782,26.7835
23.8766,26.6700
23.8792,26.6164
23.8958,26.2766
23.8960,26.2735
23.9048,26.2140
23.9535,25.8838
23.9535,25.8838
23.9540,25.8807
24.0500,25.4955
24.0683,25.4443
24.1822,25.1245
24.1832,25.1216
24.3522,24.7624
24.3820,24.7124
24.5539,24.4240
24.5555,24.4214
24.7911,24.1018
25.0567,23.8068
25.3499,23.5391
25.6678,23.3013
25.7166,23.2717
26.0047,23.0972
26.0047,23.0972
26.0074,23.0956
26.3654,22.9241
26.4248,22.9025
26.7355,22.7894
26.7355,22.7894
26.7384,22.7883
26.9453,22.7352
27.1200,22.6904
27.1200,22.6904
27.1229,22.6896
27.5153,22.6289
27.5183,22.6287
27.5183,22.6287
27.5471,22.6271
27.9116,22.6067
27.9147,22.6068
27.9147,22.6068
28.1730,22.6177
28.3083,22.6233
28.3113,22.6238
28.3113,22.6238
28.3510,22.6293
28.7014,22.6786
29.0873,22.7719
29.4622,22.9025
29.5090,22.9241
29.8198,23.0677
29.8198,23.0677
29.8226,23.0690
30.1650,23.2699
30.2060,23.2997
30.4837,23.5014
30.4837,23.5014
30.4861,23.5032
30.4884,23.5053
30.4884,23.5053
30.5289,23.5412
30.7830,23.7668
30.7851,23.7691
30.7851,23.7691
31.0506,24.0558
31.0507,24.0558
31.0527,24.0581
31.0546,24.0605
31.0546,24.0606
31.0878,24.1043
31.2928,24.3743
31.2944,24.3769
31.2944,24.3769
31.4992,24.7098
31.5008,24.7124
31.6748,25.0693
31.6759,25.0721
31.6759,25.0721
31.7619,25.3033
31.8132,25.4414
31.9146,25.8252
31.9781,26.2171
31.9783,26.2201
31.9783,26.2201
31.9852,26.3310
32.0030,26.6133
52.8315,26.6133
52.8315,7.6732
52.8298,7.6523
52.8272,7.6373
52.8272,7.6373
52.8264,7.6326
52.8263,7.6200
52.8270,7.6152
52.8270,7.6152
52.8286,7.6036
52.8298,7.5803
52.8143,7.2271
52.8134,7.2161
52.7628,6.8316
52.7609,6.8208
52.6769,6.4422
52.6741,6.4316
52.5575,6.0617
52.5537,6.0514
52.4053,5.6931
52.4006,5.6831
52.2216,5.3391
52.2161,5.3296
52.0077,5.0025
52.0014,4.9935
51.7653,4.6859
51.7583,4.6774
51.4963,4.3915
51.4885,4.3837
51.2026,4.1217
51.1941,4.1147
50.8865,3.8786
50.8775,3.8723
50.5504,3.6639
50.5409,3.6584
50.1969,3.4794
50.1869,3.4747
49.8286,3.3263
49.8183,3.3225
49.6187,3.2596
49.4484,3.2059
49.4378,3.2031
49.0592,3.1191
49.0484,3.1172
48.6639,3.0666
48.6529,3.0657
48.3034,3.0504
48.2786,3.0518
48.2663,3.0537
48.2574,3.0525
48.2574,3.0525
48.2386,3.0501
48.2347,3.0496
48.2184,3.0485
7.6694,3.0485
Z" /> 
</g>
</g>
</g>
<g style="fill:#FFFFFF; fill-opacity:1.0000; 
stroke:#FFFFFF; stroke-width:0.0000; stroke-opacity:1; 
stroke-linecap:round; stroke-linejoin:round;">
<circle cx="27.9400" cy="33.6550" r="0.5000" /> 
</g>
<g style="fill:#FFFFFF; fill-opacity:1.0000; 
stroke:#FFFFFF; stroke-width:0.0212; stroke-opacity:1; 
stroke-linecap:round; stroke-linejoin:round;">
</g>
<g style="fill:#000000; fill-opacity:1.0000; 
stroke:#000000; stroke-width:0.0212; stroke-opacity:1; 
stroke-linecap:round; stroke-linejoin:round;">
</g>
<g style="fill:#C2C2C2; fill-opacity:1.0000; 
stroke:#C2C2C2; stroke-width:0.0212; stroke-opacity:1; 
stroke-linecap:round; stroke-linejoin:round;">
</g>
<g style="fill:#C2C2C2; fill-opacity:0.0; 
stroke:#C2C2C2; stroke-width:0.1000; stroke-opacity:1; 
stroke-linecap:round; stroke-linejoin:round;">
<path d="M2.5400 237.4900 A5.0800 5.0800 0.0 0 0 7.6200 242.5700" />
<path d="M2.5400 237.4900
L2.5400 7.6200
" />
</g>
<g style="fill:#C2C2C2; fill-opacity:0.0; 
stroke:#C2C2C2; stroke-width:0.1500; stroke-opacity:1; 
stroke-linecap:round; stroke-linejoin:round;">
<circle cx="27.9400" cy="160.0200" r="3.5500" /> 
</g>
<g style="fill:#C2C2C2; fill-opacity:0.0; 
stroke:#C2C2C2; stroke-width:0.1000; stroke-opacity:1; 
stroke-linecap:round; stroke-linejoin:round;">
<path d="M7.6200 2.5400 A5.0800 5.0800 0.0 0 0 2.5400 7.6200" />
<path d="M53.3400 7.6200
L53.3400 237.4900
" />
<path d="M7.6200 2.5400
L48.2600 2.5400
" />
<path d="M48.2600 242.5700 A5.0800 5.0800 0.0 0 0 53.3400 237.4900" />
</g>
<g style="fill:#C2C2C2; fill-opacity:0.0; 
stroke:#C2C2C2; stroke-width:0.1500; stroke-opacity:1; 
stroke-linecap:round; stroke-linejoin:round;">
<circle cx="27.9400" cy="212.0900" r="3.1750" /> 
</g>
<g style="fill:#C2C2C2; fill-opacity:0.0; 
stroke:#C2C2C2; stroke-width:0.1000; stroke-opacity:1; 
stroke-linecap:round; stroke-linejoin:round;">
<path d="M48.2600 242.5700
L7.6200 242.5700
" />
</g>
<g style="fill:#C2C2C2; fill-opacity:0.0; 
stroke:#C2C2C2; stroke-width:0.1500; stroke-opacity:1; 
stroke-linecap:round; stroke-linejoin:round;">
<circle cx="27.9400" cy="71.1200" r="3.5500" /> 
<circle cx="27.9400" cy="26.6700" r="3.5500" /> 
<circle cx="27.9400" cy="115.5700" r="3.5500" /> 
</g>
<g style="fill:#C2C2C2; fill-opacity:0.0; 
stroke:#C2C2C2; stroke-width:0.1000; stroke-opacity:1; 
stroke-linecap:round; stroke-linejoin:round;">
<path d="M53.3400 7.6200 A5.0800 5.0800 0.0 0 0 48.2600 2.5400" />
<g >
</g>
<g >
</g>
<g >
</g>
<g >
</g>
<g >
</g>
<g >
</g>
</g> 
</svg>
