<?xml version="1.0" standalone="no"?>
 <!DOCTYPE svg PUBLIC "-//W3C//DTD SVG 1.1//EN" 
 "http://www.w3.org/Graphics/SVG/1.1/DTD/svg11.dtd"> 
<svg
  xmlns:svg="http://www.w3.org/2000/svg"
  xmlns="http://www.w3.org/2000/svg"
  xmlns:xlink="http://www.w3.org/1999/xlink"
  version="1.1"
  width="55.8800mm" height="246.3800mm" viewBox="0.0000 0.0000 55.8800 246.3800">
<title>SVG Image created as s_and_h_pcb_panel_front.svg date 2023/03/27 09:42:13 </title>
  <desc>Image generated by PCBNEW </desc>
<g style="fill:#000000; fill-opacity:1.0000;stroke:#000000; stroke-opacity:1.0000;
stroke-linecap:round; stroke-linejoin:round;"
 transform="translate(0 0) scale(1 1)">
</g>
<g style="fill:#000000; fill-opacity:0.0; 
stroke:#000000; stroke-width:0.0000; stroke-opacity:1; 
stroke-linecap:round; stroke-linejoin:round;">
<g >
</g>
<g style="fill:#000000; fill-opacity:1.0000; 
stroke:#000000; stroke-width:0.0000; stroke-opacity:1; 
stroke-linecap:round; stroke-linejoin:round;">
<circle cx="27.9400" cy="33.6550" r="1.0000" /> 
</g>
<g style="fill:#000000; fill-opacity:1.0000; 
stroke:#000000; stroke-width:0.0212; stroke-opacity:1; 
stroke-linecap:round; stroke-linejoin:round;">
</g>
<g >
</g>
<g >
</g>
<g >
</g>
<g >
</g>
<g >
</g>
<g style="fill:#000000; fill-opacity:1.0000; 
stroke:#000000; stroke-width:0.0212; stroke-opacity:1; 
stroke-linecap:round; stroke-linejoin:round;">
<g >
</g>
<g style="fill:#000000; fill-opacity:1.0000; 
stroke:#000000; stroke-width:0.0000; stroke-opacity:1; 
stroke-linecap:round; stroke-linejoin:round;">
<path style="fill:#000000; fill-opacity:1.0000; 
stroke:#000000; stroke-width:0.0000; stroke-opacity:1; 
stroke-linecap:round; stroke-linejoin:round;fill-rule:evenodd;"
d="M 48.2300,3.0500
48.2449,3.0523
48.2449,3.0523
48.2537,3.0537
48.2742,3.0510
48.2960,3.0501
48.6529,3.0657
48.6639,3.0666
49.0484,3.1172
49.0592,3.1191
49.4378,3.2031
49.4484,3.2059
49.6187,3.2596
49.8183,3.3225
49.8286,3.3263
50.1869,3.4747
50.1969,3.4794
50.5409,3.6584
50.5504,3.6639
50.8775,3.8723
50.8865,3.8786
51.1941,4.1147
51.2026,4.1217
51.4885,4.3837
51.4963,4.3915
51.7583,4.6774
51.7653,4.6859
52.0014,4.9935
52.0077,5.0025
52.2161,5.3296
52.2216,5.3391
52.4006,5.6831
52.4053,5.6931
52.5537,6.0514
52.5575,6.0617
52.6741,6.4316
52.6769,6.4422
52.7609,6.8208
52.7628,6.8316
52.8134,7.2161
52.8143,7.2271
52.8296,7.5766
52.8282,7.6014
52.8263,7.6137
52.8275,7.6226
52.8275,7.6226
52.8304,7.6453
52.8315,7.6616
52.8315,237.4406
52.8300,237.4600
52.8277,237.4749
52.8277,237.4749
52.8263,237.4837
52.8290,237.5042
52.8299,237.5260
52.8143,237.8829
52.8134,237.8939
52.7628,238.2784
52.7609,238.2892
52.6769,238.6678
52.6741,238.6784
52.5575,239.0483
52.5537,239.0586
52.4053,239.4169
52.4006,239.4269
52.2216,239.7709
52.2161,239.7804
52.0077,240.1075
52.0014,240.1165
51.7653,240.4241
51.7583,240.4326
51.4963,240.7185
51.4885,240.7263
51.2026,240.9883
51.1941,240.9953
50.8865,241.2314
50.8775,241.2377
50.5504,241.4461
50.5409,241.4516
50.1969,241.6306
50.1869,241.6353
49.8286,241.7837
49.8183,241.7875
49.6187,241.8504
49.4484,241.9041
49.4378,241.9069
49.0592,241.9909
49.0484,241.9928
48.6639,242.0434
48.6529,242.0443
48.3034,242.0596
48.2786,242.0582
48.2663,242.0563
48.2574,242.0575
48.2574,242.0575
48.2423,242.0594
48.2347,242.0604
48.2184,242.0615
7.6694,242.0615
7.6500,242.0600
7.6351,242.0577
7.6351,242.0577
7.6263,242.0563
7.6058,242.0590
7.5840,242.0599
7.2271,242.0443
7.2161,242.0434
6.8316,241.9928
6.8208,241.9909
6.4422,241.9069
6.4316,241.9041
6.2613,241.8504
6.0617,241.7875
6.0514,241.7837
5.6931,241.6353
5.6831,241.6306
5.3391,241.4516
5.3296,241.4461
5.0025,241.2377
4.9935,241.2314
4.6859,240.9953
4.6774,240.9883
4.3915,240.7263
4.3837,240.7185
4.1217,240.4326
4.1147,240.4241
3.8786,240.1165
3.8723,240.1075
3.6639,239.7804
3.6584,239.7709
3.4794,239.4269
3.4747,239.4169
3.3263,239.0586
3.3225,239.0483
3.2059,238.6784
3.2031,238.6678
3.1191,238.2892
3.1172,238.2784
3.0666,237.8939
3.0657,237.8829
3.0506,237.5372
3.0522,237.5108
3.0528,237.5074
3.0528,237.5073
3.0536,237.5026
3.0537,237.4900
3.0498,237.4624
3.0485,237.4445
3.0485,212.0900
24.2514,212.0900
24.2717,212.4756
24.3320,212.8569
24.4320,213.2298
24.5703,213.5903
24.7456,213.9343
24.9559,214.2581
25.1989,214.5581
25.4719,214.8311
25.7719,215.0741
26.0957,215.2844
26.0987,215.2859
26.0987,215.2859
26.4368,215.4582
26.4397,215.4597
26.8002,215.5980
27.1731,215.6980
27.3756,215.7300
27.5512,215.7578
27.5512,215.7578
27.5544,215.7583
27.9400,215.7786
28.3256,215.7583
28.3288,215.7578
28.3288,215.7578
28.5044,215.7300
28.7069,215.6980
29.0798,215.5980
29.4403,215.4597
29.4432,215.4582
29.7813,215.2859
29.7813,215.2859
29.7843,215.2844
30.1081,215.0741
30.4081,214.8311
30.6811,214.5581
30.9241,214.2581
31.1344,213.9343
31.3097,213.5903
31.4480,213.2298
31.5480,212.8569
31.6083,212.4756
31.6286,212.0900
31.6083,211.7044
31.5480,211.3231
31.4480,210.9502
31.3097,210.5897
31.2929,210.5567
31.1359,210.2487
31.1359,210.2487
31.1344,210.2457
30.9241,209.9219
30.6811,209.6219
30.4081,209.3489
30.1081,209.1059
29.7843,208.8956
29.7813,208.8941
29.7813,208.8941
29.4432,208.7218
29.4403,208.7203
29.0798,208.5820
28.7069,208.4820
28.5044,208.4500
28.3288,208.4222
28.3288,208.4222
28.3256,208.4217
27.9400,208.4014
27.5544,208.4217
27.5512,208.4222
27.5512,208.4222
27.3756,208.4500
27.1731,208.4820
26.8002,208.5820
26.4397,208.7203
26.4368,208.7218
26.0987,208.8941
26.0987,208.8941
26.0957,208.8956
25.7719,209.1059
25.4719,209.3489
25.1989,209.6219
24.9559,209.9219
24.7456,210.2457
24.7441,210.2487
24.7441,210.2487
24.5871,210.5567
24.5703,210.5897
24.4320,210.9502
24.3320,211.3231
24.2717,211.7044
24.2529,212.0621
24.2514,212.0900
3.0485,212.0900
3.0485,159.9633
23.8770,159.9633
23.8771,159.9664
23.8775,159.9775
23.8893,160.3168
23.8909,160.3600
23.9434,160.7535
24.0340,161.1400
24.1620,161.5158
24.3259,161.8774
24.5244,162.2212
24.5262,162.2237
24.5262,162.2237
24.6264,162.3635
24.7555,162.5440
25.0170,162.8427
25.0193,162.8448
25.3042,163.1123
25.3042,163.1123
25.3064,163.1144
25.3089,163.1163
25.3089,163.1163
25.6185,163.3548
25.6210,163.3567
25.6236,163.3583
25.6236,163.3583
25.8050,163.4716
25.9576,163.5670
26.3132,163.7435
26.6843,163.8845
27.0674,163.9886
27.0705,163.9891
27.0705,163.9891
27.4558,164.0543
27.4558,164.0543
27.4589,164.0548
27.4619,164.0550
27.4620,164.0550
27.8518,164.0823
27.8518,164.0823
27.8549,164.0825
28.1112,164.0753
28.2487,164.0715
28.2487,164.0715
28.2517,164.0714
28.2548,164.0710
28.2548,164.0710
28.4433,164.0472
28.6456,164.0217
28.6486,164.0210
28.6486,164.0210
29.0297,163.9344
29.0297,163.9344
29.0327,163.9337
29.1806,163.8845
29.4065,163.8094
29.4065,163.8094
29.4094,163.8084
29.5526,163.7446
29.7693,163.6482
29.7693,163.6482
29.7721,163.6469
29.9127,163.5670
30.1146,163.4524
30.1146,163.4524
30.1173,163.4508
30.4417,163.2220
30.7422,162.9626
30.7443,162.9604
30.7443,162.9604
31.0139,162.6773
31.0160,162.6751
31.0492,162.6325
31.2585,162.3647
31.2585,162.3647
31.2604,162.3623
31.2620,162.3597
31.2620,162.3597
31.4714,162.0297
31.4715,162.0297
31.4731,162.0271
31.4994,161.9750
31.5580,161.8589
31.6521,161.6727
31.6532,161.6699
31.6532,161.6699
31.7945,161.3055
31.7945,161.3055
31.7957,161.3026
31.9024,160.9202
31.9714,160.5293
32.0018,160.1335
32.0034,160.0200
32.0008,159.9664
31.9842,159.6266
31.9840,159.6235
31.9752,159.5640
31.9265,159.2338
31.9265,159.2338
31.9260,159.2307
31.8300,158.8456
31.8117,158.7943
31.6978,158.4745
31.6968,158.4716
31.5278,158.1124
31.4980,158.0624
31.3261,157.7740
31.3245,157.7714
31.0889,157.4518
30.8233,157.1568
30.5301,156.8891
30.2122,156.6513
30.1634,156.6217
29.8753,156.4472
29.8753,156.4472
29.8726,156.4456
29.5146,156.2741
29.4552,156.2525
29.1445,156.1394
29.1445,156.1394
29.1416,156.1383
28.9347,156.0852
28.7600,156.0404
28.7600,156.0404
28.7571,156.0396
28.3647,155.9789
28.3617,155.9787
28.3617,155.9787
28.3329,155.9771
27.9684,155.9567
27.9653,155.9568
27.9653,155.9568
27.7070,155.9677
27.5717,155.9733
27.5687,155.9738
27.5687,155.9738
27.5290,155.9793
27.1786,156.0286
26.7927,156.1219
26.4178,156.2525
26.3710,156.2741
26.0602,156.4177
26.0602,156.4177
26.0574,156.4190
25.7150,156.6199
25.6740,156.6497
25.3963,156.8514
25.3963,156.8514
25.3939,156.8532
25.3916,156.8553
25.3916,156.8553
25.3511,156.8912
25.0970,157.1168
25.0949,157.1191
25.0949,157.1191
24.8294,157.4058
24.8293,157.4058
24.8273,157.4081
24.8254,157.4106
24.8254,157.4106
24.7922,157.4543
24.5872,157.7243
24.5856,157.7269
24.5856,157.7269
24.3808,158.0598
24.3792,158.0624
24.2052,158.4193
24.2041,158.4221
24.2041,158.4221
24.1181,158.6533
24.0668,158.7914
23.9654,159.1752
23.9019,159.5671
23.9017,159.5701
23.9017,159.5701
23.8948,159.6810
23.8770,159.9633
3.0485,159.9633
3.0485,115.5133
23.8770,115.5133
23.8771,115.5164
23.8775,115.5275
23.8893,115.8668
23.8909,115.9100
23.9434,116.3035
24.0340,116.6900
24.1620,117.0658
24.3259,117.4274
24.5244,117.7712
24.5262,117.7737
24.5262,117.7737
24.6264,117.9135
24.7555,118.0940
25.0170,118.3927
25.0193,118.3948
25.3042,118.6623
25.3042,118.6623
25.3064,118.6644
25.3089,118.6663
25.3089,118.6663
25.6185,118.9048
25.6210,118.9067
25.6236,118.9083
25.6236,118.9083
25.8050,119.0216
25.9576,119.1170
26.3132,119.2935
26.6843,119.4345
27.0674,119.5386
27.0705,119.5391
27.0705,119.5391
27.4558,119.6043
27.4558,119.6043
27.4589,119.6048
27.4619,119.6050
27.4620,119.6050
27.8518,119.6323
27.8518,119.6323
27.8549,119.6325
28.1112,119.6253
28.2487,119.6215
28.2487,119.6215
28.2517,119.6214
28.2548,119.6210
28.2548,119.6210
28.4433,119.5972
28.6456,119.5717
28.6486,119.5710
28.6486,119.5710
29.0297,119.4844
29.0297,119.4844
29.0327,119.4837
29.1806,119.4345
29.4065,119.3594
29.4065,119.3594
29.4094,119.3584
29.5526,119.2946
29.7693,119.1982
29.7693,119.1982
29.7721,119.1969
29.9127,119.1170
30.1146,119.0024
30.1146,119.0024
30.1173,119.0008
30.4417,118.7720
30.7422,118.5126
30.7443,118.5104
30.7443,118.5104
31.0139,118.2273
31.0160,118.2251
31.0492,118.1825
31.2585,117.9147
31.2585,117.9147
31.2604,117.9123
31.2620,117.9097
31.2620,117.9097
31.4714,117.5797
31.4715,117.5797
31.4731,117.5771
31.4994,117.5250
31.5580,117.4089
31.6521,117.2227
31.6532,117.2199
31.6532,117.2199
31.7945,116.8555
31.7945,116.8555
31.7957,116.8526
31.9024,116.4702
31.9714,116.0793
32.0018,115.6835
32.0034,115.5700
32.0008,115.5164
31.9842,115.1766
31.9840,115.1735
31.9752,115.1140
31.9265,114.7838
31.9265,114.7838
31.9260,114.7807
31.8300,114.3956
31.8117,114.3443
31.6978,114.0245
31.6968,114.0216
31.5278,113.6624
31.4980,113.6124
31.3261,113.3240
31.3245,113.3214
31.0889,113.0018
30.8233,112.7068
30.5301,112.4391
30.2122,112.2013
30.1634,112.1717
29.8753,111.9972
29.8753,111.9972
29.8726,111.9956
29.5146,111.8241
29.4552,111.8025
29.1445,111.6894
29.1445,111.6894
29.1416,111.6883
28.9347,111.6352
28.7600,111.5904
28.7600,111.5904
28.7571,111.5896
28.3647,111.5289
28.3617,111.5287
28.3617,111.5287
28.3329,111.5271
27.9684,111.5067
27.9653,111.5068
27.9653,111.5068
27.7070,111.5177
27.5717,111.5233
27.5687,111.5238
27.5687,111.5238
27.5290,111.5293
27.1786,111.5786
26.7927,111.6719
26.4178,111.8025
26.3710,111.8241
26.0602,111.9677
26.0602,111.9677
26.0574,111.9690
25.7150,112.1699
25.6740,112.1997
25.3963,112.4014
25.3963,112.4014
25.3939,112.4032
25.3916,112.4053
25.3916,112.4053
25.3511,112.4412
25.0970,112.6668
25.0949,112.6691
25.0949,112.6691
24.8294,112.9558
24.8293,112.9558
24.8273,112.9581
24.8254,112.9605
24.8254,112.9606
24.7922,113.0043
24.5872,113.2743
24.5856,113.2769
24.5856,113.2769
24.3808,113.6098
24.3792,113.6124
24.2052,113.9693
24.2041,113.9721
24.2041,113.9721
24.1181,114.2033
24.0668,114.3414
23.9654,114.7252
23.9019,115.1171
23.9017,115.1201
23.9017,115.1201
23.8948,115.2310
23.8770,115.5133
3.0485,115.5133
3.0485,71.0633
23.8770,71.0633
23.8771,71.0664
23.8775,71.0775
23.8893,71.4168
23.8909,71.4600
23.9434,71.8535
24.0340,72.2400
24.1620,72.6158
24.3259,72.9774
24.5244,73.3212
24.5262,73.3237
24.5262,73.3237
24.6264,73.4635
24.7555,73.6440
25.0170,73.9427
25.0193,73.9448
25.3042,74.2123
25.3042,74.2123
25.3064,74.2144
25.3089,74.2163
25.3089,74.2163
25.6185,74.4548
25.6210,74.4567
25.6236,74.4583
25.6236,74.4583
25.8050,74.5716
25.9576,74.6670
26.3132,74.8435
26.6843,74.9845
27.0674,75.0886
27.0705,75.0891
27.0705,75.0891
27.4558,75.1543
27.4558,75.1543
27.4589,75.1548
27.4619,75.1550
27.4620,75.1550
27.8518,75.1823
27.8518,75.1823
27.8549,75.1825
28.1112,75.1753
28.2487,75.1715
28.2487,75.1715
28.2517,75.1714
28.2548,75.1710
28.2548,75.1710
28.4433,75.1472
28.6456,75.1217
28.6486,75.1210
28.6486,75.1210
29.0297,75.0344
29.0297,75.0344
29.0327,75.0337
29.1806,74.9845
29.4065,74.9094
29.4065,74.9094
29.4094,74.9084
29.5526,74.8446
29.7693,74.7482
29.7693,74.7482
29.7721,74.7469
29.9127,74.6670
30.1146,74.5524
30.1146,74.5524
30.1173,74.5508
30.4417,74.3220
30.7422,74.0626
30.7443,74.0604
30.7443,74.0604
31.0139,73.7773
31.0160,73.7751
31.0492,73.7325
31.2585,73.4647
31.2585,73.4647
31.2604,73.4623
31.2620,73.4597
31.2620,73.4597
31.4714,73.1297
31.4715,73.1297
31.4731,73.1271
31.4994,73.0750
31.5580,72.9589
31.6521,72.7727
31.6532,72.7699
31.6532,72.7699
31.7945,72.4055
31.7945,72.4055
31.7957,72.4026
31.9024,72.0202
31.9714,71.6293
32.0018,71.2335
32.0034,71.1200
32.0008,71.0664
31.9842,70.7266
31.9840,70.7235
31.9752,70.6640
31.9265,70.3338
31.9265,70.3338
31.9260,70.3307
31.8300,69.9455
31.8117,69.8943
31.6978,69.5745
31.6968,69.5716
31.5278,69.2124
31.4980,69.1624
31.3261,68.8740
31.3245,68.8714
31.0889,68.5518
30.8233,68.2568
30.5301,67.9891
30.2122,67.7513
30.1634,67.7217
29.8753,67.5472
29.8753,67.5472
29.8726,67.5456
29.5146,67.3741
29.4552,67.3525
29.1445,67.2394
29.1445,67.2394
29.1416,67.2383
28.9347,67.1852
28.7600,67.1404
28.7600,67.1404
28.7571,67.1396
28.3647,67.0789
28.3617,67.0787
28.3617,67.0787
28.3329,67.0771
27.9684,67.0567
27.9653,67.0568
27.9653,67.0568
27.7070,67.0677
27.5717,67.0733
27.5687,67.0738
27.5687,67.0738
27.5290,67.0793
27.1786,67.1286
26.7927,67.2219
26.4178,67.3525
26.3710,67.3741
26.0602,67.5177
26.0602,67.5177
26.0574,67.5190
25.7150,67.7199
25.6740,67.7497
25.3963,67.9514
25.3963,67.9514
25.3939,67.9532
25.3916,67.9553
25.3916,67.9553
25.3511,67.9912
25.0970,68.2168
25.0949,68.2191
25.0949,68.2191
24.8294,68.5058
24.8293,68.5058
24.8273,68.5081
24.8254,68.5105
24.8254,68.5106
24.7922,68.5543
24.5872,68.8243
24.5856,68.8269
24.5856,68.8269
24.3808,69.1598
24.3792,69.1624
24.2052,69.5193
24.2041,69.5221
24.2041,69.5221
24.1181,69.7533
24.0668,69.8914
23.9654,70.2752
23.9019,70.6671
23.9017,70.6701
23.9017,70.6701
23.8948,70.7810
23.8770,71.0633
3.0485,71.0633
3.0485,34.8877
27.0722,34.8877
27.0779,34.8953
27.2490,35.0002
27.2578,35.0047
27.4680,35.0917
27.4774,35.0948
27.6986,35.1479
27.7083,35.1494
27.9351,35.1673
27.9449,35.1673
28.1717,35.1494
28.1814,35.1479
28.4026,35.0948
28.4120,35.0917
28.6222,35.0047
28.6310,35.0002
28.7984,34.8976
28.8079,34.8871
28.8041,34.8783
27.9528,34.0270
27.9389,34.0194
27.9370,34.0195
27.9304,34.0238
27.0789,34.8753
27.0722,34.8877
3.0485,34.8877
3.0485,33.6599
26.4277,33.6599
26.4456,33.8867
26.4471,33.8964
26.5002,34.1176
26.5033,34.1270
26.5903,34.3372
26.5948,34.3460
26.6974,34.5134
26.7079,34.5229
26.7167,34.5191
27.5680,33.6678
27.5744,33.6561
28.3044,33.6561
28.3045,33.6580
28.3088,33.6646
29.1603,34.5161
29.1727,34.5228
29.1803,34.5171
29.2852,34.3460
29.2897,34.3372
29.3767,34.1270
29.3798,34.1176
29.4329,33.8964
29.4344,33.8867
29.4523,33.6599
29.4523,33.6501
29.4344,33.4233
29.4329,33.4136
29.3798,33.1924
29.3767,33.1830
29.2897,32.9728
29.2852,32.9640
29.1826,32.7966
29.1721,32.7871
29.1633,32.7909
28.3120,33.6422
28.3044,33.6561
27.5744,33.6561
27.5756,33.6539
27.5755,33.6520
27.5712,33.6454
26.7197,32.7939
26.7073,32.7872
26.6997,32.7929
26.5948,32.9640
26.5903,32.9728
26.5033,33.1830
26.5002,33.1924
26.4471,33.4136
26.4456,33.4233
26.4277,33.6501
26.4277,33.6599
3.0485,33.6599
3.0485,32.4229
27.0721,32.4229
27.0759,32.4317
27.9272,33.2830
27.9411,33.2906
27.9430,33.2905
27.9496,33.2862
28.8011,32.4347
28.8078,32.4223
28.8021,32.4147
28.6310,32.3098
28.6222,32.3053
28.4120,32.2183
28.4026,32.2152
28.1814,32.1621
28.1717,32.1606
27.9449,32.1427
27.9351,32.1427
27.7083,32.1606
27.6986,32.1621
27.4774,32.2152
27.4680,32.2183
27.2578,32.3053
27.2490,32.3098
27.0816,32.4124
27.0721,32.4229
3.0485,32.4229
3.0485,26.6133
23.8770,26.6133
23.8771,26.6164
23.8775,26.6275
23.8893,26.9668
23.8909,27.0100
23.9434,27.4035
24.0340,27.7900
24.1620,28.1658
24.3259,28.5274
24.5244,28.8712
24.5262,28.8737
24.5262,28.8737
24.6264,29.0135
24.7555,29.1940
25.0170,29.4927
25.0193,29.4948
25.3042,29.7623
25.3042,29.7623
25.3064,29.7644
25.3089,29.7663
25.3089,29.7663
25.6185,30.0048
25.6210,30.0067
25.6236,30.0083
25.6236,30.0083
25.8050,30.1216
25.9576,30.2170
26.3132,30.3935
26.6843,30.5345
27.0674,30.6386
27.0705,30.6391
27.0705,30.6391
27.4558,30.7043
27.4558,30.7043
27.4589,30.7048
27.4619,30.7050
27.4620,30.7050
27.8518,30.7323
27.8518,30.7323
27.8549,30.7325
28.1112,30.7253
28.2487,30.7215
28.2487,30.7215
28.2517,30.7214
28.2548,30.7210
28.2548,30.7210
28.4433,30.6972
28.6456,30.6717
28.6486,30.6710
28.6486,30.6710
29.0297,30.5844
29.0297,30.5844
29.0327,30.5837
29.1806,30.5345
29.4065,30.4594
29.4065,30.4594
29.4094,30.4584
29.5526,30.3946
29.7693,30.2982
29.7693,30.2982
29.7721,30.2969
29.9127,30.2170
30.1146,30.1024
30.1146,30.1024
30.1173,30.1008
30.4417,29.8720
30.7422,29.6126
30.7443,29.6104
30.7443,29.6104
31.0139,29.3273
31.0160,29.3251
31.0492,29.2825
31.2585,29.0147
31.2585,29.0147
31.2604,29.0123
31.2620,29.0097
31.2620,29.0097
31.4714,28.6797
31.4715,28.6797
31.4731,28.6771
31.4994,28.6250
31.5580,28.5089
31.6521,28.3227
31.6532,28.3199
31.6532,28.3199
31.7945,27.9555
31.7945,27.9555
31.7957,27.9526
31.9024,27.5702
31.9714,27.1793
32.0018,26.7835
32.0034,26.6700
32.0008,26.6164
31.9842,26.2766
31.9840,26.2735
31.9752,26.2140
31.9265,25.8838
31.9265,25.8838
31.9260,25.8807
31.8300,25.4955
31.8117,25.4443
31.6978,25.1245
31.6968,25.1216
31.5278,24.7624
31.4980,24.7124
31.3261,24.4240
31.3245,24.4214
31.0889,24.1018
30.8233,23.8068
30.5301,23.5391
30.2122,23.3013
30.1634,23.2717
29.8753,23.0972
29.8753,23.0972
29.8726,23.0956
29.5146,22.9241
29.4552,22.9025
29.1445,22.7894
29.1445,22.7894
29.1416,22.7883
28.9347,22.7352
28.7600,22.6904
28.7600,22.6904
28.7571,22.6896
28.3647,22.6289
28.3617,22.6287
28.3617,22.6287
28.3329,22.6271
27.9684,22.6067
27.9653,22.6068
27.9653,22.6068
27.7070,22.6177
27.5717,22.6233
27.5687,22.6238
27.5687,22.6238
27.5290,22.6293
27.1786,22.6786
26.7927,22.7719
26.4178,22.9025
26.3710,22.9241
26.0602,23.0677
26.0602,23.0677
26.0574,23.0690
25.7150,23.2699
25.6740,23.2997
25.3963,23.5014
25.3963,23.5014
25.3939,23.5032
25.3916,23.5053
25.3916,23.5053
25.3511,23.5412
25.0970,23.7668
25.0949,23.7691
25.0949,23.7691
24.8294,24.0558
24.8293,24.0558
24.8273,24.0581
24.8254,24.0605
24.8254,24.0606
24.7922,24.1043
24.5872,24.3743
24.5856,24.3769
24.5856,24.3769
24.3808,24.7098
24.3792,24.7124
24.2052,25.0693
24.2041,25.0721
24.2041,25.0721
24.1181,25.3033
24.0668,25.4414
23.9654,25.8252
23.9019,26.2171
23.9017,26.2201
23.9017,26.2201
23.8948,26.3310
23.8770,26.6133
3.0485,26.6133
3.0485,7.6732
3.0502,7.6523
3.0528,7.6373
3.0528,7.6373
3.0536,7.6326
3.0537,7.6200
3.0530,7.6152
3.0530,7.6152
3.0514,7.6036
3.0502,7.5803
3.0657,7.2271
3.0666,7.2161
3.1172,6.8316
3.1191,6.8208
3.2031,6.4422
3.2059,6.4316
3.3225,6.0617
3.3263,6.0514
3.4747,5.6931
3.4794,5.6831
3.6584,5.3391
3.6639,5.3296
3.8723,5.0025
3.8786,4.9935
4.1147,4.6859
4.1217,4.6774
4.3837,4.3915
4.3915,4.3837
4.6774,4.1217
4.6859,4.1147
4.9935,3.8786
5.0025,3.8723
5.3296,3.6639
5.3391,3.6584
5.6831,3.4794
5.6931,3.4747
6.0514,3.3263
6.0617,3.3225
6.2613,3.2596
6.4316,3.2059
6.4422,3.2031
6.8208,3.1191
6.8316,3.1172
7.2161,3.0666
7.2271,3.0657
7.5766,3.0504
7.6014,3.0518
7.6137,3.0537
7.6226,3.0525
7.6226,3.0525
7.6414,3.0501
7.6453,3.0496
7.6616,3.0485
48.2106,3.0485
Z" /> 
</g>
</g>
</g>
<g style="fill:#FFFFFF; fill-opacity:1.0000; 
stroke:#FFFFFF; stroke-width:0.0000; stroke-opacity:1; 
stroke-linecap:round; stroke-linejoin:round;">
<circle cx="27.9400" cy="33.6550" r="0.5000" /> 
</g>
<g style="fill:#FFFFFF; fill-opacity:1.0000; 
stroke:#FFFFFF; stroke-width:0.0212; stroke-opacity:1; 
stroke-linecap:round; stroke-linejoin:round;">
</g>
<g style="fill:#000000; fill-opacity:1.0000; 
stroke:#000000; stroke-width:0.0212; stroke-opacity:1; 
stroke-linecap:round; stroke-linejoin:round;">
</g>
<g style="fill:#C2C2C2; fill-opacity:1.0000; 
stroke:#C2C2C2; stroke-width:0.0212; stroke-opacity:1; 
stroke-linecap:round; stroke-linejoin:round;">
</g>
<g style="fill:#C2C2C2; fill-opacity:1.0000; 
stroke:#C2C2C2; stroke-width:0.5000; stroke-opacity:1; 
stroke-linecap:round; stroke-linejoin:round;">
</g>
<g style="fill:#C2C2C2; fill-opacity:0.0; 
stroke:#C2C2C2; stroke-width:0.5000; stroke-opacity:1; 
stroke-linecap:round; stroke-linejoin:round;">
<path d="M27.9400 26.6700
L27.9400 12.7000
" />
<path d="M27.9400 26.6700
L34.9250 14.5716
" />
<path d="M27.9400 115.5700
L40.0384 122.5550
" />
<path d="M27.9400 115.5700
L13.9700 115.5700
" />
<path d="M27.9400 115.5700
L40.0384 108.5850
" />
<path d="M27.9400 160.0200
L40.0384 153.0350
" />
<path d="M27.9400 160.0200
L40.0384 167.0050
" />
<path d="M27.9400 71.1200
L15.8416 64.1350
" />
<path d="M27.9400 71.1200
L40.0384 64.1350
" />
<path d="M27.9400 160.0200
L27.9400 146.0500
" />
</g>
<g style="fill:#C2C2C2; fill-opacity:0.0; 
stroke:#C2C2C2; stroke-width:1.2700; stroke-opacity:1; 
stroke-linecap:round; stroke-linejoin:round;">
<path d="M7.6200 3.1750
L48.2600 3.1750
" />
</g>
<g style="fill:#C2C2C2; fill-opacity:0.0; 
stroke:#C2C2C2; stroke-width:0.5000; stroke-opacity:1; 
stroke-linecap:round; stroke-linejoin:round;">
<path d="M27.9400 26.6700
L41.9100 26.6700
" />
<path d="M27.9400 71.1200
L27.9400 57.1500
" />
<path d="M27.9400 115.5700
L41.9100 115.5700
" />
<path d="M6.3500 60.9600
L6.3500 187.3250
" />
<path d="M27.9400 26.6700
L20.9550 38.7684
" />
<path d="M27.9400 71.1200
L20.9550 83.2184
" />
<path d="M27.9400 160.0200
L13.9700 160.0200
" />
<path d="M27.9400 71.1200
L15.8416 78.1050
" />
<path d="M27.9400 160.0200
L34.9250 147.9216
" />
<path d="M27.9400 71.1200
L20.9550 59.0216
" />
</g>
<g style="fill:#C2C2C2; fill-opacity:0.0; 
stroke:#C2C2C2; stroke-width:1.2700; stroke-opacity:1; 
stroke-linecap:round; stroke-linejoin:round;">
<path d="M48.2600 241.9350 A4.4450 4.4450 0.0 0 0 52.7050 237.4900" />
</g>
<g style="fill:#C2C2C2; fill-opacity:0.0; 
stroke:#C2C2C2; stroke-width:0.5000; stroke-opacity:1; 
stroke-linecap:round; stroke-linejoin:round;">
<path d="M27.9400 160.0200
L20.9550 147.9216
" />
<path d="M27.9400 115.5700
L34.9250 103.4716
" />
<path d="M11.4300 192.4050
L44.4500 192.4050
" />
<path d="M27.9400 26.6700
L34.9250 38.7684
" />
<path d="M27.9400 160.0200
L34.9250 172.1184
" />
<path d="M27.9400 160.0200
L20.9550 172.1184
" />
<path d="M27.9400 26.6700
L15.8416 19.6850
" />
<path d="M27.9400 115.5700
L15.8416 108.5850
" />
<path d="M27.9400 71.1200
L34.9250 83.2184
" />
<path d="M44.4500 192.4050 A5.0800 5.0800 0.0 0 0 49.5300 187.3250" />
<path d="M27.9400 160.0200
L41.9100 160.0200
" />
</g>
<g style="fill:#C2C2C2; fill-opacity:0.0; 
stroke:#C2C2C2; stroke-width:1.2700; stroke-opacity:1; 
stroke-linecap:round; stroke-linejoin:round;">
<path d="M3.1750 237.4900
L3.1750 7.6200
" />
<path d="M7.6200 241.9350
L48.2600 241.9350
" />
</g>
<g style="fill:#C2C2C2; fill-opacity:0.0; 
stroke:#C2C2C2; stroke-width:0.5000; stroke-opacity:1; 
stroke-linecap:round; stroke-linejoin:round;">
<path d="M27.9400 26.6700
L20.9550 14.5716
" />
<path d="M27.9400 26.6700
L40.0384 19.6850
" />
<path d="M27.9400 26.6700
L13.9700 26.6700
" />
<path d="M49.5300 187.3250
L49.5300 60.9600
" />
<path d="M11.4300 55.8800 A5.0800 5.0800 0.0 0 0 6.3500 60.9600" />
</g>
<g style="fill:#C2C2C2; fill-opacity:0.0; 
stroke:#C2C2C2; stroke-width:1.2700; stroke-opacity:1; 
stroke-linecap:round; stroke-linejoin:round;">
<path d="M52.7050 7.6200 A4.4450 4.4450 0.0 0 0 48.2600 3.1750" />
</g>
<g style="fill:#C2C2C2; fill-opacity:0.0; 
stroke:#C2C2C2; stroke-width:0.5000; stroke-opacity:1; 
stroke-linecap:round; stroke-linejoin:round;">
<path d="M27.9400 71.1200
L34.9250 59.0216
" />
<path d="M27.9400 115.5700
L15.8416 122.5550
" />
<path d="M27.9400 115.5700
L34.9250 127.6684
" />
<path d="M27.9400 115.5700
L20.9550 127.6684
" />
<path d="M27.9400 71.1200
L41.9100 71.1200
" />
<path d="M27.9400 71.1200
L13.9700 71.1200
" />
<path d="M27.9400 115.5700
L27.9400 101.6000
" />
<path d="M11.4300 55.8800
L44.4500 55.8800
" />
<path d="M6.3500 187.3250 A5.0800 5.0800 0.0 0 0 11.4300 192.4050" />
</g>
<g style="fill:#C2C2C2; fill-opacity:0.0; 
stroke:#C2C2C2; stroke-width:1.2700; stroke-opacity:1; 
stroke-linecap:round; stroke-linejoin:round;">
<path d="M7.6200 3.1750 A4.4450 4.4450 0.0 0 0 3.1750 7.6200" />
</g>
<g style="fill:#C2C2C2; fill-opacity:0.0; 
stroke:#C2C2C2; stroke-width:0.5000; stroke-opacity:1; 
stroke-linecap:round; stroke-linejoin:round;">
<path d="M27.9400 26.6700
L40.0384 33.6550
" />
<path d="M27.9400 71.1200
L40.0384 78.1050
" />
<path d="M27.9400 115.5700
L20.9550 103.4716
" />
<path d="M27.9400 160.0200
L15.8416 153.0350
" />
<path d="M27.9400 160.0200
L15.8416 167.0050
" />
</g>
<g style="fill:#C2C2C2; fill-opacity:0.0; 
stroke:#C2C2C2; stroke-width:1.2700; stroke-opacity:1; 
stroke-linecap:round; stroke-linejoin:round;">
<path d="M52.7050 237.4900
L52.7050 7.6200
" />
</g>
<g style="fill:#C2C2C2; fill-opacity:0.0; 
stroke:#C2C2C2; stroke-width:0.5000; stroke-opacity:1; 
stroke-linecap:round; stroke-linejoin:round;">
<path d="M49.5300 60.9600 A5.0800 5.0800 0.0 0 0 44.4500 55.8800" />
<path d="M27.9400 26.6700
L15.8416 33.6550
" />
</g>
<g style="fill:#C2C2C2; fill-opacity:0.0; 
stroke:#C2C2C2; stroke-width:1.2700; stroke-opacity:1; 
stroke-linecap:round; stroke-linejoin:round;">
<path d="M3.1750 237.4900 A4.4450 4.4450 0.0 0 0 7.6200 241.9350" />
</g>
<g style="fill:#C2C2C2; fill-opacity:0.0; 
stroke:#C2C2C2; stroke-width:0.4000; stroke-opacity:1; 
stroke-linecap:round; stroke-linejoin:round;">
<text x="27.9400" y="87.6100"
textLength="7.7619" font-size="3.3333" lengthAdjust="spacingAndGlyphs"
text-anchor="middle" opacity="0">VCO</text>
<g class="stroked-text"><desc>VCO</desc>
<path d="M24.5471 85.0165
L25.3805 87.5165
" />
<path d="M25.3805 87.5165
L26.2138 85.0165
" />
<path d="M28.4757 87.2785
L28.3567 87.3975
" />
<path d="M28.3567 87.3975
L27.9995 87.5165
" />
<path d="M27.9995 87.5165
L27.7614 87.5165
" />
<path d="M27.7614 87.5165
L27.4043 87.3975
" />
<path d="M27.4043 87.3975
L27.1662 87.1594
" />
<path d="M27.1662 87.1594
L27.0471 86.9213
" />
<path d="M27.0471 86.9213
L26.9281 86.4451
" />
<path d="M26.9281 86.4451
L26.9281 86.0880
" />
<path d="M26.9281 86.0880
L27.0471 85.6118
" />
<path d="M27.0471 85.6118
L27.1662 85.3737
" />
<path d="M27.1662 85.3737
L27.4043 85.1356
" />
<path d="M27.4043 85.1356
L27.7614 85.0165
" />
<path d="M27.7614 85.0165
L27.9995 85.0165
" />
<path d="M27.9995 85.0165
L28.3567 85.1356
" />
<path d="M28.3567 85.1356
L28.4757 85.2546
" />
<path d="M30.0233 85.0165
L30.4995 85.0165
" />
<path d="M30.4995 85.0165
L30.7376 85.1356
" />
<path d="M30.7376 85.1356
L30.9757 85.3737
" />
<path d="M30.9757 85.3737
L31.0948 85.8499
" />
<path d="M31.0948 85.8499
L31.0948 86.6832
" />
<path d="M31.0948 86.6832
L30.9757 87.1594
" />
<path d="M30.9757 87.1594
L30.7376 87.3975
" />
<path d="M30.7376 87.3975
L30.4995 87.5165
" />
<path d="M30.4995 87.5165
L30.0233 87.5165
" />
<path d="M30.0233 87.5165
L29.7852 87.3975
" />
<path d="M29.7852 87.3975
L29.5471 87.1594
" />
<path d="M29.5471 87.1594
L29.4281 86.6832
" />
<path d="M29.4281 86.6832
L29.4281 85.8499
" />
<path d="M29.4281 85.8499
L29.5471 85.3737
" />
<path d="M29.5471 85.3737
L29.7852 85.1356
" />
<path d="M29.7852 85.1356
L30.0233 85.0165
" />
</g><text x="27.9400" y="43.1600"
textLength="10.9762" font-size="3.3333" lengthAdjust="spacingAndGlyphs"
text-anchor="middle" opacity="0">GLIDE</text>
<g class="stroked-text"><desc>GLIDE</desc>
<path d="M24.6067 40.6856
L24.3686 40.5665
" />
<path d="M24.3686 40.5665
L24.0114 40.5665
" />
<path d="M24.0114 40.5665
L23.6543 40.6856
" />
<path d="M23.6543 40.6856
L23.4162 40.9237
" />
<path d="M23.4162 40.9237
L23.2971 41.1618
" />
<path d="M23.2971 41.1618
L23.1781 41.6380
" />
<path d="M23.1781 41.6380
L23.1781 41.9951
" />
<path d="M23.1781 41.9951
L23.2971 42.4713
" />
<path d="M23.2971 42.4713
L23.4162 42.7094
" />
<path d="M23.4162 42.7094
L23.6543 42.9475
" />
<path d="M23.6543 42.9475
L24.0114 43.0665
" />
<path d="M24.0114 43.0665
L24.2495 43.0665
" />
<path d="M24.2495 43.0665
L24.6067 42.9475
" />
<path d="M24.6067 42.9475
L24.7257 42.8285
" />
<path d="M24.7257 42.8285
L24.7257 41.9951
" />
<path d="M24.7257 41.9951
L24.2495 41.9951
" />
<path d="M26.9876 43.0665
L25.7971 43.0665
" />
<path d="M25.7971 43.0665
L25.7971 40.5665
" />
<path d="M27.8210 43.0665
L27.8210 40.5665
" />
<path d="M29.0114 43.0665
L29.0114 40.5665
" />
<path d="M29.0114 40.5665
L29.6067 40.5665
" />
<path d="M29.6067 40.5665
L29.9638 40.6856
" />
<path d="M29.9638 40.6856
L30.2019 40.9237
" />
<path d="M30.2019 40.9237
L30.3210 41.1618
" />
<path d="M30.3210 41.1618
L30.4400 41.6380
" />
<path d="M30.4400 41.6380
L30.4400 41.9951
" />
<path d="M30.4400 41.9951
L30.3210 42.4713
" />
<path d="M30.3210 42.4713
L30.2019 42.7094
" />
<path d="M30.2019 42.7094
L29.9638 42.9475
" />
<path d="M29.9638 42.9475
L29.6067 43.0665
" />
<path d="M29.6067 43.0665
L29.0114 43.0665
" />
<path d="M31.5114 41.7570
L32.3448 41.7570
" />
<path d="M32.7019 43.0665
L31.5114 43.0665
" />
<path d="M31.5114 43.0665
L31.5114 40.5665
" />
<path d="M31.5114 40.5665
L32.7019 40.5665
" />
</g></g>
<g style="fill:#C2C2C2; fill-opacity:0.0; 
stroke:#C2C2C2; stroke-width:0.3500; stroke-opacity:1; 
stroke-linecap:round; stroke-linejoin:round;">
<text x="14.6050" y="211.0600"
textLength="8.1083" font-size="2.3333" lengthAdjust="spacingAndGlyphs"
text-anchor="start" opacity="0">WHITE</text>
<g class="stroked-text"><desc>WHITE</desc>
<path d="M14.8550 209.2446
L15.2717 210.9946
" />
<path d="M15.2717 210.9946
L15.6050 209.7446
" />
<path d="M15.6050 209.7446
L15.9383 210.9946
" />
<path d="M15.9383 210.9946
L16.3550 209.2446
" />
<path d="M17.0217 210.9946
L17.0217 209.2446
" />
<path d="M17.0217 210.0779
L18.0217 210.0779
" />
<path d="M18.0217 210.9946
L18.0217 209.2446
" />
<path d="M18.8550 210.9946
L18.8550 209.2446
" />
<path d="M19.4383 209.2446
L20.4383 209.2446
" />
<path d="M19.9383 210.9946
L19.9383 209.2446
" />
<path d="M21.0217 210.0779
L21.6050 210.0779
" />
<path d="M21.8550 210.9946
L21.0217 210.9946
" />
<path d="M21.0217 210.9946
L21.0217 209.2446
" />
<path d="M21.0217 209.2446
L21.8550 209.2446
" />
</g></g>
<g style="fill:#C2C2C2; fill-opacity:0.0; 
stroke:#C2C2C2; stroke-width:0.4000; stroke-opacity:1; 
stroke-linecap:round; stroke-linejoin:round;">
<text x="27.9400" y="176.5100"
textLength="11.5714" font-size="3.3333" lengthAdjust="spacingAndGlyphs"
text-anchor="middle" opacity="0">NOISE</text>
<g class="stroked-text"><desc>NOISE</desc>
<path d="M22.9995 176.4165
L22.9995 173.9165
" />
<path d="M22.9995 173.9165
L24.4281 176.4165
" />
<path d="M24.4281 176.4165
L24.4281 173.9165
" />
<path d="M26.0948 173.9165
L26.5710 173.9165
" />
<path d="M26.5710 173.9165
L26.8090 174.0356
" />
<path d="M26.8090 174.0356
L27.0471 174.2737
" />
<path d="M27.0471 174.2737
L27.1662 174.7499
" />
<path d="M27.1662 174.7499
L27.1662 175.5832
" />
<path d="M27.1662 175.5832
L27.0471 176.0594
" />
<path d="M27.0471 176.0594
L26.8090 176.2975
" />
<path d="M26.8090 176.2975
L26.5710 176.4165
" />
<path d="M26.5710 176.4165
L26.0948 176.4165
" />
<path d="M26.0948 176.4165
L25.8567 176.2975
" />
<path d="M25.8567 176.2975
L25.6186 176.0594
" />
<path d="M25.6186 176.0594
L25.4995 175.5832
" />
<path d="M25.4995 175.5832
L25.4995 174.7499
" />
<path d="M25.4995 174.7499
L25.6186 174.2737
" />
<path d="M25.6186 174.2737
L25.8567 174.0356
" />
<path d="M25.8567 174.0356
L26.0948 173.9165
" />
<path d="M28.2376 176.4165
L28.2376 173.9165
" />
<path d="M29.3090 176.2975
L29.6662 176.4165
" />
<path d="M29.6662 176.4165
L30.2614 176.4165
" />
<path d="M30.2614 176.4165
L30.4995 176.2975
" />
<path d="M30.4995 176.2975
L30.6186 176.1785
" />
<path d="M30.6186 176.1785
L30.7376 175.9404
" />
<path d="M30.7376 175.9404
L30.7376 175.7023
" />
<path d="M30.7376 175.7023
L30.6186 175.4642
" />
<path d="M30.6186 175.4642
L30.4995 175.3451
" />
<path d="M30.4995 175.3451
L30.2614 175.2261
" />
<path d="M30.2614 175.2261
L29.7852 175.1070
" />
<path d="M29.7852 175.1070
L29.5471 174.9880
" />
<path d="M29.5471 174.9880
L29.4281 174.8689
" />
<path d="M29.4281 174.8689
L29.3090 174.6308
" />
<path d="M29.3090 174.6308
L29.3090 174.3927
" />
<path d="M29.3090 174.3927
L29.4281 174.1546
" />
<path d="M29.4281 174.1546
L29.5471 174.0356
" />
<path d="M29.5471 174.0356
L29.7852 173.9165
" />
<path d="M29.7852 173.9165
L30.3805 173.9165
" />
<path d="M30.3805 173.9165
L30.7376 174.0356
" />
<path d="M31.8090 175.1070
L32.6424 175.1070
" />
<path d="M32.9995 176.4165
L31.8090 176.4165
" />
<path d="M31.8090 176.4165
L31.8090 173.9165
" />
<path d="M31.8090 173.9165
L32.9995 173.9165
" />
</g><text x="27.9400" y="221.3450"
textLength="22.8857" font-size="2.6667" lengthAdjust="spacingAndGlyphs"
text-anchor="middle" opacity="0">NOISE SOURCE</text>
<g class="stroked-text"><desc>NOISE SOURCE</desc>
<path d="M17.2733 221.2702
L17.2733 219.2702
" />
<path d="M17.2733 219.2702
L18.4162 221.2702
" />
<path d="M18.4162 221.2702
L18.4162 219.2702
" />
<path d="M19.7495 219.2702
L20.1305 219.2702
" />
<path d="M20.1305 219.2702
L20.3210 219.3655
" />
<path d="M20.3210 219.3655
L20.5114 219.5560
" />
<path d="M20.5114 219.5560
L20.6067 219.9369
" />
<path d="M20.6067 219.9369
L20.6067 220.6036
" />
<path d="M20.6067 220.6036
L20.5114 220.9845
" />
<path d="M20.5114 220.9845
L20.3210 221.1750
" />
<path d="M20.3210 221.1750
L20.1305 221.2702
" />
<path d="M20.1305 221.2702
L19.7495 221.2702
" />
<path d="M19.7495 221.2702
L19.5590 221.1750
" />
<path d="M19.5590 221.1750
L19.3686 220.9845
" />
<path d="M19.3686 220.9845
L19.2733 220.6036
" />
<path d="M19.2733 220.6036
L19.2733 219.9369
" />
<path d="M19.2733 219.9369
L19.3686 219.5560
" />
<path d="M19.3686 219.5560
L19.5590 219.3655
" />
<path d="M19.5590 219.3655
L19.7495 219.2702
" />
<path d="M21.4638 221.2702
L21.4638 219.2702
" />
<path d="M22.3210 221.1750
L22.6067 221.2702
" />
<path d="M22.6067 221.2702
L23.0829 221.2702
" />
<path d="M23.0829 221.2702
L23.2733 221.1750
" />
<path d="M23.2733 221.1750
L23.3686 221.0798
" />
<path d="M23.3686 221.0798
L23.4638 220.8893
" />
<path d="M23.4638 220.8893
L23.4638 220.6988
" />
<path d="M23.4638 220.6988
L23.3686 220.5083
" />
<path d="M23.3686 220.5083
L23.2733 220.4131
" />
<path d="M23.2733 220.4131
L23.0829 220.3179
" />
<path d="M23.0829 220.3179
L22.7019 220.2226
" />
<path d="M22.7019 220.2226
L22.5114 220.1274
" />
<path d="M22.5114 220.1274
L22.4162 220.0321
" />
<path d="M22.4162 220.0321
L22.3210 219.8417
" />
<path d="M22.3210 219.8417
L22.3210 219.6512
" />
<path d="M22.3210 219.6512
L22.4162 219.4607
" />
<path d="M22.4162 219.4607
L22.5114 219.3655
" />
<path d="M22.5114 219.3655
L22.7019 219.2702
" />
<path d="M22.7019 219.2702
L23.1781 219.2702
" />
<path d="M23.1781 219.2702
L23.4638 219.3655
" />
<path d="M24.3210 220.2226
L24.9876 220.2226
" />
<path d="M25.2733 221.2702
L24.3210 221.2702
" />
<path d="M24.3210 221.2702
L24.3210 219.2702
" />
<path d="M24.3210 219.2702
L25.2733 219.2702
" />
<path d="M27.5590 221.1750
L27.8448 221.2702
" />
<path d="M27.8448 221.2702
L28.3210 221.2702
" />
<path d="M28.3210 221.2702
L28.5114 221.1750
" />
<path d="M28.5114 221.1750
L28.6067 221.0798
" />
<path d="M28.6067 221.0798
L28.7019 220.8893
" />
<path d="M28.7019 220.8893
L28.7019 220.6988
" />
<path d="M28.7019 220.6988
L28.6067 220.5083
" />
<path d="M28.6067 220.5083
L28.5114 220.4131
" />
<path d="M28.5114 220.4131
L28.3210 220.3179
" />
<path d="M28.3210 220.3179
L27.9400 220.2226
" />
<path d="M27.9400 220.2226
L27.7495 220.1274
" />
<path d="M27.7495 220.1274
L27.6543 220.0321
" />
<path d="M27.6543 220.0321
L27.5590 219.8417
" />
<path d="M27.5590 219.8417
L27.5590 219.6512
" />
<path d="M27.5590 219.6512
L27.6543 219.4607
" />
<path d="M27.6543 219.4607
L27.7495 219.3655
" />
<path d="M27.7495 219.3655
L27.9400 219.2702
" />
<path d="M27.9400 219.2702
L28.4162 219.2702
" />
<path d="M28.4162 219.2702
L28.7019 219.3655
" />
<path d="M29.9400 219.2702
L30.3210 219.2702
" />
<path d="M30.3210 219.2702
L30.5114 219.3655
" />
<path d="M30.5114 219.3655
L30.7019 219.5560
" />
<path d="M30.7019 219.5560
L30.7971 219.9369
" />
<path d="M30.7971 219.9369
L30.7971 220.6036
" />
<path d="M30.7971 220.6036
L30.7019 220.9845
" />
<path d="M30.7019 220.9845
L30.5114 221.1750
" />
<path d="M30.5114 221.1750
L30.3210 221.2702
" />
<path d="M30.3210 221.2702
L29.9400 221.2702
" />
<path d="M29.9400 221.2702
L29.7495 221.1750
" />
<path d="M29.7495 221.1750
L29.5590 220.9845
" />
<path d="M29.5590 220.9845
L29.4638 220.6036
" />
<path d="M29.4638 220.6036
L29.4638 219.9369
" />
<path d="M29.4638 219.9369
L29.5590 219.5560
" />
<path d="M29.5590 219.5560
L29.7495 219.3655
" />
<path d="M29.7495 219.3655
L29.9400 219.2702
" />
<path d="M31.6543 219.2702
L31.6543 220.8893
" />
<path d="M31.6543 220.8893
L31.7495 221.0798
" />
<path d="M31.7495 221.0798
L31.8448 221.1750
" />
<path d="M31.8448 221.1750
L32.0352 221.2702
" />
<path d="M32.0352 221.2702
L32.4162 221.2702
" />
<path d="M32.4162 221.2702
L32.6067 221.1750
" />
<path d="M32.6067 221.1750
L32.7019 221.0798
" />
<path d="M32.7019 221.0798
L32.7971 220.8893
" />
<path d="M32.7971 220.8893
L32.7971 219.2702
" />
<path d="M34.8924 221.2702
L34.2257 220.3179
" />
<path d="M33.7495 221.2702
L33.7495 219.2702
" />
<path d="M33.7495 219.2702
L34.5114 219.2702
" />
<path d="M34.5114 219.2702
L34.7019 219.3655
" />
<path d="M34.7019 219.3655
L34.7971 219.4607
" />
<path d="M34.7971 219.4607
L34.8924 219.6512
" />
<path d="M34.8924 219.6512
L34.8924 219.9369
" />
<path d="M34.8924 219.9369
L34.7971 220.1274
" />
<path d="M34.7971 220.1274
L34.7019 220.2226
" />
<path d="M34.7019 220.2226
L34.5114 220.3179
" />
<path d="M34.5114 220.3179
L33.7495 220.3179
" />
<path d="M36.8924 221.0798
L36.7971 221.1750
" />
<path d="M36.7971 221.1750
L36.5114 221.2702
" />
<path d="M36.5114 221.2702
L36.3210 221.2702
" />
<path d="M36.3210 221.2702
L36.0352 221.1750
" />
<path d="M36.0352 221.1750
L35.8448 220.9845
" />
<path d="M35.8448 220.9845
L35.7495 220.7940
" />
<path d="M35.7495 220.7940
L35.6543 220.4131
" />
<path d="M35.6543 220.4131
L35.6543 220.1274
" />
<path d="M35.6543 220.1274
L35.7495 219.7464
" />
<path d="M35.7495 219.7464
L35.8448 219.5560
" />
<path d="M35.8448 219.5560
L36.0352 219.3655
" />
<path d="M36.0352 219.3655
L36.3210 219.2702
" />
<path d="M36.3210 219.2702
L36.5114 219.2702
" />
<path d="M36.5114 219.2702
L36.7971 219.3655
" />
<path d="M36.7971 219.3655
L36.8924 219.4607
" />
<path d="M37.7495 220.2226
L38.4162 220.2226
" />
<path d="M38.7019 221.2702
L37.7495 221.2702
" />
<path d="M37.7495 221.2702
L37.7495 219.2702
" />
<path d="M37.7495 219.2702
L38.7019 219.2702
" />
</g></g>
<g style="fill:#C2C2C2; fill-opacity:0.0; 
stroke:#C2C2C2; stroke-width:0.3500; stroke-opacity:1; 
stroke-linecap:round; stroke-linejoin:round;">
<text x="14.6050" y="214.8700"
textLength="6.6917" font-size="2.3333" lengthAdjust="spacingAndGlyphs"
text-anchor="start" opacity="0">PINK</text>
<g class="stroked-text"><desc>PINK</desc>
<path d="M15.0217 214.8046
L15.0217 213.0546
" />
<path d="M15.0217 213.0546
L15.6883 213.0546
" />
<path d="M15.6883 213.0546
L15.8550 213.1379
" />
<path d="M15.8550 213.1379
L15.9383 213.2213
" />
<path d="M15.9383 213.2213
L16.0217 213.3879
" />
<path d="M16.0217 213.3879
L16.0217 213.6379
" />
<path d="M16.0217 213.6379
L15.9383 213.8046
" />
<path d="M15.9383 213.8046
L15.8550 213.8879
" />
<path d="M15.8550 213.8879
L15.6883 213.9713
" />
<path d="M15.6883 213.9713
L15.0217 213.9713
" />
<path d="M16.7717 214.8046
L16.7717 213.0546
" />
<path d="M17.6050 214.8046
L17.6050 213.0546
" />
<path d="M17.6050 213.0546
L18.6050 214.8046
" />
<path d="M18.6050 214.8046
L18.6050 213.0546
" />
<path d="M19.4383 214.8046
L19.4383 213.0546
" />
<path d="M20.4383 214.8046
L19.6883 213.8046
" />
<path d="M20.4383 213.0546
L19.4383 214.0546
" />
</g></g>
<g style="fill:#C2C2C2; fill-opacity:0.0; 
stroke:#C2C2C2; stroke-width:0.4000; stroke-opacity:1; 
stroke-linecap:round; stroke-linejoin:round;">
<text x="27.9400" y="132.0600"
textLength="17.4048" font-size="3.3333" lengthAdjust="spacingAndGlyphs"
text-anchor="middle" opacity="0">PWM LFO</text>
<g class="stroked-text"><desc>PWM LFO</desc>
<path d="M20.0829 131.9665
L20.0829 129.4665
" />
<path d="M20.0829 129.4665
L21.0352 129.4665
" />
<path d="M21.0352 129.4665
L21.2733 129.5856
" />
<path d="M21.2733 129.5856
L21.3924 129.7046
" />
<path d="M21.3924 129.7046
L21.5114 129.9427
" />
<path d="M21.5114 129.9427
L21.5114 130.2999
" />
<path d="M21.5114 130.2999
L21.3924 130.5380
" />
<path d="M21.3924 130.5380
L21.2733 130.6570
" />
<path d="M21.2733 130.6570
L21.0352 130.7761
" />
<path d="M21.0352 130.7761
L20.0829 130.7761
" />
<path d="M22.3448 129.4665
L22.9400 131.9665
" />
<path d="M22.9400 131.9665
L23.4162 130.1808
" />
<path d="M23.4162 130.1808
L23.8924 131.9665
" />
<path d="M23.8924 131.9665
L24.4876 129.4665
" />
<path d="M25.4400 131.9665
L25.4400 129.4665
" />
<path d="M25.4400 129.4665
L26.2733 131.2523
" />
<path d="M26.2733 131.2523
L27.1067 129.4665
" />
<path d="M27.1067 129.4665
L27.1067 131.9665
" />
<path d="M31.3924 131.9665
L30.2019 131.9665
" />
<path d="M30.2019 131.9665
L30.2019 129.4665
" />
<path d="M33.0590 130.6570
L32.2257 130.6570
" />
<path d="M32.2257 131.9665
L32.2257 129.4665
" />
<path d="M32.2257 129.4665
L33.4162 129.4665
" />
<path d="M34.8448 129.4665
L35.3210 129.4665
" />
<path d="M35.3210 129.4665
L35.5590 129.5856
" />
<path d="M35.5590 129.5856
L35.7971 129.8237
" />
<path d="M35.7971 129.8237
L35.9162 130.2999
" />
<path d="M35.9162 130.2999
L35.9162 131.1332
" />
<path d="M35.9162 131.1332
L35.7971 131.6094
" />
<path d="M35.7971 131.6094
L35.5590 131.8475
" />
<path d="M35.5590 131.8475
L35.3210 131.9665
" />
<path d="M35.3210 131.9665
L34.8448 131.9665
" />
<path d="M34.8448 131.9665
L34.6067 131.8475
" />
<path d="M34.6067 131.8475
L34.3686 131.6094
" />
<path d="M34.3686 131.6094
L34.2495 131.1332
" />
<path d="M34.2495 131.1332
L34.2495 130.2999
" />
<path d="M34.2495 130.2999
L34.3686 129.8237
" />
<path d="M34.3686 129.8237
L34.6067 129.5856
" />
<path d="M34.6067 129.5856
L34.8448 129.4665
" />
</g></g>
<g style="fill:#C2C2C2; fill-opacity:0.0; 
stroke:#C2C2C2; stroke-width:0.1500; stroke-opacity:1; 
stroke-linecap:round; stroke-linejoin:round;">
<circle cx="27.9400" cy="33.6550" r="1.4000" /> 
</g>
<g style="fill:#C2C2C2; fill-opacity:1.0000; 
stroke:#C2C2C2; stroke-width:0.0000; stroke-opacity:1; 
stroke-linecap:round; stroke-linejoin:round;">
<path style="fill:#C2C2C2; fill-opacity:1.0000; 
stroke:#C2C2C2; stroke-width:0.0000; stroke-opacity:1; 
stroke-linecap:round; stroke-linejoin:round;fill-rule:evenodd;"
d="M 15.0773,6.3298
15.1865,6.6746
15.0380,7.1680
14.6102,7.5827
14.3919,7.1767
14.3133,6.7881
14.4443,6.3603
14.7935,6.2119
Z" /> 
<path style="fill:#C2C2C2; fill-opacity:1.0000; 
stroke:#C2C2C2; stroke-width:0.0000; stroke-opacity:1; 
stroke-linecap:round; stroke-linejoin:round;fill-rule:evenodd;"
d="M 14.6124,8.9906
14.8721,9.2766
15.1297,9.5691
15.3785,9.8703
15.0031,10.1410
14.6015,10.2195
14.0820,10.0012
13.9292,9.4861
14.0470,9.0277
14.3570,8.7090
Z" /> 
<path style="fill:#C2C2C2; fill-opacity:1.0000; 
stroke:#C2C2C2; stroke-width:0.0000; stroke-opacity:1; 
stroke-linecap:round; stroke-linejoin:round;fill-rule:evenodd;"
d="M 8.8126,4.9222
21.1674,4.9222
21.6800,4.9222
22.3302,4.9862
22.9554,5.1759
23.5316,5.4839
24.0367,5.8983
24.4511,6.4034
24.7591,6.9796
24.9488,7.6048
25.0128,8.2550
24.9488,8.9052
24.7591,9.5304
24.4511,10.1066
24.0367,10.6117
23.5316,11.0261
22.9554,11.3341
22.3302,11.5238
21.6800,11.5878
21.1674,11.5878
8.8126,11.5878
8.3000,11.5878
7.6498,11.5238
7.0246,11.3341
6.4484,11.0261
6.0081,10.6648
8.8126,10.6648
9.4151,10.9311
9.8844,11.0392
10.4890,11.0752
11.1017,11.0291
11.6008,10.8909
11.9865,10.6605
12.3564,10.1595
12.4702,9.5385
13.0124,9.5385
13.1084,10.1060
13.4009,10.5819
13.8899,10.9093
14.5753,11.0315
15.1952,10.8962
15.5051,10.7292
15.8064,10.4989
16.0159,10.9617
17.0375,10.9617
17.5875,10.9617
18.6615,10.9617
18.6615,8.5781
20.0934,8.5781
20.0934,10.9617
21.1674,10.9617
21.1674,5.5570
20.0934,5.5570
20.0934,7.6875
18.6615,7.6875
18.6615,5.5570
17.5875,5.5570
17.5875,10.9617
17.0375,10.9617
16.7843,10.3505
16.4088,9.7568
16.5758,9.3966
16.7101,8.9972
16.8006,8.5606
16.8367,8.0891
15.9461,7.9756
15.9090,8.5453
15.8151,9.0321
15.4222,8.5868
15.0555,8.1590
15.5248,7.8501
15.8500,7.4823
16.0399,7.0796
16.1032,6.6659
15.9897,6.1289
15.6929,5.7448
15.2738,5.5134
14.7935,5.4348
14.2828,5.5221
13.8331,5.7841
13.5101,6.2250
13.3878,6.8405
13.5232,7.4954
13.8680,8.0978
13.4937,8.3892
13.2263,8.7396
13.0659,9.1292
13.0124,9.5385
12.4702,9.5385
12.4798,9.4861
12.4427,9.0790
12.3313,8.7483
11.9515,8.2594
11.4451,7.9450
10.9169,7.7311
10.5807,7.6002
10.2751,7.4386
10.0525,7.2291
9.9652,6.9540
10.0602,6.6096
10.3455,6.4030
10.8208,6.3341
11.4364,6.4214
11.9210,6.6310
12.2353,5.8015
11.6110,5.5483
11.2083,5.4632
10.7422,5.4348
10.2072,5.4823
9.7546,5.6250
9.3845,5.8626
9.0146,6.3734
8.8912,7.0501
9.0309,7.6918
9.3845,8.1240
9.8604,8.4122
10.3668,8.6130
10.7335,8.7658
11.0653,8.9491
11.3098,9.1805
11.4058,9.4774
11.3665,9.7349
11.2225,9.9620
10.9387,10.1191
10.4890,10.1759
10.0536,10.1453
9.6901,10.0536
9.1270,9.7917
8.8126,10.6648
6.0081,10.6648
5.9433,10.6117
5.5289,10.1066
5.2209,9.5304
5.0312,8.9052
4.9672,8.2550
5.0312,7.6048
5.2209,6.9796
5.5289,6.4034
5.9433,5.8983
6.4484,5.4839
7.0246,5.1759
7.6498,4.9862
8.3000,4.9222
Z" /> 
<path style="fill:#C2C2C2; fill-opacity:1.0000; 
stroke:#C2C2C2; stroke-width:0.0000; stroke-opacity:1; 
stroke-linecap:round; stroke-linejoin:round;fill-rule:evenodd;"
d="M 34.3043,187.3234
34.5249,187.4330
34.6678,187.6203
34.7154,187.8902
34.5376,188.3315
34.3043,188.4482
33.9598,188.4870
33.7884,188.4870
33.7884,187.3059
33.9153,187.2901
34.0233,187.2869
Z" /> 
<path style="fill:#C2C2C2; fill-opacity:1.0000; 
stroke:#C2C2C2; stroke-width:0.0000; stroke-opacity:1; 
stroke-linecap:round; stroke-linejoin:round;fill-rule:evenodd;"
d="M 20.1105,186.0948
35.7695,186.0948
36.2822,186.0948
36.7699,186.1429
37.2390,186.2851
37.6712,186.5162
38.0501,186.8271
38.3610,187.2060
38.5920,187.6382
38.7343,188.1072
38.7824,188.5950
38.7343,189.0828
38.5920,189.5518
38.3610,189.9840
38.0501,190.3629
37.6712,190.6738
37.2390,190.9049
36.7699,191.0471
36.2822,191.0952
35.7695,191.0952
20.1105,191.0952
19.5978,191.0952
19.1101,191.0471
18.6410,190.9049
18.2088,190.6738
18.0976,190.5825
20.1105,190.5825
20.8280,190.5825
20.7963,187.5282
21.2598,189.1919
21.8313,189.1919
22.3139,187.5282
22.2758,190.5825
22.9933,190.5825
23.4823,190.5825
25.9779,190.5825
26.3842,190.5825
27.2288,190.5825
27.3748,190.2389
27.5463,189.8555
27.7304,189.4594
27.9146,189.0776
28.1011,189.4713
28.2797,189.8650
28.4409,190.2412
28.5750,190.5825
29.4195,190.5825
29.2481,190.1666
29.1314,189.9126
28.9973,189.6396
28.8488,189.3530
28.6893,189.0585
28.5226,188.7664
28.3528,188.4870
29.3560,186.6519
29.8895,186.6519
29.8895,190.5825
32.4104,190.5825
33.0073,190.5825
33.7884,190.5825
33.7884,189.1347
34.1947,189.1347
34.4099,189.4943
34.6107,189.8491
34.7924,190.2087
34.9504,190.5825
35.7695,190.5825
35.5886,190.1666
35.3695,189.7285
35.1345,189.3094
34.9059,188.9442
35.1838,188.7649
35.3695,188.5188
35.4743,188.2235
35.5092,187.8965
35.4830,187.5877
35.4044,187.3218
35.1028,186.9186
34.8869,186.7805
34.6329,186.6837
34.3440,186.6265
34.0233,186.6075
33.8010,186.6138
33.5343,186.6297
33.2581,186.6614
33.0073,186.7090
33.0073,190.5825
32.4104,190.5825
32.4104,189.9348
30.6705,189.9348
30.6705,188.8299
32.0611,188.8299
32.0611,188.1822
30.6705,188.1822
30.6705,187.2996
32.2707,187.2996
32.2707,186.6519
29.8895,186.6519
29.3560,186.6519
28.5686,186.6519
27.9146,187.9092
27.2923,186.6519
26.4477,186.6519
27.4764,188.5061
27.3209,188.7847
27.1589,189.0744
26.9978,189.3657
26.8446,189.6491
26.7018,189.9190
26.5716,190.1698
26.3842,190.5825
25.9779,190.5825
25.9779,189.9348
25.1269,189.9348
25.1269,187.2996
25.9779,187.2996
25.9779,186.6519
23.4823,186.6519
23.4823,187.2996
24.3395,187.2996
24.3395,189.9348
23.4823,189.9348
23.4823,190.5825
22.9933,190.5825
22.9791,190.0801
22.9616,189.5888
22.9402,189.1046
22.9140,188.6236
22.8822,188.1418
22.8441,187.6552
22.8021,187.1599
22.7584,186.6519
22.1107,186.6519
21.9964,186.9885
21.8567,187.4234
21.6979,187.9060
21.5392,188.3918
21.3931,187.9346
21.2407,187.4457
21.0979,186.9948
20.9868,186.6519
20.3391,186.6519
20.2970,187.0821
20.2597,187.5472
20.2271,188.0378
20.1993,188.5442
20.1747,189.0601
20.1517,189.5793
20.1303,190.0904
20.1105,190.5825
18.0976,190.5825
17.8299,190.3629
17.5190,189.9840
17.2880,189.5518
17.1457,189.0828
17.0976,188.5950
17.1457,188.1072
17.2880,187.6382
17.5190,187.2060
17.8299,186.8271
18.2088,186.5162
18.6410,186.2851
19.1101,186.1429
19.5978,186.0948
Z" /> 
<g >
</g>
<g >
</g>
<g >
</g>
<g >
</g>
<g >
</g>
<g >
</g>
</g>
<g style="fill:#FFFFFF; fill-opacity:1.0000; 
stroke:#FFFFFF; stroke-width:0.0000; stroke-opacity:1; 
stroke-linecap:round; stroke-linejoin:round;">
<circle cx="27.9400" cy="33.6550" r="0.5000" /> 
</g>
<g style="fill:#FFFFFF; fill-opacity:1.0000; 
stroke:#FFFFFF; stroke-width:0.0212; stroke-opacity:1; 
stroke-linecap:round; stroke-linejoin:round;">
</g>
<g style="fill:#000000; fill-opacity:1.0000; 
stroke:#000000; stroke-width:0.0212; stroke-opacity:1; 
stroke-linecap:round; stroke-linejoin:round;">
</g>
<g style="fill:#C2C2C2; fill-opacity:1.0000; 
stroke:#C2C2C2; stroke-width:0.0212; stroke-opacity:1; 
stroke-linecap:round; stroke-linejoin:round;">
</g>
<g style="fill:#C2C2C2; fill-opacity:0.0; 
stroke:#C2C2C2; stroke-width:0.1000; stroke-opacity:1; 
stroke-linecap:round; stroke-linejoin:round;">
<path d="M48.2600 242.5700 A5.0800 5.0800 0.0 0 0 53.3400 237.4900" />
<path d="M53.3400 237.4900
L53.3400 7.6200
" />
</g>
<g style="fill:#C2C2C2; fill-opacity:0.0; 
stroke:#C2C2C2; stroke-width:0.1500; stroke-opacity:1; 
stroke-linecap:round; stroke-linejoin:round;">
<circle cx="27.9400" cy="160.0200" r="3.5500" /> 
</g>
<g style="fill:#C2C2C2; fill-opacity:0.0; 
stroke:#C2C2C2; stroke-width:0.1000; stroke-opacity:1; 
stroke-linecap:round; stroke-linejoin:round;">
<path d="M53.3400 7.6200 A5.0800 5.0800 0.0 0 0 48.2600 2.5400" />
<path d="M2.5400 7.6200
L2.5400 237.4900
" />
<path d="M48.2600 2.5400
L7.6200 2.5400
" />
<path d="M2.5400 237.4900 A5.0800 5.0800 0.0 0 0 7.6200 242.5700" />
</g>
<g style="fill:#C2C2C2; fill-opacity:0.0; 
stroke:#C2C2C2; stroke-width:0.1500; stroke-opacity:1; 
stroke-linecap:round; stroke-linejoin:round;">
<circle cx="27.9400" cy="212.0900" r="3.1750" /> 
</g>
<g style="fill:#C2C2C2; fill-opacity:0.0; 
stroke:#C2C2C2; stroke-width:0.1000; stroke-opacity:1; 
stroke-linecap:round; stroke-linejoin:round;">
<path d="M7.6200 242.5700
L48.2600 242.5700
" />
</g>
<g style="fill:#C2C2C2; fill-opacity:0.0; 
stroke:#C2C2C2; stroke-width:0.1500; stroke-opacity:1; 
stroke-linecap:round; stroke-linejoin:round;">
<circle cx="27.9400" cy="71.1200" r="3.5500" /> 
<circle cx="27.9400" cy="26.6700" r="3.5500" /> 
<circle cx="27.9400" cy="115.5700" r="3.5500" /> 
</g>
<g style="fill:#C2C2C2; fill-opacity:0.0; 
stroke:#C2C2C2; stroke-width:0.1000; stroke-opacity:1; 
stroke-linecap:round; stroke-linejoin:round;">
<path d="M7.6200 2.5400 A5.0800 5.0800 0.0 0 0 2.5400 7.6200" />
<g >
</g>
<g >
</g>
<g >
</g>
<g >
</g>
<g >
</g>
<g >
</g>
</g> 
</svg>
