<?xml version="1.0" standalone="no"?>
 <!DOCTYPE svg PUBLIC "-//W3C//DTD SVG 1.1//EN" 
 "http://www.w3.org/Graphics/SVG/1.1/DTD/svg11.dtd"> 
<svg
  xmlns:svg="http://www.w3.org/2000/svg"
  xmlns="http://www.w3.org/2000/svg"
  xmlns:xlink="http://www.w3.org/1999/xlink"
  version="1.1"
  width="195.5800mm" height="246.3800mm" viewBox="0.0000 0.0000 195.5800 246.3800">
<title>SVG Image created as main_VCO_pcb_panel_back.svg date 2023/03/27 09:41:42 </title>
  <desc>Image generated by PCBNEW </desc>
<g style="fill:#000000; fill-opacity:1.0000;stroke:#000000; stroke-opacity:1.0000;
stroke-linecap:round; stroke-linejoin:round;"
 transform="translate(0 0) scale(1 1)">
</g>
<g style="fill:#000000; fill-opacity:0.0; 
stroke:#000000; stroke-width:0.0000; stroke-opacity:1; 
stroke-linecap:round; stroke-linejoin:round;">
</g>
<g style="fill:#C2C2C2; fill-opacity:0.0; 
stroke:#C2C2C2; stroke-width:0.0000; stroke-opacity:1; 
stroke-linecap:round; stroke-linejoin:round;">
</g>
<g style="fill:#C2C2C2; fill-opacity:0.0; 
stroke:#C2C2C2; stroke-width:0.2000; stroke-opacity:1; 
stroke-linecap:round; stroke-linejoin:round;">
<text x="97.7900" y="9.2550"
textLength="20.6714" font-size="2.6667" lengthAdjust="spacingAndGlyphs"
text-anchor="middle" opacity="0">JLCJLCJLCJLC</text>
<g class="stroked-text"><desc>JLCJLCJLCJLC</desc>
<path d="M107.0281 7.1802
L107.0281 8.6088
" />
<path d="M107.0281 8.6088
L107.1233 8.8945
" />
<path d="M107.1233 8.8945
L107.3138 9.0850
" />
<path d="M107.3138 9.0850
L107.5995 9.1802
" />
<path d="M107.5995 9.1802
L107.7900 9.1802
" />
<path d="M105.1233 9.1802
L106.0757 9.1802
" />
<path d="M106.0757 9.1802
L106.0757 7.1802
" />
<path d="M103.3138 8.9898
L103.4090 9.0850
" />
<path d="M103.4090 9.0850
L103.6948 9.1802
" />
<path d="M103.6948 9.1802
L103.8852 9.1802
" />
<path d="M103.8852 9.1802
L104.1710 9.0850
" />
<path d="M104.1710 9.0850
L104.3614 8.8945
" />
<path d="M104.3614 8.8945
L104.4567 8.7040
" />
<path d="M104.4567 8.7040
L104.5519 8.3231
" />
<path d="M104.5519 8.3231
L104.5519 8.0374
" />
<path d="M104.5519 8.0374
L104.4567 7.6564
" />
<path d="M104.4567 7.6564
L104.3614 7.4660
" />
<path d="M104.3614 7.4660
L104.1710 7.2755
" />
<path d="M104.1710 7.2755
L103.8852 7.1802
" />
<path d="M103.8852 7.1802
L103.6948 7.1802
" />
<path d="M103.6948 7.1802
L103.4090 7.2755
" />
<path d="M103.4090 7.2755
L103.3138 7.3707
" />
<path d="M101.8852 7.1802
L101.8852 8.6088
" />
<path d="M101.8852 8.6088
L101.9805 8.8945
" />
<path d="M101.9805 8.8945
L102.1710 9.0850
" />
<path d="M102.1710 9.0850
L102.4567 9.1802
" />
<path d="M102.4567 9.1802
L102.6471 9.1802
" />
<path d="M99.9805 9.1802
L100.9329 9.1802
" />
<path d="M100.9329 9.1802
L100.9329 7.1802
" />
<path d="M98.1710 8.9898
L98.2662 9.0850
" />
<path d="M98.2662 9.0850
L98.5519 9.1802
" />
<path d="M98.5519 9.1802
L98.7424 9.1802
" />
<path d="M98.7424 9.1802
L99.0281 9.0850
" />
<path d="M99.0281 9.0850
L99.2186 8.8945
" />
<path d="M99.2186 8.8945
L99.3138 8.7040
" />
<path d="M99.3138 8.7040
L99.4090 8.3231
" />
<path d="M99.4090 8.3231
L99.4090 8.0374
" />
<path d="M99.4090 8.0374
L99.3138 7.6564
" />
<path d="M99.3138 7.6564
L99.2186 7.4660
" />
<path d="M99.2186 7.4660
L99.0281 7.2755
" />
<path d="M99.0281 7.2755
L98.7424 7.1802
" />
<path d="M98.7424 7.1802
L98.5519 7.1802
" />
<path d="M98.5519 7.1802
L98.2662 7.2755
" />
<path d="M98.2662 7.2755
L98.1710 7.3707
" />
<path d="M96.7424 7.1802
L96.7424 8.6088
" />
<path d="M96.7424 8.6088
L96.8376 8.8945
" />
<path d="M96.8376 8.8945
L97.0281 9.0850
" />
<path d="M97.0281 9.0850
L97.3138 9.1802
" />
<path d="M97.3138 9.1802
L97.5043 9.1802
" />
<path d="M94.8376 9.1802
L95.7900 9.1802
" />
<path d="M95.7900 9.1802
L95.7900 7.1802
" />
<path d="M93.0281 8.9898
L93.1233 9.0850
" />
<path d="M93.1233 9.0850
L93.4090 9.1802
" />
<path d="M93.4090 9.1802
L93.5995 9.1802
" />
<path d="M93.5995 9.1802
L93.8852 9.0850
" />
<path d="M93.8852 9.0850
L94.0757 8.8945
" />
<path d="M94.0757 8.8945
L94.1710 8.7040
" />
<path d="M94.1710 8.7040
L94.2662 8.3231
" />
<path d="M94.2662 8.3231
L94.2662 8.0374
" />
<path d="M94.2662 8.0374
L94.1710 7.6564
" />
<path d="M94.1710 7.6564
L94.0757 7.4660
" />
<path d="M94.0757 7.4660
L93.8852 7.2755
" />
<path d="M93.8852 7.2755
L93.5995 7.1802
" />
<path d="M93.5995 7.1802
L93.4090 7.1802
" />
<path d="M93.4090 7.1802
L93.1233 7.2755
" />
<path d="M93.1233 7.2755
L93.0281 7.3707
" />
<path d="M91.5995 7.1802
L91.5995 8.6088
" />
<path d="M91.5995 8.6088
L91.6948 8.8945
" />
<path d="M91.6948 8.8945
L91.8852 9.0850
" />
<path d="M91.8852 9.0850
L92.1710 9.1802
" />
<path d="M92.1710 9.1802
L92.3614 9.1802
" />
<path d="M89.6948 9.1802
L90.6471 9.1802
" />
<path d="M90.6471 9.1802
L90.6471 7.1802
" />
<path d="M87.8852 8.9898
L87.9805 9.0850
" />
<path d="M87.9805 9.0850
L88.2662 9.1802
" />
<path d="M88.2662 9.1802
L88.4567 9.1802
" />
<path d="M88.4567 9.1802
L88.7424 9.0850
" />
<path d="M88.7424 9.0850
L88.9329 8.8945
" />
<path d="M88.9329 8.8945
L89.0281 8.7040
" />
<path d="M89.0281 8.7040
L89.1233 8.3231
" />
<path d="M89.1233 8.3231
L89.1233 8.0374
" />
<path d="M89.1233 8.0374
L89.0281 7.6564
" />
<path d="M89.0281 7.6564
L88.9329 7.4660
" />
<path d="M88.9329 7.4660
L88.7424 7.2755
" />
<path d="M88.7424 7.2755
L88.4567 7.1802
" />
<path d="M88.4567 7.1802
L88.2662 7.1802
" />
<path d="M88.2662 7.1802
L87.9805 7.2755
" />
<path d="M87.9805 7.2755
L87.8852 7.3707
" />
</g><g >
</g>
<g >
</g>
<g >
</g>
<g >
</g>
<g >
</g>
<g >
</g>
<g >
</g>
</g>
<g style="fill:#FFFFFF; fill-opacity:0.0; 
stroke:#FFFFFF; stroke-width:0.2000; stroke-opacity:1; 
stroke-linecap:round; stroke-linejoin:round;">
</g>
<g style="fill:#FFFFFF; fill-opacity:1.0000; 
stroke:#FFFFFF; stroke-width:0.0000; stroke-opacity:1; 
stroke-linecap:round; stroke-linejoin:round;">
<circle cx="167.6400" cy="60.9600" r="0.5000" /> 
</g>
<g style="fill:#FFFFFF; fill-opacity:1.0000; 
stroke:#FFFFFF; stroke-width:0.0212; stroke-opacity:1; 
stroke-linecap:round; stroke-linejoin:round;">
</g>
<g style="fill:#000000; fill-opacity:1.0000; 
stroke:#000000; stroke-width:0.0212; stroke-opacity:1; 
stroke-linecap:round; stroke-linejoin:round;">
<g >
</g>
<g style="fill:#000000; fill-opacity:1.0000; 
stroke:#000000; stroke-width:0.0000; stroke-opacity:1; 
stroke-linecap:round; stroke-linejoin:round;">
<circle cx="167.6400" cy="60.9600" r="1.0000" /> 
</g>
<g style="fill:#000000; fill-opacity:1.0000; 
stroke:#000000; stroke-width:0.0212; stroke-opacity:1; 
stroke-linecap:round; stroke-linejoin:round;">
</g>
<g >
</g>
<g >
</g>
<g >
</g>
<g >
</g>
<g >
</g>
<g >
</g>
<g style="fill:#000000; fill-opacity:1.0000; 
stroke:#000000; stroke-width:0.0212; stroke-opacity:1; 
stroke-linecap:round; stroke-linejoin:round;">
<g >
</g>
<g style="fill:#000000; fill-opacity:1.0000; 
stroke:#000000; stroke-width:0.0000; stroke-opacity:1; 
stroke-linecap:round; stroke-linejoin:round;">
<path style="fill:#000000; fill-opacity:1.0000; 
stroke:#000000; stroke-width:0.0000; stroke-opacity:1; 
stroke-linecap:round; stroke-linejoin:round;fill-rule:evenodd;"
d="M 7.6500,3.0500
7.6351,3.0523
7.6351,3.0523
7.6263,3.0537
7.6058,3.0510
7.5840,3.0501
7.2271,3.0657
7.2161,3.0666
6.8316,3.1172
6.8208,3.1191
6.4422,3.2031
6.4316,3.2059
6.2613,3.2596
6.0617,3.3225
6.0514,3.3263
5.6931,3.4747
5.6831,3.4794
5.3391,3.6584
5.3296,3.6639
5.0025,3.8723
4.9935,3.8786
4.6859,4.1147
4.6774,4.1217
4.3915,4.3837
4.3837,4.3915
4.1217,4.6774
4.1147,4.6859
3.8786,4.9935
3.8723,5.0025
3.6639,5.3296
3.6584,5.3391
3.4794,5.6831
3.4747,5.6931
3.3263,6.0514
3.3225,6.0617
3.2059,6.4316
3.2031,6.4422
3.1191,6.8208
3.1172,6.8316
3.0666,7.2161
3.0657,7.2271
3.0504,7.5766
3.0518,7.6014
3.0537,7.6137
3.0525,7.6226
3.0525,7.6226
3.0496,7.6453
3.0485,7.6616
3.0485,237.4406
3.0500,237.4600
3.0523,237.4749
3.0523,237.4749
3.0537,237.4837
3.0510,237.5042
3.0501,237.5260
3.0657,237.8829
3.0666,237.8939
3.1172,238.2784
3.1191,238.2892
3.2031,238.6678
3.2059,238.6784
3.3225,239.0483
3.3263,239.0586
3.4747,239.4169
3.4794,239.4269
3.6584,239.7709
3.6639,239.7804
3.8723,240.1075
3.8786,240.1165
4.1147,240.4241
4.1217,240.4326
4.3837,240.7185
4.3915,240.7263
4.6774,240.9883
4.6859,240.9953
4.9935,241.2314
5.0025,241.2377
5.3296,241.4461
5.3391,241.4516
5.6831,241.6306
5.6931,241.6353
6.0514,241.7837
6.0617,241.7875
6.2613,241.8504
6.4316,241.9041
6.4422,241.9069
6.8208,241.9909
6.8316,241.9928
7.2161,242.0434
7.2271,242.0443
7.5766,242.0596
7.6014,242.0582
7.6137,242.0563
7.6226,242.0575
7.6226,242.0575
7.6377,242.0594
7.6453,242.0604
7.6616,242.0615
187.9106,242.0615
187.9300,242.0600
187.9449,242.0577
187.9449,242.0577
187.9537,242.0563
187.9742,242.0590
187.9960,242.0599
188.3529,242.0443
188.3639,242.0434
188.7484,241.9928
188.7592,241.9909
189.1378,241.9069
189.1484,241.9041
189.3187,241.8504
189.5183,241.7875
189.5286,241.7837
189.8869,241.6353
189.8969,241.6306
190.2409,241.4516
190.2504,241.4461
190.5775,241.2377
190.5865,241.2314
190.8941,240.9953
190.9026,240.9883
191.1885,240.7263
191.1963,240.7185
191.4583,240.4326
191.4653,240.4241
191.7014,240.1165
191.7077,240.1075
191.9161,239.7804
191.9216,239.7709
192.1006,239.4269
192.1053,239.4169
192.2537,239.0586
192.2575,239.0483
192.3741,238.6784
192.3769,238.6678
192.4609,238.2892
192.4628,238.2784
192.5134,237.8939
192.5143,237.8829
192.5294,237.5372
192.5278,237.5108
192.5272,237.5074
192.5272,237.5073
192.5264,237.5026
192.5263,237.4900
192.5302,237.4624
192.5315,237.4445
192.5315,217.1700
177.6786,217.1700
177.6583,217.5556
177.5980,217.9369
177.4980,218.3098
177.3597,218.6703
177.1844,219.0143
176.9741,219.3381
176.7311,219.6381
176.4581,219.9111
176.1581,220.1541
175.8343,220.3644
175.8313,220.3659
175.8313,220.3659
175.4932,220.5382
175.4903,220.5397
175.1298,220.6780
174.7569,220.7780
174.5544,220.8100
174.3788,220.8378
174.3788,220.8378
174.3756,220.8383
173.9900,220.8586
173.6044,220.8383
173.6012,220.8378
173.6012,220.8378
173.4256,220.8100
173.2231,220.7780
172.8502,220.6780
172.4897,220.5397
172.4868,220.5382
172.1487,220.3659
172.1487,220.3659
172.1457,220.3644
171.8219,220.1541
171.5219,219.9111
171.2489,219.6381
171.0059,219.3381
170.7956,219.0143
170.6203,218.6703
170.4820,218.3098
170.3820,217.9369
170.3217,217.5556
170.3014,217.1700
152.2786,217.1700
152.2583,217.5556
152.1980,217.9369
152.0980,218.3098
151.9597,218.6703
151.7844,219.0143
151.5741,219.3381
151.3311,219.6381
151.0581,219.9111
150.7581,220.1541
150.4343,220.3644
150.4313,220.3659
150.4313,220.3659
150.0932,220.5382
150.0903,220.5397
149.7298,220.6780
149.3569,220.7780
149.1544,220.8100
148.9788,220.8378
148.9788,220.8378
148.9756,220.8383
148.5900,220.8586
148.2044,220.8383
148.2012,220.8378
148.2012,220.8378
148.0256,220.8100
147.8231,220.7780
147.4502,220.6780
147.0897,220.5397
147.0868,220.5382
146.7487,220.3659
146.7487,220.3659
146.7457,220.3644
146.4219,220.1541
146.1219,219.9111
145.8489,219.6381
145.6059,219.3381
145.3956,219.0143
145.2203,218.6703
145.0820,218.3098
144.9820,217.9369
144.9217,217.5556
144.9014,217.1700
126.8786,217.1700
126.8583,217.5556
126.7980,217.9369
126.6980,218.3098
126.5597,218.6703
126.3844,219.0143
126.1741,219.3381
125.9311,219.6381
125.6581,219.9111
125.3581,220.1541
125.0343,220.3644
125.0313,220.3659
125.0313,220.3659
124.6932,220.5382
124.6903,220.5397
124.3298,220.6780
123.9569,220.7780
123.7544,220.8100
123.5788,220.8378
123.5788,220.8378
123.5756,220.8383
123.1900,220.8586
122.8044,220.8383
122.8012,220.8378
122.8012,220.8378
122.6256,220.8100
122.4231,220.7780
122.0502,220.6780
121.6897,220.5397
121.6868,220.5382
121.3487,220.3659
121.3487,220.3659
121.3457,220.3644
121.0219,220.1541
120.7219,219.9111
120.4489,219.6381
120.2059,219.3381
119.9956,219.0143
119.8203,218.6703
119.6820,218.3098
119.5820,217.9369
119.5217,217.5556
119.5014,217.1700
119.5217,216.7844
119.5820,216.4031
119.6820,216.0302
119.8203,215.6697
119.8371,215.6367
119.9941,215.3287
119.9941,215.3287
119.9956,215.3257
120.2059,215.0019
120.4489,214.7019
120.7219,214.4289
121.0219,214.1859
121.3457,213.9756
121.3487,213.9741
121.3487,213.9741
121.6868,213.8018
121.6897,213.8003
122.0502,213.6620
122.4231,213.5620
122.6256,213.5300
122.8012,213.5022
122.8012,213.5022
122.8044,213.5017
123.1900,213.4814
123.5756,213.5017
123.5788,213.5022
123.5788,213.5022
123.7544,213.5300
123.9569,213.5620
124.3298,213.6620
124.6903,213.8003
124.6932,213.8018
125.0313,213.9741
125.0313,213.9741
125.0343,213.9756
125.3581,214.1859
125.6581,214.4289
125.9311,214.7019
126.1741,215.0019
126.3844,215.3257
126.3859,215.3287
126.3859,215.3287
126.5429,215.6367
126.5597,215.6697
126.6980,216.0302
126.7980,216.4031
126.8583,216.7844
126.8771,217.1421
126.8786,217.1700
144.9014,217.1700
144.9217,216.7844
144.9820,216.4031
145.0820,216.0302
145.2203,215.6697
145.2371,215.6367
145.3941,215.3287
145.3941,215.3287
145.3956,215.3257
145.6059,215.0019
145.8489,214.7019
146.1219,214.4289
146.4219,214.1859
146.7457,213.9756
146.7487,213.9741
146.7487,213.9741
147.0868,213.8018
147.0897,213.8003
147.4502,213.6620
147.8231,213.5620
148.0256,213.5300
148.2012,213.5022
148.2012,213.5022
148.2044,213.5017
148.5900,213.4814
148.9756,213.5017
148.9788,213.5022
148.9788,213.5022
149.1544,213.5300
149.3569,213.5620
149.7298,213.6620
150.0903,213.8003
150.0932,213.8018
150.4313,213.9741
150.4313,213.9741
150.4343,213.9756
150.7581,214.1859
151.0581,214.4289
151.3311,214.7019
151.5741,215.0019
151.7844,215.3257
151.7859,215.3287
151.7859,215.3287
151.9429,215.6367
151.9597,215.6697
152.0980,216.0302
152.1980,216.4031
152.2583,216.7844
152.2771,217.1421
152.2786,217.1700
170.3014,217.1700
170.3217,216.7844
170.3820,216.4031
170.4820,216.0302
170.6203,215.6697
170.6371,215.6367
170.7941,215.3287
170.7941,215.3287
170.7956,215.3257
171.0059,215.0019
171.2489,214.7019
171.5219,214.4289
171.8219,214.1859
172.1457,213.9756
172.1487,213.9741
172.1487,213.9741
172.4868,213.8018
172.4897,213.8003
172.8502,213.6620
173.2231,213.5620
173.4256,213.5300
173.6012,213.5022
173.6012,213.5022
173.6044,213.5017
173.9900,213.4814
174.3756,213.5017
174.3788,213.5022
174.3788,213.5022
174.5544,213.5300
174.7569,213.5620
175.1298,213.6620
175.4903,213.8003
175.4932,213.8018
175.8313,213.9741
175.8313,213.9741
175.8343,213.9756
176.1581,214.1859
176.4581,214.4289
176.7311,214.7019
176.9741,215.0019
177.1844,215.3257
177.1859,215.3287
177.1859,215.3287
177.3429,215.6367
177.3597,215.6697
177.4980,216.0302
177.5980,216.4031
177.6583,216.7844
177.6771,217.1421
177.6786,217.1700
192.5315,217.1700
192.5315,191.7133
178.0530,191.7133
178.0529,191.7164
178.0525,191.7275
178.0407,192.0668
178.0391,192.1100
177.9866,192.5035
177.8960,192.8900
177.7680,193.2658
177.6041,193.6274
177.4056,193.9712
177.4038,193.9737
177.4038,193.9737
177.3036,194.1135
177.1745,194.2940
176.9130,194.5927
176.9107,194.5948
176.6258,194.8623
176.6258,194.8623
176.6236,194.8644
176.6211,194.8663
176.6211,194.8663
176.3115,195.1048
176.3090,195.1067
176.3064,195.1083
176.3064,195.1083
176.1250,195.2216
175.9724,195.3170
175.6168,195.4935
175.2457,195.6345
174.8626,195.7386
174.8595,195.7391
174.8595,195.7391
174.4742,195.8043
174.4742,195.8043
174.4711,195.8048
174.4681,195.8050
174.4680,195.8050
174.0782,195.8323
174.0782,195.8323
174.0751,195.8325
173.8188,195.8253
173.6813,195.8215
173.6813,195.8215
173.6783,195.8214
173.6752,195.8210
173.6752,195.8210
173.4867,195.7972
173.2844,195.7717
173.2814,195.7710
173.2814,195.7710
172.9003,195.6844
172.9003,195.6844
172.8973,195.6837
172.7494,195.6345
172.5235,195.5594
172.5235,195.5594
172.5206,195.5584
172.3774,195.4946
172.1607,195.3982
172.1607,195.3982
172.1579,195.3969
172.0173,195.3170
171.8154,195.2024
171.8154,195.2024
171.8127,195.2008
171.4883,194.9720
171.1878,194.7126
171.1857,194.7104
171.1857,194.7104
170.9161,194.4273
170.9140,194.4251
170.8808,194.3825
170.6715,194.1147
170.6715,194.1147
170.6696,194.1123
170.6680,194.1097
170.6680,194.1097
170.4586,193.7797
170.4585,193.7797
170.4569,193.7771
170.4306,193.7250
170.3720,193.6089
170.2779,193.4227
170.2768,193.4199
170.2768,193.4199
170.1355,193.0555
170.1355,193.0555
170.1343,193.0526
170.0276,192.6702
169.9586,192.2793
169.9282,191.8835
169.9266,191.7700
169.9292,191.7164
169.9294,191.7133
127.2530,191.7133
127.2529,191.7164
127.2525,191.7275
127.2407,192.0668
127.2391,192.1100
127.1866,192.5035
127.0960,192.8900
126.9680,193.2658
126.8040,193.6274
126.6056,193.9712
126.6038,193.9737
126.6038,193.9737
126.5036,194.1135
126.3745,194.2940
126.1130,194.5927
126.1107,194.5948
125.8258,194.8623
125.8258,194.8623
125.8236,194.8644
125.8211,194.8663
125.8211,194.8663
125.5115,195.1048
125.5090,195.1067
125.5064,195.1083
125.5064,195.1083
125.3250,195.2216
125.1724,195.3170
124.8168,195.4935
124.4457,195.6345
124.0626,195.7386
124.0595,195.7391
124.0595,195.7391
123.6742,195.8043
123.6742,195.8043
123.6711,195.8048
123.6681,195.8050
123.6680,195.8050
123.2782,195.8323
123.2782,195.8323
123.2751,195.8325
123.0188,195.8253
122.8813,195.8215
122.8813,195.8215
122.8783,195.8214
122.8752,195.8210
122.8752,195.8210
122.6867,195.7972
122.4844,195.7717
122.4814,195.7710
122.4814,195.7710
122.1003,195.6844
122.1003,195.6844
122.0973,195.6837
121.9494,195.6345
121.7235,195.5594
121.7235,195.5594
121.7206,195.5584
121.5774,195.4946
121.3607,195.3982
121.3607,195.3982
121.3579,195.3969
121.2173,195.3170
121.0154,195.2024
121.0154,195.2024
121.0127,195.2008
120.6883,194.9720
120.3878,194.7126
120.3857,194.7104
120.3857,194.7104
120.1161,194.4273
120.1140,194.4251
120.0808,194.3825
119.8715,194.1147
119.8715,194.1147
119.8696,194.1123
119.8680,194.1097
119.8680,194.1097
119.6586,193.7797
119.6585,193.7797
119.6569,193.7771
119.6306,193.7250
119.5720,193.6089
119.4779,193.4227
119.4768,193.4199
119.4768,193.4199
119.3355,193.0555
119.3355,193.0555
119.3343,193.0526
119.2276,192.6702
119.1586,192.2793
119.1282,191.8835
119.1266,191.7700
119.1292,191.7164
119.1294,191.7133
76.4530,191.7133
76.4529,191.7164
76.4525,191.7275
76.4407,192.0668
76.4391,192.1100
76.3866,192.5035
76.2960,192.8900
76.1680,193.2658
76.0040,193.6274
75.8056,193.9712
75.8038,193.9737
75.8038,193.9737
75.7036,194.1135
75.5745,194.2940
75.3130,194.5927
75.3107,194.5948
75.0258,194.8623
75.0258,194.8623
75.0236,194.8644
75.0211,194.8663
75.0211,194.8663
74.7115,195.1048
74.7090,195.1067
74.7064,195.1083
74.7064,195.1083
74.5250,195.2216
74.3724,195.3170
74.0168,195.4935
73.6457,195.6345
73.2626,195.7386
73.2595,195.7391
73.2595,195.7391
72.8742,195.8043
72.8742,195.8043
72.8711,195.8048
72.8681,195.8050
72.8680,195.8050
72.4782,195.8323
72.4782,195.8323
72.4751,195.8325
72.2188,195.8253
72.0813,195.8215
72.0813,195.8215
72.0783,195.8214
72.0752,195.8210
72.0752,195.8210
71.8867,195.7972
71.6844,195.7717
71.6814,195.7710
71.6814,195.7710
71.3003,195.6844
71.3003,195.6844
71.2973,195.6837
71.1494,195.6345
70.9235,195.5594
70.9235,195.5594
70.9206,195.5584
70.7774,195.4946
70.5607,195.3982
70.5607,195.3982
70.5579,195.3969
70.4173,195.3170
70.2154,195.2024
70.2154,195.2024
70.2127,195.2008
69.8883,194.9720
69.5878,194.7126
69.5857,194.7104
69.5857,194.7104
69.3161,194.4273
69.3140,194.4251
69.2808,194.3825
69.0715,194.1147
69.0715,194.1147
69.0696,194.1123
69.0680,194.1097
69.0680,194.1097
68.8586,193.7797
68.8585,193.7797
68.8569,193.7771
68.8306,193.7250
68.7720,193.6089
68.6779,193.4227
68.6768,193.4199
68.6768,193.4199
68.5355,193.0555
68.5355,193.0555
68.5343,193.0526
68.4276,192.6702
68.3586,192.2793
68.3282,191.8835
68.3266,191.7700
68.3292,191.7164
68.3294,191.7133
25.6530,191.7133
25.6529,191.7164
25.6525,191.7275
25.6407,192.0668
25.6391,192.1100
25.5866,192.5035
25.4960,192.8900
25.3680,193.2658
25.2040,193.6274
25.0056,193.9712
25.0038,193.9737
25.0038,193.9737
24.9036,194.1135
24.7745,194.2940
24.5130,194.5927
24.5107,194.5948
24.2258,194.8623
24.2258,194.8623
24.2236,194.8644
24.2211,194.8663
24.2211,194.8663
23.9115,195.1048
23.9090,195.1067
23.9064,195.1083
23.9064,195.1083
23.7250,195.2216
23.5724,195.3170
23.2168,195.4935
22.8457,195.6345
22.4626,195.7386
22.4595,195.7391
22.4595,195.7391
22.0742,195.8043
22.0742,195.8043
22.0711,195.8048
22.0681,195.8050
22.0680,195.8050
21.6782,195.8323
21.6782,195.8323
21.6751,195.8325
21.4188,195.8253
21.2813,195.8215
21.2813,195.8215
21.2783,195.8214
21.2752,195.8210
21.2752,195.8210
21.0867,195.7972
20.8844,195.7717
20.8814,195.7710
20.8814,195.7710
20.5003,195.6844
20.5003,195.6844
20.4973,195.6837
20.3494,195.6345
20.1235,195.5594
20.1235,195.5594
20.1206,195.5584
19.9774,195.4946
19.7607,195.3982
19.7607,195.3982
19.7579,195.3969
19.6173,195.3170
19.4154,195.2024
19.4154,195.2024
19.4127,195.2008
19.0883,194.9720
18.7878,194.7126
18.7857,194.7104
18.7857,194.7104
18.5161,194.4273
18.5140,194.4251
18.4808,194.3825
18.2715,194.1147
18.2715,194.1147
18.2696,194.1123
18.2680,194.1097
18.2680,194.1097
18.0586,193.7797
18.0585,193.7797
18.0569,193.7771
18.0306,193.7250
17.9720,193.6089
17.8779,193.4227
17.8768,193.4199
17.8768,193.4199
17.7355,193.0555
17.7355,193.0555
17.7343,193.0526
17.6276,192.6702
17.5586,192.2793
17.5282,191.8835
17.5266,191.7700
17.5292,191.7164
17.5458,191.3766
17.5460,191.3735
17.5548,191.3140
17.6035,190.9838
17.6035,190.9838
17.6040,190.9807
17.7000,190.5956
17.7183,190.5443
17.8322,190.2245
17.8332,190.2216
18.0022,189.8624
18.0320,189.8124
18.2039,189.5240
18.2055,189.5214
18.4411,189.2018
18.7067,188.9068
18.9999,188.6391
19.3178,188.4013
19.3666,188.3717
19.6547,188.1972
19.6547,188.1972
19.6574,188.1956
20.0154,188.0241
20.0748,188.0025
20.3855,187.8894
20.3855,187.8894
20.3884,187.8883
20.5953,187.8352
20.7700,187.7904
20.7700,187.7904
20.7729,187.7896
21.1653,187.7289
21.1683,187.7287
21.1683,187.7287
21.1971,187.7271
21.5616,187.7067
21.5647,187.7068
21.5647,187.7068
21.8230,187.7177
21.9583,187.7233
21.9613,187.7238
21.9613,187.7238
22.0010,187.7293
22.3514,187.7786
22.7373,187.8719
23.1122,188.0025
23.1590,188.0241
23.4698,188.1677
23.4698,188.1677
23.4726,188.1690
23.8150,188.3699
23.8560,188.3997
24.1337,188.6014
24.1337,188.6014
24.1361,188.6032
24.1384,188.6053
24.1384,188.6053
24.1789,188.6412
24.4330,188.8668
24.4351,188.8691
24.4351,188.8691
24.7006,189.1558
24.7007,189.1558
24.7027,189.1581
24.7046,189.1606
24.7046,189.1606
24.7378,189.2043
24.9428,189.4743
24.9444,189.4769
24.9444,189.4769
25.1492,189.8098
25.1508,189.8124
25.3248,190.1693
25.3259,190.1721
25.3259,190.1721
25.4119,190.4033
25.4632,190.5414
25.5646,190.9252
25.6281,191.3171
25.6283,191.3201
25.6283,191.3201
25.6352,191.4310
25.6530,191.7133
68.3294,191.7133
68.3458,191.3766
68.3460,191.3735
68.3548,191.3140
68.4035,190.9838
68.4035,190.9838
68.4040,190.9807
68.5000,190.5956
68.5183,190.5443
68.6322,190.2245
68.6332,190.2216
68.8022,189.8624
68.8320,189.8124
69.0039,189.5240
69.0055,189.5214
69.2411,189.2018
69.5067,188.9068
69.7999,188.6391
70.1178,188.4013
70.1666,188.3717
70.4547,188.1972
70.4547,188.1972
70.4574,188.1956
70.8154,188.0241
70.8748,188.0025
71.1855,187.8894
71.1855,187.8894
71.1884,187.8883
71.3953,187.8352
71.5700,187.7904
71.5700,187.7904
71.5729,187.7896
71.9653,187.7289
71.9683,187.7287
71.9683,187.7287
71.9971,187.7271
72.3616,187.7067
72.3647,187.7068
72.3647,187.7068
72.6230,187.7177
72.7583,187.7233
72.7613,187.7238
72.7613,187.7238
72.8010,187.7293
73.1514,187.7786
73.5373,187.8719
73.9122,188.0025
73.9590,188.0241
74.2698,188.1677
74.2698,188.1677
74.2726,188.1690
74.6150,188.3699
74.6560,188.3997
74.9337,188.6014
74.9337,188.6014
74.9361,188.6032
74.9384,188.6053
74.9384,188.6053
74.9789,188.6412
75.2330,188.8668
75.2351,188.8691
75.2351,188.8691
75.5006,189.1558
75.5007,189.1558
75.5027,189.1581
75.5046,189.1606
75.5046,189.1606
75.5378,189.2043
75.7428,189.4743
75.7444,189.4769
75.7444,189.4769
75.9492,189.8098
75.9508,189.8124
76.1248,190.1693
76.1259,190.1721
76.1259,190.1721
76.2119,190.4033
76.2632,190.5414
76.3646,190.9252
76.4281,191.3171
76.4283,191.3201
76.4283,191.3201
76.4352,191.4310
76.4530,191.7133
119.1294,191.7133
119.1458,191.3766
119.1460,191.3735
119.1548,191.3140
119.2035,190.9838
119.2035,190.9838
119.2040,190.9807
119.3000,190.5956
119.3183,190.5443
119.4322,190.2245
119.4332,190.2216
119.6022,189.8624
119.6320,189.8124
119.8039,189.5240
119.8055,189.5214
120.0411,189.2018
120.3067,188.9068
120.5999,188.6391
120.9178,188.4013
120.9666,188.3717
121.2547,188.1972
121.2547,188.1972
121.2574,188.1956
121.6154,188.0241
121.6748,188.0025
121.9855,187.8894
121.9855,187.8894
121.9884,187.8883
122.1953,187.8352
122.3700,187.7904
122.3700,187.7904
122.3729,187.7896
122.7653,187.7289
122.7683,187.7287
122.7683,187.7287
122.7971,187.7271
123.1616,187.7067
123.1647,187.7068
123.1647,187.7068
123.4230,187.7177
123.5583,187.7233
123.5613,187.7238
123.5613,187.7238
123.6010,187.7293
123.9514,187.7786
124.3373,187.8719
124.7122,188.0025
124.7590,188.0241
125.0698,188.1677
125.0698,188.1677
125.0726,188.1690
125.4150,188.3699
125.4560,188.3997
125.7337,188.6014
125.7337,188.6014
125.7361,188.6032
125.7384,188.6053
125.7384,188.6053
125.7789,188.6412
126.0330,188.8668
126.0351,188.8691
126.0351,188.8691
126.3006,189.1558
126.3007,189.1558
126.3027,189.1581
126.3046,189.1606
126.3046,189.1606
126.3378,189.2043
126.5428,189.4743
126.5444,189.4769
126.5444,189.4769
126.7492,189.8098
126.7508,189.8124
126.9248,190.1693
126.9259,190.1721
126.9259,190.1721
127.0119,190.4033
127.0632,190.5414
127.1646,190.9252
127.2281,191.3171
127.2283,191.3201
127.2283,191.3201
127.2352,191.4310
127.2530,191.7133
169.9294,191.7133
169.9458,191.3766
169.9460,191.3735
169.9548,191.3140
170.0035,190.9838
170.0035,190.9838
170.0040,190.9807
170.1000,190.5956
170.1183,190.5443
170.2322,190.2245
170.2332,190.2216
170.4022,189.8624
170.4320,189.8124
170.6039,189.5240
170.6055,189.5214
170.8411,189.2018
171.1067,188.9068
171.3999,188.6391
171.7178,188.4013
171.7666,188.3717
172.0547,188.1972
172.0547,188.1972
172.0574,188.1956
172.4154,188.0241
172.4748,188.0025
172.7855,187.8894
172.7855,187.8894
172.7884,187.8883
172.9953,187.8352
173.1700,187.7904
173.1700,187.7904
173.1729,187.7896
173.5653,187.7289
173.5683,187.7287
173.5683,187.7287
173.5971,187.7271
173.9616,187.7067
173.9647,187.7068
173.9647,187.7068
174.2230,187.7177
174.3583,187.7233
174.3613,187.7238
174.3613,187.7238
174.4010,187.7293
174.7514,187.7786
175.1373,187.8719
175.5122,188.0025
175.5590,188.0241
175.8698,188.1677
175.8698,188.1677
175.8726,188.1690
176.2150,188.3699
176.2560,188.3997
176.5337,188.6014
176.5337,188.6014
176.5361,188.6032
176.5384,188.6053
176.5384,188.6053
176.5789,188.6412
176.8330,188.8668
176.8351,188.8691
176.8351,188.8691
177.1006,189.1558
177.1007,189.1558
177.1027,189.1581
177.1046,189.1606
177.1046,189.1606
177.1378,189.2043
177.3428,189.4743
177.3444,189.4769
177.3444,189.4769
177.5492,189.8098
177.5508,189.8124
177.7248,190.1693
177.7259,190.1721
177.7259,190.1721
177.8119,190.4033
177.8632,190.5414
177.9646,190.9252
178.0281,191.3171
178.0283,191.3201
178.0283,191.3201
178.0352,191.4310
178.0530,191.7133
192.5315,191.7133
192.5315,166.3133
152.6530,166.3133
152.6529,166.3164
152.6525,166.3275
152.6407,166.6668
152.6391,166.7100
152.5866,167.1035
152.4960,167.4900
152.3680,167.8658
152.2040,168.2274
152.0056,168.5712
152.0038,168.5737
152.0038,168.5737
151.9036,168.7135
151.7745,168.8940
151.5130,169.1927
151.5107,169.1948
151.2258,169.4623
151.2258,169.4623
151.2236,169.4644
151.2211,169.4663
151.2211,169.4663
150.9115,169.7048
150.9090,169.7067
150.9064,169.7083
150.9064,169.7083
150.7250,169.8217
150.5724,169.9170
150.2168,170.0935
149.8457,170.2345
149.4626,170.3386
149.4595,170.3391
149.4595,170.3391
149.0742,170.4043
149.0742,170.4043
149.0711,170.4048
149.0681,170.4050
149.0680,170.4050
148.6782,170.4323
148.6782,170.4323
148.6751,170.4325
148.4188,170.4253
148.2813,170.4215
148.2813,170.4215
148.2783,170.4214
148.2752,170.4210
148.2752,170.4210
148.0867,170.3972
147.8844,170.3717
147.8814,170.3710
147.8814,170.3710
147.5003,170.2844
147.5003,170.2844
147.4973,170.2837
147.3494,170.2345
147.1235,170.1594
147.1235,170.1594
147.1206,170.1584
146.9774,170.0946
146.7607,169.9982
146.7607,169.9982
146.7579,169.9969
146.6173,169.9170
146.4154,169.8024
146.4154,169.8024
146.4127,169.8008
146.0883,169.5720
145.7878,169.3126
145.7857,169.3104
145.7857,169.3104
145.5161,169.0273
145.5140,169.0251
145.4808,168.9825
145.2715,168.7147
145.2715,168.7147
145.2696,168.7123
145.2680,168.7097
145.2680,168.7097
145.0586,168.3797
145.0585,168.3797
145.0569,168.3771
145.0306,168.3250
144.9720,168.2089
144.8779,168.0227
144.8768,168.0199
144.8768,168.0199
144.7355,167.6555
144.7355,167.6555
144.7343,167.6526
144.6276,167.2702
144.5586,166.8793
144.5282,166.4835
144.5266,166.3700
144.5292,166.3164
144.5294,166.3133
51.0530,166.3133
51.0529,166.3164
51.0525,166.3275
51.0407,166.6668
51.0391,166.7100
50.9866,167.1035
50.8960,167.4900
50.7680,167.8658
50.6041,168.2274
50.4056,168.5712
50.4038,168.5737
50.4038,168.5737
50.3036,168.7135
50.1745,168.8940
49.9130,169.1927
49.9107,169.1948
49.6258,169.4623
49.6258,169.4623
49.6236,169.4644
49.6211,169.4663
49.6211,169.4663
49.3115,169.7048
49.3090,169.7067
49.3064,169.7083
49.3064,169.7083
49.1250,169.8217
48.9724,169.9170
48.6168,170.0935
48.2457,170.2345
47.8626,170.3386
47.8595,170.3391
47.8595,170.3391
47.4742,170.4043
47.4742,170.4043
47.4711,170.4048
47.4681,170.4050
47.4680,170.4050
47.0782,170.4323
47.0782,170.4323
47.0751,170.4325
46.8188,170.4253
46.6813,170.4215
46.6813,170.4215
46.6783,170.4214
46.6752,170.4210
46.6752,170.4210
46.4867,170.3972
46.2844,170.3717
46.2814,170.3710
46.2814,170.3710
45.9003,170.2844
45.9003,170.2844
45.8973,170.2837
45.7494,170.2345
45.5235,170.1594
45.5235,170.1594
45.5206,170.1584
45.3774,170.0946
45.1607,169.9982
45.1607,169.9982
45.1579,169.9969
45.0173,169.9170
44.8154,169.8024
44.8154,169.8024
44.8127,169.8008
44.4883,169.5720
44.1878,169.3126
44.1857,169.3104
44.1857,169.3104
43.9161,169.0273
43.9140,169.0251
43.8808,168.9825
43.6715,168.7147
43.6715,168.7147
43.6696,168.7123
43.6680,168.7097
43.6680,168.7097
43.4586,168.3797
43.4585,168.3797
43.4569,168.3771
43.4306,168.3250
43.3720,168.2089
43.2779,168.0227
43.2768,168.0199
43.2768,168.0199
43.1355,167.6555
43.1355,167.6555
43.1343,167.6526
43.0276,167.2702
42.9586,166.8793
42.9282,166.4835
42.9266,166.3700
42.9292,166.3164
42.9458,165.9766
42.9460,165.9735
42.9548,165.9140
43.0035,165.5838
43.0035,165.5838
43.0040,165.5807
43.1000,165.1955
43.1183,165.1443
43.2322,164.8245
43.2332,164.8216
43.4022,164.4624
43.4320,164.4124
43.6039,164.1240
43.6055,164.1214
43.8411,163.8018
44.1067,163.5068
44.3999,163.2391
44.7178,163.0013
44.7666,162.9717
45.0547,162.7972
45.0547,162.7972
45.0574,162.7956
45.4154,162.6241
45.4748,162.6025
45.7855,162.4894
45.7855,162.4894
45.7884,162.4883
45.9953,162.4352
46.1700,162.3904
46.1700,162.3904
46.1729,162.3896
46.5653,162.3289
46.5683,162.3287
46.5683,162.3287
46.5971,162.3271
46.9616,162.3067
46.9647,162.3068
46.9647,162.3068
47.2230,162.3177
47.3583,162.3233
47.3613,162.3238
47.3613,162.3238
47.4010,162.3293
47.7514,162.3786
48.1373,162.4719
48.5122,162.6025
48.5590,162.6241
48.8698,162.7677
48.8698,162.7677
48.8726,162.7690
49.2150,162.9699
49.2560,162.9997
49.5337,163.2014
49.5337,163.2014
49.5361,163.2032
49.5384,163.2053
49.5384,163.2053
49.5789,163.2412
49.8330,163.4668
49.8351,163.4691
49.8351,163.4691
50.1006,163.7558
50.1007,163.7558
50.1027,163.7581
50.1046,163.7605
50.1046,163.7606
50.1378,163.8043
50.3428,164.0743
50.3444,164.0769
50.3444,164.0769
50.5492,164.4098
50.5508,164.4124
50.7248,164.7693
50.7259,164.7721
50.7259,164.7721
50.8119,165.0033
50.8632,165.1414
50.9646,165.5252
51.0281,165.9171
51.0283,165.9201
51.0283,165.9201
51.0352,166.0310
51.0530,166.3133
144.5294,166.3133
144.5458,165.9766
144.5460,165.9735
144.5548,165.9140
144.6035,165.5838
144.6035,165.5838
144.6040,165.5807
144.7000,165.1955
144.7183,165.1443
144.8322,164.8245
144.8332,164.8216
145.0022,164.4624
145.0320,164.4124
145.2039,164.1240
145.2055,164.1214
145.4411,163.8018
145.7067,163.5068
145.9999,163.2391
146.3178,163.0013
146.3666,162.9717
146.6547,162.7972
146.6547,162.7972
146.6574,162.7956
147.0154,162.6241
147.0748,162.6025
147.3855,162.4894
147.3855,162.4894
147.3884,162.4883
147.5953,162.4352
147.7700,162.3904
147.7700,162.3904
147.7729,162.3896
148.1653,162.3289
148.1683,162.3287
148.1683,162.3287
148.1971,162.3271
148.5616,162.3067
148.5647,162.3068
148.5647,162.3068
148.8230,162.3177
148.9583,162.3233
148.9613,162.3238
148.9613,162.3238
149.0010,162.3293
149.3514,162.3786
149.7373,162.4719
150.1122,162.6025
150.1590,162.6241
150.4698,162.7677
150.4698,162.7677
150.4726,162.7690
150.8150,162.9699
150.8560,162.9997
151.1337,163.2014
151.1337,163.2014
151.1361,163.2032
151.1384,163.2053
151.1384,163.2053
151.1789,163.2412
151.4330,163.4668
151.4351,163.4691
151.4351,163.4691
151.7006,163.7558
151.7007,163.7558
151.7027,163.7581
151.7046,163.7605
151.7046,163.7606
151.7378,163.8043
151.9428,164.0743
151.9444,164.0769
151.9444,164.0769
152.1492,164.4098
152.1508,164.4124
152.3248,164.7693
152.3259,164.7721
152.3259,164.7721
152.4119,165.0033
152.4632,165.1414
152.5646,165.5252
152.6281,165.9171
152.6283,165.9201
152.6283,165.9201
152.6352,166.0310
152.6530,166.3133
192.5315,166.3133
192.5315,128.1388
128.2018,128.1388
128.2004,128.2143
128.1937,128.5848
128.1934,128.5876
128.1482,129.0065
128.1459,129.0284
128.1453,129.0311
128.1453,129.0311
128.0745,129.3870
128.0588,129.4659
128.0580,129.4686
128.0580,129.4686
128.0334,129.5526
127.9332,129.8940
127.9322,129.8966
127.9322,129.8966
127.7746,130.2976
127.7701,130.3092
127.7086,130.4322
127.6187,130.6123
127.5707,130.7083
127.3366,131.0880
127.0697,131.4455
127.0678,131.4476
127.0678,131.4476
126.7931,131.7543
126.7720,131.7778
126.7700,131.7797
126.7700,131.7797
126.6007,131.9378
126.4460,132.0823
126.4438,132.0840
126.4438,132.0840
126.2174,132.2606
126.0943,132.3567
125.9334,132.4605
125.7218,132.5972
125.7218,132.5972
125.7195,132.5987
125.3247,132.8064
125.3221,132.8075
124.9155,132.9771
124.9155,132.9771
124.9130,132.9782
124.9103,132.9790
124.9103,132.9790
124.6787,133.0523
124.4876,133.1127
124.4849,133.1133
124.4849,133.1133
124.0923,133.2000
124.0520,133.2089
124.0492,133.2093
124.0492,133.2093
123.6123,133.2656
123.6123,133.2656
123.6095,133.2660
123.6067,133.2661
123.6067,133.2661
123.3485,133.2762
123.1637,133.2835
123.1610,133.2833
123.1610,133.2833
122.7210,133.2614
122.7210,133.2614
122.7182,133.2613
122.7154,133.2609
122.7154,133.2609
122.6375,133.2500
122.2764,133.1996
122.2736,133.1990
122.2736,133.1990
121.8445,133.0995
121.8418,133.0989
121.6190,133.0258
121.4205,132.9608
121.4205,132.9608
121.4178,132.9599
121.0079,132.7838
120.6153,132.5719
120.2431,132.3260
119.8942,132.0480
119.5714,131.7401
119.3379,131.4738
119.2791,131.4068
119.2791,131.4068
119.2773,131.4047
119.2492,131.3663
119.0698,131.1207
119.0141,131.0445
119.0127,131.0421
118.7855,130.6647
118.7855,130.6647
118.7840,130.6623
118.5966,130.2771
118.5900,130.2637
118.5900,130.2637
118.5888,130.2611
118.4588,129.9199
118.4310,129.8468
118.4310,129.8468
118.4300,129.8442
118.3089,129.4148
118.3084,129.4121
118.2270,128.9792
118.2270,128.9792
118.2265,128.9764
118.1953,128.6556
118.1835,128.5346
118.1835,128.5346
118.1833,128.5324
118.1765,128.2700
101.4786,128.2700
101.4583,128.6556
101.4578,128.6588
101.4578,128.6588
101.4402,128.7703
101.3980,129.0369
101.2980,129.4098
101.2968,129.4129
101.2968,129.4129
101.2776,129.4631
101.1597,129.7703
101.1582,129.7732
101.0820,129.9227
100.9844,130.1143
100.9826,130.1170
100.9826,130.1170
100.8787,130.2771
100.7741,130.4381
100.5311,130.7381
100.2581,131.0111
99.9581,131.2541
99.9553,131.2559
99.6602,131.4476
99.6343,131.4644
99.6313,131.4659
99.6313,131.4659
99.3551,131.6067
99.2903,131.6397
99.1309,131.7008
98.9358,131.7757
98.9298,131.7780
98.5569,131.8780
98.3544,131.9100
98.1788,131.9378
98.1788,131.9378
98.1756,131.9383
97.7900,131.9586
97.4044,131.9383
97.4012,131.9378
97.4012,131.9378
97.2256,131.9100
97.0231,131.8780
96.6502,131.7780
96.6442,131.7757
96.4491,131.7008
96.2897,131.6397
96.2249,131.6067
95.9487,131.4659
95.9487,131.4659
95.9457,131.4644
95.9198,131.4476
95.6247,131.2559
95.6219,131.2541
95.3219,131.0111
95.0489,130.7381
94.8059,130.4381
94.7013,130.2771
94.5974,130.1170
94.5974,130.1170
94.5956,130.1143
94.4980,129.9227
94.4218,129.7732
94.4203,129.7703
94.3024,129.4631
94.2832,129.4129
94.2832,129.4129
94.2820,129.4098
94.1820,129.0369
94.1398,128.7703
94.1222,128.6588
94.1222,128.6588
94.1217,128.6556
94.1014,128.2700
94.1044,128.2133
76.4530,128.2133
76.4529,128.2164
76.4525,128.2275
76.4394,128.6040
76.4391,128.6100
76.4387,128.6131
76.4387,128.6131
76.4326,128.6588
76.3866,129.0035
76.3859,129.0065
76.3859,129.0065
76.3335,129.2300
76.2960,129.3900
76.1680,129.7658
76.0040,130.1274
75.8056,130.4712
75.8038,130.4737
75.8038,130.4737
75.6065,130.7492
75.5745,130.7940
75.5724,130.7963
75.5724,130.7963
75.4074,130.9848
75.3130,131.0927
75.3107,131.0948
75.0258,131.3623
75.0258,131.3623
75.0236,131.3644
75.0211,131.3663
75.0211,131.3663
74.7857,131.5476
74.7090,131.6067
74.7064,131.6083
74.7064,131.6083
74.5250,131.7216
74.3724,131.8170
74.0168,131.9935
73.6457,132.1345
73.2626,132.2386
73.2595,132.2391
73.2595,132.2391
72.8742,132.3043
72.8742,132.3043
72.8711,132.3048
72.8681,132.3050
72.8680,132.3050
72.4782,132.3323
72.4782,132.3323
72.4751,132.3325
72.2188,132.3253
72.0813,132.3215
72.0813,132.3215
72.0783,132.3214
72.0752,132.3210
72.0752,132.3210
71.8867,132.2972
71.6844,132.2717
71.6814,132.2710
71.6814,132.2710
71.3003,132.1844
71.3003,132.1844
71.2973,132.1837
71.1494,132.1345
70.9235,132.0594
70.9235,132.0594
70.9206,132.0584
70.9178,132.0571
70.5607,131.8982
70.5607,131.8982
70.5579,131.8969
70.5254,131.8785
70.2154,131.7024
70.2154,131.7024
70.2127,131.7008
69.8883,131.4720
69.8795,131.4644
69.5901,131.2146
69.5878,131.2126
69.5857,131.2104
69.5857,131.2104
69.3161,130.9273
69.3140,130.9251
69.3115,130.9219
69.0715,130.6147
69.0715,130.6147
69.0696,130.6123
69.0680,130.6097
69.0680,130.6097
68.8586,130.2797
68.8585,130.2797
68.8569,130.2771
68.8501,130.2637
68.7548,130.0749
68.6779,129.9227
68.6768,129.9199
68.6768,129.9199
68.5355,129.5555
68.5355,129.5555
68.5343,129.5526
68.4443,129.2300
68.4284,129.1732
68.4284,129.1732
68.4276,129.1702
68.3586,128.7793
68.3282,128.3835
68.3266,128.2700
68.3280,128.2421
68.3432,127.9310
68.3460,127.8735
68.3528,127.8271
68.4035,127.4838
68.4035,127.4838
68.4040,127.4807
68.5000,127.0955
68.5183,127.0443
68.5988,126.8183
68.6332,126.7216
68.7857,126.3975
68.8009,126.3651
68.8009,126.3651
68.8022,126.3624
68.8320,126.3124
68.9532,126.1091
69.0055,126.0214
69.2411,125.7018
69.5067,125.4068
69.7999,125.1391
70.1178,124.9013
70.1666,124.8717
70.4547,124.6972
70.4547,124.6972
70.4574,124.6956
70.8154,124.5241
70.8748,124.5025
71.1855,124.3894
71.1855,124.3894
71.1884,124.3883
71.5310,124.3004
71.5700,124.2904
71.5700,124.2904
71.5729,124.2896
71.9653,124.2289
71.9683,124.2287
71.9683,124.2287
71.9971,124.2271
72.3616,124.2067
72.3647,124.2068
72.3647,124.2068
72.6230,124.2177
72.7583,124.2233
72.7613,124.2238
72.7613,124.2238
72.8010,124.2293
73.1514,124.2786
73.5373,124.3719
73.9122,124.5025
73.9590,124.5241
74.2698,124.6677
74.2698,124.6677
74.2726,124.6690
74.6150,124.8699
74.7402,124.9609
74.9337,125.1014
74.9337,125.1014
74.9361,125.1032
74.9384,125.1053
74.9384,125.1053
75.0914,125.2411
75.2330,125.3668
75.2351,125.3691
75.2351,125.3691
75.5006,125.6558
75.5007,125.6558
75.5027,125.6581
75.5046,125.6606
75.5046,125.6606
75.5378,125.7043
75.7428,125.9743
75.7444,125.9769
75.7444,125.9769
75.9492,126.3098
75.9508,126.3124
76.1248,126.6693
76.1259,126.6721
76.1259,126.6721
76.1802,126.8183
76.2632,127.0414
76.3646,127.4252
76.3651,127.4282
76.4081,127.6938
76.4281,127.8171
76.4283,127.8201
76.4283,127.8201
76.4485,128.1416
76.4530,128.2133
94.1044,128.2133
94.1217,127.8844
94.1223,127.8805
94.1815,127.5064
94.1820,127.5031
94.2820,127.1302
94.2941,127.0986
94.4192,126.7728
94.4203,126.7697
94.4729,126.6665
94.5941,126.4287
94.5941,126.4287
94.5956,126.4257
94.6463,126.3477
94.8041,126.1047
94.8059,126.1019
95.0489,125.8019
95.3219,125.5289
95.6219,125.2859
95.8508,125.1373
95.9430,125.0774
95.9430,125.0774
95.9457,125.0756
95.9487,125.0741
95.9487,125.0741
96.2868,124.9018
96.2897,124.9003
96.6502,124.7620
97.0231,124.6620
97.2256,124.6300
97.4012,124.6022
97.4012,124.6022
97.4044,124.6017
97.7900,124.5814
98.1756,124.6017
98.1788,124.6022
98.1788,124.6022
98.3544,124.6300
98.5569,124.6620
98.9298,124.7620
99.2903,124.9003
99.2932,124.9018
99.6313,125.0741
99.6313,125.0741
99.6343,125.0756
99.6370,125.0774
99.6370,125.0774
99.7631,125.1593
99.9581,125.2859
100.2581,125.5289
100.5311,125.8019
100.7741,126.1019
100.7759,126.1047
100.9337,126.3477
100.9844,126.4257
100.9859,126.4287
100.9859,126.4287
101.1071,126.6665
101.1597,126.7697
101.1608,126.7728
101.2859,127.0986
101.2980,127.1302
101.3980,127.5031
101.3985,127.5064
101.4577,127.8805
101.4583,127.8844
101.4771,128.2421
101.4786,128.2700
118.1765,128.2700
118.1963,127.8243
118.2557,127.3822
118.2902,127.2297
118.3535,126.9498
118.3541,126.9471
118.4909,126.5224
118.4976,126.5066
118.6638,126.1142
118.6638,126.1142
118.6648,126.1116
118.6685,126.1047
118.8733,125.7204
118.8746,125.7179
118.8761,125.7156
119.1171,125.3467
119.1171,125.3467
119.1186,125.3444
119.2018,125.2388
119.3930,124.9962
119.3930,124.9962
119.3948,124.9940
119.7010,124.6696
119.8652,124.5241
120.0328,124.3756
120.0328,124.3756
120.0349,124.3737
120.3937,124.1087
120.5946,123.9863
120.7723,123.8780
120.7723,123.8780
120.7747,123.8766
120.8970,123.8163
121.1723,123.6805
121.1748,123.6793
121.5909,123.5183
121.7274,123.4790
122.0169,123.3957
122.0169,123.3957
122.0196,123.3950
122.0223,123.3944
122.0224,123.3944
122.1734,123.3652
122.4576,123.3102
122.4604,123.3100
122.4604,123.3100
122.7352,123.2818
122.9014,123.2648
122.9042,123.2647
122.9042,123.2647
123.1827,123.2611
123.3475,123.2589
123.3503,123.2591
123.3503,123.2591
123.7895,123.2926
123.7923,123.2928
124.2324,123.3660
124.3224,123.3894
124.6615,123.4774
124.6615,123.4774
124.6642,123.4781
124.9326,123.5739
125.0817,123.6272
125.0817,123.6272
125.0843,123.6281
125.0869,123.6293
125.0869,123.6293
125.1953,123.6793
125.4895,123.8149
125.8764,124.0369
125.8787,124.0385
125.8787,124.0385
126.1193,124.2067
126.2421,124.2925
126.2442,124.2943
126.2442,124.2943
126.5712,124.5691
126.5835,124.5795
126.5855,124.5815
126.5855,124.5815
126.6725,124.6690
126.8982,124.8958
126.9000,124.8980
126.9000,124.8980
126.9019,124.9003
127.1834,125.2388
127.4371,125.6058
127.6571,125.9939
127.6583,125.9964
127.6583,125.9964
127.8406,126.3975
127.8406,126.3975
127.8418,126.4000
127.8427,126.4026
127.8427,126.4026
127.9198,126.6224
127.9896,126.8209
127.9903,126.8236
127.9903,126.8236
128.0593,127.0955
128.0994,127.2533
128.0998,127.2561
128.0998,127.2561
128.1563,127.6069
128.1703,127.6938
128.1705,127.6966
128.1705,127.6966
128.1830,127.8735
128.2018,128.1388
192.5315,128.1388
192.5315,102.8133
171.7030,102.8133
171.7029,102.8164
171.7025,102.8275
171.6907,103.1668
171.6891,103.2100
171.6887,103.2131
171.6887,103.2131
171.6826,103.2588
171.6366,103.6035
171.6359,103.6065
171.6359,103.6065
171.5835,103.8300
171.5460,103.9900
171.4180,104.3658
171.2540,104.7274
171.0556,105.0712
171.0538,105.0737
171.0538,105.0737
170.8565,105.3492
170.8245,105.3940
170.8224,105.3963
170.8224,105.3963
170.6574,105.5848
170.5630,105.6927
170.5607,105.6948
170.2758,105.9623
170.2758,105.9623
170.2736,105.9644
170.2711,105.9663
170.2711,105.9663
169.9615,106.2048
169.9590,106.2067
169.9564,106.2083
169.9564,106.2083
169.7750,106.3216
169.6224,106.4170
169.2668,106.5935
168.8957,106.7345
168.5126,106.8386
168.5095,106.8391
168.5095,106.8391
168.1242,106.9043
168.1242,106.9043
168.1211,106.9048
168.1181,106.9050
168.1180,106.9050
167.7282,106.9323
167.7282,106.9323
167.7251,106.9325
167.4688,106.9253
167.3313,106.9215
167.3313,106.9215
167.3283,106.9214
167.3252,106.9210
167.3252,106.9210
167.1367,106.8972
166.9344,106.8717
166.9314,106.8710
166.9314,106.8710
166.5503,106.7844
166.5503,106.7844
166.5473,106.7837
166.3994,106.7345
166.1735,106.6594
166.1735,106.6594
166.1706,106.6584
166.0274,106.5946
165.8107,106.4982
165.8107,106.4982
165.8079,106.4969
165.7754,106.4785
165.4654,106.3024
165.4654,106.3024
165.4627,106.3008
165.1383,106.0720
165.1295,106.0644
164.8401,105.8146
164.8378,105.8126
164.8357,105.8104
164.8357,105.8104
164.5661,105.5273
164.5640,105.5251
164.5615,105.5219
164.3215,105.2147
164.3215,105.2147
164.3196,105.2123
164.3180,105.2097
164.3180,105.2097
164.1086,104.8797
164.1085,104.8797
164.1069,104.8771
164.0806,104.8250
164.0048,104.6749
163.9279,104.5227
163.9268,104.5199
163.9268,104.5199
163.7855,104.1555
163.7855,104.1555
163.7843,104.1526
163.6943,103.8300
163.6784,103.7732
163.6784,103.7732
163.6776,103.7702
163.6086,103.3793
163.5782,102.9835
163.5766,102.8700
57.0286,102.8700
57.0083,103.2556
57.0078,103.2588
57.0078,103.2588
56.9892,103.3762
56.9480,103.6369
56.8480,104.0098
56.7097,104.3703
56.7082,104.3732
56.6320,104.5227
56.5344,104.7143
56.5326,104.7170
56.5326,104.7170
56.4287,104.8771
56.3241,105.0381
56.0811,105.3381
55.8081,105.6111
55.5081,105.8541
55.1843,106.0644
55.1813,106.0659
55.1813,106.0659
54.9051,106.2067
54.8403,106.2397
54.4798,106.3780
54.1069,106.4780
53.9044,106.5100
53.7288,106.5378
53.7288,106.5378
53.7256,106.5383
53.3400,106.5586
52.9544,106.5383
52.9512,106.5378
52.9512,106.5378
52.7756,106.5100
52.5731,106.4780
52.2002,106.3780
51.8397,106.2397
51.7749,106.2067
51.4987,106.0659
51.4987,106.0659
51.4957,106.0644
51.1719,105.8541
50.8719,105.6111
50.5989,105.3381
50.3559,105.0381
50.2513,104.8771
50.1474,104.7170
50.1474,104.7170
50.1456,104.7143
50.0480,104.5227
49.9718,104.3732
49.9703,104.3703
49.8320,104.0098
49.7320,103.6369
49.6908,103.3762
49.6722,103.2588
49.6722,103.2588
49.6717,103.2556
49.6514,102.8700
49.6544,102.8133
32.0030,102.8133
32.0029,102.8164
32.0025,102.8275
31.9907,103.1668
31.9891,103.2100
31.9887,103.2131
31.9887,103.2131
31.9826,103.2588
31.9366,103.6035
31.9359,103.6065
31.9359,103.6065
31.8835,103.8300
31.8460,103.9900
31.7180,104.3658
31.5541,104.7274
31.3556,105.0712
31.3538,105.0737
31.3538,105.0737
31.1565,105.3492
31.1245,105.3940
31.1224,105.3963
31.1224,105.3963
30.9574,105.5848
30.8630,105.6927
30.8607,105.6948
30.5758,105.9623
30.5758,105.9623
30.5736,105.9644
30.5711,105.9663
30.5711,105.9663
30.2615,106.2048
30.2590,106.2067
30.2564,106.2083
30.2564,106.2083
30.0750,106.3216
29.9224,106.4170
29.5668,106.5935
29.1957,106.7345
28.8126,106.8386
28.8095,106.8391
28.8095,106.8391
28.4242,106.9043
28.4242,106.9043
28.4211,106.9048
28.4181,106.9050
28.4180,106.9050
28.0282,106.9323
28.0282,106.9323
28.0251,106.9325
27.7688,106.9253
27.6313,106.9215
27.6313,106.9215
27.6283,106.9214
27.6252,106.9210
27.6252,106.9210
27.4367,106.8972
27.2344,106.8717
27.2314,106.8710
27.2314,106.8710
26.8503,106.7844
26.8503,106.7844
26.8473,106.7837
26.6994,106.7345
26.4735,106.6594
26.4735,106.6594
26.4706,106.6584
26.3274,106.5946
26.1107,106.4982
26.1107,106.4982
26.1079,106.4969
26.0754,106.4785
25.7654,106.3024
25.7654,106.3024
25.7627,106.3008
25.4383,106.0720
25.4295,106.0644
25.1401,105.8146
25.1378,105.8126
25.1357,105.8104
25.1357,105.8104
24.8661,105.5273
24.8640,105.5251
24.8615,105.5219
24.6215,105.2147
24.6215,105.2147
24.6196,105.2123
24.6180,105.2097
24.6180,105.2097
24.4086,104.8797
24.4085,104.8797
24.4069,104.8771
24.3806,104.8250
24.3048,104.6749
24.2279,104.5227
24.2268,104.5199
24.2268,104.5199
24.0855,104.1555
24.0855,104.1555
24.0843,104.1526
23.9943,103.8300
23.9784,103.7732
23.9784,103.7732
23.9776,103.7702
23.9086,103.3793
23.8782,102.9835
23.8766,102.8700
23.8780,102.8421
23.8932,102.5310
23.8960,102.4735
23.9354,102.2069
23.9535,102.0838
23.9535,102.0838
23.9540,102.0807
24.0500,101.6955
24.0683,101.6443
24.1149,101.5135
24.1832,101.3216
24.3522,100.9624
24.3820,100.9124
24.4926,100.7269
24.5555,100.6214
24.7911,100.3018
25.0567,100.0068
25.3499,99.7391
25.6678,99.5013
25.7166,99.4717
26.0047,99.2972
26.0047,99.2972
26.0074,99.2956
26.3654,99.1241
26.4248,99.1025
26.7355,98.9894
26.7355,98.9894
26.7384,98.9883
26.9453,98.9352
27.1200,98.8904
27.1200,98.8904
27.1229,98.8896
27.5153,98.8289
27.5183,98.8287
27.5183,98.8287
27.5471,98.8271
27.9116,98.8067
27.9147,98.8068
27.9147,98.8068
28.1730,98.8177
28.3083,98.8233
28.3113,98.8238
28.3113,98.8238
28.3510,98.8293
28.7014,98.8786
29.0873,98.9719
29.4622,99.1025
29.5090,99.1241
29.8198,99.2677
29.8198,99.2677
29.8226,99.2690
30.1650,99.4699
30.2060,99.4997
30.4837,99.7014
30.4837,99.7014
30.4861,99.7032
30.4884,99.7053
30.4884,99.7053
30.5289,99.7412
30.7830,99.9668
30.7851,99.9691
30.7851,99.9691
31.0506,100.2558
31.0507,100.2558
31.0527,100.2581
31.0546,100.2605
31.0546,100.2606
31.0878,100.3043
31.2928,100.5743
31.2944,100.5769
31.2944,100.5769
31.4992,100.9098
31.5008,100.9124
31.6748,101.2693
31.6759,101.2721
31.6759,101.2721
31.7619,101.5033
31.8132,101.6414
31.9146,102.0252
31.9781,102.4171
31.9783,102.4201
31.9783,102.4201
31.9852,102.5310
32.0030,102.8133
49.6544,102.8133
49.6717,102.4844
49.6729,102.4766
49.7315,102.1064
49.7320,102.1031
49.8320,101.7302
49.8441,101.6986
49.9692,101.3728
49.9703,101.3697
50.0229,101.2665
50.1441,101.0287
50.1441,101.0287
50.1456,101.0257
50.1963,100.9477
50.3541,100.7047
50.3559,100.7019
50.5989,100.4019
50.8719,100.1289
51.1719,99.8859
51.4008,99.7373
51.4930,99.6774
51.4930,99.6774
51.4957,99.6756
51.4987,99.6741
51.4987,99.6741
51.8368,99.5018
51.8397,99.5003
52.2002,99.3620
52.5731,99.2620
52.7756,99.2300
52.9512,99.2022
52.9512,99.2022
52.9544,99.2017
53.3400,99.1814
53.7256,99.2017
53.7288,99.2022
53.7288,99.2022
53.9044,99.2300
54.1069,99.2620
54.4798,99.3620
54.8403,99.5003
54.8432,99.5018
55.1813,99.6741
55.1813,99.6741
55.1843,99.6756
55.1870,99.6774
55.1870,99.6774
55.4008,99.8163
55.5081,99.8859
55.8081,100.1289
56.0811,100.4019
56.3241,100.7019
56.3259,100.7047
56.4837,100.9477
56.5344,101.0257
56.5359,101.0287
56.5359,101.0287
56.6571,101.2665
56.7097,101.3697
56.7108,101.3728
56.8359,101.6986
56.8480,101.7302
56.9480,102.1031
56.9485,102.1064
57.0071,102.4766
57.0083,102.4844
57.0271,102.8421
57.0286,102.8700
163.5766,102.8700
163.5780,102.8421
163.5932,102.5310
163.5960,102.4735
163.6354,102.2069
163.6535,102.0838
163.6535,102.0838
163.6540,102.0807
163.7500,101.6955
163.7683,101.6443
163.8149,101.5135
163.8832,101.3216
164.0522,100.9624
164.0820,100.9124
164.1926,100.7269
164.2555,100.6214
164.4911,100.3018
164.7567,100.0068
165.0499,99.7391
165.3678,99.5013
165.4166,99.4717
165.7047,99.2972
165.7047,99.2972
165.7074,99.2956
166.0654,99.1241
166.1248,99.1025
166.4355,98.9894
166.4355,98.9894
166.4384,98.9883
166.6453,98.9352
166.8200,98.8904
166.8200,98.8904
166.8229,98.8896
167.2153,98.8289
167.2183,98.8287
167.2183,98.8287
167.2471,98.8271
167.6116,98.8067
167.6147,98.8068
167.6147,98.8068
167.8730,98.8177
168.0083,98.8233
168.0113,98.8238
168.0113,98.8238
168.0510,98.8293
168.4014,98.8786
168.7873,98.9719
169.1622,99.1025
169.2090,99.1241
169.5198,99.2677
169.5198,99.2677
169.5226,99.2690
169.8650,99.4699
169.9060,99.4997
170.1837,99.7014
170.1837,99.7014
170.1861,99.7032
170.1884,99.7053
170.1884,99.7053
170.2289,99.7412
170.4830,99.9668
170.4851,99.9691
170.4851,99.9691
170.7506,100.2558
170.7507,100.2558
170.7527,100.2581
170.7546,100.2605
170.7546,100.2606
170.7878,100.3043
170.9928,100.5743
170.9944,100.5769
170.9944,100.5769
171.1992,100.9098
171.2008,100.9124
171.3748,101.2693
171.3759,101.2721
171.3759,101.2721
171.4619,101.5033
171.5132,101.6414
171.6146,102.0252
171.6781,102.4171
171.6783,102.4201
171.6783,102.4201
171.6852,102.5310
171.7030,102.8133
192.5315,102.8133
192.5315,77.3388
128.2018,77.3388
128.2004,77.4143
128.1937,77.7848
128.1934,77.7876
128.1482,78.2065
128.1459,78.2284
128.1453,78.2311
128.1453,78.2311
128.0745,78.5870
128.0588,78.6659
128.0580,78.6686
128.0580,78.6686
128.0334,78.7526
127.9332,79.0940
127.9322,79.0966
127.9322,79.0966
127.7746,79.4976
127.7701,79.5092
127.7086,79.6322
127.6187,79.8123
127.5707,79.9083
127.3366,80.2880
127.0697,80.6455
127.0678,80.6476
127.0678,80.6476
126.7931,80.9543
126.7720,80.9778
126.7700,80.9797
126.7700,80.9797
126.6007,81.1378
126.4460,81.2823
126.4438,81.2840
126.4438,81.2840
126.2174,81.4606
126.0943,81.5567
125.9334,81.6605
125.7218,81.7972
125.7218,81.7972
125.7195,81.7987
125.3247,82.0064
125.3221,82.0075
124.9155,82.1771
124.9155,82.1771
124.9130,82.1782
124.9103,82.1790
124.9103,82.1790
124.6787,82.2523
124.4876,82.3127
124.4849,82.3133
124.4849,82.3133
124.0923,82.4000
124.0520,82.4089
124.0492,82.4093
124.0492,82.4093
123.6123,82.4656
123.6123,82.4656
123.6095,82.4660
123.6067,82.4661
123.6067,82.4661
123.3485,82.4762
123.1637,82.4835
123.1610,82.4833
123.1610,82.4833
122.7210,82.4614
122.7210,82.4614
122.7182,82.4613
122.7154,82.4609
122.7154,82.4609
122.6375,82.4500
122.2764,82.3996
122.2736,82.3990
122.2736,82.3990
121.8445,82.2995
121.8418,82.2989
121.6190,82.2258
121.4205,82.1608
121.4205,82.1608
121.4178,82.1599
121.0079,81.9838
120.6153,81.7719
120.2431,81.5260
119.8942,81.2480
119.5714,80.9401
119.3379,80.6738
119.2791,80.6068
119.2791,80.6068
119.2773,80.6047
119.2492,80.5663
119.0698,80.3207
119.0141,80.2445
119.0127,80.2421
118.7855,79.8647
118.7855,79.8647
118.7840,79.8623
118.5966,79.4771
118.5900,79.4637
118.5900,79.4637
118.5888,79.4611
118.4588,79.1199
118.4310,79.0468
118.4310,79.0468
118.4300,79.0442
118.3089,78.6148
118.3084,78.6121
118.2270,78.1792
118.2270,78.1791
118.2265,78.1764
118.1953,77.8556
118.1835,77.7346
118.1835,77.7346
118.1833,77.7324
118.1765,77.4700
101.4786,77.4700
101.4583,77.8556
101.4578,77.8588
101.4578,77.8588
101.4402,77.9703
101.3980,78.2369
101.2980,78.6098
101.2968,78.6129
101.2968,78.6129
101.2776,78.6631
101.1597,78.9703
101.1582,78.9732
101.0820,79.1227
100.9844,79.3143
100.9826,79.3170
100.9826,79.3170
100.8787,79.4771
100.7741,79.6381
100.5311,79.9381
100.2581,80.2111
99.9581,80.4541
99.9553,80.4559
99.6602,80.6476
99.6343,80.6644
99.6313,80.6659
99.6313,80.6659
99.3551,80.8067
99.2903,80.8397
99.1309,80.9008
98.9358,80.9757
98.9298,80.9780
98.5569,81.0780
98.3544,81.1100
98.1788,81.1378
98.1788,81.1378
98.1756,81.1383
97.7900,81.1586
97.4044,81.1383
97.4012,81.1378
97.4012,81.1378
97.2256,81.1100
97.0231,81.0780
96.6502,80.9780
96.6442,80.9757
96.4491,80.9008
96.2897,80.8397
96.2249,80.8067
95.9487,80.6659
95.9487,80.6659
95.9457,80.6644
95.9198,80.6476
95.6247,80.4559
95.6219,80.4541
95.3219,80.2111
95.0489,79.9381
94.8059,79.6381
94.7013,79.4771
94.5974,79.3170
94.5974,79.3170
94.5956,79.3143
94.4980,79.1227
94.4218,78.9732
94.4203,78.9703
94.3024,78.6631
94.2832,78.6129
94.2832,78.6129
94.2820,78.6098
94.1820,78.2369
94.1398,77.9703
94.1222,77.8588
94.1222,77.8588
94.1217,77.8556
94.1014,77.4700
94.1044,77.4133
76.4530,77.4133
76.4529,77.4164
76.4525,77.4275
76.4394,77.8040
76.4391,77.8100
76.4387,77.8131
76.4387,77.8131
76.4326,77.8588
76.3866,78.2035
76.3859,78.2065
76.3859,78.2065
76.3335,78.4300
76.2960,78.5900
76.1680,78.9658
76.0040,79.3274
75.8056,79.6712
75.8038,79.6737
75.8038,79.6737
75.6065,79.9492
75.5745,79.9940
75.5724,79.9963
75.5724,79.9963
75.4074,80.1848
75.3130,80.2927
75.3107,80.2948
75.0258,80.5623
75.0258,80.5623
75.0236,80.5644
75.0211,80.5663
75.0211,80.5663
74.7857,80.7476
74.7090,80.8067
74.7064,80.8083
74.7064,80.8083
74.5250,80.9216
74.3724,81.0170
74.0168,81.1935
73.6457,81.3345
73.2626,81.4386
73.2595,81.4391
73.2595,81.4391
72.8742,81.5043
72.8742,81.5043
72.8711,81.5048
72.8681,81.5050
72.8680,81.5050
72.4782,81.5323
72.4782,81.5323
72.4751,81.5325
72.2188,81.5253
72.0813,81.5215
72.0813,81.5215
72.0783,81.5214
72.0752,81.5210
72.0752,81.5210
71.8867,81.4972
71.6844,81.4717
71.6814,81.4710
71.6814,81.4710
71.3003,81.3844
71.3003,81.3844
71.2973,81.3837
71.1494,81.3345
70.9235,81.2594
70.9235,81.2594
70.9206,81.2584
70.9178,81.2571
70.5607,81.0982
70.5607,81.0982
70.5579,81.0969
70.5254,81.0785
70.2154,80.9024
70.2154,80.9024
70.2127,80.9008
69.8883,80.6720
69.8795,80.6644
69.5901,80.4146
69.5878,80.4126
69.5857,80.4104
69.5857,80.4104
69.3161,80.1273
69.3140,80.1251
69.3115,80.1219
69.0715,79.8147
69.0715,79.8147
69.0696,79.8123
69.0680,79.8097
69.0680,79.8097
68.8586,79.4797
68.8585,79.4797
68.8569,79.4771
68.8501,79.4637
68.7548,79.2749
68.6779,79.1227
68.6768,79.1199
68.6768,79.1199
68.5355,78.7555
68.5355,78.7555
68.5343,78.7526
68.4443,78.4300
68.4284,78.3732
68.4284,78.3732
68.4276,78.3702
68.3586,77.9793
68.3282,77.5835
68.3266,77.4700
68.3280,77.4421
68.3432,77.1310
68.3460,77.0735
68.3528,77.0271
68.4035,76.6838
68.4035,76.6838
68.4040,76.6807
68.5000,76.2955
68.5183,76.2443
68.5988,76.0183
68.6332,75.9216
68.7857,75.5975
68.8009,75.5651
68.8009,75.5651
68.8022,75.5624
68.8320,75.5124
68.9532,75.3091
69.0055,75.2214
69.2411,74.9018
69.5067,74.6068
69.7999,74.3391
70.1178,74.1013
70.1666,74.0717
70.4547,73.8972
70.4547,73.8972
70.4574,73.8956
70.8154,73.7241
70.8748,73.7025
71.1855,73.5894
71.1855,73.5894
71.1884,73.5883
71.5310,73.5004
71.5700,73.4904
71.5700,73.4904
71.5729,73.4896
71.9653,73.4289
71.9683,73.4287
71.9683,73.4287
71.9971,73.4271
72.3616,73.4067
72.3647,73.4068
72.3647,73.4068
72.6230,73.4177
72.7583,73.4233
72.7613,73.4238
72.7613,73.4238
72.8010,73.4293
73.1514,73.4786
73.5373,73.5719
73.9122,73.7025
73.9590,73.7241
74.2698,73.8677
74.2698,73.8677
74.2726,73.8690
74.6150,74.0699
74.7402,74.1609
74.9337,74.3014
74.9337,74.3014
74.9361,74.3032
74.9384,74.3053
74.9384,74.3053
75.0914,74.4411
75.2330,74.5668
75.2351,74.5691
75.2351,74.5691
75.5006,74.8558
75.5007,74.8558
75.5027,74.8581
75.5046,74.8606
75.5046,74.8606
75.5378,74.9043
75.7428,75.1743
75.7444,75.1769
75.7444,75.1769
75.9492,75.5098
75.9508,75.5124
76.1248,75.8693
76.1259,75.8721
76.1259,75.8721
76.1802,76.0183
76.2632,76.2414
76.3646,76.6252
76.3651,76.6282
76.4081,76.8938
76.4281,77.0171
76.4283,77.0201
76.4283,77.0201
76.4485,77.3416
76.4530,77.4133
94.1044,77.4133
94.1217,77.0844
94.1223,77.0805
94.1815,76.7064
94.1820,76.7031
94.2820,76.3302
94.2941,76.2986
94.4192,75.9728
94.4203,75.9697
94.4729,75.8665
94.5941,75.6287
94.5941,75.6287
94.5956,75.6257
94.6463,75.5477
94.8041,75.3047
94.8059,75.3019
95.0489,75.0019
95.3219,74.7289
95.6219,74.4859
95.8508,74.3373
95.9430,74.2774
95.9430,74.2774
95.9457,74.2756
95.9487,74.2741
95.9487,74.2741
96.2868,74.1018
96.2897,74.1003
96.6502,73.9620
97.0231,73.8620
97.2256,73.8300
97.4012,73.8022
97.4012,73.8022
97.4044,73.8017
97.7900,73.7814
98.1756,73.8017
98.1788,73.8022
98.1788,73.8022
98.3544,73.8300
98.5569,73.8620
98.9298,73.9620
99.2903,74.1003
99.2932,74.1018
99.6313,74.2741
99.6313,74.2741
99.6343,74.2756
99.6370,74.2774
99.6370,74.2774
99.7631,74.3593
99.9581,74.4859
100.2581,74.7289
100.5311,75.0019
100.7741,75.3019
100.7759,75.3047
100.9337,75.5477
100.9844,75.6257
100.9859,75.6287
100.9859,75.6287
101.1071,75.8665
101.1597,75.9697
101.1608,75.9728
101.2859,76.2986
101.2980,76.3302
101.3980,76.7031
101.3985,76.7064
101.4577,77.0805
101.4583,77.0844
101.4771,77.4421
101.4786,77.4700
118.1765,77.4700
118.1963,77.0243
118.2557,76.5822
118.2902,76.4297
118.3535,76.1498
118.3541,76.1471
118.4909,75.7224
118.4976,75.7066
118.6638,75.3142
118.6638,75.3142
118.6648,75.3116
118.6685,75.3047
118.8733,74.9204
118.8746,74.9179
118.8761,74.9156
119.1171,74.5467
119.1171,74.5467
119.1186,74.5444
119.2018,74.4388
119.3930,74.1962
119.3930,74.1962
119.3948,74.1940
119.7010,73.8696
119.8652,73.7241
120.0328,73.5756
120.0328,73.5756
120.0349,73.5737
120.3937,73.3087
120.5946,73.1863
120.7723,73.0780
120.7723,73.0780
120.7747,73.0766
120.8970,73.0163
121.1723,72.8805
121.1748,72.8793
121.5909,72.7183
121.7274,72.6790
122.0169,72.5957
122.0169,72.5957
122.0196,72.5950
122.0223,72.5944
122.0224,72.5944
122.1734,72.5652
122.4576,72.5102
122.4604,72.5100
122.4604,72.5100
122.7352,72.4818
122.9014,72.4648
122.9042,72.4647
122.9042,72.4647
123.1827,72.4611
123.3475,72.4589
123.3503,72.4591
123.3503,72.4591
123.7895,72.4926
123.7923,72.4928
124.2324,72.5660
124.3224,72.5894
124.6615,72.6774
124.6615,72.6774
124.6642,72.6781
124.9326,72.7739
125.0817,72.8272
125.0817,72.8272
125.0843,72.8281
125.0869,72.8293
125.0869,72.8293
125.1953,72.8793
125.4895,73.0149
125.8764,73.2369
125.8787,73.2385
125.8787,73.2385
126.1193,73.4067
126.2421,73.4925
126.2442,73.4943
126.2442,73.4943
126.5712,73.7691
126.5835,73.7795
126.5855,73.7815
126.5855,73.7815
126.6725,73.8690
126.8982,74.0958
126.9000,74.0980
126.9000,74.0980
126.9019,74.1003
127.1834,74.4388
127.4371,74.8058
127.6571,75.1939
127.6583,75.1964
127.6583,75.1964
127.8406,75.5975
127.8406,75.5975
127.8418,75.6000
127.8427,75.6026
127.8427,75.6026
127.9198,75.8224
127.9896,76.0209
127.9903,76.0236
127.9903,76.0236
128.0593,76.2955
128.0994,76.4533
128.0998,76.4561
128.0998,76.4561
128.1563,76.8069
128.1703,76.8938
128.1705,76.8966
128.1705,76.8966
128.1830,77.0735
128.2018,77.3388
192.5315,77.3388
192.5315,62.1927
168.5078,62.1927
168.5021,62.2003
168.3310,62.3052
168.3222,62.3097
168.1120,62.3967
168.1026,62.3998
167.8814,62.4529
167.8717,62.4544
167.6449,62.4723
167.6351,62.4723
167.4083,62.4544
167.3986,62.4529
167.1774,62.3998
167.1680,62.3967
166.9578,62.3097
166.9490,62.3052
166.7816,62.2026
166.7721,62.1921
166.7759,62.1833
167.6272,61.3320
167.6411,61.3244
167.6430,61.3245
167.6496,61.3288
168.5011,62.1803
168.5078,62.1927
192.5315,62.1927
192.5315,60.9649
169.1523,60.9649
169.1344,61.1917
169.1329,61.2014
169.0798,61.4226
169.0767,61.4320
168.9897,61.6422
168.9852,61.6510
168.8826,61.8184
168.8721,61.8279
168.8633,61.8241
168.0120,60.9728
168.0056,60.9611
167.2756,60.9611
167.2755,60.9630
167.2712,60.9696
166.4197,61.8211
166.4073,61.8278
166.3997,61.8221
166.2948,61.6510
166.2903,61.6422
166.2033,61.4320
166.2002,61.4226
166.1471,61.2014
166.1456,61.1917
166.1277,60.9649
166.1277,60.9551
166.1456,60.7283
166.1471,60.7186
166.2002,60.4974
166.2033,60.4880
166.2903,60.2778
166.2948,60.2690
166.3974,60.1016
166.4079,60.0921
166.4167,60.0959
167.2680,60.9472
167.2756,60.9611
168.0056,60.9611
168.0044,60.9589
168.0045,60.9570
168.0088,60.9504
168.8603,60.0989
168.8727,60.0922
168.8803,60.0979
168.9852,60.2690
168.9897,60.2778
169.0767,60.4880
169.0798,60.4974
169.1329,60.7186
169.1344,60.7283
169.1523,60.9551
169.1523,60.9649
192.5315,60.9649
192.5315,59.7279
168.5079,59.7279
168.5041,59.7367
167.6528,60.5880
167.6389,60.5956
167.6370,60.5955
167.6304,60.5912
166.7789,59.7397
166.7722,59.7273
166.7779,59.7197
166.9490,59.6148
166.9578,59.6103
167.1680,59.5233
167.1774,59.5202
167.3986,59.4671
167.4083,59.4656
167.6351,59.4477
167.6449,59.4477
167.8717,59.4656
167.8814,59.4671
168.1026,59.5202
168.1120,59.5233
168.3222,59.6103
168.3310,59.6148
168.4984,59.7174
168.5079,59.7279
192.5315,59.7279
192.5315,52.0133
171.7030,52.0133
171.7029,52.0164
171.7025,52.0275
171.6907,52.3668
171.6891,52.4100
171.6887,52.4131
171.6887,52.4131
171.6826,52.4588
171.6366,52.8035
171.6359,52.8065
171.6359,52.8065
171.5835,53.0300
171.5460,53.1900
171.4180,53.5658
171.2540,53.9274
171.0556,54.2712
171.0538,54.2737
171.0538,54.2737
170.8565,54.5492
170.8245,54.5940
170.8224,54.5963
170.8224,54.5963
170.6574,54.7848
170.5630,54.8927
170.5607,54.8948
170.2758,55.1623
170.2758,55.1623
170.2736,55.1644
170.2711,55.1663
170.2711,55.1663
169.9615,55.4048
169.9590,55.4067
169.9564,55.4083
169.9564,55.4083
169.7750,55.5216
169.6224,55.6170
169.2668,55.7935
168.8957,55.9345
168.5126,56.0386
168.5095,56.0391
168.5095,56.0391
168.1242,56.1043
168.1242,56.1043
168.1211,56.1048
168.1181,56.1050
168.1180,56.1050
167.7282,56.1323
167.7282,56.1323
167.7251,56.1325
167.4688,56.1253
167.3313,56.1215
167.3313,56.1215
167.3283,56.1214
167.3252,56.1210
167.3252,56.1210
167.1367,56.0972
166.9344,56.0717
166.9314,56.0710
166.9314,56.0710
166.5503,55.9844
166.5503,55.9844
166.5473,55.9837
166.3994,55.9345
166.1735,55.8594
166.1735,55.8594
166.1706,55.8584
166.0274,55.7946
165.8107,55.6982
165.8107,55.6982
165.8079,55.6969
165.7754,55.6785
165.4654,55.5024
165.4654,55.5024
165.4627,55.5008
165.1383,55.2720
165.1295,55.2644
164.8401,55.0146
164.8378,55.0126
164.8357,55.0104
164.8357,55.0104
164.5661,54.7273
164.5640,54.7251
164.5615,54.7219
164.3215,54.4147
164.3215,54.4147
164.3196,54.4123
164.3180,54.4097
164.3180,54.4097
164.1086,54.0797
164.1085,54.0797
164.1069,54.0771
164.0806,54.0250
164.0048,53.8749
163.9279,53.7227
163.9268,53.7199
163.9268,53.7199
163.7855,53.3555
163.7855,53.3555
163.7843,53.3526
163.6943,53.0300
163.6784,52.9732
163.6784,52.9732
163.6776,52.9702
163.6086,52.5793
163.5782,52.1835
163.5766,52.0700
57.0286,52.0700
57.0083,52.4556
57.0078,52.4588
57.0078,52.4588
56.9892,52.5762
56.9480,52.8369
56.8480,53.2098
56.7097,53.5703
56.7082,53.5732
56.6320,53.7227
56.5344,53.9143
56.5326,53.9170
56.5326,53.9170
56.4287,54.0771
56.3241,54.2381
56.0811,54.5381
55.8081,54.8111
55.5081,55.0541
55.1843,55.2644
55.1813,55.2659
55.1813,55.2659
54.9051,55.4067
54.8403,55.4397
54.4798,55.5780
54.1069,55.6780
53.9044,55.7100
53.7288,55.7378
53.7288,55.7378
53.7256,55.7383
53.3400,55.7586
52.9544,55.7383
52.9512,55.7378
52.9512,55.7378
52.7756,55.7100
52.5731,55.6780
52.2002,55.5780
51.8397,55.4397
51.7749,55.4067
51.4987,55.2659
51.4987,55.2659
51.4957,55.2644
51.1719,55.0541
50.8719,54.8111
50.5989,54.5381
50.3559,54.2381
50.2513,54.0771
50.1474,53.9170
50.1474,53.9170
50.1456,53.9143
50.0480,53.7227
49.9718,53.5732
49.9703,53.5703
49.8320,53.2098
49.7320,52.8369
49.6908,52.5762
49.6722,52.4588
49.6722,52.4588
49.6717,52.4556
49.6514,52.0700
49.6544,52.0133
32.0030,52.0133
32.0029,52.0164
32.0025,52.0275
31.9907,52.3668
31.9891,52.4100
31.9887,52.4131
31.9887,52.4131
31.9826,52.4588
31.9366,52.8035
31.9359,52.8065
31.9359,52.8065
31.8835,53.0300
31.8460,53.1900
31.7180,53.5658
31.5541,53.9274
31.3556,54.2712
31.3538,54.2737
31.3538,54.2737
31.1565,54.5492
31.1245,54.5940
31.1224,54.5963
31.1224,54.5963
30.9574,54.7848
30.8630,54.8927
30.8607,54.8948
30.5758,55.1623
30.5758,55.1623
30.5736,55.1644
30.5711,55.1663
30.5711,55.1663
30.2615,55.4048
30.2590,55.4067
30.2564,55.4083
30.2564,55.4083
30.0750,55.5216
29.9224,55.6170
29.5668,55.7935
29.1957,55.9345
28.8126,56.0386
28.8095,56.0391
28.8095,56.0391
28.4242,56.1043
28.4242,56.1043
28.4211,56.1048
28.4181,56.1050
28.4180,56.1050
28.0282,56.1323
28.0282,56.1323
28.0251,56.1325
27.7688,56.1253
27.6313,56.1215
27.6313,56.1215
27.6283,56.1214
27.6252,56.1210
27.6252,56.1210
27.4367,56.0972
27.2344,56.0717
27.2314,56.0710
27.2314,56.0710
26.8503,55.9844
26.8503,55.9844
26.8473,55.9837
26.6994,55.9345
26.4735,55.8594
26.4735,55.8594
26.4706,55.8584
26.3274,55.7946
26.1107,55.6982
26.1107,55.6982
26.1079,55.6969
26.0754,55.6785
25.7654,55.5024
25.7654,55.5024
25.7627,55.5008
25.4383,55.2720
25.4295,55.2644
25.1401,55.0146
25.1378,55.0126
25.1357,55.0104
25.1357,55.0104
24.8661,54.7273
24.8640,54.7251
24.8615,54.7219
24.6215,54.4147
24.6215,54.4147
24.6196,54.4123
24.6180,54.4097
24.6180,54.4097
24.4086,54.0797
24.4085,54.0797
24.4069,54.0771
24.3806,54.0250
24.3048,53.8749
24.2279,53.7227
24.2268,53.7199
24.2268,53.7199
24.0855,53.3555
24.0855,53.3555
24.0843,53.3526
23.9943,53.0300
23.9784,52.9732
23.9784,52.9732
23.9776,52.9702
23.9086,52.5793
23.8782,52.1835
23.8766,52.0700
23.8780,52.0421
23.8932,51.7310
23.8960,51.6735
23.9354,51.4069
23.9535,51.2838
23.9535,51.2838
23.9540,51.2807
24.0500,50.8956
24.0683,50.8443
24.1149,50.7135
24.1832,50.5216
24.3522,50.1624
24.3820,50.1124
24.4926,49.9269
24.5555,49.8214
24.7911,49.5018
25.0567,49.2068
25.3499,48.9391
25.6678,48.7013
25.7166,48.6717
26.0047,48.4972
26.0047,48.4972
26.0074,48.4956
26.3654,48.3241
26.4248,48.3025
26.7355,48.1894
26.7355,48.1894
26.7384,48.1883
26.9453,48.1352
27.1200,48.0904
27.1200,48.0904
27.1229,48.0896
27.5153,48.0289
27.5183,48.0287
27.5183,48.0287
27.5471,48.0271
27.9116,48.0067
27.9147,48.0068
27.9147,48.0068
28.1730,48.0177
28.3083,48.0233
28.3113,48.0238
28.3113,48.0238
28.3510,48.0293
28.7014,48.0786
29.0873,48.1719
29.4622,48.3025
29.5090,48.3241
29.8198,48.4677
29.8198,48.4677
29.8226,48.4690
30.1650,48.6699
30.2060,48.6997
30.4837,48.9014
30.4837,48.9014
30.4861,48.9032
30.4884,48.9053
30.4884,48.9053
30.5289,48.9412
30.7830,49.1668
30.7851,49.1691
30.7851,49.1691
31.0506,49.4558
31.0507,49.4558
31.0527,49.4581
31.0546,49.4605
31.0546,49.4606
31.0878,49.5043
31.2928,49.7743
31.2944,49.7769
31.2944,49.7769
31.4992,50.1098
31.5008,50.1124
31.6748,50.4693
31.6759,50.4721
31.6759,50.4721
31.7619,50.7033
31.8132,50.8414
31.9146,51.2252
31.9781,51.6171
31.9783,51.6201
31.9783,51.6201
31.9852,51.7310
32.0030,52.0133
49.6544,52.0133
49.6717,51.6844
49.6729,51.6766
49.7315,51.3064
49.7320,51.3031
49.8320,50.9302
49.8441,50.8986
49.9692,50.5728
49.9703,50.5697
50.0229,50.4665
50.1441,50.2287
50.1441,50.2287
50.1456,50.2257
50.1963,50.1477
50.3541,49.9047
50.3559,49.9019
50.5989,49.6019
50.8719,49.3289
51.1719,49.0859
51.4008,48.9373
51.4930,48.8774
51.4930,48.8774
51.4957,48.8756
51.4987,48.8741
51.4987,48.8741
51.8368,48.7018
51.8397,48.7003
52.2002,48.5620
52.5731,48.4620
52.7756,48.4300
52.9512,48.4022
52.9512,48.4022
52.9544,48.4017
53.3400,48.3814
53.7256,48.4017
53.7288,48.4022
53.7288,48.4022
53.9044,48.4300
54.1069,48.4620
54.4798,48.5620
54.8403,48.7003
54.8432,48.7018
55.1813,48.8741
55.1813,48.8741
55.1843,48.8756
55.1870,48.8774
55.1870,48.8774
55.4008,49.0163
55.5081,49.0859
55.8081,49.3289
56.0811,49.6019
56.3241,49.9019
56.3259,49.9047
56.4837,50.1477
56.5344,50.2257
56.5359,50.2287
56.5359,50.2287
56.6571,50.4665
56.7097,50.5697
56.7108,50.5728
56.8359,50.8986
56.8480,50.9302
56.9480,51.3031
56.9485,51.3064
57.0071,51.6766
57.0083,51.6844
57.0271,52.0421
57.0286,52.0700
163.5766,52.0700
163.5780,52.0421
163.5932,51.7310
163.5960,51.6735
163.6354,51.4069
163.6535,51.2838
163.6535,51.2838
163.6540,51.2807
163.7500,50.8956
163.7683,50.8443
163.8149,50.7135
163.8832,50.5216
164.0522,50.1624
164.0820,50.1124
164.1926,49.9269
164.2555,49.8214
164.4911,49.5018
164.7567,49.2068
165.0499,48.9391
165.3678,48.7013
165.4166,48.6717
165.7047,48.4972
165.7047,48.4972
165.7074,48.4956
166.0654,48.3241
166.1248,48.3025
166.4355,48.1894
166.4355,48.1894
166.4384,48.1883
166.6453,48.1352
166.8200,48.0904
166.8200,48.0904
166.8229,48.0896
167.2153,48.0289
167.2183,48.0287
167.2183,48.0287
167.2471,48.0271
167.6116,48.0067
167.6147,48.0068
167.6147,48.0068
167.8730,48.0177
168.0083,48.0233
168.0113,48.0238
168.0113,48.0238
168.0510,48.0293
168.4014,48.0786
168.7873,48.1719
169.1622,48.3025
169.2090,48.3241
169.5198,48.4677
169.5198,48.4677
169.5226,48.4690
169.8650,48.6699
169.9060,48.6997
170.1837,48.9014
170.1837,48.9014
170.1861,48.9032
170.1884,48.9053
170.1884,48.9053
170.2289,48.9412
170.4830,49.1668
170.4851,49.1691
170.4851,49.1691
170.7506,49.4558
170.7507,49.4558
170.7527,49.4581
170.7546,49.4605
170.7546,49.4606
170.7878,49.5043
170.9928,49.7743
170.9944,49.7769
170.9944,49.7769
171.1992,50.1098
171.2008,50.1124
171.3748,50.4693
171.3759,50.4721
171.3759,50.4721
171.4619,50.7033
171.5132,50.8414
171.6146,51.2252
171.6781,51.6171
171.6783,51.6201
171.6783,51.6201
171.6852,51.7310
171.7030,52.0133
192.5315,52.0133
192.5315,26.5388
128.2018,26.5388
128.2004,26.6143
128.1937,26.9848
128.1934,26.9876
128.1482,27.4065
128.1459,27.4284
128.1453,27.4311
128.1453,27.4311
128.0745,27.7870
128.0588,27.8659
128.0580,27.8686
128.0580,27.8686
128.0334,27.9526
127.9332,28.2940
127.9322,28.2966
127.9322,28.2966
127.7746,28.6976
127.7701,28.7092
127.7086,28.8322
127.6187,29.0123
127.5707,29.1083
127.3366,29.4880
127.0697,29.8455
127.0678,29.8476
127.0678,29.8476
126.7931,30.1543
126.7720,30.1778
126.7700,30.1797
126.7700,30.1797
126.6007,30.3378
126.4460,30.4823
126.4438,30.4840
126.4438,30.4840
126.2174,30.6606
126.0943,30.7567
125.9334,30.8605
125.7218,30.9972
125.7218,30.9972
125.7195,30.9987
125.3247,31.2064
125.3221,31.2075
124.9155,31.3771
124.9155,31.3771
124.9130,31.3782
124.9103,31.3790
124.9103,31.3790
124.6787,31.4523
124.4876,31.5127
124.4849,31.5133
124.4849,31.5133
124.0923,31.6000
124.0520,31.6089
124.0492,31.6093
124.0492,31.6093
123.6123,31.6656
123.6123,31.6656
123.6095,31.6660
123.6067,31.6661
123.6067,31.6661
123.3485,31.6762
123.1637,31.6835
123.1610,31.6833
123.1610,31.6833
122.7210,31.6614
122.7210,31.6614
122.7182,31.6613
122.7154,31.6609
122.7154,31.6609
122.6375,31.6500
122.2764,31.5996
122.2736,31.5990
122.2736,31.5990
121.8445,31.4995
121.8418,31.4989
121.6190,31.4258
121.4205,31.3608
121.4205,31.3608
121.4178,31.3599
121.0079,31.1838
120.6153,30.9719
120.2431,30.7260
119.8942,30.4480
119.5714,30.1401
119.3379,29.8738
119.2791,29.8068
119.2791,29.8068
119.2773,29.8047
119.2492,29.7663
119.0698,29.5207
119.0141,29.4445
119.0127,29.4421
118.7855,29.0647
118.7855,29.0647
118.7840,29.0623
118.5966,28.6771
118.5900,28.6637
118.5900,28.6637
118.5888,28.6611
118.4588,28.3199
118.4310,28.2468
118.4310,28.2468
118.4300,28.2442
118.3089,27.8148
118.3084,27.8121
118.2270,27.3792
118.2270,27.3791
118.2265,27.3764
118.1953,27.0556
118.1835,26.9346
118.1835,26.9346
118.1833,26.9324
118.1765,26.6700
101.4786,26.6700
101.4583,27.0556
101.4578,27.0588
101.4578,27.0588
101.4402,27.1703
101.3980,27.4369
101.2980,27.8098
101.2968,27.8129
101.2968,27.8129
101.2776,27.8631
101.1597,28.1703
101.1582,28.1732
101.0820,28.3227
100.9844,28.5143
100.9826,28.5170
100.9826,28.5170
100.8787,28.6771
100.7741,28.8381
100.5311,29.1381
100.2581,29.4111
99.9581,29.6541
99.9553,29.6559
99.6602,29.8476
99.6343,29.8644
99.6313,29.8659
99.6313,29.8659
99.3551,30.0067
99.2903,30.0397
99.1309,30.1008
98.9358,30.1757
98.9298,30.1780
98.5569,30.2780
98.3544,30.3100
98.1788,30.3378
98.1788,30.3378
98.1756,30.3383
97.7900,30.3586
97.4044,30.3383
97.4012,30.3378
97.4012,30.3378
97.2256,30.3100
97.0231,30.2780
96.6502,30.1780
96.6442,30.1757
96.4491,30.1008
96.2897,30.0397
96.2249,30.0067
95.9487,29.8659
95.9487,29.8659
95.9457,29.8644
95.9198,29.8476
95.6247,29.6559
95.6219,29.6541
95.3219,29.4111
95.0489,29.1381
94.8059,28.8381
94.7013,28.6771
94.5974,28.5170
94.5974,28.5170
94.5956,28.5143
94.4980,28.3227
94.4218,28.1732
94.4203,28.1703
94.3024,27.8631
94.2832,27.8129
94.2832,27.8129
94.2820,27.8098
94.1820,27.4369
94.1398,27.1703
94.1222,27.0588
94.1222,27.0588
94.1217,27.0556
94.1014,26.6700
94.1044,26.6133
76.4530,26.6133
76.4529,26.6164
76.4525,26.6275
76.4394,27.0040
76.4391,27.0100
76.4387,27.0131
76.4387,27.0131
76.4326,27.0588
76.3866,27.4035
76.3859,27.4065
76.3859,27.4065
76.3335,27.6300
76.2960,27.7900
76.1680,28.1658
76.0040,28.5274
75.8056,28.8712
75.8038,28.8737
75.8038,28.8737
75.6065,29.1492
75.5745,29.1940
75.5724,29.1963
75.5724,29.1963
75.4074,29.3848
75.3130,29.4927
75.3107,29.4948
75.0258,29.7623
75.0258,29.7623
75.0236,29.7644
75.0211,29.7663
75.0211,29.7663
74.7857,29.9476
74.7090,30.0067
74.7064,30.0083
74.7064,30.0083
74.5250,30.1216
74.3724,30.2170
74.0168,30.3935
73.6457,30.5345
73.2626,30.6386
73.2595,30.6391
73.2595,30.6391
72.8742,30.7043
72.8742,30.7043
72.8711,30.7048
72.8681,30.7050
72.8680,30.7050
72.4782,30.7323
72.4782,30.7323
72.4751,30.7325
72.2188,30.7253
72.0813,30.7215
72.0813,30.7215
72.0783,30.7214
72.0752,30.7210
72.0752,30.7210
71.8867,30.6972
71.6844,30.6717
71.6814,30.6710
71.6814,30.6710
71.3003,30.5844
71.3003,30.5844
71.2973,30.5837
71.1494,30.5345
70.9235,30.4594
70.9235,30.4594
70.9206,30.4584
70.9178,30.4571
70.5607,30.2982
70.5607,30.2982
70.5579,30.2969
70.5254,30.2785
70.2154,30.1024
70.2154,30.1024
70.2127,30.1008
69.8883,29.8720
69.8795,29.8644
69.5901,29.6146
69.5878,29.6126
69.5857,29.6104
69.5857,29.6104
69.3161,29.3273
69.3140,29.3251
69.3115,29.3219
69.0715,29.0147
69.0715,29.0147
69.0696,29.0123
69.0680,29.0097
69.0680,29.0097
68.8586,28.6797
68.8585,28.6797
68.8569,28.6771
68.8501,28.6637
68.7548,28.4749
68.6779,28.3227
68.6768,28.3199
68.6768,28.3199
68.5355,27.9555
68.5355,27.9555
68.5343,27.9526
68.4443,27.6300
68.4284,27.5732
68.4284,27.5732
68.4276,27.5702
68.3586,27.1793
68.3282,26.7835
68.3266,26.6700
68.3280,26.6421
68.3432,26.3310
68.3460,26.2735
68.3528,26.2271
68.4035,25.8838
68.4035,25.8838
68.4040,25.8807
68.5000,25.4955
68.5183,25.4443
68.5988,25.2183
68.6332,25.1216
68.7857,24.7975
68.8009,24.7651
68.8009,24.7651
68.8022,24.7624
68.8320,24.7124
68.9532,24.5091
69.0055,24.4214
69.2411,24.1018
69.5067,23.8068
69.7999,23.5391
70.1178,23.3013
70.1666,23.2717
70.4547,23.0972
70.4547,23.0972
70.4574,23.0956
70.8154,22.9241
70.8748,22.9025
71.1855,22.7894
71.1855,22.7894
71.1884,22.7883
71.5310,22.7004
71.5700,22.6904
71.5700,22.6904
71.5729,22.6896
71.9653,22.6289
71.9683,22.6287
71.9683,22.6287
71.9971,22.6271
72.3616,22.6067
72.3647,22.6068
72.3647,22.6068
72.6230,22.6177
72.7583,22.6233
72.7613,22.6238
72.7613,22.6238
72.8010,22.6293
73.1514,22.6786
73.5373,22.7719
73.9122,22.9025
73.9590,22.9241
74.2698,23.0677
74.2698,23.0677
74.2726,23.0690
74.6150,23.2699
74.7402,23.3609
74.9337,23.5014
74.9337,23.5014
74.9361,23.5032
74.9384,23.5053
74.9384,23.5053
75.0914,23.6411
75.2330,23.7668
75.2351,23.7691
75.2351,23.7691
75.5006,24.0558
75.5007,24.0558
75.5027,24.0581
75.5046,24.0605
75.5046,24.0606
75.5378,24.1043
75.7428,24.3743
75.7444,24.3769
75.7444,24.3769
75.9492,24.7098
75.9508,24.7124
76.1248,25.0693
76.1259,25.0721
76.1259,25.0721
76.1802,25.2183
76.2632,25.4414
76.3646,25.8252
76.3651,25.8282
76.4081,26.0938
76.4281,26.2171
76.4283,26.2201
76.4283,26.2201
76.4485,26.5416
76.4530,26.6133
94.1044,26.6133
94.1217,26.2844
94.1223,26.2805
94.1815,25.9064
94.1820,25.9031
94.2820,25.5302
94.2941,25.4986
94.4192,25.1728
94.4203,25.1697
94.4729,25.0665
94.5941,24.8287
94.5941,24.8287
94.5956,24.8257
94.6463,24.7477
94.8041,24.5047
94.8059,24.5019
95.0489,24.2019
95.3219,23.9289
95.6219,23.6859
95.8508,23.5373
95.9430,23.4774
95.9430,23.4774
95.9457,23.4756
95.9487,23.4741
95.9487,23.4741
96.2868,23.3018
96.2897,23.3003
96.6502,23.1620
97.0231,23.0620
97.2256,23.0300
97.4012,23.0022
97.4012,23.0022
97.4044,23.0017
97.7900,22.9814
98.1756,23.0017
98.1788,23.0022
98.1788,23.0022
98.3544,23.0300
98.5569,23.0620
98.9298,23.1620
99.2903,23.3003
99.2932,23.3018
99.6313,23.4741
99.6313,23.4741
99.6343,23.4756
99.6370,23.4774
99.6370,23.4774
99.7631,23.5593
99.9581,23.6859
100.2581,23.9289
100.5311,24.2019
100.7741,24.5019
100.7759,24.5047
100.9337,24.7477
100.9844,24.8257
100.9859,24.8287
100.9859,24.8287
101.1071,25.0665
101.1597,25.1697
101.1608,25.1728
101.2859,25.4986
101.2980,25.5302
101.3980,25.9031
101.3985,25.9064
101.4577,26.2805
101.4583,26.2844
101.4771,26.6421
101.4786,26.6700
118.1765,26.6700
118.1963,26.2243
118.2557,25.7822
118.2902,25.6297
118.3535,25.3498
118.3541,25.3471
118.4909,24.9224
118.4976,24.9066
118.6638,24.5142
118.6638,24.5142
118.6648,24.5116
118.6685,24.5047
118.8733,24.1204
118.8746,24.1179
118.8761,24.1156
119.1171,23.7467
119.1171,23.7467
119.1186,23.7444
119.2018,23.6388
119.3930,23.3962
119.3930,23.3962
119.3948,23.3940
119.7010,23.0696
119.8652,22.9241
120.0328,22.7756
120.0328,22.7756
120.0349,22.7737
120.3937,22.5087
120.5946,22.3863
120.7723,22.2780
120.7723,22.2780
120.7747,22.2766
120.8970,22.2163
121.1723,22.0805
121.1748,22.0793
121.5909,21.9183
121.7274,21.8790
122.0169,21.7957
122.0169,21.7957
122.0196,21.7950
122.0223,21.7944
122.0224,21.7944
122.1734,21.7652
122.4576,21.7102
122.4604,21.7100
122.4604,21.7099
122.7352,21.6818
122.9014,21.6648
122.9042,21.6647
122.9042,21.6647
123.1827,21.6611
123.3475,21.6589
123.3503,21.6591
123.3503,21.6591
123.7895,21.6926
123.7923,21.6928
124.2324,21.7660
124.3224,21.7894
124.6615,21.8774
124.6615,21.8774
124.6642,21.8781
124.9326,21.9739
125.0817,22.0272
125.0817,22.0272
125.0843,22.0281
125.0869,22.0293
125.0869,22.0293
125.1953,22.0793
125.4895,22.2149
125.8764,22.4369
125.8787,22.4385
125.8787,22.4385
126.1193,22.6067
126.2421,22.6925
126.2442,22.6943
126.2442,22.6943
126.5712,22.9691
126.5835,22.9795
126.5855,22.9815
126.5855,22.9815
126.6725,23.0690
126.8982,23.2958
126.9000,23.2980
126.9000,23.2980
126.9019,23.3003
127.1834,23.6388
127.4371,24.0058
127.6571,24.3939
127.6583,24.3964
127.6583,24.3964
127.8406,24.7975
127.8406,24.7975
127.8418,24.8000
127.8427,24.8026
127.8427,24.8026
127.9198,25.0224
127.9896,25.2209
127.9903,25.2236
127.9903,25.2236
128.0593,25.4955
128.0994,25.6533
128.0998,25.6561
128.0998,25.6561
128.1563,26.0069
128.1703,26.0938
128.1705,26.0966
128.1705,26.0966
128.1830,26.2735
128.2018,26.5388
192.5315,26.5388
192.5315,7.6732
192.5298,7.6523
192.5272,7.6373
192.5272,7.6373
192.5264,7.6326
192.5263,7.6200
192.5270,7.6152
192.5270,7.6152
192.5286,7.6036
192.5298,7.5803
192.5143,7.2271
192.5134,7.2161
192.4628,6.8316
192.4609,6.8208
192.3769,6.4422
192.3741,6.4316
192.2575,6.0617
192.2537,6.0514
192.1053,5.6931
192.1006,5.6831
191.9216,5.3391
191.9161,5.3296
191.7077,5.0025
191.7014,4.9935
191.4653,4.6859
191.4583,4.6774
191.1963,4.3915
191.1885,4.3837
190.9026,4.1217
190.8941,4.1147
190.5865,3.8786
190.5775,3.8723
190.2504,3.6639
190.2409,3.6584
189.8969,3.4794
189.8869,3.4747
189.5286,3.3263
189.5183,3.3225
189.3187,3.2596
189.1484,3.2059
189.1378,3.2031
188.7592,3.1191
188.7484,3.1172
188.3639,3.0666
188.3529,3.0657
188.0034,3.0504
187.9786,3.0518
187.9663,3.0537
187.9574,3.0525
187.9574,3.0525
187.9386,3.0501
187.9347,3.0496
187.9184,3.0485
7.6694,3.0485
Z" /> 
</g>
</g>
</g>
<g style="fill:#FFFFFF; fill-opacity:1.0000; 
stroke:#FFFFFF; stroke-width:0.0000; stroke-opacity:1; 
stroke-linecap:round; stroke-linejoin:round;">
<circle cx="167.6400" cy="60.9600" r="0.5000" /> 
</g>
<g style="fill:#FFFFFF; fill-opacity:1.0000; 
stroke:#FFFFFF; stroke-width:0.0212; stroke-opacity:1; 
stroke-linecap:round; stroke-linejoin:round;">
</g>
<g style="fill:#000000; fill-opacity:1.0000; 
stroke:#000000; stroke-width:0.0212; stroke-opacity:1; 
stroke-linecap:round; stroke-linejoin:round;">
</g>
<g style="fill:#C2C2C2; fill-opacity:1.0000; 
stroke:#C2C2C2; stroke-width:0.0212; stroke-opacity:1; 
stroke-linecap:round; stroke-linejoin:round;">
</g>
<g style="fill:#C2C2C2; fill-opacity:0.0; 
stroke:#C2C2C2; stroke-width:0.1500; stroke-opacity:1; 
stroke-linecap:round; stroke-linejoin:round;">
<circle cx="173.9900" cy="217.1700" r="3.1750" /> 
<circle cx="123.1900" cy="217.1700" r="3.1750" /> 
<circle cx="123.1900" cy="128.2700" r="4.5000" /> 
<circle cx="148.5900" cy="217.1700" r="3.1750" /> 
<circle cx="123.1900" cy="26.6700" r="4.5000" /> 
<circle cx="21.5900" cy="191.7700" r="3.5500" /> 
</g>
<g style="fill:#C2C2C2; fill-opacity:0.0; 
stroke:#C2C2C2; stroke-width:0.1000; stroke-opacity:1; 
stroke-linecap:round; stroke-linejoin:round;">
<path d="M2.5400 237.4900 A5.0800 5.0800 0.0 0 0 7.6200 242.5700" />
<path d="M193.0400 237.4900
L193.0400 7.6200
" />
</g>
<g style="fill:#C2C2C2; fill-opacity:0.0; 
stroke:#C2C2C2; stroke-width:0.1500; stroke-opacity:1; 
stroke-linecap:round; stroke-linejoin:round;">
<circle cx="27.9400" cy="52.0700" r="3.5500" /> 
<circle cx="173.9900" cy="191.7700" r="3.5500" /> 
</g>
<g style="fill:#C2C2C2; fill-opacity:0.0; 
stroke:#C2C2C2; stroke-width:0.1000; stroke-opacity:1; 
stroke-linecap:round; stroke-linejoin:round;">
<path d="M187.9600 242.5700 A5.0800 5.0800 0.0 0 0 193.0400 237.4900" />
</g>
<g style="fill:#C2C2C2; fill-opacity:0.0; 
stroke:#C2C2C2; stroke-width:0.1500; stroke-opacity:1; 
stroke-linecap:round; stroke-linejoin:round;">
<circle cx="72.3900" cy="77.4700" r="3.5500" /> 
<circle cx="167.6400" cy="102.8700" r="3.5500" /> 
<circle cx="72.3900" cy="191.7700" r="3.5500" /> 
<circle cx="167.6400" cy="52.0700" r="3.5500" /> 
<circle cx="53.3400" cy="102.8700" r="3.1750" /> 
<circle cx="123.1900" cy="77.4700" r="4.5000" /> 
<circle cx="123.1900" cy="191.7700" r="3.5500" /> 
</g>
<g style="fill:#C2C2C2; fill-opacity:0.0; 
stroke:#C2C2C2; stroke-width:0.1000; stroke-opacity:1; 
stroke-linecap:round; stroke-linejoin:round;">
<path d="M187.9600 2.5400
L7.6200 2.5400
" />
</g>
<g style="fill:#C2C2C2; fill-opacity:0.0; 
stroke:#C2C2C2; stroke-width:0.1500; stroke-opacity:1; 
stroke-linecap:round; stroke-linejoin:round;">
<circle cx="148.5900" cy="166.3700" r="3.5500" /> 
</g>
<g style="fill:#C2C2C2; fill-opacity:0.0; 
stroke:#C2C2C2; stroke-width:0.1000; stroke-opacity:1; 
stroke-linecap:round; stroke-linejoin:round;">
<path d="M2.5400 7.6200
L2.5400 237.4900
" />
<path d="M7.6200 242.5700
L187.9600 242.5700
" />
</g>
<g style="fill:#C2C2C2; fill-opacity:0.0; 
stroke:#C2C2C2; stroke-width:0.1500; stroke-opacity:1; 
stroke-linecap:round; stroke-linejoin:round;">
<circle cx="97.7900" cy="128.2700" r="3.1750" /> 
<circle cx="46.9900" cy="166.3700" r="3.5500" /> 
<circle cx="27.9400" cy="102.8700" r="3.5500" /> 
</g>
<g style="fill:#C2C2C2; fill-opacity:0.0; 
stroke:#C2C2C2; stroke-width:0.1000; stroke-opacity:1; 
stroke-linecap:round; stroke-linejoin:round;">
<path d="M193.0400 7.6200 A5.0800 5.0800 0.0 0 0 187.9600 2.5400" />
</g>
<g style="fill:#C2C2C2; fill-opacity:0.0; 
stroke:#C2C2C2; stroke-width:0.1500; stroke-opacity:1; 
stroke-linecap:round; stroke-linejoin:round;">
<circle cx="97.7900" cy="77.4700" r="3.1750" /> 
</g>
<g style="fill:#C2C2C2; fill-opacity:0.0; 
stroke:#C2C2C2; stroke-width:0.1000; stroke-opacity:1; 
stroke-linecap:round; stroke-linejoin:round;">
<path d="M7.6200 2.5400 A5.0800 5.0800 0.0 0 0 2.5400 7.6200" />
</g>
<g style="fill:#C2C2C2; fill-opacity:0.0; 
stroke:#C2C2C2; stroke-width:0.1500; stroke-opacity:1; 
stroke-linecap:round; stroke-linejoin:round;">
<circle cx="72.3900" cy="128.2700" r="3.5500" /> 
<circle cx="53.3400" cy="52.0700" r="3.1750" /> 
<circle cx="72.3900" cy="26.6700" r="3.5500" /> 
<circle cx="97.7900" cy="26.6700" r="3.1750" /> 
<g >
</g>
<g >
</g>
<g >
</g>
<g >
</g>
<g >
</g>
<g >
</g>
<g >
</g>
</g> 
</svg>
