M48
; DRILL file {KiCad 6.0.5+dfsg-1~bpo11+1} date Fri Jan 27 22:41:18 2023
; FORMAT={-:-/ absolute / metric / decimal}
; #@! TF.CreationDate,2023-01-27T22:41:18+00:00
; #@! TF.GenerationSoftware,Kicad,Pcbnew,6.0.5+dfsg-1~bpo11+1
; #@! TF.FileFunction,Plated,1,2,PTH
FMAT,2
METRIC
; #@! TA.AperFunction,Plated,PTH,ViaDrill
T1C0.400
; #@! TA.AperFunction,Plated,PTH,ViaDrill
T2C0.500
; #@! TA.AperFunction,Plated,PTH,ComponentDrill
T3C0.800
; #@! TA.AperFunction,Plated,PTH,ComponentDrill
T4C1.000
; #@! TA.AperFunction,Plated,PTH,ComponentDrill
T5C1.100
; #@! TA.AperFunction,Plated,PTH,ComponentDrill
T6C1.190
; #@! TA.AperFunction,Plated,PTH,ComponentDrill
T7C1.300
; #@! TA.AperFunction,Plated,PTH,ComponentDrill
T8C1.850
%
G90
G05
T1
X155.575Y-113.03
X155.575Y-120.015
X155.575Y-125.73
X163.83Y-113.03
X163.83Y-119.38
X163.83Y-125.73
T2
X69.85Y-74.295
X70.866Y-72.39
X71.171Y-43.383
X73.546Y-106.486
X74.143Y-105.446
X78.324Y-102.301
X78.74Y-109.22
X79.451Y-88.798
X83.82Y-49.53
X83.82Y-125.73
X83.82Y-132.08
X85.09Y-97.79
X88.646Y-104.496
X88.9Y-68.58
X88.9Y-81.28
X88.9Y-109.22
X91.542Y-146.304
X93.98Y-49.53
X93.98Y-125.73
X93.98Y-132.08
X95.25Y-96.52
X99.06Y-68.58
X99.06Y-81.28
X99.06Y-102.301
X99.06Y-109.22
X104.14Y-49.53
X104.14Y-125.73
X104.14Y-132.08
X108.846Y-102.301
X109.22Y-68.58
X109.22Y-81.28
X109.22Y-109.22
X114.3Y-125.73
X114.3Y-132.08
X115.443Y-73.177
X115.519Y-42.062
X118.11Y-105.272
X119.38Y-68.58
X119.38Y-81.28
X122.936Y-64.77
X123.19Y-109.22
X123.19Y-123.952
X123.952Y-60.96
X123.952Y-90.932
X123.952Y-120.142
X124.337Y-55.702
X124.337Y-114.884
X124.464Y-85.776
X124.714Y-96.774
X128.524Y-108.001
X128.6Y-74.066
X129.258Y-107.052
X129.286Y-62.23
X129.286Y-92.202
X129.286Y-121.666
X129.286Y-127.762
X129.29Y-56.744
X129.29Y-86.716
X129.29Y-115.926
X129.489Y-109.576
X129.54Y-99.06
X129.747Y-76.53
X130.15Y-42.52
X130.262Y-107.709
X130.362Y-43.7
X131.064Y-69.342
X131.957Y-43.942
X134.153Y-104.942
X134.518Y-63.983
X134.569Y-123.8
X134.595Y-94.488
X134.722Y-127.838
X134.772Y-141.656
X134.878Y-55.474
X134.878Y-65.913
X134.878Y-85.446
X134.878Y-114.656
X134.903Y-56.744
X134.903Y-86.716
X134.903Y-115.926
X135.077Y-74.854
X136.623Y-58.028
X136.623Y-88.001
X136.623Y-117.21
X139.628Y-56.744
X139.628Y-86.716
X139.628Y-115.926
X142.371Y-91.694
X142.371Y-120.65
X142.494Y-70.358
X142.494Y-128.778
X142.748Y-100.076
X143.387Y-60.452
X143.815Y-118.11
X144.403Y-57.15
X144.403Y-86.868
X144.657Y-53.086
X144.657Y-112.776
X145.8Y-55.448
X145.8Y-85.42
X145.8Y-114.63
X147.32Y-80.01
X148.59Y-98.044
X148.768Y-116.561
X149.911Y-96.418
X151.079Y-64.897
X151.892Y-98.044
X154.94Y-86.36
X156.21Y-63.5
X157.48Y-69.85
X159.969Y-108.458
X162.255Y-78.842
X162.56Y-86.36
X166.37Y-63.5
X167.64Y-69.85
X169.545Y-97.155
X169.596Y-89.891
X169.748Y-75.753
X169.85Y-108.661
X169.926Y-52.73
X169.977Y-111.76
X175.006Y-93.548
X175.108Y-116.256
X175.26Y-70.866
X176.479Y-54.61
X176.53Y-78.486
X176.555Y-101.092
X176.632Y-114.3
X176.733Y-91.719
X176.784Y-68.732
X176.809Y-81.229
X176.835Y-57.556
X177.292Y-97.79
X177.317Y-75.794
X181.356Y-77.724
X181.356Y-100.584
X181.61Y-54.153
X181.864Y-97.79
X182.168Y-75.753
X184.15Y-42.57
X185.674Y-42.266
X185.674Y-78.486
X185.928Y-100.838
X185.953Y-73.838
X186.131Y-55.067
X186.436Y-109.576
X186.538Y-81.255
X186.588Y-57.556
X186.69Y-114.3
X186.741Y-91.719
X186.842Y-68.732
X186.995Y-99.111
X187.046Y-52.883
X187.249Y-72.466
X187.503Y-102.311
X187.604Y-66.04
X187.706Y-77.165
X188.976Y-105.943
X190.576Y-108.077
X191.538Y-105.086
X191.77Y-49.53
X192.075Y-103.289
X198.12Y-113.03
X204.165Y-107.036
X204.216Y-75.082
X204.318Y-43.231
X208.28Y-113.03
X217.805Y-49.53
X217.805Y-73.025
X217.805Y-84.455
X217.805Y-96.52
X217.805Y-113.03
X221.996Y-109.626
T3
X177.546Y-126.365
X180.046Y-126.365
X185.372Y-126.365
X187.872Y-126.365
X222.29Y-139.446
X222.675Y-130.81
X224.79Y-139.446
X225.084Y-112.014
X225.127Y-63.754
X225.127Y-103.378
X225.175Y-130.81
X225.186Y-72.39
X227.584Y-112.014
X227.627Y-63.754
X227.627Y-103.378
X227.686Y-72.39
T4
X68.497Y-56.642
X68.497Y-101.092
X68.497Y-145.542
X70.997Y-56.642
X70.997Y-101.092
X70.997Y-145.542
X73.497Y-56.642
X73.497Y-101.092
X73.497Y-145.542
X81.89Y-97.739
X112.947Y-56.642
X112.947Y-101.092
X112.947Y-145.542
X115.447Y-56.642
X115.447Y-101.092
X115.447Y-145.542
X117.947Y-56.642
X117.947Y-101.092
X117.947Y-145.542
X157.397Y-56.642
X157.397Y-101.092
X157.397Y-145.542
X159.897Y-56.642
X159.897Y-101.092
X159.897Y-145.542
X162.397Y-56.642
X162.397Y-101.092
X162.397Y-145.542
X173.177Y-121.285
X177.677Y-137.169
X177.677Y-139.709
X180.217Y-137.169
X180.217Y-139.709
X180.518Y-118.085
X182.757Y-137.169
X182.757Y-139.709
X185.297Y-137.169
X185.297Y-139.709
X187.837Y-137.169
X187.837Y-139.709
X190.449Y-116.256
X190.932Y-71.171
X192.634Y-93.574
X201.847Y-56.642
X201.847Y-101.092
X201.847Y-145.542
X204.347Y-56.642
X204.347Y-101.092
X204.347Y-145.542
X206.847Y-56.642
X206.847Y-101.092
X206.847Y-145.542
T6
X71.017Y-80.772
X71.017Y-83.312
X71.017Y-85.852
X71.017Y-126.492
X71.017Y-129.032
X71.017Y-131.572
X126.242Y-139.807
X128.782Y-139.807
X141.482Y-139.827
X144.022Y-139.827
X146.562Y-139.827
X149.102Y-139.827
X151.642Y-139.827
T7
X200.66Y-120.65
X208.28Y-120.65
T8
X229.747Y-44.322
X229.747Y-49.022
X229.747Y-53.722
X229.747Y-88.772
X229.747Y-93.472
X229.747Y-98.172
X229.747Y-133.222
X229.747Y-137.922
X229.747Y-142.622
T5
X66.197Y-49.492G85X66.197Y-48.792
G05
X66.197Y-93.942G85X66.197Y-93.242
G05
X66.197Y-138.392G85X66.197Y-137.692
G05
X75.797Y-49.492G85X75.797Y-48.792
G05
X75.797Y-93.942G85X75.797Y-93.242
G05
X75.797Y-138.392G85X75.797Y-137.692
G05
X110.647Y-49.492G85X110.647Y-48.792
G05
X110.647Y-93.942G85X110.647Y-93.242
G05
X110.647Y-138.392G85X110.647Y-137.692
G05
X120.247Y-49.492G85X120.247Y-48.792
G05
X120.247Y-93.942G85X120.247Y-93.242
G05
X120.247Y-138.392G85X120.247Y-137.692
G05
X155.097Y-49.492G85X155.097Y-48.792
G05
X155.097Y-93.942G85X155.097Y-93.242
G05
X155.097Y-138.392G85X155.097Y-137.692
G05
X164.697Y-49.492G85X164.697Y-48.792
G05
X164.697Y-93.942G85X164.697Y-93.242
G05
X164.697Y-138.392G85X164.697Y-137.692
G05
X199.547Y-49.492G85X199.547Y-48.792
G05
X199.547Y-93.942G85X199.547Y-93.242
G05
X199.547Y-138.392G85X199.547Y-137.692
G05
X209.147Y-49.492G85X209.147Y-48.792
G05
X209.147Y-93.942G85X209.147Y-93.242
G05
X209.147Y-138.392G85X209.147Y-137.692
G05
T0
M30
