G04 #@! TF.GenerationSoftware,KiCad,Pcbnew,6.0.5+dfsg-1~bpo11+1*
G04 #@! TF.CreationDate,2023-01-27T22:41:18+00:00*
G04 #@! TF.ProjectId,ADSR_board,41445352-5f62-46f6-9172-642e6b696361,1.1*
G04 #@! TF.SameCoordinates,Original*
G04 #@! TF.FileFunction,Soldermask,Bot*
G04 #@! TF.FilePolarity,Negative*
%FSLAX46Y46*%
G04 Gerber Fmt 4.6, Leading zero omitted, Abs format (unit mm)*
G04 Created by KiCad (PCBNEW 6.0.5+dfsg-1~bpo11+1) date 2023-01-27 22:41:18*
%MOMM*%
%LPD*%
G01*
G04 APERTURE LIST*
%ADD10O,2.720000X3.240000*%
%ADD11R,1.800000X1.800000*%
%ADD12C,1.800000*%
%ADD13C,2.500000*%
%ADD14C,1.700000*%
%ADD15C,2.000000*%
%ADD16R,1.600000X1.600000*%
%ADD17C,1.600000*%
%ADD18R,0.900000X1.200000*%
%ADD19C,2.600000*%
%ADD20O,2.190000X1.740000*%
%ADD21O,1.740000X2.190000*%
G04 APERTURE END LIST*
D10*
X164697000Y-49142000D03*
X155097000Y-49142000D03*
D11*
X157397000Y-56642000D03*
D12*
X159897000Y-56642000D03*
X162397000Y-56642000D03*
D10*
X75797000Y-93592000D03*
X66197000Y-93592000D03*
D11*
X68497000Y-101092000D03*
D12*
X70997000Y-101092000D03*
X73497000Y-101092000D03*
D10*
X199547000Y-49142000D03*
X209147000Y-49142000D03*
D11*
X201847000Y-56642000D03*
D12*
X204347000Y-56642000D03*
X206847000Y-56642000D03*
D10*
X209147000Y-138042000D03*
X199547000Y-138042000D03*
D11*
X201847000Y-145542000D03*
D12*
X204347000Y-145542000D03*
X206847000Y-145542000D03*
D10*
X110647000Y-49142000D03*
X120247000Y-49142000D03*
D11*
X112947000Y-56642000D03*
D12*
X115447000Y-56642000D03*
X117947000Y-56642000D03*
D10*
X110647000Y-138042000D03*
X120247000Y-138042000D03*
D11*
X112947000Y-145542000D03*
D12*
X115447000Y-145542000D03*
X117947000Y-145542000D03*
D13*
X229747000Y-142622000D03*
X229747000Y-137922000D03*
X229747000Y-133222000D03*
X229747000Y-53722000D03*
X229747000Y-49022000D03*
X229747000Y-44322000D03*
D10*
X164697000Y-138042000D03*
X155097000Y-138042000D03*
D11*
X157397000Y-145542000D03*
D12*
X159897000Y-145542000D03*
X162397000Y-145542000D03*
D10*
X75797000Y-49142000D03*
X66197000Y-49142000D03*
D11*
X68497000Y-56642000D03*
D12*
X70997000Y-56642000D03*
X73497000Y-56642000D03*
D10*
X199547000Y-93592000D03*
X209147000Y-93592000D03*
D11*
X201847000Y-101092000D03*
D12*
X204347000Y-101092000D03*
X206847000Y-101092000D03*
D10*
X155097000Y-93592000D03*
X164697000Y-93592000D03*
D11*
X157397000Y-101092000D03*
D12*
X159897000Y-101092000D03*
X162397000Y-101092000D03*
D13*
X229747000Y-98172000D03*
X229747000Y-93472000D03*
X229747000Y-88772000D03*
D10*
X110647000Y-93592000D03*
X120247000Y-93592000D03*
D11*
X112947000Y-101092000D03*
D12*
X115447000Y-101092000D03*
X117947000Y-101092000D03*
D10*
X75797000Y-138042000D03*
X66197000Y-138042000D03*
D11*
X68497000Y-145542000D03*
D12*
X70997000Y-145542000D03*
X73497000Y-145542000D03*
G36*
G01*
X145112000Y-121125000D02*
X145112000Y-120175000D01*
G75*
G02*
X145362000Y-119925000I250000J0D01*
G01*
X145862000Y-119925000D01*
G75*
G02*
X146112000Y-120175000I0J-250000D01*
G01*
X146112000Y-121125000D01*
G75*
G02*
X145862000Y-121375000I-250000J0D01*
G01*
X145362000Y-121375000D01*
G75*
G02*
X145112000Y-121125000I0J250000D01*
G01*
G37*
G36*
G01*
X147012000Y-121125000D02*
X147012000Y-120175000D01*
G75*
G02*
X147262000Y-119925000I250000J0D01*
G01*
X147762000Y-119925000D01*
G75*
G02*
X148012000Y-120175000I0J-250000D01*
G01*
X148012000Y-121125000D01*
G75*
G02*
X147762000Y-121375000I-250000J0D01*
G01*
X147262000Y-121375000D01*
G75*
G02*
X147012000Y-121125000I0J250000D01*
G01*
G37*
G36*
G01*
X181028000Y-103157000D02*
X181028000Y-104107000D01*
G75*
G02*
X180778000Y-104357000I-250000J0D01*
G01*
X180278000Y-104357000D01*
G75*
G02*
X180028000Y-104107000I0J250000D01*
G01*
X180028000Y-103157000D01*
G75*
G02*
X180278000Y-102907000I250000J0D01*
G01*
X180778000Y-102907000D01*
G75*
G02*
X181028000Y-103157000I0J-250000D01*
G01*
G37*
G36*
G01*
X179128000Y-103157000D02*
X179128000Y-104107000D01*
G75*
G02*
X178878000Y-104357000I-250000J0D01*
G01*
X178378000Y-104357000D01*
G75*
G02*
X178128000Y-104107000I0J250000D01*
G01*
X178128000Y-103157000D01*
G75*
G02*
X178378000Y-102907000I250000J0D01*
G01*
X178878000Y-102907000D01*
G75*
G02*
X179128000Y-103157000I0J-250000D01*
G01*
G37*
G36*
G01*
X181028000Y-68359000D02*
X181028000Y-69309000D01*
G75*
G02*
X180778000Y-69559000I-250000J0D01*
G01*
X180278000Y-69559000D01*
G75*
G02*
X180028000Y-69309000I0J250000D01*
G01*
X180028000Y-68359000D01*
G75*
G02*
X180278000Y-68109000I250000J0D01*
G01*
X180778000Y-68109000D01*
G75*
G02*
X181028000Y-68359000I0J-250000D01*
G01*
G37*
G36*
G01*
X179128000Y-68359000D02*
X179128000Y-69309000D01*
G75*
G02*
X178878000Y-69559000I-250000J0D01*
G01*
X178378000Y-69559000D01*
G75*
G02*
X178128000Y-69309000I0J250000D01*
G01*
X178128000Y-68359000D01*
G75*
G02*
X178378000Y-68109000I250000J0D01*
G01*
X178878000Y-68109000D01*
G75*
G02*
X179128000Y-68359000I0J-250000D01*
G01*
G37*
G36*
G01*
X171345800Y-64864400D02*
X171345800Y-63964400D01*
G75*
G02*
X171595800Y-63714400I250000J0D01*
G01*
X172120800Y-63714400D01*
G75*
G02*
X172370800Y-63964400I0J-250000D01*
G01*
X172370800Y-64864400D01*
G75*
G02*
X172120800Y-65114400I-250000J0D01*
G01*
X171595800Y-65114400D01*
G75*
G02*
X171345800Y-64864400I0J250000D01*
G01*
G37*
G36*
G01*
X173170800Y-64864400D02*
X173170800Y-63964400D01*
G75*
G02*
X173420800Y-63714400I250000J0D01*
G01*
X173945800Y-63714400D01*
G75*
G02*
X174195800Y-63964400I0J-250000D01*
G01*
X174195800Y-64864400D01*
G75*
G02*
X173945800Y-65114400I-250000J0D01*
G01*
X173420800Y-65114400D01*
G75*
G02*
X173170800Y-64864400I0J250000D01*
G01*
G37*
G36*
G01*
X133382000Y-61780000D02*
X133382000Y-62680000D01*
G75*
G02*
X133132000Y-62930000I-250000J0D01*
G01*
X132607000Y-62930000D01*
G75*
G02*
X132357000Y-62680000I0J250000D01*
G01*
X132357000Y-61780000D01*
G75*
G02*
X132607000Y-61530000I250000J0D01*
G01*
X133132000Y-61530000D01*
G75*
G02*
X133382000Y-61780000I0J-250000D01*
G01*
G37*
G36*
G01*
X131557000Y-61780000D02*
X131557000Y-62680000D01*
G75*
G02*
X131307000Y-62930000I-250000J0D01*
G01*
X130782000Y-62930000D01*
G75*
G02*
X130532000Y-62680000I0J250000D01*
G01*
X130532000Y-61780000D01*
G75*
G02*
X130782000Y-61530000I250000J0D01*
G01*
X131307000Y-61530000D01*
G75*
G02*
X131557000Y-61780000I0J-250000D01*
G01*
G37*
G36*
G01*
X177077000Y-136319500D02*
X178277000Y-136319500D01*
G75*
G02*
X178527000Y-136569500I0J-250000D01*
G01*
X178527000Y-137769500D01*
G75*
G02*
X178277000Y-138019500I-250000J0D01*
G01*
X177077000Y-138019500D01*
G75*
G02*
X176827000Y-137769500I0J250000D01*
G01*
X176827000Y-136569500D01*
G75*
G02*
X177077000Y-136319500I250000J0D01*
G01*
G37*
D14*
X177677000Y-139709500D03*
X180217000Y-137169500D03*
X180217000Y-139709500D03*
X182757000Y-137169500D03*
X182757000Y-139709500D03*
X185297000Y-137169500D03*
X185297000Y-139709500D03*
X187837000Y-137169500D03*
X187837000Y-139709500D03*
G36*
G01*
X138148400Y-100652600D02*
X138148400Y-99702600D01*
G75*
G02*
X138398400Y-99452600I250000J0D01*
G01*
X138898400Y-99452600D01*
G75*
G02*
X139148400Y-99702600I0J-250000D01*
G01*
X139148400Y-100652600D01*
G75*
G02*
X138898400Y-100902600I-250000J0D01*
G01*
X138398400Y-100902600D01*
G75*
G02*
X138148400Y-100652600I0J250000D01*
G01*
G37*
G36*
G01*
X140048400Y-100652600D02*
X140048400Y-99702600D01*
G75*
G02*
X140298400Y-99452600I250000J0D01*
G01*
X140798400Y-99452600D01*
G75*
G02*
X141048400Y-99702600I0J-250000D01*
G01*
X141048400Y-100652600D01*
G75*
G02*
X140798400Y-100902600I-250000J0D01*
G01*
X140298400Y-100902600D01*
G75*
G02*
X140048400Y-100652600I0J250000D01*
G01*
G37*
G36*
G01*
X174195800Y-52280400D02*
X174195800Y-53180400D01*
G75*
G02*
X173945800Y-53430400I-250000J0D01*
G01*
X173420800Y-53430400D01*
G75*
G02*
X173170800Y-53180400I0J250000D01*
G01*
X173170800Y-52280400D01*
G75*
G02*
X173420800Y-52030400I250000J0D01*
G01*
X173945800Y-52030400D01*
G75*
G02*
X174195800Y-52280400I0J-250000D01*
G01*
G37*
G36*
G01*
X172370800Y-52280400D02*
X172370800Y-53180400D01*
G75*
G02*
X172120800Y-53430400I-250000J0D01*
G01*
X171595800Y-53430400D01*
G75*
G02*
X171345800Y-53180400I0J250000D01*
G01*
X171345800Y-52280400D01*
G75*
G02*
X171595800Y-52030400I250000J0D01*
G01*
X172120800Y-52030400D01*
G75*
G02*
X172370800Y-52280400I0J-250000D01*
G01*
G37*
G36*
G01*
X174145000Y-74734000D02*
X174145000Y-75634000D01*
G75*
G02*
X173895000Y-75884000I-250000J0D01*
G01*
X173370000Y-75884000D01*
G75*
G02*
X173120000Y-75634000I0J250000D01*
G01*
X173120000Y-74734000D01*
G75*
G02*
X173370000Y-74484000I250000J0D01*
G01*
X173895000Y-74484000D01*
G75*
G02*
X174145000Y-74734000I0J-250000D01*
G01*
G37*
G36*
G01*
X172320000Y-74734000D02*
X172320000Y-75634000D01*
G75*
G02*
X172070000Y-75884000I-250000J0D01*
G01*
X171545000Y-75884000D01*
G75*
G02*
X171295000Y-75634000I0J250000D01*
G01*
X171295000Y-74734000D01*
G75*
G02*
X171545000Y-74484000I250000J0D01*
G01*
X172070000Y-74484000D01*
G75*
G02*
X172320000Y-74734000I0J-250000D01*
G01*
G37*
G36*
G01*
X185060000Y-96243000D02*
X185060000Y-96543000D01*
G75*
G02*
X184910000Y-96693000I-150000J0D01*
G01*
X183260000Y-96693000D01*
G75*
G02*
X183110000Y-96543000I0J150000D01*
G01*
X183110000Y-96243000D01*
G75*
G02*
X183260000Y-96093000I150000J0D01*
G01*
X184910000Y-96093000D01*
G75*
G02*
X185060000Y-96243000I0J-150000D01*
G01*
G37*
G36*
G01*
X185060000Y-97513000D02*
X185060000Y-97813000D01*
G75*
G02*
X184910000Y-97963000I-150000J0D01*
G01*
X183260000Y-97963000D01*
G75*
G02*
X183110000Y-97813000I0J150000D01*
G01*
X183110000Y-97513000D01*
G75*
G02*
X183260000Y-97363000I150000J0D01*
G01*
X184910000Y-97363000D01*
G75*
G02*
X185060000Y-97513000I0J-150000D01*
G01*
G37*
G36*
G01*
X185060000Y-98783000D02*
X185060000Y-99083000D01*
G75*
G02*
X184910000Y-99233000I-150000J0D01*
G01*
X183260000Y-99233000D01*
G75*
G02*
X183110000Y-99083000I0J150000D01*
G01*
X183110000Y-98783000D01*
G75*
G02*
X183260000Y-98633000I150000J0D01*
G01*
X184910000Y-98633000D01*
G75*
G02*
X185060000Y-98783000I0J-150000D01*
G01*
G37*
G36*
G01*
X185060000Y-100053000D02*
X185060000Y-100353000D01*
G75*
G02*
X184910000Y-100503000I-150000J0D01*
G01*
X183260000Y-100503000D01*
G75*
G02*
X183110000Y-100353000I0J150000D01*
G01*
X183110000Y-100053000D01*
G75*
G02*
X183260000Y-99903000I150000J0D01*
G01*
X184910000Y-99903000D01*
G75*
G02*
X185060000Y-100053000I0J-150000D01*
G01*
G37*
G36*
G01*
X180110000Y-100053000D02*
X180110000Y-100353000D01*
G75*
G02*
X179960000Y-100503000I-150000J0D01*
G01*
X178310000Y-100503000D01*
G75*
G02*
X178160000Y-100353000I0J150000D01*
G01*
X178160000Y-100053000D01*
G75*
G02*
X178310000Y-99903000I150000J0D01*
G01*
X179960000Y-99903000D01*
G75*
G02*
X180110000Y-100053000I0J-150000D01*
G01*
G37*
G36*
G01*
X180110000Y-98783000D02*
X180110000Y-99083000D01*
G75*
G02*
X179960000Y-99233000I-150000J0D01*
G01*
X178310000Y-99233000D01*
G75*
G02*
X178160000Y-99083000I0J150000D01*
G01*
X178160000Y-98783000D01*
G75*
G02*
X178310000Y-98633000I150000J0D01*
G01*
X179960000Y-98633000D01*
G75*
G02*
X180110000Y-98783000I0J-150000D01*
G01*
G37*
G36*
G01*
X180110000Y-97513000D02*
X180110000Y-97813000D01*
G75*
G02*
X179960000Y-97963000I-150000J0D01*
G01*
X178310000Y-97963000D01*
G75*
G02*
X178160000Y-97813000I0J150000D01*
G01*
X178160000Y-97513000D01*
G75*
G02*
X178310000Y-97363000I150000J0D01*
G01*
X179960000Y-97363000D01*
G75*
G02*
X180110000Y-97513000I0J-150000D01*
G01*
G37*
G36*
G01*
X180110000Y-96243000D02*
X180110000Y-96543000D01*
G75*
G02*
X179960000Y-96693000I-150000J0D01*
G01*
X178310000Y-96693000D01*
G75*
G02*
X178160000Y-96543000I0J150000D01*
G01*
X178160000Y-96243000D01*
G75*
G02*
X178310000Y-96093000I150000J0D01*
G01*
X179960000Y-96093000D01*
G75*
G02*
X180110000Y-96243000I0J-150000D01*
G01*
G37*
D15*
X190449200Y-116255800D03*
G36*
G01*
X138250000Y-70833000D02*
X138250000Y-69883000D01*
G75*
G02*
X138500000Y-69633000I250000J0D01*
G01*
X139000000Y-69633000D01*
G75*
G02*
X139250000Y-69883000I0J-250000D01*
G01*
X139250000Y-70833000D01*
G75*
G02*
X139000000Y-71083000I-250000J0D01*
G01*
X138500000Y-71083000D01*
G75*
G02*
X138250000Y-70833000I0J250000D01*
G01*
G37*
G36*
G01*
X140150000Y-70833000D02*
X140150000Y-69883000D01*
G75*
G02*
X140400000Y-69633000I250000J0D01*
G01*
X140900000Y-69633000D01*
G75*
G02*
X141150000Y-69883000I0J-250000D01*
G01*
X141150000Y-70833000D01*
G75*
G02*
X140900000Y-71083000I-250000J0D01*
G01*
X140400000Y-71083000D01*
G75*
G02*
X140150000Y-70833000I0J250000D01*
G01*
G37*
G36*
G01*
X133382000Y-120962000D02*
X133382000Y-121862000D01*
G75*
G02*
X133132000Y-122112000I-250000J0D01*
G01*
X132607000Y-122112000D01*
G75*
G02*
X132357000Y-121862000I0J250000D01*
G01*
X132357000Y-120962000D01*
G75*
G02*
X132607000Y-120712000I250000J0D01*
G01*
X133132000Y-120712000D01*
G75*
G02*
X133382000Y-120962000I0J-250000D01*
G01*
G37*
G36*
G01*
X131557000Y-120962000D02*
X131557000Y-121862000D01*
G75*
G02*
X131307000Y-122112000I-250000J0D01*
G01*
X130782000Y-122112000D01*
G75*
G02*
X130532000Y-121862000I0J250000D01*
G01*
X130532000Y-120962000D01*
G75*
G02*
X130782000Y-120712000I250000J0D01*
G01*
X131307000Y-120712000D01*
G75*
G02*
X131557000Y-120962000I0J-250000D01*
G01*
G37*
G36*
G01*
X133382000Y-117914000D02*
X133382000Y-118814000D01*
G75*
G02*
X133132000Y-119064000I-250000J0D01*
G01*
X132607000Y-119064000D01*
G75*
G02*
X132357000Y-118814000I0J250000D01*
G01*
X132357000Y-117914000D01*
G75*
G02*
X132607000Y-117664000I250000J0D01*
G01*
X133132000Y-117664000D01*
G75*
G02*
X133382000Y-117914000I0J-250000D01*
G01*
G37*
G36*
G01*
X131557000Y-117914000D02*
X131557000Y-118814000D01*
G75*
G02*
X131307000Y-119064000I-250000J0D01*
G01*
X130782000Y-119064000D01*
G75*
G02*
X130532000Y-118814000I0J250000D01*
G01*
X130532000Y-117914000D01*
G75*
G02*
X130782000Y-117664000I250000J0D01*
G01*
X131307000Y-117664000D01*
G75*
G02*
X131557000Y-117914000I0J-250000D01*
G01*
G37*
G36*
G01*
X133382000Y-76131000D02*
X133382000Y-77031000D01*
G75*
G02*
X133132000Y-77281000I-250000J0D01*
G01*
X132607000Y-77281000D01*
G75*
G02*
X132357000Y-77031000I0J250000D01*
G01*
X132357000Y-76131000D01*
G75*
G02*
X132607000Y-75881000I250000J0D01*
G01*
X133132000Y-75881000D01*
G75*
G02*
X133382000Y-76131000I0J-250000D01*
G01*
G37*
G36*
G01*
X131557000Y-76131000D02*
X131557000Y-77031000D01*
G75*
G02*
X131307000Y-77281000I-250000J0D01*
G01*
X130782000Y-77281000D01*
G75*
G02*
X130532000Y-77031000I0J250000D01*
G01*
X130532000Y-76131000D01*
G75*
G02*
X130782000Y-75881000I250000J0D01*
G01*
X131307000Y-75881000D01*
G75*
G02*
X131557000Y-76131000I0J-250000D01*
G01*
G37*
G36*
G01*
X171295000Y-86810000D02*
X171295000Y-85910000D01*
G75*
G02*
X171545000Y-85660000I250000J0D01*
G01*
X172070000Y-85660000D01*
G75*
G02*
X172320000Y-85910000I0J-250000D01*
G01*
X172320000Y-86810000D01*
G75*
G02*
X172070000Y-87060000I-250000J0D01*
G01*
X171545000Y-87060000D01*
G75*
G02*
X171295000Y-86810000I0J250000D01*
G01*
G37*
G36*
G01*
X173120000Y-86810000D02*
X173120000Y-85910000D01*
G75*
G02*
X173370000Y-85660000I250000J0D01*
G01*
X173895000Y-85660000D01*
G75*
G02*
X174145000Y-85910000I0J-250000D01*
G01*
X174145000Y-86810000D01*
G75*
G02*
X173895000Y-87060000I-250000J0D01*
G01*
X173370000Y-87060000D01*
G75*
G02*
X173120000Y-86810000I0J250000D01*
G01*
G37*
X81889600Y-97739200D03*
G36*
G01*
X147987000Y-123375000D02*
X147987000Y-124275000D01*
G75*
G02*
X147737000Y-124525000I-250000J0D01*
G01*
X147212000Y-124525000D01*
G75*
G02*
X146962000Y-124275000I0J250000D01*
G01*
X146962000Y-123375000D01*
G75*
G02*
X147212000Y-123125000I250000J0D01*
G01*
X147737000Y-123125000D01*
G75*
G02*
X147987000Y-123375000I0J-250000D01*
G01*
G37*
G36*
G01*
X146162000Y-123375000D02*
X146162000Y-124275000D01*
G75*
G02*
X145912000Y-124525000I-250000J0D01*
G01*
X145387000Y-124525000D01*
G75*
G02*
X145137000Y-124275000I0J250000D01*
G01*
X145137000Y-123375000D01*
G75*
G02*
X145387000Y-123125000I250000J0D01*
G01*
X145912000Y-123125000D01*
G75*
G02*
X146162000Y-123375000I0J-250000D01*
G01*
G37*
G36*
G01*
X171295000Y-83508000D02*
X171295000Y-82608000D01*
G75*
G02*
X171545000Y-82358000I250000J0D01*
G01*
X172070000Y-82358000D01*
G75*
G02*
X172320000Y-82608000I0J-250000D01*
G01*
X172320000Y-83508000D01*
G75*
G02*
X172070000Y-83758000I-250000J0D01*
G01*
X171545000Y-83758000D01*
G75*
G02*
X171295000Y-83508000I0J250000D01*
G01*
G37*
G36*
G01*
X173120000Y-83508000D02*
X173120000Y-82608000D01*
G75*
G02*
X173370000Y-82358000I250000J0D01*
G01*
X173895000Y-82358000D01*
G75*
G02*
X174145000Y-82608000I0J-250000D01*
G01*
X174145000Y-83508000D01*
G75*
G02*
X173895000Y-83758000I-250000J0D01*
G01*
X173370000Y-83758000D01*
G75*
G02*
X173120000Y-83508000I0J250000D01*
G01*
G37*
G36*
G01*
X138199200Y-119601000D02*
X138199200Y-118651000D01*
G75*
G02*
X138449200Y-118401000I250000J0D01*
G01*
X138949200Y-118401000D01*
G75*
G02*
X139199200Y-118651000I0J-250000D01*
G01*
X139199200Y-119601000D01*
G75*
G02*
X138949200Y-119851000I-250000J0D01*
G01*
X138449200Y-119851000D01*
G75*
G02*
X138199200Y-119601000I0J250000D01*
G01*
G37*
G36*
G01*
X140099200Y-119601000D02*
X140099200Y-118651000D01*
G75*
G02*
X140349200Y-118401000I250000J0D01*
G01*
X140849200Y-118401000D01*
G75*
G02*
X141099200Y-118651000I0J-250000D01*
G01*
X141099200Y-119601000D01*
G75*
G02*
X140849200Y-119851000I-250000J0D01*
G01*
X140349200Y-119851000D01*
G75*
G02*
X140099200Y-119601000I0J250000D01*
G01*
G37*
D16*
X227685600Y-72390000D03*
D17*
X225185600Y-72390000D03*
G36*
G01*
X133382000Y-82481000D02*
X133382000Y-83381000D01*
G75*
G02*
X133132000Y-83631000I-250000J0D01*
G01*
X132607000Y-83631000D01*
G75*
G02*
X132357000Y-83381000I0J250000D01*
G01*
X132357000Y-82481000D01*
G75*
G02*
X132607000Y-82231000I250000J0D01*
G01*
X133132000Y-82231000D01*
G75*
G02*
X133382000Y-82481000I0J-250000D01*
G01*
G37*
G36*
G01*
X131557000Y-82481000D02*
X131557000Y-83381000D01*
G75*
G02*
X131307000Y-83631000I-250000J0D01*
G01*
X130782000Y-83631000D01*
G75*
G02*
X130532000Y-83381000I0J250000D01*
G01*
X130532000Y-82481000D01*
G75*
G02*
X130782000Y-82231000I250000J0D01*
G01*
X131307000Y-82231000D01*
G75*
G02*
X131557000Y-82481000I0J-250000D01*
G01*
G37*
D18*
X128273000Y-123952000D03*
X124973000Y-123952000D03*
G36*
G01*
X171295000Y-93668000D02*
X171295000Y-92768000D01*
G75*
G02*
X171545000Y-92518000I250000J0D01*
G01*
X172070000Y-92518000D01*
G75*
G02*
X172320000Y-92768000I0J-250000D01*
G01*
X172320000Y-93668000D01*
G75*
G02*
X172070000Y-93918000I-250000J0D01*
G01*
X171545000Y-93918000D01*
G75*
G02*
X171295000Y-93668000I0J250000D01*
G01*
G37*
G36*
G01*
X173120000Y-93668000D02*
X173120000Y-92768000D01*
G75*
G02*
X173370000Y-92518000I250000J0D01*
G01*
X173895000Y-92518000D01*
G75*
G02*
X174145000Y-92768000I0J-250000D01*
G01*
X174145000Y-93668000D01*
G75*
G02*
X173895000Y-93918000I-250000J0D01*
G01*
X173370000Y-93918000D01*
G75*
G02*
X173120000Y-93668000I0J250000D01*
G01*
G37*
G36*
G01*
X158493400Y-98417800D02*
X158493400Y-97517800D01*
G75*
G02*
X158743400Y-97267800I250000J0D01*
G01*
X159268400Y-97267800D01*
G75*
G02*
X159518400Y-97517800I0J-250000D01*
G01*
X159518400Y-98417800D01*
G75*
G02*
X159268400Y-98667800I-250000J0D01*
G01*
X158743400Y-98667800D01*
G75*
G02*
X158493400Y-98417800I0J250000D01*
G01*
G37*
G36*
G01*
X160318400Y-98417800D02*
X160318400Y-97517800D01*
G75*
G02*
X160568400Y-97267800I250000J0D01*
G01*
X161093400Y-97267800D01*
G75*
G02*
X161343400Y-97517800I0J-250000D01*
G01*
X161343400Y-98417800D01*
G75*
G02*
X161093400Y-98667800I-250000J0D01*
G01*
X160568400Y-98667800D01*
G75*
G02*
X160318400Y-98417800I0J250000D01*
G01*
G37*
G36*
G01*
X127723000Y-91591000D02*
X127423000Y-91591000D01*
G75*
G02*
X127273000Y-91441000I0J150000D01*
G01*
X127273000Y-90266000D01*
G75*
G02*
X127423000Y-90116000I150000J0D01*
G01*
X127723000Y-90116000D01*
G75*
G02*
X127873000Y-90266000I0J-150000D01*
G01*
X127873000Y-91441000D01*
G75*
G02*
X127723000Y-91591000I-150000J0D01*
G01*
G37*
G36*
G01*
X125823000Y-91591000D02*
X125523000Y-91591000D01*
G75*
G02*
X125373000Y-91441000I0J150000D01*
G01*
X125373000Y-90266000D01*
G75*
G02*
X125523000Y-90116000I150000J0D01*
G01*
X125823000Y-90116000D01*
G75*
G02*
X125973000Y-90266000I0J-150000D01*
G01*
X125973000Y-91441000D01*
G75*
G02*
X125823000Y-91591000I-150000J0D01*
G01*
G37*
G36*
G01*
X126773000Y-89716000D02*
X126473000Y-89716000D01*
G75*
G02*
X126323000Y-89566000I0J150000D01*
G01*
X126323000Y-88391000D01*
G75*
G02*
X126473000Y-88241000I150000J0D01*
G01*
X126773000Y-88241000D01*
G75*
G02*
X126923000Y-88391000I0J-150000D01*
G01*
X126923000Y-89566000D01*
G75*
G02*
X126773000Y-89716000I-150000J0D01*
G01*
G37*
G36*
G01*
X185092000Y-80805000D02*
X185092000Y-81755000D01*
G75*
G02*
X184842000Y-82005000I-250000J0D01*
G01*
X184342000Y-82005000D01*
G75*
G02*
X184092000Y-81755000I0J250000D01*
G01*
X184092000Y-80805000D01*
G75*
G02*
X184342000Y-80555000I250000J0D01*
G01*
X184842000Y-80555000D01*
G75*
G02*
X185092000Y-80805000I0J-250000D01*
G01*
G37*
G36*
G01*
X183192000Y-80805000D02*
X183192000Y-81755000D01*
G75*
G02*
X182942000Y-82005000I-250000J0D01*
G01*
X182442000Y-82005000D01*
G75*
G02*
X182192000Y-81755000I0J250000D01*
G01*
X182192000Y-80805000D01*
G75*
G02*
X182442000Y-80555000I250000J0D01*
G01*
X182942000Y-80555000D01*
G75*
G02*
X183192000Y-80805000I0J-250000D01*
G01*
G37*
G36*
G01*
X181028000Y-80805000D02*
X181028000Y-81755000D01*
G75*
G02*
X180778000Y-82005000I-250000J0D01*
G01*
X180278000Y-82005000D01*
G75*
G02*
X180028000Y-81755000I0J250000D01*
G01*
X180028000Y-80805000D01*
G75*
G02*
X180278000Y-80555000I250000J0D01*
G01*
X180778000Y-80555000D01*
G75*
G02*
X181028000Y-80805000I0J-250000D01*
G01*
G37*
G36*
G01*
X179128000Y-80805000D02*
X179128000Y-81755000D01*
G75*
G02*
X178878000Y-82005000I-250000J0D01*
G01*
X178378000Y-82005000D01*
G75*
G02*
X178128000Y-81755000I0J250000D01*
G01*
X178128000Y-80805000D01*
G75*
G02*
X178378000Y-80555000I250000J0D01*
G01*
X178878000Y-80555000D01*
G75*
G02*
X179128000Y-80805000I0J-250000D01*
G01*
G37*
G36*
G01*
X127723000Y-120801000D02*
X127423000Y-120801000D01*
G75*
G02*
X127273000Y-120651000I0J150000D01*
G01*
X127273000Y-119476000D01*
G75*
G02*
X127423000Y-119326000I150000J0D01*
G01*
X127723000Y-119326000D01*
G75*
G02*
X127873000Y-119476000I0J-150000D01*
G01*
X127873000Y-120651000D01*
G75*
G02*
X127723000Y-120801000I-150000J0D01*
G01*
G37*
G36*
G01*
X125823000Y-120801000D02*
X125523000Y-120801000D01*
G75*
G02*
X125373000Y-120651000I0J150000D01*
G01*
X125373000Y-119476000D01*
G75*
G02*
X125523000Y-119326000I150000J0D01*
G01*
X125823000Y-119326000D01*
G75*
G02*
X125973000Y-119476000I0J-150000D01*
G01*
X125973000Y-120651000D01*
G75*
G02*
X125823000Y-120801000I-150000J0D01*
G01*
G37*
G36*
G01*
X126773000Y-118926000D02*
X126473000Y-118926000D01*
G75*
G02*
X126323000Y-118776000I0J150000D01*
G01*
X126323000Y-117601000D01*
G75*
G02*
X126473000Y-117451000I150000J0D01*
G01*
X126773000Y-117451000D01*
G75*
G02*
X126923000Y-117601000I0J-150000D01*
G01*
X126923000Y-118776000D01*
G75*
G02*
X126773000Y-118926000I-150000J0D01*
G01*
G37*
G36*
G01*
X143027000Y-106911000D02*
X143027000Y-107211000D01*
G75*
G02*
X142877000Y-107361000I-150000J0D01*
G01*
X141227000Y-107361000D01*
G75*
G02*
X141077000Y-107211000I0J150000D01*
G01*
X141077000Y-106911000D01*
G75*
G02*
X141227000Y-106761000I150000J0D01*
G01*
X142877000Y-106761000D01*
G75*
G02*
X143027000Y-106911000I0J-150000D01*
G01*
G37*
G36*
G01*
X143027000Y-108181000D02*
X143027000Y-108481000D01*
G75*
G02*
X142877000Y-108631000I-150000J0D01*
G01*
X141227000Y-108631000D01*
G75*
G02*
X141077000Y-108481000I0J150000D01*
G01*
X141077000Y-108181000D01*
G75*
G02*
X141227000Y-108031000I150000J0D01*
G01*
X142877000Y-108031000D01*
G75*
G02*
X143027000Y-108181000I0J-150000D01*
G01*
G37*
G36*
G01*
X143027000Y-109451000D02*
X143027000Y-109751000D01*
G75*
G02*
X142877000Y-109901000I-150000J0D01*
G01*
X141227000Y-109901000D01*
G75*
G02*
X141077000Y-109751000I0J150000D01*
G01*
X141077000Y-109451000D01*
G75*
G02*
X141227000Y-109301000I150000J0D01*
G01*
X142877000Y-109301000D01*
G75*
G02*
X143027000Y-109451000I0J-150000D01*
G01*
G37*
G36*
G01*
X143027000Y-110721000D02*
X143027000Y-111021000D01*
G75*
G02*
X142877000Y-111171000I-150000J0D01*
G01*
X141227000Y-111171000D01*
G75*
G02*
X141077000Y-111021000I0J150000D01*
G01*
X141077000Y-110721000D01*
G75*
G02*
X141227000Y-110571000I150000J0D01*
G01*
X142877000Y-110571000D01*
G75*
G02*
X143027000Y-110721000I0J-150000D01*
G01*
G37*
G36*
G01*
X143027000Y-111991000D02*
X143027000Y-112291000D01*
G75*
G02*
X142877000Y-112441000I-150000J0D01*
G01*
X141227000Y-112441000D01*
G75*
G02*
X141077000Y-112291000I0J150000D01*
G01*
X141077000Y-111991000D01*
G75*
G02*
X141227000Y-111841000I150000J0D01*
G01*
X142877000Y-111841000D01*
G75*
G02*
X143027000Y-111991000I0J-150000D01*
G01*
G37*
G36*
G01*
X143027000Y-113261000D02*
X143027000Y-113561000D01*
G75*
G02*
X142877000Y-113711000I-150000J0D01*
G01*
X141227000Y-113711000D01*
G75*
G02*
X141077000Y-113561000I0J150000D01*
G01*
X141077000Y-113261000D01*
G75*
G02*
X141227000Y-113111000I150000J0D01*
G01*
X142877000Y-113111000D01*
G75*
G02*
X143027000Y-113261000I0J-150000D01*
G01*
G37*
G36*
G01*
X143027000Y-114531000D02*
X143027000Y-114831000D01*
G75*
G02*
X142877000Y-114981000I-150000J0D01*
G01*
X141227000Y-114981000D01*
G75*
G02*
X141077000Y-114831000I0J150000D01*
G01*
X141077000Y-114531000D01*
G75*
G02*
X141227000Y-114381000I150000J0D01*
G01*
X142877000Y-114381000D01*
G75*
G02*
X143027000Y-114531000I0J-150000D01*
G01*
G37*
G36*
G01*
X143027000Y-115801000D02*
X143027000Y-116101000D01*
G75*
G02*
X142877000Y-116251000I-150000J0D01*
G01*
X141227000Y-116251000D01*
G75*
G02*
X141077000Y-116101000I0J150000D01*
G01*
X141077000Y-115801000D01*
G75*
G02*
X141227000Y-115651000I150000J0D01*
G01*
X142877000Y-115651000D01*
G75*
G02*
X143027000Y-115801000I0J-150000D01*
G01*
G37*
G36*
G01*
X138077000Y-115801000D02*
X138077000Y-116101000D01*
G75*
G02*
X137927000Y-116251000I-150000J0D01*
G01*
X136277000Y-116251000D01*
G75*
G02*
X136127000Y-116101000I0J150000D01*
G01*
X136127000Y-115801000D01*
G75*
G02*
X136277000Y-115651000I150000J0D01*
G01*
X137927000Y-115651000D01*
G75*
G02*
X138077000Y-115801000I0J-150000D01*
G01*
G37*
G36*
G01*
X138077000Y-114531000D02*
X138077000Y-114831000D01*
G75*
G02*
X137927000Y-114981000I-150000J0D01*
G01*
X136277000Y-114981000D01*
G75*
G02*
X136127000Y-114831000I0J150000D01*
G01*
X136127000Y-114531000D01*
G75*
G02*
X136277000Y-114381000I150000J0D01*
G01*
X137927000Y-114381000D01*
G75*
G02*
X138077000Y-114531000I0J-150000D01*
G01*
G37*
G36*
G01*
X138077000Y-113261000D02*
X138077000Y-113561000D01*
G75*
G02*
X137927000Y-113711000I-150000J0D01*
G01*
X136277000Y-113711000D01*
G75*
G02*
X136127000Y-113561000I0J150000D01*
G01*
X136127000Y-113261000D01*
G75*
G02*
X136277000Y-113111000I150000J0D01*
G01*
X137927000Y-113111000D01*
G75*
G02*
X138077000Y-113261000I0J-150000D01*
G01*
G37*
G36*
G01*
X138077000Y-111991000D02*
X138077000Y-112291000D01*
G75*
G02*
X137927000Y-112441000I-150000J0D01*
G01*
X136277000Y-112441000D01*
G75*
G02*
X136127000Y-112291000I0J150000D01*
G01*
X136127000Y-111991000D01*
G75*
G02*
X136277000Y-111841000I150000J0D01*
G01*
X137927000Y-111841000D01*
G75*
G02*
X138077000Y-111991000I0J-150000D01*
G01*
G37*
G36*
G01*
X138077000Y-110721000D02*
X138077000Y-111021000D01*
G75*
G02*
X137927000Y-111171000I-150000J0D01*
G01*
X136277000Y-111171000D01*
G75*
G02*
X136127000Y-111021000I0J150000D01*
G01*
X136127000Y-110721000D01*
G75*
G02*
X136277000Y-110571000I150000J0D01*
G01*
X137927000Y-110571000D01*
G75*
G02*
X138077000Y-110721000I0J-150000D01*
G01*
G37*
G36*
G01*
X138077000Y-109451000D02*
X138077000Y-109751000D01*
G75*
G02*
X137927000Y-109901000I-150000J0D01*
G01*
X136277000Y-109901000D01*
G75*
G02*
X136127000Y-109751000I0J150000D01*
G01*
X136127000Y-109451000D01*
G75*
G02*
X136277000Y-109301000I150000J0D01*
G01*
X137927000Y-109301000D01*
G75*
G02*
X138077000Y-109451000I0J-150000D01*
G01*
G37*
G36*
G01*
X138077000Y-108181000D02*
X138077000Y-108481000D01*
G75*
G02*
X137927000Y-108631000I-150000J0D01*
G01*
X136277000Y-108631000D01*
G75*
G02*
X136127000Y-108481000I0J150000D01*
G01*
X136127000Y-108181000D01*
G75*
G02*
X136277000Y-108031000I150000J0D01*
G01*
X137927000Y-108031000D01*
G75*
G02*
X138077000Y-108181000I0J-150000D01*
G01*
G37*
G36*
G01*
X138077000Y-106911000D02*
X138077000Y-107211000D01*
G75*
G02*
X137927000Y-107361000I-150000J0D01*
G01*
X136277000Y-107361000D01*
G75*
G02*
X136127000Y-107211000I0J150000D01*
G01*
X136127000Y-106911000D01*
G75*
G02*
X136277000Y-106761000I150000J0D01*
G01*
X137927000Y-106761000D01*
G75*
G02*
X138077000Y-106911000I0J-150000D01*
G01*
G37*
G36*
G01*
X174145000Y-89466000D02*
X174145000Y-90366000D01*
G75*
G02*
X173895000Y-90616000I-250000J0D01*
G01*
X173370000Y-90616000D01*
G75*
G02*
X173120000Y-90366000I0J250000D01*
G01*
X173120000Y-89466000D01*
G75*
G02*
X173370000Y-89216000I250000J0D01*
G01*
X173895000Y-89216000D01*
G75*
G02*
X174145000Y-89466000I0J-250000D01*
G01*
G37*
G36*
G01*
X172320000Y-89466000D02*
X172320000Y-90366000D01*
G75*
G02*
X172070000Y-90616000I-250000J0D01*
G01*
X171545000Y-90616000D01*
G75*
G02*
X171295000Y-90366000I0J250000D01*
G01*
X171295000Y-89466000D01*
G75*
G02*
X171545000Y-89216000I250000J0D01*
G01*
X172070000Y-89216000D01*
G75*
G02*
X172320000Y-89466000I0J-250000D01*
G01*
G37*
D15*
X190931800Y-71170800D03*
G36*
G01*
X185092000Y-68359000D02*
X185092000Y-69309000D01*
G75*
G02*
X184842000Y-69559000I-250000J0D01*
G01*
X184342000Y-69559000D01*
G75*
G02*
X184092000Y-69309000I0J250000D01*
G01*
X184092000Y-68359000D01*
G75*
G02*
X184342000Y-68109000I250000J0D01*
G01*
X184842000Y-68109000D01*
G75*
G02*
X185092000Y-68359000I0J-250000D01*
G01*
G37*
G36*
G01*
X183192000Y-68359000D02*
X183192000Y-69309000D01*
G75*
G02*
X182942000Y-69559000I-250000J0D01*
G01*
X182442000Y-69559000D01*
G75*
G02*
X182192000Y-69309000I0J250000D01*
G01*
X182192000Y-68359000D01*
G75*
G02*
X182442000Y-68109000I250000J0D01*
G01*
X182942000Y-68109000D01*
G75*
G02*
X183192000Y-68359000I0J-250000D01*
G01*
G37*
G36*
G01*
X133382000Y-91752000D02*
X133382000Y-92652000D01*
G75*
G02*
X133132000Y-92902000I-250000J0D01*
G01*
X132607000Y-92902000D01*
G75*
G02*
X132357000Y-92652000I0J250000D01*
G01*
X132357000Y-91752000D01*
G75*
G02*
X132607000Y-91502000I250000J0D01*
G01*
X133132000Y-91502000D01*
G75*
G02*
X133382000Y-91752000I0J-250000D01*
G01*
G37*
G36*
G01*
X131557000Y-91752000D02*
X131557000Y-92652000D01*
G75*
G02*
X131307000Y-92902000I-250000J0D01*
G01*
X130782000Y-92902000D01*
G75*
G02*
X130532000Y-92652000I0J250000D01*
G01*
X130532000Y-91752000D01*
G75*
G02*
X130782000Y-91502000I250000J0D01*
G01*
X131307000Y-91502000D01*
G75*
G02*
X131557000Y-91752000I0J-250000D01*
G01*
G37*
G36*
G01*
X133382000Y-105341000D02*
X133382000Y-106241000D01*
G75*
G02*
X133132000Y-106491000I-250000J0D01*
G01*
X132607000Y-106491000D01*
G75*
G02*
X132357000Y-106241000I0J250000D01*
G01*
X132357000Y-105341000D01*
G75*
G02*
X132607000Y-105091000I250000J0D01*
G01*
X133132000Y-105091000D01*
G75*
G02*
X133382000Y-105341000I0J-250000D01*
G01*
G37*
G36*
G01*
X131557000Y-105341000D02*
X131557000Y-106241000D01*
G75*
G02*
X131307000Y-106491000I-250000J0D01*
G01*
X130782000Y-106491000D01*
G75*
G02*
X130532000Y-106241000I0J250000D01*
G01*
X130532000Y-105341000D01*
G75*
G02*
X130782000Y-105091000I250000J0D01*
G01*
X131307000Y-105091000D01*
G75*
G02*
X131557000Y-105341000I0J-250000D01*
G01*
G37*
G36*
G01*
X93264400Y-88775400D02*
X93264400Y-89075400D01*
G75*
G02*
X93114400Y-89225400I-150000J0D01*
G01*
X91464400Y-89225400D01*
G75*
G02*
X91314400Y-89075400I0J150000D01*
G01*
X91314400Y-88775400D01*
G75*
G02*
X91464400Y-88625400I150000J0D01*
G01*
X93114400Y-88625400D01*
G75*
G02*
X93264400Y-88775400I0J-150000D01*
G01*
G37*
G36*
G01*
X93264400Y-90045400D02*
X93264400Y-90345400D01*
G75*
G02*
X93114400Y-90495400I-150000J0D01*
G01*
X91464400Y-90495400D01*
G75*
G02*
X91314400Y-90345400I0J150000D01*
G01*
X91314400Y-90045400D01*
G75*
G02*
X91464400Y-89895400I150000J0D01*
G01*
X93114400Y-89895400D01*
G75*
G02*
X93264400Y-90045400I0J-150000D01*
G01*
G37*
G36*
G01*
X93264400Y-91315400D02*
X93264400Y-91615400D01*
G75*
G02*
X93114400Y-91765400I-150000J0D01*
G01*
X91464400Y-91765400D01*
G75*
G02*
X91314400Y-91615400I0J150000D01*
G01*
X91314400Y-91315400D01*
G75*
G02*
X91464400Y-91165400I150000J0D01*
G01*
X93114400Y-91165400D01*
G75*
G02*
X93264400Y-91315400I0J-150000D01*
G01*
G37*
G36*
G01*
X93264400Y-92585400D02*
X93264400Y-92885400D01*
G75*
G02*
X93114400Y-93035400I-150000J0D01*
G01*
X91464400Y-93035400D01*
G75*
G02*
X91314400Y-92885400I0J150000D01*
G01*
X91314400Y-92585400D01*
G75*
G02*
X91464400Y-92435400I150000J0D01*
G01*
X93114400Y-92435400D01*
G75*
G02*
X93264400Y-92585400I0J-150000D01*
G01*
G37*
G36*
G01*
X88314400Y-92585400D02*
X88314400Y-92885400D01*
G75*
G02*
X88164400Y-93035400I-150000J0D01*
G01*
X86514400Y-93035400D01*
G75*
G02*
X86364400Y-92885400I0J150000D01*
G01*
X86364400Y-92585400D01*
G75*
G02*
X86514400Y-92435400I150000J0D01*
G01*
X88164400Y-92435400D01*
G75*
G02*
X88314400Y-92585400I0J-150000D01*
G01*
G37*
G36*
G01*
X88314400Y-91315400D02*
X88314400Y-91615400D01*
G75*
G02*
X88164400Y-91765400I-150000J0D01*
G01*
X86514400Y-91765400D01*
G75*
G02*
X86364400Y-91615400I0J150000D01*
G01*
X86364400Y-91315400D01*
G75*
G02*
X86514400Y-91165400I150000J0D01*
G01*
X88164400Y-91165400D01*
G75*
G02*
X88314400Y-91315400I0J-150000D01*
G01*
G37*
G36*
G01*
X88314400Y-90045400D02*
X88314400Y-90345400D01*
G75*
G02*
X88164400Y-90495400I-150000J0D01*
G01*
X86514400Y-90495400D01*
G75*
G02*
X86364400Y-90345400I0J150000D01*
G01*
X86364400Y-90045400D01*
G75*
G02*
X86514400Y-89895400I150000J0D01*
G01*
X88164400Y-89895400D01*
G75*
G02*
X88314400Y-90045400I0J-150000D01*
G01*
G37*
G36*
G01*
X88314400Y-88775400D02*
X88314400Y-89075400D01*
G75*
G02*
X88164400Y-89225400I-150000J0D01*
G01*
X86514400Y-89225400D01*
G75*
G02*
X86364400Y-89075400I0J150000D01*
G01*
X86364400Y-88775400D01*
G75*
G02*
X86514400Y-88625400I150000J0D01*
G01*
X88164400Y-88625400D01*
G75*
G02*
X88314400Y-88775400I0J-150000D01*
G01*
G37*
G36*
G01*
X185092000Y-113825000D02*
X185092000Y-114775000D01*
G75*
G02*
X184842000Y-115025000I-250000J0D01*
G01*
X184342000Y-115025000D01*
G75*
G02*
X184092000Y-114775000I0J250000D01*
G01*
X184092000Y-113825000D01*
G75*
G02*
X184342000Y-113575000I250000J0D01*
G01*
X184842000Y-113575000D01*
G75*
G02*
X185092000Y-113825000I0J-250000D01*
G01*
G37*
G36*
G01*
X183192000Y-113825000D02*
X183192000Y-114775000D01*
G75*
G02*
X182942000Y-115025000I-250000J0D01*
G01*
X182442000Y-115025000D01*
G75*
G02*
X182192000Y-114775000I0J250000D01*
G01*
X182192000Y-113825000D01*
G75*
G02*
X182442000Y-113575000I250000J0D01*
G01*
X182942000Y-113575000D01*
G75*
G02*
X183192000Y-113825000I0J-250000D01*
G01*
G37*
D16*
X187872380Y-126365000D03*
D17*
X185372380Y-126365000D03*
G36*
G01*
X138199200Y-90391000D02*
X138199200Y-89441000D01*
G75*
G02*
X138449200Y-89191000I250000J0D01*
G01*
X138949200Y-89191000D01*
G75*
G02*
X139199200Y-89441000I0J-250000D01*
G01*
X139199200Y-90391000D01*
G75*
G02*
X138949200Y-90641000I-250000J0D01*
G01*
X138449200Y-90641000D01*
G75*
G02*
X138199200Y-90391000I0J250000D01*
G01*
G37*
G36*
G01*
X140099200Y-90391000D02*
X140099200Y-89441000D01*
G75*
G02*
X140349200Y-89191000I250000J0D01*
G01*
X140849200Y-89191000D01*
G75*
G02*
X141099200Y-89441000I0J-250000D01*
G01*
X141099200Y-90391000D01*
G75*
G02*
X140849200Y-90641000I-250000J0D01*
G01*
X140349200Y-90641000D01*
G75*
G02*
X140099200Y-90391000I0J250000D01*
G01*
G37*
G36*
G01*
X133382000Y-58732000D02*
X133382000Y-59632000D01*
G75*
G02*
X133132000Y-59882000I-250000J0D01*
G01*
X132607000Y-59882000D01*
G75*
G02*
X132357000Y-59632000I0J250000D01*
G01*
X132357000Y-58732000D01*
G75*
G02*
X132607000Y-58482000I250000J0D01*
G01*
X133132000Y-58482000D01*
G75*
G02*
X133382000Y-58732000I0J-250000D01*
G01*
G37*
G36*
G01*
X131557000Y-58732000D02*
X131557000Y-59632000D01*
G75*
G02*
X131307000Y-59882000I-250000J0D01*
G01*
X130782000Y-59882000D01*
G75*
G02*
X130532000Y-59632000I0J250000D01*
G01*
X130532000Y-58732000D01*
G75*
G02*
X130782000Y-58482000I250000J0D01*
G01*
X131307000Y-58482000D01*
G75*
G02*
X131557000Y-58732000I0J-250000D01*
G01*
G37*
D19*
X200660000Y-120650000D03*
X208280000Y-120650000D03*
G36*
G01*
X70172000Y-79902000D02*
X71862000Y-79902000D01*
G75*
G02*
X72112000Y-80152000I0J-250000D01*
G01*
X72112000Y-81392000D01*
G75*
G02*
X71862000Y-81642000I-250000J0D01*
G01*
X70172000Y-81642000D01*
G75*
G02*
X69922000Y-81392000I0J250000D01*
G01*
X69922000Y-80152000D01*
G75*
G02*
X70172000Y-79902000I250000J0D01*
G01*
G37*
D20*
X71017000Y-83312000D03*
X71017000Y-85852000D03*
G36*
G01*
X143027000Y-122405000D02*
X143027000Y-122705000D01*
G75*
G02*
X142877000Y-122855000I-150000J0D01*
G01*
X141227000Y-122855000D01*
G75*
G02*
X141077000Y-122705000I0J150000D01*
G01*
X141077000Y-122405000D01*
G75*
G02*
X141227000Y-122255000I150000J0D01*
G01*
X142877000Y-122255000D01*
G75*
G02*
X143027000Y-122405000I0J-150000D01*
G01*
G37*
G36*
G01*
X143027000Y-123675000D02*
X143027000Y-123975000D01*
G75*
G02*
X142877000Y-124125000I-150000J0D01*
G01*
X141227000Y-124125000D01*
G75*
G02*
X141077000Y-123975000I0J150000D01*
G01*
X141077000Y-123675000D01*
G75*
G02*
X141227000Y-123525000I150000J0D01*
G01*
X142877000Y-123525000D01*
G75*
G02*
X143027000Y-123675000I0J-150000D01*
G01*
G37*
G36*
G01*
X143027000Y-124945000D02*
X143027000Y-125245000D01*
G75*
G02*
X142877000Y-125395000I-150000J0D01*
G01*
X141227000Y-125395000D01*
G75*
G02*
X141077000Y-125245000I0J150000D01*
G01*
X141077000Y-124945000D01*
G75*
G02*
X141227000Y-124795000I150000J0D01*
G01*
X142877000Y-124795000D01*
G75*
G02*
X143027000Y-124945000I0J-150000D01*
G01*
G37*
G36*
G01*
X143027000Y-126215000D02*
X143027000Y-126515000D01*
G75*
G02*
X142877000Y-126665000I-150000J0D01*
G01*
X141227000Y-126665000D01*
G75*
G02*
X141077000Y-126515000I0J150000D01*
G01*
X141077000Y-126215000D01*
G75*
G02*
X141227000Y-126065000I150000J0D01*
G01*
X142877000Y-126065000D01*
G75*
G02*
X143027000Y-126215000I0J-150000D01*
G01*
G37*
G36*
G01*
X138077000Y-126215000D02*
X138077000Y-126515000D01*
G75*
G02*
X137927000Y-126665000I-150000J0D01*
G01*
X136277000Y-126665000D01*
G75*
G02*
X136127000Y-126515000I0J150000D01*
G01*
X136127000Y-126215000D01*
G75*
G02*
X136277000Y-126065000I150000J0D01*
G01*
X137927000Y-126065000D01*
G75*
G02*
X138077000Y-126215000I0J-150000D01*
G01*
G37*
G36*
G01*
X138077000Y-124945000D02*
X138077000Y-125245000D01*
G75*
G02*
X137927000Y-125395000I-150000J0D01*
G01*
X136277000Y-125395000D01*
G75*
G02*
X136127000Y-125245000I0J150000D01*
G01*
X136127000Y-124945000D01*
G75*
G02*
X136277000Y-124795000I150000J0D01*
G01*
X137927000Y-124795000D01*
G75*
G02*
X138077000Y-124945000I0J-150000D01*
G01*
G37*
G36*
G01*
X138077000Y-123675000D02*
X138077000Y-123975000D01*
G75*
G02*
X137927000Y-124125000I-150000J0D01*
G01*
X136277000Y-124125000D01*
G75*
G02*
X136127000Y-123975000I0J150000D01*
G01*
X136127000Y-123675000D01*
G75*
G02*
X136277000Y-123525000I150000J0D01*
G01*
X137927000Y-123525000D01*
G75*
G02*
X138077000Y-123675000I0J-150000D01*
G01*
G37*
G36*
G01*
X138077000Y-122405000D02*
X138077000Y-122705000D01*
G75*
G02*
X137927000Y-122855000I-150000J0D01*
G01*
X136277000Y-122855000D01*
G75*
G02*
X136127000Y-122705000I0J150000D01*
G01*
X136127000Y-122405000D01*
G75*
G02*
X136277000Y-122255000I150000J0D01*
G01*
X137927000Y-122255000D01*
G75*
G02*
X138077000Y-122405000I0J-150000D01*
G01*
G37*
D16*
X180046000Y-126365000D03*
D17*
X177546000Y-126365000D03*
G36*
G01*
X133407000Y-125890000D02*
X133407000Y-126840000D01*
G75*
G02*
X133157000Y-127090000I-250000J0D01*
G01*
X132657000Y-127090000D01*
G75*
G02*
X132407000Y-126840000I0J250000D01*
G01*
X132407000Y-125890000D01*
G75*
G02*
X132657000Y-125640000I250000J0D01*
G01*
X133157000Y-125640000D01*
G75*
G02*
X133407000Y-125890000I0J-250000D01*
G01*
G37*
G36*
G01*
X131507000Y-125890000D02*
X131507000Y-126840000D01*
G75*
G02*
X131257000Y-127090000I-250000J0D01*
G01*
X130757000Y-127090000D01*
G75*
G02*
X130507000Y-126840000I0J250000D01*
G01*
X130507000Y-125890000D01*
G75*
G02*
X130757000Y-125640000I250000J0D01*
G01*
X131257000Y-125640000D01*
G75*
G02*
X131507000Y-125890000I0J-250000D01*
G01*
G37*
D18*
X128273000Y-64770000D03*
X124973000Y-64770000D03*
G36*
G01*
X125372000Y-140652000D02*
X125372000Y-138962000D01*
G75*
G02*
X125622000Y-138712000I250000J0D01*
G01*
X126862000Y-138712000D01*
G75*
G02*
X127112000Y-138962000I0J-250000D01*
G01*
X127112000Y-140652000D01*
G75*
G02*
X126862000Y-140902000I-250000J0D01*
G01*
X125622000Y-140902000D01*
G75*
G02*
X125372000Y-140652000I0J250000D01*
G01*
G37*
D21*
X128782000Y-139807000D03*
G36*
G01*
X89232400Y-95638600D02*
X89232400Y-96588600D01*
G75*
G02*
X88982400Y-96838600I-250000J0D01*
G01*
X88482400Y-96838600D01*
G75*
G02*
X88232400Y-96588600I0J250000D01*
G01*
X88232400Y-95638600D01*
G75*
G02*
X88482400Y-95388600I250000J0D01*
G01*
X88982400Y-95388600D01*
G75*
G02*
X89232400Y-95638600I0J-250000D01*
G01*
G37*
G36*
G01*
X87332400Y-95638600D02*
X87332400Y-96588600D01*
G75*
G02*
X87082400Y-96838600I-250000J0D01*
G01*
X86582400Y-96838600D01*
G75*
G02*
X86332400Y-96588600I0J250000D01*
G01*
X86332400Y-95638600D01*
G75*
G02*
X86582400Y-95388600I250000J0D01*
G01*
X87082400Y-95388600D01*
G75*
G02*
X87332400Y-95638600I0J-250000D01*
G01*
G37*
G36*
G01*
X130532000Y-56584000D02*
X130532000Y-55684000D01*
G75*
G02*
X130782000Y-55434000I250000J0D01*
G01*
X131307000Y-55434000D01*
G75*
G02*
X131557000Y-55684000I0J-250000D01*
G01*
X131557000Y-56584000D01*
G75*
G02*
X131307000Y-56834000I-250000J0D01*
G01*
X130782000Y-56834000D01*
G75*
G02*
X130532000Y-56584000I0J250000D01*
G01*
G37*
G36*
G01*
X132357000Y-56584000D02*
X132357000Y-55684000D01*
G75*
G02*
X132607000Y-55434000I250000J0D01*
G01*
X133132000Y-55434000D01*
G75*
G02*
X133382000Y-55684000I0J-250000D01*
G01*
X133382000Y-56584000D01*
G75*
G02*
X133132000Y-56834000I-250000J0D01*
G01*
X132607000Y-56834000D01*
G75*
G02*
X132357000Y-56584000I0J250000D01*
G01*
G37*
G36*
G01*
X130532000Y-50234000D02*
X130532000Y-49334000D01*
G75*
G02*
X130782000Y-49084000I250000J0D01*
G01*
X131307000Y-49084000D01*
G75*
G02*
X131557000Y-49334000I0J-250000D01*
G01*
X131557000Y-50234000D01*
G75*
G02*
X131307000Y-50484000I-250000J0D01*
G01*
X130782000Y-50484000D01*
G75*
G02*
X130532000Y-50234000I0J250000D01*
G01*
G37*
G36*
G01*
X132357000Y-50234000D02*
X132357000Y-49334000D01*
G75*
G02*
X132607000Y-49084000I250000J0D01*
G01*
X133132000Y-49084000D01*
G75*
G02*
X133382000Y-49334000I0J-250000D01*
G01*
X133382000Y-50234000D01*
G75*
G02*
X133132000Y-50484000I-250000J0D01*
G01*
X132607000Y-50484000D01*
G75*
G02*
X132357000Y-50234000I0J250000D01*
G01*
G37*
D18*
X128273000Y-94742000D03*
X124973000Y-94742000D03*
G36*
G01*
X185092000Y-91727000D02*
X185092000Y-92677000D01*
G75*
G02*
X184842000Y-92927000I-250000J0D01*
G01*
X184342000Y-92927000D01*
G75*
G02*
X184092000Y-92677000I0J250000D01*
G01*
X184092000Y-91727000D01*
G75*
G02*
X184342000Y-91477000I250000J0D01*
G01*
X184842000Y-91477000D01*
G75*
G02*
X185092000Y-91727000I0J-250000D01*
G01*
G37*
G36*
G01*
X183192000Y-91727000D02*
X183192000Y-92677000D01*
G75*
G02*
X182942000Y-92927000I-250000J0D01*
G01*
X182442000Y-92927000D01*
G75*
G02*
X182192000Y-92677000I0J250000D01*
G01*
X182192000Y-91727000D01*
G75*
G02*
X182442000Y-91477000I250000J0D01*
G01*
X182942000Y-91477000D01*
G75*
G02*
X183192000Y-91727000I0J-250000D01*
G01*
G37*
G36*
G01*
X185110800Y-50167400D02*
X185110800Y-50467400D01*
G75*
G02*
X184960800Y-50617400I-150000J0D01*
G01*
X183310800Y-50617400D01*
G75*
G02*
X183160800Y-50467400I0J150000D01*
G01*
X183160800Y-50167400D01*
G75*
G02*
X183310800Y-50017400I150000J0D01*
G01*
X184960800Y-50017400D01*
G75*
G02*
X185110800Y-50167400I0J-150000D01*
G01*
G37*
G36*
G01*
X185110800Y-51437400D02*
X185110800Y-51737400D01*
G75*
G02*
X184960800Y-51887400I-150000J0D01*
G01*
X183310800Y-51887400D01*
G75*
G02*
X183160800Y-51737400I0J150000D01*
G01*
X183160800Y-51437400D01*
G75*
G02*
X183310800Y-51287400I150000J0D01*
G01*
X184960800Y-51287400D01*
G75*
G02*
X185110800Y-51437400I0J-150000D01*
G01*
G37*
G36*
G01*
X185110800Y-52707400D02*
X185110800Y-53007400D01*
G75*
G02*
X184960800Y-53157400I-150000J0D01*
G01*
X183310800Y-53157400D01*
G75*
G02*
X183160800Y-53007400I0J150000D01*
G01*
X183160800Y-52707400D01*
G75*
G02*
X183310800Y-52557400I150000J0D01*
G01*
X184960800Y-52557400D01*
G75*
G02*
X185110800Y-52707400I0J-150000D01*
G01*
G37*
G36*
G01*
X185110800Y-53977400D02*
X185110800Y-54277400D01*
G75*
G02*
X184960800Y-54427400I-150000J0D01*
G01*
X183310800Y-54427400D01*
G75*
G02*
X183160800Y-54277400I0J150000D01*
G01*
X183160800Y-53977400D01*
G75*
G02*
X183310800Y-53827400I150000J0D01*
G01*
X184960800Y-53827400D01*
G75*
G02*
X185110800Y-53977400I0J-150000D01*
G01*
G37*
G36*
G01*
X180160800Y-53977400D02*
X180160800Y-54277400D01*
G75*
G02*
X180010800Y-54427400I-150000J0D01*
G01*
X178360800Y-54427400D01*
G75*
G02*
X178210800Y-54277400I0J150000D01*
G01*
X178210800Y-53977400D01*
G75*
G02*
X178360800Y-53827400I150000J0D01*
G01*
X180010800Y-53827400D01*
G75*
G02*
X180160800Y-53977400I0J-150000D01*
G01*
G37*
G36*
G01*
X180160800Y-52707400D02*
X180160800Y-53007400D01*
G75*
G02*
X180010800Y-53157400I-150000J0D01*
G01*
X178360800Y-53157400D01*
G75*
G02*
X178210800Y-53007400I0J150000D01*
G01*
X178210800Y-52707400D01*
G75*
G02*
X178360800Y-52557400I150000J0D01*
G01*
X180010800Y-52557400D01*
G75*
G02*
X180160800Y-52707400I0J-150000D01*
G01*
G37*
G36*
G01*
X180160800Y-51437400D02*
X180160800Y-51737400D01*
G75*
G02*
X180010800Y-51887400I-150000J0D01*
G01*
X178360800Y-51887400D01*
G75*
G02*
X178210800Y-51737400I0J150000D01*
G01*
X178210800Y-51437400D01*
G75*
G02*
X178360800Y-51287400I150000J0D01*
G01*
X180010800Y-51287400D01*
G75*
G02*
X180160800Y-51437400I0J-150000D01*
G01*
G37*
G36*
G01*
X180160800Y-50167400D02*
X180160800Y-50467400D01*
G75*
G02*
X180010800Y-50617400I-150000J0D01*
G01*
X178360800Y-50617400D01*
G75*
G02*
X178210800Y-50467400I0J150000D01*
G01*
X178210800Y-50167400D01*
G75*
G02*
X178360800Y-50017400I150000J0D01*
G01*
X180010800Y-50017400D01*
G75*
G02*
X180160800Y-50167400I0J-150000D01*
G01*
G37*
G36*
G01*
X171345800Y-61308400D02*
X171345800Y-60408400D01*
G75*
G02*
X171595800Y-60158400I250000J0D01*
G01*
X172120800Y-60158400D01*
G75*
G02*
X172370800Y-60408400I0J-250000D01*
G01*
X172370800Y-61308400D01*
G75*
G02*
X172120800Y-61558400I-250000J0D01*
G01*
X171595800Y-61558400D01*
G75*
G02*
X171345800Y-61308400I0J250000D01*
G01*
G37*
G36*
G01*
X173170800Y-61308400D02*
X173170800Y-60408400D01*
G75*
G02*
X173420800Y-60158400I250000J0D01*
G01*
X173945800Y-60158400D01*
G75*
G02*
X174195800Y-60408400I0J-250000D01*
G01*
X174195800Y-61308400D01*
G75*
G02*
X173945800Y-61558400I-250000J0D01*
G01*
X173420800Y-61558400D01*
G75*
G02*
X173170800Y-61308400I0J250000D01*
G01*
G37*
G36*
G01*
X130532000Y-109416000D02*
X130532000Y-108516000D01*
G75*
G02*
X130782000Y-108266000I250000J0D01*
G01*
X131307000Y-108266000D01*
G75*
G02*
X131557000Y-108516000I0J-250000D01*
G01*
X131557000Y-109416000D01*
G75*
G02*
X131307000Y-109666000I-250000J0D01*
G01*
X130782000Y-109666000D01*
G75*
G02*
X130532000Y-109416000I0J250000D01*
G01*
G37*
G36*
G01*
X132357000Y-109416000D02*
X132357000Y-108516000D01*
G75*
G02*
X132607000Y-108266000I250000J0D01*
G01*
X133132000Y-108266000D01*
G75*
G02*
X133382000Y-108516000I0J-250000D01*
G01*
X133382000Y-109416000D01*
G75*
G02*
X133132000Y-109666000I-250000J0D01*
G01*
X132607000Y-109666000D01*
G75*
G02*
X132357000Y-109416000I0J250000D01*
G01*
G37*
G36*
G01*
X145112000Y-61943000D02*
X145112000Y-60993000D01*
G75*
G02*
X145362000Y-60743000I250000J0D01*
G01*
X145862000Y-60743000D01*
G75*
G02*
X146112000Y-60993000I0J-250000D01*
G01*
X146112000Y-61943000D01*
G75*
G02*
X145862000Y-62193000I-250000J0D01*
G01*
X145362000Y-62193000D01*
G75*
G02*
X145112000Y-61943000I0J250000D01*
G01*
G37*
G36*
G01*
X147012000Y-61943000D02*
X147012000Y-60993000D01*
G75*
G02*
X147262000Y-60743000I250000J0D01*
G01*
X147762000Y-60743000D01*
G75*
G02*
X148012000Y-60993000I0J-250000D01*
G01*
X148012000Y-61943000D01*
G75*
G02*
X147762000Y-62193000I-250000J0D01*
G01*
X147262000Y-62193000D01*
G75*
G02*
X147012000Y-61943000I0J250000D01*
G01*
G37*
D16*
X224790000Y-139446000D03*
D17*
X222290000Y-139446000D03*
G36*
G01*
X128048000Y-85402000D02*
X128048000Y-86302000D01*
G75*
G02*
X127798000Y-86552000I-250000J0D01*
G01*
X127273000Y-86552000D01*
G75*
G02*
X127023000Y-86302000I0J250000D01*
G01*
X127023000Y-85402000D01*
G75*
G02*
X127273000Y-85152000I250000J0D01*
G01*
X127798000Y-85152000D01*
G75*
G02*
X128048000Y-85402000I0J-250000D01*
G01*
G37*
G36*
G01*
X126223000Y-85402000D02*
X126223000Y-86302000D01*
G75*
G02*
X125973000Y-86552000I-250000J0D01*
G01*
X125448000Y-86552000D01*
G75*
G02*
X125198000Y-86302000I0J250000D01*
G01*
X125198000Y-85402000D01*
G75*
G02*
X125448000Y-85152000I250000J0D01*
G01*
X125973000Y-85152000D01*
G75*
G02*
X126223000Y-85402000I0J-250000D01*
G01*
G37*
G36*
G01*
X158548200Y-60571800D02*
X158548200Y-59671800D01*
G75*
G02*
X158798200Y-59421800I250000J0D01*
G01*
X159323200Y-59421800D01*
G75*
G02*
X159573200Y-59671800I0J-250000D01*
G01*
X159573200Y-60571800D01*
G75*
G02*
X159323200Y-60821800I-250000J0D01*
G01*
X158798200Y-60821800D01*
G75*
G02*
X158548200Y-60571800I0J250000D01*
G01*
G37*
G36*
G01*
X160373200Y-60571800D02*
X160373200Y-59671800D01*
G75*
G02*
X160623200Y-59421800I250000J0D01*
G01*
X161148200Y-59421800D01*
G75*
G02*
X161398200Y-59671800I0J-250000D01*
G01*
X161398200Y-60571800D01*
G75*
G02*
X161148200Y-60821800I-250000J0D01*
G01*
X160623200Y-60821800D01*
G75*
G02*
X160373200Y-60571800I0J250000D01*
G01*
G37*
G36*
G01*
X133382000Y-46159000D02*
X133382000Y-47059000D01*
G75*
G02*
X133132000Y-47309000I-250000J0D01*
G01*
X132607000Y-47309000D01*
G75*
G02*
X132357000Y-47059000I0J250000D01*
G01*
X132357000Y-46159000D01*
G75*
G02*
X132607000Y-45909000I250000J0D01*
G01*
X133132000Y-45909000D01*
G75*
G02*
X133382000Y-46159000I0J-250000D01*
G01*
G37*
G36*
G01*
X131557000Y-46159000D02*
X131557000Y-47059000D01*
G75*
G02*
X131307000Y-47309000I-250000J0D01*
G01*
X130782000Y-47309000D01*
G75*
G02*
X130532000Y-47059000I0J250000D01*
G01*
X130532000Y-46159000D01*
G75*
G02*
X130782000Y-45909000I250000J0D01*
G01*
X131307000Y-45909000D01*
G75*
G02*
X131557000Y-46159000I0J-250000D01*
G01*
G37*
D18*
X174420800Y-56794400D03*
X171120800Y-56794400D03*
G36*
G01*
X171295000Y-108908000D02*
X171295000Y-108008000D01*
G75*
G02*
X171545000Y-107758000I250000J0D01*
G01*
X172070000Y-107758000D01*
G75*
G02*
X172320000Y-108008000I0J-250000D01*
G01*
X172320000Y-108908000D01*
G75*
G02*
X172070000Y-109158000I-250000J0D01*
G01*
X171545000Y-109158000D01*
G75*
G02*
X171295000Y-108908000I0J250000D01*
G01*
G37*
G36*
G01*
X173120000Y-108908000D02*
X173120000Y-108008000D01*
G75*
G02*
X173370000Y-107758000I250000J0D01*
G01*
X173895000Y-107758000D01*
G75*
G02*
X174145000Y-108008000I0J-250000D01*
G01*
X174145000Y-108908000D01*
G75*
G02*
X173895000Y-109158000I-250000J0D01*
G01*
X173370000Y-109158000D01*
G75*
G02*
X173120000Y-108908000I0J250000D01*
G01*
G37*
G36*
G01*
X181078800Y-57081400D02*
X181078800Y-58031400D01*
G75*
G02*
X180828800Y-58281400I-250000J0D01*
G01*
X180328800Y-58281400D01*
G75*
G02*
X180078800Y-58031400I0J250000D01*
G01*
X180078800Y-57081400D01*
G75*
G02*
X180328800Y-56831400I250000J0D01*
G01*
X180828800Y-56831400D01*
G75*
G02*
X181078800Y-57081400I0J-250000D01*
G01*
G37*
G36*
G01*
X179178800Y-57081400D02*
X179178800Y-58031400D01*
G75*
G02*
X178928800Y-58281400I-250000J0D01*
G01*
X178428800Y-58281400D01*
G75*
G02*
X178178800Y-58031400I0J250000D01*
G01*
X178178800Y-57081400D01*
G75*
G02*
X178428800Y-56831400I250000J0D01*
G01*
X178928800Y-56831400D01*
G75*
G02*
X179178800Y-57081400I0J-250000D01*
G01*
G37*
G36*
G01*
X128048000Y-114612000D02*
X128048000Y-115512000D01*
G75*
G02*
X127798000Y-115762000I-250000J0D01*
G01*
X127273000Y-115762000D01*
G75*
G02*
X127023000Y-115512000I0J250000D01*
G01*
X127023000Y-114612000D01*
G75*
G02*
X127273000Y-114362000I250000J0D01*
G01*
X127798000Y-114362000D01*
G75*
G02*
X128048000Y-114612000I0J-250000D01*
G01*
G37*
G36*
G01*
X126223000Y-114612000D02*
X126223000Y-115512000D01*
G75*
G02*
X125973000Y-115762000I-250000J0D01*
G01*
X125448000Y-115762000D01*
G75*
G02*
X125198000Y-115512000I0J250000D01*
G01*
X125198000Y-114612000D01*
G75*
G02*
X125448000Y-114362000I250000J0D01*
G01*
X125973000Y-114362000D01*
G75*
G02*
X126223000Y-114612000I0J-250000D01*
G01*
G37*
G36*
G01*
X70172000Y-125622000D02*
X71862000Y-125622000D01*
G75*
G02*
X72112000Y-125872000I0J-250000D01*
G01*
X72112000Y-127112000D01*
G75*
G02*
X71862000Y-127362000I-250000J0D01*
G01*
X70172000Y-127362000D01*
G75*
G02*
X69922000Y-127112000I0J250000D01*
G01*
X69922000Y-125872000D01*
G75*
G02*
X70172000Y-125622000I250000J0D01*
G01*
G37*
D20*
X71017000Y-129032000D03*
X71017000Y-131572000D03*
G36*
G01*
X185060000Y-73891000D02*
X185060000Y-74191000D01*
G75*
G02*
X184910000Y-74341000I-150000J0D01*
G01*
X183260000Y-74341000D01*
G75*
G02*
X183110000Y-74191000I0J150000D01*
G01*
X183110000Y-73891000D01*
G75*
G02*
X183260000Y-73741000I150000J0D01*
G01*
X184910000Y-73741000D01*
G75*
G02*
X185060000Y-73891000I0J-150000D01*
G01*
G37*
G36*
G01*
X185060000Y-75161000D02*
X185060000Y-75461000D01*
G75*
G02*
X184910000Y-75611000I-150000J0D01*
G01*
X183260000Y-75611000D01*
G75*
G02*
X183110000Y-75461000I0J150000D01*
G01*
X183110000Y-75161000D01*
G75*
G02*
X183260000Y-75011000I150000J0D01*
G01*
X184910000Y-75011000D01*
G75*
G02*
X185060000Y-75161000I0J-150000D01*
G01*
G37*
G36*
G01*
X185060000Y-76431000D02*
X185060000Y-76731000D01*
G75*
G02*
X184910000Y-76881000I-150000J0D01*
G01*
X183260000Y-76881000D01*
G75*
G02*
X183110000Y-76731000I0J150000D01*
G01*
X183110000Y-76431000D01*
G75*
G02*
X183260000Y-76281000I150000J0D01*
G01*
X184910000Y-76281000D01*
G75*
G02*
X185060000Y-76431000I0J-150000D01*
G01*
G37*
G36*
G01*
X185060000Y-77701000D02*
X185060000Y-78001000D01*
G75*
G02*
X184910000Y-78151000I-150000J0D01*
G01*
X183260000Y-78151000D01*
G75*
G02*
X183110000Y-78001000I0J150000D01*
G01*
X183110000Y-77701000D01*
G75*
G02*
X183260000Y-77551000I150000J0D01*
G01*
X184910000Y-77551000D01*
G75*
G02*
X185060000Y-77701000I0J-150000D01*
G01*
G37*
G36*
G01*
X180110000Y-77701000D02*
X180110000Y-78001000D01*
G75*
G02*
X179960000Y-78151000I-150000J0D01*
G01*
X178310000Y-78151000D01*
G75*
G02*
X178160000Y-78001000I0J150000D01*
G01*
X178160000Y-77701000D01*
G75*
G02*
X178310000Y-77551000I150000J0D01*
G01*
X179960000Y-77551000D01*
G75*
G02*
X180110000Y-77701000I0J-150000D01*
G01*
G37*
G36*
G01*
X180110000Y-76431000D02*
X180110000Y-76731000D01*
G75*
G02*
X179960000Y-76881000I-150000J0D01*
G01*
X178310000Y-76881000D01*
G75*
G02*
X178160000Y-76731000I0J150000D01*
G01*
X178160000Y-76431000D01*
G75*
G02*
X178310000Y-76281000I150000J0D01*
G01*
X179960000Y-76281000D01*
G75*
G02*
X180110000Y-76431000I0J-150000D01*
G01*
G37*
G36*
G01*
X180110000Y-75161000D02*
X180110000Y-75461000D01*
G75*
G02*
X179960000Y-75611000I-150000J0D01*
G01*
X178310000Y-75611000D01*
G75*
G02*
X178160000Y-75461000I0J150000D01*
G01*
X178160000Y-75161000D01*
G75*
G02*
X178310000Y-75011000I150000J0D01*
G01*
X179960000Y-75011000D01*
G75*
G02*
X180110000Y-75161000I0J-150000D01*
G01*
G37*
G36*
G01*
X180110000Y-73891000D02*
X180110000Y-74191000D01*
G75*
G02*
X179960000Y-74341000I-150000J0D01*
G01*
X178310000Y-74341000D01*
G75*
G02*
X178160000Y-74191000I0J150000D01*
G01*
X178160000Y-73891000D01*
G75*
G02*
X178310000Y-73741000I150000J0D01*
G01*
X179960000Y-73741000D01*
G75*
G02*
X180110000Y-73891000I0J-150000D01*
G01*
G37*
G36*
G01*
X133382000Y-52509000D02*
X133382000Y-53409000D01*
G75*
G02*
X133132000Y-53659000I-250000J0D01*
G01*
X132607000Y-53659000D01*
G75*
G02*
X132357000Y-53409000I0J250000D01*
G01*
X132357000Y-52509000D01*
G75*
G02*
X132607000Y-52259000I250000J0D01*
G01*
X133132000Y-52259000D01*
G75*
G02*
X133382000Y-52509000I0J-250000D01*
G01*
G37*
G36*
G01*
X131557000Y-52509000D02*
X131557000Y-53409000D01*
G75*
G02*
X131307000Y-53659000I-250000J0D01*
G01*
X130782000Y-53659000D01*
G75*
G02*
X130532000Y-53409000I0J250000D01*
G01*
X130532000Y-52509000D01*
G75*
G02*
X130782000Y-52259000I250000J0D01*
G01*
X131307000Y-52259000D01*
G75*
G02*
X131557000Y-52509000I0J-250000D01*
G01*
G37*
G36*
G01*
X181028000Y-113825000D02*
X181028000Y-114775000D01*
G75*
G02*
X180778000Y-115025000I-250000J0D01*
G01*
X180278000Y-115025000D01*
G75*
G02*
X180028000Y-114775000I0J250000D01*
G01*
X180028000Y-113825000D01*
G75*
G02*
X180278000Y-113575000I250000J0D01*
G01*
X180778000Y-113575000D01*
G75*
G02*
X181028000Y-113825000I0J-250000D01*
G01*
G37*
G36*
G01*
X179128000Y-113825000D02*
X179128000Y-114775000D01*
G75*
G02*
X178878000Y-115025000I-250000J0D01*
G01*
X178378000Y-115025000D01*
G75*
G02*
X178128000Y-114775000I0J250000D01*
G01*
X178128000Y-113825000D01*
G75*
G02*
X178378000Y-113575000I250000J0D01*
G01*
X178878000Y-113575000D01*
G75*
G02*
X179128000Y-113825000I0J-250000D01*
G01*
G37*
D16*
X227627380Y-103378000D03*
D17*
X225127380Y-103378000D03*
G36*
G01*
X171295000Y-115512000D02*
X171295000Y-114612000D01*
G75*
G02*
X171545000Y-114362000I250000J0D01*
G01*
X172070000Y-114362000D01*
G75*
G02*
X172320000Y-114612000I0J-250000D01*
G01*
X172320000Y-115512000D01*
G75*
G02*
X172070000Y-115762000I-250000J0D01*
G01*
X171545000Y-115762000D01*
G75*
G02*
X171295000Y-115512000I0J250000D01*
G01*
G37*
G36*
G01*
X173120000Y-115512000D02*
X173120000Y-114612000D01*
G75*
G02*
X173370000Y-114362000I250000J0D01*
G01*
X173895000Y-114362000D01*
G75*
G02*
X174145000Y-114612000I0J-250000D01*
G01*
X174145000Y-115512000D01*
G75*
G02*
X173895000Y-115762000I-250000J0D01*
G01*
X173370000Y-115762000D01*
G75*
G02*
X173120000Y-115512000I0J250000D01*
G01*
G37*
G36*
G01*
X81277400Y-93515600D02*
X81277400Y-92615600D01*
G75*
G02*
X81527400Y-92365600I250000J0D01*
G01*
X82052400Y-92365600D01*
G75*
G02*
X82302400Y-92615600I0J-250000D01*
G01*
X82302400Y-93515600D01*
G75*
G02*
X82052400Y-93765600I-250000J0D01*
G01*
X81527400Y-93765600D01*
G75*
G02*
X81277400Y-93515600I0J250000D01*
G01*
G37*
G36*
G01*
X83102400Y-93515600D02*
X83102400Y-92615600D01*
G75*
G02*
X83352400Y-92365600I250000J0D01*
G01*
X83877400Y-92365600D01*
G75*
G02*
X84127400Y-92615600I0J-250000D01*
G01*
X84127400Y-93515600D01*
G75*
G02*
X83877400Y-93765600I-250000J0D01*
G01*
X83352400Y-93765600D01*
G75*
G02*
X83102400Y-93515600I0J250000D01*
G01*
G37*
G36*
G01*
X185092000Y-103157000D02*
X185092000Y-104107000D01*
G75*
G02*
X184842000Y-104357000I-250000J0D01*
G01*
X184342000Y-104357000D01*
G75*
G02*
X184092000Y-104107000I0J250000D01*
G01*
X184092000Y-103157000D01*
G75*
G02*
X184342000Y-102907000I250000J0D01*
G01*
X184842000Y-102907000D01*
G75*
G02*
X185092000Y-103157000I0J-250000D01*
G01*
G37*
G36*
G01*
X183192000Y-103157000D02*
X183192000Y-104107000D01*
G75*
G02*
X182942000Y-104357000I-250000J0D01*
G01*
X182442000Y-104357000D01*
G75*
G02*
X182192000Y-104107000I0J250000D01*
G01*
X182192000Y-103157000D01*
G75*
G02*
X182442000Y-102907000I250000J0D01*
G01*
X182942000Y-102907000D01*
G75*
G02*
X183192000Y-103157000I0J-250000D01*
G01*
G37*
D15*
X173177200Y-121285000D03*
G36*
G01*
X164727500Y-142552000D02*
X164727500Y-143452000D01*
G75*
G02*
X164477500Y-143702000I-250000J0D01*
G01*
X163952500Y-143702000D01*
G75*
G02*
X163702500Y-143452000I0J250000D01*
G01*
X163702500Y-142552000D01*
G75*
G02*
X163952500Y-142302000I250000J0D01*
G01*
X164477500Y-142302000D01*
G75*
G02*
X164727500Y-142552000I0J-250000D01*
G01*
G37*
G36*
G01*
X162902500Y-142552000D02*
X162902500Y-143452000D01*
G75*
G02*
X162652500Y-143702000I-250000J0D01*
G01*
X162127500Y-143702000D01*
G75*
G02*
X161877500Y-143452000I0J250000D01*
G01*
X161877500Y-142552000D01*
G75*
G02*
X162127500Y-142302000I250000J0D01*
G01*
X162652500Y-142302000D01*
G75*
G02*
X162902500Y-142552000I0J-250000D01*
G01*
G37*
G36*
G01*
X171295000Y-105352000D02*
X171295000Y-104452000D01*
G75*
G02*
X171545000Y-104202000I250000J0D01*
G01*
X172070000Y-104202000D01*
G75*
G02*
X172320000Y-104452000I0J-250000D01*
G01*
X172320000Y-105352000D01*
G75*
G02*
X172070000Y-105602000I-250000J0D01*
G01*
X171545000Y-105602000D01*
G75*
G02*
X171295000Y-105352000I0J250000D01*
G01*
G37*
G36*
G01*
X173120000Y-105352000D02*
X173120000Y-104452000D01*
G75*
G02*
X173370000Y-104202000I250000J0D01*
G01*
X173895000Y-104202000D01*
G75*
G02*
X174145000Y-104452000I0J-250000D01*
G01*
X174145000Y-105352000D01*
G75*
G02*
X173895000Y-105602000I-250000J0D01*
G01*
X173370000Y-105602000D01*
G75*
G02*
X173120000Y-105352000I0J250000D01*
G01*
G37*
G36*
G01*
X174195800Y-67266400D02*
X174195800Y-68166400D01*
G75*
G02*
X173945800Y-68416400I-250000J0D01*
G01*
X173420800Y-68416400D01*
G75*
G02*
X173170800Y-68166400I0J250000D01*
G01*
X173170800Y-67266400D01*
G75*
G02*
X173420800Y-67016400I250000J0D01*
G01*
X173945800Y-67016400D01*
G75*
G02*
X174195800Y-67266400I0J-250000D01*
G01*
G37*
G36*
G01*
X172370800Y-67266400D02*
X172370800Y-68166400D01*
G75*
G02*
X172120800Y-68416400I-250000J0D01*
G01*
X171595800Y-68416400D01*
G75*
G02*
X171345800Y-68166400I0J250000D01*
G01*
X171345800Y-67266400D01*
G75*
G02*
X171595800Y-67016400I250000J0D01*
G01*
X172120800Y-67016400D01*
G75*
G02*
X172370800Y-67266400I0J-250000D01*
G01*
G37*
G36*
G01*
X133382000Y-88704000D02*
X133382000Y-89604000D01*
G75*
G02*
X133132000Y-89854000I-250000J0D01*
G01*
X132607000Y-89854000D01*
G75*
G02*
X132357000Y-89604000I0J250000D01*
G01*
X132357000Y-88704000D01*
G75*
G02*
X132607000Y-88454000I250000J0D01*
G01*
X133132000Y-88454000D01*
G75*
G02*
X133382000Y-88704000I0J-250000D01*
G01*
G37*
G36*
G01*
X131557000Y-88704000D02*
X131557000Y-89604000D01*
G75*
G02*
X131307000Y-89854000I-250000J0D01*
G01*
X130782000Y-89854000D01*
G75*
G02*
X130532000Y-89604000I0J250000D01*
G01*
X130532000Y-88704000D01*
G75*
G02*
X130782000Y-88454000I250000J0D01*
G01*
X131307000Y-88454000D01*
G75*
G02*
X131557000Y-88704000I0J-250000D01*
G01*
G37*
G36*
G01*
X145112000Y-91915000D02*
X145112000Y-90965000D01*
G75*
G02*
X145362000Y-90715000I250000J0D01*
G01*
X145862000Y-90715000D01*
G75*
G02*
X146112000Y-90965000I0J-250000D01*
G01*
X146112000Y-91915000D01*
G75*
G02*
X145862000Y-92165000I-250000J0D01*
G01*
X145362000Y-92165000D01*
G75*
G02*
X145112000Y-91915000I0J250000D01*
G01*
G37*
G36*
G01*
X147012000Y-91915000D02*
X147012000Y-90965000D01*
G75*
G02*
X147262000Y-90715000I250000J0D01*
G01*
X147762000Y-90715000D01*
G75*
G02*
X148012000Y-90965000I0J-250000D01*
G01*
X148012000Y-91915000D01*
G75*
G02*
X147762000Y-92165000I-250000J0D01*
G01*
X147262000Y-92165000D01*
G75*
G02*
X147012000Y-91915000I0J250000D01*
G01*
G37*
G36*
G01*
X138199200Y-60673000D02*
X138199200Y-59723000D01*
G75*
G02*
X138449200Y-59473000I250000J0D01*
G01*
X138949200Y-59473000D01*
G75*
G02*
X139199200Y-59723000I0J-250000D01*
G01*
X139199200Y-60673000D01*
G75*
G02*
X138949200Y-60923000I-250000J0D01*
G01*
X138449200Y-60923000D01*
G75*
G02*
X138199200Y-60673000I0J250000D01*
G01*
G37*
G36*
G01*
X140099200Y-60673000D02*
X140099200Y-59723000D01*
G75*
G02*
X140349200Y-59473000I250000J0D01*
G01*
X140849200Y-59473000D01*
G75*
G02*
X141099200Y-59723000I0J-250000D01*
G01*
X141099200Y-60673000D01*
G75*
G02*
X140849200Y-60923000I-250000J0D01*
G01*
X140349200Y-60923000D01*
G75*
G02*
X140099200Y-60673000I0J250000D01*
G01*
G37*
G36*
G01*
X127723000Y-61619000D02*
X127423000Y-61619000D01*
G75*
G02*
X127273000Y-61469000I0J150000D01*
G01*
X127273000Y-60294000D01*
G75*
G02*
X127423000Y-60144000I150000J0D01*
G01*
X127723000Y-60144000D01*
G75*
G02*
X127873000Y-60294000I0J-150000D01*
G01*
X127873000Y-61469000D01*
G75*
G02*
X127723000Y-61619000I-150000J0D01*
G01*
G37*
G36*
G01*
X125823000Y-61619000D02*
X125523000Y-61619000D01*
G75*
G02*
X125373000Y-61469000I0J150000D01*
G01*
X125373000Y-60294000D01*
G75*
G02*
X125523000Y-60144000I150000J0D01*
G01*
X125823000Y-60144000D01*
G75*
G02*
X125973000Y-60294000I0J-150000D01*
G01*
X125973000Y-61469000D01*
G75*
G02*
X125823000Y-61619000I-150000J0D01*
G01*
G37*
G36*
G01*
X126773000Y-59744000D02*
X126473000Y-59744000D01*
G75*
G02*
X126323000Y-59594000I0J150000D01*
G01*
X126323000Y-58419000D01*
G75*
G02*
X126473000Y-58269000I150000J0D01*
G01*
X126773000Y-58269000D01*
G75*
G02*
X126923000Y-58419000I0J-150000D01*
G01*
X126923000Y-59594000D01*
G75*
G02*
X126773000Y-59744000I-150000J0D01*
G01*
G37*
G36*
G01*
X174145000Y-96832000D02*
X174145000Y-97732000D01*
G75*
G02*
X173895000Y-97982000I-250000J0D01*
G01*
X173370000Y-97982000D01*
G75*
G02*
X173120000Y-97732000I0J250000D01*
G01*
X173120000Y-96832000D01*
G75*
G02*
X173370000Y-96582000I250000J0D01*
G01*
X173895000Y-96582000D01*
G75*
G02*
X174145000Y-96832000I0J-250000D01*
G01*
G37*
G36*
G01*
X172320000Y-96832000D02*
X172320000Y-97732000D01*
G75*
G02*
X172070000Y-97982000I-250000J0D01*
G01*
X171545000Y-97982000D01*
G75*
G02*
X171295000Y-97732000I0J250000D01*
G01*
X171295000Y-96832000D01*
G75*
G02*
X171545000Y-96582000I250000J0D01*
G01*
X172070000Y-96582000D01*
G75*
G02*
X172320000Y-96832000I0J-250000D01*
G01*
G37*
G36*
G01*
X147987000Y-94165000D02*
X147987000Y-95065000D01*
G75*
G02*
X147737000Y-95315000I-250000J0D01*
G01*
X147212000Y-95315000D01*
G75*
G02*
X146962000Y-95065000I0J250000D01*
G01*
X146962000Y-94165000D01*
G75*
G02*
X147212000Y-93915000I250000J0D01*
G01*
X147737000Y-93915000D01*
G75*
G02*
X147987000Y-94165000I0J-250000D01*
G01*
G37*
G36*
G01*
X146162000Y-94165000D02*
X146162000Y-95065000D01*
G75*
G02*
X145912000Y-95315000I-250000J0D01*
G01*
X145387000Y-95315000D01*
G75*
G02*
X145137000Y-95065000I0J250000D01*
G01*
X145137000Y-94165000D01*
G75*
G02*
X145387000Y-93915000I250000J0D01*
G01*
X145912000Y-93915000D01*
G75*
G02*
X146162000Y-94165000I0J-250000D01*
G01*
G37*
G36*
G01*
X133407000Y-96680000D02*
X133407000Y-97630000D01*
G75*
G02*
X133157000Y-97880000I-250000J0D01*
G01*
X132657000Y-97880000D01*
G75*
G02*
X132407000Y-97630000I0J250000D01*
G01*
X132407000Y-96680000D01*
G75*
G02*
X132657000Y-96430000I250000J0D01*
G01*
X133157000Y-96430000D01*
G75*
G02*
X133407000Y-96680000I0J-250000D01*
G01*
G37*
G36*
G01*
X131507000Y-96680000D02*
X131507000Y-97630000D01*
G75*
G02*
X131257000Y-97880000I-250000J0D01*
G01*
X130757000Y-97880000D01*
G75*
G02*
X130507000Y-97630000I0J250000D01*
G01*
X130507000Y-96680000D01*
G75*
G02*
X130757000Y-96430000I250000J0D01*
G01*
X131257000Y-96430000D01*
G75*
G02*
X131507000Y-96680000I0J-250000D01*
G01*
G37*
G36*
G01*
X143027000Y-47729000D02*
X143027000Y-48029000D01*
G75*
G02*
X142877000Y-48179000I-150000J0D01*
G01*
X141227000Y-48179000D01*
G75*
G02*
X141077000Y-48029000I0J150000D01*
G01*
X141077000Y-47729000D01*
G75*
G02*
X141227000Y-47579000I150000J0D01*
G01*
X142877000Y-47579000D01*
G75*
G02*
X143027000Y-47729000I0J-150000D01*
G01*
G37*
G36*
G01*
X143027000Y-48999000D02*
X143027000Y-49299000D01*
G75*
G02*
X142877000Y-49449000I-150000J0D01*
G01*
X141227000Y-49449000D01*
G75*
G02*
X141077000Y-49299000I0J150000D01*
G01*
X141077000Y-48999000D01*
G75*
G02*
X141227000Y-48849000I150000J0D01*
G01*
X142877000Y-48849000D01*
G75*
G02*
X143027000Y-48999000I0J-150000D01*
G01*
G37*
G36*
G01*
X143027000Y-50269000D02*
X143027000Y-50569000D01*
G75*
G02*
X142877000Y-50719000I-150000J0D01*
G01*
X141227000Y-50719000D01*
G75*
G02*
X141077000Y-50569000I0J150000D01*
G01*
X141077000Y-50269000D01*
G75*
G02*
X141227000Y-50119000I150000J0D01*
G01*
X142877000Y-50119000D01*
G75*
G02*
X143027000Y-50269000I0J-150000D01*
G01*
G37*
G36*
G01*
X143027000Y-51539000D02*
X143027000Y-51839000D01*
G75*
G02*
X142877000Y-51989000I-150000J0D01*
G01*
X141227000Y-51989000D01*
G75*
G02*
X141077000Y-51839000I0J150000D01*
G01*
X141077000Y-51539000D01*
G75*
G02*
X141227000Y-51389000I150000J0D01*
G01*
X142877000Y-51389000D01*
G75*
G02*
X143027000Y-51539000I0J-150000D01*
G01*
G37*
G36*
G01*
X143027000Y-52809000D02*
X143027000Y-53109000D01*
G75*
G02*
X142877000Y-53259000I-150000J0D01*
G01*
X141227000Y-53259000D01*
G75*
G02*
X141077000Y-53109000I0J150000D01*
G01*
X141077000Y-52809000D01*
G75*
G02*
X141227000Y-52659000I150000J0D01*
G01*
X142877000Y-52659000D01*
G75*
G02*
X143027000Y-52809000I0J-150000D01*
G01*
G37*
G36*
G01*
X143027000Y-54079000D02*
X143027000Y-54379000D01*
G75*
G02*
X142877000Y-54529000I-150000J0D01*
G01*
X141227000Y-54529000D01*
G75*
G02*
X141077000Y-54379000I0J150000D01*
G01*
X141077000Y-54079000D01*
G75*
G02*
X141227000Y-53929000I150000J0D01*
G01*
X142877000Y-53929000D01*
G75*
G02*
X143027000Y-54079000I0J-150000D01*
G01*
G37*
G36*
G01*
X143027000Y-55349000D02*
X143027000Y-55649000D01*
G75*
G02*
X142877000Y-55799000I-150000J0D01*
G01*
X141227000Y-55799000D01*
G75*
G02*
X141077000Y-55649000I0J150000D01*
G01*
X141077000Y-55349000D01*
G75*
G02*
X141227000Y-55199000I150000J0D01*
G01*
X142877000Y-55199000D01*
G75*
G02*
X143027000Y-55349000I0J-150000D01*
G01*
G37*
G36*
G01*
X143027000Y-56619000D02*
X143027000Y-56919000D01*
G75*
G02*
X142877000Y-57069000I-150000J0D01*
G01*
X141227000Y-57069000D01*
G75*
G02*
X141077000Y-56919000I0J150000D01*
G01*
X141077000Y-56619000D01*
G75*
G02*
X141227000Y-56469000I150000J0D01*
G01*
X142877000Y-56469000D01*
G75*
G02*
X143027000Y-56619000I0J-150000D01*
G01*
G37*
G36*
G01*
X138077000Y-56619000D02*
X138077000Y-56919000D01*
G75*
G02*
X137927000Y-57069000I-150000J0D01*
G01*
X136277000Y-57069000D01*
G75*
G02*
X136127000Y-56919000I0J150000D01*
G01*
X136127000Y-56619000D01*
G75*
G02*
X136277000Y-56469000I150000J0D01*
G01*
X137927000Y-56469000D01*
G75*
G02*
X138077000Y-56619000I0J-150000D01*
G01*
G37*
G36*
G01*
X138077000Y-55349000D02*
X138077000Y-55649000D01*
G75*
G02*
X137927000Y-55799000I-150000J0D01*
G01*
X136277000Y-55799000D01*
G75*
G02*
X136127000Y-55649000I0J150000D01*
G01*
X136127000Y-55349000D01*
G75*
G02*
X136277000Y-55199000I150000J0D01*
G01*
X137927000Y-55199000D01*
G75*
G02*
X138077000Y-55349000I0J-150000D01*
G01*
G37*
G36*
G01*
X138077000Y-54079000D02*
X138077000Y-54379000D01*
G75*
G02*
X137927000Y-54529000I-150000J0D01*
G01*
X136277000Y-54529000D01*
G75*
G02*
X136127000Y-54379000I0J150000D01*
G01*
X136127000Y-54079000D01*
G75*
G02*
X136277000Y-53929000I150000J0D01*
G01*
X137927000Y-53929000D01*
G75*
G02*
X138077000Y-54079000I0J-150000D01*
G01*
G37*
G36*
G01*
X138077000Y-52809000D02*
X138077000Y-53109000D01*
G75*
G02*
X137927000Y-53259000I-150000J0D01*
G01*
X136277000Y-53259000D01*
G75*
G02*
X136127000Y-53109000I0J150000D01*
G01*
X136127000Y-52809000D01*
G75*
G02*
X136277000Y-52659000I150000J0D01*
G01*
X137927000Y-52659000D01*
G75*
G02*
X138077000Y-52809000I0J-150000D01*
G01*
G37*
G36*
G01*
X138077000Y-51539000D02*
X138077000Y-51839000D01*
G75*
G02*
X137927000Y-51989000I-150000J0D01*
G01*
X136277000Y-51989000D01*
G75*
G02*
X136127000Y-51839000I0J150000D01*
G01*
X136127000Y-51539000D01*
G75*
G02*
X136277000Y-51389000I150000J0D01*
G01*
X137927000Y-51389000D01*
G75*
G02*
X138077000Y-51539000I0J-150000D01*
G01*
G37*
G36*
G01*
X138077000Y-50269000D02*
X138077000Y-50569000D01*
G75*
G02*
X137927000Y-50719000I-150000J0D01*
G01*
X136277000Y-50719000D01*
G75*
G02*
X136127000Y-50569000I0J150000D01*
G01*
X136127000Y-50269000D01*
G75*
G02*
X136277000Y-50119000I150000J0D01*
G01*
X137927000Y-50119000D01*
G75*
G02*
X138077000Y-50269000I0J-150000D01*
G01*
G37*
G36*
G01*
X138077000Y-48999000D02*
X138077000Y-49299000D01*
G75*
G02*
X137927000Y-49449000I-150000J0D01*
G01*
X136277000Y-49449000D01*
G75*
G02*
X136127000Y-49299000I0J150000D01*
G01*
X136127000Y-48999000D01*
G75*
G02*
X136277000Y-48849000I150000J0D01*
G01*
X137927000Y-48849000D01*
G75*
G02*
X138077000Y-48999000I0J-150000D01*
G01*
G37*
G36*
G01*
X138077000Y-47729000D02*
X138077000Y-48029000D01*
G75*
G02*
X137927000Y-48179000I-150000J0D01*
G01*
X136277000Y-48179000D01*
G75*
G02*
X136127000Y-48029000I0J150000D01*
G01*
X136127000Y-47729000D01*
G75*
G02*
X136277000Y-47579000I150000J0D01*
G01*
X137927000Y-47579000D01*
G75*
G02*
X138077000Y-47729000I0J-150000D01*
G01*
G37*
X180517800Y-118084600D03*
G36*
G01*
X171345800Y-71468400D02*
X171345800Y-70568400D01*
G75*
G02*
X171595800Y-70318400I250000J0D01*
G01*
X172120800Y-70318400D01*
G75*
G02*
X172370800Y-70568400I0J-250000D01*
G01*
X172370800Y-71468400D01*
G75*
G02*
X172120800Y-71718400I-250000J0D01*
G01*
X171595800Y-71718400D01*
G75*
G02*
X171345800Y-71468400I0J250000D01*
G01*
G37*
G36*
G01*
X173170800Y-71468400D02*
X173170800Y-70568400D01*
G75*
G02*
X173420800Y-70318400I250000J0D01*
G01*
X173945800Y-70318400D01*
G75*
G02*
X174195800Y-70568400I0J-250000D01*
G01*
X174195800Y-71468400D01*
G75*
G02*
X173945800Y-71718400I-250000J0D01*
G01*
X173420800Y-71718400D01*
G75*
G02*
X173170800Y-71468400I0J250000D01*
G01*
G37*
X192633600Y-93573600D03*
D16*
X225175000Y-130810000D03*
D17*
X222675000Y-130810000D03*
G36*
G01*
X143027000Y-63223000D02*
X143027000Y-63523000D01*
G75*
G02*
X142877000Y-63673000I-150000J0D01*
G01*
X141227000Y-63673000D01*
G75*
G02*
X141077000Y-63523000I0J150000D01*
G01*
X141077000Y-63223000D01*
G75*
G02*
X141227000Y-63073000I150000J0D01*
G01*
X142877000Y-63073000D01*
G75*
G02*
X143027000Y-63223000I0J-150000D01*
G01*
G37*
G36*
G01*
X143027000Y-64493000D02*
X143027000Y-64793000D01*
G75*
G02*
X142877000Y-64943000I-150000J0D01*
G01*
X141227000Y-64943000D01*
G75*
G02*
X141077000Y-64793000I0J150000D01*
G01*
X141077000Y-64493000D01*
G75*
G02*
X141227000Y-64343000I150000J0D01*
G01*
X142877000Y-64343000D01*
G75*
G02*
X143027000Y-64493000I0J-150000D01*
G01*
G37*
G36*
G01*
X143027000Y-65763000D02*
X143027000Y-66063000D01*
G75*
G02*
X142877000Y-66213000I-150000J0D01*
G01*
X141227000Y-66213000D01*
G75*
G02*
X141077000Y-66063000I0J150000D01*
G01*
X141077000Y-65763000D01*
G75*
G02*
X141227000Y-65613000I150000J0D01*
G01*
X142877000Y-65613000D01*
G75*
G02*
X143027000Y-65763000I0J-150000D01*
G01*
G37*
G36*
G01*
X143027000Y-67033000D02*
X143027000Y-67333000D01*
G75*
G02*
X142877000Y-67483000I-150000J0D01*
G01*
X141227000Y-67483000D01*
G75*
G02*
X141077000Y-67333000I0J150000D01*
G01*
X141077000Y-67033000D01*
G75*
G02*
X141227000Y-66883000I150000J0D01*
G01*
X142877000Y-66883000D01*
G75*
G02*
X143027000Y-67033000I0J-150000D01*
G01*
G37*
G36*
G01*
X138077000Y-67033000D02*
X138077000Y-67333000D01*
G75*
G02*
X137927000Y-67483000I-150000J0D01*
G01*
X136277000Y-67483000D01*
G75*
G02*
X136127000Y-67333000I0J150000D01*
G01*
X136127000Y-67033000D01*
G75*
G02*
X136277000Y-66883000I150000J0D01*
G01*
X137927000Y-66883000D01*
G75*
G02*
X138077000Y-67033000I0J-150000D01*
G01*
G37*
G36*
G01*
X138077000Y-65763000D02*
X138077000Y-66063000D01*
G75*
G02*
X137927000Y-66213000I-150000J0D01*
G01*
X136277000Y-66213000D01*
G75*
G02*
X136127000Y-66063000I0J150000D01*
G01*
X136127000Y-65763000D01*
G75*
G02*
X136277000Y-65613000I150000J0D01*
G01*
X137927000Y-65613000D01*
G75*
G02*
X138077000Y-65763000I0J-150000D01*
G01*
G37*
G36*
G01*
X138077000Y-64493000D02*
X138077000Y-64793000D01*
G75*
G02*
X137927000Y-64943000I-150000J0D01*
G01*
X136277000Y-64943000D01*
G75*
G02*
X136127000Y-64793000I0J150000D01*
G01*
X136127000Y-64493000D01*
G75*
G02*
X136277000Y-64343000I150000J0D01*
G01*
X137927000Y-64343000D01*
G75*
G02*
X138077000Y-64493000I0J-150000D01*
G01*
G37*
G36*
G01*
X138077000Y-63223000D02*
X138077000Y-63523000D01*
G75*
G02*
X137927000Y-63673000I-150000J0D01*
G01*
X136277000Y-63673000D01*
G75*
G02*
X136127000Y-63523000I0J150000D01*
G01*
X136127000Y-63223000D01*
G75*
G02*
X136277000Y-63073000I150000J0D01*
G01*
X137927000Y-63073000D01*
G75*
G02*
X138077000Y-63223000I0J-150000D01*
G01*
G37*
G36*
G01*
X128048000Y-55430000D02*
X128048000Y-56330000D01*
G75*
G02*
X127798000Y-56580000I-250000J0D01*
G01*
X127273000Y-56580000D01*
G75*
G02*
X127023000Y-56330000I0J250000D01*
G01*
X127023000Y-55430000D01*
G75*
G02*
X127273000Y-55180000I250000J0D01*
G01*
X127798000Y-55180000D01*
G75*
G02*
X128048000Y-55430000I0J-250000D01*
G01*
G37*
G36*
G01*
X126223000Y-55430000D02*
X126223000Y-56330000D01*
G75*
G02*
X125973000Y-56580000I-250000J0D01*
G01*
X125448000Y-56580000D01*
G75*
G02*
X125198000Y-56330000I0J250000D01*
G01*
X125198000Y-55430000D01*
G75*
G02*
X125448000Y-55180000I250000J0D01*
G01*
X125973000Y-55180000D01*
G75*
G02*
X126223000Y-55430000I0J-250000D01*
G01*
G37*
G36*
G01*
X84127400Y-89364400D02*
X84127400Y-90264400D01*
G75*
G02*
X83877400Y-90514400I-250000J0D01*
G01*
X83352400Y-90514400D01*
G75*
G02*
X83102400Y-90264400I0J250000D01*
G01*
X83102400Y-89364400D01*
G75*
G02*
X83352400Y-89114400I250000J0D01*
G01*
X83877400Y-89114400D01*
G75*
G02*
X84127400Y-89364400I0J-250000D01*
G01*
G37*
G36*
G01*
X82302400Y-89364400D02*
X82302400Y-90264400D01*
G75*
G02*
X82052400Y-90514400I-250000J0D01*
G01*
X81527400Y-90514400D01*
G75*
G02*
X81277400Y-90264400I0J250000D01*
G01*
X81277400Y-89364400D01*
G75*
G02*
X81527400Y-89114400I250000J0D01*
G01*
X82052400Y-89114400D01*
G75*
G02*
X82302400Y-89364400I0J-250000D01*
G01*
G37*
G36*
G01*
X130532000Y-115766000D02*
X130532000Y-114866000D01*
G75*
G02*
X130782000Y-114616000I250000J0D01*
G01*
X131307000Y-114616000D01*
G75*
G02*
X131557000Y-114866000I0J-250000D01*
G01*
X131557000Y-115766000D01*
G75*
G02*
X131307000Y-116016000I-250000J0D01*
G01*
X130782000Y-116016000D01*
G75*
G02*
X130532000Y-115766000I0J250000D01*
G01*
G37*
G36*
G01*
X132357000Y-115766000D02*
X132357000Y-114866000D01*
G75*
G02*
X132607000Y-114616000I250000J0D01*
G01*
X133132000Y-114616000D01*
G75*
G02*
X133382000Y-114866000I0J-250000D01*
G01*
X133382000Y-115766000D01*
G75*
G02*
X133132000Y-116016000I-250000J0D01*
G01*
X132607000Y-116016000D01*
G75*
G02*
X132357000Y-115766000I0J250000D01*
G01*
G37*
G36*
G01*
X133407000Y-66708000D02*
X133407000Y-67658000D01*
G75*
G02*
X133157000Y-67908000I-250000J0D01*
G01*
X132657000Y-67908000D01*
G75*
G02*
X132407000Y-67658000I0J250000D01*
G01*
X132407000Y-66708000D01*
G75*
G02*
X132657000Y-66458000I250000J0D01*
G01*
X133157000Y-66458000D01*
G75*
G02*
X133407000Y-66708000I0J-250000D01*
G01*
G37*
G36*
G01*
X131507000Y-66708000D02*
X131507000Y-67658000D01*
G75*
G02*
X131257000Y-67908000I-250000J0D01*
G01*
X130757000Y-67908000D01*
G75*
G02*
X130507000Y-67658000I0J250000D01*
G01*
X130507000Y-66708000D01*
G75*
G02*
X130757000Y-66458000I250000J0D01*
G01*
X131257000Y-66458000D01*
G75*
G02*
X131507000Y-66708000I0J-250000D01*
G01*
G37*
G36*
G01*
X140612000Y-140672000D02*
X140612000Y-138982000D01*
G75*
G02*
X140862000Y-138732000I250000J0D01*
G01*
X142102000Y-138732000D01*
G75*
G02*
X142352000Y-138982000I0J-250000D01*
G01*
X142352000Y-140672000D01*
G75*
G02*
X142102000Y-140922000I-250000J0D01*
G01*
X140862000Y-140922000D01*
G75*
G02*
X140612000Y-140672000I0J250000D01*
G01*
G37*
D21*
X144022000Y-139827000D03*
X146562000Y-139827000D03*
X149102000Y-139827000D03*
X151642000Y-139827000D03*
G36*
G01*
X185060000Y-84813000D02*
X185060000Y-85113000D01*
G75*
G02*
X184910000Y-85263000I-150000J0D01*
G01*
X183260000Y-85263000D01*
G75*
G02*
X183110000Y-85113000I0J150000D01*
G01*
X183110000Y-84813000D01*
G75*
G02*
X183260000Y-84663000I150000J0D01*
G01*
X184910000Y-84663000D01*
G75*
G02*
X185060000Y-84813000I0J-150000D01*
G01*
G37*
G36*
G01*
X185060000Y-86083000D02*
X185060000Y-86383000D01*
G75*
G02*
X184910000Y-86533000I-150000J0D01*
G01*
X183260000Y-86533000D01*
G75*
G02*
X183110000Y-86383000I0J150000D01*
G01*
X183110000Y-86083000D01*
G75*
G02*
X183260000Y-85933000I150000J0D01*
G01*
X184910000Y-85933000D01*
G75*
G02*
X185060000Y-86083000I0J-150000D01*
G01*
G37*
G36*
G01*
X185060000Y-87353000D02*
X185060000Y-87653000D01*
G75*
G02*
X184910000Y-87803000I-150000J0D01*
G01*
X183260000Y-87803000D01*
G75*
G02*
X183110000Y-87653000I0J150000D01*
G01*
X183110000Y-87353000D01*
G75*
G02*
X183260000Y-87203000I150000J0D01*
G01*
X184910000Y-87203000D01*
G75*
G02*
X185060000Y-87353000I0J-150000D01*
G01*
G37*
G36*
G01*
X185060000Y-88623000D02*
X185060000Y-88923000D01*
G75*
G02*
X184910000Y-89073000I-150000J0D01*
G01*
X183260000Y-89073000D01*
G75*
G02*
X183110000Y-88923000I0J150000D01*
G01*
X183110000Y-88623000D01*
G75*
G02*
X183260000Y-88473000I150000J0D01*
G01*
X184910000Y-88473000D01*
G75*
G02*
X185060000Y-88623000I0J-150000D01*
G01*
G37*
G36*
G01*
X180110000Y-88623000D02*
X180110000Y-88923000D01*
G75*
G02*
X179960000Y-89073000I-150000J0D01*
G01*
X178310000Y-89073000D01*
G75*
G02*
X178160000Y-88923000I0J150000D01*
G01*
X178160000Y-88623000D01*
G75*
G02*
X178310000Y-88473000I150000J0D01*
G01*
X179960000Y-88473000D01*
G75*
G02*
X180110000Y-88623000I0J-150000D01*
G01*
G37*
G36*
G01*
X180110000Y-87353000D02*
X180110000Y-87653000D01*
G75*
G02*
X179960000Y-87803000I-150000J0D01*
G01*
X178310000Y-87803000D01*
G75*
G02*
X178160000Y-87653000I0J150000D01*
G01*
X178160000Y-87353000D01*
G75*
G02*
X178310000Y-87203000I150000J0D01*
G01*
X179960000Y-87203000D01*
G75*
G02*
X180110000Y-87353000I0J-150000D01*
G01*
G37*
G36*
G01*
X180110000Y-86083000D02*
X180110000Y-86383000D01*
G75*
G02*
X179960000Y-86533000I-150000J0D01*
G01*
X178310000Y-86533000D01*
G75*
G02*
X178160000Y-86383000I0J150000D01*
G01*
X178160000Y-86083000D01*
G75*
G02*
X178310000Y-85933000I150000J0D01*
G01*
X179960000Y-85933000D01*
G75*
G02*
X180110000Y-86083000I0J-150000D01*
G01*
G37*
G36*
G01*
X180110000Y-84813000D02*
X180110000Y-85113000D01*
G75*
G02*
X179960000Y-85263000I-150000J0D01*
G01*
X178310000Y-85263000D01*
G75*
G02*
X178160000Y-85113000I0J150000D01*
G01*
X178160000Y-84813000D01*
G75*
G02*
X178310000Y-84663000I150000J0D01*
G01*
X179960000Y-84663000D01*
G75*
G02*
X180110000Y-84813000I0J-150000D01*
G01*
G37*
D18*
X174370000Y-78994000D03*
X171070000Y-78994000D03*
G36*
G01*
X181078800Y-91727000D02*
X181078800Y-92677000D01*
G75*
G02*
X180828800Y-92927000I-250000J0D01*
G01*
X180328800Y-92927000D01*
G75*
G02*
X180078800Y-92677000I0J250000D01*
G01*
X180078800Y-91727000D01*
G75*
G02*
X180328800Y-91477000I250000J0D01*
G01*
X180828800Y-91477000D01*
G75*
G02*
X181078800Y-91727000I0J-250000D01*
G01*
G37*
G36*
G01*
X179178800Y-91727000D02*
X179178800Y-92677000D01*
G75*
G02*
X178928800Y-92927000I-250000J0D01*
G01*
X178428800Y-92927000D01*
G75*
G02*
X178178800Y-92677000I0J250000D01*
G01*
X178178800Y-91727000D01*
G75*
G02*
X178428800Y-91477000I250000J0D01*
G01*
X178928800Y-91477000D01*
G75*
G02*
X179178800Y-91727000I0J-250000D01*
G01*
G37*
G36*
G01*
X138148400Y-130116600D02*
X138148400Y-129166600D01*
G75*
G02*
X138398400Y-128916600I250000J0D01*
G01*
X138898400Y-128916600D01*
G75*
G02*
X139148400Y-129166600I0J-250000D01*
G01*
X139148400Y-130116600D01*
G75*
G02*
X138898400Y-130366600I-250000J0D01*
G01*
X138398400Y-130366600D01*
G75*
G02*
X138148400Y-130116600I0J250000D01*
G01*
G37*
G36*
G01*
X140048400Y-130116600D02*
X140048400Y-129166600D01*
G75*
G02*
X140298400Y-128916600I250000J0D01*
G01*
X140798400Y-128916600D01*
G75*
G02*
X141048400Y-129166600I0J-250000D01*
G01*
X141048400Y-130116600D01*
G75*
G02*
X140798400Y-130366600I-250000J0D01*
G01*
X140298400Y-130366600D01*
G75*
G02*
X140048400Y-130116600I0J250000D01*
G01*
G37*
G36*
G01*
X185142800Y-57081400D02*
X185142800Y-58031400D01*
G75*
G02*
X184892800Y-58281400I-250000J0D01*
G01*
X184392800Y-58281400D01*
G75*
G02*
X184142800Y-58031400I0J250000D01*
G01*
X184142800Y-57081400D01*
G75*
G02*
X184392800Y-56831400I250000J0D01*
G01*
X184892800Y-56831400D01*
G75*
G02*
X185142800Y-57081400I0J-250000D01*
G01*
G37*
G36*
G01*
X183242800Y-57081400D02*
X183242800Y-58031400D01*
G75*
G02*
X182992800Y-58281400I-250000J0D01*
G01*
X182492800Y-58281400D01*
G75*
G02*
X182242800Y-58031400I0J250000D01*
G01*
X182242800Y-57081400D01*
G75*
G02*
X182492800Y-56831400I250000J0D01*
G01*
X182992800Y-56831400D01*
G75*
G02*
X183242800Y-57081400I0J-250000D01*
G01*
G37*
G36*
G01*
X130532000Y-80206000D02*
X130532000Y-79306000D01*
G75*
G02*
X130782000Y-79056000I250000J0D01*
G01*
X131307000Y-79056000D01*
G75*
G02*
X131557000Y-79306000I0J-250000D01*
G01*
X131557000Y-80206000D01*
G75*
G02*
X131307000Y-80456000I-250000J0D01*
G01*
X130782000Y-80456000D01*
G75*
G02*
X130532000Y-80206000I0J250000D01*
G01*
G37*
G36*
G01*
X132357000Y-80206000D02*
X132357000Y-79306000D01*
G75*
G02*
X132607000Y-79056000I250000J0D01*
G01*
X133132000Y-79056000D01*
G75*
G02*
X133382000Y-79306000I0J-250000D01*
G01*
X133382000Y-80206000D01*
G75*
G02*
X133132000Y-80456000I-250000J0D01*
G01*
X132607000Y-80456000D01*
G75*
G02*
X132357000Y-80206000I0J250000D01*
G01*
G37*
G36*
G01*
X185110800Y-61343400D02*
X185110800Y-61643400D01*
G75*
G02*
X184960800Y-61793400I-150000J0D01*
G01*
X183310800Y-61793400D01*
G75*
G02*
X183160800Y-61643400I0J150000D01*
G01*
X183160800Y-61343400D01*
G75*
G02*
X183310800Y-61193400I150000J0D01*
G01*
X184960800Y-61193400D01*
G75*
G02*
X185110800Y-61343400I0J-150000D01*
G01*
G37*
G36*
G01*
X185110800Y-62613400D02*
X185110800Y-62913400D01*
G75*
G02*
X184960800Y-63063400I-150000J0D01*
G01*
X183310800Y-63063400D01*
G75*
G02*
X183160800Y-62913400I0J150000D01*
G01*
X183160800Y-62613400D01*
G75*
G02*
X183310800Y-62463400I150000J0D01*
G01*
X184960800Y-62463400D01*
G75*
G02*
X185110800Y-62613400I0J-150000D01*
G01*
G37*
G36*
G01*
X185110800Y-63883400D02*
X185110800Y-64183400D01*
G75*
G02*
X184960800Y-64333400I-150000J0D01*
G01*
X183310800Y-64333400D01*
G75*
G02*
X183160800Y-64183400I0J150000D01*
G01*
X183160800Y-63883400D01*
G75*
G02*
X183310800Y-63733400I150000J0D01*
G01*
X184960800Y-63733400D01*
G75*
G02*
X185110800Y-63883400I0J-150000D01*
G01*
G37*
G36*
G01*
X185110800Y-65153400D02*
X185110800Y-65453400D01*
G75*
G02*
X184960800Y-65603400I-150000J0D01*
G01*
X183310800Y-65603400D01*
G75*
G02*
X183160800Y-65453400I0J150000D01*
G01*
X183160800Y-65153400D01*
G75*
G02*
X183310800Y-65003400I150000J0D01*
G01*
X184960800Y-65003400D01*
G75*
G02*
X185110800Y-65153400I0J-150000D01*
G01*
G37*
G36*
G01*
X180160800Y-65153400D02*
X180160800Y-65453400D01*
G75*
G02*
X180010800Y-65603400I-150000J0D01*
G01*
X178360800Y-65603400D01*
G75*
G02*
X178210800Y-65453400I0J150000D01*
G01*
X178210800Y-65153400D01*
G75*
G02*
X178360800Y-65003400I150000J0D01*
G01*
X180010800Y-65003400D01*
G75*
G02*
X180160800Y-65153400I0J-150000D01*
G01*
G37*
G36*
G01*
X180160800Y-63883400D02*
X180160800Y-64183400D01*
G75*
G02*
X180010800Y-64333400I-150000J0D01*
G01*
X178360800Y-64333400D01*
G75*
G02*
X178210800Y-64183400I0J150000D01*
G01*
X178210800Y-63883400D01*
G75*
G02*
X178360800Y-63733400I150000J0D01*
G01*
X180010800Y-63733400D01*
G75*
G02*
X180160800Y-63883400I0J-150000D01*
G01*
G37*
G36*
G01*
X180160800Y-62613400D02*
X180160800Y-62913400D01*
G75*
G02*
X180010800Y-63063400I-150000J0D01*
G01*
X178360800Y-63063400D01*
G75*
G02*
X178210800Y-62913400I0J150000D01*
G01*
X178210800Y-62613400D01*
G75*
G02*
X178360800Y-62463400I150000J0D01*
G01*
X180010800Y-62463400D01*
G75*
G02*
X180160800Y-62613400I0J-150000D01*
G01*
G37*
G36*
G01*
X180160800Y-61343400D02*
X180160800Y-61643400D01*
G75*
G02*
X180010800Y-61793400I-150000J0D01*
G01*
X178360800Y-61793400D01*
G75*
G02*
X178210800Y-61643400I0J150000D01*
G01*
X178210800Y-61343400D01*
G75*
G02*
X178360800Y-61193400I150000J0D01*
G01*
X180010800Y-61193400D01*
G75*
G02*
X180160800Y-61343400I0J-150000D01*
G01*
G37*
G36*
G01*
X174145000Y-111310000D02*
X174145000Y-112210000D01*
G75*
G02*
X173895000Y-112460000I-250000J0D01*
G01*
X173370000Y-112460000D01*
G75*
G02*
X173120000Y-112210000I0J250000D01*
G01*
X173120000Y-111310000D01*
G75*
G02*
X173370000Y-111060000I250000J0D01*
G01*
X173895000Y-111060000D01*
G75*
G02*
X174145000Y-111310000I0J-250000D01*
G01*
G37*
G36*
G01*
X172320000Y-111310000D02*
X172320000Y-112210000D01*
G75*
G02*
X172070000Y-112460000I-250000J0D01*
G01*
X171545000Y-112460000D01*
G75*
G02*
X171295000Y-112210000I0J250000D01*
G01*
X171295000Y-111310000D01*
G75*
G02*
X171545000Y-111060000I250000J0D01*
G01*
X172070000Y-111060000D01*
G75*
G02*
X172320000Y-111310000I0J-250000D01*
G01*
G37*
D16*
X227627380Y-63754000D03*
D17*
X225127380Y-63754000D03*
G36*
G01*
X133382000Y-111691000D02*
X133382000Y-112591000D01*
G75*
G02*
X133132000Y-112841000I-250000J0D01*
G01*
X132607000Y-112841000D01*
G75*
G02*
X132357000Y-112591000I0J250000D01*
G01*
X132357000Y-111691000D01*
G75*
G02*
X132607000Y-111441000I250000J0D01*
G01*
X133132000Y-111441000D01*
G75*
G02*
X133382000Y-111691000I0J-250000D01*
G01*
G37*
G36*
G01*
X131557000Y-111691000D02*
X131557000Y-112591000D01*
G75*
G02*
X131307000Y-112841000I-250000J0D01*
G01*
X130782000Y-112841000D01*
G75*
G02*
X130532000Y-112591000I0J250000D01*
G01*
X130532000Y-111691000D01*
G75*
G02*
X130782000Y-111441000I250000J0D01*
G01*
X131307000Y-111441000D01*
G75*
G02*
X131557000Y-111691000I0J-250000D01*
G01*
G37*
D18*
X174370000Y-101092000D03*
X171070000Y-101092000D03*
G36*
G01*
X130532000Y-86556000D02*
X130532000Y-85656000D01*
G75*
G02*
X130782000Y-85406000I250000J0D01*
G01*
X131307000Y-85406000D01*
G75*
G02*
X131557000Y-85656000I0J-250000D01*
G01*
X131557000Y-86556000D01*
G75*
G02*
X131307000Y-86806000I-250000J0D01*
G01*
X130782000Y-86806000D01*
G75*
G02*
X130532000Y-86556000I0J250000D01*
G01*
G37*
G36*
G01*
X132357000Y-86556000D02*
X132357000Y-85656000D01*
G75*
G02*
X132607000Y-85406000I250000J0D01*
G01*
X133132000Y-85406000D01*
G75*
G02*
X133382000Y-85656000I0J-250000D01*
G01*
X133382000Y-86556000D01*
G75*
G02*
X133132000Y-86806000I-250000J0D01*
G01*
X132607000Y-86806000D01*
G75*
G02*
X132357000Y-86556000I0J250000D01*
G01*
G37*
G36*
G01*
X143027000Y-77701000D02*
X143027000Y-78001000D01*
G75*
G02*
X142877000Y-78151000I-150000J0D01*
G01*
X141227000Y-78151000D01*
G75*
G02*
X141077000Y-78001000I0J150000D01*
G01*
X141077000Y-77701000D01*
G75*
G02*
X141227000Y-77551000I150000J0D01*
G01*
X142877000Y-77551000D01*
G75*
G02*
X143027000Y-77701000I0J-150000D01*
G01*
G37*
G36*
G01*
X143027000Y-78971000D02*
X143027000Y-79271000D01*
G75*
G02*
X142877000Y-79421000I-150000J0D01*
G01*
X141227000Y-79421000D01*
G75*
G02*
X141077000Y-79271000I0J150000D01*
G01*
X141077000Y-78971000D01*
G75*
G02*
X141227000Y-78821000I150000J0D01*
G01*
X142877000Y-78821000D01*
G75*
G02*
X143027000Y-78971000I0J-150000D01*
G01*
G37*
G36*
G01*
X143027000Y-80241000D02*
X143027000Y-80541000D01*
G75*
G02*
X142877000Y-80691000I-150000J0D01*
G01*
X141227000Y-80691000D01*
G75*
G02*
X141077000Y-80541000I0J150000D01*
G01*
X141077000Y-80241000D01*
G75*
G02*
X141227000Y-80091000I150000J0D01*
G01*
X142877000Y-80091000D01*
G75*
G02*
X143027000Y-80241000I0J-150000D01*
G01*
G37*
G36*
G01*
X143027000Y-81511000D02*
X143027000Y-81811000D01*
G75*
G02*
X142877000Y-81961000I-150000J0D01*
G01*
X141227000Y-81961000D01*
G75*
G02*
X141077000Y-81811000I0J150000D01*
G01*
X141077000Y-81511000D01*
G75*
G02*
X141227000Y-81361000I150000J0D01*
G01*
X142877000Y-81361000D01*
G75*
G02*
X143027000Y-81511000I0J-150000D01*
G01*
G37*
G36*
G01*
X143027000Y-82781000D02*
X143027000Y-83081000D01*
G75*
G02*
X142877000Y-83231000I-150000J0D01*
G01*
X141227000Y-83231000D01*
G75*
G02*
X141077000Y-83081000I0J150000D01*
G01*
X141077000Y-82781000D01*
G75*
G02*
X141227000Y-82631000I150000J0D01*
G01*
X142877000Y-82631000D01*
G75*
G02*
X143027000Y-82781000I0J-150000D01*
G01*
G37*
G36*
G01*
X143027000Y-84051000D02*
X143027000Y-84351000D01*
G75*
G02*
X142877000Y-84501000I-150000J0D01*
G01*
X141227000Y-84501000D01*
G75*
G02*
X141077000Y-84351000I0J150000D01*
G01*
X141077000Y-84051000D01*
G75*
G02*
X141227000Y-83901000I150000J0D01*
G01*
X142877000Y-83901000D01*
G75*
G02*
X143027000Y-84051000I0J-150000D01*
G01*
G37*
G36*
G01*
X143027000Y-85321000D02*
X143027000Y-85621000D01*
G75*
G02*
X142877000Y-85771000I-150000J0D01*
G01*
X141227000Y-85771000D01*
G75*
G02*
X141077000Y-85621000I0J150000D01*
G01*
X141077000Y-85321000D01*
G75*
G02*
X141227000Y-85171000I150000J0D01*
G01*
X142877000Y-85171000D01*
G75*
G02*
X143027000Y-85321000I0J-150000D01*
G01*
G37*
G36*
G01*
X143027000Y-86591000D02*
X143027000Y-86891000D01*
G75*
G02*
X142877000Y-87041000I-150000J0D01*
G01*
X141227000Y-87041000D01*
G75*
G02*
X141077000Y-86891000I0J150000D01*
G01*
X141077000Y-86591000D01*
G75*
G02*
X141227000Y-86441000I150000J0D01*
G01*
X142877000Y-86441000D01*
G75*
G02*
X143027000Y-86591000I0J-150000D01*
G01*
G37*
G36*
G01*
X138077000Y-86591000D02*
X138077000Y-86891000D01*
G75*
G02*
X137927000Y-87041000I-150000J0D01*
G01*
X136277000Y-87041000D01*
G75*
G02*
X136127000Y-86891000I0J150000D01*
G01*
X136127000Y-86591000D01*
G75*
G02*
X136277000Y-86441000I150000J0D01*
G01*
X137927000Y-86441000D01*
G75*
G02*
X138077000Y-86591000I0J-150000D01*
G01*
G37*
G36*
G01*
X138077000Y-85321000D02*
X138077000Y-85621000D01*
G75*
G02*
X137927000Y-85771000I-150000J0D01*
G01*
X136277000Y-85771000D01*
G75*
G02*
X136127000Y-85621000I0J150000D01*
G01*
X136127000Y-85321000D01*
G75*
G02*
X136277000Y-85171000I150000J0D01*
G01*
X137927000Y-85171000D01*
G75*
G02*
X138077000Y-85321000I0J-150000D01*
G01*
G37*
G36*
G01*
X138077000Y-84051000D02*
X138077000Y-84351000D01*
G75*
G02*
X137927000Y-84501000I-150000J0D01*
G01*
X136277000Y-84501000D01*
G75*
G02*
X136127000Y-84351000I0J150000D01*
G01*
X136127000Y-84051000D01*
G75*
G02*
X136277000Y-83901000I150000J0D01*
G01*
X137927000Y-83901000D01*
G75*
G02*
X138077000Y-84051000I0J-150000D01*
G01*
G37*
G36*
G01*
X138077000Y-82781000D02*
X138077000Y-83081000D01*
G75*
G02*
X137927000Y-83231000I-150000J0D01*
G01*
X136277000Y-83231000D01*
G75*
G02*
X136127000Y-83081000I0J150000D01*
G01*
X136127000Y-82781000D01*
G75*
G02*
X136277000Y-82631000I150000J0D01*
G01*
X137927000Y-82631000D01*
G75*
G02*
X138077000Y-82781000I0J-150000D01*
G01*
G37*
G36*
G01*
X138077000Y-81511000D02*
X138077000Y-81811000D01*
G75*
G02*
X137927000Y-81961000I-150000J0D01*
G01*
X136277000Y-81961000D01*
G75*
G02*
X136127000Y-81811000I0J150000D01*
G01*
X136127000Y-81511000D01*
G75*
G02*
X136277000Y-81361000I150000J0D01*
G01*
X137927000Y-81361000D01*
G75*
G02*
X138077000Y-81511000I0J-150000D01*
G01*
G37*
G36*
G01*
X138077000Y-80241000D02*
X138077000Y-80541000D01*
G75*
G02*
X137927000Y-80691000I-150000J0D01*
G01*
X136277000Y-80691000D01*
G75*
G02*
X136127000Y-80541000I0J150000D01*
G01*
X136127000Y-80241000D01*
G75*
G02*
X136277000Y-80091000I150000J0D01*
G01*
X137927000Y-80091000D01*
G75*
G02*
X138077000Y-80241000I0J-150000D01*
G01*
G37*
G36*
G01*
X138077000Y-78971000D02*
X138077000Y-79271000D01*
G75*
G02*
X137927000Y-79421000I-150000J0D01*
G01*
X136277000Y-79421000D01*
G75*
G02*
X136127000Y-79271000I0J150000D01*
G01*
X136127000Y-78971000D01*
G75*
G02*
X136277000Y-78821000I150000J0D01*
G01*
X137927000Y-78821000D01*
G75*
G02*
X138077000Y-78971000I0J-150000D01*
G01*
G37*
G36*
G01*
X138077000Y-77701000D02*
X138077000Y-78001000D01*
G75*
G02*
X137927000Y-78151000I-150000J0D01*
G01*
X136277000Y-78151000D01*
G75*
G02*
X136127000Y-78001000I0J150000D01*
G01*
X136127000Y-77701000D01*
G75*
G02*
X136277000Y-77551000I150000J0D01*
G01*
X137927000Y-77551000D01*
G75*
G02*
X138077000Y-77701000I0J-150000D01*
G01*
G37*
G36*
G01*
X147987000Y-64193000D02*
X147987000Y-65093000D01*
G75*
G02*
X147737000Y-65343000I-250000J0D01*
G01*
X147212000Y-65343000D01*
G75*
G02*
X146962000Y-65093000I0J250000D01*
G01*
X146962000Y-64193000D01*
G75*
G02*
X147212000Y-63943000I250000J0D01*
G01*
X147737000Y-63943000D01*
G75*
G02*
X147987000Y-64193000I0J-250000D01*
G01*
G37*
G36*
G01*
X146162000Y-64193000D02*
X146162000Y-65093000D01*
G75*
G02*
X145912000Y-65343000I-250000J0D01*
G01*
X145387000Y-65343000D01*
G75*
G02*
X145137000Y-65093000I0J250000D01*
G01*
X145137000Y-64193000D01*
G75*
G02*
X145387000Y-63943000I250000J0D01*
G01*
X145912000Y-63943000D01*
G75*
G02*
X146162000Y-64193000I0J-250000D01*
G01*
G37*
G36*
G01*
X143027000Y-93195000D02*
X143027000Y-93495000D01*
G75*
G02*
X142877000Y-93645000I-150000J0D01*
G01*
X141227000Y-93645000D01*
G75*
G02*
X141077000Y-93495000I0J150000D01*
G01*
X141077000Y-93195000D01*
G75*
G02*
X141227000Y-93045000I150000J0D01*
G01*
X142877000Y-93045000D01*
G75*
G02*
X143027000Y-93195000I0J-150000D01*
G01*
G37*
G36*
G01*
X143027000Y-94465000D02*
X143027000Y-94765000D01*
G75*
G02*
X142877000Y-94915000I-150000J0D01*
G01*
X141227000Y-94915000D01*
G75*
G02*
X141077000Y-94765000I0J150000D01*
G01*
X141077000Y-94465000D01*
G75*
G02*
X141227000Y-94315000I150000J0D01*
G01*
X142877000Y-94315000D01*
G75*
G02*
X143027000Y-94465000I0J-150000D01*
G01*
G37*
G36*
G01*
X143027000Y-95735000D02*
X143027000Y-96035000D01*
G75*
G02*
X142877000Y-96185000I-150000J0D01*
G01*
X141227000Y-96185000D01*
G75*
G02*
X141077000Y-96035000I0J150000D01*
G01*
X141077000Y-95735000D01*
G75*
G02*
X141227000Y-95585000I150000J0D01*
G01*
X142877000Y-95585000D01*
G75*
G02*
X143027000Y-95735000I0J-150000D01*
G01*
G37*
G36*
G01*
X143027000Y-97005000D02*
X143027000Y-97305000D01*
G75*
G02*
X142877000Y-97455000I-150000J0D01*
G01*
X141227000Y-97455000D01*
G75*
G02*
X141077000Y-97305000I0J150000D01*
G01*
X141077000Y-97005000D01*
G75*
G02*
X141227000Y-96855000I150000J0D01*
G01*
X142877000Y-96855000D01*
G75*
G02*
X143027000Y-97005000I0J-150000D01*
G01*
G37*
G36*
G01*
X138077000Y-97005000D02*
X138077000Y-97305000D01*
G75*
G02*
X137927000Y-97455000I-150000J0D01*
G01*
X136277000Y-97455000D01*
G75*
G02*
X136127000Y-97305000I0J150000D01*
G01*
X136127000Y-97005000D01*
G75*
G02*
X136277000Y-96855000I150000J0D01*
G01*
X137927000Y-96855000D01*
G75*
G02*
X138077000Y-97005000I0J-150000D01*
G01*
G37*
G36*
G01*
X138077000Y-95735000D02*
X138077000Y-96035000D01*
G75*
G02*
X137927000Y-96185000I-150000J0D01*
G01*
X136277000Y-96185000D01*
G75*
G02*
X136127000Y-96035000I0J150000D01*
G01*
X136127000Y-95735000D01*
G75*
G02*
X136277000Y-95585000I150000J0D01*
G01*
X137927000Y-95585000D01*
G75*
G02*
X138077000Y-95735000I0J-150000D01*
G01*
G37*
G36*
G01*
X138077000Y-94465000D02*
X138077000Y-94765000D01*
G75*
G02*
X137927000Y-94915000I-150000J0D01*
G01*
X136277000Y-94915000D01*
G75*
G02*
X136127000Y-94765000I0J150000D01*
G01*
X136127000Y-94465000D01*
G75*
G02*
X136277000Y-94315000I150000J0D01*
G01*
X137927000Y-94315000D01*
G75*
G02*
X138077000Y-94465000I0J-150000D01*
G01*
G37*
G36*
G01*
X138077000Y-93195000D02*
X138077000Y-93495000D01*
G75*
G02*
X137927000Y-93645000I-150000J0D01*
G01*
X136277000Y-93645000D01*
G75*
G02*
X136127000Y-93495000I0J150000D01*
G01*
X136127000Y-93195000D01*
G75*
G02*
X136277000Y-93045000I150000J0D01*
G01*
X137927000Y-93045000D01*
G75*
G02*
X138077000Y-93195000I0J-150000D01*
G01*
G37*
D16*
X227584000Y-112014000D03*
D17*
X225084000Y-112014000D03*
G36*
G01*
X93296400Y-95638600D02*
X93296400Y-96588600D01*
G75*
G02*
X93046400Y-96838600I-250000J0D01*
G01*
X92546400Y-96838600D01*
G75*
G02*
X92296400Y-96588600I0J250000D01*
G01*
X92296400Y-95638600D01*
G75*
G02*
X92546400Y-95388600I250000J0D01*
G01*
X93046400Y-95388600D01*
G75*
G02*
X93296400Y-95638600I0J-250000D01*
G01*
G37*
G36*
G01*
X91396400Y-95638600D02*
X91396400Y-96588600D01*
G75*
G02*
X91146400Y-96838600I-250000J0D01*
G01*
X90646400Y-96838600D01*
G75*
G02*
X90396400Y-96588600I0J250000D01*
G01*
X90396400Y-95638600D01*
G75*
G02*
X90646400Y-95388600I250000J0D01*
G01*
X91146400Y-95388600D01*
G75*
G02*
X91396400Y-95638600I0J-250000D01*
G01*
G37*
G36*
G01*
X185060000Y-106911000D02*
X185060000Y-107211000D01*
G75*
G02*
X184910000Y-107361000I-150000J0D01*
G01*
X183260000Y-107361000D01*
G75*
G02*
X183110000Y-107211000I0J150000D01*
G01*
X183110000Y-106911000D01*
G75*
G02*
X183260000Y-106761000I150000J0D01*
G01*
X184910000Y-106761000D01*
G75*
G02*
X185060000Y-106911000I0J-150000D01*
G01*
G37*
G36*
G01*
X185060000Y-108181000D02*
X185060000Y-108481000D01*
G75*
G02*
X184910000Y-108631000I-150000J0D01*
G01*
X183260000Y-108631000D01*
G75*
G02*
X183110000Y-108481000I0J150000D01*
G01*
X183110000Y-108181000D01*
G75*
G02*
X183260000Y-108031000I150000J0D01*
G01*
X184910000Y-108031000D01*
G75*
G02*
X185060000Y-108181000I0J-150000D01*
G01*
G37*
G36*
G01*
X185060000Y-109451000D02*
X185060000Y-109751000D01*
G75*
G02*
X184910000Y-109901000I-150000J0D01*
G01*
X183260000Y-109901000D01*
G75*
G02*
X183110000Y-109751000I0J150000D01*
G01*
X183110000Y-109451000D01*
G75*
G02*
X183260000Y-109301000I150000J0D01*
G01*
X184910000Y-109301000D01*
G75*
G02*
X185060000Y-109451000I0J-150000D01*
G01*
G37*
G36*
G01*
X185060000Y-110721000D02*
X185060000Y-111021000D01*
G75*
G02*
X184910000Y-111171000I-150000J0D01*
G01*
X183260000Y-111171000D01*
G75*
G02*
X183110000Y-111021000I0J150000D01*
G01*
X183110000Y-110721000D01*
G75*
G02*
X183260000Y-110571000I150000J0D01*
G01*
X184910000Y-110571000D01*
G75*
G02*
X185060000Y-110721000I0J-150000D01*
G01*
G37*
G36*
G01*
X180110000Y-110721000D02*
X180110000Y-111021000D01*
G75*
G02*
X179960000Y-111171000I-150000J0D01*
G01*
X178310000Y-111171000D01*
G75*
G02*
X178160000Y-111021000I0J150000D01*
G01*
X178160000Y-110721000D01*
G75*
G02*
X178310000Y-110571000I150000J0D01*
G01*
X179960000Y-110571000D01*
G75*
G02*
X180110000Y-110721000I0J-150000D01*
G01*
G37*
G36*
G01*
X180110000Y-109451000D02*
X180110000Y-109751000D01*
G75*
G02*
X179960000Y-109901000I-150000J0D01*
G01*
X178310000Y-109901000D01*
G75*
G02*
X178160000Y-109751000I0J150000D01*
G01*
X178160000Y-109451000D01*
G75*
G02*
X178310000Y-109301000I150000J0D01*
G01*
X179960000Y-109301000D01*
G75*
G02*
X180110000Y-109451000I0J-150000D01*
G01*
G37*
G36*
G01*
X180110000Y-108181000D02*
X180110000Y-108481000D01*
G75*
G02*
X179960000Y-108631000I-150000J0D01*
G01*
X178310000Y-108631000D01*
G75*
G02*
X178160000Y-108481000I0J150000D01*
G01*
X178160000Y-108181000D01*
G75*
G02*
X178310000Y-108031000I150000J0D01*
G01*
X179960000Y-108031000D01*
G75*
G02*
X180110000Y-108181000I0J-150000D01*
G01*
G37*
G36*
G01*
X180110000Y-106911000D02*
X180110000Y-107211000D01*
G75*
G02*
X179960000Y-107361000I-150000J0D01*
G01*
X178310000Y-107361000D01*
G75*
G02*
X178160000Y-107211000I0J150000D01*
G01*
X178160000Y-106911000D01*
G75*
G02*
X178310000Y-106761000I150000J0D01*
G01*
X179960000Y-106761000D01*
G75*
G02*
X180110000Y-106911000I0J-150000D01*
G01*
G37*
M02*
