M48
; DRILL file {KiCad 6.0.5+dfsg-1~bpo11+1} date Thu Jun 30 11:54:21 2022
; FORMAT={-:-/ absolute / metric / decimal}
; #@! TF.CreationDate,2022-06-30T11:54:21+00:00
; #@! TF.GenerationSoftware,Kicad,Pcbnew,6.0.5+dfsg-1~bpo11+1
; #@! TF.FileFunction,Plated,1,2,PTH
FMAT,2
METRIC
; #@! TA.AperFunction,Plated,PTH,ViaDrill
T1C0.400
; #@! TA.AperFunction,Plated,PTH,ViaDrill
T2C0.500
; #@! TA.AperFunction,Plated,PTH,ComponentDrill
T3C0.800
; #@! TA.AperFunction,Plated,PTH,ComponentDrill
T4C1.000
; #@! TA.AperFunction,Plated,PTH,ComponentDrill
T5C1.100
; #@! TA.AperFunction,Plated,PTH,ComponentDrill
T6C1.190
; #@! TA.AperFunction,Plated,PTH,ComponentDrill
T7C1.300
; #@! TA.AperFunction,Plated,PTH,ComponentDrill
T8C1.850
%
G90
G05
T1
X107.827Y-80.772
T2
X75.442Y-59.309
X76.331Y-113.03
X76.458Y-103.036
X78.363Y-102.362
X99.572Y-53.467
X99.572Y-64.262
X99.572Y-92.202
X99.572Y-118.872
X112.907Y-130.302
X118.075Y-108.458
X118.368Y-104.736
X118.876Y-59.182
X120.019Y-103.212
X121.563Y-59.142
X122.674Y-109.132
X122.813Y-113.03
X123.067Y-101.092
X123.321Y-96.012
X129.045Y-114.387
X130.179Y-101.6
X135.132Y-53.467
X138.561Y-92.202
X139.831Y-103.124
X140.339Y-111.252
X140.339Y-116.332
X140.823Y-108.624
X145.927Y-106.934
X152.277Y-96.012
X153.039Y-99.06
X153.039Y-108.966
X154.182Y-130.302
X157.611Y-110.998
X160.151Y-106.513
X160.278Y-60.237
X166.247Y-107.061
X166.861Y-60.103
X167.009Y-62.865
X167.134Y-103.036
X167.136Y-104.814
X167.142Y-58.594
X167.517Y-56.896
X168.533Y-83.82
X168.787Y-130.302
X173.105Y-94.234
X173.486Y-101.092
X173.867Y-66.802
X174.121Y-57.658
X174.629Y-113.792
X178.947Y-118.237
X181.676Y-99.887
X182.503Y-92.075
X184.027Y-59.436
X184.027Y-103.163
X184.281Y-50.292
X184.535Y-72.136
X184.535Y-110.998
X184.535Y-116.586
X184.789Y-66.802
X185.137Y-108.941
X185.287Y-64.78
X187.202Y-118.237
X190.885Y-52.324
X190.885Y-96.647
X194.187Y-130.302
X197.235Y-144.272
X197.489Y-54.864
X197.489Y-58.928
X197.616Y-102.87
X197.743Y-106.934
X201.807Y-103.124
X201.807Y-110.998
X202.061Y-62.484
X202.696Y-112.268
X207.522Y-109.347
X207.522Y-130.302
X216.412Y-109.347
X216.412Y-130.302
X217.555Y-120.65
X220.603Y-74.168
X220.603Y-116.586
T3
X126.19Y-119.38
X128.69Y-119.38
X169.388Y-75.057
X170.451Y-119.38
X171.888Y-75.057
X172.951Y-119.38
X177.677Y-124.587
X180.177Y-124.587
X185.337Y-124.587
X187.837Y-124.587
X218.269Y-93.726
X218.269Y-137.922
X218.357Y-49.022
X220.769Y-93.726
X220.769Y-137.922
X220.857Y-49.022
T4
X68.497Y-56.642
X68.497Y-101.092
X68.497Y-145.542
X70.997Y-56.642
X70.997Y-101.092
X70.997Y-145.542
X73.497Y-56.642
X73.497Y-101.092
X73.497Y-145.542
X112.907Y-56.642
X112.947Y-101.092
X112.947Y-145.542
X115.407Y-56.642
X115.447Y-101.092
X115.447Y-145.542
X117.907Y-56.642
X117.947Y-101.092
X117.947Y-145.542
X119.892Y-115.697
X133.227Y-122.047
X138.942Y-122.047
X154.182Y-115.697
X157.357Y-145.542
X157.397Y-56.642
X157.397Y-101.092
X159.857Y-145.542
X159.897Y-56.642
X159.897Y-101.092
X162.357Y-145.542
X162.397Y-56.642
X162.397Y-101.092
X163.707Y-71.247
X163.707Y-82.296
X163.707Y-115.697
X177.677Y-137.169
X177.677Y-139.709
X180.217Y-137.169
X180.217Y-139.709
X182.757Y-137.169
X182.757Y-139.709
X185.297Y-137.169
X185.297Y-139.709
X187.837Y-137.169
X187.837Y-139.709
X199.267Y-71.247
X199.267Y-115.697
X201.847Y-56.642
X201.847Y-101.092
X201.847Y-145.542
X204.347Y-56.642
X204.347Y-101.092
X204.347Y-145.542
X206.847Y-56.642
X206.847Y-101.092
X206.847Y-145.542
T6
X70.997Y-127.762
X70.997Y-130.302
X71.017Y-80.772
X71.017Y-83.312
X71.017Y-85.852
X126.242Y-139.807
X128.782Y-139.807
X141.482Y-139.827
X144.022Y-139.827
X146.562Y-139.827
X149.102Y-139.827
X151.642Y-139.827
T7
X135.005Y-77.47
X135.005Y-85.09
T8
X229.747Y-44.322
X229.747Y-49.022
X229.747Y-53.722
X229.747Y-88.772
X229.747Y-93.472
X229.747Y-98.172
X229.747Y-133.222
X229.747Y-137.922
X229.747Y-142.622
T5
X66.197Y-49.492G85X66.197Y-48.792
G05
X66.197Y-93.942G85X66.197Y-93.242
G05
X66.197Y-138.392G85X66.197Y-137.692
G05
X75.797Y-49.492G85X75.797Y-48.792
G05
X75.797Y-93.942G85X75.797Y-93.242
G05
X75.797Y-138.392G85X75.797Y-137.692
G05
X110.607Y-49.492G85X110.607Y-48.792
G05
X110.647Y-93.942G85X110.647Y-93.242
G05
X110.647Y-138.392G85X110.647Y-137.692
G05
X120.207Y-49.492G85X120.207Y-48.792
G05
X120.247Y-93.942G85X120.247Y-93.242
G05
X120.247Y-138.392G85X120.247Y-137.692
G05
X155.057Y-138.392G85X155.057Y-137.692
G05
X155.097Y-49.492G85X155.097Y-48.792
G05
X155.097Y-93.942G85X155.097Y-93.242
G05
X164.657Y-138.392G85X164.657Y-137.692
G05
X164.697Y-49.492G85X164.697Y-48.792
G05
X164.697Y-93.942G85X164.697Y-93.242
G05
X199.547Y-49.492G85X199.547Y-48.792
G05
X199.547Y-93.942G85X199.547Y-93.242
G05
X199.547Y-138.392G85X199.547Y-137.692
G05
X209.147Y-49.492G85X209.147Y-48.792
G05
X209.147Y-93.942G85X209.147Y-93.242
G05
X209.147Y-138.392G85X209.147Y-137.692
G05
T0
M30
