G04 #@! TF.GenerationSoftware,KiCad,Pcbnew,6.0.5+dfsg-1~bpo11+1*
G04 #@! TF.CreationDate,2022-06-30T11:54:21+00:00*
G04 #@! TF.ProjectId,ADSR_board,41445352-5f62-46f6-9172-642e6b696361,0*
G04 #@! TF.SameCoordinates,Original*
G04 #@! TF.FileFunction,Soldermask,Bot*
G04 #@! TF.FilePolarity,Negative*
%FSLAX46Y46*%
G04 Gerber Fmt 4.6, Leading zero omitted, Abs format (unit mm)*
G04 Created by KiCad (PCBNEW 6.0.5+dfsg-1~bpo11+1) date 2022-06-30 11:54:21*
%MOMM*%
%LPD*%
G01*
G04 APERTURE LIST*
%ADD10O,2.720000X3.240000*%
%ADD11R,1.800000X1.800000*%
%ADD12C,1.800000*%
%ADD13C,2.500000*%
%ADD14C,2.000000*%
%ADD15R,1.600000X1.600000*%
%ADD16C,1.600000*%
%ADD17R,0.900000X1.200000*%
%ADD18C,2.600000*%
%ADD19O,2.190000X1.740000*%
%ADD20O,1.740000X2.190000*%
%ADD21C,1.700000*%
G04 APERTURE END LIST*
D10*
X120207000Y-49142000D03*
X110607000Y-49142000D03*
D11*
X112907000Y-56642000D03*
D12*
X115407000Y-56642000D03*
X117907000Y-56642000D03*
D13*
X229747000Y-53722000D03*
X229747000Y-49022000D03*
X229747000Y-44322000D03*
D10*
X66197000Y-138042000D03*
X75797000Y-138042000D03*
D11*
X68497000Y-145542000D03*
D12*
X70997000Y-145542000D03*
X73497000Y-145542000D03*
D10*
X66197000Y-49142000D03*
X75797000Y-49142000D03*
D11*
X68497000Y-56642000D03*
D12*
X70997000Y-56642000D03*
X73497000Y-56642000D03*
D10*
X75797000Y-93592000D03*
X66197000Y-93592000D03*
D11*
X68497000Y-101092000D03*
D12*
X70997000Y-101092000D03*
X73497000Y-101092000D03*
D10*
X199547000Y-93592000D03*
X209147000Y-93592000D03*
D11*
X201847000Y-101092000D03*
D12*
X204347000Y-101092000D03*
X206847000Y-101092000D03*
D13*
X229747000Y-142622000D03*
X229747000Y-137922000D03*
X229747000Y-133222000D03*
D10*
X164657000Y-138042000D03*
X155057000Y-138042000D03*
D11*
X157357000Y-145542000D03*
D12*
X159857000Y-145542000D03*
X162357000Y-145542000D03*
D10*
X110647000Y-138042000D03*
X120247000Y-138042000D03*
D11*
X112947000Y-145542000D03*
D12*
X115447000Y-145542000D03*
X117947000Y-145542000D03*
D13*
X229747000Y-98172000D03*
X229747000Y-93472000D03*
X229747000Y-88772000D03*
D10*
X164697000Y-93592000D03*
X155097000Y-93592000D03*
D11*
X157397000Y-101092000D03*
D12*
X159897000Y-101092000D03*
X162397000Y-101092000D03*
D10*
X199547000Y-138042000D03*
X209147000Y-138042000D03*
D11*
X201847000Y-145542000D03*
D12*
X204347000Y-145542000D03*
X206847000Y-145542000D03*
D10*
X209147000Y-49142000D03*
X199547000Y-49142000D03*
D11*
X201847000Y-56642000D03*
D12*
X204347000Y-56642000D03*
X206847000Y-56642000D03*
D10*
X120247000Y-93592000D03*
X110647000Y-93592000D03*
D11*
X112947000Y-101092000D03*
D12*
X115447000Y-101092000D03*
X117947000Y-101092000D03*
D10*
X155097000Y-49142000D03*
X164697000Y-49142000D03*
D11*
X157397000Y-56642000D03*
D12*
X159897000Y-56642000D03*
X162397000Y-56642000D03*
G36*
G01*
X138741000Y-115857000D02*
X138741000Y-116807000D01*
G75*
G02*
X138491000Y-117057000I-250000J0D01*
G01*
X137991000Y-117057000D01*
G75*
G02*
X137741000Y-116807000I0J250000D01*
G01*
X137741000Y-115857000D01*
G75*
G02*
X137991000Y-115607000I250000J0D01*
G01*
X138491000Y-115607000D01*
G75*
G02*
X138741000Y-115857000I0J-250000D01*
G01*
G37*
G36*
G01*
X136841000Y-115857000D02*
X136841000Y-116807000D01*
G75*
G02*
X136591000Y-117057000I-250000J0D01*
G01*
X136091000Y-117057000D01*
G75*
G02*
X135841000Y-116807000I0J250000D01*
G01*
X135841000Y-115857000D01*
G75*
G02*
X136091000Y-115607000I250000J0D01*
G01*
X136591000Y-115607000D01*
G75*
G02*
X136841000Y-115857000I0J-250000D01*
G01*
G37*
G36*
G01*
X144960000Y-102903000D02*
X144960000Y-103853000D01*
G75*
G02*
X144710000Y-104103000I-250000J0D01*
G01*
X144210000Y-104103000D01*
G75*
G02*
X143960000Y-103853000I0J250000D01*
G01*
X143960000Y-102903000D01*
G75*
G02*
X144210000Y-102653000I250000J0D01*
G01*
X144710000Y-102653000D01*
G75*
G02*
X144960000Y-102903000I0J-250000D01*
G01*
G37*
G36*
G01*
X143060000Y-102903000D02*
X143060000Y-103853000D01*
G75*
G02*
X142810000Y-104103000I-250000J0D01*
G01*
X142310000Y-104103000D01*
G75*
G02*
X142060000Y-103853000I0J250000D01*
G01*
X142060000Y-102903000D01*
G75*
G02*
X142310000Y-102653000I250000J0D01*
G01*
X142810000Y-102653000D01*
G75*
G02*
X143060000Y-102903000I0J-250000D01*
G01*
G37*
D14*
X154182000Y-115697000D03*
D15*
X128690380Y-119380000D03*
D16*
X126190380Y-119380000D03*
D17*
X192471000Y-99060000D03*
X195771000Y-99060000D03*
G36*
G01*
X151285000Y-115120000D02*
X151285000Y-116020000D01*
G75*
G02*
X151035000Y-116270000I-250000J0D01*
G01*
X150510000Y-116270000D01*
G75*
G02*
X150260000Y-116020000I0J250000D01*
G01*
X150260000Y-115120000D01*
G75*
G02*
X150510000Y-114870000I250000J0D01*
G01*
X151035000Y-114870000D01*
G75*
G02*
X151285000Y-115120000I0J-250000D01*
G01*
G37*
G36*
G01*
X149460000Y-115120000D02*
X149460000Y-116020000D01*
G75*
G02*
X149210000Y-116270000I-250000J0D01*
G01*
X148685000Y-116270000D01*
G75*
G02*
X148435000Y-116020000I0J250000D01*
G01*
X148435000Y-115120000D01*
G75*
G02*
X148685000Y-114870000I250000J0D01*
G01*
X149210000Y-114870000D01*
G75*
G02*
X149460000Y-115120000I0J-250000D01*
G01*
G37*
D15*
X187837000Y-124587000D03*
D16*
X185337000Y-124587000D03*
G36*
G01*
X186346000Y-116020000D02*
X186346000Y-115120000D01*
G75*
G02*
X186596000Y-114870000I250000J0D01*
G01*
X187121000Y-114870000D01*
G75*
G02*
X187371000Y-115120000I0J-250000D01*
G01*
X187371000Y-116020000D01*
G75*
G02*
X187121000Y-116270000I-250000J0D01*
G01*
X186596000Y-116270000D01*
G75*
G02*
X186346000Y-116020000I0J250000D01*
G01*
G37*
G36*
G01*
X188171000Y-116020000D02*
X188171000Y-115120000D01*
G75*
G02*
X188421000Y-114870000I250000J0D01*
G01*
X188946000Y-114870000D01*
G75*
G02*
X189196000Y-115120000I0J-250000D01*
G01*
X189196000Y-116020000D01*
G75*
G02*
X188946000Y-116270000I-250000J0D01*
G01*
X188421000Y-116270000D01*
G75*
G02*
X188171000Y-116020000I0J250000D01*
G01*
G37*
G36*
G01*
X177857000Y-88171000D02*
X177857000Y-89121000D01*
G75*
G02*
X177607000Y-89371000I-250000J0D01*
G01*
X177107000Y-89371000D01*
G75*
G02*
X176857000Y-89121000I0J250000D01*
G01*
X176857000Y-88171000D01*
G75*
G02*
X177107000Y-87921000I250000J0D01*
G01*
X177607000Y-87921000D01*
G75*
G02*
X177857000Y-88171000I0J-250000D01*
G01*
G37*
G36*
G01*
X175957000Y-88171000D02*
X175957000Y-89121000D01*
G75*
G02*
X175707000Y-89371000I-250000J0D01*
G01*
X175207000Y-89371000D01*
G75*
G02*
X174957000Y-89121000I0J250000D01*
G01*
X174957000Y-88171000D01*
G75*
G02*
X175207000Y-87921000I250000J0D01*
G01*
X175707000Y-87921000D01*
G75*
G02*
X175957000Y-88171000I0J-250000D01*
G01*
G37*
D18*
X135005000Y-77470000D03*
X135005000Y-85090000D03*
D14*
X199267000Y-71247000D03*
X119892000Y-115697000D03*
G36*
G01*
X69572000Y-53282000D02*
X69572000Y-52382000D01*
G75*
G02*
X69822000Y-52132000I250000J0D01*
G01*
X70347000Y-52132000D01*
G75*
G02*
X70597000Y-52382000I0J-250000D01*
G01*
X70597000Y-53282000D01*
G75*
G02*
X70347000Y-53532000I-250000J0D01*
G01*
X69822000Y-53532000D01*
G75*
G02*
X69572000Y-53282000I0J250000D01*
G01*
G37*
G36*
G01*
X71397000Y-53282000D02*
X71397000Y-52382000D01*
G75*
G02*
X71647000Y-52132000I250000J0D01*
G01*
X72172000Y-52132000D01*
G75*
G02*
X72422000Y-52382000I0J-250000D01*
G01*
X72422000Y-53282000D01*
G75*
G02*
X72172000Y-53532000I-250000J0D01*
G01*
X71647000Y-53532000D01*
G75*
G02*
X71397000Y-53282000I0J250000D01*
G01*
G37*
G36*
G01*
X127434000Y-100617000D02*
X127434000Y-101567000D01*
G75*
G02*
X127184000Y-101817000I-250000J0D01*
G01*
X126684000Y-101817000D01*
G75*
G02*
X126434000Y-101567000I0J250000D01*
G01*
X126434000Y-100617000D01*
G75*
G02*
X126684000Y-100367000I250000J0D01*
G01*
X127184000Y-100367000D01*
G75*
G02*
X127434000Y-100617000I0J-250000D01*
G01*
G37*
G36*
G01*
X125534000Y-100617000D02*
X125534000Y-101567000D01*
G75*
G02*
X125284000Y-101817000I-250000J0D01*
G01*
X124784000Y-101817000D01*
G75*
G02*
X124534000Y-101567000I0J250000D01*
G01*
X124534000Y-100617000D01*
G75*
G02*
X124784000Y-100367000I250000J0D01*
G01*
X125284000Y-100367000D01*
G75*
G02*
X125534000Y-100617000I0J-250000D01*
G01*
G37*
D15*
X172951380Y-119380000D03*
D16*
X170451380Y-119380000D03*
G36*
G01*
X171670000Y-90482000D02*
X171670000Y-91382000D01*
G75*
G02*
X171420000Y-91632000I-250000J0D01*
G01*
X170895000Y-91632000D01*
G75*
G02*
X170645000Y-91382000I0J250000D01*
G01*
X170645000Y-90482000D01*
G75*
G02*
X170895000Y-90232000I250000J0D01*
G01*
X171420000Y-90232000D01*
G75*
G02*
X171670000Y-90482000I0J-250000D01*
G01*
G37*
G36*
G01*
X169845000Y-90482000D02*
X169845000Y-91382000D01*
G75*
G02*
X169595000Y-91632000I-250000J0D01*
G01*
X169070000Y-91632000D01*
G75*
G02*
X168820000Y-91382000I0J250000D01*
G01*
X168820000Y-90482000D01*
G75*
G02*
X169070000Y-90232000I250000J0D01*
G01*
X169595000Y-90232000D01*
G75*
G02*
X169845000Y-90482000I0J-250000D01*
G01*
G37*
G36*
G01*
X134169000Y-115857000D02*
X134169000Y-116807000D01*
G75*
G02*
X133919000Y-117057000I-250000J0D01*
G01*
X133419000Y-117057000D01*
G75*
G02*
X133169000Y-116807000I0J250000D01*
G01*
X133169000Y-115857000D01*
G75*
G02*
X133419000Y-115607000I250000J0D01*
G01*
X133919000Y-115607000D01*
G75*
G02*
X134169000Y-115857000I0J-250000D01*
G01*
G37*
G36*
G01*
X132269000Y-115857000D02*
X132269000Y-116807000D01*
G75*
G02*
X132019000Y-117057000I-250000J0D01*
G01*
X131519000Y-117057000D01*
G75*
G02*
X131269000Y-116807000I0J250000D01*
G01*
X131269000Y-115857000D01*
G75*
G02*
X131519000Y-115607000I250000J0D01*
G01*
X132019000Y-115607000D01*
G75*
G02*
X132269000Y-115857000I0J-250000D01*
G01*
G37*
G36*
G01*
X189277000Y-58580000D02*
X189277000Y-59530000D01*
G75*
G02*
X189027000Y-59780000I-250000J0D01*
G01*
X188527000Y-59780000D01*
G75*
G02*
X188277000Y-59530000I0J250000D01*
G01*
X188277000Y-58580000D01*
G75*
G02*
X188527000Y-58330000I250000J0D01*
G01*
X189027000Y-58330000D01*
G75*
G02*
X189277000Y-58580000I0J-250000D01*
G01*
G37*
G36*
G01*
X187377000Y-58580000D02*
X187377000Y-59530000D01*
G75*
G02*
X187127000Y-59780000I-250000J0D01*
G01*
X186627000Y-59780000D01*
G75*
G02*
X186377000Y-59530000I0J250000D01*
G01*
X186377000Y-58580000D01*
G75*
G02*
X186627000Y-58330000I250000J0D01*
G01*
X187127000Y-58330000D01*
G75*
G02*
X187377000Y-58580000I0J-250000D01*
G01*
G37*
D14*
X163707000Y-82296000D03*
G36*
G01*
X183191000Y-88171000D02*
X183191000Y-89121000D01*
G75*
G02*
X182941000Y-89371000I-250000J0D01*
G01*
X182441000Y-89371000D01*
G75*
G02*
X182191000Y-89121000I0J250000D01*
G01*
X182191000Y-88171000D01*
G75*
G02*
X182441000Y-87921000I250000J0D01*
G01*
X182941000Y-87921000D01*
G75*
G02*
X183191000Y-88171000I0J-250000D01*
G01*
G37*
G36*
G01*
X181291000Y-88171000D02*
X181291000Y-89121000D01*
G75*
G02*
X181041000Y-89371000I-250000J0D01*
G01*
X180541000Y-89371000D01*
G75*
G02*
X180291000Y-89121000I0J250000D01*
G01*
X180291000Y-88171000D01*
G75*
G02*
X180541000Y-87921000I250000J0D01*
G01*
X181041000Y-87921000D01*
G75*
G02*
X181291000Y-88171000I0J-250000D01*
G01*
G37*
D17*
X171895000Y-113030000D03*
X168595000Y-113030000D03*
G36*
G01*
X192752000Y-63061000D02*
X192752000Y-62161000D01*
G75*
G02*
X193002000Y-61911000I250000J0D01*
G01*
X193527000Y-61911000D01*
G75*
G02*
X193777000Y-62161000I0J-250000D01*
G01*
X193777000Y-63061000D01*
G75*
G02*
X193527000Y-63311000I-250000J0D01*
G01*
X193002000Y-63311000D01*
G75*
G02*
X192752000Y-63061000I0J250000D01*
G01*
G37*
G36*
G01*
X194577000Y-63061000D02*
X194577000Y-62161000D01*
G75*
G02*
X194827000Y-61911000I250000J0D01*
G01*
X195352000Y-61911000D01*
G75*
G02*
X195602000Y-62161000I0J-250000D01*
G01*
X195602000Y-63061000D01*
G75*
G02*
X195352000Y-63311000I-250000J0D01*
G01*
X194827000Y-63311000D01*
G75*
G02*
X194577000Y-63061000I0J250000D01*
G01*
G37*
G36*
G01*
X205772000Y-140012000D02*
X205772000Y-140912000D01*
G75*
G02*
X205522000Y-141162000I-250000J0D01*
G01*
X204997000Y-141162000D01*
G75*
G02*
X204747000Y-140912000I0J250000D01*
G01*
X204747000Y-140012000D01*
G75*
G02*
X204997000Y-139762000I250000J0D01*
G01*
X205522000Y-139762000D01*
G75*
G02*
X205772000Y-140012000I0J-250000D01*
G01*
G37*
G36*
G01*
X203947000Y-140012000D02*
X203947000Y-140912000D01*
G75*
G02*
X203697000Y-141162000I-250000J0D01*
G01*
X203172000Y-141162000D01*
G75*
G02*
X202922000Y-140912000I0J250000D01*
G01*
X202922000Y-140012000D01*
G75*
G02*
X203172000Y-139762000I250000J0D01*
G01*
X203697000Y-139762000D01*
G75*
G02*
X203947000Y-140012000I0J-250000D01*
G01*
G37*
X124334000Y-104902000D03*
X127634000Y-104902000D03*
G36*
G01*
X182651000Y-94465000D02*
X182651000Y-94765000D01*
G75*
G02*
X182501000Y-94915000I-150000J0D01*
G01*
X180851000Y-94915000D01*
G75*
G02*
X180701000Y-94765000I0J150000D01*
G01*
X180701000Y-94465000D01*
G75*
G02*
X180851000Y-94315000I150000J0D01*
G01*
X182501000Y-94315000D01*
G75*
G02*
X182651000Y-94465000I0J-150000D01*
G01*
G37*
G36*
G01*
X182651000Y-95735000D02*
X182651000Y-96035000D01*
G75*
G02*
X182501000Y-96185000I-150000J0D01*
G01*
X180851000Y-96185000D01*
G75*
G02*
X180701000Y-96035000I0J150000D01*
G01*
X180701000Y-95735000D01*
G75*
G02*
X180851000Y-95585000I150000J0D01*
G01*
X182501000Y-95585000D01*
G75*
G02*
X182651000Y-95735000I0J-150000D01*
G01*
G37*
G36*
G01*
X182651000Y-97005000D02*
X182651000Y-97305000D01*
G75*
G02*
X182501000Y-97455000I-150000J0D01*
G01*
X180851000Y-97455000D01*
G75*
G02*
X180701000Y-97305000I0J150000D01*
G01*
X180701000Y-97005000D01*
G75*
G02*
X180851000Y-96855000I150000J0D01*
G01*
X182501000Y-96855000D01*
G75*
G02*
X182651000Y-97005000I0J-150000D01*
G01*
G37*
G36*
G01*
X182651000Y-98275000D02*
X182651000Y-98575000D01*
G75*
G02*
X182501000Y-98725000I-150000J0D01*
G01*
X180851000Y-98725000D01*
G75*
G02*
X180701000Y-98575000I0J150000D01*
G01*
X180701000Y-98275000D01*
G75*
G02*
X180851000Y-98125000I150000J0D01*
G01*
X182501000Y-98125000D01*
G75*
G02*
X182651000Y-98275000I0J-150000D01*
G01*
G37*
G36*
G01*
X177701000Y-98275000D02*
X177701000Y-98575000D01*
G75*
G02*
X177551000Y-98725000I-150000J0D01*
G01*
X175901000Y-98725000D01*
G75*
G02*
X175751000Y-98575000I0J150000D01*
G01*
X175751000Y-98275000D01*
G75*
G02*
X175901000Y-98125000I150000J0D01*
G01*
X177551000Y-98125000D01*
G75*
G02*
X177701000Y-98275000I0J-150000D01*
G01*
G37*
G36*
G01*
X177701000Y-97005000D02*
X177701000Y-97305000D01*
G75*
G02*
X177551000Y-97455000I-150000J0D01*
G01*
X175901000Y-97455000D01*
G75*
G02*
X175751000Y-97305000I0J150000D01*
G01*
X175751000Y-97005000D01*
G75*
G02*
X175901000Y-96855000I150000J0D01*
G01*
X177551000Y-96855000D01*
G75*
G02*
X177701000Y-97005000I0J-150000D01*
G01*
G37*
G36*
G01*
X177701000Y-95735000D02*
X177701000Y-96035000D01*
G75*
G02*
X177551000Y-96185000I-150000J0D01*
G01*
X175901000Y-96185000D01*
G75*
G02*
X175751000Y-96035000I0J150000D01*
G01*
X175751000Y-95735000D01*
G75*
G02*
X175901000Y-95585000I150000J0D01*
G01*
X177551000Y-95585000D01*
G75*
G02*
X177701000Y-95735000I0J-150000D01*
G01*
G37*
G36*
G01*
X177701000Y-94465000D02*
X177701000Y-94765000D01*
G75*
G02*
X177551000Y-94915000I-150000J0D01*
G01*
X175901000Y-94915000D01*
G75*
G02*
X175751000Y-94765000I0J150000D01*
G01*
X175751000Y-94465000D01*
G75*
G02*
X175901000Y-94315000I150000J0D01*
G01*
X177551000Y-94315000D01*
G75*
G02*
X177701000Y-94465000I0J-150000D01*
G01*
G37*
G36*
G01*
X172498000Y-81338000D02*
X172498000Y-82238000D01*
G75*
G02*
X172248000Y-82488000I-250000J0D01*
G01*
X171723000Y-82488000D01*
G75*
G02*
X171473000Y-82238000I0J250000D01*
G01*
X171473000Y-81338000D01*
G75*
G02*
X171723000Y-81088000I250000J0D01*
G01*
X172248000Y-81088000D01*
G75*
G02*
X172498000Y-81338000I0J-250000D01*
G01*
G37*
G36*
G01*
X170673000Y-81338000D02*
X170673000Y-82238000D01*
G75*
G02*
X170423000Y-82488000I-250000J0D01*
G01*
X169898000Y-82488000D01*
G75*
G02*
X169648000Y-82238000I0J250000D01*
G01*
X169648000Y-81338000D01*
G75*
G02*
X169898000Y-81088000I250000J0D01*
G01*
X170423000Y-81088000D01*
G75*
G02*
X170673000Y-81338000I0J-250000D01*
G01*
G37*
G36*
G01*
X161322000Y-52382000D02*
X161322000Y-53282000D01*
G75*
G02*
X161072000Y-53532000I-250000J0D01*
G01*
X160547000Y-53532000D01*
G75*
G02*
X160297000Y-53282000I0J250000D01*
G01*
X160297000Y-52382000D01*
G75*
G02*
X160547000Y-52132000I250000J0D01*
G01*
X161072000Y-52132000D01*
G75*
G02*
X161322000Y-52382000I0J-250000D01*
G01*
G37*
G36*
G01*
X159497000Y-52382000D02*
X159497000Y-53282000D01*
G75*
G02*
X159247000Y-53532000I-250000J0D01*
G01*
X158722000Y-53532000D01*
G75*
G02*
X158472000Y-53282000I0J250000D01*
G01*
X158472000Y-52382000D01*
G75*
G02*
X158722000Y-52132000I250000J0D01*
G01*
X159247000Y-52132000D01*
G75*
G02*
X159497000Y-52382000I0J-250000D01*
G01*
G37*
G36*
G01*
X189221000Y-102903000D02*
X189221000Y-103853000D01*
G75*
G02*
X188971000Y-104103000I-250000J0D01*
G01*
X188471000Y-104103000D01*
G75*
G02*
X188221000Y-103853000I0J250000D01*
G01*
X188221000Y-102903000D01*
G75*
G02*
X188471000Y-102653000I250000J0D01*
G01*
X188971000Y-102653000D01*
G75*
G02*
X189221000Y-102903000I0J-250000D01*
G01*
G37*
G36*
G01*
X187321000Y-102903000D02*
X187321000Y-103853000D01*
G75*
G02*
X187071000Y-104103000I-250000J0D01*
G01*
X186571000Y-104103000D01*
G75*
G02*
X186321000Y-103853000I0J250000D01*
G01*
X186321000Y-102903000D01*
G75*
G02*
X186571000Y-102653000I250000J0D01*
G01*
X187071000Y-102653000D01*
G75*
G02*
X187321000Y-102903000I0J-250000D01*
G01*
G37*
G36*
G01*
X186346000Y-107384000D02*
X186346000Y-106484000D01*
G75*
G02*
X186596000Y-106234000I250000J0D01*
G01*
X187121000Y-106234000D01*
G75*
G02*
X187371000Y-106484000I0J-250000D01*
G01*
X187371000Y-107384000D01*
G75*
G02*
X187121000Y-107634000I-250000J0D01*
G01*
X186596000Y-107634000D01*
G75*
G02*
X186346000Y-107384000I0J250000D01*
G01*
G37*
G36*
G01*
X188171000Y-107384000D02*
X188171000Y-106484000D01*
G75*
G02*
X188421000Y-106234000I250000J0D01*
G01*
X188946000Y-106234000D01*
G75*
G02*
X189196000Y-106484000I0J-250000D01*
G01*
X189196000Y-107384000D01*
G75*
G02*
X188946000Y-107634000I-250000J0D01*
G01*
X188421000Y-107634000D01*
G75*
G02*
X188171000Y-107384000I0J250000D01*
G01*
G37*
D14*
X199267000Y-115697000D03*
G36*
G01*
X171751000Y-56294000D02*
X171751000Y-57244000D01*
G75*
G02*
X171501000Y-57494000I-250000J0D01*
G01*
X171001000Y-57494000D01*
G75*
G02*
X170751000Y-57244000I0J250000D01*
G01*
X170751000Y-56294000D01*
G75*
G02*
X171001000Y-56044000I250000J0D01*
G01*
X171501000Y-56044000D01*
G75*
G02*
X171751000Y-56294000I0J-250000D01*
G01*
G37*
G36*
G01*
X169851000Y-56294000D02*
X169851000Y-57244000D01*
G75*
G02*
X169601000Y-57494000I-250000J0D01*
G01*
X169101000Y-57494000D01*
G75*
G02*
X168851000Y-57244000I0J250000D01*
G01*
X168851000Y-56294000D01*
G75*
G02*
X169101000Y-56044000I250000J0D01*
G01*
X169601000Y-56044000D01*
G75*
G02*
X169851000Y-56294000I0J-250000D01*
G01*
G37*
G36*
G01*
X114022000Y-97224000D02*
X114022000Y-96324000D01*
G75*
G02*
X114272000Y-96074000I250000J0D01*
G01*
X114797000Y-96074000D01*
G75*
G02*
X115047000Y-96324000I0J-250000D01*
G01*
X115047000Y-97224000D01*
G75*
G02*
X114797000Y-97474000I-250000J0D01*
G01*
X114272000Y-97474000D01*
G75*
G02*
X114022000Y-97224000I0J250000D01*
G01*
G37*
G36*
G01*
X115847000Y-97224000D02*
X115847000Y-96324000D01*
G75*
G02*
X116097000Y-96074000I250000J0D01*
G01*
X116622000Y-96074000D01*
G75*
G02*
X116872000Y-96324000I0J-250000D01*
G01*
X116872000Y-97224000D01*
G75*
G02*
X116622000Y-97474000I-250000J0D01*
G01*
X116097000Y-97474000D01*
G75*
G02*
X115847000Y-97224000I0J250000D01*
G01*
G37*
X163707000Y-71247000D03*
G36*
G01*
X171695000Y-100617000D02*
X171695000Y-101567000D01*
G75*
G02*
X171445000Y-101817000I-250000J0D01*
G01*
X170945000Y-101817000D01*
G75*
G02*
X170695000Y-101567000I0J250000D01*
G01*
X170695000Y-100617000D01*
G75*
G02*
X170945000Y-100367000I250000J0D01*
G01*
X171445000Y-100367000D01*
G75*
G02*
X171695000Y-100617000I0J-250000D01*
G01*
G37*
G36*
G01*
X169795000Y-100617000D02*
X169795000Y-101567000D01*
G75*
G02*
X169545000Y-101817000I-250000J0D01*
G01*
X169045000Y-101817000D01*
G75*
G02*
X168795000Y-101567000I0J250000D01*
G01*
X168795000Y-100617000D01*
G75*
G02*
X169045000Y-100367000I250000J0D01*
G01*
X169545000Y-100367000D01*
G75*
G02*
X169795000Y-100617000I0J-250000D01*
G01*
G37*
D17*
X192471000Y-103124000D03*
X195771000Y-103124000D03*
G36*
G01*
X178365000Y-71661000D02*
X178365000Y-72611000D01*
G75*
G02*
X178115000Y-72861000I-250000J0D01*
G01*
X177615000Y-72861000D01*
G75*
G02*
X177365000Y-72611000I0J250000D01*
G01*
X177365000Y-71661000D01*
G75*
G02*
X177615000Y-71411000I250000J0D01*
G01*
X178115000Y-71411000D01*
G75*
G02*
X178365000Y-71661000I0J-250000D01*
G01*
G37*
G36*
G01*
X176465000Y-71661000D02*
X176465000Y-72611000D01*
G75*
G02*
X176215000Y-72861000I-250000J0D01*
G01*
X175715000Y-72861000D01*
G75*
G02*
X175465000Y-72611000I0J250000D01*
G01*
X175465000Y-71661000D01*
G75*
G02*
X175715000Y-71411000I250000J0D01*
G01*
X176215000Y-71411000D01*
G75*
G02*
X176465000Y-71661000I0J-250000D01*
G01*
G37*
G36*
G01*
X171976000Y-50589000D02*
X171976000Y-50889000D01*
G75*
G02*
X171826000Y-51039000I-150000J0D01*
G01*
X170651000Y-51039000D01*
G75*
G02*
X170501000Y-50889000I0J150000D01*
G01*
X170501000Y-50589000D01*
G75*
G02*
X170651000Y-50439000I150000J0D01*
G01*
X171826000Y-50439000D01*
G75*
G02*
X171976000Y-50589000I0J-150000D01*
G01*
G37*
G36*
G01*
X171976000Y-52489000D02*
X171976000Y-52789000D01*
G75*
G02*
X171826000Y-52939000I-150000J0D01*
G01*
X170651000Y-52939000D01*
G75*
G02*
X170501000Y-52789000I0J150000D01*
G01*
X170501000Y-52489000D01*
G75*
G02*
X170651000Y-52339000I150000J0D01*
G01*
X171826000Y-52339000D01*
G75*
G02*
X171976000Y-52489000I0J-150000D01*
G01*
G37*
G36*
G01*
X170101000Y-51539000D02*
X170101000Y-51839000D01*
G75*
G02*
X169951000Y-51989000I-150000J0D01*
G01*
X168776000Y-51989000D01*
G75*
G02*
X168626000Y-51839000I0J150000D01*
G01*
X168626000Y-51539000D01*
G75*
G02*
X168776000Y-51389000I150000J0D01*
G01*
X169951000Y-51389000D01*
G75*
G02*
X170101000Y-51539000I0J-150000D01*
G01*
G37*
G36*
G01*
X178365000Y-57183000D02*
X178365000Y-58133000D01*
G75*
G02*
X178115000Y-58383000I-250000J0D01*
G01*
X177615000Y-58383000D01*
G75*
G02*
X177365000Y-58133000I0J250000D01*
G01*
X177365000Y-57183000D01*
G75*
G02*
X177615000Y-56933000I250000J0D01*
G01*
X178115000Y-56933000D01*
G75*
G02*
X178365000Y-57183000I0J-250000D01*
G01*
G37*
G36*
G01*
X176465000Y-57183000D02*
X176465000Y-58133000D01*
G75*
G02*
X176215000Y-58383000I-250000J0D01*
G01*
X175715000Y-58383000D01*
G75*
G02*
X175465000Y-58133000I0J250000D01*
G01*
X175465000Y-57183000D01*
G75*
G02*
X175715000Y-56933000I250000J0D01*
G01*
X176215000Y-56933000D01*
G75*
G02*
X176465000Y-57183000I0J-250000D01*
G01*
G37*
D14*
X133227000Y-122047000D03*
G36*
G01*
X171920000Y-94912000D02*
X171920000Y-95212000D01*
G75*
G02*
X171770000Y-95362000I-150000J0D01*
G01*
X170595000Y-95362000D01*
G75*
G02*
X170445000Y-95212000I0J150000D01*
G01*
X170445000Y-94912000D01*
G75*
G02*
X170595000Y-94762000I150000J0D01*
G01*
X171770000Y-94762000D01*
G75*
G02*
X171920000Y-94912000I0J-150000D01*
G01*
G37*
G36*
G01*
X171920000Y-96812000D02*
X171920000Y-97112000D01*
G75*
G02*
X171770000Y-97262000I-150000J0D01*
G01*
X170595000Y-97262000D01*
G75*
G02*
X170445000Y-97112000I0J150000D01*
G01*
X170445000Y-96812000D01*
G75*
G02*
X170595000Y-96662000I150000J0D01*
G01*
X171770000Y-96662000D01*
G75*
G02*
X171920000Y-96812000I0J-150000D01*
G01*
G37*
G36*
G01*
X170045000Y-95862000D02*
X170045000Y-96162000D01*
G75*
G02*
X169895000Y-96312000I-150000J0D01*
G01*
X168720000Y-96312000D01*
G75*
G02*
X168570000Y-96162000I0J150000D01*
G01*
X168570000Y-95862000D01*
G75*
G02*
X168720000Y-95712000I150000J0D01*
G01*
X169895000Y-95712000D01*
G75*
G02*
X170045000Y-95862000I0J-150000D01*
G01*
G37*
D15*
X220769380Y-137922000D03*
D16*
X218269380Y-137922000D03*
G36*
G01*
X70172000Y-79902000D02*
X71862000Y-79902000D01*
G75*
G02*
X72112000Y-80152000I0J-250000D01*
G01*
X72112000Y-81392000D01*
G75*
G02*
X71862000Y-81642000I-250000J0D01*
G01*
X70172000Y-81642000D01*
G75*
G02*
X69922000Y-81392000I0J250000D01*
G01*
X69922000Y-80152000D01*
G75*
G02*
X70172000Y-79902000I250000J0D01*
G01*
G37*
D19*
X71017000Y-83312000D03*
X71017000Y-85852000D03*
G36*
G01*
X189252000Y-46413000D02*
X189252000Y-47313000D01*
G75*
G02*
X189002000Y-47563000I-250000J0D01*
G01*
X188477000Y-47563000D01*
G75*
G02*
X188227000Y-47313000I0J250000D01*
G01*
X188227000Y-46413000D01*
G75*
G02*
X188477000Y-46163000I250000J0D01*
G01*
X189002000Y-46163000D01*
G75*
G02*
X189252000Y-46413000I0J-250000D01*
G01*
G37*
G36*
G01*
X187427000Y-46413000D02*
X187427000Y-47313000D01*
G75*
G02*
X187177000Y-47563000I-250000J0D01*
G01*
X186652000Y-47563000D01*
G75*
G02*
X186402000Y-47313000I0J250000D01*
G01*
X186402000Y-46413000D01*
G75*
G02*
X186652000Y-46163000I250000J0D01*
G01*
X187177000Y-46163000D01*
G75*
G02*
X187427000Y-46413000I0J-250000D01*
G01*
G37*
D17*
X148210000Y-103124000D03*
X151510000Y-103124000D03*
G36*
G01*
X195546000Y-115120000D02*
X195546000Y-116020000D01*
G75*
G02*
X195296000Y-116270000I-250000J0D01*
G01*
X194771000Y-116270000D01*
G75*
G02*
X194521000Y-116020000I0J250000D01*
G01*
X194521000Y-115120000D01*
G75*
G02*
X194771000Y-114870000I250000J0D01*
G01*
X195296000Y-114870000D01*
G75*
G02*
X195546000Y-115120000I0J-250000D01*
G01*
G37*
G36*
G01*
X193721000Y-115120000D02*
X193721000Y-116020000D01*
G75*
G02*
X193471000Y-116270000I-250000J0D01*
G01*
X192946000Y-116270000D01*
G75*
G02*
X192696000Y-116020000I0J250000D01*
G01*
X192696000Y-115120000D01*
G75*
G02*
X192946000Y-114870000I250000J0D01*
G01*
X193471000Y-114870000D01*
G75*
G02*
X193721000Y-115120000I0J-250000D01*
G01*
G37*
G36*
G01*
X125372000Y-140652000D02*
X125372000Y-138962000D01*
G75*
G02*
X125622000Y-138712000I250000J0D01*
G01*
X126862000Y-138712000D01*
G75*
G02*
X127112000Y-138962000I0J-250000D01*
G01*
X127112000Y-140652000D01*
G75*
G02*
X126862000Y-140902000I-250000J0D01*
G01*
X125622000Y-140902000D01*
G75*
G02*
X125372000Y-140652000I0J250000D01*
G01*
G37*
D20*
X128782000Y-139807000D03*
D17*
X127634000Y-113030000D03*
X124334000Y-113030000D03*
G36*
G01*
X127659000Y-94912000D02*
X127659000Y-95212000D01*
G75*
G02*
X127509000Y-95362000I-150000J0D01*
G01*
X126334000Y-95362000D01*
G75*
G02*
X126184000Y-95212000I0J150000D01*
G01*
X126184000Y-94912000D01*
G75*
G02*
X126334000Y-94762000I150000J0D01*
G01*
X127509000Y-94762000D01*
G75*
G02*
X127659000Y-94912000I0J-150000D01*
G01*
G37*
G36*
G01*
X127659000Y-96812000D02*
X127659000Y-97112000D01*
G75*
G02*
X127509000Y-97262000I-150000J0D01*
G01*
X126334000Y-97262000D01*
G75*
G02*
X126184000Y-97112000I0J150000D01*
G01*
X126184000Y-96812000D01*
G75*
G02*
X126334000Y-96662000I150000J0D01*
G01*
X127509000Y-96662000D01*
G75*
G02*
X127659000Y-96812000I0J-150000D01*
G01*
G37*
G36*
G01*
X125784000Y-95862000D02*
X125784000Y-96162000D01*
G75*
G02*
X125634000Y-96312000I-150000J0D01*
G01*
X124459000Y-96312000D01*
G75*
G02*
X124309000Y-96162000I0J150000D01*
G01*
X124309000Y-95862000D01*
G75*
G02*
X124459000Y-95712000I150000J0D01*
G01*
X125634000Y-95712000D01*
G75*
G02*
X125784000Y-95862000I0J-150000D01*
G01*
G37*
G36*
G01*
X178365000Y-115984000D02*
X178365000Y-116934000D01*
G75*
G02*
X178115000Y-117184000I-250000J0D01*
G01*
X177615000Y-117184000D01*
G75*
G02*
X177365000Y-116934000I0J250000D01*
G01*
X177365000Y-115984000D01*
G75*
G02*
X177615000Y-115734000I250000J0D01*
G01*
X178115000Y-115734000D01*
G75*
G02*
X178365000Y-115984000I0J-250000D01*
G01*
G37*
G36*
G01*
X176465000Y-115984000D02*
X176465000Y-116934000D01*
G75*
G02*
X176215000Y-117184000I-250000J0D01*
G01*
X175715000Y-117184000D01*
G75*
G02*
X175465000Y-116934000I0J250000D01*
G01*
X175465000Y-115984000D01*
G75*
G02*
X175715000Y-115734000I250000J0D01*
G01*
X176215000Y-115734000D01*
G75*
G02*
X176465000Y-115984000I0J-250000D01*
G01*
G37*
G36*
G01*
X69572000Y-97224000D02*
X69572000Y-96324000D01*
G75*
G02*
X69822000Y-96074000I250000J0D01*
G01*
X70347000Y-96074000D01*
G75*
G02*
X70597000Y-96324000I0J-250000D01*
G01*
X70597000Y-97224000D01*
G75*
G02*
X70347000Y-97474000I-250000J0D01*
G01*
X69822000Y-97474000D01*
G75*
G02*
X69572000Y-97224000I0J250000D01*
G01*
G37*
G36*
G01*
X71397000Y-97224000D02*
X71397000Y-96324000D01*
G75*
G02*
X71647000Y-96074000I250000J0D01*
G01*
X72172000Y-96074000D01*
G75*
G02*
X72422000Y-96324000I0J-250000D01*
G01*
X72422000Y-97224000D01*
G75*
G02*
X72172000Y-97474000I-250000J0D01*
G01*
X71647000Y-97474000D01*
G75*
G02*
X71397000Y-97224000I0J250000D01*
G01*
G37*
G36*
G01*
X182937000Y-71661000D02*
X182937000Y-72611000D01*
G75*
G02*
X182687000Y-72861000I-250000J0D01*
G01*
X182187000Y-72861000D01*
G75*
G02*
X181937000Y-72611000I0J250000D01*
G01*
X181937000Y-71661000D01*
G75*
G02*
X182187000Y-71411000I250000J0D01*
G01*
X182687000Y-71411000D01*
G75*
G02*
X182937000Y-71661000I0J-250000D01*
G01*
G37*
G36*
G01*
X181037000Y-71661000D02*
X181037000Y-72611000D01*
G75*
G02*
X180787000Y-72861000I-250000J0D01*
G01*
X180287000Y-72861000D01*
G75*
G02*
X180037000Y-72611000I0J250000D01*
G01*
X180037000Y-71661000D01*
G75*
G02*
X180287000Y-71411000I250000J0D01*
G01*
X180787000Y-71411000D01*
G75*
G02*
X181037000Y-71661000I0J-250000D01*
G01*
G37*
G36*
G01*
X189502000Y-66083000D02*
X189502000Y-66383000D01*
G75*
G02*
X189352000Y-66533000I-150000J0D01*
G01*
X188177000Y-66533000D01*
G75*
G02*
X188027000Y-66383000I0J150000D01*
G01*
X188027000Y-66083000D01*
G75*
G02*
X188177000Y-65933000I150000J0D01*
G01*
X189352000Y-65933000D01*
G75*
G02*
X189502000Y-66083000I0J-150000D01*
G01*
G37*
G36*
G01*
X189502000Y-67983000D02*
X189502000Y-68283000D01*
G75*
G02*
X189352000Y-68433000I-150000J0D01*
G01*
X188177000Y-68433000D01*
G75*
G02*
X188027000Y-68283000I0J150000D01*
G01*
X188027000Y-67983000D01*
G75*
G02*
X188177000Y-67833000I150000J0D01*
G01*
X189352000Y-67833000D01*
G75*
G02*
X189502000Y-67983000I0J-150000D01*
G01*
G37*
G36*
G01*
X187627000Y-67033000D02*
X187627000Y-67333000D01*
G75*
G02*
X187477000Y-67483000I-150000J0D01*
G01*
X186302000Y-67483000D01*
G75*
G02*
X186152000Y-67333000I0J150000D01*
G01*
X186152000Y-67033000D01*
G75*
G02*
X186302000Y-66883000I150000J0D01*
G01*
X187477000Y-66883000D01*
G75*
G02*
X187627000Y-67033000I0J-150000D01*
G01*
G37*
G36*
G01*
X151535000Y-110406000D02*
X151535000Y-110706000D01*
G75*
G02*
X151385000Y-110856000I-150000J0D01*
G01*
X150210000Y-110856000D01*
G75*
G02*
X150060000Y-110706000I0J150000D01*
G01*
X150060000Y-110406000D01*
G75*
G02*
X150210000Y-110256000I150000J0D01*
G01*
X151385000Y-110256000D01*
G75*
G02*
X151535000Y-110406000I0J-150000D01*
G01*
G37*
G36*
G01*
X151535000Y-112306000D02*
X151535000Y-112606000D01*
G75*
G02*
X151385000Y-112756000I-150000J0D01*
G01*
X150210000Y-112756000D01*
G75*
G02*
X150060000Y-112606000I0J150000D01*
G01*
X150060000Y-112306000D01*
G75*
G02*
X150210000Y-112156000I150000J0D01*
G01*
X151385000Y-112156000D01*
G75*
G02*
X151535000Y-112306000I0J-150000D01*
G01*
G37*
G36*
G01*
X149660000Y-111356000D02*
X149660000Y-111656000D01*
G75*
G02*
X149510000Y-111806000I-150000J0D01*
G01*
X148335000Y-111806000D01*
G75*
G02*
X148185000Y-111656000I0J150000D01*
G01*
X148185000Y-111356000D01*
G75*
G02*
X148335000Y-111206000I150000J0D01*
G01*
X149510000Y-111206000D01*
G75*
G02*
X149660000Y-111356000I0J-150000D01*
G01*
G37*
G36*
G01*
X145185000Y-110406000D02*
X145185000Y-110706000D01*
G75*
G02*
X145035000Y-110856000I-150000J0D01*
G01*
X143860000Y-110856000D01*
G75*
G02*
X143710000Y-110706000I0J150000D01*
G01*
X143710000Y-110406000D01*
G75*
G02*
X143860000Y-110256000I150000J0D01*
G01*
X145035000Y-110256000D01*
G75*
G02*
X145185000Y-110406000I0J-150000D01*
G01*
G37*
G36*
G01*
X145185000Y-112306000D02*
X145185000Y-112606000D01*
G75*
G02*
X145035000Y-112756000I-150000J0D01*
G01*
X143860000Y-112756000D01*
G75*
G02*
X143710000Y-112606000I0J150000D01*
G01*
X143710000Y-112306000D01*
G75*
G02*
X143860000Y-112156000I150000J0D01*
G01*
X145035000Y-112156000D01*
G75*
G02*
X145185000Y-112306000I0J-150000D01*
G01*
G37*
G36*
G01*
X143310000Y-111356000D02*
X143310000Y-111656000D01*
G75*
G02*
X143160000Y-111806000I-150000J0D01*
G01*
X141985000Y-111806000D01*
G75*
G02*
X141835000Y-111656000I0J150000D01*
G01*
X141835000Y-111356000D01*
G75*
G02*
X141985000Y-111206000I150000J0D01*
G01*
X143160000Y-111206000D01*
G75*
G02*
X143310000Y-111356000I0J-150000D01*
G01*
G37*
G36*
G01*
X177077000Y-136319500D02*
X178277000Y-136319500D01*
G75*
G02*
X178527000Y-136569500I0J-250000D01*
G01*
X178527000Y-137769500D01*
G75*
G02*
X178277000Y-138019500I-250000J0D01*
G01*
X177077000Y-138019500D01*
G75*
G02*
X176827000Y-137769500I0J250000D01*
G01*
X176827000Y-136569500D01*
G75*
G02*
X177077000Y-136319500I250000J0D01*
G01*
G37*
D21*
X177677000Y-139709500D03*
X180217000Y-137169500D03*
X180217000Y-139709500D03*
X182757000Y-137169500D03*
X182757000Y-139709500D03*
X185297000Y-137169500D03*
X185297000Y-139709500D03*
X187837000Y-137169500D03*
X187837000Y-139709500D03*
D17*
X192527000Y-58801000D03*
X195827000Y-58801000D03*
G36*
G01*
X113768000Y-140912000D02*
X113768000Y-140012000D01*
G75*
G02*
X114018000Y-139762000I250000J0D01*
G01*
X114543000Y-139762000D01*
G75*
G02*
X114793000Y-140012000I0J-250000D01*
G01*
X114793000Y-140912000D01*
G75*
G02*
X114543000Y-141162000I-250000J0D01*
G01*
X114018000Y-141162000D01*
G75*
G02*
X113768000Y-140912000I0J250000D01*
G01*
G37*
G36*
G01*
X115593000Y-140912000D02*
X115593000Y-140012000D01*
G75*
G02*
X115843000Y-139762000I250000J0D01*
G01*
X116368000Y-139762000D01*
G75*
G02*
X116618000Y-140012000I0J-250000D01*
G01*
X116618000Y-140912000D01*
G75*
G02*
X116368000Y-141162000I-250000J0D01*
G01*
X115843000Y-141162000D01*
G75*
G02*
X115593000Y-140912000I0J250000D01*
G01*
G37*
D14*
X138942000Y-122047000D03*
G36*
G01*
X134169000Y-101125000D02*
X134169000Y-102075000D01*
G75*
G02*
X133919000Y-102325000I-250000J0D01*
G01*
X133419000Y-102325000D01*
G75*
G02*
X133169000Y-102075000I0J250000D01*
G01*
X133169000Y-101125000D01*
G75*
G02*
X133419000Y-100875000I250000J0D01*
G01*
X133919000Y-100875000D01*
G75*
G02*
X134169000Y-101125000I0J-250000D01*
G01*
G37*
G36*
G01*
X132269000Y-101125000D02*
X132269000Y-102075000D01*
G75*
G02*
X132019000Y-102325000I-250000J0D01*
G01*
X131519000Y-102325000D01*
G75*
G02*
X131269000Y-102075000I0J250000D01*
G01*
X131269000Y-101125000D01*
G75*
G02*
X131519000Y-100875000I250000J0D01*
G01*
X132019000Y-100875000D01*
G75*
G02*
X132269000Y-101125000I0J-250000D01*
G01*
G37*
G36*
G01*
X161322000Y-140012000D02*
X161322000Y-140912000D01*
G75*
G02*
X161072000Y-141162000I-250000J0D01*
G01*
X160547000Y-141162000D01*
G75*
G02*
X160297000Y-140912000I0J250000D01*
G01*
X160297000Y-140012000D01*
G75*
G02*
X160547000Y-139762000I250000J0D01*
G01*
X161072000Y-139762000D01*
G75*
G02*
X161322000Y-140012000I0J-250000D01*
G01*
G37*
G36*
G01*
X159497000Y-140012000D02*
X159497000Y-140912000D01*
G75*
G02*
X159247000Y-141162000I-250000J0D01*
G01*
X158722000Y-141162000D01*
G75*
G02*
X158472000Y-140912000I0J250000D01*
G01*
X158472000Y-140012000D01*
G75*
G02*
X158722000Y-139762000I250000J0D01*
G01*
X159247000Y-139762000D01*
G75*
G02*
X159497000Y-140012000I0J-250000D01*
G01*
G37*
D17*
X168595000Y-108966000D03*
X171895000Y-108966000D03*
G36*
G01*
X114022000Y-53282000D02*
X114022000Y-52382000D01*
G75*
G02*
X114272000Y-52132000I250000J0D01*
G01*
X114797000Y-52132000D01*
G75*
G02*
X115047000Y-52382000I0J-250000D01*
G01*
X115047000Y-53282000D01*
G75*
G02*
X114797000Y-53532000I-250000J0D01*
G01*
X114272000Y-53532000D01*
G75*
G02*
X114022000Y-53282000I0J250000D01*
G01*
G37*
G36*
G01*
X115847000Y-53282000D02*
X115847000Y-52382000D01*
G75*
G02*
X116097000Y-52132000I250000J0D01*
G01*
X116622000Y-52132000D01*
G75*
G02*
X116872000Y-52382000I0J-250000D01*
G01*
X116872000Y-53282000D01*
G75*
G02*
X116622000Y-53532000I-250000J0D01*
G01*
X116097000Y-53532000D01*
G75*
G02*
X115847000Y-53282000I0J250000D01*
G01*
G37*
X168595000Y-104902000D03*
X171895000Y-104902000D03*
G36*
G01*
X183651000Y-108435000D02*
X183651000Y-108735000D01*
G75*
G02*
X183501000Y-108885000I-150000J0D01*
G01*
X181901000Y-108885000D01*
G75*
G02*
X181751000Y-108735000I0J150000D01*
G01*
X181751000Y-108435000D01*
G75*
G02*
X181901000Y-108285000I150000J0D01*
G01*
X183501000Y-108285000D01*
G75*
G02*
X183651000Y-108435000I0J-150000D01*
G01*
G37*
G36*
G01*
X183651000Y-109705000D02*
X183651000Y-110005000D01*
G75*
G02*
X183501000Y-110155000I-150000J0D01*
G01*
X181901000Y-110155000D01*
G75*
G02*
X181751000Y-110005000I0J150000D01*
G01*
X181751000Y-109705000D01*
G75*
G02*
X181901000Y-109555000I150000J0D01*
G01*
X183501000Y-109555000D01*
G75*
G02*
X183651000Y-109705000I0J-150000D01*
G01*
G37*
G36*
G01*
X183651000Y-110975000D02*
X183651000Y-111275000D01*
G75*
G02*
X183501000Y-111425000I-150000J0D01*
G01*
X181901000Y-111425000D01*
G75*
G02*
X181751000Y-111275000I0J150000D01*
G01*
X181751000Y-110975000D01*
G75*
G02*
X181901000Y-110825000I150000J0D01*
G01*
X183501000Y-110825000D01*
G75*
G02*
X183651000Y-110975000I0J-150000D01*
G01*
G37*
G36*
G01*
X183651000Y-112245000D02*
X183651000Y-112545000D01*
G75*
G02*
X183501000Y-112695000I-150000J0D01*
G01*
X181901000Y-112695000D01*
G75*
G02*
X181751000Y-112545000I0J150000D01*
G01*
X181751000Y-112245000D01*
G75*
G02*
X181901000Y-112095000I150000J0D01*
G01*
X183501000Y-112095000D01*
G75*
G02*
X183651000Y-112245000I0J-150000D01*
G01*
G37*
G36*
G01*
X176651000Y-112245000D02*
X176651000Y-112545000D01*
G75*
G02*
X176501000Y-112695000I-150000J0D01*
G01*
X174901000Y-112695000D01*
G75*
G02*
X174751000Y-112545000I0J150000D01*
G01*
X174751000Y-112245000D01*
G75*
G02*
X174901000Y-112095000I150000J0D01*
G01*
X176501000Y-112095000D01*
G75*
G02*
X176651000Y-112245000I0J-150000D01*
G01*
G37*
G36*
G01*
X176651000Y-110975000D02*
X176651000Y-111275000D01*
G75*
G02*
X176501000Y-111425000I-150000J0D01*
G01*
X174901000Y-111425000D01*
G75*
G02*
X174751000Y-111275000I0J150000D01*
G01*
X174751000Y-110975000D01*
G75*
G02*
X174901000Y-110825000I150000J0D01*
G01*
X176501000Y-110825000D01*
G75*
G02*
X176651000Y-110975000I0J-150000D01*
G01*
G37*
G36*
G01*
X176651000Y-109705000D02*
X176651000Y-110005000D01*
G75*
G02*
X176501000Y-110155000I-150000J0D01*
G01*
X174901000Y-110155000D01*
G75*
G02*
X174751000Y-110005000I0J150000D01*
G01*
X174751000Y-109705000D01*
G75*
G02*
X174901000Y-109555000I150000J0D01*
G01*
X176501000Y-109555000D01*
G75*
G02*
X176651000Y-109705000I0J-150000D01*
G01*
G37*
G36*
G01*
X176651000Y-108435000D02*
X176651000Y-108735000D01*
G75*
G02*
X176501000Y-108885000I-150000J0D01*
G01*
X174901000Y-108885000D01*
G75*
G02*
X174751000Y-108735000I0J150000D01*
G01*
X174751000Y-108435000D01*
G75*
G02*
X174901000Y-108285000I150000J0D01*
G01*
X176501000Y-108285000D01*
G75*
G02*
X176651000Y-108435000I0J-150000D01*
G01*
G37*
G36*
G01*
X70152000Y-126892000D02*
X71842000Y-126892000D01*
G75*
G02*
X72092000Y-127142000I0J-250000D01*
G01*
X72092000Y-128382000D01*
G75*
G02*
X71842000Y-128632000I-250000J0D01*
G01*
X70152000Y-128632000D01*
G75*
G02*
X69902000Y-128382000I0J250000D01*
G01*
X69902000Y-127142000D01*
G75*
G02*
X70152000Y-126892000I250000J0D01*
G01*
G37*
D19*
X70997000Y-130302000D03*
D15*
X220857000Y-49022000D03*
D16*
X218357000Y-49022000D03*
D17*
X148210000Y-99060000D03*
X151510000Y-99060000D03*
G36*
G01*
X144935000Y-99372000D02*
X144935000Y-100272000D01*
G75*
G02*
X144685000Y-100522000I-250000J0D01*
G01*
X144160000Y-100522000D01*
G75*
G02*
X143910000Y-100272000I0J250000D01*
G01*
X143910000Y-99372000D01*
G75*
G02*
X144160000Y-99122000I250000J0D01*
G01*
X144685000Y-99122000D01*
G75*
G02*
X144935000Y-99372000I0J-250000D01*
G01*
G37*
G36*
G01*
X143110000Y-99372000D02*
X143110000Y-100272000D01*
G75*
G02*
X142860000Y-100522000I-250000J0D01*
G01*
X142335000Y-100522000D01*
G75*
G02*
X142085000Y-100272000I0J250000D01*
G01*
X142085000Y-99372000D01*
G75*
G02*
X142335000Y-99122000I250000J0D01*
G01*
X142860000Y-99122000D01*
G75*
G02*
X143110000Y-99372000I0J-250000D01*
G01*
G37*
G36*
G01*
X171726000Y-46159000D02*
X171726000Y-47059000D01*
G75*
G02*
X171476000Y-47309000I-250000J0D01*
G01*
X170951000Y-47309000D01*
G75*
G02*
X170701000Y-47059000I0J250000D01*
G01*
X170701000Y-46159000D01*
G75*
G02*
X170951000Y-45909000I250000J0D01*
G01*
X171476000Y-45909000D01*
G75*
G02*
X171726000Y-46159000I0J-250000D01*
G01*
G37*
G36*
G01*
X169901000Y-46159000D02*
X169901000Y-47059000D01*
G75*
G02*
X169651000Y-47309000I-250000J0D01*
G01*
X169126000Y-47309000D01*
G75*
G02*
X168876000Y-47059000I0J250000D01*
G01*
X168876000Y-46159000D01*
G75*
G02*
X169126000Y-45909000I250000J0D01*
G01*
X169651000Y-45909000D01*
G75*
G02*
X169901000Y-46159000I0J-250000D01*
G01*
G37*
G36*
G01*
X161322000Y-96324000D02*
X161322000Y-97224000D01*
G75*
G02*
X161072000Y-97474000I-250000J0D01*
G01*
X160547000Y-97474000D01*
G75*
G02*
X160297000Y-97224000I0J250000D01*
G01*
X160297000Y-96324000D01*
G75*
G02*
X160547000Y-96074000I250000J0D01*
G01*
X161072000Y-96074000D01*
G75*
G02*
X161322000Y-96324000I0J-250000D01*
G01*
G37*
G36*
G01*
X159497000Y-96324000D02*
X159497000Y-97224000D01*
G75*
G02*
X159247000Y-97474000I-250000J0D01*
G01*
X158722000Y-97474000D01*
G75*
G02*
X158472000Y-97224000I0J250000D01*
G01*
X158472000Y-96324000D01*
G75*
G02*
X158722000Y-96074000I250000J0D01*
G01*
X159247000Y-96074000D01*
G75*
G02*
X159497000Y-96324000I0J-250000D01*
G01*
G37*
G36*
G01*
X186402000Y-63061000D02*
X186402000Y-62161000D01*
G75*
G02*
X186652000Y-61911000I250000J0D01*
G01*
X187177000Y-61911000D01*
G75*
G02*
X187427000Y-62161000I0J-250000D01*
G01*
X187427000Y-63061000D01*
G75*
G02*
X187177000Y-63311000I-250000J0D01*
G01*
X186652000Y-63311000D01*
G75*
G02*
X186402000Y-63061000I0J250000D01*
G01*
G37*
G36*
G01*
X188227000Y-63061000D02*
X188227000Y-62161000D01*
G75*
G02*
X188477000Y-61911000I250000J0D01*
G01*
X189002000Y-61911000D01*
G75*
G02*
X189252000Y-62161000I0J-250000D01*
G01*
X189252000Y-63061000D01*
G75*
G02*
X189002000Y-63311000I-250000J0D01*
G01*
X188477000Y-63311000D01*
G75*
G02*
X188227000Y-63061000I0J250000D01*
G01*
G37*
G36*
G01*
X192696000Y-107384000D02*
X192696000Y-106484000D01*
G75*
G02*
X192946000Y-106234000I250000J0D01*
G01*
X193471000Y-106234000D01*
G75*
G02*
X193721000Y-106484000I0J-250000D01*
G01*
X193721000Y-107384000D01*
G75*
G02*
X193471000Y-107634000I-250000J0D01*
G01*
X192946000Y-107634000D01*
G75*
G02*
X192696000Y-107384000I0J250000D01*
G01*
G37*
G36*
G01*
X194521000Y-107384000D02*
X194521000Y-106484000D01*
G75*
G02*
X194771000Y-106234000I250000J0D01*
G01*
X195296000Y-106234000D01*
G75*
G02*
X195546000Y-106484000I0J-250000D01*
G01*
X195546000Y-107384000D01*
G75*
G02*
X195296000Y-107634000I-250000J0D01*
G01*
X194771000Y-107634000D01*
G75*
G02*
X194521000Y-107384000I0J250000D01*
G01*
G37*
G36*
G01*
X139390000Y-108435000D02*
X139390000Y-108735000D01*
G75*
G02*
X139240000Y-108885000I-150000J0D01*
G01*
X137640000Y-108885000D01*
G75*
G02*
X137490000Y-108735000I0J150000D01*
G01*
X137490000Y-108435000D01*
G75*
G02*
X137640000Y-108285000I150000J0D01*
G01*
X139240000Y-108285000D01*
G75*
G02*
X139390000Y-108435000I0J-150000D01*
G01*
G37*
G36*
G01*
X139390000Y-109705000D02*
X139390000Y-110005000D01*
G75*
G02*
X139240000Y-110155000I-150000J0D01*
G01*
X137640000Y-110155000D01*
G75*
G02*
X137490000Y-110005000I0J150000D01*
G01*
X137490000Y-109705000D01*
G75*
G02*
X137640000Y-109555000I150000J0D01*
G01*
X139240000Y-109555000D01*
G75*
G02*
X139390000Y-109705000I0J-150000D01*
G01*
G37*
G36*
G01*
X139390000Y-110975000D02*
X139390000Y-111275000D01*
G75*
G02*
X139240000Y-111425000I-150000J0D01*
G01*
X137640000Y-111425000D01*
G75*
G02*
X137490000Y-111275000I0J150000D01*
G01*
X137490000Y-110975000D01*
G75*
G02*
X137640000Y-110825000I150000J0D01*
G01*
X139240000Y-110825000D01*
G75*
G02*
X139390000Y-110975000I0J-150000D01*
G01*
G37*
G36*
G01*
X139390000Y-112245000D02*
X139390000Y-112545000D01*
G75*
G02*
X139240000Y-112695000I-150000J0D01*
G01*
X137640000Y-112695000D01*
G75*
G02*
X137490000Y-112545000I0J150000D01*
G01*
X137490000Y-112245000D01*
G75*
G02*
X137640000Y-112095000I150000J0D01*
G01*
X139240000Y-112095000D01*
G75*
G02*
X139390000Y-112245000I0J-150000D01*
G01*
G37*
G36*
G01*
X132390000Y-112245000D02*
X132390000Y-112545000D01*
G75*
G02*
X132240000Y-112695000I-150000J0D01*
G01*
X130640000Y-112695000D01*
G75*
G02*
X130490000Y-112545000I0J150000D01*
G01*
X130490000Y-112245000D01*
G75*
G02*
X130640000Y-112095000I150000J0D01*
G01*
X132240000Y-112095000D01*
G75*
G02*
X132390000Y-112245000I0J-150000D01*
G01*
G37*
G36*
G01*
X132390000Y-110975000D02*
X132390000Y-111275000D01*
G75*
G02*
X132240000Y-111425000I-150000J0D01*
G01*
X130640000Y-111425000D01*
G75*
G02*
X130490000Y-111275000I0J150000D01*
G01*
X130490000Y-110975000D01*
G75*
G02*
X130640000Y-110825000I150000J0D01*
G01*
X132240000Y-110825000D01*
G75*
G02*
X132390000Y-110975000I0J-150000D01*
G01*
G37*
G36*
G01*
X132390000Y-109705000D02*
X132390000Y-110005000D01*
G75*
G02*
X132240000Y-110155000I-150000J0D01*
G01*
X130640000Y-110155000D01*
G75*
G02*
X130490000Y-110005000I0J150000D01*
G01*
X130490000Y-109705000D01*
G75*
G02*
X130640000Y-109555000I150000J0D01*
G01*
X132240000Y-109555000D01*
G75*
G02*
X132390000Y-109705000I0J-150000D01*
G01*
G37*
G36*
G01*
X132390000Y-108435000D02*
X132390000Y-108735000D01*
G75*
G02*
X132240000Y-108885000I-150000J0D01*
G01*
X130640000Y-108885000D01*
G75*
G02*
X130490000Y-108735000I0J150000D01*
G01*
X130490000Y-108435000D01*
G75*
G02*
X130640000Y-108285000I150000J0D01*
G01*
X132240000Y-108285000D01*
G75*
G02*
X132390000Y-108435000I0J-150000D01*
G01*
G37*
G36*
G01*
X189252000Y-55049000D02*
X189252000Y-55949000D01*
G75*
G02*
X189002000Y-56199000I-250000J0D01*
G01*
X188477000Y-56199000D01*
G75*
G02*
X188227000Y-55949000I0J250000D01*
G01*
X188227000Y-55049000D01*
G75*
G02*
X188477000Y-54799000I250000J0D01*
G01*
X189002000Y-54799000D01*
G75*
G02*
X189252000Y-55049000I0J-250000D01*
G01*
G37*
G36*
G01*
X187427000Y-55049000D02*
X187427000Y-55949000D01*
G75*
G02*
X187177000Y-56199000I-250000J0D01*
G01*
X186652000Y-56199000D01*
G75*
G02*
X186402000Y-55949000I0J250000D01*
G01*
X186402000Y-55049000D01*
G75*
G02*
X186652000Y-54799000I250000J0D01*
G01*
X187177000Y-54799000D01*
G75*
G02*
X187427000Y-55049000I0J-250000D01*
G01*
G37*
G36*
G01*
X195852000Y-66083000D02*
X195852000Y-66383000D01*
G75*
G02*
X195702000Y-66533000I-150000J0D01*
G01*
X194527000Y-66533000D01*
G75*
G02*
X194377000Y-66383000I0J150000D01*
G01*
X194377000Y-66083000D01*
G75*
G02*
X194527000Y-65933000I150000J0D01*
G01*
X195702000Y-65933000D01*
G75*
G02*
X195852000Y-66083000I0J-150000D01*
G01*
G37*
G36*
G01*
X195852000Y-67983000D02*
X195852000Y-68283000D01*
G75*
G02*
X195702000Y-68433000I-150000J0D01*
G01*
X194527000Y-68433000D01*
G75*
G02*
X194377000Y-68283000I0J150000D01*
G01*
X194377000Y-67983000D01*
G75*
G02*
X194527000Y-67833000I150000J0D01*
G01*
X195702000Y-67833000D01*
G75*
G02*
X195852000Y-67983000I0J-150000D01*
G01*
G37*
G36*
G01*
X193977000Y-67033000D02*
X193977000Y-67333000D01*
G75*
G02*
X193827000Y-67483000I-150000J0D01*
G01*
X192652000Y-67483000D01*
G75*
G02*
X192502000Y-67333000I0J150000D01*
G01*
X192502000Y-67033000D01*
G75*
G02*
X192652000Y-66883000I150000J0D01*
G01*
X193827000Y-66883000D01*
G75*
G02*
X193977000Y-67033000I0J-150000D01*
G01*
G37*
G36*
G01*
X142085000Y-116020000D02*
X142085000Y-115120000D01*
G75*
G02*
X142335000Y-114870000I250000J0D01*
G01*
X142860000Y-114870000D01*
G75*
G02*
X143110000Y-115120000I0J-250000D01*
G01*
X143110000Y-116020000D01*
G75*
G02*
X142860000Y-116270000I-250000J0D01*
G01*
X142335000Y-116270000D01*
G75*
G02*
X142085000Y-116020000I0J250000D01*
G01*
G37*
G36*
G01*
X143910000Y-116020000D02*
X143910000Y-115120000D01*
G75*
G02*
X144160000Y-114870000I250000J0D01*
G01*
X144685000Y-114870000D01*
G75*
G02*
X144935000Y-115120000I0J-250000D01*
G01*
X144935000Y-116020000D01*
G75*
G02*
X144685000Y-116270000I-250000J0D01*
G01*
X144160000Y-116270000D01*
G75*
G02*
X143910000Y-116020000I0J250000D01*
G01*
G37*
G36*
G01*
X178365000Y-101379000D02*
X178365000Y-102329000D01*
G75*
G02*
X178115000Y-102579000I-250000J0D01*
G01*
X177615000Y-102579000D01*
G75*
G02*
X177365000Y-102329000I0J250000D01*
G01*
X177365000Y-101379000D01*
G75*
G02*
X177615000Y-101129000I250000J0D01*
G01*
X178115000Y-101129000D01*
G75*
G02*
X178365000Y-101379000I0J-250000D01*
G01*
G37*
G36*
G01*
X176465000Y-101379000D02*
X176465000Y-102329000D01*
G75*
G02*
X176215000Y-102579000I-250000J0D01*
G01*
X175715000Y-102579000D01*
G75*
G02*
X175465000Y-102329000I0J250000D01*
G01*
X175465000Y-101379000D01*
G75*
G02*
X175715000Y-101129000I250000J0D01*
G01*
X176215000Y-101129000D01*
G75*
G02*
X176465000Y-101379000I0J-250000D01*
G01*
G37*
D14*
X163707000Y-115697000D03*
G36*
G01*
X189446000Y-94404000D02*
X189446000Y-94704000D01*
G75*
G02*
X189296000Y-94854000I-150000J0D01*
G01*
X188121000Y-94854000D01*
G75*
G02*
X187971000Y-94704000I0J150000D01*
G01*
X187971000Y-94404000D01*
G75*
G02*
X188121000Y-94254000I150000J0D01*
G01*
X189296000Y-94254000D01*
G75*
G02*
X189446000Y-94404000I0J-150000D01*
G01*
G37*
G36*
G01*
X189446000Y-96304000D02*
X189446000Y-96604000D01*
G75*
G02*
X189296000Y-96754000I-150000J0D01*
G01*
X188121000Y-96754000D01*
G75*
G02*
X187971000Y-96604000I0J150000D01*
G01*
X187971000Y-96304000D01*
G75*
G02*
X188121000Y-96154000I150000J0D01*
G01*
X189296000Y-96154000D01*
G75*
G02*
X189446000Y-96304000I0J-150000D01*
G01*
G37*
G36*
G01*
X187571000Y-95354000D02*
X187571000Y-95654000D01*
G75*
G02*
X187421000Y-95804000I-150000J0D01*
G01*
X186246000Y-95804000D01*
G75*
G02*
X186096000Y-95654000I0J150000D01*
G01*
X186096000Y-95354000D01*
G75*
G02*
X186246000Y-95204000I150000J0D01*
G01*
X187421000Y-95204000D01*
G75*
G02*
X187571000Y-95354000I0J-150000D01*
G01*
G37*
G36*
G01*
X182937000Y-116111000D02*
X182937000Y-117061000D01*
G75*
G02*
X182687000Y-117311000I-250000J0D01*
G01*
X182187000Y-117311000D01*
G75*
G02*
X181937000Y-117061000I0J250000D01*
G01*
X181937000Y-116111000D01*
G75*
G02*
X182187000Y-115861000I250000J0D01*
G01*
X182687000Y-115861000D01*
G75*
G02*
X182937000Y-116111000I0J-250000D01*
G01*
G37*
G36*
G01*
X181037000Y-116111000D02*
X181037000Y-117061000D01*
G75*
G02*
X180787000Y-117311000I-250000J0D01*
G01*
X180287000Y-117311000D01*
G75*
G02*
X180037000Y-117061000I0J250000D01*
G01*
X180037000Y-116111000D01*
G75*
G02*
X180287000Y-115861000I250000J0D01*
G01*
X180787000Y-115861000D01*
G75*
G02*
X181037000Y-116111000I0J-250000D01*
G01*
G37*
G36*
G01*
X148435000Y-107384000D02*
X148435000Y-106484000D01*
G75*
G02*
X148685000Y-106234000I250000J0D01*
G01*
X149210000Y-106234000D01*
G75*
G02*
X149460000Y-106484000I0J-250000D01*
G01*
X149460000Y-107384000D01*
G75*
G02*
X149210000Y-107634000I-250000J0D01*
G01*
X148685000Y-107634000D01*
G75*
G02*
X148435000Y-107384000I0J250000D01*
G01*
G37*
G36*
G01*
X150260000Y-107384000D02*
X150260000Y-106484000D01*
G75*
G02*
X150510000Y-106234000I250000J0D01*
G01*
X151035000Y-106234000D01*
G75*
G02*
X151285000Y-106484000I0J-250000D01*
G01*
X151285000Y-107384000D01*
G75*
G02*
X151035000Y-107634000I-250000J0D01*
G01*
X150510000Y-107634000D01*
G75*
G02*
X150260000Y-107384000I0J250000D01*
G01*
G37*
D17*
X192527000Y-54737000D03*
X195827000Y-54737000D03*
X171951000Y-68707000D03*
X168651000Y-68707000D03*
G36*
G01*
X195602000Y-70797000D02*
X195602000Y-71697000D01*
G75*
G02*
X195352000Y-71947000I-250000J0D01*
G01*
X194827000Y-71947000D01*
G75*
G02*
X194577000Y-71697000I0J250000D01*
G01*
X194577000Y-70797000D01*
G75*
G02*
X194827000Y-70547000I250000J0D01*
G01*
X195352000Y-70547000D01*
G75*
G02*
X195602000Y-70797000I0J-250000D01*
G01*
G37*
G36*
G01*
X193777000Y-70797000D02*
X193777000Y-71697000D01*
G75*
G02*
X193527000Y-71947000I-250000J0D01*
G01*
X193002000Y-71947000D01*
G75*
G02*
X192752000Y-71697000I0J250000D01*
G01*
X192752000Y-70797000D01*
G75*
G02*
X193002000Y-70547000I250000J0D01*
G01*
X193527000Y-70547000D01*
G75*
G02*
X193777000Y-70797000I0J-250000D01*
G01*
G37*
G36*
G01*
X186402000Y-71697000D02*
X186402000Y-70797000D01*
G75*
G02*
X186652000Y-70547000I250000J0D01*
G01*
X187177000Y-70547000D01*
G75*
G02*
X187427000Y-70797000I0J-250000D01*
G01*
X187427000Y-71697000D01*
G75*
G02*
X187177000Y-71947000I-250000J0D01*
G01*
X186652000Y-71947000D01*
G75*
G02*
X186402000Y-71697000I0J250000D01*
G01*
G37*
G36*
G01*
X188227000Y-71697000D02*
X188227000Y-70797000D01*
G75*
G02*
X188477000Y-70547000I250000J0D01*
G01*
X189002000Y-70547000D01*
G75*
G02*
X189252000Y-70797000I0J-250000D01*
G01*
X189252000Y-71697000D01*
G75*
G02*
X189002000Y-71947000I-250000J0D01*
G01*
X188477000Y-71947000D01*
G75*
G02*
X188227000Y-71697000I0J250000D01*
G01*
G37*
G36*
G01*
X69572000Y-140912000D02*
X69572000Y-140012000D01*
G75*
G02*
X69822000Y-139762000I250000J0D01*
G01*
X70347000Y-139762000D01*
G75*
G02*
X70597000Y-140012000I0J-250000D01*
G01*
X70597000Y-140912000D01*
G75*
G02*
X70347000Y-141162000I-250000J0D01*
G01*
X69822000Y-141162000D01*
G75*
G02*
X69572000Y-140912000I0J250000D01*
G01*
G37*
G36*
G01*
X71397000Y-140912000D02*
X71397000Y-140012000D01*
G75*
G02*
X71647000Y-139762000I250000J0D01*
G01*
X72172000Y-139762000D01*
G75*
G02*
X72422000Y-140012000I0J-250000D01*
G01*
X72422000Y-140912000D01*
G75*
G02*
X72172000Y-141162000I-250000J0D01*
G01*
X71647000Y-141162000D01*
G75*
G02*
X71397000Y-140912000I0J250000D01*
G01*
G37*
G36*
G01*
X144935000Y-90736000D02*
X144935000Y-91636000D01*
G75*
G02*
X144685000Y-91886000I-250000J0D01*
G01*
X144160000Y-91886000D01*
G75*
G02*
X143910000Y-91636000I0J250000D01*
G01*
X143910000Y-90736000D01*
G75*
G02*
X144160000Y-90486000I250000J0D01*
G01*
X144685000Y-90486000D01*
G75*
G02*
X144935000Y-90736000I0J-250000D01*
G01*
G37*
G36*
G01*
X143110000Y-90736000D02*
X143110000Y-91636000D01*
G75*
G02*
X142860000Y-91886000I-250000J0D01*
G01*
X142335000Y-91886000D01*
G75*
G02*
X142085000Y-91636000I0J250000D01*
G01*
X142085000Y-90736000D01*
G75*
G02*
X142335000Y-90486000I250000J0D01*
G01*
X142860000Y-90486000D01*
G75*
G02*
X143110000Y-90736000I0J-250000D01*
G01*
G37*
G36*
G01*
X145185000Y-94404000D02*
X145185000Y-94704000D01*
G75*
G02*
X145035000Y-94854000I-150000J0D01*
G01*
X143860000Y-94854000D01*
G75*
G02*
X143710000Y-94704000I0J150000D01*
G01*
X143710000Y-94404000D01*
G75*
G02*
X143860000Y-94254000I150000J0D01*
G01*
X145035000Y-94254000D01*
G75*
G02*
X145185000Y-94404000I0J-150000D01*
G01*
G37*
G36*
G01*
X145185000Y-96304000D02*
X145185000Y-96604000D01*
G75*
G02*
X145035000Y-96754000I-150000J0D01*
G01*
X143860000Y-96754000D01*
G75*
G02*
X143710000Y-96604000I0J150000D01*
G01*
X143710000Y-96304000D01*
G75*
G02*
X143860000Y-96154000I150000J0D01*
G01*
X145035000Y-96154000D01*
G75*
G02*
X145185000Y-96304000I0J-150000D01*
G01*
G37*
G36*
G01*
X143310000Y-95354000D02*
X143310000Y-95654000D01*
G75*
G02*
X143160000Y-95804000I-150000J0D01*
G01*
X141985000Y-95804000D01*
G75*
G02*
X141835000Y-95654000I0J150000D01*
G01*
X141835000Y-95354000D01*
G75*
G02*
X141985000Y-95204000I150000J0D01*
G01*
X143160000Y-95204000D01*
G75*
G02*
X143310000Y-95354000I0J-150000D01*
G01*
G37*
G36*
G01*
X201652000Y-106622000D02*
X201652000Y-105722000D01*
G75*
G02*
X201902000Y-105472000I250000J0D01*
G01*
X202427000Y-105472000D01*
G75*
G02*
X202677000Y-105722000I0J-250000D01*
G01*
X202677000Y-106622000D01*
G75*
G02*
X202427000Y-106872000I-250000J0D01*
G01*
X201902000Y-106872000D01*
G75*
G02*
X201652000Y-106622000I0J250000D01*
G01*
G37*
G36*
G01*
X203477000Y-106622000D02*
X203477000Y-105722000D01*
G75*
G02*
X203727000Y-105472000I250000J0D01*
G01*
X204252000Y-105472000D01*
G75*
G02*
X204502000Y-105722000I0J-250000D01*
G01*
X204502000Y-106622000D01*
G75*
G02*
X204252000Y-106872000I-250000J0D01*
G01*
X203727000Y-106872000D01*
G75*
G02*
X203477000Y-106622000I0J250000D01*
G01*
G37*
G36*
G01*
X183707000Y-64112000D02*
X183707000Y-64412000D01*
G75*
G02*
X183557000Y-64562000I-150000J0D01*
G01*
X181957000Y-64562000D01*
G75*
G02*
X181807000Y-64412000I0J150000D01*
G01*
X181807000Y-64112000D01*
G75*
G02*
X181957000Y-63962000I150000J0D01*
G01*
X183557000Y-63962000D01*
G75*
G02*
X183707000Y-64112000I0J-150000D01*
G01*
G37*
G36*
G01*
X183707000Y-65382000D02*
X183707000Y-65682000D01*
G75*
G02*
X183557000Y-65832000I-150000J0D01*
G01*
X181957000Y-65832000D01*
G75*
G02*
X181807000Y-65682000I0J150000D01*
G01*
X181807000Y-65382000D01*
G75*
G02*
X181957000Y-65232000I150000J0D01*
G01*
X183557000Y-65232000D01*
G75*
G02*
X183707000Y-65382000I0J-150000D01*
G01*
G37*
G36*
G01*
X183707000Y-66652000D02*
X183707000Y-66952000D01*
G75*
G02*
X183557000Y-67102000I-150000J0D01*
G01*
X181957000Y-67102000D01*
G75*
G02*
X181807000Y-66952000I0J150000D01*
G01*
X181807000Y-66652000D01*
G75*
G02*
X181957000Y-66502000I150000J0D01*
G01*
X183557000Y-66502000D01*
G75*
G02*
X183707000Y-66652000I0J-150000D01*
G01*
G37*
G36*
G01*
X183707000Y-67922000D02*
X183707000Y-68222000D01*
G75*
G02*
X183557000Y-68372000I-150000J0D01*
G01*
X181957000Y-68372000D01*
G75*
G02*
X181807000Y-68222000I0J150000D01*
G01*
X181807000Y-67922000D01*
G75*
G02*
X181957000Y-67772000I150000J0D01*
G01*
X183557000Y-67772000D01*
G75*
G02*
X183707000Y-67922000I0J-150000D01*
G01*
G37*
G36*
G01*
X176707000Y-67922000D02*
X176707000Y-68222000D01*
G75*
G02*
X176557000Y-68372000I-150000J0D01*
G01*
X174957000Y-68372000D01*
G75*
G02*
X174807000Y-68222000I0J150000D01*
G01*
X174807000Y-67922000D01*
G75*
G02*
X174957000Y-67772000I150000J0D01*
G01*
X176557000Y-67772000D01*
G75*
G02*
X176707000Y-67922000I0J-150000D01*
G01*
G37*
G36*
G01*
X176707000Y-66652000D02*
X176707000Y-66952000D01*
G75*
G02*
X176557000Y-67102000I-150000J0D01*
G01*
X174957000Y-67102000D01*
G75*
G02*
X174807000Y-66952000I0J150000D01*
G01*
X174807000Y-66652000D01*
G75*
G02*
X174957000Y-66502000I150000J0D01*
G01*
X176557000Y-66502000D01*
G75*
G02*
X176707000Y-66652000I0J-150000D01*
G01*
G37*
G36*
G01*
X176707000Y-65382000D02*
X176707000Y-65682000D01*
G75*
G02*
X176557000Y-65832000I-150000J0D01*
G01*
X174957000Y-65832000D01*
G75*
G02*
X174807000Y-65682000I0J150000D01*
G01*
X174807000Y-65382000D01*
G75*
G02*
X174957000Y-65232000I150000J0D01*
G01*
X176557000Y-65232000D01*
G75*
G02*
X176707000Y-65382000I0J-150000D01*
G01*
G37*
G36*
G01*
X176707000Y-64112000D02*
X176707000Y-64412000D01*
G75*
G02*
X176557000Y-64562000I-150000J0D01*
G01*
X174957000Y-64562000D01*
G75*
G02*
X174807000Y-64412000I0J150000D01*
G01*
X174807000Y-64112000D01*
G75*
G02*
X174957000Y-63962000I150000J0D01*
G01*
X176557000Y-63962000D01*
G75*
G02*
X176707000Y-64112000I0J-150000D01*
G01*
G37*
X168651000Y-64643000D03*
X171951000Y-64643000D03*
G36*
G01*
X140612000Y-140672000D02*
X140612000Y-138982000D01*
G75*
G02*
X140862000Y-138732000I250000J0D01*
G01*
X142102000Y-138732000D01*
G75*
G02*
X142352000Y-138982000I0J-250000D01*
G01*
X142352000Y-140672000D01*
G75*
G02*
X142102000Y-140922000I-250000J0D01*
G01*
X140862000Y-140922000D01*
G75*
G02*
X140612000Y-140672000I0J250000D01*
G01*
G37*
D20*
X144022000Y-139827000D03*
X146562000Y-139827000D03*
X149102000Y-139827000D03*
X151642000Y-139827000D03*
G36*
G01*
X142085000Y-107384000D02*
X142085000Y-106484000D01*
G75*
G02*
X142335000Y-106234000I250000J0D01*
G01*
X142860000Y-106234000D01*
G75*
G02*
X143110000Y-106484000I0J-250000D01*
G01*
X143110000Y-107384000D01*
G75*
G02*
X142860000Y-107634000I-250000J0D01*
G01*
X142335000Y-107634000D01*
G75*
G02*
X142085000Y-107384000I0J250000D01*
G01*
G37*
G36*
G01*
X143910000Y-107384000D02*
X143910000Y-106484000D01*
G75*
G02*
X144160000Y-106234000I250000J0D01*
G01*
X144685000Y-106234000D01*
G75*
G02*
X144935000Y-106484000I0J-250000D01*
G01*
X144935000Y-107384000D01*
G75*
G02*
X144685000Y-107634000I-250000J0D01*
G01*
X144160000Y-107634000D01*
G75*
G02*
X143910000Y-107384000I0J250000D01*
G01*
G37*
D17*
X124334000Y-108966000D03*
X127634000Y-108966000D03*
G36*
G01*
X189446000Y-110406000D02*
X189446000Y-110706000D01*
G75*
G02*
X189296000Y-110856000I-150000J0D01*
G01*
X188121000Y-110856000D01*
G75*
G02*
X187971000Y-110706000I0J150000D01*
G01*
X187971000Y-110406000D01*
G75*
G02*
X188121000Y-110256000I150000J0D01*
G01*
X189296000Y-110256000D01*
G75*
G02*
X189446000Y-110406000I0J-150000D01*
G01*
G37*
G36*
G01*
X189446000Y-112306000D02*
X189446000Y-112606000D01*
G75*
G02*
X189296000Y-112756000I-150000J0D01*
G01*
X188121000Y-112756000D01*
G75*
G02*
X187971000Y-112606000I0J150000D01*
G01*
X187971000Y-112306000D01*
G75*
G02*
X188121000Y-112156000I150000J0D01*
G01*
X189296000Y-112156000D01*
G75*
G02*
X189446000Y-112306000I0J-150000D01*
G01*
G37*
G36*
G01*
X187571000Y-111356000D02*
X187571000Y-111656000D01*
G75*
G02*
X187421000Y-111806000I-150000J0D01*
G01*
X186246000Y-111806000D01*
G75*
G02*
X186096000Y-111656000I0J150000D01*
G01*
X186096000Y-111356000D01*
G75*
G02*
X186246000Y-111206000I150000J0D01*
G01*
X187421000Y-111206000D01*
G75*
G02*
X187571000Y-111356000I0J-150000D01*
G01*
G37*
X168651000Y-60579000D03*
X171951000Y-60579000D03*
G36*
G01*
X189196000Y-90736000D02*
X189196000Y-91636000D01*
G75*
G02*
X188946000Y-91886000I-250000J0D01*
G01*
X188421000Y-91886000D01*
G75*
G02*
X188171000Y-91636000I0J250000D01*
G01*
X188171000Y-90736000D01*
G75*
G02*
X188421000Y-90486000I250000J0D01*
G01*
X188946000Y-90486000D01*
G75*
G02*
X189196000Y-90736000I0J-250000D01*
G01*
G37*
G36*
G01*
X187371000Y-90736000D02*
X187371000Y-91636000D01*
G75*
G02*
X187121000Y-91886000I-250000J0D01*
G01*
X186596000Y-91886000D01*
G75*
G02*
X186346000Y-91636000I0J250000D01*
G01*
X186346000Y-90736000D01*
G75*
G02*
X186596000Y-90486000I250000J0D01*
G01*
X187121000Y-90486000D01*
G75*
G02*
X187371000Y-90736000I0J-250000D01*
G01*
G37*
G36*
G01*
X189502000Y-50081000D02*
X189502000Y-50381000D01*
G75*
G02*
X189352000Y-50531000I-150000J0D01*
G01*
X188177000Y-50531000D01*
G75*
G02*
X188027000Y-50381000I0J150000D01*
G01*
X188027000Y-50081000D01*
G75*
G02*
X188177000Y-49931000I150000J0D01*
G01*
X189352000Y-49931000D01*
G75*
G02*
X189502000Y-50081000I0J-150000D01*
G01*
G37*
G36*
G01*
X189502000Y-51981000D02*
X189502000Y-52281000D01*
G75*
G02*
X189352000Y-52431000I-150000J0D01*
G01*
X188177000Y-52431000D01*
G75*
G02*
X188027000Y-52281000I0J150000D01*
G01*
X188027000Y-51981000D01*
G75*
G02*
X188177000Y-51831000I150000J0D01*
G01*
X189352000Y-51831000D01*
G75*
G02*
X189502000Y-51981000I0J-150000D01*
G01*
G37*
G36*
G01*
X187627000Y-51031000D02*
X187627000Y-51331000D01*
G75*
G02*
X187477000Y-51481000I-150000J0D01*
G01*
X186302000Y-51481000D01*
G75*
G02*
X186152000Y-51331000I0J150000D01*
G01*
X186152000Y-51031000D01*
G75*
G02*
X186302000Y-50881000I150000J0D01*
G01*
X187477000Y-50881000D01*
G75*
G02*
X187627000Y-51031000I0J-150000D01*
G01*
G37*
D15*
X180177000Y-124587000D03*
D16*
X177677000Y-124587000D03*
D15*
X171887880Y-75057000D03*
D16*
X169387880Y-75057000D03*
G36*
G01*
X127409000Y-90482000D02*
X127409000Y-91382000D01*
G75*
G02*
X127159000Y-91632000I-250000J0D01*
G01*
X126634000Y-91632000D01*
G75*
G02*
X126384000Y-91382000I0J250000D01*
G01*
X126384000Y-90482000D01*
G75*
G02*
X126634000Y-90232000I250000J0D01*
G01*
X127159000Y-90232000D01*
G75*
G02*
X127409000Y-90482000I0J-250000D01*
G01*
G37*
G36*
G01*
X125584000Y-90482000D02*
X125584000Y-91382000D01*
G75*
G02*
X125334000Y-91632000I-250000J0D01*
G01*
X124809000Y-91632000D01*
G75*
G02*
X124559000Y-91382000I0J250000D01*
G01*
X124559000Y-90482000D01*
G75*
G02*
X124809000Y-90232000I250000J0D01*
G01*
X125334000Y-90232000D01*
G75*
G02*
X125584000Y-90482000I0J-250000D01*
G01*
G37*
G36*
G01*
X189196000Y-99372000D02*
X189196000Y-100272000D01*
G75*
G02*
X188946000Y-100522000I-250000J0D01*
G01*
X188421000Y-100522000D01*
G75*
G02*
X188171000Y-100272000I0J250000D01*
G01*
X188171000Y-99372000D01*
G75*
G02*
X188421000Y-99122000I250000J0D01*
G01*
X188946000Y-99122000D01*
G75*
G02*
X189196000Y-99372000I0J-250000D01*
G01*
G37*
G36*
G01*
X187371000Y-99372000D02*
X187371000Y-100272000D01*
G75*
G02*
X187121000Y-100522000I-250000J0D01*
G01*
X186596000Y-100522000D01*
G75*
G02*
X186346000Y-100272000I0J250000D01*
G01*
X186346000Y-99372000D01*
G75*
G02*
X186596000Y-99122000I250000J0D01*
G01*
X187121000Y-99122000D01*
G75*
G02*
X187371000Y-99372000I0J-250000D01*
G01*
G37*
G36*
G01*
X182707000Y-50142000D02*
X182707000Y-50442000D01*
G75*
G02*
X182557000Y-50592000I-150000J0D01*
G01*
X180907000Y-50592000D01*
G75*
G02*
X180757000Y-50442000I0J150000D01*
G01*
X180757000Y-50142000D01*
G75*
G02*
X180907000Y-49992000I150000J0D01*
G01*
X182557000Y-49992000D01*
G75*
G02*
X182707000Y-50142000I0J-150000D01*
G01*
G37*
G36*
G01*
X182707000Y-51412000D02*
X182707000Y-51712000D01*
G75*
G02*
X182557000Y-51862000I-150000J0D01*
G01*
X180907000Y-51862000D01*
G75*
G02*
X180757000Y-51712000I0J150000D01*
G01*
X180757000Y-51412000D01*
G75*
G02*
X180907000Y-51262000I150000J0D01*
G01*
X182557000Y-51262000D01*
G75*
G02*
X182707000Y-51412000I0J-150000D01*
G01*
G37*
G36*
G01*
X182707000Y-52682000D02*
X182707000Y-52982000D01*
G75*
G02*
X182557000Y-53132000I-150000J0D01*
G01*
X180907000Y-53132000D01*
G75*
G02*
X180757000Y-52982000I0J150000D01*
G01*
X180757000Y-52682000D01*
G75*
G02*
X180907000Y-52532000I150000J0D01*
G01*
X182557000Y-52532000D01*
G75*
G02*
X182707000Y-52682000I0J-150000D01*
G01*
G37*
G36*
G01*
X182707000Y-53952000D02*
X182707000Y-54252000D01*
G75*
G02*
X182557000Y-54402000I-150000J0D01*
G01*
X180907000Y-54402000D01*
G75*
G02*
X180757000Y-54252000I0J150000D01*
G01*
X180757000Y-53952000D01*
G75*
G02*
X180907000Y-53802000I150000J0D01*
G01*
X182557000Y-53802000D01*
G75*
G02*
X182707000Y-53952000I0J-150000D01*
G01*
G37*
G36*
G01*
X177757000Y-53952000D02*
X177757000Y-54252000D01*
G75*
G02*
X177607000Y-54402000I-150000J0D01*
G01*
X175957000Y-54402000D01*
G75*
G02*
X175807000Y-54252000I0J150000D01*
G01*
X175807000Y-53952000D01*
G75*
G02*
X175957000Y-53802000I150000J0D01*
G01*
X177607000Y-53802000D01*
G75*
G02*
X177757000Y-53952000I0J-150000D01*
G01*
G37*
G36*
G01*
X177757000Y-52682000D02*
X177757000Y-52982000D01*
G75*
G02*
X177607000Y-53132000I-150000J0D01*
G01*
X175957000Y-53132000D01*
G75*
G02*
X175807000Y-52982000I0J150000D01*
G01*
X175807000Y-52682000D01*
G75*
G02*
X175957000Y-52532000I150000J0D01*
G01*
X177607000Y-52532000D01*
G75*
G02*
X177757000Y-52682000I0J-150000D01*
G01*
G37*
G36*
G01*
X177757000Y-51412000D02*
X177757000Y-51712000D01*
G75*
G02*
X177607000Y-51862000I-150000J0D01*
G01*
X175957000Y-51862000D01*
G75*
G02*
X175807000Y-51712000I0J150000D01*
G01*
X175807000Y-51412000D01*
G75*
G02*
X175957000Y-51262000I150000J0D01*
G01*
X177607000Y-51262000D01*
G75*
G02*
X177757000Y-51412000I0J-150000D01*
G01*
G37*
G36*
G01*
X177757000Y-50142000D02*
X177757000Y-50442000D01*
G75*
G02*
X177607000Y-50592000I-150000J0D01*
G01*
X175957000Y-50592000D01*
G75*
G02*
X175807000Y-50442000I0J150000D01*
G01*
X175807000Y-50142000D01*
G75*
G02*
X175957000Y-49992000I150000J0D01*
G01*
X177607000Y-49992000D01*
G75*
G02*
X177757000Y-50142000I0J-150000D01*
G01*
G37*
G36*
G01*
X138390000Y-94465000D02*
X138390000Y-94765000D01*
G75*
G02*
X138240000Y-94915000I-150000J0D01*
G01*
X136590000Y-94915000D01*
G75*
G02*
X136440000Y-94765000I0J150000D01*
G01*
X136440000Y-94465000D01*
G75*
G02*
X136590000Y-94315000I150000J0D01*
G01*
X138240000Y-94315000D01*
G75*
G02*
X138390000Y-94465000I0J-150000D01*
G01*
G37*
G36*
G01*
X138390000Y-95735000D02*
X138390000Y-96035000D01*
G75*
G02*
X138240000Y-96185000I-150000J0D01*
G01*
X136590000Y-96185000D01*
G75*
G02*
X136440000Y-96035000I0J150000D01*
G01*
X136440000Y-95735000D01*
G75*
G02*
X136590000Y-95585000I150000J0D01*
G01*
X138240000Y-95585000D01*
G75*
G02*
X138390000Y-95735000I0J-150000D01*
G01*
G37*
G36*
G01*
X138390000Y-97005000D02*
X138390000Y-97305000D01*
G75*
G02*
X138240000Y-97455000I-150000J0D01*
G01*
X136590000Y-97455000D01*
G75*
G02*
X136440000Y-97305000I0J150000D01*
G01*
X136440000Y-97005000D01*
G75*
G02*
X136590000Y-96855000I150000J0D01*
G01*
X138240000Y-96855000D01*
G75*
G02*
X138390000Y-97005000I0J-150000D01*
G01*
G37*
G36*
G01*
X138390000Y-98275000D02*
X138390000Y-98575000D01*
G75*
G02*
X138240000Y-98725000I-150000J0D01*
G01*
X136590000Y-98725000D01*
G75*
G02*
X136440000Y-98575000I0J150000D01*
G01*
X136440000Y-98275000D01*
G75*
G02*
X136590000Y-98125000I150000J0D01*
G01*
X138240000Y-98125000D01*
G75*
G02*
X138390000Y-98275000I0J-150000D01*
G01*
G37*
G36*
G01*
X133440000Y-98275000D02*
X133440000Y-98575000D01*
G75*
G02*
X133290000Y-98725000I-150000J0D01*
G01*
X131640000Y-98725000D01*
G75*
G02*
X131490000Y-98575000I0J150000D01*
G01*
X131490000Y-98275000D01*
G75*
G02*
X131640000Y-98125000I150000J0D01*
G01*
X133290000Y-98125000D01*
G75*
G02*
X133440000Y-98275000I0J-150000D01*
G01*
G37*
G36*
G01*
X133440000Y-97005000D02*
X133440000Y-97305000D01*
G75*
G02*
X133290000Y-97455000I-150000J0D01*
G01*
X131640000Y-97455000D01*
G75*
G02*
X131490000Y-97305000I0J150000D01*
G01*
X131490000Y-97005000D01*
G75*
G02*
X131640000Y-96855000I150000J0D01*
G01*
X133290000Y-96855000D01*
G75*
G02*
X133440000Y-97005000I0J-150000D01*
G01*
G37*
G36*
G01*
X133440000Y-95735000D02*
X133440000Y-96035000D01*
G75*
G02*
X133290000Y-96185000I-150000J0D01*
G01*
X131640000Y-96185000D01*
G75*
G02*
X131490000Y-96035000I0J150000D01*
G01*
X131490000Y-95735000D01*
G75*
G02*
X131640000Y-95585000I150000J0D01*
G01*
X133290000Y-95585000D01*
G75*
G02*
X133440000Y-95735000I0J-150000D01*
G01*
G37*
G36*
G01*
X133440000Y-94465000D02*
X133440000Y-94765000D01*
G75*
G02*
X133290000Y-94915000I-150000J0D01*
G01*
X131640000Y-94915000D01*
G75*
G02*
X131490000Y-94765000I0J150000D01*
G01*
X131490000Y-94465000D01*
G75*
G02*
X131640000Y-94315000I150000J0D01*
G01*
X133290000Y-94315000D01*
G75*
G02*
X133440000Y-94465000I0J-150000D01*
G01*
G37*
G36*
G01*
X183651000Y-80749000D02*
X183651000Y-81049000D01*
G75*
G02*
X183501000Y-81199000I-150000J0D01*
G01*
X181901000Y-81199000D01*
G75*
G02*
X181751000Y-81049000I0J150000D01*
G01*
X181751000Y-80749000D01*
G75*
G02*
X181901000Y-80599000I150000J0D01*
G01*
X183501000Y-80599000D01*
G75*
G02*
X183651000Y-80749000I0J-150000D01*
G01*
G37*
G36*
G01*
X183651000Y-82019000D02*
X183651000Y-82319000D01*
G75*
G02*
X183501000Y-82469000I-150000J0D01*
G01*
X181901000Y-82469000D01*
G75*
G02*
X181751000Y-82319000I0J150000D01*
G01*
X181751000Y-82019000D01*
G75*
G02*
X181901000Y-81869000I150000J0D01*
G01*
X183501000Y-81869000D01*
G75*
G02*
X183651000Y-82019000I0J-150000D01*
G01*
G37*
G36*
G01*
X183651000Y-83289000D02*
X183651000Y-83589000D01*
G75*
G02*
X183501000Y-83739000I-150000J0D01*
G01*
X181901000Y-83739000D01*
G75*
G02*
X181751000Y-83589000I0J150000D01*
G01*
X181751000Y-83289000D01*
G75*
G02*
X181901000Y-83139000I150000J0D01*
G01*
X183501000Y-83139000D01*
G75*
G02*
X183651000Y-83289000I0J-150000D01*
G01*
G37*
G36*
G01*
X183651000Y-84559000D02*
X183651000Y-84859000D01*
G75*
G02*
X183501000Y-85009000I-150000J0D01*
G01*
X181901000Y-85009000D01*
G75*
G02*
X181751000Y-84859000I0J150000D01*
G01*
X181751000Y-84559000D01*
G75*
G02*
X181901000Y-84409000I150000J0D01*
G01*
X183501000Y-84409000D01*
G75*
G02*
X183651000Y-84559000I0J-150000D01*
G01*
G37*
G36*
G01*
X176651000Y-84559000D02*
X176651000Y-84859000D01*
G75*
G02*
X176501000Y-85009000I-150000J0D01*
G01*
X174901000Y-85009000D01*
G75*
G02*
X174751000Y-84859000I0J150000D01*
G01*
X174751000Y-84559000D01*
G75*
G02*
X174901000Y-84409000I150000J0D01*
G01*
X176501000Y-84409000D01*
G75*
G02*
X176651000Y-84559000I0J-150000D01*
G01*
G37*
G36*
G01*
X176651000Y-83289000D02*
X176651000Y-83589000D01*
G75*
G02*
X176501000Y-83739000I-150000J0D01*
G01*
X174901000Y-83739000D01*
G75*
G02*
X174751000Y-83589000I0J150000D01*
G01*
X174751000Y-83289000D01*
G75*
G02*
X174901000Y-83139000I150000J0D01*
G01*
X176501000Y-83139000D01*
G75*
G02*
X176651000Y-83289000I0J-150000D01*
G01*
G37*
G36*
G01*
X176651000Y-82019000D02*
X176651000Y-82319000D01*
G75*
G02*
X176501000Y-82469000I-150000J0D01*
G01*
X174901000Y-82469000D01*
G75*
G02*
X174751000Y-82319000I0J150000D01*
G01*
X174751000Y-82019000D01*
G75*
G02*
X174901000Y-81869000I150000J0D01*
G01*
X176501000Y-81869000D01*
G75*
G02*
X176651000Y-82019000I0J-150000D01*
G01*
G37*
G36*
G01*
X176651000Y-80749000D02*
X176651000Y-81049000D01*
G75*
G02*
X176501000Y-81199000I-150000J0D01*
G01*
X174901000Y-81199000D01*
G75*
G02*
X174751000Y-81049000I0J150000D01*
G01*
X174751000Y-80749000D01*
G75*
G02*
X174901000Y-80599000I150000J0D01*
G01*
X176501000Y-80599000D01*
G75*
G02*
X176651000Y-80749000I0J-150000D01*
G01*
G37*
G36*
G01*
X169648000Y-86048000D02*
X169648000Y-85148000D01*
G75*
G02*
X169898000Y-84898000I250000J0D01*
G01*
X170423000Y-84898000D01*
G75*
G02*
X170673000Y-85148000I0J-250000D01*
G01*
X170673000Y-86048000D01*
G75*
G02*
X170423000Y-86298000I-250000J0D01*
G01*
X169898000Y-86298000D01*
G75*
G02*
X169648000Y-86048000I0J250000D01*
G01*
G37*
G36*
G01*
X171473000Y-86048000D02*
X171473000Y-85148000D01*
G75*
G02*
X171723000Y-84898000I250000J0D01*
G01*
X172248000Y-84898000D01*
G75*
G02*
X172498000Y-85148000I0J-250000D01*
G01*
X172498000Y-86048000D01*
G75*
G02*
X172248000Y-86298000I-250000J0D01*
G01*
X171723000Y-86298000D01*
G75*
G02*
X171473000Y-86048000I0J250000D01*
G01*
G37*
G36*
G01*
X201652000Y-61156000D02*
X201652000Y-60256000D01*
G75*
G02*
X201902000Y-60006000I250000J0D01*
G01*
X202427000Y-60006000D01*
G75*
G02*
X202677000Y-60256000I0J-250000D01*
G01*
X202677000Y-61156000D01*
G75*
G02*
X202427000Y-61406000I-250000J0D01*
G01*
X201902000Y-61406000D01*
G75*
G02*
X201652000Y-61156000I0J250000D01*
G01*
G37*
G36*
G01*
X203477000Y-61156000D02*
X203477000Y-60256000D01*
G75*
G02*
X203727000Y-60006000I250000J0D01*
G01*
X204252000Y-60006000D01*
G75*
G02*
X204502000Y-60256000I0J-250000D01*
G01*
X204502000Y-61156000D01*
G75*
G02*
X204252000Y-61406000I-250000J0D01*
G01*
X203727000Y-61406000D01*
G75*
G02*
X203477000Y-61156000I0J250000D01*
G01*
G37*
G36*
G01*
X195796000Y-110406000D02*
X195796000Y-110706000D01*
G75*
G02*
X195646000Y-110856000I-150000J0D01*
G01*
X194471000Y-110856000D01*
G75*
G02*
X194321000Y-110706000I0J150000D01*
G01*
X194321000Y-110406000D01*
G75*
G02*
X194471000Y-110256000I150000J0D01*
G01*
X195646000Y-110256000D01*
G75*
G02*
X195796000Y-110406000I0J-150000D01*
G01*
G37*
G36*
G01*
X195796000Y-112306000D02*
X195796000Y-112606000D01*
G75*
G02*
X195646000Y-112756000I-150000J0D01*
G01*
X194471000Y-112756000D01*
G75*
G02*
X194321000Y-112606000I0J150000D01*
G01*
X194321000Y-112306000D01*
G75*
G02*
X194471000Y-112156000I150000J0D01*
G01*
X195646000Y-112156000D01*
G75*
G02*
X195796000Y-112306000I0J-150000D01*
G01*
G37*
G36*
G01*
X193921000Y-111356000D02*
X193921000Y-111656000D01*
G75*
G02*
X193771000Y-111806000I-150000J0D01*
G01*
X192596000Y-111806000D01*
G75*
G02*
X192446000Y-111656000I0J150000D01*
G01*
X192446000Y-111356000D01*
G75*
G02*
X192596000Y-111206000I150000J0D01*
G01*
X193771000Y-111206000D01*
G75*
G02*
X193921000Y-111356000I0J-150000D01*
G01*
G37*
D15*
X220769380Y-93726000D03*
D16*
X218269380Y-93726000D03*
M02*
