G04 #@! TF.GenerationSoftware,KiCad,Pcbnew,6.0.5+dfsg-1~bpo11+1*
G04 #@! TF.CreationDate,2022-06-30T11:54:21+00:00*
G04 #@! TF.ProjectId,ADSR_board,41445352-5f62-46f6-9172-642e6b696361,0*
G04 #@! TF.SameCoordinates,Original*
G04 #@! TF.FileFunction,Soldermask,Top*
G04 #@! TF.FilePolarity,Negative*
%FSLAX46Y46*%
G04 Gerber Fmt 4.6, Leading zero omitted, Abs format (unit mm)*
G04 Created by KiCad (PCBNEW 6.0.5+dfsg-1~bpo11+1) date 2022-06-30 11:54:21*
%MOMM*%
%LPD*%
G01*
G04 APERTURE LIST*
%ADD10O,2.720000X3.240000*%
%ADD11R,1.800000X1.800000*%
%ADD12C,1.800000*%
%ADD13C,2.500000*%
%ADD14C,2.000000*%
%ADD15R,1.600000X1.600000*%
%ADD16C,1.600000*%
%ADD17C,2.600000*%
%ADD18O,2.190000X1.740000*%
%ADD19O,1.740000X2.190000*%
%ADD20C,1.700000*%
G04 APERTURE END LIST*
D10*
X120207000Y-49142000D03*
X110607000Y-49142000D03*
D11*
X112907000Y-56642000D03*
D12*
X115407000Y-56642000D03*
X117907000Y-56642000D03*
D13*
X229747000Y-53722000D03*
X229747000Y-49022000D03*
X229747000Y-44322000D03*
D10*
X66197000Y-138042000D03*
X75797000Y-138042000D03*
D11*
X68497000Y-145542000D03*
D12*
X70997000Y-145542000D03*
X73497000Y-145542000D03*
D10*
X66197000Y-49142000D03*
X75797000Y-49142000D03*
D11*
X68497000Y-56642000D03*
D12*
X70997000Y-56642000D03*
X73497000Y-56642000D03*
D10*
X75797000Y-93592000D03*
X66197000Y-93592000D03*
D11*
X68497000Y-101092000D03*
D12*
X70997000Y-101092000D03*
X73497000Y-101092000D03*
D10*
X199547000Y-93592000D03*
X209147000Y-93592000D03*
D11*
X201847000Y-101092000D03*
D12*
X204347000Y-101092000D03*
X206847000Y-101092000D03*
D13*
X229747000Y-142622000D03*
X229747000Y-137922000D03*
X229747000Y-133222000D03*
D10*
X164657000Y-138042000D03*
X155057000Y-138042000D03*
D11*
X157357000Y-145542000D03*
D12*
X159857000Y-145542000D03*
X162357000Y-145542000D03*
D10*
X110647000Y-138042000D03*
X120247000Y-138042000D03*
D11*
X112947000Y-145542000D03*
D12*
X115447000Y-145542000D03*
X117947000Y-145542000D03*
D13*
X229747000Y-98172000D03*
X229747000Y-93472000D03*
X229747000Y-88772000D03*
D10*
X164697000Y-93592000D03*
X155097000Y-93592000D03*
D11*
X157397000Y-101092000D03*
D12*
X159897000Y-101092000D03*
X162397000Y-101092000D03*
D10*
X199547000Y-138042000D03*
X209147000Y-138042000D03*
D11*
X201847000Y-145542000D03*
D12*
X204347000Y-145542000D03*
X206847000Y-145542000D03*
D10*
X209147000Y-49142000D03*
X199547000Y-49142000D03*
D11*
X201847000Y-56642000D03*
D12*
X204347000Y-56642000D03*
X206847000Y-56642000D03*
D10*
X120247000Y-93592000D03*
X110647000Y-93592000D03*
D11*
X112947000Y-101092000D03*
D12*
X115447000Y-101092000D03*
X117947000Y-101092000D03*
D10*
X155097000Y-49142000D03*
X164697000Y-49142000D03*
D11*
X157397000Y-56642000D03*
D12*
X159897000Y-56642000D03*
X162397000Y-56642000D03*
D14*
X154182000Y-115697000D03*
D15*
X128690380Y-119380000D03*
D16*
X126190380Y-119380000D03*
D15*
X187837000Y-124587000D03*
D16*
X185337000Y-124587000D03*
D17*
X135005000Y-77470000D03*
X135005000Y-85090000D03*
D14*
X199267000Y-71247000D03*
X119892000Y-115697000D03*
D15*
X172951380Y-119380000D03*
D16*
X170451380Y-119380000D03*
D14*
X163707000Y-82296000D03*
X199267000Y-115697000D03*
X163707000Y-71247000D03*
X133227000Y-122047000D03*
D15*
X220769380Y-137922000D03*
D16*
X218269380Y-137922000D03*
G36*
G01*
X70172000Y-79902000D02*
X71862000Y-79902000D01*
G75*
G02*
X72112000Y-80152000I0J-250000D01*
G01*
X72112000Y-81392000D01*
G75*
G02*
X71862000Y-81642000I-250000J0D01*
G01*
X70172000Y-81642000D01*
G75*
G02*
X69922000Y-81392000I0J250000D01*
G01*
X69922000Y-80152000D01*
G75*
G02*
X70172000Y-79902000I250000J0D01*
G01*
G37*
D18*
X71017000Y-83312000D03*
X71017000Y-85852000D03*
G36*
G01*
X125372000Y-140652000D02*
X125372000Y-138962000D01*
G75*
G02*
X125622000Y-138712000I250000J0D01*
G01*
X126862000Y-138712000D01*
G75*
G02*
X127112000Y-138962000I0J-250000D01*
G01*
X127112000Y-140652000D01*
G75*
G02*
X126862000Y-140902000I-250000J0D01*
G01*
X125622000Y-140902000D01*
G75*
G02*
X125372000Y-140652000I0J250000D01*
G01*
G37*
D19*
X128782000Y-139807000D03*
G36*
G01*
X177077000Y-136319500D02*
X178277000Y-136319500D01*
G75*
G02*
X178527000Y-136569500I0J-250000D01*
G01*
X178527000Y-137769500D01*
G75*
G02*
X178277000Y-138019500I-250000J0D01*
G01*
X177077000Y-138019500D01*
G75*
G02*
X176827000Y-137769500I0J250000D01*
G01*
X176827000Y-136569500D01*
G75*
G02*
X177077000Y-136319500I250000J0D01*
G01*
G37*
D20*
X177677000Y-139709500D03*
X180217000Y-137169500D03*
X180217000Y-139709500D03*
X182757000Y-137169500D03*
X182757000Y-139709500D03*
X185297000Y-137169500D03*
X185297000Y-139709500D03*
X187837000Y-137169500D03*
X187837000Y-139709500D03*
D14*
X138942000Y-122047000D03*
G36*
G01*
X70152000Y-126892000D02*
X71842000Y-126892000D01*
G75*
G02*
X72092000Y-127142000I0J-250000D01*
G01*
X72092000Y-128382000D01*
G75*
G02*
X71842000Y-128632000I-250000J0D01*
G01*
X70152000Y-128632000D01*
G75*
G02*
X69902000Y-128382000I0J250000D01*
G01*
X69902000Y-127142000D01*
G75*
G02*
X70152000Y-126892000I250000J0D01*
G01*
G37*
D18*
X70997000Y-130302000D03*
D15*
X220857000Y-49022000D03*
D16*
X218357000Y-49022000D03*
D14*
X163707000Y-115697000D03*
G36*
G01*
X140612000Y-140672000D02*
X140612000Y-138982000D01*
G75*
G02*
X140862000Y-138732000I250000J0D01*
G01*
X142102000Y-138732000D01*
G75*
G02*
X142352000Y-138982000I0J-250000D01*
G01*
X142352000Y-140672000D01*
G75*
G02*
X142102000Y-140922000I-250000J0D01*
G01*
X140862000Y-140922000D01*
G75*
G02*
X140612000Y-140672000I0J250000D01*
G01*
G37*
D19*
X144022000Y-139827000D03*
X146562000Y-139827000D03*
X149102000Y-139827000D03*
X151642000Y-139827000D03*
D15*
X180177000Y-124587000D03*
D16*
X177677000Y-124587000D03*
D15*
X171887880Y-75057000D03*
D16*
X169387880Y-75057000D03*
D15*
X220769380Y-93726000D03*
D16*
X218269380Y-93726000D03*
M02*
