%FSLAX45Y45*%
G04 Gerber Fmt 4.5, Leading zero omitted, Abs format (unit mm)*
G04 Created by KiCad (PCBNEW 6.0.5+dfsg-1~bpo11+1) date 2022-06-30 11:54:21*
%MOMM*%
%LPD*%
G01*
G04 APERTURE LIST*
%TA.AperFunction,Profile*%
%ADD10C,0.100000*%
%TD*%
%ADD11C,0.200000*%
G04 APERTURE END LIST*
D10*
X23482700Y-14808200D02*
X23482700Y-4013200D01*
X23482700Y-4013200D02*
X6210700Y-4013200D01*
X6210700Y-14808200D02*
X23482700Y-14808200D01*
X6210700Y-4013200D02*
X6210700Y-14808200D01*
D11*
X6463319Y-15123676D02*
X6463319Y-14923676D01*
X6510938Y-14923676D01*
X6539509Y-14933200D01*
X6558557Y-14952248D01*
X6568081Y-14971295D01*
X6577605Y-15009390D01*
X6577605Y-15037962D01*
X6568081Y-15076057D01*
X6558557Y-15095105D01*
X6539509Y-15114152D01*
X6510938Y-15123676D01*
X6463319Y-15123676D01*
X6663319Y-15123676D02*
X6663319Y-14990343D01*
X6663319Y-15028438D02*
X6672843Y-15009390D01*
X6682367Y-14999867D01*
X6701414Y-14990343D01*
X6720462Y-14990343D01*
X6787128Y-15123676D02*
X6787128Y-14990343D01*
X6787128Y-14923676D02*
X6777605Y-14933200D01*
X6787128Y-14942724D01*
X6796652Y-14933200D01*
X6787128Y-14923676D01*
X6787128Y-14942724D01*
X6910938Y-15123676D02*
X6891890Y-15114152D01*
X6882367Y-15095105D01*
X6882367Y-14923676D01*
X7015700Y-15123676D02*
X6996652Y-15114152D01*
X6987128Y-15095105D01*
X6987128Y-14923676D01*
X7244271Y-15123676D02*
X7244271Y-14923676D01*
X7310938Y-15066533D01*
X7377605Y-14923676D01*
X7377605Y-15123676D01*
X7558557Y-15123676D02*
X7558557Y-15018914D01*
X7549033Y-14999867D01*
X7529986Y-14990343D01*
X7491890Y-14990343D01*
X7472843Y-14999867D01*
X7558557Y-15114152D02*
X7539509Y-15123676D01*
X7491890Y-15123676D01*
X7472843Y-15114152D01*
X7463319Y-15095105D01*
X7463319Y-15076057D01*
X7472843Y-15057009D01*
X7491890Y-15047486D01*
X7539509Y-15047486D01*
X7558557Y-15037962D01*
X7653795Y-14990343D02*
X7653795Y-15190343D01*
X7653795Y-14999867D02*
X7672843Y-14990343D01*
X7710938Y-14990343D01*
X7729986Y-14999867D01*
X7739509Y-15009390D01*
X7749033Y-15028438D01*
X7749033Y-15085581D01*
X7739509Y-15104628D01*
X7729986Y-15114152D01*
X7710938Y-15123676D01*
X7672843Y-15123676D01*
X7653795Y-15114152D01*
X7834748Y-15104628D02*
X7844271Y-15114152D01*
X7834748Y-15123676D01*
X7825224Y-15114152D01*
X7834748Y-15104628D01*
X7834748Y-15123676D01*
X7834748Y-14999867D02*
X7844271Y-15009390D01*
X7834748Y-15018914D01*
X7825224Y-15009390D01*
X7834748Y-14999867D01*
X7834748Y-15018914D01*
M02*
