%FSLAX45Y45*%
G04 Gerber Fmt 4.5, Leading zero omitted, Abs format (unit mm)*
G04 Created by KiCad (PCBNEW 6.0.5+dfsg-1~bpo11+1) date 2022-06-30 11:54:21*
%MOMM*%
%LPD*%
G01*
G04 APERTURE LIST*
%TA.AperFunction,Profile*%
%ADD10C,0.100000*%
%TD*%
%ADD11C,0.200000*%
%ADD12C,0.040000*%
%ADD13C,0.050000*%
%ADD14C,0.080000*%
%ADD15C,0.100000*%
%ADD16C,0.110000*%
%ADD17C,0.119000*%
%ADD18C,0.130000*%
%ADD19C,0.185000*%
G04 APERTURE END LIST*
D10*
X23482700Y-14808200D02*
X23482700Y-4013200D01*
X23482700Y-4013200D02*
X6210700Y-4013200D01*
X6210700Y-14808200D02*
X23482700Y-14808200D01*
X6210700Y-4013200D02*
X6210700Y-14808200D01*
D11*
D12*
X10762700Y-8057200D02*
X10802700Y-8097200D01*
X10802700Y-8057200D02*
X10762700Y-8097200D01*
D13*
X7569200Y-5930900D02*
G75*
G03*
X7569200Y-5930900I-25000J0D01*
G01*
X7658100Y-11303000D02*
G75*
G03*
X7658100Y-11303000I-25000J0D01*
G01*
X7670800Y-10303650D02*
G75*
G03*
X7670800Y-10303650I-25000J0D01*
G01*
X7861300Y-10236200D02*
G75*
G03*
X7861300Y-10236200I-25000J0D01*
G01*
X9982200Y-5346700D02*
G75*
G03*
X9982200Y-5346700I-25000J0D01*
G01*
X9982200Y-6426200D02*
G75*
G03*
X9982200Y-6426200I-25000J0D01*
G01*
X9982200Y-9220200D02*
G75*
G03*
X9982200Y-9220200I-25000J0D01*
G01*
X9982200Y-11887200D02*
G75*
G03*
X9982200Y-11887200I-25000J0D01*
G01*
X11315700Y-13030200D02*
G75*
G03*
X11315700Y-13030200I-25000J0D01*
G01*
X11832450Y-10845800D02*
G75*
G03*
X11832450Y-10845800I-25000J0D01*
G01*
X11861800Y-10473550D02*
G75*
G03*
X11861800Y-10473550I-25000J0D01*
G01*
X11912600Y-5918200D02*
G75*
G03*
X11912600Y-5918200I-25000J0D01*
G01*
X12026900Y-10321150D02*
G75*
G03*
X12026900Y-10321150I-25000J0D01*
G01*
X12181348Y-5914250D02*
G75*
G03*
X12181348Y-5914250I-25000J0D01*
G01*
X12292390Y-10913250D02*
G75*
G03*
X12292390Y-10913250I-25000J0D01*
G01*
X12306300Y-11303000D02*
G75*
G03*
X12306300Y-11303000I-25000J0D01*
G01*
X12331700Y-10109200D02*
G75*
G03*
X12331700Y-10109200I-25000J0D01*
G01*
X12357100Y-9601200D02*
G75*
G03*
X12357100Y-9601200I-25000J0D01*
G01*
X12929533Y-11438750D02*
G75*
G03*
X12929533Y-11438750I-25000J0D01*
G01*
X13042900Y-10160000D02*
G75*
G03*
X13042900Y-10160000I-25000J0D01*
G01*
X13538200Y-5346700D02*
G75*
G03*
X13538200Y-5346700I-25000J0D01*
G01*
X13881100Y-9220200D02*
G75*
G03*
X13881100Y-9220200I-25000J0D01*
G01*
X14008100Y-10312400D02*
G75*
G03*
X14008100Y-10312400I-25000J0D01*
G01*
X14058900Y-11125200D02*
G75*
G03*
X14058900Y-11125200I-25000J0D01*
G01*
X14058900Y-11633200D02*
G75*
G03*
X14058900Y-11633200I-25000J0D01*
G01*
X14107287Y-10862450D02*
G75*
G03*
X14107287Y-10862450I-25000J0D01*
G01*
X14617700Y-10693400D02*
G75*
G03*
X14617700Y-10693400I-25000J0D01*
G01*
X15252700Y-9601200D02*
G75*
G03*
X15252700Y-9601200I-25000J0D01*
G01*
X15328900Y-9906000D02*
G75*
G03*
X15328900Y-9906000I-25000J0D01*
G01*
X15328900Y-10896600D02*
G75*
G03*
X15328900Y-10896600I-25000J0D01*
G01*
X15443200Y-13030200D02*
G75*
G03*
X15443200Y-13030200I-25000J0D01*
G01*
X15786100Y-11099800D02*
G75*
G03*
X15786100Y-11099800I-25000J0D01*
G01*
X16040100Y-10651350D02*
G75*
G03*
X16040100Y-10651350I-25000J0D01*
G01*
X16052800Y-6023750D02*
G75*
G03*
X16052800Y-6023750I-25000J0D01*
G01*
X16649700Y-10706100D02*
G75*
G03*
X16649700Y-10706100I-25000J0D01*
G01*
X16711080Y-6010259D02*
G75*
G03*
X16711080Y-6010259I-25000J0D01*
G01*
X16725900Y-6286500D02*
G75*
G03*
X16725900Y-6286500I-25000J0D01*
G01*
X16738414Y-10303650D02*
G75*
G03*
X16738414Y-10303650I-25000J0D01*
G01*
X16738600Y-10481450D02*
G75*
G03*
X16738600Y-10481450I-25000J0D01*
G01*
X16739219Y-5859421D02*
G75*
G03*
X16739219Y-5859421I-25000J0D01*
G01*
X16776701Y-5689552D02*
G75*
G03*
X16776701Y-5689552I-25000J0D01*
G01*
X16878300Y-8382000D02*
G75*
G03*
X16878300Y-8382000I-25000J0D01*
G01*
X16903700Y-13030200D02*
G75*
G03*
X16903700Y-13030200I-25000J0D01*
G01*
X17335500Y-9423400D02*
G75*
G03*
X17335500Y-9423400I-25000J0D01*
G01*
X17373600Y-10109200D02*
G75*
G03*
X17373600Y-10109200I-25000J0D01*
G01*
X17411700Y-6680200D02*
G75*
G03*
X17411700Y-6680200I-25000J0D01*
G01*
X17437100Y-5765800D02*
G75*
G03*
X17437100Y-5765800I-25000J0D01*
G01*
X17487900Y-11379200D02*
G75*
G03*
X17487900Y-11379200I-25000J0D01*
G01*
X17919700Y-11823700D02*
G75*
G03*
X17919700Y-11823700I-25000J0D01*
G01*
X18192600Y-9988700D02*
G75*
G03*
X18192600Y-9988700I-25000J0D01*
G01*
X18275300Y-9207500D02*
G75*
G03*
X18275300Y-9207500I-25000J0D01*
G01*
X18427700Y-5943600D02*
G75*
G03*
X18427700Y-5943600I-25000J0D01*
G01*
X18427700Y-10316350D02*
G75*
G03*
X18427700Y-10316350I-25000J0D01*
G01*
X18453100Y-5029200D02*
G75*
G03*
X18453100Y-5029200I-25000J0D01*
G01*
X18478500Y-7213600D02*
G75*
G03*
X18478500Y-7213600I-25000J0D01*
G01*
X18478500Y-11099800D02*
G75*
G03*
X18478500Y-11099800I-25000J0D01*
G01*
X18478500Y-11658600D02*
G75*
G03*
X18478500Y-11658600I-25000J0D01*
G01*
X18503900Y-6680200D02*
G75*
G03*
X18503900Y-6680200I-25000J0D01*
G01*
X18538701Y-10894074D02*
G75*
G03*
X18538701Y-10894074I-25000J0D01*
G01*
X18553700Y-6478000D02*
G75*
G03*
X18553700Y-6478000I-25000J0D01*
G01*
X18745200Y-11823700D02*
G75*
G03*
X18745200Y-11823700I-25000J0D01*
G01*
X19113500Y-5232400D02*
G75*
G03*
X19113500Y-5232400I-25000J0D01*
G01*
X19113500Y-9664700D02*
G75*
G03*
X19113500Y-9664700I-25000J0D01*
G01*
X19443700Y-13030200D02*
G75*
G03*
X19443700Y-13030200I-25000J0D01*
G01*
X19748500Y-14427200D02*
G75*
G03*
X19748500Y-14427200I-25000J0D01*
G01*
X19773900Y-5486400D02*
G75*
G03*
X19773900Y-5486400I-25000J0D01*
G01*
X19773900Y-5892800D02*
G75*
G03*
X19773900Y-5892800I-25000J0D01*
G01*
X19786600Y-10287000D02*
G75*
G03*
X19786600Y-10287000I-25000J0D01*
G01*
X19799300Y-10693400D02*
G75*
G03*
X19799300Y-10693400I-25000J0D01*
G01*
X20205700Y-10312400D02*
G75*
G03*
X20205700Y-10312400I-25000J0D01*
G01*
X20205700Y-11099800D02*
G75*
G03*
X20205700Y-11099800I-25000J0D01*
G01*
X20231100Y-6248400D02*
G75*
G03*
X20231100Y-6248400I-25000J0D01*
G01*
X20294650Y-11226800D02*
G75*
G03*
X20294650Y-11226800I-25000J0D01*
G01*
X20777200Y-10934700D02*
G75*
G03*
X20777200Y-10934700I-25000J0D01*
G01*
X20777200Y-13030200D02*
G75*
G03*
X20777200Y-13030200I-25000J0D01*
G01*
X21666200Y-10934700D02*
G75*
G03*
X21666200Y-10934700I-25000J0D01*
G01*
X21666200Y-13030200D02*
G75*
G03*
X21666200Y-13030200I-25000J0D01*
G01*
X21780500Y-12065000D02*
G75*
G03*
X21780500Y-12065000I-25000J0D01*
G01*
X22085300Y-7416800D02*
G75*
G03*
X22085300Y-7416800I-25000J0D01*
G01*
X22085300Y-11658600D02*
G75*
G03*
X22085300Y-11658600I-25000J0D01*
G01*
D14*
X12619038Y-11898000D02*
X12619038Y-11978000D01*
X12579038Y-11938000D02*
X12659038Y-11938000D01*
X12869038Y-11898000D02*
X12869038Y-11978000D01*
X12829038Y-11938000D02*
X12909038Y-11938000D01*
X16938788Y-7465700D02*
X16938788Y-7545700D01*
X16898788Y-7505700D02*
X16978788Y-7505700D01*
X17045138Y-11898000D02*
X17045138Y-11978000D01*
X17005138Y-11938000D02*
X17085138Y-11938000D01*
X17188788Y-7465700D02*
X17188788Y-7545700D01*
X17148788Y-7505700D02*
X17228788Y-7505700D01*
X17295138Y-11898000D02*
X17295138Y-11978000D01*
X17255138Y-11938000D02*
X17335138Y-11938000D01*
X17767700Y-12418700D02*
X17767700Y-12498700D01*
X17727700Y-12458700D02*
X17807700Y-12458700D01*
X18017700Y-12418700D02*
X18017700Y-12498700D01*
X17977700Y-12458700D02*
X18057700Y-12458700D01*
X18533700Y-12418700D02*
X18533700Y-12498700D01*
X18493700Y-12458700D02*
X18573700Y-12458700D01*
X18783700Y-12418700D02*
X18783700Y-12498700D01*
X18743700Y-12458700D02*
X18823700Y-12458700D01*
X21826938Y-9332600D02*
X21826938Y-9412600D01*
X21786938Y-9372600D02*
X21866938Y-9372600D01*
X21826938Y-13752200D02*
X21826938Y-13832200D01*
X21786938Y-13792200D02*
X21866938Y-13792200D01*
X21835700Y-4862200D02*
X21835700Y-4942200D01*
X21795700Y-4902200D02*
X21875700Y-4902200D01*
X22076938Y-9332600D02*
X22076938Y-9412600D01*
X22036938Y-9372600D02*
X22116938Y-9372600D01*
X22076938Y-13752200D02*
X22076938Y-13832200D01*
X22036938Y-13792200D02*
X22116938Y-13792200D01*
X22085700Y-4862200D02*
X22085700Y-4942200D01*
X22045700Y-4902200D02*
X22125700Y-4902200D01*
D15*
X6885056Y-5699556D02*
X6885056Y-5628844D01*
X6814344Y-5628844D01*
X6814344Y-5699556D01*
X6885056Y-5699556D01*
X6885056Y-10144556D02*
X6885056Y-10073844D01*
X6814344Y-10073844D01*
X6814344Y-10144556D01*
X6885056Y-10144556D01*
X6885056Y-14589556D02*
X6885056Y-14518844D01*
X6814344Y-14518844D01*
X6814344Y-14589556D01*
X6885056Y-14589556D01*
X7135056Y-5699556D02*
X7135056Y-5628844D01*
X7064344Y-5628844D01*
X7064344Y-5699556D01*
X7135056Y-5699556D01*
X7135056Y-10144556D02*
X7135056Y-10073844D01*
X7064344Y-10073844D01*
X7064344Y-10144556D01*
X7135056Y-10144556D01*
X7135056Y-14589556D02*
X7135056Y-14518844D01*
X7064344Y-14518844D01*
X7064344Y-14589556D01*
X7135056Y-14589556D01*
X7385056Y-5699556D02*
X7385056Y-5628844D01*
X7314344Y-5628844D01*
X7314344Y-5699556D01*
X7385056Y-5699556D01*
X7385056Y-10144556D02*
X7385056Y-10073844D01*
X7314344Y-10073844D01*
X7314344Y-10144556D01*
X7385056Y-10144556D01*
X7385056Y-14589556D02*
X7385056Y-14518844D01*
X7314344Y-14518844D01*
X7314344Y-14589556D01*
X7385056Y-14589556D01*
X11326056Y-5699556D02*
X11326056Y-5628844D01*
X11255344Y-5628844D01*
X11255344Y-5699556D01*
X11326056Y-5699556D01*
X11330056Y-10144556D02*
X11330056Y-10073844D01*
X11259344Y-10073844D01*
X11259344Y-10144556D01*
X11330056Y-10144556D01*
X11330056Y-14589556D02*
X11330056Y-14518844D01*
X11259344Y-14518844D01*
X11259344Y-14589556D01*
X11330056Y-14589556D01*
X11576056Y-5699556D02*
X11576056Y-5628844D01*
X11505344Y-5628844D01*
X11505344Y-5699556D01*
X11576056Y-5699556D01*
X11580056Y-10144556D02*
X11580056Y-10073844D01*
X11509344Y-10073844D01*
X11509344Y-10144556D01*
X11580056Y-10144556D01*
X11580056Y-14589556D02*
X11580056Y-14518844D01*
X11509344Y-14518844D01*
X11509344Y-14589556D01*
X11580056Y-14589556D01*
X11826056Y-5699556D02*
X11826056Y-5628844D01*
X11755344Y-5628844D01*
X11755344Y-5699556D01*
X11826056Y-5699556D01*
X11830056Y-10144556D02*
X11830056Y-10073844D01*
X11759344Y-10073844D01*
X11759344Y-10144556D01*
X11830056Y-10144556D01*
X11830056Y-14589556D02*
X11830056Y-14518844D01*
X11759344Y-14518844D01*
X11759344Y-14589556D01*
X11830056Y-14589556D01*
X12024556Y-11605056D02*
X12024556Y-11534344D01*
X11953844Y-11534344D01*
X11953844Y-11605056D01*
X12024556Y-11605056D01*
X13358056Y-12240056D02*
X13358056Y-12169344D01*
X13287344Y-12169344D01*
X13287344Y-12240056D01*
X13358056Y-12240056D01*
X13929556Y-12240056D02*
X13929556Y-12169344D01*
X13858844Y-12169344D01*
X13858844Y-12240056D01*
X13929556Y-12240056D01*
X15453556Y-11605056D02*
X15453556Y-11534344D01*
X15382844Y-11534344D01*
X15382844Y-11605056D01*
X15453556Y-11605056D01*
X15771056Y-14589556D02*
X15771056Y-14518844D01*
X15700344Y-14518844D01*
X15700344Y-14589556D01*
X15771056Y-14589556D01*
X15775056Y-5699556D02*
X15775056Y-5628844D01*
X15704344Y-5628844D01*
X15704344Y-5699556D01*
X15775056Y-5699556D01*
X15775056Y-10144556D02*
X15775056Y-10073844D01*
X15704344Y-10073844D01*
X15704344Y-10144556D01*
X15775056Y-10144556D01*
X16021056Y-14589556D02*
X16021056Y-14518844D01*
X15950344Y-14518844D01*
X15950344Y-14589556D01*
X16021056Y-14589556D01*
X16025056Y-5699556D02*
X16025056Y-5628844D01*
X15954344Y-5628844D01*
X15954344Y-5699556D01*
X16025056Y-5699556D01*
X16025056Y-10144556D02*
X16025056Y-10073844D01*
X15954344Y-10073844D01*
X15954344Y-10144556D01*
X16025056Y-10144556D01*
X16271056Y-14589556D02*
X16271056Y-14518844D01*
X16200344Y-14518844D01*
X16200344Y-14589556D01*
X16271056Y-14589556D01*
X16275056Y-5699556D02*
X16275056Y-5628844D01*
X16204344Y-5628844D01*
X16204344Y-5699556D01*
X16275056Y-5699556D01*
X16275056Y-10144556D02*
X16275056Y-10073844D01*
X16204344Y-10073844D01*
X16204344Y-10144556D01*
X16275056Y-10144556D01*
X16406056Y-7160056D02*
X16406056Y-7089344D01*
X16335344Y-7089344D01*
X16335344Y-7160056D01*
X16406056Y-7160056D01*
X16406056Y-8264956D02*
X16406056Y-8194244D01*
X16335344Y-8194244D01*
X16335344Y-8264956D01*
X16406056Y-8264956D01*
X16406056Y-11605056D02*
X16406056Y-11534344D01*
X16335344Y-11534344D01*
X16335344Y-11605056D01*
X16406056Y-11605056D01*
X17803056Y-13752306D02*
X17803056Y-13681594D01*
X17732344Y-13681594D01*
X17732344Y-13752306D01*
X17803056Y-13752306D01*
X17803056Y-14006306D02*
X17803056Y-13935594D01*
X17732344Y-13935594D01*
X17732344Y-14006306D01*
X17803056Y-14006306D01*
X18057056Y-13752306D02*
X18057056Y-13681594D01*
X17986344Y-13681594D01*
X17986344Y-13752306D01*
X18057056Y-13752306D01*
X18057056Y-14006306D02*
X18057056Y-13935594D01*
X17986344Y-13935594D01*
X17986344Y-14006306D01*
X18057056Y-14006306D01*
X18311056Y-13752306D02*
X18311056Y-13681594D01*
X18240344Y-13681594D01*
X18240344Y-13752306D01*
X18311056Y-13752306D01*
X18311056Y-14006306D02*
X18311056Y-13935594D01*
X18240344Y-13935594D01*
X18240344Y-14006306D01*
X18311056Y-14006306D01*
X18565056Y-13752306D02*
X18565056Y-13681594D01*
X18494344Y-13681594D01*
X18494344Y-13752306D01*
X18565056Y-13752306D01*
X18565056Y-14006306D02*
X18565056Y-13935594D01*
X18494344Y-13935594D01*
X18494344Y-14006306D01*
X18565056Y-14006306D01*
X18819056Y-13752306D02*
X18819056Y-13681594D01*
X18748344Y-13681594D01*
X18748344Y-13752306D01*
X18819056Y-13752306D01*
X18819056Y-14006306D02*
X18819056Y-13935594D01*
X18748344Y-13935594D01*
X18748344Y-14006306D01*
X18819056Y-14006306D01*
X19962056Y-7160056D02*
X19962056Y-7089344D01*
X19891344Y-7089344D01*
X19891344Y-7160056D01*
X19962056Y-7160056D01*
X19962056Y-11605056D02*
X19962056Y-11534344D01*
X19891344Y-11534344D01*
X19891344Y-11605056D01*
X19962056Y-11605056D01*
X20220056Y-5699556D02*
X20220056Y-5628844D01*
X20149344Y-5628844D01*
X20149344Y-5699556D01*
X20220056Y-5699556D01*
X20220056Y-10144556D02*
X20220056Y-10073844D01*
X20149344Y-10073844D01*
X20149344Y-10144556D01*
X20220056Y-10144556D01*
X20220056Y-14589556D02*
X20220056Y-14518844D01*
X20149344Y-14518844D01*
X20149344Y-14589556D01*
X20220056Y-14589556D01*
X20470056Y-5699556D02*
X20470056Y-5628844D01*
X20399344Y-5628844D01*
X20399344Y-5699556D01*
X20470056Y-5699556D01*
X20470056Y-10144556D02*
X20470056Y-10073844D01*
X20399344Y-10073844D01*
X20399344Y-10144556D01*
X20470056Y-10144556D01*
X20470056Y-14589556D02*
X20470056Y-14518844D01*
X20399344Y-14518844D01*
X20399344Y-14589556D01*
X20470056Y-14589556D01*
X20720056Y-5699556D02*
X20720056Y-5628844D01*
X20649344Y-5628844D01*
X20649344Y-5699556D01*
X20720056Y-5699556D01*
X20720056Y-10144556D02*
X20720056Y-10073844D01*
X20649344Y-10073844D01*
X20649344Y-10144556D01*
X20720056Y-10144556D01*
X20720056Y-14589556D02*
X20720056Y-14518844D01*
X20649344Y-14518844D01*
X20649344Y-14589556D01*
X20720056Y-14589556D01*
D16*
X6619700Y-4969200D02*
X6674700Y-4914200D01*
X6619700Y-4859200D01*
X6564700Y-4914200D01*
X6619700Y-4969200D01*
D11*
X6664700Y-4949200D02*
X6664700Y-4879200D01*
X6574700Y-4949200D02*
X6574700Y-4879200D01*
X6664700Y-4879200D02*
G75*
G03*
X6574700Y-4879200I-45000J0D01*
G01*
X6574700Y-4949200D02*
G75*
G03*
X6664700Y-4949200I45000J0D01*
G01*
D16*
X6619700Y-9414200D02*
X6674700Y-9359200D01*
X6619700Y-9304200D01*
X6564700Y-9359200D01*
X6619700Y-9414200D01*
D11*
X6664700Y-9394200D02*
X6664700Y-9324200D01*
X6574700Y-9394200D02*
X6574700Y-9324200D01*
X6664700Y-9324200D02*
G75*
G03*
X6574700Y-9324200I-45000J0D01*
G01*
X6574700Y-9394200D02*
G75*
G03*
X6664700Y-9394200I45000J0D01*
G01*
D16*
X6619700Y-13859200D02*
X6674700Y-13804200D01*
X6619700Y-13749200D01*
X6564700Y-13804200D01*
X6619700Y-13859200D01*
D11*
X6664700Y-13839200D02*
X6664700Y-13769200D01*
X6574700Y-13839200D02*
X6574700Y-13769200D01*
X6664700Y-13769200D02*
G75*
G03*
X6574700Y-13769200I-45000J0D01*
G01*
X6574700Y-13839200D02*
G75*
G03*
X6664700Y-13839200I45000J0D01*
G01*
D16*
X7579700Y-4969200D02*
X7634700Y-4914200D01*
X7579700Y-4859200D01*
X7524700Y-4914200D01*
X7579700Y-4969200D01*
D11*
X7624700Y-4949200D02*
X7624700Y-4879200D01*
X7534700Y-4949200D02*
X7534700Y-4879200D01*
X7624700Y-4879200D02*
G75*
G03*
X7534700Y-4879200I-45000J0D01*
G01*
X7534700Y-4949200D02*
G75*
G03*
X7624700Y-4949200I45000J0D01*
G01*
D16*
X7579700Y-9414200D02*
X7634700Y-9359200D01*
X7579700Y-9304200D01*
X7524700Y-9359200D01*
X7579700Y-9414200D01*
D11*
X7624700Y-9394200D02*
X7624700Y-9324200D01*
X7534700Y-9394200D02*
X7534700Y-9324200D01*
X7624700Y-9324200D02*
G75*
G03*
X7534700Y-9324200I-45000J0D01*
G01*
X7534700Y-9394200D02*
G75*
G03*
X7624700Y-9394200I45000J0D01*
G01*
D16*
X7579700Y-13859200D02*
X7634700Y-13804200D01*
X7579700Y-13749200D01*
X7524700Y-13804200D01*
X7579700Y-13859200D01*
D11*
X7624700Y-13839200D02*
X7624700Y-13769200D01*
X7534700Y-13839200D02*
X7534700Y-13769200D01*
X7624700Y-13769200D02*
G75*
G03*
X7534700Y-13769200I-45000J0D01*
G01*
X7534700Y-13839200D02*
G75*
G03*
X7624700Y-13839200I45000J0D01*
G01*
D16*
X11060700Y-4969200D02*
X11115700Y-4914200D01*
X11060700Y-4859200D01*
X11005700Y-4914200D01*
X11060700Y-4969200D01*
D11*
X11105700Y-4949200D02*
X11105700Y-4879200D01*
X11015700Y-4949200D02*
X11015700Y-4879200D01*
X11105700Y-4879200D02*
G75*
G03*
X11015700Y-4879200I-45000J0D01*
G01*
X11015700Y-4949200D02*
G75*
G03*
X11105700Y-4949200I45000J0D01*
G01*
D16*
X11064700Y-9414200D02*
X11119700Y-9359200D01*
X11064700Y-9304200D01*
X11009700Y-9359200D01*
X11064700Y-9414200D01*
D11*
X11109700Y-9394200D02*
X11109700Y-9324200D01*
X11019700Y-9394200D02*
X11019700Y-9324200D01*
X11109700Y-9324200D02*
G75*
G03*
X11019700Y-9324200I-45000J0D01*
G01*
X11019700Y-9394200D02*
G75*
G03*
X11109700Y-9394200I45000J0D01*
G01*
D16*
X11064700Y-13859200D02*
X11119700Y-13804200D01*
X11064700Y-13749200D01*
X11009700Y-13804200D01*
X11064700Y-13859200D01*
D11*
X11109700Y-13839200D02*
X11109700Y-13769200D01*
X11019700Y-13839200D02*
X11019700Y-13769200D01*
X11109700Y-13769200D02*
G75*
G03*
X11019700Y-13769200I-45000J0D01*
G01*
X11019700Y-13839200D02*
G75*
G03*
X11109700Y-13839200I45000J0D01*
G01*
D16*
X12020700Y-4969200D02*
X12075700Y-4914200D01*
X12020700Y-4859200D01*
X11965700Y-4914200D01*
X12020700Y-4969200D01*
D11*
X12065700Y-4949200D02*
X12065700Y-4879200D01*
X11975700Y-4949200D02*
X11975700Y-4879200D01*
X12065700Y-4879200D02*
G75*
G03*
X11975700Y-4879200I-45000J0D01*
G01*
X11975700Y-4949200D02*
G75*
G03*
X12065700Y-4949200I45000J0D01*
G01*
D16*
X12024700Y-9414200D02*
X12079700Y-9359200D01*
X12024700Y-9304200D01*
X11969700Y-9359200D01*
X12024700Y-9414200D01*
D11*
X12069700Y-9394200D02*
X12069700Y-9324200D01*
X11979700Y-9394200D02*
X11979700Y-9324200D01*
X12069700Y-9324200D02*
G75*
G03*
X11979700Y-9324200I-45000J0D01*
G01*
X11979700Y-9394200D02*
G75*
G03*
X12069700Y-9394200I45000J0D01*
G01*
D16*
X12024700Y-13859200D02*
X12079700Y-13804200D01*
X12024700Y-13749200D01*
X11969700Y-13804200D01*
X12024700Y-13859200D01*
D11*
X12069700Y-13839200D02*
X12069700Y-13769200D01*
X11979700Y-13839200D02*
X11979700Y-13769200D01*
X12069700Y-13769200D02*
G75*
G03*
X11979700Y-13769200I-45000J0D01*
G01*
X11979700Y-13839200D02*
G75*
G03*
X12069700Y-13839200I45000J0D01*
G01*
D16*
X15505700Y-13859200D02*
X15560700Y-13804200D01*
X15505700Y-13749200D01*
X15450700Y-13804200D01*
X15505700Y-13859200D01*
D11*
X15550700Y-13839200D02*
X15550700Y-13769200D01*
X15460700Y-13839200D02*
X15460700Y-13769200D01*
X15550700Y-13769200D02*
G75*
G03*
X15460700Y-13769200I-45000J0D01*
G01*
X15460700Y-13839200D02*
G75*
G03*
X15550700Y-13839200I45000J0D01*
G01*
D16*
X15509700Y-4969200D02*
X15564700Y-4914200D01*
X15509700Y-4859200D01*
X15454700Y-4914200D01*
X15509700Y-4969200D01*
D11*
X15554700Y-4949200D02*
X15554700Y-4879200D01*
X15464700Y-4949200D02*
X15464700Y-4879200D01*
X15554700Y-4879200D02*
G75*
G03*
X15464700Y-4879200I-45000J0D01*
G01*
X15464700Y-4949200D02*
G75*
G03*
X15554700Y-4949200I45000J0D01*
G01*
D16*
X15509700Y-9414200D02*
X15564700Y-9359200D01*
X15509700Y-9304200D01*
X15454700Y-9359200D01*
X15509700Y-9414200D01*
D11*
X15554700Y-9394200D02*
X15554700Y-9324200D01*
X15464700Y-9394200D02*
X15464700Y-9324200D01*
X15554700Y-9324200D02*
G75*
G03*
X15464700Y-9324200I-45000J0D01*
G01*
X15464700Y-9394200D02*
G75*
G03*
X15554700Y-9394200I45000J0D01*
G01*
D16*
X16465700Y-13859200D02*
X16520700Y-13804200D01*
X16465700Y-13749200D01*
X16410700Y-13804200D01*
X16465700Y-13859200D01*
D11*
X16510700Y-13839200D02*
X16510700Y-13769200D01*
X16420700Y-13839200D02*
X16420700Y-13769200D01*
X16510700Y-13769200D02*
G75*
G03*
X16420700Y-13769200I-45000J0D01*
G01*
X16420700Y-13839200D02*
G75*
G03*
X16510700Y-13839200I45000J0D01*
G01*
D16*
X16469700Y-4969200D02*
X16524700Y-4914200D01*
X16469700Y-4859200D01*
X16414700Y-4914200D01*
X16469700Y-4969200D01*
D11*
X16514700Y-4949200D02*
X16514700Y-4879200D01*
X16424700Y-4949200D02*
X16424700Y-4879200D01*
X16514700Y-4879200D02*
G75*
G03*
X16424700Y-4879200I-45000J0D01*
G01*
X16424700Y-4949200D02*
G75*
G03*
X16514700Y-4949200I45000J0D01*
G01*
D16*
X16469700Y-9414200D02*
X16524700Y-9359200D01*
X16469700Y-9304200D01*
X16414700Y-9359200D01*
X16469700Y-9414200D01*
D11*
X16514700Y-9394200D02*
X16514700Y-9324200D01*
X16424700Y-9394200D02*
X16424700Y-9324200D01*
X16514700Y-9324200D02*
G75*
G03*
X16424700Y-9324200I-45000J0D01*
G01*
X16424700Y-9394200D02*
G75*
G03*
X16514700Y-9394200I45000J0D01*
G01*
D16*
X19954700Y-4969200D02*
X20009700Y-4914200D01*
X19954700Y-4859200D01*
X19899700Y-4914200D01*
X19954700Y-4969200D01*
D11*
X19999700Y-4949200D02*
X19999700Y-4879200D01*
X19909700Y-4949200D02*
X19909700Y-4879200D01*
X19999700Y-4879200D02*
G75*
G03*
X19909700Y-4879200I-45000J0D01*
G01*
X19909700Y-4949200D02*
G75*
G03*
X19999700Y-4949200I45000J0D01*
G01*
D16*
X19954700Y-9414200D02*
X20009700Y-9359200D01*
X19954700Y-9304200D01*
X19899700Y-9359200D01*
X19954700Y-9414200D01*
D11*
X19999700Y-9394200D02*
X19999700Y-9324200D01*
X19909700Y-9394200D02*
X19909700Y-9324200D01*
X19999700Y-9324200D02*
G75*
G03*
X19909700Y-9324200I-45000J0D01*
G01*
X19909700Y-9394200D02*
G75*
G03*
X19999700Y-9394200I45000J0D01*
G01*
D16*
X19954700Y-13859200D02*
X20009700Y-13804200D01*
X19954700Y-13749200D01*
X19899700Y-13804200D01*
X19954700Y-13859200D01*
D11*
X19999700Y-13839200D02*
X19999700Y-13769200D01*
X19909700Y-13839200D02*
X19909700Y-13769200D01*
X19999700Y-13769200D02*
G75*
G03*
X19909700Y-13769200I-45000J0D01*
G01*
X19909700Y-13839200D02*
G75*
G03*
X19999700Y-13839200I45000J0D01*
G01*
D16*
X20914700Y-4969200D02*
X20969700Y-4914200D01*
X20914700Y-4859200D01*
X20859700Y-4914200D01*
X20914700Y-4969200D01*
D11*
X20959700Y-4949200D02*
X20959700Y-4879200D01*
X20869700Y-4949200D02*
X20869700Y-4879200D01*
X20959700Y-4879200D02*
G75*
G03*
X20869700Y-4879200I-45000J0D01*
G01*
X20869700Y-4949200D02*
G75*
G03*
X20959700Y-4949200I45000J0D01*
G01*
D16*
X20914700Y-9414200D02*
X20969700Y-9359200D01*
X20914700Y-9304200D01*
X20859700Y-9359200D01*
X20914700Y-9414200D01*
D11*
X20959700Y-9394200D02*
X20959700Y-9324200D01*
X20869700Y-9394200D02*
X20869700Y-9324200D01*
X20959700Y-9324200D02*
G75*
G03*
X20869700Y-9324200I-45000J0D01*
G01*
X20869700Y-9394200D02*
G75*
G03*
X20959700Y-9394200I45000J0D01*
G01*
D16*
X20914700Y-13859200D02*
X20969700Y-13804200D01*
X20914700Y-13749200D01*
X20859700Y-13804200D01*
X20914700Y-13859200D01*
D11*
X20959700Y-13839200D02*
X20959700Y-13769200D01*
X20869700Y-13839200D02*
X20869700Y-13769200D01*
X20959700Y-13769200D02*
G75*
G03*
X20869700Y-13769200I-45000J0D01*
G01*
X20869700Y-13839200D02*
G75*
G03*
X20959700Y-13839200I45000J0D01*
G01*
D17*
X7040200Y-12716700D02*
X7159200Y-12835700D01*
X7159200Y-12716700D02*
X7040200Y-12835700D01*
X7159200Y-12776200D02*
G75*
G03*
X7159200Y-12776200I-59500J0D01*
G01*
X7040200Y-12970700D02*
X7159200Y-13089700D01*
X7159200Y-12970700D02*
X7040200Y-13089700D01*
X7159200Y-13030200D02*
G75*
G03*
X7159200Y-13030200I-59500J0D01*
G01*
X7042200Y-8017700D02*
X7161200Y-8136700D01*
X7161200Y-8017700D02*
X7042200Y-8136700D01*
X7161200Y-8077200D02*
G75*
G03*
X7161200Y-8077200I-59500J0D01*
G01*
X7042200Y-8271700D02*
X7161200Y-8390700D01*
X7161200Y-8271700D02*
X7042200Y-8390700D01*
X7161200Y-8331200D02*
G75*
G03*
X7161200Y-8331200I-59500J0D01*
G01*
X7042200Y-8525700D02*
X7161200Y-8644700D01*
X7161200Y-8525700D02*
X7042200Y-8644700D01*
X7161200Y-8585200D02*
G75*
G03*
X7161200Y-8585200I-59500J0D01*
G01*
X12564700Y-13921200D02*
X12683700Y-14040200D01*
X12683700Y-13921200D02*
X12564700Y-14040200D01*
X12683700Y-13980700D02*
G75*
G03*
X12683700Y-13980700I-59500J0D01*
G01*
X12818700Y-13921200D02*
X12937700Y-14040200D01*
X12937700Y-13921200D02*
X12818700Y-14040200D01*
X12937700Y-13980700D02*
G75*
G03*
X12937700Y-13980700I-59500J0D01*
G01*
X14088700Y-13923200D02*
X14207700Y-14042200D01*
X14207700Y-13923200D02*
X14088700Y-14042200D01*
X14207700Y-13982700D02*
G75*
G03*
X14207700Y-13982700I-59500J0D01*
G01*
X14342700Y-13923200D02*
X14461700Y-14042200D01*
X14461700Y-13923200D02*
X14342700Y-14042200D01*
X14461700Y-13982700D02*
G75*
G03*
X14461700Y-13982700I-59500J0D01*
G01*
X14596700Y-13923200D02*
X14715700Y-14042200D01*
X14715700Y-13923200D02*
X14596700Y-14042200D01*
X14715700Y-13982700D02*
G75*
G03*
X14715700Y-13982700I-59500J0D01*
G01*
X14850700Y-13923200D02*
X14969700Y-14042200D01*
X14969700Y-13923200D02*
X14850700Y-14042200D01*
X14969700Y-13982700D02*
G75*
G03*
X14969700Y-13982700I-59500J0D01*
G01*
X15104700Y-13923200D02*
X15223700Y-14042200D01*
X15223700Y-13923200D02*
X15104700Y-14042200D01*
X15223700Y-13982700D02*
G75*
G03*
X15223700Y-13982700I-59500J0D01*
G01*
D18*
X13435500Y-7682000D02*
X13565500Y-7812000D01*
X13565500Y-7682000D02*
X13435500Y-7812000D01*
X13500500Y-7682000D02*
X13500500Y-7812000D01*
X13435500Y-7747000D02*
X13565500Y-7747000D01*
X13435500Y-8444000D02*
X13565500Y-8574000D01*
X13565500Y-8444000D02*
X13435500Y-8574000D01*
X13500500Y-8444000D02*
X13500500Y-8574000D01*
X13435500Y-8509000D02*
X13565500Y-8509000D01*
D19*
X22882200Y-4339700D02*
X23067200Y-4524700D01*
X23067200Y-4339700D02*
X22882200Y-4524700D01*
X23040108Y-4497608D02*
X23040108Y-4366792D01*
X22909292Y-4366792D01*
X22909292Y-4497608D01*
X23040108Y-4497608D01*
X22882200Y-4809700D02*
X23067200Y-4994700D01*
X23067200Y-4809700D02*
X22882200Y-4994700D01*
X23040108Y-4967608D02*
X23040108Y-4836792D01*
X22909292Y-4836792D01*
X22909292Y-4967608D01*
X23040108Y-4967608D01*
X22882200Y-5279700D02*
X23067200Y-5464700D01*
X23067200Y-5279700D02*
X22882200Y-5464700D01*
X23040108Y-5437608D02*
X23040108Y-5306792D01*
X22909292Y-5306792D01*
X22909292Y-5437608D01*
X23040108Y-5437608D01*
X22882200Y-8784700D02*
X23067200Y-8969700D01*
X23067200Y-8784700D02*
X22882200Y-8969700D01*
X23040108Y-8942608D02*
X23040108Y-8811792D01*
X22909292Y-8811792D01*
X22909292Y-8942608D01*
X23040108Y-8942608D01*
X22882200Y-9254700D02*
X23067200Y-9439700D01*
X23067200Y-9254700D02*
X22882200Y-9439700D01*
X23040108Y-9412608D02*
X23040108Y-9281792D01*
X22909292Y-9281792D01*
X22909292Y-9412608D01*
X23040108Y-9412608D01*
X22882200Y-9724700D02*
X23067200Y-9909700D01*
X23067200Y-9724700D02*
X22882200Y-9909700D01*
X23040108Y-9882608D02*
X23040108Y-9751792D01*
X22909292Y-9751792D01*
X22909292Y-9882608D01*
X23040108Y-9882608D01*
X22882200Y-13229700D02*
X23067200Y-13414700D01*
X23067200Y-13229700D02*
X22882200Y-13414700D01*
X23040108Y-13387608D02*
X23040108Y-13256792D01*
X22909292Y-13256792D01*
X22909292Y-13387608D01*
X23040108Y-13387608D01*
X22882200Y-13699700D02*
X23067200Y-13884700D01*
X23067200Y-13699700D02*
X22882200Y-13884700D01*
X23040108Y-13857608D02*
X23040108Y-13726792D01*
X22909292Y-13726792D01*
X22909292Y-13857608D01*
X23040108Y-13857608D01*
X22882200Y-14169700D02*
X23067200Y-14354700D01*
X23067200Y-14169700D02*
X22882200Y-14354700D01*
X23040108Y-14327608D02*
X23040108Y-14196792D01*
X22909292Y-14196792D01*
X22909292Y-14327608D01*
X23040108Y-14327608D01*
D11*
X6463319Y-15123676D02*
X6463319Y-14923676D01*
X6510938Y-14923676D01*
X6539509Y-14933200D01*
X6558557Y-14952248D01*
X6568081Y-14971295D01*
X6577605Y-15009390D01*
X6577605Y-15037962D01*
X6568081Y-15076057D01*
X6558557Y-15095105D01*
X6539509Y-15114152D01*
X6510938Y-15123676D01*
X6463319Y-15123676D01*
X6663319Y-15123676D02*
X6663319Y-14990343D01*
X6663319Y-15028438D02*
X6672843Y-15009390D01*
X6682367Y-14999867D01*
X6701414Y-14990343D01*
X6720462Y-14990343D01*
X6787128Y-15123676D02*
X6787128Y-14990343D01*
X6787128Y-14923676D02*
X6777605Y-14933200D01*
X6787128Y-14942724D01*
X6796652Y-14933200D01*
X6787128Y-14923676D01*
X6787128Y-14942724D01*
X6910938Y-15123676D02*
X6891890Y-15114152D01*
X6882367Y-15095105D01*
X6882367Y-14923676D01*
X7015700Y-15123676D02*
X6996652Y-15114152D01*
X6987128Y-15095105D01*
X6987128Y-14923676D01*
X7244271Y-15123676D02*
X7244271Y-14923676D01*
X7310938Y-15066533D01*
X7377605Y-14923676D01*
X7377605Y-15123676D01*
X7558557Y-15123676D02*
X7558557Y-15018914D01*
X7549033Y-14999867D01*
X7529986Y-14990343D01*
X7491890Y-14990343D01*
X7472843Y-14999867D01*
X7558557Y-15114152D02*
X7539509Y-15123676D01*
X7491890Y-15123676D01*
X7472843Y-15114152D01*
X7463319Y-15095105D01*
X7463319Y-15076057D01*
X7472843Y-15057009D01*
X7491890Y-15047486D01*
X7539509Y-15047486D01*
X7558557Y-15037962D01*
X7653795Y-14990343D02*
X7653795Y-15190343D01*
X7653795Y-14999867D02*
X7672843Y-14990343D01*
X7710938Y-14990343D01*
X7729986Y-14999867D01*
X7739509Y-15009390D01*
X7749033Y-15028438D01*
X7749033Y-15085581D01*
X7739509Y-15104628D01*
X7729986Y-15114152D01*
X7710938Y-15123676D01*
X7672843Y-15123676D01*
X7653795Y-15114152D01*
X7834748Y-15104628D02*
X7844271Y-15114152D01*
X7834748Y-15123676D01*
X7825224Y-15114152D01*
X7834748Y-15104628D01*
X7834748Y-15123676D01*
X7834748Y-14999867D02*
X7844271Y-15009390D01*
X7834748Y-15018914D01*
X7825224Y-15009390D01*
X7834748Y-14999867D01*
X7834748Y-15018914D01*
D12*
X6165700Y-15433200D02*
X6205700Y-15473200D01*
X6205700Y-15433200D02*
X6165700Y-15473200D01*
D11*
X6501414Y-15343676D02*
X6520462Y-15343676D01*
X6539509Y-15353200D01*
X6549033Y-15362724D01*
X6558557Y-15381771D01*
X6568081Y-15419867D01*
X6568081Y-15467486D01*
X6558557Y-15505581D01*
X6549033Y-15524628D01*
X6539509Y-15534152D01*
X6520462Y-15543676D01*
X6501414Y-15543676D01*
X6482367Y-15534152D01*
X6472843Y-15524628D01*
X6463319Y-15505581D01*
X6453795Y-15467486D01*
X6453795Y-15419867D01*
X6463319Y-15381771D01*
X6472843Y-15362724D01*
X6482367Y-15353200D01*
X6501414Y-15343676D01*
X6653795Y-15524628D02*
X6663319Y-15534152D01*
X6653795Y-15543676D01*
X6644271Y-15534152D01*
X6653795Y-15524628D01*
X6653795Y-15543676D01*
X6834748Y-15410343D02*
X6834748Y-15543676D01*
X6787128Y-15334152D02*
X6739509Y-15477009D01*
X6863319Y-15477009D01*
X6977605Y-15343676D02*
X6996652Y-15343676D01*
X7015700Y-15353200D01*
X7025224Y-15362724D01*
X7034748Y-15381771D01*
X7044271Y-15419867D01*
X7044271Y-15467486D01*
X7034748Y-15505581D01*
X7025224Y-15524628D01*
X7015700Y-15534152D01*
X6996652Y-15543676D01*
X6977605Y-15543676D01*
X6958557Y-15534152D01*
X6949033Y-15524628D01*
X6939509Y-15505581D01*
X6929986Y-15467486D01*
X6929986Y-15419867D01*
X6939509Y-15381771D01*
X6949033Y-15362724D01*
X6958557Y-15353200D01*
X6977605Y-15343676D01*
X7168081Y-15343676D02*
X7187128Y-15343676D01*
X7206176Y-15353200D01*
X7215700Y-15362724D01*
X7225224Y-15381771D01*
X7234748Y-15419867D01*
X7234748Y-15467486D01*
X7225224Y-15505581D01*
X7215700Y-15524628D01*
X7206176Y-15534152D01*
X7187128Y-15543676D01*
X7168081Y-15543676D01*
X7149033Y-15534152D01*
X7139509Y-15524628D01*
X7129986Y-15505581D01*
X7120462Y-15467486D01*
X7120462Y-15419867D01*
X7129986Y-15381771D01*
X7139509Y-15362724D01*
X7149033Y-15353200D01*
X7168081Y-15343676D01*
X7320462Y-15543676D02*
X7320462Y-15410343D01*
X7320462Y-15429390D02*
X7329986Y-15419867D01*
X7349033Y-15410343D01*
X7377605Y-15410343D01*
X7396652Y-15419867D01*
X7406176Y-15438914D01*
X7406176Y-15543676D01*
X7406176Y-15438914D02*
X7415700Y-15419867D01*
X7434748Y-15410343D01*
X7463319Y-15410343D01*
X7482367Y-15419867D01*
X7491890Y-15438914D01*
X7491890Y-15543676D01*
X7587128Y-15543676D02*
X7587128Y-15410343D01*
X7587128Y-15429390D02*
X7596652Y-15419867D01*
X7615700Y-15410343D01*
X7644271Y-15410343D01*
X7663319Y-15419867D01*
X7672843Y-15438914D01*
X7672843Y-15543676D01*
X7672843Y-15438914D02*
X7682367Y-15419867D01*
X7701414Y-15410343D01*
X7729986Y-15410343D01*
X7749033Y-15419867D01*
X7758557Y-15438914D01*
X7758557Y-15543676D01*
X8149033Y-15334152D02*
X7977605Y-15591295D01*
X8406176Y-15343676D02*
X8425224Y-15343676D01*
X8444271Y-15353200D01*
X8453795Y-15362724D01*
X8463319Y-15381771D01*
X8472843Y-15419867D01*
X8472843Y-15467486D01*
X8463319Y-15505581D01*
X8453795Y-15524628D01*
X8444271Y-15534152D01*
X8425224Y-15543676D01*
X8406176Y-15543676D01*
X8387128Y-15534152D01*
X8377605Y-15524628D01*
X8368081Y-15505581D01*
X8358557Y-15467486D01*
X8358557Y-15419867D01*
X8368081Y-15381771D01*
X8377605Y-15362724D01*
X8387128Y-15353200D01*
X8406176Y-15343676D01*
X8558557Y-15524628D02*
X8568081Y-15534152D01*
X8558557Y-15543676D01*
X8549033Y-15534152D01*
X8558557Y-15524628D01*
X8558557Y-15543676D01*
X8691890Y-15343676D02*
X8710938Y-15343676D01*
X8729986Y-15353200D01*
X8739510Y-15362724D01*
X8749033Y-15381771D01*
X8758557Y-15419867D01*
X8758557Y-15467486D01*
X8749033Y-15505581D01*
X8739510Y-15524628D01*
X8729986Y-15534152D01*
X8710938Y-15543676D01*
X8691890Y-15543676D01*
X8672843Y-15534152D01*
X8663319Y-15524628D01*
X8653795Y-15505581D01*
X8644271Y-15467486D01*
X8644271Y-15419867D01*
X8653795Y-15381771D01*
X8663319Y-15362724D01*
X8672843Y-15353200D01*
X8691890Y-15343676D01*
X8949033Y-15543676D02*
X8834748Y-15543676D01*
X8891890Y-15543676D02*
X8891890Y-15343676D01*
X8872843Y-15372248D01*
X8853795Y-15391295D01*
X8834748Y-15400819D01*
X9129986Y-15343676D02*
X9034748Y-15343676D01*
X9025224Y-15438914D01*
X9034748Y-15429390D01*
X9053795Y-15419867D01*
X9101414Y-15419867D01*
X9120462Y-15429390D01*
X9129986Y-15438914D01*
X9139510Y-15457962D01*
X9139510Y-15505581D01*
X9129986Y-15524628D01*
X9120462Y-15534152D01*
X9101414Y-15543676D01*
X9053795Y-15543676D01*
X9034748Y-15534152D01*
X9025224Y-15524628D01*
X9206176Y-15343676D02*
X9339510Y-15343676D01*
X9253795Y-15543676D01*
X9406176Y-15343676D02*
X9406176Y-15381771D01*
X9482367Y-15343676D02*
X9482367Y-15381771D01*
X9777605Y-15619867D02*
X9768081Y-15610343D01*
X9749033Y-15581771D01*
X9739510Y-15562724D01*
X9729986Y-15534152D01*
X9720462Y-15486533D01*
X9720462Y-15448438D01*
X9729986Y-15400819D01*
X9739510Y-15372248D01*
X9749033Y-15353200D01*
X9768081Y-15324628D01*
X9777605Y-15315105D01*
X9958557Y-15543676D02*
X9844271Y-15543676D01*
X9901414Y-15543676D02*
X9901414Y-15343676D01*
X9882367Y-15372248D01*
X9863319Y-15391295D01*
X9844271Y-15400819D01*
X10196652Y-15543676D02*
X10196652Y-15343676D01*
X10282367Y-15543676D02*
X10282367Y-15438914D01*
X10272843Y-15419867D01*
X10253795Y-15410343D01*
X10225224Y-15410343D01*
X10206176Y-15419867D01*
X10196652Y-15429390D01*
X10406176Y-15543676D02*
X10387129Y-15534152D01*
X10377605Y-15524628D01*
X10368081Y-15505581D01*
X10368081Y-15448438D01*
X10377605Y-15429390D01*
X10387129Y-15419867D01*
X10406176Y-15410343D01*
X10434748Y-15410343D01*
X10453795Y-15419867D01*
X10463319Y-15429390D01*
X10472843Y-15448438D01*
X10472843Y-15505581D01*
X10463319Y-15524628D01*
X10453795Y-15534152D01*
X10434748Y-15543676D01*
X10406176Y-15543676D01*
X10587129Y-15543676D02*
X10568081Y-15534152D01*
X10558557Y-15515105D01*
X10558557Y-15343676D01*
X10739510Y-15534152D02*
X10720462Y-15543676D01*
X10682367Y-15543676D01*
X10663319Y-15534152D01*
X10653795Y-15515105D01*
X10653795Y-15438914D01*
X10663319Y-15419867D01*
X10682367Y-15410343D01*
X10720462Y-15410343D01*
X10739510Y-15419867D01*
X10749033Y-15438914D01*
X10749033Y-15457962D01*
X10653795Y-15477009D01*
X10815700Y-15619867D02*
X10825224Y-15610343D01*
X10844271Y-15581771D01*
X10853795Y-15562724D01*
X10863319Y-15534152D01*
X10872843Y-15486533D01*
X10872843Y-15448438D01*
X10863319Y-15400819D01*
X10853795Y-15372248D01*
X10844271Y-15353200D01*
X10825224Y-15324628D01*
X10815700Y-15315105D01*
D13*
X6205700Y-15717200D02*
G75*
G03*
X6205700Y-15717200I-25000J0D01*
G01*
D11*
X6501414Y-15607676D02*
X6520462Y-15607676D01*
X6539509Y-15617200D01*
X6549033Y-15626724D01*
X6558557Y-15645771D01*
X6568081Y-15683867D01*
X6568081Y-15731486D01*
X6558557Y-15769581D01*
X6549033Y-15788628D01*
X6539509Y-15798152D01*
X6520462Y-15807676D01*
X6501414Y-15807676D01*
X6482367Y-15798152D01*
X6472843Y-15788628D01*
X6463319Y-15769581D01*
X6453795Y-15731486D01*
X6453795Y-15683867D01*
X6463319Y-15645771D01*
X6472843Y-15626724D01*
X6482367Y-15617200D01*
X6501414Y-15607676D01*
X6653795Y-15788628D02*
X6663319Y-15798152D01*
X6653795Y-15807676D01*
X6644271Y-15798152D01*
X6653795Y-15788628D01*
X6653795Y-15807676D01*
X6844271Y-15607676D02*
X6749033Y-15607676D01*
X6739509Y-15702914D01*
X6749033Y-15693390D01*
X6768081Y-15683867D01*
X6815700Y-15683867D01*
X6834748Y-15693390D01*
X6844271Y-15702914D01*
X6853795Y-15721962D01*
X6853795Y-15769581D01*
X6844271Y-15788628D01*
X6834748Y-15798152D01*
X6815700Y-15807676D01*
X6768081Y-15807676D01*
X6749033Y-15798152D01*
X6739509Y-15788628D01*
X6977605Y-15607676D02*
X6996652Y-15607676D01*
X7015700Y-15617200D01*
X7025224Y-15626724D01*
X7034748Y-15645771D01*
X7044271Y-15683867D01*
X7044271Y-15731486D01*
X7034748Y-15769581D01*
X7025224Y-15788628D01*
X7015700Y-15798152D01*
X6996652Y-15807676D01*
X6977605Y-15807676D01*
X6958557Y-15798152D01*
X6949033Y-15788628D01*
X6939509Y-15769581D01*
X6929986Y-15731486D01*
X6929986Y-15683867D01*
X6939509Y-15645771D01*
X6949033Y-15626724D01*
X6958557Y-15617200D01*
X6977605Y-15607676D01*
X7168081Y-15607676D02*
X7187128Y-15607676D01*
X7206176Y-15617200D01*
X7215700Y-15626724D01*
X7225224Y-15645771D01*
X7234748Y-15683867D01*
X7234748Y-15731486D01*
X7225224Y-15769581D01*
X7215700Y-15788628D01*
X7206176Y-15798152D01*
X7187128Y-15807676D01*
X7168081Y-15807676D01*
X7149033Y-15798152D01*
X7139509Y-15788628D01*
X7129986Y-15769581D01*
X7120462Y-15731486D01*
X7120462Y-15683867D01*
X7129986Y-15645771D01*
X7139509Y-15626724D01*
X7149033Y-15617200D01*
X7168081Y-15607676D01*
X7320462Y-15807676D02*
X7320462Y-15674343D01*
X7320462Y-15693390D02*
X7329986Y-15683867D01*
X7349033Y-15674343D01*
X7377605Y-15674343D01*
X7396652Y-15683867D01*
X7406176Y-15702914D01*
X7406176Y-15807676D01*
X7406176Y-15702914D02*
X7415700Y-15683867D01*
X7434748Y-15674343D01*
X7463319Y-15674343D01*
X7482367Y-15683867D01*
X7491890Y-15702914D01*
X7491890Y-15807676D01*
X7587128Y-15807676D02*
X7587128Y-15674343D01*
X7587128Y-15693390D02*
X7596652Y-15683867D01*
X7615700Y-15674343D01*
X7644271Y-15674343D01*
X7663319Y-15683867D01*
X7672843Y-15702914D01*
X7672843Y-15807676D01*
X7672843Y-15702914D02*
X7682367Y-15683867D01*
X7701414Y-15674343D01*
X7729986Y-15674343D01*
X7749033Y-15683867D01*
X7758557Y-15702914D01*
X7758557Y-15807676D01*
X8149033Y-15598152D02*
X7977605Y-15855295D01*
X8406176Y-15607676D02*
X8425224Y-15607676D01*
X8444271Y-15617200D01*
X8453795Y-15626724D01*
X8463319Y-15645771D01*
X8472843Y-15683867D01*
X8472843Y-15731486D01*
X8463319Y-15769581D01*
X8453795Y-15788628D01*
X8444271Y-15798152D01*
X8425224Y-15807676D01*
X8406176Y-15807676D01*
X8387128Y-15798152D01*
X8377605Y-15788628D01*
X8368081Y-15769581D01*
X8358557Y-15731486D01*
X8358557Y-15683867D01*
X8368081Y-15645771D01*
X8377605Y-15626724D01*
X8387128Y-15617200D01*
X8406176Y-15607676D01*
X8558557Y-15788628D02*
X8568081Y-15798152D01*
X8558557Y-15807676D01*
X8549033Y-15798152D01*
X8558557Y-15788628D01*
X8558557Y-15807676D01*
X8691890Y-15607676D02*
X8710938Y-15607676D01*
X8729986Y-15617200D01*
X8739510Y-15626724D01*
X8749033Y-15645771D01*
X8758557Y-15683867D01*
X8758557Y-15731486D01*
X8749033Y-15769581D01*
X8739510Y-15788628D01*
X8729986Y-15798152D01*
X8710938Y-15807676D01*
X8691890Y-15807676D01*
X8672843Y-15798152D01*
X8663319Y-15788628D01*
X8653795Y-15769581D01*
X8644271Y-15731486D01*
X8644271Y-15683867D01*
X8653795Y-15645771D01*
X8663319Y-15626724D01*
X8672843Y-15617200D01*
X8691890Y-15607676D01*
X8949033Y-15807676D02*
X8834748Y-15807676D01*
X8891890Y-15807676D02*
X8891890Y-15607676D01*
X8872843Y-15636248D01*
X8853795Y-15655295D01*
X8834748Y-15664819D01*
X9044271Y-15807676D02*
X9082367Y-15807676D01*
X9101414Y-15798152D01*
X9110938Y-15788628D01*
X9129986Y-15760057D01*
X9139510Y-15721962D01*
X9139510Y-15645771D01*
X9129986Y-15626724D01*
X9120462Y-15617200D01*
X9101414Y-15607676D01*
X9063319Y-15607676D01*
X9044271Y-15617200D01*
X9034748Y-15626724D01*
X9025224Y-15645771D01*
X9025224Y-15693390D01*
X9034748Y-15712438D01*
X9044271Y-15721962D01*
X9063319Y-15731486D01*
X9101414Y-15731486D01*
X9120462Y-15721962D01*
X9129986Y-15712438D01*
X9139510Y-15693390D01*
X9206176Y-15607676D02*
X9339510Y-15607676D01*
X9253795Y-15807676D01*
X9406176Y-15607676D02*
X9406176Y-15645771D01*
X9482367Y-15607676D02*
X9482367Y-15645771D01*
X9777605Y-15883867D02*
X9768081Y-15874343D01*
X9749033Y-15845771D01*
X9739510Y-15826724D01*
X9729986Y-15798152D01*
X9720462Y-15750533D01*
X9720462Y-15712438D01*
X9729986Y-15664819D01*
X9739510Y-15636248D01*
X9749033Y-15617200D01*
X9768081Y-15588628D01*
X9777605Y-15579105D01*
X9882367Y-15693390D02*
X9863319Y-15683867D01*
X9853795Y-15674343D01*
X9844271Y-15655295D01*
X9844271Y-15645771D01*
X9853795Y-15626724D01*
X9863319Y-15617200D01*
X9882367Y-15607676D01*
X9920462Y-15607676D01*
X9939510Y-15617200D01*
X9949033Y-15626724D01*
X9958557Y-15645771D01*
X9958557Y-15655295D01*
X9949033Y-15674343D01*
X9939510Y-15683867D01*
X9920462Y-15693390D01*
X9882367Y-15693390D01*
X9863319Y-15702914D01*
X9853795Y-15712438D01*
X9844271Y-15731486D01*
X9844271Y-15769581D01*
X9853795Y-15788628D01*
X9863319Y-15798152D01*
X9882367Y-15807676D01*
X9920462Y-15807676D01*
X9939510Y-15798152D01*
X9949033Y-15788628D01*
X9958557Y-15769581D01*
X9958557Y-15731486D01*
X9949033Y-15712438D01*
X9939510Y-15702914D01*
X9920462Y-15693390D01*
X10082367Y-15607676D02*
X10101414Y-15607676D01*
X10120462Y-15617200D01*
X10129986Y-15626724D01*
X10139510Y-15645771D01*
X10149033Y-15683867D01*
X10149033Y-15731486D01*
X10139510Y-15769581D01*
X10129986Y-15788628D01*
X10120462Y-15798152D01*
X10101414Y-15807676D01*
X10082367Y-15807676D01*
X10063319Y-15798152D01*
X10053795Y-15788628D01*
X10044271Y-15769581D01*
X10034748Y-15731486D01*
X10034748Y-15683867D01*
X10044271Y-15645771D01*
X10053795Y-15626724D01*
X10063319Y-15617200D01*
X10082367Y-15607676D01*
X10387129Y-15807676D02*
X10387129Y-15607676D01*
X10472843Y-15807676D02*
X10472843Y-15702914D01*
X10463319Y-15683867D01*
X10444271Y-15674343D01*
X10415700Y-15674343D01*
X10396652Y-15683867D01*
X10387129Y-15693390D01*
X10596652Y-15807676D02*
X10577605Y-15798152D01*
X10568081Y-15788628D01*
X10558557Y-15769581D01*
X10558557Y-15712438D01*
X10568081Y-15693390D01*
X10577605Y-15683867D01*
X10596652Y-15674343D01*
X10625224Y-15674343D01*
X10644271Y-15683867D01*
X10653795Y-15693390D01*
X10663319Y-15712438D01*
X10663319Y-15769581D01*
X10653795Y-15788628D01*
X10644271Y-15798152D01*
X10625224Y-15807676D01*
X10596652Y-15807676D01*
X10777605Y-15807676D02*
X10758557Y-15798152D01*
X10749033Y-15779105D01*
X10749033Y-15607676D01*
X10929986Y-15798152D02*
X10910938Y-15807676D01*
X10872843Y-15807676D01*
X10853795Y-15798152D01*
X10844271Y-15779105D01*
X10844271Y-15702914D01*
X10853795Y-15683867D01*
X10872843Y-15674343D01*
X10910938Y-15674343D01*
X10929986Y-15683867D01*
X10939510Y-15702914D01*
X10939510Y-15721962D01*
X10844271Y-15741009D01*
X11015700Y-15798152D02*
X11034748Y-15807676D01*
X11072843Y-15807676D01*
X11091890Y-15798152D01*
X11101414Y-15779105D01*
X11101414Y-15769581D01*
X11091890Y-15750533D01*
X11072843Y-15741009D01*
X11044271Y-15741009D01*
X11025224Y-15731486D01*
X11015700Y-15712438D01*
X11015700Y-15702914D01*
X11025224Y-15683867D01*
X11044271Y-15674343D01*
X11072843Y-15674343D01*
X11091890Y-15683867D01*
X11168081Y-15883867D02*
X11177605Y-15874343D01*
X11196652Y-15845771D01*
X11206176Y-15826724D01*
X11215700Y-15798152D01*
X11225224Y-15750533D01*
X11225224Y-15712438D01*
X11215700Y-15664819D01*
X11206176Y-15636248D01*
X11196652Y-15617200D01*
X11177605Y-15588628D01*
X11168081Y-15579105D01*
D14*
X6165700Y-15941200D02*
X6165700Y-16021200D01*
X6125700Y-15981200D02*
X6205700Y-15981200D01*
D11*
X6501414Y-15871676D02*
X6520462Y-15871676D01*
X6539509Y-15881200D01*
X6549033Y-15890724D01*
X6558557Y-15909771D01*
X6568081Y-15947867D01*
X6568081Y-15995486D01*
X6558557Y-16033581D01*
X6549033Y-16052628D01*
X6539509Y-16062152D01*
X6520462Y-16071676D01*
X6501414Y-16071676D01*
X6482367Y-16062152D01*
X6472843Y-16052628D01*
X6463319Y-16033581D01*
X6453795Y-15995486D01*
X6453795Y-15947867D01*
X6463319Y-15909771D01*
X6472843Y-15890724D01*
X6482367Y-15881200D01*
X6501414Y-15871676D01*
X6653795Y-16052628D02*
X6663319Y-16062152D01*
X6653795Y-16071676D01*
X6644271Y-16062152D01*
X6653795Y-16052628D01*
X6653795Y-16071676D01*
X6777605Y-15957390D02*
X6758557Y-15947867D01*
X6749033Y-15938343D01*
X6739509Y-15919295D01*
X6739509Y-15909771D01*
X6749033Y-15890724D01*
X6758557Y-15881200D01*
X6777605Y-15871676D01*
X6815700Y-15871676D01*
X6834748Y-15881200D01*
X6844271Y-15890724D01*
X6853795Y-15909771D01*
X6853795Y-15919295D01*
X6844271Y-15938343D01*
X6834748Y-15947867D01*
X6815700Y-15957390D01*
X6777605Y-15957390D01*
X6758557Y-15966914D01*
X6749033Y-15976438D01*
X6739509Y-15995486D01*
X6739509Y-16033581D01*
X6749033Y-16052628D01*
X6758557Y-16062152D01*
X6777605Y-16071676D01*
X6815700Y-16071676D01*
X6834748Y-16062152D01*
X6844271Y-16052628D01*
X6853795Y-16033581D01*
X6853795Y-15995486D01*
X6844271Y-15976438D01*
X6834748Y-15966914D01*
X6815700Y-15957390D01*
X6977605Y-15871676D02*
X6996652Y-15871676D01*
X7015700Y-15881200D01*
X7025224Y-15890724D01*
X7034748Y-15909771D01*
X7044271Y-15947867D01*
X7044271Y-15995486D01*
X7034748Y-16033581D01*
X7025224Y-16052628D01*
X7015700Y-16062152D01*
X6996652Y-16071676D01*
X6977605Y-16071676D01*
X6958557Y-16062152D01*
X6949033Y-16052628D01*
X6939509Y-16033581D01*
X6929986Y-15995486D01*
X6929986Y-15947867D01*
X6939509Y-15909771D01*
X6949033Y-15890724D01*
X6958557Y-15881200D01*
X6977605Y-15871676D01*
X7168081Y-15871676D02*
X7187128Y-15871676D01*
X7206176Y-15881200D01*
X7215700Y-15890724D01*
X7225224Y-15909771D01*
X7234748Y-15947867D01*
X7234748Y-15995486D01*
X7225224Y-16033581D01*
X7215700Y-16052628D01*
X7206176Y-16062152D01*
X7187128Y-16071676D01*
X7168081Y-16071676D01*
X7149033Y-16062152D01*
X7139509Y-16052628D01*
X7129986Y-16033581D01*
X7120462Y-15995486D01*
X7120462Y-15947867D01*
X7129986Y-15909771D01*
X7139509Y-15890724D01*
X7149033Y-15881200D01*
X7168081Y-15871676D01*
X7320462Y-16071676D02*
X7320462Y-15938343D01*
X7320462Y-15957390D02*
X7329986Y-15947867D01*
X7349033Y-15938343D01*
X7377605Y-15938343D01*
X7396652Y-15947867D01*
X7406176Y-15966914D01*
X7406176Y-16071676D01*
X7406176Y-15966914D02*
X7415700Y-15947867D01*
X7434748Y-15938343D01*
X7463319Y-15938343D01*
X7482367Y-15947867D01*
X7491890Y-15966914D01*
X7491890Y-16071676D01*
X7587128Y-16071676D02*
X7587128Y-15938343D01*
X7587128Y-15957390D02*
X7596652Y-15947867D01*
X7615700Y-15938343D01*
X7644271Y-15938343D01*
X7663319Y-15947867D01*
X7672843Y-15966914D01*
X7672843Y-16071676D01*
X7672843Y-15966914D02*
X7682367Y-15947867D01*
X7701414Y-15938343D01*
X7729986Y-15938343D01*
X7749033Y-15947867D01*
X7758557Y-15966914D01*
X7758557Y-16071676D01*
X8149033Y-15862152D02*
X7977605Y-16119295D01*
X8406176Y-15871676D02*
X8425224Y-15871676D01*
X8444271Y-15881200D01*
X8453795Y-15890724D01*
X8463319Y-15909771D01*
X8472843Y-15947867D01*
X8472843Y-15995486D01*
X8463319Y-16033581D01*
X8453795Y-16052628D01*
X8444271Y-16062152D01*
X8425224Y-16071676D01*
X8406176Y-16071676D01*
X8387128Y-16062152D01*
X8377605Y-16052628D01*
X8368081Y-16033581D01*
X8358557Y-15995486D01*
X8358557Y-15947867D01*
X8368081Y-15909771D01*
X8377605Y-15890724D01*
X8387128Y-15881200D01*
X8406176Y-15871676D01*
X8558557Y-16052628D02*
X8568081Y-16062152D01*
X8558557Y-16071676D01*
X8549033Y-16062152D01*
X8558557Y-16052628D01*
X8558557Y-16071676D01*
X8691890Y-15871676D02*
X8710938Y-15871676D01*
X8729986Y-15881200D01*
X8739510Y-15890724D01*
X8749033Y-15909771D01*
X8758557Y-15947867D01*
X8758557Y-15995486D01*
X8749033Y-16033581D01*
X8739510Y-16052628D01*
X8729986Y-16062152D01*
X8710938Y-16071676D01*
X8691890Y-16071676D01*
X8672843Y-16062152D01*
X8663319Y-16052628D01*
X8653795Y-16033581D01*
X8644271Y-15995486D01*
X8644271Y-15947867D01*
X8653795Y-15909771D01*
X8663319Y-15890724D01*
X8672843Y-15881200D01*
X8691890Y-15871676D01*
X8825224Y-15871676D02*
X8949033Y-15871676D01*
X8882367Y-15947867D01*
X8910938Y-15947867D01*
X8929986Y-15957390D01*
X8939510Y-15966914D01*
X8949033Y-15985962D01*
X8949033Y-16033581D01*
X8939510Y-16052628D01*
X8929986Y-16062152D01*
X8910938Y-16071676D01*
X8853795Y-16071676D01*
X8834748Y-16062152D01*
X8825224Y-16052628D01*
X9139510Y-16071676D02*
X9025224Y-16071676D01*
X9082367Y-16071676D02*
X9082367Y-15871676D01*
X9063319Y-15900248D01*
X9044271Y-15919295D01*
X9025224Y-15928819D01*
X9320462Y-15871676D02*
X9225224Y-15871676D01*
X9215700Y-15966914D01*
X9225224Y-15957390D01*
X9244271Y-15947867D01*
X9291890Y-15947867D01*
X9310938Y-15957390D01*
X9320462Y-15966914D01*
X9329986Y-15985962D01*
X9329986Y-16033581D01*
X9320462Y-16052628D01*
X9310938Y-16062152D01*
X9291890Y-16071676D01*
X9244271Y-16071676D01*
X9225224Y-16062152D01*
X9215700Y-16052628D01*
X9406176Y-15871676D02*
X9406176Y-15909771D01*
X9482367Y-15871676D02*
X9482367Y-15909771D01*
X9777605Y-16147867D02*
X9768081Y-16138343D01*
X9749033Y-16109771D01*
X9739510Y-16090724D01*
X9729986Y-16062152D01*
X9720462Y-16014533D01*
X9720462Y-15976438D01*
X9729986Y-15928819D01*
X9739510Y-15900248D01*
X9749033Y-15881200D01*
X9768081Y-15852628D01*
X9777605Y-15843105D01*
X9958557Y-16071676D02*
X9844271Y-16071676D01*
X9901414Y-16071676D02*
X9901414Y-15871676D01*
X9882367Y-15900248D01*
X9863319Y-15919295D01*
X9844271Y-15928819D01*
X10129986Y-15871676D02*
X10091890Y-15871676D01*
X10072843Y-15881200D01*
X10063319Y-15890724D01*
X10044271Y-15919295D01*
X10034748Y-15957390D01*
X10034748Y-16033581D01*
X10044271Y-16052628D01*
X10053795Y-16062152D01*
X10072843Y-16071676D01*
X10110938Y-16071676D01*
X10129986Y-16062152D01*
X10139510Y-16052628D01*
X10149033Y-16033581D01*
X10149033Y-15985962D01*
X10139510Y-15966914D01*
X10129986Y-15957390D01*
X10110938Y-15947867D01*
X10072843Y-15947867D01*
X10053795Y-15957390D01*
X10044271Y-15966914D01*
X10034748Y-15985962D01*
X10387129Y-16071676D02*
X10387129Y-15871676D01*
X10472843Y-16071676D02*
X10472843Y-15966914D01*
X10463319Y-15947867D01*
X10444271Y-15938343D01*
X10415700Y-15938343D01*
X10396652Y-15947867D01*
X10387129Y-15957390D01*
X10596652Y-16071676D02*
X10577605Y-16062152D01*
X10568081Y-16052628D01*
X10558557Y-16033581D01*
X10558557Y-15976438D01*
X10568081Y-15957390D01*
X10577605Y-15947867D01*
X10596652Y-15938343D01*
X10625224Y-15938343D01*
X10644271Y-15947867D01*
X10653795Y-15957390D01*
X10663319Y-15976438D01*
X10663319Y-16033581D01*
X10653795Y-16052628D01*
X10644271Y-16062152D01*
X10625224Y-16071676D01*
X10596652Y-16071676D01*
X10777605Y-16071676D02*
X10758557Y-16062152D01*
X10749033Y-16043105D01*
X10749033Y-15871676D01*
X10929986Y-16062152D02*
X10910938Y-16071676D01*
X10872843Y-16071676D01*
X10853795Y-16062152D01*
X10844271Y-16043105D01*
X10844271Y-15966914D01*
X10853795Y-15947867D01*
X10872843Y-15938343D01*
X10910938Y-15938343D01*
X10929986Y-15947867D01*
X10939510Y-15966914D01*
X10939510Y-15985962D01*
X10844271Y-16005009D01*
X11015700Y-16062152D02*
X11034748Y-16071676D01*
X11072843Y-16071676D01*
X11091890Y-16062152D01*
X11101414Y-16043105D01*
X11101414Y-16033581D01*
X11091890Y-16014533D01*
X11072843Y-16005009D01*
X11044271Y-16005009D01*
X11025224Y-15995486D01*
X11015700Y-15976438D01*
X11015700Y-15966914D01*
X11025224Y-15947867D01*
X11044271Y-15938343D01*
X11072843Y-15938343D01*
X11091890Y-15947867D01*
X11168081Y-16147867D02*
X11177605Y-16138343D01*
X11196652Y-16109771D01*
X11206176Y-16090724D01*
X11215700Y-16062152D01*
X11225224Y-16014533D01*
X11225224Y-15976438D01*
X11215700Y-15928819D01*
X11206176Y-15900248D01*
X11196652Y-15881200D01*
X11177605Y-15852628D01*
X11168081Y-15843105D01*
D15*
X6191056Y-16280556D02*
X6191056Y-16209844D01*
X6120344Y-16209844D01*
X6120344Y-16280556D01*
X6191056Y-16280556D01*
D11*
X6568081Y-16335676D02*
X6453795Y-16335676D01*
X6510938Y-16335676D02*
X6510938Y-16135676D01*
X6491890Y-16164248D01*
X6472843Y-16183295D01*
X6453795Y-16192819D01*
X6653795Y-16316628D02*
X6663319Y-16326152D01*
X6653795Y-16335676D01*
X6644271Y-16326152D01*
X6653795Y-16316628D01*
X6653795Y-16335676D01*
X6787128Y-16135676D02*
X6806176Y-16135676D01*
X6825224Y-16145200D01*
X6834748Y-16154724D01*
X6844271Y-16173771D01*
X6853795Y-16211867D01*
X6853795Y-16259486D01*
X6844271Y-16297581D01*
X6834748Y-16316628D01*
X6825224Y-16326152D01*
X6806176Y-16335676D01*
X6787128Y-16335676D01*
X6768081Y-16326152D01*
X6758557Y-16316628D01*
X6749033Y-16297581D01*
X6739509Y-16259486D01*
X6739509Y-16211867D01*
X6749033Y-16173771D01*
X6758557Y-16154724D01*
X6768081Y-16145200D01*
X6787128Y-16135676D01*
X6977605Y-16135676D02*
X6996652Y-16135676D01*
X7015700Y-16145200D01*
X7025224Y-16154724D01*
X7034748Y-16173771D01*
X7044271Y-16211867D01*
X7044271Y-16259486D01*
X7034748Y-16297581D01*
X7025224Y-16316628D01*
X7015700Y-16326152D01*
X6996652Y-16335676D01*
X6977605Y-16335676D01*
X6958557Y-16326152D01*
X6949033Y-16316628D01*
X6939509Y-16297581D01*
X6929986Y-16259486D01*
X6929986Y-16211867D01*
X6939509Y-16173771D01*
X6949033Y-16154724D01*
X6958557Y-16145200D01*
X6977605Y-16135676D01*
X7168081Y-16135676D02*
X7187128Y-16135676D01*
X7206176Y-16145200D01*
X7215700Y-16154724D01*
X7225224Y-16173771D01*
X7234748Y-16211867D01*
X7234748Y-16259486D01*
X7225224Y-16297581D01*
X7215700Y-16316628D01*
X7206176Y-16326152D01*
X7187128Y-16335676D01*
X7168081Y-16335676D01*
X7149033Y-16326152D01*
X7139509Y-16316628D01*
X7129986Y-16297581D01*
X7120462Y-16259486D01*
X7120462Y-16211867D01*
X7129986Y-16173771D01*
X7139509Y-16154724D01*
X7149033Y-16145200D01*
X7168081Y-16135676D01*
X7320462Y-16335676D02*
X7320462Y-16202343D01*
X7320462Y-16221390D02*
X7329986Y-16211867D01*
X7349033Y-16202343D01*
X7377605Y-16202343D01*
X7396652Y-16211867D01*
X7406176Y-16230914D01*
X7406176Y-16335676D01*
X7406176Y-16230914D02*
X7415700Y-16211867D01*
X7434748Y-16202343D01*
X7463319Y-16202343D01*
X7482367Y-16211867D01*
X7491890Y-16230914D01*
X7491890Y-16335676D01*
X7587128Y-16335676D02*
X7587128Y-16202343D01*
X7587128Y-16221390D02*
X7596652Y-16211867D01*
X7615700Y-16202343D01*
X7644271Y-16202343D01*
X7663319Y-16211867D01*
X7672843Y-16230914D01*
X7672843Y-16335676D01*
X7672843Y-16230914D02*
X7682367Y-16211867D01*
X7701414Y-16202343D01*
X7729986Y-16202343D01*
X7749033Y-16211867D01*
X7758557Y-16230914D01*
X7758557Y-16335676D01*
X8149033Y-16126152D02*
X7977605Y-16383295D01*
X8406176Y-16135676D02*
X8425224Y-16135676D01*
X8444271Y-16145200D01*
X8453795Y-16154724D01*
X8463319Y-16173771D01*
X8472843Y-16211867D01*
X8472843Y-16259486D01*
X8463319Y-16297581D01*
X8453795Y-16316628D01*
X8444271Y-16326152D01*
X8425224Y-16335676D01*
X8406176Y-16335676D01*
X8387128Y-16326152D01*
X8377605Y-16316628D01*
X8368081Y-16297581D01*
X8358557Y-16259486D01*
X8358557Y-16211867D01*
X8368081Y-16173771D01*
X8377605Y-16154724D01*
X8387128Y-16145200D01*
X8406176Y-16135676D01*
X8558557Y-16316628D02*
X8568081Y-16326152D01*
X8558557Y-16335676D01*
X8549033Y-16326152D01*
X8558557Y-16316628D01*
X8558557Y-16335676D01*
X8691890Y-16135676D02*
X8710938Y-16135676D01*
X8729986Y-16145200D01*
X8739510Y-16154724D01*
X8749033Y-16173771D01*
X8758557Y-16211867D01*
X8758557Y-16259486D01*
X8749033Y-16297581D01*
X8739510Y-16316628D01*
X8729986Y-16326152D01*
X8710938Y-16335676D01*
X8691890Y-16335676D01*
X8672843Y-16326152D01*
X8663319Y-16316628D01*
X8653795Y-16297581D01*
X8644271Y-16259486D01*
X8644271Y-16211867D01*
X8653795Y-16173771D01*
X8663319Y-16154724D01*
X8672843Y-16145200D01*
X8691890Y-16135676D01*
X8825224Y-16135676D02*
X8949033Y-16135676D01*
X8882367Y-16211867D01*
X8910938Y-16211867D01*
X8929986Y-16221390D01*
X8939510Y-16230914D01*
X8949033Y-16249962D01*
X8949033Y-16297581D01*
X8939510Y-16316628D01*
X8929986Y-16326152D01*
X8910938Y-16335676D01*
X8853795Y-16335676D01*
X8834748Y-16326152D01*
X8825224Y-16316628D01*
X9044271Y-16335676D02*
X9082367Y-16335676D01*
X9101414Y-16326152D01*
X9110938Y-16316628D01*
X9129986Y-16288057D01*
X9139510Y-16249962D01*
X9139510Y-16173771D01*
X9129986Y-16154724D01*
X9120462Y-16145200D01*
X9101414Y-16135676D01*
X9063319Y-16135676D01*
X9044271Y-16145200D01*
X9034748Y-16154724D01*
X9025224Y-16173771D01*
X9025224Y-16221390D01*
X9034748Y-16240438D01*
X9044271Y-16249962D01*
X9063319Y-16259486D01*
X9101414Y-16259486D01*
X9120462Y-16249962D01*
X9129986Y-16240438D01*
X9139510Y-16221390D01*
X9310938Y-16202343D02*
X9310938Y-16335676D01*
X9263319Y-16126152D02*
X9215700Y-16269009D01*
X9339510Y-16269009D01*
X9406176Y-16135676D02*
X9406176Y-16173771D01*
X9482367Y-16135676D02*
X9482367Y-16173771D01*
X9777605Y-16411867D02*
X9768081Y-16402343D01*
X9749033Y-16373771D01*
X9739510Y-16354724D01*
X9729986Y-16326152D01*
X9720462Y-16278533D01*
X9720462Y-16240438D01*
X9729986Y-16192819D01*
X9739510Y-16164248D01*
X9749033Y-16145200D01*
X9768081Y-16116628D01*
X9777605Y-16107105D01*
X9949033Y-16135676D02*
X9853795Y-16135676D01*
X9844271Y-16230914D01*
X9853795Y-16221390D01*
X9872843Y-16211867D01*
X9920462Y-16211867D01*
X9939510Y-16221390D01*
X9949033Y-16230914D01*
X9958557Y-16249962D01*
X9958557Y-16297581D01*
X9949033Y-16316628D01*
X9939510Y-16326152D01*
X9920462Y-16335676D01*
X9872843Y-16335676D01*
X9853795Y-16326152D01*
X9844271Y-16316628D01*
X10139510Y-16135676D02*
X10044271Y-16135676D01*
X10034748Y-16230914D01*
X10044271Y-16221390D01*
X10063319Y-16211867D01*
X10110938Y-16211867D01*
X10129986Y-16221390D01*
X10139510Y-16230914D01*
X10149033Y-16249962D01*
X10149033Y-16297581D01*
X10139510Y-16316628D01*
X10129986Y-16326152D01*
X10110938Y-16335676D01*
X10063319Y-16335676D01*
X10044271Y-16326152D01*
X10034748Y-16316628D01*
X10387129Y-16335676D02*
X10387129Y-16135676D01*
X10472843Y-16335676D02*
X10472843Y-16230914D01*
X10463319Y-16211867D01*
X10444271Y-16202343D01*
X10415700Y-16202343D01*
X10396652Y-16211867D01*
X10387129Y-16221390D01*
X10596652Y-16335676D02*
X10577605Y-16326152D01*
X10568081Y-16316628D01*
X10558557Y-16297581D01*
X10558557Y-16240438D01*
X10568081Y-16221390D01*
X10577605Y-16211867D01*
X10596652Y-16202343D01*
X10625224Y-16202343D01*
X10644271Y-16211867D01*
X10653795Y-16221390D01*
X10663319Y-16240438D01*
X10663319Y-16297581D01*
X10653795Y-16316628D01*
X10644271Y-16326152D01*
X10625224Y-16335676D01*
X10596652Y-16335676D01*
X10777605Y-16335676D02*
X10758557Y-16326152D01*
X10749033Y-16307105D01*
X10749033Y-16135676D01*
X10929986Y-16326152D02*
X10910938Y-16335676D01*
X10872843Y-16335676D01*
X10853795Y-16326152D01*
X10844271Y-16307105D01*
X10844271Y-16230914D01*
X10853795Y-16211867D01*
X10872843Y-16202343D01*
X10910938Y-16202343D01*
X10929986Y-16211867D01*
X10939510Y-16230914D01*
X10939510Y-16249962D01*
X10844271Y-16269009D01*
X11015700Y-16326152D02*
X11034748Y-16335676D01*
X11072843Y-16335676D01*
X11091890Y-16326152D01*
X11101414Y-16307105D01*
X11101414Y-16297581D01*
X11091890Y-16278533D01*
X11072843Y-16269009D01*
X11044271Y-16269009D01*
X11025224Y-16259486D01*
X11015700Y-16240438D01*
X11015700Y-16230914D01*
X11025224Y-16211867D01*
X11044271Y-16202343D01*
X11072843Y-16202343D01*
X11091890Y-16211867D01*
X11168081Y-16411867D02*
X11177605Y-16402343D01*
X11196652Y-16373771D01*
X11206176Y-16354724D01*
X11215700Y-16326152D01*
X11225224Y-16278533D01*
X11225224Y-16240438D01*
X11215700Y-16192819D01*
X11206176Y-16164248D01*
X11196652Y-16145200D01*
X11177605Y-16116628D01*
X11168081Y-16107105D01*
D16*
X6150700Y-16564200D02*
X6205700Y-16509200D01*
X6150700Y-16454200D01*
X6095700Y-16509200D01*
X6150700Y-16564200D01*
D11*
X6568081Y-16599676D02*
X6453795Y-16599676D01*
X6510938Y-16599676D02*
X6510938Y-16399676D01*
X6491890Y-16428248D01*
X6472843Y-16447295D01*
X6453795Y-16456819D01*
X6653795Y-16580628D02*
X6663319Y-16590152D01*
X6653795Y-16599676D01*
X6644271Y-16590152D01*
X6653795Y-16580628D01*
X6653795Y-16599676D01*
X6853795Y-16599676D02*
X6739509Y-16599676D01*
X6796652Y-16599676D02*
X6796652Y-16399676D01*
X6777605Y-16428248D01*
X6758557Y-16447295D01*
X6739509Y-16456819D01*
X6977605Y-16399676D02*
X6996652Y-16399676D01*
X7015700Y-16409200D01*
X7025224Y-16418724D01*
X7034748Y-16437771D01*
X7044271Y-16475867D01*
X7044271Y-16523486D01*
X7034748Y-16561581D01*
X7025224Y-16580628D01*
X7015700Y-16590152D01*
X6996652Y-16599676D01*
X6977605Y-16599676D01*
X6958557Y-16590152D01*
X6949033Y-16580628D01*
X6939509Y-16561581D01*
X6929986Y-16523486D01*
X6929986Y-16475867D01*
X6939509Y-16437771D01*
X6949033Y-16418724D01*
X6958557Y-16409200D01*
X6977605Y-16399676D01*
X7168081Y-16399676D02*
X7187128Y-16399676D01*
X7206176Y-16409200D01*
X7215700Y-16418724D01*
X7225224Y-16437771D01*
X7234748Y-16475867D01*
X7234748Y-16523486D01*
X7225224Y-16561581D01*
X7215700Y-16580628D01*
X7206176Y-16590152D01*
X7187128Y-16599676D01*
X7168081Y-16599676D01*
X7149033Y-16590152D01*
X7139509Y-16580628D01*
X7129986Y-16561581D01*
X7120462Y-16523486D01*
X7120462Y-16475867D01*
X7129986Y-16437771D01*
X7139509Y-16418724D01*
X7149033Y-16409200D01*
X7168081Y-16399676D01*
X7320462Y-16599676D02*
X7320462Y-16466343D01*
X7320462Y-16485390D02*
X7329986Y-16475867D01*
X7349033Y-16466343D01*
X7377605Y-16466343D01*
X7396652Y-16475867D01*
X7406176Y-16494914D01*
X7406176Y-16599676D01*
X7406176Y-16494914D02*
X7415700Y-16475867D01*
X7434748Y-16466343D01*
X7463319Y-16466343D01*
X7482367Y-16475867D01*
X7491890Y-16494914D01*
X7491890Y-16599676D01*
X7587128Y-16599676D02*
X7587128Y-16466343D01*
X7587128Y-16485390D02*
X7596652Y-16475867D01*
X7615700Y-16466343D01*
X7644271Y-16466343D01*
X7663319Y-16475867D01*
X7672843Y-16494914D01*
X7672843Y-16599676D01*
X7672843Y-16494914D02*
X7682367Y-16475867D01*
X7701414Y-16466343D01*
X7729986Y-16466343D01*
X7749033Y-16475867D01*
X7758557Y-16494914D01*
X7758557Y-16599676D01*
X8149033Y-16390152D02*
X7977605Y-16647295D01*
X8406176Y-16399676D02*
X8425224Y-16399676D01*
X8444271Y-16409200D01*
X8453795Y-16418724D01*
X8463319Y-16437771D01*
X8472843Y-16475867D01*
X8472843Y-16523486D01*
X8463319Y-16561581D01*
X8453795Y-16580628D01*
X8444271Y-16590152D01*
X8425224Y-16599676D01*
X8406176Y-16599676D01*
X8387128Y-16590152D01*
X8377605Y-16580628D01*
X8368081Y-16561581D01*
X8358557Y-16523486D01*
X8358557Y-16475867D01*
X8368081Y-16437771D01*
X8377605Y-16418724D01*
X8387128Y-16409200D01*
X8406176Y-16399676D01*
X8558557Y-16580628D02*
X8568081Y-16590152D01*
X8558557Y-16599676D01*
X8549033Y-16590152D01*
X8558557Y-16580628D01*
X8558557Y-16599676D01*
X8691890Y-16399676D02*
X8710938Y-16399676D01*
X8729986Y-16409200D01*
X8739510Y-16418724D01*
X8749033Y-16437771D01*
X8758557Y-16475867D01*
X8758557Y-16523486D01*
X8749033Y-16561581D01*
X8739510Y-16580628D01*
X8729986Y-16590152D01*
X8710938Y-16599676D01*
X8691890Y-16599676D01*
X8672843Y-16590152D01*
X8663319Y-16580628D01*
X8653795Y-16561581D01*
X8644271Y-16523486D01*
X8644271Y-16475867D01*
X8653795Y-16437771D01*
X8663319Y-16418724D01*
X8672843Y-16409200D01*
X8691890Y-16399676D01*
X8929986Y-16466343D02*
X8929986Y-16599676D01*
X8882367Y-16390152D02*
X8834748Y-16533009D01*
X8958557Y-16533009D01*
X9015700Y-16399676D02*
X9139510Y-16399676D01*
X9072843Y-16475867D01*
X9101414Y-16475867D01*
X9120462Y-16485390D01*
X9129986Y-16494914D01*
X9139510Y-16513962D01*
X9139510Y-16561581D01*
X9129986Y-16580628D01*
X9120462Y-16590152D01*
X9101414Y-16599676D01*
X9044271Y-16599676D01*
X9025224Y-16590152D01*
X9015700Y-16580628D01*
X9206176Y-16399676D02*
X9329986Y-16399676D01*
X9263319Y-16475867D01*
X9291890Y-16475867D01*
X9310938Y-16485390D01*
X9320462Y-16494914D01*
X9329986Y-16513962D01*
X9329986Y-16561581D01*
X9320462Y-16580628D01*
X9310938Y-16590152D01*
X9291890Y-16599676D01*
X9234748Y-16599676D01*
X9215700Y-16590152D01*
X9206176Y-16580628D01*
X9406176Y-16399676D02*
X9406176Y-16437771D01*
X9482367Y-16399676D02*
X9482367Y-16437771D01*
X9777605Y-16675867D02*
X9768081Y-16666343D01*
X9749033Y-16637771D01*
X9739510Y-16618724D01*
X9729986Y-16590152D01*
X9720462Y-16542533D01*
X9720462Y-16504438D01*
X9729986Y-16456819D01*
X9739510Y-16428248D01*
X9749033Y-16409200D01*
X9768081Y-16380628D01*
X9777605Y-16371105D01*
X9891890Y-16399676D02*
X9910938Y-16399676D01*
X9929986Y-16409200D01*
X9939510Y-16418724D01*
X9949033Y-16437771D01*
X9958557Y-16475867D01*
X9958557Y-16523486D01*
X9949033Y-16561581D01*
X9939510Y-16580628D01*
X9929986Y-16590152D01*
X9910938Y-16599676D01*
X9891890Y-16599676D01*
X9872843Y-16590152D01*
X9863319Y-16580628D01*
X9853795Y-16561581D01*
X9844271Y-16523486D01*
X9844271Y-16475867D01*
X9853795Y-16437771D01*
X9863319Y-16418724D01*
X9872843Y-16409200D01*
X9891890Y-16399676D01*
X10196652Y-16599676D02*
X10196652Y-16399676D01*
X10282367Y-16599676D02*
X10282367Y-16494914D01*
X10272843Y-16475867D01*
X10253795Y-16466343D01*
X10225224Y-16466343D01*
X10206176Y-16475867D01*
X10196652Y-16485390D01*
X10406176Y-16599676D02*
X10387129Y-16590152D01*
X10377605Y-16580628D01*
X10368081Y-16561581D01*
X10368081Y-16504438D01*
X10377605Y-16485390D01*
X10387129Y-16475867D01*
X10406176Y-16466343D01*
X10434748Y-16466343D01*
X10453795Y-16475867D01*
X10463319Y-16485390D01*
X10472843Y-16504438D01*
X10472843Y-16561581D01*
X10463319Y-16580628D01*
X10453795Y-16590152D01*
X10434748Y-16599676D01*
X10406176Y-16599676D01*
X10587129Y-16599676D02*
X10568081Y-16590152D01*
X10558557Y-16571105D01*
X10558557Y-16399676D01*
X10739510Y-16590152D02*
X10720462Y-16599676D01*
X10682367Y-16599676D01*
X10663319Y-16590152D01*
X10653795Y-16571105D01*
X10653795Y-16494914D01*
X10663319Y-16475867D01*
X10682367Y-16466343D01*
X10720462Y-16466343D01*
X10739510Y-16475867D01*
X10749033Y-16494914D01*
X10749033Y-16513962D01*
X10653795Y-16533009D01*
X10825224Y-16590152D02*
X10844271Y-16599676D01*
X10882367Y-16599676D01*
X10901414Y-16590152D01*
X10910938Y-16571105D01*
X10910938Y-16561581D01*
X10901414Y-16542533D01*
X10882367Y-16533009D01*
X10853795Y-16533009D01*
X10834748Y-16523486D01*
X10825224Y-16504438D01*
X10825224Y-16494914D01*
X10834748Y-16475867D01*
X10853795Y-16466343D01*
X10882367Y-16466343D01*
X10901414Y-16475867D01*
X11149033Y-16523486D02*
X11301414Y-16523486D01*
X11225224Y-16599676D02*
X11225224Y-16447295D01*
X11539509Y-16418724D02*
X11549033Y-16409200D01*
X11568081Y-16399676D01*
X11615700Y-16399676D01*
X11634748Y-16409200D01*
X11644271Y-16418724D01*
X11653795Y-16437771D01*
X11653795Y-16456819D01*
X11644271Y-16485390D01*
X11529986Y-16599676D01*
X11653795Y-16599676D01*
X11825224Y-16466343D02*
X11825224Y-16599676D01*
X11777605Y-16390152D02*
X11729986Y-16533009D01*
X11853795Y-16533009D01*
X12072843Y-16590152D02*
X12091890Y-16599676D01*
X12129986Y-16599676D01*
X12149033Y-16590152D01*
X12158557Y-16571105D01*
X12158557Y-16561581D01*
X12149033Y-16542533D01*
X12129986Y-16533009D01*
X12101414Y-16533009D01*
X12082367Y-16523486D01*
X12072843Y-16504438D01*
X12072843Y-16494914D01*
X12082367Y-16475867D01*
X12101414Y-16466343D01*
X12129986Y-16466343D01*
X12149033Y-16475867D01*
X12272843Y-16599676D02*
X12253795Y-16590152D01*
X12244271Y-16571105D01*
X12244271Y-16399676D01*
X12377605Y-16599676D02*
X12358557Y-16590152D01*
X12349033Y-16580628D01*
X12339509Y-16561581D01*
X12339509Y-16504438D01*
X12349033Y-16485390D01*
X12358557Y-16475867D01*
X12377605Y-16466343D01*
X12406176Y-16466343D01*
X12425224Y-16475867D01*
X12434748Y-16485390D01*
X12444271Y-16504438D01*
X12444271Y-16561581D01*
X12434748Y-16580628D01*
X12425224Y-16590152D01*
X12406176Y-16599676D01*
X12377605Y-16599676D01*
X12501414Y-16466343D02*
X12577605Y-16466343D01*
X12529986Y-16399676D02*
X12529986Y-16571105D01*
X12539509Y-16590152D01*
X12558557Y-16599676D01*
X12577605Y-16599676D01*
X12634748Y-16590152D02*
X12653795Y-16599676D01*
X12691890Y-16599676D01*
X12710938Y-16590152D01*
X12720462Y-16571105D01*
X12720462Y-16561581D01*
X12710938Y-16542533D01*
X12691890Y-16533009D01*
X12663319Y-16533009D01*
X12644271Y-16523486D01*
X12634748Y-16504438D01*
X12634748Y-16494914D01*
X12644271Y-16475867D01*
X12663319Y-16466343D01*
X12691890Y-16466343D01*
X12710938Y-16475867D01*
X12787128Y-16675867D02*
X12796652Y-16666343D01*
X12815700Y-16637771D01*
X12825224Y-16618724D01*
X12834748Y-16590152D01*
X12844271Y-16542533D01*
X12844271Y-16504438D01*
X12834748Y-16456819D01*
X12825224Y-16428248D01*
X12815700Y-16409200D01*
X12796652Y-16380628D01*
X12787128Y-16371105D01*
D17*
X6086700Y-16713700D02*
X6205700Y-16832700D01*
X6205700Y-16713700D02*
X6086700Y-16832700D01*
X6205700Y-16773200D02*
G75*
G03*
X6205700Y-16773200I-59500J0D01*
G01*
D11*
X6568081Y-16863676D02*
X6453795Y-16863676D01*
X6510938Y-16863676D02*
X6510938Y-16663676D01*
X6491890Y-16692248D01*
X6472843Y-16711295D01*
X6453795Y-16720819D01*
X6653795Y-16844629D02*
X6663319Y-16854152D01*
X6653795Y-16863676D01*
X6644271Y-16854152D01*
X6653795Y-16844629D01*
X6653795Y-16863676D01*
X6853795Y-16863676D02*
X6739509Y-16863676D01*
X6796652Y-16863676D02*
X6796652Y-16663676D01*
X6777605Y-16692248D01*
X6758557Y-16711295D01*
X6739509Y-16720819D01*
X6949033Y-16863676D02*
X6987128Y-16863676D01*
X7006176Y-16854152D01*
X7015700Y-16844629D01*
X7034748Y-16816057D01*
X7044271Y-16777962D01*
X7044271Y-16701771D01*
X7034748Y-16682724D01*
X7025224Y-16673200D01*
X7006176Y-16663676D01*
X6968081Y-16663676D01*
X6949033Y-16673200D01*
X6939509Y-16682724D01*
X6929986Y-16701771D01*
X6929986Y-16749390D01*
X6939509Y-16768438D01*
X6949033Y-16777962D01*
X6968081Y-16787486D01*
X7006176Y-16787486D01*
X7025224Y-16777962D01*
X7034748Y-16768438D01*
X7044271Y-16749390D01*
X7168081Y-16663676D02*
X7187128Y-16663676D01*
X7206176Y-16673200D01*
X7215700Y-16682724D01*
X7225224Y-16701771D01*
X7234748Y-16739867D01*
X7234748Y-16787486D01*
X7225224Y-16825581D01*
X7215700Y-16844629D01*
X7206176Y-16854152D01*
X7187128Y-16863676D01*
X7168081Y-16863676D01*
X7149033Y-16854152D01*
X7139509Y-16844629D01*
X7129986Y-16825581D01*
X7120462Y-16787486D01*
X7120462Y-16739867D01*
X7129986Y-16701771D01*
X7139509Y-16682724D01*
X7149033Y-16673200D01*
X7168081Y-16663676D01*
X7320462Y-16863676D02*
X7320462Y-16730343D01*
X7320462Y-16749390D02*
X7329986Y-16739867D01*
X7349033Y-16730343D01*
X7377605Y-16730343D01*
X7396652Y-16739867D01*
X7406176Y-16758914D01*
X7406176Y-16863676D01*
X7406176Y-16758914D02*
X7415700Y-16739867D01*
X7434748Y-16730343D01*
X7463319Y-16730343D01*
X7482367Y-16739867D01*
X7491890Y-16758914D01*
X7491890Y-16863676D01*
X7587128Y-16863676D02*
X7587128Y-16730343D01*
X7587128Y-16749390D02*
X7596652Y-16739867D01*
X7615700Y-16730343D01*
X7644271Y-16730343D01*
X7663319Y-16739867D01*
X7672843Y-16758914D01*
X7672843Y-16863676D01*
X7672843Y-16758914D02*
X7682367Y-16739867D01*
X7701414Y-16730343D01*
X7729986Y-16730343D01*
X7749033Y-16739867D01*
X7758557Y-16758914D01*
X7758557Y-16863676D01*
X8149033Y-16654152D02*
X7977605Y-16911295D01*
X8406176Y-16663676D02*
X8425224Y-16663676D01*
X8444271Y-16673200D01*
X8453795Y-16682724D01*
X8463319Y-16701771D01*
X8472843Y-16739867D01*
X8472843Y-16787486D01*
X8463319Y-16825581D01*
X8453795Y-16844629D01*
X8444271Y-16854152D01*
X8425224Y-16863676D01*
X8406176Y-16863676D01*
X8387128Y-16854152D01*
X8377605Y-16844629D01*
X8368081Y-16825581D01*
X8358557Y-16787486D01*
X8358557Y-16739867D01*
X8368081Y-16701771D01*
X8377605Y-16682724D01*
X8387128Y-16673200D01*
X8406176Y-16663676D01*
X8558557Y-16844629D02*
X8568081Y-16854152D01*
X8558557Y-16863676D01*
X8549033Y-16854152D01*
X8558557Y-16844629D01*
X8558557Y-16863676D01*
X8691890Y-16663676D02*
X8710938Y-16663676D01*
X8729986Y-16673200D01*
X8739510Y-16682724D01*
X8749033Y-16701771D01*
X8758557Y-16739867D01*
X8758557Y-16787486D01*
X8749033Y-16825581D01*
X8739510Y-16844629D01*
X8729986Y-16854152D01*
X8710938Y-16863676D01*
X8691890Y-16863676D01*
X8672843Y-16854152D01*
X8663319Y-16844629D01*
X8653795Y-16825581D01*
X8644271Y-16787486D01*
X8644271Y-16739867D01*
X8653795Y-16701771D01*
X8663319Y-16682724D01*
X8672843Y-16673200D01*
X8691890Y-16663676D01*
X8929986Y-16730343D02*
X8929986Y-16863676D01*
X8882367Y-16654152D02*
X8834748Y-16797010D01*
X8958557Y-16797010D01*
X9120462Y-16663676D02*
X9082367Y-16663676D01*
X9063319Y-16673200D01*
X9053795Y-16682724D01*
X9034748Y-16711295D01*
X9025224Y-16749390D01*
X9025224Y-16825581D01*
X9034748Y-16844629D01*
X9044271Y-16854152D01*
X9063319Y-16863676D01*
X9101414Y-16863676D01*
X9120462Y-16854152D01*
X9129986Y-16844629D01*
X9139510Y-16825581D01*
X9139510Y-16777962D01*
X9129986Y-16758914D01*
X9120462Y-16749390D01*
X9101414Y-16739867D01*
X9063319Y-16739867D01*
X9044271Y-16749390D01*
X9034748Y-16758914D01*
X9025224Y-16777962D01*
X9234748Y-16863676D02*
X9272843Y-16863676D01*
X9291890Y-16854152D01*
X9301414Y-16844629D01*
X9320462Y-16816057D01*
X9329986Y-16777962D01*
X9329986Y-16701771D01*
X9320462Y-16682724D01*
X9310938Y-16673200D01*
X9291890Y-16663676D01*
X9253795Y-16663676D01*
X9234748Y-16673200D01*
X9225224Y-16682724D01*
X9215700Y-16701771D01*
X9215700Y-16749390D01*
X9225224Y-16768438D01*
X9234748Y-16777962D01*
X9253795Y-16787486D01*
X9291890Y-16787486D01*
X9310938Y-16777962D01*
X9320462Y-16768438D01*
X9329986Y-16749390D01*
X9406176Y-16663676D02*
X9406176Y-16701771D01*
X9482367Y-16663676D02*
X9482367Y-16701771D01*
X9777605Y-16939867D02*
X9768081Y-16930343D01*
X9749033Y-16901771D01*
X9739510Y-16882724D01*
X9729986Y-16854152D01*
X9720462Y-16806533D01*
X9720462Y-16768438D01*
X9729986Y-16720819D01*
X9739510Y-16692248D01*
X9749033Y-16673200D01*
X9768081Y-16644628D01*
X9777605Y-16635105D01*
X9958557Y-16863676D02*
X9844271Y-16863676D01*
X9901414Y-16863676D02*
X9901414Y-16663676D01*
X9882367Y-16692248D01*
X9863319Y-16711295D01*
X9844271Y-16720819D01*
X10034748Y-16682724D02*
X10044271Y-16673200D01*
X10063319Y-16663676D01*
X10110938Y-16663676D01*
X10129986Y-16673200D01*
X10139510Y-16682724D01*
X10149033Y-16701771D01*
X10149033Y-16720819D01*
X10139510Y-16749390D01*
X10025224Y-16863676D01*
X10149033Y-16863676D01*
X10387129Y-16863676D02*
X10387129Y-16663676D01*
X10472843Y-16863676D02*
X10472843Y-16758914D01*
X10463319Y-16739867D01*
X10444271Y-16730343D01*
X10415700Y-16730343D01*
X10396652Y-16739867D01*
X10387129Y-16749390D01*
X10596652Y-16863676D02*
X10577605Y-16854152D01*
X10568081Y-16844629D01*
X10558557Y-16825581D01*
X10558557Y-16768438D01*
X10568081Y-16749390D01*
X10577605Y-16739867D01*
X10596652Y-16730343D01*
X10625224Y-16730343D01*
X10644271Y-16739867D01*
X10653795Y-16749390D01*
X10663319Y-16768438D01*
X10663319Y-16825581D01*
X10653795Y-16844629D01*
X10644271Y-16854152D01*
X10625224Y-16863676D01*
X10596652Y-16863676D01*
X10777605Y-16863676D02*
X10758557Y-16854152D01*
X10749033Y-16835105D01*
X10749033Y-16663676D01*
X10929986Y-16854152D02*
X10910938Y-16863676D01*
X10872843Y-16863676D01*
X10853795Y-16854152D01*
X10844271Y-16835105D01*
X10844271Y-16758914D01*
X10853795Y-16739867D01*
X10872843Y-16730343D01*
X10910938Y-16730343D01*
X10929986Y-16739867D01*
X10939510Y-16758914D01*
X10939510Y-16777962D01*
X10844271Y-16797010D01*
X11015700Y-16854152D02*
X11034748Y-16863676D01*
X11072843Y-16863676D01*
X11091890Y-16854152D01*
X11101414Y-16835105D01*
X11101414Y-16825581D01*
X11091890Y-16806533D01*
X11072843Y-16797010D01*
X11044271Y-16797010D01*
X11025224Y-16787486D01*
X11015700Y-16768438D01*
X11015700Y-16758914D01*
X11025224Y-16739867D01*
X11044271Y-16730343D01*
X11072843Y-16730343D01*
X11091890Y-16739867D01*
X11168081Y-16939867D02*
X11177605Y-16930343D01*
X11196652Y-16901771D01*
X11206176Y-16882724D01*
X11215700Y-16854152D01*
X11225224Y-16806533D01*
X11225224Y-16768438D01*
X11215700Y-16720819D01*
X11206176Y-16692248D01*
X11196652Y-16673200D01*
X11177605Y-16644628D01*
X11168081Y-16635105D01*
D18*
X6075700Y-16972200D02*
X6205700Y-17102200D01*
X6205700Y-16972200D02*
X6075700Y-17102200D01*
X6140700Y-16972200D02*
X6140700Y-17102200D01*
X6075700Y-17037200D02*
X6205700Y-17037200D01*
D11*
X6568081Y-17127676D02*
X6453795Y-17127676D01*
X6510938Y-17127676D02*
X6510938Y-16927676D01*
X6491890Y-16956248D01*
X6472843Y-16975295D01*
X6453795Y-16984819D01*
X6653795Y-17108629D02*
X6663319Y-17118152D01*
X6653795Y-17127676D01*
X6644271Y-17118152D01*
X6653795Y-17108629D01*
X6653795Y-17127676D01*
X6729986Y-16927676D02*
X6853795Y-16927676D01*
X6787128Y-17003867D01*
X6815700Y-17003867D01*
X6834748Y-17013390D01*
X6844271Y-17022914D01*
X6853795Y-17041962D01*
X6853795Y-17089581D01*
X6844271Y-17108629D01*
X6834748Y-17118152D01*
X6815700Y-17127676D01*
X6758557Y-17127676D01*
X6739509Y-17118152D01*
X6729986Y-17108629D01*
X6977605Y-16927676D02*
X6996652Y-16927676D01*
X7015700Y-16937200D01*
X7025224Y-16946724D01*
X7034748Y-16965771D01*
X7044271Y-17003867D01*
X7044271Y-17051486D01*
X7034748Y-17089581D01*
X7025224Y-17108629D01*
X7015700Y-17118152D01*
X6996652Y-17127676D01*
X6977605Y-17127676D01*
X6958557Y-17118152D01*
X6949033Y-17108629D01*
X6939509Y-17089581D01*
X6929986Y-17051486D01*
X6929986Y-17003867D01*
X6939509Y-16965771D01*
X6949033Y-16946724D01*
X6958557Y-16937200D01*
X6977605Y-16927676D01*
X7168081Y-16927676D02*
X7187128Y-16927676D01*
X7206176Y-16937200D01*
X7215700Y-16946724D01*
X7225224Y-16965771D01*
X7234748Y-17003867D01*
X7234748Y-17051486D01*
X7225224Y-17089581D01*
X7215700Y-17108629D01*
X7206176Y-17118152D01*
X7187128Y-17127676D01*
X7168081Y-17127676D01*
X7149033Y-17118152D01*
X7139509Y-17108629D01*
X7129986Y-17089581D01*
X7120462Y-17051486D01*
X7120462Y-17003867D01*
X7129986Y-16965771D01*
X7139509Y-16946724D01*
X7149033Y-16937200D01*
X7168081Y-16927676D01*
X7320462Y-17127676D02*
X7320462Y-16994343D01*
X7320462Y-17013390D02*
X7329986Y-17003867D01*
X7349033Y-16994343D01*
X7377605Y-16994343D01*
X7396652Y-17003867D01*
X7406176Y-17022914D01*
X7406176Y-17127676D01*
X7406176Y-17022914D02*
X7415700Y-17003867D01*
X7434748Y-16994343D01*
X7463319Y-16994343D01*
X7482367Y-17003867D01*
X7491890Y-17022914D01*
X7491890Y-17127676D01*
X7587128Y-17127676D02*
X7587128Y-16994343D01*
X7587128Y-17013390D02*
X7596652Y-17003867D01*
X7615700Y-16994343D01*
X7644271Y-16994343D01*
X7663319Y-17003867D01*
X7672843Y-17022914D01*
X7672843Y-17127676D01*
X7672843Y-17022914D02*
X7682367Y-17003867D01*
X7701414Y-16994343D01*
X7729986Y-16994343D01*
X7749033Y-17003867D01*
X7758557Y-17022914D01*
X7758557Y-17127676D01*
X8149033Y-16918152D02*
X7977605Y-17175295D01*
X8406176Y-16927676D02*
X8425224Y-16927676D01*
X8444271Y-16937200D01*
X8453795Y-16946724D01*
X8463319Y-16965771D01*
X8472843Y-17003867D01*
X8472843Y-17051486D01*
X8463319Y-17089581D01*
X8453795Y-17108629D01*
X8444271Y-17118152D01*
X8425224Y-17127676D01*
X8406176Y-17127676D01*
X8387128Y-17118152D01*
X8377605Y-17108629D01*
X8368081Y-17089581D01*
X8358557Y-17051486D01*
X8358557Y-17003867D01*
X8368081Y-16965771D01*
X8377605Y-16946724D01*
X8387128Y-16937200D01*
X8406176Y-16927676D01*
X8558557Y-17108629D02*
X8568081Y-17118152D01*
X8558557Y-17127676D01*
X8549033Y-17118152D01*
X8558557Y-17108629D01*
X8558557Y-17127676D01*
X8691890Y-16927676D02*
X8710938Y-16927676D01*
X8729986Y-16937200D01*
X8739510Y-16946724D01*
X8749033Y-16965771D01*
X8758557Y-17003867D01*
X8758557Y-17051486D01*
X8749033Y-17089581D01*
X8739510Y-17108629D01*
X8729986Y-17118152D01*
X8710938Y-17127676D01*
X8691890Y-17127676D01*
X8672843Y-17118152D01*
X8663319Y-17108629D01*
X8653795Y-17089581D01*
X8644271Y-17051486D01*
X8644271Y-17003867D01*
X8653795Y-16965771D01*
X8663319Y-16946724D01*
X8672843Y-16937200D01*
X8691890Y-16927676D01*
X8939510Y-16927676D02*
X8844271Y-16927676D01*
X8834748Y-17022914D01*
X8844271Y-17013390D01*
X8863319Y-17003867D01*
X8910938Y-17003867D01*
X8929986Y-17013390D01*
X8939510Y-17022914D01*
X8949033Y-17041962D01*
X8949033Y-17089581D01*
X8939510Y-17108629D01*
X8929986Y-17118152D01*
X8910938Y-17127676D01*
X8863319Y-17127676D01*
X8844271Y-17118152D01*
X8834748Y-17108629D01*
X9139510Y-17127676D02*
X9025224Y-17127676D01*
X9082367Y-17127676D02*
X9082367Y-16927676D01*
X9063319Y-16956248D01*
X9044271Y-16975295D01*
X9025224Y-16984819D01*
X9215700Y-16946724D02*
X9225224Y-16937200D01*
X9244271Y-16927676D01*
X9291890Y-16927676D01*
X9310938Y-16937200D01*
X9320462Y-16946724D01*
X9329986Y-16965771D01*
X9329986Y-16984819D01*
X9320462Y-17013390D01*
X9206176Y-17127676D01*
X9329986Y-17127676D01*
X9406176Y-16927676D02*
X9406176Y-16965771D01*
X9482367Y-16927676D02*
X9482367Y-16965771D01*
X9777605Y-17203867D02*
X9768081Y-17194343D01*
X9749033Y-17165771D01*
X9739510Y-17146724D01*
X9729986Y-17118152D01*
X9720462Y-17070533D01*
X9720462Y-17032438D01*
X9729986Y-16984819D01*
X9739510Y-16956248D01*
X9749033Y-16937200D01*
X9768081Y-16908629D01*
X9777605Y-16899105D01*
X9844271Y-16946724D02*
X9853795Y-16937200D01*
X9872843Y-16927676D01*
X9920462Y-16927676D01*
X9939510Y-16937200D01*
X9949033Y-16946724D01*
X9958557Y-16965771D01*
X9958557Y-16984819D01*
X9949033Y-17013390D01*
X9834748Y-17127676D01*
X9958557Y-17127676D01*
X10196652Y-17127676D02*
X10196652Y-16927676D01*
X10282367Y-17127676D02*
X10282367Y-17022914D01*
X10272843Y-17003867D01*
X10253795Y-16994343D01*
X10225224Y-16994343D01*
X10206176Y-17003867D01*
X10196652Y-17013390D01*
X10406176Y-17127676D02*
X10387129Y-17118152D01*
X10377605Y-17108629D01*
X10368081Y-17089581D01*
X10368081Y-17032438D01*
X10377605Y-17013390D01*
X10387129Y-17003867D01*
X10406176Y-16994343D01*
X10434748Y-16994343D01*
X10453795Y-17003867D01*
X10463319Y-17013390D01*
X10472843Y-17032438D01*
X10472843Y-17089581D01*
X10463319Y-17108629D01*
X10453795Y-17118152D01*
X10434748Y-17127676D01*
X10406176Y-17127676D01*
X10587129Y-17127676D02*
X10568081Y-17118152D01*
X10558557Y-17099105D01*
X10558557Y-16927676D01*
X10739510Y-17118152D02*
X10720462Y-17127676D01*
X10682367Y-17127676D01*
X10663319Y-17118152D01*
X10653795Y-17099105D01*
X10653795Y-17022914D01*
X10663319Y-17003867D01*
X10682367Y-16994343D01*
X10720462Y-16994343D01*
X10739510Y-17003867D01*
X10749033Y-17022914D01*
X10749033Y-17041962D01*
X10653795Y-17061010D01*
X10825224Y-17118152D02*
X10844271Y-17127676D01*
X10882367Y-17127676D01*
X10901414Y-17118152D01*
X10910938Y-17099105D01*
X10910938Y-17089581D01*
X10901414Y-17070533D01*
X10882367Y-17061010D01*
X10853795Y-17061010D01*
X10834748Y-17051486D01*
X10825224Y-17032438D01*
X10825224Y-17022914D01*
X10834748Y-17003867D01*
X10853795Y-16994343D01*
X10882367Y-16994343D01*
X10901414Y-17003867D01*
X10977605Y-17203867D02*
X10987129Y-17194343D01*
X11006176Y-17165771D01*
X11015700Y-17146724D01*
X11025224Y-17118152D01*
X11034748Y-17070533D01*
X11034748Y-17032438D01*
X11025224Y-16984819D01*
X11015700Y-16956248D01*
X11006176Y-16937200D01*
X10987129Y-16908629D01*
X10977605Y-16899105D01*
D19*
X6020700Y-17208700D02*
X6205700Y-17393700D01*
X6205700Y-17208700D02*
X6020700Y-17393700D01*
X6178608Y-17366608D02*
X6178608Y-17235792D01*
X6047792Y-17235792D01*
X6047792Y-17366608D01*
X6178608Y-17366608D01*
D11*
X6568081Y-17391676D02*
X6453795Y-17391676D01*
X6510938Y-17391676D02*
X6510938Y-17191676D01*
X6491890Y-17220248D01*
X6472843Y-17239295D01*
X6453795Y-17248819D01*
X6653795Y-17372629D02*
X6663319Y-17382152D01*
X6653795Y-17391676D01*
X6644271Y-17382152D01*
X6653795Y-17372629D01*
X6653795Y-17391676D01*
X6777605Y-17277390D02*
X6758557Y-17267867D01*
X6749033Y-17258343D01*
X6739509Y-17239295D01*
X6739509Y-17229771D01*
X6749033Y-17210724D01*
X6758557Y-17201200D01*
X6777605Y-17191676D01*
X6815700Y-17191676D01*
X6834748Y-17201200D01*
X6844271Y-17210724D01*
X6853795Y-17229771D01*
X6853795Y-17239295D01*
X6844271Y-17258343D01*
X6834748Y-17267867D01*
X6815700Y-17277390D01*
X6777605Y-17277390D01*
X6758557Y-17286914D01*
X6749033Y-17296438D01*
X6739509Y-17315486D01*
X6739509Y-17353581D01*
X6749033Y-17372629D01*
X6758557Y-17382152D01*
X6777605Y-17391676D01*
X6815700Y-17391676D01*
X6834748Y-17382152D01*
X6844271Y-17372629D01*
X6853795Y-17353581D01*
X6853795Y-17315486D01*
X6844271Y-17296438D01*
X6834748Y-17286914D01*
X6815700Y-17277390D01*
X7034748Y-17191676D02*
X6939509Y-17191676D01*
X6929986Y-17286914D01*
X6939509Y-17277390D01*
X6958557Y-17267867D01*
X7006176Y-17267867D01*
X7025224Y-17277390D01*
X7034748Y-17286914D01*
X7044271Y-17305962D01*
X7044271Y-17353581D01*
X7034748Y-17372629D01*
X7025224Y-17382152D01*
X7006176Y-17391676D01*
X6958557Y-17391676D01*
X6939509Y-17382152D01*
X6929986Y-17372629D01*
X7168081Y-17191676D02*
X7187128Y-17191676D01*
X7206176Y-17201200D01*
X7215700Y-17210724D01*
X7225224Y-17229771D01*
X7234748Y-17267867D01*
X7234748Y-17315486D01*
X7225224Y-17353581D01*
X7215700Y-17372629D01*
X7206176Y-17382152D01*
X7187128Y-17391676D01*
X7168081Y-17391676D01*
X7149033Y-17382152D01*
X7139509Y-17372629D01*
X7129986Y-17353581D01*
X7120462Y-17315486D01*
X7120462Y-17267867D01*
X7129986Y-17229771D01*
X7139509Y-17210724D01*
X7149033Y-17201200D01*
X7168081Y-17191676D01*
X7320462Y-17391676D02*
X7320462Y-17258343D01*
X7320462Y-17277390D02*
X7329986Y-17267867D01*
X7349033Y-17258343D01*
X7377605Y-17258343D01*
X7396652Y-17267867D01*
X7406176Y-17286914D01*
X7406176Y-17391676D01*
X7406176Y-17286914D02*
X7415700Y-17267867D01*
X7434748Y-17258343D01*
X7463319Y-17258343D01*
X7482367Y-17267867D01*
X7491890Y-17286914D01*
X7491890Y-17391676D01*
X7587128Y-17391676D02*
X7587128Y-17258343D01*
X7587128Y-17277390D02*
X7596652Y-17267867D01*
X7615700Y-17258343D01*
X7644271Y-17258343D01*
X7663319Y-17267867D01*
X7672843Y-17286914D01*
X7672843Y-17391676D01*
X7672843Y-17286914D02*
X7682367Y-17267867D01*
X7701414Y-17258343D01*
X7729986Y-17258343D01*
X7749033Y-17267867D01*
X7758557Y-17286914D01*
X7758557Y-17391676D01*
X8149033Y-17182152D02*
X7977605Y-17439295D01*
X8406176Y-17191676D02*
X8425224Y-17191676D01*
X8444271Y-17201200D01*
X8453795Y-17210724D01*
X8463319Y-17229771D01*
X8472843Y-17267867D01*
X8472843Y-17315486D01*
X8463319Y-17353581D01*
X8453795Y-17372629D01*
X8444271Y-17382152D01*
X8425224Y-17391676D01*
X8406176Y-17391676D01*
X8387128Y-17382152D01*
X8377605Y-17372629D01*
X8368081Y-17353581D01*
X8358557Y-17315486D01*
X8358557Y-17267867D01*
X8368081Y-17229771D01*
X8377605Y-17210724D01*
X8387128Y-17201200D01*
X8406176Y-17191676D01*
X8558557Y-17372629D02*
X8568081Y-17382152D01*
X8558557Y-17391676D01*
X8549033Y-17382152D01*
X8558557Y-17372629D01*
X8558557Y-17391676D01*
X8691890Y-17191676D02*
X8710938Y-17191676D01*
X8729986Y-17201200D01*
X8739510Y-17210724D01*
X8749033Y-17229771D01*
X8758557Y-17267867D01*
X8758557Y-17315486D01*
X8749033Y-17353581D01*
X8739510Y-17372629D01*
X8729986Y-17382152D01*
X8710938Y-17391676D01*
X8691890Y-17391676D01*
X8672843Y-17382152D01*
X8663319Y-17372629D01*
X8653795Y-17353581D01*
X8644271Y-17315486D01*
X8644271Y-17267867D01*
X8653795Y-17229771D01*
X8663319Y-17210724D01*
X8672843Y-17201200D01*
X8691890Y-17191676D01*
X8825224Y-17191676D02*
X8958557Y-17191676D01*
X8872843Y-17391676D01*
X9025224Y-17210724D02*
X9034748Y-17201200D01*
X9053795Y-17191676D01*
X9101414Y-17191676D01*
X9120462Y-17201200D01*
X9129986Y-17210724D01*
X9139510Y-17229771D01*
X9139510Y-17248819D01*
X9129986Y-17277390D01*
X9015700Y-17391676D01*
X9139510Y-17391676D01*
X9253795Y-17277390D02*
X9234748Y-17267867D01*
X9225224Y-17258343D01*
X9215700Y-17239295D01*
X9215700Y-17229771D01*
X9225224Y-17210724D01*
X9234748Y-17201200D01*
X9253795Y-17191676D01*
X9291890Y-17191676D01*
X9310938Y-17201200D01*
X9320462Y-17210724D01*
X9329986Y-17229771D01*
X9329986Y-17239295D01*
X9320462Y-17258343D01*
X9310938Y-17267867D01*
X9291890Y-17277390D01*
X9253795Y-17277390D01*
X9234748Y-17286914D01*
X9225224Y-17296438D01*
X9215700Y-17315486D01*
X9215700Y-17353581D01*
X9225224Y-17372629D01*
X9234748Y-17382152D01*
X9253795Y-17391676D01*
X9291890Y-17391676D01*
X9310938Y-17382152D01*
X9320462Y-17372629D01*
X9329986Y-17353581D01*
X9329986Y-17315486D01*
X9320462Y-17296438D01*
X9310938Y-17286914D01*
X9291890Y-17277390D01*
X9406176Y-17191676D02*
X9406176Y-17229771D01*
X9482367Y-17191676D02*
X9482367Y-17229771D01*
X9777605Y-17467867D02*
X9768081Y-17458343D01*
X9749033Y-17429771D01*
X9739510Y-17410724D01*
X9729986Y-17382152D01*
X9720462Y-17334533D01*
X9720462Y-17296438D01*
X9729986Y-17248819D01*
X9739510Y-17220248D01*
X9749033Y-17201200D01*
X9768081Y-17172629D01*
X9777605Y-17163105D01*
X9863319Y-17391676D02*
X9901414Y-17391676D01*
X9920462Y-17382152D01*
X9929986Y-17372629D01*
X9949033Y-17344057D01*
X9958557Y-17305962D01*
X9958557Y-17229771D01*
X9949033Y-17210724D01*
X9939510Y-17201200D01*
X9920462Y-17191676D01*
X9882367Y-17191676D01*
X9863319Y-17201200D01*
X9853795Y-17210724D01*
X9844271Y-17229771D01*
X9844271Y-17277390D01*
X9853795Y-17296438D01*
X9863319Y-17305962D01*
X9882367Y-17315486D01*
X9920462Y-17315486D01*
X9939510Y-17305962D01*
X9949033Y-17296438D01*
X9958557Y-17277390D01*
X10196652Y-17391676D02*
X10196652Y-17191676D01*
X10282367Y-17391676D02*
X10282367Y-17286914D01*
X10272843Y-17267867D01*
X10253795Y-17258343D01*
X10225224Y-17258343D01*
X10206176Y-17267867D01*
X10196652Y-17277390D01*
X10406176Y-17391676D02*
X10387129Y-17382152D01*
X10377605Y-17372629D01*
X10368081Y-17353581D01*
X10368081Y-17296438D01*
X10377605Y-17277390D01*
X10387129Y-17267867D01*
X10406176Y-17258343D01*
X10434748Y-17258343D01*
X10453795Y-17267867D01*
X10463319Y-17277390D01*
X10472843Y-17296438D01*
X10472843Y-17353581D01*
X10463319Y-17372629D01*
X10453795Y-17382152D01*
X10434748Y-17391676D01*
X10406176Y-17391676D01*
X10587129Y-17391676D02*
X10568081Y-17382152D01*
X10558557Y-17363105D01*
X10558557Y-17191676D01*
X10739510Y-17382152D02*
X10720462Y-17391676D01*
X10682367Y-17391676D01*
X10663319Y-17382152D01*
X10653795Y-17363105D01*
X10653795Y-17286914D01*
X10663319Y-17267867D01*
X10682367Y-17258343D01*
X10720462Y-17258343D01*
X10739510Y-17267867D01*
X10749033Y-17286914D01*
X10749033Y-17305962D01*
X10653795Y-17325010D01*
X10825224Y-17382152D02*
X10844271Y-17391676D01*
X10882367Y-17391676D01*
X10901414Y-17382152D01*
X10910938Y-17363105D01*
X10910938Y-17353581D01*
X10901414Y-17334533D01*
X10882367Y-17325010D01*
X10853795Y-17325010D01*
X10834748Y-17315486D01*
X10825224Y-17296438D01*
X10825224Y-17286914D01*
X10834748Y-17267867D01*
X10853795Y-17258343D01*
X10882367Y-17258343D01*
X10901414Y-17267867D01*
X10977605Y-17467867D02*
X10987129Y-17458343D01*
X11006176Y-17429771D01*
X11015700Y-17410724D01*
X11025224Y-17382152D01*
X11034748Y-17334533D01*
X11034748Y-17296438D01*
X11025224Y-17248819D01*
X11015700Y-17220248D01*
X11006176Y-17201200D01*
X10987129Y-17172629D01*
X10977605Y-17163105D01*
M02*
