G04 #@! TF.GenerationSoftware,KiCad,Pcbnew,6.0.5+dfsg-1~bpo11+1*
G04 #@! TF.CreationDate,2023-01-16T15:28:36+00:00*
G04 #@! TF.ProjectId,VCF_VCA_BBD_pcb_panel,5643465f-5643-4415-9f42-42445f706362,1.0*
G04 #@! TF.SameCoordinates,Original*
G04 #@! TF.FileFunction,Copper,L2,Bot*
G04 #@! TF.FilePolarity,Positive*
%FSLAX46Y46*%
G04 Gerber Fmt 4.6, Leading zero omitted, Abs format (unit mm)*
G04 Created by KiCad (PCBNEW 6.0.5+dfsg-1~bpo11+1) date 2023-01-16 15:28:36*
%MOMM*%
%LPD*%
G01*
G04 APERTURE LIST*
G04 #@! TA.AperFunction,ComponentPad*
%ADD10C,2.000000*%
G04 #@! TD*
G04 APERTURE END LIST*
D10*
X212725000Y-52705000D03*
G04 #@! TA.AperFunction,Conductor*
G36*
X283815018Y-20830000D02*
G01*
X283829851Y-20832310D01*
X283829855Y-20832310D01*
X283838724Y-20833691D01*
X283859183Y-20831016D01*
X283881008Y-20830072D01*
X284237937Y-20845656D01*
X284248886Y-20846614D01*
X284633379Y-20897233D01*
X284644205Y-20899142D01*
X285022822Y-20983080D01*
X285033439Y-20985925D01*
X285203702Y-21039608D01*
X285403302Y-21102542D01*
X285413615Y-21106295D01*
X285771932Y-21254715D01*
X285781876Y-21259353D01*
X286125867Y-21438423D01*
X286135387Y-21443919D01*
X286462468Y-21652292D01*
X286471472Y-21658597D01*
X286779138Y-21894678D01*
X286787558Y-21901743D01*
X287073483Y-22163744D01*
X287081256Y-22171517D01*
X287343257Y-22457442D01*
X287350322Y-22465862D01*
X287586403Y-22773528D01*
X287592708Y-22782532D01*
X287801081Y-23109613D01*
X287806577Y-23119133D01*
X287985643Y-23463115D01*
X287990289Y-23473077D01*
X288138702Y-23831377D01*
X288142461Y-23841706D01*
X288259075Y-24211561D01*
X288261920Y-24222178D01*
X288345858Y-24600795D01*
X288347767Y-24611621D01*
X288398386Y-24996114D01*
X288399344Y-25007064D01*
X288414603Y-25356552D01*
X288413223Y-25381429D01*
X288411309Y-25393724D01*
X288412473Y-25402626D01*
X288412473Y-25402629D01*
X288415438Y-25425300D01*
X288416502Y-25441637D01*
X288416502Y-255220635D01*
X288415002Y-255240020D01*
X288412692Y-255254853D01*
X288412692Y-255254857D01*
X288411311Y-255263726D01*
X288413986Y-255284185D01*
X288414930Y-255306014D01*
X288399346Y-255662938D01*
X288398388Y-255673886D01*
X288347769Y-256058379D01*
X288347768Y-256058383D01*
X288345860Y-256069200D01*
X288329076Y-256144911D01*
X288261923Y-256447821D01*
X288259078Y-256458438D01*
X288142463Y-256828294D01*
X288142462Y-256828296D01*
X288138706Y-256838618D01*
X287990292Y-257196923D01*
X287990291Y-257196925D01*
X287985645Y-257206887D01*
X287806579Y-257550869D01*
X287801083Y-257560389D01*
X287592714Y-257887461D01*
X287586410Y-257896465D01*
X287350319Y-258204146D01*
X287343253Y-258212566D01*
X287081257Y-258498484D01*
X287073488Y-258506253D01*
X286787566Y-258768253D01*
X286779146Y-258775319D01*
X286471465Y-259011410D01*
X286462461Y-259017714D01*
X286135389Y-259226083D01*
X286125870Y-259231578D01*
X285781878Y-259410649D01*
X285771934Y-259415287D01*
X285413618Y-259563706D01*
X285403303Y-259567459D01*
X285033439Y-259684078D01*
X285022822Y-259686923D01*
X284644200Y-259770860D01*
X284633391Y-259772767D01*
X284248903Y-259823386D01*
X284248888Y-259823388D01*
X284237939Y-259824346D01*
X283888448Y-259839605D01*
X283863573Y-259838225D01*
X283851278Y-259836311D01*
X283842376Y-259837475D01*
X283842373Y-259837475D01*
X283819733Y-259840436D01*
X283803396Y-259841500D01*
X141654367Y-259841500D01*
X141634982Y-259840000D01*
X141620149Y-259837690D01*
X141620145Y-259837690D01*
X141611276Y-259836309D01*
X141590817Y-259838984D01*
X141568992Y-259839928D01*
X141212063Y-259824344D01*
X141201114Y-259823386D01*
X140816621Y-259772767D01*
X140805795Y-259770858D01*
X140427178Y-259686920D01*
X140416561Y-259684075D01*
X140246298Y-259630392D01*
X140046698Y-259567458D01*
X140036380Y-259563703D01*
X139678068Y-259415285D01*
X139668124Y-259410647D01*
X139324132Y-259231576D01*
X139314613Y-259226081D01*
X138987532Y-259017708D01*
X138978528Y-259011403D01*
X138670862Y-258775322D01*
X138662442Y-258768257D01*
X138376517Y-258506256D01*
X138368744Y-258498483D01*
X138106743Y-258212558D01*
X138099678Y-258204138D01*
X137863597Y-257896472D01*
X137857292Y-257887468D01*
X137648919Y-257560387D01*
X137643423Y-257550867D01*
X137570236Y-257410276D01*
X137464353Y-257206876D01*
X137459711Y-257196923D01*
X137311298Y-256838623D01*
X137307539Y-256828294D01*
X137190925Y-256458439D01*
X137188080Y-256447822D01*
X137104142Y-256069205D01*
X137102233Y-256058379D01*
X137051614Y-255673886D01*
X137050656Y-255662936D01*
X137035561Y-255317208D01*
X137037188Y-255290805D01*
X137037769Y-255287352D01*
X137037770Y-255287345D01*
X137038576Y-255282552D01*
X137038729Y-255270000D01*
X137034773Y-255242376D01*
X137033500Y-255224514D01*
X137033500Y-239973266D01*
X151512001Y-239973266D01*
X151512109Y-239976356D01*
X151512499Y-239987534D01*
X151524347Y-240326798D01*
X151525856Y-240370016D01*
X151578361Y-240763521D01*
X151669014Y-241150023D01*
X151796951Y-241525835D01*
X151960950Y-241887369D01*
X152159446Y-242231174D01*
X152161235Y-242233672D01*
X152161237Y-242233676D01*
X152261353Y-242373516D01*
X152390544Y-242553969D01*
X152652038Y-242852671D01*
X152654286Y-242854782D01*
X152939178Y-243122314D01*
X152939185Y-243122320D01*
X152941433Y-243124431D01*
X152943883Y-243126318D01*
X152943888Y-243126322D01*
X153253522Y-243364773D01*
X153255965Y-243366654D01*
X153258564Y-243368278D01*
X153258574Y-243368285D01*
X153439998Y-243481650D01*
X153592634Y-243577027D01*
X153948224Y-243753544D01*
X154319342Y-243894518D01*
X154702446Y-243998605D01*
X154705489Y-243999120D01*
X154705495Y-243999121D01*
X155090837Y-244064297D01*
X155090844Y-244064298D01*
X155093878Y-244064811D01*
X155096949Y-244065026D01*
X155096951Y-244065026D01*
X155486837Y-244092290D01*
X155486845Y-244092290D01*
X155489903Y-244092504D01*
X155746170Y-244085346D01*
X155883666Y-244081505D01*
X155883669Y-244081505D01*
X155886740Y-244081419D01*
X155889793Y-244081033D01*
X155889797Y-244081033D01*
X156078315Y-244057218D01*
X156280601Y-244031663D01*
X156283605Y-244030981D01*
X156283608Y-244030980D01*
X156664731Y-243944391D01*
X156664737Y-243944389D01*
X156667727Y-243943710D01*
X156815604Y-243894518D01*
X157041499Y-243819373D01*
X157041505Y-243819371D01*
X157044423Y-243818400D01*
X157187633Y-243754639D01*
X157404294Y-243658176D01*
X157404300Y-243658173D01*
X157407094Y-243656929D01*
X157547747Y-243577027D01*
X157749603Y-243462357D01*
X157749611Y-243462352D01*
X157752276Y-243460838D01*
X158076676Y-243231999D01*
X158377197Y-242972596D01*
X158379318Y-242970369D01*
X158379324Y-242970363D01*
X158648853Y-242687329D01*
X158650970Y-242685106D01*
X158684237Y-242642527D01*
X158893472Y-242374717D01*
X158893474Y-242374714D01*
X158895382Y-242372272D01*
X158897038Y-242369662D01*
X158897044Y-242369654D01*
X159106447Y-242039688D01*
X159106451Y-242039681D01*
X159108101Y-242037081D01*
X159134390Y-241985039D01*
X159193043Y-241868925D01*
X159287096Y-241682732D01*
X159288203Y-241679878D01*
X159288207Y-241679869D01*
X159429543Y-241315483D01*
X159429546Y-241315474D01*
X159430658Y-241312607D01*
X159537417Y-240930239D01*
X159606354Y-240539278D01*
X159636811Y-240143457D01*
X159638395Y-240030000D01*
X159635772Y-239976356D01*
X159635621Y-239973266D01*
X208662001Y-239973266D01*
X208662109Y-239976356D01*
X208662499Y-239987534D01*
X208674347Y-240326798D01*
X208675856Y-240370016D01*
X208728361Y-240763521D01*
X208819014Y-241150023D01*
X208946951Y-241525835D01*
X209110950Y-241887369D01*
X209309446Y-242231174D01*
X209311235Y-242233672D01*
X209311237Y-242233676D01*
X209411353Y-242373516D01*
X209540544Y-242553969D01*
X209802038Y-242852671D01*
X209804286Y-242854782D01*
X210089178Y-243122314D01*
X210089185Y-243122320D01*
X210091433Y-243124431D01*
X210093883Y-243126318D01*
X210093888Y-243126322D01*
X210403522Y-243364773D01*
X210405965Y-243366654D01*
X210408564Y-243368278D01*
X210408574Y-243368285D01*
X210589998Y-243481650D01*
X210742634Y-243577027D01*
X211098224Y-243753544D01*
X211469342Y-243894518D01*
X211852446Y-243998605D01*
X211855489Y-243999120D01*
X211855495Y-243999121D01*
X212240837Y-244064297D01*
X212240844Y-244064298D01*
X212243878Y-244064811D01*
X212246949Y-244065026D01*
X212246951Y-244065026D01*
X212636837Y-244092290D01*
X212636845Y-244092290D01*
X212639903Y-244092504D01*
X212896170Y-244085346D01*
X213033666Y-244081505D01*
X213033669Y-244081505D01*
X213036740Y-244081419D01*
X213039793Y-244081033D01*
X213039797Y-244081033D01*
X213228315Y-244057218D01*
X213430601Y-244031663D01*
X213433605Y-244030981D01*
X213433608Y-244030980D01*
X213814731Y-243944391D01*
X213814737Y-243944389D01*
X213817727Y-243943710D01*
X213965604Y-243894518D01*
X214191499Y-243819373D01*
X214191505Y-243819371D01*
X214194423Y-243818400D01*
X214337633Y-243754639D01*
X214554294Y-243658176D01*
X214554300Y-243658173D01*
X214557094Y-243656929D01*
X214697747Y-243577027D01*
X214899603Y-243462357D01*
X214899611Y-243462352D01*
X214902276Y-243460838D01*
X215226676Y-243231999D01*
X215527197Y-242972596D01*
X215529318Y-242970369D01*
X215529324Y-242970363D01*
X215798853Y-242687329D01*
X215800970Y-242685106D01*
X215834237Y-242642527D01*
X216043472Y-242374717D01*
X216043474Y-242374714D01*
X216045382Y-242372272D01*
X216047038Y-242369662D01*
X216047044Y-242369654D01*
X216256447Y-242039688D01*
X216256451Y-242039681D01*
X216258101Y-242037081D01*
X216284390Y-241985039D01*
X216343043Y-241868925D01*
X216437096Y-241682732D01*
X216438203Y-241679878D01*
X216438207Y-241679869D01*
X216579543Y-241315483D01*
X216579546Y-241315474D01*
X216580658Y-241312607D01*
X216687417Y-240930239D01*
X216756354Y-240539278D01*
X216786811Y-240143457D01*
X216788395Y-240030000D01*
X216785772Y-239976356D01*
X216785621Y-239973266D01*
X265812001Y-239973266D01*
X265812109Y-239976356D01*
X265812499Y-239987534D01*
X265824347Y-240326798D01*
X265825856Y-240370016D01*
X265878361Y-240763521D01*
X265969014Y-241150023D01*
X266096951Y-241525835D01*
X266260950Y-241887369D01*
X266459446Y-242231174D01*
X266461235Y-242233672D01*
X266461237Y-242233676D01*
X266561353Y-242373516D01*
X266690544Y-242553969D01*
X266952038Y-242852671D01*
X266954286Y-242854782D01*
X267239178Y-243122314D01*
X267239185Y-243122320D01*
X267241433Y-243124431D01*
X267243883Y-243126318D01*
X267243888Y-243126322D01*
X267553522Y-243364773D01*
X267555965Y-243366654D01*
X267558564Y-243368278D01*
X267558574Y-243368285D01*
X267739998Y-243481650D01*
X267892634Y-243577027D01*
X268248224Y-243753544D01*
X268619342Y-243894518D01*
X269002446Y-243998605D01*
X269005489Y-243999120D01*
X269005495Y-243999121D01*
X269390837Y-244064297D01*
X269390844Y-244064298D01*
X269393878Y-244064811D01*
X269396949Y-244065026D01*
X269396951Y-244065026D01*
X269786837Y-244092290D01*
X269786845Y-244092290D01*
X269789903Y-244092504D01*
X270046170Y-244085346D01*
X270183666Y-244081505D01*
X270183669Y-244081505D01*
X270186740Y-244081419D01*
X270189793Y-244081033D01*
X270189797Y-244081033D01*
X270378315Y-244057218D01*
X270580601Y-244031663D01*
X270583605Y-244030981D01*
X270583608Y-244030980D01*
X270964731Y-243944391D01*
X270964737Y-243944389D01*
X270967727Y-243943710D01*
X271115604Y-243894518D01*
X271341499Y-243819373D01*
X271341505Y-243819371D01*
X271344423Y-243818400D01*
X271487633Y-243754639D01*
X271704294Y-243658176D01*
X271704300Y-243658173D01*
X271707094Y-243656929D01*
X271847747Y-243577027D01*
X272049603Y-243462357D01*
X272049611Y-243462352D01*
X272052276Y-243460838D01*
X272376676Y-243231999D01*
X272677197Y-242972596D01*
X272679318Y-242970369D01*
X272679324Y-242970363D01*
X272948853Y-242687329D01*
X272950970Y-242685106D01*
X272984237Y-242642527D01*
X273193472Y-242374717D01*
X273193474Y-242374714D01*
X273195382Y-242372272D01*
X273197038Y-242369662D01*
X273197044Y-242369654D01*
X273406447Y-242039688D01*
X273406451Y-242039681D01*
X273408101Y-242037081D01*
X273434390Y-241985039D01*
X273493043Y-241868925D01*
X273587096Y-241682732D01*
X273588203Y-241679878D01*
X273588207Y-241679869D01*
X273729543Y-241315483D01*
X273729546Y-241315474D01*
X273730658Y-241312607D01*
X273837417Y-240930239D01*
X273906354Y-240539278D01*
X273936811Y-240143457D01*
X273938395Y-240030000D01*
X273935772Y-239976356D01*
X273919152Y-239636552D01*
X273919002Y-239633482D01*
X273910220Y-239574012D01*
X273861458Y-239243795D01*
X273861457Y-239243791D01*
X273861008Y-239240749D01*
X273764967Y-238855550D01*
X273746728Y-238804327D01*
X273632828Y-238484460D01*
X273631796Y-238481561D01*
X273462765Y-238122352D01*
X273433015Y-238072445D01*
X273261068Y-237784003D01*
X273259488Y-237781352D01*
X273023906Y-237461815D01*
X272758266Y-237166793D01*
X272465105Y-236899100D01*
X272147222Y-236661293D01*
X272098370Y-236631707D01*
X271810277Y-236457231D01*
X271810268Y-236457226D01*
X271807649Y-236455640D01*
X271449629Y-236284106D01*
X271390229Y-236262486D01*
X271079475Y-236149381D01*
X271079474Y-236149381D01*
X271076579Y-236148327D01*
X270869688Y-236095206D01*
X270695043Y-236050365D01*
X270695040Y-236050364D01*
X270692059Y-236049599D01*
X270299740Y-235988865D01*
X270296683Y-235988694D01*
X270296682Y-235988694D01*
X270267924Y-235987086D01*
X269903368Y-235966704D01*
X269900290Y-235966833D01*
X269900286Y-235966833D01*
X269641983Y-235977659D01*
X269506724Y-235983328D01*
X269503680Y-235983756D01*
X269503678Y-235983756D01*
X269463989Y-235989334D01*
X269113596Y-236038579D01*
X268727735Y-236131928D01*
X268352825Y-236262486D01*
X268306035Y-236284106D01*
X267995242Y-236427712D01*
X267995232Y-236427717D01*
X267992445Y-236429005D01*
X267650034Y-236629896D01*
X267609018Y-236659696D01*
X267331342Y-236861439D01*
X267331336Y-236861444D01*
X267328861Y-236863242D01*
X267326575Y-236865271D01*
X267326572Y-236865274D01*
X267286134Y-236901177D01*
X267031991Y-237126815D01*
X267029901Y-237129072D01*
X267029899Y-237129074D01*
X266764354Y-237415837D01*
X266764349Y-237415843D01*
X266762259Y-237418100D01*
X266760399Y-237420550D01*
X266760396Y-237420554D01*
X266727202Y-237464286D01*
X266522238Y-237734316D01*
X266520627Y-237736934D01*
X266520624Y-237736939D01*
X266315834Y-238069821D01*
X266314220Y-238072445D01*
X266140190Y-238429258D01*
X266139119Y-238432139D01*
X266139116Y-238432145D01*
X266053146Y-238663313D01*
X266001810Y-238801352D01*
X265900400Y-239185173D01*
X265836928Y-239577058D01*
X265836734Y-239580138D01*
X265836734Y-239580140D01*
X265829762Y-239690967D01*
X265812001Y-239973266D01*
X216785621Y-239973266D01*
X216769152Y-239636552D01*
X216769002Y-239633482D01*
X216760220Y-239574012D01*
X216711458Y-239243795D01*
X216711457Y-239243791D01*
X216711008Y-239240749D01*
X216614967Y-238855550D01*
X216596728Y-238804327D01*
X216482828Y-238484460D01*
X216481796Y-238481561D01*
X216312765Y-238122352D01*
X216283015Y-238072445D01*
X216111068Y-237784003D01*
X216109488Y-237781352D01*
X215873906Y-237461815D01*
X215608266Y-237166793D01*
X215315105Y-236899100D01*
X214997222Y-236661293D01*
X214948370Y-236631707D01*
X214660277Y-236457231D01*
X214660268Y-236457226D01*
X214657649Y-236455640D01*
X214299629Y-236284106D01*
X214240229Y-236262486D01*
X213929475Y-236149381D01*
X213929474Y-236149381D01*
X213926579Y-236148327D01*
X213719688Y-236095206D01*
X213545043Y-236050365D01*
X213545040Y-236050364D01*
X213542059Y-236049599D01*
X213149740Y-235988865D01*
X213146683Y-235988694D01*
X213146682Y-235988694D01*
X213117924Y-235987086D01*
X212753368Y-235966704D01*
X212750290Y-235966833D01*
X212750286Y-235966833D01*
X212491983Y-235977659D01*
X212356724Y-235983328D01*
X212353680Y-235983756D01*
X212353678Y-235983756D01*
X212313989Y-235989334D01*
X211963596Y-236038579D01*
X211577735Y-236131928D01*
X211202825Y-236262486D01*
X211156035Y-236284106D01*
X210845242Y-236427712D01*
X210845232Y-236427717D01*
X210842445Y-236429005D01*
X210500034Y-236629896D01*
X210459018Y-236659696D01*
X210181342Y-236861439D01*
X210181336Y-236861444D01*
X210178861Y-236863242D01*
X210176575Y-236865271D01*
X210176572Y-236865274D01*
X210136134Y-236901177D01*
X209881991Y-237126815D01*
X209879901Y-237129072D01*
X209879899Y-237129074D01*
X209614354Y-237415837D01*
X209614349Y-237415843D01*
X209612259Y-237418100D01*
X209610399Y-237420550D01*
X209610396Y-237420554D01*
X209577202Y-237464286D01*
X209372238Y-237734316D01*
X209370627Y-237736934D01*
X209370624Y-237736939D01*
X209165834Y-238069821D01*
X209164220Y-238072445D01*
X208990190Y-238429258D01*
X208989119Y-238432139D01*
X208989116Y-238432145D01*
X208903146Y-238663313D01*
X208851810Y-238801352D01*
X208750400Y-239185173D01*
X208686928Y-239577058D01*
X208686734Y-239580138D01*
X208686734Y-239580140D01*
X208679762Y-239690967D01*
X208662001Y-239973266D01*
X159635621Y-239973266D01*
X159619152Y-239636552D01*
X159619002Y-239633482D01*
X159610220Y-239574012D01*
X159561458Y-239243795D01*
X159561457Y-239243791D01*
X159561008Y-239240749D01*
X159464967Y-238855550D01*
X159446728Y-238804327D01*
X159332828Y-238484460D01*
X159331796Y-238481561D01*
X159162765Y-238122352D01*
X159133015Y-238072445D01*
X158961068Y-237784003D01*
X158959488Y-237781352D01*
X158723906Y-237461815D01*
X158458266Y-237166793D01*
X158165105Y-236899100D01*
X157847222Y-236661293D01*
X157798370Y-236631707D01*
X157510277Y-236457231D01*
X157510268Y-236457226D01*
X157507649Y-236455640D01*
X157149629Y-236284106D01*
X157090229Y-236262486D01*
X156779475Y-236149381D01*
X156779474Y-236149381D01*
X156776579Y-236148327D01*
X156569688Y-236095206D01*
X156395043Y-236050365D01*
X156395040Y-236050364D01*
X156392059Y-236049599D01*
X155999740Y-235988865D01*
X155996683Y-235988694D01*
X155996682Y-235988694D01*
X155967924Y-235987086D01*
X155603368Y-235966704D01*
X155600290Y-235966833D01*
X155600286Y-235966833D01*
X155341983Y-235977659D01*
X155206724Y-235983328D01*
X155203680Y-235983756D01*
X155203678Y-235983756D01*
X155163989Y-235989334D01*
X154813596Y-236038579D01*
X154427735Y-236131928D01*
X154052825Y-236262486D01*
X154006035Y-236284106D01*
X153695242Y-236427712D01*
X153695232Y-236427717D01*
X153692445Y-236429005D01*
X153350034Y-236629896D01*
X153309018Y-236659696D01*
X153031342Y-236861439D01*
X153031336Y-236861444D01*
X153028861Y-236863242D01*
X153026575Y-236865271D01*
X153026572Y-236865274D01*
X152986134Y-236901177D01*
X152731991Y-237126815D01*
X152729901Y-237129072D01*
X152729899Y-237129074D01*
X152464354Y-237415837D01*
X152464349Y-237415843D01*
X152462259Y-237418100D01*
X152460399Y-237420550D01*
X152460396Y-237420554D01*
X152427202Y-237464286D01*
X152222238Y-237734316D01*
X152220627Y-237736934D01*
X152220624Y-237736939D01*
X152015834Y-238069821D01*
X152014220Y-238072445D01*
X151840190Y-238429258D01*
X151839119Y-238432139D01*
X151839116Y-238432145D01*
X151753146Y-238663313D01*
X151701810Y-238801352D01*
X151600400Y-239185173D01*
X151536928Y-239577058D01*
X151536734Y-239580138D01*
X151536734Y-239580140D01*
X151529762Y-239690967D01*
X151512001Y-239973266D01*
X137033500Y-239973266D01*
X137033500Y-214498761D01*
X178503170Y-214498761D01*
X178504554Y-214574270D01*
X178511345Y-214944803D01*
X178511644Y-214947578D01*
X178556785Y-215366511D01*
X178559138Y-215388353D01*
X178559683Y-215391094D01*
X178559684Y-215391099D01*
X178630483Y-215747025D01*
X178646172Y-215825899D01*
X178646959Y-215828580D01*
X178646960Y-215828586D01*
X178671609Y-215912607D01*
X178771756Y-216253976D01*
X178772776Y-216256572D01*
X178772777Y-216256575D01*
X178922279Y-216637081D01*
X178934896Y-216669194D01*
X178996373Y-216792228D01*
X179086336Y-216972272D01*
X179134301Y-217068266D01*
X179368392Y-217448032D01*
X179635315Y-217805485D01*
X179637176Y-217807563D01*
X179637177Y-217807564D01*
X179911884Y-218114268D01*
X179932957Y-218137796D01*
X179934994Y-218139699D01*
X179935001Y-218139706D01*
X180156633Y-218346742D01*
X180258961Y-218442332D01*
X180261157Y-218444045D01*
X180261161Y-218444048D01*
X180487577Y-218620625D01*
X180610746Y-218716682D01*
X180771588Y-218820536D01*
X180983183Y-218957162D01*
X180983191Y-218957167D01*
X180985527Y-218958675D01*
X181380335Y-219166394D01*
X181382928Y-219167476D01*
X181789462Y-219337116D01*
X181789467Y-219337118D01*
X181792046Y-219338194D01*
X181794711Y-219339037D01*
X181794717Y-219339039D01*
X182026317Y-219412284D01*
X182217398Y-219472715D01*
X182220128Y-219473318D01*
X182220129Y-219473318D01*
X182612664Y-219559982D01*
X182653025Y-219568893D01*
X182655799Y-219569251D01*
X182655800Y-219569251D01*
X183092707Y-219625608D01*
X183092714Y-219625609D01*
X183095477Y-219625965D01*
X183098264Y-219626075D01*
X183098270Y-219626075D01*
X183356519Y-219636221D01*
X183541251Y-219643479D01*
X183544043Y-219643340D01*
X183544048Y-219643340D01*
X183984013Y-219621438D01*
X183984022Y-219621437D01*
X183986817Y-219621298D01*
X183989594Y-219620910D01*
X183989596Y-219620910D01*
X184067542Y-219610025D01*
X184428647Y-219559596D01*
X184431357Y-219558968D01*
X184431367Y-219558966D01*
X184860515Y-219459494D01*
X184863242Y-219458862D01*
X185085990Y-219385842D01*
X185284510Y-219320764D01*
X185284516Y-219320762D01*
X185287163Y-219319894D01*
X185697052Y-219143791D01*
X186089664Y-218931950D01*
X186461890Y-218686046D01*
X186810782Y-218408026D01*
X187133580Y-218100093D01*
X187367125Y-217833785D01*
X187425874Y-217766795D01*
X187425877Y-217766791D01*
X187427725Y-217764684D01*
X187455751Y-217726322D01*
X187635159Y-217480743D01*
X187690891Y-217404455D01*
X187692337Y-217402054D01*
X187919541Y-217024669D01*
X187919546Y-217024660D01*
X187920992Y-217022258D01*
X188108440Y-216637081D01*
X188114974Y-216623654D01*
X188114975Y-216623651D01*
X188116207Y-216621120D01*
X188246177Y-216279869D01*
X188273994Y-216206832D01*
X188273996Y-216206825D01*
X188274990Y-216204216D01*
X188396085Y-215774848D01*
X188408269Y-215710058D01*
X188478015Y-215339162D01*
X188478017Y-215339150D01*
X188478531Y-215336415D01*
X188506042Y-215053295D01*
X188521462Y-214894606D01*
X188521463Y-214894594D01*
X188521677Y-214892389D01*
X188528548Y-214630000D01*
X188526021Y-214573266D01*
X237872001Y-214573266D01*
X237872109Y-214576356D01*
X237872499Y-214587534D01*
X237885646Y-214964000D01*
X237885856Y-214970016D01*
X237938361Y-215363521D01*
X237939061Y-215366505D01*
X237939062Y-215366511D01*
X237943725Y-215386390D01*
X238029014Y-215750023D01*
X238156951Y-216125835D01*
X238320950Y-216487369D01*
X238519446Y-216831174D01*
X238521235Y-216833672D01*
X238521237Y-216833676D01*
X238657975Y-217024669D01*
X238750544Y-217153969D01*
X238752571Y-217156284D01*
X238752573Y-217156287D01*
X238828071Y-217242527D01*
X239012038Y-217452671D01*
X239014286Y-217454782D01*
X239299178Y-217722314D01*
X239299185Y-217722320D01*
X239301433Y-217724431D01*
X239303883Y-217726318D01*
X239303888Y-217726322D01*
X239539304Y-217907617D01*
X239615965Y-217966654D01*
X239618564Y-217968278D01*
X239618574Y-217968285D01*
X239799998Y-218081650D01*
X239952634Y-218177027D01*
X240308224Y-218353544D01*
X240679342Y-218494518D01*
X241062446Y-218598605D01*
X241065489Y-218599120D01*
X241065495Y-218599121D01*
X241450837Y-218664297D01*
X241450844Y-218664298D01*
X241453878Y-218664811D01*
X241456949Y-218665026D01*
X241456951Y-218665026D01*
X241846837Y-218692290D01*
X241846845Y-218692290D01*
X241849903Y-218692504D01*
X242106170Y-218685346D01*
X242243666Y-218681505D01*
X242243669Y-218681505D01*
X242246740Y-218681419D01*
X242249793Y-218681033D01*
X242249797Y-218681033D01*
X242438315Y-218657218D01*
X242640601Y-218631663D01*
X242643605Y-218630981D01*
X242643608Y-218630980D01*
X243024731Y-218544391D01*
X243024737Y-218544389D01*
X243027727Y-218543710D01*
X243175604Y-218494518D01*
X243401499Y-218419373D01*
X243401505Y-218419371D01*
X243404423Y-218418400D01*
X243407233Y-218417149D01*
X243764294Y-218258176D01*
X243764300Y-218258173D01*
X243767094Y-218256929D01*
X243907747Y-218177027D01*
X244109603Y-218062357D01*
X244109611Y-218062352D01*
X244112276Y-218060838D01*
X244436676Y-217831999D01*
X244469986Y-217803247D01*
X244734859Y-217574614D01*
X244737197Y-217572596D01*
X244739318Y-217570369D01*
X244739324Y-217570363D01*
X245008853Y-217287329D01*
X245010970Y-217285106D01*
X245044237Y-217242527D01*
X245253472Y-216974717D01*
X245253474Y-216974714D01*
X245255382Y-216972272D01*
X245257038Y-216969662D01*
X245257044Y-216969654D01*
X245466447Y-216639688D01*
X245466451Y-216639681D01*
X245468101Y-216637081D01*
X245474884Y-216623654D01*
X245560326Y-216454506D01*
X245647096Y-216282732D01*
X245648203Y-216279878D01*
X245648207Y-216279869D01*
X245789543Y-215915483D01*
X245789546Y-215915474D01*
X245790658Y-215912607D01*
X245897417Y-215530239D01*
X245966354Y-215139278D01*
X245996811Y-214743457D01*
X245998395Y-214630000D01*
X245995772Y-214576356D01*
X245979152Y-214236552D01*
X245979002Y-214233482D01*
X245972158Y-214187132D01*
X245921458Y-213843795D01*
X245921457Y-213843791D01*
X245921008Y-213840749D01*
X245824967Y-213455550D01*
X245806728Y-213404327D01*
X245726235Y-213178278D01*
X245691796Y-213081561D01*
X245539287Y-212757462D01*
X245524077Y-212725140D01*
X245524076Y-212725139D01*
X245522765Y-212722352D01*
X245493015Y-212672445D01*
X245321068Y-212384003D01*
X245319488Y-212381352D01*
X245083906Y-212061815D01*
X244818266Y-211766793D01*
X244525105Y-211499100D01*
X244207222Y-211261293D01*
X244158370Y-211231707D01*
X243870277Y-211057231D01*
X243870268Y-211057226D01*
X243867649Y-211055640D01*
X243509629Y-210884106D01*
X243450229Y-210862486D01*
X243139475Y-210749381D01*
X243139474Y-210749381D01*
X243136579Y-210748327D01*
X242793994Y-210660366D01*
X242755043Y-210650365D01*
X242755040Y-210650364D01*
X242752059Y-210649599D01*
X242359740Y-210588865D01*
X242356683Y-210588694D01*
X242356682Y-210588694D01*
X242327924Y-210587086D01*
X241963368Y-210566704D01*
X241960290Y-210566833D01*
X241960286Y-210566833D01*
X241701983Y-210577659D01*
X241566724Y-210583328D01*
X241563680Y-210583756D01*
X241563678Y-210583756D01*
X241523989Y-210589334D01*
X241173596Y-210638579D01*
X240787735Y-210731928D01*
X240412825Y-210862486D01*
X240366035Y-210884106D01*
X240055242Y-211027712D01*
X240055232Y-211027717D01*
X240052445Y-211029005D01*
X239710034Y-211229896D01*
X239584782Y-211320897D01*
X239391342Y-211461439D01*
X239391336Y-211461444D01*
X239388861Y-211463242D01*
X239386575Y-211465271D01*
X239386572Y-211465274D01*
X239233563Y-211601122D01*
X239091991Y-211726815D01*
X239089901Y-211729072D01*
X239089899Y-211729074D01*
X238824354Y-212015837D01*
X238824349Y-212015843D01*
X238822259Y-212018100D01*
X238820399Y-212020550D01*
X238820396Y-212020554D01*
X238787202Y-212064286D01*
X238582238Y-212334316D01*
X238580627Y-212336934D01*
X238580624Y-212336939D01*
X238375834Y-212669821D01*
X238374220Y-212672445D01*
X238200190Y-213029258D01*
X238199119Y-213032139D01*
X238199116Y-213032145D01*
X238170550Y-213108958D01*
X238061810Y-213401352D01*
X237960400Y-213785173D01*
X237959909Y-213788206D01*
X237916899Y-214053757D01*
X237896928Y-214177058D01*
X237896734Y-214180138D01*
X237896734Y-214180140D01*
X237876512Y-214501571D01*
X237872001Y-214573266D01*
X188526021Y-214573266D01*
X188508700Y-214184324D01*
X188449312Y-213742177D01*
X188414821Y-213589746D01*
X188351472Y-213309788D01*
X188350855Y-213307060D01*
X188214108Y-212882417D01*
X188160622Y-212756104D01*
X188041245Y-212474186D01*
X188041245Y-212474185D01*
X188040155Y-212471612D01*
X187993475Y-212384003D01*
X187831679Y-212080351D01*
X187830371Y-212077896D01*
X187828850Y-212075567D01*
X187587944Y-211706721D01*
X187587941Y-211706717D01*
X187586420Y-211704388D01*
X187503192Y-211598813D01*
X187311960Y-211356237D01*
X187311958Y-211356235D01*
X187310231Y-211354044D01*
X187003992Y-211029639D01*
X186839786Y-210884106D01*
X186672234Y-210735607D01*
X186672227Y-210735602D01*
X186670128Y-210733741D01*
X186311282Y-210468694D01*
X186110449Y-210346345D01*
X185932684Y-210238049D01*
X185932677Y-210238045D01*
X185930295Y-210236594D01*
X185807964Y-210176267D01*
X185532696Y-210040521D01*
X185530184Y-210039282D01*
X185114118Y-209878318D01*
X184977562Y-209839032D01*
X184688071Y-209755748D01*
X184688065Y-209755746D01*
X184685390Y-209754977D01*
X184682653Y-209754448D01*
X184682647Y-209754446D01*
X184531581Y-209725219D01*
X184247394Y-209670236D01*
X184244617Y-209669951D01*
X184244607Y-209669950D01*
X183969789Y-209641793D01*
X183803600Y-209624765D01*
X183800810Y-209624728D01*
X183800802Y-209624728D01*
X183522276Y-209621083D01*
X183357521Y-209618926D01*
X183354721Y-209619139D01*
X183354720Y-209619139D01*
X182915475Y-209652551D01*
X182912688Y-209652763D01*
X182472625Y-209726010D01*
X182382566Y-209749385D01*
X182043533Y-209837380D01*
X182043522Y-209837383D01*
X182040815Y-209838086D01*
X181772441Y-209933913D01*
X181623320Y-209987159D01*
X181623315Y-209987161D01*
X181620677Y-209988103D01*
X181618137Y-209989274D01*
X181618132Y-209989276D01*
X181509661Y-210039282D01*
X181215538Y-210174875D01*
X180828607Y-210396921D01*
X180826315Y-210398523D01*
X180826307Y-210398528D01*
X180585681Y-210566704D01*
X180462945Y-210652485D01*
X180460804Y-210654285D01*
X180460801Y-210654287D01*
X180133818Y-210929146D01*
X180121450Y-210939542D01*
X180119476Y-210941526D01*
X180119472Y-210941530D01*
X180032454Y-211029005D01*
X179806824Y-211255819D01*
X179805030Y-211257975D01*
X179805030Y-211257976D01*
X179802271Y-211261293D01*
X179521559Y-211598813D01*
X179267914Y-211965808D01*
X179047896Y-212353897D01*
X179046737Y-212356446D01*
X179046735Y-212356450D01*
X178864405Y-212757462D01*
X178864400Y-212757473D01*
X178863248Y-212760008D01*
X178862326Y-212762634D01*
X178862321Y-212762646D01*
X178785152Y-212982394D01*
X178715433Y-213180925D01*
X178714742Y-213183645D01*
X178714741Y-213183649D01*
X178645687Y-213455550D01*
X178605619Y-213613316D01*
X178605176Y-213616066D01*
X178605174Y-213616076D01*
X178535124Y-214050986D01*
X178534678Y-214053757D01*
X178534480Y-214056558D01*
X178534479Y-214056564D01*
X178521953Y-214233482D01*
X178503170Y-214498761D01*
X137033500Y-214498761D01*
X137033500Y-201930000D01*
X151886445Y-201930000D01*
X151906651Y-202315559D01*
X151967049Y-202696894D01*
X152066976Y-203069826D01*
X152205337Y-203430270D01*
X152380618Y-203774277D01*
X152590896Y-204098078D01*
X152833869Y-204398125D01*
X153106875Y-204671131D01*
X153406922Y-204914104D01*
X153730722Y-205124382D01*
X153733656Y-205125877D01*
X153733663Y-205125881D01*
X154071790Y-205298165D01*
X154074730Y-205299663D01*
X154435174Y-205438024D01*
X154808106Y-205537951D01*
X155010643Y-205570030D01*
X155186193Y-205597835D01*
X155186201Y-205597836D01*
X155189441Y-205598349D01*
X155575000Y-205618555D01*
X155960559Y-205598349D01*
X155963799Y-205597836D01*
X155963807Y-205597835D01*
X156139357Y-205570030D01*
X156341894Y-205537951D01*
X156714826Y-205438024D01*
X157075270Y-205299663D01*
X157078210Y-205298165D01*
X157416337Y-205125881D01*
X157416344Y-205125877D01*
X157419278Y-205124382D01*
X157743078Y-204914104D01*
X158043125Y-204671131D01*
X158316131Y-204398125D01*
X158559104Y-204098078D01*
X158769382Y-203774277D01*
X158944663Y-203430270D01*
X159083024Y-203069826D01*
X159182951Y-202696894D01*
X159243349Y-202315559D01*
X159263555Y-201930000D01*
X266186445Y-201930000D01*
X266206651Y-202315559D01*
X266267049Y-202696894D01*
X266366976Y-203069826D01*
X266505337Y-203430270D01*
X266680618Y-203774277D01*
X266890896Y-204098078D01*
X267133869Y-204398125D01*
X267406875Y-204671131D01*
X267706922Y-204914104D01*
X268030722Y-205124382D01*
X268033656Y-205125877D01*
X268033663Y-205125881D01*
X268371790Y-205298165D01*
X268374730Y-205299663D01*
X268735174Y-205438024D01*
X269108106Y-205537951D01*
X269310643Y-205570030D01*
X269486193Y-205597835D01*
X269486201Y-205597836D01*
X269489441Y-205598349D01*
X269875000Y-205618555D01*
X270260559Y-205598349D01*
X270263799Y-205597836D01*
X270263807Y-205597835D01*
X270439357Y-205570030D01*
X270641894Y-205537951D01*
X271014826Y-205438024D01*
X271375270Y-205299663D01*
X271378210Y-205298165D01*
X271716337Y-205125881D01*
X271716344Y-205125877D01*
X271719278Y-205124382D01*
X272043078Y-204914104D01*
X272343125Y-204671131D01*
X272616131Y-204398125D01*
X272859104Y-204098078D01*
X273069382Y-203774277D01*
X273244663Y-203430270D01*
X273383024Y-203069826D01*
X273482951Y-202696894D01*
X273543349Y-202315559D01*
X273563555Y-201930000D01*
X273543349Y-201544441D01*
X273482951Y-201163106D01*
X273383024Y-200790174D01*
X273244663Y-200429730D01*
X273227858Y-200396748D01*
X273070881Y-200088664D01*
X273070877Y-200088657D01*
X273069382Y-200085723D01*
X272859104Y-199761922D01*
X272616131Y-199461875D01*
X272343125Y-199188869D01*
X272043078Y-198945896D01*
X271719278Y-198735618D01*
X271716344Y-198734123D01*
X271716337Y-198734119D01*
X271378210Y-198561835D01*
X271375270Y-198560337D01*
X271014826Y-198421976D01*
X270641894Y-198322049D01*
X270439357Y-198289970D01*
X270263807Y-198262165D01*
X270263799Y-198262164D01*
X270260559Y-198261651D01*
X269875000Y-198241445D01*
X269489441Y-198261651D01*
X269486201Y-198262164D01*
X269486193Y-198262165D01*
X269310643Y-198289970D01*
X269108106Y-198322049D01*
X268735174Y-198421976D01*
X268374730Y-198560337D01*
X268371790Y-198561835D01*
X268033664Y-198734119D01*
X268033657Y-198734123D01*
X268030723Y-198735618D01*
X267706922Y-198945896D01*
X267406875Y-199188869D01*
X267133869Y-199461875D01*
X266890896Y-199761922D01*
X266680618Y-200085723D01*
X266679123Y-200088657D01*
X266679119Y-200088664D01*
X266522142Y-200396748D01*
X266505337Y-200429730D01*
X266366976Y-200790174D01*
X266267049Y-201163106D01*
X266206651Y-201544441D01*
X266187908Y-201902077D01*
X266186445Y-201930000D01*
X159263555Y-201930000D01*
X159243349Y-201544441D01*
X159182951Y-201163106D01*
X159083024Y-200790174D01*
X158944663Y-200429730D01*
X158927858Y-200396748D01*
X158770881Y-200088664D01*
X158770877Y-200088657D01*
X158769382Y-200085723D01*
X158559104Y-199761922D01*
X158316131Y-199461875D01*
X158043125Y-199188869D01*
X157743078Y-198945896D01*
X157419278Y-198735618D01*
X157416344Y-198734123D01*
X157416337Y-198734119D01*
X157078210Y-198561835D01*
X157075270Y-198560337D01*
X156714826Y-198421976D01*
X156341894Y-198322049D01*
X156139357Y-198289970D01*
X155963807Y-198262165D01*
X155963799Y-198262164D01*
X155960559Y-198261651D01*
X155575000Y-198241445D01*
X155189441Y-198261651D01*
X155186201Y-198262164D01*
X155186193Y-198262165D01*
X155010643Y-198289970D01*
X154808106Y-198322049D01*
X154435174Y-198421976D01*
X154074730Y-198560337D01*
X154071790Y-198561835D01*
X153733664Y-198734119D01*
X153733657Y-198734123D01*
X153730723Y-198735618D01*
X153406922Y-198945896D01*
X153106875Y-199188869D01*
X152833869Y-199461875D01*
X152590896Y-199761922D01*
X152380618Y-200085723D01*
X152379123Y-200088657D01*
X152379119Y-200088664D01*
X152222142Y-200396748D01*
X152205337Y-200429730D01*
X152066976Y-200790174D01*
X151967049Y-201163106D01*
X151906651Y-201544441D01*
X151887908Y-201902077D01*
X151886445Y-201930000D01*
X137033500Y-201930000D01*
X137033500Y-156153266D01*
X151512001Y-156153266D01*
X151512109Y-156156356D01*
X151512499Y-156167534D01*
X151524347Y-156506798D01*
X151525856Y-156550016D01*
X151578361Y-156943521D01*
X151669014Y-157330023D01*
X151796951Y-157705835D01*
X151960950Y-158067369D01*
X152159446Y-158411174D01*
X152161235Y-158413672D01*
X152161237Y-158413676D01*
X152261353Y-158553516D01*
X152390544Y-158733969D01*
X152652038Y-159032671D01*
X152654286Y-159034782D01*
X152939178Y-159302314D01*
X152939185Y-159302320D01*
X152941433Y-159304431D01*
X152943883Y-159306318D01*
X152943888Y-159306322D01*
X153253522Y-159544773D01*
X153255965Y-159546654D01*
X153258564Y-159548278D01*
X153258574Y-159548285D01*
X153439998Y-159661650D01*
X153592634Y-159757027D01*
X153948224Y-159933544D01*
X154319342Y-160074518D01*
X154702446Y-160178605D01*
X154705489Y-160179120D01*
X154705495Y-160179121D01*
X155090837Y-160244297D01*
X155090844Y-160244298D01*
X155093878Y-160244811D01*
X155096949Y-160245026D01*
X155096951Y-160245026D01*
X155486837Y-160272290D01*
X155486845Y-160272290D01*
X155489903Y-160272504D01*
X155746170Y-160265346D01*
X155883666Y-160261505D01*
X155883669Y-160261505D01*
X155886740Y-160261419D01*
X155889793Y-160261033D01*
X155889797Y-160261033D01*
X156078315Y-160237218D01*
X156280601Y-160211663D01*
X156283605Y-160210981D01*
X156283608Y-160210980D01*
X156664731Y-160124391D01*
X156664737Y-160124389D01*
X156667727Y-160123710D01*
X156815604Y-160074518D01*
X157041499Y-159999373D01*
X157041505Y-159999371D01*
X157044423Y-159998400D01*
X157187633Y-159934639D01*
X157404294Y-159838176D01*
X157404300Y-159838173D01*
X157407094Y-159836929D01*
X157547747Y-159757027D01*
X157749603Y-159642357D01*
X157749611Y-159642352D01*
X157752276Y-159640838D01*
X158076676Y-159411999D01*
X158377197Y-159152596D01*
X158379318Y-159150369D01*
X158379324Y-159150363D01*
X158648853Y-158867329D01*
X158650970Y-158865106D01*
X158684237Y-158822527D01*
X158893472Y-158554717D01*
X158893474Y-158554714D01*
X158895382Y-158552272D01*
X158897038Y-158549662D01*
X158897044Y-158549654D01*
X159106447Y-158219688D01*
X159106451Y-158219681D01*
X159108101Y-158217081D01*
X159134390Y-158165039D01*
X159193043Y-158048925D01*
X159287096Y-157862732D01*
X159288203Y-157859878D01*
X159288207Y-157859869D01*
X159429543Y-157495483D01*
X159429546Y-157495474D01*
X159430658Y-157492607D01*
X159537417Y-157110239D01*
X159606354Y-156719278D01*
X159636811Y-156323457D01*
X159638395Y-156210000D01*
X159635772Y-156156356D01*
X159635621Y-156153266D01*
X180087001Y-156153266D01*
X180087109Y-156156356D01*
X180087499Y-156167534D01*
X180099347Y-156506798D01*
X180100856Y-156550016D01*
X180153361Y-156943521D01*
X180244014Y-157330023D01*
X180371951Y-157705835D01*
X180535950Y-158067369D01*
X180734446Y-158411174D01*
X180736235Y-158413672D01*
X180736237Y-158413676D01*
X180836353Y-158553516D01*
X180965544Y-158733969D01*
X181227038Y-159032671D01*
X181229286Y-159034782D01*
X181514178Y-159302314D01*
X181514185Y-159302320D01*
X181516433Y-159304431D01*
X181518883Y-159306318D01*
X181518888Y-159306322D01*
X181828522Y-159544773D01*
X181830965Y-159546654D01*
X181833564Y-159548278D01*
X181833574Y-159548285D01*
X182014998Y-159661650D01*
X182167634Y-159757027D01*
X182523224Y-159933544D01*
X182894342Y-160074518D01*
X183277446Y-160178605D01*
X183280489Y-160179120D01*
X183280495Y-160179121D01*
X183665837Y-160244297D01*
X183665844Y-160244298D01*
X183668878Y-160244811D01*
X183671949Y-160245026D01*
X183671951Y-160245026D01*
X184061837Y-160272290D01*
X184061845Y-160272290D01*
X184064903Y-160272504D01*
X184321170Y-160265346D01*
X184458666Y-160261505D01*
X184458669Y-160261505D01*
X184461740Y-160261419D01*
X184464793Y-160261033D01*
X184464797Y-160261033D01*
X184653315Y-160237218D01*
X184855601Y-160211663D01*
X184858605Y-160210981D01*
X184858608Y-160210980D01*
X185239731Y-160124391D01*
X185239737Y-160124389D01*
X185242727Y-160123710D01*
X185390604Y-160074518D01*
X185616499Y-159999373D01*
X185616505Y-159999371D01*
X185619423Y-159998400D01*
X185762633Y-159934639D01*
X185979294Y-159838176D01*
X185979300Y-159838173D01*
X185982094Y-159836929D01*
X186122747Y-159757027D01*
X186324603Y-159642357D01*
X186324611Y-159642352D01*
X186327276Y-159640838D01*
X186651676Y-159411999D01*
X186952197Y-159152596D01*
X186954318Y-159150369D01*
X186954324Y-159150363D01*
X187223853Y-158867329D01*
X187225970Y-158865106D01*
X187259237Y-158822527D01*
X187468472Y-158554717D01*
X187468474Y-158554714D01*
X187470382Y-158552272D01*
X187472038Y-158549662D01*
X187472044Y-158549654D01*
X187681447Y-158219688D01*
X187681451Y-158219681D01*
X187683101Y-158217081D01*
X187709390Y-158165039D01*
X187768043Y-158048925D01*
X187862096Y-157862732D01*
X187863203Y-157859878D01*
X187863207Y-157859869D01*
X188004543Y-157495483D01*
X188004546Y-157495474D01*
X188005658Y-157492607D01*
X188112417Y-157110239D01*
X188181354Y-156719278D01*
X188211811Y-156323457D01*
X188213395Y-156210000D01*
X188210772Y-156156356D01*
X188210621Y-156153266D01*
X208662001Y-156153266D01*
X208662109Y-156156356D01*
X208662499Y-156167534D01*
X208674347Y-156506798D01*
X208675856Y-156550016D01*
X208728361Y-156943521D01*
X208819014Y-157330023D01*
X208946951Y-157705835D01*
X209110950Y-158067369D01*
X209309446Y-158411174D01*
X209311235Y-158413672D01*
X209311237Y-158413676D01*
X209411353Y-158553516D01*
X209540544Y-158733969D01*
X209802038Y-159032671D01*
X209804286Y-159034782D01*
X210089178Y-159302314D01*
X210089185Y-159302320D01*
X210091433Y-159304431D01*
X210093883Y-159306318D01*
X210093888Y-159306322D01*
X210403522Y-159544773D01*
X210405965Y-159546654D01*
X210408564Y-159548278D01*
X210408574Y-159548285D01*
X210589998Y-159661650D01*
X210742634Y-159757027D01*
X211098224Y-159933544D01*
X211469342Y-160074518D01*
X211852446Y-160178605D01*
X211855489Y-160179120D01*
X211855495Y-160179121D01*
X212240837Y-160244297D01*
X212240844Y-160244298D01*
X212243878Y-160244811D01*
X212246949Y-160245026D01*
X212246951Y-160245026D01*
X212636837Y-160272290D01*
X212636845Y-160272290D01*
X212639903Y-160272504D01*
X212896170Y-160265346D01*
X213033666Y-160261505D01*
X213033669Y-160261505D01*
X213036740Y-160261419D01*
X213039793Y-160261033D01*
X213039797Y-160261033D01*
X213228315Y-160237218D01*
X213430601Y-160211663D01*
X213433605Y-160210981D01*
X213433608Y-160210980D01*
X213814731Y-160124391D01*
X213814737Y-160124389D01*
X213817727Y-160123710D01*
X213965604Y-160074518D01*
X214191499Y-159999373D01*
X214191505Y-159999371D01*
X214194423Y-159998400D01*
X214337633Y-159934639D01*
X214554294Y-159838176D01*
X214554300Y-159838173D01*
X214557094Y-159836929D01*
X214697747Y-159757027D01*
X214899603Y-159642357D01*
X214899611Y-159642352D01*
X214902276Y-159640838D01*
X215226676Y-159411999D01*
X215527197Y-159152596D01*
X215529318Y-159150369D01*
X215529324Y-159150363D01*
X215798853Y-158867329D01*
X215800970Y-158865106D01*
X215834237Y-158822527D01*
X216043472Y-158554717D01*
X216043474Y-158554714D01*
X216045382Y-158552272D01*
X216047038Y-158549662D01*
X216047044Y-158549654D01*
X216256447Y-158219688D01*
X216256451Y-158219681D01*
X216258101Y-158217081D01*
X216284390Y-158165039D01*
X216343043Y-158048925D01*
X216437096Y-157862732D01*
X216438203Y-157859878D01*
X216438207Y-157859869D01*
X216579543Y-157495483D01*
X216579546Y-157495474D01*
X216580658Y-157492607D01*
X216687417Y-157110239D01*
X216756354Y-156719278D01*
X216786811Y-156323457D01*
X216788395Y-156210000D01*
X216785772Y-156156356D01*
X216785621Y-156153266D01*
X237237001Y-156153266D01*
X237237109Y-156156356D01*
X237237499Y-156167534D01*
X237249347Y-156506798D01*
X237250856Y-156550016D01*
X237303361Y-156943521D01*
X237394014Y-157330023D01*
X237521951Y-157705835D01*
X237685950Y-158067369D01*
X237884446Y-158411174D01*
X237886235Y-158413672D01*
X237886237Y-158413676D01*
X237986353Y-158553516D01*
X238115544Y-158733969D01*
X238377038Y-159032671D01*
X238379286Y-159034782D01*
X238664178Y-159302314D01*
X238664185Y-159302320D01*
X238666433Y-159304431D01*
X238668883Y-159306318D01*
X238668888Y-159306322D01*
X238978522Y-159544773D01*
X238980965Y-159546654D01*
X238983564Y-159548278D01*
X238983574Y-159548285D01*
X239164998Y-159661650D01*
X239317634Y-159757027D01*
X239673224Y-159933544D01*
X240044342Y-160074518D01*
X240427446Y-160178605D01*
X240430489Y-160179120D01*
X240430495Y-160179121D01*
X240815837Y-160244297D01*
X240815844Y-160244298D01*
X240818878Y-160244811D01*
X240821949Y-160245026D01*
X240821951Y-160245026D01*
X241211837Y-160272290D01*
X241211845Y-160272290D01*
X241214903Y-160272504D01*
X241471170Y-160265346D01*
X241608666Y-160261505D01*
X241608669Y-160261505D01*
X241611740Y-160261419D01*
X241614793Y-160261033D01*
X241614797Y-160261033D01*
X241803315Y-160237218D01*
X242005601Y-160211663D01*
X242008605Y-160210981D01*
X242008608Y-160210980D01*
X242389731Y-160124391D01*
X242389737Y-160124389D01*
X242392727Y-160123710D01*
X242540604Y-160074518D01*
X242766499Y-159999373D01*
X242766505Y-159999371D01*
X242769423Y-159998400D01*
X242912633Y-159934639D01*
X243129294Y-159838176D01*
X243129300Y-159838173D01*
X243132094Y-159836929D01*
X243272747Y-159757027D01*
X243474603Y-159642357D01*
X243474611Y-159642352D01*
X243477276Y-159640838D01*
X243801676Y-159411999D01*
X244102197Y-159152596D01*
X244104318Y-159150369D01*
X244104324Y-159150363D01*
X244373853Y-158867329D01*
X244375970Y-158865106D01*
X244409237Y-158822527D01*
X244618472Y-158554717D01*
X244618474Y-158554714D01*
X244620382Y-158552272D01*
X244622038Y-158549662D01*
X244622044Y-158549654D01*
X244831447Y-158219688D01*
X244831451Y-158219681D01*
X244833101Y-158217081D01*
X244859390Y-158165039D01*
X244918043Y-158048925D01*
X245012096Y-157862732D01*
X245013203Y-157859878D01*
X245013207Y-157859869D01*
X245154543Y-157495483D01*
X245154546Y-157495474D01*
X245155658Y-157492607D01*
X245262417Y-157110239D01*
X245331354Y-156719278D01*
X245361811Y-156323457D01*
X245363395Y-156210000D01*
X245360772Y-156156356D01*
X245360621Y-156153266D01*
X265812001Y-156153266D01*
X265812109Y-156156356D01*
X265812499Y-156167534D01*
X265824347Y-156506798D01*
X265825856Y-156550016D01*
X265878361Y-156943521D01*
X265969014Y-157330023D01*
X266096951Y-157705835D01*
X266260950Y-158067369D01*
X266459446Y-158411174D01*
X266461235Y-158413672D01*
X266461237Y-158413676D01*
X266561353Y-158553516D01*
X266690544Y-158733969D01*
X266952038Y-159032671D01*
X266954286Y-159034782D01*
X267239178Y-159302314D01*
X267239185Y-159302320D01*
X267241433Y-159304431D01*
X267243883Y-159306318D01*
X267243888Y-159306322D01*
X267553522Y-159544773D01*
X267555965Y-159546654D01*
X267558564Y-159548278D01*
X267558574Y-159548285D01*
X267739998Y-159661650D01*
X267892634Y-159757027D01*
X268248224Y-159933544D01*
X268619342Y-160074518D01*
X269002446Y-160178605D01*
X269005489Y-160179120D01*
X269005495Y-160179121D01*
X269390837Y-160244297D01*
X269390844Y-160244298D01*
X269393878Y-160244811D01*
X269396949Y-160245026D01*
X269396951Y-160245026D01*
X269786837Y-160272290D01*
X269786845Y-160272290D01*
X269789903Y-160272504D01*
X270046170Y-160265346D01*
X270183666Y-160261505D01*
X270183669Y-160261505D01*
X270186740Y-160261419D01*
X270189793Y-160261033D01*
X270189797Y-160261033D01*
X270378315Y-160237218D01*
X270580601Y-160211663D01*
X270583605Y-160210981D01*
X270583608Y-160210980D01*
X270964731Y-160124391D01*
X270964737Y-160124389D01*
X270967727Y-160123710D01*
X271115604Y-160074518D01*
X271341499Y-159999373D01*
X271341505Y-159999371D01*
X271344423Y-159998400D01*
X271487633Y-159934639D01*
X271704294Y-159838176D01*
X271704300Y-159838173D01*
X271707094Y-159836929D01*
X271847747Y-159757027D01*
X272049603Y-159642357D01*
X272049611Y-159642352D01*
X272052276Y-159640838D01*
X272376676Y-159411999D01*
X272677197Y-159152596D01*
X272679318Y-159150369D01*
X272679324Y-159150363D01*
X272948853Y-158867329D01*
X272950970Y-158865106D01*
X272984237Y-158822527D01*
X273193472Y-158554717D01*
X273193474Y-158554714D01*
X273195382Y-158552272D01*
X273197038Y-158549662D01*
X273197044Y-158549654D01*
X273406447Y-158219688D01*
X273406451Y-158219681D01*
X273408101Y-158217081D01*
X273434390Y-158165039D01*
X273493043Y-158048925D01*
X273587096Y-157862732D01*
X273588203Y-157859878D01*
X273588207Y-157859869D01*
X273729543Y-157495483D01*
X273729546Y-157495474D01*
X273730658Y-157492607D01*
X273837417Y-157110239D01*
X273906354Y-156719278D01*
X273936811Y-156323457D01*
X273938395Y-156210000D01*
X273935772Y-156156356D01*
X273919152Y-155816552D01*
X273919002Y-155813482D01*
X273910220Y-155754012D01*
X273861458Y-155423795D01*
X273861457Y-155423791D01*
X273861008Y-155420749D01*
X273764967Y-155035550D01*
X273746728Y-154984327D01*
X273632828Y-154664460D01*
X273631796Y-154661561D01*
X273462765Y-154302352D01*
X273433015Y-154252445D01*
X273261068Y-153964003D01*
X273259488Y-153961352D01*
X273023906Y-153641815D01*
X272758266Y-153346793D01*
X272465105Y-153079100D01*
X272147222Y-152841293D01*
X272098370Y-152811707D01*
X271810277Y-152637231D01*
X271810268Y-152637226D01*
X271807649Y-152635640D01*
X271449629Y-152464106D01*
X271390229Y-152442486D01*
X271079475Y-152329381D01*
X271079474Y-152329381D01*
X271076579Y-152328327D01*
X270869688Y-152275206D01*
X270695043Y-152230365D01*
X270695040Y-152230364D01*
X270692059Y-152229599D01*
X270299740Y-152168865D01*
X270296683Y-152168694D01*
X270296682Y-152168694D01*
X270267924Y-152167086D01*
X269903368Y-152146704D01*
X269900290Y-152146833D01*
X269900286Y-152146833D01*
X269641983Y-152157659D01*
X269506724Y-152163328D01*
X269503680Y-152163756D01*
X269503678Y-152163756D01*
X269463989Y-152169334D01*
X269113596Y-152218579D01*
X268727735Y-152311928D01*
X268352825Y-152442486D01*
X268306035Y-152464106D01*
X267995242Y-152607712D01*
X267995232Y-152607717D01*
X267992445Y-152609005D01*
X267650034Y-152809896D01*
X267609018Y-152839696D01*
X267331342Y-153041439D01*
X267331336Y-153041444D01*
X267328861Y-153043242D01*
X267326575Y-153045271D01*
X267326572Y-153045274D01*
X267286134Y-153081177D01*
X267031991Y-153306815D01*
X267029901Y-153309072D01*
X267029899Y-153309074D01*
X266764354Y-153595837D01*
X266764349Y-153595843D01*
X266762259Y-153598100D01*
X266760399Y-153600550D01*
X266760396Y-153600554D01*
X266727202Y-153644286D01*
X266522238Y-153914316D01*
X266520627Y-153916934D01*
X266520624Y-153916939D01*
X266315834Y-154249821D01*
X266314220Y-154252445D01*
X266140190Y-154609258D01*
X266139119Y-154612139D01*
X266139116Y-154612145D01*
X266053146Y-154843313D01*
X266001810Y-154981352D01*
X265900400Y-155365173D01*
X265836928Y-155757058D01*
X265836734Y-155760138D01*
X265836734Y-155760140D01*
X265829762Y-155870967D01*
X265812001Y-156153266D01*
X245360621Y-156153266D01*
X245344152Y-155816552D01*
X245344002Y-155813482D01*
X245335220Y-155754012D01*
X245286458Y-155423795D01*
X245286457Y-155423791D01*
X245286008Y-155420749D01*
X245189967Y-155035550D01*
X245171728Y-154984327D01*
X245057828Y-154664460D01*
X245056796Y-154661561D01*
X244887765Y-154302352D01*
X244858015Y-154252445D01*
X244686068Y-153964003D01*
X244684488Y-153961352D01*
X244448906Y-153641815D01*
X244183266Y-153346793D01*
X243890105Y-153079100D01*
X243572222Y-152841293D01*
X243523370Y-152811707D01*
X243235277Y-152637231D01*
X243235268Y-152637226D01*
X243232649Y-152635640D01*
X242874629Y-152464106D01*
X242815229Y-152442486D01*
X242504475Y-152329381D01*
X242504474Y-152329381D01*
X242501579Y-152328327D01*
X242294688Y-152275206D01*
X242120043Y-152230365D01*
X242120040Y-152230364D01*
X242117059Y-152229599D01*
X241724740Y-152168865D01*
X241721683Y-152168694D01*
X241721682Y-152168694D01*
X241692924Y-152167086D01*
X241328368Y-152146704D01*
X241325290Y-152146833D01*
X241325286Y-152146833D01*
X241066983Y-152157659D01*
X240931724Y-152163328D01*
X240928680Y-152163756D01*
X240928678Y-152163756D01*
X240888989Y-152169334D01*
X240538596Y-152218579D01*
X240152735Y-152311928D01*
X239777825Y-152442486D01*
X239731035Y-152464106D01*
X239420242Y-152607712D01*
X239420232Y-152607717D01*
X239417445Y-152609005D01*
X239075034Y-152809896D01*
X239034018Y-152839696D01*
X238756342Y-153041439D01*
X238756336Y-153041444D01*
X238753861Y-153043242D01*
X238751575Y-153045271D01*
X238751572Y-153045274D01*
X238711134Y-153081177D01*
X238456991Y-153306815D01*
X238454901Y-153309072D01*
X238454899Y-153309074D01*
X238189354Y-153595837D01*
X238189349Y-153595843D01*
X238187259Y-153598100D01*
X238185399Y-153600550D01*
X238185396Y-153600554D01*
X238152202Y-153644286D01*
X237947238Y-153914316D01*
X237945627Y-153916934D01*
X237945624Y-153916939D01*
X237740834Y-154249821D01*
X237739220Y-154252445D01*
X237565190Y-154609258D01*
X237564119Y-154612139D01*
X237564116Y-154612145D01*
X237478146Y-154843313D01*
X237426810Y-154981352D01*
X237325400Y-155365173D01*
X237261928Y-155757058D01*
X237261734Y-155760138D01*
X237261734Y-155760140D01*
X237254762Y-155870967D01*
X237237001Y-156153266D01*
X216785621Y-156153266D01*
X216769152Y-155816552D01*
X216769002Y-155813482D01*
X216760220Y-155754012D01*
X216711458Y-155423795D01*
X216711457Y-155423791D01*
X216711008Y-155420749D01*
X216614967Y-155035550D01*
X216596728Y-154984327D01*
X216482828Y-154664460D01*
X216481796Y-154661561D01*
X216312765Y-154302352D01*
X216283015Y-154252445D01*
X216111068Y-153964003D01*
X216109488Y-153961352D01*
X215873906Y-153641815D01*
X215608266Y-153346793D01*
X215315105Y-153079100D01*
X214997222Y-152841293D01*
X214948370Y-152811707D01*
X214660277Y-152637231D01*
X214660268Y-152637226D01*
X214657649Y-152635640D01*
X214299629Y-152464106D01*
X214240229Y-152442486D01*
X213929475Y-152329381D01*
X213929474Y-152329381D01*
X213926579Y-152328327D01*
X213719688Y-152275206D01*
X213545043Y-152230365D01*
X213545040Y-152230364D01*
X213542059Y-152229599D01*
X213149740Y-152168865D01*
X213146683Y-152168694D01*
X213146682Y-152168694D01*
X213117924Y-152167086D01*
X212753368Y-152146704D01*
X212750290Y-152146833D01*
X212750286Y-152146833D01*
X212491983Y-152157659D01*
X212356724Y-152163328D01*
X212353680Y-152163756D01*
X212353678Y-152163756D01*
X212313989Y-152169334D01*
X211963596Y-152218579D01*
X211577735Y-152311928D01*
X211202825Y-152442486D01*
X211156035Y-152464106D01*
X210845242Y-152607712D01*
X210845232Y-152607717D01*
X210842445Y-152609005D01*
X210500034Y-152809896D01*
X210459018Y-152839696D01*
X210181342Y-153041439D01*
X210181336Y-153041444D01*
X210178861Y-153043242D01*
X210176575Y-153045271D01*
X210176572Y-153045274D01*
X210136134Y-153081177D01*
X209881991Y-153306815D01*
X209879901Y-153309072D01*
X209879899Y-153309074D01*
X209614354Y-153595837D01*
X209614349Y-153595843D01*
X209612259Y-153598100D01*
X209610399Y-153600550D01*
X209610396Y-153600554D01*
X209577202Y-153644286D01*
X209372238Y-153914316D01*
X209370627Y-153916934D01*
X209370624Y-153916939D01*
X209165834Y-154249821D01*
X209164220Y-154252445D01*
X208990190Y-154609258D01*
X208989119Y-154612139D01*
X208989116Y-154612145D01*
X208903146Y-154843313D01*
X208851810Y-154981352D01*
X208750400Y-155365173D01*
X208686928Y-155757058D01*
X208686734Y-155760138D01*
X208686734Y-155760140D01*
X208679762Y-155870967D01*
X208662001Y-156153266D01*
X188210621Y-156153266D01*
X188194152Y-155816552D01*
X188194002Y-155813482D01*
X188185220Y-155754012D01*
X188136458Y-155423795D01*
X188136457Y-155423791D01*
X188136008Y-155420749D01*
X188039967Y-155035550D01*
X188021728Y-154984327D01*
X187907828Y-154664460D01*
X187906796Y-154661561D01*
X187737765Y-154302352D01*
X187708015Y-154252445D01*
X187536068Y-153964003D01*
X187534488Y-153961352D01*
X187298906Y-153641815D01*
X187033266Y-153346793D01*
X186740105Y-153079100D01*
X186422222Y-152841293D01*
X186373370Y-152811707D01*
X186085277Y-152637231D01*
X186085268Y-152637226D01*
X186082649Y-152635640D01*
X185724629Y-152464106D01*
X185665229Y-152442486D01*
X185354475Y-152329381D01*
X185354474Y-152329381D01*
X185351579Y-152328327D01*
X185144688Y-152275206D01*
X184970043Y-152230365D01*
X184970040Y-152230364D01*
X184967059Y-152229599D01*
X184574740Y-152168865D01*
X184571683Y-152168694D01*
X184571682Y-152168694D01*
X184542924Y-152167086D01*
X184178368Y-152146704D01*
X184175290Y-152146833D01*
X184175286Y-152146833D01*
X183916983Y-152157659D01*
X183781724Y-152163328D01*
X183778680Y-152163756D01*
X183778678Y-152163756D01*
X183738989Y-152169334D01*
X183388596Y-152218579D01*
X183002735Y-152311928D01*
X182627825Y-152442486D01*
X182581035Y-152464106D01*
X182270242Y-152607712D01*
X182270232Y-152607717D01*
X182267445Y-152609005D01*
X181925034Y-152809896D01*
X181884018Y-152839696D01*
X181606342Y-153041439D01*
X181606336Y-153041444D01*
X181603861Y-153043242D01*
X181601575Y-153045271D01*
X181601572Y-153045274D01*
X181561134Y-153081177D01*
X181306991Y-153306815D01*
X181304901Y-153309072D01*
X181304899Y-153309074D01*
X181039354Y-153595837D01*
X181039349Y-153595843D01*
X181037259Y-153598100D01*
X181035399Y-153600550D01*
X181035396Y-153600554D01*
X181002202Y-153644286D01*
X180797238Y-153914316D01*
X180795627Y-153916934D01*
X180795624Y-153916939D01*
X180590834Y-154249821D01*
X180589220Y-154252445D01*
X180415190Y-154609258D01*
X180414119Y-154612139D01*
X180414116Y-154612145D01*
X180328146Y-154843313D01*
X180276810Y-154981352D01*
X180175400Y-155365173D01*
X180111928Y-155757058D01*
X180111734Y-155760138D01*
X180111734Y-155760140D01*
X180104762Y-155870967D01*
X180087001Y-156153266D01*
X159635621Y-156153266D01*
X159619152Y-155816552D01*
X159619002Y-155813482D01*
X159610220Y-155754012D01*
X159561458Y-155423795D01*
X159561457Y-155423791D01*
X159561008Y-155420749D01*
X159464967Y-155035550D01*
X159446728Y-154984327D01*
X159332828Y-154664460D01*
X159331796Y-154661561D01*
X159162765Y-154302352D01*
X159133015Y-154252445D01*
X158961068Y-153964003D01*
X158959488Y-153961352D01*
X158723906Y-153641815D01*
X158458266Y-153346793D01*
X158165105Y-153079100D01*
X157847222Y-152841293D01*
X157798370Y-152811707D01*
X157510277Y-152637231D01*
X157510268Y-152637226D01*
X157507649Y-152635640D01*
X157149629Y-152464106D01*
X157090229Y-152442486D01*
X156779475Y-152329381D01*
X156779474Y-152329381D01*
X156776579Y-152328327D01*
X156569688Y-152275206D01*
X156395043Y-152230365D01*
X156395040Y-152230364D01*
X156392059Y-152229599D01*
X155999740Y-152168865D01*
X155996683Y-152168694D01*
X155996682Y-152168694D01*
X155967924Y-152167086D01*
X155603368Y-152146704D01*
X155600290Y-152146833D01*
X155600286Y-152146833D01*
X155341983Y-152157659D01*
X155206724Y-152163328D01*
X155203680Y-152163756D01*
X155203678Y-152163756D01*
X155163989Y-152169334D01*
X154813596Y-152218579D01*
X154427735Y-152311928D01*
X154052825Y-152442486D01*
X154006035Y-152464106D01*
X153695242Y-152607712D01*
X153695232Y-152607717D01*
X153692445Y-152609005D01*
X153350034Y-152809896D01*
X153309018Y-152839696D01*
X153031342Y-153041439D01*
X153031336Y-153041444D01*
X153028861Y-153043242D01*
X153026575Y-153045271D01*
X153026572Y-153045274D01*
X152986134Y-153081177D01*
X152731991Y-153306815D01*
X152729901Y-153309072D01*
X152729899Y-153309074D01*
X152464354Y-153595837D01*
X152464349Y-153595843D01*
X152462259Y-153598100D01*
X152460399Y-153600550D01*
X152460396Y-153600554D01*
X152427202Y-153644286D01*
X152222238Y-153914316D01*
X152220627Y-153916934D01*
X152220624Y-153916939D01*
X152015834Y-154249821D01*
X152014220Y-154252445D01*
X151840190Y-154609258D01*
X151839119Y-154612139D01*
X151839116Y-154612145D01*
X151753146Y-154843313D01*
X151701810Y-154981352D01*
X151600400Y-155365173D01*
X151536928Y-155757058D01*
X151536734Y-155760138D01*
X151536734Y-155760140D01*
X151529762Y-155870967D01*
X151512001Y-156153266D01*
X137033500Y-156153266D01*
X137033500Y-120593266D01*
X157862001Y-120593266D01*
X157862109Y-120596356D01*
X157862499Y-120607534D01*
X157875637Y-120983733D01*
X157875856Y-120990016D01*
X157876262Y-120993060D01*
X157876263Y-120993070D01*
X157886968Y-121073295D01*
X157928361Y-121383521D01*
X157929061Y-121386505D01*
X157929062Y-121386511D01*
X157980018Y-121603764D01*
X158019014Y-121770023D01*
X158146951Y-122145835D01*
X158310950Y-122507369D01*
X158509446Y-122851174D01*
X158511235Y-122853672D01*
X158511237Y-122853676D01*
X158708528Y-123129249D01*
X158740544Y-123173969D01*
X158742571Y-123176284D01*
X158742573Y-123176287D01*
X158907604Y-123364800D01*
X159002038Y-123472671D01*
X159004286Y-123474782D01*
X159289178Y-123742314D01*
X159289185Y-123742320D01*
X159291433Y-123744431D01*
X159293883Y-123746318D01*
X159293888Y-123746322D01*
X159597806Y-123980371D01*
X159605965Y-123986654D01*
X159608564Y-123988278D01*
X159608574Y-123988285D01*
X159789998Y-124101650D01*
X159942634Y-124197027D01*
X160298224Y-124373544D01*
X160669342Y-124514518D01*
X161052446Y-124618605D01*
X161055489Y-124619120D01*
X161055495Y-124619121D01*
X161440837Y-124684297D01*
X161440844Y-124684298D01*
X161443878Y-124684811D01*
X161446949Y-124685026D01*
X161446951Y-124685026D01*
X161836837Y-124712290D01*
X161836845Y-124712290D01*
X161839903Y-124712504D01*
X162096170Y-124705346D01*
X162233666Y-124701505D01*
X162233669Y-124701505D01*
X162236740Y-124701419D01*
X162239793Y-124701033D01*
X162239797Y-124701033D01*
X162428315Y-124677218D01*
X162630601Y-124651663D01*
X162633605Y-124650981D01*
X162633608Y-124650980D01*
X163014731Y-124564391D01*
X163014737Y-124564389D01*
X163017727Y-124563710D01*
X163034567Y-124558108D01*
X163391499Y-124439373D01*
X163391505Y-124439371D01*
X163394423Y-124438400D01*
X163397233Y-124437149D01*
X163754294Y-124278176D01*
X163754300Y-124278173D01*
X163757094Y-124276929D01*
X163789593Y-124258467D01*
X164099603Y-124082357D01*
X164099611Y-124082352D01*
X164102276Y-124080838D01*
X164109030Y-124076074D01*
X164424144Y-123853785D01*
X164426676Y-123851999D01*
X164435501Y-123844382D01*
X164724859Y-123594614D01*
X164727197Y-123592596D01*
X164729318Y-123590369D01*
X164729324Y-123590363D01*
X164998853Y-123307329D01*
X165000970Y-123305106D01*
X165003481Y-123301893D01*
X165243472Y-122994717D01*
X165243474Y-122994714D01*
X165245382Y-122992272D01*
X165247038Y-122989662D01*
X165247044Y-122989654D01*
X165456447Y-122659688D01*
X165456451Y-122659681D01*
X165458101Y-122657081D01*
X165462664Y-122648049D01*
X165560235Y-122454890D01*
X165637096Y-122302732D01*
X165638203Y-122299878D01*
X165638207Y-122299869D01*
X165779543Y-121935483D01*
X165779546Y-121935474D01*
X165780658Y-121932607D01*
X165872473Y-121603764D01*
X165886589Y-121553205D01*
X165886590Y-121553203D01*
X165887417Y-121550239D01*
X165956354Y-121159278D01*
X165986811Y-120763457D01*
X165988395Y-120650000D01*
X183636445Y-120650000D01*
X183656651Y-121035559D01*
X183657164Y-121038799D01*
X183657165Y-121038807D01*
X183675762Y-121156222D01*
X183717049Y-121416894D01*
X183816976Y-121789826D01*
X183955337Y-122150270D01*
X183956835Y-122153210D01*
X184033021Y-122302732D01*
X184130618Y-122494277D01*
X184132414Y-122497043D01*
X184132416Y-122497046D01*
X184236344Y-122657081D01*
X184340896Y-122818078D01*
X184583869Y-123118125D01*
X184856875Y-123391131D01*
X185156922Y-123634104D01*
X185480722Y-123844382D01*
X185483656Y-123845877D01*
X185483663Y-123845881D01*
X185759946Y-123986654D01*
X185824730Y-124019663D01*
X186185174Y-124158024D01*
X186558106Y-124257951D01*
X186760643Y-124290030D01*
X186936193Y-124317835D01*
X186936201Y-124317836D01*
X186939441Y-124318349D01*
X187325000Y-124338555D01*
X187710559Y-124318349D01*
X187713799Y-124317836D01*
X187713807Y-124317835D01*
X187889357Y-124290030D01*
X188091894Y-124257951D01*
X188464826Y-124158024D01*
X188825270Y-124019663D01*
X188890054Y-123986654D01*
X189166337Y-123845881D01*
X189166344Y-123845877D01*
X189169278Y-123844382D01*
X189493078Y-123634104D01*
X189793125Y-123391131D01*
X190066131Y-123118125D01*
X190309104Y-122818078D01*
X190413656Y-122657081D01*
X190517584Y-122497046D01*
X190517586Y-122497043D01*
X190519382Y-122494277D01*
X190616980Y-122302732D01*
X190693165Y-122153210D01*
X190694663Y-122150270D01*
X190833024Y-121789826D01*
X190932951Y-121416894D01*
X190974238Y-121156222D01*
X190992835Y-121038807D01*
X190992836Y-121038799D01*
X190993349Y-121035559D01*
X191013555Y-120650000D01*
X234436445Y-120650000D01*
X234456651Y-121035559D01*
X234457164Y-121038799D01*
X234457165Y-121038807D01*
X234475762Y-121156222D01*
X234517049Y-121416894D01*
X234616976Y-121789826D01*
X234755337Y-122150270D01*
X234756835Y-122153210D01*
X234833021Y-122302732D01*
X234930618Y-122494277D01*
X234932414Y-122497043D01*
X234932416Y-122497046D01*
X235036344Y-122657081D01*
X235140896Y-122818078D01*
X235383869Y-123118125D01*
X235656875Y-123391131D01*
X235956922Y-123634104D01*
X236280722Y-123844382D01*
X236283656Y-123845877D01*
X236283663Y-123845881D01*
X236559946Y-123986654D01*
X236624730Y-124019663D01*
X236985174Y-124158024D01*
X237358106Y-124257951D01*
X237560643Y-124290030D01*
X237736193Y-124317835D01*
X237736201Y-124317836D01*
X237739441Y-124318349D01*
X238125000Y-124338555D01*
X238510559Y-124318349D01*
X238513799Y-124317836D01*
X238513807Y-124317835D01*
X238689357Y-124290030D01*
X238891894Y-124257951D01*
X239264826Y-124158024D01*
X239625270Y-124019663D01*
X239690054Y-123986654D01*
X239966337Y-123845881D01*
X239966344Y-123845877D01*
X239969278Y-123844382D01*
X240293078Y-123634104D01*
X240593125Y-123391131D01*
X240866131Y-123118125D01*
X241109104Y-122818078D01*
X241213656Y-122657081D01*
X241317584Y-122497046D01*
X241317586Y-122497043D01*
X241319382Y-122494277D01*
X241416980Y-122302732D01*
X241493165Y-122153210D01*
X241494663Y-122150270D01*
X241633024Y-121789826D01*
X241732951Y-121416894D01*
X241774238Y-121156222D01*
X241792835Y-121038807D01*
X241792836Y-121038799D01*
X241793349Y-121035559D01*
X241813555Y-120650000D01*
X241810252Y-120586983D01*
X259457412Y-120586983D01*
X259457520Y-120590073D01*
X259457910Y-120601251D01*
X259469831Y-120942607D01*
X259471267Y-120983733D01*
X259471673Y-120986777D01*
X259471674Y-120986787D01*
X259476868Y-121025713D01*
X259523772Y-121377238D01*
X259524472Y-121380222D01*
X259524473Y-121380228D01*
X259532308Y-121413633D01*
X259614425Y-121763740D01*
X259615414Y-121766646D01*
X259615416Y-121766652D01*
X259623305Y-121789826D01*
X259742362Y-122139552D01*
X259906361Y-122501086D01*
X260104857Y-122844891D01*
X260106646Y-122847389D01*
X260106648Y-122847393D01*
X260329636Y-123158859D01*
X260335955Y-123167686D01*
X260337982Y-123170001D01*
X260337984Y-123170004D01*
X260354383Y-123188736D01*
X260597449Y-123466388D01*
X260599697Y-123468499D01*
X260884589Y-123736031D01*
X260884596Y-123736037D01*
X260886844Y-123738148D01*
X260889294Y-123740035D01*
X260889299Y-123740039D01*
X261032055Y-123849976D01*
X261201376Y-123980371D01*
X261203975Y-123981995D01*
X261203985Y-123982002D01*
X261385409Y-124095367D01*
X261538045Y-124190744D01*
X261893635Y-124367261D01*
X262264753Y-124508235D01*
X262647857Y-124612322D01*
X262650900Y-124612837D01*
X262650906Y-124612838D01*
X263036248Y-124678014D01*
X263036255Y-124678015D01*
X263039289Y-124678528D01*
X263042360Y-124678743D01*
X263042362Y-124678743D01*
X263432248Y-124706007D01*
X263432256Y-124706007D01*
X263435314Y-124706221D01*
X263691581Y-124699063D01*
X263829077Y-124695222D01*
X263829080Y-124695222D01*
X263832151Y-124695136D01*
X263835204Y-124694750D01*
X263835208Y-124694750D01*
X264023726Y-124670935D01*
X264226012Y-124645380D01*
X264229016Y-124644698D01*
X264229019Y-124644697D01*
X264610142Y-124558108D01*
X264610148Y-124558106D01*
X264613138Y-124557427D01*
X264616057Y-124556456D01*
X264986910Y-124433090D01*
X264986916Y-124433088D01*
X264989834Y-124432117D01*
X264992644Y-124430866D01*
X265349705Y-124271893D01*
X265349711Y-124271890D01*
X265352505Y-124270646D01*
X265373944Y-124258467D01*
X265695014Y-124076074D01*
X265695022Y-124076069D01*
X265697687Y-124074555D01*
X266022087Y-123845716D01*
X266025716Y-123842584D01*
X266279996Y-123623095D01*
X266322608Y-123586313D01*
X266324729Y-123584086D01*
X266324735Y-123584080D01*
X266594264Y-123301046D01*
X266596381Y-123298823D01*
X266601846Y-123291829D01*
X266838883Y-122988434D01*
X266838885Y-122988431D01*
X266840793Y-122985989D01*
X266842449Y-122983379D01*
X266842455Y-122983371D01*
X267051858Y-122653405D01*
X267051862Y-122653398D01*
X267053512Y-122650798D01*
X267079801Y-122598756D01*
X267213973Y-122333140D01*
X267232507Y-122296449D01*
X267233614Y-122293595D01*
X267233618Y-122293586D01*
X267374954Y-121929200D01*
X267374957Y-121929191D01*
X267376069Y-121926324D01*
X267482828Y-121543956D01*
X267551765Y-121152995D01*
X267568468Y-120935924D01*
X267582072Y-120759125D01*
X267582072Y-120759121D01*
X267582222Y-120757174D01*
X267583806Y-120643717D01*
X267582037Y-120607534D01*
X267564563Y-120250269D01*
X267564413Y-120247199D01*
X267524389Y-119976160D01*
X267506869Y-119857512D01*
X267506868Y-119857508D01*
X267506419Y-119854466D01*
X267410378Y-119469267D01*
X267393317Y-119421352D01*
X267296596Y-119149730D01*
X267277207Y-119095278D01*
X267116847Y-118754496D01*
X267109488Y-118738857D01*
X267109487Y-118738856D01*
X267108176Y-118736069D01*
X267078426Y-118686162D01*
X266955138Y-118479346D01*
X266904899Y-118395069D01*
X266749618Y-118184450D01*
X266671139Y-118078003D01*
X266671137Y-118078000D01*
X266669317Y-118075532D01*
X266403677Y-117780510D01*
X266110516Y-117512817D01*
X265792633Y-117275010D01*
X265743781Y-117245424D01*
X265455688Y-117070948D01*
X265455679Y-117070943D01*
X265453060Y-117069357D01*
X265095040Y-116897823D01*
X265056455Y-116883779D01*
X264724886Y-116763098D01*
X264724885Y-116763098D01*
X264721990Y-116762044D01*
X264515099Y-116708923D01*
X264340454Y-116664082D01*
X264340451Y-116664081D01*
X264337470Y-116663316D01*
X263945151Y-116602582D01*
X263942094Y-116602411D01*
X263942093Y-116602411D01*
X263913335Y-116600803D01*
X263548779Y-116580421D01*
X263545701Y-116580550D01*
X263545697Y-116580550D01*
X263287394Y-116591376D01*
X263152135Y-116597045D01*
X263149091Y-116597473D01*
X263149089Y-116597473D01*
X263068032Y-116608865D01*
X262759007Y-116652296D01*
X262373146Y-116745645D01*
X261998236Y-116876203D01*
X261951446Y-116897823D01*
X261640653Y-117041429D01*
X261640643Y-117041434D01*
X261637856Y-117042722D01*
X261295445Y-117243613D01*
X261245781Y-117279696D01*
X260976753Y-117475156D01*
X260976747Y-117475161D01*
X260974272Y-117476959D01*
X260971986Y-117478988D01*
X260971983Y-117478991D01*
X260735602Y-117688860D01*
X260677402Y-117740532D01*
X260675312Y-117742789D01*
X260675310Y-117742791D01*
X260409765Y-118029554D01*
X260409760Y-118029560D01*
X260407670Y-118031817D01*
X260405810Y-118034267D01*
X260405807Y-118034271D01*
X260372613Y-118078003D01*
X260167649Y-118348033D01*
X260166038Y-118350651D01*
X260166035Y-118350656D01*
X259976286Y-118659089D01*
X259959631Y-118686162D01*
X259785601Y-119042975D01*
X259784530Y-119045856D01*
X259784527Y-119045862D01*
X259746993Y-119146790D01*
X259647221Y-119415069D01*
X259545811Y-119798890D01*
X259482339Y-120190775D01*
X259482145Y-120193855D01*
X259482145Y-120193857D01*
X259473602Y-120329655D01*
X259457412Y-120586983D01*
X241810252Y-120586983D01*
X241793349Y-120264441D01*
X241792100Y-120256552D01*
X241741141Y-119934815D01*
X241732951Y-119883106D01*
X241633024Y-119510174D01*
X241620886Y-119478552D01*
X241495847Y-119152815D01*
X241494663Y-119149730D01*
X241442058Y-119046487D01*
X241320881Y-118808664D01*
X241320877Y-118808657D01*
X241319382Y-118805723D01*
X241268703Y-118727683D01*
X241110906Y-118484697D01*
X241109104Y-118481922D01*
X240866131Y-118181875D01*
X240593125Y-117908869D01*
X240293078Y-117665896D01*
X240054519Y-117510974D01*
X239972047Y-117457416D01*
X239972044Y-117457414D01*
X239969278Y-117455618D01*
X239966344Y-117454123D01*
X239966337Y-117454119D01*
X239628210Y-117281835D01*
X239625270Y-117280337D01*
X239264826Y-117141976D01*
X238891894Y-117042049D01*
X238689357Y-117009970D01*
X238513807Y-116982165D01*
X238513799Y-116982164D01*
X238510559Y-116981651D01*
X238125000Y-116961445D01*
X237739441Y-116981651D01*
X237736201Y-116982164D01*
X237736193Y-116982165D01*
X237560643Y-117009970D01*
X237358106Y-117042049D01*
X236985174Y-117141976D01*
X236624730Y-117280337D01*
X236621790Y-117281835D01*
X236283664Y-117454119D01*
X236283657Y-117454123D01*
X236280723Y-117455618D01*
X236277957Y-117457414D01*
X236277954Y-117457416D01*
X236064166Y-117596251D01*
X235956922Y-117665896D01*
X235656875Y-117908869D01*
X235383869Y-118181875D01*
X235140896Y-118481922D01*
X235139094Y-118484697D01*
X234981298Y-118727683D01*
X234930618Y-118805723D01*
X234929123Y-118808657D01*
X234929119Y-118808664D01*
X234807942Y-119046487D01*
X234755337Y-119149730D01*
X234754153Y-119152815D01*
X234629115Y-119478552D01*
X234616976Y-119510174D01*
X234517049Y-119883106D01*
X234508859Y-119934815D01*
X234457901Y-120256552D01*
X234456651Y-120264441D01*
X234437908Y-120622077D01*
X234436445Y-120650000D01*
X191013555Y-120650000D01*
X190993349Y-120264441D01*
X190992100Y-120256552D01*
X190941141Y-119934815D01*
X190932951Y-119883106D01*
X190833024Y-119510174D01*
X190820886Y-119478552D01*
X190695847Y-119152815D01*
X190694663Y-119149730D01*
X190642058Y-119046487D01*
X190520881Y-118808664D01*
X190520877Y-118808657D01*
X190519382Y-118805723D01*
X190468703Y-118727683D01*
X190310906Y-118484697D01*
X190309104Y-118481922D01*
X190066131Y-118181875D01*
X189793125Y-117908869D01*
X189493078Y-117665896D01*
X189254519Y-117510974D01*
X189172047Y-117457416D01*
X189172044Y-117457414D01*
X189169278Y-117455618D01*
X189166344Y-117454123D01*
X189166337Y-117454119D01*
X188828210Y-117281835D01*
X188825270Y-117280337D01*
X188464826Y-117141976D01*
X188091894Y-117042049D01*
X187889357Y-117009970D01*
X187713807Y-116982165D01*
X187713799Y-116982164D01*
X187710559Y-116981651D01*
X187325000Y-116961445D01*
X186939441Y-116981651D01*
X186936201Y-116982164D01*
X186936193Y-116982165D01*
X186760643Y-117009970D01*
X186558106Y-117042049D01*
X186185174Y-117141976D01*
X185824730Y-117280337D01*
X185821790Y-117281835D01*
X185483664Y-117454119D01*
X185483657Y-117454123D01*
X185480723Y-117455618D01*
X185477957Y-117457414D01*
X185477954Y-117457416D01*
X185264166Y-117596251D01*
X185156922Y-117665896D01*
X184856875Y-117908869D01*
X184583869Y-118181875D01*
X184340896Y-118481922D01*
X184339094Y-118484697D01*
X184181298Y-118727683D01*
X184130618Y-118805723D01*
X184129123Y-118808657D01*
X184129119Y-118808664D01*
X184007942Y-119046487D01*
X183955337Y-119149730D01*
X183954153Y-119152815D01*
X183829115Y-119478552D01*
X183816976Y-119510174D01*
X183717049Y-119883106D01*
X183708859Y-119934815D01*
X183657901Y-120256552D01*
X183656651Y-120264441D01*
X183637908Y-120622077D01*
X183636445Y-120650000D01*
X165988395Y-120650000D01*
X165988185Y-120645691D01*
X165971506Y-120304684D01*
X165969002Y-120253482D01*
X165959742Y-120190775D01*
X165911458Y-119863795D01*
X165911457Y-119863791D01*
X165911008Y-119860749D01*
X165814967Y-119475550D01*
X165811693Y-119466354D01*
X165749380Y-119291359D01*
X165681796Y-119101561D01*
X165512765Y-118742352D01*
X165507443Y-118733423D01*
X165368635Y-118500572D01*
X165309488Y-118401352D01*
X165073906Y-118081815D01*
X164808266Y-117786793D01*
X164515105Y-117519100D01*
X164197222Y-117281293D01*
X164148370Y-117251707D01*
X163860277Y-117077231D01*
X163860268Y-117077226D01*
X163857649Y-117075640D01*
X163499629Y-116904106D01*
X163479466Y-116896767D01*
X163129475Y-116769381D01*
X163129474Y-116769381D01*
X163126579Y-116768327D01*
X162919688Y-116715206D01*
X162745043Y-116670365D01*
X162745040Y-116670364D01*
X162742059Y-116669599D01*
X162349740Y-116608865D01*
X162346683Y-116608694D01*
X162346682Y-116608694D01*
X162317924Y-116607086D01*
X161953368Y-116586704D01*
X161950290Y-116586833D01*
X161950286Y-116586833D01*
X161696423Y-116597473D01*
X161556724Y-116603328D01*
X161553680Y-116603756D01*
X161553678Y-116603756D01*
X161513989Y-116609334D01*
X161163596Y-116658579D01*
X160777735Y-116751928D01*
X160402825Y-116882486D01*
X160356035Y-116904106D01*
X160045242Y-117047712D01*
X160045232Y-117047717D01*
X160042445Y-117049005D01*
X159700034Y-117249896D01*
X159659018Y-117279696D01*
X159381342Y-117481439D01*
X159381336Y-117481444D01*
X159378861Y-117483242D01*
X159376575Y-117485271D01*
X159376572Y-117485274D01*
X159089068Y-117740532D01*
X159081991Y-117746815D01*
X159079901Y-117749072D01*
X159079899Y-117749074D01*
X158814354Y-118035837D01*
X158814349Y-118035843D01*
X158812259Y-118038100D01*
X158810399Y-118040550D01*
X158810396Y-118040554D01*
X158777202Y-118084286D01*
X158572238Y-118354316D01*
X158570627Y-118356934D01*
X158570624Y-118356939D01*
X158368085Y-118686162D01*
X158364220Y-118692445D01*
X158190190Y-119049258D01*
X158189119Y-119052139D01*
X158189116Y-119052145D01*
X158103146Y-119283313D01*
X158051810Y-119421352D01*
X157950400Y-119805173D01*
X157949909Y-119808206D01*
X157887946Y-120190775D01*
X157886928Y-120197058D01*
X157886734Y-120200138D01*
X157886734Y-120200140D01*
X157879762Y-120310967D01*
X157862001Y-120593266D01*
X137033500Y-120593266D01*
X137033500Y-95193266D01*
X208662001Y-95193266D01*
X208662109Y-95196356D01*
X208662499Y-95207534D01*
X208674347Y-95546798D01*
X208675856Y-95590016D01*
X208728361Y-95983521D01*
X208819014Y-96370023D01*
X208946951Y-96745835D01*
X209110950Y-97107369D01*
X209309446Y-97451174D01*
X209311235Y-97453672D01*
X209311237Y-97453676D01*
X209411353Y-97593516D01*
X209540544Y-97773969D01*
X209802038Y-98072671D01*
X209804286Y-98074782D01*
X210089178Y-98342314D01*
X210089185Y-98342320D01*
X210091433Y-98344431D01*
X210093883Y-98346318D01*
X210093888Y-98346322D01*
X210403522Y-98584773D01*
X210405965Y-98586654D01*
X210408564Y-98588278D01*
X210408574Y-98588285D01*
X210589998Y-98701650D01*
X210742634Y-98797027D01*
X211098224Y-98973544D01*
X211469342Y-99114518D01*
X211852446Y-99218605D01*
X211855489Y-99219120D01*
X211855495Y-99219121D01*
X212240837Y-99284297D01*
X212240844Y-99284298D01*
X212243878Y-99284811D01*
X212246949Y-99285026D01*
X212246951Y-99285026D01*
X212636837Y-99312290D01*
X212636845Y-99312290D01*
X212639903Y-99312504D01*
X212896170Y-99305346D01*
X213033666Y-99301505D01*
X213033669Y-99301505D01*
X213036740Y-99301419D01*
X213039793Y-99301033D01*
X213039797Y-99301033D01*
X213228315Y-99277218D01*
X213430601Y-99251663D01*
X213433605Y-99250981D01*
X213433608Y-99250980D01*
X213814731Y-99164391D01*
X213814737Y-99164389D01*
X213817727Y-99163710D01*
X213965604Y-99114518D01*
X214191499Y-99039373D01*
X214191505Y-99039371D01*
X214194423Y-99038400D01*
X214337633Y-98974639D01*
X214554294Y-98878176D01*
X214554300Y-98878173D01*
X214557094Y-98876929D01*
X214697747Y-98797027D01*
X214899603Y-98682357D01*
X214899611Y-98682352D01*
X214902276Y-98680838D01*
X215226676Y-98451999D01*
X215527197Y-98192596D01*
X215529318Y-98190369D01*
X215529324Y-98190363D01*
X215798853Y-97907329D01*
X215800970Y-97905106D01*
X215834237Y-97862527D01*
X216043472Y-97594717D01*
X216043474Y-97594714D01*
X216045382Y-97592272D01*
X216047038Y-97589662D01*
X216047044Y-97589654D01*
X216256447Y-97259688D01*
X216256451Y-97259681D01*
X216258101Y-97257081D01*
X216284390Y-97205039D01*
X216343043Y-97088925D01*
X216437096Y-96902732D01*
X216438203Y-96899878D01*
X216438207Y-96899869D01*
X216579543Y-96535483D01*
X216579546Y-96535474D01*
X216580658Y-96532607D01*
X216687417Y-96150239D01*
X216756354Y-95759278D01*
X216786811Y-95363457D01*
X216788395Y-95250000D01*
X216785772Y-95196356D01*
X216769152Y-94856552D01*
X216769002Y-94853482D01*
X216760220Y-94794012D01*
X216711458Y-94463795D01*
X216711457Y-94463791D01*
X216711008Y-94460749D01*
X216614967Y-94075550D01*
X216596728Y-94024327D01*
X216482828Y-93704460D01*
X216481796Y-93701561D01*
X216312765Y-93342352D01*
X216283015Y-93292445D01*
X216111068Y-93004003D01*
X216109488Y-93001352D01*
X215873906Y-92681815D01*
X215608266Y-92386793D01*
X215315105Y-92119100D01*
X214997222Y-91881293D01*
X214948370Y-91851707D01*
X214660277Y-91677231D01*
X214660268Y-91677226D01*
X214657649Y-91675640D01*
X214299629Y-91504106D01*
X214240229Y-91482486D01*
X213929475Y-91369381D01*
X213929474Y-91369381D01*
X213926579Y-91368327D01*
X213719688Y-91315206D01*
X213545043Y-91270365D01*
X213545040Y-91270364D01*
X213542059Y-91269599D01*
X213149740Y-91208865D01*
X213146683Y-91208694D01*
X213146682Y-91208694D01*
X213117924Y-91207086D01*
X212753368Y-91186704D01*
X212750290Y-91186833D01*
X212750286Y-91186833D01*
X212491983Y-91197659D01*
X212356724Y-91203328D01*
X212353680Y-91203756D01*
X212353678Y-91203756D01*
X212313989Y-91209334D01*
X211963596Y-91258579D01*
X211577735Y-91351928D01*
X211202825Y-91482486D01*
X211156035Y-91504106D01*
X210845242Y-91647712D01*
X210845232Y-91647717D01*
X210842445Y-91649005D01*
X210500034Y-91849896D01*
X210459018Y-91879696D01*
X210181342Y-92081439D01*
X210181336Y-92081444D01*
X210178861Y-92083242D01*
X210176575Y-92085271D01*
X210176572Y-92085274D01*
X210136134Y-92121177D01*
X209881991Y-92346815D01*
X209879901Y-92349072D01*
X209879899Y-92349074D01*
X209614354Y-92635837D01*
X209614349Y-92635843D01*
X209612259Y-92638100D01*
X209610399Y-92640550D01*
X209610396Y-92640554D01*
X209577202Y-92684286D01*
X209372238Y-92954316D01*
X209370627Y-92956934D01*
X209370624Y-92956939D01*
X209165834Y-93289821D01*
X209164220Y-93292445D01*
X208990190Y-93649258D01*
X208989119Y-93652139D01*
X208989116Y-93652145D01*
X208903146Y-93883313D01*
X208851810Y-94021352D01*
X208750400Y-94405173D01*
X208686928Y-94797058D01*
X208686734Y-94800138D01*
X208686734Y-94800140D01*
X208679762Y-94910967D01*
X208662001Y-95193266D01*
X137033500Y-95193266D01*
X137033500Y-69718761D01*
X156913170Y-69718761D01*
X156914554Y-69794270D01*
X156921345Y-70164803D01*
X156921644Y-70167578D01*
X156963838Y-70559162D01*
X156969138Y-70608353D01*
X156969683Y-70611094D01*
X156969684Y-70611099D01*
X157045472Y-70992105D01*
X157056172Y-71045899D01*
X157056959Y-71048580D01*
X157056960Y-71048586D01*
X157136399Y-71319369D01*
X157181756Y-71473976D01*
X157182776Y-71476572D01*
X157182777Y-71476575D01*
X157326008Y-71841120D01*
X157344896Y-71889194D01*
X157544301Y-72288266D01*
X157778392Y-72668032D01*
X158045315Y-73025485D01*
X158047176Y-73027563D01*
X158047177Y-73027564D01*
X158321884Y-73334268D01*
X158342957Y-73357796D01*
X158344994Y-73359699D01*
X158345001Y-73359706D01*
X158566633Y-73566742D01*
X158668961Y-73662332D01*
X158671157Y-73664045D01*
X158671161Y-73664048D01*
X158897577Y-73840625D01*
X159020746Y-73936682D01*
X159181588Y-74040536D01*
X159393183Y-74177162D01*
X159393191Y-74177167D01*
X159395527Y-74178675D01*
X159790335Y-74386394D01*
X159792928Y-74387476D01*
X160199462Y-74557116D01*
X160199467Y-74557118D01*
X160202046Y-74558194D01*
X160204711Y-74559037D01*
X160204717Y-74559039D01*
X160436317Y-74632284D01*
X160627398Y-74692715D01*
X160630128Y-74693318D01*
X160630129Y-74693318D01*
X161022664Y-74779982D01*
X161063025Y-74788893D01*
X161065799Y-74789251D01*
X161065800Y-74789251D01*
X161502707Y-74845608D01*
X161502714Y-74845609D01*
X161505477Y-74845965D01*
X161508264Y-74846075D01*
X161508270Y-74846075D01*
X161766519Y-74856221D01*
X161951251Y-74863479D01*
X161954043Y-74863340D01*
X161954048Y-74863340D01*
X162394013Y-74841438D01*
X162394022Y-74841437D01*
X162396817Y-74841298D01*
X162399594Y-74840910D01*
X162399596Y-74840910D01*
X162477542Y-74830025D01*
X162838647Y-74779596D01*
X162841357Y-74778968D01*
X162841367Y-74778966D01*
X163270515Y-74679494D01*
X163273242Y-74678862D01*
X163495990Y-74605842D01*
X163694510Y-74540764D01*
X163694516Y-74540762D01*
X163697163Y-74539894D01*
X164107052Y-74363791D01*
X164499664Y-74151950D01*
X164871890Y-73906046D01*
X165220782Y-73628026D01*
X165543580Y-73320093D01*
X165758168Y-73075402D01*
X165835874Y-72986795D01*
X165835877Y-72986791D01*
X165837725Y-72984684D01*
X165907131Y-72889680D01*
X166099242Y-72626712D01*
X166100891Y-72624455D01*
X166278582Y-72329311D01*
X166329541Y-72244669D01*
X166329546Y-72244660D01*
X166330992Y-72242258D01*
X166526207Y-71841120D01*
X166615211Y-71607428D01*
X166683994Y-71426832D01*
X166683996Y-71426825D01*
X166684990Y-71424216D01*
X166806085Y-70994848D01*
X166814480Y-70950207D01*
X166888015Y-70559162D01*
X166888017Y-70559150D01*
X166888531Y-70556415D01*
X166924719Y-70184000D01*
X166931462Y-70114606D01*
X166931463Y-70114594D01*
X166931677Y-70112389D01*
X166938548Y-69850000D01*
X166932703Y-69718761D01*
X258513170Y-69718761D01*
X258514554Y-69794270D01*
X258521345Y-70164803D01*
X258521644Y-70167578D01*
X258563838Y-70559162D01*
X258569138Y-70608353D01*
X258569683Y-70611094D01*
X258569684Y-70611099D01*
X258645472Y-70992105D01*
X258656172Y-71045899D01*
X258656959Y-71048580D01*
X258656960Y-71048586D01*
X258736399Y-71319369D01*
X258781756Y-71473976D01*
X258782776Y-71476572D01*
X258782777Y-71476575D01*
X258926008Y-71841120D01*
X258944896Y-71889194D01*
X259144301Y-72288266D01*
X259378392Y-72668032D01*
X259645315Y-73025485D01*
X259647176Y-73027563D01*
X259647177Y-73027564D01*
X259921884Y-73334268D01*
X259942957Y-73357796D01*
X259944994Y-73359699D01*
X259945001Y-73359706D01*
X260166633Y-73566742D01*
X260268961Y-73662332D01*
X260271157Y-73664045D01*
X260271161Y-73664048D01*
X260497577Y-73840625D01*
X260620746Y-73936682D01*
X260781588Y-74040536D01*
X260993183Y-74177162D01*
X260993191Y-74177167D01*
X260995527Y-74178675D01*
X261390335Y-74386394D01*
X261392928Y-74387476D01*
X261799462Y-74557116D01*
X261799467Y-74557118D01*
X261802046Y-74558194D01*
X261804711Y-74559037D01*
X261804717Y-74559039D01*
X262036317Y-74632284D01*
X262227398Y-74692715D01*
X262230128Y-74693318D01*
X262230129Y-74693318D01*
X262622664Y-74779982D01*
X262663025Y-74788893D01*
X262665799Y-74789251D01*
X262665800Y-74789251D01*
X263102707Y-74845608D01*
X263102714Y-74845609D01*
X263105477Y-74845965D01*
X263108264Y-74846075D01*
X263108270Y-74846075D01*
X263366519Y-74856221D01*
X263551251Y-74863479D01*
X263554043Y-74863340D01*
X263554048Y-74863340D01*
X263994013Y-74841438D01*
X263994022Y-74841437D01*
X263996817Y-74841298D01*
X263999594Y-74840910D01*
X263999596Y-74840910D01*
X264077542Y-74830025D01*
X264438647Y-74779596D01*
X264441357Y-74778968D01*
X264441367Y-74778966D01*
X264870515Y-74679494D01*
X264873242Y-74678862D01*
X265095990Y-74605842D01*
X265294510Y-74540764D01*
X265294516Y-74540762D01*
X265297163Y-74539894D01*
X265707052Y-74363791D01*
X266099664Y-74151950D01*
X266471890Y-73906046D01*
X266820782Y-73628026D01*
X267143580Y-73320093D01*
X267358168Y-73075402D01*
X267435874Y-72986795D01*
X267435877Y-72986791D01*
X267437725Y-72984684D01*
X267507131Y-72889680D01*
X267699242Y-72626712D01*
X267700891Y-72624455D01*
X267878582Y-72329311D01*
X267929541Y-72244669D01*
X267929546Y-72244660D01*
X267930992Y-72242258D01*
X268126207Y-71841120D01*
X268215211Y-71607428D01*
X268283994Y-71426832D01*
X268283996Y-71426825D01*
X268284990Y-71424216D01*
X268406085Y-70994848D01*
X268414480Y-70950207D01*
X268488015Y-70559162D01*
X268488017Y-70559150D01*
X268488531Y-70556415D01*
X268524719Y-70184000D01*
X268531462Y-70114606D01*
X268531463Y-70114594D01*
X268531677Y-70112389D01*
X268538548Y-69850000D01*
X268518700Y-69404324D01*
X268459312Y-68962177D01*
X268360855Y-68527060D01*
X268224108Y-68102417D01*
X268170622Y-67976104D01*
X268051245Y-67694186D01*
X268051245Y-67694185D01*
X268050155Y-67691612D01*
X267986134Y-67571458D01*
X267841679Y-67300351D01*
X267840371Y-67297896D01*
X267838850Y-67295567D01*
X267597944Y-66926721D01*
X267597941Y-66926717D01*
X267596420Y-66924388D01*
X267513192Y-66818813D01*
X267321960Y-66576237D01*
X267321958Y-66576235D01*
X267320231Y-66574044D01*
X267013992Y-66249639D01*
X266755902Y-66020898D01*
X266682234Y-65955607D01*
X266682227Y-65955602D01*
X266680128Y-65953741D01*
X266321282Y-65688694D01*
X266120449Y-65566345D01*
X265942684Y-65458049D01*
X265942677Y-65458045D01*
X265940295Y-65456594D01*
X265817964Y-65396267D01*
X265542696Y-65260521D01*
X265540184Y-65259282D01*
X265124118Y-65098318D01*
X264987562Y-65059032D01*
X264698071Y-64975748D01*
X264698065Y-64975746D01*
X264695390Y-64974977D01*
X264692653Y-64974448D01*
X264692647Y-64974446D01*
X264541581Y-64945219D01*
X264257394Y-64890236D01*
X264254617Y-64889951D01*
X264254607Y-64889950D01*
X263979789Y-64861793D01*
X263813600Y-64844765D01*
X263810810Y-64844728D01*
X263810802Y-64844728D01*
X263532276Y-64841083D01*
X263367521Y-64838926D01*
X263364721Y-64839139D01*
X263364720Y-64839139D01*
X262925475Y-64872551D01*
X262922688Y-64872763D01*
X262482625Y-64946010D01*
X262392566Y-64969385D01*
X262053533Y-65057380D01*
X262053522Y-65057383D01*
X262050815Y-65058086D01*
X261782441Y-65153913D01*
X261633320Y-65207159D01*
X261633315Y-65207161D01*
X261630677Y-65208103D01*
X261628137Y-65209274D01*
X261628132Y-65209276D01*
X261519661Y-65259282D01*
X261225538Y-65394875D01*
X260838607Y-65616921D01*
X260836315Y-65618523D01*
X260836307Y-65618528D01*
X260531471Y-65831581D01*
X260472945Y-65872485D01*
X260470804Y-65874285D01*
X260470801Y-65874287D01*
X260143818Y-66149146D01*
X260131450Y-66159542D01*
X260129476Y-66161526D01*
X260129472Y-66161530D01*
X260041823Y-66249639D01*
X259816824Y-66475819D01*
X259531559Y-66818813D01*
X259277914Y-67185808D01*
X259057896Y-67573897D01*
X259056737Y-67576446D01*
X259056735Y-67576450D01*
X258874405Y-67977462D01*
X258874400Y-67977473D01*
X258873248Y-67980008D01*
X258872326Y-67982634D01*
X258872321Y-67982646D01*
X258788148Y-68222340D01*
X258725433Y-68400925D01*
X258724742Y-68403645D01*
X258724741Y-68403649D01*
X258692706Y-68529788D01*
X258615619Y-68833316D01*
X258615176Y-68836066D01*
X258615174Y-68836076D01*
X258576737Y-69074714D01*
X258544678Y-69273757D01*
X258544480Y-69276558D01*
X258544479Y-69276564D01*
X258531456Y-69460498D01*
X258513170Y-69718761D01*
X166932703Y-69718761D01*
X166918700Y-69404324D01*
X166859312Y-68962177D01*
X166760855Y-68527060D01*
X166624108Y-68102417D01*
X166570622Y-67976104D01*
X166451245Y-67694186D01*
X166451245Y-67694185D01*
X166450155Y-67691612D01*
X166386134Y-67571458D01*
X166241679Y-67300351D01*
X166240371Y-67297896D01*
X166238850Y-67295567D01*
X165997944Y-66926721D01*
X165997941Y-66926717D01*
X165996420Y-66924388D01*
X165913192Y-66818813D01*
X165721960Y-66576237D01*
X165721958Y-66576235D01*
X165720231Y-66574044D01*
X165413992Y-66249639D01*
X165155902Y-66020898D01*
X165082234Y-65955607D01*
X165082227Y-65955602D01*
X165080128Y-65953741D01*
X164721282Y-65688694D01*
X164520449Y-65566345D01*
X164342684Y-65458049D01*
X164342677Y-65458045D01*
X164340295Y-65456594D01*
X164217964Y-65396267D01*
X163942696Y-65260521D01*
X163940184Y-65259282D01*
X163524118Y-65098318D01*
X163387562Y-65059032D01*
X163098071Y-64975748D01*
X163098065Y-64975746D01*
X163095390Y-64974977D01*
X163092653Y-64974448D01*
X163092647Y-64974446D01*
X162941581Y-64945219D01*
X162657394Y-64890236D01*
X162654617Y-64889951D01*
X162654607Y-64889950D01*
X162379789Y-64861793D01*
X162213600Y-64844765D01*
X162210810Y-64844728D01*
X162210802Y-64844728D01*
X161932276Y-64841083D01*
X161767521Y-64838926D01*
X161764721Y-64839139D01*
X161764720Y-64839139D01*
X161325475Y-64872551D01*
X161322688Y-64872763D01*
X160882625Y-64946010D01*
X160792566Y-64969385D01*
X160453533Y-65057380D01*
X160453522Y-65057383D01*
X160450815Y-65058086D01*
X160182441Y-65153913D01*
X160033320Y-65207159D01*
X160033315Y-65207161D01*
X160030677Y-65208103D01*
X160028137Y-65209274D01*
X160028132Y-65209276D01*
X159919661Y-65259282D01*
X159625538Y-65394875D01*
X159238607Y-65616921D01*
X159236315Y-65618523D01*
X159236307Y-65618528D01*
X158931471Y-65831581D01*
X158872945Y-65872485D01*
X158870804Y-65874285D01*
X158870801Y-65874287D01*
X158543818Y-66149146D01*
X158531450Y-66159542D01*
X158529476Y-66161526D01*
X158529472Y-66161530D01*
X158441823Y-66249639D01*
X158216824Y-66475819D01*
X157931559Y-66818813D01*
X157677914Y-67185808D01*
X157457896Y-67573897D01*
X157456737Y-67576446D01*
X157456735Y-67576450D01*
X157274405Y-67977462D01*
X157274400Y-67977473D01*
X157273248Y-67980008D01*
X157272326Y-67982634D01*
X157272321Y-67982646D01*
X157188148Y-68222340D01*
X157125433Y-68400925D01*
X157124742Y-68403645D01*
X157124741Y-68403649D01*
X157092706Y-68529788D01*
X157015619Y-68833316D01*
X157015176Y-68836066D01*
X157015174Y-68836076D01*
X156976737Y-69074714D01*
X156944678Y-69273757D01*
X156944480Y-69276558D01*
X156944479Y-69276564D01*
X156931456Y-69460498D01*
X156913170Y-69718761D01*
X137033500Y-69718761D01*
X137033500Y-53937670D01*
X211857160Y-53937670D01*
X211862887Y-53945320D01*
X212034042Y-54050205D01*
X212042837Y-54054687D01*
X212252988Y-54141734D01*
X212262373Y-54144783D01*
X212483554Y-54197885D01*
X212493301Y-54199428D01*
X212720070Y-54217275D01*
X212729930Y-54217275D01*
X212956699Y-54199428D01*
X212966446Y-54197885D01*
X213187627Y-54144783D01*
X213197012Y-54141734D01*
X213407163Y-54054687D01*
X213415958Y-54050205D01*
X213583445Y-53947568D01*
X213592907Y-53937110D01*
X213589124Y-53928334D01*
X212737812Y-53077022D01*
X212723868Y-53069408D01*
X212722035Y-53069539D01*
X212715420Y-53073790D01*
X211863920Y-53925290D01*
X211857160Y-53937670D01*
X137033500Y-53937670D01*
X137033500Y-52709930D01*
X211212725Y-52709930D01*
X211230572Y-52936699D01*
X211232115Y-52946446D01*
X211285217Y-53167627D01*
X211288266Y-53177012D01*
X211375313Y-53387163D01*
X211379795Y-53395958D01*
X211482432Y-53563445D01*
X211492890Y-53572907D01*
X211501666Y-53569124D01*
X212352978Y-52717812D01*
X212359356Y-52706132D01*
X213089408Y-52706132D01*
X213089539Y-52707965D01*
X213093790Y-52714580D01*
X213945290Y-53566080D01*
X213957670Y-53572840D01*
X213965320Y-53567113D01*
X214070205Y-53395958D01*
X214074687Y-53387163D01*
X214161734Y-53177012D01*
X214164783Y-53167627D01*
X214217885Y-52946446D01*
X214219428Y-52936699D01*
X214237275Y-52709930D01*
X214237275Y-52700070D01*
X214219428Y-52473301D01*
X214217885Y-52463554D01*
X214164783Y-52242373D01*
X214161734Y-52232988D01*
X214074687Y-52022837D01*
X214070205Y-52014042D01*
X213967568Y-51846555D01*
X213957110Y-51837093D01*
X213948334Y-51840876D01*
X213097022Y-52692188D01*
X213089408Y-52706132D01*
X212359356Y-52706132D01*
X212360592Y-52703868D01*
X212360461Y-52702035D01*
X212356210Y-52695420D01*
X211504710Y-51843920D01*
X211492330Y-51837160D01*
X211484680Y-51842887D01*
X211379795Y-52014042D01*
X211375313Y-52022837D01*
X211288266Y-52232988D01*
X211285217Y-52242373D01*
X211232115Y-52463554D01*
X211230572Y-52473301D01*
X211212725Y-52700070D01*
X211212725Y-52709930D01*
X137033500Y-52709930D01*
X137033500Y-51472890D01*
X211857093Y-51472890D01*
X211860876Y-51481666D01*
X212712188Y-52332978D01*
X212726132Y-52340592D01*
X212727965Y-52340461D01*
X212734580Y-52336210D01*
X213586080Y-51484710D01*
X213592840Y-51472330D01*
X213587113Y-51464680D01*
X213415958Y-51359795D01*
X213407163Y-51355313D01*
X213197012Y-51268266D01*
X213187627Y-51265217D01*
X212966446Y-51212115D01*
X212956699Y-51210572D01*
X212729930Y-51192725D01*
X212720070Y-51192725D01*
X212493301Y-51210572D01*
X212483554Y-51212115D01*
X212262373Y-51265217D01*
X212252988Y-51268266D01*
X212042837Y-51355313D01*
X212034042Y-51359795D01*
X211866555Y-51462432D01*
X211857093Y-51472890D01*
X137033500Y-51472890D01*
X137033500Y-44387015D01*
X208655294Y-44387015D01*
X208655402Y-44390105D01*
X208655792Y-44401283D01*
X208667640Y-44740547D01*
X208669149Y-44783765D01*
X208721654Y-45177270D01*
X208812307Y-45563772D01*
X208940244Y-45939584D01*
X209104243Y-46301118D01*
X209302739Y-46644923D01*
X209304528Y-46647421D01*
X209304530Y-46647425D01*
X209404646Y-46787265D01*
X209533837Y-46967718D01*
X209795331Y-47266420D01*
X209797579Y-47268531D01*
X210082471Y-47536063D01*
X210082478Y-47536069D01*
X210084726Y-47538180D01*
X210087176Y-47540067D01*
X210087181Y-47540071D01*
X210396815Y-47778522D01*
X210399258Y-47780403D01*
X210401857Y-47782027D01*
X210401867Y-47782034D01*
X210583291Y-47895399D01*
X210735927Y-47990776D01*
X211091517Y-48167293D01*
X211462635Y-48308267D01*
X211845739Y-48412354D01*
X211848782Y-48412869D01*
X211848788Y-48412870D01*
X212234130Y-48478046D01*
X212234137Y-48478047D01*
X212237171Y-48478560D01*
X212240242Y-48478775D01*
X212240244Y-48478775D01*
X212630130Y-48506039D01*
X212630138Y-48506039D01*
X212633196Y-48506253D01*
X212889463Y-48499095D01*
X213026959Y-48495254D01*
X213026962Y-48495254D01*
X213030033Y-48495168D01*
X213033086Y-48494782D01*
X213033090Y-48494782D01*
X213221608Y-48470967D01*
X213423894Y-48445412D01*
X213426898Y-48444730D01*
X213426901Y-48444729D01*
X213808024Y-48358140D01*
X213808030Y-48358138D01*
X213811020Y-48357459D01*
X213958897Y-48308267D01*
X214184792Y-48233122D01*
X214184798Y-48233120D01*
X214187716Y-48232149D01*
X214330926Y-48168388D01*
X214547587Y-48071925D01*
X214547593Y-48071922D01*
X214550387Y-48070678D01*
X214691040Y-47990776D01*
X214892896Y-47876106D01*
X214892904Y-47876101D01*
X214895569Y-47874587D01*
X215219969Y-47645748D01*
X215520490Y-47386345D01*
X215522611Y-47384118D01*
X215522617Y-47384112D01*
X215792146Y-47101078D01*
X215794263Y-47098855D01*
X215827530Y-47056276D01*
X216036765Y-46788466D01*
X216036767Y-46788463D01*
X216038675Y-46786021D01*
X216040331Y-46783411D01*
X216040337Y-46783403D01*
X216249740Y-46453437D01*
X216249744Y-46453430D01*
X216251394Y-46450830D01*
X216277683Y-46398788D01*
X216336336Y-46282674D01*
X216430389Y-46096481D01*
X216431496Y-46093627D01*
X216431500Y-46093618D01*
X216572836Y-45729232D01*
X216572839Y-45729223D01*
X216573951Y-45726356D01*
X216680710Y-45343988D01*
X216749647Y-44953027D01*
X216780104Y-44557206D01*
X216781688Y-44443749D01*
X216779065Y-44390105D01*
X216762445Y-44050301D01*
X216762295Y-44047231D01*
X216753513Y-43987761D01*
X216704751Y-43657544D01*
X216704750Y-43657540D01*
X216704301Y-43654498D01*
X216608260Y-43269299D01*
X216590021Y-43218076D01*
X216476121Y-42898209D01*
X216475089Y-42895310D01*
X216306058Y-42536101D01*
X216276308Y-42486194D01*
X216104361Y-42197752D01*
X216102781Y-42195101D01*
X215867199Y-41875564D01*
X215601559Y-41580542D01*
X215308398Y-41312849D01*
X214990515Y-41075042D01*
X214941663Y-41045456D01*
X214653570Y-40870980D01*
X214653561Y-40870975D01*
X214650942Y-40869389D01*
X214292922Y-40697855D01*
X214233522Y-40676235D01*
X213922768Y-40563130D01*
X213922767Y-40563130D01*
X213919872Y-40562076D01*
X213712981Y-40508955D01*
X213538336Y-40464114D01*
X213538333Y-40464113D01*
X213535352Y-40463348D01*
X213143033Y-40402614D01*
X213139976Y-40402443D01*
X213139975Y-40402443D01*
X213111217Y-40400835D01*
X212746661Y-40380453D01*
X212743583Y-40380582D01*
X212743579Y-40380582D01*
X212485276Y-40391408D01*
X212350017Y-40397077D01*
X212346973Y-40397505D01*
X212346971Y-40397505D01*
X212307282Y-40403083D01*
X211956889Y-40452328D01*
X211571028Y-40545677D01*
X211196118Y-40676235D01*
X211149328Y-40697855D01*
X210838535Y-40841461D01*
X210838525Y-40841466D01*
X210835738Y-40842754D01*
X210493327Y-41043645D01*
X210452311Y-41073445D01*
X210174635Y-41275188D01*
X210174629Y-41275193D01*
X210172154Y-41276991D01*
X210169868Y-41279020D01*
X210169865Y-41279023D01*
X210129427Y-41314926D01*
X209875284Y-41540564D01*
X209873194Y-41542821D01*
X209873192Y-41542823D01*
X209607647Y-41829586D01*
X209607642Y-41829592D01*
X209605552Y-41831849D01*
X209603692Y-41834299D01*
X209603689Y-41834303D01*
X209570495Y-41878035D01*
X209365531Y-42148065D01*
X209363920Y-42150683D01*
X209363917Y-42150688D01*
X209159127Y-42483570D01*
X209157513Y-42486194D01*
X208983483Y-42843007D01*
X208982412Y-42845888D01*
X208982409Y-42845894D01*
X208896439Y-43077062D01*
X208845103Y-43215101D01*
X208743693Y-43598922D01*
X208680221Y-43990807D01*
X208680027Y-43993887D01*
X208680027Y-43993889D01*
X208673055Y-44104716D01*
X208655294Y-44387015D01*
X137033500Y-44387015D01*
X137033500Y-25453250D01*
X137035246Y-25432345D01*
X137037770Y-25417344D01*
X137037770Y-25417341D01*
X137038576Y-25412552D01*
X137038729Y-25400000D01*
X137038039Y-25395184D01*
X137038039Y-25395178D01*
X137036387Y-25383644D01*
X137035234Y-25360284D01*
X137050656Y-25007064D01*
X137051614Y-24996114D01*
X137102233Y-24611621D01*
X137104142Y-24600795D01*
X137188080Y-24222178D01*
X137190925Y-24211561D01*
X137307539Y-23841706D01*
X137311298Y-23831377D01*
X137459711Y-23473077D01*
X137464357Y-23463115D01*
X137643423Y-23119133D01*
X137648919Y-23109613D01*
X137857292Y-22782532D01*
X137863597Y-22773528D01*
X138099678Y-22465862D01*
X138106743Y-22457442D01*
X138368744Y-22171517D01*
X138376517Y-22163744D01*
X138662442Y-21901743D01*
X138670862Y-21894678D01*
X138978528Y-21658597D01*
X138987532Y-21652292D01*
X139314613Y-21443919D01*
X139324133Y-21438423D01*
X139668124Y-21259353D01*
X139678068Y-21254715D01*
X140036385Y-21106295D01*
X140046698Y-21102542D01*
X140246298Y-21039608D01*
X140416561Y-20985925D01*
X140427178Y-20983080D01*
X140805795Y-20899142D01*
X140816621Y-20897233D01*
X141201114Y-20846614D01*
X141212063Y-20845656D01*
X141561554Y-20830397D01*
X141586429Y-20831777D01*
X141598724Y-20833691D01*
X141607626Y-20832527D01*
X141607628Y-20832527D01*
X141626399Y-20830072D01*
X141630286Y-20829564D01*
X141646621Y-20828500D01*
X283795633Y-20828500D01*
X283815018Y-20830000D01*
G37*
G04 #@! TD.AperFunction*
M02*
