G04 #@! TF.GenerationSoftware,KiCad,Pcbnew,6.0.5+dfsg-1~bpo11+1*
G04 #@! TF.CreationDate,2023-01-16T15:28:36+00:00*
G04 #@! TF.ProjectId,VCF_VCA_BBD_pcb_panel,5643465f-5643-4415-9f42-42445f706362,1.0*
G04 #@! TF.SameCoordinates,Original*
G04 #@! TF.FileFunction,Legend,Top*
G04 #@! TF.FilePolarity,Positive*
%FSLAX46Y46*%
G04 Gerber Fmt 4.6, Leading zero omitted, Abs format (unit mm)*
G04 Created by KiCad (PCBNEW 6.0.5+dfsg-1~bpo11+1) date 2023-01-16 15:28:36*
%MOMM*%
%LPD*%
G01*
G04 APERTURE LIST*
%ADD10C,0.500000*%
%ADD11C,1.270000*%
%ADD12C,0.400000*%
%ADD13C,0.350000*%
%ADD14C,0.150000*%
%ADD15C,2.000000*%
G04 APERTURE END LIST*
D10*
X241935000Y-214630000D02*
X241935000Y-200660000D01*
X269875000Y-156210000D02*
X278123892Y-151447500D01*
X212725000Y-44450000D02*
X232410000Y-44450000D01*
D11*
X141605000Y-259715000D02*
X283845000Y-259715000D01*
D10*
X155575000Y-240030000D02*
X169545000Y-240030000D01*
X212725000Y-156210000D02*
X207962500Y-147961108D01*
X155575000Y-156210000D02*
X155575000Y-146685000D01*
X212725000Y-44450000D02*
X212725000Y-24765000D01*
X155575000Y-240030000D02*
X143476625Y-247015000D01*
X263525000Y-120650000D02*
X275623375Y-127635000D01*
X183515000Y-214630000D02*
X174534744Y-205649744D01*
X161925000Y-120650000D02*
X175895000Y-120650000D01*
X285115000Y-144780000D02*
G75*
G03*
X280035000Y-139700000I-5080000J0D01*
G01*
X212725000Y-95250000D02*
X200626625Y-88265000D01*
X241300000Y-156210000D02*
X231775000Y-156210000D01*
X269875000Y-240030000D02*
X257776625Y-233045000D01*
D11*
X141605000Y-20955000D02*
X283845000Y-20955000D01*
X137160000Y-255270000D02*
X137160000Y-180975000D01*
D10*
X155575000Y-156210000D02*
X160337500Y-164458892D01*
X241300000Y-156210000D02*
X250825000Y-156210000D01*
X263525000Y-69850000D02*
X254544744Y-60869744D01*
X212725000Y-156210000D02*
X220973892Y-151447500D01*
X263525000Y-120650000D02*
X263525000Y-106680000D01*
X263525000Y-120650000D02*
X270510000Y-108551625D01*
X140335000Y-176530000D02*
G75*
G03*
X145415000Y-181610000I5080000J0D01*
G01*
X184150000Y-156210000D02*
X175901108Y-151447500D01*
X269875000Y-240030000D02*
X281973375Y-247015000D01*
X212725000Y-44450000D02*
X195677290Y-34607500D01*
X184150000Y-156210000D02*
X179387500Y-147961108D01*
X241935000Y-214630000D02*
X248920000Y-226728375D01*
X241935000Y-214630000D02*
X255905000Y-214630000D01*
D11*
X141605000Y-20955000D02*
G75*
G03*
X137160000Y-25400000I0J-4445000D01*
G01*
D10*
X241300000Y-156210000D02*
X249548892Y-160972500D01*
X212725000Y-156210000D02*
X222250000Y-156210000D01*
X212725000Y-240030000D02*
X205740000Y-252128375D01*
X155575000Y-240030000D02*
X162560000Y-252128375D01*
X212725000Y-44450000D02*
X193040000Y-44450000D01*
X233426000Y-107188000D02*
X233426000Y-104648000D01*
X155575000Y-240030000D02*
X143476625Y-233045000D01*
X212725000Y-44450000D02*
X229772710Y-34607500D01*
X269875000Y-240030000D02*
X276860000Y-252128375D01*
X161925000Y-120650000D02*
X154940000Y-132748375D01*
X269875000Y-156210000D02*
X278123892Y-160972500D01*
X233426000Y-104648000D02*
X234061000Y-105283000D01*
X269875000Y-156210000D02*
X269875000Y-146685000D01*
X155575000Y-156210000D02*
X150812500Y-164458892D01*
X212725000Y-95250000D02*
X219710000Y-83151625D01*
X161925000Y-120650000D02*
X161925000Y-106680000D01*
X263525000Y-120650000D02*
X256540000Y-108551625D01*
X269875000Y-156210000D02*
X274637500Y-147961108D01*
X200152000Y-107315000D02*
X199517000Y-106680000D01*
X155575000Y-156210000D02*
X165100000Y-156210000D01*
X269875000Y-156210000D02*
X261626108Y-160972500D01*
X227457000Y-107188000D02*
X228092000Y-106553000D01*
X161925000Y-120650000D02*
X168910000Y-108551625D01*
X212725000Y-95250000D02*
X198755000Y-95250000D01*
X241300000Y-156210000D02*
X236537500Y-164458892D01*
X194183000Y-104775000D02*
X194818000Y-105410000D01*
X269875000Y-240030000D02*
X283845000Y-240030000D01*
X269875000Y-156210000D02*
X265112500Y-147961108D01*
X194183000Y-107315000D02*
X194183000Y-104775000D01*
X184150000Y-156210000D02*
X193675000Y-156210000D01*
X184150000Y-156210000D02*
X174625000Y-156210000D01*
D11*
X288289999Y-25400001D02*
G75*
G03*
X283844999Y-20955001I-4444999J1D01*
G01*
D10*
X263525000Y-120650000D02*
X270510000Y-132748375D01*
D11*
X288290000Y-255270000D02*
X288290000Y-180975000D01*
D10*
X212725000Y-95250000D02*
X224823375Y-88265000D01*
X161925000Y-69838591D02*
X170905256Y-60858335D01*
X212725000Y-240030000D02*
X212725000Y-226060000D01*
X263525000Y-120650000D02*
X249555000Y-120650000D01*
D11*
X137160000Y-255270000D02*
G75*
G03*
X141605000Y-259715000I4445000J0D01*
G01*
D10*
X280035000Y-181610000D02*
X145415000Y-181610000D01*
X184150000Y-156210000D02*
X192398892Y-160972500D01*
X194183000Y-104775000D02*
X193548000Y-105410000D01*
X269875000Y-240030000D02*
X283845000Y-240030000D01*
X241300000Y-156210000D02*
X233051108Y-151447500D01*
X212725000Y-156210000D02*
X204476108Y-151447500D01*
X155575000Y-156210000D02*
X146050000Y-156210000D01*
X212725000Y-95250000D02*
X200626625Y-102235000D01*
X269875000Y-240030000D02*
X255905000Y-240030000D01*
X263525000Y-120650000D02*
X251426625Y-127635000D01*
X212725000Y-95250000D02*
X212725000Y-81280000D01*
X155575000Y-240030000D02*
X167673375Y-233045000D01*
X263525000Y-120650000D02*
X256540000Y-132748375D01*
X269875000Y-240030000D02*
X262890000Y-252128375D01*
X263525000Y-120650000D02*
X251426625Y-113665000D01*
X263525000Y-69850000D02*
X260237998Y-57582742D01*
X184150000Y-156210000D02*
X192398892Y-151447500D01*
X212725000Y-240030000D02*
X219710000Y-227931625D01*
X212725000Y-240030000D02*
X226695000Y-240030000D01*
X184150000Y-156210000D02*
X184150000Y-146685000D01*
X212725000Y-44450000D02*
X222567500Y-61497710D01*
X212725000Y-95250000D02*
X224823375Y-102235000D01*
X155575000Y-156210000D02*
X163823892Y-160972500D01*
X241300000Y-156210000D02*
X233051108Y-160972500D01*
X212725000Y-240030000D02*
X198755000Y-240030000D01*
X241300000Y-156210000D02*
X249548892Y-151447500D01*
X212725000Y-240030000D02*
X200626625Y-233045000D01*
X155575000Y-240030000D02*
X148590000Y-252128375D01*
X269875000Y-156210000D02*
X260350000Y-156210000D01*
X212725000Y-240030000D02*
X219710000Y-252128375D01*
X212725000Y-156210000D02*
X204476108Y-160972500D01*
X280035000Y-139700000D02*
X145415000Y-139700000D01*
X280035000Y-181610000D02*
G75*
G03*
X285115000Y-176530000I0J5080000D01*
G01*
X269875000Y-156210000D02*
X279400000Y-156210000D01*
X263525000Y-120650000D02*
X277495000Y-120650000D01*
X269875000Y-156210000D02*
X261626108Y-151447500D01*
X263525000Y-69850000D02*
X266812002Y-57582742D01*
X241935000Y-214630000D02*
X227965000Y-214630000D01*
D11*
X283845000Y-259715000D02*
G75*
G03*
X288290000Y-255270000I0J4445000D01*
G01*
D10*
X212725000Y-240030000D02*
X224823375Y-247015000D01*
X269875000Y-240030000D02*
X281973375Y-233045000D01*
X227457000Y-107188000D02*
X226822000Y-106553000D01*
X212725000Y-156210000D02*
X207962500Y-164458892D01*
X263525000Y-69850000D02*
X272505256Y-60869744D01*
X184150000Y-156210000D02*
X175901108Y-160972500D01*
X212725000Y-156210000D02*
X212725000Y-146685000D01*
X212725000Y-44450000D02*
X202882500Y-61497710D01*
X233426000Y-104648000D02*
X232791000Y-105283000D01*
X161925000Y-69838591D02*
X152944744Y-60858335D01*
X263525000Y-120650000D02*
X275623375Y-113665000D01*
X269875000Y-240030000D02*
X262890000Y-227931625D01*
D11*
X287655000Y-187007500D02*
X287655000Y-183832500D01*
D10*
X212725000Y-240030000D02*
X200626625Y-247015000D01*
X155575000Y-156210000D02*
X160337500Y-147961108D01*
X269875000Y-156210000D02*
X265112500Y-164458892D01*
X227457000Y-104648000D02*
X227457000Y-107188000D01*
X161925000Y-69838591D02*
X165212002Y-57571333D01*
X161925000Y-120650000D02*
X149826625Y-127635000D01*
X212725000Y-44450000D02*
X195677290Y-54292500D01*
X241300000Y-156210000D02*
X241300000Y-146685000D01*
X212725000Y-95250000D02*
X205740000Y-107348375D01*
X145415000Y-139700000D02*
G75*
G03*
X140335000Y-144780000I0J-5080000D01*
G01*
X155575000Y-240030000D02*
X167673375Y-247015000D01*
X212725000Y-156210000D02*
X217487500Y-164458892D01*
X241935000Y-214630000D02*
X254033375Y-207645000D01*
X212725000Y-44450000D02*
X202882500Y-27402290D01*
X269875000Y-240030000D02*
X269875000Y-226060000D01*
X184150000Y-156210000D02*
X188912500Y-164458892D01*
X241935000Y-214630000D02*
X234950000Y-202531625D01*
D11*
X288290000Y-189865000D02*
G75*
G03*
X283845000Y-185420000I-4445000J0D01*
G01*
D10*
X241300000Y-156210000D02*
X236537500Y-147961108D01*
X241935000Y-214630000D02*
X248920000Y-202531625D01*
X241935000Y-214630000D02*
X229836625Y-221615000D01*
X269875000Y-240030000D02*
X276860000Y-227931625D01*
X155575000Y-156210000D02*
X147326108Y-160972500D01*
X155575000Y-240030000D02*
X148590000Y-227931625D01*
X200152000Y-107315000D02*
X200787000Y-106680000D01*
X212725000Y-156210000D02*
X220973892Y-160972500D01*
D11*
X137795000Y-185420000D02*
X287655000Y-185420000D01*
X137795000Y-187007500D02*
X137795000Y-183832500D01*
D10*
X269875000Y-240030000D02*
X257776625Y-247015000D01*
X212725000Y-156210000D02*
X203200000Y-156210000D01*
X212725000Y-240030000D02*
X224823375Y-233045000D01*
X183515000Y-214630000D02*
X186802002Y-202362742D01*
X212725000Y-95250000D02*
X205740000Y-83151625D01*
X241935000Y-214630000D02*
X254033375Y-221615000D01*
D11*
X141605000Y-185420000D02*
G75*
G03*
X137160000Y-189865000I0J-4445000D01*
G01*
D10*
X155575000Y-240030000D02*
X141605000Y-240030000D01*
X155575000Y-240030000D02*
X162560000Y-227931625D01*
X241300000Y-156210000D02*
X246062500Y-164458892D01*
X161925000Y-120650000D02*
X149826625Y-113665000D01*
X285115000Y-176530000D02*
X285115000Y-144780000D01*
X184150000Y-156210000D02*
X179387500Y-164458892D01*
X212725000Y-44450000D02*
X229772710Y-54292500D01*
X155575000Y-240030000D02*
X155575000Y-226060000D01*
X161925000Y-120650000D02*
X174023375Y-127635000D01*
X155575000Y-156210000D02*
X147326108Y-151447500D01*
X212725000Y-95250000D02*
X226695000Y-95250000D01*
X161925000Y-69838591D02*
X158637998Y-57571333D01*
X212725000Y-44450000D02*
X222567500Y-27402290D01*
X161925000Y-120650000D02*
X174023375Y-113665000D01*
X155575000Y-156210000D02*
X163823892Y-151447500D01*
D11*
X137160000Y-180975000D02*
X137160000Y-25400000D01*
D10*
X212725000Y-95250000D02*
X219710000Y-107348375D01*
X212725000Y-156210000D02*
X217487500Y-147961108D01*
X155575000Y-156210000D02*
X150812500Y-147961108D01*
X183515000Y-214630000D02*
X192495256Y-205649744D01*
X241935000Y-214630000D02*
X229836625Y-207645000D01*
X241935000Y-214630000D02*
X234950000Y-226728375D01*
X140335000Y-144780000D02*
X140335000Y-176530000D01*
D11*
X137160000Y-180975000D02*
G75*
G03*
X141605000Y-185420000I4445000J0D01*
G01*
D10*
X161925000Y-120650000D02*
X147955000Y-120650000D01*
X161925000Y-120650000D02*
X168910000Y-132748375D01*
X184150000Y-156210000D02*
X188912500Y-147961108D01*
X183515000Y-214630000D02*
X180227998Y-202362742D01*
X161925000Y-120650000D02*
X154940000Y-108551625D01*
X212725000Y-240030000D02*
X205740000Y-227931625D01*
X241300000Y-156210000D02*
X246062500Y-147961108D01*
D11*
X283845000Y-185420000D02*
G75*
G03*
X288290000Y-180975000I0J4445000D01*
G01*
X288290000Y-180975000D02*
X288289999Y-25400001D01*
D10*
X200152000Y-104775000D02*
X200152000Y-107315000D01*
X269875000Y-156210000D02*
X274637500Y-164458892D01*
D12*
X257750714Y-56387361D02*
X257750714Y-53887361D01*
X257750714Y-55077837D02*
X259179285Y-55077837D01*
X259179285Y-56387361D02*
X259179285Y-53887361D01*
X260369761Y-56387361D02*
X260369761Y-53887361D01*
X261322142Y-53887361D01*
X261560238Y-54006409D01*
X261679285Y-54125456D01*
X261798333Y-54363551D01*
X261798333Y-54720694D01*
X261679285Y-54958789D01*
X261560238Y-55077837D01*
X261322142Y-55196885D01*
X260369761Y-55196885D01*
X191428761Y-106588666D02*
X192619238Y-106588666D01*
X191190666Y-107302952D02*
X192024000Y-104802952D01*
X192857333Y-107302952D01*
X241815952Y-196115952D02*
X242054047Y-196115952D01*
X242292142Y-196235000D01*
X242411190Y-196354047D01*
X242530238Y-196592142D01*
X242649285Y-197068333D01*
X242649285Y-197663571D01*
X242530238Y-198139761D01*
X242411190Y-198377857D01*
X242292142Y-198496904D01*
X242054047Y-198615952D01*
X241815952Y-198615952D01*
X241577857Y-198496904D01*
X241458809Y-198377857D01*
X241339761Y-198139761D01*
X241220714Y-197663571D01*
X241220714Y-197068333D01*
X241339761Y-196592142D01*
X241458809Y-196354047D01*
X241577857Y-196235000D01*
X241815952Y-196115952D01*
X206772619Y-256400952D02*
X205939285Y-255210476D01*
X205344047Y-256400952D02*
X205344047Y-253900952D01*
X206296428Y-253900952D01*
X206534523Y-254020000D01*
X206653571Y-254139047D01*
X206772619Y-254377142D01*
X206772619Y-254734285D01*
X206653571Y-254972380D01*
X206534523Y-255091428D01*
X206296428Y-255210476D01*
X205344047Y-255210476D01*
X207844047Y-255091428D02*
X208677380Y-255091428D01*
X209034523Y-256400952D02*
X207844047Y-256400952D01*
X207844047Y-253900952D01*
X209034523Y-253900952D01*
X210105952Y-256400952D02*
X210105952Y-253900952D01*
X211058333Y-253900952D01*
X211296428Y-254020000D01*
X211415476Y-254139047D01*
X211534523Y-254377142D01*
X211534523Y-254734285D01*
X211415476Y-254972380D01*
X211296428Y-255091428D01*
X211058333Y-255210476D01*
X210105952Y-255210476D01*
X212605952Y-255091428D02*
X213439285Y-255091428D01*
X213796428Y-256400952D02*
X212605952Y-256400952D01*
X212605952Y-253900952D01*
X213796428Y-253900952D01*
X214748809Y-255686666D02*
X215939285Y-255686666D01*
X214510714Y-256400952D02*
X215344047Y-253900952D01*
X216177380Y-256400952D01*
X216653571Y-253900952D02*
X218082142Y-253900952D01*
X217367857Y-256400952D02*
X217367857Y-253900952D01*
X218796428Y-256281904D02*
X219153571Y-256400952D01*
X219748809Y-256400952D01*
X219986904Y-256281904D01*
X220105952Y-256162857D01*
X220225000Y-255924761D01*
X220225000Y-255686666D01*
X220105952Y-255448571D01*
X219986904Y-255329523D01*
X219748809Y-255210476D01*
X219272619Y-255091428D01*
X219034523Y-254972380D01*
X218915476Y-254853333D01*
X218796428Y-254615238D01*
X218796428Y-254377142D01*
X218915476Y-254139047D01*
X219034523Y-254020000D01*
X219272619Y-253900952D01*
X219867857Y-253900952D01*
X220225000Y-254020000D01*
X270689285Y-59562361D02*
X270689285Y-57062361D01*
X272117857Y-59562361D01*
X272117857Y-57062361D01*
X273784523Y-57062361D02*
X274260714Y-57062361D01*
X274498809Y-57181409D01*
X274736904Y-57419504D01*
X274855952Y-57895694D01*
X274855952Y-58729028D01*
X274736904Y-59205218D01*
X274498809Y-59443313D01*
X274260714Y-59562361D01*
X273784523Y-59562361D01*
X273546428Y-59443313D01*
X273308333Y-59205218D01*
X273189285Y-58729028D01*
X273189285Y-57895694D01*
X273308333Y-57419504D01*
X273546428Y-57181409D01*
X273784523Y-57062361D01*
X275570238Y-57062361D02*
X276998809Y-57062361D01*
X276284523Y-59562361D02*
X276284523Y-57062361D01*
X279260714Y-59324266D02*
X279141666Y-59443313D01*
X278784523Y-59562361D01*
X278546428Y-59562361D01*
X278189285Y-59443313D01*
X277951190Y-59205218D01*
X277832142Y-58967123D01*
X277713095Y-58490932D01*
X277713095Y-58133789D01*
X277832142Y-57657599D01*
X277951190Y-57419504D01*
X278189285Y-57181409D01*
X278546428Y-57062361D01*
X278784523Y-57062361D01*
X279141666Y-57181409D01*
X279260714Y-57300456D01*
X280332142Y-59562361D02*
X280332142Y-57062361D01*
X280332142Y-58252837D02*
X281760714Y-58252837D01*
X281760714Y-59562361D02*
X281760714Y-57062361D01*
D13*
X229005000Y-225550000D02*
X230338333Y-225550000D01*
X232088333Y-226216666D02*
X231088333Y-226216666D01*
X231588333Y-226216666D02*
X231588333Y-224466666D01*
X231421666Y-224716666D01*
X231255000Y-224883333D01*
X231088333Y-224966666D01*
X193049166Y-118266666D02*
X193049166Y-116516666D01*
X194049166Y-118266666D01*
X194049166Y-116516666D01*
X195215833Y-116516666D02*
X195549166Y-116516666D01*
X195715833Y-116600000D01*
X195882500Y-116766666D01*
X195965833Y-117100000D01*
X195965833Y-117683333D01*
X195882500Y-118016666D01*
X195715833Y-118183333D01*
X195549166Y-118266666D01*
X195215833Y-118266666D01*
X195049166Y-118183333D01*
X194882500Y-118016666D01*
X194799166Y-117683333D01*
X194799166Y-117100000D01*
X194882500Y-116766666D01*
X195049166Y-116600000D01*
X195215833Y-116516666D01*
X197715833Y-118266666D02*
X197132500Y-117433333D01*
X196715833Y-118266666D02*
X196715833Y-116516666D01*
X197382500Y-116516666D01*
X197549166Y-116600000D01*
X197632500Y-116683333D01*
X197715833Y-116850000D01*
X197715833Y-117100000D01*
X197632500Y-117266666D01*
X197549166Y-117350000D01*
X197382500Y-117433333D01*
X196715833Y-117433333D01*
X198465833Y-118266666D02*
X198465833Y-116516666D01*
X199049166Y-117766666D01*
X199632500Y-116516666D01*
X199632500Y-118266666D01*
X200382500Y-117766666D02*
X201215833Y-117766666D01*
X200215833Y-118266666D02*
X200799166Y-116516666D01*
X201382500Y-118266666D01*
X202799166Y-118266666D02*
X201965833Y-118266666D01*
X201965833Y-116516666D01*
D12*
X266263571Y-55077837D02*
X266620714Y-55196885D01*
X266739761Y-55315932D01*
X266858809Y-55554028D01*
X266858809Y-55911170D01*
X266739761Y-56149266D01*
X266620714Y-56268313D01*
X266382619Y-56387361D01*
X265430238Y-56387361D01*
X265430238Y-53887361D01*
X266263571Y-53887361D01*
X266501666Y-54006409D01*
X266620714Y-54125456D01*
X266739761Y-54363551D01*
X266739761Y-54601647D01*
X266620714Y-54839742D01*
X266501666Y-54958789D01*
X266263571Y-55077837D01*
X265430238Y-55077837D01*
X267930238Y-56387361D02*
X267930238Y-53887361D01*
X268882619Y-53887361D01*
X269120714Y-54006409D01*
X269239761Y-54125456D01*
X269358809Y-54363551D01*
X269358809Y-54720694D01*
X269239761Y-54958789D01*
X269120714Y-55077837D01*
X268882619Y-55196885D01*
X267930238Y-55196885D01*
D13*
X141364166Y-200971666D02*
X142364166Y-200971666D01*
X141864166Y-202721666D02*
X141864166Y-200971666D01*
X143947500Y-202721666D02*
X143364166Y-201888333D01*
X142947500Y-202721666D02*
X142947500Y-200971666D01*
X143614166Y-200971666D01*
X143780833Y-201055000D01*
X143864166Y-201138333D01*
X143947500Y-201305000D01*
X143947500Y-201555000D01*
X143864166Y-201721666D01*
X143780833Y-201805000D01*
X143614166Y-201888333D01*
X142947500Y-201888333D01*
X144614166Y-202221666D02*
X145447500Y-202221666D01*
X144447500Y-202721666D02*
X145030833Y-200971666D01*
X145614166Y-202721666D01*
X147197500Y-202555000D02*
X147114166Y-202638333D01*
X146864166Y-202721666D01*
X146697500Y-202721666D01*
X146447500Y-202638333D01*
X146280833Y-202471666D01*
X146197500Y-202305000D01*
X146114166Y-201971666D01*
X146114166Y-201721666D01*
X146197500Y-201388333D01*
X146280833Y-201221666D01*
X146447500Y-201055000D01*
X146697500Y-200971666D01*
X146864166Y-200971666D01*
X147114166Y-201055000D01*
X147197500Y-201138333D01*
X147947500Y-202721666D02*
X147947500Y-200971666D01*
X148947500Y-202721666D02*
X148197500Y-201721666D01*
X148947500Y-200971666D02*
X147947500Y-201971666D01*
D12*
X267255952Y-256400952D02*
X267255952Y-253900952D01*
X268089285Y-255686666D01*
X268922619Y-253900952D01*
X268922619Y-256400952D01*
X270113095Y-256400952D02*
X270113095Y-253900952D01*
X271065476Y-253900952D02*
X272732142Y-256400952D01*
X272732142Y-253900952D02*
X271065476Y-256400952D01*
X252888809Y-59562361D02*
X251698333Y-59562361D01*
X251698333Y-57062361D01*
X253722142Y-59562361D02*
X253722142Y-57062361D01*
X254674523Y-57062361D01*
X254912619Y-57181409D01*
X255031666Y-57300456D01*
X255150714Y-57538551D01*
X255150714Y-57895694D01*
X255031666Y-58133789D01*
X254912619Y-58252837D01*
X254674523Y-58371885D01*
X253722142Y-58371885D01*
D13*
X276567500Y-202876666D02*
X276900833Y-202876666D01*
X277067500Y-202960000D01*
X277234166Y-203126666D01*
X277317500Y-203460000D01*
X277317500Y-204043333D01*
X277234166Y-204376666D01*
X277067500Y-204543333D01*
X276900833Y-204626666D01*
X276567500Y-204626666D01*
X276400833Y-204543333D01*
X276234166Y-204376666D01*
X276150833Y-204043333D01*
X276150833Y-203460000D01*
X276234166Y-203126666D01*
X276400833Y-202960000D01*
X276567500Y-202876666D01*
X278650833Y-203710000D02*
X278067500Y-203710000D01*
X278067500Y-204626666D02*
X278067500Y-202876666D01*
X278900833Y-202876666D01*
X280150833Y-203710000D02*
X279567500Y-203710000D01*
X279567500Y-204626666D02*
X279567500Y-202876666D01*
X280400833Y-202876666D01*
D12*
X156150714Y-56375952D02*
X156150714Y-53875952D01*
X156150714Y-55066428D02*
X157579285Y-55066428D01*
X157579285Y-56375952D02*
X157579285Y-53875952D01*
X158769761Y-56375952D02*
X158769761Y-53875952D01*
X159722142Y-53875952D01*
X159960238Y-53995000D01*
X160079285Y-54114047D01*
X160198333Y-54352142D01*
X160198333Y-54709285D01*
X160079285Y-54947380D01*
X159960238Y-55066428D01*
X159722142Y-55185476D01*
X158769761Y-55185476D01*
X169089285Y-59550952D02*
X169089285Y-57050952D01*
X170517857Y-59550952D01*
X170517857Y-57050952D01*
X172184523Y-57050952D02*
X172660714Y-57050952D01*
X172898809Y-57170000D01*
X173136904Y-57408095D01*
X173255952Y-57884285D01*
X173255952Y-58717619D01*
X173136904Y-59193809D01*
X172898809Y-59431904D01*
X172660714Y-59550952D01*
X172184523Y-59550952D01*
X171946428Y-59431904D01*
X171708333Y-59193809D01*
X171589285Y-58717619D01*
X171589285Y-57884285D01*
X171708333Y-57408095D01*
X171946428Y-57170000D01*
X172184523Y-57050952D01*
X173970238Y-57050952D02*
X175398809Y-57050952D01*
X174684523Y-59550952D02*
X174684523Y-57050952D01*
X177660714Y-59312857D02*
X177541666Y-59431904D01*
X177184523Y-59550952D01*
X176946428Y-59550952D01*
X176589285Y-59431904D01*
X176351190Y-59193809D01*
X176232142Y-58955714D01*
X176113095Y-58479523D01*
X176113095Y-58122380D01*
X176232142Y-57646190D01*
X176351190Y-57408095D01*
X176589285Y-57170000D01*
X176946428Y-57050952D01*
X177184523Y-57050952D01*
X177541666Y-57170000D01*
X177660714Y-57289047D01*
X178732142Y-59550952D02*
X178732142Y-57050952D01*
X178732142Y-58241428D02*
X180160714Y-58241428D01*
X180160714Y-59550952D02*
X180160714Y-57050952D01*
X176054761Y-172580952D02*
X176054761Y-170080952D01*
X176888095Y-171866666D01*
X177721428Y-170080952D01*
X177721428Y-172580952D01*
X179388095Y-170080952D02*
X179864285Y-170080952D01*
X180102380Y-170200000D01*
X180340476Y-170438095D01*
X180459523Y-170914285D01*
X180459523Y-171747619D01*
X180340476Y-172223809D01*
X180102380Y-172461904D01*
X179864285Y-172580952D01*
X179388095Y-172580952D01*
X179150000Y-172461904D01*
X178911904Y-172223809D01*
X178792857Y-171747619D01*
X178792857Y-170914285D01*
X178911904Y-170438095D01*
X179150000Y-170200000D01*
X179388095Y-170080952D01*
X181530952Y-172580952D02*
X181530952Y-170080952D01*
X182126190Y-170080952D01*
X182483333Y-170200000D01*
X182721428Y-170438095D01*
X182840476Y-170676190D01*
X182959523Y-171152380D01*
X182959523Y-171509523D01*
X182840476Y-171985714D01*
X182721428Y-172223809D01*
X182483333Y-172461904D01*
X182126190Y-172580952D01*
X181530952Y-172580952D01*
X186411904Y-170080952D02*
X186888095Y-170080952D01*
X187126190Y-170200000D01*
X187364285Y-170438095D01*
X187483333Y-170914285D01*
X187483333Y-171747619D01*
X187364285Y-172223809D01*
X187126190Y-172461904D01*
X186888095Y-172580952D01*
X186411904Y-172580952D01*
X186173809Y-172461904D01*
X185935714Y-172223809D01*
X185816666Y-171747619D01*
X185816666Y-170914285D01*
X185935714Y-170438095D01*
X186173809Y-170200000D01*
X186411904Y-170080952D01*
X188435714Y-172461904D02*
X188792857Y-172580952D01*
X189388095Y-172580952D01*
X189626190Y-172461904D01*
X189745238Y-172342857D01*
X189864285Y-172104761D01*
X189864285Y-171866666D01*
X189745238Y-171628571D01*
X189626190Y-171509523D01*
X189388095Y-171390476D01*
X188911904Y-171271428D01*
X188673809Y-171152380D01*
X188554761Y-171033333D01*
X188435714Y-170795238D01*
X188435714Y-170557142D01*
X188554761Y-170319047D01*
X188673809Y-170200000D01*
X188911904Y-170080952D01*
X189507142Y-170080952D01*
X189864285Y-170200000D01*
X192364285Y-172342857D02*
X192245238Y-172461904D01*
X191888095Y-172580952D01*
X191650000Y-172580952D01*
X191292857Y-172461904D01*
X191054761Y-172223809D01*
X190935714Y-171985714D01*
X190816666Y-171509523D01*
X190816666Y-171152380D01*
X190935714Y-170676190D01*
X191054761Y-170438095D01*
X191292857Y-170200000D01*
X191650000Y-170080952D01*
X191888095Y-170080952D01*
X192245238Y-170200000D01*
X192364285Y-170319047D01*
X231180952Y-172461904D02*
X231538095Y-172580952D01*
X232133333Y-172580952D01*
X232371428Y-172461904D01*
X232490476Y-172342857D01*
X232609523Y-172104761D01*
X232609523Y-171866666D01*
X232490476Y-171628571D01*
X232371428Y-171509523D01*
X232133333Y-171390476D01*
X231657142Y-171271428D01*
X231419047Y-171152380D01*
X231300000Y-171033333D01*
X231180952Y-170795238D01*
X231180952Y-170557142D01*
X231300000Y-170319047D01*
X231419047Y-170200000D01*
X231657142Y-170080952D01*
X232252380Y-170080952D01*
X232609523Y-170200000D01*
X235704761Y-172580952D02*
X235585714Y-172580952D01*
X235347619Y-172461904D01*
X234990476Y-172104761D01*
X234395238Y-171390476D01*
X234157142Y-171033333D01*
X234038095Y-170676190D01*
X234038095Y-170438095D01*
X234157142Y-170200000D01*
X234395238Y-170080952D01*
X234514285Y-170080952D01*
X234752380Y-170200000D01*
X234871428Y-170438095D01*
X234871428Y-170557142D01*
X234752380Y-170795238D01*
X234633333Y-170914285D01*
X233919047Y-171390476D01*
X233800000Y-171509523D01*
X233680952Y-171747619D01*
X233680952Y-172104761D01*
X233800000Y-172342857D01*
X233919047Y-172461904D01*
X234157142Y-172580952D01*
X234514285Y-172580952D01*
X234752380Y-172461904D01*
X234871428Y-172342857D01*
X235228571Y-171866666D01*
X235347619Y-171509523D01*
X235347619Y-171271428D01*
X236776190Y-172580952D02*
X236776190Y-170080952D01*
X236776190Y-171271428D02*
X238204761Y-171271428D01*
X238204761Y-172580952D02*
X238204761Y-170080952D01*
X241300000Y-172580952D02*
X241300000Y-170080952D01*
X242133333Y-171866666D01*
X242966666Y-170080952D01*
X242966666Y-172580952D01*
X244157142Y-172580952D02*
X244157142Y-170080952D01*
X245109523Y-170080952D02*
X246776190Y-172580952D01*
X246776190Y-170080952D02*
X245109523Y-172580952D01*
X247728571Y-171271428D02*
X248561904Y-171271428D01*
X248919047Y-172580952D02*
X247728571Y-172580952D01*
X247728571Y-170080952D01*
X248919047Y-170080952D01*
X251419047Y-172580952D02*
X250585714Y-171390476D01*
X249990476Y-172580952D02*
X249990476Y-170080952D01*
X250942857Y-170080952D01*
X251180952Y-170200000D01*
X251300000Y-170319047D01*
X251419047Y-170557142D01*
X251419047Y-170914285D01*
X251300000Y-171152380D01*
X251180952Y-171271428D01*
X250942857Y-171390476D01*
X249990476Y-171390476D01*
X209153571Y-172461904D02*
X209510714Y-172580952D01*
X210105952Y-172580952D01*
X210344047Y-172461904D01*
X210463095Y-172342857D01*
X210582142Y-172104761D01*
X210582142Y-171866666D01*
X210463095Y-171628571D01*
X210344047Y-171509523D01*
X210105952Y-171390476D01*
X209629761Y-171271428D01*
X209391666Y-171152380D01*
X209272619Y-171033333D01*
X209153571Y-170795238D01*
X209153571Y-170557142D01*
X209272619Y-170319047D01*
X209391666Y-170200000D01*
X209629761Y-170080952D01*
X210225000Y-170080952D01*
X210582142Y-170200000D01*
X213677380Y-172580952D02*
X213558333Y-172580952D01*
X213320238Y-172461904D01*
X212963095Y-172104761D01*
X212367857Y-171390476D01*
X212129761Y-171033333D01*
X212010714Y-170676190D01*
X212010714Y-170438095D01*
X212129761Y-170200000D01*
X212367857Y-170080952D01*
X212486904Y-170080952D01*
X212725000Y-170200000D01*
X212844047Y-170438095D01*
X212844047Y-170557142D01*
X212725000Y-170795238D01*
X212605952Y-170914285D01*
X211891666Y-171390476D01*
X211772619Y-171509523D01*
X211653571Y-171747619D01*
X211653571Y-172104761D01*
X211772619Y-172342857D01*
X211891666Y-172461904D01*
X212129761Y-172580952D01*
X212486904Y-172580952D01*
X212725000Y-172461904D01*
X212844047Y-172342857D01*
X213201190Y-171866666D01*
X213320238Y-171509523D01*
X213320238Y-171271428D01*
X214748809Y-172580952D02*
X214748809Y-170080952D01*
X214748809Y-171271428D02*
X216177380Y-171271428D01*
X216177380Y-172580952D02*
X216177380Y-170080952D01*
X231318571Y-105739428D02*
X231675714Y-105858476D01*
X231794761Y-105977523D01*
X231913809Y-106215619D01*
X231913809Y-106572761D01*
X231794761Y-106810857D01*
X231675714Y-106929904D01*
X231437619Y-107048952D01*
X230485238Y-107048952D01*
X230485238Y-104548952D01*
X231318571Y-104548952D01*
X231556666Y-104668000D01*
X231675714Y-104787047D01*
X231794761Y-105025142D01*
X231794761Y-105263238D01*
X231675714Y-105501333D01*
X231556666Y-105620380D01*
X231318571Y-105739428D01*
X230485238Y-105739428D01*
X246263095Y-134520952D02*
X247096428Y-137020952D01*
X247929761Y-134520952D01*
X250191666Y-136782857D02*
X250072619Y-136901904D01*
X249715476Y-137020952D01*
X249477380Y-137020952D01*
X249120238Y-136901904D01*
X248882142Y-136663809D01*
X248763095Y-136425714D01*
X248644047Y-135949523D01*
X248644047Y-135592380D01*
X248763095Y-135116190D01*
X248882142Y-134878095D01*
X249120238Y-134640000D01*
X249477380Y-134520952D01*
X249715476Y-134520952D01*
X250072619Y-134640000D01*
X250191666Y-134759047D01*
X252096428Y-135711428D02*
X251263095Y-135711428D01*
X251263095Y-137020952D02*
X251263095Y-134520952D01*
X252453571Y-134520952D01*
X256144047Y-135711428D02*
X256501190Y-135830476D01*
X256620238Y-135949523D01*
X256739285Y-136187619D01*
X256739285Y-136544761D01*
X256620238Y-136782857D01*
X256501190Y-136901904D01*
X256263095Y-137020952D01*
X255310714Y-137020952D01*
X255310714Y-134520952D01*
X256144047Y-134520952D01*
X256382142Y-134640000D01*
X256501190Y-134759047D01*
X256620238Y-134997142D01*
X256620238Y-135235238D01*
X256501190Y-135473333D01*
X256382142Y-135592380D01*
X256144047Y-135711428D01*
X255310714Y-135711428D01*
X261144047Y-137020952D02*
X260310714Y-135830476D01*
X259715476Y-137020952D02*
X259715476Y-134520952D01*
X260667857Y-134520952D01*
X260905952Y-134640000D01*
X261025000Y-134759047D01*
X261144047Y-134997142D01*
X261144047Y-135354285D01*
X261025000Y-135592380D01*
X260905952Y-135711428D01*
X260667857Y-135830476D01*
X259715476Y-135830476D01*
X262215476Y-135711428D02*
X263048809Y-135711428D01*
X263405952Y-137020952D02*
X262215476Y-137020952D01*
X262215476Y-134520952D01*
X263405952Y-134520952D01*
X264358333Y-136901904D02*
X264715476Y-137020952D01*
X265310714Y-137020952D01*
X265548809Y-136901904D01*
X265667857Y-136782857D01*
X265786904Y-136544761D01*
X265786904Y-136306666D01*
X265667857Y-136068571D01*
X265548809Y-135949523D01*
X265310714Y-135830476D01*
X264834523Y-135711428D01*
X264596428Y-135592380D01*
X264477380Y-135473333D01*
X264358333Y-135235238D01*
X264358333Y-134997142D01*
X264477380Y-134759047D01*
X264596428Y-134640000D01*
X264834523Y-134520952D01*
X265429761Y-134520952D01*
X265786904Y-134640000D01*
X267334523Y-134520952D02*
X267810714Y-134520952D01*
X268048809Y-134640000D01*
X268286904Y-134878095D01*
X268405952Y-135354285D01*
X268405952Y-136187619D01*
X268286904Y-136663809D01*
X268048809Y-136901904D01*
X267810714Y-137020952D01*
X267334523Y-137020952D01*
X267096428Y-136901904D01*
X266858333Y-136663809D01*
X266739285Y-136187619D01*
X266739285Y-135354285D01*
X266858333Y-134878095D01*
X267096428Y-134640000D01*
X267334523Y-134520952D01*
X269477380Y-137020952D02*
X269477380Y-134520952D01*
X270905952Y-137020952D01*
X270905952Y-134520952D01*
X271977380Y-136306666D02*
X273167857Y-136306666D01*
X271739285Y-137020952D02*
X272572619Y-134520952D01*
X273405952Y-137020952D01*
X274239285Y-137020952D02*
X274239285Y-134520952D01*
X275667857Y-137020952D01*
X275667857Y-134520952D01*
X278286904Y-136782857D02*
X278167857Y-136901904D01*
X277810714Y-137020952D01*
X277572619Y-137020952D01*
X277215476Y-136901904D01*
X276977380Y-136663809D01*
X276858333Y-136425714D01*
X276739285Y-135949523D01*
X276739285Y-135592380D01*
X276858333Y-135116190D01*
X276977380Y-134878095D01*
X277215476Y-134640000D01*
X277572619Y-134520952D01*
X277810714Y-134520952D01*
X278167857Y-134640000D01*
X278286904Y-134759047D01*
X279358333Y-135711428D02*
X280191666Y-135711428D01*
X280548809Y-137020952D02*
X279358333Y-137020952D01*
X279358333Y-134520952D01*
X280548809Y-134520952D01*
D13*
X193840000Y-202582916D02*
X193840000Y-200832916D01*
X194423333Y-202082916D01*
X195006666Y-200832916D01*
X195006666Y-202582916D01*
X196173333Y-200832916D02*
X196506666Y-200832916D01*
X196673333Y-200916250D01*
X196840000Y-201082916D01*
X196923333Y-201416250D01*
X196923333Y-201999583D01*
X196840000Y-202332916D01*
X196673333Y-202499583D01*
X196506666Y-202582916D01*
X196173333Y-202582916D01*
X196006666Y-202499583D01*
X195840000Y-202332916D01*
X195756666Y-201999583D01*
X195756666Y-201416250D01*
X195840000Y-201082916D01*
X196006666Y-200916250D01*
X196173333Y-200832916D01*
X197673333Y-202582916D02*
X197673333Y-200832916D01*
X198090000Y-200832916D01*
X198340000Y-200916250D01*
X198506666Y-201082916D01*
X198590000Y-201249583D01*
X198673333Y-201582916D01*
X198673333Y-201832916D01*
X198590000Y-202166250D01*
X198506666Y-202332916D01*
X198340000Y-202499583D01*
X198090000Y-202582916D01*
X197673333Y-202582916D01*
X194173333Y-204483750D02*
X194756666Y-204483750D01*
X195006666Y-205400416D02*
X194173333Y-205400416D01*
X194173333Y-203650416D01*
X195006666Y-203650416D01*
X195756666Y-205400416D02*
X195756666Y-203650416D01*
X196756666Y-205400416D01*
X196756666Y-203650416D01*
X197340000Y-203650416D02*
X197923333Y-205400416D01*
X198506666Y-203650416D01*
D12*
X265398809Y-210042142D02*
X265684523Y-210137380D01*
X265779761Y-210232619D01*
X265875000Y-210423095D01*
X265875000Y-210708809D01*
X265779761Y-210899285D01*
X265684523Y-210994523D01*
X265494047Y-211089761D01*
X264732142Y-211089761D01*
X264732142Y-209089761D01*
X265398809Y-209089761D01*
X265589285Y-209185000D01*
X265684523Y-209280238D01*
X265779761Y-209470714D01*
X265779761Y-209661190D01*
X265684523Y-209851666D01*
X265589285Y-209946904D01*
X265398809Y-210042142D01*
X264732142Y-210042142D01*
X267113095Y-210137380D02*
X267113095Y-211089761D01*
X266446428Y-209089761D02*
X267113095Y-210137380D01*
X267779761Y-209089761D01*
X268446428Y-211089761D02*
X268446428Y-209089761D01*
X269208333Y-209089761D01*
X269398809Y-209185000D01*
X269494047Y-209280238D01*
X269589285Y-209470714D01*
X269589285Y-209756428D01*
X269494047Y-209946904D01*
X269398809Y-210042142D01*
X269208333Y-210137380D01*
X268446428Y-210137380D01*
X270351190Y-210518333D02*
X271303571Y-210518333D01*
X270160714Y-211089761D02*
X270827380Y-209089761D01*
X271494047Y-211089761D01*
X272065476Y-210994523D02*
X272351190Y-211089761D01*
X272827380Y-211089761D01*
X273017857Y-210994523D01*
X273113095Y-210899285D01*
X273208333Y-210708809D01*
X273208333Y-210518333D01*
X273113095Y-210327857D01*
X273017857Y-210232619D01*
X272827380Y-210137380D01*
X272446428Y-210042142D01*
X272255952Y-209946904D01*
X272160714Y-209851666D01*
X272065476Y-209661190D01*
X272065476Y-209470714D01*
X272160714Y-209280238D01*
X272255952Y-209185000D01*
X272446428Y-209089761D01*
X272922619Y-209089761D01*
X273208333Y-209185000D01*
X273970238Y-210994523D02*
X274255952Y-211089761D01*
X274732142Y-211089761D01*
X274922619Y-210994523D01*
X275017857Y-210899285D01*
X275113095Y-210708809D01*
X275113095Y-210518333D01*
X275017857Y-210327857D01*
X274922619Y-210232619D01*
X274732142Y-210137380D01*
X274351190Y-210042142D01*
X274160714Y-209946904D01*
X274065476Y-209851666D01*
X273970238Y-209661190D01*
X273970238Y-209470714D01*
X274065476Y-209280238D01*
X274160714Y-209185000D01*
X274351190Y-209089761D01*
X274827380Y-209089761D01*
X275113095Y-209185000D01*
X174824523Y-230127857D02*
X174705476Y-230246904D01*
X174348333Y-230365952D01*
X174110238Y-230365952D01*
X173753095Y-230246904D01*
X173515000Y-230008809D01*
X173395952Y-229770714D01*
X173276904Y-229294523D01*
X173276904Y-228937380D01*
X173395952Y-228461190D01*
X173515000Y-228223095D01*
X173753095Y-227985000D01*
X174110238Y-227865952D01*
X174348333Y-227865952D01*
X174705476Y-227985000D01*
X174824523Y-228104047D01*
X175538809Y-227865952D02*
X176372142Y-230365952D01*
X177205476Y-227865952D01*
X179824523Y-230246904D02*
X180181666Y-230365952D01*
X180776904Y-230365952D01*
X181015000Y-230246904D01*
X181134047Y-230127857D01*
X181253095Y-229889761D01*
X181253095Y-229651666D01*
X181134047Y-229413571D01*
X181015000Y-229294523D01*
X180776904Y-229175476D01*
X180300714Y-229056428D01*
X180062619Y-228937380D01*
X179943571Y-228818333D01*
X179824523Y-228580238D01*
X179824523Y-228342142D01*
X179943571Y-228104047D01*
X180062619Y-227985000D01*
X180300714Y-227865952D01*
X180895952Y-227865952D01*
X181253095Y-227985000D01*
X182800714Y-227865952D02*
X183276904Y-227865952D01*
X183515000Y-227985000D01*
X183753095Y-228223095D01*
X183872142Y-228699285D01*
X183872142Y-229532619D01*
X183753095Y-230008809D01*
X183515000Y-230246904D01*
X183276904Y-230365952D01*
X182800714Y-230365952D01*
X182562619Y-230246904D01*
X182324523Y-230008809D01*
X182205476Y-229532619D01*
X182205476Y-228699285D01*
X182324523Y-228223095D01*
X182562619Y-227985000D01*
X182800714Y-227865952D01*
X184943571Y-227865952D02*
X184943571Y-229889761D01*
X185062619Y-230127857D01*
X185181666Y-230246904D01*
X185419761Y-230365952D01*
X185895952Y-230365952D01*
X186134047Y-230246904D01*
X186253095Y-230127857D01*
X186372142Y-229889761D01*
X186372142Y-227865952D01*
X188991190Y-230365952D02*
X188157857Y-229175476D01*
X187562619Y-230365952D02*
X187562619Y-227865952D01*
X188515000Y-227865952D01*
X188753095Y-227985000D01*
X188872142Y-228104047D01*
X188991190Y-228342142D01*
X188991190Y-228699285D01*
X188872142Y-228937380D01*
X188753095Y-229056428D01*
X188515000Y-229175476D01*
X187562619Y-229175476D01*
X191491190Y-230127857D02*
X191372142Y-230246904D01*
X191015000Y-230365952D01*
X190776904Y-230365952D01*
X190419761Y-230246904D01*
X190181666Y-230008809D01*
X190062619Y-229770714D01*
X189943571Y-229294523D01*
X189943571Y-228937380D01*
X190062619Y-228461190D01*
X190181666Y-228223095D01*
X190419761Y-227985000D01*
X190776904Y-227865952D01*
X191015000Y-227865952D01*
X191372142Y-227985000D01*
X191491190Y-228104047D01*
X192562619Y-229056428D02*
X193395952Y-229056428D01*
X193753095Y-230365952D02*
X192562619Y-230365952D01*
X192562619Y-227865952D01*
X193753095Y-227865952D01*
X150675000Y-83074543D02*
X151508333Y-85574543D01*
X152341666Y-83074543D01*
X154603571Y-85336448D02*
X154484523Y-85455495D01*
X154127380Y-85574543D01*
X153889285Y-85574543D01*
X153532142Y-85455495D01*
X153294047Y-85217400D01*
X153175000Y-84979305D01*
X153055952Y-84503114D01*
X153055952Y-84145971D01*
X153175000Y-83669781D01*
X153294047Y-83431686D01*
X153532142Y-83193591D01*
X153889285Y-83074543D01*
X154127380Y-83074543D01*
X154484523Y-83193591D01*
X154603571Y-83312638D01*
X156508333Y-84265019D02*
X155675000Y-84265019D01*
X155675000Y-85574543D02*
X155675000Y-83074543D01*
X156865476Y-83074543D01*
X159603571Y-84860257D02*
X160794047Y-84860257D01*
X159365476Y-85574543D02*
X160198809Y-83074543D01*
X161032142Y-85574543D01*
X163770238Y-85574543D02*
X163770238Y-83074543D01*
X164603571Y-84860257D01*
X165436904Y-83074543D01*
X165436904Y-85574543D01*
X167103571Y-83074543D02*
X167579761Y-83074543D01*
X167817857Y-83193591D01*
X168055952Y-83431686D01*
X168175000Y-83907876D01*
X168175000Y-84741210D01*
X168055952Y-85217400D01*
X167817857Y-85455495D01*
X167579761Y-85574543D01*
X167103571Y-85574543D01*
X166865476Y-85455495D01*
X166627380Y-85217400D01*
X166508333Y-84741210D01*
X166508333Y-83907876D01*
X166627380Y-83431686D01*
X166865476Y-83193591D01*
X167103571Y-83074543D01*
X169246428Y-85574543D02*
X169246428Y-83074543D01*
X169841666Y-83074543D01*
X170198809Y-83193591D01*
X170436904Y-83431686D01*
X170555952Y-83669781D01*
X170675000Y-84145971D01*
X170675000Y-84503114D01*
X170555952Y-84979305D01*
X170436904Y-85217400D01*
X170198809Y-85455495D01*
X169841666Y-85574543D01*
X169246428Y-85574543D01*
X171746428Y-84265019D02*
X172579761Y-84265019D01*
X172936904Y-85574543D02*
X171746428Y-85574543D01*
X171746428Y-83074543D01*
X172936904Y-83074543D01*
X195998809Y-66297857D02*
X195879761Y-66416904D01*
X195522619Y-66535952D01*
X195284523Y-66535952D01*
X194927380Y-66416904D01*
X194689285Y-66178809D01*
X194570238Y-65940714D01*
X194451190Y-65464523D01*
X194451190Y-65107380D01*
X194570238Y-64631190D01*
X194689285Y-64393095D01*
X194927380Y-64155000D01*
X195284523Y-64035952D01*
X195522619Y-64035952D01*
X195879761Y-64155000D01*
X195998809Y-64274047D01*
X197070238Y-64035952D02*
X197070238Y-66059761D01*
X197189285Y-66297857D01*
X197308333Y-66416904D01*
X197546428Y-66535952D01*
X198022619Y-66535952D01*
X198260714Y-66416904D01*
X198379761Y-66297857D01*
X198498809Y-66059761D01*
X198498809Y-64035952D01*
X199332142Y-64035952D02*
X200760714Y-64035952D01*
X200046428Y-66535952D02*
X200046428Y-64035952D01*
X202070238Y-64035952D02*
X202546428Y-64035952D01*
X202784523Y-64155000D01*
X203022619Y-64393095D01*
X203141666Y-64869285D01*
X203141666Y-65702619D01*
X203022619Y-66178809D01*
X202784523Y-66416904D01*
X202546428Y-66535952D01*
X202070238Y-66535952D01*
X201832142Y-66416904D01*
X201594047Y-66178809D01*
X201475000Y-65702619D01*
X201475000Y-64869285D01*
X201594047Y-64393095D01*
X201832142Y-64155000D01*
X202070238Y-64035952D01*
X205046428Y-65226428D02*
X204213095Y-65226428D01*
X204213095Y-66535952D02*
X204213095Y-64035952D01*
X205403571Y-64035952D01*
X207189285Y-65226428D02*
X206355952Y-65226428D01*
X206355952Y-66535952D02*
X206355952Y-64035952D01*
X207546428Y-64035952D01*
X211236904Y-65226428D02*
X210403571Y-65226428D01*
X210403571Y-66535952D02*
X210403571Y-64035952D01*
X211594047Y-64035952D01*
X213975000Y-66535952D02*
X213141666Y-65345476D01*
X212546428Y-66535952D02*
X212546428Y-64035952D01*
X213498809Y-64035952D01*
X213736904Y-64155000D01*
X213855952Y-64274047D01*
X213975000Y-64512142D01*
X213975000Y-64869285D01*
X213855952Y-65107380D01*
X213736904Y-65226428D01*
X213498809Y-65345476D01*
X212546428Y-65345476D01*
X215046428Y-65226428D02*
X215879761Y-65226428D01*
X216236904Y-66535952D02*
X215046428Y-66535952D01*
X215046428Y-64035952D01*
X216236904Y-64035952D01*
X218975000Y-66774047D02*
X218736904Y-66655000D01*
X218498809Y-66416904D01*
X218141666Y-66059761D01*
X217903571Y-65940714D01*
X217665476Y-65940714D01*
X217784523Y-66535952D02*
X217546428Y-66416904D01*
X217308333Y-66178809D01*
X217189285Y-65702619D01*
X217189285Y-64869285D01*
X217308333Y-64393095D01*
X217546428Y-64155000D01*
X217784523Y-64035952D01*
X218260714Y-64035952D01*
X218498809Y-64155000D01*
X218736904Y-64393095D01*
X218855952Y-64869285D01*
X218855952Y-65702619D01*
X218736904Y-66178809D01*
X218498809Y-66416904D01*
X218260714Y-66535952D01*
X217784523Y-66535952D01*
X219927380Y-64035952D02*
X219927380Y-66059761D01*
X220046428Y-66297857D01*
X220165476Y-66416904D01*
X220403571Y-66535952D01*
X220879761Y-66535952D01*
X221117857Y-66416904D01*
X221236904Y-66297857D01*
X221355952Y-66059761D01*
X221355952Y-64035952D01*
X222546428Y-65226428D02*
X223379761Y-65226428D01*
X223736904Y-66535952D02*
X222546428Y-66535952D01*
X222546428Y-64035952D01*
X223736904Y-64035952D01*
X224808333Y-66535952D02*
X224808333Y-64035952D01*
X226236904Y-66535952D01*
X226236904Y-64035952D01*
X228855952Y-66297857D02*
X228736904Y-66416904D01*
X228379761Y-66535952D01*
X228141666Y-66535952D01*
X227784523Y-66416904D01*
X227546428Y-66178809D01*
X227427380Y-65940714D01*
X227308333Y-65464523D01*
X227308333Y-65107380D01*
X227427380Y-64631190D01*
X227546428Y-64393095D01*
X227784523Y-64155000D01*
X228141666Y-64035952D01*
X228379761Y-64035952D01*
X228736904Y-64155000D01*
X228855952Y-64274047D01*
X230403571Y-65345476D02*
X230403571Y-66535952D01*
X229570238Y-64035952D02*
X230403571Y-65345476D01*
X231236904Y-64035952D01*
D13*
X193382500Y-119691666D02*
X193715833Y-119691666D01*
X193882500Y-119775000D01*
X194049166Y-119941666D01*
X194132500Y-120275000D01*
X194132500Y-120858333D01*
X194049166Y-121191666D01*
X193882500Y-121358333D01*
X193715833Y-121441666D01*
X193382500Y-121441666D01*
X193215833Y-121358333D01*
X193049166Y-121191666D01*
X192965833Y-120858333D01*
X192965833Y-120275000D01*
X193049166Y-119941666D01*
X193215833Y-119775000D01*
X193382500Y-119691666D01*
X195465833Y-120525000D02*
X194882500Y-120525000D01*
X194882500Y-121441666D02*
X194882500Y-119691666D01*
X195715833Y-119691666D01*
X196965833Y-120525000D02*
X196382500Y-120525000D01*
X196382500Y-121441666D02*
X196382500Y-119691666D01*
X197215833Y-119691666D01*
D12*
X252096428Y-83085952D02*
X252929761Y-85585952D01*
X253763095Y-83085952D01*
X256025000Y-85347857D02*
X255905952Y-85466904D01*
X255548809Y-85585952D01*
X255310714Y-85585952D01*
X254953571Y-85466904D01*
X254715476Y-85228809D01*
X254596428Y-84990714D01*
X254477380Y-84514523D01*
X254477380Y-84157380D01*
X254596428Y-83681190D01*
X254715476Y-83443095D01*
X254953571Y-83205000D01*
X255310714Y-83085952D01*
X255548809Y-83085952D01*
X255905952Y-83205000D01*
X256025000Y-83324047D01*
X257929761Y-84276428D02*
X257096428Y-84276428D01*
X257096428Y-85585952D02*
X257096428Y-83085952D01*
X258286904Y-83085952D01*
X261977380Y-84276428D02*
X262334523Y-84395476D01*
X262453571Y-84514523D01*
X262572619Y-84752619D01*
X262572619Y-85109761D01*
X262453571Y-85347857D01*
X262334523Y-85466904D01*
X262096428Y-85585952D01*
X261144047Y-85585952D01*
X261144047Y-83085952D01*
X261977380Y-83085952D01*
X262215476Y-83205000D01*
X262334523Y-83324047D01*
X262453571Y-83562142D01*
X262453571Y-83800238D01*
X262334523Y-84038333D01*
X262215476Y-84157380D01*
X261977380Y-84276428D01*
X261144047Y-84276428D01*
X265548809Y-85585952D02*
X265548809Y-83085952D01*
X266382142Y-84871666D01*
X267215476Y-83085952D01*
X267215476Y-85585952D01*
X268882142Y-83085952D02*
X269358333Y-83085952D01*
X269596428Y-83205000D01*
X269834523Y-83443095D01*
X269953571Y-83919285D01*
X269953571Y-84752619D01*
X269834523Y-85228809D01*
X269596428Y-85466904D01*
X269358333Y-85585952D01*
X268882142Y-85585952D01*
X268644047Y-85466904D01*
X268405952Y-85228809D01*
X268286904Y-84752619D01*
X268286904Y-83919285D01*
X268405952Y-83443095D01*
X268644047Y-83205000D01*
X268882142Y-83085952D01*
X271025000Y-85585952D02*
X271025000Y-83085952D01*
X271620238Y-83085952D01*
X271977380Y-83205000D01*
X272215476Y-83443095D01*
X272334523Y-83681190D01*
X272453571Y-84157380D01*
X272453571Y-84514523D01*
X272334523Y-84990714D01*
X272215476Y-85228809D01*
X271977380Y-85466904D01*
X271620238Y-85585952D01*
X271025000Y-85585952D01*
X273525000Y-84276428D02*
X274358333Y-84276428D01*
X274715476Y-85585952D02*
X273525000Y-85585952D01*
X273525000Y-83085952D01*
X274715476Y-83085952D01*
X144841666Y-134520952D02*
X145675000Y-137020952D01*
X146508333Y-134520952D01*
X148770238Y-136782857D02*
X148651190Y-136901904D01*
X148294047Y-137020952D01*
X148055952Y-137020952D01*
X147698809Y-136901904D01*
X147460714Y-136663809D01*
X147341666Y-136425714D01*
X147222619Y-135949523D01*
X147222619Y-135592380D01*
X147341666Y-135116190D01*
X147460714Y-134878095D01*
X147698809Y-134640000D01*
X148055952Y-134520952D01*
X148294047Y-134520952D01*
X148651190Y-134640000D01*
X148770238Y-134759047D01*
X150675000Y-135711428D02*
X149841666Y-135711428D01*
X149841666Y-137020952D02*
X149841666Y-134520952D01*
X151032142Y-134520952D01*
X153770238Y-136306666D02*
X154960714Y-136306666D01*
X153532142Y-137020952D02*
X154365476Y-134520952D01*
X155198809Y-137020952D01*
X159365476Y-137020952D02*
X158532142Y-135830476D01*
X157936904Y-137020952D02*
X157936904Y-134520952D01*
X158889285Y-134520952D01*
X159127380Y-134640000D01*
X159246428Y-134759047D01*
X159365476Y-134997142D01*
X159365476Y-135354285D01*
X159246428Y-135592380D01*
X159127380Y-135711428D01*
X158889285Y-135830476D01*
X157936904Y-135830476D01*
X160436904Y-135711428D02*
X161270238Y-135711428D01*
X161627380Y-137020952D02*
X160436904Y-137020952D01*
X160436904Y-134520952D01*
X161627380Y-134520952D01*
X162579761Y-136901904D02*
X162936904Y-137020952D01*
X163532142Y-137020952D01*
X163770238Y-136901904D01*
X163889285Y-136782857D01*
X164008333Y-136544761D01*
X164008333Y-136306666D01*
X163889285Y-136068571D01*
X163770238Y-135949523D01*
X163532142Y-135830476D01*
X163055952Y-135711428D01*
X162817857Y-135592380D01*
X162698809Y-135473333D01*
X162579761Y-135235238D01*
X162579761Y-134997142D01*
X162698809Y-134759047D01*
X162817857Y-134640000D01*
X163055952Y-134520952D01*
X163651190Y-134520952D01*
X164008333Y-134640000D01*
X165555952Y-134520952D02*
X166032142Y-134520952D01*
X166270238Y-134640000D01*
X166508333Y-134878095D01*
X166627380Y-135354285D01*
X166627380Y-136187619D01*
X166508333Y-136663809D01*
X166270238Y-136901904D01*
X166032142Y-137020952D01*
X165555952Y-137020952D01*
X165317857Y-136901904D01*
X165079761Y-136663809D01*
X164960714Y-136187619D01*
X164960714Y-135354285D01*
X165079761Y-134878095D01*
X165317857Y-134640000D01*
X165555952Y-134520952D01*
X167698809Y-137020952D02*
X167698809Y-134520952D01*
X169127380Y-137020952D01*
X169127380Y-134520952D01*
X170198809Y-136306666D02*
X171389285Y-136306666D01*
X169960714Y-137020952D02*
X170794047Y-134520952D01*
X171627380Y-137020952D01*
X172460714Y-137020952D02*
X172460714Y-134520952D01*
X173889285Y-137020952D01*
X173889285Y-134520952D01*
X176508333Y-136782857D02*
X176389285Y-136901904D01*
X176032142Y-137020952D01*
X175794047Y-137020952D01*
X175436904Y-136901904D01*
X175198809Y-136663809D01*
X175079761Y-136425714D01*
X174960714Y-135949523D01*
X174960714Y-135592380D01*
X175079761Y-135116190D01*
X175198809Y-134878095D01*
X175436904Y-134640000D01*
X175794047Y-134520952D01*
X176032142Y-134520952D01*
X176389285Y-134640000D01*
X176508333Y-134759047D01*
X177579761Y-135711428D02*
X178413095Y-135711428D01*
X178770238Y-137020952D02*
X177579761Y-137020952D01*
X177579761Y-134520952D01*
X178770238Y-134520952D01*
D13*
X220989166Y-119536666D02*
X220989166Y-117786666D01*
X221655833Y-117786666D01*
X221822500Y-117870000D01*
X221905833Y-117953333D01*
X221989166Y-118120000D01*
X221989166Y-118370000D01*
X221905833Y-118536666D01*
X221822500Y-118620000D01*
X221655833Y-118703333D01*
X220989166Y-118703333D01*
X222655833Y-119036666D02*
X223489166Y-119036666D01*
X222489166Y-119536666D02*
X223072500Y-117786666D01*
X223655833Y-119536666D01*
X225239166Y-119536666D02*
X224655833Y-118703333D01*
X224239166Y-119536666D02*
X224239166Y-117786666D01*
X224905833Y-117786666D01*
X225072500Y-117870000D01*
X225155833Y-117953333D01*
X225239166Y-118120000D01*
X225239166Y-118370000D01*
X225155833Y-118536666D01*
X225072500Y-118620000D01*
X224905833Y-118703333D01*
X224239166Y-118703333D01*
X225905833Y-119036666D02*
X226739166Y-119036666D01*
X225739166Y-119536666D02*
X226322500Y-117786666D01*
X226905833Y-119536666D01*
X228322500Y-119536666D02*
X227489166Y-119536666D01*
X227489166Y-117786666D01*
X229739166Y-119536666D02*
X228905833Y-119536666D01*
X228905833Y-117786666D01*
X230322500Y-118620000D02*
X230905833Y-118620000D01*
X231155833Y-119536666D02*
X230322500Y-119536666D01*
X230322500Y-117786666D01*
X231155833Y-117786666D01*
X232739166Y-119536666D02*
X231905833Y-119536666D01*
X231905833Y-117786666D01*
D12*
X212605952Y-76735952D02*
X212844047Y-76735952D01*
X213082142Y-76855000D01*
X213201190Y-76974047D01*
X213320238Y-77212142D01*
X213439285Y-77688333D01*
X213439285Y-78283571D01*
X213320238Y-78759761D01*
X213201190Y-78997857D01*
X213082142Y-79116904D01*
X212844047Y-79235952D01*
X212605952Y-79235952D01*
X212367857Y-79116904D01*
X212248809Y-78997857D01*
X212129761Y-78759761D01*
X212010714Y-78283571D01*
X212010714Y-77688333D01*
X212129761Y-77212142D01*
X212248809Y-76974047D01*
X212367857Y-76855000D01*
X212605952Y-76735952D01*
X262255952Y-170080952D02*
X263089285Y-172580952D01*
X263922619Y-170080952D01*
X266184523Y-172342857D02*
X266065476Y-172461904D01*
X265708333Y-172580952D01*
X265470238Y-172580952D01*
X265113095Y-172461904D01*
X264875000Y-172223809D01*
X264755952Y-171985714D01*
X264636904Y-171509523D01*
X264636904Y-171152380D01*
X264755952Y-170676190D01*
X264875000Y-170438095D01*
X265113095Y-170200000D01*
X265470238Y-170080952D01*
X265708333Y-170080952D01*
X266065476Y-170200000D01*
X266184523Y-170319047D01*
X268089285Y-171271428D02*
X267255952Y-171271428D01*
X267255952Y-172580952D02*
X267255952Y-170080952D01*
X268446428Y-170080952D01*
X271303571Y-171271428D02*
X272136904Y-171271428D01*
X272494047Y-172580952D02*
X271303571Y-172580952D01*
X271303571Y-170080952D01*
X272494047Y-170080952D01*
X273565476Y-172580952D02*
X273565476Y-170080952D01*
X274994047Y-172580952D01*
X274994047Y-170080952D01*
X275827380Y-170080952D02*
X276660714Y-172580952D01*
X277494047Y-170080952D01*
D13*
X186095000Y-198689583D02*
X186345000Y-198772916D01*
X186761666Y-198772916D01*
X186928333Y-198689583D01*
X187011666Y-198606250D01*
X187095000Y-198439583D01*
X187095000Y-198272916D01*
X187011666Y-198106250D01*
X186928333Y-198022916D01*
X186761666Y-197939583D01*
X186428333Y-197856250D01*
X186261666Y-197772916D01*
X186178333Y-197689583D01*
X186095000Y-197522916D01*
X186095000Y-197356250D01*
X186178333Y-197189583D01*
X186261666Y-197106250D01*
X186428333Y-197022916D01*
X186845000Y-197022916D01*
X187095000Y-197106250D01*
X189261666Y-198772916D02*
X189178333Y-198772916D01*
X189011666Y-198689583D01*
X188761666Y-198439583D01*
X188345000Y-197939583D01*
X188178333Y-197689583D01*
X188095000Y-197439583D01*
X188095000Y-197272916D01*
X188178333Y-197106250D01*
X188345000Y-197022916D01*
X188428333Y-197022916D01*
X188595000Y-197106250D01*
X188678333Y-197272916D01*
X188678333Y-197356250D01*
X188595000Y-197522916D01*
X188511666Y-197606250D01*
X188011666Y-197939583D01*
X187928333Y-198022916D01*
X187845000Y-198189583D01*
X187845000Y-198439583D01*
X187928333Y-198606250D01*
X188011666Y-198689583D01*
X188178333Y-198772916D01*
X188428333Y-198772916D01*
X188595000Y-198689583D01*
X188678333Y-198606250D01*
X188928333Y-198272916D01*
X189011666Y-198022916D01*
X189011666Y-197856250D01*
X190011666Y-198772916D02*
X190011666Y-197022916D01*
X190011666Y-197856250D02*
X191011666Y-197856250D01*
X191011666Y-198772916D02*
X191011666Y-197022916D01*
X185095000Y-201590416D02*
X185095000Y-199840416D01*
X185678333Y-201090416D01*
X186261666Y-199840416D01*
X186261666Y-201590416D01*
X187095000Y-201590416D02*
X187095000Y-199840416D01*
X187761666Y-199840416D02*
X188928333Y-201590416D01*
X188928333Y-199840416D02*
X187761666Y-201590416D01*
X189595000Y-200673750D02*
X190178333Y-200673750D01*
X190428333Y-201590416D02*
X189595000Y-201590416D01*
X189595000Y-199840416D01*
X190428333Y-199840416D01*
X192178333Y-201590416D02*
X191595000Y-200757083D01*
X191178333Y-201590416D02*
X191178333Y-199840416D01*
X191845000Y-199840416D01*
X192011666Y-199923750D01*
X192095000Y-200007083D01*
X192178333Y-200173750D01*
X192178333Y-200423750D01*
X192095000Y-200590416D01*
X192011666Y-200673750D01*
X191845000Y-200757083D01*
X191178333Y-200757083D01*
X168440000Y-202582916D02*
X168440000Y-200832916D01*
X169023333Y-202082916D01*
X169606666Y-200832916D01*
X169606666Y-202582916D01*
X170773333Y-200832916D02*
X171106666Y-200832916D01*
X171273333Y-200916250D01*
X171440000Y-201082916D01*
X171523333Y-201416250D01*
X171523333Y-201999583D01*
X171440000Y-202332916D01*
X171273333Y-202499583D01*
X171106666Y-202582916D01*
X170773333Y-202582916D01*
X170606666Y-202499583D01*
X170440000Y-202332916D01*
X170356666Y-201999583D01*
X170356666Y-201416250D01*
X170440000Y-201082916D01*
X170606666Y-200916250D01*
X170773333Y-200832916D01*
X172273333Y-202582916D02*
X172273333Y-200832916D01*
X172690000Y-200832916D01*
X172940000Y-200916250D01*
X173106666Y-201082916D01*
X173190000Y-201249583D01*
X173273333Y-201582916D01*
X173273333Y-201832916D01*
X173190000Y-202166250D01*
X173106666Y-202332916D01*
X172940000Y-202499583D01*
X172690000Y-202582916D01*
X172273333Y-202582916D01*
X168940000Y-203650416D02*
X169273333Y-203650416D01*
X169440000Y-203733750D01*
X169606666Y-203900416D01*
X169690000Y-204233750D01*
X169690000Y-204817083D01*
X169606666Y-205150416D01*
X169440000Y-205317083D01*
X169273333Y-205400416D01*
X168940000Y-205400416D01*
X168773333Y-205317083D01*
X168606666Y-205150416D01*
X168523333Y-204817083D01*
X168523333Y-204233750D01*
X168606666Y-203900416D01*
X168773333Y-203733750D01*
X168940000Y-203650416D01*
X170356666Y-205317083D02*
X170606666Y-205400416D01*
X171023333Y-205400416D01*
X171190000Y-205317083D01*
X171273333Y-205233750D01*
X171356666Y-205067083D01*
X171356666Y-204900416D01*
X171273333Y-204733750D01*
X171190000Y-204650416D01*
X171023333Y-204567083D01*
X170690000Y-204483750D01*
X170523333Y-204400416D01*
X170440000Y-204317083D01*
X170356666Y-204150416D01*
X170356666Y-203983750D01*
X170440000Y-203817083D01*
X170523333Y-203733750D01*
X170690000Y-203650416D01*
X171106666Y-203650416D01*
X171356666Y-203733750D01*
X173106666Y-205233750D02*
X173023333Y-205317083D01*
X172773333Y-205400416D01*
X172606666Y-205400416D01*
X172356666Y-205317083D01*
X172190000Y-205150416D01*
X172106666Y-204983750D01*
X172023333Y-204650416D01*
X172023333Y-204400416D01*
X172106666Y-204067083D01*
X172190000Y-203900416D01*
X172356666Y-203733750D01*
X172606666Y-203650416D01*
X172773333Y-203650416D01*
X173023333Y-203733750D01*
X173106666Y-203817083D01*
X220905833Y-123263333D02*
X221155833Y-123346666D01*
X221572500Y-123346666D01*
X221739166Y-123263333D01*
X221822500Y-123180000D01*
X221905833Y-123013333D01*
X221905833Y-122846666D01*
X221822500Y-122680000D01*
X221739166Y-122596666D01*
X221572500Y-122513333D01*
X221239166Y-122430000D01*
X221072500Y-122346666D01*
X220989166Y-122263333D01*
X220905833Y-122096666D01*
X220905833Y-121930000D01*
X220989166Y-121763333D01*
X221072500Y-121680000D01*
X221239166Y-121596666D01*
X221655833Y-121596666D01*
X221905833Y-121680000D01*
X222655833Y-122430000D02*
X223239166Y-122430000D01*
X223489166Y-123346666D02*
X222655833Y-123346666D01*
X222655833Y-121596666D01*
X223489166Y-121596666D01*
X225239166Y-123346666D02*
X224655833Y-122513333D01*
X224239166Y-123346666D02*
X224239166Y-121596666D01*
X224905833Y-121596666D01*
X225072500Y-121680000D01*
X225155833Y-121763333D01*
X225239166Y-121930000D01*
X225239166Y-122180000D01*
X225155833Y-122346666D01*
X225072500Y-122430000D01*
X224905833Y-122513333D01*
X224239166Y-122513333D01*
X225989166Y-123346666D02*
X225989166Y-121596666D01*
X226822500Y-122430000D02*
X227405833Y-122430000D01*
X227655833Y-123346666D02*
X226822500Y-123346666D01*
X226822500Y-121596666D01*
X227655833Y-121596666D01*
X228322500Y-123263333D02*
X228572500Y-123346666D01*
X228989166Y-123346666D01*
X229155833Y-123263333D01*
X229239166Y-123180000D01*
X229322500Y-123013333D01*
X229322500Y-122846666D01*
X229239166Y-122680000D01*
X229155833Y-122596666D01*
X228989166Y-122513333D01*
X228655833Y-122430000D01*
X228489166Y-122346666D01*
X228405833Y-122263333D01*
X228322500Y-122096666D01*
X228322500Y-121930000D01*
X228405833Y-121763333D01*
X228489166Y-121680000D01*
X228655833Y-121596666D01*
X229072500Y-121596666D01*
X229322500Y-121680000D01*
X141614166Y-205896666D02*
X141614166Y-204146666D01*
X142030833Y-204146666D01*
X142280833Y-204230000D01*
X142447500Y-204396666D01*
X142530833Y-204563333D01*
X142614166Y-204896666D01*
X142614166Y-205146666D01*
X142530833Y-205480000D01*
X142447500Y-205646666D01*
X142280833Y-205813333D01*
X142030833Y-205896666D01*
X141614166Y-205896666D01*
X143280833Y-205396666D02*
X144114166Y-205396666D01*
X143114166Y-205896666D02*
X143697500Y-204146666D01*
X144280833Y-205896666D01*
X145864166Y-205896666D02*
X145280833Y-205063333D01*
X144864166Y-205896666D02*
X144864166Y-204146666D01*
X145530833Y-204146666D01*
X145697500Y-204230000D01*
X145780833Y-204313333D01*
X145864166Y-204480000D01*
X145864166Y-204730000D01*
X145780833Y-204896666D01*
X145697500Y-204980000D01*
X145530833Y-205063333D01*
X144864166Y-205063333D01*
X146614166Y-205896666D02*
X146614166Y-204146666D01*
X147614166Y-205896666D02*
X146864166Y-204896666D01*
X147614166Y-204146666D02*
X146614166Y-205146666D01*
D12*
X180610714Y-129619285D02*
X180515476Y-129714523D01*
X180229761Y-129809761D01*
X180039285Y-129809761D01*
X179753571Y-129714523D01*
X179563095Y-129524047D01*
X179467857Y-129333571D01*
X179372619Y-128952619D01*
X179372619Y-128666904D01*
X179467857Y-128285952D01*
X179563095Y-128095476D01*
X179753571Y-127905000D01*
X180039285Y-127809761D01*
X180229761Y-127809761D01*
X180515476Y-127905000D01*
X180610714Y-128000238D01*
X181182142Y-127809761D02*
X181848809Y-129809761D01*
X182515476Y-127809761D01*
X184610714Y-129238333D02*
X185563095Y-129238333D01*
X184420238Y-129809761D02*
X185086904Y-127809761D01*
X185753571Y-129809761D01*
X187944047Y-129809761D02*
X187944047Y-127809761D01*
X188610714Y-129238333D01*
X189277380Y-127809761D01*
X189277380Y-129809761D01*
X190610714Y-127809761D02*
X190991666Y-127809761D01*
X191182142Y-127905000D01*
X191372619Y-128095476D01*
X191467857Y-128476428D01*
X191467857Y-129143095D01*
X191372619Y-129524047D01*
X191182142Y-129714523D01*
X190991666Y-129809761D01*
X190610714Y-129809761D01*
X190420238Y-129714523D01*
X190229761Y-129524047D01*
X190134523Y-129143095D01*
X190134523Y-128476428D01*
X190229761Y-128095476D01*
X190420238Y-127905000D01*
X190610714Y-127809761D01*
X192325000Y-129809761D02*
X192325000Y-127809761D01*
X192801190Y-127809761D01*
X193086904Y-127905000D01*
X193277380Y-128095476D01*
X193372619Y-128285952D01*
X193467857Y-128666904D01*
X193467857Y-128952619D01*
X193372619Y-129333571D01*
X193277380Y-129524047D01*
X193086904Y-129714523D01*
X192801190Y-129809761D01*
X192325000Y-129809761D01*
X194325000Y-128762142D02*
X194991666Y-128762142D01*
X195277380Y-129809761D02*
X194325000Y-129809761D01*
X194325000Y-127809761D01*
X195277380Y-127809761D01*
D13*
X251865000Y-225550000D02*
X253198333Y-225550000D01*
X252531666Y-226216666D02*
X252531666Y-224883333D01*
X254948333Y-226216666D02*
X253948333Y-226216666D01*
X254448333Y-226216666D02*
X254448333Y-224466666D01*
X254281666Y-224716666D01*
X254115000Y-224883333D01*
X253948333Y-224966666D01*
X276567500Y-199066666D02*
X276900833Y-199066666D01*
X277067500Y-199150000D01*
X277234166Y-199316666D01*
X277317500Y-199650000D01*
X277317500Y-200233333D01*
X277234166Y-200566666D01*
X277067500Y-200733333D01*
X276900833Y-200816666D01*
X276567500Y-200816666D01*
X276400833Y-200733333D01*
X276234166Y-200566666D01*
X276150833Y-200233333D01*
X276150833Y-199650000D01*
X276234166Y-199316666D01*
X276400833Y-199150000D01*
X276567500Y-199066666D01*
X278067500Y-200816666D02*
X278067500Y-199066666D01*
X279067500Y-200816666D01*
X279067500Y-199066666D01*
D12*
X151288809Y-59550952D02*
X150098333Y-59550952D01*
X150098333Y-57050952D01*
X152122142Y-59550952D02*
X152122142Y-57050952D01*
X153074523Y-57050952D01*
X153312619Y-57170000D01*
X153431666Y-57289047D01*
X153550714Y-57527142D01*
X153550714Y-57884285D01*
X153431666Y-58122380D01*
X153312619Y-58241428D01*
X153074523Y-58360476D01*
X152122142Y-58360476D01*
X224702761Y-106461666D02*
X225893238Y-106461666D01*
X224464666Y-107175952D02*
X225298000Y-104675952D01*
X226131333Y-107175952D01*
X198044571Y-105866428D02*
X198401714Y-105985476D01*
X198520761Y-106104523D01*
X198639809Y-106342619D01*
X198639809Y-106699761D01*
X198520761Y-106937857D01*
X198401714Y-107056904D01*
X198163619Y-107175952D01*
X197211238Y-107175952D01*
X197211238Y-104675952D01*
X198044571Y-104675952D01*
X198282666Y-104795000D01*
X198401714Y-104914047D01*
X198520761Y-105152142D01*
X198520761Y-105390238D01*
X198401714Y-105628333D01*
X198282666Y-105747380D01*
X198044571Y-105866428D01*
X197211238Y-105866428D01*
D13*
X142197500Y-198630000D02*
X142447500Y-198713333D01*
X142530833Y-198796666D01*
X142614166Y-198963333D01*
X142614166Y-199213333D01*
X142530833Y-199380000D01*
X142447500Y-199463333D01*
X142280833Y-199546666D01*
X141614166Y-199546666D01*
X141614166Y-197796666D01*
X142197500Y-197796666D01*
X142364166Y-197880000D01*
X142447500Y-197963333D01*
X142530833Y-198130000D01*
X142530833Y-198296666D01*
X142447500Y-198463333D01*
X142364166Y-198546666D01*
X142197500Y-198630000D01*
X141614166Y-198630000D01*
X144364166Y-199546666D02*
X143780833Y-198713333D01*
X143364166Y-199546666D02*
X143364166Y-197796666D01*
X144030833Y-197796666D01*
X144197500Y-197880000D01*
X144280833Y-197963333D01*
X144364166Y-198130000D01*
X144364166Y-198380000D01*
X144280833Y-198546666D01*
X144197500Y-198630000D01*
X144030833Y-198713333D01*
X143364166Y-198713333D01*
X145114166Y-199546666D02*
X145114166Y-197796666D01*
X146864166Y-197880000D02*
X146697500Y-197796666D01*
X146447500Y-197796666D01*
X146197500Y-197880000D01*
X146030833Y-198046666D01*
X145947500Y-198213333D01*
X145864166Y-198546666D01*
X145864166Y-198796666D01*
X145947500Y-199130000D01*
X146030833Y-199296666D01*
X146197500Y-199463333D01*
X146447500Y-199546666D01*
X146614166Y-199546666D01*
X146864166Y-199463333D01*
X146947500Y-199380000D01*
X146947500Y-198796666D01*
X146614166Y-198796666D01*
X147697500Y-199546666D02*
X147697500Y-197796666D01*
X147697500Y-198630000D02*
X148697500Y-198630000D01*
X148697500Y-199546666D02*
X148697500Y-197796666D01*
X149280833Y-197796666D02*
X150280833Y-197796666D01*
X149780833Y-199546666D02*
X149780833Y-197796666D01*
D12*
X235327857Y-230762857D02*
X235208809Y-230881904D01*
X234851666Y-231000952D01*
X234613571Y-231000952D01*
X234256428Y-230881904D01*
X234018333Y-230643809D01*
X233899285Y-230405714D01*
X233780238Y-229929523D01*
X233780238Y-229572380D01*
X233899285Y-229096190D01*
X234018333Y-228858095D01*
X234256428Y-228620000D01*
X234613571Y-228500952D01*
X234851666Y-228500952D01*
X235208809Y-228620000D01*
X235327857Y-228739047D01*
X236042142Y-228500952D02*
X236875476Y-231000952D01*
X237708809Y-228500952D01*
X241637380Y-231000952D02*
X240446904Y-231000952D01*
X240446904Y-228500952D01*
X242470714Y-229691428D02*
X243304047Y-229691428D01*
X243661190Y-231000952D02*
X242470714Y-231000952D01*
X242470714Y-228500952D01*
X243661190Y-228500952D01*
X244375476Y-228500952D02*
X245208809Y-231000952D01*
X246042142Y-228500952D01*
X246875476Y-229691428D02*
X247708809Y-229691428D01*
X248065952Y-231000952D02*
X246875476Y-231000952D01*
X246875476Y-228500952D01*
X248065952Y-228500952D01*
X250327857Y-231000952D02*
X249137380Y-231000952D01*
X249137380Y-228500952D01*
D13*
X175935000Y-200098333D02*
X176185000Y-200181666D01*
X176601666Y-200181666D01*
X176768333Y-200098333D01*
X176851666Y-200015000D01*
X176935000Y-199848333D01*
X176935000Y-199681666D01*
X176851666Y-199515000D01*
X176768333Y-199431666D01*
X176601666Y-199348333D01*
X176268333Y-199265000D01*
X176101666Y-199181666D01*
X176018333Y-199098333D01*
X175935000Y-198931666D01*
X175935000Y-198765000D01*
X176018333Y-198598333D01*
X176101666Y-198515000D01*
X176268333Y-198431666D01*
X176685000Y-198431666D01*
X176935000Y-198515000D01*
X179101666Y-200181666D02*
X179018333Y-200181666D01*
X178851666Y-200098333D01*
X178601666Y-199848333D01*
X178185000Y-199348333D01*
X178018333Y-199098333D01*
X177935000Y-198848333D01*
X177935000Y-198681666D01*
X178018333Y-198515000D01*
X178185000Y-198431666D01*
X178268333Y-198431666D01*
X178435000Y-198515000D01*
X178518333Y-198681666D01*
X178518333Y-198765000D01*
X178435000Y-198931666D01*
X178351666Y-199015000D01*
X177851666Y-199348333D01*
X177768333Y-199431666D01*
X177685000Y-199598333D01*
X177685000Y-199848333D01*
X177768333Y-200015000D01*
X177851666Y-200098333D01*
X178018333Y-200181666D01*
X178268333Y-200181666D01*
X178435000Y-200098333D01*
X178518333Y-200015000D01*
X178768333Y-199681666D01*
X178851666Y-199431666D01*
X178851666Y-199265000D01*
X179851666Y-200181666D02*
X179851666Y-198431666D01*
X179851666Y-199265000D02*
X180851666Y-199265000D01*
X180851666Y-200181666D02*
X180851666Y-198431666D01*
D12*
X164663571Y-55066428D02*
X165020714Y-55185476D01*
X165139761Y-55304523D01*
X165258809Y-55542619D01*
X165258809Y-55899761D01*
X165139761Y-56137857D01*
X165020714Y-56256904D01*
X164782619Y-56375952D01*
X163830238Y-56375952D01*
X163830238Y-53875952D01*
X164663571Y-53875952D01*
X164901666Y-53995000D01*
X165020714Y-54114047D01*
X165139761Y-54352142D01*
X165139761Y-54590238D01*
X165020714Y-54828333D01*
X164901666Y-54947380D01*
X164663571Y-55066428D01*
X163830238Y-55066428D01*
X166330238Y-56375952D02*
X166330238Y-53875952D01*
X167282619Y-53875952D01*
X167520714Y-53995000D01*
X167639761Y-54114047D01*
X167758809Y-54352142D01*
X167758809Y-54709285D01*
X167639761Y-54947380D01*
X167520714Y-55066428D01*
X167282619Y-55185476D01*
X166330238Y-55185476D01*
X149479761Y-211089761D02*
X148527380Y-211089761D01*
X148527380Y-209089761D01*
X150146428Y-211089761D02*
X150146428Y-209089761D01*
X150908333Y-209089761D01*
X151098809Y-209185000D01*
X151194047Y-209280238D01*
X151289285Y-209470714D01*
X151289285Y-209756428D01*
X151194047Y-209946904D01*
X151098809Y-210042142D01*
X150908333Y-210137380D01*
X150146428Y-210137380D01*
X152813095Y-210042142D02*
X152146428Y-210042142D01*
X152146428Y-211089761D02*
X152146428Y-209089761D01*
X153098809Y-209089761D01*
X155384523Y-211089761D02*
X155384523Y-209089761D01*
X156051190Y-210518333D01*
X156717857Y-209089761D01*
X156717857Y-211089761D01*
X158051190Y-209089761D02*
X158432142Y-209089761D01*
X158622619Y-209185000D01*
X158813095Y-209375476D01*
X158908333Y-209756428D01*
X158908333Y-210423095D01*
X158813095Y-210804047D01*
X158622619Y-210994523D01*
X158432142Y-211089761D01*
X158051190Y-211089761D01*
X157860714Y-210994523D01*
X157670238Y-210804047D01*
X157575000Y-210423095D01*
X157575000Y-209756428D01*
X157670238Y-209375476D01*
X157860714Y-209185000D01*
X158051190Y-209089761D01*
X159765476Y-211089761D02*
X159765476Y-209089761D01*
X160241666Y-209089761D01*
X160527380Y-209185000D01*
X160717857Y-209375476D01*
X160813095Y-209565952D01*
X160908333Y-209946904D01*
X160908333Y-210232619D01*
X160813095Y-210613571D01*
X160717857Y-210804047D01*
X160527380Y-210994523D01*
X160241666Y-211089761D01*
X159765476Y-211089761D01*
X161765476Y-210042142D02*
X162432142Y-210042142D01*
X162717857Y-211089761D02*
X161765476Y-211089761D01*
X161765476Y-209089761D01*
X162717857Y-209089761D01*
X151705952Y-253900952D02*
X153134523Y-253900952D01*
X152420238Y-256400952D02*
X152420238Y-253900952D01*
X153967857Y-256400952D02*
X153967857Y-253900952D01*
X155158333Y-256400952D02*
X155158333Y-253900952D01*
X155991666Y-255686666D01*
X156825000Y-253900952D01*
X156825000Y-256400952D01*
X158015476Y-255091428D02*
X158848809Y-255091428D01*
X159205952Y-256400952D02*
X158015476Y-256400952D01*
X158015476Y-253900952D01*
X159205952Y-253900952D01*
D13*
X193049166Y-124616666D02*
X193049166Y-122866666D01*
X193882500Y-124616666D02*
X193882500Y-122866666D01*
X194882500Y-124616666D01*
X194882500Y-122866666D01*
X195465833Y-122866666D02*
X196049166Y-124616666D01*
X196632500Y-122866666D01*
X197215833Y-123700000D02*
X197799166Y-123700000D01*
X198049166Y-124616666D02*
X197215833Y-124616666D01*
X197215833Y-122866666D01*
X198049166Y-122866666D01*
X199799166Y-124616666D02*
X199215833Y-123783333D01*
X198799166Y-124616666D02*
X198799166Y-122866666D01*
X199465833Y-122866666D01*
X199632500Y-122950000D01*
X199715833Y-123033333D01*
X199799166Y-123200000D01*
X199799166Y-123450000D01*
X199715833Y-123616666D01*
X199632500Y-123700000D01*
X199465833Y-123783333D01*
X198799166Y-123783333D01*
X200299166Y-122866666D02*
X201299166Y-122866666D01*
X200799166Y-124616666D02*
X200799166Y-122866666D01*
D12*
X147241666Y-170080952D02*
X148075000Y-172580952D01*
X148908333Y-170080952D01*
X151170238Y-172342857D02*
X151051190Y-172461904D01*
X150694047Y-172580952D01*
X150455952Y-172580952D01*
X150098809Y-172461904D01*
X149860714Y-172223809D01*
X149741666Y-171985714D01*
X149622619Y-171509523D01*
X149622619Y-171152380D01*
X149741666Y-170676190D01*
X149860714Y-170438095D01*
X150098809Y-170200000D01*
X150455952Y-170080952D01*
X150694047Y-170080952D01*
X151051190Y-170200000D01*
X151170238Y-170319047D01*
X152717857Y-170080952D02*
X153194047Y-170080952D01*
X153432142Y-170200000D01*
X153670238Y-170438095D01*
X153789285Y-170914285D01*
X153789285Y-171747619D01*
X153670238Y-172223809D01*
X153432142Y-172461904D01*
X153194047Y-172580952D01*
X152717857Y-172580952D01*
X152479761Y-172461904D01*
X152241666Y-172223809D01*
X152122619Y-171747619D01*
X152122619Y-170914285D01*
X152241666Y-170438095D01*
X152479761Y-170200000D01*
X152717857Y-170080952D01*
X156765476Y-172580952D02*
X156765476Y-170080952D01*
X157598809Y-171866666D01*
X158432142Y-170080952D01*
X158432142Y-172580952D01*
X160098809Y-170080952D02*
X160575000Y-170080952D01*
X160813095Y-170200000D01*
X161051190Y-170438095D01*
X161170238Y-170914285D01*
X161170238Y-171747619D01*
X161051190Y-172223809D01*
X160813095Y-172461904D01*
X160575000Y-172580952D01*
X160098809Y-172580952D01*
X159860714Y-172461904D01*
X159622619Y-172223809D01*
X159503571Y-171747619D01*
X159503571Y-170914285D01*
X159622619Y-170438095D01*
X159860714Y-170200000D01*
X160098809Y-170080952D01*
X162241666Y-172580952D02*
X162241666Y-170080952D01*
X162836904Y-170080952D01*
X163194047Y-170200000D01*
X163432142Y-170438095D01*
X163551190Y-170676190D01*
X163670238Y-171152380D01*
X163670238Y-171509523D01*
X163551190Y-171985714D01*
X163432142Y-172223809D01*
X163194047Y-172461904D01*
X162836904Y-172580952D01*
X162241666Y-172580952D01*
X202070238Y-111501904D02*
X202427380Y-111620952D01*
X203022619Y-111620952D01*
X203260714Y-111501904D01*
X203379761Y-111382857D01*
X203498809Y-111144761D01*
X203498809Y-110906666D01*
X203379761Y-110668571D01*
X203260714Y-110549523D01*
X203022619Y-110430476D01*
X202546428Y-110311428D01*
X202308333Y-110192380D01*
X202189285Y-110073333D01*
X202070238Y-109835238D01*
X202070238Y-109597142D01*
X202189285Y-109359047D01*
X202308333Y-109240000D01*
X202546428Y-109120952D01*
X203141666Y-109120952D01*
X203498809Y-109240000D01*
X204570238Y-110311428D02*
X205403571Y-110311428D01*
X205760714Y-111620952D02*
X204570238Y-111620952D01*
X204570238Y-109120952D01*
X205760714Y-109120952D01*
X206832142Y-111620952D02*
X206832142Y-109120952D01*
X207784523Y-109120952D01*
X208022619Y-109240000D01*
X208141666Y-109359047D01*
X208260714Y-109597142D01*
X208260714Y-109954285D01*
X208141666Y-110192380D01*
X208022619Y-110311428D01*
X207784523Y-110430476D01*
X206832142Y-110430476D01*
X209213095Y-110906666D02*
X210403571Y-110906666D01*
X208975000Y-111620952D02*
X209808333Y-109120952D01*
X210641666Y-111620952D01*
X212903571Y-111620952D02*
X212070238Y-110430476D01*
X211475000Y-111620952D02*
X211475000Y-109120952D01*
X212427380Y-109120952D01*
X212665476Y-109240000D01*
X212784523Y-109359047D01*
X212903571Y-109597142D01*
X212903571Y-109954285D01*
X212784523Y-110192380D01*
X212665476Y-110311428D01*
X212427380Y-110430476D01*
X211475000Y-110430476D01*
X213855952Y-110906666D02*
X215046428Y-110906666D01*
X213617857Y-111620952D02*
X214451190Y-109120952D01*
X215284523Y-111620952D01*
X215760714Y-109120952D02*
X217189285Y-109120952D01*
X216475000Y-111620952D02*
X216475000Y-109120952D01*
X218022619Y-111620952D02*
X218022619Y-109120952D01*
X219689285Y-109120952D02*
X220165476Y-109120952D01*
X220403571Y-109240000D01*
X220641666Y-109478095D01*
X220760714Y-109954285D01*
X220760714Y-110787619D01*
X220641666Y-111263809D01*
X220403571Y-111501904D01*
X220165476Y-111620952D01*
X219689285Y-111620952D01*
X219451190Y-111501904D01*
X219213095Y-111263809D01*
X219094047Y-110787619D01*
X219094047Y-109954285D01*
X219213095Y-109478095D01*
X219451190Y-109240000D01*
X219689285Y-109120952D01*
X221832142Y-111620952D02*
X221832142Y-109120952D01*
X223260714Y-111620952D01*
X223260714Y-109120952D01*
X230744047Y-127809761D02*
X231410714Y-129809761D01*
X232077380Y-127809761D01*
X233886904Y-129619285D02*
X233791666Y-129714523D01*
X233505952Y-129809761D01*
X233315476Y-129809761D01*
X233029761Y-129714523D01*
X232839285Y-129524047D01*
X232744047Y-129333571D01*
X232648809Y-128952619D01*
X232648809Y-128666904D01*
X232744047Y-128285952D01*
X232839285Y-128095476D01*
X233029761Y-127905000D01*
X233315476Y-127809761D01*
X233505952Y-127809761D01*
X233791666Y-127905000D01*
X233886904Y-128000238D01*
X235410714Y-128762142D02*
X234744047Y-128762142D01*
X234744047Y-129809761D02*
X234744047Y-127809761D01*
X235696428Y-127809761D01*
X237982142Y-129809761D02*
X237982142Y-127809761D01*
X238648809Y-129238333D01*
X239315476Y-127809761D01*
X239315476Y-129809761D01*
X240648809Y-127809761D02*
X241029761Y-127809761D01*
X241220238Y-127905000D01*
X241410714Y-128095476D01*
X241505952Y-128476428D01*
X241505952Y-129143095D01*
X241410714Y-129524047D01*
X241220238Y-129714523D01*
X241029761Y-129809761D01*
X240648809Y-129809761D01*
X240458333Y-129714523D01*
X240267857Y-129524047D01*
X240172619Y-129143095D01*
X240172619Y-128476428D01*
X240267857Y-128095476D01*
X240458333Y-127905000D01*
X240648809Y-127809761D01*
X242363095Y-129809761D02*
X242363095Y-127809761D01*
X242839285Y-127809761D01*
X243125000Y-127905000D01*
X243315476Y-128095476D01*
X243410714Y-128285952D01*
X243505952Y-128666904D01*
X243505952Y-128952619D01*
X243410714Y-129333571D01*
X243315476Y-129524047D01*
X243125000Y-129714523D01*
X242839285Y-129809761D01*
X242363095Y-129809761D01*
X244363095Y-128762142D02*
X245029761Y-128762142D01*
X245315476Y-129809761D02*
X244363095Y-129809761D01*
X244363095Y-127809761D01*
X245315476Y-127809761D01*
D14*
X214125000Y-52705000D02*
G75*
G03*
X214125000Y-52705000I-1400000J0D01*
G01*
G36*
X223724787Y-176528412D02*
G01*
X223945450Y-176637950D01*
X224088325Y-176825275D01*
X224135950Y-177095150D01*
X223958150Y-177536475D01*
X223724787Y-177653156D01*
X223380300Y-177692050D01*
X223208850Y-177692050D01*
X223208850Y-176510950D01*
X223335850Y-176495075D01*
X223443800Y-176491900D01*
X223724787Y-176528412D01*
G37*
G36*
X199259559Y-180252140D02*
G01*
X198790542Y-180109865D01*
X198358294Y-179878824D01*
X198247077Y-179787550D01*
X200259950Y-179787550D01*
X201041000Y-179787550D01*
X203180950Y-179787550D01*
X203898500Y-179787550D01*
X203866750Y-176733200D01*
X204330300Y-178396900D01*
X204901800Y-178396900D01*
X205384400Y-176733200D01*
X205346300Y-179787550D01*
X206063850Y-179787550D01*
X209530950Y-179787550D01*
X210248500Y-179787550D01*
X210216750Y-176733200D01*
X210680300Y-178396900D01*
X211251800Y-178396900D01*
X211734400Y-176733200D01*
X211696300Y-179787550D01*
X212413850Y-179787550D01*
X212902800Y-179787550D01*
X215398350Y-179787550D01*
X215804750Y-179787550D01*
X216649300Y-179787550D01*
X216795350Y-179443856D01*
X216966800Y-179060475D01*
X217150950Y-178664394D01*
X217335100Y-178282600D01*
X217521631Y-178676300D01*
X217700225Y-179070000D01*
X217861356Y-179446238D01*
X217995500Y-179787550D01*
X218840050Y-179787550D01*
X219309950Y-179787550D01*
X221830900Y-179787550D01*
X222427800Y-179787550D01*
X223208850Y-179787550D01*
X223208850Y-178339750D01*
X223615250Y-178339750D01*
X223830356Y-178699319D01*
X224031175Y-179054125D01*
X224212943Y-179413694D01*
X224370900Y-179787550D01*
X225190050Y-179787550D01*
X225009075Y-179371625D01*
X224790000Y-178933475D01*
X224555050Y-178514375D01*
X224326450Y-178149250D01*
X224604262Y-177969863D01*
X224790000Y-177723800D01*
X224894775Y-177428525D01*
X224929700Y-177101500D01*
X224903506Y-176792731D01*
X224824925Y-176526825D01*
X224523300Y-176123600D01*
X224307400Y-175985487D01*
X224053400Y-175888650D01*
X223764475Y-175831500D01*
X223443800Y-175812450D01*
X223221550Y-175818800D01*
X222954850Y-175834675D01*
X222678625Y-175866425D01*
X222427800Y-175914050D01*
X222427800Y-179787550D01*
X221830900Y-179787550D01*
X221830900Y-179139850D01*
X220091000Y-179139850D01*
X220091000Y-178034950D01*
X221481650Y-178034950D01*
X221481650Y-177387250D01*
X220091000Y-177387250D01*
X220091000Y-176504600D01*
X221691200Y-176504600D01*
X221691200Y-175856900D01*
X219309950Y-175856900D01*
X219309950Y-179787550D01*
X218840050Y-179787550D01*
X218668600Y-179371625D01*
X218551918Y-179117625D01*
X218417775Y-178844575D01*
X218269343Y-178558031D01*
X218109800Y-178263550D01*
X217943112Y-177971450D01*
X217773250Y-177692050D01*
X218776550Y-175856900D01*
X217989150Y-175856900D01*
X217335100Y-177114200D01*
X216712800Y-175856900D01*
X215868250Y-175856900D01*
X216896950Y-177711100D01*
X216741375Y-177989706D01*
X216579450Y-178279425D01*
X216418318Y-178570731D01*
X216265125Y-178854100D01*
X216122250Y-179123975D01*
X215992075Y-179374800D01*
X215804750Y-179787550D01*
X215398350Y-179787550D01*
X215398350Y-179139850D01*
X214547450Y-179139850D01*
X214547450Y-176504600D01*
X215398350Y-176504600D01*
X215398350Y-175856900D01*
X212902800Y-175856900D01*
X212902800Y-176504600D01*
X213760050Y-176504600D01*
X213760050Y-179139850D01*
X212902800Y-179139850D01*
X212902800Y-179787550D01*
X212413850Y-179787550D01*
X212399562Y-179285106D01*
X212382100Y-178793775D01*
X212360668Y-178309588D01*
X212334475Y-177828575D01*
X212302725Y-177346769D01*
X212264625Y-176860200D01*
X212222556Y-176364900D01*
X212178900Y-175856900D01*
X211531200Y-175856900D01*
X211416900Y-176193450D01*
X211277200Y-176628425D01*
X211118450Y-177111025D01*
X210959700Y-177596800D01*
X210813650Y-177139600D01*
X210661250Y-176650650D01*
X210518375Y-176199800D01*
X210407250Y-175856900D01*
X209759550Y-175856900D01*
X209717481Y-176287112D01*
X209680175Y-176752250D01*
X209647631Y-177242787D01*
X209619850Y-177749200D01*
X209595243Y-178265138D01*
X209572225Y-178784250D01*
X209550793Y-179295425D01*
X209530950Y-179787550D01*
X206063850Y-179787550D01*
X206049562Y-179285106D01*
X206032100Y-178793775D01*
X206010668Y-178309588D01*
X205984475Y-177828575D01*
X205952725Y-177346769D01*
X205914625Y-176860200D01*
X205872556Y-176364900D01*
X205828900Y-175856900D01*
X205181200Y-175856900D01*
X205066900Y-176193450D01*
X204927200Y-176628425D01*
X204768450Y-177111025D01*
X204609700Y-177596800D01*
X204463650Y-177139600D01*
X204311250Y-176650650D01*
X204168375Y-176199800D01*
X204057250Y-175856900D01*
X203409550Y-175856900D01*
X203367481Y-176287112D01*
X203330175Y-176752250D01*
X203297631Y-177242787D01*
X203269850Y-177749200D01*
X203245243Y-178265138D01*
X203222225Y-178784250D01*
X203200793Y-179295425D01*
X203180950Y-179787550D01*
X201041000Y-179787550D01*
X201041000Y-178104800D01*
X202463400Y-178104800D01*
X202463400Y-177457100D01*
X201041000Y-177457100D01*
X201041000Y-176504600D01*
X202666600Y-176504600D01*
X202666600Y-175856900D01*
X200259950Y-175856900D01*
X200259950Y-179787550D01*
X198247077Y-179787550D01*
X197979426Y-179567894D01*
X197668496Y-179189025D01*
X197437455Y-178756777D01*
X197295180Y-178287761D01*
X197247140Y-177800000D01*
X197295180Y-177312239D01*
X197437455Y-176843223D01*
X197668496Y-176410975D01*
X197979426Y-176032106D01*
X198358294Y-175721176D01*
X198790542Y-175490135D01*
X199259559Y-175347860D01*
X199747319Y-175299820D01*
X225702680Y-175299820D01*
X226190441Y-175347860D01*
X226659457Y-175490135D01*
X227091706Y-175721176D01*
X227470574Y-176032106D01*
X227781504Y-176410974D01*
X228012545Y-176843222D01*
X228154820Y-177312239D01*
X228202860Y-177800000D01*
X228154820Y-178287761D01*
X228012545Y-178756778D01*
X227781504Y-179189026D01*
X227470574Y-179567894D01*
X227091706Y-179878824D01*
X226659457Y-180109865D01*
X226190441Y-180252140D01*
X225702680Y-180300180D01*
X199747319Y-180300180D01*
X199259559Y-180252140D01*
G37*
G36*
X144724713Y-24327966D02*
G01*
X145082694Y-24733969D01*
X145266051Y-25318962D01*
X145318438Y-26000000D01*
X145302067Y-26385266D01*
X145252954Y-26737791D01*
X145034672Y-27318419D01*
X144633035Y-27702594D01*
X144017482Y-27842294D01*
X143921438Y-27842294D01*
X143825394Y-27833563D01*
X143825394Y-24201362D01*
X143982557Y-24179534D01*
X144139719Y-24175169D01*
X144724713Y-24327966D01*
G37*
G36*
X141588619Y-29268785D02*
G01*
X140963404Y-29079128D01*
X140387203Y-28771142D01*
X140234192Y-28645569D01*
X142751451Y-28645569D01*
X143340810Y-28745978D01*
X143903976Y-28776538D01*
X144431125Y-28738338D01*
X144912435Y-28623741D01*
X145339175Y-28426196D01*
X145702613Y-28139156D01*
X145998384Y-27758255D01*
X146222122Y-27279128D01*
X146349493Y-26750888D01*
X146986107Y-26750888D01*
X147007935Y-27200547D01*
X147073419Y-27606550D01*
X147191291Y-27962348D01*
X147370282Y-28261394D01*
X147933447Y-28676128D01*
X148329628Y-28784177D01*
X148810938Y-28820194D01*
X149299888Y-28784177D01*
X149587929Y-28706688D01*
X151089794Y-28706688D01*
X152207394Y-28706688D01*
X152451869Y-27458119D01*
X153892526Y-27458119D01*
X154145732Y-28706688D01*
X155298257Y-28706688D01*
X155996757Y-28706688D01*
X159393213Y-28706688D01*
X159393213Y-27816100D01*
X157079432Y-27816100D01*
X157079432Y-23302044D01*
X164221594Y-23302044D01*
X164322004Y-23790994D01*
X164466069Y-24402181D01*
X164581516Y-24859602D01*
X164706664Y-25335455D01*
X164841513Y-25829741D01*
X164984124Y-26333728D01*
X165132555Y-26838685D01*
X165286807Y-27344613D01*
X165516002Y-28064941D01*
X165732101Y-28706688D01*
X166840969Y-28706688D01*
X167007833Y-28241506D01*
X167170817Y-27765653D01*
X167329919Y-27279128D01*
X167482716Y-26790178D01*
X167626782Y-26307049D01*
X167713841Y-26000000D01*
X168709457Y-26000000D01*
X168747110Y-26637927D01*
X168860071Y-27198364D01*
X169048338Y-27681311D01*
X169311913Y-28086769D01*
X169773699Y-28494227D01*
X170355783Y-28738702D01*
X171058163Y-28820194D01*
X171535108Y-28790726D01*
X171932472Y-28706688D01*
X173389407Y-28706688D01*
X174463351Y-28706688D01*
X174463351Y-26392906D01*
X176419151Y-26392906D01*
X176419151Y-25502319D01*
X174463351Y-25502319D01*
X174463351Y-24192631D01*
X176698551Y-24192631D01*
X176698551Y-23302044D01*
X173389407Y-23302044D01*
X173389407Y-28706688D01*
X171932472Y-28706688D01*
X171953116Y-28702322D01*
X172568669Y-28444750D01*
X172298001Y-27597819D01*
X171857072Y-27789906D01*
X171162938Y-27885950D01*
X170539745Y-27762621D01*
X170119554Y-27392634D01*
X169942503Y-27015735D01*
X169836273Y-26542793D01*
X169800863Y-25973806D01*
X169830331Y-25484856D01*
X169918735Y-25083219D01*
X170224329Y-24511322D01*
X170652160Y-24205728D01*
X171145476Y-24114050D01*
X171795954Y-24205728D01*
X172280538Y-24428375D01*
X172559938Y-23572712D01*
X172380947Y-23467937D01*
X172088451Y-23336969D01*
X171682447Y-23227828D01*
X171162938Y-23179806D01*
X170651069Y-23226737D01*
X170180672Y-23367528D01*
X169761572Y-23598906D01*
X169403591Y-23917597D01*
X169112186Y-24320326D01*
X168892813Y-24803819D01*
X168755296Y-25364802D01*
X168709457Y-26000000D01*
X167713841Y-26000000D01*
X167762116Y-25829741D01*
X167947655Y-25134515D01*
X168111366Y-24472031D01*
X168252158Y-23856478D01*
X168368938Y-23302044D01*
X167242607Y-23302044D01*
X167164026Y-23756069D01*
X167067982Y-24279944D01*
X166958841Y-24846384D01*
X166840969Y-25428103D01*
X166714366Y-26013097D01*
X166579032Y-26589359D01*
X166439332Y-27129605D01*
X166299632Y-27606550D01*
X166158840Y-27123057D01*
X166015866Y-26580628D01*
X165876166Y-26004366D01*
X165745197Y-25419372D01*
X165624051Y-24838744D01*
X165513819Y-24275578D01*
X165422141Y-23754977D01*
X165356657Y-23302044D01*
X164221594Y-23302044D01*
X157079432Y-23302044D01*
X155996757Y-23302044D01*
X155996757Y-28706688D01*
X155298257Y-28706688D01*
X155154191Y-28093928D01*
X155008379Y-27498981D01*
X154860821Y-26921845D01*
X154711517Y-26362522D01*
X154560466Y-25821009D01*
X154370289Y-25164256D01*
X154179565Y-24525510D01*
X153988296Y-23904773D01*
X153796482Y-23302044D01*
X152626494Y-23302044D01*
X152441501Y-23899862D01*
X152253233Y-24514596D01*
X152061692Y-25146247D01*
X151866876Y-25794816D01*
X151710062Y-26331788D01*
X151553948Y-26891461D01*
X151398531Y-27473835D01*
X151243814Y-28078911D01*
X151089794Y-28706688D01*
X149587929Y-28706688D01*
X149701526Y-28676128D01*
X150024582Y-28500412D01*
X150277788Y-28261394D01*
X150463327Y-27962348D01*
X150583382Y-27606550D01*
X150648866Y-27200547D01*
X150670694Y-26750888D01*
X150670694Y-23302044D01*
X149596751Y-23302044D01*
X149596751Y-26672306D01*
X149561826Y-27244203D01*
X149439588Y-27619647D01*
X149203844Y-27824831D01*
X148828401Y-27885950D01*
X148452957Y-27824831D01*
X148221579Y-27624013D01*
X148103707Y-27252934D01*
X148068782Y-26681038D01*
X148068782Y-23302044D01*
X146986107Y-23302044D01*
X146986107Y-26750888D01*
X146349493Y-26750888D01*
X146362914Y-26695226D01*
X146409844Y-26000000D01*
X146367279Y-25320054D01*
X146239585Y-24747066D01*
X146035492Y-24273395D01*
X145763732Y-23891403D01*
X145424304Y-23599998D01*
X145017210Y-23398087D01*
X144553362Y-23280216D01*
X144043676Y-23240925D01*
X143441219Y-23267119D01*
X142751451Y-23371894D01*
X142751451Y-28645569D01*
X140234192Y-28645569D01*
X139882158Y-28356662D01*
X139467679Y-27851618D01*
X139159693Y-27275417D01*
X138970036Y-26650202D01*
X138905996Y-26000000D01*
X138970036Y-25349798D01*
X139159693Y-24724583D01*
X139467679Y-24148382D01*
X139882158Y-23643338D01*
X140387203Y-23228858D01*
X140963404Y-22920872D01*
X141588619Y-22731215D01*
X142238820Y-22667176D01*
X177211181Y-22667176D01*
X177861382Y-22731216D01*
X178486597Y-22920872D01*
X179062798Y-23228859D01*
X179567842Y-23643338D01*
X179982322Y-24148383D01*
X180290308Y-24724584D01*
X180479964Y-25349798D01*
X180544004Y-26000000D01*
X180479964Y-26650202D01*
X180290308Y-27275416D01*
X179982322Y-27851617D01*
X179567842Y-28356662D01*
X179062798Y-28771141D01*
X178486597Y-29079128D01*
X177861382Y-29268784D01*
X177211181Y-29332824D01*
X142238820Y-29332824D01*
X141588619Y-29268785D01*
G37*
G36*
X153346822Y-24930422D02*
G01*
X153486522Y-25471759D01*
X153604394Y-26008731D01*
X153709169Y-26567531D01*
X152652688Y-26567531D01*
X152761829Y-26008731D01*
X152884066Y-25471759D01*
X153023766Y-24930422D01*
X153185294Y-24349794D01*
X153346822Y-24930422D01*
G37*
G36*
X141518097Y-193768785D02*
G01*
X140892882Y-193579128D01*
X140316681Y-193271142D01*
X140238144Y-193206688D01*
X142680929Y-193206688D01*
X143798529Y-193206688D01*
X144043004Y-191958119D01*
X145483660Y-191958119D01*
X145736866Y-193206688D01*
X146889391Y-193206688D01*
X147369610Y-193206688D01*
X148338779Y-193206688D01*
X148338779Y-189618144D01*
X148663290Y-190217205D01*
X148973249Y-190815295D01*
X149268657Y-191412416D01*
X149549512Y-192009536D01*
X149815815Y-192607627D01*
X150067566Y-193206688D01*
X150931960Y-193206688D01*
X151412179Y-193206688D01*
X152529779Y-193206688D01*
X152774254Y-191958119D01*
X154214910Y-191958119D01*
X154468116Y-193206688D01*
X155620641Y-193206688D01*
X156319141Y-193206688D01*
X159715597Y-193206688D01*
X159715597Y-192316100D01*
X157401816Y-192316100D01*
X157401816Y-190500000D01*
X160300591Y-190500000D01*
X160331969Y-191155662D01*
X160426103Y-191725649D01*
X160582993Y-192209961D01*
X160802638Y-192608597D01*
X161187298Y-193003928D01*
X161671882Y-193241127D01*
X162256391Y-193320194D01*
X162826833Y-193241127D01*
X163304141Y-193003928D01*
X163688316Y-192608597D01*
X163909872Y-192209961D01*
X164068126Y-191725649D01*
X164163078Y-191155662D01*
X164194729Y-190500000D01*
X164666216Y-190500000D01*
X164705507Y-191155935D01*
X164823379Y-191726741D01*
X165013283Y-192211325D01*
X165268672Y-192608597D01*
X165586272Y-192918556D01*
X165962807Y-193141203D01*
X166393912Y-193275446D01*
X166875222Y-193320194D01*
X167408920Y-193298366D01*
X167857488Y-193232881D01*
X168189760Y-193145569D01*
X173633210Y-193145569D01*
X174222569Y-193245978D01*
X174785735Y-193276538D01*
X175312884Y-193238338D01*
X175445815Y-193206688D01*
X178077416Y-193206688D01*
X181543722Y-193206688D01*
X182512891Y-193206688D01*
X185909347Y-193206688D01*
X186337179Y-193206688D01*
X187454779Y-193206688D01*
X187699254Y-191958119D01*
X189139910Y-191958119D01*
X189393116Y-193206688D01*
X190545641Y-193206688D01*
X190401576Y-192593928D01*
X190255764Y-191998981D01*
X190108206Y-191421845D01*
X189958901Y-190862522D01*
X189807851Y-190321009D01*
X189617673Y-189664256D01*
X189426950Y-189025510D01*
X189235681Y-188404773D01*
X189043866Y-187802044D01*
X190737729Y-187802044D01*
X190962316Y-188386552D01*
X191193694Y-188952628D01*
X191431863Y-189500272D01*
X191686524Y-190043065D01*
X191967380Y-190594589D01*
X192274429Y-191154844D01*
X192274429Y-193206688D01*
X193357104Y-193206688D01*
X193357104Y-191146113D01*
X193592847Y-190723738D01*
X193811129Y-190312278D01*
X194014130Y-189905184D01*
X194204035Y-189495906D01*
X194383026Y-189083355D01*
X194553285Y-188666437D01*
X194719179Y-188240789D01*
X194885072Y-187802044D01*
X193776204Y-187802044D01*
X193562288Y-188430694D01*
X193442233Y-188777761D01*
X193317813Y-189120462D01*
X193064607Y-189766575D01*
X192841960Y-190272987D01*
X192584388Y-189704365D01*
X192335547Y-189081172D01*
X192101986Y-188436151D01*
X191890254Y-187802044D01*
X190737729Y-187802044D01*
X189043866Y-187802044D01*
X187873879Y-187802044D01*
X187688885Y-188399862D01*
X187500618Y-189014596D01*
X187309076Y-189646247D01*
X187114260Y-190294816D01*
X186957447Y-190831788D01*
X186801332Y-191391461D01*
X186645916Y-191973835D01*
X186491198Y-192578911D01*
X186337179Y-193206688D01*
X185909347Y-193206688D01*
X185909347Y-192316100D01*
X183595566Y-192316100D01*
X183595566Y-187802044D01*
X182512891Y-187802044D01*
X182512891Y-193206688D01*
X181543722Y-193206688D01*
X181543722Y-192316100D01*
X179151360Y-192316100D01*
X179151360Y-190796863D01*
X181063504Y-190796863D01*
X181063504Y-189906275D01*
X179151360Y-189906275D01*
X179151360Y-188692631D01*
X181351635Y-188692631D01*
X181351635Y-187802044D01*
X178077416Y-187802044D01*
X178077416Y-193206688D01*
X175445815Y-193206688D01*
X175794194Y-193123741D01*
X176220934Y-192926196D01*
X176584372Y-192639156D01*
X176880143Y-192258255D01*
X177103882Y-191779128D01*
X177244673Y-191195226D01*
X177291604Y-190500000D01*
X177249039Y-189820054D01*
X177121344Y-189247066D01*
X176917251Y-188773395D01*
X176645491Y-188391403D01*
X176306064Y-188099998D01*
X175898969Y-187898087D01*
X175435122Y-187780216D01*
X174925435Y-187740925D01*
X174322979Y-187767119D01*
X173633210Y-187871894D01*
X173633210Y-193145569D01*
X168189760Y-193145569D01*
X168455579Y-193075719D01*
X168455579Y-190377762D01*
X167381635Y-190377762D01*
X167381635Y-192351025D01*
X167172085Y-192377219D01*
X166962535Y-192385950D01*
X166440843Y-192271352D01*
X166063216Y-191927559D01*
X165893442Y-191565213D01*
X165791577Y-191089359D01*
X165757622Y-190500000D01*
X165776176Y-190099454D01*
X165831838Y-189736016D01*
X166076313Y-189142291D01*
X166508510Y-188753750D01*
X167154622Y-188614050D01*
X167730885Y-188710094D01*
X168202372Y-188928375D01*
X168481772Y-188072712D01*
X168302782Y-187967937D01*
X168001554Y-187836969D01*
X167569357Y-187727828D01*
X167006191Y-187679806D01*
X166532521Y-187724554D01*
X166089410Y-187858797D01*
X165689955Y-188082535D01*
X165347254Y-188395769D01*
X165065671Y-188796315D01*
X164849572Y-189281991D01*
X164712055Y-189850613D01*
X164666216Y-190500000D01*
X164194729Y-190500000D01*
X164163624Y-189844338D01*
X164070308Y-189274351D01*
X163914783Y-188790039D01*
X163697047Y-188391403D01*
X163314813Y-187996072D01*
X162831684Y-187758873D01*
X162247660Y-187679806D01*
X161681099Y-187758873D01*
X161203790Y-187996072D01*
X160815735Y-188391403D01*
X160590360Y-188790039D01*
X160429377Y-189274351D01*
X160332788Y-189844338D01*
X160300591Y-190500000D01*
X157401816Y-190500000D01*
X157401816Y-187802044D01*
X156319141Y-187802044D01*
X156319141Y-193206688D01*
X155620641Y-193206688D01*
X155476576Y-192593928D01*
X155330764Y-191998981D01*
X155183206Y-191421845D01*
X155033901Y-190862522D01*
X154882851Y-190321009D01*
X154692673Y-189664256D01*
X154501950Y-189025510D01*
X154310681Y-188404773D01*
X154118866Y-187802044D01*
X152948879Y-187802044D01*
X152763885Y-188399862D01*
X152575618Y-189014596D01*
X152384076Y-189646247D01*
X152189260Y-190294816D01*
X152032447Y-190831788D01*
X151876332Y-191391461D01*
X151720916Y-191973835D01*
X151566198Y-192578911D01*
X151412179Y-193206688D01*
X150931960Y-193206688D01*
X150931960Y-187802044D01*
X149962791Y-187802044D01*
X149962791Y-191128650D01*
X149808903Y-190788131D01*
X149626638Y-190395225D01*
X149421454Y-189969577D01*
X149198807Y-189530831D01*
X148964154Y-189084446D01*
X148722954Y-188635878D01*
X148478479Y-188202590D01*
X148234004Y-187802044D01*
X147369610Y-187802044D01*
X147369610Y-193206688D01*
X146889391Y-193206688D01*
X146745326Y-192593928D01*
X146599514Y-191998981D01*
X146451956Y-191421845D01*
X146302651Y-190862522D01*
X146151601Y-190321009D01*
X145961423Y-189664256D01*
X145770700Y-189025510D01*
X145579431Y-188404773D01*
X145387616Y-187802044D01*
X144217629Y-187802044D01*
X144032635Y-188399862D01*
X143844368Y-189014596D01*
X143652826Y-189646247D01*
X143458010Y-190294816D01*
X143301197Y-190831788D01*
X143145082Y-191391461D01*
X142989666Y-191973835D01*
X142834948Y-192578911D01*
X142680929Y-193206688D01*
X140238144Y-193206688D01*
X139811636Y-192856662D01*
X139397157Y-192351618D01*
X139089171Y-191775417D01*
X138899514Y-191150202D01*
X138835474Y-190500000D01*
X138899514Y-189849798D01*
X139089171Y-189224583D01*
X139397157Y-188648382D01*
X139811636Y-188143338D01*
X140316681Y-187728858D01*
X140892882Y-187420872D01*
X141518097Y-187231215D01*
X142168298Y-187167176D01*
X195397703Y-187167176D01*
X196047904Y-187231216D01*
X196673119Y-187420872D01*
X197249320Y-187728859D01*
X197754364Y-188143338D01*
X198168844Y-188648383D01*
X198476829Y-189224584D01*
X198666486Y-189849798D01*
X198730526Y-190500000D01*
X198666486Y-191150202D01*
X198476829Y-191775416D01*
X198168844Y-192351617D01*
X197754364Y-192856662D01*
X197249320Y-193271141D01*
X196673119Y-193579128D01*
X196047904Y-193768784D01*
X195397703Y-193832824D01*
X142168298Y-193832824D01*
X141518097Y-193768785D01*
G37*
G36*
X153669207Y-189430422D02*
G01*
X153808907Y-189971759D01*
X153926779Y-190508731D01*
X154031554Y-191067531D01*
X152975072Y-191067531D01*
X153084213Y-190508731D01*
X153206451Y-189971759D01*
X153346151Y-189430422D01*
X153507679Y-188849794D01*
X153669207Y-189430422D01*
G37*
G36*
X188594207Y-189430422D02*
G01*
X188733907Y-189971759D01*
X188851779Y-190508731D01*
X188956554Y-191067531D01*
X187900072Y-191067531D01*
X188009213Y-190508731D01*
X188131451Y-189971759D01*
X188271151Y-189430422D01*
X188432679Y-188849794D01*
X188594207Y-189430422D01*
G37*
G36*
X144937957Y-189430422D02*
G01*
X145077657Y-189971759D01*
X145195529Y-190508731D01*
X145300304Y-191067531D01*
X144243822Y-191067531D01*
X144352963Y-190508731D01*
X144475201Y-189971759D01*
X144614901Y-189430422D01*
X144776429Y-188849794D01*
X144937957Y-189430422D01*
G37*
G36*
X175606472Y-188827966D02*
G01*
X175964454Y-189233969D01*
X176147810Y-189818962D01*
X176200197Y-190500000D01*
X176183826Y-190885266D01*
X176134713Y-191237791D01*
X175916432Y-191818419D01*
X175514794Y-192202594D01*
X174899241Y-192342294D01*
X174803197Y-192342294D01*
X174707154Y-192333563D01*
X174707154Y-188701362D01*
X174864316Y-188679534D01*
X175021479Y-188675169D01*
X175606472Y-188827966D01*
G37*
G36*
X162692954Y-188762481D02*
G01*
X162950526Y-189164119D01*
X163072763Y-189762209D01*
X163095683Y-190119099D01*
X163103322Y-190500000D01*
X163095683Y-190879809D01*
X163072763Y-191233425D01*
X162950526Y-191831516D01*
X162688588Y-192237519D01*
X162247660Y-192385950D01*
X161802366Y-192237519D01*
X161544794Y-191835881D01*
X161422557Y-191237791D01*
X161399637Y-190880901D01*
X161391997Y-190500000D01*
X161399637Y-190120191D01*
X161422557Y-189766575D01*
X161544794Y-189168484D01*
X161802366Y-188762481D01*
X162247660Y-188614050D01*
X162692954Y-188762481D01*
G37*
%LPC*%
D15*
X212725000Y-52705000D03*
M02*
