<?xml version="1.0" standalone="no"?>
 <!DOCTYPE svg PUBLIC "-//W3C//DTD SVG 1.1//EN" 
 "http://www.w3.org/Graphics/SVG/1.1/DTD/svg11.dtd"> 
<svg
  xmlns:svg="http://www.w3.org/2000/svg"
  xmlns="http://www.w3.org/2000/svg"
  xmlns:xlink="http://www.w3.org/1999/xlink"
  version="1.1"
  width="86.360000cm" height="55.880000cm" viewBox="0 0 863600000 558800000">
<title>SVG Picture created as panel_dims-pot_and_switch_sizes.svg date 2022/07/01 09:44:10 </title>
  <desc>Picture generated by PCBNEW </desc>
<g style="fill:#000000; fill-opacity:1.000000;stroke:#000000; stroke-opacity:1.000000;
stroke-linecap:round; stroke-linejoin:round;"
 transform="translate(0 0) scale(1 1)">
</g>
<g style="fill:#000000; fill-opacity:0.0; 
stroke:#000000; stroke-width:0.000000; stroke-opacity:1; 
stroke-linecap:round; stroke-linejoin:round;">
</g>
<g style="fill:#000000; fill-opacity:0.0; 
stroke:#000000; stroke-width:150000.000000; stroke-opacity:1; 
stroke-linecap:round; stroke-linejoin:round;">
<circle cx="226060000.000000" cy="147320000.000000" r="6096000.000000" /> 
<circle cx="270510000.000000" cy="121920000.000000" r="6096000.000000" /> 
<circle cx="511810000.000000" cy="229870000.000000" r="11938000.000000" /> 
<circle cx="600710000.000000" cy="287020000.000000" r="6096000.000000" /> 
<circle cx="511810000.000000" cy="96520000.000000" r="11938000.000000" /> 
<circle cx="657860000.000000" cy="96520000.000000" r="11938000.000000" /> 
<circle cx="375285000.000000" cy="236220000.000000" r="11938000.000000" /> 
<circle cx="727710000.000000" cy="96520000.000000" r="6096000.000000" /> 
<circle cx="702310000.000000" cy="140970000.000000" r="11938000.000000" /> 
<circle cx="200660000.000000" cy="287020000.000000" r="6096000.000000" /> 
<circle cx="270510000.000000" cy="172720000.000000" r="6096000.000000" /> 
<circle cx="727710000.000000" cy="287020000.000000" r="11938000.000000" /> 
<circle cx="251460000.000000" cy="96520000.000000" r="11938000.000000" /> 
<circle cx="403860000.000000" cy="147320000.000000" r="11938000.000000" /> 
<circle cx="645160000.000000" cy="287020000.000000" r="6096000.000000" /> 
<circle cx="251460000.000000" cy="147320000.000000" r="11938000.000000" /> 
<circle cx="511810000.000000" cy="140970000.000000" r="11938000.000000" /> 
<circle cx="568960000.000000" cy="96520000.000000" r="11938000.000000" /> 
<circle cx="638810000.000000" cy="366395000.000000" r="17462500.000000" /> 
<circle cx="702310000.000000" cy="287020000.000000" r="6096000.000000" /> 
<circle cx="613410000.000000" cy="96520000.000000" r="11938000.000000" /> 
<circle cx="302256484.000000" cy="261612256.000000" r="11938000.000000" /> 
<circle cx="353060000.000000" cy="121920000.000000" r="11366500.000000" /> 
<circle cx="613410000.000000" cy="185420000.000000" r="11938000.000000" /> 
<circle cx="200660000.000000" cy="261620000.000000" r="11938000.000000" /> 
<circle cx="657860000.000000" cy="236220000.000000" r="11938000.000000" /> 
<circle cx="454660000.000000" cy="121920000.000000" r="11366500.000000" /> 
<circle cx="175241774.000000" cy="236212418.000000" r="11938000.000000" /> 
<circle cx="727710000.000000" cy="185420000.000000" r="6096000.000000" /> 
<circle cx="568960000.000000" cy="236220000.000000" r="11938000.000000" /> 
<circle cx="454647844.000000" cy="172714970.000000" r="11938000.000000" /> 
<circle cx="276860000.000000" cy="236220000.000000" r="11938000.000000" /> 
<circle cx="149860000.000000" cy="287020000.000000" r="6096000.000000" /> 
<circle cx="683260000.000000" cy="388620000.000000" r="6096000.000000" /> 
<circle cx="200660000.000000" cy="96520000.000000" r="11366500.000000" /> 
<circle cx="727710000.000000" cy="236220000.000000" r="6096000.000000" /> 
<circle cx="613410000.000000" cy="140970000.000000" r="11938000.000000" /> 
<circle cx="378460000.000000" cy="172720000.000000" r="6096000.000000" /> 
<circle cx="727710000.000000" cy="140970000.000000" r="6096000.000000" /> 
<circle cx="149860000.000000" cy="261620000.000000" r="11938000.000000" /> 
<circle cx="461010000.000000" cy="261620000.000000" r="11938000.000000" /> 
<circle cx="251460000.000000" cy="261620000.000000" r="11938000.000000" /> 
<circle cx="702310000.000000" cy="185420000.000000" r="11938000.000000" /> 
<circle cx="619760000.000000" cy="287020000.000000" r="6096000.000000" /> 
<circle cx="295910000.000000" cy="172720000.000000" r="11938000.000000" /> 
<circle cx="403860000.000000" cy="96520000.000000" r="17462500.000000" /> 
<circle cx="353060000.000000" cy="172720000.000000" r="11938000.000000" /> 
<circle cx="727710000.000000" cy="344170000.000000" r="11938000.000000" /> 
<circle cx="226060000.000000" cy="96520000.000000" r="6096000.000000" /> 
<circle cx="657860000.000000" cy="185420000.000000" r="11938000.000000" /> 
<circle cx="156210000.000000" cy="172720000.000000" r="17462500.000000" /> 
<circle cx="175260000.000000" cy="287020000.000000" r="6096000.000000" /> 
<circle cx="562610000.000000" cy="287020000.000000" r="6096000.000000" /> 
<circle cx="295910000.000000" cy="121920000.000000" r="11938000.000000" /> 
<circle cx="200660000.000000" cy="198120000.000000" r="11366500.000000" /> 
<circle cx="657860000.000000" cy="140970000.000000" r="11938000.000000" /> 
<circle cx="727710000.000000" cy="388620000.000000" r="11366500.000000" /> 
<circle cx="511810000.000000" cy="281940000.000000" r="6096000.000000" /> 
<circle cx="511810000.000000" cy="185420000.000000" r="11938000.000000" /> 
<circle cx="568960000.000000" cy="140970000.000000" r="11938000.000000" /> 
<circle cx="702310000.000000" cy="236220000.000000" r="11938000.000000" /> 
<circle cx="346710000.000000" cy="261620000.000000" r="11938000.000000" /> 
<circle cx="702310000.000000" cy="96520000.000000" r="11938000.000000" /> 
<circle cx="403860000.000000" cy="261620000.000000" r="11938000.000000" /> 
<circle cx="613410000.000000" cy="236220000.000000" r="11938000.000000" /> 
<circle cx="251460000.000000" cy="198120000.000000" r="11938000.000000" /> 
<circle cx="432435000.000000" cy="236220000.000000" r="11938000.000000" /> 
<circle cx="568960000.000000" cy="185420000.000000" r="11938000.000000" /> 
<circle cx="156210000.000000" cy="121920000.000000" r="17462500.000000" /> 
<circle cx="226060000.000000" cy="198120000.000000" r="6096000.000000" /> 
<circle cx="581660000.000000" cy="287020000.000000" r="6096000.000000" /> 
<circle cx="200660000.000000" cy="147320000.000000" r="11366500.000000" /> 
<circle cx="429260000.000000" cy="172720000.000000" r="6096000.000000" /> 
<g >
</g>
<g >
</g>
<g >
</g>
<g >
</g>
<g >
</g>
<g >
</g>
<g >
</g>
<g >
</g>
<g >
</g>
<g >
</g>
<g >
</g>
<g >
</g>
<g >
</g>
<g >
</g>
<g >
</g>
<g >
</g>
<g >
</g>
<g >
</g>
<g >
</g>
<g >
</g>
<g >
</g>
<g >
</g>
<g >
</g>
<g >
</g>
<g >
</g>
<g >
</g>
<g >
</g>
<g >
</g>
<g >
</g>
<g >
</g>
<g >
</g>
<g >
</g>
<g >
</g>
<g >
</g>
<g >
</g>
<g >
</g>
<g >
</g>
<g >
</g>
<g >
</g>
<g >
</g>
<g >
</g>
<g >
</g>
<g >
</g>
<g >
</g>
<g >
</g>
<g >
</g>
<g >
</g>
<g >
</g>
<g >
</g>
<g >
</g>
<g >
</g>
<g >
</g>
<g >
</g>
<g >
</g>
<g >
</g>
<g >
</g>
<g >
</g>
<g >
</g>
<g >
</g>
<g >
</g>
<g >
</g>
<g >
</g>
<g >
</g>
<g >
</g>
<g >
</g>
<g >
</g>
<g >
</g>
<g >
</g>
<g >
</g>
<g >
</g>
<g >
</g>
<g >
</g>
<g >
</g>
<g >
</g>
<g >
</g>
<g >
</g>
<g >
</g>
<g >
</g>
<g >
</g>
<g >
</g>
<g >
</g>
<g >
</g>
</g> 
</svg>
