<?xml version="1.0" standalone="no"?>
 <!DOCTYPE svg PUBLIC "-//W3C//DTD SVG 1.1//EN" 
 "http://www.w3.org/Graphics/SVG/1.1/DTD/svg11.dtd"> 
<svg
  xmlns:svg="http://www.w3.org/2000/svg"
  xmlns="http://www.w3.org/2000/svg"
  xmlns:xlink="http://www.w3.org/1999/xlink"
  version="1.1"
  width="86.360000cm" height="55.880000cm" viewBox="0 0 863600000 558800000">
<title>SVG Picture created as panel_dims-submodule_outlines.svg date 2022/07/01 09:44:10 </title>
  <desc>Picture generated by PCBNEW </desc>
<g style="fill:#000000; fill-opacity:1.000000;stroke:#000000; stroke-opacity:1.000000;
stroke-linecap:round; stroke-linejoin:round;"
 transform="translate(0 0) scale(1 1)">
</g>
<g style="fill:#000000; fill-opacity:0.0; 
stroke:#000000; stroke-width:0.000000; stroke-opacity:1; 
stroke-linecap:round; stroke-linejoin:round;">
</g>
<g style="fill:#000000; fill-opacity:0.0; 
stroke:#000000; stroke-width:150000.000000; stroke-opacity:1; 
stroke-linecap:round; stroke-linejoin:round;">
<path d="M236220000 223520000
L236220000 297180000
" />
<path d="M317500000 223520000
L276860000 223520000
" />
<path d="M130810000 66040000
L130810000 312420000
" />
<path d="M331470000 297180000
L476250000 297180000
" />
<path d="M753110000 312420000
L753110000 210820000
" />
<path d="M689610000 274320000
L689610000 303530000
" />
<path d="M480060000 312420000
L480060000 66040000
" />
<path d="M236220000 297180000
L317500000 297180000
" />
<path d="M609600000 318770000
L609600000 414020000
" />
<path d="M331470000 222250000
L331470000 297180000
" />
<path d="M527050000 125730000
L511810000 125730000
" />
<path d="M689610000 303530000
L741680000 303530000
" />
<path d="M321310000 66040000
L130810000 66040000
" />
<path d="M543560000 210820000
L543560000 312420000
" />
<path d="M486410000 312420000
L537210000 312420000
" />
<path d="M736600000 157480000
L736600000 127000000
" />
<path d="M276860000 223520000
L236220000 223520000
" />
<path d="M215900000 297180000
L215900000 223520000
" />
<path d="M166370000.000000 347980000.000000 A6350000.000000 6350000.000000 0.0 0 0 166370000.000000 360680000.000000" />
<path d="M130810000 312420000
L321310000 312420000
" />
<path d="M736600000 201930000
L736600000 171450000
" />
<path d="M736600000 82550000
L568960000 82550000
" />
<path d="M568960000 82550000
L553720000 82550000
" />
<path d="M134620000 223520000
L134620000 297180000
" />
<path d="M553720000 171450000
L553720000 201930000
" />
<path d="M753110000 66040000
L543560000 66040000
" />
<path d="M543560000 312420000
L753110000 312420000
" />
<path d="M496570000 247650000
L527050000 247650000
" />
<path d="M134620000 297180000
L215900000 297180000
" />
<path d="M753110000 414020000
L753110000 318770000
" />
<path d="M553720000 157480000
L736600000 157480000
" />
<path d="M553720000 113030000
L736600000 113030000
" />
<path d="M175260000 223520000
L134620000 223520000
" />
<path d="M553720000 223520000
L553720000 252730000
" />
<path d="M655320000 295910000
L655320000 279400000
" />
<path d="M551180000 279400000
L551180000 295910000
" />
<path d="M327660000 66040000
L327660000 312420000
" />
<path d="M736600000 252730000
L736600000 223520000
" />
<path d="M537210000 312420000
L537210000 66040000
" />
<path d="M476250000 297180000
L476250000 222250000
" />
<path d="M553720000 82550000
L553720000 113030000
" />
<path d="M496570000 125730000
L496570000 247650000
" />
<path d="M736600000 223520000
L553720000 223520000
" />
<path d="M562610000 279400000
L551180000 279400000
" />
<path d="M655320000 279400000
L562610000 279400000
" />
<path d="M140335000 331470000
L591185000 331470000
" />
<path d="M591185000 331470000
L591185000 398145000
" />
<path d="M591185000 398145000
L140335000 398145000
" />
<path d="M140335000 398145000
L140335000 331470000
" />
<path d="M753110000 318770000
L609600000 318770000
" />
<path d="M486410000 66040000
L486410000 312420000
" />
<path d="M480060000 66040000
L327660000 66040000
" />
<path d="M321310000 312420000
L321310000 66040000
" />
<path d="M543560000 66040000
L543560000 204470000
" />
<path d="M565150000 347980000
L166370000 347980000
" />
<path d="M215900000 223520000
L175260000 223520000
" />
<path d="M537210000 66040000
L486410000 66040000
" />
<path d="M736600000 171450000
L553720000 171450000
" />
<path d="M551180000 295910000
L655320000 295910000
" />
<path d="M565150000.000000 360680000.000000 A6350000.000000 6350000.000000 0.0 0 0 565150000.000000 347980000.000000" />
<path d="M753110000 210820000
L543560000 210820000
" />
<path d="M736600000 113030000
L736600000 82550000
" />
<path d="M553720000 201930000
L736600000 201930000
" />
<path d="M609600000 414020000
L753110000 414020000
" />
<path d="M327660000 312420000
L480060000 312420000
" />
<path d="M741680000 274320000
L689610000 274320000
" />
<path d="M476250000 222250000
L402590000 222250000
" />
<path d="M553720000 127000000
L553720000 157480000
" />
<path d="M402590000 222250000
L331470000 222250000
" />
<path d="M736600000 127000000
L553720000 127000000
" />
<path d="M543560000 204470000
L753110000 204470000
" />
<path d="M553720000 252730000
L736600000 252730000
" />
<path d="M166370000 360680000
L565150000 360680000
" />
<path d="M317500000 297180000
L317500000 223520000
" />
<path d="M741680000 303530000
L741680000 274320000
" />
<path d="M511810000 125730000
L496570000 125730000
" />
<path d="M527050000 247650000
L527050000 125730000
" />
<path d="M753110000 204470000
L753110000 66040000
" />
<g >
</g>
<g >
</g>
<g >
</g>
<g >
</g>
<g >
</g>
<g >
</g>
<g >
</g>
<g >
</g>
<g >
</g>
<g >
</g>
<g >
</g>
<g >
</g>
<g >
</g>
<g >
</g>
<g >
</g>
<g >
</g>
<g >
</g>
<g >
</g>
<g >
</g>
<g >
</g>
<g >
</g>
<g >
</g>
<g >
</g>
<g >
</g>
<g >
</g>
<g >
</g>
<g >
</g>
<g >
</g>
<g >
</g>
<g >
</g>
<g >
</g>
<g >
</g>
<g >
</g>
<g >
</g>
<g >
</g>
<g >
</g>
<g >
</g>
<g >
</g>
<g >
</g>
<g >
</g>
<g >
</g>
<g >
</g>
<g >
</g>
<g >
</g>
<g >
</g>
<g >
</g>
<g >
</g>
<g >
</g>
<g >
</g>
<g >
</g>
<g >
</g>
<g >
</g>
<g >
</g>
<g >
</g>
<g >
</g>
<g >
</g>
<g >
</g>
<g >
</g>
<g >
</g>
<g >
</g>
<g >
</g>
<g >
</g>
<g >
</g>
<g >
</g>
<g >
</g>
<g >
</g>
<g >
</g>
<g >
</g>
<g >
</g>
<g >
</g>
<g >
</g>
<g >
</g>
<g >
</g>
<g >
</g>
<g >
</g>
<g >
</g>
<g >
</g>
<g >
</g>
<g >
</g>
<g >
</g>
<g >
</g>
<g >
</g>
</g> 
</svg>
