<?xml version="1.0" standalone="no"?>
 <!DOCTYPE svg PUBLIC "-//W3C//DTD SVG 1.1//EN" 
 "http://www.w3.org/Graphics/SVG/1.1/DTD/svg11.dtd"> 
<svg
  xmlns:svg="http://www.w3.org/2000/svg"
  xmlns="http://www.w3.org/2000/svg"
  xmlns:xlink="http://www.w3.org/1999/xlink"
  version="1.1"
  width="86.360000cm" height="55.880000cm" viewBox="0 0 863600000 558800000">
<title>SVG Picture created as panel_dims-drill_holes.svg date 2022/07/01 09:44:10 </title>
  <desc>Picture generated by PCBNEW </desc>
<g style="fill:#000000; fill-opacity:1.000000;stroke:#000000; stroke-opacity:1.000000;
stroke-linecap:round; stroke-linejoin:round;"
 transform="translate(0 0) scale(1 1)">
</g>
<g style="fill:#000000; fill-opacity:0.0; 
stroke:#000000; stroke-width:0.000000; stroke-opacity:1; 
stroke-linecap:round; stroke-linejoin:round;">
</g>
<g style="fill:#000000; fill-opacity:0.0; 
stroke:#000000; stroke-width:150000.000000; stroke-opacity:1; 
stroke-linecap:round; stroke-linejoin:round;">
<circle cx="137160000.000000" cy="415290000.000000" r="1905000.000000" /> 
<circle cx="270510000.000000" cy="121920000.000000" r="3683000.000000" /> 
<path d="M613410000 138430000
L613410000 143510000
" />
<path d="M725170000 185420000
L730250000 185420000
" />
<circle cx="568960000.000000" cy="185420000.000000" r="3683000.000000" /> 
<circle cx="727710000.000000" cy="344170000.000000" r="3683000.000000" /> 
<path d="M251460000 144780000
L251460000 149860000
" />
<path d="M172720000 287020000
L177800000 287020000
" />
<circle cx="353060000.000000" cy="172720000.000000" r="3683000.000000" /> 
<path d="M657860000 233680000
L657860000 238760000
" />
<path d="M251460000 93980000
L251460000 99060000
" />
<path d="M617220000 287020000
L622300000 287020000
" />
<path d="M426720000 172720000
L431800000 172720000
" />
<circle cx="727710000.000000" cy="96520000.000000" r="3683000.000000" /> 
<path d="M223520000 96520000
L228600000 96520000
" />
<path d="M511810000 138430000
L511810000 143510000
" />
<path d="M613410000 233680000
L613410000 238760000
" />
<path d="M511810000 227330000
L511810000 232410000
" />
<circle cx="200660000.000000" cy="261620000.000000" r="3683000.000000" /> 
<path d="M746760000 412750000
L746760000 417830000
" />
<circle cx="727710000.000000" cy="287020000.000000" r="3683000.000000" /> 
<path d="M702287067 233650789
L702287067 238730789
" />
<path d="M156210000 119380000
L156210000 124460000
" />
<path d="M134620000 415290000
L139700000 415290000
" />
<path d="M372745000 236220000
L377825000 236220000
" />
<path d="M226060000 93980000
L226060000 99060000
" />
<circle cx="137160000.000000" cy="69850000.000000" r="1905000.000000" /> 
<circle cx="251460000.000000" cy="96520000.000000" r="3683000.000000" /> 
<path d="M645160000 284480000
L645160000 289560000
" />
<path d="M725170000 287020000
L730250000 287020000
" />
<circle cx="403860000.000000" cy="96520000.000000" r="3683000.000000" /> 
<path d="M452120000 121920000
L457200000 121920000
" />
<path d="M226060000 195580000
L226060000 200660000
" />
<path d="M699770000 96520000
L704850000 96520000
" />
<circle cx="727710000.000000" cy="236220000.000000" r="3683000.000000" /> 
<path d="M198120000 147320000
L203200000 147320000
" />
<circle cx="295893449.000000" cy="172685907.000000" r="3683000.000000" /> 
<path d="M350424026 121908591
L355504026 121908591
" />
<circle cx="302260000.000000" cy="261620000.000000" r="3683000.000000" /> 
<path d="M441960000 412750000
L441960000 417830000
" />
<path d="M270510000 170180000
L270510000 175260000
" />
<circle cx="613410000.000000" cy="185420000.000000" r="3683000.000000" /> 
<path d="M511810000 93980000
L511810000 99060000
" />
<path d="M642620000 287020000
L647700000 287020000
" />
<path d="M509270000 281940000
L514350000 281940000
" />
<path d="M725170000 236220000
L730250000 236220000
" />
<path d="M560040586 286990800
L565120586 286990800
" />
<path d="M610870000 140970000
L615950000 140970000
" />
<path d="M638810000 363855000
L638810000 368935000
" />
<circle cx="702307753.000000" cy="286989230.000000" r="3683000.000000" /> 
<path d="M200660000 144780000
L200660000 149860000
" />
<path d="M744220000 415290000
L749300000 415290000
" />
<path d="M725170000 140970000
L730250000 140970000
" />
<path d="M267970000 172720000
L273050000 172720000
" />
<path d="M403860000 93980000
L403860000 99060000
" />
<circle cx="149835921.000000" cy="261603046.000000" r="3683000.000000" /> 
<path d="M378399879 170128766
L378399879 175208766
" />
<path d="M725170000 388620000
L730250000 388620000
" />
<circle cx="403860000.000000" cy="147320000.000000" r="3683000.000000" /> 
<path d="M147320000 261620000
L152400000 261620000
" />
<circle cx="511810000.000000" cy="96520000.000000" r="3683000.000000" /> 
<circle cx="702310000.000000" cy="185420000.000000" r="3683000.000000" /> 
<path d="M566420000 185420000
L571500000 185420000
" />
<path d="M680720000 344170000
L685800000 344170000
" />
<path d="M566420000 96520000
L571500000 96520000
" />
<circle cx="200645051.000000" cy="286999508.000000" r="3683000.000000" /> 
<path d="M149860000 259080000
L149860000 264160000
" />
<path d="M198120000 261620000
L203200000 261620000
" />
<path d="M302260000 259080000
L302260000 264160000
" />
<path d="M509270000 96520000
L514350000 96520000
" />
<path d="M401320000 147320000
L406400000 147320000
" />
<circle cx="352964026.000000" cy="121908591.000000" r="4572000.000000" /> 
<circle cx="226060000.000000" cy="96520000.000000" r="3175000.000000" /> 
<path d="M727710000 93980000
L727710000 99060000
" />
<circle cx="156210000.000000" cy="121920000.000000" r="3683000.000000" /> 
<circle cx="613410000.000000" cy="96520000.000000" r="3683000.000000" /> 
<path d="M509270000 185420000
L514350000 185420000
" />
<path d="M610870000 185420000
L615950000 185420000
" />
<path d="M251460000 259080000
L251460000 264160000
" />
<path d="M137160000 412750000
L137160000 417830000
" />
<circle cx="454660000.000000" cy="121920000.000000" r="4572000.000000" /> 
<path d="M153670000 172720000
L158750000 172720000
" />
<path d="M432435000 233680000
L432435000 238760000
" />
<path d="M657860000 182880000
L657860000 187960000
" />
<path d="M655320000 236220000
L660400000 236220000
" />
<path d="M746760000 67310000
L746760000 72390000
" />
<path d="M134620000 69850000
L139700000 69850000
" />
<path d="M581660000 284480000
L581660000 289560000
" />
<path d="M200660000 93980000
L200660000 99060000
" />
<circle cx="657860000.000000" cy="96520000.000000" r="3683000.000000" /> 
<path d="M346690327 259073189
L346690327 264153189
" />
<path d="M699770000 185420000
L704850000 185420000
" />
<path d="M401320000 261620000
L406400000 261620000
" />
<circle cx="429260000.000000" cy="172720000.000000" r="3683000.000000" /> 
<path d="M295910000 119380000
L295910000 124460000
" />
<circle cx="200660000.000000" cy="96520000.000000" r="4572000.000000" /> 
<circle cx="613410000.000000" cy="140970000.000000" r="3683000.000000" /> 
<path d="M223520000 147320000
L228600000 147320000
" />
<circle cx="683260000.000000" cy="344170000.000000" r="4064000.000000" /> 
<circle cx="175260000.000000" cy="287020000.000000" r="3683000.000000" /> 
<path d="M566420000 236220000
L571500000 236220000
" />
<path d="M454660000 119380000
L454660000 124460000
" />
<path d="M429260000 170180000
L429260000 175260000
" />
<circle cx="251460000.000000" cy="198120000.000000" r="3683000.000000" /> 
<path d="M172699280 236200312
L177779280 236200312
" />
<circle cx="378399879.000000" cy="172668766.000000" r="3683000.000000" /> 
<circle cx="657860000.000000" cy="236220000.000000" r="3683000.000000" /> 
<path d="M613410000 93980000
L613410000 99060000
" />
<path d="M248920000 96520000
L254000000 96520000
" />
<circle cx="727710000.000000" cy="388620000.000000" r="4572000.000000" /> 
<path d="M702310000 182880000
L702310000 187960000
" />
<path d="M293370000 121920000
L298450000 121920000
" />
<path d="M744220000 69850000
L749300000 69850000
" />
<path d="M657860000 93980000
L657860000 99060000
" />
<path d="M683260000 341630000
L683260000 346710000
" />
<circle cx="702310000.000000" cy="140970000.000000" r="3683000.000000" /> 
<circle cx="746760000.000000" cy="415290000.000000" r="1905000.000000" /> 
<path d="M147295921 286972467
L152375921 286972467
" />
<path d="M680720000 388620000
L685800000 388620000
" />
<path d="M579120000 287020000
L584200000 287020000
" />
<circle cx="251460000.000000" cy="261620000.000000" r="3683000.000000" /> 
<circle cx="511810000.000000" cy="140970000.000000" r="3683000.000000" /> 
<circle cx="702310000.000000" cy="96520000.000000" r="3683000.000000" /> 
<path d="M655320000 185420000
L660400000 185420000
" />
<circle cx="346690327.000000" cy="261613189.000000" r="3683000.000000" /> 
<path d="M200660000 259080000
L200660000 264160000
" />
<circle cx="562580586.000000" cy="286990800.000000" r="3683000.000000" /> 
<circle cx="568960000.000000" cy="96520000.000000" r="3683000.000000" /> 
<path d="M610870000 96520000
L615950000 96520000
" />
<path d="M562580586 284450800
L562580586 289530800
" />
<circle cx="613410000.000000" cy="236220000.000000" r="3683000.000000" /> 
<circle cx="746760000.000000" cy="69850000.000000" r="1905000.000000" /> 
<path d="M248920000 198120000
L254000000 198120000
" />
<path d="M727710000 138430000
L727710000 143510000
" />
<path d="M293353449 172685907
L298433449 172685907
" />
<circle cx="149835921.000000" cy="286972467.000000" r="3683000.000000" /> 
<path d="M657860000 138430000
L657860000 143510000
" />
<path d="M610870000 236220000
L615950000 236220000
" />
<path d="M375285000 233680000
L375285000 238760000
" />
<circle cx="403860000.000000" cy="261620000.000000" r="3683000.000000" /> 
<circle cx="200660000.000000" cy="198120000.000000" r="4572000.000000" /> 
<circle cx="375285000.000000" cy="236220000.000000" r="3683000.000000" /> 
<path d="M452120000 172720000
L457200000 172720000
" />
<path d="M699767753 286989230
L704847753 286989230
" />
<path d="M566420000 140970000
L571500000 140970000
" />
<path d="M509270000 140970000
L514350000 140970000
" />
<circle cx="200660000.000000" cy="147320000.000000" r="4572000.000000" /> 
<path d="M251460000 195580000
L251460000 200660000
" />
<circle cx="657860000.000000" cy="185420000.000000" r="3683000.000000" /> 
<path d="M375859879 172668766
L380939879 172668766
" />
<path d="M198105051 286999508
L203185051 286999508
" />
<circle cx="702287067.000000" cy="236190789.000000" r="3683000.000000" /> 
<path d="M600710000 284480000
L600710000 289560000
" />
<path d="M511810000 279400000
L511810000 284480000
" />
<circle cx="432435000.000000" cy="236220000.000000" r="3683000.000000" /> 
<path d="M568960000 233680000
L568960000 238760000
" />
<path d="M509270000 229870000
L514350000 229870000
" />
<path d="M352964026 119368591
L352964026 124448591
" />
<circle cx="175239280.000000" cy="236200312.000000" r="3683000.000000" /> 
<circle cx="657860000.000000" cy="140970000.000000" r="3683000.000000" /> 
<circle cx="226060000.000000" cy="147320000.000000" r="3683000.000000" /> 
<circle cx="619760000.000000" cy="287020000.000000" r="3683000.000000" /> 
<path d="M270510000 119380000
L270510000 124460000
" />
<path d="M454660000 170180000
L454660000 175260000
" />
<circle cx="226060000.000000" cy="198120000.000000" r="3683000.000000" /> 
<circle cx="454660000.000000" cy="172720000.000000" r="3683000.000000" /> 
<path d="M156210000 170180000
L156210000 175260000
" />
<path d="M568960000 182880000
L568960000 187960000
" />
<path d="M441960000 67310000
L441960000 72390000
" />
<circle cx="441960000.000000" cy="69850000.000000" r="1905000.000000" /> 
<circle cx="581660000.000000" cy="287020000.000000" r="3683000.000000" /> 
<circle cx="683260000.000000" cy="388620000.000000" r="3683000.000000" /> 
<path d="M725170000 344170000
L730250000 344170000
" />
<path d="M439420000 415290000
L444500000 415290000
" />
<circle cx="295910000.000000" cy="121920000.000000" r="3683000.000000" /> 
<path d="M299720000 261620000
L304800000 261620000
" />
<path d="M702310000 138430000
L702310000 143510000
" />
<path d="M198120000 96520000
L203200000 96520000
" />
<path d="M401320000 96520000
L406400000 96520000
" />
<path d="M267970000 121920000
L273050000 121920000
" />
<path d="M683260000 386080000
L683260000 391160000
" />
<path d="M461010000 259080000
L461010000 264160000
" />
<path d="M429895000 236220000
L434975000 236220000
" />
<path d="M353060000 170180000
L353060000 175260000
" />
<path d="M727710000 233680000
L727710000 238760000
" />
<circle cx="511810000.000000" cy="185420000.000000" r="3683000.000000" /> 
<path d="M350520000 172720000
L355600000 172720000
" />
<path d="M153670000 121920000
L158750000 121920000
" />
<path d="M274320000 236220000
L279400000 236220000
" />
<path d="M727710000 182880000
L727710000 187960000
" />
<path d="M619760000 284480000
L619760000 289560000
" />
<path d="M175260000 284480000
L175260000 289560000
" />
<path d="M226060000 144780000
L226060000 149860000
" />
<path d="M295893449 170145907
L295893449 175225907
" />
<path d="M248920000 261620000
L254000000 261620000
" />
<circle cx="727710000.000000" cy="140970000.000000" r="3683000.000000" /> 
<circle cx="441960000.000000" cy="415290000.000000" r="1905000.000000" /> 
<path d="M725170000 96520000
L730250000 96520000
" />
<path d="M699770000 140970000
L704850000 140970000
" />
<path d="M613410000 182880000
L613410000 187960000
" />
<circle cx="511810000.000000" cy="281940000.000000" r="3683000.000000" /> 
<path d="M153670000 172720000
L158750000 172720000
" />
<circle cx="638810000.000000" cy="366395000.000000" r="3683000.000000" /> 
<circle cx="727710000.000000" cy="185420000.000000" r="3683000.000000" /> 
<path d="M403860000 259080000
L403860000 264160000
" />
<path d="M511810000 182880000
L511810000 187960000
" />
<path d="M403860000 144780000
L403860000 149860000
" />
<path d="M175239280 233660312
L175239280 238740312
" />
<path d="M198120000 198120000
L203200000 198120000
" />
<circle cx="276860000.000000" cy="236220000.000000" r="3683000.000000" /> 
<path d="M727710000 386080000
L727710000 391160000
" />
<path d="M276860000 233680000
L276860000 238760000
" />
<path d="M702310000 93980000
L702310000 99060000
" />
<path d="M149835921 284432467
L149835921 289512467
" />
<path d="M702307753 284449230
L702307753 289529230
" />
<path d="M200645051 284459508
L200645051 289539508
" />
<path d="M568960000 138430000
L568960000 143510000
" />
<circle cx="568960000.000000" cy="236220000.000000" r="3683000.000000" /> 
<path d="M636270000 366395000
L641350000 366395000
" />
<circle cx="461010000.000000" cy="261620000.000000" r="3683000.000000" /> 
<path d="M727710000 284480000
L727710000 289560000
" />
<path d="M156210000 170180000
L156210000 175260000
" />
<path d="M598170000 287020000
L603250000 287020000
" />
<path d="M458470000 261620000
L463550000 261620000
" />
<path d="M223520000 198120000
L228600000 198120000
" />
<path d="M699747067 236190789
L704827067 236190789
" />
<path d="M248920000 147320000
L254000000 147320000
" />
<path d="M137160000 67310000
L137160000 72390000
" />
<circle cx="568960000.000000" cy="140970000.000000" r="3683000.000000" /> 
<path d="M568960000 93980000
L568960000 99060000
" />
<circle cx="511810000.000000" cy="229870000.000000" r="3683000.000000" /> 
<circle cx="645160000.000000" cy="287020000.000000" r="3683000.000000" /> 
<path d="M727710000 341630000
L727710000 346710000
" />
<circle cx="251460000.000000" cy="147320000.000000" r="3683000.000000" /> 
<path d="M655320000 140970000
L660400000 140970000
" />
<path d="M655320000 96520000
L660400000 96520000
" />
<path d="M200660000 195580000
L200660000 200660000
" />
<circle cx="156210000.000000" cy="172720000.000000" r="3683000.000000" /> 
<path d="M439420000 69850000
L444500000 69850000
" />
<circle cx="270510000.000000" cy="172720000.000000" r="3683000.000000" /> 
<circle cx="600710000.000000" cy="287020000.000000" r="3683000.000000" /> 
<path d="M344150327 261613189
L349230327 261613189
" />
<g >
</g>
<g >
</g>
<g >
</g>
<g >
</g>
<g >
</g>
<g >
</g>
<g >
</g>
<g >
</g>
<g >
</g>
<g >
</g>
<g >
</g>
<g >
</g>
<g >
</g>
<g >
</g>
<g >
</g>
<g >
</g>
<g >
</g>
<g >
</g>
<g >
</g>
<g >
</g>
<g >
</g>
<g >
</g>
<g >
</g>
<g >
</g>
<g >
</g>
<g >
</g>
<g >
</g>
<g >
</g>
<g >
</g>
<g >
</g>
<g >
</g>
<g >
</g>
<g >
</g>
<g >
</g>
<g >
</g>
<g >
</g>
<g >
</g>
<g >
</g>
<g >
</g>
<g >
</g>
<g >
</g>
<g >
</g>
<g >
</g>
<g >
</g>
<g >
</g>
<g >
</g>
<g >
</g>
<g >
</g>
<g >
</g>
<g >
</g>
<g >
</g>
<g >
</g>
<g >
</g>
<g >
</g>
<g >
</g>
<g >
</g>
<g >
</g>
<g >
</g>
<g >
</g>
<g >
</g>
<g >
</g>
<g >
</g>
<g >
</g>
<g >
</g>
<g >
</g>
<g >
</g>
<g >
</g>
<g >
</g>
<g >
</g>
<g >
</g>
<g >
</g>
<g >
</g>
<g >
</g>
<g >
</g>
<g >
</g>
<g >
</g>
<g >
</g>
<g >
</g>
<g >
</g>
<g >
</g>
<g >
</g>
<g >
</g>
</g> 
</svg>
