<?xml version="1.0" standalone="no"?>
 <!DOCTYPE svg PUBLIC "-//W3C//DTD SVG 1.1//EN" 
 "http://www.w3.org/Graphics/SVG/1.1/DTD/svg11.dtd"> 
<svg
  xmlns:svg="http://www.w3.org/2000/svg"
  xmlns="http://www.w3.org/2000/svg"
  xmlns:xlink="http://www.w3.org/1999/xlink"
  version="1.1"
  width="215.9000mm" height="137.1600mm" viewBox="0.0000 0.0000 215.9000 137.1600">
<title>SVG Image created as ADSR_pcb_panel_back.svg date 2023/03/27 09:40:13 </title>
  <desc>Image generated by PCBNEW </desc>
<g style="fill:#000000; fill-opacity:1.0000;stroke:#000000; stroke-opacity:1.0000;
stroke-linecap:round; stroke-linejoin:round;"
 transform="translate(0 0) scale(1 1)">
</g>
<g style="fill:#000000; fill-opacity:0.0; 
stroke:#000000; stroke-width:0.0000; stroke-opacity:1; 
stroke-linecap:round; stroke-linejoin:round;">
</g>
<g style="fill:#C2C2C2; fill-opacity:0.0; 
stroke:#C2C2C2; stroke-width:0.0000; stroke-opacity:1; 
stroke-linecap:round; stroke-linejoin:round;">
</g>
<g style="fill:#C2C2C2; fill-opacity:0.0; 
stroke:#C2C2C2; stroke-width:0.2000; stroke-opacity:1; 
stroke-linecap:round; stroke-linejoin:round;">
<text x="121.2850" y="9.2550"
textLength="20.6714" font-size="2.6667" lengthAdjust="spacingAndGlyphs"
text-anchor="middle" opacity="0">JLCJLCJLCJLC</text>
<g class="stroked-text"><desc>JLCJLCJLCJLC</desc>
<path d="M130.5231 7.1802
L130.5231 8.6088
" />
<path d="M130.5231 8.6088
L130.6183 8.8945
" />
<path d="M130.6183 8.8945
L130.8088 9.0850
" />
<path d="M130.8088 9.0850
L131.0945 9.1802
" />
<path d="M131.0945 9.1802
L131.2850 9.1802
" />
<path d="M128.6183 9.1802
L129.5707 9.1802
" />
<path d="M129.5707 9.1802
L129.5707 7.1802
" />
<path d="M126.8088 8.9898
L126.9040 9.0850
" />
<path d="M126.9040 9.0850
L127.1898 9.1802
" />
<path d="M127.1898 9.1802
L127.3802 9.1802
" />
<path d="M127.3802 9.1802
L127.6660 9.0850
" />
<path d="M127.6660 9.0850
L127.8564 8.8945
" />
<path d="M127.8564 8.8945
L127.9517 8.7040
" />
<path d="M127.9517 8.7040
L128.0469 8.3231
" />
<path d="M128.0469 8.3231
L128.0469 8.0374
" />
<path d="M128.0469 8.0374
L127.9517 7.6564
" />
<path d="M127.9517 7.6564
L127.8564 7.4660
" />
<path d="M127.8564 7.4660
L127.6660 7.2755
" />
<path d="M127.6660 7.2755
L127.3802 7.1802
" />
<path d="M127.3802 7.1802
L127.1898 7.1802
" />
<path d="M127.1898 7.1802
L126.9040 7.2755
" />
<path d="M126.9040 7.2755
L126.8088 7.3707
" />
<path d="M125.3802 7.1802
L125.3802 8.6088
" />
<path d="M125.3802 8.6088
L125.4755 8.8945
" />
<path d="M125.4755 8.8945
L125.6660 9.0850
" />
<path d="M125.6660 9.0850
L125.9517 9.1802
" />
<path d="M125.9517 9.1802
L126.1421 9.1802
" />
<path d="M123.4755 9.1802
L124.4279 9.1802
" />
<path d="M124.4279 9.1802
L124.4279 7.1802
" />
<path d="M121.6660 8.9898
L121.7612 9.0850
" />
<path d="M121.7612 9.0850
L122.0469 9.1802
" />
<path d="M122.0469 9.1802
L122.2374 9.1802
" />
<path d="M122.2374 9.1802
L122.5231 9.0850
" />
<path d="M122.5231 9.0850
L122.7136 8.8945
" />
<path d="M122.7136 8.8945
L122.8088 8.7040
" />
<path d="M122.8088 8.7040
L122.9040 8.3231
" />
<path d="M122.9040 8.3231
L122.9040 8.0374
" />
<path d="M122.9040 8.0374
L122.8088 7.6564
" />
<path d="M122.8088 7.6564
L122.7136 7.4660
" />
<path d="M122.7136 7.4660
L122.5231 7.2755
" />
<path d="M122.5231 7.2755
L122.2374 7.1802
" />
<path d="M122.2374 7.1802
L122.0469 7.1802
" />
<path d="M122.0469 7.1802
L121.7612 7.2755
" />
<path d="M121.7612 7.2755
L121.6660 7.3707
" />
<path d="M120.2374 7.1802
L120.2374 8.6088
" />
<path d="M120.2374 8.6088
L120.3326 8.8945
" />
<path d="M120.3326 8.8945
L120.5231 9.0850
" />
<path d="M120.5231 9.0850
L120.8088 9.1802
" />
<path d="M120.8088 9.1802
L120.9993 9.1802
" />
<path d="M118.3326 9.1802
L119.2850 9.1802
" />
<path d="M119.2850 9.1802
L119.2850 7.1802
" />
<path d="M116.5231 8.9898
L116.6183 9.0850
" />
<path d="M116.6183 9.0850
L116.9040 9.1802
" />
<path d="M116.9040 9.1802
L117.0945 9.1802
" />
<path d="M117.0945 9.1802
L117.3802 9.0850
" />
<path d="M117.3802 9.0850
L117.5707 8.8945
" />
<path d="M117.5707 8.8945
L117.6660 8.7040
" />
<path d="M117.6660 8.7040
L117.7612 8.3231
" />
<path d="M117.7612 8.3231
L117.7612 8.0374
" />
<path d="M117.7612 8.0374
L117.6660 7.6564
" />
<path d="M117.6660 7.6564
L117.5707 7.4660
" />
<path d="M117.5707 7.4660
L117.3802 7.2755
" />
<path d="M117.3802 7.2755
L117.0945 7.1802
" />
<path d="M117.0945 7.1802
L116.9040 7.1802
" />
<path d="M116.9040 7.1802
L116.6183 7.2755
" />
<path d="M116.6183 7.2755
L116.5231 7.3707
" />
<path d="M115.0945 7.1802
L115.0945 8.6088
" />
<path d="M115.0945 8.6088
L115.1898 8.8945
" />
<path d="M115.1898 8.8945
L115.3802 9.0850
" />
<path d="M115.3802 9.0850
L115.6660 9.1802
" />
<path d="M115.6660 9.1802
L115.8564 9.1802
" />
<path d="M113.1898 9.1802
L114.1421 9.1802
" />
<path d="M114.1421 9.1802
L114.1421 7.1802
" />
<path d="M111.3802 8.9898
L111.4755 9.0850
" />
<path d="M111.4755 9.0850
L111.7612 9.1802
" />
<path d="M111.7612 9.1802
L111.9517 9.1802
" />
<path d="M111.9517 9.1802
L112.2374 9.0850
" />
<path d="M112.2374 9.0850
L112.4279 8.8945
" />
<path d="M112.4279 8.8945
L112.5231 8.7040
" />
<path d="M112.5231 8.7040
L112.6183 8.3231
" />
<path d="M112.6183 8.3231
L112.6183 8.0374
" />
<path d="M112.6183 8.0374
L112.5231 7.6564
" />
<path d="M112.5231 7.6564
L112.4279 7.4660
" />
<path d="M112.4279 7.4660
L112.2374 7.2755
" />
<path d="M112.2374 7.2755
L111.9517 7.1802
" />
<path d="M111.9517 7.1802
L111.7612 7.1802
" />
<path d="M111.7612 7.1802
L111.4755 7.2755
" />
<path d="M111.4755 7.2755
L111.3802 7.3707
" />
</g><g >
</g>
<g >
</g>
<g >
</g>
<g >
</g>
<g >
</g>
<g >
</g>
<g >
</g>
<g >
</g>
</g>
<g style="fill:#FFFFFF; fill-opacity:0.0; 
stroke:#FFFFFF; stroke-width:0.2000; stroke-opacity:1; 
stroke-linecap:round; stroke-linejoin:round;">
</g>
<g style="fill:#FFFFFF; fill-opacity:1.0000; 
stroke:#FFFFFF; stroke-width:0.0000; stroke-opacity:1; 
stroke-linecap:round; stroke-linejoin:round;">
<circle cx="187.9600" cy="33.0200" r="0.5000" /> 
</g>
<g style="fill:#FFFFFF; fill-opacity:1.0000; 
stroke:#FFFFFF; stroke-width:0.0212; stroke-opacity:1; 
stroke-linecap:round; stroke-linejoin:round;">
</g>
<g style="fill:#000000; fill-opacity:1.0000; 
stroke:#000000; stroke-width:0.0212; stroke-opacity:1; 
stroke-linecap:round; stroke-linejoin:round;">
<g >
</g>
<g style="fill:#000000; fill-opacity:1.0000; 
stroke:#000000; stroke-width:0.0000; stroke-opacity:1; 
stroke-linecap:round; stroke-linejoin:round;">
<circle cx="187.9600" cy="33.0200" r="1.0000" /> 
</g>
<g style="fill:#000000; fill-opacity:1.0000; 
stroke:#000000; stroke-width:0.0212; stroke-opacity:1; 
stroke-linecap:round; stroke-linejoin:round;">
</g>
<g >
</g>
<g >
</g>
<g >
</g>
<g >
</g>
<g >
</g>
<g >
</g>
<g >
</g>
<g style="fill:#000000; fill-opacity:1.0000; 
stroke:#000000; stroke-width:0.0212; stroke-opacity:1; 
stroke-linecap:round; stroke-linejoin:round;">
<g >
</g>
<g style="fill:#000000; fill-opacity:1.0000; 
stroke:#000000; stroke-width:0.0000; stroke-opacity:1; 
stroke-linecap:round; stroke-linejoin:round;">
<path style="fill:#000000; fill-opacity:1.0000; 
stroke:#000000; stroke-width:0.0000; stroke-opacity:1; 
stroke-linecap:round; stroke-linejoin:round;fill-rule:evenodd;"
d="M 8.9200,3.0500
8.9051,3.0523
8.9051,3.0523
8.8963,3.0537
8.8758,3.0510
8.8540,3.0501
8.4971,3.0657
8.4861,3.0666
8.1016,3.1172
8.0908,3.1191
7.7122,3.2031
7.7016,3.2059
7.3317,3.3225
7.3214,3.3263
6.9631,3.4747
6.9531,3.4794
6.6091,3.6584
6.5996,3.6639
6.2725,3.8723
6.2635,3.8786
5.9559,4.1147
5.9474,4.1217
5.7173,4.3326
5.6615,4.3837
5.6537,4.3915
5.3917,4.6774
5.3847,4.6859
5.1486,4.9935
5.1423,5.0025
4.9339,5.3296
4.9284,5.3391
4.7494,5.6831
4.7447,5.6931
4.5963,6.0514
4.5925,6.0617
4.4759,6.4316
4.4731,6.4422
4.3891,6.8208
4.3872,6.8316
4.3366,7.2161
4.3357,7.2271
4.3204,7.5765
4.3218,7.6014
4.3237,7.6137
4.3225,7.6226
4.3225,7.6226
4.3196,7.6453
4.3185,7.6616
4.3185,130.7606
4.3200,130.7800
4.3223,130.7949
4.3223,130.7949
4.3237,130.8037
4.3210,130.8242
4.3201,130.8460
4.3357,131.2029
4.3366,131.2139
4.3412,131.2488
4.3872,131.5984
4.3891,131.6092
4.4731,131.9878
4.4759,131.9984
4.5925,132.3683
4.5963,132.3786
4.6624,132.5383
4.7447,132.7369
4.7494,132.7469
4.9284,133.0909
4.9339,133.1004
5.1423,133.4275
5.1486,133.4365
5.3847,133.7441
5.3917,133.7526
5.6537,134.0385
5.6615,134.0463
5.9474,134.3083
5.9559,134.3153
6.2635,134.5514
6.2725,134.5577
6.5996,134.7661
6.6091,134.7716
6.9531,134.9506
6.9631,134.9553
7.3214,135.1037
7.3317,135.1075
7.7016,135.2241
7.7122,135.2269
8.0908,135.3109
8.1016,135.3128
8.4861,135.3634
8.4971,135.3643
8.8466,135.3796
8.8714,135.3782
8.8837,135.3763
8.8926,135.3775
8.8926,135.3775
8.9077,135.3794
8.9153,135.3804
8.9316,135.3815
208.2306,135.3815
208.2500,135.3800
208.2649,135.3777
208.2649,135.3777
208.2737,135.3763
208.2942,135.3790
208.3160,135.3799
208.6729,135.3643
208.6839,135.3634
209.0684,135.3128
209.0792,135.3109
209.4578,135.2269
209.4684,135.2241
209.8383,135.1075
209.8486,135.1037
210.2069,134.9553
210.2169,134.9506
210.5609,134.7716
210.5704,134.7661
210.8975,134.5577
210.9065,134.5514
211.2141,134.3153
211.2226,134.3083
211.5085,134.0463
211.5163,134.0385
211.7783,133.7526
211.7853,133.7441
212.0214,133.4365
212.0277,133.4275
212.2361,133.1004
212.2416,133.0909
212.4206,132.7469
212.4253,132.7369
212.5076,132.5383
212.5737,132.3786
212.5775,132.3683
212.6941,131.9984
212.6969,131.9878
212.7809,131.6092
212.7828,131.5984
212.8288,131.2488
212.8334,131.2139
212.8343,131.2029
212.8496,130.8534
212.8482,130.8286
212.8477,130.8251
212.8463,130.8163
212.8504,130.7847
212.8515,130.7684
212.8515,115.5133
192.0230,115.5133
192.0229,115.5164
192.0225,115.5275
192.0107,115.8668
192.0091,115.9100
192.0087,115.9131
192.0087,115.9131
192.0026,115.9588
191.9566,116.3035
191.9559,116.3065
191.9559,116.3065
191.9035,116.5300
191.8660,116.6900
191.7380,117.0658
191.5740,117.4274
191.3756,117.7712
191.3738,117.7737
191.3738,117.7737
191.1765,118.0492
191.1445,118.0940
191.1424,118.0963
191.1424,118.0963
190.9774,118.2848
190.8830,118.3927
190.8807,118.3948
190.5958,118.6623
190.5958,118.6623
190.5936,118.6644
190.5911,118.6663
190.5911,118.6663
190.2815,118.9048
190.2790,118.9067
190.2764,118.9083
190.2764,118.9083
190.0950,119.0216
189.9424,119.1170
189.5868,119.2935
189.2157,119.4345
188.8326,119.5386
188.8295,119.5391
188.8295,119.5391
188.4442,119.6043
188.4442,119.6043
188.4411,119.6048
188.4381,119.6050
188.4380,119.6050
188.0482,119.6323
188.0482,119.6323
188.0451,119.6325
187.7888,119.6253
187.6513,119.6215
187.6513,119.6215
187.6483,119.6214
187.6452,119.6210
187.6452,119.6210
187.4567,119.5972
187.2544,119.5717
187.2514,119.5710
187.2514,119.5710
186.8703,119.4844
186.8703,119.4844
186.8673,119.4837
186.7194,119.4345
186.4935,119.3594
186.4935,119.3594
186.4906,119.3584
186.3474,119.2946
186.1307,119.1982
186.1307,119.1982
186.1279,119.1969
186.0954,119.1785
185.7854,119.0024
185.7854,119.0024
185.7827,119.0008
185.4583,118.7720
185.4495,118.7644
185.1601,118.5146
185.1578,118.5126
185.1557,118.5104
185.1557,118.5104
184.8861,118.2273
184.8840,118.2251
184.8815,118.2219
184.6415,117.9147
184.6415,117.9147
184.6396,117.9123
184.6380,117.9097
184.6380,117.9097
184.4286,117.5797
184.4285,117.5797
184.4269,117.5771
184.4006,117.5250
184.3248,117.3749
184.2479,117.2227
184.2468,117.2199
184.2468,117.2199
184.1055,116.8555
184.1055,116.8555
184.1043,116.8526
184.0143,116.5300
183.9984,116.4732
183.9984,116.4732
183.9976,116.4702
183.9286,116.0793
183.8982,115.6835
183.8966,115.5700
183.8980,115.5421
183.8994,115.5133
147.5730,115.5133
147.5729,115.5164
147.5725,115.5275
147.5607,115.8668
147.5591,115.9100
147.5587,115.9131
147.5587,115.9131
147.5526,115.9588
147.5066,116.3035
147.5059,116.3065
147.5059,116.3065
147.4535,116.5300
147.4160,116.6900
147.2880,117.0658
147.1240,117.4274
146.9256,117.7712
146.9238,117.7737
146.9238,117.7737
146.7265,118.0492
146.6945,118.0940
146.6924,118.0963
146.6924,118.0963
146.5274,118.2848
146.4330,118.3927
146.4307,118.3948
146.1458,118.6623
146.1458,118.6623
146.1436,118.6644
146.1411,118.6663
146.1411,118.6663
145.8315,118.9048
145.8290,118.9067
145.8264,118.9083
145.8264,118.9083
145.6450,119.0216
145.4924,119.1170
145.1368,119.2935
144.7657,119.4345
144.3826,119.5386
144.3795,119.5391
144.3795,119.5391
143.9942,119.6043
143.9942,119.6043
143.9911,119.6048
143.9881,119.6050
143.9880,119.6050
143.5982,119.6323
143.5982,119.6323
143.5951,119.6325
143.3388,119.6253
143.2013,119.6215
143.2013,119.6215
143.1983,119.6214
143.1952,119.6210
143.1952,119.6210
143.0067,119.5972
142.8044,119.5717
142.8014,119.5710
142.8014,119.5710
142.4203,119.4844
142.4203,119.4844
142.4173,119.4837
142.2694,119.4345
142.0435,119.3594
142.0435,119.3594
142.0406,119.3584
141.8974,119.2946
141.6807,119.1982
141.6807,119.1982
141.6779,119.1969
141.6454,119.1785
141.3354,119.0024
141.3354,119.0024
141.3327,119.0008
141.0083,118.7720
140.9995,118.7644
140.7101,118.5146
140.7078,118.5126
140.7057,118.5104
140.7057,118.5104
140.4361,118.2273
140.4340,118.2251
140.4315,118.2219
140.1915,117.9147
140.1915,117.9147
140.1896,117.9123
140.1880,117.9097
140.1880,117.9097
139.9786,117.5797
139.9785,117.5797
139.9769,117.5771
139.9506,117.5250
139.8748,117.3749
139.7979,117.2227
139.7968,117.2199
139.7968,117.2199
139.6555,116.8555
139.6555,116.8555
139.6543,116.8526
139.5643,116.5300
139.5484,116.4732
139.5484,116.4732
139.5476,116.4702
139.4786,116.0793
139.4482,115.6835
139.4466,115.5700
139.4480,115.5421
139.4494,115.5133
103.1230,115.5133
103.1229,115.5164
103.1225,115.5275
103.1107,115.8668
103.1091,115.9100
103.1087,115.9131
103.1087,115.9131
103.1026,115.9588
103.0566,116.3035
103.0559,116.3065
103.0559,116.3065
103.0035,116.5300
102.9660,116.6900
102.8380,117.0658
102.6740,117.4274
102.4756,117.7712
102.4738,117.7737
102.4738,117.7737
102.2765,118.0492
102.2445,118.0940
102.2424,118.0963
102.2424,118.0963
102.0774,118.2848
101.9830,118.3927
101.9807,118.3948
101.6958,118.6623
101.6958,118.6623
101.6936,118.6644
101.6911,118.6663
101.6911,118.6663
101.3815,118.9048
101.3790,118.9067
101.3764,118.9083
101.3764,118.9083
101.1950,119.0216
101.0424,119.1170
100.6868,119.2935
100.3157,119.4345
99.9326,119.5386
99.9295,119.5391
99.9295,119.5391
99.5442,119.6043
99.5442,119.6043
99.5411,119.6048
99.5381,119.6050
99.5380,119.6050
99.1482,119.6323
99.1482,119.6323
99.1451,119.6325
98.8888,119.6253
98.7513,119.6215
98.7513,119.6215
98.7483,119.6214
98.7452,119.6210
98.7452,119.6210
98.5567,119.5972
98.3544,119.5717
98.3514,119.5710
98.3514,119.5710
97.9703,119.4844
97.9703,119.4844
97.9673,119.4837
97.8194,119.4345
97.5935,119.3594
97.5935,119.3594
97.5906,119.3584
97.4474,119.2946
97.2307,119.1982
97.2307,119.1982
97.2279,119.1969
97.1954,119.1785
96.8854,119.0024
96.8854,119.0024
96.8827,119.0008
96.5583,118.7720
96.5495,118.7644
96.2601,118.5146
96.2578,118.5126
96.2557,118.5104
96.2557,118.5104
95.9861,118.2273
95.9840,118.2251
95.9815,118.2219
95.7415,117.9147
95.7415,117.9147
95.7396,117.9123
95.7380,117.9097
95.7380,117.9097
95.5286,117.5797
95.5285,117.5797
95.5269,117.5771
95.5006,117.5250
95.4248,117.3749
95.3479,117.2227
95.3468,117.2199
95.3468,117.2199
95.2055,116.8555
95.2055,116.8555
95.2043,116.8526
95.1143,116.5300
95.0984,116.4732
95.0984,116.4732
95.0976,116.4702
95.0286,116.0793
94.9982,115.6835
94.9966,115.5700
94.9980,115.5421
94.9994,115.5133
58.6730,115.5133
58.6729,115.5164
58.6725,115.5275
58.6607,115.8668
58.6591,115.9100
58.6587,115.9131
58.6587,115.9131
58.6526,115.9588
58.6066,116.3035
58.6059,116.3065
58.6059,116.3065
58.5535,116.5300
58.5160,116.6900
58.3880,117.0658
58.2240,117.4274
58.0256,117.7712
58.0238,117.7737
58.0238,117.7737
57.8265,118.0492
57.7945,118.0940
57.7924,118.0963
57.7924,118.0963
57.6274,118.2848
57.5330,118.3927
57.5307,118.3948
57.2458,118.6623
57.2458,118.6623
57.2436,118.6644
57.2411,118.6663
57.2411,118.6663
56.9315,118.9048
56.9290,118.9067
56.9264,118.9083
56.9264,118.9083
56.7450,119.0216
56.5924,119.1170
56.2368,119.2935
55.8657,119.4345
55.4826,119.5386
55.4795,119.5391
55.4795,119.5391
55.0942,119.6043
55.0942,119.6043
55.0911,119.6048
55.0881,119.6050
55.0880,119.6050
54.6982,119.6323
54.6982,119.6323
54.6951,119.6325
54.4388,119.6253
54.3013,119.6215
54.3013,119.6215
54.2983,119.6214
54.2952,119.6210
54.2952,119.6210
54.1067,119.5972
53.9044,119.5717
53.9014,119.5710
53.9014,119.5710
53.5203,119.4844
53.5203,119.4844
53.5173,119.4837
53.3694,119.4345
53.1435,119.3594
53.1435,119.3594
53.1406,119.3584
52.9974,119.2946
52.7807,119.1982
52.7807,119.1982
52.7779,119.1969
52.7454,119.1785
52.4354,119.0024
52.4354,119.0024
52.4327,119.0008
52.1083,118.7720
52.0995,118.7644
51.8101,118.5146
51.8078,118.5126
51.8057,118.5104
51.8057,118.5104
51.5361,118.2273
51.5340,118.2251
51.5315,118.2219
51.2915,117.9147
51.2915,117.9147
51.2896,117.9123
51.2880,117.9097
51.2880,117.9097
51.0786,117.5797
51.0785,117.5797
51.0769,117.5771
51.0506,117.5250
50.9748,117.3749
50.8979,117.2227
50.8968,117.2199
50.8968,117.2199
50.7555,116.8555
50.7555,116.8555
50.7543,116.8526
50.6643,116.5300
50.6484,116.4732
50.6484,116.4732
50.6476,116.4702
50.5786,116.0793
50.5482,115.6835
50.5466,115.5700
32.8986,115.5700
32.8783,115.9556
32.8778,115.9588
32.8778,115.9588
32.8592,116.0762
32.8180,116.3369
32.7180,116.7098
32.5797,117.0703
32.5782,117.0732
32.5020,117.2227
32.4044,117.4143
32.4026,117.4170
32.4026,117.4170
32.2987,117.5771
32.1941,117.7381
31.9511,118.0381
31.6781,118.3111
31.3781,118.5541
31.0543,118.7644
31.0513,118.7659
31.0513,118.7659
30.7751,118.9067
30.7103,118.9397
30.3498,119.0780
29.9769,119.1780
29.7744,119.2100
29.5988,119.2378
29.5988,119.2378
29.5956,119.2383
29.2100,119.2586
28.8244,119.2383
28.8212,119.2378
28.8212,119.2378
28.6456,119.2100
28.4431,119.1780
28.0702,119.0780
27.7097,118.9397
27.6449,118.9067
27.3687,118.7659
27.3687,118.7659
27.3657,118.7644
27.0419,118.5541
26.7419,118.3111
26.4689,118.0381
26.2259,117.7381
26.1213,117.5771
26.0174,117.4170
26.0174,117.4170
26.0156,117.4143
25.9180,117.2227
25.8418,117.0732
25.8403,117.0703
25.7020,116.7098
25.6020,116.3369
25.5608,116.0762
25.5422,115.9588
25.5422,115.9588
25.5417,115.9556
25.5214,115.5700
25.5417,115.1844
25.5429,115.1766
25.6015,114.8064
25.6020,114.8031
25.7020,114.4302
25.7141,114.3986
25.8392,114.0728
25.8403,114.0697
25.8929,113.9665
26.0141,113.7287
26.0141,113.7287
26.0156,113.7257
26.0663,113.6477
26.2241,113.4047
26.2259,113.4019
26.4689,113.1019
26.7419,112.8289
27.0419,112.5859
27.2708,112.4373
27.3630,112.3774
27.3630,112.3774
27.3657,112.3756
27.3687,112.3741
27.3687,112.3741
27.7068,112.2018
27.7097,112.2003
28.0702,112.0620
28.4431,111.9620
28.6456,111.9300
28.8212,111.9022
28.8212,111.9022
28.8244,111.9017
29.2100,111.8814
29.5956,111.9017
29.5988,111.9022
29.5988,111.9022
29.7744,111.9300
29.9769,111.9620
30.3498,112.0620
30.7103,112.2003
30.7132,112.2018
31.0513,112.3741
31.0513,112.3741
31.0543,112.3756
31.0570,112.3774
31.0570,112.3774
31.2708,112.5163
31.3781,112.5859
31.6781,112.8289
31.9511,113.1019
32.1941,113.4019
32.1959,113.4047
32.3537,113.6477
32.4044,113.7257
32.4059,113.7287
32.4059,113.7287
32.5271,113.9665
32.5797,114.0697
32.5808,114.0728
32.7059,114.3986
32.7180,114.4302
32.8180,114.8031
32.8185,114.8064
32.8771,115.1766
32.8783,115.1844
32.8971,115.5421
32.8986,115.5700
50.5466,115.5700
50.5480,115.5421
50.5632,115.2310
50.5660,115.1735
50.6054,114.9069
50.6235,114.7838
50.6235,114.7838
50.6240,114.7807
50.7200,114.3956
50.7383,114.3443
50.7849,114.2135
50.8532,114.0216
51.0222,113.6624
51.0520,113.6124
51.1626,113.4269
51.2255,113.3214
51.4611,113.0018
51.7267,112.7068
52.0199,112.4391
52.3378,112.2013
52.3866,112.1717
52.6747,111.9972
52.6747,111.9972
52.6774,111.9956
53.0354,111.8241
53.0948,111.8025
53.4055,111.6894
53.4055,111.6894
53.4084,111.6883
53.6153,111.6352
53.7900,111.5904
53.7900,111.5904
53.7929,111.5896
54.1853,111.5289
54.1883,111.5287
54.1883,111.5287
54.2171,111.5271
54.5816,111.5067
54.5847,111.5068
54.5847,111.5068
54.8430,111.5177
54.9783,111.5233
54.9813,111.5238
54.9813,111.5238
55.0210,111.5293
55.3714,111.5786
55.7573,111.6719
56.1322,111.8025
56.1790,111.8241
56.4898,111.9677
56.4898,111.9677
56.4926,111.9690
56.8350,112.1699
56.8760,112.1997
57.1537,112.4014
57.1537,112.4014
57.1561,112.4032
57.1584,112.4053
57.1584,112.4053
57.1989,112.4412
57.4530,112.6668
57.4551,112.6691
57.4551,112.6691
57.7206,112.9558
57.7207,112.9558
57.7227,112.9581
57.7246,112.9605
57.7246,112.9606
57.7578,113.0043
57.9628,113.2743
57.9644,113.2769
57.9644,113.2769
58.1692,113.6098
58.1708,113.6124
58.3448,113.9693
58.3459,113.9721
58.3459,113.9721
58.4319,114.2033
58.4832,114.3414
58.5846,114.7252
58.6481,115.1171
58.6483,115.1201
58.6483,115.1201
58.6552,115.2310
58.6730,115.5133
94.9994,115.5133
95.0132,115.2310
95.0160,115.1735
95.0554,114.9069
95.0735,114.7838
95.0735,114.7838
95.0740,114.7807
95.1700,114.3956
95.1883,114.3443
95.2349,114.2135
95.3032,114.0216
95.4722,113.6624
95.5020,113.6124
95.6126,113.4269
95.6755,113.3214
95.9111,113.0018
96.1767,112.7068
96.4699,112.4391
96.7878,112.2013
96.8366,112.1717
97.1247,111.9972
97.1247,111.9972
97.1274,111.9956
97.4854,111.8241
97.5448,111.8025
97.8555,111.6894
97.8555,111.6894
97.8584,111.6883
98.0653,111.6352
98.2400,111.5904
98.2400,111.5904
98.2429,111.5896
98.6353,111.5289
98.6383,111.5287
98.6383,111.5287
98.6671,111.5271
99.0316,111.5067
99.0347,111.5068
99.0347,111.5068
99.2930,111.5177
99.4283,111.5233
99.4313,111.5238
99.4313,111.5238
99.4710,111.5293
99.8214,111.5786
100.2073,111.6719
100.5822,111.8025
100.6290,111.8241
100.9398,111.9677
100.9398,111.9677
100.9426,111.9690
101.2850,112.1699
101.3260,112.1997
101.6037,112.4014
101.6037,112.4014
101.6061,112.4032
101.6084,112.4053
101.6084,112.4053
101.6489,112.4412
101.9030,112.6668
101.9051,112.6691
101.9051,112.6691
102.1706,112.9558
102.1707,112.9558
102.1727,112.9581
102.1746,112.9605
102.1746,112.9606
102.2078,113.0043
102.4128,113.2743
102.4144,113.2769
102.4144,113.2769
102.6192,113.6098
102.6208,113.6124
102.7948,113.9693
102.7959,113.9721
102.7959,113.9721
102.8819,114.2033
102.9332,114.3414
103.0346,114.7252
103.0981,115.1171
103.0983,115.1201
103.0983,115.1201
103.1052,115.2310
103.1230,115.5133
139.4494,115.5133
139.4632,115.2310
139.4660,115.1735
139.5054,114.9069
139.5235,114.7838
139.5235,114.7838
139.5240,114.7807
139.6200,114.3956
139.6383,114.3443
139.6849,114.2135
139.7532,114.0216
139.9222,113.6624
139.9520,113.6124
140.0626,113.4269
140.1255,113.3214
140.3611,113.0018
140.6267,112.7068
140.9199,112.4391
141.2378,112.2013
141.2866,112.1717
141.5747,111.9972
141.5747,111.9972
141.5774,111.9956
141.9354,111.8241
141.9948,111.8025
142.3055,111.6894
142.3055,111.6894
142.3084,111.6883
142.5153,111.6352
142.6900,111.5904
142.6900,111.5904
142.6929,111.5896
143.0853,111.5289
143.0883,111.5287
143.0883,111.5287
143.1171,111.5271
143.4816,111.5067
143.4847,111.5068
143.4847,111.5068
143.7430,111.5177
143.8783,111.5233
143.8813,111.5238
143.8813,111.5238
143.9210,111.5293
144.2714,111.5786
144.6573,111.6719
145.0322,111.8025
145.0790,111.8241
145.3898,111.9677
145.3898,111.9677
145.3926,111.9690
145.7350,112.1699
145.7760,112.1997
146.0537,112.4014
146.0537,112.4014
146.0561,112.4032
146.0584,112.4053
146.0584,112.4053
146.0989,112.4412
146.3530,112.6668
146.3551,112.6691
146.3551,112.6691
146.6206,112.9558
146.6207,112.9558
146.6227,112.9581
146.6246,112.9605
146.6246,112.9606
146.6578,113.0043
146.8628,113.2743
146.8644,113.2769
146.8644,113.2769
147.0692,113.6098
147.0708,113.6124
147.2448,113.9693
147.2459,113.9721
147.2459,113.9721
147.3319,114.2033
147.3832,114.3414
147.4846,114.7252
147.5481,115.1171
147.5483,115.1201
147.5483,115.1201
147.5552,115.2310
147.5730,115.5133
183.8994,115.5133
183.9132,115.2310
183.9160,115.1735
183.9554,114.9069
183.9735,114.7838
183.9735,114.7838
183.9740,114.7807
184.0700,114.3956
184.0883,114.3443
184.1349,114.2135
184.2032,114.0216
184.3722,113.6624
184.4020,113.6124
184.5126,113.4269
184.5755,113.3214
184.8111,113.0018
185.0767,112.7068
185.3699,112.4391
185.6878,112.2013
185.7366,112.1717
186.0247,111.9972
186.0247,111.9972
186.0274,111.9956
186.3854,111.8241
186.4448,111.8025
186.7555,111.6894
186.7555,111.6894
186.7584,111.6883
186.9653,111.6352
187.1400,111.5904
187.1400,111.5904
187.1429,111.5896
187.5353,111.5289
187.5383,111.5287
187.5383,111.5287
187.5671,111.5271
187.9316,111.5067
187.9347,111.5068
187.9347,111.5068
188.1930,111.5177
188.3283,111.5233
188.3313,111.5238
188.3313,111.5238
188.3710,111.5293
188.7214,111.5786
189.1073,111.6719
189.4822,111.8025
189.5290,111.8241
189.8398,111.9677
189.8398,111.9677
189.8426,111.9690
190.1850,112.1699
190.2260,112.1997
190.5037,112.4014
190.5037,112.4014
190.5061,112.4032
190.5084,112.4053
190.5084,112.4053
190.5489,112.4412
190.8030,112.6668
190.8051,112.6691
190.8051,112.6691
191.0706,112.9558
191.0707,112.9558
191.0727,112.9581
191.0746,112.9605
191.0746,112.9606
191.1078,113.0043
191.3128,113.2743
191.3144,113.2769
191.3144,113.2769
191.5192,113.6098
191.5208,113.6124
191.6948,113.9693
191.6959,113.9721
191.6959,113.9721
191.7819,114.2033
191.8332,114.3414
191.9346,114.7252
191.9981,115.1171
191.9983,115.1201
191.9983,115.1201
192.0052,115.2310
192.0230,115.5133
212.8515,115.5133
212.8515,71.0633
192.0230,71.0633
192.0229,71.0664
192.0225,71.0775
192.0107,71.4168
192.0091,71.4600
192.0087,71.4631
192.0087,71.4631
192.0026,71.5088
191.9566,71.8535
191.9559,71.8565
191.9559,71.8565
191.9035,72.0800
191.8660,72.2400
191.7380,72.6158
191.5740,72.9774
191.3756,73.3212
191.3738,73.3237
191.3738,73.3237
191.1765,73.5992
191.1445,73.6440
191.1424,73.6463
191.1424,73.6463
190.9774,73.8348
190.8830,73.9427
190.8807,73.9448
190.5958,74.2123
190.5958,74.2123
190.5936,74.2144
190.5911,74.2163
190.5911,74.2163
190.2815,74.4548
190.2790,74.4567
190.2764,74.4583
190.2764,74.4583
190.0950,74.5716
189.9424,74.6670
189.5868,74.8435
189.2157,74.9845
188.8326,75.0886
188.8295,75.0891
188.8295,75.0891
188.4442,75.1543
188.4442,75.1543
188.4411,75.1548
188.4381,75.1550
188.4380,75.1550
188.0482,75.1823
188.0482,75.1823
188.0451,75.1825
187.7888,75.1753
187.6513,75.1715
187.6513,75.1715
187.6483,75.1714
187.6452,75.1710
187.6452,75.1710
187.4567,75.1472
187.2544,75.1217
187.2514,75.1210
187.2514,75.1210
186.8703,75.0344
186.8703,75.0344
186.8673,75.0337
186.7194,74.9845
186.4935,74.9094
186.4935,74.9094
186.4906,74.9084
186.3474,74.8446
186.1307,74.7482
186.1307,74.7482
186.1279,74.7469
186.0954,74.7285
185.7854,74.5524
185.7854,74.5524
185.7827,74.5508
185.4583,74.3220
185.4495,74.3144
185.1601,74.0646
185.1578,74.0626
185.1557,74.0604
185.1557,74.0604
184.8861,73.7773
184.8840,73.7751
184.8815,73.7719
184.6415,73.4647
184.6415,73.4647
184.6396,73.4623
184.6380,73.4597
184.6380,73.4597
184.4286,73.1297
184.4285,73.1297
184.4269,73.1271
184.4006,73.0750
184.3248,72.9249
184.2479,72.7727
184.2468,72.7699
184.2468,72.7699
184.1055,72.4055
184.1055,72.4055
184.1043,72.4026
184.0143,72.0800
183.9984,72.0232
183.9984,72.0232
183.9976,72.0202
183.9286,71.6293
183.8982,71.2335
183.8966,71.1200
183.8980,71.0921
183.8994,71.0633
147.5730,71.0633
147.5729,71.0664
147.5725,71.0775
147.5607,71.4168
147.5591,71.4600
147.5587,71.4631
147.5587,71.4631
147.5526,71.5088
147.5066,71.8535
147.5059,71.8565
147.5059,71.8565
147.4535,72.0800
147.4160,72.2400
147.2880,72.6158
147.1240,72.9774
146.9256,73.3212
146.9238,73.3237
146.9238,73.3237
146.7265,73.5992
146.6945,73.6440
146.6924,73.6463
146.6924,73.6463
146.5274,73.8348
146.4330,73.9427
146.4307,73.9448
146.1458,74.2123
146.1458,74.2123
146.1436,74.2144
146.1411,74.2163
146.1411,74.2163
145.8315,74.4548
145.8290,74.4567
145.8264,74.4583
145.8264,74.4583
145.6450,74.5716
145.4924,74.6670
145.1368,74.8435
144.7657,74.9845
144.3826,75.0886
144.3795,75.0891
144.3795,75.0891
143.9942,75.1543
143.9942,75.1543
143.9911,75.1548
143.9881,75.1550
143.9880,75.1550
143.5982,75.1823
143.5982,75.1823
143.5951,75.1825
143.3388,75.1753
143.2013,75.1715
143.2013,75.1715
143.1983,75.1714
143.1952,75.1710
143.1952,75.1710
143.0067,75.1472
142.8044,75.1217
142.8014,75.1210
142.8014,75.1210
142.4203,75.0344
142.4203,75.0344
142.4173,75.0337
142.2694,74.9845
142.0435,74.9094
142.0435,74.9094
142.0406,74.9084
141.8974,74.8446
141.6807,74.7482
141.6807,74.7482
141.6779,74.7469
141.6454,74.7285
141.3354,74.5524
141.3354,74.5524
141.3327,74.5508
141.0083,74.3220
140.9995,74.3144
140.7101,74.0646
140.7078,74.0626
140.7057,74.0604
140.7057,74.0604
140.4361,73.7773
140.4340,73.7751
140.4315,73.7719
140.1915,73.4647
140.1915,73.4647
140.1896,73.4623
140.1880,73.4597
140.1880,73.4597
139.9786,73.1297
139.9785,73.1297
139.9769,73.1271
139.9506,73.0750
139.8748,72.9249
139.7979,72.7727
139.7968,72.7699
139.7968,72.7699
139.6555,72.4055
139.6555,72.4055
139.6543,72.4026
139.5643,72.0800
139.5484,72.0232
139.5484,72.0232
139.5476,72.0202
139.4786,71.6293
139.4482,71.2335
139.4466,71.1200
139.4480,71.0921
139.4494,71.0633
103.1230,71.0633
103.1229,71.0664
103.1225,71.0775
103.1107,71.4168
103.1091,71.4600
103.1087,71.4631
103.1087,71.4631
103.1026,71.5088
103.0566,71.8535
103.0559,71.8565
103.0559,71.8565
103.0035,72.0800
102.9660,72.2400
102.8380,72.6158
102.6740,72.9774
102.4756,73.3212
102.4738,73.3237
102.4738,73.3237
102.2765,73.5992
102.2445,73.6440
102.2424,73.6463
102.2424,73.6463
102.0774,73.8348
101.9830,73.9427
101.9807,73.9448
101.6958,74.2123
101.6958,74.2123
101.6936,74.2144
101.6911,74.2163
101.6911,74.2163
101.3815,74.4548
101.3790,74.4567
101.3764,74.4583
101.3764,74.4583
101.1950,74.5716
101.0424,74.6670
100.6868,74.8435
100.3157,74.9845
99.9326,75.0886
99.9295,75.0891
99.9295,75.0891
99.5442,75.1543
99.5442,75.1543
99.5411,75.1548
99.5381,75.1550
99.5380,75.1550
99.1482,75.1823
99.1482,75.1823
99.1451,75.1825
98.8888,75.1753
98.7513,75.1715
98.7513,75.1715
98.7483,75.1714
98.7452,75.1710
98.7452,75.1710
98.5567,75.1472
98.3544,75.1217
98.3514,75.1210
98.3514,75.1210
97.9703,75.0344
97.9703,75.0344
97.9673,75.0337
97.8194,74.9845
97.5935,74.9094
97.5935,74.9094
97.5906,74.9084
97.4474,74.8446
97.2307,74.7482
97.2307,74.7482
97.2279,74.7469
97.1954,74.7285
96.8854,74.5524
96.8854,74.5524
96.8827,74.5508
96.5583,74.3220
96.5495,74.3144
96.2601,74.0646
96.2578,74.0626
96.2557,74.0604
96.2557,74.0604
95.9861,73.7773
95.9840,73.7751
95.9815,73.7719
95.7415,73.4647
95.7415,73.4647
95.7396,73.4623
95.7380,73.4597
95.7380,73.4597
95.5286,73.1297
95.5285,73.1297
95.5269,73.1271
95.5006,73.0750
95.4248,72.9249
95.3479,72.7727
95.3468,72.7699
95.3468,72.7699
95.2055,72.4055
95.2055,72.4055
95.2043,72.4026
95.1143,72.0800
95.0984,72.0232
95.0984,72.0232
95.0976,72.0202
95.0286,71.6293
94.9982,71.2335
94.9966,71.1200
94.9980,71.0921
94.9994,71.0633
58.6730,71.0633
58.6729,71.0664
58.6725,71.0775
58.6607,71.4168
58.6591,71.4600
58.6587,71.4631
58.6587,71.4631
58.6526,71.5088
58.6066,71.8535
58.6059,71.8565
58.6059,71.8565
58.5535,72.0800
58.5160,72.2400
58.3880,72.6158
58.2240,72.9774
58.0256,73.3212
58.0238,73.3237
58.0238,73.3237
57.8265,73.5992
57.7945,73.6440
57.7924,73.6463
57.7924,73.6463
57.6274,73.8348
57.5330,73.9427
57.5307,73.9448
57.2458,74.2123
57.2458,74.2123
57.2436,74.2144
57.2411,74.2163
57.2411,74.2163
56.9315,74.4548
56.9290,74.4567
56.9264,74.4583
56.9264,74.4583
56.7450,74.5716
56.5924,74.6670
56.2368,74.8435
55.8657,74.9845
55.4826,75.0886
55.4795,75.0891
55.4795,75.0891
55.0942,75.1543
55.0942,75.1543
55.0911,75.1548
55.0881,75.1550
55.0880,75.1550
54.6982,75.1823
54.6982,75.1823
54.6951,75.1825
54.4388,75.1753
54.3013,75.1715
54.3013,75.1715
54.2983,75.1714
54.2952,75.1710
54.2952,75.1710
54.1067,75.1472
53.9044,75.1217
53.9014,75.1210
53.9014,75.1210
53.5203,75.0344
53.5203,75.0344
53.5173,75.0337
53.3694,74.9845
53.1435,74.9094
53.1435,74.9094
53.1406,74.9084
52.9974,74.8446
52.7807,74.7482
52.7807,74.7482
52.7779,74.7469
52.7454,74.7285
52.4354,74.5524
52.4354,74.5524
52.4327,74.5508
52.1083,74.3220
52.0995,74.3144
51.8101,74.0646
51.8078,74.0626
51.8057,74.0604
51.8057,74.0604
51.5361,73.7773
51.5340,73.7751
51.5315,73.7719
51.2915,73.4647
51.2915,73.4647
51.2896,73.4623
51.2880,73.4597
51.2880,73.4597
51.0786,73.1297
51.0785,73.1297
51.0769,73.1271
51.0506,73.0750
50.9748,72.9249
50.8979,72.7727
50.8968,72.7699
50.8968,72.7699
50.7555,72.4055
50.7555,72.4055
50.7543,72.4026
50.6643,72.0800
50.6484,72.0232
50.6484,72.0232
50.6476,72.0202
50.5786,71.6293
50.5482,71.2335
50.5466,71.1200
32.8986,71.1200
32.8783,71.5056
32.8778,71.5088
32.8778,71.5088
32.8592,71.6262
32.8180,71.8869
32.7180,72.2598
32.5797,72.6203
32.5782,72.6232
32.5020,72.7727
32.4044,72.9643
32.4026,72.9670
32.4026,72.9670
32.2987,73.1271
32.1941,73.2881
31.9511,73.5881
31.6781,73.8611
31.3781,74.1041
31.0543,74.3144
31.0513,74.3159
31.0513,74.3159
30.7751,74.4567
30.7103,74.4897
30.3498,74.6280
29.9769,74.7280
29.7744,74.7600
29.5988,74.7878
29.5988,74.7878
29.5956,74.7883
29.2100,74.8086
28.8244,74.7883
28.8212,74.7878
28.8212,74.7878
28.6456,74.7600
28.4431,74.7280
28.0702,74.6280
27.7097,74.4897
27.6449,74.4567
27.3687,74.3159
27.3687,74.3159
27.3657,74.3144
27.0419,74.1041
26.7419,73.8611
26.4689,73.5881
26.2259,73.2881
26.1213,73.1271
26.0174,72.9670
26.0174,72.9670
26.0156,72.9643
25.9180,72.7727
25.8418,72.6232
25.8403,72.6203
25.7020,72.2598
25.6020,71.8869
25.5608,71.6262
25.5422,71.5088
25.5422,71.5088
25.5417,71.5056
25.5214,71.1200
25.5417,70.7344
25.5429,70.7266
25.6015,70.3564
25.6020,70.3531
25.7020,69.9802
25.7141,69.9486
25.8392,69.6228
25.8403,69.6197
25.8929,69.5165
26.0141,69.2787
26.0141,69.2787
26.0156,69.2757
26.0663,69.1977
26.2241,68.9547
26.2259,68.9519
26.4689,68.6519
26.7419,68.3789
27.0419,68.1359
27.2708,67.9873
27.3630,67.9274
27.3630,67.9274
27.3657,67.9256
27.3687,67.9241
27.3687,67.9241
27.7068,67.7518
27.7097,67.7503
28.0702,67.6120
28.4431,67.5120
28.6456,67.4800
28.8212,67.4522
28.8212,67.4522
28.8244,67.4517
29.2100,67.4314
29.5956,67.4517
29.5988,67.4522
29.5988,67.4522
29.7744,67.4800
29.9769,67.5120
30.3498,67.6120
30.7103,67.7503
30.7132,67.7518
31.0513,67.9241
31.0513,67.9241
31.0543,67.9256
31.0570,67.9274
31.0570,67.9274
31.2708,68.0663
31.3781,68.1359
31.6781,68.3789
31.9511,68.6519
32.1941,68.9519
32.1959,68.9547
32.3537,69.1977
32.4044,69.2757
32.4059,69.2787
32.4059,69.2787
32.5271,69.5165
32.5797,69.6197
32.5808,69.6228
32.7059,69.9486
32.7180,69.9802
32.8180,70.3531
32.8185,70.3564
32.8771,70.7266
32.8783,70.7344
32.8971,71.0921
32.8986,71.1200
50.5466,71.1200
50.5480,71.0921
50.5632,70.7810
50.5660,70.7235
50.6054,70.4569
50.6235,70.3338
50.6235,70.3338
50.6240,70.3307
50.7200,69.9455
50.7383,69.8943
50.7849,69.7635
50.8532,69.5716
51.0222,69.2124
51.0520,69.1624
51.1626,68.9769
51.2255,68.8714
51.4611,68.5518
51.7267,68.2568
52.0199,67.9891
52.3378,67.7513
52.3866,67.7217
52.6747,67.5472
52.6747,67.5472
52.6774,67.5456
53.0354,67.3741
53.0948,67.3525
53.4055,67.2394
53.4055,67.2394
53.4084,67.2383
53.6153,67.1852
53.7900,67.1404
53.7900,67.1404
53.7929,67.1396
54.1853,67.0789
54.1883,67.0787
54.1883,67.0787
54.2171,67.0771
54.5816,67.0567
54.5847,67.0568
54.5847,67.0568
54.8430,67.0677
54.9783,67.0733
54.9813,67.0738
54.9813,67.0738
55.0210,67.0793
55.3714,67.1286
55.7573,67.2219
56.1322,67.3525
56.1790,67.3741
56.4898,67.5177
56.4898,67.5177
56.4926,67.5190
56.8350,67.7199
56.8760,67.7497
57.1537,67.9514
57.1537,67.9514
57.1561,67.9532
57.1584,67.9553
57.1584,67.9553
57.1989,67.9912
57.4530,68.2168
57.4551,68.2191
57.4551,68.2191
57.7206,68.5058
57.7207,68.5058
57.7227,68.5081
57.7246,68.5105
57.7246,68.5106
57.7578,68.5543
57.9628,68.8243
57.9644,68.8269
57.9644,68.8269
58.1692,69.1598
58.1708,69.1624
58.3448,69.5193
58.3459,69.5221
58.3459,69.5221
58.4319,69.7533
58.4832,69.8914
58.5846,70.2752
58.6481,70.6671
58.6483,70.6701
58.6483,70.6701
58.6552,70.7810
58.6730,71.0633
94.9994,71.0633
95.0132,70.7810
95.0160,70.7235
95.0554,70.4569
95.0735,70.3338
95.0735,70.3338
95.0740,70.3307
95.1700,69.9455
95.1883,69.8943
95.2349,69.7635
95.3032,69.5716
95.4722,69.2124
95.5020,69.1624
95.6126,68.9769
95.6755,68.8714
95.9111,68.5518
96.1767,68.2568
96.4699,67.9891
96.7878,67.7513
96.8366,67.7217
97.1247,67.5472
97.1247,67.5472
97.1274,67.5456
97.4854,67.3741
97.5448,67.3525
97.8555,67.2394
97.8555,67.2394
97.8584,67.2383
98.0653,67.1852
98.2400,67.1404
98.2400,67.1404
98.2429,67.1396
98.6353,67.0789
98.6383,67.0787
98.6383,67.0787
98.6671,67.0771
99.0316,67.0567
99.0347,67.0568
99.0347,67.0568
99.2930,67.0677
99.4283,67.0733
99.4313,67.0738
99.4313,67.0738
99.4710,67.0793
99.8214,67.1286
100.2073,67.2219
100.5822,67.3525
100.6290,67.3741
100.9398,67.5177
100.9398,67.5177
100.9426,67.5190
101.2850,67.7199
101.3260,67.7497
101.6037,67.9514
101.6037,67.9514
101.6061,67.9532
101.6084,67.9553
101.6084,67.9553
101.6489,67.9912
101.9030,68.2168
101.9051,68.2191
101.9051,68.2191
102.1706,68.5058
102.1707,68.5058
102.1727,68.5081
102.1746,68.5105
102.1746,68.5106
102.2078,68.5543
102.4128,68.8243
102.4144,68.8269
102.4144,68.8269
102.6192,69.1598
102.6208,69.1624
102.7948,69.5193
102.7959,69.5221
102.7959,69.5221
102.8819,69.7533
102.9332,69.8914
103.0346,70.2752
103.0981,70.6671
103.0983,70.6701
103.0983,70.6701
103.1052,70.7810
103.1230,71.0633
139.4494,71.0633
139.4632,70.7810
139.4660,70.7235
139.5054,70.4569
139.5235,70.3338
139.5235,70.3338
139.5240,70.3307
139.6200,69.9455
139.6383,69.8943
139.6849,69.7635
139.7532,69.5716
139.9222,69.2124
139.9520,69.1624
140.0626,68.9769
140.1255,68.8714
140.3611,68.5518
140.6267,68.2568
140.9199,67.9891
141.2378,67.7513
141.2866,67.7217
141.5747,67.5472
141.5747,67.5472
141.5774,67.5456
141.9354,67.3741
141.9948,67.3525
142.3055,67.2394
142.3055,67.2394
142.3084,67.2383
142.5153,67.1852
142.6900,67.1404
142.6900,67.1404
142.6929,67.1396
143.0853,67.0789
143.0883,67.0787
143.0883,67.0787
143.1171,67.0771
143.4816,67.0567
143.4847,67.0568
143.4847,67.0568
143.7430,67.0677
143.8783,67.0733
143.8813,67.0738
143.8813,67.0738
143.9210,67.0793
144.2714,67.1286
144.6573,67.2219
145.0322,67.3525
145.0790,67.3741
145.3898,67.5177
145.3898,67.5177
145.3926,67.5190
145.7350,67.7199
145.7760,67.7497
146.0537,67.9514
146.0537,67.9514
146.0561,67.9532
146.0584,67.9553
146.0584,67.9553
146.0989,67.9912
146.3530,68.2168
146.3551,68.2191
146.3551,68.2191
146.6206,68.5058
146.6207,68.5058
146.6227,68.5081
146.6246,68.5105
146.6246,68.5106
146.6578,68.5543
146.8628,68.8243
146.8644,68.8269
146.8644,68.8269
147.0692,69.1598
147.0708,69.1624
147.2448,69.5193
147.2459,69.5221
147.2459,69.5221
147.3319,69.7533
147.3832,69.8914
147.4846,70.2752
147.5481,70.6671
147.5483,70.6701
147.5483,70.6701
147.5552,70.7810
147.5730,71.0633
183.8994,71.0633
183.9132,70.7810
183.9160,70.7235
183.9554,70.4569
183.9735,70.3338
183.9735,70.3338
183.9740,70.3307
184.0700,69.9455
184.0883,69.8943
184.1349,69.7635
184.2032,69.5716
184.3722,69.2124
184.4020,69.1624
184.5126,68.9769
184.5755,68.8714
184.8111,68.5518
185.0767,68.2568
185.3699,67.9891
185.6878,67.7513
185.7366,67.7217
186.0247,67.5472
186.0247,67.5472
186.0274,67.5456
186.3854,67.3741
186.4448,67.3525
186.7555,67.2394
186.7555,67.2394
186.7584,67.2383
186.9653,67.1852
187.1400,67.1404
187.1400,67.1404
187.1429,67.1396
187.5353,67.0789
187.5383,67.0787
187.5383,67.0787
187.5671,67.0771
187.9316,67.0567
187.9347,67.0568
187.9347,67.0568
188.1930,67.0677
188.3283,67.0733
188.3313,67.0738
188.3313,67.0738
188.3710,67.0793
188.7214,67.1286
189.1073,67.2219
189.4822,67.3525
189.5290,67.3741
189.8398,67.5177
189.8398,67.5177
189.8426,67.5190
190.1850,67.7199
190.2260,67.7497
190.5037,67.9514
190.5037,67.9514
190.5061,67.9532
190.5084,67.9553
190.5084,67.9553
190.5489,67.9912
190.8030,68.2168
190.8051,68.2191
190.8051,68.2191
191.0706,68.5058
191.0707,68.5058
191.0727,68.5081
191.0746,68.5105
191.0746,68.5106
191.1078,68.5543
191.3128,68.8243
191.3144,68.8269
191.3144,68.8269
191.5192,69.1598
191.5208,69.1624
191.6948,69.5193
191.6959,69.5221
191.6959,69.5221
191.7819,69.7533
191.8332,69.8914
191.9346,70.2752
191.9981,70.6671
191.9983,70.6701
191.9983,70.6701
192.0052,70.7810
192.0230,71.0633
212.8515,71.0633
212.8515,34.2527
188.8278,34.2527
188.8221,34.2603
188.6510,34.3652
188.6422,34.3697
188.4320,34.4567
188.4226,34.4598
188.2014,34.5129
188.1917,34.5144
187.9649,34.5323
187.9551,34.5323
187.7283,34.5144
187.7186,34.5129
187.4974,34.4598
187.4880,34.4567
187.2778,34.3697
187.2690,34.3652
187.1016,34.2626
187.0921,34.2521
187.0959,34.2433
187.9472,33.3920
187.9611,33.3844
187.9630,33.3845
187.9696,33.3888
188.8211,34.2403
188.8278,34.2527
212.8515,34.2527
212.8515,33.0249
189.4723,33.0249
189.4544,33.2517
189.4529,33.2614
189.3998,33.4826
189.3967,33.4920
189.3097,33.7022
189.3052,33.7110
189.2026,33.8784
189.1921,33.8879
189.1833,33.8841
188.3320,33.0328
188.3256,33.0211
187.5956,33.0211
187.5955,33.0230
187.5912,33.0296
186.7397,33.8811
186.7273,33.8878
186.7197,33.8821
186.6148,33.7110
186.6103,33.7022
186.5233,33.4920
186.5202,33.4826
186.4671,33.2614
186.4656,33.2517
186.4477,33.0249
186.4477,33.0151
186.4656,32.7883
186.4671,32.7786
186.5202,32.5574
186.5233,32.5480
186.6103,32.3378
186.6148,32.3290
186.7174,32.1616
186.7279,32.1521
186.7367,32.1559
187.5880,33.0072
187.5956,33.0211
188.3256,33.0211
188.3244,33.0189
188.3245,33.0170
188.3288,33.0104
189.1803,32.1589
189.1927,32.1522
189.2003,32.1579
189.3052,32.3290
189.3097,32.3378
189.3967,32.5480
189.3998,32.5574
189.4529,32.7786
189.4544,32.7883
189.4723,33.0151
189.4723,33.0249
212.8515,33.0249
212.8515,31.7879
188.8279,31.7879
188.8241,31.7967
187.9728,32.6480
187.9589,32.6556
187.9570,32.6555
187.9504,32.6512
187.0989,31.7997
187.0922,31.7873
187.0979,31.7797
187.2690,31.6748
187.2778,31.6703
187.4880,31.5833
187.4974,31.5802
187.7186,31.5271
187.7283,31.5256
187.9551,31.5077
187.9649,31.5077
188.1917,31.5256
188.2014,31.5271
188.4226,31.5802
188.4320,31.5833
188.6422,31.6703
188.6510,31.6748
188.8184,31.7774
188.8279,31.7879
212.8515,31.7879
212.8515,26.6133
192.0230,26.6133
192.0229,26.6164
192.0225,26.6275
192.0107,26.9668
192.0091,27.0100
192.0087,27.0131
192.0087,27.0131
192.0026,27.0588
191.9566,27.4035
191.9559,27.4065
191.9559,27.4065
191.9035,27.6300
191.8660,27.7900
191.7380,28.1658
191.5740,28.5274
191.3756,28.8712
191.3738,28.8737
191.3738,28.8737
191.1765,29.1492
191.1445,29.1940
191.1424,29.1963
191.1424,29.1963
190.9774,29.3848
190.8830,29.4927
190.8807,29.4948
190.5958,29.7623
190.5958,29.7623
190.5936,29.7644
190.5911,29.7663
190.5911,29.7663
190.2815,30.0048
190.2790,30.0067
190.2764,30.0083
190.2764,30.0083
190.0950,30.1216
189.9424,30.2170
189.5868,30.3935
189.2157,30.5345
188.8326,30.6386
188.8295,30.6391
188.8295,30.6391
188.4442,30.7043
188.4442,30.7043
188.4411,30.7048
188.4381,30.7050
188.4380,30.7050
188.0482,30.7323
188.0482,30.7323
188.0451,30.7325
187.7888,30.7253
187.6513,30.7215
187.6513,30.7215
187.6483,30.7214
187.6452,30.7210
187.6452,30.7210
187.4567,30.6972
187.2544,30.6717
187.2514,30.6710
187.2514,30.6710
186.8703,30.5844
186.8703,30.5844
186.8673,30.5837
186.7194,30.5345
186.4935,30.4594
186.4935,30.4594
186.4906,30.4584
186.3474,30.3946
186.1307,30.2982
186.1307,30.2982
186.1279,30.2969
186.0954,30.2785
185.7854,30.1024
185.7854,30.1024
185.7827,30.1008
185.4583,29.8720
185.4495,29.8644
185.1601,29.6146
185.1578,29.6126
185.1557,29.6104
185.1557,29.6104
184.8861,29.3273
184.8840,29.3251
184.8815,29.3219
184.6415,29.0147
184.6415,29.0147
184.6396,29.0123
184.6380,29.0097
184.6380,29.0097
184.4286,28.6797
184.4285,28.6797
184.4269,28.6771
184.4006,28.6250
184.3248,28.4749
184.2479,28.3227
184.2468,28.3199
184.2468,28.3199
184.1055,27.9555
184.1055,27.9555
184.1043,27.9526
184.0143,27.6300
183.9984,27.5732
183.9984,27.5732
183.9976,27.5702
183.9286,27.1793
183.8982,26.7835
183.8966,26.6700
183.8980,26.6421
183.8994,26.6133
147.5730,26.6133
147.5729,26.6164
147.5725,26.6275
147.5607,26.9668
147.5591,27.0100
147.5587,27.0131
147.5587,27.0131
147.5526,27.0588
147.5066,27.4035
147.5059,27.4065
147.5059,27.4065
147.4535,27.6300
147.4160,27.7900
147.2880,28.1658
147.1240,28.5274
146.9256,28.8712
146.9238,28.8737
146.9238,28.8737
146.7265,29.1492
146.6945,29.1940
146.6924,29.1963
146.6924,29.1963
146.5274,29.3848
146.4330,29.4927
146.4307,29.4948
146.1458,29.7623
146.1458,29.7623
146.1436,29.7644
146.1411,29.7663
146.1411,29.7663
145.8315,30.0048
145.8290,30.0067
145.8264,30.0083
145.8264,30.0083
145.6450,30.1216
145.4924,30.2170
145.1368,30.3935
144.7657,30.5345
144.3826,30.6386
144.3795,30.6391
144.3795,30.6391
143.9942,30.7043
143.9942,30.7043
143.9911,30.7048
143.9881,30.7050
143.9880,30.7050
143.5982,30.7323
143.5982,30.7323
143.5951,30.7325
143.3388,30.7253
143.2013,30.7215
143.2013,30.7215
143.1983,30.7214
143.1952,30.7210
143.1952,30.7210
143.0067,30.6972
142.8044,30.6717
142.8014,30.6710
142.8014,30.6710
142.4203,30.5844
142.4203,30.5844
142.4173,30.5837
142.2694,30.5345
142.0435,30.4594
142.0435,30.4594
142.0406,30.4584
141.8974,30.3946
141.6807,30.2982
141.6807,30.2982
141.6779,30.2969
141.6454,30.2785
141.3354,30.1024
141.3354,30.1024
141.3327,30.1008
141.0083,29.8720
140.9995,29.8644
140.7101,29.6146
140.7078,29.6126
140.7057,29.6104
140.7057,29.6104
140.4361,29.3273
140.4340,29.3251
140.4315,29.3219
140.1915,29.0147
140.1915,29.0147
140.1896,29.0123
140.1880,29.0097
140.1880,29.0097
139.9786,28.6797
139.9785,28.6797
139.9769,28.6771
139.9506,28.6250
139.8748,28.4749
139.7979,28.3227
139.7968,28.3199
139.7968,28.3199
139.6555,27.9555
139.6555,27.9555
139.6543,27.9526
139.5643,27.6300
139.5484,27.5732
139.5484,27.5732
139.5476,27.5702
139.4786,27.1793
139.4482,26.7835
139.4466,26.6700
139.4480,26.6421
139.4494,26.6133
103.1230,26.6133
103.1229,26.6164
103.1225,26.6275
103.1107,26.9668
103.1091,27.0100
103.1087,27.0131
103.1087,27.0131
103.1026,27.0588
103.0566,27.4035
103.0559,27.4065
103.0559,27.4065
103.0035,27.6300
102.9660,27.7900
102.8380,28.1658
102.6740,28.5274
102.4756,28.8712
102.4738,28.8737
102.4738,28.8737
102.2765,29.1492
102.2445,29.1940
102.2424,29.1963
102.2424,29.1963
102.0774,29.3848
101.9830,29.4927
101.9807,29.4948
101.6958,29.7623
101.6958,29.7623
101.6936,29.7644
101.6911,29.7663
101.6911,29.7663
101.3815,30.0048
101.3790,30.0067
101.3764,30.0083
101.3764,30.0083
101.1950,30.1216
101.0424,30.2170
100.6868,30.3935
100.3157,30.5345
99.9326,30.6386
99.9295,30.6391
99.9295,30.6391
99.5442,30.7043
99.5442,30.7043
99.5411,30.7048
99.5381,30.7050
99.5380,30.7050
99.1482,30.7323
99.1482,30.7323
99.1451,30.7325
98.8888,30.7253
98.7513,30.7215
98.7513,30.7215
98.7483,30.7214
98.7452,30.7210
98.7452,30.7210
98.5567,30.6972
98.3544,30.6717
98.3514,30.6710
98.3514,30.6710
97.9703,30.5844
97.9703,30.5844
97.9673,30.5837
97.8194,30.5345
97.5935,30.4594
97.5935,30.4594
97.5906,30.4584
97.4474,30.3946
97.2307,30.2982
97.2307,30.2982
97.2279,30.2969
97.1954,30.2785
96.8854,30.1024
96.8854,30.1024
96.8827,30.1008
96.5583,29.8720
96.5495,29.8644
96.2601,29.6146
96.2578,29.6126
96.2557,29.6104
96.2557,29.6104
95.9861,29.3273
95.9840,29.3251
95.9815,29.3219
95.7415,29.0147
95.7415,29.0147
95.7396,29.0123
95.7380,29.0097
95.7380,29.0097
95.5286,28.6797
95.5285,28.6797
95.5269,28.6771
95.5006,28.6250
95.4248,28.4749
95.3479,28.3227
95.3468,28.3199
95.3468,28.3199
95.2055,27.9555
95.2055,27.9555
95.2043,27.9526
95.1143,27.6300
95.0984,27.5732
95.0984,27.5732
95.0976,27.5702
95.0286,27.1793
94.9982,26.7835
94.9966,26.6700
94.9980,26.6421
94.9994,26.6133
58.6730,26.6133
58.6729,26.6164
58.6725,26.6275
58.6607,26.9668
58.6591,27.0100
58.6587,27.0131
58.6587,27.0131
58.6526,27.0588
58.6066,27.4035
58.6059,27.4065
58.6059,27.4065
58.5535,27.6300
58.5160,27.7900
58.3880,28.1658
58.2240,28.5274
58.0256,28.8712
58.0238,28.8737
58.0238,28.8737
57.8265,29.1492
57.7945,29.1940
57.7924,29.1963
57.7924,29.1963
57.6274,29.3848
57.5330,29.4927
57.5307,29.4948
57.2458,29.7623
57.2458,29.7623
57.2436,29.7644
57.2411,29.7663
57.2411,29.7663
56.9315,30.0048
56.9290,30.0067
56.9264,30.0083
56.9264,30.0083
56.7450,30.1216
56.5924,30.2170
56.2368,30.3935
55.8657,30.5345
55.4826,30.6386
55.4795,30.6391
55.4795,30.6391
55.0942,30.7043
55.0942,30.7043
55.0911,30.7048
55.0881,30.7050
55.0880,30.7050
54.6982,30.7323
54.6982,30.7323
54.6951,30.7325
54.4388,30.7253
54.3013,30.7215
54.3013,30.7215
54.2983,30.7214
54.2952,30.7210
54.2952,30.7210
54.1067,30.6972
53.9044,30.6717
53.9014,30.6710
53.9014,30.6710
53.5203,30.5844
53.5203,30.5844
53.5173,30.5837
53.3694,30.5345
53.1435,30.4594
53.1435,30.4594
53.1406,30.4584
52.9974,30.3946
52.7807,30.2982
52.7807,30.2982
52.7779,30.2969
52.7454,30.2785
52.4354,30.1024
52.4354,30.1024
52.4327,30.1008
52.1083,29.8720
52.0995,29.8644
51.8101,29.6146
51.8078,29.6126
51.8057,29.6104
51.8057,29.6104
51.5361,29.3273
51.5340,29.3251
51.5315,29.3219
51.2915,29.0147
51.2915,29.0147
51.2896,29.0123
51.2880,29.0097
51.2880,29.0097
51.0786,28.6797
51.0785,28.6797
51.0769,28.6771
51.0506,28.6250
50.9748,28.4749
50.8979,28.3227
50.8968,28.3199
50.8968,28.3199
50.7555,27.9555
50.7555,27.9555
50.7543,27.9526
50.6643,27.6300
50.6484,27.5732
50.6484,27.5732
50.6476,27.5702
50.5786,27.1793
50.5482,26.7835
50.5466,26.6700
32.8986,26.6700
32.8783,27.0556
32.8778,27.0588
32.8778,27.0588
32.8592,27.1762
32.8180,27.4369
32.7180,27.8098
32.5797,28.1703
32.5782,28.1732
32.5020,28.3227
32.4044,28.5143
32.4026,28.5170
32.4026,28.5170
32.2987,28.6771
32.1941,28.8381
31.9511,29.1381
31.6781,29.4111
31.3781,29.6541
31.0543,29.8644
31.0513,29.8659
31.0513,29.8659
30.7751,30.0067
30.7103,30.0397
30.3498,30.1780
29.9769,30.2780
29.7744,30.3100
29.5988,30.3378
29.5988,30.3378
29.5956,30.3383
29.2100,30.3586
28.8244,30.3383
28.8212,30.3378
28.8212,30.3378
28.6456,30.3100
28.4431,30.2780
28.0702,30.1780
27.7097,30.0397
27.6449,30.0067
27.3687,29.8659
27.3687,29.8659
27.3657,29.8644
27.0419,29.6541
26.7419,29.4111
26.4689,29.1381
26.2259,28.8381
26.1213,28.6771
26.0174,28.5170
26.0174,28.5170
26.0156,28.5143
25.9180,28.3227
25.8418,28.1732
25.8403,28.1703
25.7020,27.8098
25.6020,27.4369
25.5608,27.1762
25.5422,27.0588
25.5422,27.0588
25.5417,27.0556
25.5214,26.6700
25.5417,26.2844
25.5429,26.2766
25.6015,25.9064
25.6020,25.9031
25.7020,25.5302
25.7141,25.4986
25.8392,25.1728
25.8403,25.1697
25.8929,25.0665
26.0141,24.8287
26.0141,24.8287
26.0156,24.8257
26.0663,24.7477
26.2241,24.5047
26.2259,24.5019
26.4689,24.2019
26.7419,23.9289
27.0419,23.6859
27.2708,23.5373
27.3630,23.4774
27.3630,23.4774
27.3657,23.4756
27.3687,23.4741
27.3687,23.4741
27.7068,23.3018
27.7097,23.3003
28.0702,23.1620
28.4431,23.0620
28.6456,23.0300
28.8212,23.0022
28.8212,23.0022
28.8244,23.0017
29.2100,22.9814
29.5956,23.0017
29.5988,23.0022
29.5988,23.0022
29.7744,23.0300
29.9769,23.0620
30.3498,23.1620
30.7103,23.3003
30.7132,23.3018
31.0513,23.4741
31.0513,23.4741
31.0543,23.4756
31.0570,23.4774
31.0570,23.4774
31.2708,23.6163
31.3781,23.6859
31.6781,23.9289
31.9511,24.2019
32.1941,24.5019
32.1959,24.5047
32.3537,24.7477
32.4044,24.8257
32.4059,24.8287
32.4059,24.8287
32.5271,25.0665
32.5797,25.1697
32.5808,25.1728
32.7059,25.4986
32.7180,25.5302
32.8180,25.9031
32.8185,25.9064
32.8771,26.2766
32.8783,26.2844
32.8971,26.6421
32.8986,26.6700
50.5466,26.6700
50.5480,26.6421
50.5632,26.3310
50.5660,26.2735
50.6054,26.0069
50.6235,25.8838
50.6235,25.8838
50.6240,25.8807
50.7200,25.4955
50.7383,25.4443
50.7849,25.3135
50.8532,25.1216
51.0222,24.7624
51.0520,24.7124
51.1626,24.5269
51.2255,24.4214
51.4611,24.1018
51.7267,23.8068
52.0199,23.5391
52.3378,23.3013
52.3866,23.2717
52.6747,23.0972
52.6747,23.0972
52.6774,23.0956
53.0354,22.9241
53.0948,22.9025
53.4055,22.7894
53.4055,22.7894
53.4084,22.7883
53.6153,22.7352
53.7900,22.6904
53.7900,22.6904
53.7929,22.6896
54.1853,22.6289
54.1883,22.6287
54.1883,22.6287
54.2171,22.6271
54.5816,22.6067
54.5847,22.6068
54.5847,22.6068
54.8430,22.6177
54.9783,22.6233
54.9813,22.6238
54.9813,22.6238
55.0210,22.6293
55.3714,22.6786
55.7573,22.7719
56.1322,22.9025
56.1790,22.9241
56.4898,23.0677
56.4898,23.0677
56.4926,23.0690
56.8350,23.2699
56.8760,23.2997
57.1537,23.5014
57.1537,23.5014
57.1561,23.5032
57.1584,23.5053
57.1584,23.5053
57.1989,23.5412
57.4530,23.7668
57.4551,23.7691
57.4551,23.7691
57.7206,24.0558
57.7207,24.0558
57.7227,24.0581
57.7246,24.0605
57.7246,24.0606
57.7578,24.1043
57.9628,24.3743
57.9644,24.3769
57.9644,24.3769
58.1692,24.7098
58.1708,24.7124
58.3448,25.0693
58.3459,25.0721
58.3459,25.0721
58.4319,25.3033
58.4832,25.4414
58.5846,25.8252
58.6481,26.2171
58.6483,26.2201
58.6483,26.2201
58.6552,26.3310
58.6730,26.6133
94.9994,26.6133
95.0132,26.3310
95.0160,26.2735
95.0554,26.0069
95.0735,25.8838
95.0735,25.8838
95.0740,25.8807
95.1700,25.4955
95.1883,25.4443
95.2349,25.3135
95.3032,25.1216
95.4722,24.7624
95.5020,24.7124
95.6126,24.5269
95.6755,24.4214
95.9111,24.1018
96.1767,23.8068
96.4699,23.5391
96.7878,23.3013
96.8366,23.2717
97.1247,23.0972
97.1247,23.0972
97.1274,23.0956
97.4854,22.9241
97.5448,22.9025
97.8555,22.7894
97.8555,22.7894
97.8584,22.7883
98.0653,22.7352
98.2400,22.6904
98.2400,22.6904
98.2429,22.6896
98.6353,22.6289
98.6383,22.6287
98.6383,22.6287
98.6671,22.6271
99.0316,22.6067
99.0347,22.6068
99.0347,22.6068
99.2930,22.6177
99.4283,22.6233
99.4313,22.6238
99.4313,22.6238
99.4710,22.6293
99.8214,22.6786
100.2073,22.7719
100.5822,22.9025
100.6290,22.9241
100.9398,23.0677
100.9398,23.0677
100.9426,23.0690
101.2850,23.2699
101.3260,23.2997
101.6037,23.5014
101.6037,23.5014
101.6061,23.5032
101.6084,23.5053
101.6084,23.5053
101.6489,23.5412
101.9030,23.7668
101.9051,23.7691
101.9051,23.7691
102.1706,24.0558
102.1707,24.0558
102.1727,24.0581
102.1746,24.0605
102.1746,24.0606
102.2078,24.1043
102.4128,24.3743
102.4144,24.3769
102.4144,24.3769
102.6192,24.7098
102.6208,24.7124
102.7948,25.0693
102.7959,25.0721
102.7959,25.0721
102.8819,25.3033
102.9332,25.4414
103.0346,25.8252
103.0981,26.2171
103.0983,26.2201
103.0983,26.2201
103.1052,26.3310
103.1230,26.6133
139.4494,26.6133
139.4632,26.3310
139.4660,26.2735
139.5054,26.0069
139.5235,25.8838
139.5235,25.8838
139.5240,25.8807
139.6200,25.4955
139.6383,25.4443
139.6849,25.3135
139.7532,25.1216
139.9222,24.7624
139.9520,24.7124
140.0626,24.5269
140.1255,24.4214
140.3611,24.1018
140.6267,23.8068
140.9199,23.5391
141.2378,23.3013
141.2866,23.2717
141.5747,23.0972
141.5747,23.0972
141.5774,23.0956
141.9354,22.9241
141.9948,22.9025
142.3055,22.7894
142.3055,22.7894
142.3084,22.7883
142.5153,22.7352
142.6900,22.6904
142.6900,22.6904
142.6929,22.6896
143.0853,22.6289
143.0883,22.6287
143.0883,22.6287
143.1171,22.6271
143.4816,22.6067
143.4847,22.6068
143.4847,22.6068
143.7430,22.6177
143.8783,22.6233
143.8813,22.6238
143.8813,22.6238
143.9210,22.6293
144.2714,22.6786
144.6573,22.7719
145.0322,22.9025
145.0790,22.9241
145.3898,23.0677
145.3898,23.0677
145.3926,23.0690
145.7350,23.2699
145.7760,23.2997
146.0537,23.5014
146.0537,23.5014
146.0561,23.5032
146.0584,23.5053
146.0584,23.5053
146.0989,23.5412
146.3530,23.7668
146.3551,23.7691
146.3551,23.7691
146.6206,24.0558
146.6207,24.0558
146.6227,24.0581
146.6246,24.0605
146.6246,24.0606
146.6578,24.1043
146.8628,24.3743
146.8644,24.3769
146.8644,24.3769
147.0692,24.7098
147.0708,24.7124
147.2448,25.0693
147.2459,25.0721
147.2459,25.0721
147.3319,25.3033
147.3832,25.4414
147.4846,25.8252
147.5481,26.2171
147.5483,26.2201
147.5483,26.2201
147.5552,26.3310
147.5730,26.6133
183.8994,26.6133
183.9132,26.3310
183.9160,26.2735
183.9554,26.0069
183.9735,25.8838
183.9735,25.8838
183.9740,25.8807
184.0700,25.4955
184.0883,25.4443
184.1349,25.3135
184.2032,25.1216
184.3722,24.7624
184.4020,24.7124
184.5126,24.5269
184.5755,24.4214
184.8111,24.1018
185.0767,23.8068
185.3699,23.5391
185.6878,23.3013
185.7366,23.2717
186.0247,23.0972
186.0247,23.0972
186.0274,23.0956
186.3854,22.9241
186.4448,22.9025
186.7555,22.7894
186.7555,22.7894
186.7584,22.7883
186.9653,22.7352
187.1400,22.6904
187.1400,22.6904
187.1429,22.6896
187.5353,22.6289
187.5383,22.6287
187.5383,22.6287
187.5671,22.6271
187.9316,22.6067
187.9347,22.6068
187.9347,22.6068
188.1930,22.6177
188.3283,22.6233
188.3313,22.6238
188.3313,22.6238
188.3710,22.6293
188.7214,22.6786
189.1073,22.7719
189.4822,22.9025
189.5290,22.9241
189.8398,23.0677
189.8398,23.0677
189.8426,23.0690
190.1850,23.2699
190.2260,23.2997
190.5037,23.5014
190.5037,23.5014
190.5061,23.5032
190.5084,23.5053
190.5084,23.5053
190.5489,23.5412
190.8030,23.7668
190.8051,23.7691
190.8051,23.7691
191.0706,24.0558
191.0707,24.0558
191.0727,24.0581
191.0746,24.0605
191.0746,24.0606
191.1078,24.1043
191.3128,24.3743
191.3144,24.3769
191.3144,24.3769
191.5192,24.7098
191.5208,24.7124
191.6948,25.0693
191.6959,25.0721
191.6959,25.0721
191.7819,25.3033
191.8332,25.4414
191.9346,25.8252
191.9981,26.2171
191.9983,26.2201
191.9983,26.2201
192.0052,26.3310
192.0230,26.6133
212.8515,26.6133
212.8515,7.6694
212.8500,7.6500
212.8477,7.6351
212.8477,7.6351
212.8463,7.6263
212.8490,7.6058
212.8499,7.5840
212.8343,7.2271
212.8334,7.2161
212.7828,6.8316
212.7809,6.8208
212.6969,6.4422
212.6941,6.4316
212.5775,6.0617
212.5737,6.0514
212.4253,5.6931
212.4206,5.6831
212.2416,5.3391
212.2361,5.3296
212.0277,5.0025
212.0214,4.9935
211.7853,4.6859
211.7783,4.6774
211.5163,4.3915
211.5085,4.3837
211.4527,4.3326
211.2226,4.1217
211.2141,4.1147
210.9065,3.8786
210.8975,3.8723
210.5704,3.6639
210.5609,3.6584
210.2169,3.4794
210.2069,3.4747
209.8486,3.3263
209.8383,3.3225
209.4684,3.2059
209.4578,3.2031
209.0792,3.1191
209.0684,3.1172
208.6839,3.0666
208.6729,3.0657
208.3234,3.0504
208.2986,3.0518
208.2863,3.0537
208.2774,3.0525
208.2774,3.0525
208.2586,3.0501
208.2547,3.0496
208.2384,3.0485
8.9394,3.0485
Z" /> 
</g>
</g>
</g>
<g style="fill:#FFFFFF; fill-opacity:1.0000; 
stroke:#FFFFFF; stroke-width:0.0000; stroke-opacity:1; 
stroke-linecap:round; stroke-linejoin:round;">
<circle cx="187.9600" cy="33.0200" r="0.5000" /> 
</g>
<g style="fill:#FFFFFF; fill-opacity:1.0000; 
stroke:#FFFFFF; stroke-width:0.0212; stroke-opacity:1; 
stroke-linecap:round; stroke-linejoin:round;">
</g>
<g style="fill:#000000; fill-opacity:1.0000; 
stroke:#000000; stroke-width:0.0212; stroke-opacity:1; 
stroke-linecap:round; stroke-linejoin:round;">
</g>
<g style="fill:#C2C2C2; fill-opacity:1.0000; 
stroke:#C2C2C2; stroke-width:0.0212; stroke-opacity:1; 
stroke-linecap:round; stroke-linejoin:round;">
</g>
<g style="fill:#C2C2C2; fill-opacity:0.0; 
stroke:#C2C2C2; stroke-width:0.1000; stroke-opacity:1; 
stroke-linecap:round; stroke-linejoin:round;">
<path d="M8.8900 2.5400 A5.0800 5.0800 0.0 0 0 3.8100 7.6200" />
<path d="M208.2800 2.5400
L8.8900 2.5400
" />
<path d="M208.2800 135.8900 A5.0800 5.0800 0.0 0 0 213.3600 130.8100" />
<path d="M3.8100 130.8100 A5.0800 5.0800 0.0 0 0 8.8900 135.8900" />
<path d="M3.8100 7.6200
L3.8100 130.8100
" />
</g>
<g style="fill:#C2C2C2; fill-opacity:0.0; 
stroke:#C2C2C2; stroke-width:0.1500; stroke-opacity:1; 
stroke-linecap:round; stroke-linejoin:round;">
<circle cx="143.5100" cy="115.5700" r="3.5500" /> 
</g>
<g style="fill:#C2C2C2; fill-opacity:0.0; 
stroke:#C2C2C2; stroke-width:0.1000; stroke-opacity:1; 
stroke-linecap:round; stroke-linejoin:round;">
<path d="M213.3600 7.6200 A5.0800 5.0800 0.0 0 0 208.2800 2.5400" />
</g>
<g style="fill:#C2C2C2; fill-opacity:0.0; 
stroke:#C2C2C2; stroke-width:0.1500; stroke-opacity:1; 
stroke-linecap:round; stroke-linejoin:round;">
<circle cx="187.9600" cy="26.6700" r="3.5500" /> 
<circle cx="187.9600" cy="71.1200" r="3.5500" /> 
<circle cx="99.0600" cy="26.6700" r="3.5500" /> 
<circle cx="54.6100" cy="26.6700" r="3.5500" /> 
<circle cx="54.6100" cy="115.5700" r="3.5500" /> 
<circle cx="29.2100" cy="71.1200" r="3.1750" /> 
<circle cx="29.2100" cy="26.6700" r="3.1750" /> 
</g>
<g style="fill:#C2C2C2; fill-opacity:0.0; 
stroke:#C2C2C2; stroke-width:0.1000; stroke-opacity:1; 
stroke-linecap:round; stroke-linejoin:round;">
<path d="M213.3600 130.8100
L213.3600 7.6200
" />
<path d="M8.8900 135.8900
L208.2800 135.8900
" />
</g>
<g style="fill:#C2C2C2; fill-opacity:0.0; 
stroke:#C2C2C2; stroke-width:0.1500; stroke-opacity:1; 
stroke-linecap:round; stroke-linejoin:round;">
<circle cx="187.9600" cy="115.5700" r="3.5500" /> 
<circle cx="99.0600" cy="115.5700" r="3.5500" /> 
<circle cx="54.6100" cy="71.1200" r="3.5500" /> 
<circle cx="29.2100" cy="115.5700" r="3.1750" /> 
<circle cx="143.5100" cy="71.1200" r="3.5500" /> 
<circle cx="99.0600" cy="71.1200" r="3.5500" /> 
<circle cx="143.5100" cy="26.6700" r="3.5500" /> 
<g >
</g>
<g >
</g>
<g >
</g>
<g >
</g>
<g >
</g>
<g >
</g>
<g >
</g>
<g >
</g>
</g> 
</svg>
