G04 #@! TF.GenerationSoftware,KiCad,Pcbnew,6.0.5+dfsg-1~bpo11+1*
G04 #@! TF.CreationDate,2022-07-16T13:24:40+00:00*
G04 #@! TF.ProjectId,power_supply,706f7765-725f-4737-9570-706c792e6b69,0*
G04 #@! TF.SameCoordinates,Original*
G04 #@! TF.FileFunction,Legend,Bot*
G04 #@! TF.FilePolarity,Positive*
%FSLAX46Y46*%
G04 Gerber Fmt 4.6, Leading zero omitted, Abs format (unit mm)*
G04 Created by KiCad (PCBNEW 6.0.5+dfsg-1~bpo11+1) date 2022-07-16 13:24:40*
%MOMM*%
%LPD*%
G01*
G04 APERTURE LIST*
%ADD10R,1.905000X2.000000*%
%ADD11O,1.905000X2.000000*%
%ADD12C,1.600000*%
%ADD13O,1.600000X1.600000*%
%ADD14R,2.200000X2.200000*%
%ADD15O,2.200000X2.200000*%
%ADD16C,2.600000*%
%ADD17C,1.700000*%
%ADD18C,7.500000*%
%ADD19C,6.000000*%
%ADD20R,2.400000X2.400000*%
%ADD21C,2.400000*%
%ADD22C,1.440000*%
%ADD23R,1.600000X1.600000*%
%ADD24C,2.000000*%
%ADD25O,2.700000X3.300000*%
G04 APERTURE END LIST*
%LPC*%
D10*
X130556000Y-88900000D03*
D11*
X133096000Y-88900000D03*
X135636000Y-88900000D03*
D12*
X138176000Y-80772000D03*
D13*
X128016000Y-80772000D03*
D14*
X134112000Y-98044000D03*
D15*
X144272000Y-98044000D03*
D16*
X218186000Y-106934000D03*
X218186000Y-99314000D03*
G36*
G01*
X167806000Y-87214000D02*
X167806000Y-86014000D01*
G75*
G02*
X168056000Y-85764000I250000J0D01*
G01*
X169256000Y-85764000D01*
G75*
G02*
X169506000Y-86014000I0J-250000D01*
G01*
X169506000Y-87214000D01*
G75*
G02*
X169256000Y-87464000I-250000J0D01*
G01*
X168056000Y-87464000D01*
G75*
G02*
X167806000Y-87214000I0J250000D01*
G01*
G37*
D17*
X171196000Y-86614000D03*
X168656000Y-89154000D03*
X171196000Y-89154000D03*
X168656000Y-91694000D03*
X171196000Y-91694000D03*
X168656000Y-94234000D03*
X171196000Y-94234000D03*
X168656000Y-96774000D03*
X171196000Y-96774000D03*
D14*
X93032000Y-86158000D03*
D15*
X82872000Y-86158000D03*
D14*
X93032000Y-91238000D03*
D15*
X82872000Y-91238000D03*
D18*
X84836000Y-76454000D03*
D14*
X93032000Y-101398000D03*
D15*
X82872000Y-101398000D03*
D19*
X145796000Y-119380000D03*
X120396000Y-119380000D03*
D20*
X105156000Y-106934000D03*
D21*
X105156000Y-114434000D03*
G36*
G01*
X205652000Y-87214000D02*
X205652000Y-86014000D01*
G75*
G02*
X205902000Y-85764000I250000J0D01*
G01*
X207102000Y-85764000D01*
G75*
G02*
X207352000Y-86014000I0J-250000D01*
G01*
X207352000Y-87214000D01*
G75*
G02*
X207102000Y-87464000I-250000J0D01*
G01*
X205902000Y-87464000D01*
G75*
G02*
X205652000Y-87214000I0J250000D01*
G01*
G37*
D17*
X209042000Y-86614000D03*
X206502000Y-89154000D03*
X209042000Y-89154000D03*
X206502000Y-91694000D03*
X209042000Y-91694000D03*
X206502000Y-94234000D03*
X209042000Y-94234000D03*
X206502000Y-96774000D03*
X209042000Y-96774000D03*
D22*
X153162000Y-104394000D03*
X153162000Y-106934000D03*
X153162000Y-109474000D03*
D12*
X124206000Y-104434000D03*
X124206000Y-109434000D03*
G36*
G01*
X205526000Y-110074000D02*
X205526000Y-108874000D01*
G75*
G02*
X205776000Y-108624000I250000J0D01*
G01*
X206976000Y-108624000D01*
G75*
G02*
X207226000Y-108874000I0J-250000D01*
G01*
X207226000Y-110074000D01*
G75*
G02*
X206976000Y-110324000I-250000J0D01*
G01*
X205776000Y-110324000D01*
G75*
G02*
X205526000Y-110074000I0J250000D01*
G01*
G37*
D17*
X208916000Y-109474000D03*
X206376000Y-112014000D03*
X208916000Y-112014000D03*
X206376000Y-114554000D03*
X208916000Y-114554000D03*
X206376000Y-117094000D03*
X208916000Y-117094000D03*
X206376000Y-119634000D03*
X208916000Y-119634000D03*
G36*
G01*
X193206000Y-87214000D02*
X193206000Y-86014000D01*
G75*
G02*
X193456000Y-85764000I250000J0D01*
G01*
X194656000Y-85764000D01*
G75*
G02*
X194906000Y-86014000I0J-250000D01*
G01*
X194906000Y-87214000D01*
G75*
G02*
X194656000Y-87464000I-250000J0D01*
G01*
X193456000Y-87464000D01*
G75*
G02*
X193206000Y-87214000I0J250000D01*
G01*
G37*
X196596000Y-86614000D03*
X194056000Y-89154000D03*
X196596000Y-89154000D03*
X194056000Y-91694000D03*
X196596000Y-91694000D03*
X194056000Y-94234000D03*
X196596000Y-94234000D03*
X194056000Y-96774000D03*
X196596000Y-96774000D03*
G36*
G01*
X167806000Y-110074000D02*
X167806000Y-108874000D01*
G75*
G02*
X168056000Y-108624000I250000J0D01*
G01*
X169256000Y-108624000D01*
G75*
G02*
X169506000Y-108874000I0J-250000D01*
G01*
X169506000Y-110074000D01*
G75*
G02*
X169256000Y-110324000I-250000J0D01*
G01*
X168056000Y-110324000D01*
G75*
G02*
X167806000Y-110074000I0J250000D01*
G01*
G37*
X171196000Y-109474000D03*
X168656000Y-112014000D03*
X171196000Y-112014000D03*
X168656000Y-114554000D03*
X171196000Y-114554000D03*
X168656000Y-117094000D03*
X171196000Y-117094000D03*
X168656000Y-119634000D03*
X171196000Y-119634000D03*
D23*
X160528000Y-96814000D03*
D12*
X160528000Y-99314000D03*
D20*
X105156000Y-88216220D03*
D21*
X105156000Y-95716220D03*
D12*
X138176000Y-123952000D03*
D13*
X128016000Y-123952000D03*
D12*
X130556000Y-94274000D03*
X130556000Y-99274000D03*
D19*
X145796000Y-84328000D03*
X120396000Y-84328000D03*
D18*
X218186000Y-76454000D03*
X218186000Y-127254000D03*
D14*
X128016000Y-75819000D03*
D15*
X138176000Y-75819000D03*
D18*
X154686000Y-127254000D03*
D24*
X218186000Y-119634000D03*
G36*
G01*
X193206000Y-110074000D02*
X193206000Y-108874000D01*
G75*
G02*
X193456000Y-108624000I250000J0D01*
G01*
X194656000Y-108624000D01*
G75*
G02*
X194906000Y-108874000I0J-250000D01*
G01*
X194906000Y-110074000D01*
G75*
G02*
X194656000Y-110324000I-250000J0D01*
G01*
X193456000Y-110324000D01*
G75*
G02*
X193206000Y-110074000I0J250000D01*
G01*
G37*
D17*
X196596000Y-109474000D03*
X194056000Y-112014000D03*
X196596000Y-112014000D03*
X194056000Y-114554000D03*
X196596000Y-114554000D03*
X194056000Y-117094000D03*
X196596000Y-117094000D03*
X194056000Y-119634000D03*
X196596000Y-119634000D03*
G36*
G01*
X180506000Y-87214000D02*
X180506000Y-86014000D01*
G75*
G02*
X180756000Y-85764000I250000J0D01*
G01*
X181956000Y-85764000D01*
G75*
G02*
X182206000Y-86014000I0J-250000D01*
G01*
X182206000Y-87214000D01*
G75*
G02*
X181956000Y-87464000I-250000J0D01*
G01*
X180756000Y-87464000D01*
G75*
G02*
X180506000Y-87214000I0J250000D01*
G01*
G37*
X183896000Y-86614000D03*
X181356000Y-89154000D03*
X183896000Y-89154000D03*
X181356000Y-91694000D03*
X183896000Y-91694000D03*
X181356000Y-94234000D03*
X183896000Y-94234000D03*
X181356000Y-96774000D03*
X183896000Y-96774000D03*
D18*
X154686000Y-76454000D03*
G36*
G01*
X180506000Y-110074000D02*
X180506000Y-108874000D01*
G75*
G02*
X180756000Y-108624000I250000J0D01*
G01*
X181956000Y-108624000D01*
G75*
G02*
X182206000Y-108874000I0J-250000D01*
G01*
X182206000Y-110074000D01*
G75*
G02*
X181956000Y-110324000I-250000J0D01*
G01*
X180756000Y-110324000D01*
G75*
G02*
X180506000Y-110074000I0J250000D01*
G01*
G37*
D17*
X183896000Y-109474000D03*
X181356000Y-112014000D03*
X183896000Y-112014000D03*
X181356000Y-114554000D03*
X183896000Y-114554000D03*
X181356000Y-117094000D03*
X183896000Y-117094000D03*
X181356000Y-119634000D03*
X183896000Y-119634000D03*
D18*
X84836000Y-127254000D03*
D14*
X128016000Y-129159000D03*
D15*
X138176000Y-129159000D03*
G36*
G01*
X84366000Y-112143999D02*
X84366000Y-109344001D01*
G75*
G02*
X84616001Y-109094000I250001J0D01*
G01*
X86815999Y-109094000D01*
G75*
G02*
X87066000Y-109344001I0J-250001D01*
G01*
X87066000Y-112143999D01*
G75*
G02*
X86815999Y-112394000I-250001J0D01*
G01*
X84616001Y-112394000D01*
G75*
G02*
X84366000Y-112143999I0J250001D01*
G01*
G37*
D25*
X89916000Y-110744000D03*
X85716000Y-116244000D03*
X89916000Y-116244000D03*
D12*
X124206000Y-94274000D03*
X124206000Y-99274000D03*
X130556000Y-104434000D03*
X130556000Y-109434000D03*
D14*
X93032000Y-96318000D03*
D15*
X82872000Y-96318000D03*
D23*
X160528000Y-106974000D03*
D12*
X160528000Y-109474000D03*
D24*
X218186000Y-86614000D03*
D10*
X135890000Y-114808000D03*
D11*
X133350000Y-114808000D03*
X130810000Y-114808000D03*
D22*
X153162000Y-94224000D03*
X153162000Y-96764000D03*
X153162000Y-99304000D03*
D14*
X134112000Y-105918000D03*
D15*
X144272000Y-105918000D03*
M02*
