M48
; DRILL file {KiCad 6.0.5+dfsg-1~bpo11+1} date Sat Jul 16 13:24:40 2022
; FORMAT={-:-/ absolute / metric / decimal}
; #@! TF.CreationDate,2022-07-16T13:24:40+00:00
; #@! TF.GenerationSoftware,Kicad,Pcbnew,6.0.5+dfsg-1~bpo11+1
; #@! TF.FileFunction,Plated,1,2,PTH
FMAT,2
METRIC
; #@! TA.AperFunction,Plated,PTH,ComponentDrill
T1C0.800
; #@! TA.AperFunction,Plated,PTH,ComponentDrill
T2C1.000
; #@! TA.AperFunction,Plated,PTH,ComponentDrill
T3C1.100
; #@! TA.AperFunction,Plated,PTH,ComponentDrill
T4C1.200
; #@! TA.AperFunction,Plated,PTH,ComponentDrill
T5C1.300
; #@! TA.AperFunction,Plated,PTH,ComponentDrill
T6C1.400
; #@! TA.AperFunction,Plated,PTH,ComponentDrill
T7C2.500
; #@! TA.AperFunction,Plated,PTH,ComponentDrill
T8C4.300
%
G90
G05
T1
X124.206Y-94.274
X124.206Y-99.274
X124.206Y-104.434
X124.206Y-109.434
X128.016Y-80.772
X128.016Y-123.952
X130.556Y-94.274
X130.556Y-99.274
X130.556Y-104.434
X130.556Y-109.434
X138.176Y-80.772
X138.176Y-123.952
X153.162Y-94.224
X153.162Y-96.764
X153.162Y-99.304
X153.162Y-104.394
X153.162Y-106.934
X153.162Y-109.474
X160.528Y-96.814
X160.528Y-99.314
X160.528Y-106.974
X160.528Y-109.474
T2
X168.656Y-86.614
X168.656Y-89.154
X168.656Y-91.694
X168.656Y-94.234
X168.656Y-96.774
X168.656Y-109.474
X168.656Y-112.014
X168.656Y-114.554
X168.656Y-117.094
X168.656Y-119.634
X171.196Y-86.614
X171.196Y-89.154
X171.196Y-91.694
X171.196Y-94.234
X171.196Y-96.774
X171.196Y-109.474
X171.196Y-112.014
X171.196Y-114.554
X171.196Y-117.094
X171.196Y-119.634
X181.356Y-86.614
X181.356Y-89.154
X181.356Y-91.694
X181.356Y-94.234
X181.356Y-96.774
X181.356Y-109.474
X181.356Y-112.014
X181.356Y-114.554
X181.356Y-117.094
X181.356Y-119.634
X183.896Y-86.614
X183.896Y-89.154
X183.896Y-91.694
X183.896Y-94.234
X183.896Y-96.774
X183.896Y-109.474
X183.896Y-112.014
X183.896Y-114.554
X183.896Y-117.094
X183.896Y-119.634
X194.056Y-86.614
X194.056Y-89.154
X194.056Y-91.694
X194.056Y-94.234
X194.056Y-96.774
X194.056Y-109.474
X194.056Y-112.014
X194.056Y-114.554
X194.056Y-117.094
X194.056Y-119.634
X196.596Y-86.614
X196.596Y-89.154
X196.596Y-91.694
X196.596Y-94.234
X196.596Y-96.774
X196.596Y-109.474
X196.596Y-112.014
X196.596Y-114.554
X196.596Y-117.094
X196.596Y-119.634
X206.376Y-109.474
X206.376Y-112.014
X206.376Y-114.554
X206.376Y-117.094
X206.376Y-119.634
X206.502Y-86.614
X206.502Y-89.154
X206.502Y-91.694
X206.502Y-94.234
X206.502Y-96.774
X208.916Y-109.474
X208.916Y-112.014
X208.916Y-114.554
X208.916Y-117.094
X208.916Y-119.634
X209.042Y-86.614
X209.042Y-89.154
X209.042Y-91.694
X209.042Y-94.234
X209.042Y-96.774
X218.186Y-86.614
X218.186Y-119.634
T3
X82.872Y-86.158
X82.872Y-91.238
X82.872Y-96.318
X82.872Y-101.398
X93.032Y-86.158
X93.032Y-91.238
X93.032Y-96.318
X93.032Y-101.398
X128.016Y-75.819
X128.016Y-129.159
X130.556Y-88.9
X130.81Y-114.808
X133.096Y-88.9
X133.35Y-114.808
X134.112Y-98.044
X134.112Y-105.918
X135.636Y-88.9
X135.89Y-114.808
X138.176Y-75.819
X138.176Y-129.159
X144.272Y-98.044
X144.272Y-105.918
T4
X105.156Y-88.216
X105.156Y-95.716
X105.156Y-106.934
X105.156Y-114.434
T5
X218.186Y-99.314
X218.186Y-106.934
T6
X85.716Y-110.744
X85.716Y-116.244
X89.916Y-110.744
X89.916Y-116.244
T7
X120.396Y-84.328
X120.396Y-119.38
X145.796Y-84.328
X145.796Y-119.38
T8
X84.836Y-76.454
X84.836Y-127.254
X154.686Y-76.454
X154.686Y-127.254
X218.186Y-76.454
X218.186Y-127.254
T0
M30
