%FSLAX45Y45*%
G04 Gerber Fmt 4.5, Leading zero omitted, Abs format (unit mm)*
G04 Created by KiCad (PCBNEW 6.0.5+dfsg-1~bpo11+1) date 2022-07-16 13:24:40*
%MOMM*%
%LPD*%
G01*
G04 APERTURE LIST*
%TA.AperFunction,Profile*%
%ADD10C,0.100000*%
%TD*%
%ADD11C,0.200000*%
%ADD12C,0.080000*%
%ADD13C,0.100000*%
%ADD14C,0.110000*%
%ADD15C,0.120000*%
%ADD16C,0.130000*%
%ADD17C,0.140000*%
%ADD18C,0.250000*%
%ADD19C,0.430000*%
G04 APERTURE END LIST*
D10*
X22326600Y-7645400D02*
G75*
G03*
X21818600Y-7137400I-508000J0D01*
G01*
X8483600Y-7137400D02*
G75*
G03*
X7975600Y-7645400I0J-508000D01*
G01*
X7975600Y-7645400D02*
X7975600Y-12725400D01*
X22326600Y-12725400D02*
X22326600Y-7645400D01*
X21818600Y-13233400D02*
G75*
G03*
X22326600Y-12725400I0J508000D01*
G01*
X7975600Y-12725400D02*
G75*
G03*
X8483600Y-13233400I508000J0D01*
G01*
X8483600Y-13233400D02*
X21818600Y-13233400D01*
X21818600Y-7137400D02*
X8483600Y-7137400D01*
D11*
D12*
X12380600Y-9387400D02*
X12460600Y-9467400D01*
X12460600Y-9387400D02*
X12380600Y-9467400D01*
X12380600Y-9887400D02*
X12460600Y-9967400D01*
X12460600Y-9887400D02*
X12380600Y-9967400D01*
X12380600Y-10403400D02*
X12460600Y-10483400D01*
X12460600Y-10403400D02*
X12380600Y-10483400D01*
X12380600Y-10903400D02*
X12460600Y-10983400D01*
X12460600Y-10903400D02*
X12380600Y-10983400D01*
X12761600Y-8037200D02*
X12841600Y-8117200D01*
X12841600Y-8037200D02*
X12761600Y-8117200D01*
X12761600Y-12355200D02*
X12841600Y-12435200D01*
X12841600Y-12355200D02*
X12761600Y-12435200D01*
X13015600Y-9387400D02*
X13095600Y-9467400D01*
X13095600Y-9387400D02*
X13015600Y-9467400D01*
X13015600Y-9887400D02*
X13095600Y-9967400D01*
X13095600Y-9887400D02*
X13015600Y-9967400D01*
X13015600Y-10403400D02*
X13095600Y-10483400D01*
X13095600Y-10403400D02*
X13015600Y-10483400D01*
X13015600Y-10903400D02*
X13095600Y-10983400D01*
X13095600Y-10903400D02*
X13015600Y-10983400D01*
X13777600Y-8037200D02*
X13857600Y-8117200D01*
X13857600Y-8037200D02*
X13777600Y-8117200D01*
X13777600Y-12355200D02*
X13857600Y-12435200D01*
X13857600Y-12355200D02*
X13777600Y-12435200D01*
X15276200Y-9382400D02*
X15356200Y-9462400D01*
X15356200Y-9382400D02*
X15276200Y-9462400D01*
X15276200Y-9636400D02*
X15356200Y-9716400D01*
X15356200Y-9636400D02*
X15276200Y-9716400D01*
X15276200Y-9890400D02*
X15356200Y-9970400D01*
X15356200Y-9890400D02*
X15276200Y-9970400D01*
X15276200Y-10399400D02*
X15356200Y-10479400D01*
X15356200Y-10399400D02*
X15276200Y-10479400D01*
X15276200Y-10653400D02*
X15356200Y-10733400D01*
X15356200Y-10653400D02*
X15276200Y-10733400D01*
X15276200Y-10907400D02*
X15356200Y-10987400D01*
X15356200Y-10907400D02*
X15276200Y-10987400D01*
X16012800Y-9641400D02*
X16092800Y-9721400D01*
X16092800Y-9641400D02*
X16012800Y-9721400D01*
X16012800Y-9891400D02*
X16092800Y-9971400D01*
X16092800Y-9891400D02*
X16012800Y-9971400D01*
X16012800Y-10657400D02*
X16092800Y-10737400D01*
X16092800Y-10657400D02*
X16012800Y-10737400D01*
X16012800Y-10907400D02*
X16092800Y-10987400D01*
X16092800Y-10907400D02*
X16012800Y-10987400D01*
D13*
X16915600Y-8661400D02*
G75*
G03*
X16915600Y-8661400I-50000J0D01*
G01*
X16915600Y-8915400D02*
G75*
G03*
X16915600Y-8915400I-50000J0D01*
G01*
X16915600Y-9169400D02*
G75*
G03*
X16915600Y-9169400I-50000J0D01*
G01*
X16915600Y-9423400D02*
G75*
G03*
X16915600Y-9423400I-50000J0D01*
G01*
X16915600Y-9677400D02*
G75*
G03*
X16915600Y-9677400I-50000J0D01*
G01*
X16915600Y-10947400D02*
G75*
G03*
X16915600Y-10947400I-50000J0D01*
G01*
X16915600Y-11201400D02*
G75*
G03*
X16915600Y-11201400I-50000J0D01*
G01*
X16915600Y-11455400D02*
G75*
G03*
X16915600Y-11455400I-50000J0D01*
G01*
X16915600Y-11709400D02*
G75*
G03*
X16915600Y-11709400I-50000J0D01*
G01*
X16915600Y-11963400D02*
G75*
G03*
X16915600Y-11963400I-50000J0D01*
G01*
X17169600Y-8661400D02*
G75*
G03*
X17169600Y-8661400I-50000J0D01*
G01*
X17169600Y-8915400D02*
G75*
G03*
X17169600Y-8915400I-50000J0D01*
G01*
X17169600Y-9169400D02*
G75*
G03*
X17169600Y-9169400I-50000J0D01*
G01*
X17169600Y-9423400D02*
G75*
G03*
X17169600Y-9423400I-50000J0D01*
G01*
X17169600Y-9677400D02*
G75*
G03*
X17169600Y-9677400I-50000J0D01*
G01*
X17169600Y-10947400D02*
G75*
G03*
X17169600Y-10947400I-50000J0D01*
G01*
X17169600Y-11201400D02*
G75*
G03*
X17169600Y-11201400I-50000J0D01*
G01*
X17169600Y-11455400D02*
G75*
G03*
X17169600Y-11455400I-50000J0D01*
G01*
X17169600Y-11709400D02*
G75*
G03*
X17169600Y-11709400I-50000J0D01*
G01*
X17169600Y-11963400D02*
G75*
G03*
X17169600Y-11963400I-50000J0D01*
G01*
X18185600Y-8661400D02*
G75*
G03*
X18185600Y-8661400I-50000J0D01*
G01*
X18185600Y-8915400D02*
G75*
G03*
X18185600Y-8915400I-50000J0D01*
G01*
X18185600Y-9169400D02*
G75*
G03*
X18185600Y-9169400I-50000J0D01*
G01*
X18185600Y-9423400D02*
G75*
G03*
X18185600Y-9423400I-50000J0D01*
G01*
X18185600Y-9677400D02*
G75*
G03*
X18185600Y-9677400I-50000J0D01*
G01*
X18185600Y-10947400D02*
G75*
G03*
X18185600Y-10947400I-50000J0D01*
G01*
X18185600Y-11201400D02*
G75*
G03*
X18185600Y-11201400I-50000J0D01*
G01*
X18185600Y-11455400D02*
G75*
G03*
X18185600Y-11455400I-50000J0D01*
G01*
X18185600Y-11709400D02*
G75*
G03*
X18185600Y-11709400I-50000J0D01*
G01*
X18185600Y-11963400D02*
G75*
G03*
X18185600Y-11963400I-50000J0D01*
G01*
X18439600Y-8661400D02*
G75*
G03*
X18439600Y-8661400I-50000J0D01*
G01*
X18439600Y-8915400D02*
G75*
G03*
X18439600Y-8915400I-50000J0D01*
G01*
X18439600Y-9169400D02*
G75*
G03*
X18439600Y-9169400I-50000J0D01*
G01*
X18439600Y-9423400D02*
G75*
G03*
X18439600Y-9423400I-50000J0D01*
G01*
X18439600Y-9677400D02*
G75*
G03*
X18439600Y-9677400I-50000J0D01*
G01*
X18439600Y-10947400D02*
G75*
G03*
X18439600Y-10947400I-50000J0D01*
G01*
X18439600Y-11201400D02*
G75*
G03*
X18439600Y-11201400I-50000J0D01*
G01*
X18439600Y-11455400D02*
G75*
G03*
X18439600Y-11455400I-50000J0D01*
G01*
X18439600Y-11709400D02*
G75*
G03*
X18439600Y-11709400I-50000J0D01*
G01*
X18439600Y-11963400D02*
G75*
G03*
X18439600Y-11963400I-50000J0D01*
G01*
X19455600Y-8661400D02*
G75*
G03*
X19455600Y-8661400I-50000J0D01*
G01*
X19455600Y-8915400D02*
G75*
G03*
X19455600Y-8915400I-50000J0D01*
G01*
X19455600Y-9169400D02*
G75*
G03*
X19455600Y-9169400I-50000J0D01*
G01*
X19455600Y-9423400D02*
G75*
G03*
X19455600Y-9423400I-50000J0D01*
G01*
X19455600Y-9677400D02*
G75*
G03*
X19455600Y-9677400I-50000J0D01*
G01*
X19455600Y-10947400D02*
G75*
G03*
X19455600Y-10947400I-50000J0D01*
G01*
X19455600Y-11201400D02*
G75*
G03*
X19455600Y-11201400I-50000J0D01*
G01*
X19455600Y-11455400D02*
G75*
G03*
X19455600Y-11455400I-50000J0D01*
G01*
X19455600Y-11709400D02*
G75*
G03*
X19455600Y-11709400I-50000J0D01*
G01*
X19455600Y-11963400D02*
G75*
G03*
X19455600Y-11963400I-50000J0D01*
G01*
X19709600Y-8661400D02*
G75*
G03*
X19709600Y-8661400I-50000J0D01*
G01*
X19709600Y-8915400D02*
G75*
G03*
X19709600Y-8915400I-50000J0D01*
G01*
X19709600Y-9169400D02*
G75*
G03*
X19709600Y-9169400I-50000J0D01*
G01*
X19709600Y-9423400D02*
G75*
G03*
X19709600Y-9423400I-50000J0D01*
G01*
X19709600Y-9677400D02*
G75*
G03*
X19709600Y-9677400I-50000J0D01*
G01*
X19709600Y-10947400D02*
G75*
G03*
X19709600Y-10947400I-50000J0D01*
G01*
X19709600Y-11201400D02*
G75*
G03*
X19709600Y-11201400I-50000J0D01*
G01*
X19709600Y-11455400D02*
G75*
G03*
X19709600Y-11455400I-50000J0D01*
G01*
X19709600Y-11709400D02*
G75*
G03*
X19709600Y-11709400I-50000J0D01*
G01*
X19709600Y-11963400D02*
G75*
G03*
X19709600Y-11963400I-50000J0D01*
G01*
X20687600Y-10947400D02*
G75*
G03*
X20687600Y-10947400I-50000J0D01*
G01*
X20687600Y-11201400D02*
G75*
G03*
X20687600Y-11201400I-50000J0D01*
G01*
X20687600Y-11455400D02*
G75*
G03*
X20687600Y-11455400I-50000J0D01*
G01*
X20687600Y-11709400D02*
G75*
G03*
X20687600Y-11709400I-50000J0D01*
G01*
X20687600Y-11963400D02*
G75*
G03*
X20687600Y-11963400I-50000J0D01*
G01*
X20700200Y-8661400D02*
G75*
G03*
X20700200Y-8661400I-50000J0D01*
G01*
X20700200Y-8915400D02*
G75*
G03*
X20700200Y-8915400I-50000J0D01*
G01*
X20700200Y-9169400D02*
G75*
G03*
X20700200Y-9169400I-50000J0D01*
G01*
X20700200Y-9423400D02*
G75*
G03*
X20700200Y-9423400I-50000J0D01*
G01*
X20700200Y-9677400D02*
G75*
G03*
X20700200Y-9677400I-50000J0D01*
G01*
X20941600Y-10947400D02*
G75*
G03*
X20941600Y-10947400I-50000J0D01*
G01*
X20941600Y-11201400D02*
G75*
G03*
X20941600Y-11201400I-50000J0D01*
G01*
X20941600Y-11455400D02*
G75*
G03*
X20941600Y-11455400I-50000J0D01*
G01*
X20941600Y-11709400D02*
G75*
G03*
X20941600Y-11709400I-50000J0D01*
G01*
X20941600Y-11963400D02*
G75*
G03*
X20941600Y-11963400I-50000J0D01*
G01*
X20954200Y-8661400D02*
G75*
G03*
X20954200Y-8661400I-50000J0D01*
G01*
X20954200Y-8915400D02*
G75*
G03*
X20954200Y-8915400I-50000J0D01*
G01*
X20954200Y-9169400D02*
G75*
G03*
X20954200Y-9169400I-50000J0D01*
G01*
X20954200Y-9423400D02*
G75*
G03*
X20954200Y-9423400I-50000J0D01*
G01*
X20954200Y-9677400D02*
G75*
G03*
X20954200Y-9677400I-50000J0D01*
G01*
X21868600Y-8661400D02*
G75*
G03*
X21868600Y-8661400I-50000J0D01*
G01*
X21868600Y-11963400D02*
G75*
G03*
X21868600Y-11963400I-50000J0D01*
G01*
D14*
X8287200Y-8560800D02*
X8287200Y-8670800D01*
X8232200Y-8615800D02*
X8342200Y-8615800D01*
X8287200Y-9068800D02*
X8287200Y-9178800D01*
X8232200Y-9123800D02*
X8342200Y-9123800D01*
X8287200Y-9576800D02*
X8287200Y-9686800D01*
X8232200Y-9631800D02*
X8342200Y-9631800D01*
X8287200Y-10084800D02*
X8287200Y-10194800D01*
X8232200Y-10139800D02*
X8342200Y-10139800D01*
X9303200Y-8560800D02*
X9303200Y-8670800D01*
X9248200Y-8615800D02*
X9358200Y-8615800D01*
X9303200Y-9068800D02*
X9303200Y-9178800D01*
X9248200Y-9123800D02*
X9358200Y-9123800D01*
X9303200Y-9576800D02*
X9303200Y-9686800D01*
X9248200Y-9631800D02*
X9358200Y-9631800D01*
X9303200Y-10084800D02*
X9303200Y-10194800D01*
X9248200Y-10139800D02*
X9358200Y-10139800D01*
X12801600Y-7526900D02*
X12801600Y-7636900D01*
X12746600Y-7581900D02*
X12856600Y-7581900D01*
X12801600Y-12860900D02*
X12801600Y-12970900D01*
X12746600Y-12915900D02*
X12856600Y-12915900D01*
X13055600Y-8835000D02*
X13055600Y-8945000D01*
X13000600Y-8890000D02*
X13110600Y-8890000D01*
X13081000Y-11425800D02*
X13081000Y-11535800D01*
X13026000Y-11480800D02*
X13136000Y-11480800D01*
X13309600Y-8835000D02*
X13309600Y-8945000D01*
X13254600Y-8890000D02*
X13364600Y-8890000D01*
X13335000Y-11425800D02*
X13335000Y-11535800D01*
X13280000Y-11480800D02*
X13390000Y-11480800D01*
X13411200Y-9749400D02*
X13411200Y-9859400D01*
X13356200Y-9804400D02*
X13466200Y-9804400D01*
X13411200Y-10536800D02*
X13411200Y-10646800D01*
X13356200Y-10591800D02*
X13466200Y-10591800D01*
X13563600Y-8835000D02*
X13563600Y-8945000D01*
X13508600Y-8890000D02*
X13618600Y-8890000D01*
X13589000Y-11425800D02*
X13589000Y-11535800D01*
X13534000Y-11480800D02*
X13644000Y-11480800D01*
X13817600Y-7526900D02*
X13817600Y-7636900D01*
X13762600Y-7581900D02*
X13872600Y-7581900D01*
X13817600Y-12860900D02*
X13817600Y-12970900D01*
X13762600Y-12915900D02*
X13872600Y-12915900D01*
X14427200Y-9749400D02*
X14427200Y-9859400D01*
X14372200Y-9804400D02*
X14482200Y-9804400D01*
X14427200Y-10536800D02*
X14427200Y-10646800D01*
X14372200Y-10591800D02*
X14482200Y-10591800D01*
D15*
X10558027Y-8864049D02*
X10558027Y-8779195D01*
X10473173Y-8779195D01*
X10473173Y-8864049D01*
X10558027Y-8864049D01*
X10558027Y-9614049D02*
X10558027Y-9529195D01*
X10473173Y-9529195D01*
X10473173Y-9614049D01*
X10558027Y-9614049D01*
X10558027Y-10735827D02*
X10558027Y-10650973D01*
X10473173Y-10650973D01*
X10473173Y-10735827D01*
X10558027Y-10735827D01*
X10558027Y-11485827D02*
X10558027Y-11400973D01*
X10473173Y-11400973D01*
X10473173Y-11485827D01*
X10558027Y-11485827D01*
D16*
X21818600Y-9996400D02*
X21883600Y-9931400D01*
X21818600Y-9866400D01*
X21753600Y-9931400D01*
X21818600Y-9996400D01*
X21818600Y-10758400D02*
X21883600Y-10693400D01*
X21818600Y-10628400D01*
X21753600Y-10693400D01*
X21818600Y-10758400D01*
D17*
X8501600Y-11004400D02*
X8641600Y-11144400D01*
X8641600Y-11004400D02*
X8501600Y-11144400D01*
X8641600Y-11074400D02*
G75*
G03*
X8641600Y-11074400I-70000J0D01*
G01*
X8501600Y-11554400D02*
X8641600Y-11694400D01*
X8641600Y-11554400D02*
X8501600Y-11694400D01*
X8641600Y-11624400D02*
G75*
G03*
X8641600Y-11624400I-70000J0D01*
G01*
X8921600Y-11004400D02*
X9061600Y-11144400D01*
X9061600Y-11004400D02*
X8921600Y-11144400D01*
X9061600Y-11074400D02*
G75*
G03*
X9061600Y-11074400I-70000J0D01*
G01*
X8921600Y-11554400D02*
X9061600Y-11694400D01*
X9061600Y-11554400D02*
X8921600Y-11694400D01*
X9061600Y-11624400D02*
G75*
G03*
X9061600Y-11624400I-70000J0D01*
G01*
D18*
X11914600Y-8307800D02*
X12164600Y-8557800D01*
X12164600Y-8307800D02*
X11914600Y-8557800D01*
X12039600Y-8307800D02*
X12039600Y-8557800D01*
X11914600Y-8432800D02*
X12164600Y-8432800D01*
X11914600Y-11813000D02*
X12164600Y-12063000D01*
X12164600Y-11813000D02*
X11914600Y-12063000D01*
X12039600Y-11813000D02*
X12039600Y-12063000D01*
X11914600Y-11938000D02*
X12164600Y-11938000D01*
X14454600Y-8307800D02*
X14704600Y-8557800D01*
X14704600Y-8307800D02*
X14454600Y-8557800D01*
X14579600Y-8307800D02*
X14579600Y-8557800D01*
X14454600Y-8432800D02*
X14704600Y-8432800D01*
X14454600Y-11813000D02*
X14704600Y-12063000D01*
X14704600Y-11813000D02*
X14454600Y-12063000D01*
X14579600Y-11813000D02*
X14579600Y-12063000D01*
X14454600Y-11938000D02*
X14704600Y-11938000D01*
D19*
X8268600Y-7430400D02*
X8698600Y-7860400D01*
X8698600Y-7430400D02*
X8268600Y-7860400D01*
X8635629Y-7797429D02*
X8635629Y-7493371D01*
X8331571Y-7493371D01*
X8331571Y-7797429D01*
X8635629Y-7797429D01*
X8268600Y-12510400D02*
X8698600Y-12940400D01*
X8698600Y-12510400D02*
X8268600Y-12940400D01*
X8635629Y-12877429D02*
X8635629Y-12573371D01*
X8331571Y-12573371D01*
X8331571Y-12877429D01*
X8635629Y-12877429D01*
X15253600Y-7430400D02*
X15683600Y-7860400D01*
X15683600Y-7430400D02*
X15253600Y-7860400D01*
X15620629Y-7797429D02*
X15620629Y-7493371D01*
X15316571Y-7493371D01*
X15316571Y-7797429D01*
X15620629Y-7797429D01*
X15253600Y-12510400D02*
X15683600Y-12940400D01*
X15683600Y-12510400D02*
X15253600Y-12940400D01*
X15620629Y-12877429D02*
X15620629Y-12573371D01*
X15316571Y-12573371D01*
X15316571Y-12877429D01*
X15620629Y-12877429D01*
X21603600Y-7430400D02*
X22033600Y-7860400D01*
X22033600Y-7430400D02*
X21603600Y-7860400D01*
X21970629Y-7797429D02*
X21970629Y-7493371D01*
X21666571Y-7493371D01*
X21666571Y-7797429D01*
X21970629Y-7797429D01*
X21603600Y-12510400D02*
X22033600Y-12940400D01*
X22033600Y-12510400D02*
X21603600Y-12940400D01*
X21970629Y-12877429D02*
X21970629Y-12573371D01*
X21666571Y-12573371D01*
X21666571Y-12877429D01*
X21970629Y-12877429D01*
D11*
X8228219Y-13548876D02*
X8228219Y-13348876D01*
X8275838Y-13348876D01*
X8304409Y-13358400D01*
X8323457Y-13377448D01*
X8332981Y-13396495D01*
X8342505Y-13434590D01*
X8342505Y-13463162D01*
X8332981Y-13501257D01*
X8323457Y-13520305D01*
X8304409Y-13539352D01*
X8275838Y-13548876D01*
X8228219Y-13548876D01*
X8428219Y-13548876D02*
X8428219Y-13415543D01*
X8428219Y-13453638D02*
X8437743Y-13434590D01*
X8447267Y-13425067D01*
X8466314Y-13415543D01*
X8485362Y-13415543D01*
X8552029Y-13548876D02*
X8552029Y-13415543D01*
X8552029Y-13348876D02*
X8542505Y-13358400D01*
X8552029Y-13367924D01*
X8561552Y-13358400D01*
X8552029Y-13348876D01*
X8552029Y-13367924D01*
X8675838Y-13548876D02*
X8656790Y-13539352D01*
X8647267Y-13520305D01*
X8647267Y-13348876D01*
X8780600Y-13548876D02*
X8761552Y-13539352D01*
X8752029Y-13520305D01*
X8752029Y-13348876D01*
X9009171Y-13548876D02*
X9009171Y-13348876D01*
X9075838Y-13491733D01*
X9142505Y-13348876D01*
X9142505Y-13548876D01*
X9323457Y-13548876D02*
X9323457Y-13444114D01*
X9313933Y-13425067D01*
X9294886Y-13415543D01*
X9256790Y-13415543D01*
X9237743Y-13425067D01*
X9323457Y-13539352D02*
X9304410Y-13548876D01*
X9256790Y-13548876D01*
X9237743Y-13539352D01*
X9228219Y-13520305D01*
X9228219Y-13501257D01*
X9237743Y-13482209D01*
X9256790Y-13472686D01*
X9304410Y-13472686D01*
X9323457Y-13463162D01*
X9418695Y-13415543D02*
X9418695Y-13615543D01*
X9418695Y-13425067D02*
X9437743Y-13415543D01*
X9475838Y-13415543D01*
X9494886Y-13425067D01*
X9504410Y-13434590D01*
X9513933Y-13453638D01*
X9513933Y-13510781D01*
X9504410Y-13529828D01*
X9494886Y-13539352D01*
X9475838Y-13548876D01*
X9437743Y-13548876D01*
X9418695Y-13539352D01*
X9599648Y-13529828D02*
X9609171Y-13539352D01*
X9599648Y-13548876D01*
X9590124Y-13539352D01*
X9599648Y-13529828D01*
X9599648Y-13548876D01*
X9599648Y-13425067D02*
X9609171Y-13434590D01*
X9599648Y-13444114D01*
X9590124Y-13434590D01*
X9599648Y-13425067D01*
X9599648Y-13444114D01*
D12*
X7890600Y-13838400D02*
X7970600Y-13918400D01*
X7970600Y-13838400D02*
X7890600Y-13918400D01*
D11*
X8266314Y-13768876D02*
X8285362Y-13768876D01*
X8304409Y-13778400D01*
X8313933Y-13787924D01*
X8323457Y-13806971D01*
X8332981Y-13845067D01*
X8332981Y-13892686D01*
X8323457Y-13930781D01*
X8313933Y-13949828D01*
X8304409Y-13959352D01*
X8285362Y-13968876D01*
X8266314Y-13968876D01*
X8247267Y-13959352D01*
X8237743Y-13949828D01*
X8228219Y-13930781D01*
X8218695Y-13892686D01*
X8218695Y-13845067D01*
X8228219Y-13806971D01*
X8237743Y-13787924D01*
X8247267Y-13778400D01*
X8266314Y-13768876D01*
X8418695Y-13949828D02*
X8428219Y-13959352D01*
X8418695Y-13968876D01*
X8409171Y-13959352D01*
X8418695Y-13949828D01*
X8418695Y-13968876D01*
X8542505Y-13854590D02*
X8523457Y-13845067D01*
X8513933Y-13835543D01*
X8504410Y-13816495D01*
X8504410Y-13806971D01*
X8513933Y-13787924D01*
X8523457Y-13778400D01*
X8542505Y-13768876D01*
X8580600Y-13768876D01*
X8599648Y-13778400D01*
X8609171Y-13787924D01*
X8618695Y-13806971D01*
X8618695Y-13816495D01*
X8609171Y-13835543D01*
X8599648Y-13845067D01*
X8580600Y-13854590D01*
X8542505Y-13854590D01*
X8523457Y-13864114D01*
X8513933Y-13873638D01*
X8504410Y-13892686D01*
X8504410Y-13930781D01*
X8513933Y-13949828D01*
X8523457Y-13959352D01*
X8542505Y-13968876D01*
X8580600Y-13968876D01*
X8599648Y-13959352D01*
X8609171Y-13949828D01*
X8618695Y-13930781D01*
X8618695Y-13892686D01*
X8609171Y-13873638D01*
X8599648Y-13864114D01*
X8580600Y-13854590D01*
X8742505Y-13768876D02*
X8761552Y-13768876D01*
X8780600Y-13778400D01*
X8790124Y-13787924D01*
X8799648Y-13806971D01*
X8809171Y-13845067D01*
X8809171Y-13892686D01*
X8799648Y-13930781D01*
X8790124Y-13949828D01*
X8780600Y-13959352D01*
X8761552Y-13968876D01*
X8742505Y-13968876D01*
X8723457Y-13959352D01*
X8713933Y-13949828D01*
X8704410Y-13930781D01*
X8694886Y-13892686D01*
X8694886Y-13845067D01*
X8704410Y-13806971D01*
X8713933Y-13787924D01*
X8723457Y-13778400D01*
X8742505Y-13768876D01*
X8932981Y-13768876D02*
X8952029Y-13768876D01*
X8971076Y-13778400D01*
X8980600Y-13787924D01*
X8990124Y-13806971D01*
X8999648Y-13845067D01*
X8999648Y-13892686D01*
X8990124Y-13930781D01*
X8980600Y-13949828D01*
X8971076Y-13959352D01*
X8952029Y-13968876D01*
X8932981Y-13968876D01*
X8913933Y-13959352D01*
X8904410Y-13949828D01*
X8894886Y-13930781D01*
X8885362Y-13892686D01*
X8885362Y-13845067D01*
X8894886Y-13806971D01*
X8904410Y-13787924D01*
X8913933Y-13778400D01*
X8932981Y-13768876D01*
X9085362Y-13968876D02*
X9085362Y-13835543D01*
X9085362Y-13854590D02*
X9094886Y-13845067D01*
X9113933Y-13835543D01*
X9142505Y-13835543D01*
X9161552Y-13845067D01*
X9171076Y-13864114D01*
X9171076Y-13968876D01*
X9171076Y-13864114D02*
X9180600Y-13845067D01*
X9199648Y-13835543D01*
X9228219Y-13835543D01*
X9247267Y-13845067D01*
X9256790Y-13864114D01*
X9256790Y-13968876D01*
X9352029Y-13968876D02*
X9352029Y-13835543D01*
X9352029Y-13854590D02*
X9361552Y-13845067D01*
X9380600Y-13835543D01*
X9409171Y-13835543D01*
X9428219Y-13845067D01*
X9437743Y-13864114D01*
X9437743Y-13968876D01*
X9437743Y-13864114D02*
X9447267Y-13845067D01*
X9466314Y-13835543D01*
X9494886Y-13835543D01*
X9513933Y-13845067D01*
X9523457Y-13864114D01*
X9523457Y-13968876D01*
X9913933Y-13759352D02*
X9742505Y-14016495D01*
X10171076Y-13768876D02*
X10190124Y-13768876D01*
X10209171Y-13778400D01*
X10218695Y-13787924D01*
X10228219Y-13806971D01*
X10237743Y-13845067D01*
X10237743Y-13892686D01*
X10228219Y-13930781D01*
X10218695Y-13949828D01*
X10209171Y-13959352D01*
X10190124Y-13968876D01*
X10171076Y-13968876D01*
X10152029Y-13959352D01*
X10142505Y-13949828D01*
X10132981Y-13930781D01*
X10123457Y-13892686D01*
X10123457Y-13845067D01*
X10132981Y-13806971D01*
X10142505Y-13787924D01*
X10152029Y-13778400D01*
X10171076Y-13768876D01*
X10323457Y-13949828D02*
X10332981Y-13959352D01*
X10323457Y-13968876D01*
X10313933Y-13959352D01*
X10323457Y-13949828D01*
X10323457Y-13968876D01*
X10456790Y-13768876D02*
X10475838Y-13768876D01*
X10494886Y-13778400D01*
X10504410Y-13787924D01*
X10513933Y-13806971D01*
X10523457Y-13845067D01*
X10523457Y-13892686D01*
X10513933Y-13930781D01*
X10504410Y-13949828D01*
X10494886Y-13959352D01*
X10475838Y-13968876D01*
X10456790Y-13968876D01*
X10437743Y-13959352D01*
X10428219Y-13949828D01*
X10418695Y-13930781D01*
X10409171Y-13892686D01*
X10409171Y-13845067D01*
X10418695Y-13806971D01*
X10428219Y-13787924D01*
X10437743Y-13778400D01*
X10456790Y-13768876D01*
X10590124Y-13768876D02*
X10713933Y-13768876D01*
X10647267Y-13845067D01*
X10675838Y-13845067D01*
X10694886Y-13854590D01*
X10704410Y-13864114D01*
X10713933Y-13883162D01*
X10713933Y-13930781D01*
X10704410Y-13949828D01*
X10694886Y-13959352D01*
X10675838Y-13968876D01*
X10618695Y-13968876D01*
X10599648Y-13959352D01*
X10590124Y-13949828D01*
X10904410Y-13968876D02*
X10790124Y-13968876D01*
X10847267Y-13968876D02*
X10847267Y-13768876D01*
X10828219Y-13797448D01*
X10809171Y-13816495D01*
X10790124Y-13826019D01*
X11085362Y-13768876D02*
X10990124Y-13768876D01*
X10980600Y-13864114D01*
X10990124Y-13854590D01*
X11009171Y-13845067D01*
X11056790Y-13845067D01*
X11075838Y-13854590D01*
X11085362Y-13864114D01*
X11094886Y-13883162D01*
X11094886Y-13930781D01*
X11085362Y-13949828D01*
X11075838Y-13959352D01*
X11056790Y-13968876D01*
X11009171Y-13968876D01*
X10990124Y-13959352D01*
X10980600Y-13949828D01*
X11171076Y-13768876D02*
X11171076Y-13806971D01*
X11247267Y-13768876D02*
X11247267Y-13806971D01*
X11542505Y-14045067D02*
X11532981Y-14035543D01*
X11513933Y-14006971D01*
X11504409Y-13987924D01*
X11494886Y-13959352D01*
X11485362Y-13911733D01*
X11485362Y-13873638D01*
X11494886Y-13826019D01*
X11504409Y-13797448D01*
X11513933Y-13778400D01*
X11532981Y-13749828D01*
X11542505Y-13740305D01*
X11609171Y-13787924D02*
X11618695Y-13778400D01*
X11637743Y-13768876D01*
X11685362Y-13768876D01*
X11704409Y-13778400D01*
X11713933Y-13787924D01*
X11723457Y-13806971D01*
X11723457Y-13826019D01*
X11713933Y-13854590D01*
X11599648Y-13968876D01*
X11723457Y-13968876D01*
X11799648Y-13787924D02*
X11809171Y-13778400D01*
X11828219Y-13768876D01*
X11875838Y-13768876D01*
X11894886Y-13778400D01*
X11904409Y-13787924D01*
X11913933Y-13806971D01*
X11913933Y-13826019D01*
X11904409Y-13854590D01*
X11790124Y-13968876D01*
X11913933Y-13968876D01*
X12152028Y-13968876D02*
X12152028Y-13768876D01*
X12237743Y-13968876D02*
X12237743Y-13864114D01*
X12228219Y-13845067D01*
X12209171Y-13835543D01*
X12180600Y-13835543D01*
X12161552Y-13845067D01*
X12152028Y-13854590D01*
X12361552Y-13968876D02*
X12342505Y-13959352D01*
X12332981Y-13949828D01*
X12323457Y-13930781D01*
X12323457Y-13873638D01*
X12332981Y-13854590D01*
X12342505Y-13845067D01*
X12361552Y-13835543D01*
X12390124Y-13835543D01*
X12409171Y-13845067D01*
X12418695Y-13854590D01*
X12428219Y-13873638D01*
X12428219Y-13930781D01*
X12418695Y-13949828D01*
X12409171Y-13959352D01*
X12390124Y-13968876D01*
X12361552Y-13968876D01*
X12542505Y-13968876D02*
X12523457Y-13959352D01*
X12513933Y-13940305D01*
X12513933Y-13768876D01*
X12694886Y-13959352D02*
X12675838Y-13968876D01*
X12637743Y-13968876D01*
X12618695Y-13959352D01*
X12609171Y-13940305D01*
X12609171Y-13864114D01*
X12618695Y-13845067D01*
X12637743Y-13835543D01*
X12675838Y-13835543D01*
X12694886Y-13845067D01*
X12704409Y-13864114D01*
X12704409Y-13883162D01*
X12609171Y-13902209D01*
X12780600Y-13959352D02*
X12799648Y-13968876D01*
X12837743Y-13968876D01*
X12856790Y-13959352D01*
X12866314Y-13940305D01*
X12866314Y-13930781D01*
X12856790Y-13911733D01*
X12837743Y-13902209D01*
X12809171Y-13902209D01*
X12790124Y-13892686D01*
X12780600Y-13873638D01*
X12780600Y-13864114D01*
X12790124Y-13845067D01*
X12809171Y-13835543D01*
X12837743Y-13835543D01*
X12856790Y-13845067D01*
X12932981Y-14045067D02*
X12942505Y-14035543D01*
X12961552Y-14006971D01*
X12971076Y-13987924D01*
X12980600Y-13959352D01*
X12990124Y-13911733D01*
X12990124Y-13873638D01*
X12980600Y-13826019D01*
X12971076Y-13797448D01*
X12961552Y-13778400D01*
X12942505Y-13749828D01*
X12932981Y-13740305D01*
D13*
X7970600Y-14142400D02*
G75*
G03*
X7970600Y-14142400I-50000J0D01*
G01*
D11*
X8332981Y-14232876D02*
X8218695Y-14232876D01*
X8275838Y-14232876D02*
X8275838Y-14032876D01*
X8256790Y-14061448D01*
X8237743Y-14080495D01*
X8218695Y-14090019D01*
X8418695Y-14213828D02*
X8428219Y-14223352D01*
X8418695Y-14232876D01*
X8409171Y-14223352D01*
X8418695Y-14213828D01*
X8418695Y-14232876D01*
X8552029Y-14032876D02*
X8571076Y-14032876D01*
X8590124Y-14042400D01*
X8599648Y-14051924D01*
X8609171Y-14070971D01*
X8618695Y-14109067D01*
X8618695Y-14156686D01*
X8609171Y-14194781D01*
X8599648Y-14213828D01*
X8590124Y-14223352D01*
X8571076Y-14232876D01*
X8552029Y-14232876D01*
X8532981Y-14223352D01*
X8523457Y-14213828D01*
X8513933Y-14194781D01*
X8504410Y-14156686D01*
X8504410Y-14109067D01*
X8513933Y-14070971D01*
X8523457Y-14051924D01*
X8532981Y-14042400D01*
X8552029Y-14032876D01*
X8742505Y-14032876D02*
X8761552Y-14032876D01*
X8780600Y-14042400D01*
X8790124Y-14051924D01*
X8799648Y-14070971D01*
X8809171Y-14109067D01*
X8809171Y-14156686D01*
X8799648Y-14194781D01*
X8790124Y-14213828D01*
X8780600Y-14223352D01*
X8761552Y-14232876D01*
X8742505Y-14232876D01*
X8723457Y-14223352D01*
X8713933Y-14213828D01*
X8704410Y-14194781D01*
X8694886Y-14156686D01*
X8694886Y-14109067D01*
X8704410Y-14070971D01*
X8713933Y-14051924D01*
X8723457Y-14042400D01*
X8742505Y-14032876D01*
X8932981Y-14032876D02*
X8952029Y-14032876D01*
X8971076Y-14042400D01*
X8980600Y-14051924D01*
X8990124Y-14070971D01*
X8999648Y-14109067D01*
X8999648Y-14156686D01*
X8990124Y-14194781D01*
X8980600Y-14213828D01*
X8971076Y-14223352D01*
X8952029Y-14232876D01*
X8932981Y-14232876D01*
X8913933Y-14223352D01*
X8904410Y-14213828D01*
X8894886Y-14194781D01*
X8885362Y-14156686D01*
X8885362Y-14109067D01*
X8894886Y-14070971D01*
X8904410Y-14051924D01*
X8913933Y-14042400D01*
X8932981Y-14032876D01*
X9085362Y-14232876D02*
X9085362Y-14099543D01*
X9085362Y-14118590D02*
X9094886Y-14109067D01*
X9113933Y-14099543D01*
X9142505Y-14099543D01*
X9161552Y-14109067D01*
X9171076Y-14128114D01*
X9171076Y-14232876D01*
X9171076Y-14128114D02*
X9180600Y-14109067D01*
X9199648Y-14099543D01*
X9228219Y-14099543D01*
X9247267Y-14109067D01*
X9256790Y-14128114D01*
X9256790Y-14232876D01*
X9352029Y-14232876D02*
X9352029Y-14099543D01*
X9352029Y-14118590D02*
X9361552Y-14109067D01*
X9380600Y-14099543D01*
X9409171Y-14099543D01*
X9428219Y-14109067D01*
X9437743Y-14128114D01*
X9437743Y-14232876D01*
X9437743Y-14128114D02*
X9447267Y-14109067D01*
X9466314Y-14099543D01*
X9494886Y-14099543D01*
X9513933Y-14109067D01*
X9523457Y-14128114D01*
X9523457Y-14232876D01*
X9913933Y-14023352D02*
X9742505Y-14280495D01*
X10171076Y-14032876D02*
X10190124Y-14032876D01*
X10209171Y-14042400D01*
X10218695Y-14051924D01*
X10228219Y-14070971D01*
X10237743Y-14109067D01*
X10237743Y-14156686D01*
X10228219Y-14194781D01*
X10218695Y-14213828D01*
X10209171Y-14223352D01*
X10190124Y-14232876D01*
X10171076Y-14232876D01*
X10152029Y-14223352D01*
X10142505Y-14213828D01*
X10132981Y-14194781D01*
X10123457Y-14156686D01*
X10123457Y-14109067D01*
X10132981Y-14070971D01*
X10142505Y-14051924D01*
X10152029Y-14042400D01*
X10171076Y-14032876D01*
X10323457Y-14213828D02*
X10332981Y-14223352D01*
X10323457Y-14232876D01*
X10313933Y-14223352D01*
X10323457Y-14213828D01*
X10323457Y-14232876D01*
X10456790Y-14032876D02*
X10475838Y-14032876D01*
X10494886Y-14042400D01*
X10504410Y-14051924D01*
X10513933Y-14070971D01*
X10523457Y-14109067D01*
X10523457Y-14156686D01*
X10513933Y-14194781D01*
X10504410Y-14213828D01*
X10494886Y-14223352D01*
X10475838Y-14232876D01*
X10456790Y-14232876D01*
X10437743Y-14223352D01*
X10428219Y-14213828D01*
X10418695Y-14194781D01*
X10409171Y-14156686D01*
X10409171Y-14109067D01*
X10418695Y-14070971D01*
X10428219Y-14051924D01*
X10437743Y-14042400D01*
X10456790Y-14032876D01*
X10590124Y-14032876D02*
X10713933Y-14032876D01*
X10647267Y-14109067D01*
X10675838Y-14109067D01*
X10694886Y-14118590D01*
X10704410Y-14128114D01*
X10713933Y-14147162D01*
X10713933Y-14194781D01*
X10704410Y-14213828D01*
X10694886Y-14223352D01*
X10675838Y-14232876D01*
X10618695Y-14232876D01*
X10599648Y-14223352D01*
X10590124Y-14213828D01*
X10809171Y-14232876D02*
X10847267Y-14232876D01*
X10866314Y-14223352D01*
X10875838Y-14213828D01*
X10894886Y-14185257D01*
X10904410Y-14147162D01*
X10904410Y-14070971D01*
X10894886Y-14051924D01*
X10885362Y-14042400D01*
X10866314Y-14032876D01*
X10828219Y-14032876D01*
X10809171Y-14042400D01*
X10799648Y-14051924D01*
X10790124Y-14070971D01*
X10790124Y-14118590D01*
X10799648Y-14137638D01*
X10809171Y-14147162D01*
X10828219Y-14156686D01*
X10866314Y-14156686D01*
X10885362Y-14147162D01*
X10894886Y-14137638D01*
X10904410Y-14118590D01*
X11075838Y-14099543D02*
X11075838Y-14232876D01*
X11028219Y-14023352D02*
X10980600Y-14166209D01*
X11104410Y-14166209D01*
X11171076Y-14032876D02*
X11171076Y-14070971D01*
X11247267Y-14032876D02*
X11247267Y-14070971D01*
X11542505Y-14309067D02*
X11532981Y-14299543D01*
X11513933Y-14270971D01*
X11504409Y-14251924D01*
X11494886Y-14223352D01*
X11485362Y-14175733D01*
X11485362Y-14137638D01*
X11494886Y-14090019D01*
X11504409Y-14061448D01*
X11513933Y-14042400D01*
X11532981Y-14013828D01*
X11542505Y-14004305D01*
X11647267Y-14118590D02*
X11628219Y-14109067D01*
X11618695Y-14099543D01*
X11609171Y-14080495D01*
X11609171Y-14070971D01*
X11618695Y-14051924D01*
X11628219Y-14042400D01*
X11647267Y-14032876D01*
X11685362Y-14032876D01*
X11704409Y-14042400D01*
X11713933Y-14051924D01*
X11723457Y-14070971D01*
X11723457Y-14080495D01*
X11713933Y-14099543D01*
X11704409Y-14109067D01*
X11685362Y-14118590D01*
X11647267Y-14118590D01*
X11628219Y-14128114D01*
X11618695Y-14137638D01*
X11609171Y-14156686D01*
X11609171Y-14194781D01*
X11618695Y-14213828D01*
X11628219Y-14223352D01*
X11647267Y-14232876D01*
X11685362Y-14232876D01*
X11704409Y-14223352D01*
X11713933Y-14213828D01*
X11723457Y-14194781D01*
X11723457Y-14156686D01*
X11713933Y-14137638D01*
X11704409Y-14128114D01*
X11685362Y-14118590D01*
X11799648Y-14051924D02*
X11809171Y-14042400D01*
X11828219Y-14032876D01*
X11875838Y-14032876D01*
X11894886Y-14042400D01*
X11904409Y-14051924D01*
X11913933Y-14070971D01*
X11913933Y-14090019D01*
X11904409Y-14118590D01*
X11790124Y-14232876D01*
X11913933Y-14232876D01*
X12152028Y-14232876D02*
X12152028Y-14032876D01*
X12237743Y-14232876D02*
X12237743Y-14128114D01*
X12228219Y-14109067D01*
X12209171Y-14099543D01*
X12180600Y-14099543D01*
X12161552Y-14109067D01*
X12152028Y-14118590D01*
X12361552Y-14232876D02*
X12342505Y-14223352D01*
X12332981Y-14213828D01*
X12323457Y-14194781D01*
X12323457Y-14137638D01*
X12332981Y-14118590D01*
X12342505Y-14109067D01*
X12361552Y-14099543D01*
X12390124Y-14099543D01*
X12409171Y-14109067D01*
X12418695Y-14118590D01*
X12428219Y-14137638D01*
X12428219Y-14194781D01*
X12418695Y-14213828D01*
X12409171Y-14223352D01*
X12390124Y-14232876D01*
X12361552Y-14232876D01*
X12542505Y-14232876D02*
X12523457Y-14223352D01*
X12513933Y-14204305D01*
X12513933Y-14032876D01*
X12694886Y-14223352D02*
X12675838Y-14232876D01*
X12637743Y-14232876D01*
X12618695Y-14223352D01*
X12609171Y-14204305D01*
X12609171Y-14128114D01*
X12618695Y-14109067D01*
X12637743Y-14099543D01*
X12675838Y-14099543D01*
X12694886Y-14109067D01*
X12704409Y-14128114D01*
X12704409Y-14147162D01*
X12609171Y-14166209D01*
X12780600Y-14223352D02*
X12799648Y-14232876D01*
X12837743Y-14232876D01*
X12856790Y-14223352D01*
X12866314Y-14204305D01*
X12866314Y-14194781D01*
X12856790Y-14175733D01*
X12837743Y-14166209D01*
X12809171Y-14166209D01*
X12790124Y-14156686D01*
X12780600Y-14137638D01*
X12780600Y-14128114D01*
X12790124Y-14109067D01*
X12809171Y-14099543D01*
X12837743Y-14099543D01*
X12856790Y-14109067D01*
X12932981Y-14309067D02*
X12942505Y-14299543D01*
X12961552Y-14270971D01*
X12971076Y-14251924D01*
X12980600Y-14223352D01*
X12990124Y-14175733D01*
X12990124Y-14137638D01*
X12980600Y-14090019D01*
X12971076Y-14061448D01*
X12961552Y-14042400D01*
X12942505Y-14013828D01*
X12932981Y-14004305D01*
D14*
X7915600Y-14351400D02*
X7915600Y-14461400D01*
X7860600Y-14406400D02*
X7970600Y-14406400D01*
D11*
X8332981Y-14496876D02*
X8218695Y-14496876D01*
X8275838Y-14496876D02*
X8275838Y-14296876D01*
X8256790Y-14325448D01*
X8237743Y-14344495D01*
X8218695Y-14354019D01*
X8418695Y-14477828D02*
X8428219Y-14487352D01*
X8418695Y-14496876D01*
X8409171Y-14487352D01*
X8418695Y-14477828D01*
X8418695Y-14496876D01*
X8618695Y-14496876D02*
X8504410Y-14496876D01*
X8561552Y-14496876D02*
X8561552Y-14296876D01*
X8542505Y-14325448D01*
X8523457Y-14344495D01*
X8504410Y-14354019D01*
X8742505Y-14296876D02*
X8761552Y-14296876D01*
X8780600Y-14306400D01*
X8790124Y-14315924D01*
X8799648Y-14334971D01*
X8809171Y-14373067D01*
X8809171Y-14420686D01*
X8799648Y-14458781D01*
X8790124Y-14477828D01*
X8780600Y-14487352D01*
X8761552Y-14496876D01*
X8742505Y-14496876D01*
X8723457Y-14487352D01*
X8713933Y-14477828D01*
X8704410Y-14458781D01*
X8694886Y-14420686D01*
X8694886Y-14373067D01*
X8704410Y-14334971D01*
X8713933Y-14315924D01*
X8723457Y-14306400D01*
X8742505Y-14296876D01*
X8932981Y-14296876D02*
X8952029Y-14296876D01*
X8971076Y-14306400D01*
X8980600Y-14315924D01*
X8990124Y-14334971D01*
X8999648Y-14373067D01*
X8999648Y-14420686D01*
X8990124Y-14458781D01*
X8980600Y-14477828D01*
X8971076Y-14487352D01*
X8952029Y-14496876D01*
X8932981Y-14496876D01*
X8913933Y-14487352D01*
X8904410Y-14477828D01*
X8894886Y-14458781D01*
X8885362Y-14420686D01*
X8885362Y-14373067D01*
X8894886Y-14334971D01*
X8904410Y-14315924D01*
X8913933Y-14306400D01*
X8932981Y-14296876D01*
X9085362Y-14496876D02*
X9085362Y-14363543D01*
X9085362Y-14382590D02*
X9094886Y-14373067D01*
X9113933Y-14363543D01*
X9142505Y-14363543D01*
X9161552Y-14373067D01*
X9171076Y-14392114D01*
X9171076Y-14496876D01*
X9171076Y-14392114D02*
X9180600Y-14373067D01*
X9199648Y-14363543D01*
X9228219Y-14363543D01*
X9247267Y-14373067D01*
X9256790Y-14392114D01*
X9256790Y-14496876D01*
X9352029Y-14496876D02*
X9352029Y-14363543D01*
X9352029Y-14382590D02*
X9361552Y-14373067D01*
X9380600Y-14363543D01*
X9409171Y-14363543D01*
X9428219Y-14373067D01*
X9437743Y-14392114D01*
X9437743Y-14496876D01*
X9437743Y-14392114D02*
X9447267Y-14373067D01*
X9466314Y-14363543D01*
X9494886Y-14363543D01*
X9513933Y-14373067D01*
X9523457Y-14392114D01*
X9523457Y-14496876D01*
X9913933Y-14287352D02*
X9742505Y-14544495D01*
X10171076Y-14296876D02*
X10190124Y-14296876D01*
X10209171Y-14306400D01*
X10218695Y-14315924D01*
X10228219Y-14334971D01*
X10237743Y-14373067D01*
X10237743Y-14420686D01*
X10228219Y-14458781D01*
X10218695Y-14477828D01*
X10209171Y-14487352D01*
X10190124Y-14496876D01*
X10171076Y-14496876D01*
X10152029Y-14487352D01*
X10142505Y-14477828D01*
X10132981Y-14458781D01*
X10123457Y-14420686D01*
X10123457Y-14373067D01*
X10132981Y-14334971D01*
X10142505Y-14315924D01*
X10152029Y-14306400D01*
X10171076Y-14296876D01*
X10323457Y-14477828D02*
X10332981Y-14487352D01*
X10323457Y-14496876D01*
X10313933Y-14487352D01*
X10323457Y-14477828D01*
X10323457Y-14496876D01*
X10456790Y-14296876D02*
X10475838Y-14296876D01*
X10494886Y-14306400D01*
X10504410Y-14315924D01*
X10513933Y-14334971D01*
X10523457Y-14373067D01*
X10523457Y-14420686D01*
X10513933Y-14458781D01*
X10504410Y-14477828D01*
X10494886Y-14487352D01*
X10475838Y-14496876D01*
X10456790Y-14496876D01*
X10437743Y-14487352D01*
X10428219Y-14477828D01*
X10418695Y-14458781D01*
X10409171Y-14420686D01*
X10409171Y-14373067D01*
X10418695Y-14334971D01*
X10428219Y-14315924D01*
X10437743Y-14306400D01*
X10456790Y-14296876D01*
X10694886Y-14363543D02*
X10694886Y-14496876D01*
X10647267Y-14287352D02*
X10599648Y-14430209D01*
X10723457Y-14430209D01*
X10780600Y-14296876D02*
X10904410Y-14296876D01*
X10837743Y-14373067D01*
X10866314Y-14373067D01*
X10885362Y-14382590D01*
X10894886Y-14392114D01*
X10904410Y-14411162D01*
X10904410Y-14458781D01*
X10894886Y-14477828D01*
X10885362Y-14487352D01*
X10866314Y-14496876D01*
X10809171Y-14496876D01*
X10790124Y-14487352D01*
X10780600Y-14477828D01*
X10971076Y-14296876D02*
X11094886Y-14296876D01*
X11028219Y-14373067D01*
X11056790Y-14373067D01*
X11075838Y-14382590D01*
X11085362Y-14392114D01*
X11094886Y-14411162D01*
X11094886Y-14458781D01*
X11085362Y-14477828D01*
X11075838Y-14487352D01*
X11056790Y-14496876D01*
X10999648Y-14496876D01*
X10980600Y-14487352D01*
X10971076Y-14477828D01*
X11171076Y-14296876D02*
X11171076Y-14334971D01*
X11247267Y-14296876D02*
X11247267Y-14334971D01*
X11542505Y-14573067D02*
X11532981Y-14563543D01*
X11513933Y-14534971D01*
X11504409Y-14515924D01*
X11494886Y-14487352D01*
X11485362Y-14439733D01*
X11485362Y-14401638D01*
X11494886Y-14354019D01*
X11504409Y-14325448D01*
X11513933Y-14306400D01*
X11532981Y-14277828D01*
X11542505Y-14268305D01*
X11609171Y-14315924D02*
X11618695Y-14306400D01*
X11637743Y-14296876D01*
X11685362Y-14296876D01*
X11704409Y-14306400D01*
X11713933Y-14315924D01*
X11723457Y-14334971D01*
X11723457Y-14354019D01*
X11713933Y-14382590D01*
X11599648Y-14496876D01*
X11723457Y-14496876D01*
X11799648Y-14315924D02*
X11809171Y-14306400D01*
X11828219Y-14296876D01*
X11875838Y-14296876D01*
X11894886Y-14306400D01*
X11904409Y-14315924D01*
X11913933Y-14334971D01*
X11913933Y-14354019D01*
X11904409Y-14382590D01*
X11790124Y-14496876D01*
X11913933Y-14496876D01*
X12152028Y-14496876D02*
X12152028Y-14296876D01*
X12237743Y-14496876D02*
X12237743Y-14392114D01*
X12228219Y-14373067D01*
X12209171Y-14363543D01*
X12180600Y-14363543D01*
X12161552Y-14373067D01*
X12152028Y-14382590D01*
X12361552Y-14496876D02*
X12342505Y-14487352D01*
X12332981Y-14477828D01*
X12323457Y-14458781D01*
X12323457Y-14401638D01*
X12332981Y-14382590D01*
X12342505Y-14373067D01*
X12361552Y-14363543D01*
X12390124Y-14363543D01*
X12409171Y-14373067D01*
X12418695Y-14382590D01*
X12428219Y-14401638D01*
X12428219Y-14458781D01*
X12418695Y-14477828D01*
X12409171Y-14487352D01*
X12390124Y-14496876D01*
X12361552Y-14496876D01*
X12542505Y-14496876D02*
X12523457Y-14487352D01*
X12513933Y-14468305D01*
X12513933Y-14296876D01*
X12694886Y-14487352D02*
X12675838Y-14496876D01*
X12637743Y-14496876D01*
X12618695Y-14487352D01*
X12609171Y-14468305D01*
X12609171Y-14392114D01*
X12618695Y-14373067D01*
X12637743Y-14363543D01*
X12675838Y-14363543D01*
X12694886Y-14373067D01*
X12704409Y-14392114D01*
X12704409Y-14411162D01*
X12609171Y-14430209D01*
X12780600Y-14487352D02*
X12799648Y-14496876D01*
X12837743Y-14496876D01*
X12856790Y-14487352D01*
X12866314Y-14468305D01*
X12866314Y-14458781D01*
X12856790Y-14439733D01*
X12837743Y-14430209D01*
X12809171Y-14430209D01*
X12790124Y-14420686D01*
X12780600Y-14401638D01*
X12780600Y-14392114D01*
X12790124Y-14373067D01*
X12809171Y-14363543D01*
X12837743Y-14363543D01*
X12856790Y-14373067D01*
X12932981Y-14573067D02*
X12942505Y-14563543D01*
X12961552Y-14534971D01*
X12971076Y-14515924D01*
X12980600Y-14487352D01*
X12990124Y-14439733D01*
X12990124Y-14401638D01*
X12980600Y-14354019D01*
X12971076Y-14325448D01*
X12961552Y-14306400D01*
X12942505Y-14277828D01*
X12932981Y-14268305D01*
D15*
X7953027Y-14712827D02*
X7953027Y-14627973D01*
X7868173Y-14627973D01*
X7868173Y-14712827D01*
X7953027Y-14712827D01*
D11*
X8332981Y-14760876D02*
X8218695Y-14760876D01*
X8275838Y-14760876D02*
X8275838Y-14560876D01*
X8256790Y-14589448D01*
X8237743Y-14608495D01*
X8218695Y-14618019D01*
X8418695Y-14741828D02*
X8428219Y-14751352D01*
X8418695Y-14760876D01*
X8409171Y-14751352D01*
X8418695Y-14741828D01*
X8418695Y-14760876D01*
X8504410Y-14579924D02*
X8513933Y-14570400D01*
X8532981Y-14560876D01*
X8580600Y-14560876D01*
X8599648Y-14570400D01*
X8609171Y-14579924D01*
X8618695Y-14598971D01*
X8618695Y-14618019D01*
X8609171Y-14646590D01*
X8494886Y-14760876D01*
X8618695Y-14760876D01*
X8742505Y-14560876D02*
X8761552Y-14560876D01*
X8780600Y-14570400D01*
X8790124Y-14579924D01*
X8799648Y-14598971D01*
X8809171Y-14637067D01*
X8809171Y-14684686D01*
X8799648Y-14722781D01*
X8790124Y-14741828D01*
X8780600Y-14751352D01*
X8761552Y-14760876D01*
X8742505Y-14760876D01*
X8723457Y-14751352D01*
X8713933Y-14741828D01*
X8704410Y-14722781D01*
X8694886Y-14684686D01*
X8694886Y-14637067D01*
X8704410Y-14598971D01*
X8713933Y-14579924D01*
X8723457Y-14570400D01*
X8742505Y-14560876D01*
X8932981Y-14560876D02*
X8952029Y-14560876D01*
X8971076Y-14570400D01*
X8980600Y-14579924D01*
X8990124Y-14598971D01*
X8999648Y-14637067D01*
X8999648Y-14684686D01*
X8990124Y-14722781D01*
X8980600Y-14741828D01*
X8971076Y-14751352D01*
X8952029Y-14760876D01*
X8932981Y-14760876D01*
X8913933Y-14751352D01*
X8904410Y-14741828D01*
X8894886Y-14722781D01*
X8885362Y-14684686D01*
X8885362Y-14637067D01*
X8894886Y-14598971D01*
X8904410Y-14579924D01*
X8913933Y-14570400D01*
X8932981Y-14560876D01*
X9085362Y-14760876D02*
X9085362Y-14627543D01*
X9085362Y-14646590D02*
X9094886Y-14637067D01*
X9113933Y-14627543D01*
X9142505Y-14627543D01*
X9161552Y-14637067D01*
X9171076Y-14656114D01*
X9171076Y-14760876D01*
X9171076Y-14656114D02*
X9180600Y-14637067D01*
X9199648Y-14627543D01*
X9228219Y-14627543D01*
X9247267Y-14637067D01*
X9256790Y-14656114D01*
X9256790Y-14760876D01*
X9352029Y-14760876D02*
X9352029Y-14627543D01*
X9352029Y-14646590D02*
X9361552Y-14637067D01*
X9380600Y-14627543D01*
X9409171Y-14627543D01*
X9428219Y-14637067D01*
X9437743Y-14656114D01*
X9437743Y-14760876D01*
X9437743Y-14656114D02*
X9447267Y-14637067D01*
X9466314Y-14627543D01*
X9494886Y-14627543D01*
X9513933Y-14637067D01*
X9523457Y-14656114D01*
X9523457Y-14760876D01*
X9913933Y-14551352D02*
X9742505Y-14808495D01*
X10171076Y-14560876D02*
X10190124Y-14560876D01*
X10209171Y-14570400D01*
X10218695Y-14579924D01*
X10228219Y-14598971D01*
X10237743Y-14637067D01*
X10237743Y-14684686D01*
X10228219Y-14722781D01*
X10218695Y-14741828D01*
X10209171Y-14751352D01*
X10190124Y-14760876D01*
X10171076Y-14760876D01*
X10152029Y-14751352D01*
X10142505Y-14741828D01*
X10132981Y-14722781D01*
X10123457Y-14684686D01*
X10123457Y-14637067D01*
X10132981Y-14598971D01*
X10142505Y-14579924D01*
X10152029Y-14570400D01*
X10171076Y-14560876D01*
X10323457Y-14741828D02*
X10332981Y-14751352D01*
X10323457Y-14760876D01*
X10313933Y-14751352D01*
X10323457Y-14741828D01*
X10323457Y-14760876D01*
X10456790Y-14560876D02*
X10475838Y-14560876D01*
X10494886Y-14570400D01*
X10504410Y-14579924D01*
X10513933Y-14598971D01*
X10523457Y-14637067D01*
X10523457Y-14684686D01*
X10513933Y-14722781D01*
X10504410Y-14741828D01*
X10494886Y-14751352D01*
X10475838Y-14760876D01*
X10456790Y-14760876D01*
X10437743Y-14751352D01*
X10428219Y-14741828D01*
X10418695Y-14722781D01*
X10409171Y-14684686D01*
X10409171Y-14637067D01*
X10418695Y-14598971D01*
X10428219Y-14579924D01*
X10437743Y-14570400D01*
X10456790Y-14560876D01*
X10694886Y-14627543D02*
X10694886Y-14760876D01*
X10647267Y-14551352D02*
X10599648Y-14694209D01*
X10723457Y-14694209D01*
X10780600Y-14560876D02*
X10913933Y-14560876D01*
X10828219Y-14760876D01*
X10980600Y-14579924D02*
X10990124Y-14570400D01*
X11009171Y-14560876D01*
X11056790Y-14560876D01*
X11075838Y-14570400D01*
X11085362Y-14579924D01*
X11094886Y-14598971D01*
X11094886Y-14618019D01*
X11085362Y-14646590D01*
X10971076Y-14760876D01*
X11094886Y-14760876D01*
X11171076Y-14560876D02*
X11171076Y-14598971D01*
X11247267Y-14560876D02*
X11247267Y-14598971D01*
X11542505Y-14837067D02*
X11532981Y-14827543D01*
X11513933Y-14798971D01*
X11504409Y-14779924D01*
X11494886Y-14751352D01*
X11485362Y-14703733D01*
X11485362Y-14665638D01*
X11494886Y-14618019D01*
X11504409Y-14589448D01*
X11513933Y-14570400D01*
X11532981Y-14541828D01*
X11542505Y-14532305D01*
X11704409Y-14627543D02*
X11704409Y-14760876D01*
X11656790Y-14551352D02*
X11609171Y-14694209D01*
X11732981Y-14694209D01*
X11961552Y-14760876D02*
X11961552Y-14560876D01*
X12047267Y-14760876D02*
X12047267Y-14656114D01*
X12037743Y-14637067D01*
X12018695Y-14627543D01*
X11990124Y-14627543D01*
X11971076Y-14637067D01*
X11961552Y-14646590D01*
X12171076Y-14760876D02*
X12152028Y-14751352D01*
X12142505Y-14741828D01*
X12132981Y-14722781D01*
X12132981Y-14665638D01*
X12142505Y-14646590D01*
X12152028Y-14637067D01*
X12171076Y-14627543D01*
X12199648Y-14627543D01*
X12218695Y-14637067D01*
X12228219Y-14646590D01*
X12237743Y-14665638D01*
X12237743Y-14722781D01*
X12228219Y-14741828D01*
X12218695Y-14751352D01*
X12199648Y-14760876D01*
X12171076Y-14760876D01*
X12352028Y-14760876D02*
X12332981Y-14751352D01*
X12323457Y-14732305D01*
X12323457Y-14560876D01*
X12504409Y-14751352D02*
X12485362Y-14760876D01*
X12447267Y-14760876D01*
X12428219Y-14751352D01*
X12418695Y-14732305D01*
X12418695Y-14656114D01*
X12428219Y-14637067D01*
X12447267Y-14627543D01*
X12485362Y-14627543D01*
X12504409Y-14637067D01*
X12513933Y-14656114D01*
X12513933Y-14675162D01*
X12418695Y-14694209D01*
X12590124Y-14751352D02*
X12609171Y-14760876D01*
X12647267Y-14760876D01*
X12666314Y-14751352D01*
X12675838Y-14732305D01*
X12675838Y-14722781D01*
X12666314Y-14703733D01*
X12647267Y-14694209D01*
X12618695Y-14694209D01*
X12599648Y-14684686D01*
X12590124Y-14665638D01*
X12590124Y-14656114D01*
X12599648Y-14637067D01*
X12618695Y-14627543D01*
X12647267Y-14627543D01*
X12666314Y-14637067D01*
X12742505Y-14837067D02*
X12752028Y-14827543D01*
X12771076Y-14798971D01*
X12780600Y-14779924D01*
X12790124Y-14751352D01*
X12799648Y-14703733D01*
X12799648Y-14665638D01*
X12790124Y-14618019D01*
X12780600Y-14589448D01*
X12771076Y-14570400D01*
X12752028Y-14541828D01*
X12742505Y-14532305D01*
D16*
X7905600Y-14999400D02*
X7970600Y-14934400D01*
X7905600Y-14869400D01*
X7840600Y-14934400D01*
X7905600Y-14999400D01*
D11*
X8332981Y-15024876D02*
X8218695Y-15024876D01*
X8275838Y-15024876D02*
X8275838Y-14824876D01*
X8256790Y-14853448D01*
X8237743Y-14872495D01*
X8218695Y-14882019D01*
X8418695Y-15005828D02*
X8428219Y-15015352D01*
X8418695Y-15024876D01*
X8409171Y-15015352D01*
X8418695Y-15005828D01*
X8418695Y-15024876D01*
X8494886Y-14824876D02*
X8618695Y-14824876D01*
X8552029Y-14901067D01*
X8580600Y-14901067D01*
X8599648Y-14910590D01*
X8609171Y-14920114D01*
X8618695Y-14939162D01*
X8618695Y-14986781D01*
X8609171Y-15005828D01*
X8599648Y-15015352D01*
X8580600Y-15024876D01*
X8523457Y-15024876D01*
X8504410Y-15015352D01*
X8494886Y-15005828D01*
X8742505Y-14824876D02*
X8761552Y-14824876D01*
X8780600Y-14834400D01*
X8790124Y-14843924D01*
X8799648Y-14862971D01*
X8809171Y-14901067D01*
X8809171Y-14948686D01*
X8799648Y-14986781D01*
X8790124Y-15005828D01*
X8780600Y-15015352D01*
X8761552Y-15024876D01*
X8742505Y-15024876D01*
X8723457Y-15015352D01*
X8713933Y-15005828D01*
X8704410Y-14986781D01*
X8694886Y-14948686D01*
X8694886Y-14901067D01*
X8704410Y-14862971D01*
X8713933Y-14843924D01*
X8723457Y-14834400D01*
X8742505Y-14824876D01*
X8932981Y-14824876D02*
X8952029Y-14824876D01*
X8971076Y-14834400D01*
X8980600Y-14843924D01*
X8990124Y-14862971D01*
X8999648Y-14901067D01*
X8999648Y-14948686D01*
X8990124Y-14986781D01*
X8980600Y-15005828D01*
X8971076Y-15015352D01*
X8952029Y-15024876D01*
X8932981Y-15024876D01*
X8913933Y-15015352D01*
X8904410Y-15005828D01*
X8894886Y-14986781D01*
X8885362Y-14948686D01*
X8885362Y-14901067D01*
X8894886Y-14862971D01*
X8904410Y-14843924D01*
X8913933Y-14834400D01*
X8932981Y-14824876D01*
X9085362Y-15024876D02*
X9085362Y-14891543D01*
X9085362Y-14910590D02*
X9094886Y-14901067D01*
X9113933Y-14891543D01*
X9142505Y-14891543D01*
X9161552Y-14901067D01*
X9171076Y-14920114D01*
X9171076Y-15024876D01*
X9171076Y-14920114D02*
X9180600Y-14901067D01*
X9199648Y-14891543D01*
X9228219Y-14891543D01*
X9247267Y-14901067D01*
X9256790Y-14920114D01*
X9256790Y-15024876D01*
X9352029Y-15024876D02*
X9352029Y-14891543D01*
X9352029Y-14910590D02*
X9361552Y-14901067D01*
X9380600Y-14891543D01*
X9409171Y-14891543D01*
X9428219Y-14901067D01*
X9437743Y-14920114D01*
X9437743Y-15024876D01*
X9437743Y-14920114D02*
X9447267Y-14901067D01*
X9466314Y-14891543D01*
X9494886Y-14891543D01*
X9513933Y-14901067D01*
X9523457Y-14920114D01*
X9523457Y-15024876D01*
X9913933Y-14815352D02*
X9742505Y-15072495D01*
X10171076Y-14824876D02*
X10190124Y-14824876D01*
X10209171Y-14834400D01*
X10218695Y-14843924D01*
X10228219Y-14862971D01*
X10237743Y-14901067D01*
X10237743Y-14948686D01*
X10228219Y-14986781D01*
X10218695Y-15005828D01*
X10209171Y-15015352D01*
X10190124Y-15024876D01*
X10171076Y-15024876D01*
X10152029Y-15015352D01*
X10142505Y-15005828D01*
X10132981Y-14986781D01*
X10123457Y-14948686D01*
X10123457Y-14901067D01*
X10132981Y-14862971D01*
X10142505Y-14843924D01*
X10152029Y-14834400D01*
X10171076Y-14824876D01*
X10323457Y-15005828D02*
X10332981Y-15015352D01*
X10323457Y-15024876D01*
X10313933Y-15015352D01*
X10323457Y-15005828D01*
X10323457Y-15024876D01*
X10456790Y-14824876D02*
X10475838Y-14824876D01*
X10494886Y-14834400D01*
X10504410Y-14843924D01*
X10513933Y-14862971D01*
X10523457Y-14901067D01*
X10523457Y-14948686D01*
X10513933Y-14986781D01*
X10504410Y-15005828D01*
X10494886Y-15015352D01*
X10475838Y-15024876D01*
X10456790Y-15024876D01*
X10437743Y-15015352D01*
X10428219Y-15005828D01*
X10418695Y-14986781D01*
X10409171Y-14948686D01*
X10409171Y-14901067D01*
X10418695Y-14862971D01*
X10428219Y-14843924D01*
X10437743Y-14834400D01*
X10456790Y-14824876D01*
X10704410Y-14824876D02*
X10609171Y-14824876D01*
X10599648Y-14920114D01*
X10609171Y-14910590D01*
X10628219Y-14901067D01*
X10675838Y-14901067D01*
X10694886Y-14910590D01*
X10704410Y-14920114D01*
X10713933Y-14939162D01*
X10713933Y-14986781D01*
X10704410Y-15005828D01*
X10694886Y-15015352D01*
X10675838Y-15024876D01*
X10628219Y-15024876D01*
X10609171Y-15015352D01*
X10599648Y-15005828D01*
X10904410Y-15024876D02*
X10790124Y-15024876D01*
X10847267Y-15024876D02*
X10847267Y-14824876D01*
X10828219Y-14853448D01*
X10809171Y-14872495D01*
X10790124Y-14882019D01*
X10980600Y-14843924D02*
X10990124Y-14834400D01*
X11009171Y-14824876D01*
X11056790Y-14824876D01*
X11075838Y-14834400D01*
X11085362Y-14843924D01*
X11094886Y-14862971D01*
X11094886Y-14882019D01*
X11085362Y-14910590D01*
X10971076Y-15024876D01*
X11094886Y-15024876D01*
X11171076Y-14824876D02*
X11171076Y-14862971D01*
X11247267Y-14824876D02*
X11247267Y-14862971D01*
X11542505Y-15101067D02*
X11532981Y-15091543D01*
X11513933Y-15062971D01*
X11504409Y-15043924D01*
X11494886Y-15015352D01*
X11485362Y-14967733D01*
X11485362Y-14929638D01*
X11494886Y-14882019D01*
X11504409Y-14853448D01*
X11513933Y-14834400D01*
X11532981Y-14805828D01*
X11542505Y-14796305D01*
X11609171Y-14843924D02*
X11618695Y-14834400D01*
X11637743Y-14824876D01*
X11685362Y-14824876D01*
X11704409Y-14834400D01*
X11713933Y-14843924D01*
X11723457Y-14862971D01*
X11723457Y-14882019D01*
X11713933Y-14910590D01*
X11599648Y-15024876D01*
X11723457Y-15024876D01*
X11961552Y-15024876D02*
X11961552Y-14824876D01*
X12047267Y-15024876D02*
X12047267Y-14920114D01*
X12037743Y-14901067D01*
X12018695Y-14891543D01*
X11990124Y-14891543D01*
X11971076Y-14901067D01*
X11961552Y-14910590D01*
X12171076Y-15024876D02*
X12152028Y-15015352D01*
X12142505Y-15005828D01*
X12132981Y-14986781D01*
X12132981Y-14929638D01*
X12142505Y-14910590D01*
X12152028Y-14901067D01*
X12171076Y-14891543D01*
X12199648Y-14891543D01*
X12218695Y-14901067D01*
X12228219Y-14910590D01*
X12237743Y-14929638D01*
X12237743Y-14986781D01*
X12228219Y-15005828D01*
X12218695Y-15015352D01*
X12199648Y-15024876D01*
X12171076Y-15024876D01*
X12352028Y-15024876D02*
X12332981Y-15015352D01*
X12323457Y-14996305D01*
X12323457Y-14824876D01*
X12504409Y-15015352D02*
X12485362Y-15024876D01*
X12447267Y-15024876D01*
X12428219Y-15015352D01*
X12418695Y-14996305D01*
X12418695Y-14920114D01*
X12428219Y-14901067D01*
X12447267Y-14891543D01*
X12485362Y-14891543D01*
X12504409Y-14901067D01*
X12513933Y-14920114D01*
X12513933Y-14939162D01*
X12418695Y-14958209D01*
X12590124Y-15015352D02*
X12609171Y-15024876D01*
X12647267Y-15024876D01*
X12666314Y-15015352D01*
X12675838Y-14996305D01*
X12675838Y-14986781D01*
X12666314Y-14967733D01*
X12647267Y-14958209D01*
X12618695Y-14958209D01*
X12599648Y-14948686D01*
X12590124Y-14929638D01*
X12590124Y-14920114D01*
X12599648Y-14901067D01*
X12618695Y-14891543D01*
X12647267Y-14891543D01*
X12666314Y-14901067D01*
X12742505Y-15101067D02*
X12752028Y-15091543D01*
X12771076Y-15062971D01*
X12780600Y-15043924D01*
X12790124Y-15015352D01*
X12799648Y-14967733D01*
X12799648Y-14929638D01*
X12790124Y-14882019D01*
X12780600Y-14853448D01*
X12771076Y-14834400D01*
X12752028Y-14805828D01*
X12742505Y-14796305D01*
D17*
X7830600Y-15128400D02*
X7970600Y-15268400D01*
X7970600Y-15128400D02*
X7830600Y-15268400D01*
X7970600Y-15198400D02*
G75*
G03*
X7970600Y-15198400I-70000J0D01*
G01*
D11*
X8332981Y-15288876D02*
X8218695Y-15288876D01*
X8275838Y-15288876D02*
X8275838Y-15088876D01*
X8256790Y-15117448D01*
X8237743Y-15136495D01*
X8218695Y-15146019D01*
X8418695Y-15269828D02*
X8428219Y-15279352D01*
X8418695Y-15288876D01*
X8409171Y-15279352D01*
X8418695Y-15269828D01*
X8418695Y-15288876D01*
X8599648Y-15155543D02*
X8599648Y-15288876D01*
X8552029Y-15079352D02*
X8504410Y-15222209D01*
X8628219Y-15222209D01*
X8742505Y-15088876D02*
X8761552Y-15088876D01*
X8780600Y-15098400D01*
X8790124Y-15107924D01*
X8799648Y-15126971D01*
X8809171Y-15165067D01*
X8809171Y-15212686D01*
X8799648Y-15250781D01*
X8790124Y-15269828D01*
X8780600Y-15279352D01*
X8761552Y-15288876D01*
X8742505Y-15288876D01*
X8723457Y-15279352D01*
X8713933Y-15269828D01*
X8704410Y-15250781D01*
X8694886Y-15212686D01*
X8694886Y-15165067D01*
X8704410Y-15126971D01*
X8713933Y-15107924D01*
X8723457Y-15098400D01*
X8742505Y-15088876D01*
X8932981Y-15088876D02*
X8952029Y-15088876D01*
X8971076Y-15098400D01*
X8980600Y-15107924D01*
X8990124Y-15126971D01*
X8999648Y-15165067D01*
X8999648Y-15212686D01*
X8990124Y-15250781D01*
X8980600Y-15269828D01*
X8971076Y-15279352D01*
X8952029Y-15288876D01*
X8932981Y-15288876D01*
X8913933Y-15279352D01*
X8904410Y-15269828D01*
X8894886Y-15250781D01*
X8885362Y-15212686D01*
X8885362Y-15165067D01*
X8894886Y-15126971D01*
X8904410Y-15107924D01*
X8913933Y-15098400D01*
X8932981Y-15088876D01*
X9085362Y-15288876D02*
X9085362Y-15155543D01*
X9085362Y-15174590D02*
X9094886Y-15165067D01*
X9113933Y-15155543D01*
X9142505Y-15155543D01*
X9161552Y-15165067D01*
X9171076Y-15184114D01*
X9171076Y-15288876D01*
X9171076Y-15184114D02*
X9180600Y-15165067D01*
X9199648Y-15155543D01*
X9228219Y-15155543D01*
X9247267Y-15165067D01*
X9256790Y-15184114D01*
X9256790Y-15288876D01*
X9352029Y-15288876D02*
X9352029Y-15155543D01*
X9352029Y-15174590D02*
X9361552Y-15165067D01*
X9380600Y-15155543D01*
X9409171Y-15155543D01*
X9428219Y-15165067D01*
X9437743Y-15184114D01*
X9437743Y-15288876D01*
X9437743Y-15184114D02*
X9447267Y-15165067D01*
X9466314Y-15155543D01*
X9494886Y-15155543D01*
X9513933Y-15165067D01*
X9523457Y-15184114D01*
X9523457Y-15288876D01*
X9913933Y-15079352D02*
X9742505Y-15336495D01*
X10171076Y-15088876D02*
X10190124Y-15088876D01*
X10209171Y-15098400D01*
X10218695Y-15107924D01*
X10228219Y-15126971D01*
X10237743Y-15165067D01*
X10237743Y-15212686D01*
X10228219Y-15250781D01*
X10218695Y-15269828D01*
X10209171Y-15279352D01*
X10190124Y-15288876D01*
X10171076Y-15288876D01*
X10152029Y-15279352D01*
X10142505Y-15269828D01*
X10132981Y-15250781D01*
X10123457Y-15212686D01*
X10123457Y-15165067D01*
X10132981Y-15126971D01*
X10142505Y-15107924D01*
X10152029Y-15098400D01*
X10171076Y-15088876D01*
X10323457Y-15269828D02*
X10332981Y-15279352D01*
X10323457Y-15288876D01*
X10313933Y-15279352D01*
X10323457Y-15269828D01*
X10323457Y-15288876D01*
X10456790Y-15088876D02*
X10475838Y-15088876D01*
X10494886Y-15098400D01*
X10504410Y-15107924D01*
X10513933Y-15126971D01*
X10523457Y-15165067D01*
X10523457Y-15212686D01*
X10513933Y-15250781D01*
X10504410Y-15269828D01*
X10494886Y-15279352D01*
X10475838Y-15288876D01*
X10456790Y-15288876D01*
X10437743Y-15279352D01*
X10428219Y-15269828D01*
X10418695Y-15250781D01*
X10409171Y-15212686D01*
X10409171Y-15165067D01*
X10418695Y-15126971D01*
X10428219Y-15107924D01*
X10437743Y-15098400D01*
X10456790Y-15088876D01*
X10704410Y-15088876D02*
X10609171Y-15088876D01*
X10599648Y-15184114D01*
X10609171Y-15174590D01*
X10628219Y-15165067D01*
X10675838Y-15165067D01*
X10694886Y-15174590D01*
X10704410Y-15184114D01*
X10713933Y-15203162D01*
X10713933Y-15250781D01*
X10704410Y-15269828D01*
X10694886Y-15279352D01*
X10675838Y-15288876D01*
X10628219Y-15288876D01*
X10609171Y-15279352D01*
X10599648Y-15269828D01*
X10894886Y-15088876D02*
X10799648Y-15088876D01*
X10790124Y-15184114D01*
X10799648Y-15174590D01*
X10818695Y-15165067D01*
X10866314Y-15165067D01*
X10885362Y-15174590D01*
X10894886Y-15184114D01*
X10904410Y-15203162D01*
X10904410Y-15250781D01*
X10894886Y-15269828D01*
X10885362Y-15279352D01*
X10866314Y-15288876D01*
X10818695Y-15288876D01*
X10799648Y-15279352D01*
X10790124Y-15269828D01*
X11094886Y-15288876D02*
X10980600Y-15288876D01*
X11037743Y-15288876D02*
X11037743Y-15088876D01*
X11018695Y-15117448D01*
X10999648Y-15136495D01*
X10980600Y-15146019D01*
X11171076Y-15088876D02*
X11171076Y-15126971D01*
X11247267Y-15088876D02*
X11247267Y-15126971D01*
X11542505Y-15365067D02*
X11532981Y-15355543D01*
X11513933Y-15326971D01*
X11504409Y-15307924D01*
X11494886Y-15279352D01*
X11485362Y-15231733D01*
X11485362Y-15193638D01*
X11494886Y-15146019D01*
X11504409Y-15117448D01*
X11513933Y-15098400D01*
X11532981Y-15069828D01*
X11542505Y-15060305D01*
X11704409Y-15155543D02*
X11704409Y-15288876D01*
X11656790Y-15079352D02*
X11609171Y-15222209D01*
X11732981Y-15222209D01*
X11961552Y-15288876D02*
X11961552Y-15088876D01*
X12047267Y-15288876D02*
X12047267Y-15184114D01*
X12037743Y-15165067D01*
X12018695Y-15155543D01*
X11990124Y-15155543D01*
X11971076Y-15165067D01*
X11961552Y-15174590D01*
X12171076Y-15288876D02*
X12152028Y-15279352D01*
X12142505Y-15269828D01*
X12132981Y-15250781D01*
X12132981Y-15193638D01*
X12142505Y-15174590D01*
X12152028Y-15165067D01*
X12171076Y-15155543D01*
X12199648Y-15155543D01*
X12218695Y-15165067D01*
X12228219Y-15174590D01*
X12237743Y-15193638D01*
X12237743Y-15250781D01*
X12228219Y-15269828D01*
X12218695Y-15279352D01*
X12199648Y-15288876D01*
X12171076Y-15288876D01*
X12352028Y-15288876D02*
X12332981Y-15279352D01*
X12323457Y-15260305D01*
X12323457Y-15088876D01*
X12504409Y-15279352D02*
X12485362Y-15288876D01*
X12447267Y-15288876D01*
X12428219Y-15279352D01*
X12418695Y-15260305D01*
X12418695Y-15184114D01*
X12428219Y-15165067D01*
X12447267Y-15155543D01*
X12485362Y-15155543D01*
X12504409Y-15165067D01*
X12513933Y-15184114D01*
X12513933Y-15203162D01*
X12418695Y-15222209D01*
X12590124Y-15279352D02*
X12609171Y-15288876D01*
X12647267Y-15288876D01*
X12666314Y-15279352D01*
X12675838Y-15260305D01*
X12675838Y-15250781D01*
X12666314Y-15231733D01*
X12647267Y-15222209D01*
X12618695Y-15222209D01*
X12599648Y-15212686D01*
X12590124Y-15193638D01*
X12590124Y-15184114D01*
X12599648Y-15165067D01*
X12618695Y-15155543D01*
X12647267Y-15155543D01*
X12666314Y-15165067D01*
X12742505Y-15365067D02*
X12752028Y-15355543D01*
X12771076Y-15326971D01*
X12780600Y-15307924D01*
X12790124Y-15279352D01*
X12799648Y-15231733D01*
X12799648Y-15193638D01*
X12790124Y-15146019D01*
X12780600Y-15117448D01*
X12771076Y-15098400D01*
X12752028Y-15069828D01*
X12742505Y-15060305D01*
X7770600Y-15362400D02*
X7970600Y-15562400D01*
X7970600Y-15362400D02*
X7770600Y-15562400D01*
X7870600Y-15362400D02*
X7870600Y-15562400D01*
X7770600Y-15462400D02*
X7970600Y-15462400D01*
X8218695Y-15371924D02*
X8228219Y-15362400D01*
X8247267Y-15352876D01*
X8294886Y-15352876D01*
X8313933Y-15362400D01*
X8323457Y-15371924D01*
X8332981Y-15390971D01*
X8332981Y-15410019D01*
X8323457Y-15438590D01*
X8209171Y-15552876D01*
X8332981Y-15552876D01*
X8418695Y-15533828D02*
X8428219Y-15543352D01*
X8418695Y-15552876D01*
X8409171Y-15543352D01*
X8418695Y-15533828D01*
X8418695Y-15552876D01*
X8609171Y-15352876D02*
X8513933Y-15352876D01*
X8504410Y-15448114D01*
X8513933Y-15438590D01*
X8532981Y-15429067D01*
X8580600Y-15429067D01*
X8599648Y-15438590D01*
X8609171Y-15448114D01*
X8618695Y-15467162D01*
X8618695Y-15514781D01*
X8609171Y-15533828D01*
X8599648Y-15543352D01*
X8580600Y-15552876D01*
X8532981Y-15552876D01*
X8513933Y-15543352D01*
X8504410Y-15533828D01*
X8742505Y-15352876D02*
X8761552Y-15352876D01*
X8780600Y-15362400D01*
X8790124Y-15371924D01*
X8799648Y-15390971D01*
X8809171Y-15429067D01*
X8809171Y-15476686D01*
X8799648Y-15514781D01*
X8790124Y-15533828D01*
X8780600Y-15543352D01*
X8761552Y-15552876D01*
X8742505Y-15552876D01*
X8723457Y-15543352D01*
X8713933Y-15533828D01*
X8704410Y-15514781D01*
X8694886Y-15476686D01*
X8694886Y-15429067D01*
X8704410Y-15390971D01*
X8713933Y-15371924D01*
X8723457Y-15362400D01*
X8742505Y-15352876D01*
X8932981Y-15352876D02*
X8952029Y-15352876D01*
X8971076Y-15362400D01*
X8980600Y-15371924D01*
X8990124Y-15390971D01*
X8999648Y-15429067D01*
X8999648Y-15476686D01*
X8990124Y-15514781D01*
X8980600Y-15533828D01*
X8971076Y-15543352D01*
X8952029Y-15552876D01*
X8932981Y-15552876D01*
X8913933Y-15543352D01*
X8904410Y-15533828D01*
X8894886Y-15514781D01*
X8885362Y-15476686D01*
X8885362Y-15429067D01*
X8894886Y-15390971D01*
X8904410Y-15371924D01*
X8913933Y-15362400D01*
X8932981Y-15352876D01*
X9085362Y-15552876D02*
X9085362Y-15419543D01*
X9085362Y-15438590D02*
X9094886Y-15429067D01*
X9113933Y-15419543D01*
X9142505Y-15419543D01*
X9161552Y-15429067D01*
X9171076Y-15448114D01*
X9171076Y-15552876D01*
X9171076Y-15448114D02*
X9180600Y-15429067D01*
X9199648Y-15419543D01*
X9228219Y-15419543D01*
X9247267Y-15429067D01*
X9256790Y-15448114D01*
X9256790Y-15552876D01*
X9352029Y-15552876D02*
X9352029Y-15419543D01*
X9352029Y-15438590D02*
X9361552Y-15429067D01*
X9380600Y-15419543D01*
X9409171Y-15419543D01*
X9428219Y-15429067D01*
X9437743Y-15448114D01*
X9437743Y-15552876D01*
X9437743Y-15448114D02*
X9447267Y-15429067D01*
X9466314Y-15419543D01*
X9494886Y-15419543D01*
X9513933Y-15429067D01*
X9523457Y-15448114D01*
X9523457Y-15552876D01*
X9913933Y-15343352D02*
X9742505Y-15600495D01*
X10171076Y-15352876D02*
X10190124Y-15352876D01*
X10209171Y-15362400D01*
X10218695Y-15371924D01*
X10228219Y-15390971D01*
X10237743Y-15429067D01*
X10237743Y-15476686D01*
X10228219Y-15514781D01*
X10218695Y-15533828D01*
X10209171Y-15543352D01*
X10190124Y-15552876D01*
X10171076Y-15552876D01*
X10152029Y-15543352D01*
X10142505Y-15533828D01*
X10132981Y-15514781D01*
X10123457Y-15476686D01*
X10123457Y-15429067D01*
X10132981Y-15390971D01*
X10142505Y-15371924D01*
X10152029Y-15362400D01*
X10171076Y-15352876D01*
X10323457Y-15533828D02*
X10332981Y-15543352D01*
X10323457Y-15552876D01*
X10313933Y-15543352D01*
X10323457Y-15533828D01*
X10323457Y-15552876D01*
X10456790Y-15352876D02*
X10475838Y-15352876D01*
X10494886Y-15362400D01*
X10504410Y-15371924D01*
X10513933Y-15390971D01*
X10523457Y-15429067D01*
X10523457Y-15476686D01*
X10513933Y-15514781D01*
X10504410Y-15533828D01*
X10494886Y-15543352D01*
X10475838Y-15552876D01*
X10456790Y-15552876D01*
X10437743Y-15543352D01*
X10428219Y-15533828D01*
X10418695Y-15514781D01*
X10409171Y-15476686D01*
X10409171Y-15429067D01*
X10418695Y-15390971D01*
X10428219Y-15371924D01*
X10437743Y-15362400D01*
X10456790Y-15352876D01*
X10618695Y-15552876D02*
X10656790Y-15552876D01*
X10675838Y-15543352D01*
X10685362Y-15533828D01*
X10704410Y-15505257D01*
X10713933Y-15467162D01*
X10713933Y-15390971D01*
X10704410Y-15371924D01*
X10694886Y-15362400D01*
X10675838Y-15352876D01*
X10637743Y-15352876D01*
X10618695Y-15362400D01*
X10609171Y-15371924D01*
X10599648Y-15390971D01*
X10599648Y-15438590D01*
X10609171Y-15457638D01*
X10618695Y-15467162D01*
X10637743Y-15476686D01*
X10675838Y-15476686D01*
X10694886Y-15467162D01*
X10704410Y-15457638D01*
X10713933Y-15438590D01*
X10828219Y-15438590D02*
X10809171Y-15429067D01*
X10799648Y-15419543D01*
X10790124Y-15400495D01*
X10790124Y-15390971D01*
X10799648Y-15371924D01*
X10809171Y-15362400D01*
X10828219Y-15352876D01*
X10866314Y-15352876D01*
X10885362Y-15362400D01*
X10894886Y-15371924D01*
X10904410Y-15390971D01*
X10904410Y-15400495D01*
X10894886Y-15419543D01*
X10885362Y-15429067D01*
X10866314Y-15438590D01*
X10828219Y-15438590D01*
X10809171Y-15448114D01*
X10799648Y-15457638D01*
X10790124Y-15476686D01*
X10790124Y-15514781D01*
X10799648Y-15533828D01*
X10809171Y-15543352D01*
X10828219Y-15552876D01*
X10866314Y-15552876D01*
X10885362Y-15543352D01*
X10894886Y-15533828D01*
X10904410Y-15514781D01*
X10904410Y-15476686D01*
X10894886Y-15457638D01*
X10885362Y-15448114D01*
X10866314Y-15438590D01*
X11075838Y-15419543D02*
X11075838Y-15552876D01*
X11028219Y-15343352D02*
X10980600Y-15486209D01*
X11104410Y-15486209D01*
X11171076Y-15352876D02*
X11171076Y-15390971D01*
X11247267Y-15352876D02*
X11247267Y-15390971D01*
X11542505Y-15629067D02*
X11532981Y-15619543D01*
X11513933Y-15590971D01*
X11504409Y-15571924D01*
X11494886Y-15543352D01*
X11485362Y-15495733D01*
X11485362Y-15457638D01*
X11494886Y-15410019D01*
X11504409Y-15381448D01*
X11513933Y-15362400D01*
X11532981Y-15333828D01*
X11542505Y-15324305D01*
X11704409Y-15419543D02*
X11704409Y-15552876D01*
X11656790Y-15343352D02*
X11609171Y-15486209D01*
X11732981Y-15486209D01*
X11961552Y-15552876D02*
X11961552Y-15352876D01*
X12047267Y-15552876D02*
X12047267Y-15448114D01*
X12037743Y-15429067D01*
X12018695Y-15419543D01*
X11990124Y-15419543D01*
X11971076Y-15429067D01*
X11961552Y-15438590D01*
X12171076Y-15552876D02*
X12152028Y-15543352D01*
X12142505Y-15533828D01*
X12132981Y-15514781D01*
X12132981Y-15457638D01*
X12142505Y-15438590D01*
X12152028Y-15429067D01*
X12171076Y-15419543D01*
X12199648Y-15419543D01*
X12218695Y-15429067D01*
X12228219Y-15438590D01*
X12237743Y-15457638D01*
X12237743Y-15514781D01*
X12228219Y-15533828D01*
X12218695Y-15543352D01*
X12199648Y-15552876D01*
X12171076Y-15552876D01*
X12352028Y-15552876D02*
X12332981Y-15543352D01*
X12323457Y-15524305D01*
X12323457Y-15352876D01*
X12504409Y-15543352D02*
X12485362Y-15552876D01*
X12447267Y-15552876D01*
X12428219Y-15543352D01*
X12418695Y-15524305D01*
X12418695Y-15448114D01*
X12428219Y-15429067D01*
X12447267Y-15419543D01*
X12485362Y-15419543D01*
X12504409Y-15429067D01*
X12513933Y-15448114D01*
X12513933Y-15467162D01*
X12418695Y-15486209D01*
X12590124Y-15543352D02*
X12609171Y-15552876D01*
X12647267Y-15552876D01*
X12666314Y-15543352D01*
X12675838Y-15524305D01*
X12675838Y-15514781D01*
X12666314Y-15495733D01*
X12647267Y-15486209D01*
X12618695Y-15486209D01*
X12599648Y-15476686D01*
X12590124Y-15457638D01*
X12590124Y-15448114D01*
X12599648Y-15429067D01*
X12618695Y-15419543D01*
X12647267Y-15419543D01*
X12666314Y-15429067D01*
X12742505Y-15629067D02*
X12752028Y-15619543D01*
X12771076Y-15590971D01*
X12780600Y-15571924D01*
X12790124Y-15543352D01*
X12799648Y-15495733D01*
X12799648Y-15457638D01*
X12790124Y-15410019D01*
X12780600Y-15381448D01*
X12771076Y-15362400D01*
X12752028Y-15333828D01*
X12742505Y-15324305D01*
X7770600Y-15682400D02*
X7970600Y-15882400D01*
X7970600Y-15682400D02*
X7770600Y-15882400D01*
X7941311Y-15853111D02*
X7941311Y-15711689D01*
X7799889Y-15711689D01*
X7799889Y-15853111D01*
X7941311Y-15853111D01*
X8313933Y-15739543D02*
X8313933Y-15872876D01*
X8266314Y-15663352D02*
X8218695Y-15806209D01*
X8342505Y-15806209D01*
X8418695Y-15853828D02*
X8428219Y-15863352D01*
X8418695Y-15872876D01*
X8409171Y-15863352D01*
X8418695Y-15853828D01*
X8418695Y-15872876D01*
X8494886Y-15672876D02*
X8618695Y-15672876D01*
X8552029Y-15749067D01*
X8580600Y-15749067D01*
X8599648Y-15758590D01*
X8609171Y-15768114D01*
X8618695Y-15787162D01*
X8618695Y-15834781D01*
X8609171Y-15853828D01*
X8599648Y-15863352D01*
X8580600Y-15872876D01*
X8523457Y-15872876D01*
X8504410Y-15863352D01*
X8494886Y-15853828D01*
X8742505Y-15672876D02*
X8761552Y-15672876D01*
X8780600Y-15682400D01*
X8790124Y-15691924D01*
X8799648Y-15710971D01*
X8809171Y-15749067D01*
X8809171Y-15796686D01*
X8799648Y-15834781D01*
X8790124Y-15853828D01*
X8780600Y-15863352D01*
X8761552Y-15872876D01*
X8742505Y-15872876D01*
X8723457Y-15863352D01*
X8713933Y-15853828D01*
X8704410Y-15834781D01*
X8694886Y-15796686D01*
X8694886Y-15749067D01*
X8704410Y-15710971D01*
X8713933Y-15691924D01*
X8723457Y-15682400D01*
X8742505Y-15672876D01*
X8932981Y-15672876D02*
X8952029Y-15672876D01*
X8971076Y-15682400D01*
X8980600Y-15691924D01*
X8990124Y-15710971D01*
X8999648Y-15749067D01*
X8999648Y-15796686D01*
X8990124Y-15834781D01*
X8980600Y-15853828D01*
X8971076Y-15863352D01*
X8952029Y-15872876D01*
X8932981Y-15872876D01*
X8913933Y-15863352D01*
X8904410Y-15853828D01*
X8894886Y-15834781D01*
X8885362Y-15796686D01*
X8885362Y-15749067D01*
X8894886Y-15710971D01*
X8904410Y-15691924D01*
X8913933Y-15682400D01*
X8932981Y-15672876D01*
X9085362Y-15872876D02*
X9085362Y-15739543D01*
X9085362Y-15758590D02*
X9094886Y-15749067D01*
X9113933Y-15739543D01*
X9142505Y-15739543D01*
X9161552Y-15749067D01*
X9171076Y-15768114D01*
X9171076Y-15872876D01*
X9171076Y-15768114D02*
X9180600Y-15749067D01*
X9199648Y-15739543D01*
X9228219Y-15739543D01*
X9247267Y-15749067D01*
X9256790Y-15768114D01*
X9256790Y-15872876D01*
X9352029Y-15872876D02*
X9352029Y-15739543D01*
X9352029Y-15758590D02*
X9361552Y-15749067D01*
X9380600Y-15739543D01*
X9409171Y-15739543D01*
X9428219Y-15749067D01*
X9437743Y-15768114D01*
X9437743Y-15872876D01*
X9437743Y-15768114D02*
X9447267Y-15749067D01*
X9466314Y-15739543D01*
X9494886Y-15739543D01*
X9513933Y-15749067D01*
X9523457Y-15768114D01*
X9523457Y-15872876D01*
X9913933Y-15663352D02*
X9742505Y-15920495D01*
X10171076Y-15672876D02*
X10190124Y-15672876D01*
X10209171Y-15682400D01*
X10218695Y-15691924D01*
X10228219Y-15710971D01*
X10237743Y-15749067D01*
X10237743Y-15796686D01*
X10228219Y-15834781D01*
X10218695Y-15853828D01*
X10209171Y-15863352D01*
X10190124Y-15872876D01*
X10171076Y-15872876D01*
X10152029Y-15863352D01*
X10142505Y-15853828D01*
X10132981Y-15834781D01*
X10123457Y-15796686D01*
X10123457Y-15749067D01*
X10132981Y-15710971D01*
X10142505Y-15691924D01*
X10152029Y-15682400D01*
X10171076Y-15672876D01*
X10323457Y-15853828D02*
X10332981Y-15863352D01*
X10323457Y-15872876D01*
X10313933Y-15863352D01*
X10323457Y-15853828D01*
X10323457Y-15872876D01*
X10523457Y-15872876D02*
X10409171Y-15872876D01*
X10466314Y-15872876D02*
X10466314Y-15672876D01*
X10447267Y-15701448D01*
X10428219Y-15720495D01*
X10409171Y-15730019D01*
X10694886Y-15672876D02*
X10656790Y-15672876D01*
X10637743Y-15682400D01*
X10628219Y-15691924D01*
X10609171Y-15720495D01*
X10599648Y-15758590D01*
X10599648Y-15834781D01*
X10609171Y-15853828D01*
X10618695Y-15863352D01*
X10637743Y-15872876D01*
X10675838Y-15872876D01*
X10694886Y-15863352D01*
X10704410Y-15853828D01*
X10713933Y-15834781D01*
X10713933Y-15787162D01*
X10704410Y-15768114D01*
X10694886Y-15758590D01*
X10675838Y-15749067D01*
X10637743Y-15749067D01*
X10618695Y-15758590D01*
X10609171Y-15768114D01*
X10599648Y-15787162D01*
X10809171Y-15872876D02*
X10847267Y-15872876D01*
X10866314Y-15863352D01*
X10875838Y-15853828D01*
X10894886Y-15825257D01*
X10904410Y-15787162D01*
X10904410Y-15710971D01*
X10894886Y-15691924D01*
X10885362Y-15682400D01*
X10866314Y-15672876D01*
X10828219Y-15672876D01*
X10809171Y-15682400D01*
X10799648Y-15691924D01*
X10790124Y-15710971D01*
X10790124Y-15758590D01*
X10799648Y-15777638D01*
X10809171Y-15787162D01*
X10828219Y-15796686D01*
X10866314Y-15796686D01*
X10885362Y-15787162D01*
X10894886Y-15777638D01*
X10904410Y-15758590D01*
X10971076Y-15672876D02*
X11094886Y-15672876D01*
X11028219Y-15749067D01*
X11056790Y-15749067D01*
X11075838Y-15758590D01*
X11085362Y-15768114D01*
X11094886Y-15787162D01*
X11094886Y-15834781D01*
X11085362Y-15853828D01*
X11075838Y-15863352D01*
X11056790Y-15872876D01*
X10999648Y-15872876D01*
X10980600Y-15863352D01*
X10971076Y-15853828D01*
X11171076Y-15672876D02*
X11171076Y-15710971D01*
X11247267Y-15672876D02*
X11247267Y-15710971D01*
X11542505Y-15949067D02*
X11532981Y-15939543D01*
X11513933Y-15910971D01*
X11504409Y-15891924D01*
X11494886Y-15863352D01*
X11485362Y-15815733D01*
X11485362Y-15777638D01*
X11494886Y-15730019D01*
X11504409Y-15701448D01*
X11513933Y-15682400D01*
X11532981Y-15653828D01*
X11542505Y-15644305D01*
X11704409Y-15672876D02*
X11666314Y-15672876D01*
X11647267Y-15682400D01*
X11637743Y-15691924D01*
X11618695Y-15720495D01*
X11609171Y-15758590D01*
X11609171Y-15834781D01*
X11618695Y-15853828D01*
X11628219Y-15863352D01*
X11647267Y-15872876D01*
X11685362Y-15872876D01*
X11704409Y-15863352D01*
X11713933Y-15853828D01*
X11723457Y-15834781D01*
X11723457Y-15787162D01*
X11713933Y-15768114D01*
X11704409Y-15758590D01*
X11685362Y-15749067D01*
X11647267Y-15749067D01*
X11628219Y-15758590D01*
X11618695Y-15768114D01*
X11609171Y-15787162D01*
X11961552Y-15872876D02*
X11961552Y-15672876D01*
X12047267Y-15872876D02*
X12047267Y-15768114D01*
X12037743Y-15749067D01*
X12018695Y-15739543D01*
X11990124Y-15739543D01*
X11971076Y-15749067D01*
X11961552Y-15758590D01*
X12171076Y-15872876D02*
X12152028Y-15863352D01*
X12142505Y-15853828D01*
X12132981Y-15834781D01*
X12132981Y-15777638D01*
X12142505Y-15758590D01*
X12152028Y-15749067D01*
X12171076Y-15739543D01*
X12199648Y-15739543D01*
X12218695Y-15749067D01*
X12228219Y-15758590D01*
X12237743Y-15777638D01*
X12237743Y-15834781D01*
X12228219Y-15853828D01*
X12218695Y-15863352D01*
X12199648Y-15872876D01*
X12171076Y-15872876D01*
X12352028Y-15872876D02*
X12332981Y-15863352D01*
X12323457Y-15844305D01*
X12323457Y-15672876D01*
X12504409Y-15863352D02*
X12485362Y-15872876D01*
X12447267Y-15872876D01*
X12428219Y-15863352D01*
X12418695Y-15844305D01*
X12418695Y-15768114D01*
X12428219Y-15749067D01*
X12447267Y-15739543D01*
X12485362Y-15739543D01*
X12504409Y-15749067D01*
X12513933Y-15768114D01*
X12513933Y-15787162D01*
X12418695Y-15806209D01*
X12590124Y-15863352D02*
X12609171Y-15872876D01*
X12647267Y-15872876D01*
X12666314Y-15863352D01*
X12675838Y-15844305D01*
X12675838Y-15834781D01*
X12666314Y-15815733D01*
X12647267Y-15806209D01*
X12618695Y-15806209D01*
X12599648Y-15796686D01*
X12590124Y-15777638D01*
X12590124Y-15768114D01*
X12599648Y-15749067D01*
X12618695Y-15739543D01*
X12647267Y-15739543D01*
X12666314Y-15749067D01*
X12742505Y-15949067D02*
X12752028Y-15939543D01*
X12771076Y-15910971D01*
X12780600Y-15891924D01*
X12790124Y-15863352D01*
X12799648Y-15815733D01*
X12799648Y-15777638D01*
X12790124Y-15730019D01*
X12780600Y-15701448D01*
X12771076Y-15682400D01*
X12752028Y-15653828D01*
X12742505Y-15644305D01*
M02*
