G04 #@! TF.GenerationSoftware,KiCad,Pcbnew,6.0.5+dfsg-1~bpo11+1*
G04 #@! TF.CreationDate,2022-08-10T11:56:57+00:00*
G04 #@! TF.ProjectId,ADSR_pcb_panel,41445352-5f70-4636-925f-70616e656c2e,0*
G04 #@! TF.SameCoordinates,Original*
G04 #@! TF.FileFunction,Profile,NP*
%FSLAX46Y46*%
G04 Gerber Fmt 4.6, Leading zero omitted, Abs format (unit mm)*
G04 Created by KiCad (PCBNEW 6.0.5+dfsg-1~bpo11+1) date 2022-08-10 11:56:57*
%MOMM*%
%LPD*%
G01*
G04 APERTURE LIST*
G04 #@! TA.AperFunction,Profile*
%ADD10C,0.100000*%
G04 #@! TD*
G04 #@! TA.AperFunction,Profile*
%ADD11C,0.150000*%
G04 #@! TD*
G04 APERTURE END LIST*
D10*
X246380002Y-32384998D02*
G75*
G03*
X241300002Y-27304998I-5080002J-2D01*
G01*
X41909998Y-27304998D02*
X241300002Y-27304998D01*
X36829998Y-155575002D02*
G75*
G03*
X41909998Y-160655002I5080002J2D01*
G01*
X241300002Y-160655002D02*
G75*
G03*
X246380002Y-155575002I-2J5080002D01*
G01*
X246380002Y-32384998D02*
X246380002Y-155575002D01*
D11*
X110230000Y-140335000D02*
G75*
G03*
X110230000Y-140335000I-3550000J0D01*
G01*
D10*
X41909998Y-27304998D02*
G75*
G03*
X36829998Y-32384998I2J-5080002D01*
G01*
D11*
X65780000Y-51435000D02*
G75*
G03*
X65780000Y-51435000I-3550000J0D01*
G01*
X65780000Y-95885000D02*
G75*
G03*
X65780000Y-95885000I-3550000J0D01*
G01*
X154680000Y-51435000D02*
G75*
G03*
X154680000Y-51435000I-3550000J0D01*
G01*
X199130000Y-51435000D02*
G75*
G03*
X199130000Y-51435000I-3550000J0D01*
G01*
X199130000Y-140335000D02*
G75*
G03*
X199130000Y-140335000I-3550000J0D01*
G01*
X224155000Y-95885000D02*
G75*
G03*
X224155000Y-95885000I-3175000J0D01*
G01*
X224155000Y-51435000D02*
G75*
G03*
X224155000Y-51435000I-3175000J0D01*
G01*
D10*
X36829998Y-155575002D02*
X36829998Y-32384998D01*
X241300002Y-160655002D02*
X41909998Y-160655002D01*
D11*
X65780000Y-140335000D02*
G75*
G03*
X65780000Y-140335000I-3550000J0D01*
G01*
X154680000Y-140335000D02*
G75*
G03*
X154680000Y-140335000I-3550000J0D01*
G01*
X199130000Y-95885000D02*
G75*
G03*
X199130000Y-95885000I-3550000J0D01*
G01*
X224155000Y-140335000D02*
G75*
G03*
X224155000Y-140335000I-3175000J0D01*
G01*
X110230000Y-95885000D02*
G75*
G03*
X110230000Y-95885000I-3550000J0D01*
G01*
X154680000Y-95885000D02*
G75*
G03*
X154680000Y-95885000I-3550000J0D01*
G01*
X110230000Y-51435000D02*
G75*
G03*
X110230000Y-51435000I-3550000J0D01*
G01*
M02*
