%FSLAX45Y45*%
G04 Gerber Fmt 4.5, Leading zero omitted, Abs format (unit mm)*
G04 Created by KiCad (PCBNEW 6.0.5+dfsg-1~bpo11+1) date 2022-08-10 11:56:57*
%MOMM*%
%LPD*%
G01*
G04 APERTURE LIST*
%TA.AperFunction,Profile*%
%ADD10C,0.100000*%
%TD*%
%TA.AperFunction,Profile*%
%ADD11C,0.150000*%
%TD*%
%ADD12C,0.200000*%
G04 APERTURE END LIST*
D10*
X24638000Y-3238500D02*
G75*
G03*
X24130000Y-2730500I-508000J0D01*
G01*
X4191000Y-2730500D02*
X24130000Y-2730500D01*
X3683000Y-15557500D02*
G75*
G03*
X4191000Y-16065500I508000J0D01*
G01*
X24130000Y-16065500D02*
G75*
G03*
X24638000Y-15557500I0J508000D01*
G01*
X24638000Y-3238500D02*
X24638000Y-15557500D01*
D11*
X11023000Y-14033500D02*
G75*
G03*
X11023000Y-14033500I-355000J0D01*
G01*
D10*
X4191000Y-2730500D02*
G75*
G03*
X3683000Y-3238500I0J-508000D01*
G01*
D11*
X6578000Y-5143500D02*
G75*
G03*
X6578000Y-5143500I-355000J0D01*
G01*
X6578000Y-9588500D02*
G75*
G03*
X6578000Y-9588500I-355000J0D01*
G01*
X15468000Y-5143500D02*
G75*
G03*
X15468000Y-5143500I-355000J0D01*
G01*
X19913000Y-5143500D02*
G75*
G03*
X19913000Y-5143500I-355000J0D01*
G01*
X19913000Y-14033500D02*
G75*
G03*
X19913000Y-14033500I-355000J0D01*
G01*
X22415500Y-9588500D02*
G75*
G03*
X22415500Y-9588500I-317500J0D01*
G01*
X22415500Y-5143500D02*
G75*
G03*
X22415500Y-5143500I-317500J0D01*
G01*
D10*
X3683000Y-15557500D02*
X3683000Y-3238500D01*
X24130000Y-16065500D02*
X4191000Y-16065500D01*
D11*
X6578000Y-14033500D02*
G75*
G03*
X6578000Y-14033500I-355000J0D01*
G01*
X15468000Y-14033500D02*
G75*
G03*
X15468000Y-14033500I-355000J0D01*
G01*
X19913000Y-9588500D02*
G75*
G03*
X19913000Y-9588500I-355000J0D01*
G01*
X22415500Y-14033500D02*
G75*
G03*
X22415500Y-14033500I-317500J0D01*
G01*
X11023000Y-9588500D02*
G75*
G03*
X11023000Y-9588500I-355000J0D01*
G01*
X15468000Y-9588500D02*
G75*
G03*
X15468000Y-9588500I-355000J0D01*
G01*
X11023000Y-5143500D02*
G75*
G03*
X11023000Y-5143500I-355000J0D01*
G01*
D12*
X3935619Y-16380976D02*
X3935619Y-16180976D01*
X3983238Y-16180976D01*
X4011809Y-16190500D01*
X4030857Y-16209548D01*
X4040381Y-16228595D01*
X4049904Y-16266691D01*
X4049904Y-16295262D01*
X4040381Y-16333357D01*
X4030857Y-16352405D01*
X4011809Y-16371452D01*
X3983238Y-16380976D01*
X3935619Y-16380976D01*
X4135619Y-16380976D02*
X4135619Y-16247643D01*
X4135619Y-16285738D02*
X4145143Y-16266691D01*
X4154666Y-16257167D01*
X4173714Y-16247643D01*
X4192762Y-16247643D01*
X4259428Y-16380976D02*
X4259428Y-16247643D01*
X4259428Y-16180976D02*
X4249905Y-16190500D01*
X4259428Y-16200024D01*
X4268952Y-16190500D01*
X4259428Y-16180976D01*
X4259428Y-16200024D01*
X4383238Y-16380976D02*
X4364190Y-16371452D01*
X4354666Y-16352405D01*
X4354666Y-16180976D01*
X4488000Y-16380976D02*
X4468952Y-16371452D01*
X4459428Y-16352405D01*
X4459428Y-16180976D01*
X4716571Y-16380976D02*
X4716571Y-16180976D01*
X4783238Y-16323833D01*
X4849905Y-16180976D01*
X4849905Y-16380976D01*
X5030857Y-16380976D02*
X5030857Y-16276214D01*
X5021333Y-16257167D01*
X5002286Y-16247643D01*
X4964190Y-16247643D01*
X4945143Y-16257167D01*
X5030857Y-16371452D02*
X5011809Y-16380976D01*
X4964190Y-16380976D01*
X4945143Y-16371452D01*
X4935619Y-16352405D01*
X4935619Y-16333357D01*
X4945143Y-16314310D01*
X4964190Y-16304786D01*
X5011809Y-16304786D01*
X5030857Y-16295262D01*
X5126095Y-16247643D02*
X5126095Y-16447643D01*
X5126095Y-16257167D02*
X5145143Y-16247643D01*
X5183238Y-16247643D01*
X5202286Y-16257167D01*
X5211809Y-16266691D01*
X5221333Y-16285738D01*
X5221333Y-16342881D01*
X5211809Y-16361929D01*
X5202286Y-16371452D01*
X5183238Y-16380976D01*
X5145143Y-16380976D01*
X5126095Y-16371452D01*
X5307047Y-16361929D02*
X5316571Y-16371452D01*
X5307047Y-16380976D01*
X5297524Y-16371452D01*
X5307047Y-16361929D01*
X5307047Y-16380976D01*
X5307047Y-16257167D02*
X5316571Y-16266691D01*
X5307047Y-16276214D01*
X5297524Y-16266691D01*
X5307047Y-16257167D01*
X5307047Y-16276214D01*
M02*
